G75*
G71*
%MOMM*%
%OFA0B0*%
%FSLAX53Y53*%
%IPPOS*%
%LPD*%
%ADD10R,2.23520X2.54000*%
%ADD11R,1.93040X1.93040*%
%ADD13R,2.23520X2.23520*%
%ADD14C,2.50698*%
%ADD16O,2.23520X2.54000*%
%ADD19O,2.23520X2.23520*%
%ADD20R,2.50698X6.60400*%
%ADD22R,2.54000X2.30800*%
%ADD32R,6.60400X2.50698*%
%ADD33C,2.28600*%
%ADD36R,2.54000X2.23520*%
%ADD37R,2.03200X9.50722*%
%ADD39C,1.90500*%
%ADD45R,2.30800X2.54000*%
%ADD51R,2.03200X2.03200*%
%ADD54C,1.93040*%
%ADD56C,0.15000*%
%ADD57O,2.54000X2.23520*%
%ADD59C,2.10820*%
%ADD60R,9.50722X2.03200*%
%ADD62C,2.03200*%
%ADD63C,2.30632*%
%ADD64C,5.50926*%
%ADD67R,2.28600X2.28600*%
%ADD72R,2.50698X2.50698*%
%ADD74O,2.54000X2.54000*%
%ADD81R,1.90500X1.90500*%
%ADD82O,4.50850X2.50698*%
%ADD83O,2.50698X7.50824*%
X0000000Y0000000D02*
G01*
D56*
D64*
X0037003Y0047000D03*
X0003000Y0003000D03*
D54*
X0033001Y0028960D03*
X0033001Y0034040D03*
X0026001Y0028960D03*
X0026001Y0034040D03*
X0015501Y0034040D03*
X0015501Y0028960D03*
X0004501Y0030960D03*
X0004501Y0036040D03*
X0004501Y0015960D03*
X0004501Y0021040D03*
X0015501Y0021039D03*
X0015501Y0015959D03*
X0025501Y0015959D03*
X0025501Y0021039D03*
X0033002Y0015959D03*
X0033002Y0021039D03*
D39*
X0020501Y0028960D03*
X0020501Y0034040D03*
X0010501Y0035940D03*
X0010501Y0030860D03*
X0010500Y0016040D03*
X0010500Y0010960D03*
X0004461Y0026000D03*
X0009541Y0026000D03*
X0020500Y0021039D03*
X0020500Y0015959D03*
D37*
X0023196Y0005001D03*
D56*
G36*
X0018778Y0001362D02*
X0021284Y0001362D01*
X0020685Y0000354D01*
X0019377Y0000354D01*
X0018778Y0001362D01*
X0018778Y0001362D01*
G37*
D37*
X0016871Y0005001D03*
D20*
X0020031Y0004160D03*
D14*
X0019980Y0006101D03*
D59*
X0017481Y0003601D03*
X0022482Y0003601D03*
D14*
X0022482Y0008600D03*
X0017481Y0008600D03*
D37*
X0008806Y0044799D03*
D56*
G36*
X0013224Y0048438D02*
X0010718Y0048438D01*
X0011317Y0049446D01*
X0012625Y0049446D01*
X0013224Y0048438D01*
X0013224Y0048438D01*
G37*
D37*
X0015131Y0044799D03*
D20*
X0011971Y0045640D03*
D14*
X0012022Y0043699D03*
D59*
X0014521Y0046199D03*
X0009520Y0046199D03*
D14*
X0009520Y0041200D03*
X0014521Y0041200D03*
D37*
X0024806Y0044799D03*
D56*
G36*
X0029224Y0048438D02*
X0026718Y0048438D01*
X0027317Y0049446D01*
X0028625Y0049446D01*
X0029224Y0048438D01*
X0029224Y0048438D01*
G37*
D37*
X0031131Y0044799D03*
D20*
X0027971Y0045640D03*
D14*
X0028022Y0043699D03*
D59*
X0030521Y0046199D03*
X0025520Y0046199D03*
D14*
X0025520Y0041200D03*
X0030521Y0041200D03*
X0040000Y0000000D02*
G01*
D56*
D64*
X0077003Y0047000D03*
X0043000Y0003000D03*
D39*
X0043690Y0028499D03*
X0051310Y0028499D03*
X0043690Y0012500D03*
X0051310Y0012500D03*
X0055091Y0011600D03*
X0062711Y0011600D03*
X0065692Y0026000D03*
X0073312Y0026000D03*
X0065692Y0019500D03*
X0073312Y0019500D03*
X0043690Y0023500D03*
X0051310Y0023500D03*
X0054191Y0034501D03*
X0061811Y0034501D03*
X0044191Y0045499D03*
X0051811Y0045499D03*
X0069002Y0046040D03*
X0069002Y0040960D03*
X0066962Y0013500D03*
X0072042Y0013500D03*
D81*
X0068401Y0032430D03*
D39*
X0068401Y0034970D03*
D81*
X0054231Y0040000D03*
D39*
X0056771Y0040000D03*
D81*
X0060031Y0044600D03*
D39*
X0062571Y0044600D03*
D10*
X0070261Y0002900D03*
D16*
X0067721Y0002900D03*
X0065181Y0002900D03*
X0062641Y0002900D03*
X0060101Y0002900D03*
X0057561Y0002900D03*
X0055021Y0002900D03*
X0052481Y0002900D03*
X0049941Y0002900D03*
D81*
X0059771Y0016630D03*
D39*
X0057231Y0016630D03*
X0057231Y0019170D03*
D81*
X0059671Y0026130D03*
D39*
X0057131Y0026130D03*
X0057131Y0028670D03*
D81*
X0044131Y0036370D03*
D39*
X0046671Y0036370D03*
X0046671Y0033830D03*
X0080000Y0000000D02*
G01*
D56*
D22*
X0116101Y0004030D03*
D74*
X0116101Y0006570D03*
D64*
X0117003Y0047000D03*
X0083000Y0003000D03*
D62*
X0099002Y0037501D03*
X0093002Y0037501D03*
D39*
X0099002Y0034001D03*
X0093002Y0034001D03*
X0099002Y0030501D03*
X0093002Y0030501D03*
D62*
X0097000Y0012500D03*
X0103000Y0012500D03*
D39*
X0097000Y0016000D03*
X0103000Y0016000D03*
X0097000Y0019500D03*
X0103000Y0019500D03*
X0104732Y0031270D03*
D81*
X0104732Y0028730D03*
D39*
X0107272Y0028730D03*
X0106812Y0023000D03*
X0099192Y0023000D03*
D72*
X0107500Y0013231D03*
D14*
X0107500Y0015771D03*
D39*
X0094000Y0021461D03*
X0094000Y0026541D03*
D81*
X0110272Y0005230D03*
D39*
X0107732Y0005230D03*
X0107732Y0007770D03*
X0085730Y0026731D03*
D81*
X0088270Y0026731D03*
D39*
X0088270Y0029271D03*
D60*
X0115001Y0027895D03*
D56*
G36*
X0118640Y0023476D02*
X0118640Y0025983D01*
X0119648Y0025384D01*
X0119648Y0024076D01*
X0118640Y0023476D01*
X0118640Y0023476D01*
G37*
D60*
X0115001Y0021570D03*
D32*
X0115842Y0024730D03*
D14*
X0113901Y0024679D03*
D59*
X0116401Y0022180D03*
X0116401Y0027181D03*
D14*
X0111402Y0027181D03*
X0111402Y0022180D03*
D37*
X0097107Y0044999D03*
D56*
G36*
X0101525Y0048637D02*
X0099018Y0048637D01*
X0099618Y0049646D01*
X0100926Y0049646D01*
X0101525Y0048637D01*
X0101525Y0048637D01*
G37*
D37*
X0103431Y0044999D03*
D20*
X0100272Y0045840D03*
D14*
X0100322Y0043899D03*
D59*
X0102822Y0046398D03*
X0097821Y0046398D03*
D14*
X0097821Y0041400D03*
X0102822Y0041400D03*
D37*
X0102895Y0005002D03*
D56*
G36*
X0098477Y0001363D02*
X0100984Y0001363D01*
X0100385Y0000355D01*
X0099077Y0000355D01*
X0098477Y0001363D01*
X0098477Y0001363D01*
G37*
D37*
X0096571Y0005002D03*
D20*
X0099731Y0004161D03*
D14*
X0099680Y0006101D03*
D59*
X0097180Y0003602D03*
X0102182Y0003602D03*
D14*
X0102182Y0008601D03*
X0097180Y0008601D03*
D36*
X0116001Y0011560D03*
D57*
X0116001Y0014100D03*
X0116001Y0016640D03*
X0120000Y0000000D02*
G01*
D56*
D64*
X0157003Y0047000D03*
X0123000Y0003000D03*
D51*
X0125032Y0021689D03*
D62*
X0125032Y0024229D03*
D11*
X0143210Y0029561D03*
D54*
X0143210Y0037181D03*
D11*
X0137201Y0037021D03*
D54*
X0137201Y0029401D03*
D39*
X0131120Y0020099D03*
X0131120Y0025179D03*
D62*
X0137170Y0016569D03*
X0143170Y0016569D03*
D39*
X0137170Y0020069D03*
X0143170Y0020069D03*
X0137170Y0023569D03*
X0143170Y0023569D03*
D37*
X0143196Y0005101D03*
D56*
G36*
X0138778Y0001462D02*
X0141284Y0001462D01*
X0140685Y0000454D01*
X0139377Y0000454D01*
X0138778Y0001462D01*
X0138778Y0001462D01*
G37*
D37*
X0136871Y0005101D03*
D20*
X0140031Y0004260D03*
D14*
X0139980Y0006201D03*
D59*
X0137481Y0003701D03*
X0142482Y0003701D03*
D14*
X0142482Y0008700D03*
X0137481Y0008700D03*
D37*
X0136806Y0044799D03*
D56*
G36*
X0141224Y0048438D02*
X0138718Y0048438D01*
X0139317Y0049446D01*
X0140625Y0049446D01*
X0141224Y0048438D01*
X0141224Y0048438D01*
G37*
D37*
X0143131Y0044799D03*
D20*
X0139971Y0045640D03*
D14*
X0140022Y0043699D03*
D59*
X0142521Y0046199D03*
X0137520Y0046199D03*
D14*
X0137520Y0041200D03*
X0142521Y0041200D03*
X0000000Y0050000D02*
G01*
D56*
D45*
X0011270Y0053000D03*
D74*
X0008730Y0053000D03*
D45*
X0034112Y0052810D03*
D74*
X0036652Y0052810D03*
D64*
X0037003Y0097000D03*
X0003000Y0053000D03*
D62*
X0038001Y0071501D03*
X0031001Y0069500D03*
D39*
X0030000Y0079690D03*
X0030000Y0087310D03*
X0028001Y0072809D03*
X0028001Y0065189D03*
X0012111Y0092100D03*
X0004491Y0092100D03*
X0029002Y0090191D03*
X0029002Y0097811D03*
X0032001Y0090191D03*
X0032001Y0097811D03*
X0001692Y0098001D03*
X0009312Y0098001D03*
X0030810Y0053000D03*
X0023190Y0053000D03*
D54*
X0036002Y0082459D03*
X0036002Y0087539D03*
D63*
X0016190Y0078636D03*
X0016190Y0073556D03*
X0016190Y0068476D03*
X0023810Y0078636D03*
X0023810Y0073556D03*
X0023810Y0068476D03*
X0016190Y0060856D03*
X0023810Y0060856D03*
D51*
X0013922Y0057001D03*
D62*
X0024082Y0057001D03*
D39*
X0027000Y0081961D03*
X0027000Y0087041D03*
X0016540Y0082500D03*
X0011460Y0082500D03*
X0026002Y0091961D03*
X0026002Y0097041D03*
X0002962Y0094999D03*
X0008042Y0094999D03*
X0019540Y0053000D03*
X0014460Y0053000D03*
X0037000Y0061539D03*
X0037000Y0056459D03*
D83*
X0005311Y0080132D03*
X0005311Y0074128D03*
D82*
X0009812Y0077130D03*
X0003812Y0074130D03*
X0003812Y0080130D03*
D83*
X0005311Y0064892D03*
X0005311Y0058888D03*
D82*
X0009812Y0061890D03*
X0003812Y0058890D03*
X0003812Y0064890D03*
D37*
X0016906Y0094999D03*
D56*
G36*
X0021324Y0098638D02*
X0018818Y0098638D01*
X0019417Y0099646D01*
X0020725Y0099646D01*
X0021324Y0098638D01*
X0021324Y0098638D01*
G37*
D37*
X0023231Y0094999D03*
D20*
X0020071Y0095840D03*
D14*
X0020122Y0093899D03*
D59*
X0022621Y0096399D03*
X0017620Y0096399D03*
D14*
X0017620Y0091400D03*
X0022621Y0091400D03*
D81*
X0031981Y0058588D03*
D39*
X0029441Y0058588D03*
X0029441Y0061128D03*
D81*
X0017503Y0086274D03*
D39*
X0020043Y0086274D03*
X0020043Y0083734D03*
D81*
X0005565Y0087290D03*
D39*
X0008105Y0087290D03*
X0008105Y0084750D03*
X0040000Y0050000D02*
G01*
D56*
D64*
X0077003Y0097000D03*
X0043000Y0053000D03*
D39*
X0055011Y0083401D03*
X0047391Y0083401D03*
X0051811Y0077801D03*
X0044191Y0077801D03*
X0064790Y0062601D03*
X0072410Y0062601D03*
X0072408Y0075200D03*
X0064788Y0075200D03*
X0055011Y0095400D03*
X0047391Y0095400D03*
X0055011Y0089800D03*
X0047391Y0089800D03*
X0051811Y0073399D03*
X0044191Y0073399D03*
X0072410Y0083401D03*
X0064790Y0083401D03*
X0056002Y0066010D03*
X0056002Y0058390D03*
X0061001Y0066010D03*
X0061001Y0058390D03*
X0059599Y0096741D03*
X0059599Y0091661D03*
X0059601Y0088542D03*
X0059601Y0083462D03*
X0072400Y0094740D03*
X0072400Y0089660D03*
X0056060Y0070000D03*
X0061140Y0070000D03*
D10*
X0070261Y0053000D03*
D16*
X0067721Y0053000D03*
X0065181Y0053000D03*
X0062641Y0053000D03*
X0060101Y0053000D03*
X0057561Y0053000D03*
X0055021Y0053000D03*
X0052481Y0053000D03*
X0049941Y0053000D03*
D81*
X0068731Y0068700D03*
D39*
X0071271Y0068700D03*
D81*
X0049901Y0066370D03*
D39*
X0049901Y0063830D03*
D81*
X0056831Y0077870D03*
D39*
X0059371Y0077870D03*
X0059371Y0075330D03*
X0080000Y0050000D02*
G01*
D56*
D64*
X0117003Y0097000D03*
X0083000Y0053000D03*
D39*
X0102192Y0071999D03*
X0109812Y0071999D03*
X0102192Y0094999D03*
X0109812Y0094999D03*
X0085502Y0087689D03*
X0085502Y0095309D03*
X0085692Y0083498D03*
X0093312Y0083498D03*
X0087691Y0071999D03*
X0095311Y0071999D03*
X0087691Y0061999D03*
X0095311Y0061999D03*
X0102192Y0083000D03*
X0109812Y0083000D03*
X0095501Y0087958D03*
X0095501Y0093038D03*
X0099002Y0064460D03*
X0099002Y0069540D03*
X0102662Y0061199D03*
X0107742Y0061199D03*
D10*
X0110161Y0053100D03*
D16*
X0107621Y0053100D03*
X0105081Y0053100D03*
X0102541Y0053100D03*
X0100001Y0053100D03*
X0097461Y0053100D03*
X0094921Y0053100D03*
X0092381Y0053100D03*
X0089841Y0053100D03*
D81*
X0087671Y0067100D03*
D39*
X0085131Y0067100D03*
D81*
X0102201Y0087830D03*
D39*
X0102201Y0090370D03*
D81*
X0100271Y0077230D03*
D39*
X0097731Y0077230D03*
X0097731Y0079770D03*
X0120000Y0050000D02*
G01*
D56*
D64*
X0157003Y0097000D03*
X0123000Y0053000D03*
D39*
X0126190Y0066000D03*
X0133810Y0066000D03*
X0129121Y0090338D03*
X0136741Y0090338D03*
X0139281Y0090338D03*
X0146901Y0090338D03*
X0137191Y0063000D03*
X0144811Y0063000D03*
X0123190Y0071001D03*
X0130810Y0071001D03*
X0123002Y0058189D03*
X0123002Y0065809D03*
X0148191Y0063000D03*
X0155811Y0063000D03*
X0155811Y0071001D03*
X0148191Y0071001D03*
D11*
X0149187Y0081956D03*
D54*
X0141567Y0081956D03*
D11*
X0138773Y0081956D03*
D54*
X0131153Y0081956D03*
D10*
X0150161Y0052800D03*
D16*
X0147621Y0052800D03*
X0145081Y0052800D03*
X0142541Y0052800D03*
X0140001Y0052800D03*
X0137461Y0052800D03*
X0134921Y0052800D03*
X0132381Y0052800D03*
X0129841Y0052800D03*
D13*
X0130271Y0095100D03*
D19*
X0127731Y0095100D03*
D81*
X0130301Y0062470D03*
D39*
X0130301Y0059930D03*
D81*
X0133731Y0075200D03*
D39*
X0136271Y0075200D03*
D81*
X0154471Y0077000D03*
D39*
X0151931Y0077000D03*
D67*
X0126501Y0075660D03*
D33*
X0126501Y0080740D03*
D81*
X0136601Y0093530D03*
D39*
X0136601Y0096070D03*
D81*
X0150965Y0089068D03*
D39*
X0150965Y0086528D03*
X0148425Y0086528D03*
D81*
X0128867Y0086782D03*
D39*
X0126327Y0086782D03*
X0126327Y0089322D03*
D81*
X0143345Y0069002D03*
D39*
X0140805Y0069002D03*
X0140805Y0071542D03*
X0160000Y0000000D02*
G01*
D56*
D22*
X0196000Y0088230D03*
D74*
X0196000Y0090770D03*
D22*
X0196000Y0066730D03*
D74*
X0196000Y0069270D03*
D22*
X0196000Y0059730D03*
D74*
X0196000Y0062270D03*
D22*
X0196000Y0041730D03*
D74*
X0196000Y0044270D03*
D22*
X0196000Y0015030D03*
D74*
X0196000Y0017570D03*
D22*
X0196100Y0008030D03*
D74*
X0196100Y0010570D03*
D64*
X0163200Y0096900D03*
X0196900Y0003100D03*
X0197000Y0097000D03*
X0163000Y0003000D03*
D39*
X0168000Y0020540D03*
X0168000Y0015460D03*
X0162460Y0011000D03*
X0167540Y0011000D03*
D51*
X0163000Y0025080D03*
D62*
X0163000Y0014920D03*
D10*
X0190160Y0035000D03*
D16*
X0187620Y0035000D03*
X0185080Y0035000D03*
X0182540Y0035000D03*
X0180000Y0035000D03*
X0177460Y0035000D03*
X0174920Y0035000D03*
X0172380Y0035000D03*
X0169840Y0035000D03*
D10*
X0190160Y0055000D03*
D16*
X0187620Y0055000D03*
X0185080Y0055000D03*
X0182540Y0055000D03*
X0180000Y0055000D03*
X0177460Y0055000D03*
X0174920Y0055000D03*
X0172380Y0055000D03*
X0169840Y0055000D03*
D36*
X0196000Y0022190D03*
D57*
X0196000Y0024730D03*
X0196000Y0027270D03*
X0196000Y0029810D03*
D10*
X0190160Y0075000D03*
D16*
X0187620Y0075000D03*
X0185080Y0075000D03*
X0182540Y0075000D03*
X0180000Y0075000D03*
X0177460Y0075000D03*
X0174920Y0075000D03*
X0172380Y0075000D03*
X0169840Y0075000D03*
D10*
X0190160Y0095000D03*
D16*
X0187620Y0095000D03*
X0185080Y0095000D03*
X0182540Y0095000D03*
X0180000Y0095000D03*
X0177460Y0095000D03*
X0174920Y0095000D03*
X0172380Y0095000D03*
X0169840Y0095000D03*
D81*
X0178270Y0007270D03*
D39*
X0178270Y0004730D03*
X0175730Y0004730D03*
D81*
X0170270Y0007270D03*
D39*
X0170270Y0004730D03*
X0167730Y0004730D03*
X0183190Y0003000D03*
X0190810Y0003000D03*
X0183190Y0007000D03*
X0190810Y0007000D03*
D63*
X0189636Y0020810D03*
X0184556Y0020810D03*
X0179476Y0020810D03*
X0189636Y0013190D03*
X0184556Y0013190D03*
X0179476Y0013190D03*
X0171856Y0020810D03*
X0171856Y0013190D03*
D36*
X0196000Y0078160D03*
D57*
X0196000Y0080700D03*
X0196000Y0083240D03*
%ADD10C,0.00100*%
D10*
X0000000Y0000000D02*
X0000000Y0100000D01*
X0200000Y0100000D01*
X0200000Y0000000D01*
X0000000Y0000000D01*
M02*
