G75*
G71*
%MOMM*%
%OFA0B0*%
%FSLAX53Y53*%
%IPPOS*%
%LPD*%
%ADD10C,0.40000*%
%ADD12C,0.30000*%
%ADD15C,0.20000*%
%ADD17C,1.30000*%
%ADD18C,0.25400*%
%ADD20C,0.50000*%
%ADD24R,1.52400X1.52400*%
%ADD31C,0.60000*%
%ADD32C,0.80000*%
%ADD34R,3.81000X3.81000*%
%ADD36C,0.90000*%
%ADD40C,0.25000*%
%ADD47C,0.70000*%
%ADD50C,6.00000*%
X0000000Y0000000D02*
%LPD*%
G01*
D17*
D20*
X0016002Y0019812D03*
X0015302Y0019812D03*
X0016702Y0019812D03*
D50*
X0004826Y0004826D03*
X0025146Y0004826D03*
X0025146Y0035306D03*
X0004826Y0035306D03*
D24*
X0012446Y0034036D03*
X0012446Y0036576D03*
X0014986Y0034036D03*
X0014986Y0036576D03*
X0017526Y0034036D03*
X0017526Y0036576D03*
X0003556Y0025908D03*
X0006096Y0025908D03*
X0006096Y0028448D03*
X0003556Y0028448D03*
X0003556Y0023368D03*
X0006096Y0023368D03*
X0009906Y0008382D03*
X0009906Y0010922D03*
X0012446Y0008382D03*
X0012446Y0010922D03*
X0014986Y0008382D03*
X0014986Y0010922D03*
X0017526Y0008382D03*
X0017526Y0010922D03*
X0020066Y0008382D03*
X0020066Y0010922D03*
D32*
X0019583Y0006020D03*
X0010287Y0005994D03*
X0003581Y0019990D03*
X0018771Y0013437D03*
X0018694Y0014707D03*
X0025857Y0009779D03*
X0009652Y0012421D03*
X0010008Y0020218D03*
X0011049Y0020117D03*
X0011024Y0021158D03*
X0003607Y0021488D03*
X0012598Y0019202D03*
X0004953Y0014478D03*
X0003556Y0014605D03*
X0006604Y0009144D03*
X0010033Y0021209D03*
X0023241Y0018288D03*
X0022098Y0018288D03*
X0020320Y0018542D03*
X0008128Y0011684D03*
X0008128Y0009906D03*
X0008128Y0008382D03*
X0021336Y0032004D03*
X0010160Y0033528D03*
X0010160Y0035306D03*
X0010160Y0036830D03*
X0019558Y0033782D03*
X0019558Y0035306D03*
X0019558Y0036830D03*
X0003810Y0030480D03*
X0006858Y0030480D03*
X0008636Y0030480D03*
X0009652Y0031242D03*
X0010922Y0032512D03*
X0016764Y0027178D03*
X0015748Y0026416D03*
X0016002Y0024384D03*
X0019304Y0027432D03*
X0018034Y0027432D03*
X0016510Y0028194D03*
X0015494Y0028956D03*
X0006401Y0016180D03*
X0012522Y0014326D03*
X0018343Y0017602D03*
X0012446Y0020625D03*
D31*
X0019558Y0005994D02*
X0019583Y0006020D01*
X0010287Y0005994D02*
X0019558Y0005994D01*
D15*
X0003607Y0020015D02*
X0003581Y0019990D01*
X0003607Y0021488D02*
X0003607Y0020015D01*
D31*
X0018694Y0014707D02*
X0018694Y0013513D01*
X0018694Y0013513D02*
X0018771Y0013437D01*
X0022733Y0009779D02*
X0025857Y0009779D01*
X0020066Y0010922D02*
X0021590Y0010922D01*
X0021590Y0010922D02*
X0022733Y0009779D01*
D40*
X0008865Y0012421D02*
X0009652Y0012421D01*
X0008128Y0011684D02*
X0008865Y0012421D01*
D15*
X0010973Y0021209D02*
X0011024Y0021158D01*
X0010033Y0021209D02*
X0010973Y0021209D01*
X0003556Y0014605D02*
X0004826Y0014605D01*
X0004826Y0014605D02*
X0004953Y0014478D01*
X0008128Y0009906D02*
X0007366Y0009906D01*
X0007366Y0009906D02*
X0006604Y0009144D01*
D40*
X0008128Y0008382D02*
X0008128Y0009906D01*
X0021590Y0010922D02*
X0022098Y0011430D01*
X0010160Y0035306D02*
X0010160Y0033528D01*
X0012446Y0036576D02*
X0010414Y0036576D01*
X0010414Y0036576D02*
X0010160Y0036830D01*
X0019558Y0036830D02*
X0019558Y0035306D01*
X0008636Y0030480D02*
X0006858Y0030480D01*
X0010922Y0032512D02*
X0009652Y0031242D01*
X0017018Y0027432D02*
X0016764Y0027178D01*
X0018034Y0027432D02*
X0017018Y0027432D01*
X0016002Y0024384D02*
X0016002Y0026162D01*
X0016002Y0026162D02*
X0015748Y0026416D01*
X0015494Y0028956D02*
X0015748Y0028956D01*
X0015748Y0028956D02*
X0016510Y0028194D01*
D10*
X0006966Y0016180D02*
X0006401Y0016180D01*
X0010668Y0016180D02*
X0006966Y0016180D01*
X0012522Y0014326D02*
X0010668Y0016180D01*
D32*
X0001016Y0027089D02*
X0001016Y0031496D01*
X0001016Y0031496D02*
X0004826Y0035306D01*
D10*
X0001016Y0027089D02*
X0001016Y0016345D01*
X0001016Y0016345D02*
X0001105Y0016256D01*
D32*
X0009398Y0002159D02*
X0018415Y0002159D01*
X0018415Y0002159D02*
X0020828Y0002159D01*
X0023114Y0004826D02*
X0020447Y0002159D01*
X0020447Y0002159D02*
X0018415Y0002159D01*
X0025146Y0004826D02*
X0023114Y0004826D01*
X0006731Y0004826D02*
X0009398Y0002159D01*
X0004826Y0004826D02*
X0006731Y0004826D01*
D10*
X0001105Y0016256D02*
X0001105Y0009563D01*
D32*
X0004826Y0004826D02*
X0001105Y0008547D01*
X0001105Y0008547D02*
X0001105Y0016256D01*
D40*
X0021844Y0001397D02*
X0008255Y0001397D01*
X0008255Y0001397D02*
X0004826Y0004826D01*
X0022146Y0001699D02*
X0021844Y0001397D01*
X0025146Y0004826D02*
X0022146Y0001826D01*
X0022146Y0001826D02*
X0022146Y0001699D01*
D10*
X0006096Y0028448D02*
X0007258Y0028448D01*
X0007258Y0028448D02*
X0013754Y0021952D01*
X0013754Y0021952D02*
X0013754Y0018834D01*
X0013754Y0018834D02*
X0014986Y0017602D01*
X0014986Y0017602D02*
X0018343Y0017602D01*
X0012446Y0021190D02*
X0012446Y0020625D01*
X0006096Y0023368D02*
X0010268Y0023368D01*
X0010268Y0023368D02*
X0012446Y0021190D01*
X0006096Y0023368D02*
X0003556Y0023368D01*
D18*
G36*
X0029262Y0000710D02*
X0000710Y0000710D01*
X0000710Y0029210D01*
X0002147Y0029210D01*
X0002147Y0027686D01*
X0002196Y0027438D01*
X0002286Y0027303D01*
X0002286Y0027053D01*
X0002196Y0026918D01*
X0002147Y0026670D01*
X0002147Y0025146D01*
X0002196Y0024898D01*
X0002286Y0024763D01*
X0002286Y0024513D01*
X0002196Y0024378D01*
X0002147Y0024130D01*
X0002147Y0022606D01*
X0002196Y0022358D01*
X0002286Y0022223D01*
X0002286Y0006985D01*
X0002300Y0006851D01*
X0002399Y0006624D01*
X0002577Y0006451D01*
X0002807Y0006360D01*
X0005365Y0005895D01*
X0007122Y0003671D01*
X0007377Y0003477D01*
X0007620Y0003429D01*
X0022225Y0003429D01*
X0022392Y0003451D01*
X0022614Y0003562D01*
X0022776Y0003749D01*
X0024151Y0006154D01*
X0026901Y0006613D01*
X0027040Y0006652D01*
X0027246Y0006790D01*
X0027384Y0006996D01*
X0027432Y0007239D01*
X0027432Y0032766D01*
X0027390Y0032994D01*
X0027257Y0033203D01*
X0027055Y0033346D01*
X0023993Y0034707D01*
X0023901Y0038269D01*
X0023853Y0038495D01*
X0023715Y0038701D01*
X0023509Y0038839D01*
X0023266Y0038887D01*
X0005994Y0038887D01*
X0005650Y0038786D01*
X0005472Y0038613D01*
X0005374Y0038386D01*
X0004764Y0035548D01*
X0002544Y0033912D01*
X0002334Y0033644D01*
X0002286Y0033401D01*
X0002286Y0029593D01*
X0002196Y0029458D01*
X0002147Y0029210D01*
X0000710Y0029210D01*
X0000710Y0039422D01*
X0029262Y0039422D01*
X0029262Y0000710D01*
X0029262Y0000710D01*
G37*
X0029262Y0000710D02*
X0000710Y0000710D01*
X0000710Y0029210D01*
X0002147Y0029210D01*
X0002147Y0027686D01*
X0002196Y0027438D01*
X0002286Y0027303D01*
X0002286Y0027053D01*
X0002196Y0026918D01*
X0002147Y0026670D01*
X0002147Y0025146D01*
X0002196Y0024898D01*
X0002286Y0024763D01*
X0002286Y0024513D01*
X0002196Y0024378D01*
X0002147Y0024130D01*
X0002147Y0022606D01*
X0002196Y0022358D01*
X0002286Y0022223D01*
X0002286Y0006985D01*
X0002300Y0006851D01*
X0002399Y0006624D01*
X0002577Y0006451D01*
X0002807Y0006360D01*
X0005365Y0005895D01*
X0007122Y0003671D01*
X0007377Y0003477D01*
X0007620Y0003429D01*
X0022225Y0003429D01*
X0022392Y0003451D01*
X0022614Y0003562D01*
X0022776Y0003749D01*
X0024151Y0006154D01*
X0026901Y0006613D01*
X0027040Y0006652D01*
X0027246Y0006790D01*
X0027384Y0006996D01*
X0027432Y0007239D01*
X0027432Y0032766D01*
X0027390Y0032994D01*
X0027257Y0033203D01*
X0027055Y0033346D01*
X0023993Y0034707D01*
X0023901Y0038269D01*
X0023853Y0038495D01*
X0023715Y0038701D01*
X0023509Y0038839D01*
X0023266Y0038887D01*
X0005994Y0038887D01*
X0005650Y0038786D01*
X0005472Y0038613D01*
X0005374Y0038386D01*
X0004764Y0035548D01*
X0002544Y0033912D01*
X0002334Y0033644D01*
X0002286Y0033401D01*
X0002286Y0029593D01*
X0002196Y0029458D01*
X0002147Y0029210D01*
X0000710Y0029210D01*
X0000710Y0039422D01*
X0029262Y0039422D01*
X0029262Y0000710D01*
G36*
X0021649Y0037647D02*
X0021020Y0036131D01*
X0021018Y0034489D01*
X0021645Y0032971D01*
X0022805Y0031809D01*
X0024321Y0031180D01*
X0025963Y0031178D01*
X0026670Y0031470D01*
X0026670Y0008662D01*
X0025971Y0008952D01*
X0024329Y0008954D01*
X0022811Y0008327D01*
X0021649Y0007167D01*
X0021020Y0005651D01*
X0021018Y0004191D01*
X0008952Y0004191D01*
X0008954Y0005643D01*
X0008327Y0007161D01*
X0007167Y0008323D01*
X0005651Y0008952D01*
X0004009Y0008954D01*
X0003048Y0008557D01*
X0003048Y0009144D01*
X0011198Y0009144D01*
X0011198Y0007620D01*
X0011235Y0007434D01*
X0011340Y0007276D01*
X0011498Y0007171D01*
X0011684Y0007134D01*
X0013208Y0007134D01*
X0013394Y0007171D01*
X0013552Y0007276D01*
X0013657Y0007434D01*
X0013694Y0007620D01*
X0013694Y0009144D01*
X0013738Y0009144D01*
X0013738Y0007620D01*
X0013775Y0007434D01*
X0013880Y0007276D01*
X0014038Y0007171D01*
X0014224Y0007134D01*
X0015748Y0007134D01*
X0015934Y0007171D01*
X0016092Y0007276D01*
X0016197Y0007434D01*
X0016234Y0007620D01*
X0016234Y0009144D01*
X0016278Y0009144D01*
X0016278Y0007620D01*
X0016315Y0007434D01*
X0016420Y0007276D01*
X0016578Y0007171D01*
X0016764Y0007134D01*
X0018288Y0007134D01*
X0018474Y0007171D01*
X0018632Y0007276D01*
X0018737Y0007434D01*
X0018774Y0007620D01*
X0018774Y0009144D01*
X0018737Y0009330D01*
X0018632Y0009488D01*
X0018474Y0009593D01*
X0018288Y0009630D01*
X0016764Y0009630D01*
X0016578Y0009593D01*
X0016420Y0009488D01*
X0016315Y0009330D01*
X0016278Y0009144D01*
X0016234Y0009144D01*
X0016197Y0009330D01*
X0016092Y0009488D01*
X0015934Y0009593D01*
X0015748Y0009630D01*
X0014224Y0009630D01*
X0014038Y0009593D01*
X0013880Y0009488D01*
X0013775Y0009330D01*
X0013738Y0009144D01*
X0013694Y0009144D01*
X0013657Y0009330D01*
X0013552Y0009488D01*
X0013394Y0009593D01*
X0013208Y0009630D01*
X0011684Y0009630D01*
X0011498Y0009593D01*
X0011340Y0009488D01*
X0011235Y0009330D01*
X0011198Y0009144D01*
X0003048Y0009144D01*
X0003048Y0011684D01*
X0011198Y0011684D01*
X0011198Y0010160D01*
X0011235Y0009974D01*
X0011340Y0009816D01*
X0011498Y0009711D01*
X0011684Y0009674D01*
X0013208Y0009674D01*
X0013394Y0009711D01*
X0013552Y0009816D01*
X0013657Y0009974D01*
X0013694Y0010160D01*
X0013694Y0011684D01*
X0013738Y0011684D01*
X0013738Y0010160D01*
X0013775Y0009974D01*
X0013880Y0009816D01*
X0014038Y0009711D01*
X0014224Y0009674D01*
X0015748Y0009674D01*
X0015934Y0009711D01*
X0016092Y0009816D01*
X0016197Y0009974D01*
X0016234Y0010160D01*
X0016234Y0011684D01*
X0016278Y0011684D01*
X0016278Y0010160D01*
X0016315Y0009974D01*
X0016420Y0009816D01*
X0016578Y0009711D01*
X0016764Y0009674D01*
X0018288Y0009674D01*
X0018474Y0009711D01*
X0018632Y0009816D01*
X0018737Y0009974D01*
X0018774Y0010160D01*
X0018774Y0011684D01*
X0018737Y0011870D01*
X0018632Y0012028D01*
X0018474Y0012133D01*
X0018288Y0012170D01*
X0016764Y0012170D01*
X0016578Y0012133D01*
X0016420Y0012028D01*
X0016315Y0011870D01*
X0016278Y0011684D01*
X0016234Y0011684D01*
X0016197Y0011870D01*
X0016092Y0012028D01*
X0015934Y0012133D01*
X0015748Y0012170D01*
X0014224Y0012170D01*
X0014038Y0012133D01*
X0013880Y0012028D01*
X0013775Y0011870D01*
X0013738Y0011684D01*
X0013694Y0011684D01*
X0013657Y0011870D01*
X0013552Y0012028D01*
X0013394Y0012133D01*
X0013208Y0012170D01*
X0011684Y0012170D01*
X0011498Y0012133D01*
X0011340Y0012028D01*
X0011235Y0011870D01*
X0011198Y0011684D01*
X0003048Y0011684D01*
X0003048Y0016006D01*
X0005524Y0016006D01*
X0005657Y0015684D01*
X0005903Y0015437D01*
X0006226Y0015303D01*
X0006574Y0015303D01*
X0006897Y0015436D01*
X0006964Y0015503D01*
X0010388Y0015503D01*
X0011645Y0014245D01*
X0011645Y0014152D01*
X0011778Y0013829D01*
X0012025Y0013583D01*
X0012347Y0013449D01*
X0012696Y0013448D01*
X0013018Y0013582D01*
X0013265Y0013828D01*
X0013399Y0014150D01*
X0013399Y0014499D01*
X0013266Y0014822D01*
X0013020Y0015069D01*
X0012697Y0015202D01*
X0012603Y0015203D01*
X0011147Y0016659D01*
X0011121Y0016676D01*
X0010927Y0016805D01*
X0010668Y0016857D01*
X0006964Y0016857D01*
X0006898Y0016923D01*
X0006576Y0017057D01*
X0006227Y0017057D01*
X0005905Y0016924D01*
X0005658Y0016677D01*
X0005524Y0016355D01*
X0005524Y0016006D01*
X0003048Y0016006D01*
X0003048Y0022120D01*
X0004318Y0022120D01*
X0004504Y0022157D01*
X0004662Y0022262D01*
X0004767Y0022420D01*
X0004804Y0022606D01*
X0004804Y0022691D01*
X0004848Y0022691D01*
X0004848Y0022606D01*
X0004885Y0022420D01*
X0004990Y0022262D01*
X0005148Y0022157D01*
X0005334Y0022120D01*
X0006858Y0022120D01*
X0007044Y0022157D01*
X0007202Y0022262D01*
X0007307Y0022420D01*
X0007344Y0022606D01*
X0007344Y0022691D01*
X0009988Y0022691D01*
X0011660Y0021019D01*
X0011569Y0020800D01*
X0011569Y0020451D01*
X0011702Y0020129D01*
X0011949Y0019882D01*
X0012271Y0019748D01*
X0012620Y0019748D01*
X0012942Y0019881D01*
X0013077Y0020016D01*
X0013077Y0018834D01*
X0013129Y0018575D01*
X0013193Y0018479D01*
X0013275Y0018355D01*
X0014507Y0017123D01*
X0014727Y0016977D01*
X0014986Y0016925D01*
X0017780Y0016925D01*
X0017845Y0016859D01*
X0018168Y0016725D01*
X0018517Y0016725D01*
X0018839Y0016858D01*
X0019086Y0017105D01*
X0019220Y0017427D01*
X0019220Y0017776D01*
X0019087Y0018098D01*
X0018840Y0018345D01*
X0018518Y0018479D01*
X0018169Y0018479D01*
X0017847Y0018346D01*
X0017780Y0018279D01*
X0015266Y0018279D01*
X0014431Y0019115D01*
X0014431Y0021952D01*
X0014379Y0022211D01*
X0014233Y0022431D01*
X0007737Y0028927D01*
X0007517Y0029073D01*
X0007344Y0029108D01*
X0007344Y0029210D01*
X0007307Y0029396D01*
X0007202Y0029554D01*
X0007044Y0029659D01*
X0006858Y0029696D01*
X0005334Y0029696D01*
X0005148Y0029659D01*
X0004990Y0029554D01*
X0004885Y0029396D01*
X0004848Y0029210D01*
X0004848Y0027686D01*
X0004885Y0027500D01*
X0004990Y0027342D01*
X0005148Y0027237D01*
X0005334Y0027200D01*
X0006858Y0027200D01*
X0007044Y0027237D01*
X0007202Y0027342D01*
X0007284Y0027465D01*
X0013077Y0021672D01*
X0013077Y0021422D01*
X0013071Y0021450D01*
X0012925Y0021669D01*
X0010747Y0023847D01*
X0010528Y0023993D01*
X0010268Y0024045D01*
X0007344Y0024045D01*
X0007344Y0024130D01*
X0007307Y0024316D01*
X0007202Y0024474D01*
X0007044Y0024579D01*
X0006858Y0024616D01*
X0005334Y0024616D01*
X0005148Y0024579D01*
X0004990Y0024474D01*
X0004885Y0024316D01*
X0004848Y0024130D01*
X0004848Y0024045D01*
X0004804Y0024045D01*
X0004804Y0024130D01*
X0004767Y0024316D01*
X0004662Y0024474D01*
X0004504Y0024579D01*
X0004318Y0024616D01*
X0003048Y0024616D01*
X0003048Y0024660D01*
X0004318Y0024660D01*
X0004504Y0024697D01*
X0004662Y0024802D01*
X0004767Y0024960D01*
X0004804Y0025146D01*
X0004804Y0026670D01*
X0004848Y0026670D01*
X0004848Y0025146D01*
X0004885Y0024960D01*
X0004990Y0024802D01*
X0005148Y0024697D01*
X0005334Y0024660D01*
X0006858Y0024660D01*
X0007044Y0024697D01*
X0007202Y0024802D01*
X0007307Y0024960D01*
X0007344Y0025146D01*
X0007344Y0026670D01*
X0007307Y0026856D01*
X0007202Y0027014D01*
X0007044Y0027119D01*
X0006858Y0027156D01*
X0005334Y0027156D01*
X0005148Y0027119D01*
X0004990Y0027014D01*
X0004885Y0026856D01*
X0004848Y0026670D01*
X0004804Y0026670D01*
X0004767Y0026856D01*
X0004662Y0027014D01*
X0004504Y0027119D01*
X0004318Y0027156D01*
X0003048Y0027156D01*
X0003048Y0027200D01*
X0004318Y0027200D01*
X0004504Y0027237D01*
X0004662Y0027342D01*
X0004767Y0027500D01*
X0004804Y0027686D01*
X0004804Y0029210D01*
X0004767Y0029396D01*
X0004662Y0029554D01*
X0004504Y0029659D01*
X0004318Y0029696D01*
X0003048Y0029696D01*
X0003048Y0031576D01*
X0004001Y0031180D01*
X0005643Y0031178D01*
X0007161Y0031805D01*
X0008323Y0032965D01*
X0008952Y0034481D01*
X0008953Y0034798D01*
X0013738Y0034798D01*
X0013738Y0033274D01*
X0013775Y0033088D01*
X0013880Y0032930D01*
X0014038Y0032825D01*
X0014224Y0032788D01*
X0015748Y0032788D01*
X0015934Y0032825D01*
X0016092Y0032930D01*
X0016197Y0033088D01*
X0016234Y0033274D01*
X0016234Y0034798D01*
X0016197Y0034984D01*
X0016092Y0035142D01*
X0015934Y0035247D01*
X0015748Y0035284D01*
X0014224Y0035284D01*
X0014038Y0035247D01*
X0013880Y0035142D01*
X0013775Y0034984D01*
X0013738Y0034798D01*
X0008953Y0034798D01*
X0008954Y0036123D01*
X0008452Y0037338D01*
X0013738Y0037338D01*
X0013738Y0035814D01*
X0013775Y0035628D01*
X0013880Y0035470D01*
X0014038Y0035365D01*
X0014224Y0035328D01*
X0015748Y0035328D01*
X0015934Y0035365D01*
X0016092Y0035470D01*
X0016197Y0035628D01*
X0016234Y0035814D01*
X0016234Y0037338D01*
X0016197Y0037524D01*
X0016092Y0037682D01*
X0015934Y0037787D01*
X0015748Y0037824D01*
X0014224Y0037824D01*
X0014038Y0037787D01*
X0013880Y0037682D01*
X0013775Y0037524D01*
X0013738Y0037338D01*
X0008452Y0037338D01*
X0008327Y0037641D01*
X0007843Y0038125D01*
X0022129Y0038125D01*
X0021649Y0037647D01*
X0021649Y0037647D01*
G37*
X0021649Y0037647D02*
X0021020Y0036131D01*
X0021018Y0034489D01*
X0021645Y0032971D01*
X0022805Y0031809D01*
X0024321Y0031180D01*
X0025963Y0031178D01*
X0026670Y0031470D01*
X0026670Y0008662D01*
X0025971Y0008952D01*
X0024329Y0008954D01*
X0022811Y0008327D01*
X0021649Y0007167D01*
X0021020Y0005651D01*
X0021018Y0004191D01*
X0008952Y0004191D01*
X0008954Y0005643D01*
X0008327Y0007161D01*
X0007167Y0008323D01*
X0005651Y0008952D01*
X0004009Y0008954D01*
X0003048Y0008557D01*
X0003048Y0009144D01*
X0011198Y0009144D01*
X0011198Y0007620D01*
X0011235Y0007434D01*
X0011340Y0007276D01*
X0011498Y0007171D01*
X0011684Y0007134D01*
X0013208Y0007134D01*
X0013394Y0007171D01*
X0013552Y0007276D01*
X0013657Y0007434D01*
X0013694Y0007620D01*
X0013694Y0009144D01*
X0013738Y0009144D01*
X0013738Y0007620D01*
X0013775Y0007434D01*
X0013880Y0007276D01*
X0014038Y0007171D01*
X0014224Y0007134D01*
X0015748Y0007134D01*
X0015934Y0007171D01*
X0016092Y0007276D01*
X0016197Y0007434D01*
X0016234Y0007620D01*
X0016234Y0009144D01*
X0016278Y0009144D01*
X0016278Y0007620D01*
X0016315Y0007434D01*
X0016420Y0007276D01*
X0016578Y0007171D01*
X0016764Y0007134D01*
X0018288Y0007134D01*
X0018474Y0007171D01*
X0018632Y0007276D01*
X0018737Y0007434D01*
X0018774Y0007620D01*
X0018774Y0009144D01*
X0018737Y0009330D01*
X0018632Y0009488D01*
X0018474Y0009593D01*
X0018288Y0009630D01*
X0016764Y0009630D01*
X0016578Y0009593D01*
X0016420Y0009488D01*
X0016315Y0009330D01*
X0016278Y0009144D01*
X0016234Y0009144D01*
X0016197Y0009330D01*
X0016092Y0009488D01*
X0015934Y0009593D01*
X0015748Y0009630D01*
X0014224Y0009630D01*
X0014038Y0009593D01*
X0013880Y0009488D01*
X0013775Y0009330D01*
X0013738Y0009144D01*
X0013694Y0009144D01*
X0013657Y0009330D01*
X0013552Y0009488D01*
X0013394Y0009593D01*
X0013208Y0009630D01*
X0011684Y0009630D01*
X0011498Y0009593D01*
X0011340Y0009488D01*
X0011235Y0009330D01*
X0011198Y0009144D01*
X0003048Y0009144D01*
X0003048Y0011684D01*
X0011198Y0011684D01*
X0011198Y0010160D01*
X0011235Y0009974D01*
X0011340Y0009816D01*
X0011498Y0009711D01*
X0011684Y0009674D01*
X0013208Y0009674D01*
X0013394Y0009711D01*
X0013552Y0009816D01*
X0013657Y0009974D01*
X0013694Y0010160D01*
X0013694Y0011684D01*
X0013738Y0011684D01*
X0013738Y0010160D01*
X0013775Y0009974D01*
X0013880Y0009816D01*
X0014038Y0009711D01*
X0014224Y0009674D01*
X0015748Y0009674D01*
X0015934Y0009711D01*
X0016092Y0009816D01*
X0016197Y0009974D01*
X0016234Y0010160D01*
X0016234Y0011684D01*
X0016278Y0011684D01*
X0016278Y0010160D01*
X0016315Y0009974D01*
X0016420Y0009816D01*
X0016578Y0009711D01*
X0016764Y0009674D01*
X0018288Y0009674D01*
X0018474Y0009711D01*
X0018632Y0009816D01*
X0018737Y0009974D01*
X0018774Y0010160D01*
X0018774Y0011684D01*
X0018737Y0011870D01*
X0018632Y0012028D01*
X0018474Y0012133D01*
X0018288Y0012170D01*
X0016764Y0012170D01*
X0016578Y0012133D01*
X0016420Y0012028D01*
X0016315Y0011870D01*
X0016278Y0011684D01*
X0016234Y0011684D01*
X0016197Y0011870D01*
X0016092Y0012028D01*
X0015934Y0012133D01*
X0015748Y0012170D01*
X0014224Y0012170D01*
X0014038Y0012133D01*
X0013880Y0012028D01*
X0013775Y0011870D01*
X0013738Y0011684D01*
X0013694Y0011684D01*
X0013657Y0011870D01*
X0013552Y0012028D01*
X0013394Y0012133D01*
X0013208Y0012170D01*
X0011684Y0012170D01*
X0011498Y0012133D01*
X0011340Y0012028D01*
X0011235Y0011870D01*
X0011198Y0011684D01*
X0003048Y0011684D01*
X0003048Y0016006D01*
X0005524Y0016006D01*
X0005657Y0015684D01*
X0005903Y0015437D01*
X0006226Y0015303D01*
X0006574Y0015303D01*
X0006897Y0015436D01*
X0006964Y0015503D01*
X0010388Y0015503D01*
X0011645Y0014245D01*
X0011645Y0014152D01*
X0011778Y0013829D01*
X0012025Y0013583D01*
X0012347Y0013449D01*
X0012696Y0013448D01*
X0013018Y0013582D01*
X0013265Y0013828D01*
X0013399Y0014150D01*
X0013399Y0014499D01*
X0013266Y0014822D01*
X0013020Y0015069D01*
X0012697Y0015202D01*
X0012603Y0015203D01*
X0011147Y0016659D01*
X0011121Y0016676D01*
X0010927Y0016805D01*
X0010668Y0016857D01*
X0006964Y0016857D01*
X0006898Y0016923D01*
X0006576Y0017057D01*
X0006227Y0017057D01*
X0005905Y0016924D01*
X0005658Y0016677D01*
X0005524Y0016355D01*
X0005524Y0016006D01*
X0003048Y0016006D01*
X0003048Y0022120D01*
X0004318Y0022120D01*
X0004504Y0022157D01*
X0004662Y0022262D01*
X0004767Y0022420D01*
X0004804Y0022606D01*
X0004804Y0022691D01*
X0004848Y0022691D01*
X0004848Y0022606D01*
X0004885Y0022420D01*
X0004990Y0022262D01*
X0005148Y0022157D01*
X0005334Y0022120D01*
X0006858Y0022120D01*
X0007044Y0022157D01*
X0007202Y0022262D01*
X0007307Y0022420D01*
X0007344Y0022606D01*
X0007344Y0022691D01*
X0009988Y0022691D01*
X0011660Y0021019D01*
X0011569Y0020800D01*
X0011569Y0020451D01*
X0011702Y0020129D01*
X0011949Y0019882D01*
X0012271Y0019748D01*
X0012620Y0019748D01*
X0012942Y0019881D01*
X0013077Y0020016D01*
X0013077Y0018834D01*
X0013129Y0018575D01*
X0013193Y0018479D01*
X0013275Y0018355D01*
X0014507Y0017123D01*
X0014727Y0016977D01*
X0014986Y0016925D01*
X0017780Y0016925D01*
X0017845Y0016859D01*
X0018168Y0016725D01*
X0018517Y0016725D01*
X0018839Y0016858D01*
X0019086Y0017105D01*
X0019220Y0017427D01*
X0019220Y0017776D01*
X0019087Y0018098D01*
X0018840Y0018345D01*
X0018518Y0018479D01*
X0018169Y0018479D01*
X0017847Y0018346D01*
X0017780Y0018279D01*
X0015266Y0018279D01*
X0014431Y0019115D01*
X0014431Y0021952D01*
X0014379Y0022211D01*
X0014233Y0022431D01*
X0007737Y0028927D01*
X0007517Y0029073D01*
X0007344Y0029108D01*
X0007344Y0029210D01*
X0007307Y0029396D01*
X0007202Y0029554D01*
X0007044Y0029659D01*
X0006858Y0029696D01*
X0005334Y0029696D01*
X0005148Y0029659D01*
X0004990Y0029554D01*
X0004885Y0029396D01*
X0004848Y0029210D01*
X0004848Y0027686D01*
X0004885Y0027500D01*
X0004990Y0027342D01*
X0005148Y0027237D01*
X0005334Y0027200D01*
X0006858Y0027200D01*
X0007044Y0027237D01*
X0007202Y0027342D01*
X0007284Y0027465D01*
X0013077Y0021672D01*
X0013077Y0021422D01*
X0013071Y0021450D01*
X0012925Y0021669D01*
X0010747Y0023847D01*
X0010528Y0023993D01*
X0010268Y0024045D01*
X0007344Y0024045D01*
X0007344Y0024130D01*
X0007307Y0024316D01*
X0007202Y0024474D01*
X0007044Y0024579D01*
X0006858Y0024616D01*
X0005334Y0024616D01*
X0005148Y0024579D01*
X0004990Y0024474D01*
X0004885Y0024316D01*
X0004848Y0024130D01*
X0004848Y0024045D01*
X0004804Y0024045D01*
X0004804Y0024130D01*
X0004767Y0024316D01*
X0004662Y0024474D01*
X0004504Y0024579D01*
X0004318Y0024616D01*
X0003048Y0024616D01*
X0003048Y0024660D01*
X0004318Y0024660D01*
X0004504Y0024697D01*
X0004662Y0024802D01*
X0004767Y0024960D01*
X0004804Y0025146D01*
X0004804Y0026670D01*
X0004848Y0026670D01*
X0004848Y0025146D01*
X0004885Y0024960D01*
X0004990Y0024802D01*
X0005148Y0024697D01*
X0005334Y0024660D01*
X0006858Y0024660D01*
X0007044Y0024697D01*
X0007202Y0024802D01*
X0007307Y0024960D01*
X0007344Y0025146D01*
X0007344Y0026670D01*
X0007307Y0026856D01*
X0007202Y0027014D01*
X0007044Y0027119D01*
X0006858Y0027156D01*
X0005334Y0027156D01*
X0005148Y0027119D01*
X0004990Y0027014D01*
X0004885Y0026856D01*
X0004848Y0026670D01*
X0004804Y0026670D01*
X0004767Y0026856D01*
X0004662Y0027014D01*
X0004504Y0027119D01*
X0004318Y0027156D01*
X0003048Y0027156D01*
X0003048Y0027200D01*
X0004318Y0027200D01*
X0004504Y0027237D01*
X0004662Y0027342D01*
X0004767Y0027500D01*
X0004804Y0027686D01*
X0004804Y0029210D01*
X0004767Y0029396D01*
X0004662Y0029554D01*
X0004504Y0029659D01*
X0004318Y0029696D01*
X0003048Y0029696D01*
X0003048Y0031576D01*
X0004001Y0031180D01*
X0005643Y0031178D01*
X0007161Y0031805D01*
X0008323Y0032965D01*
X0008952Y0034481D01*
X0008953Y0034798D01*
X0013738Y0034798D01*
X0013738Y0033274D01*
X0013775Y0033088D01*
X0013880Y0032930D01*
X0014038Y0032825D01*
X0014224Y0032788D01*
X0015748Y0032788D01*
X0015934Y0032825D01*
X0016092Y0032930D01*
X0016197Y0033088D01*
X0016234Y0033274D01*
X0016234Y0034798D01*
X0016197Y0034984D01*
X0016092Y0035142D01*
X0015934Y0035247D01*
X0015748Y0035284D01*
X0014224Y0035284D01*
X0014038Y0035247D01*
X0013880Y0035142D01*
X0013775Y0034984D01*
X0013738Y0034798D01*
X0008953Y0034798D01*
X0008954Y0036123D01*
X0008452Y0037338D01*
X0013738Y0037338D01*
X0013738Y0035814D01*
X0013775Y0035628D01*
X0013880Y0035470D01*
X0014038Y0035365D01*
X0014224Y0035328D01*
X0015748Y0035328D01*
X0015934Y0035365D01*
X0016092Y0035470D01*
X0016197Y0035628D01*
X0016234Y0035814D01*
X0016234Y0037338D01*
X0016197Y0037524D01*
X0016092Y0037682D01*
X0015934Y0037787D01*
X0015748Y0037824D01*
X0014224Y0037824D01*
X0014038Y0037787D01*
X0013880Y0037682D01*
X0013775Y0037524D01*
X0013738Y0037338D01*
X0008452Y0037338D01*
X0008327Y0037641D01*
X0007843Y0038125D01*
X0022129Y0038125D01*
X0021649Y0037647D01*
X0000000Y0040132D02*
%LPD*%
G01*
D17*
D20*
X0016002Y0059944D03*
X0015302Y0059944D03*
X0016702Y0059944D03*
D50*
X0004826Y0044958D03*
X0025146Y0044958D03*
X0025146Y0075438D03*
X0004826Y0075438D03*
D24*
X0012446Y0074168D03*
X0012446Y0076708D03*
X0014986Y0074168D03*
X0014986Y0076708D03*
X0017526Y0074168D03*
X0017526Y0076708D03*
X0003556Y0066040D03*
X0006096Y0066040D03*
X0006096Y0068580D03*
X0003556Y0068580D03*
X0003556Y0063500D03*
X0006096Y0063500D03*
X0009906Y0048514D03*
X0009906Y0051054D03*
X0012446Y0048514D03*
X0012446Y0051054D03*
X0014986Y0048514D03*
X0014986Y0051054D03*
X0017526Y0048514D03*
X0017526Y0051054D03*
X0020066Y0048514D03*
X0020066Y0051054D03*
D32*
X0019583Y0046152D03*
X0010287Y0046126D03*
X0003581Y0060122D03*
X0018771Y0053569D03*
X0018694Y0054839D03*
X0025857Y0049911D03*
X0009652Y0052553D03*
X0010008Y0060350D03*
X0011049Y0060249D03*
X0011024Y0061290D03*
X0003607Y0061620D03*
X0012598Y0059334D03*
X0004953Y0054610D03*
X0003556Y0054737D03*
X0006604Y0049276D03*
X0010033Y0061341D03*
X0023241Y0058420D03*
X0022098Y0058420D03*
X0020320Y0058674D03*
X0008128Y0051816D03*
X0008128Y0050038D03*
X0008128Y0048514D03*
X0021336Y0072136D03*
X0010160Y0073660D03*
X0010160Y0075438D03*
X0010160Y0076962D03*
X0019558Y0073914D03*
X0019558Y0075438D03*
X0019558Y0076962D03*
X0003810Y0070612D03*
X0006858Y0070612D03*
X0008636Y0070612D03*
X0009652Y0071374D03*
X0010922Y0072644D03*
X0016764Y0067310D03*
X0015748Y0066548D03*
X0016002Y0064516D03*
X0019304Y0067564D03*
X0018034Y0067564D03*
X0016510Y0068326D03*
X0015494Y0069088D03*
X0006401Y0056312D03*
X0012522Y0054458D03*
X0018343Y0057734D03*
X0012446Y0060757D03*
D31*
X0019558Y0046126D02*
X0019583Y0046152D01*
X0010287Y0046126D02*
X0019558Y0046126D01*
D15*
X0003607Y0060147D02*
X0003581Y0060122D01*
X0003607Y0061620D02*
X0003607Y0060147D01*
D31*
X0018694Y0054839D02*
X0018694Y0053645D01*
X0018694Y0053645D02*
X0018771Y0053569D01*
X0022733Y0049911D02*
X0025857Y0049911D01*
X0020066Y0051054D02*
X0021590Y0051054D01*
X0021590Y0051054D02*
X0022733Y0049911D01*
D40*
X0008865Y0052553D02*
X0009652Y0052553D01*
X0008128Y0051816D02*
X0008865Y0052553D01*
D15*
X0010973Y0061341D02*
X0011024Y0061290D01*
X0010033Y0061341D02*
X0010973Y0061341D01*
X0003556Y0054737D02*
X0004826Y0054737D01*
X0004826Y0054737D02*
X0004953Y0054610D01*
X0008128Y0050038D02*
X0007366Y0050038D01*
X0007366Y0050038D02*
X0006604Y0049276D01*
D40*
X0008128Y0048514D02*
X0008128Y0050038D01*
X0021590Y0051054D02*
X0022098Y0051562D01*
X0010160Y0075438D02*
X0010160Y0073660D01*
X0012446Y0076708D02*
X0010414Y0076708D01*
X0010414Y0076708D02*
X0010160Y0076962D01*
X0019558Y0076962D02*
X0019558Y0075438D01*
X0008636Y0070612D02*
X0006858Y0070612D01*
X0010922Y0072644D02*
X0009652Y0071374D01*
X0017018Y0067564D02*
X0016764Y0067310D01*
X0018034Y0067564D02*
X0017018Y0067564D01*
X0016002Y0064516D02*
X0016002Y0066294D01*
X0016002Y0066294D02*
X0015748Y0066548D01*
X0015494Y0069088D02*
X0015748Y0069088D01*
X0015748Y0069088D02*
X0016510Y0068326D01*
D10*
X0006966Y0056312D02*
X0006401Y0056312D01*
X0010668Y0056312D02*
X0006966Y0056312D01*
X0012522Y0054458D02*
X0010668Y0056312D01*
D32*
X0001016Y0067221D02*
X0001016Y0071628D01*
X0001016Y0071628D02*
X0004826Y0075438D01*
D10*
X0001016Y0067221D02*
X0001016Y0056477D01*
X0001016Y0056477D02*
X0001105Y0056388D01*
D32*
X0009398Y0042291D02*
X0018415Y0042291D01*
X0018415Y0042291D02*
X0020828Y0042291D01*
X0023114Y0044958D02*
X0020447Y0042291D01*
X0020447Y0042291D02*
X0018415Y0042291D01*
X0025146Y0044958D02*
X0023114Y0044958D01*
X0006731Y0044958D02*
X0009398Y0042291D01*
X0004826Y0044958D02*
X0006731Y0044958D01*
D10*
X0001105Y0056388D02*
X0001105Y0049695D01*
D32*
X0004826Y0044958D02*
X0001105Y0048679D01*
X0001105Y0048679D02*
X0001105Y0056388D01*
D40*
X0021844Y0041529D02*
X0008255Y0041529D01*
X0008255Y0041529D02*
X0004826Y0044958D01*
X0022146Y0041831D02*
X0021844Y0041529D01*
X0025146Y0044958D02*
X0022146Y0041958D01*
X0022146Y0041958D02*
X0022146Y0041831D01*
D10*
X0006096Y0068580D02*
X0007258Y0068580D01*
X0007258Y0068580D02*
X0013754Y0062084D01*
X0013754Y0062084D02*
X0013754Y0058966D01*
X0013754Y0058966D02*
X0014986Y0057734D01*
X0014986Y0057734D02*
X0018343Y0057734D01*
X0012446Y0061322D02*
X0012446Y0060757D01*
X0006096Y0063500D02*
X0010268Y0063500D01*
X0010268Y0063500D02*
X0012446Y0061322D01*
X0006096Y0063500D02*
X0003556Y0063500D01*
D18*
G36*
X0029262Y0040842D02*
X0000710Y0040842D01*
X0000710Y0069342D01*
X0002147Y0069342D01*
X0002147Y0067818D01*
X0002196Y0067570D01*
X0002286Y0067435D01*
X0002286Y0067185D01*
X0002196Y0067050D01*
X0002147Y0066802D01*
X0002147Y0065278D01*
X0002196Y0065030D01*
X0002286Y0064895D01*
X0002286Y0064645D01*
X0002196Y0064510D01*
X0002147Y0064262D01*
X0002147Y0062738D01*
X0002196Y0062490D01*
X0002286Y0062355D01*
X0002286Y0047117D01*
X0002300Y0046983D01*
X0002399Y0046756D01*
X0002577Y0046583D01*
X0002807Y0046492D01*
X0005365Y0046027D01*
X0007122Y0043803D01*
X0007377Y0043609D01*
X0007620Y0043561D01*
X0022225Y0043561D01*
X0022392Y0043583D01*
X0022614Y0043694D01*
X0022776Y0043881D01*
X0024151Y0046286D01*
X0026901Y0046745D01*
X0027040Y0046784D01*
X0027246Y0046922D01*
X0027384Y0047128D01*
X0027432Y0047371D01*
X0027432Y0072898D01*
X0027390Y0073126D01*
X0027257Y0073335D01*
X0027055Y0073478D01*
X0023993Y0074839D01*
X0023901Y0078401D01*
X0023853Y0078627D01*
X0023715Y0078833D01*
X0023509Y0078971D01*
X0023266Y0079019D01*
X0005994Y0079019D01*
X0005650Y0078918D01*
X0005472Y0078745D01*
X0005374Y0078518D01*
X0004764Y0075680D01*
X0002544Y0074044D01*
X0002334Y0073776D01*
X0002286Y0073533D01*
X0002286Y0069725D01*
X0002196Y0069590D01*
X0002147Y0069342D01*
X0000710Y0069342D01*
X0000710Y0079554D01*
X0029262Y0079554D01*
X0029262Y0040842D01*
X0029262Y0040842D01*
G37*
X0029262Y0040842D02*
X0000710Y0040842D01*
X0000710Y0069342D01*
X0002147Y0069342D01*
X0002147Y0067818D01*
X0002196Y0067570D01*
X0002286Y0067435D01*
X0002286Y0067185D01*
X0002196Y0067050D01*
X0002147Y0066802D01*
X0002147Y0065278D01*
X0002196Y0065030D01*
X0002286Y0064895D01*
X0002286Y0064645D01*
X0002196Y0064510D01*
X0002147Y0064262D01*
X0002147Y0062738D01*
X0002196Y0062490D01*
X0002286Y0062355D01*
X0002286Y0047117D01*
X0002300Y0046983D01*
X0002399Y0046756D01*
X0002577Y0046583D01*
X0002807Y0046492D01*
X0005365Y0046027D01*
X0007122Y0043803D01*
X0007377Y0043609D01*
X0007620Y0043561D01*
X0022225Y0043561D01*
X0022392Y0043583D01*
X0022614Y0043694D01*
X0022776Y0043881D01*
X0024151Y0046286D01*
X0026901Y0046745D01*
X0027040Y0046784D01*
X0027246Y0046922D01*
X0027384Y0047128D01*
X0027432Y0047371D01*
X0027432Y0072898D01*
X0027390Y0073126D01*
X0027257Y0073335D01*
X0027055Y0073478D01*
X0023993Y0074839D01*
X0023901Y0078401D01*
X0023853Y0078627D01*
X0023715Y0078833D01*
X0023509Y0078971D01*
X0023266Y0079019D01*
X0005994Y0079019D01*
X0005650Y0078918D01*
X0005472Y0078745D01*
X0005374Y0078518D01*
X0004764Y0075680D01*
X0002544Y0074044D01*
X0002334Y0073776D01*
X0002286Y0073533D01*
X0002286Y0069725D01*
X0002196Y0069590D01*
X0002147Y0069342D01*
X0000710Y0069342D01*
X0000710Y0079554D01*
X0029262Y0079554D01*
X0029262Y0040842D01*
G36*
X0021649Y0077779D02*
X0021020Y0076263D01*
X0021018Y0074621D01*
X0021645Y0073103D01*
X0022805Y0071941D01*
X0024321Y0071312D01*
X0025963Y0071310D01*
X0026670Y0071602D01*
X0026670Y0048794D01*
X0025971Y0049084D01*
X0024329Y0049086D01*
X0022811Y0048459D01*
X0021649Y0047299D01*
X0021020Y0045783D01*
X0021018Y0044323D01*
X0008952Y0044323D01*
X0008954Y0045775D01*
X0008327Y0047293D01*
X0007167Y0048455D01*
X0005651Y0049084D01*
X0004009Y0049086D01*
X0003048Y0048689D01*
X0003048Y0049276D01*
X0011198Y0049276D01*
X0011198Y0047752D01*
X0011235Y0047566D01*
X0011340Y0047408D01*
X0011498Y0047303D01*
X0011684Y0047266D01*
X0013208Y0047266D01*
X0013394Y0047303D01*
X0013552Y0047408D01*
X0013657Y0047566D01*
X0013694Y0047752D01*
X0013694Y0049276D01*
X0013738Y0049276D01*
X0013738Y0047752D01*
X0013775Y0047566D01*
X0013880Y0047408D01*
X0014038Y0047303D01*
X0014224Y0047266D01*
X0015748Y0047266D01*
X0015934Y0047303D01*
X0016092Y0047408D01*
X0016197Y0047566D01*
X0016234Y0047752D01*
X0016234Y0049276D01*
X0016278Y0049276D01*
X0016278Y0047752D01*
X0016315Y0047566D01*
X0016420Y0047408D01*
X0016578Y0047303D01*
X0016764Y0047266D01*
X0018288Y0047266D01*
X0018474Y0047303D01*
X0018632Y0047408D01*
X0018737Y0047566D01*
X0018774Y0047752D01*
X0018774Y0049276D01*
X0018737Y0049462D01*
X0018632Y0049620D01*
X0018474Y0049725D01*
X0018288Y0049762D01*
X0016764Y0049762D01*
X0016578Y0049725D01*
X0016420Y0049620D01*
X0016315Y0049462D01*
X0016278Y0049276D01*
X0016234Y0049276D01*
X0016197Y0049462D01*
X0016092Y0049620D01*
X0015934Y0049725D01*
X0015748Y0049762D01*
X0014224Y0049762D01*
X0014038Y0049725D01*
X0013880Y0049620D01*
X0013775Y0049462D01*
X0013738Y0049276D01*
X0013694Y0049276D01*
X0013657Y0049462D01*
X0013552Y0049620D01*
X0013394Y0049725D01*
X0013208Y0049762D01*
X0011684Y0049762D01*
X0011498Y0049725D01*
X0011340Y0049620D01*
X0011235Y0049462D01*
X0011198Y0049276D01*
X0003048Y0049276D01*
X0003048Y0051816D01*
X0011198Y0051816D01*
X0011198Y0050292D01*
X0011235Y0050106D01*
X0011340Y0049948D01*
X0011498Y0049843D01*
X0011684Y0049806D01*
X0013208Y0049806D01*
X0013394Y0049843D01*
X0013552Y0049948D01*
X0013657Y0050106D01*
X0013694Y0050292D01*
X0013694Y0051816D01*
X0013738Y0051816D01*
X0013738Y0050292D01*
X0013775Y0050106D01*
X0013880Y0049948D01*
X0014038Y0049843D01*
X0014224Y0049806D01*
X0015748Y0049806D01*
X0015934Y0049843D01*
X0016092Y0049948D01*
X0016197Y0050106D01*
X0016234Y0050292D01*
X0016234Y0051816D01*
X0016278Y0051816D01*
X0016278Y0050292D01*
X0016315Y0050106D01*
X0016420Y0049948D01*
X0016578Y0049843D01*
X0016764Y0049806D01*
X0018288Y0049806D01*
X0018474Y0049843D01*
X0018632Y0049948D01*
X0018737Y0050106D01*
X0018774Y0050292D01*
X0018774Y0051816D01*
X0018737Y0052002D01*
X0018632Y0052160D01*
X0018474Y0052265D01*
X0018288Y0052302D01*
X0016764Y0052302D01*
X0016578Y0052265D01*
X0016420Y0052160D01*
X0016315Y0052002D01*
X0016278Y0051816D01*
X0016234Y0051816D01*
X0016197Y0052002D01*
X0016092Y0052160D01*
X0015934Y0052265D01*
X0015748Y0052302D01*
X0014224Y0052302D01*
X0014038Y0052265D01*
X0013880Y0052160D01*
X0013775Y0052002D01*
X0013738Y0051816D01*
X0013694Y0051816D01*
X0013657Y0052002D01*
X0013552Y0052160D01*
X0013394Y0052265D01*
X0013208Y0052302D01*
X0011684Y0052302D01*
X0011498Y0052265D01*
X0011340Y0052160D01*
X0011235Y0052002D01*
X0011198Y0051816D01*
X0003048Y0051816D01*
X0003048Y0056138D01*
X0005524Y0056138D01*
X0005657Y0055816D01*
X0005903Y0055569D01*
X0006226Y0055435D01*
X0006574Y0055435D01*
X0006897Y0055568D01*
X0006964Y0055635D01*
X0010388Y0055635D01*
X0011645Y0054377D01*
X0011645Y0054284D01*
X0011778Y0053961D01*
X0012025Y0053715D01*
X0012347Y0053581D01*
X0012696Y0053580D01*
X0013018Y0053714D01*
X0013265Y0053960D01*
X0013399Y0054282D01*
X0013399Y0054631D01*
X0013266Y0054954D01*
X0013020Y0055201D01*
X0012697Y0055334D01*
X0012603Y0055335D01*
X0011147Y0056791D01*
X0011121Y0056808D01*
X0010927Y0056937D01*
X0010668Y0056989D01*
X0006964Y0056989D01*
X0006898Y0057055D01*
X0006576Y0057189D01*
X0006227Y0057189D01*
X0005905Y0057056D01*
X0005658Y0056809D01*
X0005524Y0056487D01*
X0005524Y0056138D01*
X0003048Y0056138D01*
X0003048Y0062252D01*
X0004318Y0062252D01*
X0004504Y0062289D01*
X0004662Y0062394D01*
X0004767Y0062552D01*
X0004804Y0062738D01*
X0004804Y0062823D01*
X0004848Y0062823D01*
X0004848Y0062738D01*
X0004885Y0062552D01*
X0004990Y0062394D01*
X0005148Y0062289D01*
X0005334Y0062252D01*
X0006858Y0062252D01*
X0007044Y0062289D01*
X0007202Y0062394D01*
X0007307Y0062552D01*
X0007344Y0062738D01*
X0007344Y0062823D01*
X0009988Y0062823D01*
X0011660Y0061151D01*
X0011569Y0060932D01*
X0011569Y0060583D01*
X0011702Y0060261D01*
X0011949Y0060014D01*
X0012271Y0059880D01*
X0012620Y0059880D01*
X0012942Y0060013D01*
X0013077Y0060148D01*
X0013077Y0058966D01*
X0013129Y0058707D01*
X0013193Y0058611D01*
X0013275Y0058487D01*
X0014507Y0057255D01*
X0014727Y0057109D01*
X0014986Y0057057D01*
X0017780Y0057057D01*
X0017845Y0056991D01*
X0018168Y0056857D01*
X0018517Y0056857D01*
X0018839Y0056990D01*
X0019086Y0057237D01*
X0019220Y0057559D01*
X0019220Y0057908D01*
X0019087Y0058230D01*
X0018840Y0058477D01*
X0018518Y0058611D01*
X0018169Y0058611D01*
X0017847Y0058478D01*
X0017780Y0058411D01*
X0015266Y0058411D01*
X0014431Y0059247D01*
X0014431Y0062084D01*
X0014379Y0062343D01*
X0014233Y0062563D01*
X0007737Y0069059D01*
X0007517Y0069205D01*
X0007344Y0069240D01*
X0007344Y0069342D01*
X0007307Y0069528D01*
X0007202Y0069686D01*
X0007044Y0069791D01*
X0006858Y0069828D01*
X0005334Y0069828D01*
X0005148Y0069791D01*
X0004990Y0069686D01*
X0004885Y0069528D01*
X0004848Y0069342D01*
X0004848Y0067818D01*
X0004885Y0067632D01*
X0004990Y0067474D01*
X0005148Y0067369D01*
X0005334Y0067332D01*
X0006858Y0067332D01*
X0007044Y0067369D01*
X0007202Y0067474D01*
X0007284Y0067597D01*
X0013077Y0061804D01*
X0013077Y0061554D01*
X0013071Y0061582D01*
X0012925Y0061801D01*
X0010747Y0063979D01*
X0010528Y0064125D01*
X0010268Y0064177D01*
X0007344Y0064177D01*
X0007344Y0064262D01*
X0007307Y0064448D01*
X0007202Y0064606D01*
X0007044Y0064711D01*
X0006858Y0064748D01*
X0005334Y0064748D01*
X0005148Y0064711D01*
X0004990Y0064606D01*
X0004885Y0064448D01*
X0004848Y0064262D01*
X0004848Y0064177D01*
X0004804Y0064177D01*
X0004804Y0064262D01*
X0004767Y0064448D01*
X0004662Y0064606D01*
X0004504Y0064711D01*
X0004318Y0064748D01*
X0003048Y0064748D01*
X0003048Y0064792D01*
X0004318Y0064792D01*
X0004504Y0064829D01*
X0004662Y0064934D01*
X0004767Y0065092D01*
X0004804Y0065278D01*
X0004804Y0066802D01*
X0004848Y0066802D01*
X0004848Y0065278D01*
X0004885Y0065092D01*
X0004990Y0064934D01*
X0005148Y0064829D01*
X0005334Y0064792D01*
X0006858Y0064792D01*
X0007044Y0064829D01*
X0007202Y0064934D01*
X0007307Y0065092D01*
X0007344Y0065278D01*
X0007344Y0066802D01*
X0007307Y0066988D01*
X0007202Y0067146D01*
X0007044Y0067251D01*
X0006858Y0067288D01*
X0005334Y0067288D01*
X0005148Y0067251D01*
X0004990Y0067146D01*
X0004885Y0066988D01*
X0004848Y0066802D01*
X0004804Y0066802D01*
X0004767Y0066988D01*
X0004662Y0067146D01*
X0004504Y0067251D01*
X0004318Y0067288D01*
X0003048Y0067288D01*
X0003048Y0067332D01*
X0004318Y0067332D01*
X0004504Y0067369D01*
X0004662Y0067474D01*
X0004767Y0067632D01*
X0004804Y0067818D01*
X0004804Y0069342D01*
X0004767Y0069528D01*
X0004662Y0069686D01*
X0004504Y0069791D01*
X0004318Y0069828D01*
X0003048Y0069828D01*
X0003048Y0071708D01*
X0004001Y0071312D01*
X0005643Y0071310D01*
X0007161Y0071937D01*
X0008323Y0073097D01*
X0008952Y0074613D01*
X0008953Y0074930D01*
X0013738Y0074930D01*
X0013738Y0073406D01*
X0013775Y0073220D01*
X0013880Y0073062D01*
X0014038Y0072957D01*
X0014224Y0072920D01*
X0015748Y0072920D01*
X0015934Y0072957D01*
X0016092Y0073062D01*
X0016197Y0073220D01*
X0016234Y0073406D01*
X0016234Y0074930D01*
X0016197Y0075116D01*
X0016092Y0075274D01*
X0015934Y0075379D01*
X0015748Y0075416D01*
X0014224Y0075416D01*
X0014038Y0075379D01*
X0013880Y0075274D01*
X0013775Y0075116D01*
X0013738Y0074930D01*
X0008953Y0074930D01*
X0008954Y0076255D01*
X0008452Y0077470D01*
X0013738Y0077470D01*
X0013738Y0075946D01*
X0013775Y0075760D01*
X0013880Y0075602D01*
X0014038Y0075497D01*
X0014224Y0075460D01*
X0015748Y0075460D01*
X0015934Y0075497D01*
X0016092Y0075602D01*
X0016197Y0075760D01*
X0016234Y0075946D01*
X0016234Y0077470D01*
X0016197Y0077656D01*
X0016092Y0077814D01*
X0015934Y0077919D01*
X0015748Y0077956D01*
X0014224Y0077956D01*
X0014038Y0077919D01*
X0013880Y0077814D01*
X0013775Y0077656D01*
X0013738Y0077470D01*
X0008452Y0077470D01*
X0008327Y0077773D01*
X0007843Y0078257D01*
X0022129Y0078257D01*
X0021649Y0077779D01*
X0021649Y0077779D01*
G37*
X0021649Y0077779D02*
X0021020Y0076263D01*
X0021018Y0074621D01*
X0021645Y0073103D01*
X0022805Y0071941D01*
X0024321Y0071312D01*
X0025963Y0071310D01*
X0026670Y0071602D01*
X0026670Y0048794D01*
X0025971Y0049084D01*
X0024329Y0049086D01*
X0022811Y0048459D01*
X0021649Y0047299D01*
X0021020Y0045783D01*
X0021018Y0044323D01*
X0008952Y0044323D01*
X0008954Y0045775D01*
X0008327Y0047293D01*
X0007167Y0048455D01*
X0005651Y0049084D01*
X0004009Y0049086D01*
X0003048Y0048689D01*
X0003048Y0049276D01*
X0011198Y0049276D01*
X0011198Y0047752D01*
X0011235Y0047566D01*
X0011340Y0047408D01*
X0011498Y0047303D01*
X0011684Y0047266D01*
X0013208Y0047266D01*
X0013394Y0047303D01*
X0013552Y0047408D01*
X0013657Y0047566D01*
X0013694Y0047752D01*
X0013694Y0049276D01*
X0013738Y0049276D01*
X0013738Y0047752D01*
X0013775Y0047566D01*
X0013880Y0047408D01*
X0014038Y0047303D01*
X0014224Y0047266D01*
X0015748Y0047266D01*
X0015934Y0047303D01*
X0016092Y0047408D01*
X0016197Y0047566D01*
X0016234Y0047752D01*
X0016234Y0049276D01*
X0016278Y0049276D01*
X0016278Y0047752D01*
X0016315Y0047566D01*
X0016420Y0047408D01*
X0016578Y0047303D01*
X0016764Y0047266D01*
X0018288Y0047266D01*
X0018474Y0047303D01*
X0018632Y0047408D01*
X0018737Y0047566D01*
X0018774Y0047752D01*
X0018774Y0049276D01*
X0018737Y0049462D01*
X0018632Y0049620D01*
X0018474Y0049725D01*
X0018288Y0049762D01*
X0016764Y0049762D01*
X0016578Y0049725D01*
X0016420Y0049620D01*
X0016315Y0049462D01*
X0016278Y0049276D01*
X0016234Y0049276D01*
X0016197Y0049462D01*
X0016092Y0049620D01*
X0015934Y0049725D01*
X0015748Y0049762D01*
X0014224Y0049762D01*
X0014038Y0049725D01*
X0013880Y0049620D01*
X0013775Y0049462D01*
X0013738Y0049276D01*
X0013694Y0049276D01*
X0013657Y0049462D01*
X0013552Y0049620D01*
X0013394Y0049725D01*
X0013208Y0049762D01*
X0011684Y0049762D01*
X0011498Y0049725D01*
X0011340Y0049620D01*
X0011235Y0049462D01*
X0011198Y0049276D01*
X0003048Y0049276D01*
X0003048Y0051816D01*
X0011198Y0051816D01*
X0011198Y0050292D01*
X0011235Y0050106D01*
X0011340Y0049948D01*
X0011498Y0049843D01*
X0011684Y0049806D01*
X0013208Y0049806D01*
X0013394Y0049843D01*
X0013552Y0049948D01*
X0013657Y0050106D01*
X0013694Y0050292D01*
X0013694Y0051816D01*
X0013738Y0051816D01*
X0013738Y0050292D01*
X0013775Y0050106D01*
X0013880Y0049948D01*
X0014038Y0049843D01*
X0014224Y0049806D01*
X0015748Y0049806D01*
X0015934Y0049843D01*
X0016092Y0049948D01*
X0016197Y0050106D01*
X0016234Y0050292D01*
X0016234Y0051816D01*
X0016278Y0051816D01*
X0016278Y0050292D01*
X0016315Y0050106D01*
X0016420Y0049948D01*
X0016578Y0049843D01*
X0016764Y0049806D01*
X0018288Y0049806D01*
X0018474Y0049843D01*
X0018632Y0049948D01*
X0018737Y0050106D01*
X0018774Y0050292D01*
X0018774Y0051816D01*
X0018737Y0052002D01*
X0018632Y0052160D01*
X0018474Y0052265D01*
X0018288Y0052302D01*
X0016764Y0052302D01*
X0016578Y0052265D01*
X0016420Y0052160D01*
X0016315Y0052002D01*
X0016278Y0051816D01*
X0016234Y0051816D01*
X0016197Y0052002D01*
X0016092Y0052160D01*
X0015934Y0052265D01*
X0015748Y0052302D01*
X0014224Y0052302D01*
X0014038Y0052265D01*
X0013880Y0052160D01*
X0013775Y0052002D01*
X0013738Y0051816D01*
X0013694Y0051816D01*
X0013657Y0052002D01*
X0013552Y0052160D01*
X0013394Y0052265D01*
X0013208Y0052302D01*
X0011684Y0052302D01*
X0011498Y0052265D01*
X0011340Y0052160D01*
X0011235Y0052002D01*
X0011198Y0051816D01*
X0003048Y0051816D01*
X0003048Y0056138D01*
X0005524Y0056138D01*
X0005657Y0055816D01*
X0005903Y0055569D01*
X0006226Y0055435D01*
X0006574Y0055435D01*
X0006897Y0055568D01*
X0006964Y0055635D01*
X0010388Y0055635D01*
X0011645Y0054377D01*
X0011645Y0054284D01*
X0011778Y0053961D01*
X0012025Y0053715D01*
X0012347Y0053581D01*
X0012696Y0053580D01*
X0013018Y0053714D01*
X0013265Y0053960D01*
X0013399Y0054282D01*
X0013399Y0054631D01*
X0013266Y0054954D01*
X0013020Y0055201D01*
X0012697Y0055334D01*
X0012603Y0055335D01*
X0011147Y0056791D01*
X0011121Y0056808D01*
X0010927Y0056937D01*
X0010668Y0056989D01*
X0006964Y0056989D01*
X0006898Y0057055D01*
X0006576Y0057189D01*
X0006227Y0057189D01*
X0005905Y0057056D01*
X0005658Y0056809D01*
X0005524Y0056487D01*
X0005524Y0056138D01*
X0003048Y0056138D01*
X0003048Y0062252D01*
X0004318Y0062252D01*
X0004504Y0062289D01*
X0004662Y0062394D01*
X0004767Y0062552D01*
X0004804Y0062738D01*
X0004804Y0062823D01*
X0004848Y0062823D01*
X0004848Y0062738D01*
X0004885Y0062552D01*
X0004990Y0062394D01*
X0005148Y0062289D01*
X0005334Y0062252D01*
X0006858Y0062252D01*
X0007044Y0062289D01*
X0007202Y0062394D01*
X0007307Y0062552D01*
X0007344Y0062738D01*
X0007344Y0062823D01*
X0009988Y0062823D01*
X0011660Y0061151D01*
X0011569Y0060932D01*
X0011569Y0060583D01*
X0011702Y0060261D01*
X0011949Y0060014D01*
X0012271Y0059880D01*
X0012620Y0059880D01*
X0012942Y0060013D01*
X0013077Y0060148D01*
X0013077Y0058966D01*
X0013129Y0058707D01*
X0013193Y0058611D01*
X0013275Y0058487D01*
X0014507Y0057255D01*
X0014727Y0057109D01*
X0014986Y0057057D01*
X0017780Y0057057D01*
X0017845Y0056991D01*
X0018168Y0056857D01*
X0018517Y0056857D01*
X0018839Y0056990D01*
X0019086Y0057237D01*
X0019220Y0057559D01*
X0019220Y0057908D01*
X0019087Y0058230D01*
X0018840Y0058477D01*
X0018518Y0058611D01*
X0018169Y0058611D01*
X0017847Y0058478D01*
X0017780Y0058411D01*
X0015266Y0058411D01*
X0014431Y0059247D01*
X0014431Y0062084D01*
X0014379Y0062343D01*
X0014233Y0062563D01*
X0007737Y0069059D01*
X0007517Y0069205D01*
X0007344Y0069240D01*
X0007344Y0069342D01*
X0007307Y0069528D01*
X0007202Y0069686D01*
X0007044Y0069791D01*
X0006858Y0069828D01*
X0005334Y0069828D01*
X0005148Y0069791D01*
X0004990Y0069686D01*
X0004885Y0069528D01*
X0004848Y0069342D01*
X0004848Y0067818D01*
X0004885Y0067632D01*
X0004990Y0067474D01*
X0005148Y0067369D01*
X0005334Y0067332D01*
X0006858Y0067332D01*
X0007044Y0067369D01*
X0007202Y0067474D01*
X0007284Y0067597D01*
X0013077Y0061804D01*
X0013077Y0061554D01*
X0013071Y0061582D01*
X0012925Y0061801D01*
X0010747Y0063979D01*
X0010528Y0064125D01*
X0010268Y0064177D01*
X0007344Y0064177D01*
X0007344Y0064262D01*
X0007307Y0064448D01*
X0007202Y0064606D01*
X0007044Y0064711D01*
X0006858Y0064748D01*
X0005334Y0064748D01*
X0005148Y0064711D01*
X0004990Y0064606D01*
X0004885Y0064448D01*
X0004848Y0064262D01*
X0004848Y0064177D01*
X0004804Y0064177D01*
X0004804Y0064262D01*
X0004767Y0064448D01*
X0004662Y0064606D01*
X0004504Y0064711D01*
X0004318Y0064748D01*
X0003048Y0064748D01*
X0003048Y0064792D01*
X0004318Y0064792D01*
X0004504Y0064829D01*
X0004662Y0064934D01*
X0004767Y0065092D01*
X0004804Y0065278D01*
X0004804Y0066802D01*
X0004848Y0066802D01*
X0004848Y0065278D01*
X0004885Y0065092D01*
X0004990Y0064934D01*
X0005148Y0064829D01*
X0005334Y0064792D01*
X0006858Y0064792D01*
X0007044Y0064829D01*
X0007202Y0064934D01*
X0007307Y0065092D01*
X0007344Y0065278D01*
X0007344Y0066802D01*
X0007307Y0066988D01*
X0007202Y0067146D01*
X0007044Y0067251D01*
X0006858Y0067288D01*
X0005334Y0067288D01*
X0005148Y0067251D01*
X0004990Y0067146D01*
X0004885Y0066988D01*
X0004848Y0066802D01*
X0004804Y0066802D01*
X0004767Y0066988D01*
X0004662Y0067146D01*
X0004504Y0067251D01*
X0004318Y0067288D01*
X0003048Y0067288D01*
X0003048Y0067332D01*
X0004318Y0067332D01*
X0004504Y0067369D01*
X0004662Y0067474D01*
X0004767Y0067632D01*
X0004804Y0067818D01*
X0004804Y0069342D01*
X0004767Y0069528D01*
X0004662Y0069686D01*
X0004504Y0069791D01*
X0004318Y0069828D01*
X0003048Y0069828D01*
X0003048Y0071708D01*
X0004001Y0071312D01*
X0005643Y0071310D01*
X0007161Y0071937D01*
X0008323Y0073097D01*
X0008952Y0074613D01*
X0008953Y0074930D01*
X0013738Y0074930D01*
X0013738Y0073406D01*
X0013775Y0073220D01*
X0013880Y0073062D01*
X0014038Y0072957D01*
X0014224Y0072920D01*
X0015748Y0072920D01*
X0015934Y0072957D01*
X0016092Y0073062D01*
X0016197Y0073220D01*
X0016234Y0073406D01*
X0016234Y0074930D01*
X0016197Y0075116D01*
X0016092Y0075274D01*
X0015934Y0075379D01*
X0015748Y0075416D01*
X0014224Y0075416D01*
X0014038Y0075379D01*
X0013880Y0075274D01*
X0013775Y0075116D01*
X0013738Y0074930D01*
X0008953Y0074930D01*
X0008954Y0076255D01*
X0008452Y0077470D01*
X0013738Y0077470D01*
X0013738Y0075946D01*
X0013775Y0075760D01*
X0013880Y0075602D01*
X0014038Y0075497D01*
X0014224Y0075460D01*
X0015748Y0075460D01*
X0015934Y0075497D01*
X0016092Y0075602D01*
X0016197Y0075760D01*
X0016234Y0075946D01*
X0016234Y0077470D01*
X0016197Y0077656D01*
X0016092Y0077814D01*
X0015934Y0077919D01*
X0015748Y0077956D01*
X0014224Y0077956D01*
X0014038Y0077919D01*
X0013880Y0077814D01*
X0013775Y0077656D01*
X0013738Y0077470D01*
X0008452Y0077470D01*
X0008327Y0077773D01*
X0007843Y0078257D01*
X0022129Y0078257D01*
X0021649Y0077779D01*
X0029972Y0000000D02*
%LPD*%
G01*
D12*
D34*
X0043942Y0032616D03*
X0043942Y0026416D03*
X0038942Y0029516D03*
D24*
X0036322Y0025654D03*
X0039370Y0013716D03*
X0036830Y0013716D03*
X0039370Y0016256D03*
X0036830Y0016256D03*
X0039370Y0018796D03*
X0036830Y0018796D03*
X0039370Y0021336D03*
X0036830Y0021336D03*
X0049784Y0010160D03*
X0049784Y0007620D03*
X0047244Y0010160D03*
X0047244Y0007620D03*
X0044704Y0010160D03*
X0044704Y0007620D03*
X0042164Y0010160D03*
X0042164Y0007620D03*
X0067564Y0007620D03*
X0067564Y0010160D03*
X0070104Y0007620D03*
X0070104Y0010160D03*
X0072644Y0007620D03*
X0072644Y0010160D03*
X0075184Y0007620D03*
X0075184Y0010160D03*
X0077724Y0030480D03*
X0077724Y0033020D03*
X0080264Y0030480D03*
X0080264Y0033020D03*
X0082804Y0030480D03*
X0082804Y0033020D03*
X0085344Y0030480D03*
X0085344Y0033020D03*
X0065024Y0030480D03*
X0065024Y0033020D03*
X0067564Y0030480D03*
X0067564Y0033020D03*
X0070104Y0030480D03*
X0070104Y0033020D03*
X0072644Y0030480D03*
X0072644Y0033020D03*
X0104902Y0021590D03*
X0102362Y0021590D03*
X0104902Y0024130D03*
X0102362Y0024130D03*
X0104902Y0026670D03*
X0102362Y0026670D03*
X0104902Y0029210D03*
X0102362Y0029210D03*
X0054864Y0007620D03*
X0054864Y0010160D03*
X0057404Y0007620D03*
X0057404Y0010160D03*
X0059944Y0007620D03*
X0059944Y0010160D03*
X0062484Y0007620D03*
X0062484Y0010160D03*
X0080264Y0007620D03*
X0080264Y0010160D03*
X0082804Y0007620D03*
X0082804Y0010160D03*
X0085344Y0007620D03*
X0085344Y0010160D03*
X0087884Y0007620D03*
X0087884Y0010160D03*
X0104902Y0010668D03*
X0102362Y0010668D03*
X0104902Y0013208D03*
X0102362Y0013208D03*
X0104902Y0015748D03*
X0102362Y0015748D03*
X0104902Y0018288D03*
X0102362Y0018288D03*
D50*
X0105918Y0035306D03*
X0105918Y0004826D03*
X0034798Y0035306D03*
X0034798Y0004826D03*
D34*
X0054102Y0034972D03*
X0054102Y0029972D03*
X0059182Y0029972D03*
X0059182Y0034972D03*
D32*
X0106934Y0020574D03*
X0109474Y0031750D03*
X0102870Y0031242D03*
X0101346Y0031242D03*
X0101092Y0032766D03*
X0099822Y0032766D03*
X0109474Y0009906D03*
X0108204Y0009906D03*
X0106680Y0009906D03*
X0102870Y0008636D03*
X0087884Y0035560D03*
X0087884Y0036830D03*
X0087884Y0037846D03*
X0087884Y0038862D03*
X0072898Y0035814D03*
X0072898Y0036830D03*
X0072898Y0037846D03*
X0072898Y0038862D03*
X0061976Y0034036D03*
X0066040Y0035052D03*
X0094234Y0018542D03*
X0096012Y0018542D03*
X0097536Y0018796D03*
X0097536Y0020320D03*
X0097536Y0021844D03*
X0096774Y0022860D03*
X0095250Y0022860D03*
X0093726Y0022860D03*
X0093472Y0021336D03*
X0100076Y0007112D03*
X0099568Y0008128D03*
X0098552Y0008128D03*
X0097536Y0008128D03*
X0096520Y0008128D03*
X0034036Y0010414D03*
X0032766Y0010414D03*
X0031496Y0010414D03*
X0050038Y0005588D03*
X0049022Y0005588D03*
X0047752Y0005588D03*
X0063500Y0005334D03*
X0062484Y0005334D03*
X0061468Y0005334D03*
X0076708Y0005588D03*
X0075692Y0005842D03*
X0074422Y0005842D03*
X0091440Y0004826D03*
X0091440Y0003556D03*
X0091440Y0002286D03*
X0088392Y0028448D03*
X0088392Y0029718D03*
X0088392Y0031242D03*
X0088392Y0032766D03*
X0088392Y0034036D03*
X0087122Y0034036D03*
X0087122Y0032766D03*
X0087122Y0031242D03*
X0087122Y0029718D03*
X0087122Y0028448D03*
X0063246Y0030226D03*
X0063246Y0031496D03*
X0063246Y0032766D03*
X0063246Y0034036D03*
X0075946Y0034798D03*
X0075946Y0033528D03*
X0075946Y0032258D03*
X0075946Y0030988D03*
X0075946Y0029718D03*
X0074676Y0029718D03*
X0074676Y0030988D03*
X0074676Y0032258D03*
X0074676Y0033528D03*
X0074676Y0034798D03*
X0109474Y0021082D03*
X0108204Y0021082D03*
X0105918Y0020066D03*
X0104648Y0020066D03*
X0103378Y0020066D03*
X0102108Y0020066D03*
X0100838Y0020066D03*
X0100330Y0010160D03*
X0101346Y0008636D03*
X0089662Y0006604D03*
X0090932Y0006604D03*
X0090932Y0007620D03*
X0090932Y0008890D03*
X0089662Y0011430D03*
X0089662Y0010160D03*
X0089662Y0008890D03*
X0089662Y0007620D03*
X0078486Y0010922D03*
X0078486Y0009652D03*
X0078486Y0008382D03*
X0078486Y0007112D03*
X0077216Y0007112D03*
X0077216Y0008382D03*
X0077216Y0009652D03*
X0077216Y0010922D03*
X0065786Y0007620D03*
X0065786Y0008890D03*
X0065786Y0010160D03*
X0065786Y0011176D03*
X0064516Y0011176D03*
X0064516Y0010160D03*
X0064516Y0008890D03*
X0064516Y0007620D03*
X0040386Y0023368D03*
X0039370Y0023368D03*
X0038100Y0023368D03*
X0036830Y0023368D03*
X0039878Y0010414D03*
X0038608Y0010414D03*
X0037084Y0010414D03*
X0035814Y0010414D03*
X0035814Y0011684D03*
X0037084Y0011684D03*
X0038608Y0011684D03*
X0039878Y0011684D03*
X0051816Y0008382D03*
X0051816Y0009652D03*
X0051816Y0007112D03*
X0052832Y0007112D03*
X0052832Y0008382D03*
X0052832Y0009652D03*
X0052832Y0010922D03*
X0051816Y0010922D03*
X0046990Y0035052D03*
X0045720Y0035560D03*
X0044196Y0035560D03*
X0042672Y0035560D03*
X0041148Y0035560D03*
X0041148Y0034290D03*
X0041148Y0032766D03*
X0041910Y0029718D03*
X0042926Y0029718D03*
X0044450Y0029718D03*
X0055880Y0027178D03*
X0057150Y0027178D03*
X0058420Y0027178D03*
X0059690Y0027178D03*
X0060960Y0027178D03*
X0062230Y0027432D03*
X0062230Y0028702D03*
X0062230Y0029972D03*
D36*
X0107334Y0020974D02*
X0106934Y0020574D01*
X0107442Y0021082D02*
X0107334Y0020974D01*
X0108204Y0021082D02*
X0107442Y0021082D01*
D15*
X0102362Y0030226D02*
X0101346Y0031242D01*
X0101346Y0031242D02*
X0099822Y0032766D01*
X0101092Y0031496D02*
X0101346Y0031242D01*
X0101092Y0032766D02*
X0101092Y0031496D01*
X0102362Y0029210D02*
X0102362Y0030226D01*
X0106680Y0009906D02*
X0108204Y0009906D01*
X0101346Y0008636D02*
X0102870Y0008636D01*
X0087884Y0036830D02*
X0087884Y0035560D01*
X0087884Y0038862D02*
X0087884Y0037846D01*
X0072898Y0037846D02*
X0072898Y0036830D01*
D36*
X0062484Y0034544D02*
X0062376Y0034436D01*
X0062376Y0034436D02*
X0061976Y0034036D01*
X0063246Y0034036D02*
X0062738Y0034544D01*
X0062992Y0034290D02*
X0062738Y0034544D01*
X0062738Y0034544D02*
X0062484Y0034544D01*
X0065474Y0035052D02*
X0066040Y0035052D01*
X0065394Y0035052D02*
X0065474Y0035052D01*
X0065024Y0034682D02*
X0065394Y0035052D01*
X0065024Y0033020D02*
X0065024Y0034682D01*
X0097536Y0018796D02*
X0096266Y0018796D01*
X0096266Y0018796D02*
X0096012Y0018542D01*
X0097536Y0021844D02*
X0097536Y0020320D01*
X0095250Y0022860D02*
X0096774Y0022860D01*
X0093472Y0021336D02*
X0093472Y0022606D01*
X0093472Y0022606D02*
X0093726Y0022860D01*
X0098552Y0008128D02*
X0099568Y0008128D01*
X0096520Y0008128D02*
X0097536Y0008128D01*
X0031496Y0010414D02*
X0032766Y0010414D01*
X0047752Y0005588D02*
X0049022Y0005588D01*
X0061468Y0005334D02*
X0062484Y0005334D01*
X0074422Y0005842D02*
X0075692Y0005842D01*
X0091440Y0002286D02*
X0091440Y0003556D01*
X0088392Y0031242D02*
X0088392Y0029718D01*
X0088392Y0034036D02*
X0088392Y0032766D01*
X0087122Y0032766D02*
X0087122Y0034036D01*
X0087122Y0029718D02*
X0087122Y0031242D01*
X0085344Y0030480D02*
X0085344Y0030226D01*
X0085344Y0030226D02*
X0087122Y0028448D01*
X0063246Y0032766D02*
X0063246Y0031496D01*
X0075946Y0032258D02*
X0075946Y0033528D01*
X0075946Y0029718D02*
X0075946Y0030988D01*
X0074676Y0030988D02*
X0074676Y0029718D01*
X0074676Y0033528D02*
X0074676Y0032258D01*
X0072644Y0033020D02*
X0072898Y0033020D01*
X0072898Y0033020D02*
X0074676Y0034798D01*
X0104902Y0029210D02*
X0104902Y0029464D01*
X0104648Y0020066D02*
X0105918Y0020066D01*
X0102108Y0020066D02*
X0103378Y0020066D01*
X0102362Y0018288D02*
X0102362Y0018542D01*
X0102362Y0018542D02*
X0100838Y0020066D01*
X0102362Y0010668D02*
X0102362Y0009652D01*
X0102362Y0009652D02*
X0101346Y0008636D01*
X0090932Y0007620D02*
X0090932Y0006604D01*
X0089662Y0011430D02*
X0089662Y0010160D01*
X0089662Y0010160D02*
X0090932Y0008890D01*
X0089662Y0008890D02*
X0089662Y0010160D01*
X0087884Y0007620D02*
X0089662Y0007620D01*
X0078486Y0008382D02*
X0078486Y0009652D01*
X0077216Y0007112D02*
X0078486Y0007112D01*
X0077216Y0009652D02*
X0077216Y0008382D01*
X0075184Y0010160D02*
X0076454Y0010160D01*
X0076454Y0010160D02*
X0077216Y0010922D01*
X0065786Y0010160D02*
X0065786Y0008890D01*
X0064516Y0011176D02*
X0065786Y0011176D01*
X0064516Y0008890D02*
X0064516Y0010160D01*
X0062484Y0007620D02*
X0064516Y0007620D01*
X0038100Y0023368D02*
X0039370Y0023368D01*
X0036830Y0021336D02*
X0036830Y0023368D01*
X0037084Y0010414D02*
X0038608Y0010414D01*
X0035814Y0011684D02*
X0035814Y0010414D01*
X0038608Y0011684D02*
X0037084Y0011684D01*
X0042164Y0010160D02*
X0041402Y0010160D01*
X0041402Y0010160D02*
X0039878Y0011684D01*
X0051816Y0010922D02*
X0051816Y0009652D01*
X0052832Y0008382D02*
X0052832Y0007112D01*
X0052832Y0010922D02*
X0052832Y0009652D01*
X0049784Y0010160D02*
X0051054Y0010160D01*
X0051054Y0010160D02*
X0051816Y0010922D01*
X0044196Y0035560D02*
X0045720Y0035560D01*
X0041148Y0035560D02*
X0042672Y0035560D01*
X0041148Y0032766D02*
X0041148Y0034290D01*
X0042926Y0029718D02*
X0041910Y0029718D01*
X0043942Y0032616D02*
X0043942Y0030226D01*
X0043942Y0030226D02*
X0044450Y0029718D01*
X0058420Y0027178D02*
X0057150Y0027178D01*
X0060960Y0027178D02*
X0059690Y0027178D01*
X0062230Y0028702D02*
X0062230Y0027432D01*
X0059182Y0029972D02*
X0062230Y0029972D01*
D18*
G36*
X0110242Y0000502D02*
X0030474Y0000502D01*
X0030474Y0004009D01*
X0030670Y0004009D01*
X0031297Y0002491D01*
X0032457Y0001329D01*
X0033973Y0000700D01*
X0035615Y0000698D01*
X0037133Y0001325D01*
X0038295Y0002485D01*
X0038488Y0002950D01*
X0039752Y0002950D01*
X0040022Y0002297D01*
X0040521Y0001796D01*
X0041174Y0001525D01*
X0041881Y0001525D01*
X0042534Y0001795D01*
X0043035Y0002294D01*
X0043306Y0002947D01*
X0043306Y0002950D01*
X0053087Y0002950D01*
X0053357Y0002297D01*
X0053856Y0001796D01*
X0054509Y0001525D01*
X0055216Y0001525D01*
X0055869Y0001795D01*
X0056370Y0002294D01*
X0056641Y0002947D01*
X0056641Y0002950D01*
X0066295Y0002950D01*
X0066565Y0002297D01*
X0067064Y0001796D01*
X0067717Y0001525D01*
X0068424Y0001525D01*
X0069077Y0001795D01*
X0069578Y0002294D01*
X0069849Y0002947D01*
X0069849Y0002950D01*
X0079503Y0002950D01*
X0079773Y0002297D01*
X0080272Y0001796D01*
X0080925Y0001525D01*
X0081632Y0001525D01*
X0082285Y0001795D01*
X0082786Y0002294D01*
X0083057Y0002947D01*
X0083057Y0003654D01*
X0082911Y0004009D01*
X0101790Y0004009D01*
X0102417Y0002491D01*
X0103577Y0001329D01*
X0105093Y0000700D01*
X0106735Y0000698D01*
X0108253Y0001325D01*
X0109415Y0002485D01*
X0110044Y0004001D01*
X0110046Y0005643D01*
X0109419Y0007161D01*
X0108259Y0008323D01*
X0106743Y0008952D01*
X0105101Y0008954D01*
X0103583Y0008327D01*
X0102421Y0007167D01*
X0101792Y0005651D01*
X0101790Y0004009D01*
X0082911Y0004009D01*
X0082787Y0004307D01*
X0082288Y0004808D01*
X0081635Y0005079D01*
X0080928Y0005079D01*
X0080275Y0004809D01*
X0079774Y0004310D01*
X0079503Y0003657D01*
X0079503Y0002950D01*
X0069849Y0002950D01*
X0069849Y0003654D01*
X0069579Y0004307D01*
X0069080Y0004808D01*
X0068427Y0005079D01*
X0067720Y0005079D01*
X0067067Y0004809D01*
X0066566Y0004310D01*
X0066295Y0003657D01*
X0066295Y0002950D01*
X0056641Y0002950D01*
X0056641Y0003654D01*
X0056371Y0004307D01*
X0055872Y0004808D01*
X0055219Y0005079D01*
X0054512Y0005079D01*
X0053859Y0004809D01*
X0053358Y0004310D01*
X0053087Y0003657D01*
X0053087Y0002950D01*
X0043306Y0002950D01*
X0043306Y0003654D01*
X0043036Y0004307D01*
X0042537Y0004808D01*
X0041884Y0005079D01*
X0041177Y0005079D01*
X0040524Y0004809D01*
X0040023Y0004310D01*
X0039752Y0003657D01*
X0039752Y0002950D01*
X0038488Y0002950D01*
X0038924Y0004001D01*
X0038926Y0005643D01*
X0038299Y0007161D01*
X0037139Y0008323D01*
X0036996Y0008382D01*
X0043507Y0008382D01*
X0043507Y0006858D01*
X0043540Y0006691D01*
X0043634Y0006550D01*
X0043775Y0006456D01*
X0043942Y0006423D01*
X0045466Y0006423D01*
X0045633Y0006456D01*
X0045774Y0006550D01*
X0045868Y0006691D01*
X0045901Y0006858D01*
X0045901Y0008382D01*
X0046047Y0008382D01*
X0046047Y0006858D01*
X0046080Y0006691D01*
X0046174Y0006550D01*
X0046315Y0006456D01*
X0046482Y0006423D01*
X0048006Y0006423D01*
X0048173Y0006456D01*
X0048314Y0006550D01*
X0048408Y0006691D01*
X0048441Y0006858D01*
X0048441Y0008382D01*
X0056207Y0008382D01*
X0056207Y0006858D01*
X0056240Y0006691D01*
X0056334Y0006550D01*
X0056475Y0006456D01*
X0056642Y0006423D01*
X0058166Y0006423D01*
X0058333Y0006456D01*
X0058474Y0006550D01*
X0058568Y0006691D01*
X0058601Y0006858D01*
X0058601Y0008382D01*
X0058747Y0008382D01*
X0058747Y0006858D01*
X0058780Y0006691D01*
X0058874Y0006550D01*
X0059015Y0006456D01*
X0059182Y0006423D01*
X0060706Y0006423D01*
X0060873Y0006456D01*
X0061014Y0006550D01*
X0061108Y0006691D01*
X0061141Y0006858D01*
X0061141Y0008382D01*
X0068907Y0008382D01*
X0068907Y0006858D01*
X0068940Y0006691D01*
X0069034Y0006550D01*
X0069175Y0006456D01*
X0069342Y0006423D01*
X0070866Y0006423D01*
X0071033Y0006456D01*
X0071174Y0006550D01*
X0071268Y0006691D01*
X0071301Y0006858D01*
X0071301Y0008382D01*
X0071447Y0008382D01*
X0071447Y0006858D01*
X0071480Y0006691D01*
X0071574Y0006550D01*
X0071715Y0006456D01*
X0071882Y0006423D01*
X0073406Y0006423D01*
X0073573Y0006456D01*
X0073714Y0006550D01*
X0073808Y0006691D01*
X0073841Y0006858D01*
X0073841Y0008382D01*
X0081607Y0008382D01*
X0081607Y0006858D01*
X0081640Y0006691D01*
X0081734Y0006550D01*
X0081875Y0006456D01*
X0082042Y0006423D01*
X0083566Y0006423D01*
X0083733Y0006456D01*
X0083874Y0006550D01*
X0083968Y0006691D01*
X0084001Y0006858D01*
X0084001Y0008382D01*
X0084147Y0008382D01*
X0084147Y0006858D01*
X0084180Y0006691D01*
X0084274Y0006550D01*
X0084415Y0006456D01*
X0084582Y0006423D01*
X0086106Y0006423D01*
X0086273Y0006456D01*
X0086414Y0006550D01*
X0086508Y0006691D01*
X0086541Y0006858D01*
X0086541Y0008382D01*
X0086508Y0008549D01*
X0086414Y0008690D01*
X0086273Y0008784D01*
X0086106Y0008817D01*
X0084582Y0008817D01*
X0084415Y0008784D01*
X0084274Y0008690D01*
X0084180Y0008549D01*
X0084147Y0008382D01*
X0084001Y0008382D01*
X0083968Y0008549D01*
X0083874Y0008690D01*
X0083733Y0008784D01*
X0083566Y0008817D01*
X0082042Y0008817D01*
X0081875Y0008784D01*
X0081734Y0008690D01*
X0081640Y0008549D01*
X0081607Y0008382D01*
X0073841Y0008382D01*
X0073808Y0008549D01*
X0073714Y0008690D01*
X0073573Y0008784D01*
X0073406Y0008817D01*
X0071882Y0008817D01*
X0071715Y0008784D01*
X0071574Y0008690D01*
X0071480Y0008549D01*
X0071447Y0008382D01*
X0071301Y0008382D01*
X0071268Y0008549D01*
X0071174Y0008690D01*
X0071033Y0008784D01*
X0070866Y0008817D01*
X0069342Y0008817D01*
X0069175Y0008784D01*
X0069034Y0008690D01*
X0068940Y0008549D01*
X0068907Y0008382D01*
X0061141Y0008382D01*
X0061108Y0008549D01*
X0061014Y0008690D01*
X0060873Y0008784D01*
X0060706Y0008817D01*
X0059182Y0008817D01*
X0059015Y0008784D01*
X0058874Y0008690D01*
X0058780Y0008549D01*
X0058747Y0008382D01*
X0058601Y0008382D01*
X0058568Y0008549D01*
X0058474Y0008690D01*
X0058333Y0008784D01*
X0058166Y0008817D01*
X0056642Y0008817D01*
X0056475Y0008784D01*
X0056334Y0008690D01*
X0056240Y0008549D01*
X0056207Y0008382D01*
X0048441Y0008382D01*
X0048408Y0008549D01*
X0048314Y0008690D01*
X0048173Y0008784D01*
X0048006Y0008817D01*
X0046482Y0008817D01*
X0046315Y0008784D01*
X0046174Y0008690D01*
X0046080Y0008549D01*
X0046047Y0008382D01*
X0045901Y0008382D01*
X0045868Y0008549D01*
X0045774Y0008690D01*
X0045633Y0008784D01*
X0045466Y0008817D01*
X0043942Y0008817D01*
X0043775Y0008784D01*
X0043634Y0008690D01*
X0043540Y0008549D01*
X0043507Y0008382D01*
X0036996Y0008382D01*
X0035623Y0008952D01*
X0033981Y0008954D01*
X0032463Y0008327D01*
X0031301Y0007167D01*
X0030672Y0005651D01*
X0030670Y0004009D01*
X0030474Y0004009D01*
X0030474Y0010922D01*
X0043507Y0010922D01*
X0043507Y0009398D01*
X0043540Y0009231D01*
X0043634Y0009090D01*
X0043775Y0008996D01*
X0043942Y0008963D01*
X0045466Y0008963D01*
X0045633Y0008996D01*
X0045774Y0009090D01*
X0045868Y0009231D01*
X0045901Y0009398D01*
X0045901Y0010922D01*
X0046047Y0010922D01*
X0046047Y0009398D01*
X0046080Y0009231D01*
X0046174Y0009090D01*
X0046315Y0008996D01*
X0046482Y0008963D01*
X0048006Y0008963D01*
X0048173Y0008996D01*
X0048314Y0009090D01*
X0048408Y0009231D01*
X0048441Y0009398D01*
X0048441Y0010922D01*
X0056207Y0010922D01*
X0056207Y0009398D01*
X0056240Y0009231D01*
X0056334Y0009090D01*
X0056475Y0008996D01*
X0056642Y0008963D01*
X0058166Y0008963D01*
X0058333Y0008996D01*
X0058474Y0009090D01*
X0058568Y0009231D01*
X0058601Y0009398D01*
X0058601Y0010922D01*
X0058747Y0010922D01*
X0058747Y0009398D01*
X0058780Y0009231D01*
X0058874Y0009090D01*
X0059015Y0008996D01*
X0059182Y0008963D01*
X0060706Y0008963D01*
X0060873Y0008996D01*
X0061014Y0009090D01*
X0061108Y0009231D01*
X0061141Y0009398D01*
X0061141Y0010922D01*
X0068907Y0010922D01*
X0068907Y0009398D01*
X0068940Y0009231D01*
X0069034Y0009090D01*
X0069175Y0008996D01*
X0069342Y0008963D01*
X0070866Y0008963D01*
X0071033Y0008996D01*
X0071174Y0009090D01*
X0071268Y0009231D01*
X0071301Y0009398D01*
X0071301Y0010922D01*
X0071447Y0010922D01*
X0071447Y0009398D01*
X0071480Y0009231D01*
X0071574Y0009090D01*
X0071715Y0008996D01*
X0071882Y0008963D01*
X0073406Y0008963D01*
X0073573Y0008996D01*
X0073714Y0009090D01*
X0073808Y0009231D01*
X0073841Y0009398D01*
X0073841Y0010922D01*
X0081607Y0010922D01*
X0081607Y0009398D01*
X0081640Y0009231D01*
X0081734Y0009090D01*
X0081875Y0008996D01*
X0082042Y0008963D01*
X0083566Y0008963D01*
X0083733Y0008996D01*
X0083874Y0009090D01*
X0083968Y0009231D01*
X0084001Y0009398D01*
X0084001Y0010922D01*
X0084147Y0010922D01*
X0084147Y0009398D01*
X0084180Y0009231D01*
X0084274Y0009090D01*
X0084415Y0008996D01*
X0084582Y0008963D01*
X0086106Y0008963D01*
X0086273Y0008996D01*
X0086414Y0009090D01*
X0086508Y0009231D01*
X0086541Y0009398D01*
X0086541Y0010922D01*
X0086508Y0011089D01*
X0086414Y0011230D01*
X0086273Y0011324D01*
X0086106Y0011357D01*
X0084582Y0011357D01*
X0084415Y0011324D01*
X0084274Y0011230D01*
X0084180Y0011089D01*
X0084147Y0010922D01*
X0084001Y0010922D01*
X0083968Y0011089D01*
X0083874Y0011230D01*
X0083733Y0011324D01*
X0083566Y0011357D01*
X0082042Y0011357D01*
X0081875Y0011324D01*
X0081734Y0011230D01*
X0081640Y0011089D01*
X0081607Y0010922D01*
X0073841Y0010922D01*
X0073808Y0011089D01*
X0073714Y0011230D01*
X0073573Y0011324D01*
X0073406Y0011357D01*
X0071882Y0011357D01*
X0071715Y0011324D01*
X0071574Y0011230D01*
X0071480Y0011089D01*
X0071447Y0010922D01*
X0071301Y0010922D01*
X0071268Y0011089D01*
X0071174Y0011230D01*
X0071033Y0011324D01*
X0070866Y0011357D01*
X0069342Y0011357D01*
X0069175Y0011324D01*
X0069034Y0011230D01*
X0068940Y0011089D01*
X0068907Y0010922D01*
X0061141Y0010922D01*
X0061108Y0011089D01*
X0061014Y0011230D01*
X0060873Y0011324D01*
X0060706Y0011357D01*
X0059182Y0011357D01*
X0059015Y0011324D01*
X0058874Y0011230D01*
X0058780Y0011089D01*
X0058747Y0010922D01*
X0058601Y0010922D01*
X0058568Y0011089D01*
X0058474Y0011230D01*
X0058333Y0011324D01*
X0058166Y0011357D01*
X0056642Y0011357D01*
X0056475Y0011324D01*
X0056334Y0011230D01*
X0056240Y0011089D01*
X0056207Y0010922D01*
X0048441Y0010922D01*
X0048408Y0011089D01*
X0048314Y0011230D01*
X0048173Y0011324D01*
X0048006Y0011357D01*
X0046482Y0011357D01*
X0046315Y0011324D01*
X0046174Y0011230D01*
X0046080Y0011089D01*
X0046047Y0010922D01*
X0045901Y0010922D01*
X0045868Y0011089D01*
X0045774Y0011230D01*
X0045633Y0011324D01*
X0045466Y0011357D01*
X0043942Y0011357D01*
X0043775Y0011324D01*
X0043634Y0011230D01*
X0043540Y0011089D01*
X0043507Y0010922D01*
X0030474Y0010922D01*
X0030474Y0013970D01*
X0101165Y0013970D01*
X0101165Y0012446D01*
X0101198Y0012279D01*
X0101292Y0012138D01*
X0101433Y0012044D01*
X0101600Y0012011D01*
X0103124Y0012011D01*
X0103291Y0012044D01*
X0103432Y0012138D01*
X0103526Y0012279D01*
X0103559Y0012446D01*
X0103559Y0013970D01*
X0103705Y0013970D01*
X0103705Y0012446D01*
X0103738Y0012279D01*
X0103832Y0012138D01*
X0103973Y0012044D01*
X0104140Y0012011D01*
X0105664Y0012011D01*
X0105831Y0012044D01*
X0105972Y0012138D01*
X0106066Y0012279D01*
X0106099Y0012446D01*
X0106099Y0013364D01*
X0106427Y0013364D01*
X0106697Y0012711D01*
X0107196Y0012210D01*
X0107849Y0011939D01*
X0108556Y0011939D01*
X0109209Y0012209D01*
X0109710Y0012708D01*
X0109981Y0013361D01*
X0109981Y0014068D01*
X0109711Y0014721D01*
X0109212Y0015222D01*
X0108559Y0015493D01*
X0107852Y0015493D01*
X0107199Y0015223D01*
X0106698Y0014724D01*
X0106427Y0014071D01*
X0106427Y0013364D01*
X0106099Y0013364D01*
X0106099Y0013970D01*
X0106066Y0014137D01*
X0105972Y0014278D01*
X0105831Y0014372D01*
X0105664Y0014405D01*
X0104140Y0014405D01*
X0103973Y0014372D01*
X0103832Y0014278D01*
X0103738Y0014137D01*
X0103705Y0013970D01*
X0103559Y0013970D01*
X0103526Y0014137D01*
X0103432Y0014278D01*
X0103291Y0014372D01*
X0103124Y0014405D01*
X0101600Y0014405D01*
X0101433Y0014372D01*
X0101292Y0014278D01*
X0101198Y0014137D01*
X0101165Y0013970D01*
X0030474Y0013970D01*
X0030474Y0017018D01*
X0035633Y0017018D01*
X0035633Y0015494D01*
X0035666Y0015327D01*
X0035760Y0015186D01*
X0035901Y0015092D01*
X0036068Y0015059D01*
X0037592Y0015059D01*
X0037759Y0015092D01*
X0037900Y0015186D01*
X0037994Y0015327D01*
X0038027Y0015494D01*
X0038027Y0017018D01*
X0038173Y0017018D01*
X0038173Y0015494D01*
X0038206Y0015327D01*
X0038300Y0015186D01*
X0038441Y0015092D01*
X0038608Y0015059D01*
X0040132Y0015059D01*
X0040299Y0015092D01*
X0040440Y0015186D01*
X0040534Y0015327D01*
X0040567Y0015494D01*
X0040567Y0016510D01*
X0101165Y0016510D01*
X0101165Y0014986D01*
X0101198Y0014819D01*
X0101292Y0014678D01*
X0101433Y0014584D01*
X0101600Y0014551D01*
X0103124Y0014551D01*
X0103291Y0014584D01*
X0103432Y0014678D01*
X0103526Y0014819D01*
X0103559Y0014986D01*
X0103559Y0016510D01*
X0103705Y0016510D01*
X0103705Y0014986D01*
X0103738Y0014819D01*
X0103832Y0014678D01*
X0103973Y0014584D01*
X0104140Y0014551D01*
X0105664Y0014551D01*
X0105831Y0014584D01*
X0105972Y0014678D01*
X0106066Y0014819D01*
X0106099Y0014986D01*
X0106099Y0016510D01*
X0106066Y0016677D01*
X0105972Y0016818D01*
X0105831Y0016912D01*
X0105664Y0016945D01*
X0104140Y0016945D01*
X0103973Y0016912D01*
X0103832Y0016818D01*
X0103738Y0016677D01*
X0103705Y0016510D01*
X0103559Y0016510D01*
X0103526Y0016677D01*
X0103432Y0016818D01*
X0103291Y0016912D01*
X0103124Y0016945D01*
X0101600Y0016945D01*
X0101433Y0016912D01*
X0101292Y0016818D01*
X0101198Y0016677D01*
X0101165Y0016510D01*
X0040567Y0016510D01*
X0040567Y0017018D01*
X0040534Y0017185D01*
X0040440Y0017326D01*
X0040299Y0017420D01*
X0040132Y0017453D01*
X0038608Y0017453D01*
X0038441Y0017420D01*
X0038300Y0017326D01*
X0038206Y0017185D01*
X0038173Y0017018D01*
X0038027Y0017018D01*
X0037994Y0017185D01*
X0037900Y0017326D01*
X0037759Y0017420D01*
X0037592Y0017453D01*
X0036068Y0017453D01*
X0035901Y0017420D01*
X0035760Y0017326D01*
X0035666Y0017185D01*
X0035633Y0017018D01*
X0030474Y0017018D01*
X0030474Y0019558D01*
X0035633Y0019558D01*
X0035633Y0018034D01*
X0035666Y0017867D01*
X0035760Y0017726D01*
X0035901Y0017632D01*
X0036068Y0017599D01*
X0037592Y0017599D01*
X0037759Y0017632D01*
X0037900Y0017726D01*
X0037994Y0017867D01*
X0038027Y0018034D01*
X0038027Y0019558D01*
X0038173Y0019558D01*
X0038173Y0018034D01*
X0038206Y0017867D01*
X0038300Y0017726D01*
X0038441Y0017632D01*
X0038608Y0017599D01*
X0040132Y0017599D01*
X0040299Y0017632D01*
X0040440Y0017726D01*
X0040534Y0017867D01*
X0040567Y0018034D01*
X0040567Y0019558D01*
X0040534Y0019725D01*
X0040440Y0019866D01*
X0040299Y0019960D01*
X0040132Y0019993D01*
X0038608Y0019993D01*
X0038441Y0019960D01*
X0038300Y0019866D01*
X0038206Y0019725D01*
X0038173Y0019558D01*
X0038027Y0019558D01*
X0037994Y0019725D01*
X0037900Y0019866D01*
X0037759Y0019960D01*
X0037592Y0019993D01*
X0036068Y0019993D01*
X0035901Y0019960D01*
X0035760Y0019866D01*
X0035666Y0019725D01*
X0035633Y0019558D01*
X0030474Y0019558D01*
X0030474Y0021746D01*
X0030735Y0021746D01*
X0031005Y0021093D01*
X0031504Y0020592D01*
X0032157Y0020321D01*
X0032864Y0020321D01*
X0033517Y0020591D01*
X0034018Y0021090D01*
X0034289Y0021743D01*
X0034289Y0022450D01*
X0034019Y0023103D01*
X0033520Y0023604D01*
X0032867Y0023875D01*
X0032160Y0023875D01*
X0031507Y0023605D01*
X0031006Y0023106D01*
X0030735Y0022453D01*
X0030735Y0021746D01*
X0030474Y0021746D01*
X0030474Y0026416D01*
X0035125Y0026416D01*
X0035125Y0024892D01*
X0035158Y0024725D01*
X0035252Y0024584D01*
X0035393Y0024490D01*
X0035560Y0024457D01*
X0037084Y0024457D01*
X0037251Y0024490D01*
X0037392Y0024584D01*
X0037486Y0024725D01*
X0037519Y0024892D01*
X0037519Y0026416D01*
X0037486Y0026583D01*
X0037392Y0026724D01*
X0037251Y0026818D01*
X0037084Y0026851D01*
X0035560Y0026851D01*
X0035393Y0026818D01*
X0035252Y0026724D01*
X0035158Y0026583D01*
X0035125Y0026416D01*
X0030474Y0026416D01*
X0030474Y0034489D01*
X0030670Y0034489D01*
X0031297Y0032971D01*
X0032457Y0031809D01*
X0033973Y0031180D01*
X0035615Y0031178D01*
X0036646Y0031604D01*
X0036635Y0031588D01*
X0036602Y0031421D01*
X0036602Y0027611D01*
X0036635Y0027444D01*
X0036729Y0027303D01*
X0036870Y0027209D01*
X0037037Y0027176D01*
X0040847Y0027176D01*
X0041014Y0027209D01*
X0041155Y0027303D01*
X0041249Y0027444D01*
X0041282Y0027611D01*
X0041282Y0028321D01*
X0041602Y0028321D01*
X0041602Y0024511D01*
X0041635Y0024344D01*
X0041729Y0024203D01*
X0041870Y0024109D01*
X0042037Y0024076D01*
X0045847Y0024076D01*
X0046014Y0024109D01*
X0046155Y0024203D01*
X0046249Y0024344D01*
X0046282Y0024511D01*
X0046282Y0024892D01*
X0101165Y0024892D01*
X0101165Y0023368D01*
X0101198Y0023201D01*
X0101292Y0023060D01*
X0101433Y0022966D01*
X0101600Y0022933D01*
X0103124Y0022933D01*
X0103291Y0022966D01*
X0103432Y0023060D01*
X0103526Y0023201D01*
X0103559Y0023368D01*
X0103559Y0024892D01*
X0103705Y0024892D01*
X0103705Y0023368D01*
X0103738Y0023201D01*
X0103832Y0023060D01*
X0103973Y0022966D01*
X0104140Y0022933D01*
X0105664Y0022933D01*
X0105831Y0022966D01*
X0105972Y0023060D01*
X0106066Y0023201D01*
X0106099Y0023368D01*
X0106099Y0024286D01*
X0106427Y0024286D01*
X0106697Y0023633D01*
X0107196Y0023132D01*
X0107849Y0022861D01*
X0108556Y0022861D01*
X0109209Y0023131D01*
X0109710Y0023630D01*
X0109981Y0024283D01*
X0109981Y0024990D01*
X0109711Y0025643D01*
X0109212Y0026144D01*
X0108559Y0026415D01*
X0107852Y0026415D01*
X0107199Y0026145D01*
X0106698Y0025646D01*
X0106427Y0024993D01*
X0106427Y0024286D01*
X0106099Y0024286D01*
X0106099Y0024892D01*
X0106066Y0025059D01*
X0105972Y0025200D01*
X0105831Y0025294D01*
X0105664Y0025327D01*
X0104140Y0025327D01*
X0103973Y0025294D01*
X0103832Y0025200D01*
X0103738Y0025059D01*
X0103705Y0024892D01*
X0103559Y0024892D01*
X0103526Y0025059D01*
X0103432Y0025200D01*
X0103291Y0025294D01*
X0103124Y0025327D01*
X0101600Y0025327D01*
X0101433Y0025294D01*
X0101292Y0025200D01*
X0101198Y0025059D01*
X0101165Y0024892D01*
X0046282Y0024892D01*
X0046282Y0027432D01*
X0101165Y0027432D01*
X0101165Y0025908D01*
X0101198Y0025741D01*
X0101292Y0025600D01*
X0101433Y0025506D01*
X0101600Y0025473D01*
X0103124Y0025473D01*
X0103291Y0025506D01*
X0103432Y0025600D01*
X0103526Y0025741D01*
X0103559Y0025908D01*
X0103559Y0027432D01*
X0103705Y0027432D01*
X0103705Y0025908D01*
X0103738Y0025741D01*
X0103832Y0025600D01*
X0103973Y0025506D01*
X0104140Y0025473D01*
X0105664Y0025473D01*
X0105831Y0025506D01*
X0105972Y0025600D01*
X0106066Y0025741D01*
X0106099Y0025908D01*
X0106099Y0027432D01*
X0106066Y0027599D01*
X0105972Y0027740D01*
X0105831Y0027834D01*
X0105664Y0027867D01*
X0104140Y0027867D01*
X0103973Y0027834D01*
X0103832Y0027740D01*
X0103738Y0027599D01*
X0103705Y0027432D01*
X0103559Y0027432D01*
X0103526Y0027599D01*
X0103432Y0027740D01*
X0103291Y0027834D01*
X0103124Y0027867D01*
X0101600Y0027867D01*
X0101433Y0027834D01*
X0101292Y0027740D01*
X0101198Y0027599D01*
X0101165Y0027432D01*
X0046282Y0027432D01*
X0046282Y0028321D01*
X0046249Y0028488D01*
X0046155Y0028629D01*
X0046014Y0028723D01*
X0045847Y0028756D01*
X0042037Y0028756D01*
X0041870Y0028723D01*
X0041729Y0028629D01*
X0041635Y0028488D01*
X0041602Y0028321D01*
X0041282Y0028321D01*
X0041282Y0031421D01*
X0041249Y0031588D01*
X0041155Y0031729D01*
X0041014Y0031823D01*
X0040847Y0031856D01*
X0037184Y0031856D01*
X0037205Y0031877D01*
X0051762Y0031877D01*
X0051762Y0028067D01*
X0051795Y0027900D01*
X0051889Y0027759D01*
X0052030Y0027665D01*
X0052197Y0027632D01*
X0056007Y0027632D01*
X0056174Y0027665D01*
X0056315Y0027759D01*
X0056409Y0027900D01*
X0056442Y0028067D01*
X0056442Y0031242D01*
X0066367Y0031242D01*
X0066367Y0029718D01*
X0066400Y0029551D01*
X0066494Y0029410D01*
X0066635Y0029316D01*
X0066802Y0029283D01*
X0068326Y0029283D01*
X0068493Y0029316D01*
X0068634Y0029410D01*
X0068728Y0029551D01*
X0068761Y0029718D01*
X0068761Y0031242D01*
X0068907Y0031242D01*
X0068907Y0029718D01*
X0068940Y0029551D01*
X0069034Y0029410D01*
X0069175Y0029316D01*
X0069342Y0029283D01*
X0070866Y0029283D01*
X0071033Y0029316D01*
X0071174Y0029410D01*
X0071268Y0029551D01*
X0071301Y0029718D01*
X0071301Y0031242D01*
X0079067Y0031242D01*
X0079067Y0029718D01*
X0079100Y0029551D01*
X0079194Y0029410D01*
X0079335Y0029316D01*
X0079502Y0029283D01*
X0081026Y0029283D01*
X0081193Y0029316D01*
X0081334Y0029410D01*
X0081428Y0029551D01*
X0081461Y0029718D01*
X0081461Y0031242D01*
X0081607Y0031242D01*
X0081607Y0029718D01*
X0081640Y0029551D01*
X0081734Y0029410D01*
X0081875Y0029316D01*
X0082042Y0029283D01*
X0083566Y0029283D01*
X0083733Y0029316D01*
X0083874Y0029410D01*
X0083968Y0029551D01*
X0084001Y0029718D01*
X0084001Y0031242D01*
X0083968Y0031409D01*
X0083874Y0031550D01*
X0083733Y0031644D01*
X0083566Y0031677D01*
X0082042Y0031677D01*
X0081875Y0031644D01*
X0081734Y0031550D01*
X0081640Y0031409D01*
X0081607Y0031242D01*
X0081461Y0031242D01*
X0081428Y0031409D01*
X0081334Y0031550D01*
X0081193Y0031644D01*
X0081026Y0031677D01*
X0079502Y0031677D01*
X0079335Y0031644D01*
X0079194Y0031550D01*
X0079100Y0031409D01*
X0079067Y0031242D01*
X0071301Y0031242D01*
X0071268Y0031409D01*
X0071174Y0031550D01*
X0071033Y0031644D01*
X0070866Y0031677D01*
X0069342Y0031677D01*
X0069175Y0031644D01*
X0069034Y0031550D01*
X0068940Y0031409D01*
X0068907Y0031242D01*
X0068761Y0031242D01*
X0068728Y0031409D01*
X0068634Y0031550D01*
X0068493Y0031644D01*
X0068326Y0031677D01*
X0066802Y0031677D01*
X0066635Y0031644D01*
X0066494Y0031550D01*
X0066400Y0031409D01*
X0066367Y0031242D01*
X0056442Y0031242D01*
X0056442Y0031877D01*
X0056409Y0032044D01*
X0056315Y0032185D01*
X0056174Y0032279D01*
X0056007Y0032312D01*
X0052197Y0032312D01*
X0052030Y0032279D01*
X0051889Y0032185D01*
X0051795Y0032044D01*
X0051762Y0031877D01*
X0037205Y0031877D01*
X0038295Y0032965D01*
X0038924Y0034481D01*
X0038926Y0036123D01*
X0038614Y0036877D01*
X0051762Y0036877D01*
X0051762Y0033067D01*
X0051795Y0032900D01*
X0051889Y0032759D01*
X0052030Y0032665D01*
X0052197Y0032632D01*
X0056007Y0032632D01*
X0056174Y0032665D01*
X0056315Y0032759D01*
X0056409Y0032900D01*
X0056442Y0033067D01*
X0056442Y0033782D01*
X0066367Y0033782D01*
X0066367Y0032258D01*
X0066400Y0032091D01*
X0066494Y0031950D01*
X0066635Y0031856D01*
X0066802Y0031823D01*
X0068326Y0031823D01*
X0068493Y0031856D01*
X0068634Y0031950D01*
X0068728Y0032091D01*
X0068761Y0032258D01*
X0068761Y0033782D01*
X0068907Y0033782D01*
X0068907Y0032258D01*
X0068940Y0032091D01*
X0069034Y0031950D01*
X0069175Y0031856D01*
X0069342Y0031823D01*
X0070866Y0031823D01*
X0071033Y0031856D01*
X0071174Y0031950D01*
X0071268Y0032091D01*
X0071301Y0032258D01*
X0071301Y0033782D01*
X0079067Y0033782D01*
X0079067Y0032258D01*
X0079100Y0032091D01*
X0079194Y0031950D01*
X0079335Y0031856D01*
X0079502Y0031823D01*
X0081026Y0031823D01*
X0081193Y0031856D01*
X0081334Y0031950D01*
X0081428Y0032091D01*
X0081461Y0032258D01*
X0081461Y0033782D01*
X0081607Y0033782D01*
X0081607Y0032258D01*
X0081640Y0032091D01*
X0081734Y0031950D01*
X0081875Y0031856D01*
X0082042Y0031823D01*
X0083566Y0031823D01*
X0083733Y0031856D01*
X0083874Y0031950D01*
X0083968Y0032091D01*
X0084001Y0032258D01*
X0084001Y0033782D01*
X0083968Y0033949D01*
X0083874Y0034090D01*
X0083733Y0034184D01*
X0083566Y0034217D01*
X0082042Y0034217D01*
X0081875Y0034184D01*
X0081734Y0034090D01*
X0081640Y0033949D01*
X0081607Y0033782D01*
X0081461Y0033782D01*
X0081428Y0033949D01*
X0081334Y0034090D01*
X0081193Y0034184D01*
X0081026Y0034217D01*
X0079502Y0034217D01*
X0079335Y0034184D01*
X0079194Y0034090D01*
X0079100Y0033949D01*
X0079067Y0033782D01*
X0071301Y0033782D01*
X0071268Y0033949D01*
X0071174Y0034090D01*
X0071033Y0034184D01*
X0070866Y0034217D01*
X0069342Y0034217D01*
X0069175Y0034184D01*
X0069034Y0034090D01*
X0068940Y0033949D01*
X0068907Y0033782D01*
X0068761Y0033782D01*
X0068728Y0033949D01*
X0068634Y0034090D01*
X0068493Y0034184D01*
X0068326Y0034217D01*
X0066802Y0034217D01*
X0066635Y0034184D01*
X0066494Y0034090D01*
X0066400Y0033949D01*
X0066367Y0033782D01*
X0056442Y0033782D01*
X0056442Y0034489D01*
X0101790Y0034489D01*
X0102417Y0032971D01*
X0103577Y0031809D01*
X0105093Y0031180D01*
X0106735Y0031178D01*
X0108253Y0031805D01*
X0109415Y0032965D01*
X0110044Y0034481D01*
X0110046Y0036123D01*
X0109419Y0037641D01*
X0108259Y0038803D01*
X0106743Y0039432D01*
X0105101Y0039434D01*
X0103583Y0038807D01*
X0102421Y0037647D01*
X0101792Y0036131D01*
X0101790Y0034489D01*
X0056442Y0034489D01*
X0056442Y0036877D01*
X0056421Y0036986D01*
X0064771Y0036986D01*
X0065041Y0036333D01*
X0065540Y0035832D01*
X0066193Y0035561D01*
X0066900Y0035561D01*
X0067553Y0035831D01*
X0068054Y0036330D01*
X0068325Y0036983D01*
X0068325Y0036986D01*
X0079757Y0036986D01*
X0080027Y0036333D01*
X0080526Y0035832D01*
X0081179Y0035561D01*
X0081886Y0035561D01*
X0082539Y0035831D01*
X0083040Y0036330D01*
X0083311Y0036983D01*
X0083311Y0037690D01*
X0083041Y0038343D01*
X0082542Y0038844D01*
X0081889Y0039115D01*
X0081182Y0039115D01*
X0080529Y0038845D01*
X0080028Y0038346D01*
X0079757Y0037693D01*
X0079757Y0036986D01*
X0068325Y0036986D01*
X0068325Y0037690D01*
X0068055Y0038343D01*
X0067556Y0038844D01*
X0066903Y0039115D01*
X0066196Y0039115D01*
X0065543Y0038845D01*
X0065042Y0038346D01*
X0064771Y0037693D01*
X0064771Y0036986D01*
X0056421Y0036986D01*
X0056409Y0037044D01*
X0056315Y0037185D01*
X0056174Y0037279D01*
X0056007Y0037312D01*
X0052197Y0037312D01*
X0052030Y0037279D01*
X0051889Y0037185D01*
X0051795Y0037044D01*
X0051762Y0036877D01*
X0038614Y0036877D01*
X0038299Y0037641D01*
X0037139Y0038803D01*
X0035623Y0039432D01*
X0033981Y0039434D01*
X0032463Y0038807D01*
X0031301Y0037647D01*
X0030672Y0036131D01*
X0030670Y0034489D01*
X0030474Y0034489D01*
X0030474Y0039630D01*
X0110242Y0039630D01*
X0110242Y0000502D01*
X0110242Y0000502D01*
G37*
X0110242Y0000502D02*
X0030474Y0000502D01*
X0030474Y0004009D01*
X0030670Y0004009D01*
X0031297Y0002491D01*
X0032457Y0001329D01*
X0033973Y0000700D01*
X0035615Y0000698D01*
X0037133Y0001325D01*
X0038295Y0002485D01*
X0038488Y0002950D01*
X0039752Y0002950D01*
X0040022Y0002297D01*
X0040521Y0001796D01*
X0041174Y0001525D01*
X0041881Y0001525D01*
X0042534Y0001795D01*
X0043035Y0002294D01*
X0043306Y0002947D01*
X0043306Y0002950D01*
X0053087Y0002950D01*
X0053357Y0002297D01*
X0053856Y0001796D01*
X0054509Y0001525D01*
X0055216Y0001525D01*
X0055869Y0001795D01*
X0056370Y0002294D01*
X0056641Y0002947D01*
X0056641Y0002950D01*
X0066295Y0002950D01*
X0066565Y0002297D01*
X0067064Y0001796D01*
X0067717Y0001525D01*
X0068424Y0001525D01*
X0069077Y0001795D01*
X0069578Y0002294D01*
X0069849Y0002947D01*
X0069849Y0002950D01*
X0079503Y0002950D01*
X0079773Y0002297D01*
X0080272Y0001796D01*
X0080925Y0001525D01*
X0081632Y0001525D01*
X0082285Y0001795D01*
X0082786Y0002294D01*
X0083057Y0002947D01*
X0083057Y0003654D01*
X0082911Y0004009D01*
X0101790Y0004009D01*
X0102417Y0002491D01*
X0103577Y0001329D01*
X0105093Y0000700D01*
X0106735Y0000698D01*
X0108253Y0001325D01*
X0109415Y0002485D01*
X0110044Y0004001D01*
X0110046Y0005643D01*
X0109419Y0007161D01*
X0108259Y0008323D01*
X0106743Y0008952D01*
X0105101Y0008954D01*
X0103583Y0008327D01*
X0102421Y0007167D01*
X0101792Y0005651D01*
X0101790Y0004009D01*
X0082911Y0004009D01*
X0082787Y0004307D01*
X0082288Y0004808D01*
X0081635Y0005079D01*
X0080928Y0005079D01*
X0080275Y0004809D01*
X0079774Y0004310D01*
X0079503Y0003657D01*
X0079503Y0002950D01*
X0069849Y0002950D01*
X0069849Y0003654D01*
X0069579Y0004307D01*
X0069080Y0004808D01*
X0068427Y0005079D01*
X0067720Y0005079D01*
X0067067Y0004809D01*
X0066566Y0004310D01*
X0066295Y0003657D01*
X0066295Y0002950D01*
X0056641Y0002950D01*
X0056641Y0003654D01*
X0056371Y0004307D01*
X0055872Y0004808D01*
X0055219Y0005079D01*
X0054512Y0005079D01*
X0053859Y0004809D01*
X0053358Y0004310D01*
X0053087Y0003657D01*
X0053087Y0002950D01*
X0043306Y0002950D01*
X0043306Y0003654D01*
X0043036Y0004307D01*
X0042537Y0004808D01*
X0041884Y0005079D01*
X0041177Y0005079D01*
X0040524Y0004809D01*
X0040023Y0004310D01*
X0039752Y0003657D01*
X0039752Y0002950D01*
X0038488Y0002950D01*
X0038924Y0004001D01*
X0038926Y0005643D01*
X0038299Y0007161D01*
X0037139Y0008323D01*
X0036996Y0008382D01*
X0043507Y0008382D01*
X0043507Y0006858D01*
X0043540Y0006691D01*
X0043634Y0006550D01*
X0043775Y0006456D01*
X0043942Y0006423D01*
X0045466Y0006423D01*
X0045633Y0006456D01*
X0045774Y0006550D01*
X0045868Y0006691D01*
X0045901Y0006858D01*
X0045901Y0008382D01*
X0046047Y0008382D01*
X0046047Y0006858D01*
X0046080Y0006691D01*
X0046174Y0006550D01*
X0046315Y0006456D01*
X0046482Y0006423D01*
X0048006Y0006423D01*
X0048173Y0006456D01*
X0048314Y0006550D01*
X0048408Y0006691D01*
X0048441Y0006858D01*
X0048441Y0008382D01*
X0056207Y0008382D01*
X0056207Y0006858D01*
X0056240Y0006691D01*
X0056334Y0006550D01*
X0056475Y0006456D01*
X0056642Y0006423D01*
X0058166Y0006423D01*
X0058333Y0006456D01*
X0058474Y0006550D01*
X0058568Y0006691D01*
X0058601Y0006858D01*
X0058601Y0008382D01*
X0058747Y0008382D01*
X0058747Y0006858D01*
X0058780Y0006691D01*
X0058874Y0006550D01*
X0059015Y0006456D01*
X0059182Y0006423D01*
X0060706Y0006423D01*
X0060873Y0006456D01*
X0061014Y0006550D01*
X0061108Y0006691D01*
X0061141Y0006858D01*
X0061141Y0008382D01*
X0068907Y0008382D01*
X0068907Y0006858D01*
X0068940Y0006691D01*
X0069034Y0006550D01*
X0069175Y0006456D01*
X0069342Y0006423D01*
X0070866Y0006423D01*
X0071033Y0006456D01*
X0071174Y0006550D01*
X0071268Y0006691D01*
X0071301Y0006858D01*
X0071301Y0008382D01*
X0071447Y0008382D01*
X0071447Y0006858D01*
X0071480Y0006691D01*
X0071574Y0006550D01*
X0071715Y0006456D01*
X0071882Y0006423D01*
X0073406Y0006423D01*
X0073573Y0006456D01*
X0073714Y0006550D01*
X0073808Y0006691D01*
X0073841Y0006858D01*
X0073841Y0008382D01*
X0081607Y0008382D01*
X0081607Y0006858D01*
X0081640Y0006691D01*
X0081734Y0006550D01*
X0081875Y0006456D01*
X0082042Y0006423D01*
X0083566Y0006423D01*
X0083733Y0006456D01*
X0083874Y0006550D01*
X0083968Y0006691D01*
X0084001Y0006858D01*
X0084001Y0008382D01*
X0084147Y0008382D01*
X0084147Y0006858D01*
X0084180Y0006691D01*
X0084274Y0006550D01*
X0084415Y0006456D01*
X0084582Y0006423D01*
X0086106Y0006423D01*
X0086273Y0006456D01*
X0086414Y0006550D01*
X0086508Y0006691D01*
X0086541Y0006858D01*
X0086541Y0008382D01*
X0086508Y0008549D01*
X0086414Y0008690D01*
X0086273Y0008784D01*
X0086106Y0008817D01*
X0084582Y0008817D01*
X0084415Y0008784D01*
X0084274Y0008690D01*
X0084180Y0008549D01*
X0084147Y0008382D01*
X0084001Y0008382D01*
X0083968Y0008549D01*
X0083874Y0008690D01*
X0083733Y0008784D01*
X0083566Y0008817D01*
X0082042Y0008817D01*
X0081875Y0008784D01*
X0081734Y0008690D01*
X0081640Y0008549D01*
X0081607Y0008382D01*
X0073841Y0008382D01*
X0073808Y0008549D01*
X0073714Y0008690D01*
X0073573Y0008784D01*
X0073406Y0008817D01*
X0071882Y0008817D01*
X0071715Y0008784D01*
X0071574Y0008690D01*
X0071480Y0008549D01*
X0071447Y0008382D01*
X0071301Y0008382D01*
X0071268Y0008549D01*
X0071174Y0008690D01*
X0071033Y0008784D01*
X0070866Y0008817D01*
X0069342Y0008817D01*
X0069175Y0008784D01*
X0069034Y0008690D01*
X0068940Y0008549D01*
X0068907Y0008382D01*
X0061141Y0008382D01*
X0061108Y0008549D01*
X0061014Y0008690D01*
X0060873Y0008784D01*
X0060706Y0008817D01*
X0059182Y0008817D01*
X0059015Y0008784D01*
X0058874Y0008690D01*
X0058780Y0008549D01*
X0058747Y0008382D01*
X0058601Y0008382D01*
X0058568Y0008549D01*
X0058474Y0008690D01*
X0058333Y0008784D01*
X0058166Y0008817D01*
X0056642Y0008817D01*
X0056475Y0008784D01*
X0056334Y0008690D01*
X0056240Y0008549D01*
X0056207Y0008382D01*
X0048441Y0008382D01*
X0048408Y0008549D01*
X0048314Y0008690D01*
X0048173Y0008784D01*
X0048006Y0008817D01*
X0046482Y0008817D01*
X0046315Y0008784D01*
X0046174Y0008690D01*
X0046080Y0008549D01*
X0046047Y0008382D01*
X0045901Y0008382D01*
X0045868Y0008549D01*
X0045774Y0008690D01*
X0045633Y0008784D01*
X0045466Y0008817D01*
X0043942Y0008817D01*
X0043775Y0008784D01*
X0043634Y0008690D01*
X0043540Y0008549D01*
X0043507Y0008382D01*
X0036996Y0008382D01*
X0035623Y0008952D01*
X0033981Y0008954D01*
X0032463Y0008327D01*
X0031301Y0007167D01*
X0030672Y0005651D01*
X0030670Y0004009D01*
X0030474Y0004009D01*
X0030474Y0010922D01*
X0043507Y0010922D01*
X0043507Y0009398D01*
X0043540Y0009231D01*
X0043634Y0009090D01*
X0043775Y0008996D01*
X0043942Y0008963D01*
X0045466Y0008963D01*
X0045633Y0008996D01*
X0045774Y0009090D01*
X0045868Y0009231D01*
X0045901Y0009398D01*
X0045901Y0010922D01*
X0046047Y0010922D01*
X0046047Y0009398D01*
X0046080Y0009231D01*
X0046174Y0009090D01*
X0046315Y0008996D01*
X0046482Y0008963D01*
X0048006Y0008963D01*
X0048173Y0008996D01*
X0048314Y0009090D01*
X0048408Y0009231D01*
X0048441Y0009398D01*
X0048441Y0010922D01*
X0056207Y0010922D01*
X0056207Y0009398D01*
X0056240Y0009231D01*
X0056334Y0009090D01*
X0056475Y0008996D01*
X0056642Y0008963D01*
X0058166Y0008963D01*
X0058333Y0008996D01*
X0058474Y0009090D01*
X0058568Y0009231D01*
X0058601Y0009398D01*
X0058601Y0010922D01*
X0058747Y0010922D01*
X0058747Y0009398D01*
X0058780Y0009231D01*
X0058874Y0009090D01*
X0059015Y0008996D01*
X0059182Y0008963D01*
X0060706Y0008963D01*
X0060873Y0008996D01*
X0061014Y0009090D01*
X0061108Y0009231D01*
X0061141Y0009398D01*
X0061141Y0010922D01*
X0068907Y0010922D01*
X0068907Y0009398D01*
X0068940Y0009231D01*
X0069034Y0009090D01*
X0069175Y0008996D01*
X0069342Y0008963D01*
X0070866Y0008963D01*
X0071033Y0008996D01*
X0071174Y0009090D01*
X0071268Y0009231D01*
X0071301Y0009398D01*
X0071301Y0010922D01*
X0071447Y0010922D01*
X0071447Y0009398D01*
X0071480Y0009231D01*
X0071574Y0009090D01*
X0071715Y0008996D01*
X0071882Y0008963D01*
X0073406Y0008963D01*
X0073573Y0008996D01*
X0073714Y0009090D01*
X0073808Y0009231D01*
X0073841Y0009398D01*
X0073841Y0010922D01*
X0081607Y0010922D01*
X0081607Y0009398D01*
X0081640Y0009231D01*
X0081734Y0009090D01*
X0081875Y0008996D01*
X0082042Y0008963D01*
X0083566Y0008963D01*
X0083733Y0008996D01*
X0083874Y0009090D01*
X0083968Y0009231D01*
X0084001Y0009398D01*
X0084001Y0010922D01*
X0084147Y0010922D01*
X0084147Y0009398D01*
X0084180Y0009231D01*
X0084274Y0009090D01*
X0084415Y0008996D01*
X0084582Y0008963D01*
X0086106Y0008963D01*
X0086273Y0008996D01*
X0086414Y0009090D01*
X0086508Y0009231D01*
X0086541Y0009398D01*
X0086541Y0010922D01*
X0086508Y0011089D01*
X0086414Y0011230D01*
X0086273Y0011324D01*
X0086106Y0011357D01*
X0084582Y0011357D01*
X0084415Y0011324D01*
X0084274Y0011230D01*
X0084180Y0011089D01*
X0084147Y0010922D01*
X0084001Y0010922D01*
X0083968Y0011089D01*
X0083874Y0011230D01*
X0083733Y0011324D01*
X0083566Y0011357D01*
X0082042Y0011357D01*
X0081875Y0011324D01*
X0081734Y0011230D01*
X0081640Y0011089D01*
X0081607Y0010922D01*
X0073841Y0010922D01*
X0073808Y0011089D01*
X0073714Y0011230D01*
X0073573Y0011324D01*
X0073406Y0011357D01*
X0071882Y0011357D01*
X0071715Y0011324D01*
X0071574Y0011230D01*
X0071480Y0011089D01*
X0071447Y0010922D01*
X0071301Y0010922D01*
X0071268Y0011089D01*
X0071174Y0011230D01*
X0071033Y0011324D01*
X0070866Y0011357D01*
X0069342Y0011357D01*
X0069175Y0011324D01*
X0069034Y0011230D01*
X0068940Y0011089D01*
X0068907Y0010922D01*
X0061141Y0010922D01*
X0061108Y0011089D01*
X0061014Y0011230D01*
X0060873Y0011324D01*
X0060706Y0011357D01*
X0059182Y0011357D01*
X0059015Y0011324D01*
X0058874Y0011230D01*
X0058780Y0011089D01*
X0058747Y0010922D01*
X0058601Y0010922D01*
X0058568Y0011089D01*
X0058474Y0011230D01*
X0058333Y0011324D01*
X0058166Y0011357D01*
X0056642Y0011357D01*
X0056475Y0011324D01*
X0056334Y0011230D01*
X0056240Y0011089D01*
X0056207Y0010922D01*
X0048441Y0010922D01*
X0048408Y0011089D01*
X0048314Y0011230D01*
X0048173Y0011324D01*
X0048006Y0011357D01*
X0046482Y0011357D01*
X0046315Y0011324D01*
X0046174Y0011230D01*
X0046080Y0011089D01*
X0046047Y0010922D01*
X0045901Y0010922D01*
X0045868Y0011089D01*
X0045774Y0011230D01*
X0045633Y0011324D01*
X0045466Y0011357D01*
X0043942Y0011357D01*
X0043775Y0011324D01*
X0043634Y0011230D01*
X0043540Y0011089D01*
X0043507Y0010922D01*
X0030474Y0010922D01*
X0030474Y0013970D01*
X0101165Y0013970D01*
X0101165Y0012446D01*
X0101198Y0012279D01*
X0101292Y0012138D01*
X0101433Y0012044D01*
X0101600Y0012011D01*
X0103124Y0012011D01*
X0103291Y0012044D01*
X0103432Y0012138D01*
X0103526Y0012279D01*
X0103559Y0012446D01*
X0103559Y0013970D01*
X0103705Y0013970D01*
X0103705Y0012446D01*
X0103738Y0012279D01*
X0103832Y0012138D01*
X0103973Y0012044D01*
X0104140Y0012011D01*
X0105664Y0012011D01*
X0105831Y0012044D01*
X0105972Y0012138D01*
X0106066Y0012279D01*
X0106099Y0012446D01*
X0106099Y0013364D01*
X0106427Y0013364D01*
X0106697Y0012711D01*
X0107196Y0012210D01*
X0107849Y0011939D01*
X0108556Y0011939D01*
X0109209Y0012209D01*
X0109710Y0012708D01*
X0109981Y0013361D01*
X0109981Y0014068D01*
X0109711Y0014721D01*
X0109212Y0015222D01*
X0108559Y0015493D01*
X0107852Y0015493D01*
X0107199Y0015223D01*
X0106698Y0014724D01*
X0106427Y0014071D01*
X0106427Y0013364D01*
X0106099Y0013364D01*
X0106099Y0013970D01*
X0106066Y0014137D01*
X0105972Y0014278D01*
X0105831Y0014372D01*
X0105664Y0014405D01*
X0104140Y0014405D01*
X0103973Y0014372D01*
X0103832Y0014278D01*
X0103738Y0014137D01*
X0103705Y0013970D01*
X0103559Y0013970D01*
X0103526Y0014137D01*
X0103432Y0014278D01*
X0103291Y0014372D01*
X0103124Y0014405D01*
X0101600Y0014405D01*
X0101433Y0014372D01*
X0101292Y0014278D01*
X0101198Y0014137D01*
X0101165Y0013970D01*
X0030474Y0013970D01*
X0030474Y0017018D01*
X0035633Y0017018D01*
X0035633Y0015494D01*
X0035666Y0015327D01*
X0035760Y0015186D01*
X0035901Y0015092D01*
X0036068Y0015059D01*
X0037592Y0015059D01*
X0037759Y0015092D01*
X0037900Y0015186D01*
X0037994Y0015327D01*
X0038027Y0015494D01*
X0038027Y0017018D01*
X0038173Y0017018D01*
X0038173Y0015494D01*
X0038206Y0015327D01*
X0038300Y0015186D01*
X0038441Y0015092D01*
X0038608Y0015059D01*
X0040132Y0015059D01*
X0040299Y0015092D01*
X0040440Y0015186D01*
X0040534Y0015327D01*
X0040567Y0015494D01*
X0040567Y0016510D01*
X0101165Y0016510D01*
X0101165Y0014986D01*
X0101198Y0014819D01*
X0101292Y0014678D01*
X0101433Y0014584D01*
X0101600Y0014551D01*
X0103124Y0014551D01*
X0103291Y0014584D01*
X0103432Y0014678D01*
X0103526Y0014819D01*
X0103559Y0014986D01*
X0103559Y0016510D01*
X0103705Y0016510D01*
X0103705Y0014986D01*
X0103738Y0014819D01*
X0103832Y0014678D01*
X0103973Y0014584D01*
X0104140Y0014551D01*
X0105664Y0014551D01*
X0105831Y0014584D01*
X0105972Y0014678D01*
X0106066Y0014819D01*
X0106099Y0014986D01*
X0106099Y0016510D01*
X0106066Y0016677D01*
X0105972Y0016818D01*
X0105831Y0016912D01*
X0105664Y0016945D01*
X0104140Y0016945D01*
X0103973Y0016912D01*
X0103832Y0016818D01*
X0103738Y0016677D01*
X0103705Y0016510D01*
X0103559Y0016510D01*
X0103526Y0016677D01*
X0103432Y0016818D01*
X0103291Y0016912D01*
X0103124Y0016945D01*
X0101600Y0016945D01*
X0101433Y0016912D01*
X0101292Y0016818D01*
X0101198Y0016677D01*
X0101165Y0016510D01*
X0040567Y0016510D01*
X0040567Y0017018D01*
X0040534Y0017185D01*
X0040440Y0017326D01*
X0040299Y0017420D01*
X0040132Y0017453D01*
X0038608Y0017453D01*
X0038441Y0017420D01*
X0038300Y0017326D01*
X0038206Y0017185D01*
X0038173Y0017018D01*
X0038027Y0017018D01*
X0037994Y0017185D01*
X0037900Y0017326D01*
X0037759Y0017420D01*
X0037592Y0017453D01*
X0036068Y0017453D01*
X0035901Y0017420D01*
X0035760Y0017326D01*
X0035666Y0017185D01*
X0035633Y0017018D01*
X0030474Y0017018D01*
X0030474Y0019558D01*
X0035633Y0019558D01*
X0035633Y0018034D01*
X0035666Y0017867D01*
X0035760Y0017726D01*
X0035901Y0017632D01*
X0036068Y0017599D01*
X0037592Y0017599D01*
X0037759Y0017632D01*
X0037900Y0017726D01*
X0037994Y0017867D01*
X0038027Y0018034D01*
X0038027Y0019558D01*
X0038173Y0019558D01*
X0038173Y0018034D01*
X0038206Y0017867D01*
X0038300Y0017726D01*
X0038441Y0017632D01*
X0038608Y0017599D01*
X0040132Y0017599D01*
X0040299Y0017632D01*
X0040440Y0017726D01*
X0040534Y0017867D01*
X0040567Y0018034D01*
X0040567Y0019558D01*
X0040534Y0019725D01*
X0040440Y0019866D01*
X0040299Y0019960D01*
X0040132Y0019993D01*
X0038608Y0019993D01*
X0038441Y0019960D01*
X0038300Y0019866D01*
X0038206Y0019725D01*
X0038173Y0019558D01*
X0038027Y0019558D01*
X0037994Y0019725D01*
X0037900Y0019866D01*
X0037759Y0019960D01*
X0037592Y0019993D01*
X0036068Y0019993D01*
X0035901Y0019960D01*
X0035760Y0019866D01*
X0035666Y0019725D01*
X0035633Y0019558D01*
X0030474Y0019558D01*
X0030474Y0021746D01*
X0030735Y0021746D01*
X0031005Y0021093D01*
X0031504Y0020592D01*
X0032157Y0020321D01*
X0032864Y0020321D01*
X0033517Y0020591D01*
X0034018Y0021090D01*
X0034289Y0021743D01*
X0034289Y0022450D01*
X0034019Y0023103D01*
X0033520Y0023604D01*
X0032867Y0023875D01*
X0032160Y0023875D01*
X0031507Y0023605D01*
X0031006Y0023106D01*
X0030735Y0022453D01*
X0030735Y0021746D01*
X0030474Y0021746D01*
X0030474Y0026416D01*
X0035125Y0026416D01*
X0035125Y0024892D01*
X0035158Y0024725D01*
X0035252Y0024584D01*
X0035393Y0024490D01*
X0035560Y0024457D01*
X0037084Y0024457D01*
X0037251Y0024490D01*
X0037392Y0024584D01*
X0037486Y0024725D01*
X0037519Y0024892D01*
X0037519Y0026416D01*
X0037486Y0026583D01*
X0037392Y0026724D01*
X0037251Y0026818D01*
X0037084Y0026851D01*
X0035560Y0026851D01*
X0035393Y0026818D01*
X0035252Y0026724D01*
X0035158Y0026583D01*
X0035125Y0026416D01*
X0030474Y0026416D01*
X0030474Y0034489D01*
X0030670Y0034489D01*
X0031297Y0032971D01*
X0032457Y0031809D01*
X0033973Y0031180D01*
X0035615Y0031178D01*
X0036646Y0031604D01*
X0036635Y0031588D01*
X0036602Y0031421D01*
X0036602Y0027611D01*
X0036635Y0027444D01*
X0036729Y0027303D01*
X0036870Y0027209D01*
X0037037Y0027176D01*
X0040847Y0027176D01*
X0041014Y0027209D01*
X0041155Y0027303D01*
X0041249Y0027444D01*
X0041282Y0027611D01*
X0041282Y0028321D01*
X0041602Y0028321D01*
X0041602Y0024511D01*
X0041635Y0024344D01*
X0041729Y0024203D01*
X0041870Y0024109D01*
X0042037Y0024076D01*
X0045847Y0024076D01*
X0046014Y0024109D01*
X0046155Y0024203D01*
X0046249Y0024344D01*
X0046282Y0024511D01*
X0046282Y0024892D01*
X0101165Y0024892D01*
X0101165Y0023368D01*
X0101198Y0023201D01*
X0101292Y0023060D01*
X0101433Y0022966D01*
X0101600Y0022933D01*
X0103124Y0022933D01*
X0103291Y0022966D01*
X0103432Y0023060D01*
X0103526Y0023201D01*
X0103559Y0023368D01*
X0103559Y0024892D01*
X0103705Y0024892D01*
X0103705Y0023368D01*
X0103738Y0023201D01*
X0103832Y0023060D01*
X0103973Y0022966D01*
X0104140Y0022933D01*
X0105664Y0022933D01*
X0105831Y0022966D01*
X0105972Y0023060D01*
X0106066Y0023201D01*
X0106099Y0023368D01*
X0106099Y0024286D01*
X0106427Y0024286D01*
X0106697Y0023633D01*
X0107196Y0023132D01*
X0107849Y0022861D01*
X0108556Y0022861D01*
X0109209Y0023131D01*
X0109710Y0023630D01*
X0109981Y0024283D01*
X0109981Y0024990D01*
X0109711Y0025643D01*
X0109212Y0026144D01*
X0108559Y0026415D01*
X0107852Y0026415D01*
X0107199Y0026145D01*
X0106698Y0025646D01*
X0106427Y0024993D01*
X0106427Y0024286D01*
X0106099Y0024286D01*
X0106099Y0024892D01*
X0106066Y0025059D01*
X0105972Y0025200D01*
X0105831Y0025294D01*
X0105664Y0025327D01*
X0104140Y0025327D01*
X0103973Y0025294D01*
X0103832Y0025200D01*
X0103738Y0025059D01*
X0103705Y0024892D01*
X0103559Y0024892D01*
X0103526Y0025059D01*
X0103432Y0025200D01*
X0103291Y0025294D01*
X0103124Y0025327D01*
X0101600Y0025327D01*
X0101433Y0025294D01*
X0101292Y0025200D01*
X0101198Y0025059D01*
X0101165Y0024892D01*
X0046282Y0024892D01*
X0046282Y0027432D01*
X0101165Y0027432D01*
X0101165Y0025908D01*
X0101198Y0025741D01*
X0101292Y0025600D01*
X0101433Y0025506D01*
X0101600Y0025473D01*
X0103124Y0025473D01*
X0103291Y0025506D01*
X0103432Y0025600D01*
X0103526Y0025741D01*
X0103559Y0025908D01*
X0103559Y0027432D01*
X0103705Y0027432D01*
X0103705Y0025908D01*
X0103738Y0025741D01*
X0103832Y0025600D01*
X0103973Y0025506D01*
X0104140Y0025473D01*
X0105664Y0025473D01*
X0105831Y0025506D01*
X0105972Y0025600D01*
X0106066Y0025741D01*
X0106099Y0025908D01*
X0106099Y0027432D01*
X0106066Y0027599D01*
X0105972Y0027740D01*
X0105831Y0027834D01*
X0105664Y0027867D01*
X0104140Y0027867D01*
X0103973Y0027834D01*
X0103832Y0027740D01*
X0103738Y0027599D01*
X0103705Y0027432D01*
X0103559Y0027432D01*
X0103526Y0027599D01*
X0103432Y0027740D01*
X0103291Y0027834D01*
X0103124Y0027867D01*
X0101600Y0027867D01*
X0101433Y0027834D01*
X0101292Y0027740D01*
X0101198Y0027599D01*
X0101165Y0027432D01*
X0046282Y0027432D01*
X0046282Y0028321D01*
X0046249Y0028488D01*
X0046155Y0028629D01*
X0046014Y0028723D01*
X0045847Y0028756D01*
X0042037Y0028756D01*
X0041870Y0028723D01*
X0041729Y0028629D01*
X0041635Y0028488D01*
X0041602Y0028321D01*
X0041282Y0028321D01*
X0041282Y0031421D01*
X0041249Y0031588D01*
X0041155Y0031729D01*
X0041014Y0031823D01*
X0040847Y0031856D01*
X0037184Y0031856D01*
X0037205Y0031877D01*
X0051762Y0031877D01*
X0051762Y0028067D01*
X0051795Y0027900D01*
X0051889Y0027759D01*
X0052030Y0027665D01*
X0052197Y0027632D01*
X0056007Y0027632D01*
X0056174Y0027665D01*
X0056315Y0027759D01*
X0056409Y0027900D01*
X0056442Y0028067D01*
X0056442Y0031242D01*
X0066367Y0031242D01*
X0066367Y0029718D01*
X0066400Y0029551D01*
X0066494Y0029410D01*
X0066635Y0029316D01*
X0066802Y0029283D01*
X0068326Y0029283D01*
X0068493Y0029316D01*
X0068634Y0029410D01*
X0068728Y0029551D01*
X0068761Y0029718D01*
X0068761Y0031242D01*
X0068907Y0031242D01*
X0068907Y0029718D01*
X0068940Y0029551D01*
X0069034Y0029410D01*
X0069175Y0029316D01*
X0069342Y0029283D01*
X0070866Y0029283D01*
X0071033Y0029316D01*
X0071174Y0029410D01*
X0071268Y0029551D01*
X0071301Y0029718D01*
X0071301Y0031242D01*
X0079067Y0031242D01*
X0079067Y0029718D01*
X0079100Y0029551D01*
X0079194Y0029410D01*
X0079335Y0029316D01*
X0079502Y0029283D01*
X0081026Y0029283D01*
X0081193Y0029316D01*
X0081334Y0029410D01*
X0081428Y0029551D01*
X0081461Y0029718D01*
X0081461Y0031242D01*
X0081607Y0031242D01*
X0081607Y0029718D01*
X0081640Y0029551D01*
X0081734Y0029410D01*
X0081875Y0029316D01*
X0082042Y0029283D01*
X0083566Y0029283D01*
X0083733Y0029316D01*
X0083874Y0029410D01*
X0083968Y0029551D01*
X0084001Y0029718D01*
X0084001Y0031242D01*
X0083968Y0031409D01*
X0083874Y0031550D01*
X0083733Y0031644D01*
X0083566Y0031677D01*
X0082042Y0031677D01*
X0081875Y0031644D01*
X0081734Y0031550D01*
X0081640Y0031409D01*
X0081607Y0031242D01*
X0081461Y0031242D01*
X0081428Y0031409D01*
X0081334Y0031550D01*
X0081193Y0031644D01*
X0081026Y0031677D01*
X0079502Y0031677D01*
X0079335Y0031644D01*
X0079194Y0031550D01*
X0079100Y0031409D01*
X0079067Y0031242D01*
X0071301Y0031242D01*
X0071268Y0031409D01*
X0071174Y0031550D01*
X0071033Y0031644D01*
X0070866Y0031677D01*
X0069342Y0031677D01*
X0069175Y0031644D01*
X0069034Y0031550D01*
X0068940Y0031409D01*
X0068907Y0031242D01*
X0068761Y0031242D01*
X0068728Y0031409D01*
X0068634Y0031550D01*
X0068493Y0031644D01*
X0068326Y0031677D01*
X0066802Y0031677D01*
X0066635Y0031644D01*
X0066494Y0031550D01*
X0066400Y0031409D01*
X0066367Y0031242D01*
X0056442Y0031242D01*
X0056442Y0031877D01*
X0056409Y0032044D01*
X0056315Y0032185D01*
X0056174Y0032279D01*
X0056007Y0032312D01*
X0052197Y0032312D01*
X0052030Y0032279D01*
X0051889Y0032185D01*
X0051795Y0032044D01*
X0051762Y0031877D01*
X0037205Y0031877D01*
X0038295Y0032965D01*
X0038924Y0034481D01*
X0038926Y0036123D01*
X0038614Y0036877D01*
X0051762Y0036877D01*
X0051762Y0033067D01*
X0051795Y0032900D01*
X0051889Y0032759D01*
X0052030Y0032665D01*
X0052197Y0032632D01*
X0056007Y0032632D01*
X0056174Y0032665D01*
X0056315Y0032759D01*
X0056409Y0032900D01*
X0056442Y0033067D01*
X0056442Y0033782D01*
X0066367Y0033782D01*
X0066367Y0032258D01*
X0066400Y0032091D01*
X0066494Y0031950D01*
X0066635Y0031856D01*
X0066802Y0031823D01*
X0068326Y0031823D01*
X0068493Y0031856D01*
X0068634Y0031950D01*
X0068728Y0032091D01*
X0068761Y0032258D01*
X0068761Y0033782D01*
X0068907Y0033782D01*
X0068907Y0032258D01*
X0068940Y0032091D01*
X0069034Y0031950D01*
X0069175Y0031856D01*
X0069342Y0031823D01*
X0070866Y0031823D01*
X0071033Y0031856D01*
X0071174Y0031950D01*
X0071268Y0032091D01*
X0071301Y0032258D01*
X0071301Y0033782D01*
X0079067Y0033782D01*
X0079067Y0032258D01*
X0079100Y0032091D01*
X0079194Y0031950D01*
X0079335Y0031856D01*
X0079502Y0031823D01*
X0081026Y0031823D01*
X0081193Y0031856D01*
X0081334Y0031950D01*
X0081428Y0032091D01*
X0081461Y0032258D01*
X0081461Y0033782D01*
X0081607Y0033782D01*
X0081607Y0032258D01*
X0081640Y0032091D01*
X0081734Y0031950D01*
X0081875Y0031856D01*
X0082042Y0031823D01*
X0083566Y0031823D01*
X0083733Y0031856D01*
X0083874Y0031950D01*
X0083968Y0032091D01*
X0084001Y0032258D01*
X0084001Y0033782D01*
X0083968Y0033949D01*
X0083874Y0034090D01*
X0083733Y0034184D01*
X0083566Y0034217D01*
X0082042Y0034217D01*
X0081875Y0034184D01*
X0081734Y0034090D01*
X0081640Y0033949D01*
X0081607Y0033782D01*
X0081461Y0033782D01*
X0081428Y0033949D01*
X0081334Y0034090D01*
X0081193Y0034184D01*
X0081026Y0034217D01*
X0079502Y0034217D01*
X0079335Y0034184D01*
X0079194Y0034090D01*
X0079100Y0033949D01*
X0079067Y0033782D01*
X0071301Y0033782D01*
X0071268Y0033949D01*
X0071174Y0034090D01*
X0071033Y0034184D01*
X0070866Y0034217D01*
X0069342Y0034217D01*
X0069175Y0034184D01*
X0069034Y0034090D01*
X0068940Y0033949D01*
X0068907Y0033782D01*
X0068761Y0033782D01*
X0068728Y0033949D01*
X0068634Y0034090D01*
X0068493Y0034184D01*
X0068326Y0034217D01*
X0066802Y0034217D01*
X0066635Y0034184D01*
X0066494Y0034090D01*
X0066400Y0033949D01*
X0066367Y0033782D01*
X0056442Y0033782D01*
X0056442Y0034489D01*
X0101790Y0034489D01*
X0102417Y0032971D01*
X0103577Y0031809D01*
X0105093Y0031180D01*
X0106735Y0031178D01*
X0108253Y0031805D01*
X0109415Y0032965D01*
X0110044Y0034481D01*
X0110046Y0036123D01*
X0109419Y0037641D01*
X0108259Y0038803D01*
X0106743Y0039432D01*
X0105101Y0039434D01*
X0103583Y0038807D01*
X0102421Y0037647D01*
X0101792Y0036131D01*
X0101790Y0034489D01*
X0056442Y0034489D01*
X0056442Y0036877D01*
X0056421Y0036986D01*
X0064771Y0036986D01*
X0065041Y0036333D01*
X0065540Y0035832D01*
X0066193Y0035561D01*
X0066900Y0035561D01*
X0067553Y0035831D01*
X0068054Y0036330D01*
X0068325Y0036983D01*
X0068325Y0036986D01*
X0079757Y0036986D01*
X0080027Y0036333D01*
X0080526Y0035832D01*
X0081179Y0035561D01*
X0081886Y0035561D01*
X0082539Y0035831D01*
X0083040Y0036330D01*
X0083311Y0036983D01*
X0083311Y0037690D01*
X0083041Y0038343D01*
X0082542Y0038844D01*
X0081889Y0039115D01*
X0081182Y0039115D01*
X0080529Y0038845D01*
X0080028Y0038346D01*
X0079757Y0037693D01*
X0079757Y0036986D01*
X0068325Y0036986D01*
X0068325Y0037690D01*
X0068055Y0038343D01*
X0067556Y0038844D01*
X0066903Y0039115D01*
X0066196Y0039115D01*
X0065543Y0038845D01*
X0065042Y0038346D01*
X0064771Y0037693D01*
X0064771Y0036986D01*
X0056421Y0036986D01*
X0056409Y0037044D01*
X0056315Y0037185D01*
X0056174Y0037279D01*
X0056007Y0037312D01*
X0052197Y0037312D01*
X0052030Y0037279D01*
X0051889Y0037185D01*
X0051795Y0037044D01*
X0051762Y0036877D01*
X0038614Y0036877D01*
X0038299Y0037641D01*
X0037139Y0038803D01*
X0035623Y0039432D01*
X0033981Y0039434D01*
X0032463Y0038807D01*
X0031301Y0037647D01*
X0030672Y0036131D01*
X0030670Y0034489D01*
X0030474Y0034489D01*
X0030474Y0039630D01*
X0110242Y0039630D01*
X0110242Y0000502D01*
X0029972Y0040132D02*
%LPD*%
G01*
D12*
D34*
X0043942Y0072748D03*
X0043942Y0066548D03*
X0038942Y0069648D03*
D24*
X0036322Y0065786D03*
X0039370Y0053848D03*
X0036830Y0053848D03*
X0039370Y0056388D03*
X0036830Y0056388D03*
X0039370Y0058928D03*
X0036830Y0058928D03*
X0039370Y0061468D03*
X0036830Y0061468D03*
X0049784Y0050292D03*
X0049784Y0047752D03*
X0047244Y0050292D03*
X0047244Y0047752D03*
X0044704Y0050292D03*
X0044704Y0047752D03*
X0042164Y0050292D03*
X0042164Y0047752D03*
X0067564Y0047752D03*
X0067564Y0050292D03*
X0070104Y0047752D03*
X0070104Y0050292D03*
X0072644Y0047752D03*
X0072644Y0050292D03*
X0075184Y0047752D03*
X0075184Y0050292D03*
X0077724Y0070612D03*
X0077724Y0073152D03*
X0080264Y0070612D03*
X0080264Y0073152D03*
X0082804Y0070612D03*
X0082804Y0073152D03*
X0085344Y0070612D03*
X0085344Y0073152D03*
X0065024Y0070612D03*
X0065024Y0073152D03*
X0067564Y0070612D03*
X0067564Y0073152D03*
X0070104Y0070612D03*
X0070104Y0073152D03*
X0072644Y0070612D03*
X0072644Y0073152D03*
X0104902Y0061722D03*
X0102362Y0061722D03*
X0104902Y0064262D03*
X0102362Y0064262D03*
X0104902Y0066802D03*
X0102362Y0066802D03*
X0104902Y0069342D03*
X0102362Y0069342D03*
X0054864Y0047752D03*
X0054864Y0050292D03*
X0057404Y0047752D03*
X0057404Y0050292D03*
X0059944Y0047752D03*
X0059944Y0050292D03*
X0062484Y0047752D03*
X0062484Y0050292D03*
X0080264Y0047752D03*
X0080264Y0050292D03*
X0082804Y0047752D03*
X0082804Y0050292D03*
X0085344Y0047752D03*
X0085344Y0050292D03*
X0087884Y0047752D03*
X0087884Y0050292D03*
X0104902Y0050800D03*
X0102362Y0050800D03*
X0104902Y0053340D03*
X0102362Y0053340D03*
X0104902Y0055880D03*
X0102362Y0055880D03*
X0104902Y0058420D03*
X0102362Y0058420D03*
D50*
X0105918Y0075438D03*
X0105918Y0044958D03*
X0034798Y0075438D03*
X0034798Y0044958D03*
D34*
X0054102Y0075104D03*
X0054102Y0070104D03*
X0059182Y0070104D03*
X0059182Y0075104D03*
D32*
X0106934Y0060706D03*
X0109474Y0071882D03*
X0102870Y0071374D03*
X0101346Y0071374D03*
X0101092Y0072898D03*
X0099822Y0072898D03*
X0109474Y0050038D03*
X0108204Y0050038D03*
X0106680Y0050038D03*
X0102870Y0048768D03*
X0087884Y0075692D03*
X0087884Y0076962D03*
X0087884Y0077978D03*
X0087884Y0078994D03*
X0072898Y0075946D03*
X0072898Y0076962D03*
X0072898Y0077978D03*
X0072898Y0078994D03*
X0061976Y0074168D03*
X0066040Y0075184D03*
X0094234Y0058674D03*
X0096012Y0058674D03*
X0097536Y0058928D03*
X0097536Y0060452D03*
X0097536Y0061976D03*
X0096774Y0062992D03*
X0095250Y0062992D03*
X0093726Y0062992D03*
X0093472Y0061468D03*
X0100076Y0047244D03*
X0099568Y0048260D03*
X0098552Y0048260D03*
X0097536Y0048260D03*
X0096520Y0048260D03*
X0034036Y0050546D03*
X0032766Y0050546D03*
X0031496Y0050546D03*
X0050038Y0045720D03*
X0049022Y0045720D03*
X0047752Y0045720D03*
X0063500Y0045466D03*
X0062484Y0045466D03*
X0061468Y0045466D03*
X0076708Y0045720D03*
X0075692Y0045974D03*
X0074422Y0045974D03*
X0091440Y0044958D03*
X0091440Y0043688D03*
X0091440Y0042418D03*
X0088392Y0068580D03*
X0088392Y0069850D03*
X0088392Y0071374D03*
X0088392Y0072898D03*
X0088392Y0074168D03*
X0087122Y0074168D03*
X0087122Y0072898D03*
X0087122Y0071374D03*
X0087122Y0069850D03*
X0087122Y0068580D03*
X0063246Y0070358D03*
X0063246Y0071628D03*
X0063246Y0072898D03*
X0063246Y0074168D03*
X0075946Y0074930D03*
X0075946Y0073660D03*
X0075946Y0072390D03*
X0075946Y0071120D03*
X0075946Y0069850D03*
X0074676Y0069850D03*
X0074676Y0071120D03*
X0074676Y0072390D03*
X0074676Y0073660D03*
X0074676Y0074930D03*
X0109474Y0061214D03*
X0108204Y0061214D03*
X0105918Y0060198D03*
X0104648Y0060198D03*
X0103378Y0060198D03*
X0102108Y0060198D03*
X0100838Y0060198D03*
X0100330Y0050292D03*
X0101346Y0048768D03*
X0089662Y0046736D03*
X0090932Y0046736D03*
X0090932Y0047752D03*
X0090932Y0049022D03*
X0089662Y0051562D03*
X0089662Y0050292D03*
X0089662Y0049022D03*
X0089662Y0047752D03*
X0078486Y0051054D03*
X0078486Y0049784D03*
X0078486Y0048514D03*
X0078486Y0047244D03*
X0077216Y0047244D03*
X0077216Y0048514D03*
X0077216Y0049784D03*
X0077216Y0051054D03*
X0065786Y0047752D03*
X0065786Y0049022D03*
X0065786Y0050292D03*
X0065786Y0051308D03*
X0064516Y0051308D03*
X0064516Y0050292D03*
X0064516Y0049022D03*
X0064516Y0047752D03*
X0040386Y0063500D03*
X0039370Y0063500D03*
X0038100Y0063500D03*
X0036830Y0063500D03*
X0039878Y0050546D03*
X0038608Y0050546D03*
X0037084Y0050546D03*
X0035814Y0050546D03*
X0035814Y0051816D03*
X0037084Y0051816D03*
X0038608Y0051816D03*
X0039878Y0051816D03*
X0051816Y0048514D03*
X0051816Y0049784D03*
X0051816Y0047244D03*
X0052832Y0047244D03*
X0052832Y0048514D03*
X0052832Y0049784D03*
X0052832Y0051054D03*
X0051816Y0051054D03*
X0046990Y0075184D03*
X0045720Y0075692D03*
X0044196Y0075692D03*
X0042672Y0075692D03*
X0041148Y0075692D03*
X0041148Y0074422D03*
X0041148Y0072898D03*
X0041910Y0069850D03*
X0042926Y0069850D03*
X0044450Y0069850D03*
X0055880Y0067310D03*
X0057150Y0067310D03*
X0058420Y0067310D03*
X0059690Y0067310D03*
X0060960Y0067310D03*
X0062230Y0067564D03*
X0062230Y0068834D03*
X0062230Y0070104D03*
D36*
X0107334Y0061106D02*
X0106934Y0060706D01*
X0107442Y0061214D02*
X0107334Y0061106D01*
X0108204Y0061214D02*
X0107442Y0061214D01*
D15*
X0102362Y0070358D02*
X0101346Y0071374D01*
X0101346Y0071374D02*
X0099822Y0072898D01*
X0101092Y0071628D02*
X0101346Y0071374D01*
X0101092Y0072898D02*
X0101092Y0071628D01*
X0102362Y0069342D02*
X0102362Y0070358D01*
X0106680Y0050038D02*
X0108204Y0050038D01*
X0101346Y0048768D02*
X0102870Y0048768D01*
X0087884Y0076962D02*
X0087884Y0075692D01*
X0087884Y0078994D02*
X0087884Y0077978D01*
X0072898Y0077978D02*
X0072898Y0076962D01*
D36*
X0062484Y0074676D02*
X0062376Y0074568D01*
X0062376Y0074568D02*
X0061976Y0074168D01*
X0063246Y0074168D02*
X0062738Y0074676D01*
X0062992Y0074422D02*
X0062738Y0074676D01*
X0062738Y0074676D02*
X0062484Y0074676D01*
X0065474Y0075184D02*
X0066040Y0075184D01*
X0065394Y0075184D02*
X0065474Y0075184D01*
X0065024Y0074814D02*
X0065394Y0075184D01*
X0065024Y0073152D02*
X0065024Y0074814D01*
X0097536Y0058928D02*
X0096266Y0058928D01*
X0096266Y0058928D02*
X0096012Y0058674D01*
X0097536Y0061976D02*
X0097536Y0060452D01*
X0095250Y0062992D02*
X0096774Y0062992D01*
X0093472Y0061468D02*
X0093472Y0062738D01*
X0093472Y0062738D02*
X0093726Y0062992D01*
X0098552Y0048260D02*
X0099568Y0048260D01*
X0096520Y0048260D02*
X0097536Y0048260D01*
X0031496Y0050546D02*
X0032766Y0050546D01*
X0047752Y0045720D02*
X0049022Y0045720D01*
X0061468Y0045466D02*
X0062484Y0045466D01*
X0074422Y0045974D02*
X0075692Y0045974D01*
X0091440Y0042418D02*
X0091440Y0043688D01*
X0088392Y0071374D02*
X0088392Y0069850D01*
X0088392Y0074168D02*
X0088392Y0072898D01*
X0087122Y0072898D02*
X0087122Y0074168D01*
X0087122Y0069850D02*
X0087122Y0071374D01*
X0085344Y0070612D02*
X0085344Y0070358D01*
X0085344Y0070358D02*
X0087122Y0068580D01*
X0063246Y0072898D02*
X0063246Y0071628D01*
X0075946Y0072390D02*
X0075946Y0073660D01*
X0075946Y0069850D02*
X0075946Y0071120D01*
X0074676Y0071120D02*
X0074676Y0069850D01*
X0074676Y0073660D02*
X0074676Y0072390D01*
X0072644Y0073152D02*
X0072898Y0073152D01*
X0072898Y0073152D02*
X0074676Y0074930D01*
X0104902Y0069342D02*
X0104902Y0069596D01*
X0104648Y0060198D02*
X0105918Y0060198D01*
X0102108Y0060198D02*
X0103378Y0060198D01*
X0102362Y0058420D02*
X0102362Y0058674D01*
X0102362Y0058674D02*
X0100838Y0060198D01*
X0102362Y0050800D02*
X0102362Y0049784D01*
X0102362Y0049784D02*
X0101346Y0048768D01*
X0090932Y0047752D02*
X0090932Y0046736D01*
X0089662Y0051562D02*
X0089662Y0050292D01*
X0089662Y0050292D02*
X0090932Y0049022D01*
X0089662Y0049022D02*
X0089662Y0050292D01*
X0087884Y0047752D02*
X0089662Y0047752D01*
X0078486Y0048514D02*
X0078486Y0049784D01*
X0077216Y0047244D02*
X0078486Y0047244D01*
X0077216Y0049784D02*
X0077216Y0048514D01*
X0075184Y0050292D02*
X0076454Y0050292D01*
X0076454Y0050292D02*
X0077216Y0051054D01*
X0065786Y0050292D02*
X0065786Y0049022D01*
X0064516Y0051308D02*
X0065786Y0051308D01*
X0064516Y0049022D02*
X0064516Y0050292D01*
X0062484Y0047752D02*
X0064516Y0047752D01*
X0038100Y0063500D02*
X0039370Y0063500D01*
X0036830Y0061468D02*
X0036830Y0063500D01*
X0037084Y0050546D02*
X0038608Y0050546D01*
X0035814Y0051816D02*
X0035814Y0050546D01*
X0038608Y0051816D02*
X0037084Y0051816D01*
X0042164Y0050292D02*
X0041402Y0050292D01*
X0041402Y0050292D02*
X0039878Y0051816D01*
X0051816Y0051054D02*
X0051816Y0049784D01*
X0052832Y0048514D02*
X0052832Y0047244D01*
X0052832Y0051054D02*
X0052832Y0049784D01*
X0049784Y0050292D02*
X0051054Y0050292D01*
X0051054Y0050292D02*
X0051816Y0051054D01*
X0044196Y0075692D02*
X0045720Y0075692D01*
X0041148Y0075692D02*
X0042672Y0075692D01*
X0041148Y0072898D02*
X0041148Y0074422D01*
X0042926Y0069850D02*
X0041910Y0069850D01*
X0043942Y0072748D02*
X0043942Y0070358D01*
X0043942Y0070358D02*
X0044450Y0069850D01*
X0058420Y0067310D02*
X0057150Y0067310D01*
X0060960Y0067310D02*
X0059690Y0067310D01*
X0062230Y0068834D02*
X0062230Y0067564D01*
X0059182Y0070104D02*
X0062230Y0070104D01*
D18*
G36*
X0110242Y0040634D02*
X0030474Y0040634D01*
X0030474Y0044141D01*
X0030670Y0044141D01*
X0031297Y0042623D01*
X0032457Y0041461D01*
X0033973Y0040832D01*
X0035615Y0040830D01*
X0037133Y0041457D01*
X0038295Y0042617D01*
X0038488Y0043082D01*
X0039752Y0043082D01*
X0040022Y0042429D01*
X0040521Y0041928D01*
X0041174Y0041657D01*
X0041881Y0041657D01*
X0042534Y0041927D01*
X0043035Y0042426D01*
X0043306Y0043079D01*
X0043306Y0043082D01*
X0053087Y0043082D01*
X0053357Y0042429D01*
X0053856Y0041928D01*
X0054509Y0041657D01*
X0055216Y0041657D01*
X0055869Y0041927D01*
X0056370Y0042426D01*
X0056641Y0043079D01*
X0056641Y0043082D01*
X0066295Y0043082D01*
X0066565Y0042429D01*
X0067064Y0041928D01*
X0067717Y0041657D01*
X0068424Y0041657D01*
X0069077Y0041927D01*
X0069578Y0042426D01*
X0069849Y0043079D01*
X0069849Y0043082D01*
X0079503Y0043082D01*
X0079773Y0042429D01*
X0080272Y0041928D01*
X0080925Y0041657D01*
X0081632Y0041657D01*
X0082285Y0041927D01*
X0082786Y0042426D01*
X0083057Y0043079D01*
X0083057Y0043786D01*
X0082911Y0044141D01*
X0101790Y0044141D01*
X0102417Y0042623D01*
X0103577Y0041461D01*
X0105093Y0040832D01*
X0106735Y0040830D01*
X0108253Y0041457D01*
X0109415Y0042617D01*
X0110044Y0044133D01*
X0110046Y0045775D01*
X0109419Y0047293D01*
X0108259Y0048455D01*
X0106743Y0049084D01*
X0105101Y0049086D01*
X0103583Y0048459D01*
X0102421Y0047299D01*
X0101792Y0045783D01*
X0101790Y0044141D01*
X0082911Y0044141D01*
X0082787Y0044439D01*
X0082288Y0044940D01*
X0081635Y0045211D01*
X0080928Y0045211D01*
X0080275Y0044941D01*
X0079774Y0044442D01*
X0079503Y0043789D01*
X0079503Y0043082D01*
X0069849Y0043082D01*
X0069849Y0043786D01*
X0069579Y0044439D01*
X0069080Y0044940D01*
X0068427Y0045211D01*
X0067720Y0045211D01*
X0067067Y0044941D01*
X0066566Y0044442D01*
X0066295Y0043789D01*
X0066295Y0043082D01*
X0056641Y0043082D01*
X0056641Y0043786D01*
X0056371Y0044439D01*
X0055872Y0044940D01*
X0055219Y0045211D01*
X0054512Y0045211D01*
X0053859Y0044941D01*
X0053358Y0044442D01*
X0053087Y0043789D01*
X0053087Y0043082D01*
X0043306Y0043082D01*
X0043306Y0043786D01*
X0043036Y0044439D01*
X0042537Y0044940D01*
X0041884Y0045211D01*
X0041177Y0045211D01*
X0040524Y0044941D01*
X0040023Y0044442D01*
X0039752Y0043789D01*
X0039752Y0043082D01*
X0038488Y0043082D01*
X0038924Y0044133D01*
X0038926Y0045775D01*
X0038299Y0047293D01*
X0037139Y0048455D01*
X0036996Y0048514D01*
X0043507Y0048514D01*
X0043507Y0046990D01*
X0043540Y0046823D01*
X0043634Y0046682D01*
X0043775Y0046588D01*
X0043942Y0046555D01*
X0045466Y0046555D01*
X0045633Y0046588D01*
X0045774Y0046682D01*
X0045868Y0046823D01*
X0045901Y0046990D01*
X0045901Y0048514D01*
X0046047Y0048514D01*
X0046047Y0046990D01*
X0046080Y0046823D01*
X0046174Y0046682D01*
X0046315Y0046588D01*
X0046482Y0046555D01*
X0048006Y0046555D01*
X0048173Y0046588D01*
X0048314Y0046682D01*
X0048408Y0046823D01*
X0048441Y0046990D01*
X0048441Y0048514D01*
X0056207Y0048514D01*
X0056207Y0046990D01*
X0056240Y0046823D01*
X0056334Y0046682D01*
X0056475Y0046588D01*
X0056642Y0046555D01*
X0058166Y0046555D01*
X0058333Y0046588D01*
X0058474Y0046682D01*
X0058568Y0046823D01*
X0058601Y0046990D01*
X0058601Y0048514D01*
X0058747Y0048514D01*
X0058747Y0046990D01*
X0058780Y0046823D01*
X0058874Y0046682D01*
X0059015Y0046588D01*
X0059182Y0046555D01*
X0060706Y0046555D01*
X0060873Y0046588D01*
X0061014Y0046682D01*
X0061108Y0046823D01*
X0061141Y0046990D01*
X0061141Y0048514D01*
X0068907Y0048514D01*
X0068907Y0046990D01*
X0068940Y0046823D01*
X0069034Y0046682D01*
X0069175Y0046588D01*
X0069342Y0046555D01*
X0070866Y0046555D01*
X0071033Y0046588D01*
X0071174Y0046682D01*
X0071268Y0046823D01*
X0071301Y0046990D01*
X0071301Y0048514D01*
X0071447Y0048514D01*
X0071447Y0046990D01*
X0071480Y0046823D01*
X0071574Y0046682D01*
X0071715Y0046588D01*
X0071882Y0046555D01*
X0073406Y0046555D01*
X0073573Y0046588D01*
X0073714Y0046682D01*
X0073808Y0046823D01*
X0073841Y0046990D01*
X0073841Y0048514D01*
X0081607Y0048514D01*
X0081607Y0046990D01*
X0081640Y0046823D01*
X0081734Y0046682D01*
X0081875Y0046588D01*
X0082042Y0046555D01*
X0083566Y0046555D01*
X0083733Y0046588D01*
X0083874Y0046682D01*
X0083968Y0046823D01*
X0084001Y0046990D01*
X0084001Y0048514D01*
X0084147Y0048514D01*
X0084147Y0046990D01*
X0084180Y0046823D01*
X0084274Y0046682D01*
X0084415Y0046588D01*
X0084582Y0046555D01*
X0086106Y0046555D01*
X0086273Y0046588D01*
X0086414Y0046682D01*
X0086508Y0046823D01*
X0086541Y0046990D01*
X0086541Y0048514D01*
X0086508Y0048681D01*
X0086414Y0048822D01*
X0086273Y0048916D01*
X0086106Y0048949D01*
X0084582Y0048949D01*
X0084415Y0048916D01*
X0084274Y0048822D01*
X0084180Y0048681D01*
X0084147Y0048514D01*
X0084001Y0048514D01*
X0083968Y0048681D01*
X0083874Y0048822D01*
X0083733Y0048916D01*
X0083566Y0048949D01*
X0082042Y0048949D01*
X0081875Y0048916D01*
X0081734Y0048822D01*
X0081640Y0048681D01*
X0081607Y0048514D01*
X0073841Y0048514D01*
X0073808Y0048681D01*
X0073714Y0048822D01*
X0073573Y0048916D01*
X0073406Y0048949D01*
X0071882Y0048949D01*
X0071715Y0048916D01*
X0071574Y0048822D01*
X0071480Y0048681D01*
X0071447Y0048514D01*
X0071301Y0048514D01*
X0071268Y0048681D01*
X0071174Y0048822D01*
X0071033Y0048916D01*
X0070866Y0048949D01*
X0069342Y0048949D01*
X0069175Y0048916D01*
X0069034Y0048822D01*
X0068940Y0048681D01*
X0068907Y0048514D01*
X0061141Y0048514D01*
X0061108Y0048681D01*
X0061014Y0048822D01*
X0060873Y0048916D01*
X0060706Y0048949D01*
X0059182Y0048949D01*
X0059015Y0048916D01*
X0058874Y0048822D01*
X0058780Y0048681D01*
X0058747Y0048514D01*
X0058601Y0048514D01*
X0058568Y0048681D01*
X0058474Y0048822D01*
X0058333Y0048916D01*
X0058166Y0048949D01*
X0056642Y0048949D01*
X0056475Y0048916D01*
X0056334Y0048822D01*
X0056240Y0048681D01*
X0056207Y0048514D01*
X0048441Y0048514D01*
X0048408Y0048681D01*
X0048314Y0048822D01*
X0048173Y0048916D01*
X0048006Y0048949D01*
X0046482Y0048949D01*
X0046315Y0048916D01*
X0046174Y0048822D01*
X0046080Y0048681D01*
X0046047Y0048514D01*
X0045901Y0048514D01*
X0045868Y0048681D01*
X0045774Y0048822D01*
X0045633Y0048916D01*
X0045466Y0048949D01*
X0043942Y0048949D01*
X0043775Y0048916D01*
X0043634Y0048822D01*
X0043540Y0048681D01*
X0043507Y0048514D01*
X0036996Y0048514D01*
X0035623Y0049084D01*
X0033981Y0049086D01*
X0032463Y0048459D01*
X0031301Y0047299D01*
X0030672Y0045783D01*
X0030670Y0044141D01*
X0030474Y0044141D01*
X0030474Y0051054D01*
X0043507Y0051054D01*
X0043507Y0049530D01*
X0043540Y0049363D01*
X0043634Y0049222D01*
X0043775Y0049128D01*
X0043942Y0049095D01*
X0045466Y0049095D01*
X0045633Y0049128D01*
X0045774Y0049222D01*
X0045868Y0049363D01*
X0045901Y0049530D01*
X0045901Y0051054D01*
X0046047Y0051054D01*
X0046047Y0049530D01*
X0046080Y0049363D01*
X0046174Y0049222D01*
X0046315Y0049128D01*
X0046482Y0049095D01*
X0048006Y0049095D01*
X0048173Y0049128D01*
X0048314Y0049222D01*
X0048408Y0049363D01*
X0048441Y0049530D01*
X0048441Y0051054D01*
X0056207Y0051054D01*
X0056207Y0049530D01*
X0056240Y0049363D01*
X0056334Y0049222D01*
X0056475Y0049128D01*
X0056642Y0049095D01*
X0058166Y0049095D01*
X0058333Y0049128D01*
X0058474Y0049222D01*
X0058568Y0049363D01*
X0058601Y0049530D01*
X0058601Y0051054D01*
X0058747Y0051054D01*
X0058747Y0049530D01*
X0058780Y0049363D01*
X0058874Y0049222D01*
X0059015Y0049128D01*
X0059182Y0049095D01*
X0060706Y0049095D01*
X0060873Y0049128D01*
X0061014Y0049222D01*
X0061108Y0049363D01*
X0061141Y0049530D01*
X0061141Y0051054D01*
X0068907Y0051054D01*
X0068907Y0049530D01*
X0068940Y0049363D01*
X0069034Y0049222D01*
X0069175Y0049128D01*
X0069342Y0049095D01*
X0070866Y0049095D01*
X0071033Y0049128D01*
X0071174Y0049222D01*
X0071268Y0049363D01*
X0071301Y0049530D01*
X0071301Y0051054D01*
X0071447Y0051054D01*
X0071447Y0049530D01*
X0071480Y0049363D01*
X0071574Y0049222D01*
X0071715Y0049128D01*
X0071882Y0049095D01*
X0073406Y0049095D01*
X0073573Y0049128D01*
X0073714Y0049222D01*
X0073808Y0049363D01*
X0073841Y0049530D01*
X0073841Y0051054D01*
X0081607Y0051054D01*
X0081607Y0049530D01*
X0081640Y0049363D01*
X0081734Y0049222D01*
X0081875Y0049128D01*
X0082042Y0049095D01*
X0083566Y0049095D01*
X0083733Y0049128D01*
X0083874Y0049222D01*
X0083968Y0049363D01*
X0084001Y0049530D01*
X0084001Y0051054D01*
X0084147Y0051054D01*
X0084147Y0049530D01*
X0084180Y0049363D01*
X0084274Y0049222D01*
X0084415Y0049128D01*
X0084582Y0049095D01*
X0086106Y0049095D01*
X0086273Y0049128D01*
X0086414Y0049222D01*
X0086508Y0049363D01*
X0086541Y0049530D01*
X0086541Y0051054D01*
X0086508Y0051221D01*
X0086414Y0051362D01*
X0086273Y0051456D01*
X0086106Y0051489D01*
X0084582Y0051489D01*
X0084415Y0051456D01*
X0084274Y0051362D01*
X0084180Y0051221D01*
X0084147Y0051054D01*
X0084001Y0051054D01*
X0083968Y0051221D01*
X0083874Y0051362D01*
X0083733Y0051456D01*
X0083566Y0051489D01*
X0082042Y0051489D01*
X0081875Y0051456D01*
X0081734Y0051362D01*
X0081640Y0051221D01*
X0081607Y0051054D01*
X0073841Y0051054D01*
X0073808Y0051221D01*
X0073714Y0051362D01*
X0073573Y0051456D01*
X0073406Y0051489D01*
X0071882Y0051489D01*
X0071715Y0051456D01*
X0071574Y0051362D01*
X0071480Y0051221D01*
X0071447Y0051054D01*
X0071301Y0051054D01*
X0071268Y0051221D01*
X0071174Y0051362D01*
X0071033Y0051456D01*
X0070866Y0051489D01*
X0069342Y0051489D01*
X0069175Y0051456D01*
X0069034Y0051362D01*
X0068940Y0051221D01*
X0068907Y0051054D01*
X0061141Y0051054D01*
X0061108Y0051221D01*
X0061014Y0051362D01*
X0060873Y0051456D01*
X0060706Y0051489D01*
X0059182Y0051489D01*
X0059015Y0051456D01*
X0058874Y0051362D01*
X0058780Y0051221D01*
X0058747Y0051054D01*
X0058601Y0051054D01*
X0058568Y0051221D01*
X0058474Y0051362D01*
X0058333Y0051456D01*
X0058166Y0051489D01*
X0056642Y0051489D01*
X0056475Y0051456D01*
X0056334Y0051362D01*
X0056240Y0051221D01*
X0056207Y0051054D01*
X0048441Y0051054D01*
X0048408Y0051221D01*
X0048314Y0051362D01*
X0048173Y0051456D01*
X0048006Y0051489D01*
X0046482Y0051489D01*
X0046315Y0051456D01*
X0046174Y0051362D01*
X0046080Y0051221D01*
X0046047Y0051054D01*
X0045901Y0051054D01*
X0045868Y0051221D01*
X0045774Y0051362D01*
X0045633Y0051456D01*
X0045466Y0051489D01*
X0043942Y0051489D01*
X0043775Y0051456D01*
X0043634Y0051362D01*
X0043540Y0051221D01*
X0043507Y0051054D01*
X0030474Y0051054D01*
X0030474Y0054102D01*
X0101165Y0054102D01*
X0101165Y0052578D01*
X0101198Y0052411D01*
X0101292Y0052270D01*
X0101433Y0052176D01*
X0101600Y0052143D01*
X0103124Y0052143D01*
X0103291Y0052176D01*
X0103432Y0052270D01*
X0103526Y0052411D01*
X0103559Y0052578D01*
X0103559Y0054102D01*
X0103705Y0054102D01*
X0103705Y0052578D01*
X0103738Y0052411D01*
X0103832Y0052270D01*
X0103973Y0052176D01*
X0104140Y0052143D01*
X0105664Y0052143D01*
X0105831Y0052176D01*
X0105972Y0052270D01*
X0106066Y0052411D01*
X0106099Y0052578D01*
X0106099Y0053496D01*
X0106427Y0053496D01*
X0106697Y0052843D01*
X0107196Y0052342D01*
X0107849Y0052071D01*
X0108556Y0052071D01*
X0109209Y0052341D01*
X0109710Y0052840D01*
X0109981Y0053493D01*
X0109981Y0054200D01*
X0109711Y0054853D01*
X0109212Y0055354D01*
X0108559Y0055625D01*
X0107852Y0055625D01*
X0107199Y0055355D01*
X0106698Y0054856D01*
X0106427Y0054203D01*
X0106427Y0053496D01*
X0106099Y0053496D01*
X0106099Y0054102D01*
X0106066Y0054269D01*
X0105972Y0054410D01*
X0105831Y0054504D01*
X0105664Y0054537D01*
X0104140Y0054537D01*
X0103973Y0054504D01*
X0103832Y0054410D01*
X0103738Y0054269D01*
X0103705Y0054102D01*
X0103559Y0054102D01*
X0103526Y0054269D01*
X0103432Y0054410D01*
X0103291Y0054504D01*
X0103124Y0054537D01*
X0101600Y0054537D01*
X0101433Y0054504D01*
X0101292Y0054410D01*
X0101198Y0054269D01*
X0101165Y0054102D01*
X0030474Y0054102D01*
X0030474Y0057150D01*
X0035633Y0057150D01*
X0035633Y0055626D01*
X0035666Y0055459D01*
X0035760Y0055318D01*
X0035901Y0055224D01*
X0036068Y0055191D01*
X0037592Y0055191D01*
X0037759Y0055224D01*
X0037900Y0055318D01*
X0037994Y0055459D01*
X0038027Y0055626D01*
X0038027Y0057150D01*
X0038173Y0057150D01*
X0038173Y0055626D01*
X0038206Y0055459D01*
X0038300Y0055318D01*
X0038441Y0055224D01*
X0038608Y0055191D01*
X0040132Y0055191D01*
X0040299Y0055224D01*
X0040440Y0055318D01*
X0040534Y0055459D01*
X0040567Y0055626D01*
X0040567Y0056642D01*
X0101165Y0056642D01*
X0101165Y0055118D01*
X0101198Y0054951D01*
X0101292Y0054810D01*
X0101433Y0054716D01*
X0101600Y0054683D01*
X0103124Y0054683D01*
X0103291Y0054716D01*
X0103432Y0054810D01*
X0103526Y0054951D01*
X0103559Y0055118D01*
X0103559Y0056642D01*
X0103705Y0056642D01*
X0103705Y0055118D01*
X0103738Y0054951D01*
X0103832Y0054810D01*
X0103973Y0054716D01*
X0104140Y0054683D01*
X0105664Y0054683D01*
X0105831Y0054716D01*
X0105972Y0054810D01*
X0106066Y0054951D01*
X0106099Y0055118D01*
X0106099Y0056642D01*
X0106066Y0056809D01*
X0105972Y0056950D01*
X0105831Y0057044D01*
X0105664Y0057077D01*
X0104140Y0057077D01*
X0103973Y0057044D01*
X0103832Y0056950D01*
X0103738Y0056809D01*
X0103705Y0056642D01*
X0103559Y0056642D01*
X0103526Y0056809D01*
X0103432Y0056950D01*
X0103291Y0057044D01*
X0103124Y0057077D01*
X0101600Y0057077D01*
X0101433Y0057044D01*
X0101292Y0056950D01*
X0101198Y0056809D01*
X0101165Y0056642D01*
X0040567Y0056642D01*
X0040567Y0057150D01*
X0040534Y0057317D01*
X0040440Y0057458D01*
X0040299Y0057552D01*
X0040132Y0057585D01*
X0038608Y0057585D01*
X0038441Y0057552D01*
X0038300Y0057458D01*
X0038206Y0057317D01*
X0038173Y0057150D01*
X0038027Y0057150D01*
X0037994Y0057317D01*
X0037900Y0057458D01*
X0037759Y0057552D01*
X0037592Y0057585D01*
X0036068Y0057585D01*
X0035901Y0057552D01*
X0035760Y0057458D01*
X0035666Y0057317D01*
X0035633Y0057150D01*
X0030474Y0057150D01*
X0030474Y0059690D01*
X0035633Y0059690D01*
X0035633Y0058166D01*
X0035666Y0057999D01*
X0035760Y0057858D01*
X0035901Y0057764D01*
X0036068Y0057731D01*
X0037592Y0057731D01*
X0037759Y0057764D01*
X0037900Y0057858D01*
X0037994Y0057999D01*
X0038027Y0058166D01*
X0038027Y0059690D01*
X0038173Y0059690D01*
X0038173Y0058166D01*
X0038206Y0057999D01*
X0038300Y0057858D01*
X0038441Y0057764D01*
X0038608Y0057731D01*
X0040132Y0057731D01*
X0040299Y0057764D01*
X0040440Y0057858D01*
X0040534Y0057999D01*
X0040567Y0058166D01*
X0040567Y0059690D01*
X0040534Y0059857D01*
X0040440Y0059998D01*
X0040299Y0060092D01*
X0040132Y0060125D01*
X0038608Y0060125D01*
X0038441Y0060092D01*
X0038300Y0059998D01*
X0038206Y0059857D01*
X0038173Y0059690D01*
X0038027Y0059690D01*
X0037994Y0059857D01*
X0037900Y0059998D01*
X0037759Y0060092D01*
X0037592Y0060125D01*
X0036068Y0060125D01*
X0035901Y0060092D01*
X0035760Y0059998D01*
X0035666Y0059857D01*
X0035633Y0059690D01*
X0030474Y0059690D01*
X0030474Y0061878D01*
X0030735Y0061878D01*
X0031005Y0061225D01*
X0031504Y0060724D01*
X0032157Y0060453D01*
X0032864Y0060453D01*
X0033517Y0060723D01*
X0034018Y0061222D01*
X0034289Y0061875D01*
X0034289Y0062582D01*
X0034019Y0063235D01*
X0033520Y0063736D01*
X0032867Y0064007D01*
X0032160Y0064007D01*
X0031507Y0063737D01*
X0031006Y0063238D01*
X0030735Y0062585D01*
X0030735Y0061878D01*
X0030474Y0061878D01*
X0030474Y0066548D01*
X0035125Y0066548D01*
X0035125Y0065024D01*
X0035158Y0064857D01*
X0035252Y0064716D01*
X0035393Y0064622D01*
X0035560Y0064589D01*
X0037084Y0064589D01*
X0037251Y0064622D01*
X0037392Y0064716D01*
X0037486Y0064857D01*
X0037519Y0065024D01*
X0037519Y0066548D01*
X0037486Y0066715D01*
X0037392Y0066856D01*
X0037251Y0066950D01*
X0037084Y0066983D01*
X0035560Y0066983D01*
X0035393Y0066950D01*
X0035252Y0066856D01*
X0035158Y0066715D01*
X0035125Y0066548D01*
X0030474Y0066548D01*
X0030474Y0074621D01*
X0030670Y0074621D01*
X0031297Y0073103D01*
X0032457Y0071941D01*
X0033973Y0071312D01*
X0035615Y0071310D01*
X0036646Y0071736D01*
X0036635Y0071720D01*
X0036602Y0071553D01*
X0036602Y0067743D01*
X0036635Y0067576D01*
X0036729Y0067435D01*
X0036870Y0067341D01*
X0037037Y0067308D01*
X0040847Y0067308D01*
X0041014Y0067341D01*
X0041155Y0067435D01*
X0041249Y0067576D01*
X0041282Y0067743D01*
X0041282Y0068453D01*
X0041602Y0068453D01*
X0041602Y0064643D01*
X0041635Y0064476D01*
X0041729Y0064335D01*
X0041870Y0064241D01*
X0042037Y0064208D01*
X0045847Y0064208D01*
X0046014Y0064241D01*
X0046155Y0064335D01*
X0046249Y0064476D01*
X0046282Y0064643D01*
X0046282Y0065024D01*
X0101165Y0065024D01*
X0101165Y0063500D01*
X0101198Y0063333D01*
X0101292Y0063192D01*
X0101433Y0063098D01*
X0101600Y0063065D01*
X0103124Y0063065D01*
X0103291Y0063098D01*
X0103432Y0063192D01*
X0103526Y0063333D01*
X0103559Y0063500D01*
X0103559Y0065024D01*
X0103705Y0065024D01*
X0103705Y0063500D01*
X0103738Y0063333D01*
X0103832Y0063192D01*
X0103973Y0063098D01*
X0104140Y0063065D01*
X0105664Y0063065D01*
X0105831Y0063098D01*
X0105972Y0063192D01*
X0106066Y0063333D01*
X0106099Y0063500D01*
X0106099Y0064418D01*
X0106427Y0064418D01*
X0106697Y0063765D01*
X0107196Y0063264D01*
X0107849Y0062993D01*
X0108556Y0062993D01*
X0109209Y0063263D01*
X0109710Y0063762D01*
X0109981Y0064415D01*
X0109981Y0065122D01*
X0109711Y0065775D01*
X0109212Y0066276D01*
X0108559Y0066547D01*
X0107852Y0066547D01*
X0107199Y0066277D01*
X0106698Y0065778D01*
X0106427Y0065125D01*
X0106427Y0064418D01*
X0106099Y0064418D01*
X0106099Y0065024D01*
X0106066Y0065191D01*
X0105972Y0065332D01*
X0105831Y0065426D01*
X0105664Y0065459D01*
X0104140Y0065459D01*
X0103973Y0065426D01*
X0103832Y0065332D01*
X0103738Y0065191D01*
X0103705Y0065024D01*
X0103559Y0065024D01*
X0103526Y0065191D01*
X0103432Y0065332D01*
X0103291Y0065426D01*
X0103124Y0065459D01*
X0101600Y0065459D01*
X0101433Y0065426D01*
X0101292Y0065332D01*
X0101198Y0065191D01*
X0101165Y0065024D01*
X0046282Y0065024D01*
X0046282Y0067564D01*
X0101165Y0067564D01*
X0101165Y0066040D01*
X0101198Y0065873D01*
X0101292Y0065732D01*
X0101433Y0065638D01*
X0101600Y0065605D01*
X0103124Y0065605D01*
X0103291Y0065638D01*
X0103432Y0065732D01*
X0103526Y0065873D01*
X0103559Y0066040D01*
X0103559Y0067564D01*
X0103705Y0067564D01*
X0103705Y0066040D01*
X0103738Y0065873D01*
X0103832Y0065732D01*
X0103973Y0065638D01*
X0104140Y0065605D01*
X0105664Y0065605D01*
X0105831Y0065638D01*
X0105972Y0065732D01*
X0106066Y0065873D01*
X0106099Y0066040D01*
X0106099Y0067564D01*
X0106066Y0067731D01*
X0105972Y0067872D01*
X0105831Y0067966D01*
X0105664Y0067999D01*
X0104140Y0067999D01*
X0103973Y0067966D01*
X0103832Y0067872D01*
X0103738Y0067731D01*
X0103705Y0067564D01*
X0103559Y0067564D01*
X0103526Y0067731D01*
X0103432Y0067872D01*
X0103291Y0067966D01*
X0103124Y0067999D01*
X0101600Y0067999D01*
X0101433Y0067966D01*
X0101292Y0067872D01*
X0101198Y0067731D01*
X0101165Y0067564D01*
X0046282Y0067564D01*
X0046282Y0068453D01*
X0046249Y0068620D01*
X0046155Y0068761D01*
X0046014Y0068855D01*
X0045847Y0068888D01*
X0042037Y0068888D01*
X0041870Y0068855D01*
X0041729Y0068761D01*
X0041635Y0068620D01*
X0041602Y0068453D01*
X0041282Y0068453D01*
X0041282Y0071553D01*
X0041249Y0071720D01*
X0041155Y0071861D01*
X0041014Y0071955D01*
X0040847Y0071988D01*
X0037184Y0071988D01*
X0037205Y0072009D01*
X0051762Y0072009D01*
X0051762Y0068199D01*
X0051795Y0068032D01*
X0051889Y0067891D01*
X0052030Y0067797D01*
X0052197Y0067764D01*
X0056007Y0067764D01*
X0056174Y0067797D01*
X0056315Y0067891D01*
X0056409Y0068032D01*
X0056442Y0068199D01*
X0056442Y0071374D01*
X0066367Y0071374D01*
X0066367Y0069850D01*
X0066400Y0069683D01*
X0066494Y0069542D01*
X0066635Y0069448D01*
X0066802Y0069415D01*
X0068326Y0069415D01*
X0068493Y0069448D01*
X0068634Y0069542D01*
X0068728Y0069683D01*
X0068761Y0069850D01*
X0068761Y0071374D01*
X0068907Y0071374D01*
X0068907Y0069850D01*
X0068940Y0069683D01*
X0069034Y0069542D01*
X0069175Y0069448D01*
X0069342Y0069415D01*
X0070866Y0069415D01*
X0071033Y0069448D01*
X0071174Y0069542D01*
X0071268Y0069683D01*
X0071301Y0069850D01*
X0071301Y0071374D01*
X0079067Y0071374D01*
X0079067Y0069850D01*
X0079100Y0069683D01*
X0079194Y0069542D01*
X0079335Y0069448D01*
X0079502Y0069415D01*
X0081026Y0069415D01*
X0081193Y0069448D01*
X0081334Y0069542D01*
X0081428Y0069683D01*
X0081461Y0069850D01*
X0081461Y0071374D01*
X0081607Y0071374D01*
X0081607Y0069850D01*
X0081640Y0069683D01*
X0081734Y0069542D01*
X0081875Y0069448D01*
X0082042Y0069415D01*
X0083566Y0069415D01*
X0083733Y0069448D01*
X0083874Y0069542D01*
X0083968Y0069683D01*
X0084001Y0069850D01*
X0084001Y0071374D01*
X0083968Y0071541D01*
X0083874Y0071682D01*
X0083733Y0071776D01*
X0083566Y0071809D01*
X0082042Y0071809D01*
X0081875Y0071776D01*
X0081734Y0071682D01*
X0081640Y0071541D01*
X0081607Y0071374D01*
X0081461Y0071374D01*
X0081428Y0071541D01*
X0081334Y0071682D01*
X0081193Y0071776D01*
X0081026Y0071809D01*
X0079502Y0071809D01*
X0079335Y0071776D01*
X0079194Y0071682D01*
X0079100Y0071541D01*
X0079067Y0071374D01*
X0071301Y0071374D01*
X0071268Y0071541D01*
X0071174Y0071682D01*
X0071033Y0071776D01*
X0070866Y0071809D01*
X0069342Y0071809D01*
X0069175Y0071776D01*
X0069034Y0071682D01*
X0068940Y0071541D01*
X0068907Y0071374D01*
X0068761Y0071374D01*
X0068728Y0071541D01*
X0068634Y0071682D01*
X0068493Y0071776D01*
X0068326Y0071809D01*
X0066802Y0071809D01*
X0066635Y0071776D01*
X0066494Y0071682D01*
X0066400Y0071541D01*
X0066367Y0071374D01*
X0056442Y0071374D01*
X0056442Y0072009D01*
X0056409Y0072176D01*
X0056315Y0072317D01*
X0056174Y0072411D01*
X0056007Y0072444D01*
X0052197Y0072444D01*
X0052030Y0072411D01*
X0051889Y0072317D01*
X0051795Y0072176D01*
X0051762Y0072009D01*
X0037205Y0072009D01*
X0038295Y0073097D01*
X0038924Y0074613D01*
X0038926Y0076255D01*
X0038614Y0077009D01*
X0051762Y0077009D01*
X0051762Y0073199D01*
X0051795Y0073032D01*
X0051889Y0072891D01*
X0052030Y0072797D01*
X0052197Y0072764D01*
X0056007Y0072764D01*
X0056174Y0072797D01*
X0056315Y0072891D01*
X0056409Y0073032D01*
X0056442Y0073199D01*
X0056442Y0073914D01*
X0066367Y0073914D01*
X0066367Y0072390D01*
X0066400Y0072223D01*
X0066494Y0072082D01*
X0066635Y0071988D01*
X0066802Y0071955D01*
X0068326Y0071955D01*
X0068493Y0071988D01*
X0068634Y0072082D01*
X0068728Y0072223D01*
X0068761Y0072390D01*
X0068761Y0073914D01*
X0068907Y0073914D01*
X0068907Y0072390D01*
X0068940Y0072223D01*
X0069034Y0072082D01*
X0069175Y0071988D01*
X0069342Y0071955D01*
X0070866Y0071955D01*
X0071033Y0071988D01*
X0071174Y0072082D01*
X0071268Y0072223D01*
X0071301Y0072390D01*
X0071301Y0073914D01*
X0079067Y0073914D01*
X0079067Y0072390D01*
X0079100Y0072223D01*
X0079194Y0072082D01*
X0079335Y0071988D01*
X0079502Y0071955D01*
X0081026Y0071955D01*
X0081193Y0071988D01*
X0081334Y0072082D01*
X0081428Y0072223D01*
X0081461Y0072390D01*
X0081461Y0073914D01*
X0081607Y0073914D01*
X0081607Y0072390D01*
X0081640Y0072223D01*
X0081734Y0072082D01*
X0081875Y0071988D01*
X0082042Y0071955D01*
X0083566Y0071955D01*
X0083733Y0071988D01*
X0083874Y0072082D01*
X0083968Y0072223D01*
X0084001Y0072390D01*
X0084001Y0073914D01*
X0083968Y0074081D01*
X0083874Y0074222D01*
X0083733Y0074316D01*
X0083566Y0074349D01*
X0082042Y0074349D01*
X0081875Y0074316D01*
X0081734Y0074222D01*
X0081640Y0074081D01*
X0081607Y0073914D01*
X0081461Y0073914D01*
X0081428Y0074081D01*
X0081334Y0074222D01*
X0081193Y0074316D01*
X0081026Y0074349D01*
X0079502Y0074349D01*
X0079335Y0074316D01*
X0079194Y0074222D01*
X0079100Y0074081D01*
X0079067Y0073914D01*
X0071301Y0073914D01*
X0071268Y0074081D01*
X0071174Y0074222D01*
X0071033Y0074316D01*
X0070866Y0074349D01*
X0069342Y0074349D01*
X0069175Y0074316D01*
X0069034Y0074222D01*
X0068940Y0074081D01*
X0068907Y0073914D01*
X0068761Y0073914D01*
X0068728Y0074081D01*
X0068634Y0074222D01*
X0068493Y0074316D01*
X0068326Y0074349D01*
X0066802Y0074349D01*
X0066635Y0074316D01*
X0066494Y0074222D01*
X0066400Y0074081D01*
X0066367Y0073914D01*
X0056442Y0073914D01*
X0056442Y0074621D01*
X0101790Y0074621D01*
X0102417Y0073103D01*
X0103577Y0071941D01*
X0105093Y0071312D01*
X0106735Y0071310D01*
X0108253Y0071937D01*
X0109415Y0073097D01*
X0110044Y0074613D01*
X0110046Y0076255D01*
X0109419Y0077773D01*
X0108259Y0078935D01*
X0106743Y0079564D01*
X0105101Y0079566D01*
X0103583Y0078939D01*
X0102421Y0077779D01*
X0101792Y0076263D01*
X0101790Y0074621D01*
X0056442Y0074621D01*
X0056442Y0077009D01*
X0056421Y0077118D01*
X0064771Y0077118D01*
X0065041Y0076465D01*
X0065540Y0075964D01*
X0066193Y0075693D01*
X0066900Y0075693D01*
X0067553Y0075963D01*
X0068054Y0076462D01*
X0068325Y0077115D01*
X0068325Y0077118D01*
X0079757Y0077118D01*
X0080027Y0076465D01*
X0080526Y0075964D01*
X0081179Y0075693D01*
X0081886Y0075693D01*
X0082539Y0075963D01*
X0083040Y0076462D01*
X0083311Y0077115D01*
X0083311Y0077822D01*
X0083041Y0078475D01*
X0082542Y0078976D01*
X0081889Y0079247D01*
X0081182Y0079247D01*
X0080529Y0078977D01*
X0080028Y0078478D01*
X0079757Y0077825D01*
X0079757Y0077118D01*
X0068325Y0077118D01*
X0068325Y0077822D01*
X0068055Y0078475D01*
X0067556Y0078976D01*
X0066903Y0079247D01*
X0066196Y0079247D01*
X0065543Y0078977D01*
X0065042Y0078478D01*
X0064771Y0077825D01*
X0064771Y0077118D01*
X0056421Y0077118D01*
X0056409Y0077176D01*
X0056315Y0077317D01*
X0056174Y0077411D01*
X0056007Y0077444D01*
X0052197Y0077444D01*
X0052030Y0077411D01*
X0051889Y0077317D01*
X0051795Y0077176D01*
X0051762Y0077009D01*
X0038614Y0077009D01*
X0038299Y0077773D01*
X0037139Y0078935D01*
X0035623Y0079564D01*
X0033981Y0079566D01*
X0032463Y0078939D01*
X0031301Y0077779D01*
X0030672Y0076263D01*
X0030670Y0074621D01*
X0030474Y0074621D01*
X0030474Y0079762D01*
X0110242Y0079762D01*
X0110242Y0040634D01*
X0110242Y0040634D01*
G37*
X0110242Y0040634D02*
X0030474Y0040634D01*
X0030474Y0044141D01*
X0030670Y0044141D01*
X0031297Y0042623D01*
X0032457Y0041461D01*
X0033973Y0040832D01*
X0035615Y0040830D01*
X0037133Y0041457D01*
X0038295Y0042617D01*
X0038488Y0043082D01*
X0039752Y0043082D01*
X0040022Y0042429D01*
X0040521Y0041928D01*
X0041174Y0041657D01*
X0041881Y0041657D01*
X0042534Y0041927D01*
X0043035Y0042426D01*
X0043306Y0043079D01*
X0043306Y0043082D01*
X0053087Y0043082D01*
X0053357Y0042429D01*
X0053856Y0041928D01*
X0054509Y0041657D01*
X0055216Y0041657D01*
X0055869Y0041927D01*
X0056370Y0042426D01*
X0056641Y0043079D01*
X0056641Y0043082D01*
X0066295Y0043082D01*
X0066565Y0042429D01*
X0067064Y0041928D01*
X0067717Y0041657D01*
X0068424Y0041657D01*
X0069077Y0041927D01*
X0069578Y0042426D01*
X0069849Y0043079D01*
X0069849Y0043082D01*
X0079503Y0043082D01*
X0079773Y0042429D01*
X0080272Y0041928D01*
X0080925Y0041657D01*
X0081632Y0041657D01*
X0082285Y0041927D01*
X0082786Y0042426D01*
X0083057Y0043079D01*
X0083057Y0043786D01*
X0082911Y0044141D01*
X0101790Y0044141D01*
X0102417Y0042623D01*
X0103577Y0041461D01*
X0105093Y0040832D01*
X0106735Y0040830D01*
X0108253Y0041457D01*
X0109415Y0042617D01*
X0110044Y0044133D01*
X0110046Y0045775D01*
X0109419Y0047293D01*
X0108259Y0048455D01*
X0106743Y0049084D01*
X0105101Y0049086D01*
X0103583Y0048459D01*
X0102421Y0047299D01*
X0101792Y0045783D01*
X0101790Y0044141D01*
X0082911Y0044141D01*
X0082787Y0044439D01*
X0082288Y0044940D01*
X0081635Y0045211D01*
X0080928Y0045211D01*
X0080275Y0044941D01*
X0079774Y0044442D01*
X0079503Y0043789D01*
X0079503Y0043082D01*
X0069849Y0043082D01*
X0069849Y0043786D01*
X0069579Y0044439D01*
X0069080Y0044940D01*
X0068427Y0045211D01*
X0067720Y0045211D01*
X0067067Y0044941D01*
X0066566Y0044442D01*
X0066295Y0043789D01*
X0066295Y0043082D01*
X0056641Y0043082D01*
X0056641Y0043786D01*
X0056371Y0044439D01*
X0055872Y0044940D01*
X0055219Y0045211D01*
X0054512Y0045211D01*
X0053859Y0044941D01*
X0053358Y0044442D01*
X0053087Y0043789D01*
X0053087Y0043082D01*
X0043306Y0043082D01*
X0043306Y0043786D01*
X0043036Y0044439D01*
X0042537Y0044940D01*
X0041884Y0045211D01*
X0041177Y0045211D01*
X0040524Y0044941D01*
X0040023Y0044442D01*
X0039752Y0043789D01*
X0039752Y0043082D01*
X0038488Y0043082D01*
X0038924Y0044133D01*
X0038926Y0045775D01*
X0038299Y0047293D01*
X0037139Y0048455D01*
X0036996Y0048514D01*
X0043507Y0048514D01*
X0043507Y0046990D01*
X0043540Y0046823D01*
X0043634Y0046682D01*
X0043775Y0046588D01*
X0043942Y0046555D01*
X0045466Y0046555D01*
X0045633Y0046588D01*
X0045774Y0046682D01*
X0045868Y0046823D01*
X0045901Y0046990D01*
X0045901Y0048514D01*
X0046047Y0048514D01*
X0046047Y0046990D01*
X0046080Y0046823D01*
X0046174Y0046682D01*
X0046315Y0046588D01*
X0046482Y0046555D01*
X0048006Y0046555D01*
X0048173Y0046588D01*
X0048314Y0046682D01*
X0048408Y0046823D01*
X0048441Y0046990D01*
X0048441Y0048514D01*
X0056207Y0048514D01*
X0056207Y0046990D01*
X0056240Y0046823D01*
X0056334Y0046682D01*
X0056475Y0046588D01*
X0056642Y0046555D01*
X0058166Y0046555D01*
X0058333Y0046588D01*
X0058474Y0046682D01*
X0058568Y0046823D01*
X0058601Y0046990D01*
X0058601Y0048514D01*
X0058747Y0048514D01*
X0058747Y0046990D01*
X0058780Y0046823D01*
X0058874Y0046682D01*
X0059015Y0046588D01*
X0059182Y0046555D01*
X0060706Y0046555D01*
X0060873Y0046588D01*
X0061014Y0046682D01*
X0061108Y0046823D01*
X0061141Y0046990D01*
X0061141Y0048514D01*
X0068907Y0048514D01*
X0068907Y0046990D01*
X0068940Y0046823D01*
X0069034Y0046682D01*
X0069175Y0046588D01*
X0069342Y0046555D01*
X0070866Y0046555D01*
X0071033Y0046588D01*
X0071174Y0046682D01*
X0071268Y0046823D01*
X0071301Y0046990D01*
X0071301Y0048514D01*
X0071447Y0048514D01*
X0071447Y0046990D01*
X0071480Y0046823D01*
X0071574Y0046682D01*
X0071715Y0046588D01*
X0071882Y0046555D01*
X0073406Y0046555D01*
X0073573Y0046588D01*
X0073714Y0046682D01*
X0073808Y0046823D01*
X0073841Y0046990D01*
X0073841Y0048514D01*
X0081607Y0048514D01*
X0081607Y0046990D01*
X0081640Y0046823D01*
X0081734Y0046682D01*
X0081875Y0046588D01*
X0082042Y0046555D01*
X0083566Y0046555D01*
X0083733Y0046588D01*
X0083874Y0046682D01*
X0083968Y0046823D01*
X0084001Y0046990D01*
X0084001Y0048514D01*
X0084147Y0048514D01*
X0084147Y0046990D01*
X0084180Y0046823D01*
X0084274Y0046682D01*
X0084415Y0046588D01*
X0084582Y0046555D01*
X0086106Y0046555D01*
X0086273Y0046588D01*
X0086414Y0046682D01*
X0086508Y0046823D01*
X0086541Y0046990D01*
X0086541Y0048514D01*
X0086508Y0048681D01*
X0086414Y0048822D01*
X0086273Y0048916D01*
X0086106Y0048949D01*
X0084582Y0048949D01*
X0084415Y0048916D01*
X0084274Y0048822D01*
X0084180Y0048681D01*
X0084147Y0048514D01*
X0084001Y0048514D01*
X0083968Y0048681D01*
X0083874Y0048822D01*
X0083733Y0048916D01*
X0083566Y0048949D01*
X0082042Y0048949D01*
X0081875Y0048916D01*
X0081734Y0048822D01*
X0081640Y0048681D01*
X0081607Y0048514D01*
X0073841Y0048514D01*
X0073808Y0048681D01*
X0073714Y0048822D01*
X0073573Y0048916D01*
X0073406Y0048949D01*
X0071882Y0048949D01*
X0071715Y0048916D01*
X0071574Y0048822D01*
X0071480Y0048681D01*
X0071447Y0048514D01*
X0071301Y0048514D01*
X0071268Y0048681D01*
X0071174Y0048822D01*
X0071033Y0048916D01*
X0070866Y0048949D01*
X0069342Y0048949D01*
X0069175Y0048916D01*
X0069034Y0048822D01*
X0068940Y0048681D01*
X0068907Y0048514D01*
X0061141Y0048514D01*
X0061108Y0048681D01*
X0061014Y0048822D01*
X0060873Y0048916D01*
X0060706Y0048949D01*
X0059182Y0048949D01*
X0059015Y0048916D01*
X0058874Y0048822D01*
X0058780Y0048681D01*
X0058747Y0048514D01*
X0058601Y0048514D01*
X0058568Y0048681D01*
X0058474Y0048822D01*
X0058333Y0048916D01*
X0058166Y0048949D01*
X0056642Y0048949D01*
X0056475Y0048916D01*
X0056334Y0048822D01*
X0056240Y0048681D01*
X0056207Y0048514D01*
X0048441Y0048514D01*
X0048408Y0048681D01*
X0048314Y0048822D01*
X0048173Y0048916D01*
X0048006Y0048949D01*
X0046482Y0048949D01*
X0046315Y0048916D01*
X0046174Y0048822D01*
X0046080Y0048681D01*
X0046047Y0048514D01*
X0045901Y0048514D01*
X0045868Y0048681D01*
X0045774Y0048822D01*
X0045633Y0048916D01*
X0045466Y0048949D01*
X0043942Y0048949D01*
X0043775Y0048916D01*
X0043634Y0048822D01*
X0043540Y0048681D01*
X0043507Y0048514D01*
X0036996Y0048514D01*
X0035623Y0049084D01*
X0033981Y0049086D01*
X0032463Y0048459D01*
X0031301Y0047299D01*
X0030672Y0045783D01*
X0030670Y0044141D01*
X0030474Y0044141D01*
X0030474Y0051054D01*
X0043507Y0051054D01*
X0043507Y0049530D01*
X0043540Y0049363D01*
X0043634Y0049222D01*
X0043775Y0049128D01*
X0043942Y0049095D01*
X0045466Y0049095D01*
X0045633Y0049128D01*
X0045774Y0049222D01*
X0045868Y0049363D01*
X0045901Y0049530D01*
X0045901Y0051054D01*
X0046047Y0051054D01*
X0046047Y0049530D01*
X0046080Y0049363D01*
X0046174Y0049222D01*
X0046315Y0049128D01*
X0046482Y0049095D01*
X0048006Y0049095D01*
X0048173Y0049128D01*
X0048314Y0049222D01*
X0048408Y0049363D01*
X0048441Y0049530D01*
X0048441Y0051054D01*
X0056207Y0051054D01*
X0056207Y0049530D01*
X0056240Y0049363D01*
X0056334Y0049222D01*
X0056475Y0049128D01*
X0056642Y0049095D01*
X0058166Y0049095D01*
X0058333Y0049128D01*
X0058474Y0049222D01*
X0058568Y0049363D01*
X0058601Y0049530D01*
X0058601Y0051054D01*
X0058747Y0051054D01*
X0058747Y0049530D01*
X0058780Y0049363D01*
X0058874Y0049222D01*
X0059015Y0049128D01*
X0059182Y0049095D01*
X0060706Y0049095D01*
X0060873Y0049128D01*
X0061014Y0049222D01*
X0061108Y0049363D01*
X0061141Y0049530D01*
X0061141Y0051054D01*
X0068907Y0051054D01*
X0068907Y0049530D01*
X0068940Y0049363D01*
X0069034Y0049222D01*
X0069175Y0049128D01*
X0069342Y0049095D01*
X0070866Y0049095D01*
X0071033Y0049128D01*
X0071174Y0049222D01*
X0071268Y0049363D01*
X0071301Y0049530D01*
X0071301Y0051054D01*
X0071447Y0051054D01*
X0071447Y0049530D01*
X0071480Y0049363D01*
X0071574Y0049222D01*
X0071715Y0049128D01*
X0071882Y0049095D01*
X0073406Y0049095D01*
X0073573Y0049128D01*
X0073714Y0049222D01*
X0073808Y0049363D01*
X0073841Y0049530D01*
X0073841Y0051054D01*
X0081607Y0051054D01*
X0081607Y0049530D01*
X0081640Y0049363D01*
X0081734Y0049222D01*
X0081875Y0049128D01*
X0082042Y0049095D01*
X0083566Y0049095D01*
X0083733Y0049128D01*
X0083874Y0049222D01*
X0083968Y0049363D01*
X0084001Y0049530D01*
X0084001Y0051054D01*
X0084147Y0051054D01*
X0084147Y0049530D01*
X0084180Y0049363D01*
X0084274Y0049222D01*
X0084415Y0049128D01*
X0084582Y0049095D01*
X0086106Y0049095D01*
X0086273Y0049128D01*
X0086414Y0049222D01*
X0086508Y0049363D01*
X0086541Y0049530D01*
X0086541Y0051054D01*
X0086508Y0051221D01*
X0086414Y0051362D01*
X0086273Y0051456D01*
X0086106Y0051489D01*
X0084582Y0051489D01*
X0084415Y0051456D01*
X0084274Y0051362D01*
X0084180Y0051221D01*
X0084147Y0051054D01*
X0084001Y0051054D01*
X0083968Y0051221D01*
X0083874Y0051362D01*
X0083733Y0051456D01*
X0083566Y0051489D01*
X0082042Y0051489D01*
X0081875Y0051456D01*
X0081734Y0051362D01*
X0081640Y0051221D01*
X0081607Y0051054D01*
X0073841Y0051054D01*
X0073808Y0051221D01*
X0073714Y0051362D01*
X0073573Y0051456D01*
X0073406Y0051489D01*
X0071882Y0051489D01*
X0071715Y0051456D01*
X0071574Y0051362D01*
X0071480Y0051221D01*
X0071447Y0051054D01*
X0071301Y0051054D01*
X0071268Y0051221D01*
X0071174Y0051362D01*
X0071033Y0051456D01*
X0070866Y0051489D01*
X0069342Y0051489D01*
X0069175Y0051456D01*
X0069034Y0051362D01*
X0068940Y0051221D01*
X0068907Y0051054D01*
X0061141Y0051054D01*
X0061108Y0051221D01*
X0061014Y0051362D01*
X0060873Y0051456D01*
X0060706Y0051489D01*
X0059182Y0051489D01*
X0059015Y0051456D01*
X0058874Y0051362D01*
X0058780Y0051221D01*
X0058747Y0051054D01*
X0058601Y0051054D01*
X0058568Y0051221D01*
X0058474Y0051362D01*
X0058333Y0051456D01*
X0058166Y0051489D01*
X0056642Y0051489D01*
X0056475Y0051456D01*
X0056334Y0051362D01*
X0056240Y0051221D01*
X0056207Y0051054D01*
X0048441Y0051054D01*
X0048408Y0051221D01*
X0048314Y0051362D01*
X0048173Y0051456D01*
X0048006Y0051489D01*
X0046482Y0051489D01*
X0046315Y0051456D01*
X0046174Y0051362D01*
X0046080Y0051221D01*
X0046047Y0051054D01*
X0045901Y0051054D01*
X0045868Y0051221D01*
X0045774Y0051362D01*
X0045633Y0051456D01*
X0045466Y0051489D01*
X0043942Y0051489D01*
X0043775Y0051456D01*
X0043634Y0051362D01*
X0043540Y0051221D01*
X0043507Y0051054D01*
X0030474Y0051054D01*
X0030474Y0054102D01*
X0101165Y0054102D01*
X0101165Y0052578D01*
X0101198Y0052411D01*
X0101292Y0052270D01*
X0101433Y0052176D01*
X0101600Y0052143D01*
X0103124Y0052143D01*
X0103291Y0052176D01*
X0103432Y0052270D01*
X0103526Y0052411D01*
X0103559Y0052578D01*
X0103559Y0054102D01*
X0103705Y0054102D01*
X0103705Y0052578D01*
X0103738Y0052411D01*
X0103832Y0052270D01*
X0103973Y0052176D01*
X0104140Y0052143D01*
X0105664Y0052143D01*
X0105831Y0052176D01*
X0105972Y0052270D01*
X0106066Y0052411D01*
X0106099Y0052578D01*
X0106099Y0053496D01*
X0106427Y0053496D01*
X0106697Y0052843D01*
X0107196Y0052342D01*
X0107849Y0052071D01*
X0108556Y0052071D01*
X0109209Y0052341D01*
X0109710Y0052840D01*
X0109981Y0053493D01*
X0109981Y0054200D01*
X0109711Y0054853D01*
X0109212Y0055354D01*
X0108559Y0055625D01*
X0107852Y0055625D01*
X0107199Y0055355D01*
X0106698Y0054856D01*
X0106427Y0054203D01*
X0106427Y0053496D01*
X0106099Y0053496D01*
X0106099Y0054102D01*
X0106066Y0054269D01*
X0105972Y0054410D01*
X0105831Y0054504D01*
X0105664Y0054537D01*
X0104140Y0054537D01*
X0103973Y0054504D01*
X0103832Y0054410D01*
X0103738Y0054269D01*
X0103705Y0054102D01*
X0103559Y0054102D01*
X0103526Y0054269D01*
X0103432Y0054410D01*
X0103291Y0054504D01*
X0103124Y0054537D01*
X0101600Y0054537D01*
X0101433Y0054504D01*
X0101292Y0054410D01*
X0101198Y0054269D01*
X0101165Y0054102D01*
X0030474Y0054102D01*
X0030474Y0057150D01*
X0035633Y0057150D01*
X0035633Y0055626D01*
X0035666Y0055459D01*
X0035760Y0055318D01*
X0035901Y0055224D01*
X0036068Y0055191D01*
X0037592Y0055191D01*
X0037759Y0055224D01*
X0037900Y0055318D01*
X0037994Y0055459D01*
X0038027Y0055626D01*
X0038027Y0057150D01*
X0038173Y0057150D01*
X0038173Y0055626D01*
X0038206Y0055459D01*
X0038300Y0055318D01*
X0038441Y0055224D01*
X0038608Y0055191D01*
X0040132Y0055191D01*
X0040299Y0055224D01*
X0040440Y0055318D01*
X0040534Y0055459D01*
X0040567Y0055626D01*
X0040567Y0056642D01*
X0101165Y0056642D01*
X0101165Y0055118D01*
X0101198Y0054951D01*
X0101292Y0054810D01*
X0101433Y0054716D01*
X0101600Y0054683D01*
X0103124Y0054683D01*
X0103291Y0054716D01*
X0103432Y0054810D01*
X0103526Y0054951D01*
X0103559Y0055118D01*
X0103559Y0056642D01*
X0103705Y0056642D01*
X0103705Y0055118D01*
X0103738Y0054951D01*
X0103832Y0054810D01*
X0103973Y0054716D01*
X0104140Y0054683D01*
X0105664Y0054683D01*
X0105831Y0054716D01*
X0105972Y0054810D01*
X0106066Y0054951D01*
X0106099Y0055118D01*
X0106099Y0056642D01*
X0106066Y0056809D01*
X0105972Y0056950D01*
X0105831Y0057044D01*
X0105664Y0057077D01*
X0104140Y0057077D01*
X0103973Y0057044D01*
X0103832Y0056950D01*
X0103738Y0056809D01*
X0103705Y0056642D01*
X0103559Y0056642D01*
X0103526Y0056809D01*
X0103432Y0056950D01*
X0103291Y0057044D01*
X0103124Y0057077D01*
X0101600Y0057077D01*
X0101433Y0057044D01*
X0101292Y0056950D01*
X0101198Y0056809D01*
X0101165Y0056642D01*
X0040567Y0056642D01*
X0040567Y0057150D01*
X0040534Y0057317D01*
X0040440Y0057458D01*
X0040299Y0057552D01*
X0040132Y0057585D01*
X0038608Y0057585D01*
X0038441Y0057552D01*
X0038300Y0057458D01*
X0038206Y0057317D01*
X0038173Y0057150D01*
X0038027Y0057150D01*
X0037994Y0057317D01*
X0037900Y0057458D01*
X0037759Y0057552D01*
X0037592Y0057585D01*
X0036068Y0057585D01*
X0035901Y0057552D01*
X0035760Y0057458D01*
X0035666Y0057317D01*
X0035633Y0057150D01*
X0030474Y0057150D01*
X0030474Y0059690D01*
X0035633Y0059690D01*
X0035633Y0058166D01*
X0035666Y0057999D01*
X0035760Y0057858D01*
X0035901Y0057764D01*
X0036068Y0057731D01*
X0037592Y0057731D01*
X0037759Y0057764D01*
X0037900Y0057858D01*
X0037994Y0057999D01*
X0038027Y0058166D01*
X0038027Y0059690D01*
X0038173Y0059690D01*
X0038173Y0058166D01*
X0038206Y0057999D01*
X0038300Y0057858D01*
X0038441Y0057764D01*
X0038608Y0057731D01*
X0040132Y0057731D01*
X0040299Y0057764D01*
X0040440Y0057858D01*
X0040534Y0057999D01*
X0040567Y0058166D01*
X0040567Y0059690D01*
X0040534Y0059857D01*
X0040440Y0059998D01*
X0040299Y0060092D01*
X0040132Y0060125D01*
X0038608Y0060125D01*
X0038441Y0060092D01*
X0038300Y0059998D01*
X0038206Y0059857D01*
X0038173Y0059690D01*
X0038027Y0059690D01*
X0037994Y0059857D01*
X0037900Y0059998D01*
X0037759Y0060092D01*
X0037592Y0060125D01*
X0036068Y0060125D01*
X0035901Y0060092D01*
X0035760Y0059998D01*
X0035666Y0059857D01*
X0035633Y0059690D01*
X0030474Y0059690D01*
X0030474Y0061878D01*
X0030735Y0061878D01*
X0031005Y0061225D01*
X0031504Y0060724D01*
X0032157Y0060453D01*
X0032864Y0060453D01*
X0033517Y0060723D01*
X0034018Y0061222D01*
X0034289Y0061875D01*
X0034289Y0062582D01*
X0034019Y0063235D01*
X0033520Y0063736D01*
X0032867Y0064007D01*
X0032160Y0064007D01*
X0031507Y0063737D01*
X0031006Y0063238D01*
X0030735Y0062585D01*
X0030735Y0061878D01*
X0030474Y0061878D01*
X0030474Y0066548D01*
X0035125Y0066548D01*
X0035125Y0065024D01*
X0035158Y0064857D01*
X0035252Y0064716D01*
X0035393Y0064622D01*
X0035560Y0064589D01*
X0037084Y0064589D01*
X0037251Y0064622D01*
X0037392Y0064716D01*
X0037486Y0064857D01*
X0037519Y0065024D01*
X0037519Y0066548D01*
X0037486Y0066715D01*
X0037392Y0066856D01*
X0037251Y0066950D01*
X0037084Y0066983D01*
X0035560Y0066983D01*
X0035393Y0066950D01*
X0035252Y0066856D01*
X0035158Y0066715D01*
X0035125Y0066548D01*
X0030474Y0066548D01*
X0030474Y0074621D01*
X0030670Y0074621D01*
X0031297Y0073103D01*
X0032457Y0071941D01*
X0033973Y0071312D01*
X0035615Y0071310D01*
X0036646Y0071736D01*
X0036635Y0071720D01*
X0036602Y0071553D01*
X0036602Y0067743D01*
X0036635Y0067576D01*
X0036729Y0067435D01*
X0036870Y0067341D01*
X0037037Y0067308D01*
X0040847Y0067308D01*
X0041014Y0067341D01*
X0041155Y0067435D01*
X0041249Y0067576D01*
X0041282Y0067743D01*
X0041282Y0068453D01*
X0041602Y0068453D01*
X0041602Y0064643D01*
X0041635Y0064476D01*
X0041729Y0064335D01*
X0041870Y0064241D01*
X0042037Y0064208D01*
X0045847Y0064208D01*
X0046014Y0064241D01*
X0046155Y0064335D01*
X0046249Y0064476D01*
X0046282Y0064643D01*
X0046282Y0065024D01*
X0101165Y0065024D01*
X0101165Y0063500D01*
X0101198Y0063333D01*
X0101292Y0063192D01*
X0101433Y0063098D01*
X0101600Y0063065D01*
X0103124Y0063065D01*
X0103291Y0063098D01*
X0103432Y0063192D01*
X0103526Y0063333D01*
X0103559Y0063500D01*
X0103559Y0065024D01*
X0103705Y0065024D01*
X0103705Y0063500D01*
X0103738Y0063333D01*
X0103832Y0063192D01*
X0103973Y0063098D01*
X0104140Y0063065D01*
X0105664Y0063065D01*
X0105831Y0063098D01*
X0105972Y0063192D01*
X0106066Y0063333D01*
X0106099Y0063500D01*
X0106099Y0064418D01*
X0106427Y0064418D01*
X0106697Y0063765D01*
X0107196Y0063264D01*
X0107849Y0062993D01*
X0108556Y0062993D01*
X0109209Y0063263D01*
X0109710Y0063762D01*
X0109981Y0064415D01*
X0109981Y0065122D01*
X0109711Y0065775D01*
X0109212Y0066276D01*
X0108559Y0066547D01*
X0107852Y0066547D01*
X0107199Y0066277D01*
X0106698Y0065778D01*
X0106427Y0065125D01*
X0106427Y0064418D01*
X0106099Y0064418D01*
X0106099Y0065024D01*
X0106066Y0065191D01*
X0105972Y0065332D01*
X0105831Y0065426D01*
X0105664Y0065459D01*
X0104140Y0065459D01*
X0103973Y0065426D01*
X0103832Y0065332D01*
X0103738Y0065191D01*
X0103705Y0065024D01*
X0103559Y0065024D01*
X0103526Y0065191D01*
X0103432Y0065332D01*
X0103291Y0065426D01*
X0103124Y0065459D01*
X0101600Y0065459D01*
X0101433Y0065426D01*
X0101292Y0065332D01*
X0101198Y0065191D01*
X0101165Y0065024D01*
X0046282Y0065024D01*
X0046282Y0067564D01*
X0101165Y0067564D01*
X0101165Y0066040D01*
X0101198Y0065873D01*
X0101292Y0065732D01*
X0101433Y0065638D01*
X0101600Y0065605D01*
X0103124Y0065605D01*
X0103291Y0065638D01*
X0103432Y0065732D01*
X0103526Y0065873D01*
X0103559Y0066040D01*
X0103559Y0067564D01*
X0103705Y0067564D01*
X0103705Y0066040D01*
X0103738Y0065873D01*
X0103832Y0065732D01*
X0103973Y0065638D01*
X0104140Y0065605D01*
X0105664Y0065605D01*
X0105831Y0065638D01*
X0105972Y0065732D01*
X0106066Y0065873D01*
X0106099Y0066040D01*
X0106099Y0067564D01*
X0106066Y0067731D01*
X0105972Y0067872D01*
X0105831Y0067966D01*
X0105664Y0067999D01*
X0104140Y0067999D01*
X0103973Y0067966D01*
X0103832Y0067872D01*
X0103738Y0067731D01*
X0103705Y0067564D01*
X0103559Y0067564D01*
X0103526Y0067731D01*
X0103432Y0067872D01*
X0103291Y0067966D01*
X0103124Y0067999D01*
X0101600Y0067999D01*
X0101433Y0067966D01*
X0101292Y0067872D01*
X0101198Y0067731D01*
X0101165Y0067564D01*
X0046282Y0067564D01*
X0046282Y0068453D01*
X0046249Y0068620D01*
X0046155Y0068761D01*
X0046014Y0068855D01*
X0045847Y0068888D01*
X0042037Y0068888D01*
X0041870Y0068855D01*
X0041729Y0068761D01*
X0041635Y0068620D01*
X0041602Y0068453D01*
X0041282Y0068453D01*
X0041282Y0071553D01*
X0041249Y0071720D01*
X0041155Y0071861D01*
X0041014Y0071955D01*
X0040847Y0071988D01*
X0037184Y0071988D01*
X0037205Y0072009D01*
X0051762Y0072009D01*
X0051762Y0068199D01*
X0051795Y0068032D01*
X0051889Y0067891D01*
X0052030Y0067797D01*
X0052197Y0067764D01*
X0056007Y0067764D01*
X0056174Y0067797D01*
X0056315Y0067891D01*
X0056409Y0068032D01*
X0056442Y0068199D01*
X0056442Y0071374D01*
X0066367Y0071374D01*
X0066367Y0069850D01*
X0066400Y0069683D01*
X0066494Y0069542D01*
X0066635Y0069448D01*
X0066802Y0069415D01*
X0068326Y0069415D01*
X0068493Y0069448D01*
X0068634Y0069542D01*
X0068728Y0069683D01*
X0068761Y0069850D01*
X0068761Y0071374D01*
X0068907Y0071374D01*
X0068907Y0069850D01*
X0068940Y0069683D01*
X0069034Y0069542D01*
X0069175Y0069448D01*
X0069342Y0069415D01*
X0070866Y0069415D01*
X0071033Y0069448D01*
X0071174Y0069542D01*
X0071268Y0069683D01*
X0071301Y0069850D01*
X0071301Y0071374D01*
X0079067Y0071374D01*
X0079067Y0069850D01*
X0079100Y0069683D01*
X0079194Y0069542D01*
X0079335Y0069448D01*
X0079502Y0069415D01*
X0081026Y0069415D01*
X0081193Y0069448D01*
X0081334Y0069542D01*
X0081428Y0069683D01*
X0081461Y0069850D01*
X0081461Y0071374D01*
X0081607Y0071374D01*
X0081607Y0069850D01*
X0081640Y0069683D01*
X0081734Y0069542D01*
X0081875Y0069448D01*
X0082042Y0069415D01*
X0083566Y0069415D01*
X0083733Y0069448D01*
X0083874Y0069542D01*
X0083968Y0069683D01*
X0084001Y0069850D01*
X0084001Y0071374D01*
X0083968Y0071541D01*
X0083874Y0071682D01*
X0083733Y0071776D01*
X0083566Y0071809D01*
X0082042Y0071809D01*
X0081875Y0071776D01*
X0081734Y0071682D01*
X0081640Y0071541D01*
X0081607Y0071374D01*
X0081461Y0071374D01*
X0081428Y0071541D01*
X0081334Y0071682D01*
X0081193Y0071776D01*
X0081026Y0071809D01*
X0079502Y0071809D01*
X0079335Y0071776D01*
X0079194Y0071682D01*
X0079100Y0071541D01*
X0079067Y0071374D01*
X0071301Y0071374D01*
X0071268Y0071541D01*
X0071174Y0071682D01*
X0071033Y0071776D01*
X0070866Y0071809D01*
X0069342Y0071809D01*
X0069175Y0071776D01*
X0069034Y0071682D01*
X0068940Y0071541D01*
X0068907Y0071374D01*
X0068761Y0071374D01*
X0068728Y0071541D01*
X0068634Y0071682D01*
X0068493Y0071776D01*
X0068326Y0071809D01*
X0066802Y0071809D01*
X0066635Y0071776D01*
X0066494Y0071682D01*
X0066400Y0071541D01*
X0066367Y0071374D01*
X0056442Y0071374D01*
X0056442Y0072009D01*
X0056409Y0072176D01*
X0056315Y0072317D01*
X0056174Y0072411D01*
X0056007Y0072444D01*
X0052197Y0072444D01*
X0052030Y0072411D01*
X0051889Y0072317D01*
X0051795Y0072176D01*
X0051762Y0072009D01*
X0037205Y0072009D01*
X0038295Y0073097D01*
X0038924Y0074613D01*
X0038926Y0076255D01*
X0038614Y0077009D01*
X0051762Y0077009D01*
X0051762Y0073199D01*
X0051795Y0073032D01*
X0051889Y0072891D01*
X0052030Y0072797D01*
X0052197Y0072764D01*
X0056007Y0072764D01*
X0056174Y0072797D01*
X0056315Y0072891D01*
X0056409Y0073032D01*
X0056442Y0073199D01*
X0056442Y0073914D01*
X0066367Y0073914D01*
X0066367Y0072390D01*
X0066400Y0072223D01*
X0066494Y0072082D01*
X0066635Y0071988D01*
X0066802Y0071955D01*
X0068326Y0071955D01*
X0068493Y0071988D01*
X0068634Y0072082D01*
X0068728Y0072223D01*
X0068761Y0072390D01*
X0068761Y0073914D01*
X0068907Y0073914D01*
X0068907Y0072390D01*
X0068940Y0072223D01*
X0069034Y0072082D01*
X0069175Y0071988D01*
X0069342Y0071955D01*
X0070866Y0071955D01*
X0071033Y0071988D01*
X0071174Y0072082D01*
X0071268Y0072223D01*
X0071301Y0072390D01*
X0071301Y0073914D01*
X0079067Y0073914D01*
X0079067Y0072390D01*
X0079100Y0072223D01*
X0079194Y0072082D01*
X0079335Y0071988D01*
X0079502Y0071955D01*
X0081026Y0071955D01*
X0081193Y0071988D01*
X0081334Y0072082D01*
X0081428Y0072223D01*
X0081461Y0072390D01*
X0081461Y0073914D01*
X0081607Y0073914D01*
X0081607Y0072390D01*
X0081640Y0072223D01*
X0081734Y0072082D01*
X0081875Y0071988D01*
X0082042Y0071955D01*
X0083566Y0071955D01*
X0083733Y0071988D01*
X0083874Y0072082D01*
X0083968Y0072223D01*
X0084001Y0072390D01*
X0084001Y0073914D01*
X0083968Y0074081D01*
X0083874Y0074222D01*
X0083733Y0074316D01*
X0083566Y0074349D01*
X0082042Y0074349D01*
X0081875Y0074316D01*
X0081734Y0074222D01*
X0081640Y0074081D01*
X0081607Y0073914D01*
X0081461Y0073914D01*
X0081428Y0074081D01*
X0081334Y0074222D01*
X0081193Y0074316D01*
X0081026Y0074349D01*
X0079502Y0074349D01*
X0079335Y0074316D01*
X0079194Y0074222D01*
X0079100Y0074081D01*
X0079067Y0073914D01*
X0071301Y0073914D01*
X0071268Y0074081D01*
X0071174Y0074222D01*
X0071033Y0074316D01*
X0070866Y0074349D01*
X0069342Y0074349D01*
X0069175Y0074316D01*
X0069034Y0074222D01*
X0068940Y0074081D01*
X0068907Y0073914D01*
X0068761Y0073914D01*
X0068728Y0074081D01*
X0068634Y0074222D01*
X0068493Y0074316D01*
X0068326Y0074349D01*
X0066802Y0074349D01*
X0066635Y0074316D01*
X0066494Y0074222D01*
X0066400Y0074081D01*
X0066367Y0073914D01*
X0056442Y0073914D01*
X0056442Y0074621D01*
X0101790Y0074621D01*
X0102417Y0073103D01*
X0103577Y0071941D01*
X0105093Y0071312D01*
X0106735Y0071310D01*
X0108253Y0071937D01*
X0109415Y0073097D01*
X0110044Y0074613D01*
X0110046Y0076255D01*
X0109419Y0077773D01*
X0108259Y0078935D01*
X0106743Y0079564D01*
X0105101Y0079566D01*
X0103583Y0078939D01*
X0102421Y0077779D01*
X0101792Y0076263D01*
X0101790Y0074621D01*
X0056442Y0074621D01*
X0056442Y0077009D01*
X0056421Y0077118D01*
X0064771Y0077118D01*
X0065041Y0076465D01*
X0065540Y0075964D01*
X0066193Y0075693D01*
X0066900Y0075693D01*
X0067553Y0075963D01*
X0068054Y0076462D01*
X0068325Y0077115D01*
X0068325Y0077118D01*
X0079757Y0077118D01*
X0080027Y0076465D01*
X0080526Y0075964D01*
X0081179Y0075693D01*
X0081886Y0075693D01*
X0082539Y0075963D01*
X0083040Y0076462D01*
X0083311Y0077115D01*
X0083311Y0077822D01*
X0083041Y0078475D01*
X0082542Y0078976D01*
X0081889Y0079247D01*
X0081182Y0079247D01*
X0080529Y0078977D01*
X0080028Y0078478D01*
X0079757Y0077825D01*
X0079757Y0077118D01*
X0068325Y0077118D01*
X0068325Y0077822D01*
X0068055Y0078475D01*
X0067556Y0078976D01*
X0066903Y0079247D01*
X0066196Y0079247D01*
X0065543Y0078977D01*
X0065042Y0078478D01*
X0064771Y0077825D01*
X0064771Y0077118D01*
X0056421Y0077118D01*
X0056409Y0077176D01*
X0056315Y0077317D01*
X0056174Y0077411D01*
X0056007Y0077444D01*
X0052197Y0077444D01*
X0052030Y0077411D01*
X0051889Y0077317D01*
X0051795Y0077176D01*
X0051762Y0077009D01*
X0038614Y0077009D01*
X0038299Y0077773D01*
X0037139Y0078935D01*
X0035623Y0079564D01*
X0033981Y0079566D01*
X0032463Y0078939D01*
X0031301Y0077779D01*
X0030672Y0076263D01*
X0030670Y0074621D01*
X0030474Y0074621D01*
X0030474Y0079762D01*
X0110242Y0079762D01*
X0110242Y0040634D01*
X0110744Y0000000D02*
%LPD*%
G01*
D20*
D50*
X0115570Y0004826D03*
X0115570Y0035306D03*
X0135890Y0004826D03*
X0135890Y0035306D03*
D24*
X0114046Y0018796D03*
X0116586Y0018796D03*
X0114046Y0016256D03*
X0116586Y0016256D03*
X0114046Y0013716D03*
X0116586Y0013716D03*
X0114046Y0011176D03*
X0116586Y0011176D03*
X0137668Y0010922D03*
X0135128Y0010922D03*
X0137668Y0013462D03*
X0135128Y0013462D03*
X0137668Y0016002D03*
X0135128Y0016002D03*
X0137668Y0018542D03*
X0135128Y0018542D03*
D32*
X0121412Y0010668D03*
X0131064Y0009398D03*
X0131064Y0008382D03*
X0130048Y0008382D03*
X0130048Y0009398D03*
X0129032Y0009398D03*
X0129032Y0008382D03*
X0128016Y0008382D03*
X0128016Y0009398D03*
X0127000Y0009398D03*
X0127000Y0008382D03*
X0125984Y0008382D03*
X0125984Y0009398D03*
X0124968Y0009398D03*
X0124968Y0008382D03*
X0123952Y0008382D03*
X0123952Y0009398D03*
X0122936Y0009398D03*
X0122936Y0008382D03*
X0121920Y0008382D03*
X0121920Y0009398D03*
X0120904Y0009398D03*
X0120904Y0008382D03*
X0120904Y0002286D03*
X0120904Y0003302D03*
X0120904Y0004318D03*
X0120904Y0005334D03*
X0120904Y0006350D03*
X0120904Y0007366D03*
X0121920Y0007366D03*
X0121920Y0006350D03*
X0121920Y0005334D03*
X0121920Y0004318D03*
X0121920Y0003302D03*
X0121920Y0002286D03*
X0122936Y0002286D03*
X0122936Y0003302D03*
X0122936Y0004318D03*
X0122936Y0005334D03*
X0122936Y0006350D03*
X0122936Y0007366D03*
X0123952Y0007366D03*
X0123952Y0006350D03*
X0123952Y0005334D03*
X0123952Y0004318D03*
X0123952Y0003302D03*
X0123952Y0002286D03*
X0124968Y0002286D03*
X0124968Y0003302D03*
X0124968Y0004318D03*
X0124968Y0005334D03*
X0124968Y0006350D03*
X0124968Y0007366D03*
X0125984Y0002286D03*
X0125984Y0003302D03*
X0125984Y0004318D03*
X0125984Y0005334D03*
X0125984Y0006350D03*
X0125984Y0007366D03*
X0127000Y0007366D03*
X0127000Y0006350D03*
X0127000Y0005334D03*
X0127000Y0004318D03*
X0127000Y0003302D03*
X0127000Y0002286D03*
X0128016Y0007366D03*
X0128016Y0006350D03*
X0128016Y0005334D03*
X0128016Y0004318D03*
X0128016Y0003302D03*
X0128016Y0002286D03*
X0129032Y0002286D03*
X0129032Y0003302D03*
X0129032Y0004318D03*
X0129032Y0005334D03*
X0129032Y0006350D03*
X0129032Y0007366D03*
X0130048Y0007366D03*
X0130048Y0006350D03*
X0130048Y0005334D03*
X0130048Y0004318D03*
X0130048Y0003302D03*
X0130048Y0002286D03*
X0131064Y0007366D03*
X0131064Y0006350D03*
X0131064Y0005334D03*
X0131064Y0004318D03*
X0131064Y0003302D03*
X0131064Y0002286D03*
X0131064Y0001270D03*
X0130048Y0001270D03*
X0129032Y0001270D03*
X0128016Y0001270D03*
X0127000Y0001270D03*
X0125984Y0001270D03*
X0124968Y0001270D03*
X0123952Y0001270D03*
X0122936Y0001270D03*
X0121920Y0001270D03*
X0120904Y0001270D03*
X0112268Y0031496D03*
X0113538Y0026162D03*
X0113538Y0024638D03*
X0113538Y0020574D03*
X0118618Y0010160D03*
X0117602Y0009398D03*
X0116586Y0009398D03*
X0115316Y0009398D03*
X0114046Y0009398D03*
X0137668Y0009398D03*
X0136398Y0009398D03*
X0135128Y0009398D03*
X0138430Y0028956D03*
X0138430Y0029972D03*
X0137160Y0029972D03*
X0137160Y0028956D03*
X0139446Y0024130D03*
X0139446Y0022352D03*
X0139446Y0020574D03*
X0138176Y0020574D03*
X0136906Y0020574D03*
X0132334Y0023114D03*
X0132334Y0023876D03*
X0131318Y0024638D03*
X0131318Y0025400D03*
X0131318Y0026162D03*
X0131064Y0027178D03*
X0130302Y0027178D03*
X0130302Y0026162D03*
X0130302Y0025400D03*
X0130302Y0024384D03*
X0130048Y0029210D03*
X0130048Y0030226D03*
X0130048Y0031242D03*
X0129032Y0031242D03*
X0129032Y0030226D03*
X0129032Y0029210D03*
X0128016Y0029210D03*
X0127000Y0029210D03*
X0125984Y0029210D03*
X0125984Y0030226D03*
X0127000Y0030226D03*
X0128016Y0030226D03*
X0128016Y0031242D03*
X0127000Y0031242D03*
X0125984Y0031242D03*
X0124968Y0029210D03*
X0124968Y0030226D03*
X0124968Y0031242D03*
X0123952Y0031242D03*
X0123952Y0030226D03*
X0123952Y0029210D03*
X0122936Y0029210D03*
X0122936Y0030226D03*
X0122936Y0031242D03*
X0121920Y0031242D03*
X0121920Y0030226D03*
X0121920Y0029210D03*
X0120904Y0029210D03*
X0120904Y0030226D03*
X0120904Y0031242D03*
X0120904Y0032258D03*
X0121920Y0032258D03*
X0122936Y0032258D03*
X0123952Y0032258D03*
X0124968Y0032258D03*
X0125984Y0032258D03*
X0127000Y0032258D03*
X0128016Y0032258D03*
X0129032Y0032258D03*
X0130048Y0032258D03*
X0130048Y0033274D03*
X0129032Y0033274D03*
X0128016Y0033274D03*
X0127000Y0033274D03*
X0125984Y0033274D03*
X0124968Y0033274D03*
X0123952Y0033274D03*
X0122936Y0033274D03*
X0121920Y0033274D03*
X0120904Y0033274D03*
X0130048Y0034290D03*
X0129032Y0034290D03*
X0128016Y0034290D03*
X0127000Y0034290D03*
X0125984Y0034290D03*
X0124968Y0034290D03*
X0123952Y0034290D03*
X0122936Y0034290D03*
X0121920Y0034290D03*
X0120904Y0034290D03*
X0130048Y0035306D03*
X0129032Y0035306D03*
X0128016Y0035306D03*
X0127000Y0035306D03*
X0125984Y0035306D03*
X0124968Y0035306D03*
X0123952Y0035306D03*
X0122936Y0035306D03*
X0121920Y0035306D03*
X0120904Y0035306D03*
X0120904Y0036322D03*
X0121920Y0036322D03*
X0122936Y0036322D03*
X0123952Y0036322D03*
X0124968Y0036322D03*
X0125984Y0036322D03*
X0127000Y0036322D03*
X0128016Y0036322D03*
X0129032Y0036322D03*
X0130048Y0036322D03*
X0130048Y0037338D03*
X0129032Y0037338D03*
X0128016Y0037338D03*
X0127000Y0037338D03*
X0125984Y0037338D03*
X0124968Y0037338D03*
X0123952Y0037338D03*
X0122936Y0037338D03*
X0121920Y0037338D03*
X0120904Y0037338D03*
D20*
X0113538Y0024638D02*
X0113538Y0026162D01*
X0114046Y0018796D02*
X0114046Y0020066D01*
X0114046Y0020066D02*
X0113538Y0020574D01*
X0117602Y0009398D02*
X0117856Y0009398D01*
X0117856Y0009398D02*
X0118618Y0010160D01*
X0115316Y0009398D02*
X0116586Y0009398D01*
X0114046Y0011176D02*
X0114046Y0009398D01*
X0135128Y0009398D02*
X0136398Y0009398D01*
X0138430Y0029972D02*
X0138430Y0028956D01*
X0137160Y0028956D02*
X0137160Y0029972D01*
X0139446Y0020574D02*
X0139446Y0022352D01*
X0136906Y0020574D02*
X0138176Y0020574D01*
D47*
X0132334Y0023876D02*
X0132334Y0023114D01*
X0131318Y0025400D02*
X0131318Y0024638D01*
X0131064Y0027178D02*
X0131064Y0026416D01*
X0131064Y0026416D02*
X0131318Y0026162D01*
X0130302Y0026162D02*
X0130302Y0027178D01*
X0130302Y0024384D02*
X0130302Y0025400D01*
D18*
G36*
X0133555Y0038807D02*
X0132393Y0037647D01*
X0131764Y0036131D01*
X0131762Y0034489D01*
X0132389Y0032971D01*
X0133549Y0031809D01*
X0135065Y0031180D01*
X0136707Y0031178D01*
X0138225Y0031805D01*
X0139387Y0032965D01*
X0140006Y0034457D01*
X0140006Y0005672D01*
X0139391Y0007161D01*
X0138231Y0008323D01*
X0136715Y0008952D01*
X0135073Y0008954D01*
X0133555Y0008327D01*
X0132393Y0007167D01*
X0131764Y0005651D01*
X0131762Y0004009D01*
X0132389Y0002491D01*
X0133549Y0001329D01*
X0135041Y0000710D01*
X0116416Y0000710D01*
X0117905Y0001325D01*
X0119067Y0002485D01*
X0119696Y0004001D01*
X0119698Y0005643D01*
X0119071Y0007161D01*
X0117911Y0008323D01*
X0116395Y0008952D01*
X0114753Y0008954D01*
X0113235Y0008327D01*
X0112073Y0007167D01*
X0111454Y0005675D01*
X0111454Y0017018D01*
X0112637Y0017018D01*
X0112637Y0015494D01*
X0112686Y0015246D01*
X0112826Y0015036D01*
X0112901Y0014986D01*
X0112826Y0014936D01*
X0112686Y0014726D01*
X0112637Y0014478D01*
X0112637Y0012954D01*
X0112686Y0012706D01*
X0112826Y0012496D01*
X0113036Y0012356D01*
X0113284Y0012307D01*
X0114808Y0012307D01*
X0115056Y0012356D01*
X0115266Y0012496D01*
X0115316Y0012571D01*
X0115366Y0012496D01*
X0115576Y0012356D01*
X0115824Y0012307D01*
X0117348Y0012307D01*
X0117596Y0012356D01*
X0117806Y0012496D01*
X0117946Y0012706D01*
X0117995Y0012954D01*
X0117995Y0014478D01*
X0117946Y0014726D01*
X0117806Y0014936D01*
X0117731Y0014986D01*
X0117806Y0015036D01*
X0117946Y0015246D01*
X0117995Y0015494D01*
X0117995Y0016764D01*
X0133719Y0016764D01*
X0133719Y0015240D01*
X0133768Y0014992D01*
X0133908Y0014782D01*
X0133983Y0014732D01*
X0133908Y0014682D01*
X0133768Y0014472D01*
X0133719Y0014224D01*
X0133719Y0012700D01*
X0133768Y0012452D01*
X0133908Y0012242D01*
X0134118Y0012102D01*
X0134366Y0012053D01*
X0135890Y0012053D01*
X0136138Y0012102D01*
X0136348Y0012242D01*
X0136398Y0012317D01*
X0136448Y0012242D01*
X0136658Y0012102D01*
X0136906Y0012053D01*
X0138430Y0012053D01*
X0138678Y0012102D01*
X0138888Y0012242D01*
X0139028Y0012452D01*
X0139077Y0012700D01*
X0139077Y0014224D01*
X0139028Y0014472D01*
X0138888Y0014682D01*
X0138813Y0014732D01*
X0138888Y0014782D01*
X0139028Y0014992D01*
X0139077Y0015240D01*
X0139077Y0016764D01*
X0139028Y0017012D01*
X0138888Y0017222D01*
X0138678Y0017362D01*
X0138430Y0017411D01*
X0136906Y0017411D01*
X0136658Y0017362D01*
X0136448Y0017222D01*
X0136398Y0017147D01*
X0136348Y0017222D01*
X0136138Y0017362D01*
X0135890Y0017411D01*
X0134366Y0017411D01*
X0134118Y0017362D01*
X0133908Y0017222D01*
X0133768Y0017012D01*
X0133719Y0016764D01*
X0117995Y0016764D01*
X0117995Y0017018D01*
X0117946Y0017266D01*
X0117806Y0017476D01*
X0117596Y0017616D01*
X0117348Y0017665D01*
X0115824Y0017665D01*
X0115576Y0017616D01*
X0115366Y0017476D01*
X0115316Y0017401D01*
X0115266Y0017476D01*
X0115056Y0017616D01*
X0114808Y0017665D01*
X0113284Y0017665D01*
X0113036Y0017616D01*
X0112826Y0017476D01*
X0112686Y0017266D01*
X0112637Y0017018D01*
X0111454Y0017018D01*
X0111454Y0034460D01*
X0112069Y0032971D01*
X0113229Y0031809D01*
X0114745Y0031180D01*
X0116387Y0031178D01*
X0117905Y0031805D01*
X0119067Y0032965D01*
X0119696Y0034481D01*
X0119698Y0036123D01*
X0119071Y0037641D01*
X0118866Y0037846D01*
X0119761Y0037846D01*
X0119761Y0028702D01*
X0119809Y0028459D01*
X0119947Y0028253D01*
X0120153Y0028115D01*
X0120396Y0028067D01*
X0130556Y0028067D01*
X0130799Y0028115D01*
X0131005Y0028253D01*
X0131143Y0028459D01*
X0131191Y0028702D01*
X0131191Y0037846D01*
X0131143Y0038089D01*
X0131005Y0038295D01*
X0130799Y0038433D01*
X0130556Y0038481D01*
X0120396Y0038481D01*
X0120153Y0038433D01*
X0119947Y0038295D01*
X0119809Y0038089D01*
X0119761Y0037846D01*
X0118866Y0037846D01*
X0117911Y0038803D01*
X0116419Y0039422D01*
X0135044Y0039422D01*
X0133555Y0038807D01*
X0133555Y0038807D01*
G37*
X0133555Y0038807D02*
X0132393Y0037647D01*
X0131764Y0036131D01*
X0131762Y0034489D01*
X0132389Y0032971D01*
X0133549Y0031809D01*
X0135065Y0031180D01*
X0136707Y0031178D01*
X0138225Y0031805D01*
X0139387Y0032965D01*
X0140006Y0034457D01*
X0140006Y0005672D01*
X0139391Y0007161D01*
X0138231Y0008323D01*
X0136715Y0008952D01*
X0135073Y0008954D01*
X0133555Y0008327D01*
X0132393Y0007167D01*
X0131764Y0005651D01*
X0131762Y0004009D01*
X0132389Y0002491D01*
X0133549Y0001329D01*
X0135041Y0000710D01*
X0116416Y0000710D01*
X0117905Y0001325D01*
X0119067Y0002485D01*
X0119696Y0004001D01*
X0119698Y0005643D01*
X0119071Y0007161D01*
X0117911Y0008323D01*
X0116395Y0008952D01*
X0114753Y0008954D01*
X0113235Y0008327D01*
X0112073Y0007167D01*
X0111454Y0005675D01*
X0111454Y0017018D01*
X0112637Y0017018D01*
X0112637Y0015494D01*
X0112686Y0015246D01*
X0112826Y0015036D01*
X0112901Y0014986D01*
X0112826Y0014936D01*
X0112686Y0014726D01*
X0112637Y0014478D01*
X0112637Y0012954D01*
X0112686Y0012706D01*
X0112826Y0012496D01*
X0113036Y0012356D01*
X0113284Y0012307D01*
X0114808Y0012307D01*
X0115056Y0012356D01*
X0115266Y0012496D01*
X0115316Y0012571D01*
X0115366Y0012496D01*
X0115576Y0012356D01*
X0115824Y0012307D01*
X0117348Y0012307D01*
X0117596Y0012356D01*
X0117806Y0012496D01*
X0117946Y0012706D01*
X0117995Y0012954D01*
X0117995Y0014478D01*
X0117946Y0014726D01*
X0117806Y0014936D01*
X0117731Y0014986D01*
X0117806Y0015036D01*
X0117946Y0015246D01*
X0117995Y0015494D01*
X0117995Y0016764D01*
X0133719Y0016764D01*
X0133719Y0015240D01*
X0133768Y0014992D01*
X0133908Y0014782D01*
X0133983Y0014732D01*
X0133908Y0014682D01*
X0133768Y0014472D01*
X0133719Y0014224D01*
X0133719Y0012700D01*
X0133768Y0012452D01*
X0133908Y0012242D01*
X0134118Y0012102D01*
X0134366Y0012053D01*
X0135890Y0012053D01*
X0136138Y0012102D01*
X0136348Y0012242D01*
X0136398Y0012317D01*
X0136448Y0012242D01*
X0136658Y0012102D01*
X0136906Y0012053D01*
X0138430Y0012053D01*
X0138678Y0012102D01*
X0138888Y0012242D01*
X0139028Y0012452D01*
X0139077Y0012700D01*
X0139077Y0014224D01*
X0139028Y0014472D01*
X0138888Y0014682D01*
X0138813Y0014732D01*
X0138888Y0014782D01*
X0139028Y0014992D01*
X0139077Y0015240D01*
X0139077Y0016764D01*
X0139028Y0017012D01*
X0138888Y0017222D01*
X0138678Y0017362D01*
X0138430Y0017411D01*
X0136906Y0017411D01*
X0136658Y0017362D01*
X0136448Y0017222D01*
X0136398Y0017147D01*
X0136348Y0017222D01*
X0136138Y0017362D01*
X0135890Y0017411D01*
X0134366Y0017411D01*
X0134118Y0017362D01*
X0133908Y0017222D01*
X0133768Y0017012D01*
X0133719Y0016764D01*
X0117995Y0016764D01*
X0117995Y0017018D01*
X0117946Y0017266D01*
X0117806Y0017476D01*
X0117596Y0017616D01*
X0117348Y0017665D01*
X0115824Y0017665D01*
X0115576Y0017616D01*
X0115366Y0017476D01*
X0115316Y0017401D01*
X0115266Y0017476D01*
X0115056Y0017616D01*
X0114808Y0017665D01*
X0113284Y0017665D01*
X0113036Y0017616D01*
X0112826Y0017476D01*
X0112686Y0017266D01*
X0112637Y0017018D01*
X0111454Y0017018D01*
X0111454Y0034460D01*
X0112069Y0032971D01*
X0113229Y0031809D01*
X0114745Y0031180D01*
X0116387Y0031178D01*
X0117905Y0031805D01*
X0119067Y0032965D01*
X0119696Y0034481D01*
X0119698Y0036123D01*
X0119071Y0037641D01*
X0118866Y0037846D01*
X0119761Y0037846D01*
X0119761Y0028702D01*
X0119809Y0028459D01*
X0119947Y0028253D01*
X0120153Y0028115D01*
X0120396Y0028067D01*
X0130556Y0028067D01*
X0130799Y0028115D01*
X0131005Y0028253D01*
X0131143Y0028459D01*
X0131191Y0028702D01*
X0131191Y0037846D01*
X0131143Y0038089D01*
X0131005Y0038295D01*
X0130799Y0038433D01*
X0130556Y0038481D01*
X0120396Y0038481D01*
X0120153Y0038433D01*
X0119947Y0038295D01*
X0119809Y0038089D01*
X0119761Y0037846D01*
X0118866Y0037846D01*
X0117911Y0038803D01*
X0116419Y0039422D01*
X0135044Y0039422D01*
X0133555Y0038807D01*
G36*
X0130429Y0028829D02*
X0120523Y0028829D01*
X0120523Y0037719D01*
X0130429Y0037719D01*
X0130429Y0028829D01*
X0130429Y0028829D01*
G37*
X0130429Y0028829D02*
X0120523Y0028829D01*
X0120523Y0037719D01*
X0130429Y0037719D01*
X0130429Y0028829D01*
X0110744Y0040132D02*
%LPD*%
G01*
D20*
D50*
X0115570Y0044958D03*
X0115570Y0075438D03*
X0135890Y0044958D03*
X0135890Y0075438D03*
D24*
X0114046Y0058928D03*
X0116586Y0058928D03*
X0114046Y0056388D03*
X0116586Y0056388D03*
X0114046Y0053848D03*
X0116586Y0053848D03*
X0114046Y0051308D03*
X0116586Y0051308D03*
X0137668Y0051054D03*
X0135128Y0051054D03*
X0137668Y0053594D03*
X0135128Y0053594D03*
X0137668Y0056134D03*
X0135128Y0056134D03*
X0137668Y0058674D03*
X0135128Y0058674D03*
D32*
X0121412Y0050800D03*
X0131064Y0049530D03*
X0131064Y0048514D03*
X0130048Y0048514D03*
X0130048Y0049530D03*
X0129032Y0049530D03*
X0129032Y0048514D03*
X0128016Y0048514D03*
X0128016Y0049530D03*
X0127000Y0049530D03*
X0127000Y0048514D03*
X0125984Y0048514D03*
X0125984Y0049530D03*
X0124968Y0049530D03*
X0124968Y0048514D03*
X0123952Y0048514D03*
X0123952Y0049530D03*
X0122936Y0049530D03*
X0122936Y0048514D03*
X0121920Y0048514D03*
X0121920Y0049530D03*
X0120904Y0049530D03*
X0120904Y0048514D03*
X0120904Y0042418D03*
X0120904Y0043434D03*
X0120904Y0044450D03*
X0120904Y0045466D03*
X0120904Y0046482D03*
X0120904Y0047498D03*
X0121920Y0047498D03*
X0121920Y0046482D03*
X0121920Y0045466D03*
X0121920Y0044450D03*
X0121920Y0043434D03*
X0121920Y0042418D03*
X0122936Y0042418D03*
X0122936Y0043434D03*
X0122936Y0044450D03*
X0122936Y0045466D03*
X0122936Y0046482D03*
X0122936Y0047498D03*
X0123952Y0047498D03*
X0123952Y0046482D03*
X0123952Y0045466D03*
X0123952Y0044450D03*
X0123952Y0043434D03*
X0123952Y0042418D03*
X0124968Y0042418D03*
X0124968Y0043434D03*
X0124968Y0044450D03*
X0124968Y0045466D03*
X0124968Y0046482D03*
X0124968Y0047498D03*
X0125984Y0042418D03*
X0125984Y0043434D03*
X0125984Y0044450D03*
X0125984Y0045466D03*
X0125984Y0046482D03*
X0125984Y0047498D03*
X0127000Y0047498D03*
X0127000Y0046482D03*
X0127000Y0045466D03*
X0127000Y0044450D03*
X0127000Y0043434D03*
X0127000Y0042418D03*
X0128016Y0047498D03*
X0128016Y0046482D03*
X0128016Y0045466D03*
X0128016Y0044450D03*
X0128016Y0043434D03*
X0128016Y0042418D03*
X0129032Y0042418D03*
X0129032Y0043434D03*
X0129032Y0044450D03*
X0129032Y0045466D03*
X0129032Y0046482D03*
X0129032Y0047498D03*
X0130048Y0047498D03*
X0130048Y0046482D03*
X0130048Y0045466D03*
X0130048Y0044450D03*
X0130048Y0043434D03*
X0130048Y0042418D03*
X0131064Y0047498D03*
X0131064Y0046482D03*
X0131064Y0045466D03*
X0131064Y0044450D03*
X0131064Y0043434D03*
X0131064Y0042418D03*
X0131064Y0041402D03*
X0130048Y0041402D03*
X0129032Y0041402D03*
X0128016Y0041402D03*
X0127000Y0041402D03*
X0125984Y0041402D03*
X0124968Y0041402D03*
X0123952Y0041402D03*
X0122936Y0041402D03*
X0121920Y0041402D03*
X0120904Y0041402D03*
X0112268Y0071628D03*
X0113538Y0066294D03*
X0113538Y0064770D03*
X0113538Y0060706D03*
X0118618Y0050292D03*
X0117602Y0049530D03*
X0116586Y0049530D03*
X0115316Y0049530D03*
X0114046Y0049530D03*
X0137668Y0049530D03*
X0136398Y0049530D03*
X0135128Y0049530D03*
X0138430Y0069088D03*
X0138430Y0070104D03*
X0137160Y0070104D03*
X0137160Y0069088D03*
X0139446Y0064262D03*
X0139446Y0062484D03*
X0139446Y0060706D03*
X0138176Y0060706D03*
X0136906Y0060706D03*
X0132334Y0063246D03*
X0132334Y0064008D03*
X0131318Y0064770D03*
X0131318Y0065532D03*
X0131318Y0066294D03*
X0131064Y0067310D03*
X0130302Y0067310D03*
X0130302Y0066294D03*
X0130302Y0065532D03*
X0130302Y0064516D03*
X0130048Y0069342D03*
X0130048Y0070358D03*
X0130048Y0071374D03*
X0129032Y0071374D03*
X0129032Y0070358D03*
X0129032Y0069342D03*
X0128016Y0069342D03*
X0127000Y0069342D03*
X0125984Y0069342D03*
X0125984Y0070358D03*
X0127000Y0070358D03*
X0128016Y0070358D03*
X0128016Y0071374D03*
X0127000Y0071374D03*
X0125984Y0071374D03*
X0124968Y0069342D03*
X0124968Y0070358D03*
X0124968Y0071374D03*
X0123952Y0071374D03*
X0123952Y0070358D03*
X0123952Y0069342D03*
X0122936Y0069342D03*
X0122936Y0070358D03*
X0122936Y0071374D03*
X0121920Y0071374D03*
X0121920Y0070358D03*
X0121920Y0069342D03*
X0120904Y0069342D03*
X0120904Y0070358D03*
X0120904Y0071374D03*
X0120904Y0072390D03*
X0121920Y0072390D03*
X0122936Y0072390D03*
X0123952Y0072390D03*
X0124968Y0072390D03*
X0125984Y0072390D03*
X0127000Y0072390D03*
X0128016Y0072390D03*
X0129032Y0072390D03*
X0130048Y0072390D03*
X0130048Y0073406D03*
X0129032Y0073406D03*
X0128016Y0073406D03*
X0127000Y0073406D03*
X0125984Y0073406D03*
X0124968Y0073406D03*
X0123952Y0073406D03*
X0122936Y0073406D03*
X0121920Y0073406D03*
X0120904Y0073406D03*
X0130048Y0074422D03*
X0129032Y0074422D03*
X0128016Y0074422D03*
X0127000Y0074422D03*
X0125984Y0074422D03*
X0124968Y0074422D03*
X0123952Y0074422D03*
X0122936Y0074422D03*
X0121920Y0074422D03*
X0120904Y0074422D03*
X0130048Y0075438D03*
X0129032Y0075438D03*
X0128016Y0075438D03*
X0127000Y0075438D03*
X0125984Y0075438D03*
X0124968Y0075438D03*
X0123952Y0075438D03*
X0122936Y0075438D03*
X0121920Y0075438D03*
X0120904Y0075438D03*
X0120904Y0076454D03*
X0121920Y0076454D03*
X0122936Y0076454D03*
X0123952Y0076454D03*
X0124968Y0076454D03*
X0125984Y0076454D03*
X0127000Y0076454D03*
X0128016Y0076454D03*
X0129032Y0076454D03*
X0130048Y0076454D03*
X0130048Y0077470D03*
X0129032Y0077470D03*
X0128016Y0077470D03*
X0127000Y0077470D03*
X0125984Y0077470D03*
X0124968Y0077470D03*
X0123952Y0077470D03*
X0122936Y0077470D03*
X0121920Y0077470D03*
X0120904Y0077470D03*
D20*
X0113538Y0064770D02*
X0113538Y0066294D01*
X0114046Y0058928D02*
X0114046Y0060198D01*
X0114046Y0060198D02*
X0113538Y0060706D01*
X0117602Y0049530D02*
X0117856Y0049530D01*
X0117856Y0049530D02*
X0118618Y0050292D01*
X0115316Y0049530D02*
X0116586Y0049530D01*
X0114046Y0051308D02*
X0114046Y0049530D01*
X0135128Y0049530D02*
X0136398Y0049530D01*
X0138430Y0070104D02*
X0138430Y0069088D01*
X0137160Y0069088D02*
X0137160Y0070104D01*
X0139446Y0060706D02*
X0139446Y0062484D01*
X0136906Y0060706D02*
X0138176Y0060706D01*
D47*
X0132334Y0064008D02*
X0132334Y0063246D01*
X0131318Y0065532D02*
X0131318Y0064770D01*
X0131064Y0067310D02*
X0131064Y0066548D01*
X0131064Y0066548D02*
X0131318Y0066294D01*
X0130302Y0066294D02*
X0130302Y0067310D01*
X0130302Y0064516D02*
X0130302Y0065532D01*
D18*
G36*
X0133555Y0078939D02*
X0132393Y0077779D01*
X0131764Y0076263D01*
X0131762Y0074621D01*
X0132389Y0073103D01*
X0133549Y0071941D01*
X0135065Y0071312D01*
X0136707Y0071310D01*
X0138225Y0071937D01*
X0139387Y0073097D01*
X0140006Y0074589D01*
X0140006Y0045804D01*
X0139391Y0047293D01*
X0138231Y0048455D01*
X0136715Y0049084D01*
X0135073Y0049086D01*
X0133555Y0048459D01*
X0132393Y0047299D01*
X0131764Y0045783D01*
X0131762Y0044141D01*
X0132389Y0042623D01*
X0133549Y0041461D01*
X0135041Y0040842D01*
X0116416Y0040842D01*
X0117905Y0041457D01*
X0119067Y0042617D01*
X0119696Y0044133D01*
X0119698Y0045775D01*
X0119071Y0047293D01*
X0117911Y0048455D01*
X0116395Y0049084D01*
X0114753Y0049086D01*
X0113235Y0048459D01*
X0112073Y0047299D01*
X0111454Y0045807D01*
X0111454Y0057150D01*
X0112637Y0057150D01*
X0112637Y0055626D01*
X0112686Y0055378D01*
X0112826Y0055168D01*
X0112901Y0055118D01*
X0112826Y0055068D01*
X0112686Y0054858D01*
X0112637Y0054610D01*
X0112637Y0053086D01*
X0112686Y0052838D01*
X0112826Y0052628D01*
X0113036Y0052488D01*
X0113284Y0052439D01*
X0114808Y0052439D01*
X0115056Y0052488D01*
X0115266Y0052628D01*
X0115316Y0052703D01*
X0115366Y0052628D01*
X0115576Y0052488D01*
X0115824Y0052439D01*
X0117348Y0052439D01*
X0117596Y0052488D01*
X0117806Y0052628D01*
X0117946Y0052838D01*
X0117995Y0053086D01*
X0117995Y0054610D01*
X0117946Y0054858D01*
X0117806Y0055068D01*
X0117731Y0055118D01*
X0117806Y0055168D01*
X0117946Y0055378D01*
X0117995Y0055626D01*
X0117995Y0056896D01*
X0133719Y0056896D01*
X0133719Y0055372D01*
X0133768Y0055124D01*
X0133908Y0054914D01*
X0133983Y0054864D01*
X0133908Y0054814D01*
X0133768Y0054604D01*
X0133719Y0054356D01*
X0133719Y0052832D01*
X0133768Y0052584D01*
X0133908Y0052374D01*
X0134118Y0052234D01*
X0134366Y0052185D01*
X0135890Y0052185D01*
X0136138Y0052234D01*
X0136348Y0052374D01*
X0136398Y0052449D01*
X0136448Y0052374D01*
X0136658Y0052234D01*
X0136906Y0052185D01*
X0138430Y0052185D01*
X0138678Y0052234D01*
X0138888Y0052374D01*
X0139028Y0052584D01*
X0139077Y0052832D01*
X0139077Y0054356D01*
X0139028Y0054604D01*
X0138888Y0054814D01*
X0138813Y0054864D01*
X0138888Y0054914D01*
X0139028Y0055124D01*
X0139077Y0055372D01*
X0139077Y0056896D01*
X0139028Y0057144D01*
X0138888Y0057354D01*
X0138678Y0057494D01*
X0138430Y0057543D01*
X0136906Y0057543D01*
X0136658Y0057494D01*
X0136448Y0057354D01*
X0136398Y0057279D01*
X0136348Y0057354D01*
X0136138Y0057494D01*
X0135890Y0057543D01*
X0134366Y0057543D01*
X0134118Y0057494D01*
X0133908Y0057354D01*
X0133768Y0057144D01*
X0133719Y0056896D01*
X0117995Y0056896D01*
X0117995Y0057150D01*
X0117946Y0057398D01*
X0117806Y0057608D01*
X0117596Y0057748D01*
X0117348Y0057797D01*
X0115824Y0057797D01*
X0115576Y0057748D01*
X0115366Y0057608D01*
X0115316Y0057533D01*
X0115266Y0057608D01*
X0115056Y0057748D01*
X0114808Y0057797D01*
X0113284Y0057797D01*
X0113036Y0057748D01*
X0112826Y0057608D01*
X0112686Y0057398D01*
X0112637Y0057150D01*
X0111454Y0057150D01*
X0111454Y0074592D01*
X0112069Y0073103D01*
X0113229Y0071941D01*
X0114745Y0071312D01*
X0116387Y0071310D01*
X0117905Y0071937D01*
X0119067Y0073097D01*
X0119696Y0074613D01*
X0119698Y0076255D01*
X0119071Y0077773D01*
X0118866Y0077978D01*
X0119761Y0077978D01*
X0119761Y0068834D01*
X0119809Y0068591D01*
X0119947Y0068385D01*
X0120153Y0068247D01*
X0120396Y0068199D01*
X0130556Y0068199D01*
X0130799Y0068247D01*
X0131005Y0068385D01*
X0131143Y0068591D01*
X0131191Y0068834D01*
X0131191Y0077978D01*
X0131143Y0078221D01*
X0131005Y0078427D01*
X0130799Y0078565D01*
X0130556Y0078613D01*
X0120396Y0078613D01*
X0120153Y0078565D01*
X0119947Y0078427D01*
X0119809Y0078221D01*
X0119761Y0077978D01*
X0118866Y0077978D01*
X0117911Y0078935D01*
X0116419Y0079554D01*
X0135044Y0079554D01*
X0133555Y0078939D01*
X0133555Y0078939D01*
G37*
X0133555Y0078939D02*
X0132393Y0077779D01*
X0131764Y0076263D01*
X0131762Y0074621D01*
X0132389Y0073103D01*
X0133549Y0071941D01*
X0135065Y0071312D01*
X0136707Y0071310D01*
X0138225Y0071937D01*
X0139387Y0073097D01*
X0140006Y0074589D01*
X0140006Y0045804D01*
X0139391Y0047293D01*
X0138231Y0048455D01*
X0136715Y0049084D01*
X0135073Y0049086D01*
X0133555Y0048459D01*
X0132393Y0047299D01*
X0131764Y0045783D01*
X0131762Y0044141D01*
X0132389Y0042623D01*
X0133549Y0041461D01*
X0135041Y0040842D01*
X0116416Y0040842D01*
X0117905Y0041457D01*
X0119067Y0042617D01*
X0119696Y0044133D01*
X0119698Y0045775D01*
X0119071Y0047293D01*
X0117911Y0048455D01*
X0116395Y0049084D01*
X0114753Y0049086D01*
X0113235Y0048459D01*
X0112073Y0047299D01*
X0111454Y0045807D01*
X0111454Y0057150D01*
X0112637Y0057150D01*
X0112637Y0055626D01*
X0112686Y0055378D01*
X0112826Y0055168D01*
X0112901Y0055118D01*
X0112826Y0055068D01*
X0112686Y0054858D01*
X0112637Y0054610D01*
X0112637Y0053086D01*
X0112686Y0052838D01*
X0112826Y0052628D01*
X0113036Y0052488D01*
X0113284Y0052439D01*
X0114808Y0052439D01*
X0115056Y0052488D01*
X0115266Y0052628D01*
X0115316Y0052703D01*
X0115366Y0052628D01*
X0115576Y0052488D01*
X0115824Y0052439D01*
X0117348Y0052439D01*
X0117596Y0052488D01*
X0117806Y0052628D01*
X0117946Y0052838D01*
X0117995Y0053086D01*
X0117995Y0054610D01*
X0117946Y0054858D01*
X0117806Y0055068D01*
X0117731Y0055118D01*
X0117806Y0055168D01*
X0117946Y0055378D01*
X0117995Y0055626D01*
X0117995Y0056896D01*
X0133719Y0056896D01*
X0133719Y0055372D01*
X0133768Y0055124D01*
X0133908Y0054914D01*
X0133983Y0054864D01*
X0133908Y0054814D01*
X0133768Y0054604D01*
X0133719Y0054356D01*
X0133719Y0052832D01*
X0133768Y0052584D01*
X0133908Y0052374D01*
X0134118Y0052234D01*
X0134366Y0052185D01*
X0135890Y0052185D01*
X0136138Y0052234D01*
X0136348Y0052374D01*
X0136398Y0052449D01*
X0136448Y0052374D01*
X0136658Y0052234D01*
X0136906Y0052185D01*
X0138430Y0052185D01*
X0138678Y0052234D01*
X0138888Y0052374D01*
X0139028Y0052584D01*
X0139077Y0052832D01*
X0139077Y0054356D01*
X0139028Y0054604D01*
X0138888Y0054814D01*
X0138813Y0054864D01*
X0138888Y0054914D01*
X0139028Y0055124D01*
X0139077Y0055372D01*
X0139077Y0056896D01*
X0139028Y0057144D01*
X0138888Y0057354D01*
X0138678Y0057494D01*
X0138430Y0057543D01*
X0136906Y0057543D01*
X0136658Y0057494D01*
X0136448Y0057354D01*
X0136398Y0057279D01*
X0136348Y0057354D01*
X0136138Y0057494D01*
X0135890Y0057543D01*
X0134366Y0057543D01*
X0134118Y0057494D01*
X0133908Y0057354D01*
X0133768Y0057144D01*
X0133719Y0056896D01*
X0117995Y0056896D01*
X0117995Y0057150D01*
X0117946Y0057398D01*
X0117806Y0057608D01*
X0117596Y0057748D01*
X0117348Y0057797D01*
X0115824Y0057797D01*
X0115576Y0057748D01*
X0115366Y0057608D01*
X0115316Y0057533D01*
X0115266Y0057608D01*
X0115056Y0057748D01*
X0114808Y0057797D01*
X0113284Y0057797D01*
X0113036Y0057748D01*
X0112826Y0057608D01*
X0112686Y0057398D01*
X0112637Y0057150D01*
X0111454Y0057150D01*
X0111454Y0074592D01*
X0112069Y0073103D01*
X0113229Y0071941D01*
X0114745Y0071312D01*
X0116387Y0071310D01*
X0117905Y0071937D01*
X0119067Y0073097D01*
X0119696Y0074613D01*
X0119698Y0076255D01*
X0119071Y0077773D01*
X0118866Y0077978D01*
X0119761Y0077978D01*
X0119761Y0068834D01*
X0119809Y0068591D01*
X0119947Y0068385D01*
X0120153Y0068247D01*
X0120396Y0068199D01*
X0130556Y0068199D01*
X0130799Y0068247D01*
X0131005Y0068385D01*
X0131143Y0068591D01*
X0131191Y0068834D01*
X0131191Y0077978D01*
X0131143Y0078221D01*
X0131005Y0078427D01*
X0130799Y0078565D01*
X0130556Y0078613D01*
X0120396Y0078613D01*
X0120153Y0078565D01*
X0119947Y0078427D01*
X0119809Y0078221D01*
X0119761Y0077978D01*
X0118866Y0077978D01*
X0117911Y0078935D01*
X0116419Y0079554D01*
X0135044Y0079554D01*
X0133555Y0078939D01*
G36*
X0130429Y0068961D02*
X0120523Y0068961D01*
X0120523Y0077851D01*
X0130429Y0077851D01*
X0130429Y0068961D01*
X0130429Y0068961D01*
G37*
X0130429Y0068961D02*
X0120523Y0068961D01*
X0120523Y0077851D01*
X0130429Y0077851D01*
X0130429Y0068961D01*
M02*
