G75*
G71*
%MOMM*%
%OFA0B0*%
%FSLAX53Y53*%
%IPPOS*%
%LPD*%
%ADD12C,0.30000*%
%ADD17C,1.30000*%
%ADD20C,0.50000*%
X0000000Y0000000D02*
%LPD*%
G01*
D17*
G36*
X0005162Y0008024D02*
X0005777Y0007898D01*
X0006355Y0007655D01*
X0006876Y0007304D01*
X0007318Y0006858D01*
X0007665Y0006336D01*
X0007904Y0005755D01*
X0008026Y0005140D01*
X0008026Y0005140D01*
X0008026Y0005140D01*
X0008016Y0004423D01*
X0008016Y0004422D01*
X0008016Y0004422D01*
X0007877Y0003811D01*
X0007622Y0003238D01*
X0007260Y0002725D01*
X0006806Y0002292D01*
X0006276Y0001956D01*
X0005691Y0001729D01*
X0005073Y0001620D01*
X0004445Y0001633D01*
X0003832Y0001768D01*
X0003257Y0002019D01*
X0002742Y0002377D01*
X0002306Y0002829D01*
X0001966Y0003356D01*
X0001735Y0003940D01*
X0001622Y0004557D01*
X0001631Y0005184D01*
X0001761Y0005798D01*
X0002008Y0006375D01*
X0002363Y0006893D01*
X0002811Y0007332D01*
X0003336Y0007676D01*
X0003918Y0007911D01*
X0004535Y0008028D01*
X0005162Y0008024D01*
X0005162Y0008024D01*
G37*
G36*
X0025482Y0008024D02*
X0026097Y0007898D01*
X0026675Y0007655D01*
X0027196Y0007304D01*
X0027638Y0006858D01*
X0027985Y0006336D01*
X0028224Y0005755D01*
X0028346Y0005140D01*
X0028346Y0005140D01*
X0028346Y0005140D01*
X0028336Y0004423D01*
X0028336Y0004422D01*
X0028336Y0004422D01*
X0028197Y0003811D01*
X0027942Y0003238D01*
X0027580Y0002725D01*
X0027126Y0002292D01*
X0026596Y0001956D01*
X0026011Y0001729D01*
X0025393Y0001620D01*
X0024765Y0001633D01*
X0024152Y0001768D01*
X0023577Y0002019D01*
X0023062Y0002377D01*
X0022626Y0002829D01*
X0022286Y0003356D01*
X0022055Y0003940D01*
X0021942Y0004557D01*
X0021951Y0005184D01*
X0022081Y0005798D01*
X0022328Y0006375D01*
X0022683Y0006893D01*
X0023131Y0007332D01*
X0023656Y0007676D01*
X0024238Y0007911D01*
X0024855Y0008028D01*
X0025482Y0008024D01*
X0025482Y0008024D01*
G37*
G36*
X0011821Y0002150D02*
X0010024Y0002150D01*
X0010024Y0003439D01*
X0011821Y0003439D01*
X0011821Y0002150D01*
X0011821Y0002150D01*
G37*
G36*
X0014488Y0002150D02*
X0012691Y0002150D01*
X0012691Y0003439D01*
X0014488Y0003439D01*
X0014488Y0002150D01*
X0014488Y0002150D01*
G37*
G36*
X0011821Y0004055D02*
X0010024Y0004055D01*
X0010024Y0005344D01*
X0011821Y0005344D01*
X0011821Y0004055D01*
X0011821Y0004055D01*
G37*
G36*
X0014488Y0004055D02*
X0012691Y0004055D01*
X0012691Y0005344D01*
X0014488Y0005344D01*
X0014488Y0004055D01*
X0014488Y0004055D01*
G37*
G36*
X0015948Y0007420D02*
X0014024Y0007420D01*
X0014024Y0009344D01*
X0015948Y0009344D01*
X0015948Y0007420D01*
X0015948Y0007420D01*
G37*
G36*
X0010868Y0007420D02*
X0008944Y0007420D01*
X0008944Y0009344D01*
X0010868Y0009344D01*
X0010868Y0007420D01*
X0010868Y0007420D01*
G37*
G36*
X0013408Y0007420D02*
X0011484Y0007420D01*
X0011484Y0009344D01*
X0013408Y0009344D01*
X0013408Y0007420D01*
X0013408Y0007420D01*
G37*
G36*
X0018488Y0007420D02*
X0016564Y0007420D01*
X0016564Y0009344D01*
X0018488Y0009344D01*
X0018488Y0007420D01*
X0018488Y0007420D01*
G37*
G36*
X0021028Y0007420D02*
X0019104Y0007420D01*
X0019104Y0009344D01*
X0021028Y0009344D01*
X0021028Y0007420D01*
X0021028Y0007420D01*
G37*
G36*
X0018488Y0009960D02*
X0016564Y0009960D01*
X0016564Y0011884D01*
X0018488Y0011884D01*
X0018488Y0009960D01*
X0018488Y0009960D01*
G37*
G36*
X0010868Y0009960D02*
X0008944Y0009960D01*
X0008944Y0011884D01*
X0010868Y0011884D01*
X0010868Y0009960D01*
X0010868Y0009960D01*
G37*
G36*
X0013408Y0009960D02*
X0011484Y0009960D01*
X0011484Y0011884D01*
X0013408Y0011884D01*
X0013408Y0009960D01*
X0013408Y0009960D01*
G37*
G36*
X0015948Y0009960D02*
X0014024Y0009960D01*
X0014024Y0011884D01*
X0015948Y0011884D01*
X0015948Y0009960D01*
X0015948Y0009960D01*
G37*
G36*
X0021028Y0009960D02*
X0019104Y0009960D01*
X0019104Y0011884D01*
X0021028Y0011884D01*
X0021028Y0009960D01*
X0021028Y0009960D01*
G37*
G36*
X0010202Y0015401D02*
X0010204Y0015381D01*
X0010210Y0015363D01*
X0010219Y0015345D01*
X0010231Y0015330D01*
X0010246Y0015318D01*
X0010264Y0015309D01*
X0010282Y0015303D01*
X0010302Y0015301D01*
X0011852Y0015301D01*
X0011852Y0013401D01*
X0010302Y0013401D01*
X0010282Y0013399D01*
X0010264Y0013393D01*
X0010246Y0013384D01*
X0010231Y0013372D01*
X0010219Y0013357D01*
X0010210Y0013339D01*
X0010204Y0013321D01*
X0010202Y0013301D01*
X0010202Y0012651D01*
X0009102Y0012651D01*
X0009102Y0013301D01*
X0009100Y0013321D01*
X0009094Y0013339D01*
X0009085Y0013357D01*
X0009073Y0013372D01*
X0009058Y0013384D01*
X0009040Y0013393D01*
X0009022Y0013399D01*
X0009002Y0013401D01*
X0007452Y0013401D01*
X0007452Y0015301D01*
X0009002Y0015301D01*
X0009022Y0015303D01*
X0009040Y0015309D01*
X0009058Y0015318D01*
X0009073Y0015330D01*
X0009085Y0015345D01*
X0009094Y0015363D01*
X0009100Y0015381D01*
X0009102Y0015401D01*
X0009102Y0016051D01*
X0010202Y0016051D01*
X0010202Y0015401D01*
X0010202Y0015401D01*
G37*
G36*
X0022590Y0012945D02*
X0021301Y0012945D01*
X0021301Y0014742D01*
X0022590Y0014742D01*
X0022590Y0012945D01*
X0022590Y0012945D01*
G37*
G36*
X0020990Y0014913D02*
X0020785Y0014913D01*
X0020766Y0014911D01*
X0020747Y0014905D01*
X0020730Y0014896D01*
X0020714Y0014884D01*
X0020702Y0014869D01*
X0020693Y0014851D01*
X0020687Y0014833D01*
X0020685Y0014813D01*
X0020685Y0012945D01*
X0019396Y0012945D01*
X0019396Y0014813D01*
X0019394Y0014833D01*
X0019388Y0014851D01*
X0019379Y0014869D01*
X0019367Y0014884D01*
X0019352Y0014896D01*
X0019334Y0014905D01*
X0019316Y0014911D01*
X0019296Y0014913D01*
X0019193Y0014913D01*
X0019193Y0016202D01*
X0020990Y0016202D01*
X0020990Y0014913D01*
X0020990Y0014913D01*
G37*
G36*
X0017853Y0013580D02*
X0016564Y0013580D01*
X0016564Y0015377D01*
X0017853Y0015377D01*
X0017853Y0013580D01*
X0017853Y0013580D01*
G37*
G36*
X0015948Y0013580D02*
X0014659Y0013580D01*
X0014659Y0015377D01*
X0015948Y0015377D01*
X0015948Y0013580D01*
X0015948Y0013580D01*
G37*
G36*
X0024020Y0017331D02*
X0024022Y0017312D01*
X0024027Y0017293D01*
X0024036Y0017276D01*
X0024049Y0017261D01*
X0024064Y0017248D01*
X0024081Y0017239D01*
X0024100Y0017233D01*
X0024120Y0017231D01*
X0025670Y0017231D01*
X0025670Y0015331D01*
X0024120Y0015331D01*
X0024100Y0015329D01*
X0024081Y0015324D01*
X0024064Y0015315D01*
X0024049Y0015302D01*
X0024036Y0015287D01*
X0024027Y0015270D01*
X0024022Y0015251D01*
X0024020Y0015231D01*
X0024020Y0014581D01*
X0022920Y0014581D01*
X0022920Y0015231D01*
X0022918Y0015251D01*
X0022912Y0015270D01*
X0022903Y0015287D01*
X0022890Y0015302D01*
X0022875Y0015315D01*
X0022858Y0015324D01*
X0022839Y0015329D01*
X0022820Y0015331D01*
X0021270Y0015331D01*
X0021270Y0017231D01*
X0022820Y0017231D01*
X0022839Y0017233D01*
X0022858Y0017239D01*
X0022875Y0017248D01*
X0022890Y0017261D01*
X0022903Y0017276D01*
X0022912Y0017293D01*
X0022918Y0017312D01*
X0022920Y0017331D01*
X0022920Y0017981D01*
X0024020Y0017981D01*
X0024020Y0017331D01*
X0024020Y0017331D01*
G37*
G36*
X0017853Y0015612D02*
X0016564Y0015612D01*
X0016564Y0017409D01*
X0017853Y0017409D01*
X0017853Y0015612D01*
X0017853Y0015612D01*
G37*
G36*
X0015948Y0015612D02*
X0014659Y0015612D01*
X0014659Y0017409D01*
X0015948Y0017409D01*
X0015948Y0015612D01*
X0015948Y0015612D01*
G37*
G36*
X0011313Y0016691D02*
X0009516Y0016691D01*
X0009516Y0017980D01*
X0011313Y0017980D01*
X0011313Y0016691D01*
X0011313Y0016691D01*
G37*
G36*
X0013345Y0016691D02*
X0011548Y0016691D01*
X0011548Y0017980D01*
X0013345Y0017980D01*
X0013345Y0016691D01*
X0013345Y0016691D01*
G37*
G36*
X0007249Y0016691D02*
X0005452Y0016691D01*
X0005452Y0017980D01*
X0007249Y0017980D01*
X0007249Y0016691D01*
X0007249Y0016691D01*
G37*
G36*
X0009281Y0016691D02*
X0007484Y0016691D01*
X0007484Y0017980D01*
X0009281Y0017980D01*
X0009281Y0016691D01*
X0009281Y0016691D01*
G37*
G36*
X0020990Y0016818D02*
X0019193Y0016818D01*
X0019193Y0018107D01*
X0020990Y0018107D01*
X0020990Y0016818D01*
X0020990Y0016818D01*
G37*
G36*
X0017592Y0020487D02*
X0017594Y0020467D01*
X0017600Y0020449D01*
X0017609Y0020431D01*
X0017621Y0020416D01*
X0017636Y0020404D01*
X0017654Y0020395D01*
X0017672Y0020389D01*
X0017692Y0020387D01*
X0017902Y0020387D01*
X0017902Y0019237D01*
X0017692Y0019237D01*
X0017672Y0019235D01*
X0017654Y0019229D01*
X0017636Y0019220D01*
X0017621Y0019208D01*
X0017609Y0019193D01*
X0017600Y0019175D01*
X0017594Y0019157D01*
X0017592Y0019137D01*
X0017592Y0018412D01*
X0014412Y0018412D01*
X0014412Y0019137D01*
X0014410Y0019157D01*
X0014404Y0019175D01*
X0014395Y0019193D01*
X0014383Y0019208D01*
X0014368Y0019220D01*
X0014350Y0019229D01*
X0014332Y0019235D01*
X0014312Y0019237D01*
X0014102Y0019237D01*
X0014102Y0020387D01*
X0014312Y0020387D01*
X0014332Y0020389D01*
X0014350Y0020395D01*
X0014368Y0020404D01*
X0014383Y0020416D01*
X0014395Y0020431D01*
X0014404Y0020449D01*
X0014410Y0020467D01*
X0014412Y0020487D01*
X0014412Y0021212D01*
X0017592Y0021212D01*
X0017592Y0020487D01*
X0017592Y0020487D01*
G37*
G36*
X0007566Y0019985D02*
X0007568Y0019965D01*
X0007574Y0019947D01*
X0007583Y0019929D01*
X0007595Y0019914D01*
X0007610Y0019902D01*
X0007628Y0019893D01*
X0007646Y0019887D01*
X0007666Y0019885D01*
X0008082Y0019885D01*
X0008102Y0019887D01*
X0008120Y0019893D01*
X0008138Y0019902D01*
X0008153Y0019914D01*
X0008165Y0019929D01*
X0008174Y0019947D01*
X0008180Y0019965D01*
X0008182Y0019985D01*
X0008182Y0021727D01*
X0009471Y0021727D01*
X0009471Y0019985D01*
X0009473Y0019965D01*
X0009479Y0019947D01*
X0009488Y0019929D01*
X0009500Y0019914D01*
X0009515Y0019902D01*
X0009533Y0019893D01*
X0009551Y0019887D01*
X0009571Y0019885D01*
X0011313Y0019885D01*
X0011313Y0018596D01*
X0009516Y0018596D01*
X0009516Y0019830D01*
X0009514Y0019849D01*
X0009508Y0019868D01*
X0009499Y0019885D01*
X0009486Y0019900D01*
X0009471Y0019913D01*
X0009454Y0019922D01*
X0009435Y0019928D01*
X0009416Y0019930D01*
X0009381Y0019930D01*
X0009361Y0019928D01*
X0009342Y0019922D01*
X0009325Y0019913D01*
X0009310Y0019900D01*
X0009297Y0019885D01*
X0009288Y0019868D01*
X0009282Y0019849D01*
X0009281Y0019830D01*
X0009281Y0018596D01*
X0007484Y0018596D01*
X0007484Y0019830D01*
X0007482Y0019849D01*
X0007476Y0019868D01*
X0007467Y0019885D01*
X0007454Y0019900D01*
X0007439Y0019913D01*
X0007422Y0019922D01*
X0007403Y0019928D01*
X0007384Y0019930D01*
X0007349Y0019930D01*
X0007329Y0019928D01*
X0007310Y0019922D01*
X0007293Y0019913D01*
X0007278Y0019900D01*
X0007265Y0019885D01*
X0007256Y0019868D01*
X0007250Y0019849D01*
X0007249Y0019830D01*
X0007249Y0018596D01*
X0005452Y0018596D01*
X0005452Y0019885D01*
X0006177Y0019885D01*
X0006197Y0019887D01*
X0006215Y0019893D01*
X0006233Y0019902D01*
X0006248Y0019914D01*
X0006260Y0019929D01*
X0006269Y0019947D01*
X0006275Y0019965D01*
X0006277Y0019985D01*
X0006277Y0021727D01*
X0007566Y0021727D01*
X0007566Y0019985D01*
X0007566Y0019985D01*
G37*
G36*
X0013345Y0018596D02*
X0011548Y0018596D01*
X0011548Y0019885D01*
X0013345Y0019885D01*
X0013345Y0018596D01*
X0013345Y0018596D01*
G37*
G36*
X0020203Y0018723D02*
X0018406Y0018723D01*
X0018406Y0020012D01*
X0020203Y0020012D01*
X0020203Y0018723D01*
X0020203Y0018723D01*
G37*
G36*
X0022235Y0018723D02*
X0020438Y0018723D01*
X0020438Y0020012D01*
X0022235Y0020012D01*
X0022235Y0018723D01*
X0022235Y0018723D01*
G37*
G36*
X0024267Y0018723D02*
X0022470Y0018723D01*
X0022470Y0020012D01*
X0024267Y0020012D01*
X0024267Y0018723D01*
X0024267Y0018723D01*
G37*
G36*
X0020203Y0020628D02*
X0018406Y0020628D01*
X0018406Y0021917D01*
X0020203Y0021917D01*
X0020203Y0020628D01*
X0020203Y0020628D01*
G37*
G36*
X0024267Y0020628D02*
X0022470Y0020628D01*
X0022470Y0021917D01*
X0024267Y0021917D01*
X0024267Y0020628D01*
X0024267Y0020628D01*
G37*
G36*
X0022235Y0020628D02*
X0020438Y0020628D01*
X0020438Y0021917D01*
X0022235Y0021917D01*
X0022235Y0020628D01*
X0022235Y0020628D01*
G37*
G36*
X0004518Y0022406D02*
X0002594Y0022406D01*
X0002594Y0024330D01*
X0004518Y0024330D01*
X0004518Y0022406D01*
X0004518Y0022406D01*
G37*
G36*
X0007058Y0022406D02*
X0005134Y0022406D01*
X0005134Y0024330D01*
X0007058Y0024330D01*
X0007058Y0022406D01*
X0007058Y0022406D01*
G37*
G36*
X0019123Y0022470D02*
X0017834Y0022470D01*
X0017834Y0024267D01*
X0019123Y0024267D01*
X0019123Y0022470D01*
X0019123Y0022470D01*
G37*
G36*
X0017218Y0022470D02*
X0014532Y0022470D01*
X0014532Y0024267D01*
X0017218Y0024267D01*
X0017218Y0022470D01*
X0017218Y0022470D01*
G37*
G36*
X0013916Y0022470D02*
X0012627Y0022470D01*
X0012627Y0024267D01*
X0013916Y0024267D01*
X0013916Y0022470D01*
X0013916Y0022470D01*
G37*
G36*
X0011757Y0022724D02*
X0010468Y0022724D01*
X0010468Y0024521D01*
X0011757Y0024521D01*
X0011757Y0022724D01*
X0011757Y0022724D01*
G37*
G36*
X0009852Y0022724D02*
X0008563Y0022724D01*
X0008563Y0024521D01*
X0009852Y0024521D01*
X0009852Y0022724D01*
X0009852Y0022724D01*
G37*
G36*
X0019123Y0024502D02*
X0017834Y0024502D01*
X0017834Y0026299D01*
X0019123Y0026299D01*
X0019123Y0024502D01*
X0019123Y0024502D01*
G37*
G36*
X0017218Y0024502D02*
X0014532Y0024502D01*
X0014532Y0026299D01*
X0017218Y0026299D01*
X0017218Y0024502D01*
X0017218Y0024502D01*
G37*
G36*
X0013916Y0024502D02*
X0012627Y0024502D01*
X0012627Y0026299D01*
X0013916Y0026299D01*
X0013916Y0024502D01*
X0013916Y0024502D01*
G37*
G36*
X0007058Y0024946D02*
X0005134Y0024946D01*
X0005134Y0026870D01*
X0007058Y0026870D01*
X0007058Y0024946D01*
X0007058Y0024946D01*
G37*
G36*
X0004518Y0024946D02*
X0002594Y0024946D01*
X0002594Y0026870D01*
X0004518Y0026870D01*
X0004518Y0024946D01*
X0004518Y0024946D01*
G37*
G36*
X0009852Y0025010D02*
X0008563Y0025010D01*
X0008563Y0026807D01*
X0009852Y0026807D01*
X0009852Y0025010D01*
X0009852Y0025010D01*
G37*
G36*
X0011757Y0025010D02*
X0010468Y0025010D01*
X0010468Y0026807D01*
X0011757Y0026807D01*
X0011757Y0025010D01*
X0011757Y0025010D01*
G37*
G36*
X0013916Y0026534D02*
X0012627Y0026534D01*
X0012627Y0028331D01*
X0013916Y0028331D01*
X0013916Y0026534D01*
X0013916Y0026534D01*
G37*
G36*
X0015821Y0026534D02*
X0014532Y0026534D01*
X0014532Y0028331D01*
X0015821Y0028331D01*
X0015821Y0026534D01*
X0015821Y0026534D01*
G37*
G36*
X0007058Y0027486D02*
X0005134Y0027486D01*
X0005134Y0029410D01*
X0007058Y0029410D01*
X0007058Y0027486D01*
X0007058Y0027486D01*
G37*
G36*
X0004518Y0027486D02*
X0002594Y0027486D01*
X0002594Y0029410D01*
X0004518Y0029410D01*
X0004518Y0027486D01*
X0004518Y0027486D01*
G37*
G36*
X0011757Y0027550D02*
X0010468Y0027550D01*
X0010468Y0029347D01*
X0011757Y0029347D01*
X0011757Y0027550D01*
X0011757Y0027550D01*
G37*
G36*
X0009852Y0027550D02*
X0008563Y0027550D01*
X0008563Y0029347D01*
X0009852Y0029347D01*
X0009852Y0027550D01*
X0009852Y0027550D01*
G37*
G36*
X0020533Y0028618D02*
X0017633Y0028618D01*
X0017633Y0030818D01*
X0020533Y0030818D01*
X0020533Y0028618D01*
X0020533Y0028618D01*
G37*
G36*
X0024531Y0028618D02*
X0021631Y0028618D01*
X0021631Y0030818D01*
X0024531Y0030818D01*
X0024531Y0028618D01*
X0024531Y0028618D01*
G37*
G36*
X0015028Y0031784D02*
X0015030Y0031764D01*
X0015036Y0031746D01*
X0015045Y0031728D01*
X0015057Y0031713D01*
X0015072Y0031701D01*
X0015090Y0031692D01*
X0015108Y0031686D01*
X0015128Y0031684D01*
X0016678Y0031684D01*
X0016678Y0029784D01*
X0015128Y0029784D01*
X0015108Y0029782D01*
X0015090Y0029776D01*
X0015072Y0029767D01*
X0015057Y0029755D01*
X0015045Y0029740D01*
X0015036Y0029722D01*
X0015030Y0029704D01*
X0015028Y0029684D01*
X0015028Y0029034D01*
X0013928Y0029034D01*
X0013928Y0029684D01*
X0013926Y0029704D01*
X0013920Y0029722D01*
X0013911Y0029740D01*
X0013899Y0029755D01*
X0013884Y0029767D01*
X0013866Y0029776D01*
X0013848Y0029782D01*
X0013828Y0029784D01*
X0012278Y0029784D01*
X0012278Y0031684D01*
X0013828Y0031684D01*
X0013848Y0031686D01*
X0013866Y0031692D01*
X0013884Y0031701D01*
X0013899Y0031713D01*
X0013911Y0031728D01*
X0013920Y0031746D01*
X0013926Y0031764D01*
X0013928Y0031784D01*
X0013928Y0032434D01*
X0015028Y0032434D01*
X0015028Y0031784D01*
X0015028Y0031784D01*
G37*
G36*
X0005162Y0038504D02*
X0005777Y0038378D01*
X0006355Y0038135D01*
X0006876Y0037784D01*
X0007318Y0037338D01*
X0007665Y0036816D01*
X0007904Y0036235D01*
X0008026Y0035620D01*
X0008026Y0035620D01*
X0008026Y0035620D01*
X0008016Y0034903D01*
X0008016Y0034902D01*
X0008016Y0034902D01*
X0007877Y0034291D01*
X0007622Y0033718D01*
X0007260Y0033205D01*
X0006806Y0032772D01*
X0006276Y0032436D01*
X0005691Y0032209D01*
X0005073Y0032100D01*
X0004445Y0032113D01*
X0003832Y0032248D01*
X0003257Y0032499D01*
X0002742Y0032857D01*
X0002306Y0033309D01*
X0001966Y0033836D01*
X0001735Y0034420D01*
X0001622Y0035037D01*
X0001631Y0035664D01*
X0001761Y0036278D01*
X0002008Y0036855D01*
X0002363Y0037373D01*
X0002811Y0037812D01*
X0003336Y0038156D01*
X0003918Y0038391D01*
X0004535Y0038508D01*
X0005162Y0038504D01*
X0005162Y0038504D01*
G37*
G36*
X0025482Y0038504D02*
X0026097Y0038378D01*
X0026675Y0038135D01*
X0027196Y0037784D01*
X0027638Y0037338D01*
X0027985Y0036816D01*
X0028224Y0036235D01*
X0028346Y0035620D01*
X0028346Y0035620D01*
X0028346Y0035620D01*
X0028336Y0034903D01*
X0028336Y0034902D01*
X0028336Y0034902D01*
X0028197Y0034291D01*
X0027942Y0033718D01*
X0027580Y0033205D01*
X0027126Y0032772D01*
X0026596Y0032436D01*
X0026011Y0032209D01*
X0025393Y0032100D01*
X0024765Y0032113D01*
X0024152Y0032248D01*
X0023577Y0032499D01*
X0023062Y0032857D01*
X0022626Y0033309D01*
X0022286Y0033836D01*
X0022055Y0034420D01*
X0021942Y0035037D01*
X0021951Y0035664D01*
X0022081Y0036278D01*
X0022328Y0036855D01*
X0022683Y0037373D01*
X0023131Y0037812D01*
X0023656Y0038156D01*
X0024238Y0038391D01*
X0024855Y0038508D01*
X0025482Y0038504D01*
X0025482Y0038504D01*
G37*
G36*
X0018488Y0033074D02*
X0016564Y0033074D01*
X0016564Y0034998D01*
X0018488Y0034998D01*
X0018488Y0033074D01*
X0018488Y0033074D01*
G37*
G36*
X0015948Y0033074D02*
X0014024Y0033074D01*
X0014024Y0034998D01*
X0015948Y0034998D01*
X0015948Y0033074D01*
X0015948Y0033074D01*
G37*
G36*
X0013408Y0033074D02*
X0011484Y0033074D01*
X0011484Y0034998D01*
X0013408Y0034998D01*
X0013408Y0033074D01*
X0013408Y0033074D01*
G37*
G36*
X0018488Y0035614D02*
X0016564Y0035614D01*
X0016564Y0037538D01*
X0018488Y0037538D01*
X0018488Y0035614D01*
X0018488Y0035614D01*
G37*
G36*
X0013408Y0035614D02*
X0011484Y0035614D01*
X0011484Y0037538D01*
X0013408Y0037538D01*
X0013408Y0035614D01*
X0013408Y0035614D01*
G37*
G36*
X0015948Y0035614D02*
X0014024Y0035614D01*
X0014024Y0037538D01*
X0015948Y0037538D01*
X0015948Y0035614D01*
X0015948Y0035614D01*
G37*
X0000000Y0040132D02*
%LPD*%
G01*
D17*
G36*
X0005162Y0048156D02*
X0005777Y0048030D01*
X0006355Y0047787D01*
X0006876Y0047436D01*
X0007318Y0046990D01*
X0007665Y0046468D01*
X0007904Y0045887D01*
X0008026Y0045272D01*
X0008026Y0045272D01*
X0008026Y0045272D01*
X0008016Y0044555D01*
X0008016Y0044554D01*
X0008016Y0044554D01*
X0007877Y0043943D01*
X0007622Y0043370D01*
X0007260Y0042857D01*
X0006806Y0042424D01*
X0006276Y0042088D01*
X0005691Y0041861D01*
X0005073Y0041752D01*
X0004445Y0041765D01*
X0003832Y0041900D01*
X0003257Y0042151D01*
X0002742Y0042509D01*
X0002306Y0042961D01*
X0001966Y0043488D01*
X0001735Y0044072D01*
X0001622Y0044689D01*
X0001631Y0045316D01*
X0001761Y0045930D01*
X0002008Y0046507D01*
X0002363Y0047025D01*
X0002811Y0047464D01*
X0003336Y0047808D01*
X0003918Y0048043D01*
X0004535Y0048160D01*
X0005162Y0048156D01*
X0005162Y0048156D01*
G37*
G36*
X0025482Y0048156D02*
X0026097Y0048030D01*
X0026675Y0047787D01*
X0027196Y0047436D01*
X0027638Y0046990D01*
X0027985Y0046468D01*
X0028224Y0045887D01*
X0028346Y0045272D01*
X0028346Y0045272D01*
X0028346Y0045272D01*
X0028336Y0044555D01*
X0028336Y0044554D01*
X0028336Y0044554D01*
X0028197Y0043943D01*
X0027942Y0043370D01*
X0027580Y0042857D01*
X0027126Y0042424D01*
X0026596Y0042088D01*
X0026011Y0041861D01*
X0025393Y0041752D01*
X0024765Y0041765D01*
X0024152Y0041900D01*
X0023577Y0042151D01*
X0023062Y0042509D01*
X0022626Y0042961D01*
X0022286Y0043488D01*
X0022055Y0044072D01*
X0021942Y0044689D01*
X0021951Y0045316D01*
X0022081Y0045930D01*
X0022328Y0046507D01*
X0022683Y0047025D01*
X0023131Y0047464D01*
X0023656Y0047808D01*
X0024238Y0048043D01*
X0024855Y0048160D01*
X0025482Y0048156D01*
X0025482Y0048156D01*
G37*
G36*
X0011821Y0042282D02*
X0010024Y0042282D01*
X0010024Y0043571D01*
X0011821Y0043571D01*
X0011821Y0042282D01*
X0011821Y0042282D01*
G37*
G36*
X0014488Y0042282D02*
X0012691Y0042282D01*
X0012691Y0043571D01*
X0014488Y0043571D01*
X0014488Y0042282D01*
X0014488Y0042282D01*
G37*
G36*
X0011821Y0044187D02*
X0010024Y0044187D01*
X0010024Y0045476D01*
X0011821Y0045476D01*
X0011821Y0044187D01*
X0011821Y0044187D01*
G37*
G36*
X0014488Y0044187D02*
X0012691Y0044187D01*
X0012691Y0045476D01*
X0014488Y0045476D01*
X0014488Y0044187D01*
X0014488Y0044187D01*
G37*
G36*
X0015948Y0047552D02*
X0014024Y0047552D01*
X0014024Y0049476D01*
X0015948Y0049476D01*
X0015948Y0047552D01*
X0015948Y0047552D01*
G37*
G36*
X0010868Y0047552D02*
X0008944Y0047552D01*
X0008944Y0049476D01*
X0010868Y0049476D01*
X0010868Y0047552D01*
X0010868Y0047552D01*
G37*
G36*
X0013408Y0047552D02*
X0011484Y0047552D01*
X0011484Y0049476D01*
X0013408Y0049476D01*
X0013408Y0047552D01*
X0013408Y0047552D01*
G37*
G36*
X0018488Y0047552D02*
X0016564Y0047552D01*
X0016564Y0049476D01*
X0018488Y0049476D01*
X0018488Y0047552D01*
X0018488Y0047552D01*
G37*
G36*
X0021028Y0047552D02*
X0019104Y0047552D01*
X0019104Y0049476D01*
X0021028Y0049476D01*
X0021028Y0047552D01*
X0021028Y0047552D01*
G37*
G36*
X0018488Y0050092D02*
X0016564Y0050092D01*
X0016564Y0052016D01*
X0018488Y0052016D01*
X0018488Y0050092D01*
X0018488Y0050092D01*
G37*
G36*
X0010868Y0050092D02*
X0008944Y0050092D01*
X0008944Y0052016D01*
X0010868Y0052016D01*
X0010868Y0050092D01*
X0010868Y0050092D01*
G37*
G36*
X0013408Y0050092D02*
X0011484Y0050092D01*
X0011484Y0052016D01*
X0013408Y0052016D01*
X0013408Y0050092D01*
X0013408Y0050092D01*
G37*
G36*
X0015948Y0050092D02*
X0014024Y0050092D01*
X0014024Y0052016D01*
X0015948Y0052016D01*
X0015948Y0050092D01*
X0015948Y0050092D01*
G37*
G36*
X0021028Y0050092D02*
X0019104Y0050092D01*
X0019104Y0052016D01*
X0021028Y0052016D01*
X0021028Y0050092D01*
X0021028Y0050092D01*
G37*
G36*
X0010202Y0055533D02*
X0010204Y0055513D01*
X0010210Y0055495D01*
X0010219Y0055477D01*
X0010231Y0055462D01*
X0010246Y0055450D01*
X0010264Y0055441D01*
X0010282Y0055435D01*
X0010302Y0055433D01*
X0011852Y0055433D01*
X0011852Y0053533D01*
X0010302Y0053533D01*
X0010282Y0053531D01*
X0010264Y0053525D01*
X0010246Y0053516D01*
X0010231Y0053504D01*
X0010219Y0053489D01*
X0010210Y0053471D01*
X0010204Y0053453D01*
X0010202Y0053433D01*
X0010202Y0052783D01*
X0009102Y0052783D01*
X0009102Y0053433D01*
X0009100Y0053453D01*
X0009094Y0053471D01*
X0009085Y0053489D01*
X0009073Y0053504D01*
X0009058Y0053516D01*
X0009040Y0053525D01*
X0009022Y0053531D01*
X0009002Y0053533D01*
X0007452Y0053533D01*
X0007452Y0055433D01*
X0009002Y0055433D01*
X0009022Y0055435D01*
X0009040Y0055441D01*
X0009058Y0055450D01*
X0009073Y0055462D01*
X0009085Y0055477D01*
X0009094Y0055495D01*
X0009100Y0055513D01*
X0009102Y0055533D01*
X0009102Y0056183D01*
X0010202Y0056183D01*
X0010202Y0055533D01*
X0010202Y0055533D01*
G37*
G36*
X0022590Y0053077D02*
X0021301Y0053077D01*
X0021301Y0054874D01*
X0022590Y0054874D01*
X0022590Y0053077D01*
X0022590Y0053077D01*
G37*
G36*
X0020990Y0055045D02*
X0020785Y0055045D01*
X0020766Y0055043D01*
X0020747Y0055037D01*
X0020730Y0055028D01*
X0020714Y0055016D01*
X0020702Y0055001D01*
X0020693Y0054983D01*
X0020687Y0054965D01*
X0020685Y0054945D01*
X0020685Y0053077D01*
X0019396Y0053077D01*
X0019396Y0054945D01*
X0019394Y0054965D01*
X0019388Y0054983D01*
X0019379Y0055001D01*
X0019367Y0055016D01*
X0019352Y0055028D01*
X0019334Y0055037D01*
X0019316Y0055043D01*
X0019296Y0055045D01*
X0019193Y0055045D01*
X0019193Y0056334D01*
X0020990Y0056334D01*
X0020990Y0055045D01*
X0020990Y0055045D01*
G37*
G36*
X0017853Y0053712D02*
X0016564Y0053712D01*
X0016564Y0055509D01*
X0017853Y0055509D01*
X0017853Y0053712D01*
X0017853Y0053712D01*
G37*
G36*
X0015948Y0053712D02*
X0014659Y0053712D01*
X0014659Y0055509D01*
X0015948Y0055509D01*
X0015948Y0053712D01*
X0015948Y0053712D01*
G37*
G36*
X0024020Y0057463D02*
X0024022Y0057444D01*
X0024027Y0057425D01*
X0024036Y0057408D01*
X0024049Y0057393D01*
X0024064Y0057380D01*
X0024081Y0057371D01*
X0024100Y0057365D01*
X0024120Y0057363D01*
X0025670Y0057363D01*
X0025670Y0055463D01*
X0024120Y0055463D01*
X0024100Y0055461D01*
X0024081Y0055456D01*
X0024064Y0055447D01*
X0024049Y0055434D01*
X0024036Y0055419D01*
X0024027Y0055402D01*
X0024022Y0055383D01*
X0024020Y0055363D01*
X0024020Y0054713D01*
X0022920Y0054713D01*
X0022920Y0055363D01*
X0022918Y0055383D01*
X0022912Y0055402D01*
X0022903Y0055419D01*
X0022890Y0055434D01*
X0022875Y0055447D01*
X0022858Y0055456D01*
X0022839Y0055461D01*
X0022820Y0055463D01*
X0021270Y0055463D01*
X0021270Y0057363D01*
X0022820Y0057363D01*
X0022839Y0057365D01*
X0022858Y0057371D01*
X0022875Y0057380D01*
X0022890Y0057393D01*
X0022903Y0057408D01*
X0022912Y0057425D01*
X0022918Y0057444D01*
X0022920Y0057463D01*
X0022920Y0058113D01*
X0024020Y0058113D01*
X0024020Y0057463D01*
X0024020Y0057463D01*
G37*
G36*
X0017853Y0055744D02*
X0016564Y0055744D01*
X0016564Y0057541D01*
X0017853Y0057541D01*
X0017853Y0055744D01*
X0017853Y0055744D01*
G37*
G36*
X0015948Y0055744D02*
X0014659Y0055744D01*
X0014659Y0057541D01*
X0015948Y0057541D01*
X0015948Y0055744D01*
X0015948Y0055744D01*
G37*
G36*
X0011313Y0056823D02*
X0009516Y0056823D01*
X0009516Y0058112D01*
X0011313Y0058112D01*
X0011313Y0056823D01*
X0011313Y0056823D01*
G37*
G36*
X0013345Y0056823D02*
X0011548Y0056823D01*
X0011548Y0058112D01*
X0013345Y0058112D01*
X0013345Y0056823D01*
X0013345Y0056823D01*
G37*
G36*
X0007249Y0056823D02*
X0005452Y0056823D01*
X0005452Y0058112D01*
X0007249Y0058112D01*
X0007249Y0056823D01*
X0007249Y0056823D01*
G37*
G36*
X0009281Y0056823D02*
X0007484Y0056823D01*
X0007484Y0058112D01*
X0009281Y0058112D01*
X0009281Y0056823D01*
X0009281Y0056823D01*
G37*
G36*
X0020990Y0056950D02*
X0019193Y0056950D01*
X0019193Y0058239D01*
X0020990Y0058239D01*
X0020990Y0056950D01*
X0020990Y0056950D01*
G37*
G36*
X0017592Y0060619D02*
X0017594Y0060599D01*
X0017600Y0060581D01*
X0017609Y0060563D01*
X0017621Y0060548D01*
X0017636Y0060536D01*
X0017654Y0060527D01*
X0017672Y0060521D01*
X0017692Y0060519D01*
X0017902Y0060519D01*
X0017902Y0059369D01*
X0017692Y0059369D01*
X0017672Y0059367D01*
X0017654Y0059361D01*
X0017636Y0059352D01*
X0017621Y0059340D01*
X0017609Y0059325D01*
X0017600Y0059307D01*
X0017594Y0059289D01*
X0017592Y0059269D01*
X0017592Y0058544D01*
X0014412Y0058544D01*
X0014412Y0059269D01*
X0014410Y0059289D01*
X0014404Y0059307D01*
X0014395Y0059325D01*
X0014383Y0059340D01*
X0014368Y0059352D01*
X0014350Y0059361D01*
X0014332Y0059367D01*
X0014312Y0059369D01*
X0014102Y0059369D01*
X0014102Y0060519D01*
X0014312Y0060519D01*
X0014332Y0060521D01*
X0014350Y0060527D01*
X0014368Y0060536D01*
X0014383Y0060548D01*
X0014395Y0060563D01*
X0014404Y0060581D01*
X0014410Y0060599D01*
X0014412Y0060619D01*
X0014412Y0061344D01*
X0017592Y0061344D01*
X0017592Y0060619D01*
X0017592Y0060619D01*
G37*
G36*
X0007566Y0060117D02*
X0007568Y0060097D01*
X0007574Y0060079D01*
X0007583Y0060061D01*
X0007595Y0060046D01*
X0007610Y0060034D01*
X0007628Y0060025D01*
X0007646Y0060019D01*
X0007666Y0060017D01*
X0008082Y0060017D01*
X0008102Y0060019D01*
X0008120Y0060025D01*
X0008138Y0060034D01*
X0008153Y0060046D01*
X0008165Y0060061D01*
X0008174Y0060079D01*
X0008180Y0060097D01*
X0008182Y0060117D01*
X0008182Y0061859D01*
X0009471Y0061859D01*
X0009471Y0060117D01*
X0009473Y0060097D01*
X0009479Y0060079D01*
X0009488Y0060061D01*
X0009500Y0060046D01*
X0009515Y0060034D01*
X0009533Y0060025D01*
X0009551Y0060019D01*
X0009571Y0060017D01*
X0011313Y0060017D01*
X0011313Y0058728D01*
X0009516Y0058728D01*
X0009516Y0059962D01*
X0009514Y0059981D01*
X0009508Y0060000D01*
X0009499Y0060017D01*
X0009486Y0060032D01*
X0009471Y0060045D01*
X0009454Y0060054D01*
X0009435Y0060060D01*
X0009416Y0060062D01*
X0009381Y0060062D01*
X0009361Y0060060D01*
X0009342Y0060054D01*
X0009325Y0060045D01*
X0009310Y0060032D01*
X0009297Y0060017D01*
X0009288Y0060000D01*
X0009282Y0059981D01*
X0009281Y0059962D01*
X0009281Y0058728D01*
X0007484Y0058728D01*
X0007484Y0059962D01*
X0007482Y0059981D01*
X0007476Y0060000D01*
X0007467Y0060017D01*
X0007454Y0060032D01*
X0007439Y0060045D01*
X0007422Y0060054D01*
X0007403Y0060060D01*
X0007384Y0060062D01*
X0007349Y0060062D01*
X0007329Y0060060D01*
X0007310Y0060054D01*
X0007293Y0060045D01*
X0007278Y0060032D01*
X0007265Y0060017D01*
X0007256Y0060000D01*
X0007250Y0059981D01*
X0007249Y0059962D01*
X0007249Y0058728D01*
X0005452Y0058728D01*
X0005452Y0060017D01*
X0006177Y0060017D01*
X0006197Y0060019D01*
X0006215Y0060025D01*
X0006233Y0060034D01*
X0006248Y0060046D01*
X0006260Y0060061D01*
X0006269Y0060079D01*
X0006275Y0060097D01*
X0006277Y0060117D01*
X0006277Y0061859D01*
X0007566Y0061859D01*
X0007566Y0060117D01*
X0007566Y0060117D01*
G37*
G36*
X0013345Y0058728D02*
X0011548Y0058728D01*
X0011548Y0060017D01*
X0013345Y0060017D01*
X0013345Y0058728D01*
X0013345Y0058728D01*
G37*
G36*
X0020203Y0058855D02*
X0018406Y0058855D01*
X0018406Y0060144D01*
X0020203Y0060144D01*
X0020203Y0058855D01*
X0020203Y0058855D01*
G37*
G36*
X0022235Y0058855D02*
X0020438Y0058855D01*
X0020438Y0060144D01*
X0022235Y0060144D01*
X0022235Y0058855D01*
X0022235Y0058855D01*
G37*
G36*
X0024267Y0058855D02*
X0022470Y0058855D01*
X0022470Y0060144D01*
X0024267Y0060144D01*
X0024267Y0058855D01*
X0024267Y0058855D01*
G37*
G36*
X0020203Y0060760D02*
X0018406Y0060760D01*
X0018406Y0062049D01*
X0020203Y0062049D01*
X0020203Y0060760D01*
X0020203Y0060760D01*
G37*
G36*
X0024267Y0060760D02*
X0022470Y0060760D01*
X0022470Y0062049D01*
X0024267Y0062049D01*
X0024267Y0060760D01*
X0024267Y0060760D01*
G37*
G36*
X0022235Y0060760D02*
X0020438Y0060760D01*
X0020438Y0062049D01*
X0022235Y0062049D01*
X0022235Y0060760D01*
X0022235Y0060760D01*
G37*
G36*
X0004518Y0062538D02*
X0002594Y0062538D01*
X0002594Y0064462D01*
X0004518Y0064462D01*
X0004518Y0062538D01*
X0004518Y0062538D01*
G37*
G36*
X0007058Y0062538D02*
X0005134Y0062538D01*
X0005134Y0064462D01*
X0007058Y0064462D01*
X0007058Y0062538D01*
X0007058Y0062538D01*
G37*
G36*
X0019123Y0062602D02*
X0017834Y0062602D01*
X0017834Y0064399D01*
X0019123Y0064399D01*
X0019123Y0062602D01*
X0019123Y0062602D01*
G37*
G36*
X0017218Y0062602D02*
X0014532Y0062602D01*
X0014532Y0064399D01*
X0017218Y0064399D01*
X0017218Y0062602D01*
X0017218Y0062602D01*
G37*
G36*
X0013916Y0062602D02*
X0012627Y0062602D01*
X0012627Y0064399D01*
X0013916Y0064399D01*
X0013916Y0062602D01*
X0013916Y0062602D01*
G37*
G36*
X0011757Y0062856D02*
X0010468Y0062856D01*
X0010468Y0064653D01*
X0011757Y0064653D01*
X0011757Y0062856D01*
X0011757Y0062856D01*
G37*
G36*
X0009852Y0062856D02*
X0008563Y0062856D01*
X0008563Y0064653D01*
X0009852Y0064653D01*
X0009852Y0062856D01*
X0009852Y0062856D01*
G37*
G36*
X0019123Y0064634D02*
X0017834Y0064634D01*
X0017834Y0066431D01*
X0019123Y0066431D01*
X0019123Y0064634D01*
X0019123Y0064634D01*
G37*
G36*
X0017218Y0064634D02*
X0014532Y0064634D01*
X0014532Y0066431D01*
X0017218Y0066431D01*
X0017218Y0064634D01*
X0017218Y0064634D01*
G37*
G36*
X0013916Y0064634D02*
X0012627Y0064634D01*
X0012627Y0066431D01*
X0013916Y0066431D01*
X0013916Y0064634D01*
X0013916Y0064634D01*
G37*
G36*
X0007058Y0065078D02*
X0005134Y0065078D01*
X0005134Y0067002D01*
X0007058Y0067002D01*
X0007058Y0065078D01*
X0007058Y0065078D01*
G37*
G36*
X0004518Y0065078D02*
X0002594Y0065078D01*
X0002594Y0067002D01*
X0004518Y0067002D01*
X0004518Y0065078D01*
X0004518Y0065078D01*
G37*
G36*
X0009852Y0065142D02*
X0008563Y0065142D01*
X0008563Y0066939D01*
X0009852Y0066939D01*
X0009852Y0065142D01*
X0009852Y0065142D01*
G37*
G36*
X0011757Y0065142D02*
X0010468Y0065142D01*
X0010468Y0066939D01*
X0011757Y0066939D01*
X0011757Y0065142D01*
X0011757Y0065142D01*
G37*
G36*
X0013916Y0066666D02*
X0012627Y0066666D01*
X0012627Y0068463D01*
X0013916Y0068463D01*
X0013916Y0066666D01*
X0013916Y0066666D01*
G37*
G36*
X0015821Y0066666D02*
X0014532Y0066666D01*
X0014532Y0068463D01*
X0015821Y0068463D01*
X0015821Y0066666D01*
X0015821Y0066666D01*
G37*
G36*
X0007058Y0067618D02*
X0005134Y0067618D01*
X0005134Y0069542D01*
X0007058Y0069542D01*
X0007058Y0067618D01*
X0007058Y0067618D01*
G37*
G36*
X0004518Y0067618D02*
X0002594Y0067618D01*
X0002594Y0069542D01*
X0004518Y0069542D01*
X0004518Y0067618D01*
X0004518Y0067618D01*
G37*
G36*
X0011757Y0067682D02*
X0010468Y0067682D01*
X0010468Y0069479D01*
X0011757Y0069479D01*
X0011757Y0067682D01*
X0011757Y0067682D01*
G37*
G36*
X0009852Y0067682D02*
X0008563Y0067682D01*
X0008563Y0069479D01*
X0009852Y0069479D01*
X0009852Y0067682D01*
X0009852Y0067682D01*
G37*
G36*
X0020533Y0068750D02*
X0017633Y0068750D01*
X0017633Y0070950D01*
X0020533Y0070950D01*
X0020533Y0068750D01*
X0020533Y0068750D01*
G37*
G36*
X0024531Y0068750D02*
X0021631Y0068750D01*
X0021631Y0070950D01*
X0024531Y0070950D01*
X0024531Y0068750D01*
X0024531Y0068750D01*
G37*
G36*
X0015028Y0071916D02*
X0015030Y0071896D01*
X0015036Y0071878D01*
X0015045Y0071860D01*
X0015057Y0071845D01*
X0015072Y0071833D01*
X0015090Y0071824D01*
X0015108Y0071818D01*
X0015128Y0071816D01*
X0016678Y0071816D01*
X0016678Y0069916D01*
X0015128Y0069916D01*
X0015108Y0069914D01*
X0015090Y0069908D01*
X0015072Y0069899D01*
X0015057Y0069887D01*
X0015045Y0069872D01*
X0015036Y0069854D01*
X0015030Y0069836D01*
X0015028Y0069816D01*
X0015028Y0069166D01*
X0013928Y0069166D01*
X0013928Y0069816D01*
X0013926Y0069836D01*
X0013920Y0069854D01*
X0013911Y0069872D01*
X0013899Y0069887D01*
X0013884Y0069899D01*
X0013866Y0069908D01*
X0013848Y0069914D01*
X0013828Y0069916D01*
X0012278Y0069916D01*
X0012278Y0071816D01*
X0013828Y0071816D01*
X0013848Y0071818D01*
X0013866Y0071824D01*
X0013884Y0071833D01*
X0013899Y0071845D01*
X0013911Y0071860D01*
X0013920Y0071878D01*
X0013926Y0071896D01*
X0013928Y0071916D01*
X0013928Y0072566D01*
X0015028Y0072566D01*
X0015028Y0071916D01*
X0015028Y0071916D01*
G37*
G36*
X0005162Y0078636D02*
X0005777Y0078510D01*
X0006355Y0078267D01*
X0006876Y0077916D01*
X0007318Y0077470D01*
X0007665Y0076948D01*
X0007904Y0076367D01*
X0008026Y0075752D01*
X0008026Y0075752D01*
X0008026Y0075752D01*
X0008016Y0075035D01*
X0008016Y0075034D01*
X0008016Y0075034D01*
X0007877Y0074423D01*
X0007622Y0073850D01*
X0007260Y0073337D01*
X0006806Y0072904D01*
X0006276Y0072568D01*
X0005691Y0072341D01*
X0005073Y0072232D01*
X0004445Y0072245D01*
X0003832Y0072380D01*
X0003257Y0072631D01*
X0002742Y0072989D01*
X0002306Y0073441D01*
X0001966Y0073968D01*
X0001735Y0074552D01*
X0001622Y0075169D01*
X0001631Y0075796D01*
X0001761Y0076410D01*
X0002008Y0076987D01*
X0002363Y0077505D01*
X0002811Y0077944D01*
X0003336Y0078288D01*
X0003918Y0078523D01*
X0004535Y0078640D01*
X0005162Y0078636D01*
X0005162Y0078636D01*
G37*
G36*
X0025482Y0078636D02*
X0026097Y0078510D01*
X0026675Y0078267D01*
X0027196Y0077916D01*
X0027638Y0077470D01*
X0027985Y0076948D01*
X0028224Y0076367D01*
X0028346Y0075752D01*
X0028346Y0075752D01*
X0028346Y0075752D01*
X0028336Y0075035D01*
X0028336Y0075034D01*
X0028336Y0075034D01*
X0028197Y0074423D01*
X0027942Y0073850D01*
X0027580Y0073337D01*
X0027126Y0072904D01*
X0026596Y0072568D01*
X0026011Y0072341D01*
X0025393Y0072232D01*
X0024765Y0072245D01*
X0024152Y0072380D01*
X0023577Y0072631D01*
X0023062Y0072989D01*
X0022626Y0073441D01*
X0022286Y0073968D01*
X0022055Y0074552D01*
X0021942Y0075169D01*
X0021951Y0075796D01*
X0022081Y0076410D01*
X0022328Y0076987D01*
X0022683Y0077505D01*
X0023131Y0077944D01*
X0023656Y0078288D01*
X0024238Y0078523D01*
X0024855Y0078640D01*
X0025482Y0078636D01*
X0025482Y0078636D01*
G37*
G36*
X0018488Y0073206D02*
X0016564Y0073206D01*
X0016564Y0075130D01*
X0018488Y0075130D01*
X0018488Y0073206D01*
X0018488Y0073206D01*
G37*
G36*
X0015948Y0073206D02*
X0014024Y0073206D01*
X0014024Y0075130D01*
X0015948Y0075130D01*
X0015948Y0073206D01*
X0015948Y0073206D01*
G37*
G36*
X0013408Y0073206D02*
X0011484Y0073206D01*
X0011484Y0075130D01*
X0013408Y0075130D01*
X0013408Y0073206D01*
X0013408Y0073206D01*
G37*
G36*
X0018488Y0075746D02*
X0016564Y0075746D01*
X0016564Y0077670D01*
X0018488Y0077670D01*
X0018488Y0075746D01*
X0018488Y0075746D01*
G37*
G36*
X0013408Y0075746D02*
X0011484Y0075746D01*
X0011484Y0077670D01*
X0013408Y0077670D01*
X0013408Y0075746D01*
X0013408Y0075746D01*
G37*
G36*
X0015948Y0075746D02*
X0014024Y0075746D01*
X0014024Y0077670D01*
X0015948Y0077670D01*
X0015948Y0075746D01*
X0015948Y0075746D01*
G37*
X0029972Y0000000D02*
%LPD*%
G01*
D12*
G36*
X0042479Y0004584D02*
X0042481Y0004565D01*
X0042487Y0004546D01*
X0042496Y0004529D01*
X0042508Y0004513D01*
X0042521Y0004503D01*
X0042736Y0004286D01*
X0042904Y0004033D01*
X0042945Y0003934D01*
X0042954Y0003917D01*
X0042967Y0003902D01*
X0042982Y0003889D01*
X0042999Y0003880D01*
X0043018Y0003874D01*
X0043037Y0003872D01*
X0043057Y0003874D01*
X0043076Y0003880D01*
X0043093Y0003889D01*
X0043108Y0003901D01*
X0043121Y0003917D01*
X0043130Y0003934D01*
X0043136Y0003953D01*
X0043137Y0003972D01*
X0043137Y0004653D01*
X0046037Y0004653D01*
X0046037Y0001951D01*
X0043137Y0001951D01*
X0043137Y0002633D01*
X0043136Y0002653D01*
X0043130Y0002672D01*
X0043121Y0002689D01*
X0043108Y0002704D01*
X0043093Y0002716D01*
X0043076Y0002726D01*
X0043057Y0002731D01*
X0043037Y0002733D01*
X0043018Y0002731D01*
X0042999Y0002726D01*
X0042982Y0002716D01*
X0042967Y0002704D01*
X0042954Y0002689D01*
X0042946Y0002674D01*
X0042883Y0002533D01*
X0042708Y0002284D01*
X0042510Y0002096D01*
X0042497Y0002081D01*
X0042488Y0002064D01*
X0042481Y0002045D01*
X0042479Y0002023D01*
X0042479Y0000577D01*
X0040579Y0000577D01*
X0040579Y0002022D01*
X0040577Y0002042D01*
X0040571Y0002061D01*
X0040562Y0002078D01*
X0040550Y0002093D01*
X0040536Y0002104D01*
X0040520Y0002116D01*
X0040308Y0002335D01*
X0040144Y0002590D01*
X0040032Y0002873D01*
X0039977Y0003172D01*
X0039981Y0003476D01*
X0040044Y0003773D01*
X0040164Y0004052D01*
X0040336Y0004303D01*
X0040549Y0004512D01*
X0040562Y0004527D01*
X0040571Y0004544D01*
X0040577Y0004563D01*
X0040579Y0004583D01*
X0040579Y0006027D01*
X0042479Y0006027D01*
X0042479Y0004584D01*
X0042479Y0004584D01*
G37*
G36*
X0082230Y0004584D02*
X0082232Y0004565D01*
X0082238Y0004546D01*
X0082247Y0004529D01*
X0082259Y0004513D01*
X0082272Y0004503D01*
X0082487Y0004286D01*
X0082655Y0004033D01*
X0082771Y0003752D01*
X0082830Y0003455D01*
X0082830Y0003455D01*
X0082830Y0003454D01*
X0082825Y0003107D01*
X0082825Y0003106D01*
X0082825Y0003106D01*
X0082758Y0002810D01*
X0082634Y0002533D01*
X0082459Y0002284D01*
X0082261Y0002096D01*
X0082248Y0002081D01*
X0082239Y0002064D01*
X0082232Y0002045D01*
X0082230Y0002023D01*
X0082230Y0000577D01*
X0080330Y0000577D01*
X0080330Y0002022D01*
X0080328Y0002042D01*
X0080322Y0002061D01*
X0080313Y0002078D01*
X0080301Y0002093D01*
X0080287Y0002104D01*
X0080271Y0002116D01*
X0080059Y0002335D01*
X0079895Y0002590D01*
X0079783Y0002873D01*
X0079728Y0003172D01*
X0079732Y0003476D01*
X0079795Y0003773D01*
X0079915Y0004052D01*
X0080087Y0004303D01*
X0080300Y0004512D01*
X0080313Y0004527D01*
X0080322Y0004544D01*
X0080328Y0004563D01*
X0080330Y0004583D01*
X0080330Y0006027D01*
X0082230Y0006027D01*
X0082230Y0004584D01*
X0082230Y0004584D01*
G37*
G36*
X0055814Y0004584D02*
X0055816Y0004565D01*
X0055822Y0004546D01*
X0055831Y0004529D01*
X0055843Y0004513D01*
X0055856Y0004503D01*
X0056071Y0004286D01*
X0056239Y0004033D01*
X0056355Y0003752D01*
X0056401Y0003518D01*
X0056407Y0003499D01*
X0056416Y0003482D01*
X0056429Y0003467D01*
X0056444Y0003454D01*
X0056461Y0003445D01*
X0056480Y0003439D01*
X0056499Y0003437D01*
X0056519Y0003439D01*
X0056538Y0003445D01*
X0056555Y0003454D01*
X0056570Y0003467D01*
X0056583Y0003482D01*
X0056592Y0003499D01*
X0056598Y0003518D01*
X0056599Y0003537D01*
X0056599Y0004653D01*
X0059499Y0004653D01*
X0059499Y0001951D01*
X0056599Y0001951D01*
X0056599Y0003053D01*
X0056598Y0003072D01*
X0056592Y0003091D01*
X0056583Y0003108D01*
X0056570Y0003123D01*
X0056555Y0003136D01*
X0056538Y0003145D01*
X0056519Y0003151D01*
X0056499Y0003153D01*
X0056480Y0003151D01*
X0056461Y0003145D01*
X0056444Y0003136D01*
X0056429Y0003123D01*
X0056416Y0003108D01*
X0056407Y0003091D01*
X0056402Y0003075D01*
X0056342Y0002810D01*
X0056218Y0002533D01*
X0056043Y0002284D01*
X0055845Y0002096D01*
X0055832Y0002081D01*
X0055823Y0002064D01*
X0055816Y0002045D01*
X0055814Y0002023D01*
X0055814Y0000577D01*
X0053914Y0000577D01*
X0053914Y0002022D01*
X0053912Y0002042D01*
X0053906Y0002061D01*
X0053897Y0002078D01*
X0053885Y0002093D01*
X0053871Y0002104D01*
X0053855Y0002116D01*
X0053643Y0002335D01*
X0053479Y0002590D01*
X0053367Y0002873D01*
X0053312Y0003172D01*
X0053316Y0003476D01*
X0053379Y0003773D01*
X0053499Y0004052D01*
X0053671Y0004303D01*
X0053884Y0004512D01*
X0053897Y0004527D01*
X0053906Y0004544D01*
X0053912Y0004563D01*
X0053914Y0004583D01*
X0053914Y0006027D01*
X0055814Y0006027D01*
X0055814Y0004584D01*
X0055814Y0004584D01*
G37*
G36*
X0069022Y0004584D02*
X0069024Y0004565D01*
X0069030Y0004546D01*
X0069039Y0004529D01*
X0069051Y0004513D01*
X0069064Y0004503D01*
X0069279Y0004286D01*
X0069447Y0004033D01*
X0069563Y0003752D01*
X0069609Y0003518D01*
X0069615Y0003499D01*
X0069624Y0003482D01*
X0069637Y0003467D01*
X0069652Y0003454D01*
X0069669Y0003445D01*
X0069688Y0003439D01*
X0069707Y0003437D01*
X0069727Y0003439D01*
X0069746Y0003445D01*
X0069763Y0003454D01*
X0069778Y0003467D01*
X0069791Y0003482D01*
X0069800Y0003499D01*
X0069806Y0003518D01*
X0069807Y0003537D01*
X0069807Y0004907D01*
X0072707Y0004907D01*
X0072707Y0002205D01*
X0069807Y0002205D01*
X0069807Y0003053D01*
X0069806Y0003072D01*
X0069800Y0003091D01*
X0069791Y0003108D01*
X0069778Y0003123D01*
X0069763Y0003136D01*
X0069746Y0003145D01*
X0069727Y0003151D01*
X0069707Y0003153D01*
X0069688Y0003151D01*
X0069669Y0003145D01*
X0069652Y0003136D01*
X0069637Y0003123D01*
X0069624Y0003108D01*
X0069615Y0003091D01*
X0069610Y0003075D01*
X0069550Y0002810D01*
X0069426Y0002533D01*
X0069251Y0002284D01*
X0069053Y0002096D01*
X0069040Y0002081D01*
X0069031Y0002064D01*
X0069024Y0002045D01*
X0069022Y0002023D01*
X0069022Y0000577D01*
X0067122Y0000577D01*
X0067122Y0002022D01*
X0067120Y0002042D01*
X0067114Y0002061D01*
X0067105Y0002078D01*
X0067093Y0002093D01*
X0067079Y0002104D01*
X0067063Y0002116D01*
X0066851Y0002335D01*
X0066687Y0002590D01*
X0066575Y0002873D01*
X0066520Y0003172D01*
X0066524Y0003476D01*
X0066587Y0003773D01*
X0066707Y0004052D01*
X0066879Y0004303D01*
X0067092Y0004512D01*
X0067105Y0004527D01*
X0067114Y0004544D01*
X0067120Y0004563D01*
X0067122Y0004583D01*
X0067122Y0006027D01*
X0069022Y0006027D01*
X0069022Y0004584D01*
X0069022Y0004584D01*
G37*
G36*
X0035134Y0008024D02*
X0035749Y0007898D01*
X0036327Y0007655D01*
X0036848Y0007304D01*
X0037290Y0006858D01*
X0037637Y0006336D01*
X0037876Y0005755D01*
X0037998Y0005140D01*
X0037998Y0005140D01*
X0037998Y0005140D01*
X0037988Y0004423D01*
X0037988Y0004422D01*
X0037988Y0004422D01*
X0037849Y0003811D01*
X0037594Y0003238D01*
X0037232Y0002725D01*
X0036778Y0002292D01*
X0036248Y0001956D01*
X0035663Y0001729D01*
X0035045Y0001620D01*
X0034417Y0001633D01*
X0033804Y0001768D01*
X0033229Y0002019D01*
X0032714Y0002377D01*
X0032278Y0002829D01*
X0031938Y0003356D01*
X0031707Y0003940D01*
X0031594Y0004557D01*
X0031603Y0005184D01*
X0031733Y0005798D01*
X0031980Y0006375D01*
X0032335Y0006893D01*
X0032783Y0007332D01*
X0033308Y0007676D01*
X0033890Y0007911D01*
X0034507Y0008028D01*
X0035134Y0008024D01*
X0035134Y0008024D01*
G37*
G36*
X0106254Y0008024D02*
X0106869Y0007898D01*
X0107447Y0007655D01*
X0107968Y0007304D01*
X0108410Y0006858D01*
X0108757Y0006336D01*
X0108996Y0005755D01*
X0109118Y0005140D01*
X0109118Y0005140D01*
X0109118Y0005140D01*
X0109108Y0004423D01*
X0109108Y0004422D01*
X0109108Y0004422D01*
X0108969Y0003811D01*
X0108714Y0003238D01*
X0108352Y0002725D01*
X0107898Y0002292D01*
X0107368Y0001956D01*
X0106783Y0001729D01*
X0106165Y0001620D01*
X0105537Y0001633D01*
X0104924Y0001768D01*
X0104349Y0002019D01*
X0103834Y0002377D01*
X0103398Y0002829D01*
X0103058Y0003356D01*
X0102827Y0003940D01*
X0102714Y0004557D01*
X0102723Y0005184D01*
X0102853Y0005798D01*
X0103100Y0006375D01*
X0103455Y0006893D01*
X0103903Y0007332D01*
X0104428Y0007676D01*
X0105010Y0007911D01*
X0105627Y0008028D01*
X0106254Y0008024D01*
X0106254Y0008024D01*
G37*
G36*
X0050335Y0001951D02*
X0047435Y0001951D01*
X0047435Y0004653D01*
X0050335Y0004653D01*
X0050335Y0001951D01*
X0050335Y0001951D01*
G37*
G36*
X0063797Y0001951D02*
X0060897Y0001951D01*
X0060897Y0004653D01*
X0063797Y0004653D01*
X0063797Y0001951D01*
X0063797Y0001951D01*
G37*
G36*
X0086169Y0002205D02*
X0083269Y0002205D01*
X0083269Y0004907D01*
X0086169Y0004907D01*
X0086169Y0002205D01*
X0086169Y0002205D01*
G37*
G36*
X0090467Y0002205D02*
X0087567Y0002205D01*
X0087567Y0004907D01*
X0090467Y0004907D01*
X0090467Y0002205D01*
X0090467Y0002205D01*
G37*
G36*
X0077005Y0002205D02*
X0074105Y0002205D01*
X0074105Y0004907D01*
X0077005Y0004907D01*
X0077005Y0002205D01*
X0077005Y0002205D01*
G37*
G36*
X0066177Y0002721D02*
X0064380Y0002721D01*
X0064380Y0004010D01*
X0066177Y0004010D01*
X0066177Y0002721D01*
X0066177Y0002721D01*
G37*
G36*
X0052715Y0002721D02*
X0050918Y0002721D01*
X0050918Y0004010D01*
X0052715Y0004010D01*
X0052715Y0002721D01*
X0052715Y0002721D01*
G37*
G36*
X0079385Y0002721D02*
X0077588Y0002721D01*
X0077588Y0004010D01*
X0079385Y0004010D01*
X0079385Y0002721D01*
X0079385Y0002721D01*
G37*
G36*
X0099395Y0004529D02*
X0096693Y0004529D01*
X0096693Y0007429D01*
X0099395Y0007429D01*
X0099395Y0004529D01*
X0099395Y0004529D01*
G37*
G36*
X0052715Y0004626D02*
X0050918Y0004626D01*
X0050918Y0005915D01*
X0052715Y0005915D01*
X0052715Y0004626D01*
X0052715Y0004626D01*
G37*
G36*
X0066177Y0004626D02*
X0064380Y0004626D01*
X0064380Y0005915D01*
X0066177Y0005915D01*
X0066177Y0004626D01*
X0066177Y0004626D01*
G37*
G36*
X0079385Y0004626D02*
X0077588Y0004626D01*
X0077588Y0005915D01*
X0079385Y0005915D01*
X0079385Y0004626D01*
X0079385Y0004626D01*
G37*
G36*
X0040650Y0006404D02*
X0038853Y0006404D01*
X0038853Y0007693D01*
X0040650Y0007693D01*
X0040650Y0006404D01*
X0040650Y0006404D01*
G37*
G36*
X0043126Y0006658D02*
X0041202Y0006658D01*
X0041202Y0008582D01*
X0043126Y0008582D01*
X0043126Y0006658D01*
X0043126Y0006658D01*
G37*
G36*
X0088846Y0006658D02*
X0086922Y0006658D01*
X0086922Y0008582D01*
X0088846Y0008582D01*
X0088846Y0006658D01*
X0088846Y0006658D01*
G37*
G36*
X0086306Y0006658D02*
X0084382Y0006658D01*
X0084382Y0008582D01*
X0086306Y0008582D01*
X0086306Y0006658D01*
X0086306Y0006658D01*
G37*
G36*
X0083766Y0006658D02*
X0081842Y0006658D01*
X0081842Y0008582D01*
X0083766Y0008582D01*
X0083766Y0006658D01*
X0083766Y0006658D01*
G37*
G36*
X0081226Y0006658D02*
X0079302Y0006658D01*
X0079302Y0008582D01*
X0081226Y0008582D01*
X0081226Y0006658D01*
X0081226Y0006658D01*
G37*
G36*
X0076146Y0006658D02*
X0074222Y0006658D01*
X0074222Y0008582D01*
X0076146Y0008582D01*
X0076146Y0006658D01*
X0076146Y0006658D01*
G37*
G36*
X0073606Y0006658D02*
X0071682Y0006658D01*
X0071682Y0008582D01*
X0073606Y0008582D01*
X0073606Y0006658D01*
X0073606Y0006658D01*
G37*
G36*
X0045666Y0006658D02*
X0043742Y0006658D01*
X0043742Y0008582D01*
X0045666Y0008582D01*
X0045666Y0006658D01*
X0045666Y0006658D01*
G37*
G36*
X0048206Y0006658D02*
X0046282Y0006658D01*
X0046282Y0008582D01*
X0048206Y0008582D01*
X0048206Y0006658D01*
X0048206Y0006658D01*
G37*
G36*
X0050746Y0006658D02*
X0048822Y0006658D01*
X0048822Y0008582D01*
X0050746Y0008582D01*
X0050746Y0006658D01*
X0050746Y0006658D01*
G37*
G36*
X0058366Y0006658D02*
X0056442Y0006658D01*
X0056442Y0008582D01*
X0058366Y0008582D01*
X0058366Y0006658D01*
X0058366Y0006658D01*
G37*
G36*
X0060906Y0006658D02*
X0058982Y0006658D01*
X0058982Y0008582D01*
X0060906Y0008582D01*
X0060906Y0006658D01*
X0060906Y0006658D01*
G37*
G36*
X0063446Y0006658D02*
X0061522Y0006658D01*
X0061522Y0008582D01*
X0063446Y0008582D01*
X0063446Y0006658D01*
X0063446Y0006658D01*
G37*
G36*
X0068526Y0006658D02*
X0066602Y0006658D01*
X0066602Y0008582D01*
X0068526Y0008582D01*
X0068526Y0006658D01*
X0068526Y0006658D01*
G37*
G36*
X0055826Y0006658D02*
X0053902Y0006658D01*
X0053902Y0008582D01*
X0055826Y0008582D01*
X0055826Y0006658D01*
X0055826Y0006658D01*
G37*
G36*
X0071066Y0006658D02*
X0069142Y0006658D01*
X0069142Y0008582D01*
X0071066Y0008582D01*
X0071066Y0006658D01*
X0071066Y0006658D01*
G37*
G36*
X0040650Y0008309D02*
X0038853Y0008309D01*
X0038853Y0009598D01*
X0040650Y0009598D01*
X0040650Y0008309D01*
X0040650Y0008309D01*
G37*
G36*
X0099395Y0008827D02*
X0096693Y0008827D01*
X0096693Y0011727D01*
X0099395Y0011727D01*
X0099395Y0008827D01*
X0099395Y0008827D01*
G37*
G36*
X0043126Y0009198D02*
X0041202Y0009198D01*
X0041202Y0011122D01*
X0043126Y0011122D01*
X0043126Y0009198D01*
X0043126Y0009198D01*
G37*
G36*
X0045666Y0009198D02*
X0043742Y0009198D01*
X0043742Y0011122D01*
X0045666Y0011122D01*
X0045666Y0009198D01*
X0045666Y0009198D01*
G37*
G36*
X0048206Y0009198D02*
X0046282Y0009198D01*
X0046282Y0011122D01*
X0048206Y0011122D01*
X0048206Y0009198D01*
X0048206Y0009198D01*
G37*
G36*
X0076146Y0009198D02*
X0074222Y0009198D01*
X0074222Y0011122D01*
X0076146Y0011122D01*
X0076146Y0009198D01*
X0076146Y0009198D01*
G37*
G36*
X0073606Y0009198D02*
X0071682Y0009198D01*
X0071682Y0011122D01*
X0073606Y0011122D01*
X0073606Y0009198D01*
X0073606Y0009198D01*
G37*
G36*
X0071066Y0009198D02*
X0069142Y0009198D01*
X0069142Y0011122D01*
X0071066Y0011122D01*
X0071066Y0009198D01*
X0071066Y0009198D01*
G37*
G36*
X0086306Y0009198D02*
X0084382Y0009198D01*
X0084382Y0011122D01*
X0086306Y0011122D01*
X0086306Y0009198D01*
X0086306Y0009198D01*
G37*
G36*
X0068526Y0009198D02*
X0066602Y0009198D01*
X0066602Y0011122D01*
X0068526Y0011122D01*
X0068526Y0009198D01*
X0068526Y0009198D01*
G37*
G36*
X0081226Y0009198D02*
X0079302Y0009198D01*
X0079302Y0011122D01*
X0081226Y0011122D01*
X0081226Y0009198D01*
X0081226Y0009198D01*
G37*
G36*
X0063446Y0009198D02*
X0061522Y0009198D01*
X0061522Y0011122D01*
X0063446Y0011122D01*
X0063446Y0009198D01*
X0063446Y0009198D01*
G37*
G36*
X0060906Y0009198D02*
X0058982Y0009198D01*
X0058982Y0011122D01*
X0060906Y0011122D01*
X0060906Y0009198D01*
X0060906Y0009198D01*
G37*
G36*
X0055826Y0009198D02*
X0053902Y0009198D01*
X0053902Y0011122D01*
X0055826Y0011122D01*
X0055826Y0009198D01*
X0055826Y0009198D01*
G37*
G36*
X0058366Y0009198D02*
X0056442Y0009198D01*
X0056442Y0011122D01*
X0058366Y0011122D01*
X0058366Y0009198D01*
X0058366Y0009198D01*
G37*
G36*
X0088846Y0009198D02*
X0086922Y0009198D01*
X0086922Y0011122D01*
X0088846Y0011122D01*
X0088846Y0009198D01*
X0088846Y0009198D01*
G37*
G36*
X0050746Y0009198D02*
X0048822Y0009198D01*
X0048822Y0011122D01*
X0050746Y0011122D01*
X0050746Y0009198D01*
X0050746Y0009198D01*
G37*
G36*
X0083766Y0009198D02*
X0081842Y0009198D01*
X0081842Y0011122D01*
X0083766Y0011122D01*
X0083766Y0009198D01*
X0083766Y0009198D01*
G37*
G36*
X0103324Y0009706D02*
X0101400Y0009706D01*
X0101400Y0011630D01*
X0103324Y0011630D01*
X0103324Y0009706D01*
X0103324Y0009706D01*
G37*
G36*
X0105864Y0009706D02*
X0103940Y0009706D01*
X0103940Y0011630D01*
X0105864Y0011630D01*
X0105864Y0009706D01*
X0105864Y0009706D01*
G37*
G36*
X0094500Y0010016D02*
X0090920Y0010016D01*
X0090920Y0012416D01*
X0094500Y0012416D01*
X0094500Y0010016D01*
X0094500Y0010016D01*
G37*
G36*
X0109154Y0014998D02*
X0109156Y0014979D01*
X0109162Y0014960D01*
X0109171Y0014943D01*
X0109183Y0014927D01*
X0109196Y0014917D01*
X0109411Y0014700D01*
X0109579Y0014447D01*
X0109695Y0014166D01*
X0109754Y0013869D01*
X0109754Y0013869D01*
X0109754Y0013868D01*
X0109749Y0013521D01*
X0109749Y0013520D01*
X0109749Y0013520D01*
X0109682Y0013224D01*
X0109558Y0012947D01*
X0109383Y0012698D01*
X0109185Y0012510D01*
X0109172Y0012495D01*
X0109163Y0012478D01*
X0109156Y0012459D01*
X0109154Y0012437D01*
X0109154Y0010991D01*
X0107254Y0010991D01*
X0107254Y0012436D01*
X0107252Y0012456D01*
X0107246Y0012475D01*
X0107237Y0012492D01*
X0107225Y0012507D01*
X0107211Y0012518D01*
X0107195Y0012530D01*
X0106983Y0012749D01*
X0106819Y0013004D01*
X0106707Y0013287D01*
X0106652Y0013586D01*
X0106656Y0013890D01*
X0106719Y0014187D01*
X0106839Y0014466D01*
X0107011Y0014717D01*
X0107224Y0014926D01*
X0107237Y0014941D01*
X0107246Y0014958D01*
X0107252Y0014977D01*
X0107254Y0014997D01*
X0107254Y0016441D01*
X0109154Y0016441D01*
X0109154Y0014998D01*
X0109154Y0014998D01*
G37*
G36*
X0033863Y0011387D02*
X0031161Y0011387D01*
X0031161Y0014287D01*
X0033863Y0014287D01*
X0033863Y0011387D01*
X0033863Y0011387D01*
G37*
G36*
X0078244Y0011794D02*
X0074664Y0011794D01*
X0074664Y0012210D01*
X0074662Y0012229D01*
X0074656Y0012248D01*
X0074647Y0012265D01*
X0074635Y0012280D01*
X0074620Y0012293D01*
X0074602Y0012302D01*
X0074584Y0012308D01*
X0074564Y0012310D01*
X0073206Y0012310D01*
X0073206Y0014107D01*
X0074564Y0014107D01*
X0074584Y0014108D01*
X0074602Y0014114D01*
X0074620Y0014123D01*
X0074635Y0014136D01*
X0074647Y0014151D01*
X0074656Y0014168D01*
X0074662Y0014187D01*
X0074663Y0014194D01*
X0078244Y0014194D01*
X0078244Y0011794D01*
X0078244Y0011794D01*
G37*
G36*
X0067068Y0011794D02*
X0063488Y0011794D01*
X0063488Y0014194D01*
X0067068Y0014194D01*
X0067068Y0011794D01*
X0067068Y0011794D01*
G37*
G36*
X0055384Y0011921D02*
X0051804Y0011921D01*
X0051804Y0014321D01*
X0055384Y0014321D01*
X0055384Y0011921D01*
X0055384Y0011921D01*
G37*
G36*
X0089674Y0012048D02*
X0086094Y0012048D01*
X0086094Y0014448D01*
X0089674Y0014448D01*
X0089674Y0012048D01*
X0089674Y0012048D01*
G37*
G36*
X0103324Y0012246D02*
X0101400Y0012246D01*
X0101400Y0014170D01*
X0103324Y0014170D01*
X0103324Y0012246D01*
X0103324Y0012246D01*
G37*
G36*
X0105864Y0012246D02*
X0103940Y0012246D01*
X0103940Y0014170D01*
X0105864Y0014170D01*
X0105864Y0012246D01*
X0105864Y0012246D01*
G37*
G36*
X0061160Y0012310D02*
X0059871Y0012310D01*
X0059871Y0014107D01*
X0061160Y0014107D01*
X0061160Y0012310D01*
X0061160Y0012310D01*
G37*
G36*
X0063065Y0012310D02*
X0061776Y0012310D01*
X0061776Y0014107D01*
X0063065Y0014107D01*
X0063065Y0012310D01*
X0063065Y0012310D01*
G37*
G36*
X0069034Y0012310D02*
X0067745Y0012310D01*
X0067745Y0014107D01*
X0069034Y0014107D01*
X0069034Y0012310D01*
X0069034Y0012310D01*
G37*
G36*
X0083766Y0012310D02*
X0082477Y0012310D01*
X0082477Y0014107D01*
X0083766Y0014107D01*
X0083766Y0012310D01*
X0083766Y0012310D01*
G37*
G36*
X0082115Y0012310D02*
X0080826Y0012310D01*
X0080826Y0014107D01*
X0082115Y0014107D01*
X0082115Y0012310D01*
X0082115Y0012310D01*
G37*
G36*
X0049095Y0012310D02*
X0047806Y0012310D01*
X0047806Y0014107D01*
X0049095Y0014107D01*
X0049095Y0012310D01*
X0049095Y0012310D01*
G37*
G36*
X0080210Y0012310D02*
X0078921Y0012310D01*
X0078921Y0014107D01*
X0080210Y0014107D01*
X0080210Y0012310D01*
X0080210Y0012310D01*
G37*
G36*
X0043380Y0012310D02*
X0042091Y0012310D01*
X0042091Y0014107D01*
X0043380Y0014107D01*
X0043380Y0012310D01*
X0043380Y0012310D01*
G37*
G36*
X0047190Y0012310D02*
X0045901Y0012310D01*
X0045901Y0014107D01*
X0047190Y0014107D01*
X0047190Y0012310D01*
X0047190Y0012310D01*
G37*
G36*
X0072590Y0012310D02*
X0071301Y0012310D01*
X0071301Y0014107D01*
X0072590Y0014107D01*
X0072590Y0012310D01*
X0072590Y0012310D01*
G37*
G36*
X0070939Y0012310D02*
X0069650Y0012310D01*
X0069650Y0014107D01*
X0070939Y0014107D01*
X0070939Y0012310D01*
X0070939Y0012310D01*
G37*
G36*
X0059255Y0012310D02*
X0057966Y0012310D01*
X0057966Y0014107D01*
X0059255Y0014107D01*
X0059255Y0012310D01*
X0059255Y0012310D01*
G37*
G36*
X0085671Y0012310D02*
X0084382Y0012310D01*
X0084382Y0014107D01*
X0085671Y0014107D01*
X0085671Y0012310D01*
X0085671Y0012310D01*
G37*
G36*
X0057350Y0012310D02*
X0056061Y0012310D01*
X0056061Y0014107D01*
X0057350Y0014107D01*
X0057350Y0012310D01*
X0057350Y0012310D01*
G37*
G36*
X0045285Y0012310D02*
X0043996Y0012310D01*
X0043996Y0014107D01*
X0045285Y0014107D01*
X0045285Y0012310D01*
X0045285Y0012310D01*
G37*
G36*
X0040332Y0012754D02*
X0038408Y0012754D01*
X0038408Y0014678D01*
X0040332Y0014678D01*
X0040332Y0012754D01*
X0040332Y0012754D01*
G37*
G36*
X0037792Y0012754D02*
X0035868Y0012754D01*
X0035868Y0014678D01*
X0037792Y0014678D01*
X0037792Y0012754D01*
X0037792Y0012754D01*
G37*
G36*
X0100213Y0012881D02*
X0098416Y0012881D01*
X0098416Y0014170D01*
X0100213Y0014170D01*
X0100213Y0012881D01*
X0100213Y0012881D01*
G37*
G36*
X0047510Y0014588D02*
X0043930Y0014588D01*
X0043930Y0016988D01*
X0047510Y0016988D01*
X0047510Y0014588D01*
X0047510Y0014588D01*
G37*
G36*
X0043317Y0014659D02*
X0041520Y0014659D01*
X0041520Y0015948D01*
X0043317Y0015948D01*
X0043317Y0014659D01*
X0043317Y0014659D01*
G37*
G36*
X0105864Y0014786D02*
X0103940Y0014786D01*
X0103940Y0016710D01*
X0105864Y0016710D01*
X0105864Y0014786D01*
X0105864Y0014786D01*
G37*
G36*
X0100213Y0014786D02*
X0098416Y0014786D01*
X0098416Y0016075D01*
X0100213Y0016075D01*
X0100213Y0014786D01*
X0100213Y0014786D01*
G37*
G36*
X0103324Y0014786D02*
X0101400Y0014786D01*
X0101400Y0016710D01*
X0103324Y0016710D01*
X0103324Y0014786D01*
X0103324Y0014786D01*
G37*
G36*
X0094500Y0015016D02*
X0090920Y0015016D01*
X0090920Y0017416D01*
X0094500Y0017416D01*
X0094500Y0015016D01*
X0094500Y0015016D01*
G37*
G36*
X0037792Y0015294D02*
X0035868Y0015294D01*
X0035868Y0017218D01*
X0037792Y0017218D01*
X0037792Y0015294D01*
X0037792Y0015294D01*
G37*
G36*
X0040332Y0015294D02*
X0038408Y0015294D01*
X0038408Y0017218D01*
X0040332Y0017218D01*
X0040332Y0015294D01*
X0040332Y0015294D01*
G37*
G36*
X0033863Y0015685D02*
X0031161Y0015685D01*
X0031161Y0018585D01*
X0033863Y0018585D01*
X0033863Y0015685D01*
X0033863Y0015685D01*
G37*
G36*
X0070546Y0018938D02*
X0070548Y0018918D01*
X0070554Y0018900D01*
X0070563Y0018882D01*
X0070575Y0018867D01*
X0070590Y0018855D01*
X0070608Y0018846D01*
X0070626Y0018840D01*
X0070646Y0018838D01*
X0071296Y0018838D01*
X0071296Y0017738D01*
X0070646Y0017738D01*
X0070626Y0017736D01*
X0070608Y0017730D01*
X0070590Y0017721D01*
X0070575Y0017709D01*
X0070563Y0017694D01*
X0070554Y0017676D01*
X0070548Y0017658D01*
X0070546Y0017638D01*
X0070546Y0016088D01*
X0068646Y0016088D01*
X0068646Y0017638D01*
X0068644Y0017658D01*
X0068638Y0017676D01*
X0068629Y0017694D01*
X0068617Y0017709D01*
X0068602Y0017721D01*
X0068584Y0017730D01*
X0068566Y0017736D01*
X0068546Y0017738D01*
X0067896Y0017738D01*
X0067896Y0018838D01*
X0068546Y0018838D01*
X0068566Y0018840D01*
X0068584Y0018846D01*
X0068602Y0018855D01*
X0068617Y0018867D01*
X0068629Y0018882D01*
X0068638Y0018900D01*
X0068644Y0018918D01*
X0068646Y0018938D01*
X0068646Y0020488D01*
X0070546Y0020488D01*
X0070546Y0018938D01*
X0070546Y0018938D01*
G37*
G36*
X0058608Y0018938D02*
X0058610Y0018918D01*
X0058616Y0018900D01*
X0058625Y0018882D01*
X0058637Y0018867D01*
X0058652Y0018855D01*
X0058670Y0018846D01*
X0058688Y0018840D01*
X0058708Y0018838D01*
X0060164Y0018838D01*
X0060184Y0018840D01*
X0060202Y0018846D01*
X0060220Y0018855D01*
X0060235Y0018867D01*
X0060247Y0018882D01*
X0060256Y0018900D01*
X0060262Y0018918D01*
X0060264Y0018938D01*
X0060264Y0020488D01*
X0062164Y0020488D01*
X0062164Y0018938D01*
X0062166Y0018918D01*
X0062172Y0018900D01*
X0062181Y0018882D01*
X0062193Y0018867D01*
X0062208Y0018855D01*
X0062226Y0018846D01*
X0062244Y0018840D01*
X0062264Y0018838D01*
X0062914Y0018838D01*
X0062914Y0017738D01*
X0062264Y0017738D01*
X0062244Y0017736D01*
X0062226Y0017730D01*
X0062208Y0017721D01*
X0062193Y0017709D01*
X0062181Y0017694D01*
X0062172Y0017676D01*
X0062166Y0017658D01*
X0062164Y0017638D01*
X0062164Y0016088D01*
X0060264Y0016088D01*
X0060264Y0017638D01*
X0060262Y0017658D01*
X0060256Y0017676D01*
X0060247Y0017694D01*
X0060235Y0017709D01*
X0060220Y0017721D01*
X0060202Y0017730D01*
X0060184Y0017736D01*
X0060164Y0017738D01*
X0058708Y0017738D01*
X0058688Y0017736D01*
X0058670Y0017730D01*
X0058652Y0017721D01*
X0058637Y0017709D01*
X0058625Y0017694D01*
X0058616Y0017676D01*
X0058610Y0017658D01*
X0058608Y0017638D01*
X0058608Y0016088D01*
X0056708Y0016088D01*
X0056708Y0017638D01*
X0056706Y0017658D01*
X0056700Y0017676D01*
X0056691Y0017694D01*
X0056679Y0017709D01*
X0056664Y0017721D01*
X0056646Y0017730D01*
X0056628Y0017736D01*
X0056608Y0017738D01*
X0055958Y0017738D01*
X0055958Y0018838D01*
X0056608Y0018838D01*
X0056628Y0018840D01*
X0056646Y0018846D01*
X0056664Y0018855D01*
X0056679Y0018867D01*
X0056691Y0018882D01*
X0056700Y0018900D01*
X0056706Y0018918D01*
X0056708Y0018938D01*
X0056708Y0020488D01*
X0058608Y0020488D01*
X0058608Y0018938D01*
X0058608Y0018938D01*
G37*
G36*
X0084516Y0019192D02*
X0084518Y0019172D01*
X0084524Y0019154D01*
X0084533Y0019136D01*
X0084545Y0019121D01*
X0084560Y0019109D01*
X0084578Y0019100D01*
X0084596Y0019094D01*
X0084616Y0019092D01*
X0085266Y0019092D01*
X0085266Y0017992D01*
X0084616Y0017992D01*
X0084596Y0017990D01*
X0084578Y0017984D01*
X0084560Y0017975D01*
X0084545Y0017963D01*
X0084533Y0017948D01*
X0084524Y0017930D01*
X0084518Y0017912D01*
X0084516Y0017892D01*
X0084516Y0016342D01*
X0082616Y0016342D01*
X0082616Y0017892D01*
X0082614Y0017912D01*
X0082608Y0017930D01*
X0082599Y0017948D01*
X0082587Y0017963D01*
X0082572Y0017975D01*
X0082554Y0017984D01*
X0082536Y0017990D01*
X0082516Y0017992D01*
X0081866Y0017992D01*
X0081866Y0019092D01*
X0082516Y0019092D01*
X0082536Y0019094D01*
X0082554Y0019100D01*
X0082572Y0019109D01*
X0082587Y0019121D01*
X0082599Y0019136D01*
X0082608Y0019154D01*
X0082614Y0019172D01*
X0082616Y0019192D01*
X0082616Y0020742D01*
X0084516Y0020742D01*
X0084516Y0019192D01*
X0084516Y0019192D01*
G37*
G36*
X0050734Y0019192D02*
X0050736Y0019172D01*
X0050742Y0019154D01*
X0050751Y0019136D01*
X0050763Y0019121D01*
X0050778Y0019109D01*
X0050796Y0019100D01*
X0050814Y0019094D01*
X0050834Y0019092D01*
X0051484Y0019092D01*
X0051484Y0017992D01*
X0050834Y0017992D01*
X0050814Y0017990D01*
X0050796Y0017984D01*
X0050778Y0017975D01*
X0050763Y0017963D01*
X0050751Y0017948D01*
X0050742Y0017930D01*
X0050736Y0017912D01*
X0050734Y0017892D01*
X0050734Y0016342D01*
X0048834Y0016342D01*
X0048834Y0017892D01*
X0048832Y0017912D01*
X0048826Y0017930D01*
X0048817Y0017948D01*
X0048805Y0017963D01*
X0048790Y0017975D01*
X0048772Y0017984D01*
X0048754Y0017990D01*
X0048734Y0017992D01*
X0048084Y0017992D01*
X0048084Y0019092D01*
X0048734Y0019092D01*
X0048754Y0019094D01*
X0048772Y0019100D01*
X0048790Y0019109D01*
X0048805Y0019121D01*
X0048817Y0019136D01*
X0048826Y0019154D01*
X0048832Y0019172D01*
X0048834Y0019192D01*
X0048834Y0020742D01*
X0050734Y0020742D01*
X0050734Y0019192D01*
X0050734Y0019192D01*
G37*
G36*
X0043317Y0016564D02*
X0041520Y0016564D01*
X0041520Y0017853D01*
X0043317Y0017853D01*
X0043317Y0016564D01*
X0043317Y0016564D01*
G37*
G36*
X0100213Y0016691D02*
X0098416Y0016691D01*
X0098416Y0017980D01*
X0100213Y0017980D01*
X0100213Y0016691D01*
X0100213Y0016691D01*
G37*
G36*
X0109103Y0016691D02*
X0107306Y0016691D01*
X0107306Y0017980D01*
X0109103Y0017980D01*
X0109103Y0016691D01*
X0109103Y0016691D01*
G37*
G36*
X0067068Y0016794D02*
X0063488Y0016794D01*
X0063488Y0019194D01*
X0067068Y0019194D01*
X0067068Y0016794D01*
X0067068Y0016794D01*
G37*
G36*
X0078244Y0016794D02*
X0074664Y0016794D01*
X0074664Y0019194D01*
X0078244Y0019194D01*
X0078244Y0016794D01*
X0078244Y0016794D01*
G37*
G36*
X0055384Y0016921D02*
X0051804Y0016921D01*
X0051804Y0019321D01*
X0055384Y0019321D01*
X0055384Y0016921D01*
X0055384Y0016921D01*
G37*
G36*
X0089682Y0019454D02*
X0089676Y0019436D01*
X0089674Y0019416D01*
X0089674Y0017048D01*
X0086094Y0017048D01*
X0086094Y0019448D01*
X0089640Y0019448D01*
X0089660Y0019450D01*
X0089678Y0019456D01*
X0089684Y0019459D01*
X0089682Y0019454D01*
X0089682Y0019454D01*
G37*
G36*
X0103324Y0017326D02*
X0101400Y0017326D01*
X0101400Y0019250D01*
X0103324Y0019250D01*
X0103324Y0017326D01*
X0103324Y0017326D01*
G37*
G36*
X0105864Y0017326D02*
X0103940Y0017326D01*
X0103940Y0019250D01*
X0105864Y0019250D01*
X0105864Y0017326D01*
X0105864Y0017326D01*
G37*
G36*
X0040332Y0017834D02*
X0038408Y0017834D01*
X0038408Y0019758D01*
X0040332Y0019758D01*
X0040332Y0017834D01*
X0040332Y0017834D01*
G37*
G36*
X0037792Y0017834D02*
X0035868Y0017834D01*
X0035868Y0019758D01*
X0037792Y0019758D01*
X0037792Y0017834D01*
X0037792Y0017834D01*
G37*
G36*
X0091120Y0025288D02*
X0091122Y0025268D01*
X0091128Y0025250D01*
X0091137Y0025232D01*
X0091149Y0025217D01*
X0091164Y0025205D01*
X0091182Y0025196D01*
X0091200Y0025190D01*
X0091220Y0025188D01*
X0091870Y0025188D01*
X0091870Y0024088D01*
X0091220Y0024088D01*
X0091200Y0024086D01*
X0091182Y0024080D01*
X0091164Y0024071D01*
X0091149Y0024059D01*
X0091137Y0024044D01*
X0091128Y0024026D01*
X0091122Y0024008D01*
X0091120Y0023988D01*
X0091120Y0022366D01*
X0091122Y0022346D01*
X0091128Y0022328D01*
X0091137Y0022310D01*
X0091149Y0022295D01*
X0091164Y0022283D01*
X0091182Y0022274D01*
X0091200Y0022268D01*
X0091220Y0022266D01*
X0092390Y0022266D01*
X0092390Y0020716D01*
X0092392Y0020696D01*
X0092398Y0020678D01*
X0092407Y0020660D01*
X0092419Y0020645D01*
X0092434Y0020633D01*
X0092452Y0020624D01*
X0092470Y0020618D01*
X0092490Y0020616D01*
X0093140Y0020616D01*
X0093140Y0019516D01*
X0092490Y0019516D01*
X0092470Y0019514D01*
X0092452Y0019508D01*
X0092434Y0019499D01*
X0092419Y0019487D01*
X0092407Y0019472D01*
X0092398Y0019454D01*
X0092392Y0019436D01*
X0092390Y0019416D01*
X0092390Y0017866D01*
X0090490Y0017866D01*
X0090490Y0019416D01*
X0090488Y0019436D01*
X0090482Y0019454D01*
X0090473Y0019472D01*
X0090461Y0019487D01*
X0090446Y0019499D01*
X0090428Y0019508D01*
X0090410Y0019514D01*
X0090390Y0019516D01*
X0089774Y0019516D01*
X0089754Y0019514D01*
X0089736Y0019508D01*
X0089730Y0019505D01*
X0089732Y0019510D01*
X0089738Y0019528D01*
X0089740Y0019548D01*
X0089740Y0020616D01*
X0090390Y0020616D01*
X0090410Y0020618D01*
X0090428Y0020624D01*
X0090446Y0020633D01*
X0090461Y0020645D01*
X0090473Y0020660D01*
X0090482Y0020678D01*
X0090488Y0020696D01*
X0090490Y0020716D01*
X0090490Y0022338D01*
X0090488Y0022358D01*
X0090482Y0022376D01*
X0090473Y0022394D01*
X0090461Y0022409D01*
X0090446Y0022421D01*
X0090428Y0022430D01*
X0090410Y0022436D01*
X0090390Y0022438D01*
X0089220Y0022438D01*
X0089220Y0023988D01*
X0089218Y0024008D01*
X0089212Y0024026D01*
X0089203Y0024044D01*
X0089191Y0024059D01*
X0089176Y0024071D01*
X0089158Y0024080D01*
X0089140Y0024086D01*
X0089120Y0024088D01*
X0088470Y0024088D01*
X0088470Y0025188D01*
X0089120Y0025188D01*
X0089140Y0025190D01*
X0089158Y0025196D01*
X0089176Y0025205D01*
X0089191Y0025217D01*
X0089203Y0025232D01*
X0089212Y0025250D01*
X0089218Y0025268D01*
X0089220Y0025288D01*
X0089220Y0026838D01*
X0091120Y0026838D01*
X0091120Y0025288D01*
X0091120Y0025288D01*
G37*
G36*
X0109103Y0018596D02*
X0107306Y0018596D01*
X0107306Y0019885D01*
X0109103Y0019885D01*
X0109103Y0018596D01*
X0109103Y0018596D01*
G37*
G36*
X0100213Y0018596D02*
X0098416Y0018596D01*
X0098416Y0019885D01*
X0100213Y0019885D01*
X0100213Y0018596D01*
X0100213Y0018596D01*
G37*
G36*
X0043317Y0018977D02*
X0041520Y0018977D01*
X0041520Y0020266D01*
X0043317Y0020266D01*
X0043317Y0018977D01*
X0043317Y0018977D01*
G37*
G36*
X0096855Y0019261D02*
X0094153Y0019261D01*
X0094153Y0022161D01*
X0096855Y0022161D01*
X0096855Y0019261D01*
X0096855Y0019261D01*
G37*
G36*
X0033462Y0023380D02*
X0033464Y0023361D01*
X0033470Y0023342D01*
X0033479Y0023325D01*
X0033491Y0023309D01*
X0033504Y0023299D01*
X0033719Y0023082D01*
X0033887Y0022829D01*
X0034003Y0022548D01*
X0034062Y0022251D01*
X0034062Y0022251D01*
X0034062Y0022250D01*
X0034057Y0021903D01*
X0034057Y0021902D01*
X0034057Y0021902D01*
X0033990Y0021606D01*
X0033866Y0021329D01*
X0033691Y0021080D01*
X0033493Y0020892D01*
X0033480Y0020877D01*
X0033471Y0020860D01*
X0033464Y0020841D01*
X0033462Y0020819D01*
X0033462Y0019373D01*
X0031562Y0019373D01*
X0031562Y0020818D01*
X0031560Y0020838D01*
X0031554Y0020857D01*
X0031545Y0020874D01*
X0031533Y0020889D01*
X0031519Y0020900D01*
X0031503Y0020912D01*
X0031291Y0021131D01*
X0031127Y0021386D01*
X0031015Y0021669D01*
X0030960Y0021968D01*
X0030964Y0022272D01*
X0031027Y0022569D01*
X0031147Y0022848D01*
X0031319Y0023099D01*
X0031532Y0023308D01*
X0031545Y0023323D01*
X0031554Y0023340D01*
X0031560Y0023359D01*
X0031562Y0023379D01*
X0031562Y0024823D01*
X0033462Y0024823D01*
X0033462Y0023380D01*
X0033462Y0023380D01*
G37*
G36*
X0047510Y0019588D02*
X0043930Y0019588D01*
X0043930Y0021988D01*
X0047510Y0021988D01*
X0047510Y0019588D01*
X0047510Y0019588D01*
G37*
G36*
X0037792Y0020374D02*
X0035868Y0020374D01*
X0035868Y0022298D01*
X0037792Y0022298D01*
X0037792Y0020374D01*
X0037792Y0020374D01*
G37*
G36*
X0040332Y0020374D02*
X0038408Y0020374D01*
X0038408Y0022298D01*
X0040332Y0022298D01*
X0040332Y0020374D01*
X0040332Y0020374D01*
G37*
G36*
X0105864Y0020628D02*
X0103940Y0020628D01*
X0103940Y0022552D01*
X0105864Y0022552D01*
X0105864Y0020628D01*
X0105864Y0020628D01*
G37*
G36*
X0103324Y0020628D02*
X0101400Y0020628D01*
X0101400Y0022552D01*
X0103324Y0022552D01*
X0103324Y0020628D01*
X0103324Y0020628D01*
G37*
G36*
X0043317Y0020882D02*
X0041520Y0020882D01*
X0041520Y0022171D01*
X0043317Y0022171D01*
X0043317Y0020882D01*
X0043317Y0020882D01*
G37*
G36*
X0077658Y0023764D02*
X0077660Y0023744D01*
X0077666Y0023726D01*
X0077675Y0023708D01*
X0077687Y0023693D01*
X0077702Y0023681D01*
X0077720Y0023672D01*
X0077738Y0023666D01*
X0077758Y0023664D01*
X0078408Y0023664D01*
X0078408Y0022564D01*
X0077758Y0022564D01*
X0077738Y0022562D01*
X0077720Y0022556D01*
X0077702Y0022547D01*
X0077687Y0022535D01*
X0077675Y0022520D01*
X0077666Y0022502D01*
X0077660Y0022484D01*
X0077658Y0022464D01*
X0077658Y0020914D01*
X0075758Y0020914D01*
X0075758Y0022464D01*
X0075756Y0022484D01*
X0075750Y0022502D01*
X0075741Y0022520D01*
X0075729Y0022535D01*
X0075714Y0022547D01*
X0075696Y0022556D01*
X0075678Y0022562D01*
X0075658Y0022564D01*
X0075008Y0022564D01*
X0075008Y0023664D01*
X0075658Y0023664D01*
X0075678Y0023666D01*
X0075696Y0023672D01*
X0075714Y0023681D01*
X0075729Y0023693D01*
X0075741Y0023708D01*
X0075750Y0023726D01*
X0075756Y0023744D01*
X0075758Y0023764D01*
X0075758Y0025314D01*
X0077658Y0025314D01*
X0077658Y0023764D01*
X0077658Y0023764D01*
G37*
G36*
X0065466Y0023764D02*
X0065468Y0023744D01*
X0065474Y0023726D01*
X0065483Y0023708D01*
X0065495Y0023693D01*
X0065510Y0023681D01*
X0065528Y0023672D01*
X0065546Y0023666D01*
X0065566Y0023664D01*
X0066216Y0023664D01*
X0066216Y0022564D01*
X0065566Y0022564D01*
X0065546Y0022562D01*
X0065528Y0022556D01*
X0065510Y0022547D01*
X0065495Y0022535D01*
X0065483Y0022520D01*
X0065474Y0022502D01*
X0065468Y0022484D01*
X0065466Y0022464D01*
X0065466Y0020914D01*
X0063566Y0020914D01*
X0063566Y0022464D01*
X0063564Y0022484D01*
X0063558Y0022502D01*
X0063549Y0022520D01*
X0063537Y0022535D01*
X0063522Y0022547D01*
X0063504Y0022556D01*
X0063486Y0022562D01*
X0063466Y0022564D01*
X0062816Y0022564D01*
X0062816Y0023664D01*
X0063466Y0023664D01*
X0063486Y0023666D01*
X0063504Y0023672D01*
X0063522Y0023681D01*
X0063537Y0023693D01*
X0063549Y0023708D01*
X0063558Y0023726D01*
X0063564Y0023744D01*
X0063566Y0023764D01*
X0063566Y0025314D01*
X0065466Y0025314D01*
X0065466Y0023764D01*
X0065466Y0023764D01*
G37*
G36*
X0109154Y0025920D02*
X0109156Y0025901D01*
X0109162Y0025882D01*
X0109171Y0025865D01*
X0109183Y0025849D01*
X0109196Y0025839D01*
X0109411Y0025622D01*
X0109579Y0025369D01*
X0109695Y0025088D01*
X0109754Y0024791D01*
X0109754Y0024791D01*
X0109754Y0024790D01*
X0109749Y0024443D01*
X0109749Y0024442D01*
X0109749Y0024442D01*
X0109682Y0024146D01*
X0109558Y0023869D01*
X0109383Y0023620D01*
X0109185Y0023432D01*
X0109172Y0023417D01*
X0109163Y0023400D01*
X0109156Y0023381D01*
X0109154Y0023359D01*
X0109154Y0021913D01*
X0107254Y0021913D01*
X0107254Y0023358D01*
X0107252Y0023378D01*
X0107246Y0023397D01*
X0107237Y0023414D01*
X0107225Y0023429D01*
X0107211Y0023440D01*
X0107195Y0023452D01*
X0106983Y0023671D01*
X0106819Y0023926D01*
X0106707Y0024209D01*
X0106652Y0024508D01*
X0106656Y0024812D01*
X0106719Y0025109D01*
X0106839Y0025388D01*
X0107011Y0025639D01*
X0107224Y0025848D01*
X0107237Y0025863D01*
X0107246Y0025880D01*
X0107252Y0025899D01*
X0107254Y0025919D01*
X0107254Y0027363D01*
X0109154Y0027363D01*
X0109154Y0025920D01*
X0109154Y0025920D01*
G37*
G36*
X0051127Y0022403D02*
X0046917Y0022403D01*
X0046917Y0026133D01*
X0051127Y0026133D01*
X0051127Y0022403D01*
X0051127Y0022403D01*
G37*
G36*
X0074058Y0022594D02*
X0071658Y0022594D01*
X0071658Y0026174D01*
X0074058Y0026174D01*
X0074058Y0022594D01*
X0074058Y0022594D01*
G37*
G36*
X0081250Y0022594D02*
X0078850Y0022594D01*
X0078850Y0026174D01*
X0081250Y0026174D01*
X0081250Y0022594D01*
X0081250Y0022594D01*
G37*
G36*
X0086250Y0022594D02*
X0083850Y0022594D01*
X0083850Y0026174D01*
X0086250Y0026174D01*
X0086250Y0022594D01*
X0086250Y0022594D01*
G37*
G36*
X0069058Y0022594D02*
X0066658Y0022594D01*
X0066658Y0026174D01*
X0069058Y0026174D01*
X0069058Y0022594D01*
X0069058Y0022594D01*
G37*
G36*
X0103324Y0023168D02*
X0101400Y0023168D01*
X0101400Y0025092D01*
X0103324Y0025092D01*
X0103324Y0023168D01*
X0103324Y0023168D01*
G37*
G36*
X0105864Y0023168D02*
X0103940Y0023168D01*
X0103940Y0025092D01*
X0105864Y0025092D01*
X0105864Y0023168D01*
X0105864Y0023168D01*
G37*
G36*
X0055689Y0023287D02*
X0052789Y0023287D01*
X0052789Y0025989D01*
X0055689Y0025989D01*
X0055689Y0023287D01*
X0055689Y0023287D01*
G37*
G36*
X0059987Y0023287D02*
X0057087Y0023287D01*
X0057087Y0025989D01*
X0059987Y0025989D01*
X0059987Y0023287D01*
X0059987Y0023287D01*
G37*
G36*
X0096855Y0023559D02*
X0094153Y0023559D01*
X0094153Y0026459D01*
X0096855Y0026459D01*
X0096855Y0023559D01*
X0096855Y0023559D01*
G37*
G36*
X0046047Y0024311D02*
X0041837Y0024311D01*
X0041837Y0028521D01*
X0046047Y0028521D01*
X0046047Y0024311D01*
X0046047Y0024311D01*
G37*
G36*
X0100213Y0024565D02*
X0098416Y0024565D01*
X0098416Y0025854D01*
X0100213Y0025854D01*
X0100213Y0024565D01*
X0100213Y0024565D01*
G37*
G36*
X0037284Y0024692D02*
X0035360Y0024692D01*
X0035360Y0026616D01*
X0037284Y0026616D01*
X0037284Y0024692D01*
X0037284Y0024692D01*
G37*
G36*
X0033411Y0025581D02*
X0031614Y0025581D01*
X0031614Y0026870D01*
X0033411Y0026870D01*
X0033411Y0025581D01*
X0033411Y0025581D01*
G37*
G36*
X0105864Y0025708D02*
X0103940Y0025708D01*
X0103940Y0027632D01*
X0105864Y0027632D01*
X0105864Y0025708D01*
X0105864Y0025708D01*
G37*
G36*
X0103324Y0025708D02*
X0101400Y0025708D01*
X0101400Y0027632D01*
X0103324Y0027632D01*
X0103324Y0025708D01*
X0103324Y0025708D01*
G37*
G36*
X0100213Y0026470D02*
X0098416Y0026470D01*
X0098416Y0027759D01*
X0100213Y0027759D01*
X0100213Y0026470D01*
X0100213Y0026470D01*
G37*
G36*
X0071193Y0026788D02*
X0069904Y0026788D01*
X0069904Y0028585D01*
X0071193Y0028585D01*
X0071193Y0026788D01*
X0071193Y0026788D01*
G37*
G36*
X0069288Y0026788D02*
X0067999Y0026788D01*
X0067999Y0028585D01*
X0069288Y0028585D01*
X0069288Y0026788D01*
X0069288Y0026788D01*
G37*
G36*
X0067383Y0026788D02*
X0066094Y0026788D01*
X0066094Y0028585D01*
X0067383Y0028585D01*
X0067383Y0026788D01*
X0067383Y0026788D01*
G37*
G36*
X0083639Y0026788D02*
X0082350Y0026788D01*
X0082350Y0028585D01*
X0083639Y0028585D01*
X0083639Y0026788D01*
X0083639Y0026788D01*
G37*
G36*
X0079829Y0026788D02*
X0078540Y0026788D01*
X0078540Y0028585D01*
X0079829Y0028585D01*
X0079829Y0026788D01*
X0079829Y0026788D01*
G37*
G36*
X0081734Y0026788D02*
X0080445Y0026788D01*
X0080445Y0028585D01*
X0081734Y0028585D01*
X0081734Y0026788D01*
X0081734Y0026788D01*
G37*
G36*
X0077924Y0026788D02*
X0076635Y0026788D01*
X0076635Y0028585D01*
X0077924Y0028585D01*
X0077924Y0026788D01*
X0077924Y0026788D01*
G37*
G36*
X0065478Y0026788D02*
X0064189Y0026788D01*
X0064189Y0028585D01*
X0065478Y0028585D01*
X0065478Y0026788D01*
X0065478Y0026788D01*
G37*
G36*
X0096410Y0027166D02*
X0094010Y0027166D01*
X0094010Y0030746D01*
X0096410Y0030746D01*
X0096410Y0027166D01*
X0096410Y0027166D01*
G37*
G36*
X0091410Y0027166D02*
X0089010Y0027166D01*
X0089010Y0030746D01*
X0091410Y0030746D01*
X0091410Y0027166D01*
X0091410Y0027166D01*
G37*
G36*
X0041047Y0027411D02*
X0036837Y0027411D01*
X0036837Y0031621D01*
X0041047Y0031621D01*
X0041047Y0027411D01*
X0041047Y0027411D01*
G37*
G36*
X0033411Y0027486D02*
X0031614Y0027486D01*
X0031614Y0028775D01*
X0033411Y0028775D01*
X0033411Y0027486D01*
X0033411Y0027486D01*
G37*
G36*
X0109103Y0027613D02*
X0107306Y0027613D01*
X0107306Y0028902D01*
X0109103Y0028902D01*
X0109103Y0027613D01*
X0109103Y0027613D01*
G37*
G36*
X0061287Y0027867D02*
X0057077Y0027867D01*
X0057077Y0032077D01*
X0061287Y0032077D01*
X0061287Y0027867D01*
X0061287Y0027867D01*
G37*
G36*
X0056207Y0027867D02*
X0051997Y0027867D01*
X0051997Y0032077D01*
X0056207Y0032077D01*
X0056207Y0027867D01*
X0056207Y0027867D01*
G37*
G36*
X0051127Y0028223D02*
X0046917Y0028223D01*
X0046917Y0031953D01*
X0051127Y0031953D01*
X0051127Y0028223D01*
X0051127Y0028223D01*
G37*
G36*
X0103324Y0028248D02*
X0101400Y0028248D01*
X0101400Y0030172D01*
X0103324Y0030172D01*
X0103324Y0028248D01*
X0103324Y0028248D01*
G37*
G36*
X0105864Y0028248D02*
X0103940Y0028248D01*
X0103940Y0030172D01*
X0105864Y0030172D01*
X0105864Y0028248D01*
X0105864Y0028248D01*
G37*
G36*
X0100213Y0028629D02*
X0098416Y0028629D01*
X0098416Y0029918D01*
X0100213Y0029918D01*
X0100213Y0028629D01*
X0100213Y0028629D01*
G37*
G36*
X0065986Y0029518D02*
X0064062Y0029518D01*
X0064062Y0031442D01*
X0065986Y0031442D01*
X0065986Y0029518D01*
X0065986Y0029518D01*
G37*
G36*
X0109103Y0029518D02*
X0107306Y0029518D01*
X0107306Y0030807D01*
X0109103Y0030807D01*
X0109103Y0029518D01*
X0109103Y0029518D01*
G37*
G36*
X0078686Y0029518D02*
X0076762Y0029518D01*
X0076762Y0031442D01*
X0078686Y0031442D01*
X0078686Y0029518D01*
X0078686Y0029518D01*
G37*
G36*
X0081226Y0029518D02*
X0079302Y0029518D01*
X0079302Y0031442D01*
X0081226Y0031442D01*
X0081226Y0029518D01*
X0081226Y0029518D01*
G37*
G36*
X0083766Y0029518D02*
X0081842Y0029518D01*
X0081842Y0031442D01*
X0083766Y0031442D01*
X0083766Y0029518D01*
X0083766Y0029518D01*
G37*
G36*
X0086306Y0029518D02*
X0084382Y0029518D01*
X0084382Y0031442D01*
X0086306Y0031442D01*
X0086306Y0029518D01*
X0086306Y0029518D01*
G37*
G36*
X0068526Y0029518D02*
X0066602Y0029518D01*
X0066602Y0031442D01*
X0068526Y0031442D01*
X0068526Y0029518D01*
X0068526Y0029518D01*
G37*
G36*
X0071066Y0029518D02*
X0069142Y0029518D01*
X0069142Y0031442D01*
X0071066Y0031442D01*
X0071066Y0029518D01*
X0071066Y0029518D01*
G37*
G36*
X0073606Y0029518D02*
X0071682Y0029518D01*
X0071682Y0031442D01*
X0073606Y0031442D01*
X0073606Y0029518D01*
X0073606Y0029518D01*
G37*
G36*
X0046047Y0030511D02*
X0041837Y0030511D01*
X0041837Y0034721D01*
X0046047Y0034721D01*
X0046047Y0030511D01*
X0046047Y0030511D01*
G37*
G36*
X0100213Y0030534D02*
X0098416Y0030534D01*
X0098416Y0031823D01*
X0100213Y0031823D01*
X0100213Y0030534D01*
X0100213Y0030534D01*
G37*
G36*
X0083766Y0032058D02*
X0081842Y0032058D01*
X0081842Y0033982D01*
X0083766Y0033982D01*
X0083766Y0032058D01*
X0083766Y0032058D01*
G37*
G36*
X0065986Y0032058D02*
X0064062Y0032058D01*
X0064062Y0033982D01*
X0065986Y0033982D01*
X0065986Y0032058D01*
X0065986Y0032058D01*
G37*
G36*
X0068526Y0032058D02*
X0066602Y0032058D01*
X0066602Y0033982D01*
X0068526Y0033982D01*
X0068526Y0032058D01*
X0068526Y0032058D01*
G37*
G36*
X0071066Y0032058D02*
X0069142Y0032058D01*
X0069142Y0033982D01*
X0071066Y0033982D01*
X0071066Y0032058D01*
X0071066Y0032058D01*
G37*
G36*
X0073606Y0032058D02*
X0071682Y0032058D01*
X0071682Y0033982D01*
X0073606Y0033982D01*
X0073606Y0032058D01*
X0073606Y0032058D01*
G37*
G36*
X0078686Y0032058D02*
X0076762Y0032058D01*
X0076762Y0033982D01*
X0078686Y0033982D01*
X0078686Y0032058D01*
X0078686Y0032058D01*
G37*
G36*
X0081226Y0032058D02*
X0079302Y0032058D01*
X0079302Y0033982D01*
X0081226Y0033982D01*
X0081226Y0032058D01*
X0081226Y0032058D01*
G37*
G36*
X0086306Y0032058D02*
X0084382Y0032058D01*
X0084382Y0033982D01*
X0086306Y0033982D01*
X0086306Y0032058D01*
X0086306Y0032058D01*
G37*
G36*
X0035134Y0038504D02*
X0035749Y0038378D01*
X0036327Y0038135D01*
X0036848Y0037784D01*
X0037290Y0037338D01*
X0037637Y0036816D01*
X0037876Y0036235D01*
X0037998Y0035620D01*
X0037998Y0035620D01*
X0037998Y0035620D01*
X0037988Y0034903D01*
X0037988Y0034902D01*
X0037988Y0034902D01*
X0037849Y0034291D01*
X0037594Y0033718D01*
X0037232Y0033205D01*
X0036778Y0032772D01*
X0036248Y0032436D01*
X0035663Y0032209D01*
X0035045Y0032100D01*
X0034417Y0032113D01*
X0033804Y0032248D01*
X0033229Y0032499D01*
X0032714Y0032857D01*
X0032278Y0033309D01*
X0031938Y0033836D01*
X0031707Y0034420D01*
X0031594Y0035037D01*
X0031603Y0035664D01*
X0031733Y0036278D01*
X0031980Y0036855D01*
X0032335Y0037373D01*
X0032783Y0037812D01*
X0033308Y0038156D01*
X0033890Y0038391D01*
X0034507Y0038508D01*
X0035134Y0038504D01*
X0035134Y0038504D01*
G37*
G36*
X0106254Y0038504D02*
X0106869Y0038378D01*
X0107447Y0038135D01*
X0107968Y0037784D01*
X0108410Y0037338D01*
X0108757Y0036816D01*
X0108996Y0036235D01*
X0109118Y0035620D01*
X0109118Y0035620D01*
X0109118Y0035620D01*
X0109108Y0034903D01*
X0109108Y0034902D01*
X0109108Y0034902D01*
X0108969Y0034291D01*
X0108714Y0033718D01*
X0108352Y0033205D01*
X0107898Y0032772D01*
X0107368Y0032436D01*
X0106783Y0032209D01*
X0106165Y0032100D01*
X0105537Y0032113D01*
X0104924Y0032248D01*
X0104349Y0032499D01*
X0103834Y0032857D01*
X0103398Y0033309D01*
X0103058Y0033836D01*
X0102827Y0034420D01*
X0102714Y0035037D01*
X0102723Y0035664D01*
X0102853Y0036278D01*
X0103100Y0036855D01*
X0103455Y0037373D01*
X0103903Y0037812D01*
X0104428Y0038156D01*
X0105010Y0038391D01*
X0105627Y0038508D01*
X0106254Y0038504D01*
X0106254Y0038504D01*
G37*
G36*
X0056207Y0032867D02*
X0051997Y0032867D01*
X0051997Y0037077D01*
X0056207Y0037077D01*
X0056207Y0032867D01*
X0056207Y0032867D01*
G37*
G36*
X0061287Y0032867D02*
X0057077Y0032867D01*
X0057077Y0037077D01*
X0061287Y0037077D01*
X0061287Y0032867D01*
X0061287Y0032867D01*
G37*
G36*
X0078623Y0034725D02*
X0076826Y0034725D01*
X0076826Y0036014D01*
X0078623Y0036014D01*
X0078623Y0034725D01*
X0078623Y0034725D01*
G37*
G36*
X0063637Y0034725D02*
X0061840Y0034725D01*
X0061840Y0036014D01*
X0063637Y0036014D01*
X0063637Y0034725D01*
X0063637Y0034725D01*
G37*
G36*
X0066711Y0038887D02*
X0067009Y0038826D01*
X0067289Y0038708D01*
X0067541Y0038538D01*
X0067760Y0038318D01*
X0067775Y0038305D01*
X0067792Y0038296D01*
X0067811Y0038290D01*
X0067831Y0038288D01*
X0069199Y0038288D01*
X0069219Y0038290D01*
X0069238Y0038296D01*
X0069255Y0038305D01*
X0069270Y0038317D01*
X0069283Y0038332D01*
X0069292Y0038350D01*
X0069298Y0038368D01*
X0069299Y0038388D01*
X0069299Y0038689D01*
X0072199Y0038689D01*
X0072199Y0035987D01*
X0069299Y0035987D01*
X0069299Y0036288D01*
X0069298Y0036308D01*
X0069292Y0036326D01*
X0069283Y0036344D01*
X0069270Y0036359D01*
X0069255Y0036371D01*
X0069238Y0036380D01*
X0069219Y0036386D01*
X0069199Y0036388D01*
X0067827Y0036388D01*
X0067807Y0036386D01*
X0067788Y0036380D01*
X0067771Y0036371D01*
X0067756Y0036359D01*
X0067745Y0036346D01*
X0067727Y0036320D01*
X0067507Y0036111D01*
X0067250Y0035948D01*
X0066967Y0035838D01*
X0066667Y0035785D01*
X0066364Y0035791D01*
X0066067Y0035857D01*
X0065788Y0035978D01*
X0065539Y0036152D01*
X0065340Y0036357D01*
X0065325Y0036370D01*
X0065308Y0036380D01*
X0065289Y0036386D01*
X0065268Y0036388D01*
X0063823Y0036388D01*
X0063823Y0036530D01*
X0063821Y0036550D01*
X0063815Y0036568D01*
X0063806Y0036586D01*
X0063794Y0036601D01*
X0063779Y0036613D01*
X0063761Y0036622D01*
X0063743Y0036628D01*
X0063723Y0036630D01*
X0061840Y0036630D01*
X0061840Y0037919D01*
X0063723Y0037919D01*
X0063743Y0037921D01*
X0063761Y0037927D01*
X0063779Y0037936D01*
X0063794Y0037948D01*
X0063806Y0037963D01*
X0063815Y0037981D01*
X0063821Y0037999D01*
X0063823Y0038019D01*
X0063823Y0038288D01*
X0065267Y0038288D01*
X0065287Y0038290D01*
X0065305Y0038296D01*
X0065323Y0038305D01*
X0065338Y0038317D01*
X0065350Y0038332D01*
X0065355Y0038339D01*
X0065572Y0038552D01*
X0065826Y0038718D01*
X0066108Y0038832D01*
X0066407Y0038889D01*
X0066711Y0038887D01*
X0066711Y0038887D01*
G37*
G36*
X0081697Y0038887D02*
X0081995Y0038826D01*
X0082275Y0038708D01*
X0082527Y0038538D01*
X0082746Y0038318D01*
X0082761Y0038305D01*
X0082778Y0038296D01*
X0082797Y0038290D01*
X0082817Y0038288D01*
X0084185Y0038288D01*
X0084205Y0038290D01*
X0084224Y0038296D01*
X0084241Y0038305D01*
X0084256Y0038317D01*
X0084269Y0038332D01*
X0084278Y0038350D01*
X0084284Y0038368D01*
X0084285Y0038388D01*
X0084285Y0038689D01*
X0087185Y0038689D01*
X0087185Y0035987D01*
X0084285Y0035987D01*
X0084285Y0036288D01*
X0084284Y0036308D01*
X0084278Y0036326D01*
X0084269Y0036344D01*
X0084256Y0036359D01*
X0084241Y0036371D01*
X0084224Y0036380D01*
X0084205Y0036386D01*
X0084185Y0036388D01*
X0082813Y0036388D01*
X0082793Y0036386D01*
X0082774Y0036380D01*
X0082757Y0036371D01*
X0082742Y0036359D01*
X0082731Y0036346D01*
X0082713Y0036320D01*
X0082493Y0036111D01*
X0082236Y0035948D01*
X0081953Y0035838D01*
X0081653Y0035785D01*
X0081350Y0035791D01*
X0081053Y0035857D01*
X0080774Y0035978D01*
X0080525Y0036152D01*
X0080326Y0036357D01*
X0080311Y0036370D01*
X0080294Y0036380D01*
X0080275Y0036386D01*
X0080254Y0036388D01*
X0078809Y0036388D01*
X0078809Y0036530D01*
X0078807Y0036550D01*
X0078801Y0036568D01*
X0078792Y0036586D01*
X0078780Y0036601D01*
X0078765Y0036613D01*
X0078747Y0036622D01*
X0078729Y0036628D01*
X0078709Y0036630D01*
X0076826Y0036630D01*
X0076826Y0037919D01*
X0078709Y0037919D01*
X0078729Y0037921D01*
X0078747Y0037927D01*
X0078765Y0037936D01*
X0078780Y0037948D01*
X0078792Y0037963D01*
X0078801Y0037981D01*
X0078807Y0037999D01*
X0078809Y0038019D01*
X0078809Y0038288D01*
X0080253Y0038288D01*
X0080273Y0038290D01*
X0080291Y0038296D01*
X0080309Y0038305D01*
X0080324Y0038317D01*
X0080336Y0038332D01*
X0080341Y0038339D01*
X0080558Y0038552D01*
X0080812Y0038718D01*
X0081094Y0038832D01*
X0081393Y0038889D01*
X0081697Y0038887D01*
X0081697Y0038887D01*
G37*
G36*
X0076497Y0035987D02*
X0073597Y0035987D01*
X0073597Y0038689D01*
X0076497Y0038689D01*
X0076497Y0035987D01*
X0076497Y0035987D01*
G37*
G36*
X0091483Y0035987D02*
X0088583Y0035987D01*
X0088583Y0038689D01*
X0091483Y0038689D01*
X0091483Y0035987D01*
X0091483Y0035987D01*
G37*
X0029972Y0040132D02*
%LPD*%
G01*
D12*
G36*
X0042479Y0044716D02*
X0042481Y0044697D01*
X0042487Y0044678D01*
X0042496Y0044661D01*
X0042508Y0044645D01*
X0042521Y0044635D01*
X0042736Y0044418D01*
X0042904Y0044165D01*
X0042945Y0044066D01*
X0042954Y0044049D01*
X0042967Y0044034D01*
X0042982Y0044021D01*
X0042999Y0044012D01*
X0043018Y0044006D01*
X0043037Y0044004D01*
X0043057Y0044006D01*
X0043076Y0044012D01*
X0043093Y0044021D01*
X0043108Y0044033D01*
X0043121Y0044049D01*
X0043130Y0044066D01*
X0043136Y0044085D01*
X0043137Y0044104D01*
X0043137Y0044785D01*
X0046037Y0044785D01*
X0046037Y0042083D01*
X0043137Y0042083D01*
X0043137Y0042765D01*
X0043136Y0042785D01*
X0043130Y0042804D01*
X0043121Y0042821D01*
X0043108Y0042836D01*
X0043093Y0042848D01*
X0043076Y0042858D01*
X0043057Y0042863D01*
X0043037Y0042865D01*
X0043018Y0042863D01*
X0042999Y0042858D01*
X0042982Y0042848D01*
X0042967Y0042836D01*
X0042954Y0042821D01*
X0042946Y0042806D01*
X0042883Y0042665D01*
X0042708Y0042416D01*
X0042510Y0042228D01*
X0042497Y0042213D01*
X0042488Y0042196D01*
X0042481Y0042177D01*
X0042479Y0042155D01*
X0042479Y0040709D01*
X0040579Y0040709D01*
X0040579Y0042154D01*
X0040577Y0042174D01*
X0040571Y0042193D01*
X0040562Y0042210D01*
X0040550Y0042225D01*
X0040536Y0042236D01*
X0040520Y0042248D01*
X0040308Y0042467D01*
X0040144Y0042722D01*
X0040032Y0043005D01*
X0039977Y0043304D01*
X0039981Y0043608D01*
X0040044Y0043905D01*
X0040164Y0044184D01*
X0040336Y0044435D01*
X0040549Y0044644D01*
X0040562Y0044659D01*
X0040571Y0044676D01*
X0040577Y0044695D01*
X0040579Y0044715D01*
X0040579Y0046159D01*
X0042479Y0046159D01*
X0042479Y0044716D01*
X0042479Y0044716D01*
G37*
G36*
X0082230Y0044716D02*
X0082232Y0044697D01*
X0082238Y0044678D01*
X0082247Y0044661D01*
X0082259Y0044645D01*
X0082272Y0044635D01*
X0082487Y0044418D01*
X0082655Y0044165D01*
X0082771Y0043884D01*
X0082830Y0043587D01*
X0082830Y0043587D01*
X0082830Y0043586D01*
X0082825Y0043239D01*
X0082825Y0043238D01*
X0082825Y0043238D01*
X0082758Y0042942D01*
X0082634Y0042665D01*
X0082459Y0042416D01*
X0082261Y0042228D01*
X0082248Y0042213D01*
X0082239Y0042196D01*
X0082232Y0042177D01*
X0082230Y0042155D01*
X0082230Y0040709D01*
X0080330Y0040709D01*
X0080330Y0042154D01*
X0080328Y0042174D01*
X0080322Y0042193D01*
X0080313Y0042210D01*
X0080301Y0042225D01*
X0080287Y0042236D01*
X0080271Y0042248D01*
X0080059Y0042467D01*
X0079895Y0042722D01*
X0079783Y0043005D01*
X0079728Y0043304D01*
X0079732Y0043608D01*
X0079795Y0043905D01*
X0079915Y0044184D01*
X0080087Y0044435D01*
X0080300Y0044644D01*
X0080313Y0044659D01*
X0080322Y0044676D01*
X0080328Y0044695D01*
X0080330Y0044715D01*
X0080330Y0046159D01*
X0082230Y0046159D01*
X0082230Y0044716D01*
X0082230Y0044716D01*
G37*
G36*
X0055814Y0044716D02*
X0055816Y0044697D01*
X0055822Y0044678D01*
X0055831Y0044661D01*
X0055843Y0044645D01*
X0055856Y0044635D01*
X0056071Y0044418D01*
X0056239Y0044165D01*
X0056355Y0043884D01*
X0056401Y0043650D01*
X0056407Y0043631D01*
X0056416Y0043614D01*
X0056429Y0043599D01*
X0056444Y0043586D01*
X0056461Y0043577D01*
X0056480Y0043571D01*
X0056499Y0043569D01*
X0056519Y0043571D01*
X0056538Y0043577D01*
X0056555Y0043586D01*
X0056570Y0043599D01*
X0056583Y0043614D01*
X0056592Y0043631D01*
X0056598Y0043650D01*
X0056599Y0043669D01*
X0056599Y0044785D01*
X0059499Y0044785D01*
X0059499Y0042083D01*
X0056599Y0042083D01*
X0056599Y0043185D01*
X0056598Y0043204D01*
X0056592Y0043223D01*
X0056583Y0043240D01*
X0056570Y0043255D01*
X0056555Y0043268D01*
X0056538Y0043277D01*
X0056519Y0043283D01*
X0056499Y0043285D01*
X0056480Y0043283D01*
X0056461Y0043277D01*
X0056444Y0043268D01*
X0056429Y0043255D01*
X0056416Y0043240D01*
X0056407Y0043223D01*
X0056402Y0043207D01*
X0056342Y0042942D01*
X0056218Y0042665D01*
X0056043Y0042416D01*
X0055845Y0042228D01*
X0055832Y0042213D01*
X0055823Y0042196D01*
X0055816Y0042177D01*
X0055814Y0042155D01*
X0055814Y0040709D01*
X0053914Y0040709D01*
X0053914Y0042154D01*
X0053912Y0042174D01*
X0053906Y0042193D01*
X0053897Y0042210D01*
X0053885Y0042225D01*
X0053871Y0042236D01*
X0053855Y0042248D01*
X0053643Y0042467D01*
X0053479Y0042722D01*
X0053367Y0043005D01*
X0053312Y0043304D01*
X0053316Y0043608D01*
X0053379Y0043905D01*
X0053499Y0044184D01*
X0053671Y0044435D01*
X0053884Y0044644D01*
X0053897Y0044659D01*
X0053906Y0044676D01*
X0053912Y0044695D01*
X0053914Y0044715D01*
X0053914Y0046159D01*
X0055814Y0046159D01*
X0055814Y0044716D01*
X0055814Y0044716D01*
G37*
G36*
X0069022Y0044716D02*
X0069024Y0044697D01*
X0069030Y0044678D01*
X0069039Y0044661D01*
X0069051Y0044645D01*
X0069064Y0044635D01*
X0069279Y0044418D01*
X0069447Y0044165D01*
X0069563Y0043884D01*
X0069609Y0043650D01*
X0069615Y0043631D01*
X0069624Y0043614D01*
X0069637Y0043599D01*
X0069652Y0043586D01*
X0069669Y0043577D01*
X0069688Y0043571D01*
X0069707Y0043569D01*
X0069727Y0043571D01*
X0069746Y0043577D01*
X0069763Y0043586D01*
X0069778Y0043599D01*
X0069791Y0043614D01*
X0069800Y0043631D01*
X0069806Y0043650D01*
X0069807Y0043669D01*
X0069807Y0045039D01*
X0072707Y0045039D01*
X0072707Y0042337D01*
X0069807Y0042337D01*
X0069807Y0043185D01*
X0069806Y0043204D01*
X0069800Y0043223D01*
X0069791Y0043240D01*
X0069778Y0043255D01*
X0069763Y0043268D01*
X0069746Y0043277D01*
X0069727Y0043283D01*
X0069707Y0043285D01*
X0069688Y0043283D01*
X0069669Y0043277D01*
X0069652Y0043268D01*
X0069637Y0043255D01*
X0069624Y0043240D01*
X0069615Y0043223D01*
X0069610Y0043207D01*
X0069550Y0042942D01*
X0069426Y0042665D01*
X0069251Y0042416D01*
X0069053Y0042228D01*
X0069040Y0042213D01*
X0069031Y0042196D01*
X0069024Y0042177D01*
X0069022Y0042155D01*
X0069022Y0040709D01*
X0067122Y0040709D01*
X0067122Y0042154D01*
X0067120Y0042174D01*
X0067114Y0042193D01*
X0067105Y0042210D01*
X0067093Y0042225D01*
X0067079Y0042236D01*
X0067063Y0042248D01*
X0066851Y0042467D01*
X0066687Y0042722D01*
X0066575Y0043005D01*
X0066520Y0043304D01*
X0066524Y0043608D01*
X0066587Y0043905D01*
X0066707Y0044184D01*
X0066879Y0044435D01*
X0067092Y0044644D01*
X0067105Y0044659D01*
X0067114Y0044676D01*
X0067120Y0044695D01*
X0067122Y0044715D01*
X0067122Y0046159D01*
X0069022Y0046159D01*
X0069022Y0044716D01*
X0069022Y0044716D01*
G37*
G36*
X0035134Y0048156D02*
X0035749Y0048030D01*
X0036327Y0047787D01*
X0036848Y0047436D01*
X0037290Y0046990D01*
X0037637Y0046468D01*
X0037876Y0045887D01*
X0037998Y0045272D01*
X0037998Y0045272D01*
X0037998Y0045272D01*
X0037988Y0044555D01*
X0037988Y0044554D01*
X0037988Y0044554D01*
X0037849Y0043943D01*
X0037594Y0043370D01*
X0037232Y0042857D01*
X0036778Y0042424D01*
X0036248Y0042088D01*
X0035663Y0041861D01*
X0035045Y0041752D01*
X0034417Y0041765D01*
X0033804Y0041900D01*
X0033229Y0042151D01*
X0032714Y0042509D01*
X0032278Y0042961D01*
X0031938Y0043488D01*
X0031707Y0044072D01*
X0031594Y0044689D01*
X0031603Y0045316D01*
X0031733Y0045930D01*
X0031980Y0046507D01*
X0032335Y0047025D01*
X0032783Y0047464D01*
X0033308Y0047808D01*
X0033890Y0048043D01*
X0034507Y0048160D01*
X0035134Y0048156D01*
X0035134Y0048156D01*
G37*
G36*
X0106254Y0048156D02*
X0106869Y0048030D01*
X0107447Y0047787D01*
X0107968Y0047436D01*
X0108410Y0046990D01*
X0108757Y0046468D01*
X0108996Y0045887D01*
X0109118Y0045272D01*
X0109118Y0045272D01*
X0109118Y0045272D01*
X0109108Y0044555D01*
X0109108Y0044554D01*
X0109108Y0044554D01*
X0108969Y0043943D01*
X0108714Y0043370D01*
X0108352Y0042857D01*
X0107898Y0042424D01*
X0107368Y0042088D01*
X0106783Y0041861D01*
X0106165Y0041752D01*
X0105537Y0041765D01*
X0104924Y0041900D01*
X0104349Y0042151D01*
X0103834Y0042509D01*
X0103398Y0042961D01*
X0103058Y0043488D01*
X0102827Y0044072D01*
X0102714Y0044689D01*
X0102723Y0045316D01*
X0102853Y0045930D01*
X0103100Y0046507D01*
X0103455Y0047025D01*
X0103903Y0047464D01*
X0104428Y0047808D01*
X0105010Y0048043D01*
X0105627Y0048160D01*
X0106254Y0048156D01*
X0106254Y0048156D01*
G37*
G36*
X0050335Y0042083D02*
X0047435Y0042083D01*
X0047435Y0044785D01*
X0050335Y0044785D01*
X0050335Y0042083D01*
X0050335Y0042083D01*
G37*
G36*
X0063797Y0042083D02*
X0060897Y0042083D01*
X0060897Y0044785D01*
X0063797Y0044785D01*
X0063797Y0042083D01*
X0063797Y0042083D01*
G37*
G36*
X0086169Y0042337D02*
X0083269Y0042337D01*
X0083269Y0045039D01*
X0086169Y0045039D01*
X0086169Y0042337D01*
X0086169Y0042337D01*
G37*
G36*
X0090467Y0042337D02*
X0087567Y0042337D01*
X0087567Y0045039D01*
X0090467Y0045039D01*
X0090467Y0042337D01*
X0090467Y0042337D01*
G37*
G36*
X0077005Y0042337D02*
X0074105Y0042337D01*
X0074105Y0045039D01*
X0077005Y0045039D01*
X0077005Y0042337D01*
X0077005Y0042337D01*
G37*
G36*
X0066177Y0042853D02*
X0064380Y0042853D01*
X0064380Y0044142D01*
X0066177Y0044142D01*
X0066177Y0042853D01*
X0066177Y0042853D01*
G37*
G36*
X0052715Y0042853D02*
X0050918Y0042853D01*
X0050918Y0044142D01*
X0052715Y0044142D01*
X0052715Y0042853D01*
X0052715Y0042853D01*
G37*
G36*
X0079385Y0042853D02*
X0077588Y0042853D01*
X0077588Y0044142D01*
X0079385Y0044142D01*
X0079385Y0042853D01*
X0079385Y0042853D01*
G37*
G36*
X0099395Y0044661D02*
X0096693Y0044661D01*
X0096693Y0047561D01*
X0099395Y0047561D01*
X0099395Y0044661D01*
X0099395Y0044661D01*
G37*
G36*
X0052715Y0044758D02*
X0050918Y0044758D01*
X0050918Y0046047D01*
X0052715Y0046047D01*
X0052715Y0044758D01*
X0052715Y0044758D01*
G37*
G36*
X0066177Y0044758D02*
X0064380Y0044758D01*
X0064380Y0046047D01*
X0066177Y0046047D01*
X0066177Y0044758D01*
X0066177Y0044758D01*
G37*
G36*
X0079385Y0044758D02*
X0077588Y0044758D01*
X0077588Y0046047D01*
X0079385Y0046047D01*
X0079385Y0044758D01*
X0079385Y0044758D01*
G37*
G36*
X0040650Y0046536D02*
X0038853Y0046536D01*
X0038853Y0047825D01*
X0040650Y0047825D01*
X0040650Y0046536D01*
X0040650Y0046536D01*
G37*
G36*
X0043126Y0046790D02*
X0041202Y0046790D01*
X0041202Y0048714D01*
X0043126Y0048714D01*
X0043126Y0046790D01*
X0043126Y0046790D01*
G37*
G36*
X0088846Y0046790D02*
X0086922Y0046790D01*
X0086922Y0048714D01*
X0088846Y0048714D01*
X0088846Y0046790D01*
X0088846Y0046790D01*
G37*
G36*
X0086306Y0046790D02*
X0084382Y0046790D01*
X0084382Y0048714D01*
X0086306Y0048714D01*
X0086306Y0046790D01*
X0086306Y0046790D01*
G37*
G36*
X0083766Y0046790D02*
X0081842Y0046790D01*
X0081842Y0048714D01*
X0083766Y0048714D01*
X0083766Y0046790D01*
X0083766Y0046790D01*
G37*
G36*
X0081226Y0046790D02*
X0079302Y0046790D01*
X0079302Y0048714D01*
X0081226Y0048714D01*
X0081226Y0046790D01*
X0081226Y0046790D01*
G37*
G36*
X0076146Y0046790D02*
X0074222Y0046790D01*
X0074222Y0048714D01*
X0076146Y0048714D01*
X0076146Y0046790D01*
X0076146Y0046790D01*
G37*
G36*
X0073606Y0046790D02*
X0071682Y0046790D01*
X0071682Y0048714D01*
X0073606Y0048714D01*
X0073606Y0046790D01*
X0073606Y0046790D01*
G37*
G36*
X0045666Y0046790D02*
X0043742Y0046790D01*
X0043742Y0048714D01*
X0045666Y0048714D01*
X0045666Y0046790D01*
X0045666Y0046790D01*
G37*
G36*
X0048206Y0046790D02*
X0046282Y0046790D01*
X0046282Y0048714D01*
X0048206Y0048714D01*
X0048206Y0046790D01*
X0048206Y0046790D01*
G37*
G36*
X0050746Y0046790D02*
X0048822Y0046790D01*
X0048822Y0048714D01*
X0050746Y0048714D01*
X0050746Y0046790D01*
X0050746Y0046790D01*
G37*
G36*
X0058366Y0046790D02*
X0056442Y0046790D01*
X0056442Y0048714D01*
X0058366Y0048714D01*
X0058366Y0046790D01*
X0058366Y0046790D01*
G37*
G36*
X0060906Y0046790D02*
X0058982Y0046790D01*
X0058982Y0048714D01*
X0060906Y0048714D01*
X0060906Y0046790D01*
X0060906Y0046790D01*
G37*
G36*
X0063446Y0046790D02*
X0061522Y0046790D01*
X0061522Y0048714D01*
X0063446Y0048714D01*
X0063446Y0046790D01*
X0063446Y0046790D01*
G37*
G36*
X0068526Y0046790D02*
X0066602Y0046790D01*
X0066602Y0048714D01*
X0068526Y0048714D01*
X0068526Y0046790D01*
X0068526Y0046790D01*
G37*
G36*
X0055826Y0046790D02*
X0053902Y0046790D01*
X0053902Y0048714D01*
X0055826Y0048714D01*
X0055826Y0046790D01*
X0055826Y0046790D01*
G37*
G36*
X0071066Y0046790D02*
X0069142Y0046790D01*
X0069142Y0048714D01*
X0071066Y0048714D01*
X0071066Y0046790D01*
X0071066Y0046790D01*
G37*
G36*
X0040650Y0048441D02*
X0038853Y0048441D01*
X0038853Y0049730D01*
X0040650Y0049730D01*
X0040650Y0048441D01*
X0040650Y0048441D01*
G37*
G36*
X0099395Y0048959D02*
X0096693Y0048959D01*
X0096693Y0051859D01*
X0099395Y0051859D01*
X0099395Y0048959D01*
X0099395Y0048959D01*
G37*
G36*
X0043126Y0049330D02*
X0041202Y0049330D01*
X0041202Y0051254D01*
X0043126Y0051254D01*
X0043126Y0049330D01*
X0043126Y0049330D01*
G37*
G36*
X0045666Y0049330D02*
X0043742Y0049330D01*
X0043742Y0051254D01*
X0045666Y0051254D01*
X0045666Y0049330D01*
X0045666Y0049330D01*
G37*
G36*
X0048206Y0049330D02*
X0046282Y0049330D01*
X0046282Y0051254D01*
X0048206Y0051254D01*
X0048206Y0049330D01*
X0048206Y0049330D01*
G37*
G36*
X0076146Y0049330D02*
X0074222Y0049330D01*
X0074222Y0051254D01*
X0076146Y0051254D01*
X0076146Y0049330D01*
X0076146Y0049330D01*
G37*
G36*
X0073606Y0049330D02*
X0071682Y0049330D01*
X0071682Y0051254D01*
X0073606Y0051254D01*
X0073606Y0049330D01*
X0073606Y0049330D01*
G37*
G36*
X0071066Y0049330D02*
X0069142Y0049330D01*
X0069142Y0051254D01*
X0071066Y0051254D01*
X0071066Y0049330D01*
X0071066Y0049330D01*
G37*
G36*
X0086306Y0049330D02*
X0084382Y0049330D01*
X0084382Y0051254D01*
X0086306Y0051254D01*
X0086306Y0049330D01*
X0086306Y0049330D01*
G37*
G36*
X0068526Y0049330D02*
X0066602Y0049330D01*
X0066602Y0051254D01*
X0068526Y0051254D01*
X0068526Y0049330D01*
X0068526Y0049330D01*
G37*
G36*
X0081226Y0049330D02*
X0079302Y0049330D01*
X0079302Y0051254D01*
X0081226Y0051254D01*
X0081226Y0049330D01*
X0081226Y0049330D01*
G37*
G36*
X0063446Y0049330D02*
X0061522Y0049330D01*
X0061522Y0051254D01*
X0063446Y0051254D01*
X0063446Y0049330D01*
X0063446Y0049330D01*
G37*
G36*
X0060906Y0049330D02*
X0058982Y0049330D01*
X0058982Y0051254D01*
X0060906Y0051254D01*
X0060906Y0049330D01*
X0060906Y0049330D01*
G37*
G36*
X0055826Y0049330D02*
X0053902Y0049330D01*
X0053902Y0051254D01*
X0055826Y0051254D01*
X0055826Y0049330D01*
X0055826Y0049330D01*
G37*
G36*
X0058366Y0049330D02*
X0056442Y0049330D01*
X0056442Y0051254D01*
X0058366Y0051254D01*
X0058366Y0049330D01*
X0058366Y0049330D01*
G37*
G36*
X0088846Y0049330D02*
X0086922Y0049330D01*
X0086922Y0051254D01*
X0088846Y0051254D01*
X0088846Y0049330D01*
X0088846Y0049330D01*
G37*
G36*
X0050746Y0049330D02*
X0048822Y0049330D01*
X0048822Y0051254D01*
X0050746Y0051254D01*
X0050746Y0049330D01*
X0050746Y0049330D01*
G37*
G36*
X0083766Y0049330D02*
X0081842Y0049330D01*
X0081842Y0051254D01*
X0083766Y0051254D01*
X0083766Y0049330D01*
X0083766Y0049330D01*
G37*
G36*
X0103324Y0049838D02*
X0101400Y0049838D01*
X0101400Y0051762D01*
X0103324Y0051762D01*
X0103324Y0049838D01*
X0103324Y0049838D01*
G37*
G36*
X0105864Y0049838D02*
X0103940Y0049838D01*
X0103940Y0051762D01*
X0105864Y0051762D01*
X0105864Y0049838D01*
X0105864Y0049838D01*
G37*
G36*
X0094500Y0050148D02*
X0090920Y0050148D01*
X0090920Y0052548D01*
X0094500Y0052548D01*
X0094500Y0050148D01*
X0094500Y0050148D01*
G37*
G36*
X0109154Y0055130D02*
X0109156Y0055111D01*
X0109162Y0055092D01*
X0109171Y0055075D01*
X0109183Y0055059D01*
X0109196Y0055049D01*
X0109411Y0054832D01*
X0109579Y0054579D01*
X0109695Y0054298D01*
X0109754Y0054001D01*
X0109754Y0054001D01*
X0109754Y0054000D01*
X0109749Y0053653D01*
X0109749Y0053652D01*
X0109749Y0053652D01*
X0109682Y0053356D01*
X0109558Y0053079D01*
X0109383Y0052830D01*
X0109185Y0052642D01*
X0109172Y0052627D01*
X0109163Y0052610D01*
X0109156Y0052591D01*
X0109154Y0052569D01*
X0109154Y0051123D01*
X0107254Y0051123D01*
X0107254Y0052568D01*
X0107252Y0052588D01*
X0107246Y0052607D01*
X0107237Y0052624D01*
X0107225Y0052639D01*
X0107211Y0052650D01*
X0107195Y0052662D01*
X0106983Y0052881D01*
X0106819Y0053136D01*
X0106707Y0053419D01*
X0106652Y0053718D01*
X0106656Y0054022D01*
X0106719Y0054319D01*
X0106839Y0054598D01*
X0107011Y0054849D01*
X0107224Y0055058D01*
X0107237Y0055073D01*
X0107246Y0055090D01*
X0107252Y0055109D01*
X0107254Y0055129D01*
X0107254Y0056573D01*
X0109154Y0056573D01*
X0109154Y0055130D01*
X0109154Y0055130D01*
G37*
G36*
X0033863Y0051519D02*
X0031161Y0051519D01*
X0031161Y0054419D01*
X0033863Y0054419D01*
X0033863Y0051519D01*
X0033863Y0051519D01*
G37*
G36*
X0078244Y0051926D02*
X0074664Y0051926D01*
X0074664Y0052342D01*
X0074662Y0052361D01*
X0074656Y0052380D01*
X0074647Y0052397D01*
X0074635Y0052412D01*
X0074620Y0052425D01*
X0074602Y0052434D01*
X0074584Y0052440D01*
X0074564Y0052442D01*
X0073206Y0052442D01*
X0073206Y0054239D01*
X0074564Y0054239D01*
X0074584Y0054240D01*
X0074602Y0054246D01*
X0074620Y0054255D01*
X0074635Y0054268D01*
X0074647Y0054283D01*
X0074656Y0054300D01*
X0074662Y0054319D01*
X0074663Y0054326D01*
X0078244Y0054326D01*
X0078244Y0051926D01*
X0078244Y0051926D01*
G37*
G36*
X0067068Y0051926D02*
X0063488Y0051926D01*
X0063488Y0054326D01*
X0067068Y0054326D01*
X0067068Y0051926D01*
X0067068Y0051926D01*
G37*
G36*
X0055384Y0052053D02*
X0051804Y0052053D01*
X0051804Y0054453D01*
X0055384Y0054453D01*
X0055384Y0052053D01*
X0055384Y0052053D01*
G37*
G36*
X0089674Y0052180D02*
X0086094Y0052180D01*
X0086094Y0054580D01*
X0089674Y0054580D01*
X0089674Y0052180D01*
X0089674Y0052180D01*
G37*
G36*
X0103324Y0052378D02*
X0101400Y0052378D01*
X0101400Y0054302D01*
X0103324Y0054302D01*
X0103324Y0052378D01*
X0103324Y0052378D01*
G37*
G36*
X0105864Y0052378D02*
X0103940Y0052378D01*
X0103940Y0054302D01*
X0105864Y0054302D01*
X0105864Y0052378D01*
X0105864Y0052378D01*
G37*
G36*
X0061160Y0052442D02*
X0059871Y0052442D01*
X0059871Y0054239D01*
X0061160Y0054239D01*
X0061160Y0052442D01*
X0061160Y0052442D01*
G37*
G36*
X0063065Y0052442D02*
X0061776Y0052442D01*
X0061776Y0054239D01*
X0063065Y0054239D01*
X0063065Y0052442D01*
X0063065Y0052442D01*
G37*
G36*
X0069034Y0052442D02*
X0067745Y0052442D01*
X0067745Y0054239D01*
X0069034Y0054239D01*
X0069034Y0052442D01*
X0069034Y0052442D01*
G37*
G36*
X0083766Y0052442D02*
X0082477Y0052442D01*
X0082477Y0054239D01*
X0083766Y0054239D01*
X0083766Y0052442D01*
X0083766Y0052442D01*
G37*
G36*
X0082115Y0052442D02*
X0080826Y0052442D01*
X0080826Y0054239D01*
X0082115Y0054239D01*
X0082115Y0052442D01*
X0082115Y0052442D01*
G37*
G36*
X0049095Y0052442D02*
X0047806Y0052442D01*
X0047806Y0054239D01*
X0049095Y0054239D01*
X0049095Y0052442D01*
X0049095Y0052442D01*
G37*
G36*
X0080210Y0052442D02*
X0078921Y0052442D01*
X0078921Y0054239D01*
X0080210Y0054239D01*
X0080210Y0052442D01*
X0080210Y0052442D01*
G37*
G36*
X0043380Y0052442D02*
X0042091Y0052442D01*
X0042091Y0054239D01*
X0043380Y0054239D01*
X0043380Y0052442D01*
X0043380Y0052442D01*
G37*
G36*
X0047190Y0052442D02*
X0045901Y0052442D01*
X0045901Y0054239D01*
X0047190Y0054239D01*
X0047190Y0052442D01*
X0047190Y0052442D01*
G37*
G36*
X0072590Y0052442D02*
X0071301Y0052442D01*
X0071301Y0054239D01*
X0072590Y0054239D01*
X0072590Y0052442D01*
X0072590Y0052442D01*
G37*
G36*
X0070939Y0052442D02*
X0069650Y0052442D01*
X0069650Y0054239D01*
X0070939Y0054239D01*
X0070939Y0052442D01*
X0070939Y0052442D01*
G37*
G36*
X0059255Y0052442D02*
X0057966Y0052442D01*
X0057966Y0054239D01*
X0059255Y0054239D01*
X0059255Y0052442D01*
X0059255Y0052442D01*
G37*
G36*
X0085671Y0052442D02*
X0084382Y0052442D01*
X0084382Y0054239D01*
X0085671Y0054239D01*
X0085671Y0052442D01*
X0085671Y0052442D01*
G37*
G36*
X0057350Y0052442D02*
X0056061Y0052442D01*
X0056061Y0054239D01*
X0057350Y0054239D01*
X0057350Y0052442D01*
X0057350Y0052442D01*
G37*
G36*
X0045285Y0052442D02*
X0043996Y0052442D01*
X0043996Y0054239D01*
X0045285Y0054239D01*
X0045285Y0052442D01*
X0045285Y0052442D01*
G37*
G36*
X0040332Y0052886D02*
X0038408Y0052886D01*
X0038408Y0054810D01*
X0040332Y0054810D01*
X0040332Y0052886D01*
X0040332Y0052886D01*
G37*
G36*
X0037792Y0052886D02*
X0035868Y0052886D01*
X0035868Y0054810D01*
X0037792Y0054810D01*
X0037792Y0052886D01*
X0037792Y0052886D01*
G37*
G36*
X0100213Y0053013D02*
X0098416Y0053013D01*
X0098416Y0054302D01*
X0100213Y0054302D01*
X0100213Y0053013D01*
X0100213Y0053013D01*
G37*
G36*
X0047510Y0054720D02*
X0043930Y0054720D01*
X0043930Y0057120D01*
X0047510Y0057120D01*
X0047510Y0054720D01*
X0047510Y0054720D01*
G37*
G36*
X0043317Y0054791D02*
X0041520Y0054791D01*
X0041520Y0056080D01*
X0043317Y0056080D01*
X0043317Y0054791D01*
X0043317Y0054791D01*
G37*
G36*
X0105864Y0054918D02*
X0103940Y0054918D01*
X0103940Y0056842D01*
X0105864Y0056842D01*
X0105864Y0054918D01*
X0105864Y0054918D01*
G37*
G36*
X0100213Y0054918D02*
X0098416Y0054918D01*
X0098416Y0056207D01*
X0100213Y0056207D01*
X0100213Y0054918D01*
X0100213Y0054918D01*
G37*
G36*
X0103324Y0054918D02*
X0101400Y0054918D01*
X0101400Y0056842D01*
X0103324Y0056842D01*
X0103324Y0054918D01*
X0103324Y0054918D01*
G37*
G36*
X0094500Y0055148D02*
X0090920Y0055148D01*
X0090920Y0057548D01*
X0094500Y0057548D01*
X0094500Y0055148D01*
X0094500Y0055148D01*
G37*
G36*
X0037792Y0055426D02*
X0035868Y0055426D01*
X0035868Y0057350D01*
X0037792Y0057350D01*
X0037792Y0055426D01*
X0037792Y0055426D01*
G37*
G36*
X0040332Y0055426D02*
X0038408Y0055426D01*
X0038408Y0057350D01*
X0040332Y0057350D01*
X0040332Y0055426D01*
X0040332Y0055426D01*
G37*
G36*
X0033863Y0055817D02*
X0031161Y0055817D01*
X0031161Y0058717D01*
X0033863Y0058717D01*
X0033863Y0055817D01*
X0033863Y0055817D01*
G37*
G36*
X0070546Y0059070D02*
X0070548Y0059050D01*
X0070554Y0059032D01*
X0070563Y0059014D01*
X0070575Y0058999D01*
X0070590Y0058987D01*
X0070608Y0058978D01*
X0070626Y0058972D01*
X0070646Y0058970D01*
X0071296Y0058970D01*
X0071296Y0057870D01*
X0070646Y0057870D01*
X0070626Y0057868D01*
X0070608Y0057862D01*
X0070590Y0057853D01*
X0070575Y0057841D01*
X0070563Y0057826D01*
X0070554Y0057808D01*
X0070548Y0057790D01*
X0070546Y0057770D01*
X0070546Y0056220D01*
X0068646Y0056220D01*
X0068646Y0057770D01*
X0068644Y0057790D01*
X0068638Y0057808D01*
X0068629Y0057826D01*
X0068617Y0057841D01*
X0068602Y0057853D01*
X0068584Y0057862D01*
X0068566Y0057868D01*
X0068546Y0057870D01*
X0067896Y0057870D01*
X0067896Y0058970D01*
X0068546Y0058970D01*
X0068566Y0058972D01*
X0068584Y0058978D01*
X0068602Y0058987D01*
X0068617Y0058999D01*
X0068629Y0059014D01*
X0068638Y0059032D01*
X0068644Y0059050D01*
X0068646Y0059070D01*
X0068646Y0060620D01*
X0070546Y0060620D01*
X0070546Y0059070D01*
X0070546Y0059070D01*
G37*
G36*
X0058608Y0059070D02*
X0058610Y0059050D01*
X0058616Y0059032D01*
X0058625Y0059014D01*
X0058637Y0058999D01*
X0058652Y0058987D01*
X0058670Y0058978D01*
X0058688Y0058972D01*
X0058708Y0058970D01*
X0060164Y0058970D01*
X0060184Y0058972D01*
X0060202Y0058978D01*
X0060220Y0058987D01*
X0060235Y0058999D01*
X0060247Y0059014D01*
X0060256Y0059032D01*
X0060262Y0059050D01*
X0060264Y0059070D01*
X0060264Y0060620D01*
X0062164Y0060620D01*
X0062164Y0059070D01*
X0062166Y0059050D01*
X0062172Y0059032D01*
X0062181Y0059014D01*
X0062193Y0058999D01*
X0062208Y0058987D01*
X0062226Y0058978D01*
X0062244Y0058972D01*
X0062264Y0058970D01*
X0062914Y0058970D01*
X0062914Y0057870D01*
X0062264Y0057870D01*
X0062244Y0057868D01*
X0062226Y0057862D01*
X0062208Y0057853D01*
X0062193Y0057841D01*
X0062181Y0057826D01*
X0062172Y0057808D01*
X0062166Y0057790D01*
X0062164Y0057770D01*
X0062164Y0056220D01*
X0060264Y0056220D01*
X0060264Y0057770D01*
X0060262Y0057790D01*
X0060256Y0057808D01*
X0060247Y0057826D01*
X0060235Y0057841D01*
X0060220Y0057853D01*
X0060202Y0057862D01*
X0060184Y0057868D01*
X0060164Y0057870D01*
X0058708Y0057870D01*
X0058688Y0057868D01*
X0058670Y0057862D01*
X0058652Y0057853D01*
X0058637Y0057841D01*
X0058625Y0057826D01*
X0058616Y0057808D01*
X0058610Y0057790D01*
X0058608Y0057770D01*
X0058608Y0056220D01*
X0056708Y0056220D01*
X0056708Y0057770D01*
X0056706Y0057790D01*
X0056700Y0057808D01*
X0056691Y0057826D01*
X0056679Y0057841D01*
X0056664Y0057853D01*
X0056646Y0057862D01*
X0056628Y0057868D01*
X0056608Y0057870D01*
X0055958Y0057870D01*
X0055958Y0058970D01*
X0056608Y0058970D01*
X0056628Y0058972D01*
X0056646Y0058978D01*
X0056664Y0058987D01*
X0056679Y0058999D01*
X0056691Y0059014D01*
X0056700Y0059032D01*
X0056706Y0059050D01*
X0056708Y0059070D01*
X0056708Y0060620D01*
X0058608Y0060620D01*
X0058608Y0059070D01*
X0058608Y0059070D01*
G37*
G36*
X0084516Y0059324D02*
X0084518Y0059304D01*
X0084524Y0059286D01*
X0084533Y0059268D01*
X0084545Y0059253D01*
X0084560Y0059241D01*
X0084578Y0059232D01*
X0084596Y0059226D01*
X0084616Y0059224D01*
X0085266Y0059224D01*
X0085266Y0058124D01*
X0084616Y0058124D01*
X0084596Y0058122D01*
X0084578Y0058116D01*
X0084560Y0058107D01*
X0084545Y0058095D01*
X0084533Y0058080D01*
X0084524Y0058062D01*
X0084518Y0058044D01*
X0084516Y0058024D01*
X0084516Y0056474D01*
X0082616Y0056474D01*
X0082616Y0058024D01*
X0082614Y0058044D01*
X0082608Y0058062D01*
X0082599Y0058080D01*
X0082587Y0058095D01*
X0082572Y0058107D01*
X0082554Y0058116D01*
X0082536Y0058122D01*
X0082516Y0058124D01*
X0081866Y0058124D01*
X0081866Y0059224D01*
X0082516Y0059224D01*
X0082536Y0059226D01*
X0082554Y0059232D01*
X0082572Y0059241D01*
X0082587Y0059253D01*
X0082599Y0059268D01*
X0082608Y0059286D01*
X0082614Y0059304D01*
X0082616Y0059324D01*
X0082616Y0060874D01*
X0084516Y0060874D01*
X0084516Y0059324D01*
X0084516Y0059324D01*
G37*
G36*
X0050734Y0059324D02*
X0050736Y0059304D01*
X0050742Y0059286D01*
X0050751Y0059268D01*
X0050763Y0059253D01*
X0050778Y0059241D01*
X0050796Y0059232D01*
X0050814Y0059226D01*
X0050834Y0059224D01*
X0051484Y0059224D01*
X0051484Y0058124D01*
X0050834Y0058124D01*
X0050814Y0058122D01*
X0050796Y0058116D01*
X0050778Y0058107D01*
X0050763Y0058095D01*
X0050751Y0058080D01*
X0050742Y0058062D01*
X0050736Y0058044D01*
X0050734Y0058024D01*
X0050734Y0056474D01*
X0048834Y0056474D01*
X0048834Y0058024D01*
X0048832Y0058044D01*
X0048826Y0058062D01*
X0048817Y0058080D01*
X0048805Y0058095D01*
X0048790Y0058107D01*
X0048772Y0058116D01*
X0048754Y0058122D01*
X0048734Y0058124D01*
X0048084Y0058124D01*
X0048084Y0059224D01*
X0048734Y0059224D01*
X0048754Y0059226D01*
X0048772Y0059232D01*
X0048790Y0059241D01*
X0048805Y0059253D01*
X0048817Y0059268D01*
X0048826Y0059286D01*
X0048832Y0059304D01*
X0048834Y0059324D01*
X0048834Y0060874D01*
X0050734Y0060874D01*
X0050734Y0059324D01*
X0050734Y0059324D01*
G37*
G36*
X0043317Y0056696D02*
X0041520Y0056696D01*
X0041520Y0057985D01*
X0043317Y0057985D01*
X0043317Y0056696D01*
X0043317Y0056696D01*
G37*
G36*
X0100213Y0056823D02*
X0098416Y0056823D01*
X0098416Y0058112D01*
X0100213Y0058112D01*
X0100213Y0056823D01*
X0100213Y0056823D01*
G37*
G36*
X0109103Y0056823D02*
X0107306Y0056823D01*
X0107306Y0058112D01*
X0109103Y0058112D01*
X0109103Y0056823D01*
X0109103Y0056823D01*
G37*
G36*
X0067068Y0056926D02*
X0063488Y0056926D01*
X0063488Y0059326D01*
X0067068Y0059326D01*
X0067068Y0056926D01*
X0067068Y0056926D01*
G37*
G36*
X0078244Y0056926D02*
X0074664Y0056926D01*
X0074664Y0059326D01*
X0078244Y0059326D01*
X0078244Y0056926D01*
X0078244Y0056926D01*
G37*
G36*
X0055384Y0057053D02*
X0051804Y0057053D01*
X0051804Y0059453D01*
X0055384Y0059453D01*
X0055384Y0057053D01*
X0055384Y0057053D01*
G37*
G36*
X0089682Y0059586D02*
X0089676Y0059568D01*
X0089674Y0059548D01*
X0089674Y0057180D01*
X0086094Y0057180D01*
X0086094Y0059580D01*
X0089640Y0059580D01*
X0089660Y0059582D01*
X0089678Y0059588D01*
X0089684Y0059591D01*
X0089682Y0059586D01*
X0089682Y0059586D01*
G37*
G36*
X0103324Y0057458D02*
X0101400Y0057458D01*
X0101400Y0059382D01*
X0103324Y0059382D01*
X0103324Y0057458D01*
X0103324Y0057458D01*
G37*
G36*
X0105864Y0057458D02*
X0103940Y0057458D01*
X0103940Y0059382D01*
X0105864Y0059382D01*
X0105864Y0057458D01*
X0105864Y0057458D01*
G37*
G36*
X0040332Y0057966D02*
X0038408Y0057966D01*
X0038408Y0059890D01*
X0040332Y0059890D01*
X0040332Y0057966D01*
X0040332Y0057966D01*
G37*
G36*
X0037792Y0057966D02*
X0035868Y0057966D01*
X0035868Y0059890D01*
X0037792Y0059890D01*
X0037792Y0057966D01*
X0037792Y0057966D01*
G37*
G36*
X0091120Y0065420D02*
X0091122Y0065400D01*
X0091128Y0065382D01*
X0091137Y0065364D01*
X0091149Y0065349D01*
X0091164Y0065337D01*
X0091182Y0065328D01*
X0091200Y0065322D01*
X0091220Y0065320D01*
X0091870Y0065320D01*
X0091870Y0064220D01*
X0091220Y0064220D01*
X0091200Y0064218D01*
X0091182Y0064212D01*
X0091164Y0064203D01*
X0091149Y0064191D01*
X0091137Y0064176D01*
X0091128Y0064158D01*
X0091122Y0064140D01*
X0091120Y0064120D01*
X0091120Y0062498D01*
X0091122Y0062478D01*
X0091128Y0062460D01*
X0091137Y0062442D01*
X0091149Y0062427D01*
X0091164Y0062415D01*
X0091182Y0062406D01*
X0091200Y0062400D01*
X0091220Y0062398D01*
X0092390Y0062398D01*
X0092390Y0060848D01*
X0092392Y0060828D01*
X0092398Y0060810D01*
X0092407Y0060792D01*
X0092419Y0060777D01*
X0092434Y0060765D01*
X0092452Y0060756D01*
X0092470Y0060750D01*
X0092490Y0060748D01*
X0093140Y0060748D01*
X0093140Y0059648D01*
X0092490Y0059648D01*
X0092470Y0059646D01*
X0092452Y0059640D01*
X0092434Y0059631D01*
X0092419Y0059619D01*
X0092407Y0059604D01*
X0092398Y0059586D01*
X0092392Y0059568D01*
X0092390Y0059548D01*
X0092390Y0057998D01*
X0090490Y0057998D01*
X0090490Y0059548D01*
X0090488Y0059568D01*
X0090482Y0059586D01*
X0090473Y0059604D01*
X0090461Y0059619D01*
X0090446Y0059631D01*
X0090428Y0059640D01*
X0090410Y0059646D01*
X0090390Y0059648D01*
X0089774Y0059648D01*
X0089754Y0059646D01*
X0089736Y0059640D01*
X0089730Y0059637D01*
X0089732Y0059642D01*
X0089738Y0059660D01*
X0089740Y0059680D01*
X0089740Y0060748D01*
X0090390Y0060748D01*
X0090410Y0060750D01*
X0090428Y0060756D01*
X0090446Y0060765D01*
X0090461Y0060777D01*
X0090473Y0060792D01*
X0090482Y0060810D01*
X0090488Y0060828D01*
X0090490Y0060848D01*
X0090490Y0062470D01*
X0090488Y0062490D01*
X0090482Y0062508D01*
X0090473Y0062526D01*
X0090461Y0062541D01*
X0090446Y0062553D01*
X0090428Y0062562D01*
X0090410Y0062568D01*
X0090390Y0062570D01*
X0089220Y0062570D01*
X0089220Y0064120D01*
X0089218Y0064140D01*
X0089212Y0064158D01*
X0089203Y0064176D01*
X0089191Y0064191D01*
X0089176Y0064203D01*
X0089158Y0064212D01*
X0089140Y0064218D01*
X0089120Y0064220D01*
X0088470Y0064220D01*
X0088470Y0065320D01*
X0089120Y0065320D01*
X0089140Y0065322D01*
X0089158Y0065328D01*
X0089176Y0065337D01*
X0089191Y0065349D01*
X0089203Y0065364D01*
X0089212Y0065382D01*
X0089218Y0065400D01*
X0089220Y0065420D01*
X0089220Y0066970D01*
X0091120Y0066970D01*
X0091120Y0065420D01*
X0091120Y0065420D01*
G37*
G36*
X0109103Y0058728D02*
X0107306Y0058728D01*
X0107306Y0060017D01*
X0109103Y0060017D01*
X0109103Y0058728D01*
X0109103Y0058728D01*
G37*
G36*
X0100213Y0058728D02*
X0098416Y0058728D01*
X0098416Y0060017D01*
X0100213Y0060017D01*
X0100213Y0058728D01*
X0100213Y0058728D01*
G37*
G36*
X0043317Y0059109D02*
X0041520Y0059109D01*
X0041520Y0060398D01*
X0043317Y0060398D01*
X0043317Y0059109D01*
X0043317Y0059109D01*
G37*
G36*
X0096855Y0059393D02*
X0094153Y0059393D01*
X0094153Y0062293D01*
X0096855Y0062293D01*
X0096855Y0059393D01*
X0096855Y0059393D01*
G37*
G36*
X0033462Y0063512D02*
X0033464Y0063493D01*
X0033470Y0063474D01*
X0033479Y0063457D01*
X0033491Y0063441D01*
X0033504Y0063431D01*
X0033719Y0063214D01*
X0033887Y0062961D01*
X0034003Y0062680D01*
X0034062Y0062383D01*
X0034062Y0062383D01*
X0034062Y0062382D01*
X0034057Y0062035D01*
X0034057Y0062034D01*
X0034057Y0062034D01*
X0033990Y0061738D01*
X0033866Y0061461D01*
X0033691Y0061212D01*
X0033493Y0061024D01*
X0033480Y0061009D01*
X0033471Y0060992D01*
X0033464Y0060973D01*
X0033462Y0060951D01*
X0033462Y0059505D01*
X0031562Y0059505D01*
X0031562Y0060950D01*
X0031560Y0060970D01*
X0031554Y0060989D01*
X0031545Y0061006D01*
X0031533Y0061021D01*
X0031519Y0061032D01*
X0031503Y0061044D01*
X0031291Y0061263D01*
X0031127Y0061518D01*
X0031015Y0061801D01*
X0030960Y0062100D01*
X0030964Y0062404D01*
X0031027Y0062701D01*
X0031147Y0062980D01*
X0031319Y0063231D01*
X0031532Y0063440D01*
X0031545Y0063455D01*
X0031554Y0063472D01*
X0031560Y0063491D01*
X0031562Y0063511D01*
X0031562Y0064955D01*
X0033462Y0064955D01*
X0033462Y0063512D01*
X0033462Y0063512D01*
G37*
G36*
X0047510Y0059720D02*
X0043930Y0059720D01*
X0043930Y0062120D01*
X0047510Y0062120D01*
X0047510Y0059720D01*
X0047510Y0059720D01*
G37*
G36*
X0037792Y0060506D02*
X0035868Y0060506D01*
X0035868Y0062430D01*
X0037792Y0062430D01*
X0037792Y0060506D01*
X0037792Y0060506D01*
G37*
G36*
X0040332Y0060506D02*
X0038408Y0060506D01*
X0038408Y0062430D01*
X0040332Y0062430D01*
X0040332Y0060506D01*
X0040332Y0060506D01*
G37*
G36*
X0105864Y0060760D02*
X0103940Y0060760D01*
X0103940Y0062684D01*
X0105864Y0062684D01*
X0105864Y0060760D01*
X0105864Y0060760D01*
G37*
G36*
X0103324Y0060760D02*
X0101400Y0060760D01*
X0101400Y0062684D01*
X0103324Y0062684D01*
X0103324Y0060760D01*
X0103324Y0060760D01*
G37*
G36*
X0043317Y0061014D02*
X0041520Y0061014D01*
X0041520Y0062303D01*
X0043317Y0062303D01*
X0043317Y0061014D01*
X0043317Y0061014D01*
G37*
G36*
X0077658Y0063896D02*
X0077660Y0063876D01*
X0077666Y0063858D01*
X0077675Y0063840D01*
X0077687Y0063825D01*
X0077702Y0063813D01*
X0077720Y0063804D01*
X0077738Y0063798D01*
X0077758Y0063796D01*
X0078408Y0063796D01*
X0078408Y0062696D01*
X0077758Y0062696D01*
X0077738Y0062694D01*
X0077720Y0062688D01*
X0077702Y0062679D01*
X0077687Y0062667D01*
X0077675Y0062652D01*
X0077666Y0062634D01*
X0077660Y0062616D01*
X0077658Y0062596D01*
X0077658Y0061046D01*
X0075758Y0061046D01*
X0075758Y0062596D01*
X0075756Y0062616D01*
X0075750Y0062634D01*
X0075741Y0062652D01*
X0075729Y0062667D01*
X0075714Y0062679D01*
X0075696Y0062688D01*
X0075678Y0062694D01*
X0075658Y0062696D01*
X0075008Y0062696D01*
X0075008Y0063796D01*
X0075658Y0063796D01*
X0075678Y0063798D01*
X0075696Y0063804D01*
X0075714Y0063813D01*
X0075729Y0063825D01*
X0075741Y0063840D01*
X0075750Y0063858D01*
X0075756Y0063876D01*
X0075758Y0063896D01*
X0075758Y0065446D01*
X0077658Y0065446D01*
X0077658Y0063896D01*
X0077658Y0063896D01*
G37*
G36*
X0065466Y0063896D02*
X0065468Y0063876D01*
X0065474Y0063858D01*
X0065483Y0063840D01*
X0065495Y0063825D01*
X0065510Y0063813D01*
X0065528Y0063804D01*
X0065546Y0063798D01*
X0065566Y0063796D01*
X0066216Y0063796D01*
X0066216Y0062696D01*
X0065566Y0062696D01*
X0065546Y0062694D01*
X0065528Y0062688D01*
X0065510Y0062679D01*
X0065495Y0062667D01*
X0065483Y0062652D01*
X0065474Y0062634D01*
X0065468Y0062616D01*
X0065466Y0062596D01*
X0065466Y0061046D01*
X0063566Y0061046D01*
X0063566Y0062596D01*
X0063564Y0062616D01*
X0063558Y0062634D01*
X0063549Y0062652D01*
X0063537Y0062667D01*
X0063522Y0062679D01*
X0063504Y0062688D01*
X0063486Y0062694D01*
X0063466Y0062696D01*
X0062816Y0062696D01*
X0062816Y0063796D01*
X0063466Y0063796D01*
X0063486Y0063798D01*
X0063504Y0063804D01*
X0063522Y0063813D01*
X0063537Y0063825D01*
X0063549Y0063840D01*
X0063558Y0063858D01*
X0063564Y0063876D01*
X0063566Y0063896D01*
X0063566Y0065446D01*
X0065466Y0065446D01*
X0065466Y0063896D01*
X0065466Y0063896D01*
G37*
G36*
X0109154Y0066052D02*
X0109156Y0066033D01*
X0109162Y0066014D01*
X0109171Y0065997D01*
X0109183Y0065981D01*
X0109196Y0065971D01*
X0109411Y0065754D01*
X0109579Y0065501D01*
X0109695Y0065220D01*
X0109754Y0064923D01*
X0109754Y0064923D01*
X0109754Y0064922D01*
X0109749Y0064575D01*
X0109749Y0064574D01*
X0109749Y0064574D01*
X0109682Y0064278D01*
X0109558Y0064001D01*
X0109383Y0063752D01*
X0109185Y0063564D01*
X0109172Y0063549D01*
X0109163Y0063532D01*
X0109156Y0063513D01*
X0109154Y0063491D01*
X0109154Y0062045D01*
X0107254Y0062045D01*
X0107254Y0063490D01*
X0107252Y0063510D01*
X0107246Y0063529D01*
X0107237Y0063546D01*
X0107225Y0063561D01*
X0107211Y0063572D01*
X0107195Y0063584D01*
X0106983Y0063803D01*
X0106819Y0064058D01*
X0106707Y0064341D01*
X0106652Y0064640D01*
X0106656Y0064944D01*
X0106719Y0065241D01*
X0106839Y0065520D01*
X0107011Y0065771D01*
X0107224Y0065980D01*
X0107237Y0065995D01*
X0107246Y0066012D01*
X0107252Y0066031D01*
X0107254Y0066051D01*
X0107254Y0067495D01*
X0109154Y0067495D01*
X0109154Y0066052D01*
X0109154Y0066052D01*
G37*
G36*
X0051127Y0062535D02*
X0046917Y0062535D01*
X0046917Y0066265D01*
X0051127Y0066265D01*
X0051127Y0062535D01*
X0051127Y0062535D01*
G37*
G36*
X0074058Y0062726D02*
X0071658Y0062726D01*
X0071658Y0066306D01*
X0074058Y0066306D01*
X0074058Y0062726D01*
X0074058Y0062726D01*
G37*
G36*
X0081250Y0062726D02*
X0078850Y0062726D01*
X0078850Y0066306D01*
X0081250Y0066306D01*
X0081250Y0062726D01*
X0081250Y0062726D01*
G37*
G36*
X0086250Y0062726D02*
X0083850Y0062726D01*
X0083850Y0066306D01*
X0086250Y0066306D01*
X0086250Y0062726D01*
X0086250Y0062726D01*
G37*
G36*
X0069058Y0062726D02*
X0066658Y0062726D01*
X0066658Y0066306D01*
X0069058Y0066306D01*
X0069058Y0062726D01*
X0069058Y0062726D01*
G37*
G36*
X0103324Y0063300D02*
X0101400Y0063300D01*
X0101400Y0065224D01*
X0103324Y0065224D01*
X0103324Y0063300D01*
X0103324Y0063300D01*
G37*
G36*
X0105864Y0063300D02*
X0103940Y0063300D01*
X0103940Y0065224D01*
X0105864Y0065224D01*
X0105864Y0063300D01*
X0105864Y0063300D01*
G37*
G36*
X0055689Y0063419D02*
X0052789Y0063419D01*
X0052789Y0066121D01*
X0055689Y0066121D01*
X0055689Y0063419D01*
X0055689Y0063419D01*
G37*
G36*
X0059987Y0063419D02*
X0057087Y0063419D01*
X0057087Y0066121D01*
X0059987Y0066121D01*
X0059987Y0063419D01*
X0059987Y0063419D01*
G37*
G36*
X0096855Y0063691D02*
X0094153Y0063691D01*
X0094153Y0066591D01*
X0096855Y0066591D01*
X0096855Y0063691D01*
X0096855Y0063691D01*
G37*
G36*
X0046047Y0064443D02*
X0041837Y0064443D01*
X0041837Y0068653D01*
X0046047Y0068653D01*
X0046047Y0064443D01*
X0046047Y0064443D01*
G37*
G36*
X0100213Y0064697D02*
X0098416Y0064697D01*
X0098416Y0065986D01*
X0100213Y0065986D01*
X0100213Y0064697D01*
X0100213Y0064697D01*
G37*
G36*
X0037284Y0064824D02*
X0035360Y0064824D01*
X0035360Y0066748D01*
X0037284Y0066748D01*
X0037284Y0064824D01*
X0037284Y0064824D01*
G37*
G36*
X0033411Y0065713D02*
X0031614Y0065713D01*
X0031614Y0067002D01*
X0033411Y0067002D01*
X0033411Y0065713D01*
X0033411Y0065713D01*
G37*
G36*
X0105864Y0065840D02*
X0103940Y0065840D01*
X0103940Y0067764D01*
X0105864Y0067764D01*
X0105864Y0065840D01*
X0105864Y0065840D01*
G37*
G36*
X0103324Y0065840D02*
X0101400Y0065840D01*
X0101400Y0067764D01*
X0103324Y0067764D01*
X0103324Y0065840D01*
X0103324Y0065840D01*
G37*
G36*
X0100213Y0066602D02*
X0098416Y0066602D01*
X0098416Y0067891D01*
X0100213Y0067891D01*
X0100213Y0066602D01*
X0100213Y0066602D01*
G37*
G36*
X0071193Y0066920D02*
X0069904Y0066920D01*
X0069904Y0068717D01*
X0071193Y0068717D01*
X0071193Y0066920D01*
X0071193Y0066920D01*
G37*
G36*
X0069288Y0066920D02*
X0067999Y0066920D01*
X0067999Y0068717D01*
X0069288Y0068717D01*
X0069288Y0066920D01*
X0069288Y0066920D01*
G37*
G36*
X0067383Y0066920D02*
X0066094Y0066920D01*
X0066094Y0068717D01*
X0067383Y0068717D01*
X0067383Y0066920D01*
X0067383Y0066920D01*
G37*
G36*
X0083639Y0066920D02*
X0082350Y0066920D01*
X0082350Y0068717D01*
X0083639Y0068717D01*
X0083639Y0066920D01*
X0083639Y0066920D01*
G37*
G36*
X0079829Y0066920D02*
X0078540Y0066920D01*
X0078540Y0068717D01*
X0079829Y0068717D01*
X0079829Y0066920D01*
X0079829Y0066920D01*
G37*
G36*
X0081734Y0066920D02*
X0080445Y0066920D01*
X0080445Y0068717D01*
X0081734Y0068717D01*
X0081734Y0066920D01*
X0081734Y0066920D01*
G37*
G36*
X0077924Y0066920D02*
X0076635Y0066920D01*
X0076635Y0068717D01*
X0077924Y0068717D01*
X0077924Y0066920D01*
X0077924Y0066920D01*
G37*
G36*
X0065478Y0066920D02*
X0064189Y0066920D01*
X0064189Y0068717D01*
X0065478Y0068717D01*
X0065478Y0066920D01*
X0065478Y0066920D01*
G37*
G36*
X0096410Y0067298D02*
X0094010Y0067298D01*
X0094010Y0070878D01*
X0096410Y0070878D01*
X0096410Y0067298D01*
X0096410Y0067298D01*
G37*
G36*
X0091410Y0067298D02*
X0089010Y0067298D01*
X0089010Y0070878D01*
X0091410Y0070878D01*
X0091410Y0067298D01*
X0091410Y0067298D01*
G37*
G36*
X0041047Y0067543D02*
X0036837Y0067543D01*
X0036837Y0071753D01*
X0041047Y0071753D01*
X0041047Y0067543D01*
X0041047Y0067543D01*
G37*
G36*
X0033411Y0067618D02*
X0031614Y0067618D01*
X0031614Y0068907D01*
X0033411Y0068907D01*
X0033411Y0067618D01*
X0033411Y0067618D01*
G37*
G36*
X0109103Y0067745D02*
X0107306Y0067745D01*
X0107306Y0069034D01*
X0109103Y0069034D01*
X0109103Y0067745D01*
X0109103Y0067745D01*
G37*
G36*
X0061287Y0067999D02*
X0057077Y0067999D01*
X0057077Y0072209D01*
X0061287Y0072209D01*
X0061287Y0067999D01*
X0061287Y0067999D01*
G37*
G36*
X0056207Y0067999D02*
X0051997Y0067999D01*
X0051997Y0072209D01*
X0056207Y0072209D01*
X0056207Y0067999D01*
X0056207Y0067999D01*
G37*
G36*
X0051127Y0068355D02*
X0046917Y0068355D01*
X0046917Y0072085D01*
X0051127Y0072085D01*
X0051127Y0068355D01*
X0051127Y0068355D01*
G37*
G36*
X0103324Y0068380D02*
X0101400Y0068380D01*
X0101400Y0070304D01*
X0103324Y0070304D01*
X0103324Y0068380D01*
X0103324Y0068380D01*
G37*
G36*
X0105864Y0068380D02*
X0103940Y0068380D01*
X0103940Y0070304D01*
X0105864Y0070304D01*
X0105864Y0068380D01*
X0105864Y0068380D01*
G37*
G36*
X0100213Y0068761D02*
X0098416Y0068761D01*
X0098416Y0070050D01*
X0100213Y0070050D01*
X0100213Y0068761D01*
X0100213Y0068761D01*
G37*
G36*
X0065986Y0069650D02*
X0064062Y0069650D01*
X0064062Y0071574D01*
X0065986Y0071574D01*
X0065986Y0069650D01*
X0065986Y0069650D01*
G37*
G36*
X0109103Y0069650D02*
X0107306Y0069650D01*
X0107306Y0070939D01*
X0109103Y0070939D01*
X0109103Y0069650D01*
X0109103Y0069650D01*
G37*
G36*
X0078686Y0069650D02*
X0076762Y0069650D01*
X0076762Y0071574D01*
X0078686Y0071574D01*
X0078686Y0069650D01*
X0078686Y0069650D01*
G37*
G36*
X0081226Y0069650D02*
X0079302Y0069650D01*
X0079302Y0071574D01*
X0081226Y0071574D01*
X0081226Y0069650D01*
X0081226Y0069650D01*
G37*
G36*
X0083766Y0069650D02*
X0081842Y0069650D01*
X0081842Y0071574D01*
X0083766Y0071574D01*
X0083766Y0069650D01*
X0083766Y0069650D01*
G37*
G36*
X0086306Y0069650D02*
X0084382Y0069650D01*
X0084382Y0071574D01*
X0086306Y0071574D01*
X0086306Y0069650D01*
X0086306Y0069650D01*
G37*
G36*
X0068526Y0069650D02*
X0066602Y0069650D01*
X0066602Y0071574D01*
X0068526Y0071574D01*
X0068526Y0069650D01*
X0068526Y0069650D01*
G37*
G36*
X0071066Y0069650D02*
X0069142Y0069650D01*
X0069142Y0071574D01*
X0071066Y0071574D01*
X0071066Y0069650D01*
X0071066Y0069650D01*
G37*
G36*
X0073606Y0069650D02*
X0071682Y0069650D01*
X0071682Y0071574D01*
X0073606Y0071574D01*
X0073606Y0069650D01*
X0073606Y0069650D01*
G37*
G36*
X0046047Y0070643D02*
X0041837Y0070643D01*
X0041837Y0074853D01*
X0046047Y0074853D01*
X0046047Y0070643D01*
X0046047Y0070643D01*
G37*
G36*
X0100213Y0070666D02*
X0098416Y0070666D01*
X0098416Y0071955D01*
X0100213Y0071955D01*
X0100213Y0070666D01*
X0100213Y0070666D01*
G37*
G36*
X0083766Y0072190D02*
X0081842Y0072190D01*
X0081842Y0074114D01*
X0083766Y0074114D01*
X0083766Y0072190D01*
X0083766Y0072190D01*
G37*
G36*
X0065986Y0072190D02*
X0064062Y0072190D01*
X0064062Y0074114D01*
X0065986Y0074114D01*
X0065986Y0072190D01*
X0065986Y0072190D01*
G37*
G36*
X0068526Y0072190D02*
X0066602Y0072190D01*
X0066602Y0074114D01*
X0068526Y0074114D01*
X0068526Y0072190D01*
X0068526Y0072190D01*
G37*
G36*
X0071066Y0072190D02*
X0069142Y0072190D01*
X0069142Y0074114D01*
X0071066Y0074114D01*
X0071066Y0072190D01*
X0071066Y0072190D01*
G37*
G36*
X0073606Y0072190D02*
X0071682Y0072190D01*
X0071682Y0074114D01*
X0073606Y0074114D01*
X0073606Y0072190D01*
X0073606Y0072190D01*
G37*
G36*
X0078686Y0072190D02*
X0076762Y0072190D01*
X0076762Y0074114D01*
X0078686Y0074114D01*
X0078686Y0072190D01*
X0078686Y0072190D01*
G37*
G36*
X0081226Y0072190D02*
X0079302Y0072190D01*
X0079302Y0074114D01*
X0081226Y0074114D01*
X0081226Y0072190D01*
X0081226Y0072190D01*
G37*
G36*
X0086306Y0072190D02*
X0084382Y0072190D01*
X0084382Y0074114D01*
X0086306Y0074114D01*
X0086306Y0072190D01*
X0086306Y0072190D01*
G37*
G36*
X0035134Y0078636D02*
X0035749Y0078510D01*
X0036327Y0078267D01*
X0036848Y0077916D01*
X0037290Y0077470D01*
X0037637Y0076948D01*
X0037876Y0076367D01*
X0037998Y0075752D01*
X0037998Y0075752D01*
X0037998Y0075752D01*
X0037988Y0075035D01*
X0037988Y0075034D01*
X0037988Y0075034D01*
X0037849Y0074423D01*
X0037594Y0073850D01*
X0037232Y0073337D01*
X0036778Y0072904D01*
X0036248Y0072568D01*
X0035663Y0072341D01*
X0035045Y0072232D01*
X0034417Y0072245D01*
X0033804Y0072380D01*
X0033229Y0072631D01*
X0032714Y0072989D01*
X0032278Y0073441D01*
X0031938Y0073968D01*
X0031707Y0074552D01*
X0031594Y0075169D01*
X0031603Y0075796D01*
X0031733Y0076410D01*
X0031980Y0076987D01*
X0032335Y0077505D01*
X0032783Y0077944D01*
X0033308Y0078288D01*
X0033890Y0078523D01*
X0034507Y0078640D01*
X0035134Y0078636D01*
X0035134Y0078636D01*
G37*
G36*
X0106254Y0078636D02*
X0106869Y0078510D01*
X0107447Y0078267D01*
X0107968Y0077916D01*
X0108410Y0077470D01*
X0108757Y0076948D01*
X0108996Y0076367D01*
X0109118Y0075752D01*
X0109118Y0075752D01*
X0109118Y0075752D01*
X0109108Y0075035D01*
X0109108Y0075034D01*
X0109108Y0075034D01*
X0108969Y0074423D01*
X0108714Y0073850D01*
X0108352Y0073337D01*
X0107898Y0072904D01*
X0107368Y0072568D01*
X0106783Y0072341D01*
X0106165Y0072232D01*
X0105537Y0072245D01*
X0104924Y0072380D01*
X0104349Y0072631D01*
X0103834Y0072989D01*
X0103398Y0073441D01*
X0103058Y0073968D01*
X0102827Y0074552D01*
X0102714Y0075169D01*
X0102723Y0075796D01*
X0102853Y0076410D01*
X0103100Y0076987D01*
X0103455Y0077505D01*
X0103903Y0077944D01*
X0104428Y0078288D01*
X0105010Y0078523D01*
X0105627Y0078640D01*
X0106254Y0078636D01*
X0106254Y0078636D01*
G37*
G36*
X0056207Y0072999D02*
X0051997Y0072999D01*
X0051997Y0077209D01*
X0056207Y0077209D01*
X0056207Y0072999D01*
X0056207Y0072999D01*
G37*
G36*
X0061287Y0072999D02*
X0057077Y0072999D01*
X0057077Y0077209D01*
X0061287Y0077209D01*
X0061287Y0072999D01*
X0061287Y0072999D01*
G37*
G36*
X0078623Y0074857D02*
X0076826Y0074857D01*
X0076826Y0076146D01*
X0078623Y0076146D01*
X0078623Y0074857D01*
X0078623Y0074857D01*
G37*
G36*
X0063637Y0074857D02*
X0061840Y0074857D01*
X0061840Y0076146D01*
X0063637Y0076146D01*
X0063637Y0074857D01*
X0063637Y0074857D01*
G37*
G36*
X0066711Y0079019D02*
X0067009Y0078958D01*
X0067289Y0078840D01*
X0067541Y0078670D01*
X0067760Y0078450D01*
X0067775Y0078437D01*
X0067792Y0078428D01*
X0067811Y0078422D01*
X0067831Y0078420D01*
X0069199Y0078420D01*
X0069219Y0078422D01*
X0069238Y0078428D01*
X0069255Y0078437D01*
X0069270Y0078449D01*
X0069283Y0078464D01*
X0069292Y0078482D01*
X0069298Y0078500D01*
X0069299Y0078520D01*
X0069299Y0078821D01*
X0072199Y0078821D01*
X0072199Y0076119D01*
X0069299Y0076119D01*
X0069299Y0076420D01*
X0069298Y0076440D01*
X0069292Y0076458D01*
X0069283Y0076476D01*
X0069270Y0076491D01*
X0069255Y0076503D01*
X0069238Y0076512D01*
X0069219Y0076518D01*
X0069199Y0076520D01*
X0067827Y0076520D01*
X0067807Y0076518D01*
X0067788Y0076512D01*
X0067771Y0076503D01*
X0067756Y0076491D01*
X0067745Y0076478D01*
X0067727Y0076452D01*
X0067507Y0076243D01*
X0067250Y0076080D01*
X0066967Y0075970D01*
X0066667Y0075917D01*
X0066364Y0075923D01*
X0066067Y0075989D01*
X0065788Y0076110D01*
X0065539Y0076284D01*
X0065340Y0076489D01*
X0065325Y0076502D01*
X0065308Y0076512D01*
X0065289Y0076518D01*
X0065268Y0076520D01*
X0063823Y0076520D01*
X0063823Y0076662D01*
X0063821Y0076682D01*
X0063815Y0076700D01*
X0063806Y0076718D01*
X0063794Y0076733D01*
X0063779Y0076745D01*
X0063761Y0076754D01*
X0063743Y0076760D01*
X0063723Y0076762D01*
X0061840Y0076762D01*
X0061840Y0078051D01*
X0063723Y0078051D01*
X0063743Y0078053D01*
X0063761Y0078059D01*
X0063779Y0078068D01*
X0063794Y0078080D01*
X0063806Y0078095D01*
X0063815Y0078113D01*
X0063821Y0078131D01*
X0063823Y0078151D01*
X0063823Y0078420D01*
X0065267Y0078420D01*
X0065287Y0078422D01*
X0065305Y0078428D01*
X0065323Y0078437D01*
X0065338Y0078449D01*
X0065350Y0078464D01*
X0065355Y0078471D01*
X0065572Y0078684D01*
X0065826Y0078850D01*
X0066108Y0078964D01*
X0066407Y0079021D01*
X0066711Y0079019D01*
X0066711Y0079019D01*
G37*
G36*
X0081697Y0079019D02*
X0081995Y0078958D01*
X0082275Y0078840D01*
X0082527Y0078670D01*
X0082746Y0078450D01*
X0082761Y0078437D01*
X0082778Y0078428D01*
X0082797Y0078422D01*
X0082817Y0078420D01*
X0084185Y0078420D01*
X0084205Y0078422D01*
X0084224Y0078428D01*
X0084241Y0078437D01*
X0084256Y0078449D01*
X0084269Y0078464D01*
X0084278Y0078482D01*
X0084284Y0078500D01*
X0084285Y0078520D01*
X0084285Y0078821D01*
X0087185Y0078821D01*
X0087185Y0076119D01*
X0084285Y0076119D01*
X0084285Y0076420D01*
X0084284Y0076440D01*
X0084278Y0076458D01*
X0084269Y0076476D01*
X0084256Y0076491D01*
X0084241Y0076503D01*
X0084224Y0076512D01*
X0084205Y0076518D01*
X0084185Y0076520D01*
X0082813Y0076520D01*
X0082793Y0076518D01*
X0082774Y0076512D01*
X0082757Y0076503D01*
X0082742Y0076491D01*
X0082731Y0076478D01*
X0082713Y0076452D01*
X0082493Y0076243D01*
X0082236Y0076080D01*
X0081953Y0075970D01*
X0081653Y0075917D01*
X0081350Y0075923D01*
X0081053Y0075989D01*
X0080774Y0076110D01*
X0080525Y0076284D01*
X0080326Y0076489D01*
X0080311Y0076502D01*
X0080294Y0076512D01*
X0080275Y0076518D01*
X0080254Y0076520D01*
X0078809Y0076520D01*
X0078809Y0076662D01*
X0078807Y0076682D01*
X0078801Y0076700D01*
X0078792Y0076718D01*
X0078780Y0076733D01*
X0078765Y0076745D01*
X0078747Y0076754D01*
X0078729Y0076760D01*
X0078709Y0076762D01*
X0076826Y0076762D01*
X0076826Y0078051D01*
X0078709Y0078051D01*
X0078729Y0078053D01*
X0078747Y0078059D01*
X0078765Y0078068D01*
X0078780Y0078080D01*
X0078792Y0078095D01*
X0078801Y0078113D01*
X0078807Y0078131D01*
X0078809Y0078151D01*
X0078809Y0078420D01*
X0080253Y0078420D01*
X0080273Y0078422D01*
X0080291Y0078428D01*
X0080309Y0078437D01*
X0080324Y0078449D01*
X0080336Y0078464D01*
X0080341Y0078471D01*
X0080558Y0078684D01*
X0080812Y0078850D01*
X0081094Y0078964D01*
X0081393Y0079021D01*
X0081697Y0079019D01*
X0081697Y0079019D01*
G37*
G36*
X0076497Y0076119D02*
X0073597Y0076119D01*
X0073597Y0078821D01*
X0076497Y0078821D01*
X0076497Y0076119D01*
X0076497Y0076119D01*
G37*
G36*
X0091483Y0076119D02*
X0088583Y0076119D01*
X0088583Y0078821D01*
X0091483Y0078821D01*
X0091483Y0076119D01*
X0091483Y0076119D01*
G37*
X0110744Y0000000D02*
%LPD*%
G01*
D20*
G36*
X0131330Y0000680D02*
X0120130Y0000680D01*
X0120130Y0010480D01*
X0131330Y0010480D01*
X0131330Y0000680D01*
X0131330Y0000680D01*
G37*
G36*
X0115906Y0008024D02*
X0116521Y0007898D01*
X0117099Y0007655D01*
X0117620Y0007304D01*
X0118062Y0006858D01*
X0118409Y0006336D01*
X0118648Y0005755D01*
X0118770Y0005140D01*
X0118770Y0005140D01*
X0118770Y0005140D01*
X0118760Y0004423D01*
X0118760Y0004422D01*
X0118760Y0004422D01*
X0118621Y0003811D01*
X0118366Y0003238D01*
X0118004Y0002725D01*
X0117550Y0002292D01*
X0117020Y0001956D01*
X0116435Y0001729D01*
X0115817Y0001620D01*
X0115189Y0001633D01*
X0114576Y0001768D01*
X0114001Y0002019D01*
X0113486Y0002377D01*
X0113050Y0002829D01*
X0112710Y0003356D01*
X0112479Y0003940D01*
X0112366Y0004557D01*
X0112375Y0005184D01*
X0112505Y0005798D01*
X0112752Y0006375D01*
X0113107Y0006893D01*
X0113555Y0007332D01*
X0114080Y0007676D01*
X0114662Y0007911D01*
X0115279Y0008028D01*
X0115906Y0008024D01*
X0115906Y0008024D01*
G37*
G36*
X0136226Y0008024D02*
X0136841Y0007898D01*
X0137419Y0007655D01*
X0137940Y0007304D01*
X0138382Y0006858D01*
X0138729Y0006336D01*
X0138968Y0005755D01*
X0139090Y0005140D01*
X0139090Y0005140D01*
X0139090Y0005140D01*
X0139080Y0004423D01*
X0139080Y0004422D01*
X0139080Y0004422D01*
X0138941Y0003811D01*
X0138686Y0003238D01*
X0138324Y0002725D01*
X0137870Y0002292D01*
X0137340Y0001956D01*
X0136755Y0001729D01*
X0136137Y0001620D01*
X0135509Y0001633D01*
X0134896Y0001768D01*
X0134321Y0002019D01*
X0133806Y0002377D01*
X0133370Y0002829D01*
X0133030Y0003356D01*
X0132799Y0003940D01*
X0132686Y0004557D01*
X0132695Y0005184D01*
X0132825Y0005798D01*
X0133072Y0006375D01*
X0133427Y0006893D01*
X0133875Y0007332D01*
X0134400Y0007676D01*
X0134982Y0007911D01*
X0135599Y0008028D01*
X0136226Y0008024D01*
X0136226Y0008024D01*
G37*
G36*
X0136090Y0009960D02*
X0134166Y0009960D01*
X0134166Y0011884D01*
X0136090Y0011884D01*
X0136090Y0009960D01*
X0136090Y0009960D01*
G37*
G36*
X0138630Y0009960D02*
X0136706Y0009960D01*
X0136706Y0011884D01*
X0138630Y0011884D01*
X0138630Y0009960D01*
X0138630Y0009960D01*
G37*
G36*
X0115008Y0010214D02*
X0113084Y0010214D01*
X0113084Y0012138D01*
X0115008Y0012138D01*
X0115008Y0010214D01*
X0115008Y0010214D01*
G37*
G36*
X0117548Y0010214D02*
X0115624Y0010214D01*
X0115624Y0012138D01*
X0117548Y0012138D01*
X0117548Y0010214D01*
X0117548Y0010214D01*
G37*
G36*
X0133487Y0010849D02*
X0131690Y0010849D01*
X0131690Y0012138D01*
X0133487Y0012138D01*
X0133487Y0010849D01*
X0133487Y0010849D01*
G37*
G36*
X0120025Y0011865D02*
X0118228Y0011865D01*
X0118228Y0013154D01*
X0120025Y0013154D01*
X0120025Y0011865D01*
X0120025Y0011865D01*
G37*
G36*
X0124085Y0012240D02*
X0122295Y0012240D01*
X0122295Y0017240D01*
X0124085Y0017240D01*
X0124085Y0012240D01*
X0124085Y0012240D01*
G37*
G36*
X0129165Y0012240D02*
X0127375Y0012240D01*
X0127375Y0017240D01*
X0129165Y0017240D01*
X0129165Y0012240D01*
X0129165Y0012240D01*
G37*
G36*
X0138630Y0012500D02*
X0136706Y0012500D01*
X0136706Y0014424D01*
X0138630Y0014424D01*
X0138630Y0012500D01*
X0138630Y0012500D01*
G37*
G36*
X0136090Y0012500D02*
X0134166Y0012500D01*
X0134166Y0014424D01*
X0136090Y0014424D01*
X0136090Y0012500D01*
X0136090Y0012500D01*
G37*
G36*
X0117548Y0012754D02*
X0115624Y0012754D01*
X0115624Y0014678D01*
X0117548Y0014678D01*
X0117548Y0012754D01*
X0117548Y0012754D01*
G37*
G36*
X0115008Y0012754D02*
X0113084Y0012754D01*
X0113084Y0014678D01*
X0115008Y0014678D01*
X0115008Y0012754D01*
X0115008Y0012754D01*
G37*
G36*
X0133487Y0012754D02*
X0131690Y0012754D01*
X0131690Y0014043D01*
X0133487Y0014043D01*
X0133487Y0012754D01*
X0133487Y0012754D01*
G37*
G36*
X0120025Y0013770D02*
X0118228Y0013770D01*
X0118228Y0015059D01*
X0120025Y0015059D01*
X0120025Y0013770D01*
X0120025Y0013770D01*
G37*
G36*
X0138630Y0015040D02*
X0136706Y0015040D01*
X0136706Y0016964D01*
X0138630Y0016964D01*
X0138630Y0015040D01*
X0138630Y0015040D01*
G37*
G36*
X0136090Y0015040D02*
X0134166Y0015040D01*
X0134166Y0016964D01*
X0136090Y0016964D01*
X0136090Y0015040D01*
X0136090Y0015040D01*
G37*
G36*
X0115008Y0015294D02*
X0113084Y0015294D01*
X0113084Y0017218D01*
X0115008Y0017218D01*
X0115008Y0015294D01*
X0115008Y0015294D01*
G37*
G36*
X0117548Y0015294D02*
X0115624Y0015294D01*
X0115624Y0017218D01*
X0117548Y0017218D01*
X0117548Y0015294D01*
X0117548Y0015294D01*
G37*
G36*
X0138630Y0017580D02*
X0136706Y0017580D01*
X0136706Y0019504D01*
X0138630Y0019504D01*
X0138630Y0017580D01*
X0138630Y0017580D01*
G37*
G36*
X0136090Y0017580D02*
X0134166Y0017580D01*
X0134166Y0019504D01*
X0136090Y0019504D01*
X0136090Y0017580D01*
X0136090Y0017580D01*
G37*
G36*
X0115008Y0017834D02*
X0113084Y0017834D01*
X0113084Y0019758D01*
X0115008Y0019758D01*
X0115008Y0017834D01*
X0115008Y0017834D01*
G37*
G36*
X0117548Y0017834D02*
X0115624Y0017834D01*
X0115624Y0019758D01*
X0117548Y0019758D01*
X0117548Y0017834D01*
X0117548Y0017834D01*
G37*
G36*
X0123403Y0018458D02*
X0120503Y0018458D01*
X0120503Y0020658D01*
X0123403Y0020658D01*
X0123403Y0018458D01*
X0123403Y0018458D01*
G37*
G36*
X0127401Y0018458D02*
X0124501Y0018458D01*
X0124501Y0020658D01*
X0127401Y0020658D01*
X0127401Y0018458D01*
X0127401Y0018458D01*
G37*
G36*
X0131391Y0018660D02*
X0130102Y0018660D01*
X0130102Y0020457D01*
X0131391Y0020457D01*
X0131391Y0018660D01*
X0131391Y0018660D01*
G37*
G36*
X0129486Y0018660D02*
X0128197Y0018660D01*
X0128197Y0020457D01*
X0129486Y0020457D01*
X0129486Y0018660D01*
X0129486Y0018660D01*
G37*
G36*
X0131963Y0020755D02*
X0130166Y0020755D01*
X0130166Y0022044D01*
X0131963Y0022044D01*
X0131963Y0020755D01*
X0131963Y0020755D01*
G37*
G36*
X0135516Y0021156D02*
X0133165Y0021156D01*
X0133165Y0024056D01*
X0135516Y0024056D01*
X0135516Y0021156D01*
X0135516Y0021156D01*
G37*
G36*
X0138615Y0021156D02*
X0136264Y0021156D01*
X0136264Y0024056D01*
X0138615Y0024056D01*
X0138615Y0021156D01*
X0138615Y0021156D01*
G37*
G36*
X0119019Y0021252D02*
X0116119Y0021252D01*
X0116119Y0023452D01*
X0119019Y0023452D01*
X0119019Y0021252D01*
X0119019Y0021252D01*
G37*
G36*
X0115021Y0021252D02*
X0112121Y0021252D01*
X0112121Y0023452D01*
X0115021Y0023452D01*
X0115021Y0021252D01*
X0115021Y0021252D01*
G37*
G36*
X0124642Y0026696D02*
X0124648Y0026678D01*
X0124657Y0026660D01*
X0124669Y0026645D01*
X0124684Y0026633D01*
X0124702Y0026624D01*
X0124720Y0026618D01*
X0124740Y0026616D01*
X0126184Y0026616D01*
X0126184Y0024184D01*
X0124740Y0024184D01*
X0124720Y0024182D01*
X0124702Y0024176D01*
X0124684Y0024167D01*
X0124669Y0024155D01*
X0124657Y0024140D01*
X0124648Y0024122D01*
X0124642Y0024104D01*
X0124640Y0024084D01*
X0124640Y0022798D01*
X0124185Y0022798D01*
X0124165Y0022796D01*
X0124147Y0022790D01*
X0124129Y0022781D01*
X0124114Y0022769D01*
X0124102Y0022754D01*
X0124093Y0022736D01*
X0124087Y0022718D01*
X0124085Y0022698D01*
X0124085Y0021622D01*
X0122295Y0021622D01*
X0122295Y0022698D01*
X0122293Y0022718D01*
X0122287Y0022736D01*
X0122278Y0022754D01*
X0122266Y0022769D01*
X0122251Y0022781D01*
X0122240Y0022787D01*
X0122240Y0026698D01*
X0124642Y0026698D01*
X0124642Y0026696D01*
X0124642Y0026696D01*
G37*
G36*
X0129220Y0022787D02*
X0129209Y0022781D01*
X0129194Y0022769D01*
X0129182Y0022754D01*
X0129173Y0022736D01*
X0129167Y0022718D01*
X0129165Y0022698D01*
X0129165Y0021622D01*
X0127375Y0021622D01*
X0127375Y0022698D01*
X0127373Y0022718D01*
X0127367Y0022736D01*
X0127358Y0022754D01*
X0127346Y0022769D01*
X0127331Y0022781D01*
X0127313Y0022790D01*
X0127295Y0022796D01*
X0127275Y0022798D01*
X0126820Y0022798D01*
X0126820Y0026698D01*
X0129220Y0026698D01*
X0129220Y0022787D01*
X0129220Y0022787D01*
G37*
G36*
X0131963Y0022660D02*
X0130166Y0022660D01*
X0130166Y0023949D01*
X0131963Y0023949D01*
X0131963Y0022660D01*
X0131963Y0022660D01*
G37*
G36*
X0118945Y0024756D02*
X0117656Y0024756D01*
X0117656Y0026553D01*
X0118945Y0026553D01*
X0118945Y0024756D01*
X0118945Y0024756D01*
G37*
G36*
X0117040Y0024756D02*
X0115751Y0024756D01*
X0115751Y0026553D01*
X0117040Y0026553D01*
X0117040Y0024756D01*
X0117040Y0024756D01*
G37*
G36*
X0135094Y0024966D02*
X0132144Y0024966D01*
X0132144Y0027866D01*
X0135094Y0027866D01*
X0135094Y0024966D01*
X0135094Y0024966D01*
G37*
G36*
X0140144Y0024966D02*
X0137194Y0024966D01*
X0137194Y0027866D01*
X0140144Y0027866D01*
X0140144Y0024966D01*
X0140144Y0024966D01*
G37*
G36*
X0115450Y0027506D02*
X0111316Y0027506D01*
X0111316Y0030406D01*
X0115450Y0030406D01*
X0115450Y0027506D01*
X0115450Y0027506D01*
G37*
G36*
X0119316Y0027506D02*
X0116198Y0027506D01*
X0116198Y0030406D01*
X0119316Y0030406D01*
X0119316Y0027506D01*
X0119316Y0027506D01*
G37*
G36*
X0131330Y0028382D02*
X0120130Y0028382D01*
X0120130Y0038182D01*
X0131330Y0038182D01*
X0131330Y0028382D01*
X0131330Y0028382D01*
G37*
G36*
X0134058Y0028820D02*
X0132769Y0028820D01*
X0132769Y0030617D01*
X0134058Y0030617D01*
X0134058Y0028820D01*
X0134058Y0028820D01*
G37*
G36*
X0135963Y0028820D02*
X0134674Y0028820D01*
X0134674Y0030617D01*
X0135963Y0030617D01*
X0135963Y0028820D01*
X0135963Y0028820D01*
G37*
G36*
X0115906Y0038504D02*
X0116521Y0038378D01*
X0117099Y0038135D01*
X0117620Y0037784D01*
X0118062Y0037338D01*
X0118409Y0036816D01*
X0118648Y0036235D01*
X0118770Y0035620D01*
X0118770Y0035620D01*
X0118770Y0035620D01*
X0118760Y0034903D01*
X0118760Y0034902D01*
X0118760Y0034902D01*
X0118621Y0034291D01*
X0118366Y0033718D01*
X0118004Y0033205D01*
X0117550Y0032772D01*
X0117020Y0032436D01*
X0116435Y0032209D01*
X0115817Y0032100D01*
X0115189Y0032113D01*
X0114576Y0032248D01*
X0114001Y0032499D01*
X0113486Y0032857D01*
X0113050Y0033309D01*
X0112710Y0033836D01*
X0112479Y0034420D01*
X0112366Y0035037D01*
X0112375Y0035664D01*
X0112505Y0036278D01*
X0112752Y0036855D01*
X0113107Y0037373D01*
X0113555Y0037812D01*
X0114080Y0038156D01*
X0114662Y0038391D01*
X0115279Y0038508D01*
X0115906Y0038504D01*
X0115906Y0038504D01*
G37*
G36*
X0136226Y0038504D02*
X0136841Y0038378D01*
X0137419Y0038135D01*
X0137940Y0037784D01*
X0138382Y0037338D01*
X0138729Y0036816D01*
X0138968Y0036235D01*
X0139090Y0035620D01*
X0139090Y0035620D01*
X0139090Y0035620D01*
X0139080Y0034903D01*
X0139080Y0034902D01*
X0139080Y0034902D01*
X0138941Y0034291D01*
X0138686Y0033718D01*
X0138324Y0033205D01*
X0137870Y0032772D01*
X0137340Y0032436D01*
X0136755Y0032209D01*
X0136137Y0032100D01*
X0135509Y0032113D01*
X0134896Y0032248D01*
X0134321Y0032499D01*
X0133806Y0032857D01*
X0133370Y0033309D01*
X0133030Y0033836D01*
X0132799Y0034420D01*
X0132686Y0035037D01*
X0132695Y0035664D01*
X0132825Y0036278D01*
X0133072Y0036855D01*
X0133427Y0037373D01*
X0133875Y0037812D01*
X0134400Y0038156D01*
X0134982Y0038391D01*
X0135599Y0038508D01*
X0136226Y0038504D01*
X0136226Y0038504D01*
G37*
X0110744Y0040132D02*
%LPD*%
G01*
D20*
G36*
X0131330Y0040812D02*
X0120130Y0040812D01*
X0120130Y0050612D01*
X0131330Y0050612D01*
X0131330Y0040812D01*
X0131330Y0040812D01*
G37*
G36*
X0115906Y0048156D02*
X0116521Y0048030D01*
X0117099Y0047787D01*
X0117620Y0047436D01*
X0118062Y0046990D01*
X0118409Y0046468D01*
X0118648Y0045887D01*
X0118770Y0045272D01*
X0118770Y0045272D01*
X0118770Y0045272D01*
X0118760Y0044555D01*
X0118760Y0044554D01*
X0118760Y0044554D01*
X0118621Y0043943D01*
X0118366Y0043370D01*
X0118004Y0042857D01*
X0117550Y0042424D01*
X0117020Y0042088D01*
X0116435Y0041861D01*
X0115817Y0041752D01*
X0115189Y0041765D01*
X0114576Y0041900D01*
X0114001Y0042151D01*
X0113486Y0042509D01*
X0113050Y0042961D01*
X0112710Y0043488D01*
X0112479Y0044072D01*
X0112366Y0044689D01*
X0112375Y0045316D01*
X0112505Y0045930D01*
X0112752Y0046507D01*
X0113107Y0047025D01*
X0113555Y0047464D01*
X0114080Y0047808D01*
X0114662Y0048043D01*
X0115279Y0048160D01*
X0115906Y0048156D01*
X0115906Y0048156D01*
G37*
G36*
X0136226Y0048156D02*
X0136841Y0048030D01*
X0137419Y0047787D01*
X0137940Y0047436D01*
X0138382Y0046990D01*
X0138729Y0046468D01*
X0138968Y0045887D01*
X0139090Y0045272D01*
X0139090Y0045272D01*
X0139090Y0045272D01*
X0139080Y0044555D01*
X0139080Y0044554D01*
X0139080Y0044554D01*
X0138941Y0043943D01*
X0138686Y0043370D01*
X0138324Y0042857D01*
X0137870Y0042424D01*
X0137340Y0042088D01*
X0136755Y0041861D01*
X0136137Y0041752D01*
X0135509Y0041765D01*
X0134896Y0041900D01*
X0134321Y0042151D01*
X0133806Y0042509D01*
X0133370Y0042961D01*
X0133030Y0043488D01*
X0132799Y0044072D01*
X0132686Y0044689D01*
X0132695Y0045316D01*
X0132825Y0045930D01*
X0133072Y0046507D01*
X0133427Y0047025D01*
X0133875Y0047464D01*
X0134400Y0047808D01*
X0134982Y0048043D01*
X0135599Y0048160D01*
X0136226Y0048156D01*
X0136226Y0048156D01*
G37*
G36*
X0136090Y0050092D02*
X0134166Y0050092D01*
X0134166Y0052016D01*
X0136090Y0052016D01*
X0136090Y0050092D01*
X0136090Y0050092D01*
G37*
G36*
X0138630Y0050092D02*
X0136706Y0050092D01*
X0136706Y0052016D01*
X0138630Y0052016D01*
X0138630Y0050092D01*
X0138630Y0050092D01*
G37*
G36*
X0115008Y0050346D02*
X0113084Y0050346D01*
X0113084Y0052270D01*
X0115008Y0052270D01*
X0115008Y0050346D01*
X0115008Y0050346D01*
G37*
G36*
X0117548Y0050346D02*
X0115624Y0050346D01*
X0115624Y0052270D01*
X0117548Y0052270D01*
X0117548Y0050346D01*
X0117548Y0050346D01*
G37*
G36*
X0133487Y0050981D02*
X0131690Y0050981D01*
X0131690Y0052270D01*
X0133487Y0052270D01*
X0133487Y0050981D01*
X0133487Y0050981D01*
G37*
G36*
X0120025Y0051997D02*
X0118228Y0051997D01*
X0118228Y0053286D01*
X0120025Y0053286D01*
X0120025Y0051997D01*
X0120025Y0051997D01*
G37*
G36*
X0124085Y0052372D02*
X0122295Y0052372D01*
X0122295Y0057372D01*
X0124085Y0057372D01*
X0124085Y0052372D01*
X0124085Y0052372D01*
G37*
G36*
X0129165Y0052372D02*
X0127375Y0052372D01*
X0127375Y0057372D01*
X0129165Y0057372D01*
X0129165Y0052372D01*
X0129165Y0052372D01*
G37*
G36*
X0138630Y0052632D02*
X0136706Y0052632D01*
X0136706Y0054556D01*
X0138630Y0054556D01*
X0138630Y0052632D01*
X0138630Y0052632D01*
G37*
G36*
X0136090Y0052632D02*
X0134166Y0052632D01*
X0134166Y0054556D01*
X0136090Y0054556D01*
X0136090Y0052632D01*
X0136090Y0052632D01*
G37*
G36*
X0117548Y0052886D02*
X0115624Y0052886D01*
X0115624Y0054810D01*
X0117548Y0054810D01*
X0117548Y0052886D01*
X0117548Y0052886D01*
G37*
G36*
X0115008Y0052886D02*
X0113084Y0052886D01*
X0113084Y0054810D01*
X0115008Y0054810D01*
X0115008Y0052886D01*
X0115008Y0052886D01*
G37*
G36*
X0133487Y0052886D02*
X0131690Y0052886D01*
X0131690Y0054175D01*
X0133487Y0054175D01*
X0133487Y0052886D01*
X0133487Y0052886D01*
G37*
G36*
X0120025Y0053902D02*
X0118228Y0053902D01*
X0118228Y0055191D01*
X0120025Y0055191D01*
X0120025Y0053902D01*
X0120025Y0053902D01*
G37*
G36*
X0138630Y0055172D02*
X0136706Y0055172D01*
X0136706Y0057096D01*
X0138630Y0057096D01*
X0138630Y0055172D01*
X0138630Y0055172D01*
G37*
G36*
X0136090Y0055172D02*
X0134166Y0055172D01*
X0134166Y0057096D01*
X0136090Y0057096D01*
X0136090Y0055172D01*
X0136090Y0055172D01*
G37*
G36*
X0115008Y0055426D02*
X0113084Y0055426D01*
X0113084Y0057350D01*
X0115008Y0057350D01*
X0115008Y0055426D01*
X0115008Y0055426D01*
G37*
G36*
X0117548Y0055426D02*
X0115624Y0055426D01*
X0115624Y0057350D01*
X0117548Y0057350D01*
X0117548Y0055426D01*
X0117548Y0055426D01*
G37*
G36*
X0138630Y0057712D02*
X0136706Y0057712D01*
X0136706Y0059636D01*
X0138630Y0059636D01*
X0138630Y0057712D01*
X0138630Y0057712D01*
G37*
G36*
X0136090Y0057712D02*
X0134166Y0057712D01*
X0134166Y0059636D01*
X0136090Y0059636D01*
X0136090Y0057712D01*
X0136090Y0057712D01*
G37*
G36*
X0115008Y0057966D02*
X0113084Y0057966D01*
X0113084Y0059890D01*
X0115008Y0059890D01*
X0115008Y0057966D01*
X0115008Y0057966D01*
G37*
G36*
X0117548Y0057966D02*
X0115624Y0057966D01*
X0115624Y0059890D01*
X0117548Y0059890D01*
X0117548Y0057966D01*
X0117548Y0057966D01*
G37*
G36*
X0123403Y0058590D02*
X0120503Y0058590D01*
X0120503Y0060790D01*
X0123403Y0060790D01*
X0123403Y0058590D01*
X0123403Y0058590D01*
G37*
G36*
X0127401Y0058590D02*
X0124501Y0058590D01*
X0124501Y0060790D01*
X0127401Y0060790D01*
X0127401Y0058590D01*
X0127401Y0058590D01*
G37*
G36*
X0131391Y0058792D02*
X0130102Y0058792D01*
X0130102Y0060589D01*
X0131391Y0060589D01*
X0131391Y0058792D01*
X0131391Y0058792D01*
G37*
G36*
X0129486Y0058792D02*
X0128197Y0058792D01*
X0128197Y0060589D01*
X0129486Y0060589D01*
X0129486Y0058792D01*
X0129486Y0058792D01*
G37*
G36*
X0131963Y0060887D02*
X0130166Y0060887D01*
X0130166Y0062176D01*
X0131963Y0062176D01*
X0131963Y0060887D01*
X0131963Y0060887D01*
G37*
G36*
X0135516Y0061288D02*
X0133165Y0061288D01*
X0133165Y0064188D01*
X0135516Y0064188D01*
X0135516Y0061288D01*
X0135516Y0061288D01*
G37*
G36*
X0138615Y0061288D02*
X0136264Y0061288D01*
X0136264Y0064188D01*
X0138615Y0064188D01*
X0138615Y0061288D01*
X0138615Y0061288D01*
G37*
G36*
X0119019Y0061384D02*
X0116119Y0061384D01*
X0116119Y0063584D01*
X0119019Y0063584D01*
X0119019Y0061384D01*
X0119019Y0061384D01*
G37*
G36*
X0115021Y0061384D02*
X0112121Y0061384D01*
X0112121Y0063584D01*
X0115021Y0063584D01*
X0115021Y0061384D01*
X0115021Y0061384D01*
G37*
G36*
X0124642Y0066828D02*
X0124648Y0066810D01*
X0124657Y0066792D01*
X0124669Y0066777D01*
X0124684Y0066765D01*
X0124702Y0066756D01*
X0124720Y0066750D01*
X0124740Y0066748D01*
X0126184Y0066748D01*
X0126184Y0064316D01*
X0124740Y0064316D01*
X0124720Y0064314D01*
X0124702Y0064308D01*
X0124684Y0064299D01*
X0124669Y0064287D01*
X0124657Y0064272D01*
X0124648Y0064254D01*
X0124642Y0064236D01*
X0124640Y0064216D01*
X0124640Y0062930D01*
X0124185Y0062930D01*
X0124165Y0062928D01*
X0124147Y0062922D01*
X0124129Y0062913D01*
X0124114Y0062901D01*
X0124102Y0062886D01*
X0124093Y0062868D01*
X0124087Y0062850D01*
X0124085Y0062830D01*
X0124085Y0061754D01*
X0122295Y0061754D01*
X0122295Y0062830D01*
X0122293Y0062850D01*
X0122287Y0062868D01*
X0122278Y0062886D01*
X0122266Y0062901D01*
X0122251Y0062913D01*
X0122240Y0062919D01*
X0122240Y0066830D01*
X0124642Y0066830D01*
X0124642Y0066828D01*
X0124642Y0066828D01*
G37*
G36*
X0129220Y0062919D02*
X0129209Y0062913D01*
X0129194Y0062901D01*
X0129182Y0062886D01*
X0129173Y0062868D01*
X0129167Y0062850D01*
X0129165Y0062830D01*
X0129165Y0061754D01*
X0127375Y0061754D01*
X0127375Y0062830D01*
X0127373Y0062850D01*
X0127367Y0062868D01*
X0127358Y0062886D01*
X0127346Y0062901D01*
X0127331Y0062913D01*
X0127313Y0062922D01*
X0127295Y0062928D01*
X0127275Y0062930D01*
X0126820Y0062930D01*
X0126820Y0066830D01*
X0129220Y0066830D01*
X0129220Y0062919D01*
X0129220Y0062919D01*
G37*
G36*
X0131963Y0062792D02*
X0130166Y0062792D01*
X0130166Y0064081D01*
X0131963Y0064081D01*
X0131963Y0062792D01*
X0131963Y0062792D01*
G37*
G36*
X0118945Y0064888D02*
X0117656Y0064888D01*
X0117656Y0066685D01*
X0118945Y0066685D01*
X0118945Y0064888D01*
X0118945Y0064888D01*
G37*
G36*
X0117040Y0064888D02*
X0115751Y0064888D01*
X0115751Y0066685D01*
X0117040Y0066685D01*
X0117040Y0064888D01*
X0117040Y0064888D01*
G37*
G36*
X0135094Y0065098D02*
X0132144Y0065098D01*
X0132144Y0067998D01*
X0135094Y0067998D01*
X0135094Y0065098D01*
X0135094Y0065098D01*
G37*
G36*
X0140144Y0065098D02*
X0137194Y0065098D01*
X0137194Y0067998D01*
X0140144Y0067998D01*
X0140144Y0065098D01*
X0140144Y0065098D01*
G37*
G36*
X0115450Y0067638D02*
X0111316Y0067638D01*
X0111316Y0070538D01*
X0115450Y0070538D01*
X0115450Y0067638D01*
X0115450Y0067638D01*
G37*
G36*
X0119316Y0067638D02*
X0116198Y0067638D01*
X0116198Y0070538D01*
X0119316Y0070538D01*
X0119316Y0067638D01*
X0119316Y0067638D01*
G37*
G36*
X0131330Y0068514D02*
X0120130Y0068514D01*
X0120130Y0078314D01*
X0131330Y0078314D01*
X0131330Y0068514D01*
X0131330Y0068514D01*
G37*
G36*
X0134058Y0068952D02*
X0132769Y0068952D01*
X0132769Y0070749D01*
X0134058Y0070749D01*
X0134058Y0068952D01*
X0134058Y0068952D01*
G37*
G36*
X0135963Y0068952D02*
X0134674Y0068952D01*
X0134674Y0070749D01*
X0135963Y0070749D01*
X0135963Y0068952D01*
X0135963Y0068952D01*
G37*
G36*
X0115906Y0078636D02*
X0116521Y0078510D01*
X0117099Y0078267D01*
X0117620Y0077916D01*
X0118062Y0077470D01*
X0118409Y0076948D01*
X0118648Y0076367D01*
X0118770Y0075752D01*
X0118770Y0075752D01*
X0118770Y0075752D01*
X0118760Y0075035D01*
X0118760Y0075034D01*
X0118760Y0075034D01*
X0118621Y0074423D01*
X0118366Y0073850D01*
X0118004Y0073337D01*
X0117550Y0072904D01*
X0117020Y0072568D01*
X0116435Y0072341D01*
X0115817Y0072232D01*
X0115189Y0072245D01*
X0114576Y0072380D01*
X0114001Y0072631D01*
X0113486Y0072989D01*
X0113050Y0073441D01*
X0112710Y0073968D01*
X0112479Y0074552D01*
X0112366Y0075169D01*
X0112375Y0075796D01*
X0112505Y0076410D01*
X0112752Y0076987D01*
X0113107Y0077505D01*
X0113555Y0077944D01*
X0114080Y0078288D01*
X0114662Y0078523D01*
X0115279Y0078640D01*
X0115906Y0078636D01*
X0115906Y0078636D01*
G37*
G36*
X0136226Y0078636D02*
X0136841Y0078510D01*
X0137419Y0078267D01*
X0137940Y0077916D01*
X0138382Y0077470D01*
X0138729Y0076948D01*
X0138968Y0076367D01*
X0139090Y0075752D01*
X0139090Y0075752D01*
X0139090Y0075752D01*
X0139080Y0075035D01*
X0139080Y0075034D01*
X0139080Y0075034D01*
X0138941Y0074423D01*
X0138686Y0073850D01*
X0138324Y0073337D01*
X0137870Y0072904D01*
X0137340Y0072568D01*
X0136755Y0072341D01*
X0136137Y0072232D01*
X0135509Y0072245D01*
X0134896Y0072380D01*
X0134321Y0072631D01*
X0133806Y0072989D01*
X0133370Y0073441D01*
X0133030Y0073968D01*
X0132799Y0074552D01*
X0132686Y0075169D01*
X0132695Y0075796D01*
X0132825Y0076410D01*
X0133072Y0076987D01*
X0133427Y0077505D01*
X0133875Y0077944D01*
X0134400Y0078288D01*
X0134982Y0078523D01*
X0135599Y0078640D01*
X0136226Y0078636D01*
X0136226Y0078636D01*
G37*
M02*
