G75*
G71*
%MOMM*%
%OFA0B0*%
%FSLAX53Y53*%
%IPPOS*%
%LPD*%
%ADD10C,0.60000*%
%ADD12C,0.25400*%
%ADD15C,0.40000*%
%ADD17C,0.80000*%
%ADD19C,2.00000*%
%ADD20C,0.30000*%
%ADD21C,4.00000*%
%ADD23C,0.15000*%
%ADD24R,1.52400X1.52400*%
%ADD26C,6.00000*%
%ADD28C,0.20000*%
X0000000Y0000000D02*
%LPD*%
G01*
D23*
D26*
X0014986Y0035306D03*
X0004826Y0035306D03*
X0004826Y0004826D03*
X0014986Y0004826D03*
D24*
X0005969Y0029083D03*
X0003429Y0029083D03*
X0005969Y0026543D03*
X0003429Y0026543D03*
X0003429Y0024003D03*
X0005969Y0024003D03*
X0005969Y0021463D03*
X0003429Y0021463D03*
X0003429Y0018923D03*
X0005969Y0018923D03*
X0005969Y0015494D03*
X0003429Y0015494D03*
X0003429Y0012954D03*
X0005969Y0012954D03*
X0005969Y0010414D03*
X0003429Y0010414D03*
X0014630Y0010719D03*
X0017170Y0010719D03*
D17*
X0012954Y0019050D03*
X0011582Y0012040D03*
X0001778Y0018948D03*
X0016307Y0012497D03*
X0017475Y0012446D03*
X0018745Y0012446D03*
X0018999Y0016764D03*
X0018999Y0017678D03*
X0018694Y0018745D03*
X0008077Y0031801D03*
X0011074Y0031750D03*
X0011938Y0008585D03*
X0018186Y0024536D03*
X0017475Y0023825D03*
X0017424Y0024994D03*
X0010363Y0019101D03*
X0008382Y0027940D03*
X0011786Y0017374D03*
X0009970Y0026137D03*
X0014056Y0018898D03*
X0011430Y0021082D03*
X0010770Y0027330D03*
X0015418Y0019136D03*
X0016713Y0015850D03*
X0016871Y0020901D03*
X0016307Y0025756D03*
X0018542Y0023368D03*
X0016662Y0014275D03*
X0017577Y0018136D03*
X0014859Y0015875D03*
X0010719Y0015240D03*
X0012299Y0021836D03*
X0013868Y0028651D03*
D28*
X0003429Y0018923D02*
X0001803Y0018923D01*
X0001803Y0018923D02*
X0001778Y0018948D01*
X0018745Y0012446D02*
X0017475Y0012446D01*
X0018694Y0018745D02*
X0018694Y0017983D01*
X0018694Y0017983D02*
X0018999Y0017678D01*
X0011074Y0031750D02*
X0008128Y0031750D01*
X0008128Y0031750D02*
X0008077Y0031801D01*
D15*
X0017424Y0024994D02*
X0017424Y0023876D01*
X0017424Y0023876D02*
X0017475Y0023825D01*
D17*
X0008382Y0025044D02*
X0008382Y0027940D01*
X0008382Y0024028D02*
X0008382Y0022962D01*
X0008382Y0022962D02*
X0008382Y0020777D01*
X0005969Y0024003D02*
X0007531Y0024003D01*
X0008382Y0023152D02*
X0008382Y0022962D01*
X0007531Y0024003D02*
X0008382Y0023152D01*
X0008382Y0025044D02*
X0008382Y0024028D01*
X0007531Y0024003D02*
X0008382Y0024854D01*
X0008382Y0024854D02*
X0008382Y0025044D01*
X0007531Y0024003D02*
X0007556Y0024028D01*
X0007556Y0024028D02*
X0008382Y0024028D01*
X0003429Y0024003D02*
X0005969Y0024003D01*
X0008382Y0020777D02*
X0008382Y0018732D01*
X0011786Y0017374D02*
X0009740Y0017374D01*
X0009740Y0017374D02*
X0008382Y0018732D01*
X0005131Y0017272D02*
X0006922Y0017272D01*
X0006922Y0017272D02*
X0008382Y0018732D01*
X0003429Y0015570D02*
X0005131Y0017272D01*
X0003429Y0015494D02*
X0003429Y0015570D01*
X0003429Y0012954D02*
X0003429Y0015494D01*
X0003429Y0010414D02*
X0003429Y0012954D01*
D15*
X0013504Y0020015D02*
X0011125Y0020015D01*
X0014056Y0019463D02*
X0013504Y0020015D01*
X0009970Y0025571D02*
X0009970Y0026137D01*
X0014056Y0018898D02*
X0014056Y0019463D01*
X0009970Y0021171D02*
X0009970Y0025571D01*
X0011125Y0020015D02*
X0009970Y0021171D01*
X0010770Y0027330D02*
X0011430Y0026670D01*
X0011430Y0021648D02*
X0011430Y0021082D01*
X0011430Y0026670D02*
X0011430Y0021648D01*
X0005969Y0015494D02*
X0007131Y0015494D01*
X0007131Y0015494D02*
X0008096Y0016459D01*
X0008096Y0016459D02*
X0013307Y0016459D01*
X0013307Y0016459D02*
X0015418Y0018570D01*
X0015418Y0018570D02*
X0015418Y0019136D01*
X0016967Y0020980D02*
X0016764Y0020777D01*
X0016313Y0015450D02*
X0016713Y0015850D01*
X0013818Y0012954D02*
X0016313Y0015450D01*
X0005969Y0012954D02*
X0013818Y0012954D01*
X0016713Y0016415D02*
X0016713Y0015850D01*
X0016764Y0020777D02*
X0016764Y0016466D01*
X0016764Y0016466D02*
X0016713Y0016415D01*
X0016888Y0020901D02*
X0016871Y0020901D01*
X0016967Y0020980D02*
X0016888Y0020901D01*
X0016307Y0025756D02*
X0016307Y0021641D01*
X0016307Y0021641D02*
X0016967Y0020980D01*
X0018142Y0022968D02*
X0018542Y0023368D01*
X0017678Y0022504D02*
X0018142Y0022968D01*
X0017577Y0018701D02*
X0017678Y0018803D01*
X0017577Y0018136D02*
X0017577Y0018701D01*
X0017678Y0018803D02*
X0017678Y0022504D01*
X0017577Y0018136D02*
X0017577Y0015189D01*
X0017577Y0015189D02*
X0017062Y0014675D01*
X0017062Y0014675D02*
X0016662Y0014275D01*
X0016097Y0014275D02*
X0016662Y0014275D01*
X0005969Y0010414D02*
X0012192Y0010414D01*
X0012192Y0010414D02*
X0016053Y0014275D01*
X0016053Y0014275D02*
X0016097Y0014275D01*
D20*
X0014293Y0015875D02*
X0014859Y0015875D01*
X0015259Y0016275D02*
X0014859Y0015875D01*
X0016205Y0020523D02*
X0016205Y0017221D01*
X0011354Y0015875D02*
X0014293Y0015875D01*
X0016205Y0017221D02*
X0015259Y0016275D01*
X0015291Y0021438D02*
X0016205Y0020523D01*
X0010719Y0015240D02*
X0011354Y0015875D01*
X0015291Y0021438D02*
X0014892Y0021836D01*
X0015291Y0021438D02*
X0016053Y0020676D01*
X0014892Y0021836D02*
X0012299Y0021836D01*
D15*
X0013868Y0028651D02*
X0012299Y0027081D01*
X0012299Y0027081D02*
X0012299Y0021836D01*
D12*
G36*
X0019410Y0000402D02*
X0000402Y0000402D01*
X0000402Y0022225D01*
X0002334Y0022225D01*
X0002334Y0020701D01*
X0002359Y0020573D01*
X0002431Y0020465D01*
X0002539Y0020393D01*
X0002667Y0020368D01*
X0004191Y0020368D01*
X0004319Y0020393D01*
X0004427Y0020465D01*
X0004499Y0020573D01*
X0004524Y0020701D01*
X0004524Y0022225D01*
X0004874Y0022225D01*
X0004874Y0020701D01*
X0004899Y0020573D01*
X0004971Y0020465D01*
X0005079Y0020393D01*
X0005207Y0020368D01*
X0006731Y0020368D01*
X0006859Y0020393D01*
X0006967Y0020465D01*
X0007039Y0020573D01*
X0007064Y0020701D01*
X0007064Y0022225D01*
X0007039Y0022353D01*
X0006967Y0022461D01*
X0006859Y0022533D01*
X0006731Y0022558D01*
X0005207Y0022558D01*
X0005079Y0022533D01*
X0004971Y0022461D01*
X0004899Y0022353D01*
X0004874Y0022225D01*
X0004524Y0022225D01*
X0004499Y0022353D01*
X0004427Y0022461D01*
X0004319Y0022533D01*
X0004191Y0022558D01*
X0002667Y0022558D01*
X0002539Y0022533D01*
X0002431Y0022461D01*
X0002359Y0022353D01*
X0002334Y0022225D01*
X0000402Y0022225D01*
X0000402Y0024765D01*
X0002334Y0024765D01*
X0002334Y0023241D01*
X0002359Y0023113D01*
X0002431Y0023005D01*
X0002539Y0022933D01*
X0002667Y0022908D01*
X0004191Y0022908D01*
X0004319Y0022933D01*
X0004427Y0023005D01*
X0004499Y0023113D01*
X0004524Y0023241D01*
X0004524Y0023276D01*
X0004874Y0023276D01*
X0004874Y0023241D01*
X0004899Y0023113D01*
X0004971Y0023005D01*
X0005079Y0022933D01*
X0005207Y0022908D01*
X0006731Y0022908D01*
X0006859Y0022933D01*
X0006967Y0023005D01*
X0007039Y0023113D01*
X0007064Y0023241D01*
X0007064Y0023276D01*
X0007230Y0023276D01*
X0007655Y0022851D01*
X0007655Y0019033D01*
X0006621Y0017999D01*
X0005131Y0017999D01*
X0005131Y0017999D01*
X0004899Y0017953D01*
X0004853Y0017944D01*
X0004617Y0017786D01*
X0004617Y0017786D01*
X0003420Y0016589D01*
X0002667Y0016589D01*
X0002539Y0016564D01*
X0002431Y0016492D01*
X0002359Y0016384D01*
X0002334Y0016256D01*
X0002334Y0014732D01*
X0002359Y0014604D01*
X0002431Y0014496D01*
X0002539Y0014424D01*
X0002667Y0014399D01*
X0002702Y0014399D01*
X0002702Y0014049D01*
X0002667Y0014049D01*
X0002539Y0014024D01*
X0002431Y0013952D01*
X0002359Y0013844D01*
X0002334Y0013716D01*
X0002334Y0012192D01*
X0002359Y0012064D01*
X0002431Y0011956D01*
X0002539Y0011884D01*
X0002667Y0011859D01*
X0002702Y0011859D01*
X0002702Y0011509D01*
X0002667Y0011509D01*
X0002539Y0011484D01*
X0002431Y0011412D01*
X0002359Y0011304D01*
X0002334Y0011176D01*
X0002334Y0009652D01*
X0002359Y0009524D01*
X0002431Y0009416D01*
X0002539Y0009344D01*
X0002667Y0009319D01*
X0004191Y0009319D01*
X0004319Y0009344D01*
X0004427Y0009416D01*
X0004499Y0009524D01*
X0004524Y0009652D01*
X0004524Y0011176D01*
X0004499Y0011304D01*
X0004427Y0011412D01*
X0004319Y0011484D01*
X0004191Y0011509D01*
X0004156Y0011509D01*
X0004156Y0011859D01*
X0004191Y0011859D01*
X0004319Y0011884D01*
X0004427Y0011956D01*
X0004499Y0012064D01*
X0004524Y0012192D01*
X0004524Y0013716D01*
X0004499Y0013844D01*
X0004427Y0013952D01*
X0004319Y0014024D01*
X0004191Y0014049D01*
X0004156Y0014049D01*
X0004156Y0014399D01*
X0004191Y0014399D01*
X0004319Y0014424D01*
X0004427Y0014496D01*
X0004499Y0014604D01*
X0004524Y0014732D01*
X0004524Y0015637D01*
X0004874Y0015987D01*
X0004874Y0014732D01*
X0004899Y0014604D01*
X0004971Y0014496D01*
X0005079Y0014424D01*
X0005207Y0014399D01*
X0006731Y0014399D01*
X0006859Y0014424D01*
X0006967Y0014496D01*
X0007039Y0014604D01*
X0007064Y0014732D01*
X0007064Y0014967D01*
X0007131Y0014967D01*
X0007333Y0015007D01*
X0007504Y0015121D01*
X0008314Y0015932D01*
X0010490Y0015932D01*
X0010308Y0015857D01*
X0010103Y0015652D01*
X0009992Y0015385D01*
X0009992Y0015096D01*
X0010102Y0014829D01*
X0010306Y0014624D01*
X0010574Y0014513D01*
X0010863Y0014513D01*
X0011130Y0014623D01*
X0011335Y0014828D01*
X0011446Y0015095D01*
X0011446Y0015292D01*
X0011551Y0015398D01*
X0014308Y0015398D01*
X0014447Y0015259D01*
X0014714Y0015148D01*
X0015003Y0015148D01*
X0015270Y0015258D01*
X0015475Y0015463D01*
X0015586Y0015730D01*
X0015586Y0015927D01*
X0016214Y0016556D01*
X0016212Y0016545D01*
X0016186Y0016415D01*
X0016186Y0016351D01*
X0016097Y0016262D01*
X0015986Y0015995D01*
X0015986Y0015868D01*
X0013599Y0013481D01*
X0007064Y0013481D01*
X0007064Y0013716D01*
X0007039Y0013844D01*
X0006967Y0013952D01*
X0006859Y0014024D01*
X0006731Y0014049D01*
X0005207Y0014049D01*
X0005079Y0014024D01*
X0004971Y0013952D01*
X0004899Y0013844D01*
X0004874Y0013716D01*
X0004874Y0012192D01*
X0004899Y0012064D01*
X0004971Y0011956D01*
X0005079Y0011884D01*
X0005207Y0011859D01*
X0006731Y0011859D01*
X0006859Y0011884D01*
X0006967Y0011956D01*
X0007039Y0012064D01*
X0007064Y0012192D01*
X0007064Y0012427D01*
X0013460Y0012427D01*
X0011974Y0010941D01*
X0007064Y0010941D01*
X0007064Y0011176D01*
X0007039Y0011304D01*
X0006967Y0011412D01*
X0006859Y0011484D01*
X0006731Y0011509D01*
X0005207Y0011509D01*
X0005079Y0011484D01*
X0004971Y0011412D01*
X0004899Y0011304D01*
X0004874Y0011176D01*
X0004874Y0009652D01*
X0004899Y0009524D01*
X0004971Y0009416D01*
X0005079Y0009344D01*
X0005207Y0009319D01*
X0006731Y0009319D01*
X0006859Y0009344D01*
X0006967Y0009416D01*
X0007039Y0009524D01*
X0007064Y0009652D01*
X0007064Y0009887D01*
X0012192Y0009887D01*
X0012394Y0009927D01*
X0012565Y0010041D01*
X0013535Y0011012D01*
X0013535Y0009957D01*
X0013560Y0009829D01*
X0013633Y0009721D01*
X0013741Y0009649D01*
X0013868Y0009623D01*
X0015392Y0009623D01*
X0015520Y0009649D01*
X0015628Y0009721D01*
X0015700Y0009829D01*
X0015726Y0009957D01*
X0015726Y0011481D01*
X0016075Y0011481D01*
X0016075Y0009957D01*
X0016100Y0009829D01*
X0016173Y0009721D01*
X0016281Y0009649D01*
X0016408Y0009623D01*
X0017932Y0009623D01*
X0018060Y0009649D01*
X0018168Y0009721D01*
X0018240Y0009829D01*
X0018266Y0009957D01*
X0018266Y0011481D01*
X0018240Y0011608D01*
X0018168Y0011717D01*
X0018060Y0011789D01*
X0017932Y0011814D01*
X0016408Y0011814D01*
X0016281Y0011789D01*
X0016173Y0011717D01*
X0016100Y0011608D01*
X0016075Y0011481D01*
X0015726Y0011481D01*
X0015700Y0011608D01*
X0015628Y0011717D01*
X0015520Y0011789D01*
X0015392Y0011814D01*
X0014337Y0011814D01*
X0016216Y0013693D01*
X0016250Y0013659D01*
X0016517Y0013548D01*
X0016806Y0013548D01*
X0017074Y0013658D01*
X0017278Y0013862D01*
X0017389Y0014130D01*
X0017389Y0014256D01*
X0017949Y0014817D01*
X0018064Y0014988D01*
X0018104Y0015189D01*
X0018104Y0017634D01*
X0018193Y0017723D01*
X0018304Y0017990D01*
X0018304Y0018280D01*
X0018193Y0018547D01*
X0018155Y0018586D01*
X0018165Y0018601D01*
X0018205Y0018803D01*
X0018205Y0022286D01*
X0018560Y0022641D01*
X0018686Y0022641D01*
X0018953Y0022751D01*
X0019158Y0022956D01*
X0019269Y0023223D01*
X0019269Y0023512D01*
X0019159Y0023779D01*
X0018954Y0023984D01*
X0018687Y0024095D01*
X0018398Y0024095D01*
X0018131Y0023985D01*
X0017926Y0023780D01*
X0017815Y0023513D01*
X0017815Y0023386D01*
X0017306Y0022877D01*
X0017192Y0022706D01*
X0017192Y0022706D01*
X0017151Y0022504D01*
X0017151Y0021572D01*
X0017099Y0021594D01*
X0016834Y0021859D01*
X0016834Y0025254D01*
X0016923Y0025343D01*
X0017034Y0025610D01*
X0017034Y0025900D01*
X0016923Y0026167D01*
X0016719Y0026372D01*
X0016452Y0026482D01*
X0016163Y0026483D01*
X0015896Y0026372D01*
X0015691Y0026168D01*
X0015580Y0025901D01*
X0015580Y0025612D01*
X0015690Y0025344D01*
X0015780Y0025254D01*
X0015780Y0021641D01*
X0015784Y0021619D01*
X0015230Y0022173D01*
X0015075Y0022277D01*
X0014892Y0022313D01*
X0012850Y0022313D01*
X0012826Y0022337D01*
X0012826Y0026863D01*
X0013887Y0027924D01*
X0014012Y0027924D01*
X0014280Y0028035D01*
X0014484Y0028239D01*
X0014595Y0028506D01*
X0014596Y0028795D01*
X0014485Y0029062D01*
X0014281Y0029267D01*
X0014014Y0029378D01*
X0013724Y0029378D01*
X0013457Y0029268D01*
X0013252Y0029064D01*
X0013142Y0028796D01*
X0013141Y0028670D01*
X0011926Y0027454D01*
X0011812Y0027283D01*
X0011772Y0027081D01*
X0011772Y0027074D01*
X0011497Y0027349D01*
X0011497Y0027474D01*
X0011386Y0027742D01*
X0011182Y0027946D01*
X0010915Y0028057D01*
X0010626Y0028058D01*
X0010358Y0027947D01*
X0010154Y0027743D01*
X0010043Y0027476D01*
X0010042Y0027186D01*
X0010153Y0026919D01*
X0010275Y0026797D01*
X0010115Y0026863D01*
X0009826Y0026864D01*
X0009558Y0026753D01*
X0009354Y0026549D01*
X0009243Y0026282D01*
X0009242Y0025993D01*
X0009353Y0025725D01*
X0009443Y0025635D01*
X0009443Y0021171D01*
X0009483Y0020969D01*
X0009597Y0020798D01*
X0010753Y0019643D01*
X0010867Y0019566D01*
X0010924Y0019528D01*
X0011125Y0019488D01*
X0013286Y0019488D01*
X0013452Y0019322D01*
X0013440Y0019310D01*
X0013329Y0019043D01*
X0013329Y0018754D01*
X0013439Y0018486D01*
X0013644Y0018282D01*
X0013911Y0018171D01*
X0014200Y0018170D01*
X0014324Y0018222D01*
X0013089Y0016986D01*
X0012412Y0016986D01*
X0012512Y0017228D01*
X0012513Y0017518D01*
X0012402Y0017785D01*
X0012198Y0017990D01*
X0011931Y0018100D01*
X0011642Y0018101D01*
X0011641Y0018101D01*
X0010042Y0018101D01*
X0009109Y0019033D01*
X0009109Y0023152D01*
X0009109Y0023152D01*
X0009109Y0023152D01*
X0009109Y0024854D01*
X0009109Y0024854D01*
X0009109Y0024854D01*
X0009109Y0027939D01*
X0009109Y0028084D01*
X0008999Y0028351D01*
X0008794Y0028556D01*
X0008527Y0028667D01*
X0008238Y0028667D01*
X0007971Y0028557D01*
X0007766Y0028352D01*
X0007655Y0028085D01*
X0007655Y0027796D01*
X0007655Y0027796D01*
X0007655Y0025155D01*
X0007230Y0024730D01*
X0007064Y0024730D01*
X0007064Y0024765D01*
X0007039Y0024893D01*
X0006967Y0025001D01*
X0006859Y0025073D01*
X0006731Y0025098D01*
X0005207Y0025098D01*
X0005079Y0025073D01*
X0004971Y0025001D01*
X0004899Y0024893D01*
X0004874Y0024765D01*
X0004874Y0024730D01*
X0004524Y0024730D01*
X0004524Y0024765D01*
X0004499Y0024893D01*
X0004427Y0025001D01*
X0004319Y0025073D01*
X0004191Y0025098D01*
X0002667Y0025098D01*
X0002539Y0025073D01*
X0002431Y0025001D01*
X0002359Y0024893D01*
X0002334Y0024765D01*
X0000402Y0024765D01*
X0000402Y0027305D01*
X0002334Y0027305D01*
X0002334Y0025781D01*
X0002359Y0025653D01*
X0002431Y0025545D01*
X0002539Y0025473D01*
X0002667Y0025448D01*
X0004191Y0025448D01*
X0004319Y0025473D01*
X0004427Y0025545D01*
X0004499Y0025653D01*
X0004524Y0025781D01*
X0004524Y0027305D01*
X0004874Y0027305D01*
X0004874Y0025781D01*
X0004899Y0025653D01*
X0004971Y0025545D01*
X0005079Y0025473D01*
X0005207Y0025448D01*
X0006731Y0025448D01*
X0006859Y0025473D01*
X0006967Y0025545D01*
X0007039Y0025653D01*
X0007064Y0025781D01*
X0007064Y0027305D01*
X0007039Y0027433D01*
X0006967Y0027541D01*
X0006859Y0027613D01*
X0006731Y0027638D01*
X0005207Y0027638D01*
X0005079Y0027613D01*
X0004971Y0027541D01*
X0004899Y0027433D01*
X0004874Y0027305D01*
X0004524Y0027305D01*
X0004499Y0027433D01*
X0004427Y0027541D01*
X0004319Y0027613D01*
X0004191Y0027638D01*
X0002667Y0027638D01*
X0002539Y0027613D01*
X0002431Y0027541D01*
X0002359Y0027433D01*
X0002334Y0027305D01*
X0000402Y0027305D01*
X0000402Y0039730D01*
X0019410Y0039730D01*
X0019410Y0000402D01*
X0019410Y0000402D01*
G37*
X0019410Y0000402D02*
X0000402Y0000402D01*
X0000402Y0022225D01*
X0002334Y0022225D01*
X0002334Y0020701D01*
X0002359Y0020573D01*
X0002431Y0020465D01*
X0002539Y0020393D01*
X0002667Y0020368D01*
X0004191Y0020368D01*
X0004319Y0020393D01*
X0004427Y0020465D01*
X0004499Y0020573D01*
X0004524Y0020701D01*
X0004524Y0022225D01*
X0004874Y0022225D01*
X0004874Y0020701D01*
X0004899Y0020573D01*
X0004971Y0020465D01*
X0005079Y0020393D01*
X0005207Y0020368D01*
X0006731Y0020368D01*
X0006859Y0020393D01*
X0006967Y0020465D01*
X0007039Y0020573D01*
X0007064Y0020701D01*
X0007064Y0022225D01*
X0007039Y0022353D01*
X0006967Y0022461D01*
X0006859Y0022533D01*
X0006731Y0022558D01*
X0005207Y0022558D01*
X0005079Y0022533D01*
X0004971Y0022461D01*
X0004899Y0022353D01*
X0004874Y0022225D01*
X0004524Y0022225D01*
X0004499Y0022353D01*
X0004427Y0022461D01*
X0004319Y0022533D01*
X0004191Y0022558D01*
X0002667Y0022558D01*
X0002539Y0022533D01*
X0002431Y0022461D01*
X0002359Y0022353D01*
X0002334Y0022225D01*
X0000402Y0022225D01*
X0000402Y0024765D01*
X0002334Y0024765D01*
X0002334Y0023241D01*
X0002359Y0023113D01*
X0002431Y0023005D01*
X0002539Y0022933D01*
X0002667Y0022908D01*
X0004191Y0022908D01*
X0004319Y0022933D01*
X0004427Y0023005D01*
X0004499Y0023113D01*
X0004524Y0023241D01*
X0004524Y0023276D01*
X0004874Y0023276D01*
X0004874Y0023241D01*
X0004899Y0023113D01*
X0004971Y0023005D01*
X0005079Y0022933D01*
X0005207Y0022908D01*
X0006731Y0022908D01*
X0006859Y0022933D01*
X0006967Y0023005D01*
X0007039Y0023113D01*
X0007064Y0023241D01*
X0007064Y0023276D01*
X0007230Y0023276D01*
X0007655Y0022851D01*
X0007655Y0019033D01*
X0006621Y0017999D01*
X0005131Y0017999D01*
X0005131Y0017999D01*
X0004899Y0017953D01*
X0004853Y0017944D01*
X0004617Y0017786D01*
X0004617Y0017786D01*
X0003420Y0016589D01*
X0002667Y0016589D01*
X0002539Y0016564D01*
X0002431Y0016492D01*
X0002359Y0016384D01*
X0002334Y0016256D01*
X0002334Y0014732D01*
X0002359Y0014604D01*
X0002431Y0014496D01*
X0002539Y0014424D01*
X0002667Y0014399D01*
X0002702Y0014399D01*
X0002702Y0014049D01*
X0002667Y0014049D01*
X0002539Y0014024D01*
X0002431Y0013952D01*
X0002359Y0013844D01*
X0002334Y0013716D01*
X0002334Y0012192D01*
X0002359Y0012064D01*
X0002431Y0011956D01*
X0002539Y0011884D01*
X0002667Y0011859D01*
X0002702Y0011859D01*
X0002702Y0011509D01*
X0002667Y0011509D01*
X0002539Y0011484D01*
X0002431Y0011412D01*
X0002359Y0011304D01*
X0002334Y0011176D01*
X0002334Y0009652D01*
X0002359Y0009524D01*
X0002431Y0009416D01*
X0002539Y0009344D01*
X0002667Y0009319D01*
X0004191Y0009319D01*
X0004319Y0009344D01*
X0004427Y0009416D01*
X0004499Y0009524D01*
X0004524Y0009652D01*
X0004524Y0011176D01*
X0004499Y0011304D01*
X0004427Y0011412D01*
X0004319Y0011484D01*
X0004191Y0011509D01*
X0004156Y0011509D01*
X0004156Y0011859D01*
X0004191Y0011859D01*
X0004319Y0011884D01*
X0004427Y0011956D01*
X0004499Y0012064D01*
X0004524Y0012192D01*
X0004524Y0013716D01*
X0004499Y0013844D01*
X0004427Y0013952D01*
X0004319Y0014024D01*
X0004191Y0014049D01*
X0004156Y0014049D01*
X0004156Y0014399D01*
X0004191Y0014399D01*
X0004319Y0014424D01*
X0004427Y0014496D01*
X0004499Y0014604D01*
X0004524Y0014732D01*
X0004524Y0015637D01*
X0004874Y0015987D01*
X0004874Y0014732D01*
X0004899Y0014604D01*
X0004971Y0014496D01*
X0005079Y0014424D01*
X0005207Y0014399D01*
X0006731Y0014399D01*
X0006859Y0014424D01*
X0006967Y0014496D01*
X0007039Y0014604D01*
X0007064Y0014732D01*
X0007064Y0014967D01*
X0007131Y0014967D01*
X0007333Y0015007D01*
X0007504Y0015121D01*
X0008314Y0015932D01*
X0010490Y0015932D01*
X0010308Y0015857D01*
X0010103Y0015652D01*
X0009992Y0015385D01*
X0009992Y0015096D01*
X0010102Y0014829D01*
X0010306Y0014624D01*
X0010574Y0014513D01*
X0010863Y0014513D01*
X0011130Y0014623D01*
X0011335Y0014828D01*
X0011446Y0015095D01*
X0011446Y0015292D01*
X0011551Y0015398D01*
X0014308Y0015398D01*
X0014447Y0015259D01*
X0014714Y0015148D01*
X0015003Y0015148D01*
X0015270Y0015258D01*
X0015475Y0015463D01*
X0015586Y0015730D01*
X0015586Y0015927D01*
X0016214Y0016556D01*
X0016212Y0016545D01*
X0016186Y0016415D01*
X0016186Y0016351D01*
X0016097Y0016262D01*
X0015986Y0015995D01*
X0015986Y0015868D01*
X0013599Y0013481D01*
X0007064Y0013481D01*
X0007064Y0013716D01*
X0007039Y0013844D01*
X0006967Y0013952D01*
X0006859Y0014024D01*
X0006731Y0014049D01*
X0005207Y0014049D01*
X0005079Y0014024D01*
X0004971Y0013952D01*
X0004899Y0013844D01*
X0004874Y0013716D01*
X0004874Y0012192D01*
X0004899Y0012064D01*
X0004971Y0011956D01*
X0005079Y0011884D01*
X0005207Y0011859D01*
X0006731Y0011859D01*
X0006859Y0011884D01*
X0006967Y0011956D01*
X0007039Y0012064D01*
X0007064Y0012192D01*
X0007064Y0012427D01*
X0013460Y0012427D01*
X0011974Y0010941D01*
X0007064Y0010941D01*
X0007064Y0011176D01*
X0007039Y0011304D01*
X0006967Y0011412D01*
X0006859Y0011484D01*
X0006731Y0011509D01*
X0005207Y0011509D01*
X0005079Y0011484D01*
X0004971Y0011412D01*
X0004899Y0011304D01*
X0004874Y0011176D01*
X0004874Y0009652D01*
X0004899Y0009524D01*
X0004971Y0009416D01*
X0005079Y0009344D01*
X0005207Y0009319D01*
X0006731Y0009319D01*
X0006859Y0009344D01*
X0006967Y0009416D01*
X0007039Y0009524D01*
X0007064Y0009652D01*
X0007064Y0009887D01*
X0012192Y0009887D01*
X0012394Y0009927D01*
X0012565Y0010041D01*
X0013535Y0011012D01*
X0013535Y0009957D01*
X0013560Y0009829D01*
X0013633Y0009721D01*
X0013741Y0009649D01*
X0013868Y0009623D01*
X0015392Y0009623D01*
X0015520Y0009649D01*
X0015628Y0009721D01*
X0015700Y0009829D01*
X0015726Y0009957D01*
X0015726Y0011481D01*
X0016075Y0011481D01*
X0016075Y0009957D01*
X0016100Y0009829D01*
X0016173Y0009721D01*
X0016281Y0009649D01*
X0016408Y0009623D01*
X0017932Y0009623D01*
X0018060Y0009649D01*
X0018168Y0009721D01*
X0018240Y0009829D01*
X0018266Y0009957D01*
X0018266Y0011481D01*
X0018240Y0011608D01*
X0018168Y0011717D01*
X0018060Y0011789D01*
X0017932Y0011814D01*
X0016408Y0011814D01*
X0016281Y0011789D01*
X0016173Y0011717D01*
X0016100Y0011608D01*
X0016075Y0011481D01*
X0015726Y0011481D01*
X0015700Y0011608D01*
X0015628Y0011717D01*
X0015520Y0011789D01*
X0015392Y0011814D01*
X0014337Y0011814D01*
X0016216Y0013693D01*
X0016250Y0013659D01*
X0016517Y0013548D01*
X0016806Y0013548D01*
X0017074Y0013658D01*
X0017278Y0013862D01*
X0017389Y0014130D01*
X0017389Y0014256D01*
X0017949Y0014817D01*
X0018064Y0014988D01*
X0018104Y0015189D01*
X0018104Y0017634D01*
X0018193Y0017723D01*
X0018304Y0017990D01*
X0018304Y0018280D01*
X0018193Y0018547D01*
X0018155Y0018586D01*
X0018165Y0018601D01*
X0018205Y0018803D01*
X0018205Y0022286D01*
X0018560Y0022641D01*
X0018686Y0022641D01*
X0018953Y0022751D01*
X0019158Y0022956D01*
X0019269Y0023223D01*
X0019269Y0023512D01*
X0019159Y0023779D01*
X0018954Y0023984D01*
X0018687Y0024095D01*
X0018398Y0024095D01*
X0018131Y0023985D01*
X0017926Y0023780D01*
X0017815Y0023513D01*
X0017815Y0023386D01*
X0017306Y0022877D01*
X0017192Y0022706D01*
X0017192Y0022706D01*
X0017151Y0022504D01*
X0017151Y0021572D01*
X0017099Y0021594D01*
X0016834Y0021859D01*
X0016834Y0025254D01*
X0016923Y0025343D01*
X0017034Y0025610D01*
X0017034Y0025900D01*
X0016923Y0026167D01*
X0016719Y0026372D01*
X0016452Y0026482D01*
X0016163Y0026483D01*
X0015896Y0026372D01*
X0015691Y0026168D01*
X0015580Y0025901D01*
X0015580Y0025612D01*
X0015690Y0025344D01*
X0015780Y0025254D01*
X0015780Y0021641D01*
X0015784Y0021619D01*
X0015230Y0022173D01*
X0015075Y0022277D01*
X0014892Y0022313D01*
X0012850Y0022313D01*
X0012826Y0022337D01*
X0012826Y0026863D01*
X0013887Y0027924D01*
X0014012Y0027924D01*
X0014280Y0028035D01*
X0014484Y0028239D01*
X0014595Y0028506D01*
X0014596Y0028795D01*
X0014485Y0029062D01*
X0014281Y0029267D01*
X0014014Y0029378D01*
X0013724Y0029378D01*
X0013457Y0029268D01*
X0013252Y0029064D01*
X0013142Y0028796D01*
X0013141Y0028670D01*
X0011926Y0027454D01*
X0011812Y0027283D01*
X0011772Y0027081D01*
X0011772Y0027074D01*
X0011497Y0027349D01*
X0011497Y0027474D01*
X0011386Y0027742D01*
X0011182Y0027946D01*
X0010915Y0028057D01*
X0010626Y0028058D01*
X0010358Y0027947D01*
X0010154Y0027743D01*
X0010043Y0027476D01*
X0010042Y0027186D01*
X0010153Y0026919D01*
X0010275Y0026797D01*
X0010115Y0026863D01*
X0009826Y0026864D01*
X0009558Y0026753D01*
X0009354Y0026549D01*
X0009243Y0026282D01*
X0009242Y0025993D01*
X0009353Y0025725D01*
X0009443Y0025635D01*
X0009443Y0021171D01*
X0009483Y0020969D01*
X0009597Y0020798D01*
X0010753Y0019643D01*
X0010867Y0019566D01*
X0010924Y0019528D01*
X0011125Y0019488D01*
X0013286Y0019488D01*
X0013452Y0019322D01*
X0013440Y0019310D01*
X0013329Y0019043D01*
X0013329Y0018754D01*
X0013439Y0018486D01*
X0013644Y0018282D01*
X0013911Y0018171D01*
X0014200Y0018170D01*
X0014324Y0018222D01*
X0013089Y0016986D01*
X0012412Y0016986D01*
X0012512Y0017228D01*
X0012513Y0017518D01*
X0012402Y0017785D01*
X0012198Y0017990D01*
X0011931Y0018100D01*
X0011642Y0018101D01*
X0011641Y0018101D01*
X0010042Y0018101D01*
X0009109Y0019033D01*
X0009109Y0023152D01*
X0009109Y0023152D01*
X0009109Y0023152D01*
X0009109Y0024854D01*
X0009109Y0024854D01*
X0009109Y0024854D01*
X0009109Y0027939D01*
X0009109Y0028084D01*
X0008999Y0028351D01*
X0008794Y0028556D01*
X0008527Y0028667D01*
X0008238Y0028667D01*
X0007971Y0028557D01*
X0007766Y0028352D01*
X0007655Y0028085D01*
X0007655Y0027796D01*
X0007655Y0027796D01*
X0007655Y0025155D01*
X0007230Y0024730D01*
X0007064Y0024730D01*
X0007064Y0024765D01*
X0007039Y0024893D01*
X0006967Y0025001D01*
X0006859Y0025073D01*
X0006731Y0025098D01*
X0005207Y0025098D01*
X0005079Y0025073D01*
X0004971Y0025001D01*
X0004899Y0024893D01*
X0004874Y0024765D01*
X0004874Y0024730D01*
X0004524Y0024730D01*
X0004524Y0024765D01*
X0004499Y0024893D01*
X0004427Y0025001D01*
X0004319Y0025073D01*
X0004191Y0025098D01*
X0002667Y0025098D01*
X0002539Y0025073D01*
X0002431Y0025001D01*
X0002359Y0024893D01*
X0002334Y0024765D01*
X0000402Y0024765D01*
X0000402Y0027305D01*
X0002334Y0027305D01*
X0002334Y0025781D01*
X0002359Y0025653D01*
X0002431Y0025545D01*
X0002539Y0025473D01*
X0002667Y0025448D01*
X0004191Y0025448D01*
X0004319Y0025473D01*
X0004427Y0025545D01*
X0004499Y0025653D01*
X0004524Y0025781D01*
X0004524Y0027305D01*
X0004874Y0027305D01*
X0004874Y0025781D01*
X0004899Y0025653D01*
X0004971Y0025545D01*
X0005079Y0025473D01*
X0005207Y0025448D01*
X0006731Y0025448D01*
X0006859Y0025473D01*
X0006967Y0025545D01*
X0007039Y0025653D01*
X0007064Y0025781D01*
X0007064Y0027305D01*
X0007039Y0027433D01*
X0006967Y0027541D01*
X0006859Y0027613D01*
X0006731Y0027638D01*
X0005207Y0027638D01*
X0005079Y0027613D01*
X0004971Y0027541D01*
X0004899Y0027433D01*
X0004874Y0027305D01*
X0004524Y0027305D01*
X0004499Y0027433D01*
X0004427Y0027541D01*
X0004319Y0027613D01*
X0004191Y0027638D01*
X0002667Y0027638D01*
X0002539Y0027613D01*
X0002431Y0027541D01*
X0002359Y0027433D01*
X0002334Y0027305D01*
X0000402Y0027305D01*
X0000402Y0039730D01*
X0019410Y0039730D01*
X0019410Y0000402D01*
X0019810Y0000000D02*
%LPD*%
G01*
D23*
D26*
X0065276Y0025146D03*
X0024636Y0025146D03*
X0024636Y0004826D03*
X0065276Y0004826D03*
D24*
X0033526Y0026416D03*
X0033526Y0023876D03*
X0036066Y0026416D03*
X0036066Y0023876D03*
X0038606Y0023876D03*
X0038606Y0026416D03*
X0041146Y0026416D03*
X0041146Y0023876D03*
X0043686Y0023876D03*
X0043686Y0026416D03*
X0056386Y0026416D03*
X0056386Y0023876D03*
X0053846Y0026416D03*
X0053846Y0023876D03*
X0033526Y0021336D03*
X0030986Y0021336D03*
X0066546Y0018796D03*
X0064006Y0018796D03*
X0066546Y0016256D03*
X0064006Y0016256D03*
D19*
X0054425Y0014933D03*
X0051885Y0014933D03*
X0049345Y0014933D03*
X0050615Y0012393D03*
X0055695Y0012393D03*
X0053155Y0012393D03*
D21*
X0057605Y0006033D03*
X0047445Y0006033D03*
X0032205Y0006033D03*
X0042365Y0006033D03*
D19*
X0037915Y0012393D03*
X0040455Y0012393D03*
X0035375Y0012393D03*
X0034105Y0014933D03*
X0036645Y0014933D03*
X0039185Y0014933D03*
D24*
X0064006Y0013716D03*
X0066546Y0013716D03*
X0066546Y0011176D03*
X0064006Y0011176D03*
X0025906Y0011176D03*
X0023366Y0011176D03*
X0025906Y0013716D03*
X0023366Y0013716D03*
X0025906Y0016256D03*
X0023366Y0016256D03*
X0025906Y0018796D03*
X0023366Y0018796D03*
D17*
X0048766Y0011684D03*
X0047750Y0011684D03*
X0046734Y0011684D03*
X0043686Y0011684D03*
X0042670Y0011684D03*
X0035812Y0010668D03*
X0036320Y0009906D03*
X0035050Y0009906D03*
X0034542Y0010922D03*
X0033272Y0010922D03*
X0034034Y0010160D03*
X0031748Y0009144D03*
X0045464Y0011586D03*
X0033018Y0017018D03*
X0045616Y0015951D03*
X0041908Y0016002D03*
X0043686Y0018019D03*
X0061212Y0016205D03*
X0056386Y0016002D03*
X0050646Y0009855D03*
D28*
X0046734Y0011684D02*
X0047750Y0011684D01*
X0047750Y0011684D02*
X0047750Y0011684D01*
X0043686Y0011684D02*
X0043686Y0011684D01*
X0042670Y0011684D02*
X0043686Y0011684D01*
D10*
X0035666Y0010522D02*
X0035812Y0010668D01*
X0034942Y0010522D02*
X0035666Y0010522D01*
X0034542Y0010922D02*
X0034942Y0010522D01*
X0035050Y0009906D02*
X0036320Y0009906D01*
X0034034Y0010160D02*
X0033272Y0010922D01*
X0024636Y0004826D02*
X0028954Y0009144D01*
X0028954Y0009144D02*
X0031748Y0009144D01*
D17*
X0053084Y0008633D02*
X0053081Y0008636D01*
X0053081Y0008636D02*
X0049023Y0008636D01*
X0049023Y0008636D02*
X0049020Y0008633D01*
X0049020Y0008633D02*
X0049277Y0008633D01*
X0049020Y0008633D02*
X0045464Y0008633D01*
X0045464Y0008633D02*
X0037844Y0008633D01*
D10*
X0045464Y0011586D02*
X0045464Y0011020D01*
X0045464Y0011020D02*
X0045464Y0008633D01*
D17*
X0061463Y0008633D02*
X0053084Y0008633D01*
X0053084Y0008633D02*
X0053155Y0008704D01*
X0053155Y0008704D02*
X0053155Y0012393D01*
X0037844Y0008633D02*
X0034037Y0008633D01*
X0037844Y0008633D02*
X0037915Y0008704D01*
X0037915Y0008704D02*
X0037915Y0012393D01*
X0064006Y0011176D02*
X0061463Y0008633D01*
X0032505Y0016505D02*
X0033018Y0017018D01*
X0034037Y0008633D02*
X0031748Y0010922D01*
X0031748Y0010922D02*
X0031748Y0015748D01*
X0031748Y0015748D02*
X0032505Y0016505D01*
D10*
X0064006Y0013716D02*
X0060004Y0013716D01*
X0056448Y0017272D02*
X0052322Y0017272D01*
X0060004Y0013716D02*
X0056448Y0017272D01*
X0052322Y0017272D02*
X0051885Y0016835D01*
X0051885Y0016835D02*
X0051885Y0014933D01*
X0046016Y0015551D02*
X0045616Y0015951D01*
X0046635Y0014933D02*
X0046016Y0015551D01*
X0049345Y0014933D02*
X0046635Y0014933D01*
X0034105Y0014933D02*
X0034133Y0014933D01*
X0034133Y0014933D02*
X0035964Y0016764D01*
X0035964Y0016764D02*
X0041146Y0016764D01*
X0041146Y0016764D02*
X0041908Y0016002D01*
X0064006Y0018796D02*
X0053846Y0018796D01*
X0053846Y0018796D02*
X0050798Y0018796D01*
X0053846Y0023876D02*
X0053846Y0018796D01*
X0053846Y0026416D02*
X0053846Y0023876D01*
X0049345Y0017343D02*
X0049345Y0014933D01*
X0050798Y0018796D02*
X0049345Y0017343D01*
D17*
X0033526Y0026416D02*
X0033526Y0027635D01*
X0033526Y0027635D02*
X0034288Y0028397D01*
X0034288Y0028397D02*
X0043026Y0028397D01*
X0043026Y0028397D02*
X0043686Y0027737D01*
X0043686Y0027737D02*
X0043686Y0026416D01*
X0043125Y0014933D02*
X0043686Y0015494D01*
X0043686Y0015494D02*
X0043686Y0018019D01*
X0039185Y0014933D02*
X0043125Y0014933D01*
X0033526Y0023876D02*
X0033526Y0026416D01*
X0033526Y0021336D02*
X0033526Y0023876D01*
X0043686Y0026416D02*
X0043686Y0023876D01*
X0043686Y0018019D02*
X0043686Y0022314D01*
X0043686Y0022314D02*
X0043686Y0023876D01*
D10*
X0061612Y0016605D02*
X0061212Y0016205D01*
X0065284Y0017518D02*
X0062525Y0017518D01*
X0066546Y0016256D02*
X0065284Y0017518D01*
X0062525Y0017518D02*
X0061612Y0016605D01*
X0056386Y0016002D02*
X0056386Y0013083D01*
X0056386Y0013083D02*
X0055695Y0012393D01*
X0050615Y0012393D02*
X0050615Y0009886D01*
X0050615Y0009886D02*
X0050646Y0009855D01*
D12*
G36*
X0069700Y0000402D02*
X0020212Y0000402D01*
X0020212Y0005572D01*
X0029878Y0005572D01*
X0030231Y0004716D01*
X0030885Y0004061D01*
X0031740Y0003706D01*
X0032666Y0003705D01*
X0033522Y0004059D01*
X0034177Y0004713D01*
X0034532Y0005568D01*
X0034533Y0006493D01*
X0034179Y0007349D01*
X0033525Y0008004D01*
X0032670Y0008359D01*
X0031744Y0008360D01*
X0030889Y0008006D01*
X0030234Y0007352D01*
X0029879Y0006497D01*
X0029878Y0005572D01*
X0020212Y0005572D01*
X0020212Y0015748D01*
X0031021Y0015748D01*
X0031021Y0015748D01*
X0031021Y0010922D01*
X0031021Y0010922D01*
X0031034Y0010859D01*
X0031076Y0010644D01*
X0031212Y0010441D01*
X0031234Y0010408D01*
X0033523Y0008118D01*
X0033523Y0008118D01*
X0033621Y0008053D01*
X0033759Y0007961D01*
X0034037Y0007906D01*
X0034038Y0007906D01*
X0037844Y0007906D01*
X0037844Y0007906D01*
X0037844Y0007906D01*
X0040948Y0007906D01*
X0040394Y0007352D01*
X0040039Y0006497D01*
X0040038Y0005572D01*
X0040391Y0004716D01*
X0041045Y0004061D01*
X0041900Y0003706D01*
X0042826Y0003705D01*
X0043682Y0004059D01*
X0044337Y0004713D01*
X0044692Y0005568D01*
X0044693Y0006493D01*
X0044339Y0007349D01*
X0043783Y0007906D01*
X0046028Y0007906D01*
X0045474Y0007352D01*
X0045119Y0006497D01*
X0045118Y0005572D01*
X0045471Y0004716D01*
X0046125Y0004061D01*
X0046980Y0003706D01*
X0047906Y0003705D01*
X0048762Y0004059D01*
X0049417Y0004713D01*
X0049772Y0005568D01*
X0049773Y0006493D01*
X0049419Y0007349D01*
X0048863Y0007906D01*
X0049020Y0007906D01*
X0049020Y0007906D01*
X0049020Y0007906D01*
X0049277Y0007906D01*
X0049295Y0007909D01*
X0053066Y0007909D01*
X0053084Y0007906D01*
X0053084Y0007906D01*
X0056188Y0007906D01*
X0055634Y0007352D01*
X0055279Y0006497D01*
X0055278Y0005572D01*
X0055631Y0004716D01*
X0056285Y0004061D01*
X0057140Y0003706D01*
X0058066Y0003705D01*
X0058922Y0004059D01*
X0059577Y0004713D01*
X0059932Y0005568D01*
X0059933Y0006493D01*
X0059579Y0007349D01*
X0059023Y0007906D01*
X0061462Y0007906D01*
X0061463Y0007906D01*
X0061695Y0007952D01*
X0061741Y0007961D01*
X0061977Y0008118D01*
X0061977Y0008118D01*
X0063939Y0010081D01*
X0064768Y0010081D01*
X0064896Y0010106D01*
X0065004Y0010178D01*
X0065076Y0010286D01*
X0065101Y0010414D01*
X0065101Y0011938D01*
X0065451Y0011938D01*
X0065451Y0010414D01*
X0065476Y0010286D01*
X0065548Y0010178D01*
X0065656Y0010106D01*
X0065784Y0010081D01*
X0067308Y0010081D01*
X0067436Y0010106D01*
X0067544Y0010178D01*
X0067616Y0010286D01*
X0067641Y0010414D01*
X0067641Y0011938D01*
X0067616Y0012066D01*
X0067544Y0012174D01*
X0067436Y0012246D01*
X0067308Y0012271D01*
X0065784Y0012271D01*
X0065656Y0012246D01*
X0065548Y0012174D01*
X0065476Y0012066D01*
X0065451Y0011938D01*
X0065101Y0011938D01*
X0065076Y0012066D01*
X0065004Y0012174D01*
X0064896Y0012246D01*
X0064768Y0012271D01*
X0063244Y0012271D01*
X0063116Y0012246D01*
X0063008Y0012174D01*
X0062936Y0012066D01*
X0062911Y0011938D01*
X0062911Y0011109D01*
X0061161Y0009360D01*
X0053882Y0009360D01*
X0053882Y0011257D01*
X0053906Y0011267D01*
X0054280Y0011640D01*
X0054425Y0011991D01*
X0054570Y0011642D01*
X0054943Y0011268D01*
X0055430Y0011066D01*
X0055958Y0011065D01*
X0056446Y0011267D01*
X0056820Y0011640D01*
X0057022Y0012127D01*
X0057022Y0012655D01*
X0056953Y0012824D01*
X0056965Y0012843D01*
X0057013Y0013083D01*
X0057013Y0015616D01*
X0057073Y0015760D01*
X0059561Y0013273D01*
X0059764Y0013137D01*
X0060004Y0013089D01*
X0062911Y0013089D01*
X0062911Y0012954D01*
X0062936Y0012826D01*
X0063008Y0012718D01*
X0063116Y0012646D01*
X0063244Y0012621D01*
X0064768Y0012621D01*
X0064896Y0012646D01*
X0065004Y0012718D01*
X0065076Y0012826D01*
X0065101Y0012954D01*
X0065101Y0014478D01*
X0065451Y0014478D01*
X0065451Y0012954D01*
X0065476Y0012826D01*
X0065548Y0012718D01*
X0065656Y0012646D01*
X0065784Y0012621D01*
X0067308Y0012621D01*
X0067436Y0012646D01*
X0067544Y0012718D01*
X0067616Y0012826D01*
X0067641Y0012954D01*
X0067641Y0014478D01*
X0067616Y0014606D01*
X0067544Y0014714D01*
X0067436Y0014786D01*
X0067308Y0014811D01*
X0065784Y0014811D01*
X0065656Y0014786D01*
X0065548Y0014714D01*
X0065476Y0014606D01*
X0065451Y0014478D01*
X0065101Y0014478D01*
X0065076Y0014606D01*
X0065004Y0014714D01*
X0064896Y0014786D01*
X0064768Y0014811D01*
X0063244Y0014811D01*
X0063116Y0014786D01*
X0063008Y0014714D01*
X0062936Y0014606D01*
X0062911Y0014478D01*
X0062911Y0014343D01*
X0060264Y0014343D01*
X0056891Y0017715D01*
X0056688Y0017851D01*
X0056448Y0017899D01*
X0052322Y0017899D01*
X0052082Y0017851D01*
X0051879Y0017715D01*
X0051442Y0017279D01*
X0051306Y0017075D01*
X0051258Y0016835D01*
X0051258Y0016109D01*
X0051134Y0016058D01*
X0050761Y0015685D01*
X0050615Y0015334D01*
X0050471Y0015683D01*
X0050098Y0016057D01*
X0049972Y0016109D01*
X0049972Y0017083D01*
X0051058Y0018169D01*
X0062911Y0018169D01*
X0062911Y0018145D01*
X0062525Y0018145D01*
X0062285Y0018097D01*
X0062081Y0017961D01*
X0061041Y0016921D01*
X0060801Y0016822D01*
X0060596Y0016618D01*
X0060485Y0016350D01*
X0060485Y0016061D01*
X0060595Y0015794D01*
X0060800Y0015589D01*
X0061067Y0015478D01*
X0061356Y0015478D01*
X0061623Y0015589D01*
X0061828Y0015793D01*
X0061929Y0016035D01*
X0062785Y0016891D01*
X0062911Y0016891D01*
X0062911Y0015494D01*
X0062936Y0015366D01*
X0063008Y0015258D01*
X0063116Y0015186D01*
X0063244Y0015161D01*
X0064768Y0015161D01*
X0064896Y0015186D01*
X0065004Y0015258D01*
X0065076Y0015366D01*
X0065101Y0015494D01*
X0065101Y0016814D01*
X0065451Y0016465D01*
X0065451Y0015494D01*
X0065476Y0015366D01*
X0065548Y0015258D01*
X0065656Y0015186D01*
X0065784Y0015161D01*
X0067308Y0015161D01*
X0067436Y0015186D01*
X0067544Y0015258D01*
X0067616Y0015366D01*
X0067641Y0015494D01*
X0067641Y0017018D01*
X0067616Y0017146D01*
X0067544Y0017254D01*
X0067436Y0017326D01*
X0067308Y0017351D01*
X0066337Y0017351D01*
X0065988Y0017701D01*
X0067308Y0017701D01*
X0067436Y0017726D01*
X0067544Y0017798D01*
X0067616Y0017906D01*
X0067641Y0018034D01*
X0067641Y0019558D01*
X0067616Y0019686D01*
X0067544Y0019794D01*
X0067436Y0019866D01*
X0067308Y0019891D01*
X0065784Y0019891D01*
X0065656Y0019866D01*
X0065548Y0019794D01*
X0065476Y0019686D01*
X0065451Y0019558D01*
X0065451Y0018112D01*
X0065284Y0018145D01*
X0065101Y0018145D01*
X0065101Y0019558D01*
X0065076Y0019686D01*
X0065004Y0019794D01*
X0064896Y0019866D01*
X0064768Y0019891D01*
X0063244Y0019891D01*
X0063116Y0019866D01*
X0063008Y0019794D01*
X0062936Y0019686D01*
X0062911Y0019558D01*
X0062911Y0019423D01*
X0054473Y0019423D01*
X0054473Y0022781D01*
X0054608Y0022781D01*
X0054736Y0022806D01*
X0054844Y0022878D01*
X0054916Y0022986D01*
X0054941Y0023114D01*
X0054941Y0024638D01*
X0055291Y0024638D01*
X0055291Y0023114D01*
X0055316Y0022986D01*
X0055388Y0022878D01*
X0055496Y0022806D01*
X0055624Y0022781D01*
X0057148Y0022781D01*
X0057276Y0022806D01*
X0057384Y0022878D01*
X0057456Y0022986D01*
X0057481Y0023114D01*
X0057481Y0024638D01*
X0057456Y0024766D01*
X0057384Y0024874D01*
X0057276Y0024946D01*
X0057148Y0024971D01*
X0055624Y0024971D01*
X0055496Y0024946D01*
X0055388Y0024874D01*
X0055316Y0024766D01*
X0055291Y0024638D01*
X0054941Y0024638D01*
X0054916Y0024766D01*
X0054844Y0024874D01*
X0054736Y0024946D01*
X0054608Y0024971D01*
X0054473Y0024971D01*
X0054473Y0025321D01*
X0054608Y0025321D01*
X0054736Y0025346D01*
X0054844Y0025418D01*
X0054916Y0025526D01*
X0054941Y0025654D01*
X0054941Y0027178D01*
X0055291Y0027178D01*
X0055291Y0025654D01*
X0055316Y0025526D01*
X0055388Y0025418D01*
X0055496Y0025346D01*
X0055624Y0025321D01*
X0057148Y0025321D01*
X0057276Y0025346D01*
X0057384Y0025418D01*
X0057456Y0025526D01*
X0057481Y0025654D01*
X0057481Y0027178D01*
X0057456Y0027306D01*
X0057384Y0027414D01*
X0057276Y0027486D01*
X0057148Y0027511D01*
X0055624Y0027511D01*
X0055496Y0027486D01*
X0055388Y0027414D01*
X0055316Y0027306D01*
X0055291Y0027178D01*
X0054941Y0027178D01*
X0054916Y0027306D01*
X0054844Y0027414D01*
X0054736Y0027486D01*
X0054608Y0027511D01*
X0053084Y0027511D01*
X0052956Y0027486D01*
X0052848Y0027414D01*
X0052776Y0027306D01*
X0052751Y0027178D01*
X0052751Y0025654D01*
X0052776Y0025526D01*
X0052848Y0025418D01*
X0052956Y0025346D01*
X0053084Y0025321D01*
X0053219Y0025321D01*
X0053219Y0024971D01*
X0053084Y0024971D01*
X0052956Y0024946D01*
X0052848Y0024874D01*
X0052776Y0024766D01*
X0052751Y0024638D01*
X0052751Y0023114D01*
X0052776Y0022986D01*
X0052848Y0022878D01*
X0052956Y0022806D01*
X0053084Y0022781D01*
X0053219Y0022781D01*
X0053219Y0019423D01*
X0050798Y0019423D01*
X0050558Y0019375D01*
X0050355Y0019239D01*
X0048902Y0017787D01*
X0048766Y0017583D01*
X0048718Y0017343D01*
X0048718Y0016109D01*
X0048594Y0016058D01*
X0048221Y0015685D01*
X0048169Y0015560D01*
X0046895Y0015560D01*
X0046333Y0016122D01*
X0046233Y0016362D01*
X0046029Y0016567D01*
X0045762Y0016678D01*
X0045472Y0016678D01*
X0045205Y0016568D01*
X0045000Y0016364D01*
X0044890Y0016096D01*
X0044889Y0015807D01*
X0045000Y0015540D01*
X0045204Y0015335D01*
X0045446Y0015235D01*
X0046192Y0014489D01*
X0046395Y0014353D01*
X0046635Y0014306D01*
X0048168Y0014306D01*
X0048220Y0014182D01*
X0048593Y0013808D01*
X0049080Y0013606D01*
X0049608Y0013605D01*
X0050096Y0013807D01*
X0050470Y0014180D01*
X0050615Y0014531D01*
X0050760Y0014182D01*
X0051133Y0013808D01*
X0051620Y0013606D01*
X0052148Y0013605D01*
X0052636Y0013807D01*
X0053010Y0014180D01*
X0053155Y0014531D01*
X0053300Y0014182D01*
X0053673Y0013808D01*
X0054160Y0013606D01*
X0054688Y0013605D01*
X0055176Y0013807D01*
X0055550Y0014180D01*
X0055752Y0014667D01*
X0055752Y0015195D01*
X0055551Y0015683D01*
X0055178Y0016057D01*
X0054690Y0016259D01*
X0054162Y0016260D01*
X0053674Y0016058D01*
X0053301Y0015685D01*
X0053155Y0015334D01*
X0053011Y0015683D01*
X0052638Y0016057D01*
X0052512Y0016109D01*
X0052512Y0016575D01*
X0052582Y0016645D01*
X0056038Y0016645D01*
X0055975Y0016619D01*
X0055770Y0016414D01*
X0055659Y0016147D01*
X0055659Y0015858D01*
X0055759Y0015616D01*
X0055759Y0013719D01*
X0055432Y0013720D01*
X0054944Y0013518D01*
X0054571Y0013145D01*
X0054425Y0012794D01*
X0054281Y0013143D01*
X0053908Y0013517D01*
X0053420Y0013719D01*
X0052892Y0013720D01*
X0052404Y0013518D01*
X0052031Y0013145D01*
X0051885Y0012794D01*
X0051741Y0013143D01*
X0051368Y0013517D01*
X0050880Y0013719D01*
X0050352Y0013720D01*
X0049864Y0013518D01*
X0049491Y0013145D01*
X0049288Y0012658D01*
X0049288Y0012130D01*
X0049490Y0011642D01*
X0049863Y0011268D01*
X0049988Y0011216D01*
X0049988Y0010168D01*
X0049919Y0010000D01*
X0049918Y0009711D01*
X0050029Y0009444D01*
X0050110Y0009363D01*
X0049023Y0009363D01*
X0049006Y0009360D01*
X0046091Y0009360D01*
X0046091Y0011200D01*
X0046191Y0011440D01*
X0046191Y0011730D01*
X0046081Y0011997D01*
X0045876Y0012202D01*
X0045609Y0012313D01*
X0045320Y0012313D01*
X0045053Y0012202D01*
X0044848Y0011998D01*
X0044737Y0011731D01*
X0044737Y0011442D01*
X0044837Y0011199D01*
X0044837Y0009360D01*
X0038642Y0009360D01*
X0038642Y0011257D01*
X0038666Y0011267D01*
X0039040Y0011640D01*
X0039185Y0011991D01*
X0039330Y0011642D01*
X0039703Y0011268D01*
X0040190Y0011066D01*
X0040718Y0011065D01*
X0041206Y0011267D01*
X0041580Y0011640D01*
X0041782Y0012127D01*
X0041782Y0012655D01*
X0041581Y0013143D01*
X0041208Y0013517D01*
X0040720Y0013719D01*
X0040192Y0013720D01*
X0039704Y0013518D01*
X0039331Y0013145D01*
X0039185Y0012794D01*
X0039041Y0013143D01*
X0038668Y0013517D01*
X0038180Y0013719D01*
X0037652Y0013720D01*
X0037164Y0013518D01*
X0036791Y0013145D01*
X0036645Y0012794D01*
X0036501Y0013143D01*
X0036128Y0013517D01*
X0035640Y0013719D01*
X0035112Y0013720D01*
X0034624Y0013518D01*
X0034251Y0013145D01*
X0034048Y0012658D01*
X0034048Y0012130D01*
X0034250Y0011642D01*
X0034623Y0011268D01*
X0035110Y0011066D01*
X0035638Y0011065D01*
X0036126Y0011267D01*
X0036500Y0011640D01*
X0036645Y0011991D01*
X0036790Y0011642D01*
X0037163Y0011268D01*
X0037188Y0011258D01*
X0037188Y0009360D01*
X0034339Y0009360D01*
X0032475Y0011223D01*
X0032475Y0015447D01*
X0033532Y0016504D01*
X0033532Y0016504D01*
X0033634Y0016606D01*
X0033745Y0016873D01*
X0033745Y0017162D01*
X0033635Y0017429D01*
X0033430Y0017634D01*
X0033163Y0017745D01*
X0032874Y0017745D01*
X0032607Y0017635D01*
X0032402Y0017430D01*
X0032402Y0017430D01*
X0031234Y0016262D01*
X0031076Y0016026D01*
X0031073Y0016008D01*
X0031021Y0015748D01*
X0020212Y0015748D01*
X0020212Y0027178D01*
X0032431Y0027178D01*
X0032431Y0025654D01*
X0032456Y0025526D01*
X0032528Y0025418D01*
X0032636Y0025346D01*
X0032764Y0025321D01*
X0032799Y0025321D01*
X0032799Y0024971D01*
X0032764Y0024971D01*
X0032636Y0024946D01*
X0032528Y0024874D01*
X0032456Y0024766D01*
X0032431Y0024638D01*
X0032431Y0023114D01*
X0032456Y0022986D01*
X0032528Y0022878D01*
X0032636Y0022806D01*
X0032764Y0022781D01*
X0032799Y0022781D01*
X0032799Y0022431D01*
X0032764Y0022431D01*
X0032636Y0022406D01*
X0032528Y0022334D01*
X0032456Y0022226D01*
X0032431Y0022098D01*
X0032431Y0020574D01*
X0032456Y0020446D01*
X0032528Y0020338D01*
X0032636Y0020266D01*
X0032764Y0020241D01*
X0034288Y0020241D01*
X0034416Y0020266D01*
X0034524Y0020338D01*
X0034596Y0020446D01*
X0034621Y0020574D01*
X0034621Y0022098D01*
X0034596Y0022226D01*
X0034524Y0022334D01*
X0034416Y0022406D01*
X0034288Y0022431D01*
X0034253Y0022431D01*
X0034253Y0022781D01*
X0034288Y0022781D01*
X0034416Y0022806D01*
X0034524Y0022878D01*
X0034596Y0022986D01*
X0034621Y0023114D01*
X0034621Y0024638D01*
X0034971Y0024638D01*
X0034971Y0023114D01*
X0034996Y0022986D01*
X0035068Y0022878D01*
X0035176Y0022806D01*
X0035304Y0022781D01*
X0036828Y0022781D01*
X0036956Y0022806D01*
X0037064Y0022878D01*
X0037136Y0022986D01*
X0037161Y0023114D01*
X0037161Y0024638D01*
X0037511Y0024638D01*
X0037511Y0023114D01*
X0037536Y0022986D01*
X0037608Y0022878D01*
X0037716Y0022806D01*
X0037844Y0022781D01*
X0039368Y0022781D01*
X0039496Y0022806D01*
X0039604Y0022878D01*
X0039676Y0022986D01*
X0039701Y0023114D01*
X0039701Y0024638D01*
X0040051Y0024638D01*
X0040051Y0023114D01*
X0040076Y0022986D01*
X0040148Y0022878D01*
X0040256Y0022806D01*
X0040384Y0022781D01*
X0041908Y0022781D01*
X0042036Y0022806D01*
X0042144Y0022878D01*
X0042216Y0022986D01*
X0042241Y0023114D01*
X0042241Y0024638D01*
X0042216Y0024766D01*
X0042144Y0024874D01*
X0042036Y0024946D01*
X0041908Y0024971D01*
X0040384Y0024971D01*
X0040256Y0024946D01*
X0040148Y0024874D01*
X0040076Y0024766D01*
X0040051Y0024638D01*
X0039701Y0024638D01*
X0039676Y0024766D01*
X0039604Y0024874D01*
X0039496Y0024946D01*
X0039368Y0024971D01*
X0037844Y0024971D01*
X0037716Y0024946D01*
X0037608Y0024874D01*
X0037536Y0024766D01*
X0037511Y0024638D01*
X0037161Y0024638D01*
X0037136Y0024766D01*
X0037064Y0024874D01*
X0036956Y0024946D01*
X0036828Y0024971D01*
X0035304Y0024971D01*
X0035176Y0024946D01*
X0035068Y0024874D01*
X0034996Y0024766D01*
X0034971Y0024638D01*
X0034621Y0024638D01*
X0034596Y0024766D01*
X0034524Y0024874D01*
X0034416Y0024946D01*
X0034288Y0024971D01*
X0034253Y0024971D01*
X0034253Y0025321D01*
X0034288Y0025321D01*
X0034416Y0025346D01*
X0034524Y0025418D01*
X0034596Y0025526D01*
X0034621Y0025654D01*
X0034621Y0027178D01*
X0034971Y0027178D01*
X0034971Y0025654D01*
X0034996Y0025526D01*
X0035068Y0025418D01*
X0035176Y0025346D01*
X0035304Y0025321D01*
X0036828Y0025321D01*
X0036956Y0025346D01*
X0037064Y0025418D01*
X0037136Y0025526D01*
X0037161Y0025654D01*
X0037161Y0027178D01*
X0037511Y0027178D01*
X0037511Y0025654D01*
X0037536Y0025526D01*
X0037608Y0025418D01*
X0037716Y0025346D01*
X0037844Y0025321D01*
X0039368Y0025321D01*
X0039496Y0025346D01*
X0039604Y0025418D01*
X0039676Y0025526D01*
X0039701Y0025654D01*
X0039701Y0027178D01*
X0040051Y0027178D01*
X0040051Y0025654D01*
X0040076Y0025526D01*
X0040148Y0025418D01*
X0040256Y0025346D01*
X0040384Y0025321D01*
X0041908Y0025321D01*
X0042036Y0025346D01*
X0042144Y0025418D01*
X0042216Y0025526D01*
X0042241Y0025654D01*
X0042241Y0027178D01*
X0042216Y0027306D01*
X0042144Y0027414D01*
X0042036Y0027486D01*
X0041908Y0027511D01*
X0040384Y0027511D01*
X0040256Y0027486D01*
X0040148Y0027414D01*
X0040076Y0027306D01*
X0040051Y0027178D01*
X0039701Y0027178D01*
X0039676Y0027306D01*
X0039604Y0027414D01*
X0039496Y0027486D01*
X0039368Y0027511D01*
X0037844Y0027511D01*
X0037716Y0027486D01*
X0037608Y0027414D01*
X0037536Y0027306D01*
X0037511Y0027178D01*
X0037161Y0027178D01*
X0037136Y0027306D01*
X0037064Y0027414D01*
X0036956Y0027486D01*
X0036828Y0027511D01*
X0035304Y0027511D01*
X0035176Y0027486D01*
X0035068Y0027414D01*
X0034996Y0027306D01*
X0034971Y0027178D01*
X0034621Y0027178D01*
X0034596Y0027306D01*
X0034524Y0027414D01*
X0034416Y0027486D01*
X0034407Y0027488D01*
X0034589Y0027670D01*
X0042724Y0027670D01*
X0042890Y0027505D01*
X0042796Y0027486D01*
X0042688Y0027414D01*
X0042616Y0027306D01*
X0042591Y0027178D01*
X0042591Y0025654D01*
X0042616Y0025526D01*
X0042688Y0025418D01*
X0042796Y0025346D01*
X0042924Y0025321D01*
X0042959Y0025321D01*
X0042959Y0024971D01*
X0042924Y0024971D01*
X0042796Y0024946D01*
X0042688Y0024874D01*
X0042616Y0024766D01*
X0042591Y0024638D01*
X0042591Y0023114D01*
X0042616Y0022986D01*
X0042688Y0022878D01*
X0042796Y0022806D01*
X0042924Y0022781D01*
X0042959Y0022781D01*
X0042959Y0018020D01*
X0042959Y0017875D01*
X0042959Y0017875D01*
X0042959Y0015795D01*
X0042823Y0015660D01*
X0042553Y0015660D01*
X0042635Y0015857D01*
X0042635Y0016146D01*
X0042525Y0016413D01*
X0042320Y0016618D01*
X0042078Y0016719D01*
X0041589Y0017207D01*
X0041493Y0017272D01*
X0041386Y0017343D01*
X0041146Y0017391D01*
X0035964Y0017391D01*
X0035724Y0017343D01*
X0035618Y0017272D01*
X0035521Y0017207D01*
X0034514Y0016200D01*
X0034370Y0016259D01*
X0033842Y0016260D01*
X0033354Y0016058D01*
X0032981Y0015685D01*
X0032778Y0015198D01*
X0032778Y0014670D01*
X0032980Y0014182D01*
X0033353Y0013808D01*
X0033840Y0013606D01*
X0034368Y0013605D01*
X0034856Y0013807D01*
X0035230Y0014180D01*
X0035375Y0014531D01*
X0035520Y0014182D01*
X0035893Y0013808D01*
X0036380Y0013606D01*
X0036908Y0013605D01*
X0037396Y0013807D01*
X0037770Y0014180D01*
X0037915Y0014531D01*
X0038060Y0014182D01*
X0038433Y0013808D01*
X0038920Y0013606D01*
X0039448Y0013605D01*
X0039936Y0013807D01*
X0040310Y0014180D01*
X0040320Y0014206D01*
X0043124Y0014206D01*
X0043125Y0014205D01*
X0043357Y0014252D01*
X0043403Y0014261D01*
X0043639Y0014418D01*
X0044200Y0014980D01*
X0044228Y0015021D01*
X0044358Y0015216D01*
X0044369Y0015275D01*
X0044413Y0015494D01*
X0044413Y0015494D01*
X0044413Y0018018D01*
X0044413Y0018163D01*
X0044413Y0018163D01*
X0044413Y0022781D01*
X0044448Y0022781D01*
X0044576Y0022806D01*
X0044684Y0022878D01*
X0044756Y0022986D01*
X0044781Y0023114D01*
X0044781Y0024638D01*
X0044756Y0024766D01*
X0044684Y0024874D01*
X0044576Y0024946D01*
X0044448Y0024971D01*
X0044413Y0024971D01*
X0044413Y0025321D01*
X0044448Y0025321D01*
X0044576Y0025346D01*
X0044684Y0025418D01*
X0044756Y0025526D01*
X0044781Y0025654D01*
X0044781Y0027178D01*
X0044756Y0027306D01*
X0044684Y0027414D01*
X0044576Y0027486D01*
X0044448Y0027511D01*
X0044413Y0027511D01*
X0044413Y0027737D01*
X0044413Y0027737D01*
X0044358Y0028015D01*
X0044358Y0028015D01*
X0044200Y0028251D01*
X0044200Y0028251D01*
X0043540Y0028911D01*
X0043304Y0029069D01*
X0043258Y0029078D01*
X0043026Y0029124D01*
X0043026Y0029124D01*
X0034288Y0029124D01*
X0034288Y0029124D01*
X0034056Y0029078D01*
X0034010Y0029069D01*
X0033774Y0028911D01*
X0033774Y0028911D01*
X0033012Y0028149D01*
X0032854Y0027913D01*
X0032848Y0027883D01*
X0032799Y0027635D01*
X0032799Y0027635D01*
X0032799Y0027511D01*
X0032764Y0027511D01*
X0032636Y0027486D01*
X0032528Y0027414D01*
X0032456Y0027306D01*
X0032431Y0027178D01*
X0020212Y0027178D01*
X0020212Y0029570D01*
X0069700Y0029570D01*
X0069700Y0000402D01*
X0069700Y0000402D01*
G37*
X0069700Y0000402D02*
X0020212Y0000402D01*
X0020212Y0005572D01*
X0029878Y0005572D01*
X0030231Y0004716D01*
X0030885Y0004061D01*
X0031740Y0003706D01*
X0032666Y0003705D01*
X0033522Y0004059D01*
X0034177Y0004713D01*
X0034532Y0005568D01*
X0034533Y0006493D01*
X0034179Y0007349D01*
X0033525Y0008004D01*
X0032670Y0008359D01*
X0031744Y0008360D01*
X0030889Y0008006D01*
X0030234Y0007352D01*
X0029879Y0006497D01*
X0029878Y0005572D01*
X0020212Y0005572D01*
X0020212Y0015748D01*
X0031021Y0015748D01*
X0031021Y0015748D01*
X0031021Y0010922D01*
X0031021Y0010922D01*
X0031034Y0010859D01*
X0031076Y0010644D01*
X0031212Y0010441D01*
X0031234Y0010408D01*
X0033523Y0008118D01*
X0033523Y0008118D01*
X0033621Y0008053D01*
X0033759Y0007961D01*
X0034037Y0007906D01*
X0034038Y0007906D01*
X0037844Y0007906D01*
X0037844Y0007906D01*
X0037844Y0007906D01*
X0040948Y0007906D01*
X0040394Y0007352D01*
X0040039Y0006497D01*
X0040038Y0005572D01*
X0040391Y0004716D01*
X0041045Y0004061D01*
X0041900Y0003706D01*
X0042826Y0003705D01*
X0043682Y0004059D01*
X0044337Y0004713D01*
X0044692Y0005568D01*
X0044693Y0006493D01*
X0044339Y0007349D01*
X0043783Y0007906D01*
X0046028Y0007906D01*
X0045474Y0007352D01*
X0045119Y0006497D01*
X0045118Y0005572D01*
X0045471Y0004716D01*
X0046125Y0004061D01*
X0046980Y0003706D01*
X0047906Y0003705D01*
X0048762Y0004059D01*
X0049417Y0004713D01*
X0049772Y0005568D01*
X0049773Y0006493D01*
X0049419Y0007349D01*
X0048863Y0007906D01*
X0049020Y0007906D01*
X0049020Y0007906D01*
X0049020Y0007906D01*
X0049277Y0007906D01*
X0049295Y0007909D01*
X0053066Y0007909D01*
X0053084Y0007906D01*
X0053084Y0007906D01*
X0056188Y0007906D01*
X0055634Y0007352D01*
X0055279Y0006497D01*
X0055278Y0005572D01*
X0055631Y0004716D01*
X0056285Y0004061D01*
X0057140Y0003706D01*
X0058066Y0003705D01*
X0058922Y0004059D01*
X0059577Y0004713D01*
X0059932Y0005568D01*
X0059933Y0006493D01*
X0059579Y0007349D01*
X0059023Y0007906D01*
X0061462Y0007906D01*
X0061463Y0007906D01*
X0061695Y0007952D01*
X0061741Y0007961D01*
X0061977Y0008118D01*
X0061977Y0008118D01*
X0063939Y0010081D01*
X0064768Y0010081D01*
X0064896Y0010106D01*
X0065004Y0010178D01*
X0065076Y0010286D01*
X0065101Y0010414D01*
X0065101Y0011938D01*
X0065451Y0011938D01*
X0065451Y0010414D01*
X0065476Y0010286D01*
X0065548Y0010178D01*
X0065656Y0010106D01*
X0065784Y0010081D01*
X0067308Y0010081D01*
X0067436Y0010106D01*
X0067544Y0010178D01*
X0067616Y0010286D01*
X0067641Y0010414D01*
X0067641Y0011938D01*
X0067616Y0012066D01*
X0067544Y0012174D01*
X0067436Y0012246D01*
X0067308Y0012271D01*
X0065784Y0012271D01*
X0065656Y0012246D01*
X0065548Y0012174D01*
X0065476Y0012066D01*
X0065451Y0011938D01*
X0065101Y0011938D01*
X0065076Y0012066D01*
X0065004Y0012174D01*
X0064896Y0012246D01*
X0064768Y0012271D01*
X0063244Y0012271D01*
X0063116Y0012246D01*
X0063008Y0012174D01*
X0062936Y0012066D01*
X0062911Y0011938D01*
X0062911Y0011109D01*
X0061161Y0009360D01*
X0053882Y0009360D01*
X0053882Y0011257D01*
X0053906Y0011267D01*
X0054280Y0011640D01*
X0054425Y0011991D01*
X0054570Y0011642D01*
X0054943Y0011268D01*
X0055430Y0011066D01*
X0055958Y0011065D01*
X0056446Y0011267D01*
X0056820Y0011640D01*
X0057022Y0012127D01*
X0057022Y0012655D01*
X0056953Y0012824D01*
X0056965Y0012843D01*
X0057013Y0013083D01*
X0057013Y0015616D01*
X0057073Y0015760D01*
X0059561Y0013273D01*
X0059764Y0013137D01*
X0060004Y0013089D01*
X0062911Y0013089D01*
X0062911Y0012954D01*
X0062936Y0012826D01*
X0063008Y0012718D01*
X0063116Y0012646D01*
X0063244Y0012621D01*
X0064768Y0012621D01*
X0064896Y0012646D01*
X0065004Y0012718D01*
X0065076Y0012826D01*
X0065101Y0012954D01*
X0065101Y0014478D01*
X0065451Y0014478D01*
X0065451Y0012954D01*
X0065476Y0012826D01*
X0065548Y0012718D01*
X0065656Y0012646D01*
X0065784Y0012621D01*
X0067308Y0012621D01*
X0067436Y0012646D01*
X0067544Y0012718D01*
X0067616Y0012826D01*
X0067641Y0012954D01*
X0067641Y0014478D01*
X0067616Y0014606D01*
X0067544Y0014714D01*
X0067436Y0014786D01*
X0067308Y0014811D01*
X0065784Y0014811D01*
X0065656Y0014786D01*
X0065548Y0014714D01*
X0065476Y0014606D01*
X0065451Y0014478D01*
X0065101Y0014478D01*
X0065076Y0014606D01*
X0065004Y0014714D01*
X0064896Y0014786D01*
X0064768Y0014811D01*
X0063244Y0014811D01*
X0063116Y0014786D01*
X0063008Y0014714D01*
X0062936Y0014606D01*
X0062911Y0014478D01*
X0062911Y0014343D01*
X0060264Y0014343D01*
X0056891Y0017715D01*
X0056688Y0017851D01*
X0056448Y0017899D01*
X0052322Y0017899D01*
X0052082Y0017851D01*
X0051879Y0017715D01*
X0051442Y0017279D01*
X0051306Y0017075D01*
X0051258Y0016835D01*
X0051258Y0016109D01*
X0051134Y0016058D01*
X0050761Y0015685D01*
X0050615Y0015334D01*
X0050471Y0015683D01*
X0050098Y0016057D01*
X0049972Y0016109D01*
X0049972Y0017083D01*
X0051058Y0018169D01*
X0062911Y0018169D01*
X0062911Y0018145D01*
X0062525Y0018145D01*
X0062285Y0018097D01*
X0062081Y0017961D01*
X0061041Y0016921D01*
X0060801Y0016822D01*
X0060596Y0016618D01*
X0060485Y0016350D01*
X0060485Y0016061D01*
X0060595Y0015794D01*
X0060800Y0015589D01*
X0061067Y0015478D01*
X0061356Y0015478D01*
X0061623Y0015589D01*
X0061828Y0015793D01*
X0061929Y0016035D01*
X0062785Y0016891D01*
X0062911Y0016891D01*
X0062911Y0015494D01*
X0062936Y0015366D01*
X0063008Y0015258D01*
X0063116Y0015186D01*
X0063244Y0015161D01*
X0064768Y0015161D01*
X0064896Y0015186D01*
X0065004Y0015258D01*
X0065076Y0015366D01*
X0065101Y0015494D01*
X0065101Y0016814D01*
X0065451Y0016465D01*
X0065451Y0015494D01*
X0065476Y0015366D01*
X0065548Y0015258D01*
X0065656Y0015186D01*
X0065784Y0015161D01*
X0067308Y0015161D01*
X0067436Y0015186D01*
X0067544Y0015258D01*
X0067616Y0015366D01*
X0067641Y0015494D01*
X0067641Y0017018D01*
X0067616Y0017146D01*
X0067544Y0017254D01*
X0067436Y0017326D01*
X0067308Y0017351D01*
X0066337Y0017351D01*
X0065988Y0017701D01*
X0067308Y0017701D01*
X0067436Y0017726D01*
X0067544Y0017798D01*
X0067616Y0017906D01*
X0067641Y0018034D01*
X0067641Y0019558D01*
X0067616Y0019686D01*
X0067544Y0019794D01*
X0067436Y0019866D01*
X0067308Y0019891D01*
X0065784Y0019891D01*
X0065656Y0019866D01*
X0065548Y0019794D01*
X0065476Y0019686D01*
X0065451Y0019558D01*
X0065451Y0018112D01*
X0065284Y0018145D01*
X0065101Y0018145D01*
X0065101Y0019558D01*
X0065076Y0019686D01*
X0065004Y0019794D01*
X0064896Y0019866D01*
X0064768Y0019891D01*
X0063244Y0019891D01*
X0063116Y0019866D01*
X0063008Y0019794D01*
X0062936Y0019686D01*
X0062911Y0019558D01*
X0062911Y0019423D01*
X0054473Y0019423D01*
X0054473Y0022781D01*
X0054608Y0022781D01*
X0054736Y0022806D01*
X0054844Y0022878D01*
X0054916Y0022986D01*
X0054941Y0023114D01*
X0054941Y0024638D01*
X0055291Y0024638D01*
X0055291Y0023114D01*
X0055316Y0022986D01*
X0055388Y0022878D01*
X0055496Y0022806D01*
X0055624Y0022781D01*
X0057148Y0022781D01*
X0057276Y0022806D01*
X0057384Y0022878D01*
X0057456Y0022986D01*
X0057481Y0023114D01*
X0057481Y0024638D01*
X0057456Y0024766D01*
X0057384Y0024874D01*
X0057276Y0024946D01*
X0057148Y0024971D01*
X0055624Y0024971D01*
X0055496Y0024946D01*
X0055388Y0024874D01*
X0055316Y0024766D01*
X0055291Y0024638D01*
X0054941Y0024638D01*
X0054916Y0024766D01*
X0054844Y0024874D01*
X0054736Y0024946D01*
X0054608Y0024971D01*
X0054473Y0024971D01*
X0054473Y0025321D01*
X0054608Y0025321D01*
X0054736Y0025346D01*
X0054844Y0025418D01*
X0054916Y0025526D01*
X0054941Y0025654D01*
X0054941Y0027178D01*
X0055291Y0027178D01*
X0055291Y0025654D01*
X0055316Y0025526D01*
X0055388Y0025418D01*
X0055496Y0025346D01*
X0055624Y0025321D01*
X0057148Y0025321D01*
X0057276Y0025346D01*
X0057384Y0025418D01*
X0057456Y0025526D01*
X0057481Y0025654D01*
X0057481Y0027178D01*
X0057456Y0027306D01*
X0057384Y0027414D01*
X0057276Y0027486D01*
X0057148Y0027511D01*
X0055624Y0027511D01*
X0055496Y0027486D01*
X0055388Y0027414D01*
X0055316Y0027306D01*
X0055291Y0027178D01*
X0054941Y0027178D01*
X0054916Y0027306D01*
X0054844Y0027414D01*
X0054736Y0027486D01*
X0054608Y0027511D01*
X0053084Y0027511D01*
X0052956Y0027486D01*
X0052848Y0027414D01*
X0052776Y0027306D01*
X0052751Y0027178D01*
X0052751Y0025654D01*
X0052776Y0025526D01*
X0052848Y0025418D01*
X0052956Y0025346D01*
X0053084Y0025321D01*
X0053219Y0025321D01*
X0053219Y0024971D01*
X0053084Y0024971D01*
X0052956Y0024946D01*
X0052848Y0024874D01*
X0052776Y0024766D01*
X0052751Y0024638D01*
X0052751Y0023114D01*
X0052776Y0022986D01*
X0052848Y0022878D01*
X0052956Y0022806D01*
X0053084Y0022781D01*
X0053219Y0022781D01*
X0053219Y0019423D01*
X0050798Y0019423D01*
X0050558Y0019375D01*
X0050355Y0019239D01*
X0048902Y0017787D01*
X0048766Y0017583D01*
X0048718Y0017343D01*
X0048718Y0016109D01*
X0048594Y0016058D01*
X0048221Y0015685D01*
X0048169Y0015560D01*
X0046895Y0015560D01*
X0046333Y0016122D01*
X0046233Y0016362D01*
X0046029Y0016567D01*
X0045762Y0016678D01*
X0045472Y0016678D01*
X0045205Y0016568D01*
X0045000Y0016364D01*
X0044890Y0016096D01*
X0044889Y0015807D01*
X0045000Y0015540D01*
X0045204Y0015335D01*
X0045446Y0015235D01*
X0046192Y0014489D01*
X0046395Y0014353D01*
X0046635Y0014306D01*
X0048168Y0014306D01*
X0048220Y0014182D01*
X0048593Y0013808D01*
X0049080Y0013606D01*
X0049608Y0013605D01*
X0050096Y0013807D01*
X0050470Y0014180D01*
X0050615Y0014531D01*
X0050760Y0014182D01*
X0051133Y0013808D01*
X0051620Y0013606D01*
X0052148Y0013605D01*
X0052636Y0013807D01*
X0053010Y0014180D01*
X0053155Y0014531D01*
X0053300Y0014182D01*
X0053673Y0013808D01*
X0054160Y0013606D01*
X0054688Y0013605D01*
X0055176Y0013807D01*
X0055550Y0014180D01*
X0055752Y0014667D01*
X0055752Y0015195D01*
X0055551Y0015683D01*
X0055178Y0016057D01*
X0054690Y0016259D01*
X0054162Y0016260D01*
X0053674Y0016058D01*
X0053301Y0015685D01*
X0053155Y0015334D01*
X0053011Y0015683D01*
X0052638Y0016057D01*
X0052512Y0016109D01*
X0052512Y0016575D01*
X0052582Y0016645D01*
X0056038Y0016645D01*
X0055975Y0016619D01*
X0055770Y0016414D01*
X0055659Y0016147D01*
X0055659Y0015858D01*
X0055759Y0015616D01*
X0055759Y0013719D01*
X0055432Y0013720D01*
X0054944Y0013518D01*
X0054571Y0013145D01*
X0054425Y0012794D01*
X0054281Y0013143D01*
X0053908Y0013517D01*
X0053420Y0013719D01*
X0052892Y0013720D01*
X0052404Y0013518D01*
X0052031Y0013145D01*
X0051885Y0012794D01*
X0051741Y0013143D01*
X0051368Y0013517D01*
X0050880Y0013719D01*
X0050352Y0013720D01*
X0049864Y0013518D01*
X0049491Y0013145D01*
X0049288Y0012658D01*
X0049288Y0012130D01*
X0049490Y0011642D01*
X0049863Y0011268D01*
X0049988Y0011216D01*
X0049988Y0010168D01*
X0049919Y0010000D01*
X0049918Y0009711D01*
X0050029Y0009444D01*
X0050110Y0009363D01*
X0049023Y0009363D01*
X0049006Y0009360D01*
X0046091Y0009360D01*
X0046091Y0011200D01*
X0046191Y0011440D01*
X0046191Y0011730D01*
X0046081Y0011997D01*
X0045876Y0012202D01*
X0045609Y0012313D01*
X0045320Y0012313D01*
X0045053Y0012202D01*
X0044848Y0011998D01*
X0044737Y0011731D01*
X0044737Y0011442D01*
X0044837Y0011199D01*
X0044837Y0009360D01*
X0038642Y0009360D01*
X0038642Y0011257D01*
X0038666Y0011267D01*
X0039040Y0011640D01*
X0039185Y0011991D01*
X0039330Y0011642D01*
X0039703Y0011268D01*
X0040190Y0011066D01*
X0040718Y0011065D01*
X0041206Y0011267D01*
X0041580Y0011640D01*
X0041782Y0012127D01*
X0041782Y0012655D01*
X0041581Y0013143D01*
X0041208Y0013517D01*
X0040720Y0013719D01*
X0040192Y0013720D01*
X0039704Y0013518D01*
X0039331Y0013145D01*
X0039185Y0012794D01*
X0039041Y0013143D01*
X0038668Y0013517D01*
X0038180Y0013719D01*
X0037652Y0013720D01*
X0037164Y0013518D01*
X0036791Y0013145D01*
X0036645Y0012794D01*
X0036501Y0013143D01*
X0036128Y0013517D01*
X0035640Y0013719D01*
X0035112Y0013720D01*
X0034624Y0013518D01*
X0034251Y0013145D01*
X0034048Y0012658D01*
X0034048Y0012130D01*
X0034250Y0011642D01*
X0034623Y0011268D01*
X0035110Y0011066D01*
X0035638Y0011065D01*
X0036126Y0011267D01*
X0036500Y0011640D01*
X0036645Y0011991D01*
X0036790Y0011642D01*
X0037163Y0011268D01*
X0037188Y0011258D01*
X0037188Y0009360D01*
X0034339Y0009360D01*
X0032475Y0011223D01*
X0032475Y0015447D01*
X0033532Y0016504D01*
X0033532Y0016504D01*
X0033634Y0016606D01*
X0033745Y0016873D01*
X0033745Y0017162D01*
X0033635Y0017429D01*
X0033430Y0017634D01*
X0033163Y0017745D01*
X0032874Y0017745D01*
X0032607Y0017635D01*
X0032402Y0017430D01*
X0032402Y0017430D01*
X0031234Y0016262D01*
X0031076Y0016026D01*
X0031073Y0016008D01*
X0031021Y0015748D01*
X0020212Y0015748D01*
X0020212Y0027178D01*
X0032431Y0027178D01*
X0032431Y0025654D01*
X0032456Y0025526D01*
X0032528Y0025418D01*
X0032636Y0025346D01*
X0032764Y0025321D01*
X0032799Y0025321D01*
X0032799Y0024971D01*
X0032764Y0024971D01*
X0032636Y0024946D01*
X0032528Y0024874D01*
X0032456Y0024766D01*
X0032431Y0024638D01*
X0032431Y0023114D01*
X0032456Y0022986D01*
X0032528Y0022878D01*
X0032636Y0022806D01*
X0032764Y0022781D01*
X0032799Y0022781D01*
X0032799Y0022431D01*
X0032764Y0022431D01*
X0032636Y0022406D01*
X0032528Y0022334D01*
X0032456Y0022226D01*
X0032431Y0022098D01*
X0032431Y0020574D01*
X0032456Y0020446D01*
X0032528Y0020338D01*
X0032636Y0020266D01*
X0032764Y0020241D01*
X0034288Y0020241D01*
X0034416Y0020266D01*
X0034524Y0020338D01*
X0034596Y0020446D01*
X0034621Y0020574D01*
X0034621Y0022098D01*
X0034596Y0022226D01*
X0034524Y0022334D01*
X0034416Y0022406D01*
X0034288Y0022431D01*
X0034253Y0022431D01*
X0034253Y0022781D01*
X0034288Y0022781D01*
X0034416Y0022806D01*
X0034524Y0022878D01*
X0034596Y0022986D01*
X0034621Y0023114D01*
X0034621Y0024638D01*
X0034971Y0024638D01*
X0034971Y0023114D01*
X0034996Y0022986D01*
X0035068Y0022878D01*
X0035176Y0022806D01*
X0035304Y0022781D01*
X0036828Y0022781D01*
X0036956Y0022806D01*
X0037064Y0022878D01*
X0037136Y0022986D01*
X0037161Y0023114D01*
X0037161Y0024638D01*
X0037511Y0024638D01*
X0037511Y0023114D01*
X0037536Y0022986D01*
X0037608Y0022878D01*
X0037716Y0022806D01*
X0037844Y0022781D01*
X0039368Y0022781D01*
X0039496Y0022806D01*
X0039604Y0022878D01*
X0039676Y0022986D01*
X0039701Y0023114D01*
X0039701Y0024638D01*
X0040051Y0024638D01*
X0040051Y0023114D01*
X0040076Y0022986D01*
X0040148Y0022878D01*
X0040256Y0022806D01*
X0040384Y0022781D01*
X0041908Y0022781D01*
X0042036Y0022806D01*
X0042144Y0022878D01*
X0042216Y0022986D01*
X0042241Y0023114D01*
X0042241Y0024638D01*
X0042216Y0024766D01*
X0042144Y0024874D01*
X0042036Y0024946D01*
X0041908Y0024971D01*
X0040384Y0024971D01*
X0040256Y0024946D01*
X0040148Y0024874D01*
X0040076Y0024766D01*
X0040051Y0024638D01*
X0039701Y0024638D01*
X0039676Y0024766D01*
X0039604Y0024874D01*
X0039496Y0024946D01*
X0039368Y0024971D01*
X0037844Y0024971D01*
X0037716Y0024946D01*
X0037608Y0024874D01*
X0037536Y0024766D01*
X0037511Y0024638D01*
X0037161Y0024638D01*
X0037136Y0024766D01*
X0037064Y0024874D01*
X0036956Y0024946D01*
X0036828Y0024971D01*
X0035304Y0024971D01*
X0035176Y0024946D01*
X0035068Y0024874D01*
X0034996Y0024766D01*
X0034971Y0024638D01*
X0034621Y0024638D01*
X0034596Y0024766D01*
X0034524Y0024874D01*
X0034416Y0024946D01*
X0034288Y0024971D01*
X0034253Y0024971D01*
X0034253Y0025321D01*
X0034288Y0025321D01*
X0034416Y0025346D01*
X0034524Y0025418D01*
X0034596Y0025526D01*
X0034621Y0025654D01*
X0034621Y0027178D01*
X0034971Y0027178D01*
X0034971Y0025654D01*
X0034996Y0025526D01*
X0035068Y0025418D01*
X0035176Y0025346D01*
X0035304Y0025321D01*
X0036828Y0025321D01*
X0036956Y0025346D01*
X0037064Y0025418D01*
X0037136Y0025526D01*
X0037161Y0025654D01*
X0037161Y0027178D01*
X0037511Y0027178D01*
X0037511Y0025654D01*
X0037536Y0025526D01*
X0037608Y0025418D01*
X0037716Y0025346D01*
X0037844Y0025321D01*
X0039368Y0025321D01*
X0039496Y0025346D01*
X0039604Y0025418D01*
X0039676Y0025526D01*
X0039701Y0025654D01*
X0039701Y0027178D01*
X0040051Y0027178D01*
X0040051Y0025654D01*
X0040076Y0025526D01*
X0040148Y0025418D01*
X0040256Y0025346D01*
X0040384Y0025321D01*
X0041908Y0025321D01*
X0042036Y0025346D01*
X0042144Y0025418D01*
X0042216Y0025526D01*
X0042241Y0025654D01*
X0042241Y0027178D01*
X0042216Y0027306D01*
X0042144Y0027414D01*
X0042036Y0027486D01*
X0041908Y0027511D01*
X0040384Y0027511D01*
X0040256Y0027486D01*
X0040148Y0027414D01*
X0040076Y0027306D01*
X0040051Y0027178D01*
X0039701Y0027178D01*
X0039676Y0027306D01*
X0039604Y0027414D01*
X0039496Y0027486D01*
X0039368Y0027511D01*
X0037844Y0027511D01*
X0037716Y0027486D01*
X0037608Y0027414D01*
X0037536Y0027306D01*
X0037511Y0027178D01*
X0037161Y0027178D01*
X0037136Y0027306D01*
X0037064Y0027414D01*
X0036956Y0027486D01*
X0036828Y0027511D01*
X0035304Y0027511D01*
X0035176Y0027486D01*
X0035068Y0027414D01*
X0034996Y0027306D01*
X0034971Y0027178D01*
X0034621Y0027178D01*
X0034596Y0027306D01*
X0034524Y0027414D01*
X0034416Y0027486D01*
X0034407Y0027488D01*
X0034589Y0027670D01*
X0042724Y0027670D01*
X0042890Y0027505D01*
X0042796Y0027486D01*
X0042688Y0027414D01*
X0042616Y0027306D01*
X0042591Y0027178D01*
X0042591Y0025654D01*
X0042616Y0025526D01*
X0042688Y0025418D01*
X0042796Y0025346D01*
X0042924Y0025321D01*
X0042959Y0025321D01*
X0042959Y0024971D01*
X0042924Y0024971D01*
X0042796Y0024946D01*
X0042688Y0024874D01*
X0042616Y0024766D01*
X0042591Y0024638D01*
X0042591Y0023114D01*
X0042616Y0022986D01*
X0042688Y0022878D01*
X0042796Y0022806D01*
X0042924Y0022781D01*
X0042959Y0022781D01*
X0042959Y0018020D01*
X0042959Y0017875D01*
X0042959Y0017875D01*
X0042959Y0015795D01*
X0042823Y0015660D01*
X0042553Y0015660D01*
X0042635Y0015857D01*
X0042635Y0016146D01*
X0042525Y0016413D01*
X0042320Y0016618D01*
X0042078Y0016719D01*
X0041589Y0017207D01*
X0041493Y0017272D01*
X0041386Y0017343D01*
X0041146Y0017391D01*
X0035964Y0017391D01*
X0035724Y0017343D01*
X0035618Y0017272D01*
X0035521Y0017207D01*
X0034514Y0016200D01*
X0034370Y0016259D01*
X0033842Y0016260D01*
X0033354Y0016058D01*
X0032981Y0015685D01*
X0032778Y0015198D01*
X0032778Y0014670D01*
X0032980Y0014182D01*
X0033353Y0013808D01*
X0033840Y0013606D01*
X0034368Y0013605D01*
X0034856Y0013807D01*
X0035230Y0014180D01*
X0035375Y0014531D01*
X0035520Y0014182D01*
X0035893Y0013808D01*
X0036380Y0013606D01*
X0036908Y0013605D01*
X0037396Y0013807D01*
X0037770Y0014180D01*
X0037915Y0014531D01*
X0038060Y0014182D01*
X0038433Y0013808D01*
X0038920Y0013606D01*
X0039448Y0013605D01*
X0039936Y0013807D01*
X0040310Y0014180D01*
X0040320Y0014206D01*
X0043124Y0014206D01*
X0043125Y0014205D01*
X0043357Y0014252D01*
X0043403Y0014261D01*
X0043639Y0014418D01*
X0044200Y0014980D01*
X0044228Y0015021D01*
X0044358Y0015216D01*
X0044369Y0015275D01*
X0044413Y0015494D01*
X0044413Y0015494D01*
X0044413Y0018018D01*
X0044413Y0018163D01*
X0044413Y0018163D01*
X0044413Y0022781D01*
X0044448Y0022781D01*
X0044576Y0022806D01*
X0044684Y0022878D01*
X0044756Y0022986D01*
X0044781Y0023114D01*
X0044781Y0024638D01*
X0044756Y0024766D01*
X0044684Y0024874D01*
X0044576Y0024946D01*
X0044448Y0024971D01*
X0044413Y0024971D01*
X0044413Y0025321D01*
X0044448Y0025321D01*
X0044576Y0025346D01*
X0044684Y0025418D01*
X0044756Y0025526D01*
X0044781Y0025654D01*
X0044781Y0027178D01*
X0044756Y0027306D01*
X0044684Y0027414D01*
X0044576Y0027486D01*
X0044448Y0027511D01*
X0044413Y0027511D01*
X0044413Y0027737D01*
X0044413Y0027737D01*
X0044358Y0028015D01*
X0044358Y0028015D01*
X0044200Y0028251D01*
X0044200Y0028251D01*
X0043540Y0028911D01*
X0043304Y0029069D01*
X0043258Y0029078D01*
X0043026Y0029124D01*
X0043026Y0029124D01*
X0034288Y0029124D01*
X0034288Y0029124D01*
X0034056Y0029078D01*
X0034010Y0029069D01*
X0033774Y0028911D01*
X0033774Y0028911D01*
X0033012Y0028149D01*
X0032854Y0027913D01*
X0032848Y0027883D01*
X0032799Y0027635D01*
X0032799Y0027635D01*
X0032799Y0027511D01*
X0032764Y0027511D01*
X0032636Y0027486D01*
X0032528Y0027414D01*
X0032456Y0027306D01*
X0032431Y0027178D01*
X0020212Y0027178D01*
X0020212Y0029570D01*
X0069700Y0029570D01*
X0069700Y0000402D01*
X0000000Y0040130D02*
%LPD*%
G01*
D23*
D26*
X0045466Y0065276D03*
X0004826Y0065276D03*
X0004826Y0044956D03*
X0045466Y0044956D03*
D24*
X0013716Y0066546D03*
X0013716Y0064006D03*
X0016256Y0066546D03*
X0016256Y0064006D03*
X0018796Y0064006D03*
X0018796Y0066546D03*
X0021336Y0066546D03*
X0021336Y0064006D03*
X0023876Y0064006D03*
X0023876Y0066546D03*
X0036576Y0066546D03*
X0036576Y0064006D03*
X0034036Y0066546D03*
X0034036Y0064006D03*
X0013716Y0061466D03*
X0011176Y0061466D03*
X0046736Y0058926D03*
X0044196Y0058926D03*
X0046736Y0056386D03*
X0044196Y0056386D03*
D19*
X0034615Y0055063D03*
X0032075Y0055063D03*
X0029535Y0055063D03*
X0030805Y0052523D03*
X0035885Y0052523D03*
X0033345Y0052523D03*
D21*
X0037795Y0046163D03*
X0027635Y0046163D03*
X0012395Y0046163D03*
X0022555Y0046163D03*
D19*
X0018105Y0052523D03*
X0020645Y0052523D03*
X0015565Y0052523D03*
X0014295Y0055063D03*
X0016835Y0055063D03*
X0019375Y0055063D03*
D24*
X0044196Y0053846D03*
X0046736Y0053846D03*
X0046736Y0051306D03*
X0044196Y0051306D03*
X0006096Y0051306D03*
X0003556Y0051306D03*
X0006096Y0053846D03*
X0003556Y0053846D03*
X0006096Y0056386D03*
X0003556Y0056386D03*
X0006096Y0058926D03*
X0003556Y0058926D03*
D17*
X0028956Y0051814D03*
X0027940Y0051814D03*
X0026924Y0051814D03*
X0023876Y0051814D03*
X0022860Y0051814D03*
X0016002Y0050798D03*
X0016510Y0050036D03*
X0015240Y0050036D03*
X0014732Y0051052D03*
X0013462Y0051052D03*
X0014224Y0050290D03*
X0011938Y0049274D03*
X0025654Y0051716D03*
X0013208Y0057148D03*
X0025806Y0056081D03*
X0022098Y0056132D03*
X0023876Y0058149D03*
X0041402Y0056335D03*
X0036576Y0056132D03*
X0030836Y0049985D03*
D28*
X0026924Y0051814D02*
X0027940Y0051814D01*
X0027940Y0051814D02*
X0027940Y0051814D01*
X0023876Y0051814D02*
X0023876Y0051814D01*
X0022860Y0051814D02*
X0023876Y0051814D01*
D10*
X0015856Y0050652D02*
X0016002Y0050798D01*
X0015132Y0050652D02*
X0015856Y0050652D01*
X0014732Y0051052D02*
X0015132Y0050652D01*
X0015240Y0050036D02*
X0016510Y0050036D01*
X0014224Y0050290D02*
X0013462Y0051052D01*
X0004826Y0044956D02*
X0009144Y0049274D01*
X0009144Y0049274D02*
X0011938Y0049274D01*
D17*
X0033274Y0048763D02*
X0033271Y0048766D01*
X0033271Y0048766D02*
X0029213Y0048766D01*
X0029213Y0048766D02*
X0029210Y0048763D01*
X0029210Y0048763D02*
X0029467Y0048763D01*
X0029210Y0048763D02*
X0025654Y0048763D01*
X0025654Y0048763D02*
X0018034Y0048763D01*
D10*
X0025654Y0051716D02*
X0025654Y0051150D01*
X0025654Y0051150D02*
X0025654Y0048763D01*
D17*
X0041653Y0048763D02*
X0033274Y0048763D01*
X0033274Y0048763D02*
X0033345Y0048834D01*
X0033345Y0048834D02*
X0033345Y0052523D01*
X0018034Y0048763D02*
X0014227Y0048763D01*
X0018034Y0048763D02*
X0018105Y0048834D01*
X0018105Y0048834D02*
X0018105Y0052523D01*
X0044196Y0051306D02*
X0041653Y0048763D01*
X0012695Y0056635D02*
X0013208Y0057148D01*
X0014227Y0048763D02*
X0011938Y0051052D01*
X0011938Y0051052D02*
X0011938Y0055878D01*
X0011938Y0055878D02*
X0012695Y0056635D01*
D10*
X0044196Y0053846D02*
X0040194Y0053846D01*
X0036638Y0057402D02*
X0032512Y0057402D01*
X0040194Y0053846D02*
X0036638Y0057402D01*
X0032512Y0057402D02*
X0032075Y0056965D01*
X0032075Y0056965D02*
X0032075Y0055063D01*
X0026206Y0055681D02*
X0025806Y0056081D01*
X0026825Y0055063D02*
X0026206Y0055681D01*
X0029535Y0055063D02*
X0026825Y0055063D01*
X0014295Y0055063D02*
X0014323Y0055063D01*
X0014323Y0055063D02*
X0016154Y0056894D01*
X0016154Y0056894D02*
X0021336Y0056894D01*
X0021336Y0056894D02*
X0022098Y0056132D01*
X0044196Y0058926D02*
X0034036Y0058926D01*
X0034036Y0058926D02*
X0030988Y0058926D01*
X0034036Y0064006D02*
X0034036Y0058926D01*
X0034036Y0066546D02*
X0034036Y0064006D01*
X0029535Y0057473D02*
X0029535Y0055063D01*
X0030988Y0058926D02*
X0029535Y0057473D01*
D17*
X0013716Y0066546D02*
X0013716Y0067765D01*
X0013716Y0067765D02*
X0014478Y0068527D01*
X0014478Y0068527D02*
X0023216Y0068527D01*
X0023216Y0068527D02*
X0023876Y0067867D01*
X0023876Y0067867D02*
X0023876Y0066546D01*
X0023315Y0055063D02*
X0023876Y0055624D01*
X0023876Y0055624D02*
X0023876Y0058149D01*
X0019375Y0055063D02*
X0023315Y0055063D01*
X0013716Y0064006D02*
X0013716Y0066546D01*
X0013716Y0061466D02*
X0013716Y0064006D01*
X0023876Y0066546D02*
X0023876Y0064006D01*
X0023876Y0058149D02*
X0023876Y0062444D01*
X0023876Y0062444D02*
X0023876Y0064006D01*
D10*
X0041802Y0056735D02*
X0041402Y0056335D01*
X0045474Y0057648D02*
X0042715Y0057648D01*
X0046736Y0056386D02*
X0045474Y0057648D01*
X0042715Y0057648D02*
X0041802Y0056735D01*
X0036576Y0056132D02*
X0036576Y0053213D01*
X0036576Y0053213D02*
X0035885Y0052523D01*
X0030805Y0052523D02*
X0030805Y0050016D01*
X0030805Y0050016D02*
X0030836Y0049985D01*
D12*
G36*
X0049890Y0040532D02*
X0000402Y0040532D01*
X0000402Y0045702D01*
X0010068Y0045702D01*
X0010421Y0044846D01*
X0011075Y0044191D01*
X0011930Y0043836D01*
X0012856Y0043835D01*
X0013712Y0044189D01*
X0014367Y0044843D01*
X0014722Y0045698D01*
X0014723Y0046623D01*
X0014369Y0047479D01*
X0013715Y0048134D01*
X0012860Y0048489D01*
X0011934Y0048490D01*
X0011079Y0048136D01*
X0010424Y0047482D01*
X0010069Y0046627D01*
X0010068Y0045702D01*
X0000402Y0045702D01*
X0000402Y0055878D01*
X0011211Y0055878D01*
X0011211Y0055878D01*
X0011211Y0051052D01*
X0011211Y0051052D01*
X0011224Y0050989D01*
X0011266Y0050774D01*
X0011402Y0050571D01*
X0011424Y0050538D01*
X0013713Y0048248D01*
X0013713Y0048248D01*
X0013811Y0048183D01*
X0013949Y0048091D01*
X0014227Y0048036D01*
X0014228Y0048036D01*
X0018034Y0048036D01*
X0018034Y0048036D01*
X0018034Y0048036D01*
X0021138Y0048036D01*
X0020584Y0047482D01*
X0020229Y0046627D01*
X0020228Y0045702D01*
X0020581Y0044846D01*
X0021235Y0044191D01*
X0022090Y0043836D01*
X0023016Y0043835D01*
X0023872Y0044189D01*
X0024527Y0044843D01*
X0024882Y0045698D01*
X0024883Y0046623D01*
X0024529Y0047479D01*
X0023973Y0048036D01*
X0026218Y0048036D01*
X0025664Y0047482D01*
X0025309Y0046627D01*
X0025308Y0045702D01*
X0025661Y0044846D01*
X0026315Y0044191D01*
X0027170Y0043836D01*
X0028096Y0043835D01*
X0028952Y0044189D01*
X0029607Y0044843D01*
X0029962Y0045698D01*
X0029963Y0046623D01*
X0029609Y0047479D01*
X0029053Y0048036D01*
X0029210Y0048036D01*
X0029210Y0048036D01*
X0029210Y0048036D01*
X0029467Y0048036D01*
X0029485Y0048039D01*
X0033256Y0048039D01*
X0033274Y0048036D01*
X0033274Y0048036D01*
X0036378Y0048036D01*
X0035824Y0047482D01*
X0035469Y0046627D01*
X0035468Y0045702D01*
X0035821Y0044846D01*
X0036475Y0044191D01*
X0037330Y0043836D01*
X0038256Y0043835D01*
X0039112Y0044189D01*
X0039767Y0044843D01*
X0040122Y0045698D01*
X0040123Y0046623D01*
X0039769Y0047479D01*
X0039213Y0048036D01*
X0041652Y0048036D01*
X0041653Y0048036D01*
X0041885Y0048082D01*
X0041931Y0048091D01*
X0042167Y0048248D01*
X0042167Y0048248D01*
X0044129Y0050211D01*
X0044958Y0050211D01*
X0045086Y0050236D01*
X0045194Y0050308D01*
X0045266Y0050416D01*
X0045291Y0050544D01*
X0045291Y0052068D01*
X0045641Y0052068D01*
X0045641Y0050544D01*
X0045666Y0050416D01*
X0045738Y0050308D01*
X0045846Y0050236D01*
X0045974Y0050211D01*
X0047498Y0050211D01*
X0047626Y0050236D01*
X0047734Y0050308D01*
X0047806Y0050416D01*
X0047831Y0050544D01*
X0047831Y0052068D01*
X0047806Y0052196D01*
X0047734Y0052304D01*
X0047626Y0052376D01*
X0047498Y0052401D01*
X0045974Y0052401D01*
X0045846Y0052376D01*
X0045738Y0052304D01*
X0045666Y0052196D01*
X0045641Y0052068D01*
X0045291Y0052068D01*
X0045266Y0052196D01*
X0045194Y0052304D01*
X0045086Y0052376D01*
X0044958Y0052401D01*
X0043434Y0052401D01*
X0043306Y0052376D01*
X0043198Y0052304D01*
X0043126Y0052196D01*
X0043101Y0052068D01*
X0043101Y0051239D01*
X0041351Y0049490D01*
X0034072Y0049490D01*
X0034072Y0051387D01*
X0034096Y0051397D01*
X0034470Y0051770D01*
X0034615Y0052121D01*
X0034760Y0051772D01*
X0035133Y0051398D01*
X0035620Y0051196D01*
X0036148Y0051195D01*
X0036636Y0051397D01*
X0037010Y0051770D01*
X0037212Y0052257D01*
X0037212Y0052785D01*
X0037143Y0052954D01*
X0037155Y0052973D01*
X0037203Y0053213D01*
X0037203Y0055746D01*
X0037263Y0055890D01*
X0039751Y0053403D01*
X0039954Y0053267D01*
X0040194Y0053219D01*
X0043101Y0053219D01*
X0043101Y0053084D01*
X0043126Y0052956D01*
X0043198Y0052848D01*
X0043306Y0052776D01*
X0043434Y0052751D01*
X0044958Y0052751D01*
X0045086Y0052776D01*
X0045194Y0052848D01*
X0045266Y0052956D01*
X0045291Y0053084D01*
X0045291Y0054608D01*
X0045641Y0054608D01*
X0045641Y0053084D01*
X0045666Y0052956D01*
X0045738Y0052848D01*
X0045846Y0052776D01*
X0045974Y0052751D01*
X0047498Y0052751D01*
X0047626Y0052776D01*
X0047734Y0052848D01*
X0047806Y0052956D01*
X0047831Y0053084D01*
X0047831Y0054608D01*
X0047806Y0054736D01*
X0047734Y0054844D01*
X0047626Y0054916D01*
X0047498Y0054941D01*
X0045974Y0054941D01*
X0045846Y0054916D01*
X0045738Y0054844D01*
X0045666Y0054736D01*
X0045641Y0054608D01*
X0045291Y0054608D01*
X0045266Y0054736D01*
X0045194Y0054844D01*
X0045086Y0054916D01*
X0044958Y0054941D01*
X0043434Y0054941D01*
X0043306Y0054916D01*
X0043198Y0054844D01*
X0043126Y0054736D01*
X0043101Y0054608D01*
X0043101Y0054473D01*
X0040454Y0054473D01*
X0037081Y0057845D01*
X0036878Y0057981D01*
X0036638Y0058029D01*
X0032512Y0058029D01*
X0032272Y0057981D01*
X0032069Y0057845D01*
X0031632Y0057409D01*
X0031496Y0057205D01*
X0031448Y0056965D01*
X0031448Y0056239D01*
X0031324Y0056188D01*
X0030951Y0055815D01*
X0030805Y0055464D01*
X0030661Y0055813D01*
X0030288Y0056187D01*
X0030162Y0056239D01*
X0030162Y0057213D01*
X0031248Y0058299D01*
X0043101Y0058299D01*
X0043101Y0058275D01*
X0042715Y0058275D01*
X0042475Y0058227D01*
X0042271Y0058091D01*
X0041231Y0057051D01*
X0040991Y0056952D01*
X0040786Y0056748D01*
X0040675Y0056480D01*
X0040675Y0056191D01*
X0040785Y0055924D01*
X0040990Y0055719D01*
X0041257Y0055608D01*
X0041546Y0055608D01*
X0041813Y0055719D01*
X0042018Y0055923D01*
X0042119Y0056165D01*
X0042975Y0057021D01*
X0043101Y0057021D01*
X0043101Y0055624D01*
X0043126Y0055496D01*
X0043198Y0055388D01*
X0043306Y0055316D01*
X0043434Y0055291D01*
X0044958Y0055291D01*
X0045086Y0055316D01*
X0045194Y0055388D01*
X0045266Y0055496D01*
X0045291Y0055624D01*
X0045291Y0056944D01*
X0045641Y0056595D01*
X0045641Y0055624D01*
X0045666Y0055496D01*
X0045738Y0055388D01*
X0045846Y0055316D01*
X0045974Y0055291D01*
X0047498Y0055291D01*
X0047626Y0055316D01*
X0047734Y0055388D01*
X0047806Y0055496D01*
X0047831Y0055624D01*
X0047831Y0057148D01*
X0047806Y0057276D01*
X0047734Y0057384D01*
X0047626Y0057456D01*
X0047498Y0057481D01*
X0046527Y0057481D01*
X0046178Y0057831D01*
X0047498Y0057831D01*
X0047626Y0057856D01*
X0047734Y0057928D01*
X0047806Y0058036D01*
X0047831Y0058164D01*
X0047831Y0059688D01*
X0047806Y0059816D01*
X0047734Y0059924D01*
X0047626Y0059996D01*
X0047498Y0060021D01*
X0045974Y0060021D01*
X0045846Y0059996D01*
X0045738Y0059924D01*
X0045666Y0059816D01*
X0045641Y0059688D01*
X0045641Y0058242D01*
X0045474Y0058275D01*
X0045291Y0058275D01*
X0045291Y0059688D01*
X0045266Y0059816D01*
X0045194Y0059924D01*
X0045086Y0059996D01*
X0044958Y0060021D01*
X0043434Y0060021D01*
X0043306Y0059996D01*
X0043198Y0059924D01*
X0043126Y0059816D01*
X0043101Y0059688D01*
X0043101Y0059553D01*
X0034663Y0059553D01*
X0034663Y0062911D01*
X0034798Y0062911D01*
X0034926Y0062936D01*
X0035034Y0063008D01*
X0035106Y0063116D01*
X0035131Y0063244D01*
X0035131Y0064768D01*
X0035481Y0064768D01*
X0035481Y0063244D01*
X0035506Y0063116D01*
X0035578Y0063008D01*
X0035686Y0062936D01*
X0035814Y0062911D01*
X0037338Y0062911D01*
X0037466Y0062936D01*
X0037574Y0063008D01*
X0037646Y0063116D01*
X0037671Y0063244D01*
X0037671Y0064768D01*
X0037646Y0064896D01*
X0037574Y0065004D01*
X0037466Y0065076D01*
X0037338Y0065101D01*
X0035814Y0065101D01*
X0035686Y0065076D01*
X0035578Y0065004D01*
X0035506Y0064896D01*
X0035481Y0064768D01*
X0035131Y0064768D01*
X0035106Y0064896D01*
X0035034Y0065004D01*
X0034926Y0065076D01*
X0034798Y0065101D01*
X0034663Y0065101D01*
X0034663Y0065451D01*
X0034798Y0065451D01*
X0034926Y0065476D01*
X0035034Y0065548D01*
X0035106Y0065656D01*
X0035131Y0065784D01*
X0035131Y0067308D01*
X0035481Y0067308D01*
X0035481Y0065784D01*
X0035506Y0065656D01*
X0035578Y0065548D01*
X0035686Y0065476D01*
X0035814Y0065451D01*
X0037338Y0065451D01*
X0037466Y0065476D01*
X0037574Y0065548D01*
X0037646Y0065656D01*
X0037671Y0065784D01*
X0037671Y0067308D01*
X0037646Y0067436D01*
X0037574Y0067544D01*
X0037466Y0067616D01*
X0037338Y0067641D01*
X0035814Y0067641D01*
X0035686Y0067616D01*
X0035578Y0067544D01*
X0035506Y0067436D01*
X0035481Y0067308D01*
X0035131Y0067308D01*
X0035106Y0067436D01*
X0035034Y0067544D01*
X0034926Y0067616D01*
X0034798Y0067641D01*
X0033274Y0067641D01*
X0033146Y0067616D01*
X0033038Y0067544D01*
X0032966Y0067436D01*
X0032941Y0067308D01*
X0032941Y0065784D01*
X0032966Y0065656D01*
X0033038Y0065548D01*
X0033146Y0065476D01*
X0033274Y0065451D01*
X0033409Y0065451D01*
X0033409Y0065101D01*
X0033274Y0065101D01*
X0033146Y0065076D01*
X0033038Y0065004D01*
X0032966Y0064896D01*
X0032941Y0064768D01*
X0032941Y0063244D01*
X0032966Y0063116D01*
X0033038Y0063008D01*
X0033146Y0062936D01*
X0033274Y0062911D01*
X0033409Y0062911D01*
X0033409Y0059553D01*
X0030988Y0059553D01*
X0030748Y0059505D01*
X0030545Y0059369D01*
X0029092Y0057917D01*
X0028956Y0057713D01*
X0028908Y0057473D01*
X0028908Y0056239D01*
X0028784Y0056188D01*
X0028411Y0055815D01*
X0028359Y0055690D01*
X0027085Y0055690D01*
X0026523Y0056252D01*
X0026423Y0056492D01*
X0026219Y0056697D01*
X0025952Y0056808D01*
X0025662Y0056808D01*
X0025395Y0056698D01*
X0025190Y0056494D01*
X0025080Y0056226D01*
X0025079Y0055937D01*
X0025190Y0055670D01*
X0025394Y0055465D01*
X0025636Y0055365D01*
X0026382Y0054619D01*
X0026585Y0054483D01*
X0026825Y0054436D01*
X0028358Y0054436D01*
X0028410Y0054312D01*
X0028783Y0053938D01*
X0029270Y0053736D01*
X0029798Y0053735D01*
X0030286Y0053937D01*
X0030660Y0054310D01*
X0030805Y0054661D01*
X0030950Y0054312D01*
X0031323Y0053938D01*
X0031810Y0053736D01*
X0032338Y0053735D01*
X0032826Y0053937D01*
X0033200Y0054310D01*
X0033345Y0054661D01*
X0033490Y0054312D01*
X0033863Y0053938D01*
X0034350Y0053736D01*
X0034878Y0053735D01*
X0035366Y0053937D01*
X0035740Y0054310D01*
X0035942Y0054797D01*
X0035942Y0055325D01*
X0035741Y0055813D01*
X0035368Y0056187D01*
X0034880Y0056389D01*
X0034352Y0056390D01*
X0033864Y0056188D01*
X0033491Y0055815D01*
X0033345Y0055464D01*
X0033201Y0055813D01*
X0032828Y0056187D01*
X0032702Y0056239D01*
X0032702Y0056705D01*
X0032772Y0056775D01*
X0036228Y0056775D01*
X0036165Y0056749D01*
X0035960Y0056544D01*
X0035849Y0056277D01*
X0035849Y0055988D01*
X0035949Y0055746D01*
X0035949Y0053849D01*
X0035622Y0053850D01*
X0035134Y0053648D01*
X0034761Y0053275D01*
X0034615Y0052924D01*
X0034471Y0053273D01*
X0034098Y0053647D01*
X0033610Y0053849D01*
X0033082Y0053850D01*
X0032594Y0053648D01*
X0032221Y0053275D01*
X0032075Y0052924D01*
X0031931Y0053273D01*
X0031558Y0053647D01*
X0031070Y0053849D01*
X0030542Y0053850D01*
X0030054Y0053648D01*
X0029681Y0053275D01*
X0029478Y0052788D01*
X0029478Y0052260D01*
X0029680Y0051772D01*
X0030053Y0051398D01*
X0030178Y0051346D01*
X0030178Y0050298D01*
X0030109Y0050130D01*
X0030108Y0049841D01*
X0030219Y0049574D01*
X0030300Y0049493D01*
X0029213Y0049493D01*
X0029196Y0049490D01*
X0026281Y0049490D01*
X0026281Y0051330D01*
X0026381Y0051570D01*
X0026381Y0051860D01*
X0026271Y0052127D01*
X0026066Y0052332D01*
X0025799Y0052443D01*
X0025510Y0052443D01*
X0025243Y0052332D01*
X0025038Y0052128D01*
X0024927Y0051861D01*
X0024927Y0051572D01*
X0025027Y0051329D01*
X0025027Y0049490D01*
X0018832Y0049490D01*
X0018832Y0051387D01*
X0018856Y0051397D01*
X0019230Y0051770D01*
X0019375Y0052121D01*
X0019520Y0051772D01*
X0019893Y0051398D01*
X0020380Y0051196D01*
X0020908Y0051195D01*
X0021396Y0051397D01*
X0021770Y0051770D01*
X0021972Y0052257D01*
X0021972Y0052785D01*
X0021771Y0053273D01*
X0021398Y0053647D01*
X0020910Y0053849D01*
X0020382Y0053850D01*
X0019894Y0053648D01*
X0019521Y0053275D01*
X0019375Y0052924D01*
X0019231Y0053273D01*
X0018858Y0053647D01*
X0018370Y0053849D01*
X0017842Y0053850D01*
X0017354Y0053648D01*
X0016981Y0053275D01*
X0016835Y0052924D01*
X0016691Y0053273D01*
X0016318Y0053647D01*
X0015830Y0053849D01*
X0015302Y0053850D01*
X0014814Y0053648D01*
X0014441Y0053275D01*
X0014238Y0052788D01*
X0014238Y0052260D01*
X0014440Y0051772D01*
X0014813Y0051398D01*
X0015300Y0051196D01*
X0015828Y0051195D01*
X0016316Y0051397D01*
X0016690Y0051770D01*
X0016835Y0052121D01*
X0016980Y0051772D01*
X0017353Y0051398D01*
X0017378Y0051388D01*
X0017378Y0049490D01*
X0014529Y0049490D01*
X0012665Y0051353D01*
X0012665Y0055577D01*
X0013722Y0056634D01*
X0013722Y0056634D01*
X0013824Y0056736D01*
X0013935Y0057003D01*
X0013935Y0057292D01*
X0013825Y0057559D01*
X0013620Y0057764D01*
X0013353Y0057875D01*
X0013064Y0057875D01*
X0012797Y0057765D01*
X0012592Y0057560D01*
X0012592Y0057560D01*
X0011424Y0056392D01*
X0011266Y0056156D01*
X0011263Y0056138D01*
X0011211Y0055878D01*
X0000402Y0055878D01*
X0000402Y0067308D01*
X0012621Y0067308D01*
X0012621Y0065784D01*
X0012646Y0065656D01*
X0012718Y0065548D01*
X0012826Y0065476D01*
X0012954Y0065451D01*
X0012989Y0065451D01*
X0012989Y0065101D01*
X0012954Y0065101D01*
X0012826Y0065076D01*
X0012718Y0065004D01*
X0012646Y0064896D01*
X0012621Y0064768D01*
X0012621Y0063244D01*
X0012646Y0063116D01*
X0012718Y0063008D01*
X0012826Y0062936D01*
X0012954Y0062911D01*
X0012989Y0062911D01*
X0012989Y0062561D01*
X0012954Y0062561D01*
X0012826Y0062536D01*
X0012718Y0062464D01*
X0012646Y0062356D01*
X0012621Y0062228D01*
X0012621Y0060704D01*
X0012646Y0060576D01*
X0012718Y0060468D01*
X0012826Y0060396D01*
X0012954Y0060371D01*
X0014478Y0060371D01*
X0014606Y0060396D01*
X0014714Y0060468D01*
X0014786Y0060576D01*
X0014811Y0060704D01*
X0014811Y0062228D01*
X0014786Y0062356D01*
X0014714Y0062464D01*
X0014606Y0062536D01*
X0014478Y0062561D01*
X0014443Y0062561D01*
X0014443Y0062911D01*
X0014478Y0062911D01*
X0014606Y0062936D01*
X0014714Y0063008D01*
X0014786Y0063116D01*
X0014811Y0063244D01*
X0014811Y0064768D01*
X0015161Y0064768D01*
X0015161Y0063244D01*
X0015186Y0063116D01*
X0015258Y0063008D01*
X0015366Y0062936D01*
X0015494Y0062911D01*
X0017018Y0062911D01*
X0017146Y0062936D01*
X0017254Y0063008D01*
X0017326Y0063116D01*
X0017351Y0063244D01*
X0017351Y0064768D01*
X0017701Y0064768D01*
X0017701Y0063244D01*
X0017726Y0063116D01*
X0017798Y0063008D01*
X0017906Y0062936D01*
X0018034Y0062911D01*
X0019558Y0062911D01*
X0019686Y0062936D01*
X0019794Y0063008D01*
X0019866Y0063116D01*
X0019891Y0063244D01*
X0019891Y0064768D01*
X0020241Y0064768D01*
X0020241Y0063244D01*
X0020266Y0063116D01*
X0020338Y0063008D01*
X0020446Y0062936D01*
X0020574Y0062911D01*
X0022098Y0062911D01*
X0022226Y0062936D01*
X0022334Y0063008D01*
X0022406Y0063116D01*
X0022431Y0063244D01*
X0022431Y0064768D01*
X0022406Y0064896D01*
X0022334Y0065004D01*
X0022226Y0065076D01*
X0022098Y0065101D01*
X0020574Y0065101D01*
X0020446Y0065076D01*
X0020338Y0065004D01*
X0020266Y0064896D01*
X0020241Y0064768D01*
X0019891Y0064768D01*
X0019866Y0064896D01*
X0019794Y0065004D01*
X0019686Y0065076D01*
X0019558Y0065101D01*
X0018034Y0065101D01*
X0017906Y0065076D01*
X0017798Y0065004D01*
X0017726Y0064896D01*
X0017701Y0064768D01*
X0017351Y0064768D01*
X0017326Y0064896D01*
X0017254Y0065004D01*
X0017146Y0065076D01*
X0017018Y0065101D01*
X0015494Y0065101D01*
X0015366Y0065076D01*
X0015258Y0065004D01*
X0015186Y0064896D01*
X0015161Y0064768D01*
X0014811Y0064768D01*
X0014786Y0064896D01*
X0014714Y0065004D01*
X0014606Y0065076D01*
X0014478Y0065101D01*
X0014443Y0065101D01*
X0014443Y0065451D01*
X0014478Y0065451D01*
X0014606Y0065476D01*
X0014714Y0065548D01*
X0014786Y0065656D01*
X0014811Y0065784D01*
X0014811Y0067308D01*
X0015161Y0067308D01*
X0015161Y0065784D01*
X0015186Y0065656D01*
X0015258Y0065548D01*
X0015366Y0065476D01*
X0015494Y0065451D01*
X0017018Y0065451D01*
X0017146Y0065476D01*
X0017254Y0065548D01*
X0017326Y0065656D01*
X0017351Y0065784D01*
X0017351Y0067308D01*
X0017701Y0067308D01*
X0017701Y0065784D01*
X0017726Y0065656D01*
X0017798Y0065548D01*
X0017906Y0065476D01*
X0018034Y0065451D01*
X0019558Y0065451D01*
X0019686Y0065476D01*
X0019794Y0065548D01*
X0019866Y0065656D01*
X0019891Y0065784D01*
X0019891Y0067308D01*
X0020241Y0067308D01*
X0020241Y0065784D01*
X0020266Y0065656D01*
X0020338Y0065548D01*
X0020446Y0065476D01*
X0020574Y0065451D01*
X0022098Y0065451D01*
X0022226Y0065476D01*
X0022334Y0065548D01*
X0022406Y0065656D01*
X0022431Y0065784D01*
X0022431Y0067308D01*
X0022406Y0067436D01*
X0022334Y0067544D01*
X0022226Y0067616D01*
X0022098Y0067641D01*
X0020574Y0067641D01*
X0020446Y0067616D01*
X0020338Y0067544D01*
X0020266Y0067436D01*
X0020241Y0067308D01*
X0019891Y0067308D01*
X0019866Y0067436D01*
X0019794Y0067544D01*
X0019686Y0067616D01*
X0019558Y0067641D01*
X0018034Y0067641D01*
X0017906Y0067616D01*
X0017798Y0067544D01*
X0017726Y0067436D01*
X0017701Y0067308D01*
X0017351Y0067308D01*
X0017326Y0067436D01*
X0017254Y0067544D01*
X0017146Y0067616D01*
X0017018Y0067641D01*
X0015494Y0067641D01*
X0015366Y0067616D01*
X0015258Y0067544D01*
X0015186Y0067436D01*
X0015161Y0067308D01*
X0014811Y0067308D01*
X0014786Y0067436D01*
X0014714Y0067544D01*
X0014606Y0067616D01*
X0014597Y0067618D01*
X0014779Y0067800D01*
X0022914Y0067800D01*
X0023080Y0067635D01*
X0022986Y0067616D01*
X0022878Y0067544D01*
X0022806Y0067436D01*
X0022781Y0067308D01*
X0022781Y0065784D01*
X0022806Y0065656D01*
X0022878Y0065548D01*
X0022986Y0065476D01*
X0023114Y0065451D01*
X0023149Y0065451D01*
X0023149Y0065101D01*
X0023114Y0065101D01*
X0022986Y0065076D01*
X0022878Y0065004D01*
X0022806Y0064896D01*
X0022781Y0064768D01*
X0022781Y0063244D01*
X0022806Y0063116D01*
X0022878Y0063008D01*
X0022986Y0062936D01*
X0023114Y0062911D01*
X0023149Y0062911D01*
X0023149Y0058150D01*
X0023149Y0058005D01*
X0023149Y0058005D01*
X0023149Y0055925D01*
X0023013Y0055790D01*
X0022743Y0055790D01*
X0022825Y0055987D01*
X0022825Y0056276D01*
X0022715Y0056543D01*
X0022510Y0056748D01*
X0022268Y0056849D01*
X0021779Y0057337D01*
X0021683Y0057402D01*
X0021576Y0057473D01*
X0021336Y0057521D01*
X0016154Y0057521D01*
X0015914Y0057473D01*
X0015808Y0057402D01*
X0015711Y0057337D01*
X0014704Y0056330D01*
X0014560Y0056389D01*
X0014032Y0056390D01*
X0013544Y0056188D01*
X0013171Y0055815D01*
X0012968Y0055328D01*
X0012968Y0054800D01*
X0013170Y0054312D01*
X0013543Y0053938D01*
X0014030Y0053736D01*
X0014558Y0053735D01*
X0015046Y0053937D01*
X0015420Y0054310D01*
X0015565Y0054661D01*
X0015710Y0054312D01*
X0016083Y0053938D01*
X0016570Y0053736D01*
X0017098Y0053735D01*
X0017586Y0053937D01*
X0017960Y0054310D01*
X0018105Y0054661D01*
X0018250Y0054312D01*
X0018623Y0053938D01*
X0019110Y0053736D01*
X0019638Y0053735D01*
X0020126Y0053937D01*
X0020500Y0054310D01*
X0020510Y0054336D01*
X0023314Y0054336D01*
X0023315Y0054335D01*
X0023547Y0054382D01*
X0023593Y0054391D01*
X0023829Y0054548D01*
X0024390Y0055110D01*
X0024418Y0055151D01*
X0024548Y0055346D01*
X0024559Y0055405D01*
X0024603Y0055624D01*
X0024603Y0055624D01*
X0024603Y0058148D01*
X0024603Y0058293D01*
X0024603Y0058293D01*
X0024603Y0062911D01*
X0024638Y0062911D01*
X0024766Y0062936D01*
X0024874Y0063008D01*
X0024946Y0063116D01*
X0024971Y0063244D01*
X0024971Y0064768D01*
X0024946Y0064896D01*
X0024874Y0065004D01*
X0024766Y0065076D01*
X0024638Y0065101D01*
X0024603Y0065101D01*
X0024603Y0065451D01*
X0024638Y0065451D01*
X0024766Y0065476D01*
X0024874Y0065548D01*
X0024946Y0065656D01*
X0024971Y0065784D01*
X0024971Y0067308D01*
X0024946Y0067436D01*
X0024874Y0067544D01*
X0024766Y0067616D01*
X0024638Y0067641D01*
X0024603Y0067641D01*
X0024603Y0067867D01*
X0024603Y0067867D01*
X0024548Y0068145D01*
X0024548Y0068145D01*
X0024390Y0068381D01*
X0024390Y0068381D01*
X0023730Y0069041D01*
X0023494Y0069199D01*
X0023448Y0069208D01*
X0023216Y0069254D01*
X0023216Y0069254D01*
X0014478Y0069254D01*
X0014478Y0069254D01*
X0014246Y0069208D01*
X0014200Y0069199D01*
X0013964Y0069041D01*
X0013964Y0069041D01*
X0013202Y0068279D01*
X0013044Y0068043D01*
X0013038Y0068013D01*
X0012989Y0067765D01*
X0012989Y0067765D01*
X0012989Y0067641D01*
X0012954Y0067641D01*
X0012826Y0067616D01*
X0012718Y0067544D01*
X0012646Y0067436D01*
X0012621Y0067308D01*
X0000402Y0067308D01*
X0000402Y0069700D01*
X0049890Y0069700D01*
X0049890Y0040532D01*
X0049890Y0040532D01*
G37*
X0049890Y0040532D02*
X0000402Y0040532D01*
X0000402Y0045702D01*
X0010068Y0045702D01*
X0010421Y0044846D01*
X0011075Y0044191D01*
X0011930Y0043836D01*
X0012856Y0043835D01*
X0013712Y0044189D01*
X0014367Y0044843D01*
X0014722Y0045698D01*
X0014723Y0046623D01*
X0014369Y0047479D01*
X0013715Y0048134D01*
X0012860Y0048489D01*
X0011934Y0048490D01*
X0011079Y0048136D01*
X0010424Y0047482D01*
X0010069Y0046627D01*
X0010068Y0045702D01*
X0000402Y0045702D01*
X0000402Y0055878D01*
X0011211Y0055878D01*
X0011211Y0055878D01*
X0011211Y0051052D01*
X0011211Y0051052D01*
X0011224Y0050989D01*
X0011266Y0050774D01*
X0011402Y0050571D01*
X0011424Y0050538D01*
X0013713Y0048248D01*
X0013713Y0048248D01*
X0013811Y0048183D01*
X0013949Y0048091D01*
X0014227Y0048036D01*
X0014228Y0048036D01*
X0018034Y0048036D01*
X0018034Y0048036D01*
X0018034Y0048036D01*
X0021138Y0048036D01*
X0020584Y0047482D01*
X0020229Y0046627D01*
X0020228Y0045702D01*
X0020581Y0044846D01*
X0021235Y0044191D01*
X0022090Y0043836D01*
X0023016Y0043835D01*
X0023872Y0044189D01*
X0024527Y0044843D01*
X0024882Y0045698D01*
X0024883Y0046623D01*
X0024529Y0047479D01*
X0023973Y0048036D01*
X0026218Y0048036D01*
X0025664Y0047482D01*
X0025309Y0046627D01*
X0025308Y0045702D01*
X0025661Y0044846D01*
X0026315Y0044191D01*
X0027170Y0043836D01*
X0028096Y0043835D01*
X0028952Y0044189D01*
X0029607Y0044843D01*
X0029962Y0045698D01*
X0029963Y0046623D01*
X0029609Y0047479D01*
X0029053Y0048036D01*
X0029210Y0048036D01*
X0029210Y0048036D01*
X0029210Y0048036D01*
X0029467Y0048036D01*
X0029485Y0048039D01*
X0033256Y0048039D01*
X0033274Y0048036D01*
X0033274Y0048036D01*
X0036378Y0048036D01*
X0035824Y0047482D01*
X0035469Y0046627D01*
X0035468Y0045702D01*
X0035821Y0044846D01*
X0036475Y0044191D01*
X0037330Y0043836D01*
X0038256Y0043835D01*
X0039112Y0044189D01*
X0039767Y0044843D01*
X0040122Y0045698D01*
X0040123Y0046623D01*
X0039769Y0047479D01*
X0039213Y0048036D01*
X0041652Y0048036D01*
X0041653Y0048036D01*
X0041885Y0048082D01*
X0041931Y0048091D01*
X0042167Y0048248D01*
X0042167Y0048248D01*
X0044129Y0050211D01*
X0044958Y0050211D01*
X0045086Y0050236D01*
X0045194Y0050308D01*
X0045266Y0050416D01*
X0045291Y0050544D01*
X0045291Y0052068D01*
X0045641Y0052068D01*
X0045641Y0050544D01*
X0045666Y0050416D01*
X0045738Y0050308D01*
X0045846Y0050236D01*
X0045974Y0050211D01*
X0047498Y0050211D01*
X0047626Y0050236D01*
X0047734Y0050308D01*
X0047806Y0050416D01*
X0047831Y0050544D01*
X0047831Y0052068D01*
X0047806Y0052196D01*
X0047734Y0052304D01*
X0047626Y0052376D01*
X0047498Y0052401D01*
X0045974Y0052401D01*
X0045846Y0052376D01*
X0045738Y0052304D01*
X0045666Y0052196D01*
X0045641Y0052068D01*
X0045291Y0052068D01*
X0045266Y0052196D01*
X0045194Y0052304D01*
X0045086Y0052376D01*
X0044958Y0052401D01*
X0043434Y0052401D01*
X0043306Y0052376D01*
X0043198Y0052304D01*
X0043126Y0052196D01*
X0043101Y0052068D01*
X0043101Y0051239D01*
X0041351Y0049490D01*
X0034072Y0049490D01*
X0034072Y0051387D01*
X0034096Y0051397D01*
X0034470Y0051770D01*
X0034615Y0052121D01*
X0034760Y0051772D01*
X0035133Y0051398D01*
X0035620Y0051196D01*
X0036148Y0051195D01*
X0036636Y0051397D01*
X0037010Y0051770D01*
X0037212Y0052257D01*
X0037212Y0052785D01*
X0037143Y0052954D01*
X0037155Y0052973D01*
X0037203Y0053213D01*
X0037203Y0055746D01*
X0037263Y0055890D01*
X0039751Y0053403D01*
X0039954Y0053267D01*
X0040194Y0053219D01*
X0043101Y0053219D01*
X0043101Y0053084D01*
X0043126Y0052956D01*
X0043198Y0052848D01*
X0043306Y0052776D01*
X0043434Y0052751D01*
X0044958Y0052751D01*
X0045086Y0052776D01*
X0045194Y0052848D01*
X0045266Y0052956D01*
X0045291Y0053084D01*
X0045291Y0054608D01*
X0045641Y0054608D01*
X0045641Y0053084D01*
X0045666Y0052956D01*
X0045738Y0052848D01*
X0045846Y0052776D01*
X0045974Y0052751D01*
X0047498Y0052751D01*
X0047626Y0052776D01*
X0047734Y0052848D01*
X0047806Y0052956D01*
X0047831Y0053084D01*
X0047831Y0054608D01*
X0047806Y0054736D01*
X0047734Y0054844D01*
X0047626Y0054916D01*
X0047498Y0054941D01*
X0045974Y0054941D01*
X0045846Y0054916D01*
X0045738Y0054844D01*
X0045666Y0054736D01*
X0045641Y0054608D01*
X0045291Y0054608D01*
X0045266Y0054736D01*
X0045194Y0054844D01*
X0045086Y0054916D01*
X0044958Y0054941D01*
X0043434Y0054941D01*
X0043306Y0054916D01*
X0043198Y0054844D01*
X0043126Y0054736D01*
X0043101Y0054608D01*
X0043101Y0054473D01*
X0040454Y0054473D01*
X0037081Y0057845D01*
X0036878Y0057981D01*
X0036638Y0058029D01*
X0032512Y0058029D01*
X0032272Y0057981D01*
X0032069Y0057845D01*
X0031632Y0057409D01*
X0031496Y0057205D01*
X0031448Y0056965D01*
X0031448Y0056239D01*
X0031324Y0056188D01*
X0030951Y0055815D01*
X0030805Y0055464D01*
X0030661Y0055813D01*
X0030288Y0056187D01*
X0030162Y0056239D01*
X0030162Y0057213D01*
X0031248Y0058299D01*
X0043101Y0058299D01*
X0043101Y0058275D01*
X0042715Y0058275D01*
X0042475Y0058227D01*
X0042271Y0058091D01*
X0041231Y0057051D01*
X0040991Y0056952D01*
X0040786Y0056748D01*
X0040675Y0056480D01*
X0040675Y0056191D01*
X0040785Y0055924D01*
X0040990Y0055719D01*
X0041257Y0055608D01*
X0041546Y0055608D01*
X0041813Y0055719D01*
X0042018Y0055923D01*
X0042119Y0056165D01*
X0042975Y0057021D01*
X0043101Y0057021D01*
X0043101Y0055624D01*
X0043126Y0055496D01*
X0043198Y0055388D01*
X0043306Y0055316D01*
X0043434Y0055291D01*
X0044958Y0055291D01*
X0045086Y0055316D01*
X0045194Y0055388D01*
X0045266Y0055496D01*
X0045291Y0055624D01*
X0045291Y0056944D01*
X0045641Y0056595D01*
X0045641Y0055624D01*
X0045666Y0055496D01*
X0045738Y0055388D01*
X0045846Y0055316D01*
X0045974Y0055291D01*
X0047498Y0055291D01*
X0047626Y0055316D01*
X0047734Y0055388D01*
X0047806Y0055496D01*
X0047831Y0055624D01*
X0047831Y0057148D01*
X0047806Y0057276D01*
X0047734Y0057384D01*
X0047626Y0057456D01*
X0047498Y0057481D01*
X0046527Y0057481D01*
X0046178Y0057831D01*
X0047498Y0057831D01*
X0047626Y0057856D01*
X0047734Y0057928D01*
X0047806Y0058036D01*
X0047831Y0058164D01*
X0047831Y0059688D01*
X0047806Y0059816D01*
X0047734Y0059924D01*
X0047626Y0059996D01*
X0047498Y0060021D01*
X0045974Y0060021D01*
X0045846Y0059996D01*
X0045738Y0059924D01*
X0045666Y0059816D01*
X0045641Y0059688D01*
X0045641Y0058242D01*
X0045474Y0058275D01*
X0045291Y0058275D01*
X0045291Y0059688D01*
X0045266Y0059816D01*
X0045194Y0059924D01*
X0045086Y0059996D01*
X0044958Y0060021D01*
X0043434Y0060021D01*
X0043306Y0059996D01*
X0043198Y0059924D01*
X0043126Y0059816D01*
X0043101Y0059688D01*
X0043101Y0059553D01*
X0034663Y0059553D01*
X0034663Y0062911D01*
X0034798Y0062911D01*
X0034926Y0062936D01*
X0035034Y0063008D01*
X0035106Y0063116D01*
X0035131Y0063244D01*
X0035131Y0064768D01*
X0035481Y0064768D01*
X0035481Y0063244D01*
X0035506Y0063116D01*
X0035578Y0063008D01*
X0035686Y0062936D01*
X0035814Y0062911D01*
X0037338Y0062911D01*
X0037466Y0062936D01*
X0037574Y0063008D01*
X0037646Y0063116D01*
X0037671Y0063244D01*
X0037671Y0064768D01*
X0037646Y0064896D01*
X0037574Y0065004D01*
X0037466Y0065076D01*
X0037338Y0065101D01*
X0035814Y0065101D01*
X0035686Y0065076D01*
X0035578Y0065004D01*
X0035506Y0064896D01*
X0035481Y0064768D01*
X0035131Y0064768D01*
X0035106Y0064896D01*
X0035034Y0065004D01*
X0034926Y0065076D01*
X0034798Y0065101D01*
X0034663Y0065101D01*
X0034663Y0065451D01*
X0034798Y0065451D01*
X0034926Y0065476D01*
X0035034Y0065548D01*
X0035106Y0065656D01*
X0035131Y0065784D01*
X0035131Y0067308D01*
X0035481Y0067308D01*
X0035481Y0065784D01*
X0035506Y0065656D01*
X0035578Y0065548D01*
X0035686Y0065476D01*
X0035814Y0065451D01*
X0037338Y0065451D01*
X0037466Y0065476D01*
X0037574Y0065548D01*
X0037646Y0065656D01*
X0037671Y0065784D01*
X0037671Y0067308D01*
X0037646Y0067436D01*
X0037574Y0067544D01*
X0037466Y0067616D01*
X0037338Y0067641D01*
X0035814Y0067641D01*
X0035686Y0067616D01*
X0035578Y0067544D01*
X0035506Y0067436D01*
X0035481Y0067308D01*
X0035131Y0067308D01*
X0035106Y0067436D01*
X0035034Y0067544D01*
X0034926Y0067616D01*
X0034798Y0067641D01*
X0033274Y0067641D01*
X0033146Y0067616D01*
X0033038Y0067544D01*
X0032966Y0067436D01*
X0032941Y0067308D01*
X0032941Y0065784D01*
X0032966Y0065656D01*
X0033038Y0065548D01*
X0033146Y0065476D01*
X0033274Y0065451D01*
X0033409Y0065451D01*
X0033409Y0065101D01*
X0033274Y0065101D01*
X0033146Y0065076D01*
X0033038Y0065004D01*
X0032966Y0064896D01*
X0032941Y0064768D01*
X0032941Y0063244D01*
X0032966Y0063116D01*
X0033038Y0063008D01*
X0033146Y0062936D01*
X0033274Y0062911D01*
X0033409Y0062911D01*
X0033409Y0059553D01*
X0030988Y0059553D01*
X0030748Y0059505D01*
X0030545Y0059369D01*
X0029092Y0057917D01*
X0028956Y0057713D01*
X0028908Y0057473D01*
X0028908Y0056239D01*
X0028784Y0056188D01*
X0028411Y0055815D01*
X0028359Y0055690D01*
X0027085Y0055690D01*
X0026523Y0056252D01*
X0026423Y0056492D01*
X0026219Y0056697D01*
X0025952Y0056808D01*
X0025662Y0056808D01*
X0025395Y0056698D01*
X0025190Y0056494D01*
X0025080Y0056226D01*
X0025079Y0055937D01*
X0025190Y0055670D01*
X0025394Y0055465D01*
X0025636Y0055365D01*
X0026382Y0054619D01*
X0026585Y0054483D01*
X0026825Y0054436D01*
X0028358Y0054436D01*
X0028410Y0054312D01*
X0028783Y0053938D01*
X0029270Y0053736D01*
X0029798Y0053735D01*
X0030286Y0053937D01*
X0030660Y0054310D01*
X0030805Y0054661D01*
X0030950Y0054312D01*
X0031323Y0053938D01*
X0031810Y0053736D01*
X0032338Y0053735D01*
X0032826Y0053937D01*
X0033200Y0054310D01*
X0033345Y0054661D01*
X0033490Y0054312D01*
X0033863Y0053938D01*
X0034350Y0053736D01*
X0034878Y0053735D01*
X0035366Y0053937D01*
X0035740Y0054310D01*
X0035942Y0054797D01*
X0035942Y0055325D01*
X0035741Y0055813D01*
X0035368Y0056187D01*
X0034880Y0056389D01*
X0034352Y0056390D01*
X0033864Y0056188D01*
X0033491Y0055815D01*
X0033345Y0055464D01*
X0033201Y0055813D01*
X0032828Y0056187D01*
X0032702Y0056239D01*
X0032702Y0056705D01*
X0032772Y0056775D01*
X0036228Y0056775D01*
X0036165Y0056749D01*
X0035960Y0056544D01*
X0035849Y0056277D01*
X0035849Y0055988D01*
X0035949Y0055746D01*
X0035949Y0053849D01*
X0035622Y0053850D01*
X0035134Y0053648D01*
X0034761Y0053275D01*
X0034615Y0052924D01*
X0034471Y0053273D01*
X0034098Y0053647D01*
X0033610Y0053849D01*
X0033082Y0053850D01*
X0032594Y0053648D01*
X0032221Y0053275D01*
X0032075Y0052924D01*
X0031931Y0053273D01*
X0031558Y0053647D01*
X0031070Y0053849D01*
X0030542Y0053850D01*
X0030054Y0053648D01*
X0029681Y0053275D01*
X0029478Y0052788D01*
X0029478Y0052260D01*
X0029680Y0051772D01*
X0030053Y0051398D01*
X0030178Y0051346D01*
X0030178Y0050298D01*
X0030109Y0050130D01*
X0030108Y0049841D01*
X0030219Y0049574D01*
X0030300Y0049493D01*
X0029213Y0049493D01*
X0029196Y0049490D01*
X0026281Y0049490D01*
X0026281Y0051330D01*
X0026381Y0051570D01*
X0026381Y0051860D01*
X0026271Y0052127D01*
X0026066Y0052332D01*
X0025799Y0052443D01*
X0025510Y0052443D01*
X0025243Y0052332D01*
X0025038Y0052128D01*
X0024927Y0051861D01*
X0024927Y0051572D01*
X0025027Y0051329D01*
X0025027Y0049490D01*
X0018832Y0049490D01*
X0018832Y0051387D01*
X0018856Y0051397D01*
X0019230Y0051770D01*
X0019375Y0052121D01*
X0019520Y0051772D01*
X0019893Y0051398D01*
X0020380Y0051196D01*
X0020908Y0051195D01*
X0021396Y0051397D01*
X0021770Y0051770D01*
X0021972Y0052257D01*
X0021972Y0052785D01*
X0021771Y0053273D01*
X0021398Y0053647D01*
X0020910Y0053849D01*
X0020382Y0053850D01*
X0019894Y0053648D01*
X0019521Y0053275D01*
X0019375Y0052924D01*
X0019231Y0053273D01*
X0018858Y0053647D01*
X0018370Y0053849D01*
X0017842Y0053850D01*
X0017354Y0053648D01*
X0016981Y0053275D01*
X0016835Y0052924D01*
X0016691Y0053273D01*
X0016318Y0053647D01*
X0015830Y0053849D01*
X0015302Y0053850D01*
X0014814Y0053648D01*
X0014441Y0053275D01*
X0014238Y0052788D01*
X0014238Y0052260D01*
X0014440Y0051772D01*
X0014813Y0051398D01*
X0015300Y0051196D01*
X0015828Y0051195D01*
X0016316Y0051397D01*
X0016690Y0051770D01*
X0016835Y0052121D01*
X0016980Y0051772D01*
X0017353Y0051398D01*
X0017378Y0051388D01*
X0017378Y0049490D01*
X0014529Y0049490D01*
X0012665Y0051353D01*
X0012665Y0055577D01*
X0013722Y0056634D01*
X0013722Y0056634D01*
X0013824Y0056736D01*
X0013935Y0057003D01*
X0013935Y0057292D01*
X0013825Y0057559D01*
X0013620Y0057764D01*
X0013353Y0057875D01*
X0013064Y0057875D01*
X0012797Y0057765D01*
X0012592Y0057560D01*
X0012592Y0057560D01*
X0011424Y0056392D01*
X0011266Y0056156D01*
X0011263Y0056138D01*
X0011211Y0055878D01*
X0000402Y0055878D01*
X0000402Y0067308D01*
X0012621Y0067308D01*
X0012621Y0065784D01*
X0012646Y0065656D01*
X0012718Y0065548D01*
X0012826Y0065476D01*
X0012954Y0065451D01*
X0012989Y0065451D01*
X0012989Y0065101D01*
X0012954Y0065101D01*
X0012826Y0065076D01*
X0012718Y0065004D01*
X0012646Y0064896D01*
X0012621Y0064768D01*
X0012621Y0063244D01*
X0012646Y0063116D01*
X0012718Y0063008D01*
X0012826Y0062936D01*
X0012954Y0062911D01*
X0012989Y0062911D01*
X0012989Y0062561D01*
X0012954Y0062561D01*
X0012826Y0062536D01*
X0012718Y0062464D01*
X0012646Y0062356D01*
X0012621Y0062228D01*
X0012621Y0060704D01*
X0012646Y0060576D01*
X0012718Y0060468D01*
X0012826Y0060396D01*
X0012954Y0060371D01*
X0014478Y0060371D01*
X0014606Y0060396D01*
X0014714Y0060468D01*
X0014786Y0060576D01*
X0014811Y0060704D01*
X0014811Y0062228D01*
X0014786Y0062356D01*
X0014714Y0062464D01*
X0014606Y0062536D01*
X0014478Y0062561D01*
X0014443Y0062561D01*
X0014443Y0062911D01*
X0014478Y0062911D01*
X0014606Y0062936D01*
X0014714Y0063008D01*
X0014786Y0063116D01*
X0014811Y0063244D01*
X0014811Y0064768D01*
X0015161Y0064768D01*
X0015161Y0063244D01*
X0015186Y0063116D01*
X0015258Y0063008D01*
X0015366Y0062936D01*
X0015494Y0062911D01*
X0017018Y0062911D01*
X0017146Y0062936D01*
X0017254Y0063008D01*
X0017326Y0063116D01*
X0017351Y0063244D01*
X0017351Y0064768D01*
X0017701Y0064768D01*
X0017701Y0063244D01*
X0017726Y0063116D01*
X0017798Y0063008D01*
X0017906Y0062936D01*
X0018034Y0062911D01*
X0019558Y0062911D01*
X0019686Y0062936D01*
X0019794Y0063008D01*
X0019866Y0063116D01*
X0019891Y0063244D01*
X0019891Y0064768D01*
X0020241Y0064768D01*
X0020241Y0063244D01*
X0020266Y0063116D01*
X0020338Y0063008D01*
X0020446Y0062936D01*
X0020574Y0062911D01*
X0022098Y0062911D01*
X0022226Y0062936D01*
X0022334Y0063008D01*
X0022406Y0063116D01*
X0022431Y0063244D01*
X0022431Y0064768D01*
X0022406Y0064896D01*
X0022334Y0065004D01*
X0022226Y0065076D01*
X0022098Y0065101D01*
X0020574Y0065101D01*
X0020446Y0065076D01*
X0020338Y0065004D01*
X0020266Y0064896D01*
X0020241Y0064768D01*
X0019891Y0064768D01*
X0019866Y0064896D01*
X0019794Y0065004D01*
X0019686Y0065076D01*
X0019558Y0065101D01*
X0018034Y0065101D01*
X0017906Y0065076D01*
X0017798Y0065004D01*
X0017726Y0064896D01*
X0017701Y0064768D01*
X0017351Y0064768D01*
X0017326Y0064896D01*
X0017254Y0065004D01*
X0017146Y0065076D01*
X0017018Y0065101D01*
X0015494Y0065101D01*
X0015366Y0065076D01*
X0015258Y0065004D01*
X0015186Y0064896D01*
X0015161Y0064768D01*
X0014811Y0064768D01*
X0014786Y0064896D01*
X0014714Y0065004D01*
X0014606Y0065076D01*
X0014478Y0065101D01*
X0014443Y0065101D01*
X0014443Y0065451D01*
X0014478Y0065451D01*
X0014606Y0065476D01*
X0014714Y0065548D01*
X0014786Y0065656D01*
X0014811Y0065784D01*
X0014811Y0067308D01*
X0015161Y0067308D01*
X0015161Y0065784D01*
X0015186Y0065656D01*
X0015258Y0065548D01*
X0015366Y0065476D01*
X0015494Y0065451D01*
X0017018Y0065451D01*
X0017146Y0065476D01*
X0017254Y0065548D01*
X0017326Y0065656D01*
X0017351Y0065784D01*
X0017351Y0067308D01*
X0017701Y0067308D01*
X0017701Y0065784D01*
X0017726Y0065656D01*
X0017798Y0065548D01*
X0017906Y0065476D01*
X0018034Y0065451D01*
X0019558Y0065451D01*
X0019686Y0065476D01*
X0019794Y0065548D01*
X0019866Y0065656D01*
X0019891Y0065784D01*
X0019891Y0067308D01*
X0020241Y0067308D01*
X0020241Y0065784D01*
X0020266Y0065656D01*
X0020338Y0065548D01*
X0020446Y0065476D01*
X0020574Y0065451D01*
X0022098Y0065451D01*
X0022226Y0065476D01*
X0022334Y0065548D01*
X0022406Y0065656D01*
X0022431Y0065784D01*
X0022431Y0067308D01*
X0022406Y0067436D01*
X0022334Y0067544D01*
X0022226Y0067616D01*
X0022098Y0067641D01*
X0020574Y0067641D01*
X0020446Y0067616D01*
X0020338Y0067544D01*
X0020266Y0067436D01*
X0020241Y0067308D01*
X0019891Y0067308D01*
X0019866Y0067436D01*
X0019794Y0067544D01*
X0019686Y0067616D01*
X0019558Y0067641D01*
X0018034Y0067641D01*
X0017906Y0067616D01*
X0017798Y0067544D01*
X0017726Y0067436D01*
X0017701Y0067308D01*
X0017351Y0067308D01*
X0017326Y0067436D01*
X0017254Y0067544D01*
X0017146Y0067616D01*
X0017018Y0067641D01*
X0015494Y0067641D01*
X0015366Y0067616D01*
X0015258Y0067544D01*
X0015186Y0067436D01*
X0015161Y0067308D01*
X0014811Y0067308D01*
X0014786Y0067436D01*
X0014714Y0067544D01*
X0014606Y0067616D01*
X0014597Y0067618D01*
X0014779Y0067800D01*
X0022914Y0067800D01*
X0023080Y0067635D01*
X0022986Y0067616D01*
X0022878Y0067544D01*
X0022806Y0067436D01*
X0022781Y0067308D01*
X0022781Y0065784D01*
X0022806Y0065656D01*
X0022878Y0065548D01*
X0022986Y0065476D01*
X0023114Y0065451D01*
X0023149Y0065451D01*
X0023149Y0065101D01*
X0023114Y0065101D01*
X0022986Y0065076D01*
X0022878Y0065004D01*
X0022806Y0064896D01*
X0022781Y0064768D01*
X0022781Y0063244D01*
X0022806Y0063116D01*
X0022878Y0063008D01*
X0022986Y0062936D01*
X0023114Y0062911D01*
X0023149Y0062911D01*
X0023149Y0058150D01*
X0023149Y0058005D01*
X0023149Y0058005D01*
X0023149Y0055925D01*
X0023013Y0055790D01*
X0022743Y0055790D01*
X0022825Y0055987D01*
X0022825Y0056276D01*
X0022715Y0056543D01*
X0022510Y0056748D01*
X0022268Y0056849D01*
X0021779Y0057337D01*
X0021683Y0057402D01*
X0021576Y0057473D01*
X0021336Y0057521D01*
X0016154Y0057521D01*
X0015914Y0057473D01*
X0015808Y0057402D01*
X0015711Y0057337D01*
X0014704Y0056330D01*
X0014560Y0056389D01*
X0014032Y0056390D01*
X0013544Y0056188D01*
X0013171Y0055815D01*
X0012968Y0055328D01*
X0012968Y0054800D01*
X0013170Y0054312D01*
X0013543Y0053938D01*
X0014030Y0053736D01*
X0014558Y0053735D01*
X0015046Y0053937D01*
X0015420Y0054310D01*
X0015565Y0054661D01*
X0015710Y0054312D01*
X0016083Y0053938D01*
X0016570Y0053736D01*
X0017098Y0053735D01*
X0017586Y0053937D01*
X0017960Y0054310D01*
X0018105Y0054661D01*
X0018250Y0054312D01*
X0018623Y0053938D01*
X0019110Y0053736D01*
X0019638Y0053735D01*
X0020126Y0053937D01*
X0020500Y0054310D01*
X0020510Y0054336D01*
X0023314Y0054336D01*
X0023315Y0054335D01*
X0023547Y0054382D01*
X0023593Y0054391D01*
X0023829Y0054548D01*
X0024390Y0055110D01*
X0024418Y0055151D01*
X0024548Y0055346D01*
X0024559Y0055405D01*
X0024603Y0055624D01*
X0024603Y0055624D01*
X0024603Y0058148D01*
X0024603Y0058293D01*
X0024603Y0058293D01*
X0024603Y0062911D01*
X0024638Y0062911D01*
X0024766Y0062936D01*
X0024874Y0063008D01*
X0024946Y0063116D01*
X0024971Y0063244D01*
X0024971Y0064768D01*
X0024946Y0064896D01*
X0024874Y0065004D01*
X0024766Y0065076D01*
X0024638Y0065101D01*
X0024603Y0065101D01*
X0024603Y0065451D01*
X0024638Y0065451D01*
X0024766Y0065476D01*
X0024874Y0065548D01*
X0024946Y0065656D01*
X0024971Y0065784D01*
X0024971Y0067308D01*
X0024946Y0067436D01*
X0024874Y0067544D01*
X0024766Y0067616D01*
X0024638Y0067641D01*
X0024603Y0067641D01*
X0024603Y0067867D01*
X0024603Y0067867D01*
X0024548Y0068145D01*
X0024548Y0068145D01*
X0024390Y0068381D01*
X0024390Y0068381D01*
X0023730Y0069041D01*
X0023494Y0069199D01*
X0023448Y0069208D01*
X0023216Y0069254D01*
X0023216Y0069254D01*
X0014478Y0069254D01*
X0014478Y0069254D01*
X0014246Y0069208D01*
X0014200Y0069199D01*
X0013964Y0069041D01*
X0013964Y0069041D01*
X0013202Y0068279D01*
X0013044Y0068043D01*
X0013038Y0068013D01*
X0012989Y0067765D01*
X0012989Y0067765D01*
X0012989Y0067641D01*
X0012954Y0067641D01*
X0012826Y0067616D01*
X0012718Y0067544D01*
X0012646Y0067436D01*
X0012621Y0067308D01*
X0000402Y0067308D01*
X0000402Y0069700D01*
X0049890Y0069700D01*
X0049890Y0040532D01*
X0050290Y0029970D02*
%LPD*%
G01*
D23*
D26*
X0065276Y0065276D03*
X0055116Y0065276D03*
X0055116Y0034796D03*
X0065276Y0034796D03*
D24*
X0056259Y0059053D03*
X0053719Y0059053D03*
X0056259Y0056513D03*
X0053719Y0056513D03*
X0053719Y0053973D03*
X0056259Y0053973D03*
X0056259Y0051433D03*
X0053719Y0051433D03*
X0053719Y0048893D03*
X0056259Y0048893D03*
X0056259Y0045464D03*
X0053719Y0045464D03*
X0053719Y0042924D03*
X0056259Y0042924D03*
X0056259Y0040384D03*
X0053719Y0040384D03*
X0064920Y0040689D03*
X0067460Y0040689D03*
D17*
X0063244Y0049020D03*
X0061872Y0042010D03*
X0052068Y0048918D03*
X0066597Y0042467D03*
X0067765Y0042416D03*
X0069035Y0042416D03*
X0069289Y0046734D03*
X0069289Y0047648D03*
X0068984Y0048715D03*
X0058367Y0061771D03*
X0061364Y0061720D03*
X0062228Y0038555D03*
X0068476Y0054506D03*
X0067765Y0053795D03*
X0067714Y0054964D03*
X0060653Y0049071D03*
X0058672Y0057910D03*
X0062076Y0047344D03*
X0060260Y0056107D03*
X0064346Y0048868D03*
X0061720Y0051052D03*
X0061060Y0057300D03*
X0065708Y0049106D03*
X0067003Y0045820D03*
X0067161Y0050871D03*
X0066597Y0055726D03*
X0068832Y0053338D03*
X0066952Y0044245D03*
X0067867Y0048106D03*
X0065149Y0045845D03*
X0061009Y0045210D03*
X0062589Y0051806D03*
X0064158Y0058621D03*
D28*
X0053719Y0048893D02*
X0052093Y0048893D01*
X0052093Y0048893D02*
X0052068Y0048918D01*
X0069035Y0042416D02*
X0067765Y0042416D01*
X0068984Y0048715D02*
X0068984Y0047953D01*
X0068984Y0047953D02*
X0069289Y0047648D01*
X0061364Y0061720D02*
X0058418Y0061720D01*
X0058418Y0061720D02*
X0058367Y0061771D01*
D15*
X0067714Y0054964D02*
X0067714Y0053846D01*
X0067714Y0053846D02*
X0067765Y0053795D01*
D17*
X0058672Y0055014D02*
X0058672Y0057910D01*
X0058672Y0053998D02*
X0058672Y0052932D01*
X0058672Y0052932D02*
X0058672Y0050747D01*
X0056259Y0053973D02*
X0057821Y0053973D01*
X0058672Y0053122D02*
X0058672Y0052932D01*
X0057821Y0053973D02*
X0058672Y0053122D01*
X0058672Y0055014D02*
X0058672Y0053998D01*
X0057821Y0053973D02*
X0058672Y0054824D01*
X0058672Y0054824D02*
X0058672Y0055014D01*
X0057821Y0053973D02*
X0057846Y0053998D01*
X0057846Y0053998D02*
X0058672Y0053998D01*
X0053719Y0053973D02*
X0056259Y0053973D01*
X0058672Y0050747D02*
X0058672Y0048702D01*
X0062076Y0047344D02*
X0060030Y0047344D01*
X0060030Y0047344D02*
X0058672Y0048702D01*
X0055421Y0047242D02*
X0057212Y0047242D01*
X0057212Y0047242D02*
X0058672Y0048702D01*
X0053719Y0045540D02*
X0055421Y0047242D01*
X0053719Y0045464D02*
X0053719Y0045540D01*
X0053719Y0042924D02*
X0053719Y0045464D01*
X0053719Y0040384D02*
X0053719Y0042924D01*
D15*
X0063794Y0049985D02*
X0061415Y0049985D01*
X0064346Y0049433D02*
X0063794Y0049985D01*
X0060260Y0055541D02*
X0060260Y0056107D01*
X0064346Y0048868D02*
X0064346Y0049433D01*
X0060260Y0051141D02*
X0060260Y0055541D01*
X0061415Y0049985D02*
X0060260Y0051141D01*
X0061060Y0057300D02*
X0061720Y0056640D01*
X0061720Y0051618D02*
X0061720Y0051052D01*
X0061720Y0056640D02*
X0061720Y0051618D01*
X0056259Y0045464D02*
X0057421Y0045464D01*
X0057421Y0045464D02*
X0058386Y0046429D01*
X0058386Y0046429D02*
X0063597Y0046429D01*
X0063597Y0046429D02*
X0065708Y0048540D01*
X0065708Y0048540D02*
X0065708Y0049106D01*
X0067257Y0050950D02*
X0067054Y0050747D01*
X0066603Y0045420D02*
X0067003Y0045820D01*
X0064108Y0042924D02*
X0066603Y0045420D01*
X0056259Y0042924D02*
X0064108Y0042924D01*
X0067003Y0046385D02*
X0067003Y0045820D01*
X0067054Y0050747D02*
X0067054Y0046436D01*
X0067054Y0046436D02*
X0067003Y0046385D01*
X0067178Y0050871D02*
X0067161Y0050871D01*
X0067257Y0050950D02*
X0067178Y0050871D01*
X0066597Y0055726D02*
X0066597Y0051611D01*
X0066597Y0051611D02*
X0067257Y0050950D01*
X0068432Y0052938D02*
X0068832Y0053338D01*
X0067968Y0052474D02*
X0068432Y0052938D01*
X0067867Y0048671D02*
X0067968Y0048773D01*
X0067867Y0048106D02*
X0067867Y0048671D01*
X0067968Y0048773D02*
X0067968Y0052474D01*
X0067867Y0048106D02*
X0067867Y0045159D01*
X0067867Y0045159D02*
X0067352Y0044645D01*
X0067352Y0044645D02*
X0066952Y0044245D01*
X0066387Y0044245D02*
X0066952Y0044245D01*
X0056259Y0040384D02*
X0062482Y0040384D01*
X0062482Y0040384D02*
X0066343Y0044245D01*
X0066343Y0044245D02*
X0066387Y0044245D01*
D20*
X0064583Y0045845D02*
X0065149Y0045845D01*
X0065549Y0046245D02*
X0065149Y0045845D01*
X0066495Y0050493D02*
X0066495Y0047191D01*
X0061644Y0045845D02*
X0064583Y0045845D01*
X0066495Y0047191D02*
X0065549Y0046245D01*
X0065581Y0051408D02*
X0066495Y0050493D01*
X0061009Y0045210D02*
X0061644Y0045845D01*
X0065581Y0051408D02*
X0065182Y0051806D01*
X0065581Y0051408D02*
X0066343Y0050646D01*
X0065182Y0051806D02*
X0062589Y0051806D01*
D15*
X0064158Y0058621D02*
X0062589Y0057051D01*
X0062589Y0057051D02*
X0062589Y0051806D01*
D12*
G36*
X0069700Y0030372D02*
X0050692Y0030372D01*
X0050692Y0052195D01*
X0052624Y0052195D01*
X0052624Y0050671D01*
X0052649Y0050543D01*
X0052721Y0050435D01*
X0052829Y0050363D01*
X0052957Y0050338D01*
X0054481Y0050338D01*
X0054609Y0050363D01*
X0054717Y0050435D01*
X0054789Y0050543D01*
X0054814Y0050671D01*
X0054814Y0052195D01*
X0055164Y0052195D01*
X0055164Y0050671D01*
X0055189Y0050543D01*
X0055261Y0050435D01*
X0055369Y0050363D01*
X0055497Y0050338D01*
X0057021Y0050338D01*
X0057149Y0050363D01*
X0057257Y0050435D01*
X0057329Y0050543D01*
X0057354Y0050671D01*
X0057354Y0052195D01*
X0057329Y0052323D01*
X0057257Y0052431D01*
X0057149Y0052503D01*
X0057021Y0052528D01*
X0055497Y0052528D01*
X0055369Y0052503D01*
X0055261Y0052431D01*
X0055189Y0052323D01*
X0055164Y0052195D01*
X0054814Y0052195D01*
X0054789Y0052323D01*
X0054717Y0052431D01*
X0054609Y0052503D01*
X0054481Y0052528D01*
X0052957Y0052528D01*
X0052829Y0052503D01*
X0052721Y0052431D01*
X0052649Y0052323D01*
X0052624Y0052195D01*
X0050692Y0052195D01*
X0050692Y0054735D01*
X0052624Y0054735D01*
X0052624Y0053211D01*
X0052649Y0053083D01*
X0052721Y0052975D01*
X0052829Y0052903D01*
X0052957Y0052878D01*
X0054481Y0052878D01*
X0054609Y0052903D01*
X0054717Y0052975D01*
X0054789Y0053083D01*
X0054814Y0053211D01*
X0054814Y0053246D01*
X0055164Y0053246D01*
X0055164Y0053211D01*
X0055189Y0053083D01*
X0055261Y0052975D01*
X0055369Y0052903D01*
X0055497Y0052878D01*
X0057021Y0052878D01*
X0057149Y0052903D01*
X0057257Y0052975D01*
X0057329Y0053083D01*
X0057354Y0053211D01*
X0057354Y0053246D01*
X0057520Y0053246D01*
X0057945Y0052821D01*
X0057945Y0049003D01*
X0056911Y0047969D01*
X0055421Y0047969D01*
X0055421Y0047969D01*
X0055189Y0047923D01*
X0055143Y0047914D01*
X0054907Y0047756D01*
X0054907Y0047756D01*
X0053710Y0046559D01*
X0052957Y0046559D01*
X0052829Y0046534D01*
X0052721Y0046462D01*
X0052649Y0046354D01*
X0052624Y0046226D01*
X0052624Y0044702D01*
X0052649Y0044574D01*
X0052721Y0044466D01*
X0052829Y0044394D01*
X0052957Y0044369D01*
X0052992Y0044369D01*
X0052992Y0044019D01*
X0052957Y0044019D01*
X0052829Y0043994D01*
X0052721Y0043922D01*
X0052649Y0043814D01*
X0052624Y0043686D01*
X0052624Y0042162D01*
X0052649Y0042034D01*
X0052721Y0041926D01*
X0052829Y0041854D01*
X0052957Y0041829D01*
X0052992Y0041829D01*
X0052992Y0041479D01*
X0052957Y0041479D01*
X0052829Y0041454D01*
X0052721Y0041382D01*
X0052649Y0041274D01*
X0052624Y0041146D01*
X0052624Y0039622D01*
X0052649Y0039494D01*
X0052721Y0039386D01*
X0052829Y0039314D01*
X0052957Y0039289D01*
X0054481Y0039289D01*
X0054609Y0039314D01*
X0054717Y0039386D01*
X0054789Y0039494D01*
X0054814Y0039622D01*
X0054814Y0041146D01*
X0054789Y0041274D01*
X0054717Y0041382D01*
X0054609Y0041454D01*
X0054481Y0041479D01*
X0054446Y0041479D01*
X0054446Y0041829D01*
X0054481Y0041829D01*
X0054609Y0041854D01*
X0054717Y0041926D01*
X0054789Y0042034D01*
X0054814Y0042162D01*
X0054814Y0043686D01*
X0054789Y0043814D01*
X0054717Y0043922D01*
X0054609Y0043994D01*
X0054481Y0044019D01*
X0054446Y0044019D01*
X0054446Y0044369D01*
X0054481Y0044369D01*
X0054609Y0044394D01*
X0054717Y0044466D01*
X0054789Y0044574D01*
X0054814Y0044702D01*
X0054814Y0045607D01*
X0055164Y0045957D01*
X0055164Y0044702D01*
X0055189Y0044574D01*
X0055261Y0044466D01*
X0055369Y0044394D01*
X0055497Y0044369D01*
X0057021Y0044369D01*
X0057149Y0044394D01*
X0057257Y0044466D01*
X0057329Y0044574D01*
X0057354Y0044702D01*
X0057354Y0044937D01*
X0057421Y0044937D01*
X0057623Y0044977D01*
X0057794Y0045091D01*
X0058604Y0045902D01*
X0060780Y0045902D01*
X0060598Y0045827D01*
X0060393Y0045622D01*
X0060282Y0045355D01*
X0060282Y0045066D01*
X0060392Y0044799D01*
X0060596Y0044594D01*
X0060864Y0044483D01*
X0061153Y0044483D01*
X0061420Y0044593D01*
X0061625Y0044798D01*
X0061736Y0045065D01*
X0061736Y0045262D01*
X0061841Y0045368D01*
X0064598Y0045368D01*
X0064737Y0045229D01*
X0065004Y0045118D01*
X0065293Y0045118D01*
X0065560Y0045228D01*
X0065765Y0045433D01*
X0065876Y0045700D01*
X0065876Y0045897D01*
X0066504Y0046526D01*
X0066502Y0046515D01*
X0066476Y0046385D01*
X0066476Y0046321D01*
X0066387Y0046232D01*
X0066276Y0045965D01*
X0066276Y0045838D01*
X0063889Y0043451D01*
X0057354Y0043451D01*
X0057354Y0043686D01*
X0057329Y0043814D01*
X0057257Y0043922D01*
X0057149Y0043994D01*
X0057021Y0044019D01*
X0055497Y0044019D01*
X0055369Y0043994D01*
X0055261Y0043922D01*
X0055189Y0043814D01*
X0055164Y0043686D01*
X0055164Y0042162D01*
X0055189Y0042034D01*
X0055261Y0041926D01*
X0055369Y0041854D01*
X0055497Y0041829D01*
X0057021Y0041829D01*
X0057149Y0041854D01*
X0057257Y0041926D01*
X0057329Y0042034D01*
X0057354Y0042162D01*
X0057354Y0042397D01*
X0063750Y0042397D01*
X0062264Y0040911D01*
X0057354Y0040911D01*
X0057354Y0041146D01*
X0057329Y0041274D01*
X0057257Y0041382D01*
X0057149Y0041454D01*
X0057021Y0041479D01*
X0055497Y0041479D01*
X0055369Y0041454D01*
X0055261Y0041382D01*
X0055189Y0041274D01*
X0055164Y0041146D01*
X0055164Y0039622D01*
X0055189Y0039494D01*
X0055261Y0039386D01*
X0055369Y0039314D01*
X0055497Y0039289D01*
X0057021Y0039289D01*
X0057149Y0039314D01*
X0057257Y0039386D01*
X0057329Y0039494D01*
X0057354Y0039622D01*
X0057354Y0039857D01*
X0062482Y0039857D01*
X0062684Y0039897D01*
X0062855Y0040011D01*
X0063825Y0040982D01*
X0063825Y0039927D01*
X0063850Y0039799D01*
X0063923Y0039691D01*
X0064031Y0039619D01*
X0064158Y0039593D01*
X0065682Y0039593D01*
X0065810Y0039619D01*
X0065918Y0039691D01*
X0065990Y0039799D01*
X0066016Y0039927D01*
X0066016Y0041451D01*
X0066365Y0041451D01*
X0066365Y0039927D01*
X0066390Y0039799D01*
X0066463Y0039691D01*
X0066571Y0039619D01*
X0066698Y0039593D01*
X0068222Y0039593D01*
X0068350Y0039619D01*
X0068458Y0039691D01*
X0068530Y0039799D01*
X0068556Y0039927D01*
X0068556Y0041451D01*
X0068530Y0041578D01*
X0068458Y0041687D01*
X0068350Y0041759D01*
X0068222Y0041784D01*
X0066698Y0041784D01*
X0066571Y0041759D01*
X0066463Y0041687D01*
X0066390Y0041578D01*
X0066365Y0041451D01*
X0066016Y0041451D01*
X0065990Y0041578D01*
X0065918Y0041687D01*
X0065810Y0041759D01*
X0065682Y0041784D01*
X0064627Y0041784D01*
X0066506Y0043663D01*
X0066540Y0043629D01*
X0066807Y0043518D01*
X0067096Y0043518D01*
X0067364Y0043628D01*
X0067568Y0043832D01*
X0067679Y0044100D01*
X0067679Y0044226D01*
X0068239Y0044787D01*
X0068354Y0044958D01*
X0068394Y0045159D01*
X0068394Y0047604D01*
X0068483Y0047693D01*
X0068594Y0047960D01*
X0068594Y0048250D01*
X0068483Y0048517D01*
X0068445Y0048556D01*
X0068455Y0048571D01*
X0068495Y0048773D01*
X0068495Y0052256D01*
X0068850Y0052611D01*
X0068976Y0052611D01*
X0069243Y0052721D01*
X0069448Y0052926D01*
X0069559Y0053193D01*
X0069559Y0053482D01*
X0069449Y0053749D01*
X0069244Y0053954D01*
X0068977Y0054065D01*
X0068688Y0054065D01*
X0068421Y0053955D01*
X0068216Y0053750D01*
X0068105Y0053483D01*
X0068105Y0053356D01*
X0067596Y0052847D01*
X0067482Y0052676D01*
X0067482Y0052676D01*
X0067441Y0052474D01*
X0067441Y0051542D01*
X0067389Y0051564D01*
X0067124Y0051829D01*
X0067124Y0055224D01*
X0067213Y0055313D01*
X0067324Y0055580D01*
X0067324Y0055870D01*
X0067213Y0056137D01*
X0067009Y0056342D01*
X0066742Y0056452D01*
X0066453Y0056453D01*
X0066186Y0056342D01*
X0065981Y0056138D01*
X0065870Y0055871D01*
X0065870Y0055582D01*
X0065980Y0055314D01*
X0066070Y0055224D01*
X0066070Y0051611D01*
X0066074Y0051589D01*
X0065520Y0052143D01*
X0065365Y0052247D01*
X0065182Y0052283D01*
X0063140Y0052283D01*
X0063116Y0052307D01*
X0063116Y0056833D01*
X0064177Y0057894D01*
X0064302Y0057894D01*
X0064570Y0058005D01*
X0064774Y0058209D01*
X0064885Y0058476D01*
X0064886Y0058765D01*
X0064775Y0059032D01*
X0064571Y0059237D01*
X0064304Y0059348D01*
X0064014Y0059348D01*
X0063747Y0059238D01*
X0063542Y0059034D01*
X0063432Y0058766D01*
X0063431Y0058640D01*
X0062216Y0057424D01*
X0062102Y0057253D01*
X0062062Y0057051D01*
X0062062Y0057044D01*
X0061787Y0057319D01*
X0061787Y0057444D01*
X0061676Y0057712D01*
X0061472Y0057916D01*
X0061205Y0058027D01*
X0060916Y0058028D01*
X0060648Y0057917D01*
X0060444Y0057713D01*
X0060333Y0057446D01*
X0060332Y0057156D01*
X0060443Y0056889D01*
X0060565Y0056767D01*
X0060405Y0056833D01*
X0060116Y0056834D01*
X0059848Y0056723D01*
X0059644Y0056519D01*
X0059533Y0056252D01*
X0059532Y0055963D01*
X0059643Y0055695D01*
X0059733Y0055605D01*
X0059733Y0051141D01*
X0059773Y0050939D01*
X0059887Y0050768D01*
X0061043Y0049613D01*
X0061157Y0049536D01*
X0061214Y0049498D01*
X0061415Y0049458D01*
X0063576Y0049458D01*
X0063742Y0049292D01*
X0063730Y0049280D01*
X0063619Y0049013D01*
X0063619Y0048724D01*
X0063729Y0048456D01*
X0063934Y0048252D01*
X0064201Y0048141D01*
X0064490Y0048140D01*
X0064614Y0048192D01*
X0063379Y0046956D01*
X0062702Y0046956D01*
X0062802Y0047198D01*
X0062803Y0047488D01*
X0062692Y0047755D01*
X0062488Y0047960D01*
X0062221Y0048070D01*
X0061932Y0048071D01*
X0061931Y0048071D01*
X0060332Y0048071D01*
X0059399Y0049003D01*
X0059399Y0053122D01*
X0059399Y0053122D01*
X0059399Y0053122D01*
X0059399Y0054824D01*
X0059399Y0054824D01*
X0059399Y0054824D01*
X0059399Y0057909D01*
X0059399Y0058054D01*
X0059289Y0058321D01*
X0059084Y0058526D01*
X0058817Y0058637D01*
X0058528Y0058637D01*
X0058261Y0058527D01*
X0058056Y0058322D01*
X0057945Y0058055D01*
X0057945Y0057766D01*
X0057945Y0057766D01*
X0057945Y0055125D01*
X0057520Y0054700D01*
X0057354Y0054700D01*
X0057354Y0054735D01*
X0057329Y0054863D01*
X0057257Y0054971D01*
X0057149Y0055043D01*
X0057021Y0055068D01*
X0055497Y0055068D01*
X0055369Y0055043D01*
X0055261Y0054971D01*
X0055189Y0054863D01*
X0055164Y0054735D01*
X0055164Y0054700D01*
X0054814Y0054700D01*
X0054814Y0054735D01*
X0054789Y0054863D01*
X0054717Y0054971D01*
X0054609Y0055043D01*
X0054481Y0055068D01*
X0052957Y0055068D01*
X0052829Y0055043D01*
X0052721Y0054971D01*
X0052649Y0054863D01*
X0052624Y0054735D01*
X0050692Y0054735D01*
X0050692Y0057275D01*
X0052624Y0057275D01*
X0052624Y0055751D01*
X0052649Y0055623D01*
X0052721Y0055515D01*
X0052829Y0055443D01*
X0052957Y0055418D01*
X0054481Y0055418D01*
X0054609Y0055443D01*
X0054717Y0055515D01*
X0054789Y0055623D01*
X0054814Y0055751D01*
X0054814Y0057275D01*
X0055164Y0057275D01*
X0055164Y0055751D01*
X0055189Y0055623D01*
X0055261Y0055515D01*
X0055369Y0055443D01*
X0055497Y0055418D01*
X0057021Y0055418D01*
X0057149Y0055443D01*
X0057257Y0055515D01*
X0057329Y0055623D01*
X0057354Y0055751D01*
X0057354Y0057275D01*
X0057329Y0057403D01*
X0057257Y0057511D01*
X0057149Y0057583D01*
X0057021Y0057608D01*
X0055497Y0057608D01*
X0055369Y0057583D01*
X0055261Y0057511D01*
X0055189Y0057403D01*
X0055164Y0057275D01*
X0054814Y0057275D01*
X0054789Y0057403D01*
X0054717Y0057511D01*
X0054609Y0057583D01*
X0054481Y0057608D01*
X0052957Y0057608D01*
X0052829Y0057583D01*
X0052721Y0057511D01*
X0052649Y0057403D01*
X0052624Y0057275D01*
X0050692Y0057275D01*
X0050692Y0069700D01*
X0069700Y0069700D01*
X0069700Y0030372D01*
X0069700Y0030372D01*
G37*
X0069700Y0030372D02*
X0050692Y0030372D01*
X0050692Y0052195D01*
X0052624Y0052195D01*
X0052624Y0050671D01*
X0052649Y0050543D01*
X0052721Y0050435D01*
X0052829Y0050363D01*
X0052957Y0050338D01*
X0054481Y0050338D01*
X0054609Y0050363D01*
X0054717Y0050435D01*
X0054789Y0050543D01*
X0054814Y0050671D01*
X0054814Y0052195D01*
X0055164Y0052195D01*
X0055164Y0050671D01*
X0055189Y0050543D01*
X0055261Y0050435D01*
X0055369Y0050363D01*
X0055497Y0050338D01*
X0057021Y0050338D01*
X0057149Y0050363D01*
X0057257Y0050435D01*
X0057329Y0050543D01*
X0057354Y0050671D01*
X0057354Y0052195D01*
X0057329Y0052323D01*
X0057257Y0052431D01*
X0057149Y0052503D01*
X0057021Y0052528D01*
X0055497Y0052528D01*
X0055369Y0052503D01*
X0055261Y0052431D01*
X0055189Y0052323D01*
X0055164Y0052195D01*
X0054814Y0052195D01*
X0054789Y0052323D01*
X0054717Y0052431D01*
X0054609Y0052503D01*
X0054481Y0052528D01*
X0052957Y0052528D01*
X0052829Y0052503D01*
X0052721Y0052431D01*
X0052649Y0052323D01*
X0052624Y0052195D01*
X0050692Y0052195D01*
X0050692Y0054735D01*
X0052624Y0054735D01*
X0052624Y0053211D01*
X0052649Y0053083D01*
X0052721Y0052975D01*
X0052829Y0052903D01*
X0052957Y0052878D01*
X0054481Y0052878D01*
X0054609Y0052903D01*
X0054717Y0052975D01*
X0054789Y0053083D01*
X0054814Y0053211D01*
X0054814Y0053246D01*
X0055164Y0053246D01*
X0055164Y0053211D01*
X0055189Y0053083D01*
X0055261Y0052975D01*
X0055369Y0052903D01*
X0055497Y0052878D01*
X0057021Y0052878D01*
X0057149Y0052903D01*
X0057257Y0052975D01*
X0057329Y0053083D01*
X0057354Y0053211D01*
X0057354Y0053246D01*
X0057520Y0053246D01*
X0057945Y0052821D01*
X0057945Y0049003D01*
X0056911Y0047969D01*
X0055421Y0047969D01*
X0055421Y0047969D01*
X0055189Y0047923D01*
X0055143Y0047914D01*
X0054907Y0047756D01*
X0054907Y0047756D01*
X0053710Y0046559D01*
X0052957Y0046559D01*
X0052829Y0046534D01*
X0052721Y0046462D01*
X0052649Y0046354D01*
X0052624Y0046226D01*
X0052624Y0044702D01*
X0052649Y0044574D01*
X0052721Y0044466D01*
X0052829Y0044394D01*
X0052957Y0044369D01*
X0052992Y0044369D01*
X0052992Y0044019D01*
X0052957Y0044019D01*
X0052829Y0043994D01*
X0052721Y0043922D01*
X0052649Y0043814D01*
X0052624Y0043686D01*
X0052624Y0042162D01*
X0052649Y0042034D01*
X0052721Y0041926D01*
X0052829Y0041854D01*
X0052957Y0041829D01*
X0052992Y0041829D01*
X0052992Y0041479D01*
X0052957Y0041479D01*
X0052829Y0041454D01*
X0052721Y0041382D01*
X0052649Y0041274D01*
X0052624Y0041146D01*
X0052624Y0039622D01*
X0052649Y0039494D01*
X0052721Y0039386D01*
X0052829Y0039314D01*
X0052957Y0039289D01*
X0054481Y0039289D01*
X0054609Y0039314D01*
X0054717Y0039386D01*
X0054789Y0039494D01*
X0054814Y0039622D01*
X0054814Y0041146D01*
X0054789Y0041274D01*
X0054717Y0041382D01*
X0054609Y0041454D01*
X0054481Y0041479D01*
X0054446Y0041479D01*
X0054446Y0041829D01*
X0054481Y0041829D01*
X0054609Y0041854D01*
X0054717Y0041926D01*
X0054789Y0042034D01*
X0054814Y0042162D01*
X0054814Y0043686D01*
X0054789Y0043814D01*
X0054717Y0043922D01*
X0054609Y0043994D01*
X0054481Y0044019D01*
X0054446Y0044019D01*
X0054446Y0044369D01*
X0054481Y0044369D01*
X0054609Y0044394D01*
X0054717Y0044466D01*
X0054789Y0044574D01*
X0054814Y0044702D01*
X0054814Y0045607D01*
X0055164Y0045957D01*
X0055164Y0044702D01*
X0055189Y0044574D01*
X0055261Y0044466D01*
X0055369Y0044394D01*
X0055497Y0044369D01*
X0057021Y0044369D01*
X0057149Y0044394D01*
X0057257Y0044466D01*
X0057329Y0044574D01*
X0057354Y0044702D01*
X0057354Y0044937D01*
X0057421Y0044937D01*
X0057623Y0044977D01*
X0057794Y0045091D01*
X0058604Y0045902D01*
X0060780Y0045902D01*
X0060598Y0045827D01*
X0060393Y0045622D01*
X0060282Y0045355D01*
X0060282Y0045066D01*
X0060392Y0044799D01*
X0060596Y0044594D01*
X0060864Y0044483D01*
X0061153Y0044483D01*
X0061420Y0044593D01*
X0061625Y0044798D01*
X0061736Y0045065D01*
X0061736Y0045262D01*
X0061841Y0045368D01*
X0064598Y0045368D01*
X0064737Y0045229D01*
X0065004Y0045118D01*
X0065293Y0045118D01*
X0065560Y0045228D01*
X0065765Y0045433D01*
X0065876Y0045700D01*
X0065876Y0045897D01*
X0066504Y0046526D01*
X0066502Y0046515D01*
X0066476Y0046385D01*
X0066476Y0046321D01*
X0066387Y0046232D01*
X0066276Y0045965D01*
X0066276Y0045838D01*
X0063889Y0043451D01*
X0057354Y0043451D01*
X0057354Y0043686D01*
X0057329Y0043814D01*
X0057257Y0043922D01*
X0057149Y0043994D01*
X0057021Y0044019D01*
X0055497Y0044019D01*
X0055369Y0043994D01*
X0055261Y0043922D01*
X0055189Y0043814D01*
X0055164Y0043686D01*
X0055164Y0042162D01*
X0055189Y0042034D01*
X0055261Y0041926D01*
X0055369Y0041854D01*
X0055497Y0041829D01*
X0057021Y0041829D01*
X0057149Y0041854D01*
X0057257Y0041926D01*
X0057329Y0042034D01*
X0057354Y0042162D01*
X0057354Y0042397D01*
X0063750Y0042397D01*
X0062264Y0040911D01*
X0057354Y0040911D01*
X0057354Y0041146D01*
X0057329Y0041274D01*
X0057257Y0041382D01*
X0057149Y0041454D01*
X0057021Y0041479D01*
X0055497Y0041479D01*
X0055369Y0041454D01*
X0055261Y0041382D01*
X0055189Y0041274D01*
X0055164Y0041146D01*
X0055164Y0039622D01*
X0055189Y0039494D01*
X0055261Y0039386D01*
X0055369Y0039314D01*
X0055497Y0039289D01*
X0057021Y0039289D01*
X0057149Y0039314D01*
X0057257Y0039386D01*
X0057329Y0039494D01*
X0057354Y0039622D01*
X0057354Y0039857D01*
X0062482Y0039857D01*
X0062684Y0039897D01*
X0062855Y0040011D01*
X0063825Y0040982D01*
X0063825Y0039927D01*
X0063850Y0039799D01*
X0063923Y0039691D01*
X0064031Y0039619D01*
X0064158Y0039593D01*
X0065682Y0039593D01*
X0065810Y0039619D01*
X0065918Y0039691D01*
X0065990Y0039799D01*
X0066016Y0039927D01*
X0066016Y0041451D01*
X0066365Y0041451D01*
X0066365Y0039927D01*
X0066390Y0039799D01*
X0066463Y0039691D01*
X0066571Y0039619D01*
X0066698Y0039593D01*
X0068222Y0039593D01*
X0068350Y0039619D01*
X0068458Y0039691D01*
X0068530Y0039799D01*
X0068556Y0039927D01*
X0068556Y0041451D01*
X0068530Y0041578D01*
X0068458Y0041687D01*
X0068350Y0041759D01*
X0068222Y0041784D01*
X0066698Y0041784D01*
X0066571Y0041759D01*
X0066463Y0041687D01*
X0066390Y0041578D01*
X0066365Y0041451D01*
X0066016Y0041451D01*
X0065990Y0041578D01*
X0065918Y0041687D01*
X0065810Y0041759D01*
X0065682Y0041784D01*
X0064627Y0041784D01*
X0066506Y0043663D01*
X0066540Y0043629D01*
X0066807Y0043518D01*
X0067096Y0043518D01*
X0067364Y0043628D01*
X0067568Y0043832D01*
X0067679Y0044100D01*
X0067679Y0044226D01*
X0068239Y0044787D01*
X0068354Y0044958D01*
X0068394Y0045159D01*
X0068394Y0047604D01*
X0068483Y0047693D01*
X0068594Y0047960D01*
X0068594Y0048250D01*
X0068483Y0048517D01*
X0068445Y0048556D01*
X0068455Y0048571D01*
X0068495Y0048773D01*
X0068495Y0052256D01*
X0068850Y0052611D01*
X0068976Y0052611D01*
X0069243Y0052721D01*
X0069448Y0052926D01*
X0069559Y0053193D01*
X0069559Y0053482D01*
X0069449Y0053749D01*
X0069244Y0053954D01*
X0068977Y0054065D01*
X0068688Y0054065D01*
X0068421Y0053955D01*
X0068216Y0053750D01*
X0068105Y0053483D01*
X0068105Y0053356D01*
X0067596Y0052847D01*
X0067482Y0052676D01*
X0067482Y0052676D01*
X0067441Y0052474D01*
X0067441Y0051542D01*
X0067389Y0051564D01*
X0067124Y0051829D01*
X0067124Y0055224D01*
X0067213Y0055313D01*
X0067324Y0055580D01*
X0067324Y0055870D01*
X0067213Y0056137D01*
X0067009Y0056342D01*
X0066742Y0056452D01*
X0066453Y0056453D01*
X0066186Y0056342D01*
X0065981Y0056138D01*
X0065870Y0055871D01*
X0065870Y0055582D01*
X0065980Y0055314D01*
X0066070Y0055224D01*
X0066070Y0051611D01*
X0066074Y0051589D01*
X0065520Y0052143D01*
X0065365Y0052247D01*
X0065182Y0052283D01*
X0063140Y0052283D01*
X0063116Y0052307D01*
X0063116Y0056833D01*
X0064177Y0057894D01*
X0064302Y0057894D01*
X0064570Y0058005D01*
X0064774Y0058209D01*
X0064885Y0058476D01*
X0064886Y0058765D01*
X0064775Y0059032D01*
X0064571Y0059237D01*
X0064304Y0059348D01*
X0064014Y0059348D01*
X0063747Y0059238D01*
X0063542Y0059034D01*
X0063432Y0058766D01*
X0063431Y0058640D01*
X0062216Y0057424D01*
X0062102Y0057253D01*
X0062062Y0057051D01*
X0062062Y0057044D01*
X0061787Y0057319D01*
X0061787Y0057444D01*
X0061676Y0057712D01*
X0061472Y0057916D01*
X0061205Y0058027D01*
X0060916Y0058028D01*
X0060648Y0057917D01*
X0060444Y0057713D01*
X0060333Y0057446D01*
X0060332Y0057156D01*
X0060443Y0056889D01*
X0060565Y0056767D01*
X0060405Y0056833D01*
X0060116Y0056834D01*
X0059848Y0056723D01*
X0059644Y0056519D01*
X0059533Y0056252D01*
X0059532Y0055963D01*
X0059643Y0055695D01*
X0059733Y0055605D01*
X0059733Y0051141D01*
X0059773Y0050939D01*
X0059887Y0050768D01*
X0061043Y0049613D01*
X0061157Y0049536D01*
X0061214Y0049498D01*
X0061415Y0049458D01*
X0063576Y0049458D01*
X0063742Y0049292D01*
X0063730Y0049280D01*
X0063619Y0049013D01*
X0063619Y0048724D01*
X0063729Y0048456D01*
X0063934Y0048252D01*
X0064201Y0048141D01*
X0064490Y0048140D01*
X0064614Y0048192D01*
X0063379Y0046956D01*
X0062702Y0046956D01*
X0062802Y0047198D01*
X0062803Y0047488D01*
X0062692Y0047755D01*
X0062488Y0047960D01*
X0062221Y0048070D01*
X0061932Y0048071D01*
X0061931Y0048071D01*
X0060332Y0048071D01*
X0059399Y0049003D01*
X0059399Y0053122D01*
X0059399Y0053122D01*
X0059399Y0053122D01*
X0059399Y0054824D01*
X0059399Y0054824D01*
X0059399Y0054824D01*
X0059399Y0057909D01*
X0059399Y0058054D01*
X0059289Y0058321D01*
X0059084Y0058526D01*
X0058817Y0058637D01*
X0058528Y0058637D01*
X0058261Y0058527D01*
X0058056Y0058322D01*
X0057945Y0058055D01*
X0057945Y0057766D01*
X0057945Y0057766D01*
X0057945Y0055125D01*
X0057520Y0054700D01*
X0057354Y0054700D01*
X0057354Y0054735D01*
X0057329Y0054863D01*
X0057257Y0054971D01*
X0057149Y0055043D01*
X0057021Y0055068D01*
X0055497Y0055068D01*
X0055369Y0055043D01*
X0055261Y0054971D01*
X0055189Y0054863D01*
X0055164Y0054735D01*
X0055164Y0054700D01*
X0054814Y0054700D01*
X0054814Y0054735D01*
X0054789Y0054863D01*
X0054717Y0054971D01*
X0054609Y0055043D01*
X0054481Y0055068D01*
X0052957Y0055068D01*
X0052829Y0055043D01*
X0052721Y0054971D01*
X0052649Y0054863D01*
X0052624Y0054735D01*
X0050692Y0054735D01*
X0050692Y0057275D01*
X0052624Y0057275D01*
X0052624Y0055751D01*
X0052649Y0055623D01*
X0052721Y0055515D01*
X0052829Y0055443D01*
X0052957Y0055418D01*
X0054481Y0055418D01*
X0054609Y0055443D01*
X0054717Y0055515D01*
X0054789Y0055623D01*
X0054814Y0055751D01*
X0054814Y0057275D01*
X0055164Y0057275D01*
X0055164Y0055751D01*
X0055189Y0055623D01*
X0055261Y0055515D01*
X0055369Y0055443D01*
X0055497Y0055418D01*
X0057021Y0055418D01*
X0057149Y0055443D01*
X0057257Y0055515D01*
X0057329Y0055623D01*
X0057354Y0055751D01*
X0057354Y0057275D01*
X0057329Y0057403D01*
X0057257Y0057511D01*
X0057149Y0057583D01*
X0057021Y0057608D01*
X0055497Y0057608D01*
X0055369Y0057583D01*
X0055261Y0057511D01*
X0055189Y0057403D01*
X0055164Y0057275D01*
X0054814Y0057275D01*
X0054789Y0057403D01*
X0054717Y0057511D01*
X0054609Y0057583D01*
X0054481Y0057608D01*
X0052957Y0057608D01*
X0052829Y0057583D01*
X0052721Y0057511D01*
X0052649Y0057403D01*
X0052624Y0057275D01*
X0050692Y0057275D01*
X0050692Y0069700D01*
X0069700Y0069700D01*
X0069700Y0030372D01*
M02*
