G75*
G71*
%MOMM*%
%OFA0B0*%
%FSLAX53Y53*%
%IPPOS*%
%LPD*%
%ADD23C,0.15000*%
X0000000Y0000000D02*
%LPD*%
G01*
D23*
G36*
X0005162Y0008024D02*
X0005777Y0007898D01*
X0006355Y0007655D01*
X0006876Y0007304D01*
X0007318Y0006858D01*
X0007665Y0006336D01*
X0007904Y0005755D01*
X0008026Y0005140D01*
X0008026Y0005140D01*
X0008026Y0005140D01*
X0008016Y0004423D01*
X0008016Y0004422D01*
X0008016Y0004422D01*
X0007877Y0003811D01*
X0007622Y0003238D01*
X0007260Y0002725D01*
X0006806Y0002292D01*
X0006276Y0001956D01*
X0005691Y0001729D01*
X0005073Y0001620D01*
X0004445Y0001633D01*
X0003832Y0001768D01*
X0003257Y0002019D01*
X0002742Y0002377D01*
X0002306Y0002829D01*
X0001966Y0003356D01*
X0001735Y0003940D01*
X0001622Y0004557D01*
X0001631Y0005184D01*
X0001761Y0005798D01*
X0002008Y0006375D01*
X0002363Y0006893D01*
X0002811Y0007332D01*
X0003336Y0007676D01*
X0003918Y0007911D01*
X0004535Y0008028D01*
X0005162Y0008024D01*
X0005162Y0008024D01*
G37*
G36*
X0015322Y0008024D02*
X0015937Y0007898D01*
X0016515Y0007655D01*
X0017036Y0007304D01*
X0017478Y0006858D01*
X0017825Y0006336D01*
X0018064Y0005755D01*
X0018186Y0005140D01*
X0018186Y0005140D01*
X0018186Y0005140D01*
X0018176Y0004423D01*
X0018176Y0004422D01*
X0018176Y0004422D01*
X0018037Y0003811D01*
X0017782Y0003238D01*
X0017420Y0002725D01*
X0016966Y0002292D01*
X0016436Y0001956D01*
X0015851Y0001729D01*
X0015233Y0001620D01*
X0014605Y0001633D01*
X0013992Y0001768D01*
X0013417Y0002019D01*
X0012902Y0002377D01*
X0012466Y0002829D01*
X0012126Y0003356D01*
X0011895Y0003940D01*
X0011782Y0004557D01*
X0011791Y0005184D01*
X0011921Y0005798D01*
X0012168Y0006375D01*
X0012523Y0006893D01*
X0012971Y0007332D01*
X0013496Y0007676D01*
X0014078Y0007911D01*
X0014695Y0008028D01*
X0015322Y0008024D01*
X0015322Y0008024D01*
G37*
G36*
X0011059Y0007382D02*
X0009770Y0007382D01*
X0009770Y0009179D01*
X0011059Y0009179D01*
X0011059Y0007382D01*
X0011059Y0007382D01*
G37*
G36*
X0009154Y0007382D02*
X0007865Y0007382D01*
X0007865Y0009179D01*
X0009154Y0009179D01*
X0009154Y0007382D01*
X0009154Y0007382D01*
G37*
G36*
X0009154Y0011311D02*
X0009155Y0011291D01*
X0009161Y0011273D01*
X0009170Y0011255D01*
X0009179Y0011245D01*
X0009179Y0009414D01*
X0007890Y0009414D01*
X0007890Y0011244D01*
X0007888Y0011264D01*
X0007882Y0011283D01*
X0007873Y0011300D01*
X0007865Y0011310D01*
X0007865Y0013141D01*
X0009154Y0013141D01*
X0009154Y0011311D01*
X0009154Y0011311D01*
G37*
G36*
X0011059Y0011311D02*
X0011060Y0011291D01*
X0011066Y0011273D01*
X0011075Y0011255D01*
X0011084Y0011245D01*
X0011084Y0009414D01*
X0009795Y0009414D01*
X0009795Y0011244D01*
X0009793Y0011264D01*
X0009787Y0011283D01*
X0009778Y0011300D01*
X0009770Y0011310D01*
X0009770Y0013141D01*
X0011059Y0013141D01*
X0011059Y0011311D01*
X0011059Y0011311D01*
G37*
G36*
X0004391Y0009452D02*
X0002467Y0009452D01*
X0002467Y0011376D01*
X0004391Y0011376D01*
X0004391Y0009452D01*
X0004391Y0009452D01*
G37*
G36*
X0006931Y0009452D02*
X0005007Y0009452D01*
X0005007Y0011376D01*
X0006931Y0011376D01*
X0006931Y0009452D01*
X0006931Y0009452D01*
G37*
G36*
X0018132Y0009757D02*
X0016208Y0009757D01*
X0016208Y0011681D01*
X0018132Y0011681D01*
X0018132Y0009757D01*
X0018132Y0009757D01*
G37*
G36*
X0015592Y0009757D02*
X0013668Y0009757D01*
X0013668Y0011681D01*
X0015592Y0011681D01*
X0015592Y0009757D01*
X0015592Y0009757D01*
G37*
G36*
X0006931Y0011992D02*
X0005007Y0011992D01*
X0005007Y0013916D01*
X0006931Y0013916D01*
X0006931Y0011992D01*
X0006931Y0011992D01*
G37*
G36*
X0004391Y0011992D02*
X0002467Y0011992D01*
X0002467Y0013916D01*
X0004391Y0013916D01*
X0004391Y0011992D01*
X0004391Y0011992D01*
G37*
G36*
X0019318Y0013230D02*
X0017468Y0013230D01*
X0017468Y0016030D01*
X0019318Y0016030D01*
X0019318Y0013230D01*
X0019318Y0013230D01*
G37*
G36*
X0013418Y0013230D02*
X0011568Y0013230D01*
X0011568Y0016030D01*
X0013418Y0016030D01*
X0013418Y0013230D01*
X0013418Y0013230D01*
G37*
G36*
X0006931Y0014532D02*
X0005007Y0014532D01*
X0005007Y0016456D01*
X0006931Y0016456D01*
X0006931Y0014532D01*
X0006931Y0014532D01*
G37*
G36*
X0004391Y0014532D02*
X0002467Y0014532D01*
X0002467Y0016456D01*
X0004391Y0016456D01*
X0004391Y0014532D01*
X0004391Y0014532D01*
G37*
G36*
X0011262Y0016678D02*
X0009973Y0016678D01*
X0009973Y0018475D01*
X0011262Y0018475D01*
X0011262Y0016678D01*
X0011262Y0016678D01*
G37*
G36*
X0009357Y0016678D02*
X0008068Y0016678D01*
X0008068Y0018475D01*
X0009357Y0018475D01*
X0009357Y0016678D01*
X0009357Y0016678D01*
G37*
G36*
X0013726Y0016729D02*
X0012437Y0016729D01*
X0012437Y0018526D01*
X0013726Y0018526D01*
X0013726Y0016729D01*
X0013726Y0016729D01*
G37*
G36*
X0015631Y0016729D02*
X0014342Y0016729D01*
X0014342Y0018526D01*
X0015631Y0018526D01*
X0015631Y0016729D01*
X0015631Y0016729D01*
G37*
G36*
X0006931Y0017961D02*
X0005007Y0017961D01*
X0005007Y0019885D01*
X0006931Y0019885D01*
X0006931Y0017961D01*
X0006931Y0017961D01*
G37*
G36*
X0004391Y0017961D02*
X0002467Y0017961D01*
X0002467Y0019885D01*
X0004391Y0019885D01*
X0004391Y0017961D01*
X0004391Y0017961D01*
G37*
G36*
X0012480Y0018736D02*
X0010380Y0018736D01*
X0010380Y0020436D01*
X0012480Y0020436D01*
X0012480Y0018736D01*
X0012480Y0018736D01*
G37*
G36*
X0014981Y0019326D02*
X0013131Y0019326D01*
X0013131Y0022126D01*
X0014981Y0022126D01*
X0014981Y0019326D01*
X0014981Y0019326D01*
G37*
G36*
X0019381Y0019326D02*
X0017531Y0019326D01*
X0017531Y0022126D01*
X0019381Y0022126D01*
X0019381Y0019326D01*
X0019381Y0019326D01*
G37*
G36*
X0009789Y0020298D02*
X0007992Y0020298D01*
X0007992Y0021587D01*
X0009789Y0021587D01*
X0009789Y0020298D01*
X0009789Y0020298D01*
G37*
G36*
X0006931Y0020501D02*
X0005007Y0020501D01*
X0005007Y0022425D01*
X0006931Y0022425D01*
X0006931Y0020501D01*
X0006931Y0020501D01*
G37*
G36*
X0004391Y0020501D02*
X0002467Y0020501D01*
X0002467Y0022425D01*
X0004391Y0022425D01*
X0004391Y0020501D01*
X0004391Y0020501D01*
G37*
G36*
X0009789Y0022203D02*
X0007992Y0022203D01*
X0007992Y0023492D01*
X0009789Y0023492D01*
X0009789Y0022203D01*
X0009789Y0022203D01*
G37*
G36*
X0012480Y0022236D02*
X0010380Y0022236D01*
X0010380Y0023936D01*
X0012480Y0023936D01*
X0012480Y0022236D01*
X0012480Y0022236D01*
G37*
G36*
X0016989Y0022978D02*
X0015700Y0022978D01*
X0015700Y0024775D01*
X0016989Y0024775D01*
X0016989Y0022978D01*
X0016989Y0022978D01*
G37*
G36*
X0015084Y0022978D02*
X0013795Y0022978D01*
X0013795Y0024775D01*
X0015084Y0024775D01*
X0015084Y0022978D01*
X0015084Y0022978D01*
G37*
G36*
X0004391Y0023041D02*
X0002467Y0023041D01*
X0002467Y0024965D01*
X0004391Y0024965D01*
X0004391Y0023041D01*
X0004391Y0023041D01*
G37*
G36*
X0006931Y0023041D02*
X0005007Y0023041D01*
X0005007Y0024965D01*
X0006931Y0024965D01*
X0006931Y0023041D01*
X0006931Y0023041D01*
G37*
G36*
X0009789Y0023752D02*
X0007992Y0023752D01*
X0007992Y0025041D01*
X0009789Y0025041D01*
X0009789Y0023752D01*
X0009789Y0023752D01*
G37*
G36*
X0004391Y0025581D02*
X0002467Y0025581D01*
X0002467Y0027505D01*
X0004391Y0027505D01*
X0004391Y0025581D01*
X0004391Y0025581D01*
G37*
G36*
X0006931Y0025581D02*
X0005007Y0025581D01*
X0005007Y0027505D01*
X0006931Y0027505D01*
X0006931Y0025581D01*
X0006931Y0025581D01*
G37*
G36*
X0018372Y0026641D02*
X0018372Y0026641D01*
X0018376Y0026641D01*
X0018474Y0026630D01*
X0018568Y0026601D01*
X0018654Y0026553D01*
X0018729Y0026490D01*
X0018791Y0026413D01*
X0018837Y0026326D01*
X0018865Y0026231D01*
X0018865Y0026231D01*
X0018865Y0026231D01*
X0018874Y0026133D01*
X0018863Y0026035D01*
X0018863Y0026035D01*
X0018863Y0026035D01*
X0018834Y0025941D01*
X0018787Y0025854D01*
X0018724Y0025778D01*
X0018648Y0025716D01*
X0018561Y0025670D01*
X0018467Y0025641D01*
X0018369Y0025632D01*
X0017496Y0025632D01*
X0017493Y0025632D01*
X0017493Y0025632D01*
X0017489Y0025632D01*
X0017391Y0025643D01*
X0017297Y0025673D01*
X0017211Y0025720D01*
X0017135Y0025783D01*
X0017074Y0025860D01*
X0017028Y0025947D01*
X0017000Y0026042D01*
X0017000Y0026042D01*
X0017000Y0026042D01*
X0016991Y0026140D01*
X0017002Y0026238D01*
X0017002Y0026238D01*
X0017002Y0026238D01*
X0017031Y0026332D01*
X0017078Y0026419D01*
X0017140Y0026495D01*
X0017217Y0026557D01*
X0017304Y0026603D01*
X0017398Y0026632D01*
X0017496Y0026641D01*
X0018369Y0026641D01*
X0018372Y0026641D01*
X0018372Y0026641D01*
G37*
G36*
X0012784Y0026641D02*
X0012784Y0026641D01*
X0012788Y0026641D01*
X0012886Y0026630D01*
X0012980Y0026601D01*
X0013066Y0026553D01*
X0013141Y0026490D01*
X0013203Y0026413D01*
X0013249Y0026326D01*
X0013277Y0026231D01*
X0013277Y0026231D01*
X0013277Y0026231D01*
X0013286Y0026133D01*
X0013275Y0026035D01*
X0013275Y0026035D01*
X0013275Y0026035D01*
X0013246Y0025941D01*
X0013199Y0025854D01*
X0013136Y0025778D01*
X0013060Y0025716D01*
X0012973Y0025670D01*
X0012879Y0025641D01*
X0012781Y0025632D01*
X0011908Y0025632D01*
X0011905Y0025632D01*
X0011905Y0025632D01*
X0011901Y0025632D01*
X0011803Y0025643D01*
X0011709Y0025673D01*
X0011623Y0025720D01*
X0011547Y0025783D01*
X0011486Y0025860D01*
X0011440Y0025947D01*
X0011412Y0026042D01*
X0011412Y0026042D01*
X0011412Y0026042D01*
X0011403Y0026140D01*
X0011414Y0026238D01*
X0011414Y0026238D01*
X0011414Y0026238D01*
X0011443Y0026332D01*
X0011490Y0026419D01*
X0011552Y0026495D01*
X0011629Y0026557D01*
X0011716Y0026603D01*
X0011810Y0026632D01*
X0011908Y0026641D01*
X0012781Y0026641D01*
X0012784Y0026641D01*
X0012784Y0026641D01*
G37*
G36*
X0009789Y0025657D02*
X0007992Y0025657D01*
X0007992Y0026946D01*
X0009789Y0026946D01*
X0009789Y0025657D01*
X0009789Y0025657D01*
G37*
G36*
X0012784Y0027911D02*
X0012784Y0027911D01*
X0012788Y0027911D01*
X0012886Y0027900D01*
X0012980Y0027871D01*
X0013066Y0027823D01*
X0013141Y0027760D01*
X0013203Y0027683D01*
X0013249Y0027596D01*
X0013277Y0027501D01*
X0013277Y0027501D01*
X0013277Y0027501D01*
X0013286Y0027403D01*
X0013275Y0027305D01*
X0013275Y0027305D01*
X0013275Y0027305D01*
X0013246Y0027211D01*
X0013199Y0027124D01*
X0013136Y0027048D01*
X0013060Y0026986D01*
X0012973Y0026940D01*
X0012879Y0026911D01*
X0012781Y0026902D01*
X0011908Y0026902D01*
X0011905Y0026902D01*
X0011905Y0026902D01*
X0011901Y0026902D01*
X0011803Y0026913D01*
X0011709Y0026943D01*
X0011623Y0026990D01*
X0011547Y0027053D01*
X0011486Y0027130D01*
X0011440Y0027217D01*
X0011412Y0027312D01*
X0011412Y0027312D01*
X0011412Y0027312D01*
X0011403Y0027410D01*
X0011414Y0027508D01*
X0011414Y0027508D01*
X0011414Y0027508D01*
X0011443Y0027602D01*
X0011490Y0027689D01*
X0011552Y0027765D01*
X0011629Y0027827D01*
X0011716Y0027873D01*
X0011810Y0027902D01*
X0011908Y0027911D01*
X0012781Y0027911D01*
X0012784Y0027911D01*
X0012784Y0027911D01*
G37*
G36*
X0018372Y0027911D02*
X0018372Y0027911D01*
X0018376Y0027911D01*
X0018474Y0027900D01*
X0018568Y0027871D01*
X0018654Y0027823D01*
X0018729Y0027760D01*
X0018791Y0027683D01*
X0018837Y0027596D01*
X0018865Y0027501D01*
X0018865Y0027501D01*
X0018865Y0027501D01*
X0018874Y0027403D01*
X0018863Y0027305D01*
X0018863Y0027305D01*
X0018863Y0027305D01*
X0018834Y0027211D01*
X0018787Y0027124D01*
X0018724Y0027048D01*
X0018648Y0026986D01*
X0018561Y0026940D01*
X0018467Y0026911D01*
X0018369Y0026902D01*
X0017496Y0026902D01*
X0017493Y0026902D01*
X0017493Y0026902D01*
X0017489Y0026902D01*
X0017391Y0026913D01*
X0017297Y0026943D01*
X0017211Y0026990D01*
X0017135Y0027053D01*
X0017074Y0027130D01*
X0017028Y0027217D01*
X0017000Y0027312D01*
X0017000Y0027312D01*
X0017000Y0027312D01*
X0016991Y0027410D01*
X0017002Y0027508D01*
X0017002Y0027508D01*
X0017002Y0027508D01*
X0017031Y0027602D01*
X0017078Y0027689D01*
X0017140Y0027765D01*
X0017217Y0027827D01*
X0017304Y0027873D01*
X0017398Y0027902D01*
X0017496Y0027911D01*
X0018369Y0027911D01*
X0018372Y0027911D01*
X0018372Y0027911D01*
G37*
G36*
X0006931Y0028121D02*
X0005007Y0028121D01*
X0005007Y0030045D01*
X0006931Y0030045D01*
X0006931Y0028121D01*
X0006931Y0028121D01*
G37*
G36*
X0004391Y0028121D02*
X0002467Y0028121D01*
X0002467Y0030045D01*
X0004391Y0030045D01*
X0004391Y0028121D01*
X0004391Y0028121D01*
G37*
G36*
X0018372Y0029181D02*
X0018372Y0029181D01*
X0018376Y0029181D01*
X0018474Y0029170D01*
X0018568Y0029141D01*
X0018654Y0029093D01*
X0018729Y0029030D01*
X0018791Y0028953D01*
X0018837Y0028866D01*
X0018865Y0028771D01*
X0018865Y0028771D01*
X0018865Y0028771D01*
X0018874Y0028673D01*
X0018863Y0028575D01*
X0018863Y0028575D01*
X0018863Y0028575D01*
X0018834Y0028481D01*
X0018787Y0028394D01*
X0018724Y0028318D01*
X0018648Y0028256D01*
X0018561Y0028210D01*
X0018467Y0028181D01*
X0018369Y0028172D01*
X0017496Y0028172D01*
X0017493Y0028172D01*
X0017493Y0028172D01*
X0017489Y0028172D01*
X0017391Y0028183D01*
X0017297Y0028213D01*
X0017211Y0028260D01*
X0017135Y0028323D01*
X0017074Y0028400D01*
X0017028Y0028487D01*
X0017000Y0028582D01*
X0017000Y0028582D01*
X0017000Y0028582D01*
X0016991Y0028680D01*
X0017002Y0028778D01*
X0017002Y0028778D01*
X0017002Y0028778D01*
X0017031Y0028872D01*
X0017078Y0028959D01*
X0017140Y0029035D01*
X0017217Y0029097D01*
X0017304Y0029143D01*
X0017398Y0029172D01*
X0017496Y0029181D01*
X0018369Y0029181D01*
X0018372Y0029181D01*
X0018372Y0029181D01*
G37*
G36*
X0012784Y0029181D02*
X0012784Y0029181D01*
X0012788Y0029181D01*
X0012886Y0029170D01*
X0012980Y0029141D01*
X0013066Y0029093D01*
X0013141Y0029030D01*
X0013203Y0028953D01*
X0013249Y0028866D01*
X0013277Y0028771D01*
X0013277Y0028771D01*
X0013277Y0028771D01*
X0013286Y0028673D01*
X0013275Y0028575D01*
X0013275Y0028575D01*
X0013275Y0028575D01*
X0013246Y0028481D01*
X0013199Y0028394D01*
X0013136Y0028318D01*
X0013060Y0028256D01*
X0012973Y0028210D01*
X0012879Y0028181D01*
X0012781Y0028172D01*
X0011908Y0028172D01*
X0011905Y0028172D01*
X0011905Y0028172D01*
X0011901Y0028172D01*
X0011803Y0028183D01*
X0011709Y0028213D01*
X0011623Y0028260D01*
X0011547Y0028323D01*
X0011486Y0028400D01*
X0011440Y0028487D01*
X0011412Y0028582D01*
X0011412Y0028582D01*
X0011412Y0028582D01*
X0011403Y0028680D01*
X0011414Y0028778D01*
X0011414Y0028778D01*
X0011414Y0028778D01*
X0011443Y0028872D01*
X0011490Y0028959D01*
X0011552Y0029035D01*
X0011629Y0029097D01*
X0011716Y0029143D01*
X0011810Y0029172D01*
X0011908Y0029181D01*
X0012781Y0029181D01*
X0012784Y0029181D01*
X0012784Y0029181D01*
G37*
G36*
X0010601Y0029239D02*
X0008804Y0029239D01*
X0008804Y0030528D01*
X0010601Y0030528D01*
X0010601Y0029239D01*
X0010601Y0029239D01*
G37*
G36*
X0012784Y0030451D02*
X0012784Y0030451D01*
X0012788Y0030451D01*
X0012886Y0030440D01*
X0012980Y0030411D01*
X0013066Y0030363D01*
X0013141Y0030300D01*
X0013203Y0030223D01*
X0013249Y0030136D01*
X0013277Y0030041D01*
X0013277Y0030041D01*
X0013277Y0030041D01*
X0013286Y0029943D01*
X0013275Y0029845D01*
X0013275Y0029845D01*
X0013275Y0029845D01*
X0013246Y0029751D01*
X0013199Y0029664D01*
X0013136Y0029588D01*
X0013060Y0029526D01*
X0012973Y0029480D01*
X0012879Y0029451D01*
X0012781Y0029442D01*
X0011908Y0029442D01*
X0011905Y0029442D01*
X0011905Y0029442D01*
X0011901Y0029442D01*
X0011803Y0029453D01*
X0011709Y0029483D01*
X0011623Y0029530D01*
X0011547Y0029593D01*
X0011486Y0029670D01*
X0011440Y0029757D01*
X0011412Y0029852D01*
X0011412Y0029852D01*
X0011412Y0029852D01*
X0011403Y0029950D01*
X0011414Y0030048D01*
X0011414Y0030048D01*
X0011414Y0030048D01*
X0011443Y0030142D01*
X0011490Y0030229D01*
X0011552Y0030305D01*
X0011629Y0030367D01*
X0011716Y0030413D01*
X0011810Y0030442D01*
X0011908Y0030451D01*
X0012781Y0030451D01*
X0012784Y0030451D01*
X0012784Y0030451D01*
G37*
G36*
X0018372Y0030451D02*
X0018372Y0030451D01*
X0018376Y0030451D01*
X0018474Y0030440D01*
X0018568Y0030411D01*
X0018654Y0030363D01*
X0018729Y0030300D01*
X0018791Y0030223D01*
X0018837Y0030136D01*
X0018865Y0030041D01*
X0018865Y0030041D01*
X0018865Y0030041D01*
X0018874Y0029943D01*
X0018863Y0029845D01*
X0018863Y0029845D01*
X0018863Y0029845D01*
X0018834Y0029751D01*
X0018787Y0029664D01*
X0018724Y0029588D01*
X0018648Y0029526D01*
X0018561Y0029480D01*
X0018467Y0029451D01*
X0018369Y0029442D01*
X0017496Y0029442D01*
X0017493Y0029442D01*
X0017493Y0029442D01*
X0017489Y0029442D01*
X0017391Y0029453D01*
X0017297Y0029483D01*
X0017211Y0029530D01*
X0017135Y0029593D01*
X0017074Y0029670D01*
X0017028Y0029757D01*
X0017000Y0029852D01*
X0017000Y0029852D01*
X0017000Y0029852D01*
X0016991Y0029950D01*
X0017002Y0030048D01*
X0017002Y0030048D01*
X0017002Y0030048D01*
X0017031Y0030142D01*
X0017078Y0030229D01*
X0017140Y0030305D01*
X0017217Y0030367D01*
X0017304Y0030413D01*
X0017398Y0030442D01*
X0017496Y0030451D01*
X0018369Y0030451D01*
X0018372Y0030451D01*
X0018372Y0030451D01*
G37*
G36*
X0010601Y0031144D02*
X0008804Y0031144D01*
X0008804Y0032433D01*
X0010601Y0032433D01*
X0010601Y0031144D01*
X0010601Y0031144D01*
G37*
G36*
X0015322Y0038504D02*
X0015937Y0038378D01*
X0016515Y0038135D01*
X0017036Y0037784D01*
X0017478Y0037338D01*
X0017825Y0036816D01*
X0018064Y0036235D01*
X0018186Y0035620D01*
X0018186Y0035620D01*
X0018186Y0035620D01*
X0018176Y0034903D01*
X0018176Y0034902D01*
X0018176Y0034902D01*
X0018037Y0034291D01*
X0017782Y0033718D01*
X0017420Y0033205D01*
X0016966Y0032772D01*
X0016436Y0032436D01*
X0015851Y0032209D01*
X0015233Y0032100D01*
X0014605Y0032113D01*
X0013992Y0032248D01*
X0013417Y0032499D01*
X0012902Y0032857D01*
X0012466Y0033309D01*
X0012126Y0033836D01*
X0011895Y0034420D01*
X0011782Y0035037D01*
X0011791Y0035664D01*
X0011921Y0036278D01*
X0012168Y0036855D01*
X0012523Y0037373D01*
X0012971Y0037812D01*
X0013496Y0038156D01*
X0014078Y0038391D01*
X0014695Y0038508D01*
X0015322Y0038504D01*
X0015322Y0038504D01*
G37*
G36*
X0005162Y0038504D02*
X0005777Y0038378D01*
X0006355Y0038135D01*
X0006876Y0037784D01*
X0007318Y0037338D01*
X0007665Y0036816D01*
X0007904Y0036235D01*
X0008026Y0035620D01*
X0008026Y0035620D01*
X0008026Y0035620D01*
X0008016Y0034903D01*
X0008016Y0034902D01*
X0008016Y0034902D01*
X0007877Y0034291D01*
X0007622Y0033718D01*
X0007260Y0033205D01*
X0006806Y0032772D01*
X0006276Y0032436D01*
X0005691Y0032209D01*
X0005073Y0032100D01*
X0004445Y0032113D01*
X0003832Y0032248D01*
X0003257Y0032499D01*
X0002742Y0032857D01*
X0002306Y0033309D01*
X0001966Y0033836D01*
X0001735Y0034420D01*
X0001622Y0035037D01*
X0001631Y0035664D01*
X0001761Y0036278D01*
X0002008Y0036855D01*
X0002363Y0037373D01*
X0002811Y0037812D01*
X0003336Y0038156D01*
X0003918Y0038391D01*
X0004535Y0038508D01*
X0005162Y0038504D01*
X0005162Y0038504D01*
G37*
X0019810Y0000000D02*
%LPD*%
G01*
D23*
G36*
X0024972Y0008024D02*
X0025587Y0007898D01*
X0026165Y0007655D01*
X0026686Y0007304D01*
X0027128Y0006858D01*
X0027475Y0006336D01*
X0027714Y0005755D01*
X0027836Y0005140D01*
X0027836Y0005140D01*
X0027836Y0005140D01*
X0027826Y0004423D01*
X0027826Y0004422D01*
X0027826Y0004422D01*
X0027687Y0003811D01*
X0027432Y0003238D01*
X0027070Y0002725D01*
X0026616Y0002292D01*
X0026086Y0001956D01*
X0025501Y0001729D01*
X0024883Y0001620D01*
X0024255Y0001633D01*
X0023642Y0001768D01*
X0023067Y0002019D01*
X0022552Y0002377D01*
X0022116Y0002829D01*
X0021776Y0003356D01*
X0021545Y0003940D01*
X0021432Y0004557D01*
X0021441Y0005184D01*
X0021571Y0005798D01*
X0021818Y0006375D01*
X0022173Y0006893D01*
X0022621Y0007332D01*
X0023146Y0007676D01*
X0023728Y0007911D01*
X0024345Y0008028D01*
X0024972Y0008024D01*
X0024972Y0008024D01*
G37*
G36*
X0065612Y0008024D02*
X0066227Y0007898D01*
X0066805Y0007655D01*
X0067326Y0007304D01*
X0067768Y0006858D01*
X0068115Y0006336D01*
X0068354Y0005755D01*
X0068476Y0005140D01*
X0068476Y0005140D01*
X0068476Y0005140D01*
X0068466Y0004423D01*
X0068466Y0004422D01*
X0068466Y0004422D01*
X0068327Y0003811D01*
X0068072Y0003238D01*
X0067710Y0002725D01*
X0067256Y0002292D01*
X0066726Y0001956D01*
X0066141Y0001729D01*
X0065523Y0001620D01*
X0064895Y0001633D01*
X0064282Y0001768D01*
X0063707Y0002019D01*
X0063192Y0002377D01*
X0062756Y0002829D01*
X0062416Y0003356D01*
X0062185Y0003940D01*
X0062072Y0004557D01*
X0062081Y0005184D01*
X0062211Y0005798D01*
X0062458Y0006375D01*
X0062813Y0006893D01*
X0063261Y0007332D01*
X0063786Y0007676D01*
X0064368Y0007911D01*
X0064985Y0008028D01*
X0065612Y0008024D01*
X0065612Y0008024D01*
G37*
G36*
X0047676Y0008231D02*
X0048099Y0008144D01*
X0048497Y0007977D01*
X0048854Y0007736D01*
X0049158Y0007430D01*
X0049397Y0007070D01*
X0049561Y0006671D01*
X0049645Y0006249D01*
X0049645Y0006249D01*
X0049645Y0006248D01*
X0049638Y0005755D01*
X0049638Y0005755D01*
X0049638Y0005755D01*
X0049543Y0005335D01*
X0049367Y0004941D01*
X0049119Y0004588D01*
X0048806Y0004290D01*
X0048442Y0004059D01*
X0048040Y0003903D01*
X0047615Y0003828D01*
X0047183Y0003837D01*
X0046762Y0003930D01*
X0046367Y0004103D01*
X0046012Y0004349D01*
X0045713Y0004659D01*
X0045479Y0005022D01*
X0045320Y0005423D01*
X0045242Y0005848D01*
X0045248Y0006279D01*
X0045338Y0006701D01*
X0045508Y0007097D01*
X0045752Y0007453D01*
X0046060Y0007755D01*
X0046421Y0007992D01*
X0046821Y0008153D01*
X0047245Y0008234D01*
X0047676Y0008231D01*
X0047676Y0008231D01*
G37*
G36*
X0057836Y0008231D02*
X0058259Y0008144D01*
X0058657Y0007977D01*
X0059014Y0007736D01*
X0059318Y0007430D01*
X0059557Y0007070D01*
X0059721Y0006671D01*
X0059805Y0006249D01*
X0059805Y0006249D01*
X0059805Y0006248D01*
X0059798Y0005755D01*
X0059798Y0005755D01*
X0059798Y0005755D01*
X0059703Y0005335D01*
X0059527Y0004941D01*
X0059279Y0004588D01*
X0058966Y0004290D01*
X0058602Y0004059D01*
X0058200Y0003903D01*
X0057775Y0003828D01*
X0057343Y0003837D01*
X0056922Y0003930D01*
X0056527Y0004103D01*
X0056172Y0004349D01*
X0055873Y0004659D01*
X0055639Y0005022D01*
X0055480Y0005423D01*
X0055402Y0005848D01*
X0055408Y0006279D01*
X0055498Y0006701D01*
X0055668Y0007097D01*
X0055912Y0007453D01*
X0056220Y0007755D01*
X0056581Y0007992D01*
X0056981Y0008153D01*
X0057405Y0008234D01*
X0057836Y0008231D01*
X0057836Y0008231D01*
G37*
G36*
X0032436Y0008231D02*
X0032859Y0008144D01*
X0033257Y0007977D01*
X0033614Y0007736D01*
X0033918Y0007430D01*
X0034157Y0007070D01*
X0034321Y0006671D01*
X0034405Y0006249D01*
X0034405Y0006249D01*
X0034405Y0006248D01*
X0034398Y0005755D01*
X0034398Y0005755D01*
X0034398Y0005755D01*
X0034303Y0005335D01*
X0034127Y0004941D01*
X0033879Y0004588D01*
X0033566Y0004290D01*
X0033202Y0004059D01*
X0032800Y0003903D01*
X0032375Y0003828D01*
X0031943Y0003837D01*
X0031522Y0003930D01*
X0031127Y0004103D01*
X0030772Y0004349D01*
X0030473Y0004659D01*
X0030239Y0005022D01*
X0030080Y0005423D01*
X0030002Y0005848D01*
X0030008Y0006279D01*
X0030098Y0006701D01*
X0030268Y0007097D01*
X0030512Y0007453D01*
X0030820Y0007755D01*
X0031181Y0007992D01*
X0031581Y0008153D01*
X0032005Y0008234D01*
X0032436Y0008231D01*
X0032436Y0008231D01*
G37*
G36*
X0042596Y0008231D02*
X0043019Y0008144D01*
X0043417Y0007977D01*
X0043774Y0007736D01*
X0044078Y0007430D01*
X0044317Y0007070D01*
X0044481Y0006671D01*
X0044565Y0006249D01*
X0044565Y0006249D01*
X0044565Y0006248D01*
X0044558Y0005755D01*
X0044558Y0005755D01*
X0044558Y0005755D01*
X0044463Y0005335D01*
X0044287Y0004941D01*
X0044039Y0004588D01*
X0043726Y0004290D01*
X0043362Y0004059D01*
X0042960Y0003903D01*
X0042535Y0003828D01*
X0042103Y0003837D01*
X0041682Y0003930D01*
X0041287Y0004103D01*
X0040932Y0004349D01*
X0040633Y0004659D01*
X0040399Y0005022D01*
X0040240Y0005423D01*
X0040162Y0005848D01*
X0040168Y0006279D01*
X0040258Y0006701D01*
X0040428Y0007097D01*
X0040672Y0007453D01*
X0040980Y0007755D01*
X0041341Y0007992D01*
X0041741Y0008153D01*
X0042165Y0008234D01*
X0042596Y0008231D01*
X0042596Y0008231D01*
G37*
G36*
X0024328Y0010214D02*
X0022404Y0010214D01*
X0022404Y0012138D01*
X0024328Y0012138D01*
X0024328Y0010214D01*
X0024328Y0010214D01*
G37*
G36*
X0026868Y0010214D02*
X0024944Y0010214D01*
X0024944Y0012138D01*
X0026868Y0012138D01*
X0026868Y0010214D01*
X0026868Y0010214D01*
G37*
G36*
X0064968Y0010214D02*
X0063044Y0010214D01*
X0063044Y0012138D01*
X0064968Y0012138D01*
X0064968Y0010214D01*
X0064968Y0010214D01*
G37*
G36*
X0067508Y0010214D02*
X0065584Y0010214D01*
X0065584Y0012138D01*
X0067508Y0012138D01*
X0067508Y0010214D01*
X0067508Y0010214D01*
G37*
G36*
X0040581Y0013592D02*
X0040812Y0013544D01*
X0041029Y0013453D01*
X0041224Y0013322D01*
X0041390Y0013155D01*
X0041520Y0012959D01*
X0041610Y0012741D01*
X0041655Y0012511D01*
X0041655Y0012511D01*
X0041655Y0012510D01*
X0041651Y0012241D01*
X0041651Y0012241D01*
X0041651Y0012241D01*
X0041599Y0012012D01*
X0041504Y0011797D01*
X0041368Y0011605D01*
X0041198Y0011442D01*
X0040999Y0011316D01*
X0040779Y0011231D01*
X0040548Y0011190D01*
X0040312Y0011195D01*
X0040083Y0011246D01*
X0039867Y0011340D01*
X0039674Y0011474D01*
X0039510Y0011644D01*
X0039383Y0011841D01*
X0039296Y0012060D01*
X0039283Y0012131D01*
X0039278Y0012150D01*
X0039269Y0012167D01*
X0039257Y0012182D01*
X0039242Y0012195D01*
X0039224Y0012204D01*
X0039206Y0012210D01*
X0039186Y0012213D01*
X0039167Y0012211D01*
X0039148Y0012206D01*
X0039130Y0012197D01*
X0039115Y0012184D01*
X0039102Y0012169D01*
X0039093Y0012152D01*
X0039087Y0012135D01*
X0039059Y0012012D01*
X0038964Y0011797D01*
X0038828Y0011605D01*
X0038658Y0011442D01*
X0038459Y0011316D01*
X0038239Y0011231D01*
X0038008Y0011190D01*
X0037772Y0011195D01*
X0037543Y0011246D01*
X0037327Y0011340D01*
X0037134Y0011474D01*
X0036970Y0011644D01*
X0036843Y0011841D01*
X0036756Y0012060D01*
X0036743Y0012131D01*
X0036738Y0012150D01*
X0036729Y0012167D01*
X0036717Y0012182D01*
X0036702Y0012195D01*
X0036684Y0012204D01*
X0036666Y0012210D01*
X0036646Y0012213D01*
X0036627Y0012211D01*
X0036608Y0012206D01*
X0036590Y0012197D01*
X0036575Y0012184D01*
X0036562Y0012169D01*
X0036553Y0012152D01*
X0036547Y0012135D01*
X0036519Y0012012D01*
X0036424Y0011797D01*
X0036288Y0011605D01*
X0036118Y0011442D01*
X0035919Y0011316D01*
X0035699Y0011231D01*
X0035468Y0011190D01*
X0035232Y0011195D01*
X0035003Y0011246D01*
X0034787Y0011340D01*
X0034594Y0011474D01*
X0034430Y0011644D01*
X0034303Y0011841D01*
X0034216Y0012060D01*
X0034174Y0012292D01*
X0034177Y0012527D01*
X0034226Y0012757D01*
X0034319Y0012973D01*
X0034451Y0013168D01*
X0034620Y0013332D01*
X0034817Y0013461D01*
X0035035Y0013549D01*
X0035266Y0013593D01*
X0035501Y0013592D01*
X0035732Y0013544D01*
X0035949Y0013453D01*
X0036144Y0013322D01*
X0036310Y0013155D01*
X0036440Y0012959D01*
X0036530Y0012741D01*
X0036547Y0012652D01*
X0036553Y0012633D01*
X0036562Y0012616D01*
X0036575Y0012600D01*
X0036590Y0012588D01*
X0036607Y0012579D01*
X0036626Y0012573D01*
X0036645Y0012571D01*
X0036665Y0012573D01*
X0036684Y0012579D01*
X0036701Y0012588D01*
X0036716Y0012600D01*
X0036728Y0012616D01*
X0036738Y0012633D01*
X0036743Y0012650D01*
X0036766Y0012757D01*
X0036859Y0012973D01*
X0036991Y0013168D01*
X0037160Y0013332D01*
X0037357Y0013461D01*
X0037575Y0013549D01*
X0037806Y0013593D01*
X0038041Y0013592D01*
X0038272Y0013544D01*
X0038489Y0013453D01*
X0038684Y0013322D01*
X0038850Y0013155D01*
X0038980Y0012959D01*
X0039070Y0012741D01*
X0039087Y0012652D01*
X0039093Y0012633D01*
X0039102Y0012616D01*
X0039115Y0012600D01*
X0039130Y0012588D01*
X0039147Y0012579D01*
X0039166Y0012573D01*
X0039185Y0012571D01*
X0039205Y0012573D01*
X0039224Y0012579D01*
X0039241Y0012588D01*
X0039256Y0012600D01*
X0039268Y0012616D01*
X0039278Y0012633D01*
X0039283Y0012650D01*
X0039306Y0012757D01*
X0039399Y0012973D01*
X0039531Y0013168D01*
X0039700Y0013332D01*
X0039897Y0013461D01*
X0040115Y0013549D01*
X0040346Y0013593D01*
X0040581Y0013592D01*
X0040581Y0013592D01*
G37*
G36*
X0055821Y0013592D02*
X0056052Y0013544D01*
X0056269Y0013453D01*
X0056464Y0013322D01*
X0056630Y0013155D01*
X0056760Y0012959D01*
X0056850Y0012741D01*
X0056895Y0012511D01*
X0056895Y0012511D01*
X0056895Y0012510D01*
X0056891Y0012241D01*
X0056891Y0012241D01*
X0056891Y0012241D01*
X0056839Y0012012D01*
X0056744Y0011797D01*
X0056608Y0011605D01*
X0056438Y0011442D01*
X0056239Y0011316D01*
X0056019Y0011231D01*
X0055788Y0011190D01*
X0055552Y0011195D01*
X0055323Y0011246D01*
X0055107Y0011340D01*
X0054914Y0011474D01*
X0054750Y0011644D01*
X0054623Y0011841D01*
X0054536Y0012060D01*
X0054523Y0012131D01*
X0054518Y0012150D01*
X0054509Y0012167D01*
X0054497Y0012182D01*
X0054482Y0012195D01*
X0054464Y0012204D01*
X0054446Y0012210D01*
X0054426Y0012213D01*
X0054407Y0012211D01*
X0054388Y0012206D01*
X0054370Y0012197D01*
X0054355Y0012184D01*
X0054342Y0012169D01*
X0054333Y0012152D01*
X0054327Y0012135D01*
X0054299Y0012012D01*
X0054204Y0011797D01*
X0054068Y0011605D01*
X0053898Y0011442D01*
X0053699Y0011316D01*
X0053479Y0011231D01*
X0053248Y0011190D01*
X0053012Y0011195D01*
X0052783Y0011246D01*
X0052567Y0011340D01*
X0052374Y0011474D01*
X0052210Y0011644D01*
X0052083Y0011841D01*
X0051996Y0012060D01*
X0051983Y0012131D01*
X0051978Y0012150D01*
X0051969Y0012167D01*
X0051957Y0012182D01*
X0051942Y0012195D01*
X0051924Y0012204D01*
X0051906Y0012210D01*
X0051886Y0012213D01*
X0051867Y0012211D01*
X0051848Y0012206D01*
X0051830Y0012197D01*
X0051815Y0012184D01*
X0051802Y0012169D01*
X0051793Y0012152D01*
X0051787Y0012135D01*
X0051759Y0012012D01*
X0051664Y0011797D01*
X0051528Y0011605D01*
X0051358Y0011442D01*
X0051159Y0011316D01*
X0050939Y0011231D01*
X0050708Y0011190D01*
X0050472Y0011195D01*
X0050243Y0011246D01*
X0050027Y0011340D01*
X0049834Y0011474D01*
X0049670Y0011644D01*
X0049543Y0011841D01*
X0049456Y0012060D01*
X0049414Y0012292D01*
X0049417Y0012527D01*
X0049466Y0012757D01*
X0049559Y0012973D01*
X0049691Y0013168D01*
X0049860Y0013332D01*
X0050057Y0013461D01*
X0050275Y0013549D01*
X0050506Y0013593D01*
X0050741Y0013592D01*
X0050972Y0013544D01*
X0051189Y0013453D01*
X0051384Y0013322D01*
X0051550Y0013155D01*
X0051680Y0012959D01*
X0051770Y0012741D01*
X0051787Y0012652D01*
X0051793Y0012633D01*
X0051802Y0012616D01*
X0051815Y0012600D01*
X0051830Y0012588D01*
X0051847Y0012579D01*
X0051866Y0012573D01*
X0051885Y0012571D01*
X0051905Y0012573D01*
X0051924Y0012579D01*
X0051941Y0012588D01*
X0051956Y0012600D01*
X0051968Y0012616D01*
X0051978Y0012633D01*
X0051983Y0012650D01*
X0052006Y0012757D01*
X0052099Y0012973D01*
X0052231Y0013168D01*
X0052400Y0013332D01*
X0052597Y0013461D01*
X0052815Y0013549D01*
X0053046Y0013593D01*
X0053281Y0013592D01*
X0053512Y0013544D01*
X0053729Y0013453D01*
X0053924Y0013322D01*
X0054090Y0013155D01*
X0054220Y0012959D01*
X0054310Y0012741D01*
X0054327Y0012652D01*
X0054333Y0012633D01*
X0054342Y0012616D01*
X0054355Y0012600D01*
X0054370Y0012588D01*
X0054387Y0012579D01*
X0054406Y0012573D01*
X0054425Y0012571D01*
X0054445Y0012573D01*
X0054464Y0012579D01*
X0054481Y0012588D01*
X0054496Y0012600D01*
X0054508Y0012616D01*
X0054518Y0012633D01*
X0054523Y0012650D01*
X0054546Y0012757D01*
X0054639Y0012973D01*
X0054771Y0013168D01*
X0054940Y0013332D01*
X0055137Y0013461D01*
X0055355Y0013549D01*
X0055586Y0013593D01*
X0055821Y0013592D01*
X0055821Y0013592D01*
G37*
G36*
X0044536Y0012082D02*
X0042836Y0012082D01*
X0042836Y0012932D01*
X0044536Y0012932D01*
X0044536Y0012082D01*
X0044536Y0012082D01*
G37*
G36*
X0046830Y0012143D02*
X0045129Y0012143D01*
X0045129Y0012993D01*
X0046830Y0012993D01*
X0046830Y0012143D01*
X0046830Y0012143D01*
G37*
G36*
X0026868Y0012754D02*
X0024944Y0012754D01*
X0024944Y0014678D01*
X0026868Y0014678D01*
X0026868Y0012754D01*
X0026868Y0012754D01*
G37*
G36*
X0064968Y0012754D02*
X0063044Y0012754D01*
X0063044Y0014678D01*
X0064968Y0014678D01*
X0064968Y0012754D01*
X0064968Y0012754D01*
G37*
G36*
X0067508Y0012754D02*
X0065584Y0012754D01*
X0065584Y0014678D01*
X0067508Y0014678D01*
X0067508Y0012754D01*
X0067508Y0012754D01*
G37*
G36*
X0024328Y0012754D02*
X0022404Y0012754D01*
X0022404Y0014678D01*
X0024328Y0014678D01*
X0024328Y0012754D01*
X0024328Y0012754D01*
G37*
G36*
X0043535Y0013484D02*
X0042836Y0013484D01*
X0042836Y0014334D01*
X0043535Y0014334D01*
X0043535Y0013484D01*
X0043535Y0013484D01*
G37*
G36*
X0044536Y0013484D02*
X0043837Y0013484D01*
X0043837Y0014334D01*
X0044536Y0014334D01*
X0044536Y0013484D01*
X0044536Y0013484D01*
G37*
G36*
X0045829Y0013545D02*
X0045129Y0013545D01*
X0045129Y0014395D01*
X0045829Y0014395D01*
X0045829Y0013545D01*
X0045829Y0013545D01*
G37*
G36*
X0046830Y0013545D02*
X0046130Y0013545D01*
X0046130Y0014395D01*
X0046830Y0014395D01*
X0046830Y0013545D01*
X0046830Y0013545D01*
G37*
G36*
X0054551Y0016132D02*
X0054782Y0016084D01*
X0054999Y0015993D01*
X0055194Y0015862D01*
X0055360Y0015695D01*
X0055490Y0015499D01*
X0055580Y0015281D01*
X0055625Y0015051D01*
X0055625Y0015051D01*
X0055625Y0015050D01*
X0055621Y0014781D01*
X0055621Y0014781D01*
X0055621Y0014781D01*
X0055569Y0014552D01*
X0055474Y0014337D01*
X0055338Y0014145D01*
X0055168Y0013982D01*
X0054969Y0013856D01*
X0054749Y0013771D01*
X0054518Y0013730D01*
X0054282Y0013735D01*
X0054053Y0013786D01*
X0053837Y0013880D01*
X0053644Y0014014D01*
X0053480Y0014184D01*
X0053353Y0014381D01*
X0053266Y0014600D01*
X0053253Y0014671D01*
X0053248Y0014690D01*
X0053239Y0014707D01*
X0053227Y0014722D01*
X0053212Y0014735D01*
X0053194Y0014744D01*
X0053176Y0014750D01*
X0053156Y0014753D01*
X0053137Y0014751D01*
X0053118Y0014746D01*
X0053100Y0014737D01*
X0053085Y0014724D01*
X0053072Y0014709D01*
X0053063Y0014692D01*
X0053057Y0014675D01*
X0053029Y0014552D01*
X0052934Y0014337D01*
X0052798Y0014145D01*
X0052628Y0013982D01*
X0052429Y0013856D01*
X0052209Y0013771D01*
X0051978Y0013730D01*
X0051742Y0013735D01*
X0051513Y0013786D01*
X0051297Y0013880D01*
X0051104Y0014014D01*
X0050940Y0014184D01*
X0050813Y0014381D01*
X0050726Y0014600D01*
X0050713Y0014671D01*
X0050708Y0014690D01*
X0050699Y0014707D01*
X0050687Y0014722D01*
X0050672Y0014735D01*
X0050654Y0014744D01*
X0050636Y0014750D01*
X0050616Y0014753D01*
X0050597Y0014751D01*
X0050578Y0014746D01*
X0050560Y0014737D01*
X0050545Y0014724D01*
X0050532Y0014709D01*
X0050523Y0014692D01*
X0050517Y0014675D01*
X0050489Y0014552D01*
X0050394Y0014337D01*
X0050258Y0014145D01*
X0050088Y0013982D01*
X0049889Y0013856D01*
X0049669Y0013771D01*
X0049438Y0013730D01*
X0049202Y0013735D01*
X0048973Y0013786D01*
X0048757Y0013880D01*
X0048564Y0014014D01*
X0048400Y0014184D01*
X0048273Y0014381D01*
X0048186Y0014600D01*
X0048144Y0014832D01*
X0048147Y0015067D01*
X0048196Y0015297D01*
X0048289Y0015513D01*
X0048421Y0015708D01*
X0048590Y0015872D01*
X0048787Y0016001D01*
X0049005Y0016089D01*
X0049236Y0016133D01*
X0049471Y0016132D01*
X0049702Y0016084D01*
X0049919Y0015993D01*
X0050114Y0015862D01*
X0050280Y0015695D01*
X0050410Y0015499D01*
X0050500Y0015281D01*
X0050517Y0015192D01*
X0050523Y0015173D01*
X0050532Y0015156D01*
X0050545Y0015140D01*
X0050560Y0015128D01*
X0050577Y0015119D01*
X0050596Y0015113D01*
X0050615Y0015111D01*
X0050635Y0015113D01*
X0050654Y0015119D01*
X0050671Y0015128D01*
X0050686Y0015140D01*
X0050698Y0015156D01*
X0050708Y0015173D01*
X0050713Y0015190D01*
X0050736Y0015297D01*
X0050829Y0015513D01*
X0050961Y0015708D01*
X0051130Y0015872D01*
X0051327Y0016001D01*
X0051545Y0016089D01*
X0051776Y0016133D01*
X0052011Y0016132D01*
X0052242Y0016084D01*
X0052459Y0015993D01*
X0052654Y0015862D01*
X0052820Y0015695D01*
X0052950Y0015499D01*
X0053040Y0015281D01*
X0053057Y0015192D01*
X0053063Y0015173D01*
X0053072Y0015156D01*
X0053085Y0015140D01*
X0053100Y0015128D01*
X0053117Y0015119D01*
X0053136Y0015113D01*
X0053155Y0015111D01*
X0053175Y0015113D01*
X0053194Y0015119D01*
X0053211Y0015128D01*
X0053226Y0015140D01*
X0053238Y0015156D01*
X0053248Y0015173D01*
X0053253Y0015190D01*
X0053276Y0015297D01*
X0053369Y0015513D01*
X0053501Y0015708D01*
X0053670Y0015872D01*
X0053867Y0016001D01*
X0054085Y0016089D01*
X0054316Y0016133D01*
X0054551Y0016132D01*
X0054551Y0016132D01*
G37*
G36*
X0039311Y0016132D02*
X0039542Y0016084D01*
X0039759Y0015993D01*
X0039954Y0015862D01*
X0040120Y0015695D01*
X0040250Y0015499D01*
X0040340Y0015281D01*
X0040385Y0015051D01*
X0040385Y0015051D01*
X0040385Y0015050D01*
X0040381Y0014781D01*
X0040381Y0014781D01*
X0040381Y0014781D01*
X0040329Y0014552D01*
X0040234Y0014337D01*
X0040098Y0014145D01*
X0039928Y0013982D01*
X0039729Y0013856D01*
X0039509Y0013771D01*
X0039278Y0013730D01*
X0039042Y0013735D01*
X0038813Y0013786D01*
X0038597Y0013880D01*
X0038404Y0014014D01*
X0038240Y0014184D01*
X0038113Y0014381D01*
X0038026Y0014600D01*
X0038013Y0014671D01*
X0038008Y0014690D01*
X0037999Y0014707D01*
X0037987Y0014722D01*
X0037972Y0014735D01*
X0037954Y0014744D01*
X0037936Y0014750D01*
X0037916Y0014753D01*
X0037897Y0014751D01*
X0037878Y0014746D01*
X0037860Y0014737D01*
X0037845Y0014724D01*
X0037832Y0014709D01*
X0037823Y0014692D01*
X0037817Y0014675D01*
X0037789Y0014552D01*
X0037694Y0014337D01*
X0037558Y0014145D01*
X0037388Y0013982D01*
X0037189Y0013856D01*
X0036969Y0013771D01*
X0036738Y0013730D01*
X0036502Y0013735D01*
X0036273Y0013786D01*
X0036057Y0013880D01*
X0035864Y0014014D01*
X0035700Y0014184D01*
X0035573Y0014381D01*
X0035486Y0014600D01*
X0035473Y0014671D01*
X0035468Y0014690D01*
X0035459Y0014707D01*
X0035447Y0014722D01*
X0035432Y0014735D01*
X0035414Y0014744D01*
X0035396Y0014750D01*
X0035376Y0014753D01*
X0035357Y0014751D01*
X0035338Y0014746D01*
X0035320Y0014737D01*
X0035305Y0014724D01*
X0035292Y0014709D01*
X0035283Y0014692D01*
X0035277Y0014675D01*
X0035249Y0014552D01*
X0035154Y0014337D01*
X0035018Y0014145D01*
X0034848Y0013982D01*
X0034649Y0013856D01*
X0034429Y0013771D01*
X0034198Y0013730D01*
X0033962Y0013735D01*
X0033733Y0013786D01*
X0033517Y0013880D01*
X0033324Y0014014D01*
X0033160Y0014184D01*
X0033033Y0014381D01*
X0032946Y0014600D01*
X0032904Y0014832D01*
X0032907Y0015067D01*
X0032956Y0015297D01*
X0033049Y0015513D01*
X0033181Y0015708D01*
X0033350Y0015872D01*
X0033547Y0016001D01*
X0033765Y0016089D01*
X0033996Y0016133D01*
X0034231Y0016132D01*
X0034462Y0016084D01*
X0034679Y0015993D01*
X0034874Y0015862D01*
X0035040Y0015695D01*
X0035170Y0015499D01*
X0035260Y0015281D01*
X0035277Y0015192D01*
X0035283Y0015173D01*
X0035292Y0015156D01*
X0035305Y0015140D01*
X0035320Y0015128D01*
X0035337Y0015119D01*
X0035356Y0015113D01*
X0035375Y0015111D01*
X0035395Y0015113D01*
X0035414Y0015119D01*
X0035431Y0015128D01*
X0035446Y0015140D01*
X0035458Y0015156D01*
X0035468Y0015173D01*
X0035473Y0015190D01*
X0035496Y0015297D01*
X0035589Y0015513D01*
X0035721Y0015708D01*
X0035890Y0015872D01*
X0036087Y0016001D01*
X0036305Y0016089D01*
X0036536Y0016133D01*
X0036771Y0016132D01*
X0037002Y0016084D01*
X0037219Y0015993D01*
X0037414Y0015862D01*
X0037580Y0015695D01*
X0037710Y0015499D01*
X0037800Y0015281D01*
X0037817Y0015192D01*
X0037823Y0015173D01*
X0037832Y0015156D01*
X0037845Y0015140D01*
X0037860Y0015128D01*
X0037877Y0015119D01*
X0037896Y0015113D01*
X0037915Y0015111D01*
X0037935Y0015113D01*
X0037954Y0015119D01*
X0037971Y0015128D01*
X0037986Y0015140D01*
X0037998Y0015156D01*
X0038008Y0015173D01*
X0038013Y0015190D01*
X0038036Y0015297D01*
X0038129Y0015513D01*
X0038261Y0015708D01*
X0038430Y0015872D01*
X0038627Y0016001D01*
X0038845Y0016089D01*
X0039076Y0016133D01*
X0039311Y0016132D01*
X0039311Y0016132D01*
G37*
G36*
X0064968Y0015294D02*
X0063044Y0015294D01*
X0063044Y0017218D01*
X0064968Y0017218D01*
X0064968Y0015294D01*
X0064968Y0015294D01*
G37*
G36*
X0026868Y0015294D02*
X0024944Y0015294D01*
X0024944Y0017218D01*
X0026868Y0017218D01*
X0026868Y0015294D01*
X0026868Y0015294D01*
G37*
G36*
X0024328Y0015294D02*
X0022404Y0015294D01*
X0022404Y0017218D01*
X0024328Y0017218D01*
X0024328Y0015294D01*
X0024328Y0015294D01*
G37*
G36*
X0067508Y0015294D02*
X0065584Y0015294D01*
X0065584Y0017218D01*
X0067508Y0017218D01*
X0067508Y0015294D01*
X0067508Y0015294D01*
G37*
G36*
X0026868Y0017834D02*
X0024944Y0017834D01*
X0024944Y0019758D01*
X0026868Y0019758D01*
X0026868Y0017834D01*
X0026868Y0017834D01*
G37*
G36*
X0024328Y0017834D02*
X0022404Y0017834D01*
X0022404Y0019758D01*
X0024328Y0019758D01*
X0024328Y0017834D01*
X0024328Y0017834D01*
G37*
G36*
X0067508Y0017834D02*
X0065584Y0017834D01*
X0065584Y0019758D01*
X0067508Y0019758D01*
X0067508Y0017834D01*
X0067508Y0017834D01*
G37*
G36*
X0064968Y0017834D02*
X0063044Y0017834D01*
X0063044Y0019758D01*
X0064968Y0019758D01*
X0064968Y0017834D01*
X0064968Y0017834D01*
G37*
G36*
X0041981Y0018152D02*
X0040692Y0018152D01*
X0040692Y0019949D01*
X0041981Y0019949D01*
X0041981Y0018152D01*
X0041981Y0018152D01*
G37*
G36*
X0040076Y0018152D02*
X0037390Y0018152D01*
X0037390Y0019949D01*
X0040076Y0019949D01*
X0040076Y0018152D01*
X0040076Y0018152D01*
G37*
G36*
X0036774Y0018152D02*
X0035485Y0018152D01*
X0035485Y0019949D01*
X0036774Y0019949D01*
X0036774Y0018152D01*
X0036774Y0018152D01*
G37*
G36*
X0042934Y0020184D02*
X0041645Y0020184D01*
X0041645Y0021981D01*
X0042934Y0021981D01*
X0042934Y0020184D01*
X0042934Y0020184D01*
G37*
G36*
X0041029Y0020184D02*
X0039740Y0020184D01*
X0039740Y0021981D01*
X0041029Y0021981D01*
X0041029Y0020184D01*
X0041029Y0020184D01*
G37*
G36*
X0031948Y0020374D02*
X0030024Y0020374D01*
X0030024Y0022298D01*
X0031948Y0022298D01*
X0031948Y0020374D01*
X0031948Y0020374D01*
G37*
G36*
X0034488Y0020374D02*
X0032564Y0020374D01*
X0032564Y0022298D01*
X0034488Y0022298D01*
X0034488Y0020374D01*
X0034488Y0020374D01*
G37*
G36*
X0024972Y0028344D02*
X0025587Y0028218D01*
X0026165Y0027975D01*
X0026686Y0027624D01*
X0027128Y0027178D01*
X0027475Y0026656D01*
X0027714Y0026075D01*
X0027836Y0025460D01*
X0027836Y0025460D01*
X0027836Y0025460D01*
X0027826Y0024743D01*
X0027826Y0024742D01*
X0027826Y0024742D01*
X0027687Y0024131D01*
X0027432Y0023558D01*
X0027070Y0023045D01*
X0026616Y0022612D01*
X0026086Y0022276D01*
X0025501Y0022049D01*
X0024883Y0021940D01*
X0024255Y0021953D01*
X0023642Y0022088D01*
X0023067Y0022339D01*
X0022552Y0022697D01*
X0022116Y0023149D01*
X0021776Y0023676D01*
X0021545Y0024260D01*
X0021432Y0024877D01*
X0021441Y0025504D01*
X0021571Y0026118D01*
X0021818Y0026695D01*
X0022173Y0027213D01*
X0022621Y0027652D01*
X0023146Y0027996D01*
X0023728Y0028231D01*
X0024345Y0028348D01*
X0024972Y0028344D01*
X0024972Y0028344D01*
G37*
G36*
X0065612Y0028344D02*
X0066227Y0028218D01*
X0066805Y0027975D01*
X0067326Y0027624D01*
X0067768Y0027178D01*
X0068115Y0026656D01*
X0068354Y0026075D01*
X0068476Y0025460D01*
X0068476Y0025460D01*
X0068476Y0025460D01*
X0068466Y0024743D01*
X0068466Y0024742D01*
X0068466Y0024742D01*
X0068327Y0024131D01*
X0068072Y0023558D01*
X0067710Y0023045D01*
X0067256Y0022612D01*
X0066726Y0022276D01*
X0066141Y0022049D01*
X0065523Y0021940D01*
X0064895Y0021953D01*
X0064282Y0022088D01*
X0063707Y0022339D01*
X0063192Y0022697D01*
X0062756Y0023149D01*
X0062416Y0023676D01*
X0062185Y0024260D01*
X0062072Y0024877D01*
X0062081Y0025504D01*
X0062211Y0026118D01*
X0062458Y0026695D01*
X0062813Y0027213D01*
X0063261Y0027652D01*
X0063786Y0027996D01*
X0064368Y0028231D01*
X0064985Y0028348D01*
X0065612Y0028344D01*
X0065612Y0028344D01*
G37*
G36*
X0057348Y0022914D02*
X0055424Y0022914D01*
X0055424Y0024838D01*
X0057348Y0024838D01*
X0057348Y0022914D01*
X0057348Y0022914D01*
G37*
G36*
X0034488Y0022914D02*
X0032564Y0022914D01*
X0032564Y0024838D01*
X0034488Y0024838D01*
X0034488Y0022914D01*
X0034488Y0022914D01*
G37*
G36*
X0054808Y0022914D02*
X0052884Y0022914D01*
X0052884Y0024838D01*
X0054808Y0024838D01*
X0054808Y0022914D01*
X0054808Y0022914D01*
G37*
G36*
X0044648Y0022914D02*
X0042724Y0022914D01*
X0042724Y0024838D01*
X0044648Y0024838D01*
X0044648Y0022914D01*
X0044648Y0022914D01*
G37*
G36*
X0042108Y0022914D02*
X0040184Y0022914D01*
X0040184Y0024838D01*
X0042108Y0024838D01*
X0042108Y0022914D01*
X0042108Y0022914D01*
G37*
G36*
X0037028Y0022914D02*
X0035104Y0022914D01*
X0035104Y0024838D01*
X0037028Y0024838D01*
X0037028Y0022914D01*
X0037028Y0022914D01*
G37*
G36*
X0039568Y0022914D02*
X0037644Y0022914D01*
X0037644Y0024838D01*
X0039568Y0024838D01*
X0039568Y0022914D01*
X0039568Y0022914D01*
G37*
G36*
X0057348Y0025454D02*
X0055424Y0025454D01*
X0055424Y0027378D01*
X0057348Y0027378D01*
X0057348Y0025454D01*
X0057348Y0025454D01*
G37*
G36*
X0037028Y0025454D02*
X0035104Y0025454D01*
X0035104Y0027378D01*
X0037028Y0027378D01*
X0037028Y0025454D01*
X0037028Y0025454D01*
G37*
G36*
X0044648Y0025454D02*
X0042724Y0025454D01*
X0042724Y0027378D01*
X0044648Y0027378D01*
X0044648Y0025454D01*
X0044648Y0025454D01*
G37*
G36*
X0034488Y0025454D02*
X0032564Y0025454D01*
X0032564Y0027378D01*
X0034488Y0027378D01*
X0034488Y0025454D01*
X0034488Y0025454D01*
G37*
G36*
X0042108Y0025454D02*
X0040184Y0025454D01*
X0040184Y0027378D01*
X0042108Y0027378D01*
X0042108Y0025454D01*
X0042108Y0025454D01*
G37*
G36*
X0039568Y0025454D02*
X0037644Y0025454D01*
X0037644Y0027378D01*
X0039568Y0027378D01*
X0039568Y0025454D01*
X0039568Y0025454D01*
G37*
G36*
X0054808Y0025454D02*
X0052884Y0025454D01*
X0052884Y0027378D01*
X0054808Y0027378D01*
X0054808Y0025454D01*
X0054808Y0025454D01*
G37*
X0000000Y0040130D02*
%LPD*%
G01*
D23*
G36*
X0005162Y0048154D02*
X0005777Y0048028D01*
X0006355Y0047785D01*
X0006876Y0047434D01*
X0007318Y0046988D01*
X0007665Y0046466D01*
X0007904Y0045885D01*
X0008026Y0045270D01*
X0008026Y0045270D01*
X0008026Y0045270D01*
X0008016Y0044553D01*
X0008016Y0044552D01*
X0008016Y0044552D01*
X0007877Y0043941D01*
X0007622Y0043368D01*
X0007260Y0042855D01*
X0006806Y0042422D01*
X0006276Y0042086D01*
X0005691Y0041859D01*
X0005073Y0041750D01*
X0004445Y0041763D01*
X0003832Y0041898D01*
X0003257Y0042149D01*
X0002742Y0042507D01*
X0002306Y0042959D01*
X0001966Y0043486D01*
X0001735Y0044070D01*
X0001622Y0044687D01*
X0001631Y0045314D01*
X0001761Y0045928D01*
X0002008Y0046505D01*
X0002363Y0047023D01*
X0002811Y0047462D01*
X0003336Y0047806D01*
X0003918Y0048041D01*
X0004535Y0048158D01*
X0005162Y0048154D01*
X0005162Y0048154D01*
G37*
G36*
X0045802Y0048154D02*
X0046417Y0048028D01*
X0046995Y0047785D01*
X0047516Y0047434D01*
X0047958Y0046988D01*
X0048305Y0046466D01*
X0048544Y0045885D01*
X0048666Y0045270D01*
X0048666Y0045270D01*
X0048666Y0045270D01*
X0048656Y0044553D01*
X0048656Y0044552D01*
X0048656Y0044552D01*
X0048517Y0043941D01*
X0048262Y0043368D01*
X0047900Y0042855D01*
X0047446Y0042422D01*
X0046916Y0042086D01*
X0046331Y0041859D01*
X0045713Y0041750D01*
X0045085Y0041763D01*
X0044472Y0041898D01*
X0043897Y0042149D01*
X0043382Y0042507D01*
X0042946Y0042959D01*
X0042606Y0043486D01*
X0042375Y0044070D01*
X0042262Y0044687D01*
X0042271Y0045314D01*
X0042401Y0045928D01*
X0042648Y0046505D01*
X0043003Y0047023D01*
X0043451Y0047462D01*
X0043976Y0047806D01*
X0044558Y0048041D01*
X0045175Y0048158D01*
X0045802Y0048154D01*
X0045802Y0048154D01*
G37*
G36*
X0027866Y0048361D02*
X0028289Y0048274D01*
X0028687Y0048107D01*
X0029044Y0047866D01*
X0029348Y0047560D01*
X0029587Y0047200D01*
X0029751Y0046801D01*
X0029835Y0046379D01*
X0029835Y0046379D01*
X0029835Y0046378D01*
X0029828Y0045885D01*
X0029828Y0045885D01*
X0029828Y0045885D01*
X0029733Y0045465D01*
X0029557Y0045071D01*
X0029309Y0044718D01*
X0028996Y0044420D01*
X0028632Y0044189D01*
X0028230Y0044033D01*
X0027805Y0043958D01*
X0027373Y0043967D01*
X0026952Y0044060D01*
X0026557Y0044233D01*
X0026202Y0044479D01*
X0025903Y0044789D01*
X0025669Y0045152D01*
X0025510Y0045553D01*
X0025432Y0045978D01*
X0025438Y0046409D01*
X0025528Y0046831D01*
X0025698Y0047227D01*
X0025942Y0047583D01*
X0026250Y0047885D01*
X0026611Y0048122D01*
X0027011Y0048283D01*
X0027435Y0048364D01*
X0027866Y0048361D01*
X0027866Y0048361D01*
G37*
G36*
X0038026Y0048361D02*
X0038449Y0048274D01*
X0038847Y0048107D01*
X0039204Y0047866D01*
X0039508Y0047560D01*
X0039747Y0047200D01*
X0039911Y0046801D01*
X0039995Y0046379D01*
X0039995Y0046379D01*
X0039995Y0046378D01*
X0039988Y0045885D01*
X0039988Y0045885D01*
X0039988Y0045885D01*
X0039893Y0045465D01*
X0039717Y0045071D01*
X0039469Y0044718D01*
X0039156Y0044420D01*
X0038792Y0044189D01*
X0038390Y0044033D01*
X0037965Y0043958D01*
X0037533Y0043967D01*
X0037112Y0044060D01*
X0036717Y0044233D01*
X0036362Y0044479D01*
X0036063Y0044789D01*
X0035829Y0045152D01*
X0035670Y0045553D01*
X0035592Y0045978D01*
X0035598Y0046409D01*
X0035688Y0046831D01*
X0035858Y0047227D01*
X0036102Y0047583D01*
X0036410Y0047885D01*
X0036771Y0048122D01*
X0037171Y0048283D01*
X0037595Y0048364D01*
X0038026Y0048361D01*
X0038026Y0048361D01*
G37*
G36*
X0012626Y0048361D02*
X0013049Y0048274D01*
X0013447Y0048107D01*
X0013804Y0047866D01*
X0014108Y0047560D01*
X0014347Y0047200D01*
X0014511Y0046801D01*
X0014595Y0046379D01*
X0014595Y0046379D01*
X0014595Y0046378D01*
X0014588Y0045885D01*
X0014588Y0045885D01*
X0014588Y0045885D01*
X0014493Y0045465D01*
X0014317Y0045071D01*
X0014069Y0044718D01*
X0013756Y0044420D01*
X0013392Y0044189D01*
X0012990Y0044033D01*
X0012565Y0043958D01*
X0012133Y0043967D01*
X0011712Y0044060D01*
X0011317Y0044233D01*
X0010962Y0044479D01*
X0010663Y0044789D01*
X0010429Y0045152D01*
X0010270Y0045553D01*
X0010192Y0045978D01*
X0010198Y0046409D01*
X0010288Y0046831D01*
X0010458Y0047227D01*
X0010702Y0047583D01*
X0011010Y0047885D01*
X0011371Y0048122D01*
X0011771Y0048283D01*
X0012195Y0048364D01*
X0012626Y0048361D01*
X0012626Y0048361D01*
G37*
G36*
X0022786Y0048361D02*
X0023209Y0048274D01*
X0023607Y0048107D01*
X0023964Y0047866D01*
X0024268Y0047560D01*
X0024507Y0047200D01*
X0024671Y0046801D01*
X0024755Y0046379D01*
X0024755Y0046379D01*
X0024755Y0046378D01*
X0024748Y0045885D01*
X0024748Y0045885D01*
X0024748Y0045885D01*
X0024653Y0045465D01*
X0024477Y0045071D01*
X0024229Y0044718D01*
X0023916Y0044420D01*
X0023552Y0044189D01*
X0023150Y0044033D01*
X0022725Y0043958D01*
X0022293Y0043967D01*
X0021872Y0044060D01*
X0021477Y0044233D01*
X0021122Y0044479D01*
X0020823Y0044789D01*
X0020589Y0045152D01*
X0020430Y0045553D01*
X0020352Y0045978D01*
X0020358Y0046409D01*
X0020448Y0046831D01*
X0020618Y0047227D01*
X0020862Y0047583D01*
X0021170Y0047885D01*
X0021531Y0048122D01*
X0021931Y0048283D01*
X0022355Y0048364D01*
X0022786Y0048361D01*
X0022786Y0048361D01*
G37*
G36*
X0004518Y0050344D02*
X0002594Y0050344D01*
X0002594Y0052268D01*
X0004518Y0052268D01*
X0004518Y0050344D01*
X0004518Y0050344D01*
G37*
G36*
X0007058Y0050344D02*
X0005134Y0050344D01*
X0005134Y0052268D01*
X0007058Y0052268D01*
X0007058Y0050344D01*
X0007058Y0050344D01*
G37*
G36*
X0045158Y0050344D02*
X0043234Y0050344D01*
X0043234Y0052268D01*
X0045158Y0052268D01*
X0045158Y0050344D01*
X0045158Y0050344D01*
G37*
G36*
X0047698Y0050344D02*
X0045774Y0050344D01*
X0045774Y0052268D01*
X0047698Y0052268D01*
X0047698Y0050344D01*
X0047698Y0050344D01*
G37*
G36*
X0020771Y0053722D02*
X0021002Y0053674D01*
X0021219Y0053583D01*
X0021414Y0053452D01*
X0021580Y0053285D01*
X0021710Y0053089D01*
X0021800Y0052871D01*
X0021845Y0052641D01*
X0021845Y0052641D01*
X0021845Y0052640D01*
X0021841Y0052371D01*
X0021841Y0052371D01*
X0021841Y0052371D01*
X0021789Y0052142D01*
X0021694Y0051927D01*
X0021558Y0051735D01*
X0021388Y0051572D01*
X0021189Y0051446D01*
X0020969Y0051361D01*
X0020738Y0051320D01*
X0020502Y0051325D01*
X0020273Y0051376D01*
X0020057Y0051470D01*
X0019864Y0051604D01*
X0019700Y0051774D01*
X0019573Y0051971D01*
X0019486Y0052190D01*
X0019473Y0052261D01*
X0019468Y0052280D01*
X0019459Y0052297D01*
X0019447Y0052312D01*
X0019432Y0052325D01*
X0019414Y0052334D01*
X0019396Y0052340D01*
X0019376Y0052343D01*
X0019357Y0052341D01*
X0019338Y0052336D01*
X0019320Y0052327D01*
X0019305Y0052314D01*
X0019292Y0052299D01*
X0019283Y0052282D01*
X0019277Y0052265D01*
X0019249Y0052142D01*
X0019154Y0051927D01*
X0019018Y0051735D01*
X0018848Y0051572D01*
X0018649Y0051446D01*
X0018429Y0051361D01*
X0018198Y0051320D01*
X0017962Y0051325D01*
X0017733Y0051376D01*
X0017517Y0051470D01*
X0017324Y0051604D01*
X0017160Y0051774D01*
X0017033Y0051971D01*
X0016946Y0052190D01*
X0016933Y0052261D01*
X0016928Y0052280D01*
X0016919Y0052297D01*
X0016907Y0052312D01*
X0016892Y0052325D01*
X0016874Y0052334D01*
X0016856Y0052340D01*
X0016836Y0052343D01*
X0016817Y0052341D01*
X0016798Y0052336D01*
X0016780Y0052327D01*
X0016765Y0052314D01*
X0016752Y0052299D01*
X0016743Y0052282D01*
X0016737Y0052265D01*
X0016709Y0052142D01*
X0016614Y0051927D01*
X0016478Y0051735D01*
X0016308Y0051572D01*
X0016109Y0051446D01*
X0015889Y0051361D01*
X0015658Y0051320D01*
X0015422Y0051325D01*
X0015193Y0051376D01*
X0014977Y0051470D01*
X0014784Y0051604D01*
X0014620Y0051774D01*
X0014493Y0051971D01*
X0014406Y0052190D01*
X0014364Y0052422D01*
X0014367Y0052657D01*
X0014416Y0052887D01*
X0014509Y0053103D01*
X0014641Y0053298D01*
X0014810Y0053462D01*
X0015007Y0053591D01*
X0015225Y0053679D01*
X0015456Y0053723D01*
X0015691Y0053722D01*
X0015922Y0053674D01*
X0016139Y0053583D01*
X0016334Y0053452D01*
X0016500Y0053285D01*
X0016630Y0053089D01*
X0016720Y0052871D01*
X0016737Y0052782D01*
X0016743Y0052763D01*
X0016752Y0052746D01*
X0016765Y0052730D01*
X0016780Y0052718D01*
X0016797Y0052709D01*
X0016816Y0052703D01*
X0016835Y0052701D01*
X0016855Y0052703D01*
X0016874Y0052709D01*
X0016891Y0052718D01*
X0016906Y0052730D01*
X0016918Y0052746D01*
X0016928Y0052763D01*
X0016933Y0052780D01*
X0016956Y0052887D01*
X0017049Y0053103D01*
X0017181Y0053298D01*
X0017350Y0053462D01*
X0017547Y0053591D01*
X0017765Y0053679D01*
X0017996Y0053723D01*
X0018231Y0053722D01*
X0018462Y0053674D01*
X0018679Y0053583D01*
X0018874Y0053452D01*
X0019040Y0053285D01*
X0019170Y0053089D01*
X0019260Y0052871D01*
X0019277Y0052782D01*
X0019283Y0052763D01*
X0019292Y0052746D01*
X0019305Y0052730D01*
X0019320Y0052718D01*
X0019337Y0052709D01*
X0019356Y0052703D01*
X0019375Y0052701D01*
X0019395Y0052703D01*
X0019414Y0052709D01*
X0019431Y0052718D01*
X0019446Y0052730D01*
X0019458Y0052746D01*
X0019468Y0052763D01*
X0019473Y0052780D01*
X0019496Y0052887D01*
X0019589Y0053103D01*
X0019721Y0053298D01*
X0019890Y0053462D01*
X0020087Y0053591D01*
X0020305Y0053679D01*
X0020536Y0053723D01*
X0020771Y0053722D01*
X0020771Y0053722D01*
G37*
G36*
X0036011Y0053722D02*
X0036242Y0053674D01*
X0036459Y0053583D01*
X0036654Y0053452D01*
X0036820Y0053285D01*
X0036950Y0053089D01*
X0037040Y0052871D01*
X0037085Y0052641D01*
X0037085Y0052641D01*
X0037085Y0052640D01*
X0037081Y0052371D01*
X0037081Y0052371D01*
X0037081Y0052371D01*
X0037029Y0052142D01*
X0036934Y0051927D01*
X0036798Y0051735D01*
X0036628Y0051572D01*
X0036429Y0051446D01*
X0036209Y0051361D01*
X0035978Y0051320D01*
X0035742Y0051325D01*
X0035513Y0051376D01*
X0035297Y0051470D01*
X0035104Y0051604D01*
X0034940Y0051774D01*
X0034813Y0051971D01*
X0034726Y0052190D01*
X0034713Y0052261D01*
X0034708Y0052280D01*
X0034699Y0052297D01*
X0034687Y0052312D01*
X0034672Y0052325D01*
X0034654Y0052334D01*
X0034636Y0052340D01*
X0034616Y0052343D01*
X0034597Y0052341D01*
X0034578Y0052336D01*
X0034560Y0052327D01*
X0034545Y0052314D01*
X0034532Y0052299D01*
X0034523Y0052282D01*
X0034517Y0052265D01*
X0034489Y0052142D01*
X0034394Y0051927D01*
X0034258Y0051735D01*
X0034088Y0051572D01*
X0033889Y0051446D01*
X0033669Y0051361D01*
X0033438Y0051320D01*
X0033202Y0051325D01*
X0032973Y0051376D01*
X0032757Y0051470D01*
X0032564Y0051604D01*
X0032400Y0051774D01*
X0032273Y0051971D01*
X0032186Y0052190D01*
X0032173Y0052261D01*
X0032168Y0052280D01*
X0032159Y0052297D01*
X0032147Y0052312D01*
X0032132Y0052325D01*
X0032114Y0052334D01*
X0032096Y0052340D01*
X0032076Y0052343D01*
X0032057Y0052341D01*
X0032038Y0052336D01*
X0032020Y0052327D01*
X0032005Y0052314D01*
X0031992Y0052299D01*
X0031983Y0052282D01*
X0031977Y0052265D01*
X0031949Y0052142D01*
X0031854Y0051927D01*
X0031718Y0051735D01*
X0031548Y0051572D01*
X0031349Y0051446D01*
X0031129Y0051361D01*
X0030898Y0051320D01*
X0030662Y0051325D01*
X0030433Y0051376D01*
X0030217Y0051470D01*
X0030024Y0051604D01*
X0029860Y0051774D01*
X0029733Y0051971D01*
X0029646Y0052190D01*
X0029604Y0052422D01*
X0029607Y0052657D01*
X0029656Y0052887D01*
X0029749Y0053103D01*
X0029881Y0053298D01*
X0030050Y0053462D01*
X0030247Y0053591D01*
X0030465Y0053679D01*
X0030696Y0053723D01*
X0030931Y0053722D01*
X0031162Y0053674D01*
X0031379Y0053583D01*
X0031574Y0053452D01*
X0031740Y0053285D01*
X0031870Y0053089D01*
X0031960Y0052871D01*
X0031977Y0052782D01*
X0031983Y0052763D01*
X0031992Y0052746D01*
X0032005Y0052730D01*
X0032020Y0052718D01*
X0032037Y0052709D01*
X0032056Y0052703D01*
X0032075Y0052701D01*
X0032095Y0052703D01*
X0032114Y0052709D01*
X0032131Y0052718D01*
X0032146Y0052730D01*
X0032158Y0052746D01*
X0032168Y0052763D01*
X0032173Y0052780D01*
X0032196Y0052887D01*
X0032289Y0053103D01*
X0032421Y0053298D01*
X0032590Y0053462D01*
X0032787Y0053591D01*
X0033005Y0053679D01*
X0033236Y0053723D01*
X0033471Y0053722D01*
X0033702Y0053674D01*
X0033919Y0053583D01*
X0034114Y0053452D01*
X0034280Y0053285D01*
X0034410Y0053089D01*
X0034500Y0052871D01*
X0034517Y0052782D01*
X0034523Y0052763D01*
X0034532Y0052746D01*
X0034545Y0052730D01*
X0034560Y0052718D01*
X0034577Y0052709D01*
X0034596Y0052703D01*
X0034615Y0052701D01*
X0034635Y0052703D01*
X0034654Y0052709D01*
X0034671Y0052718D01*
X0034686Y0052730D01*
X0034698Y0052746D01*
X0034708Y0052763D01*
X0034713Y0052780D01*
X0034736Y0052887D01*
X0034829Y0053103D01*
X0034961Y0053298D01*
X0035130Y0053462D01*
X0035327Y0053591D01*
X0035545Y0053679D01*
X0035776Y0053723D01*
X0036011Y0053722D01*
X0036011Y0053722D01*
G37*
G36*
X0024726Y0052212D02*
X0023026Y0052212D01*
X0023026Y0053062D01*
X0024726Y0053062D01*
X0024726Y0052212D01*
X0024726Y0052212D01*
G37*
G36*
X0027020Y0052273D02*
X0025319Y0052273D01*
X0025319Y0053123D01*
X0027020Y0053123D01*
X0027020Y0052273D01*
X0027020Y0052273D01*
G37*
G36*
X0007058Y0052884D02*
X0005134Y0052884D01*
X0005134Y0054808D01*
X0007058Y0054808D01*
X0007058Y0052884D01*
X0007058Y0052884D01*
G37*
G36*
X0045158Y0052884D02*
X0043234Y0052884D01*
X0043234Y0054808D01*
X0045158Y0054808D01*
X0045158Y0052884D01*
X0045158Y0052884D01*
G37*
G36*
X0047698Y0052884D02*
X0045774Y0052884D01*
X0045774Y0054808D01*
X0047698Y0054808D01*
X0047698Y0052884D01*
X0047698Y0052884D01*
G37*
G36*
X0004518Y0052884D02*
X0002594Y0052884D01*
X0002594Y0054808D01*
X0004518Y0054808D01*
X0004518Y0052884D01*
X0004518Y0052884D01*
G37*
G36*
X0023725Y0053614D02*
X0023026Y0053614D01*
X0023026Y0054464D01*
X0023725Y0054464D01*
X0023725Y0053614D01*
X0023725Y0053614D01*
G37*
G36*
X0024726Y0053614D02*
X0024027Y0053614D01*
X0024027Y0054464D01*
X0024726Y0054464D01*
X0024726Y0053614D01*
X0024726Y0053614D01*
G37*
G36*
X0026019Y0053675D02*
X0025319Y0053675D01*
X0025319Y0054525D01*
X0026019Y0054525D01*
X0026019Y0053675D01*
X0026019Y0053675D01*
G37*
G36*
X0027020Y0053675D02*
X0026320Y0053675D01*
X0026320Y0054525D01*
X0027020Y0054525D01*
X0027020Y0053675D01*
X0027020Y0053675D01*
G37*
G36*
X0034741Y0056262D02*
X0034972Y0056214D01*
X0035189Y0056123D01*
X0035384Y0055992D01*
X0035550Y0055825D01*
X0035680Y0055629D01*
X0035770Y0055411D01*
X0035815Y0055181D01*
X0035815Y0055181D01*
X0035815Y0055180D01*
X0035811Y0054911D01*
X0035811Y0054911D01*
X0035811Y0054911D01*
X0035759Y0054682D01*
X0035664Y0054467D01*
X0035528Y0054275D01*
X0035358Y0054112D01*
X0035159Y0053986D01*
X0034939Y0053901D01*
X0034708Y0053860D01*
X0034472Y0053865D01*
X0034243Y0053916D01*
X0034027Y0054010D01*
X0033834Y0054144D01*
X0033670Y0054314D01*
X0033543Y0054511D01*
X0033456Y0054730D01*
X0033443Y0054801D01*
X0033438Y0054820D01*
X0033429Y0054837D01*
X0033417Y0054852D01*
X0033402Y0054865D01*
X0033384Y0054874D01*
X0033366Y0054880D01*
X0033346Y0054883D01*
X0033327Y0054881D01*
X0033308Y0054876D01*
X0033290Y0054867D01*
X0033275Y0054854D01*
X0033262Y0054839D01*
X0033253Y0054822D01*
X0033247Y0054805D01*
X0033219Y0054682D01*
X0033124Y0054467D01*
X0032988Y0054275D01*
X0032818Y0054112D01*
X0032619Y0053986D01*
X0032399Y0053901D01*
X0032168Y0053860D01*
X0031932Y0053865D01*
X0031703Y0053916D01*
X0031487Y0054010D01*
X0031294Y0054144D01*
X0031130Y0054314D01*
X0031003Y0054511D01*
X0030916Y0054730D01*
X0030903Y0054801D01*
X0030898Y0054820D01*
X0030889Y0054837D01*
X0030877Y0054852D01*
X0030862Y0054865D01*
X0030844Y0054874D01*
X0030826Y0054880D01*
X0030806Y0054883D01*
X0030787Y0054881D01*
X0030768Y0054876D01*
X0030750Y0054867D01*
X0030735Y0054854D01*
X0030722Y0054839D01*
X0030713Y0054822D01*
X0030707Y0054805D01*
X0030679Y0054682D01*
X0030584Y0054467D01*
X0030448Y0054275D01*
X0030278Y0054112D01*
X0030079Y0053986D01*
X0029859Y0053901D01*
X0029628Y0053860D01*
X0029392Y0053865D01*
X0029163Y0053916D01*
X0028947Y0054010D01*
X0028754Y0054144D01*
X0028590Y0054314D01*
X0028463Y0054511D01*
X0028376Y0054730D01*
X0028334Y0054962D01*
X0028337Y0055197D01*
X0028386Y0055427D01*
X0028479Y0055643D01*
X0028611Y0055838D01*
X0028780Y0056002D01*
X0028977Y0056131D01*
X0029195Y0056219D01*
X0029426Y0056263D01*
X0029661Y0056262D01*
X0029892Y0056214D01*
X0030109Y0056123D01*
X0030304Y0055992D01*
X0030470Y0055825D01*
X0030600Y0055629D01*
X0030690Y0055411D01*
X0030707Y0055322D01*
X0030713Y0055303D01*
X0030722Y0055286D01*
X0030735Y0055270D01*
X0030750Y0055258D01*
X0030767Y0055249D01*
X0030786Y0055243D01*
X0030805Y0055241D01*
X0030825Y0055243D01*
X0030844Y0055249D01*
X0030861Y0055258D01*
X0030876Y0055270D01*
X0030888Y0055286D01*
X0030898Y0055303D01*
X0030903Y0055320D01*
X0030926Y0055427D01*
X0031019Y0055643D01*
X0031151Y0055838D01*
X0031320Y0056002D01*
X0031517Y0056131D01*
X0031735Y0056219D01*
X0031966Y0056263D01*
X0032201Y0056262D01*
X0032432Y0056214D01*
X0032649Y0056123D01*
X0032844Y0055992D01*
X0033010Y0055825D01*
X0033140Y0055629D01*
X0033230Y0055411D01*
X0033247Y0055322D01*
X0033253Y0055303D01*
X0033262Y0055286D01*
X0033275Y0055270D01*
X0033290Y0055258D01*
X0033307Y0055249D01*
X0033326Y0055243D01*
X0033345Y0055241D01*
X0033365Y0055243D01*
X0033384Y0055249D01*
X0033401Y0055258D01*
X0033416Y0055270D01*
X0033428Y0055286D01*
X0033438Y0055303D01*
X0033443Y0055320D01*
X0033466Y0055427D01*
X0033559Y0055643D01*
X0033691Y0055838D01*
X0033860Y0056002D01*
X0034057Y0056131D01*
X0034275Y0056219D01*
X0034506Y0056263D01*
X0034741Y0056262D01*
X0034741Y0056262D01*
G37*
G36*
X0019501Y0056262D02*
X0019732Y0056214D01*
X0019949Y0056123D01*
X0020144Y0055992D01*
X0020310Y0055825D01*
X0020440Y0055629D01*
X0020530Y0055411D01*
X0020575Y0055181D01*
X0020575Y0055181D01*
X0020575Y0055180D01*
X0020571Y0054911D01*
X0020571Y0054911D01*
X0020571Y0054911D01*
X0020519Y0054682D01*
X0020424Y0054467D01*
X0020288Y0054275D01*
X0020118Y0054112D01*
X0019919Y0053986D01*
X0019699Y0053901D01*
X0019468Y0053860D01*
X0019232Y0053865D01*
X0019003Y0053916D01*
X0018787Y0054010D01*
X0018594Y0054144D01*
X0018430Y0054314D01*
X0018303Y0054511D01*
X0018216Y0054730D01*
X0018203Y0054801D01*
X0018198Y0054820D01*
X0018189Y0054837D01*
X0018177Y0054852D01*
X0018162Y0054865D01*
X0018144Y0054874D01*
X0018126Y0054880D01*
X0018106Y0054883D01*
X0018087Y0054881D01*
X0018068Y0054876D01*
X0018050Y0054867D01*
X0018035Y0054854D01*
X0018022Y0054839D01*
X0018013Y0054822D01*
X0018007Y0054805D01*
X0017979Y0054682D01*
X0017884Y0054467D01*
X0017748Y0054275D01*
X0017578Y0054112D01*
X0017379Y0053986D01*
X0017159Y0053901D01*
X0016928Y0053860D01*
X0016692Y0053865D01*
X0016463Y0053916D01*
X0016247Y0054010D01*
X0016054Y0054144D01*
X0015890Y0054314D01*
X0015763Y0054511D01*
X0015676Y0054730D01*
X0015663Y0054801D01*
X0015658Y0054820D01*
X0015649Y0054837D01*
X0015637Y0054852D01*
X0015622Y0054865D01*
X0015604Y0054874D01*
X0015586Y0054880D01*
X0015566Y0054883D01*
X0015547Y0054881D01*
X0015528Y0054876D01*
X0015510Y0054867D01*
X0015495Y0054854D01*
X0015482Y0054839D01*
X0015473Y0054822D01*
X0015467Y0054805D01*
X0015439Y0054682D01*
X0015344Y0054467D01*
X0015208Y0054275D01*
X0015038Y0054112D01*
X0014839Y0053986D01*
X0014619Y0053901D01*
X0014388Y0053860D01*
X0014152Y0053865D01*
X0013923Y0053916D01*
X0013707Y0054010D01*
X0013514Y0054144D01*
X0013350Y0054314D01*
X0013223Y0054511D01*
X0013136Y0054730D01*
X0013094Y0054962D01*
X0013097Y0055197D01*
X0013146Y0055427D01*
X0013239Y0055643D01*
X0013371Y0055838D01*
X0013540Y0056002D01*
X0013737Y0056131D01*
X0013955Y0056219D01*
X0014186Y0056263D01*
X0014421Y0056262D01*
X0014652Y0056214D01*
X0014869Y0056123D01*
X0015064Y0055992D01*
X0015230Y0055825D01*
X0015360Y0055629D01*
X0015450Y0055411D01*
X0015467Y0055322D01*
X0015473Y0055303D01*
X0015482Y0055286D01*
X0015495Y0055270D01*
X0015510Y0055258D01*
X0015527Y0055249D01*
X0015546Y0055243D01*
X0015565Y0055241D01*
X0015585Y0055243D01*
X0015604Y0055249D01*
X0015621Y0055258D01*
X0015636Y0055270D01*
X0015648Y0055286D01*
X0015658Y0055303D01*
X0015663Y0055320D01*
X0015686Y0055427D01*
X0015779Y0055643D01*
X0015911Y0055838D01*
X0016080Y0056002D01*
X0016277Y0056131D01*
X0016495Y0056219D01*
X0016726Y0056263D01*
X0016961Y0056262D01*
X0017192Y0056214D01*
X0017409Y0056123D01*
X0017604Y0055992D01*
X0017770Y0055825D01*
X0017900Y0055629D01*
X0017990Y0055411D01*
X0018007Y0055322D01*
X0018013Y0055303D01*
X0018022Y0055286D01*
X0018035Y0055270D01*
X0018050Y0055258D01*
X0018067Y0055249D01*
X0018086Y0055243D01*
X0018105Y0055241D01*
X0018125Y0055243D01*
X0018144Y0055249D01*
X0018161Y0055258D01*
X0018176Y0055270D01*
X0018188Y0055286D01*
X0018198Y0055303D01*
X0018203Y0055320D01*
X0018226Y0055427D01*
X0018319Y0055643D01*
X0018451Y0055838D01*
X0018620Y0056002D01*
X0018817Y0056131D01*
X0019035Y0056219D01*
X0019266Y0056263D01*
X0019501Y0056262D01*
X0019501Y0056262D01*
G37*
G36*
X0045158Y0055424D02*
X0043234Y0055424D01*
X0043234Y0057348D01*
X0045158Y0057348D01*
X0045158Y0055424D01*
X0045158Y0055424D01*
G37*
G36*
X0007058Y0055424D02*
X0005134Y0055424D01*
X0005134Y0057348D01*
X0007058Y0057348D01*
X0007058Y0055424D01*
X0007058Y0055424D01*
G37*
G36*
X0004518Y0055424D02*
X0002594Y0055424D01*
X0002594Y0057348D01*
X0004518Y0057348D01*
X0004518Y0055424D01*
X0004518Y0055424D01*
G37*
G36*
X0047698Y0055424D02*
X0045774Y0055424D01*
X0045774Y0057348D01*
X0047698Y0057348D01*
X0047698Y0055424D01*
X0047698Y0055424D01*
G37*
G36*
X0007058Y0057964D02*
X0005134Y0057964D01*
X0005134Y0059888D01*
X0007058Y0059888D01*
X0007058Y0057964D01*
X0007058Y0057964D01*
G37*
G36*
X0004518Y0057964D02*
X0002594Y0057964D01*
X0002594Y0059888D01*
X0004518Y0059888D01*
X0004518Y0057964D01*
X0004518Y0057964D01*
G37*
G36*
X0047698Y0057964D02*
X0045774Y0057964D01*
X0045774Y0059888D01*
X0047698Y0059888D01*
X0047698Y0057964D01*
X0047698Y0057964D01*
G37*
G36*
X0045158Y0057964D02*
X0043234Y0057964D01*
X0043234Y0059888D01*
X0045158Y0059888D01*
X0045158Y0057964D01*
X0045158Y0057964D01*
G37*
G36*
X0022171Y0058282D02*
X0020882Y0058282D01*
X0020882Y0060079D01*
X0022171Y0060079D01*
X0022171Y0058282D01*
X0022171Y0058282D01*
G37*
G36*
X0020266Y0058282D02*
X0017580Y0058282D01*
X0017580Y0060079D01*
X0020266Y0060079D01*
X0020266Y0058282D01*
X0020266Y0058282D01*
G37*
G36*
X0016964Y0058282D02*
X0015675Y0058282D01*
X0015675Y0060079D01*
X0016964Y0060079D01*
X0016964Y0058282D01*
X0016964Y0058282D01*
G37*
G36*
X0023124Y0060314D02*
X0021835Y0060314D01*
X0021835Y0062111D01*
X0023124Y0062111D01*
X0023124Y0060314D01*
X0023124Y0060314D01*
G37*
G36*
X0021219Y0060314D02*
X0019930Y0060314D01*
X0019930Y0062111D01*
X0021219Y0062111D01*
X0021219Y0060314D01*
X0021219Y0060314D01*
G37*
G36*
X0012138Y0060504D02*
X0010214Y0060504D01*
X0010214Y0062428D01*
X0012138Y0062428D01*
X0012138Y0060504D01*
X0012138Y0060504D01*
G37*
G36*
X0014678Y0060504D02*
X0012754Y0060504D01*
X0012754Y0062428D01*
X0014678Y0062428D01*
X0014678Y0060504D01*
X0014678Y0060504D01*
G37*
G36*
X0005162Y0068474D02*
X0005777Y0068348D01*
X0006355Y0068105D01*
X0006876Y0067754D01*
X0007318Y0067308D01*
X0007665Y0066786D01*
X0007904Y0066205D01*
X0008026Y0065590D01*
X0008026Y0065590D01*
X0008026Y0065590D01*
X0008016Y0064873D01*
X0008016Y0064872D01*
X0008016Y0064872D01*
X0007877Y0064261D01*
X0007622Y0063688D01*
X0007260Y0063175D01*
X0006806Y0062742D01*
X0006276Y0062406D01*
X0005691Y0062179D01*
X0005073Y0062070D01*
X0004445Y0062083D01*
X0003832Y0062218D01*
X0003257Y0062469D01*
X0002742Y0062827D01*
X0002306Y0063279D01*
X0001966Y0063806D01*
X0001735Y0064390D01*
X0001622Y0065007D01*
X0001631Y0065634D01*
X0001761Y0066248D01*
X0002008Y0066825D01*
X0002363Y0067343D01*
X0002811Y0067782D01*
X0003336Y0068126D01*
X0003918Y0068361D01*
X0004535Y0068478D01*
X0005162Y0068474D01*
X0005162Y0068474D01*
G37*
G36*
X0045802Y0068474D02*
X0046417Y0068348D01*
X0046995Y0068105D01*
X0047516Y0067754D01*
X0047958Y0067308D01*
X0048305Y0066786D01*
X0048544Y0066205D01*
X0048666Y0065590D01*
X0048666Y0065590D01*
X0048666Y0065590D01*
X0048656Y0064873D01*
X0048656Y0064872D01*
X0048656Y0064872D01*
X0048517Y0064261D01*
X0048262Y0063688D01*
X0047900Y0063175D01*
X0047446Y0062742D01*
X0046916Y0062406D01*
X0046331Y0062179D01*
X0045713Y0062070D01*
X0045085Y0062083D01*
X0044472Y0062218D01*
X0043897Y0062469D01*
X0043382Y0062827D01*
X0042946Y0063279D01*
X0042606Y0063806D01*
X0042375Y0064390D01*
X0042262Y0065007D01*
X0042271Y0065634D01*
X0042401Y0066248D01*
X0042648Y0066825D01*
X0043003Y0067343D01*
X0043451Y0067782D01*
X0043976Y0068126D01*
X0044558Y0068361D01*
X0045175Y0068478D01*
X0045802Y0068474D01*
X0045802Y0068474D01*
G37*
G36*
X0037538Y0063044D02*
X0035614Y0063044D01*
X0035614Y0064968D01*
X0037538Y0064968D01*
X0037538Y0063044D01*
X0037538Y0063044D01*
G37*
G36*
X0014678Y0063044D02*
X0012754Y0063044D01*
X0012754Y0064968D01*
X0014678Y0064968D01*
X0014678Y0063044D01*
X0014678Y0063044D01*
G37*
G36*
X0034998Y0063044D02*
X0033074Y0063044D01*
X0033074Y0064968D01*
X0034998Y0064968D01*
X0034998Y0063044D01*
X0034998Y0063044D01*
G37*
G36*
X0024838Y0063044D02*
X0022914Y0063044D01*
X0022914Y0064968D01*
X0024838Y0064968D01*
X0024838Y0063044D01*
X0024838Y0063044D01*
G37*
G36*
X0022298Y0063044D02*
X0020374Y0063044D01*
X0020374Y0064968D01*
X0022298Y0064968D01*
X0022298Y0063044D01*
X0022298Y0063044D01*
G37*
G36*
X0017218Y0063044D02*
X0015294Y0063044D01*
X0015294Y0064968D01*
X0017218Y0064968D01*
X0017218Y0063044D01*
X0017218Y0063044D01*
G37*
G36*
X0019758Y0063044D02*
X0017834Y0063044D01*
X0017834Y0064968D01*
X0019758Y0064968D01*
X0019758Y0063044D01*
X0019758Y0063044D01*
G37*
G36*
X0037538Y0065584D02*
X0035614Y0065584D01*
X0035614Y0067508D01*
X0037538Y0067508D01*
X0037538Y0065584D01*
X0037538Y0065584D01*
G37*
G36*
X0017218Y0065584D02*
X0015294Y0065584D01*
X0015294Y0067508D01*
X0017218Y0067508D01*
X0017218Y0065584D01*
X0017218Y0065584D01*
G37*
G36*
X0024838Y0065584D02*
X0022914Y0065584D01*
X0022914Y0067508D01*
X0024838Y0067508D01*
X0024838Y0065584D01*
X0024838Y0065584D01*
G37*
G36*
X0014678Y0065584D02*
X0012754Y0065584D01*
X0012754Y0067508D01*
X0014678Y0067508D01*
X0014678Y0065584D01*
X0014678Y0065584D01*
G37*
G36*
X0022298Y0065584D02*
X0020374Y0065584D01*
X0020374Y0067508D01*
X0022298Y0067508D01*
X0022298Y0065584D01*
X0022298Y0065584D01*
G37*
G36*
X0019758Y0065584D02*
X0017834Y0065584D01*
X0017834Y0067508D01*
X0019758Y0067508D01*
X0019758Y0065584D01*
X0019758Y0065584D01*
G37*
G36*
X0034998Y0065584D02*
X0033074Y0065584D01*
X0033074Y0067508D01*
X0034998Y0067508D01*
X0034998Y0065584D01*
X0034998Y0065584D01*
G37*
X0050290Y0029970D02*
%LPD*%
G01*
D23*
G36*
X0055452Y0037994D02*
X0056067Y0037868D01*
X0056645Y0037625D01*
X0057166Y0037274D01*
X0057608Y0036828D01*
X0057955Y0036306D01*
X0058194Y0035725D01*
X0058316Y0035110D01*
X0058316Y0035110D01*
X0058316Y0035110D01*
X0058306Y0034393D01*
X0058306Y0034392D01*
X0058306Y0034392D01*
X0058167Y0033781D01*
X0057912Y0033208D01*
X0057550Y0032695D01*
X0057096Y0032262D01*
X0056566Y0031926D01*
X0055981Y0031699D01*
X0055363Y0031590D01*
X0054735Y0031603D01*
X0054122Y0031738D01*
X0053547Y0031989D01*
X0053032Y0032347D01*
X0052596Y0032799D01*
X0052256Y0033326D01*
X0052025Y0033910D01*
X0051912Y0034527D01*
X0051921Y0035154D01*
X0052051Y0035768D01*
X0052298Y0036345D01*
X0052653Y0036863D01*
X0053101Y0037302D01*
X0053626Y0037646D01*
X0054208Y0037881D01*
X0054825Y0037998D01*
X0055452Y0037994D01*
X0055452Y0037994D01*
G37*
G36*
X0065612Y0037994D02*
X0066227Y0037868D01*
X0066805Y0037625D01*
X0067326Y0037274D01*
X0067768Y0036828D01*
X0068115Y0036306D01*
X0068354Y0035725D01*
X0068476Y0035110D01*
X0068476Y0035110D01*
X0068476Y0035110D01*
X0068466Y0034393D01*
X0068466Y0034392D01*
X0068466Y0034392D01*
X0068327Y0033781D01*
X0068072Y0033208D01*
X0067710Y0032695D01*
X0067256Y0032262D01*
X0066726Y0031926D01*
X0066141Y0031699D01*
X0065523Y0031590D01*
X0064895Y0031603D01*
X0064282Y0031738D01*
X0063707Y0031989D01*
X0063192Y0032347D01*
X0062756Y0032799D01*
X0062416Y0033326D01*
X0062185Y0033910D01*
X0062072Y0034527D01*
X0062081Y0035154D01*
X0062211Y0035768D01*
X0062458Y0036345D01*
X0062813Y0036863D01*
X0063261Y0037302D01*
X0063786Y0037646D01*
X0064368Y0037881D01*
X0064985Y0037998D01*
X0065612Y0037994D01*
X0065612Y0037994D01*
G37*
G36*
X0061349Y0037352D02*
X0060060Y0037352D01*
X0060060Y0039149D01*
X0061349Y0039149D01*
X0061349Y0037352D01*
X0061349Y0037352D01*
G37*
G36*
X0059444Y0037352D02*
X0058155Y0037352D01*
X0058155Y0039149D01*
X0059444Y0039149D01*
X0059444Y0037352D01*
X0059444Y0037352D01*
G37*
G36*
X0059444Y0041281D02*
X0059445Y0041261D01*
X0059451Y0041243D01*
X0059460Y0041225D01*
X0059469Y0041215D01*
X0059469Y0039384D01*
X0058180Y0039384D01*
X0058180Y0041214D01*
X0058178Y0041234D01*
X0058172Y0041253D01*
X0058163Y0041270D01*
X0058155Y0041280D01*
X0058155Y0043111D01*
X0059444Y0043111D01*
X0059444Y0041281D01*
X0059444Y0041281D01*
G37*
G36*
X0061349Y0041281D02*
X0061350Y0041261D01*
X0061356Y0041243D01*
X0061365Y0041225D01*
X0061374Y0041215D01*
X0061374Y0039384D01*
X0060085Y0039384D01*
X0060085Y0041214D01*
X0060083Y0041234D01*
X0060077Y0041253D01*
X0060068Y0041270D01*
X0060060Y0041280D01*
X0060060Y0043111D01*
X0061349Y0043111D01*
X0061349Y0041281D01*
X0061349Y0041281D01*
G37*
G36*
X0054681Y0039422D02*
X0052757Y0039422D01*
X0052757Y0041346D01*
X0054681Y0041346D01*
X0054681Y0039422D01*
X0054681Y0039422D01*
G37*
G36*
X0057221Y0039422D02*
X0055297Y0039422D01*
X0055297Y0041346D01*
X0057221Y0041346D01*
X0057221Y0039422D01*
X0057221Y0039422D01*
G37*
G36*
X0068422Y0039727D02*
X0066498Y0039727D01*
X0066498Y0041651D01*
X0068422Y0041651D01*
X0068422Y0039727D01*
X0068422Y0039727D01*
G37*
G36*
X0065882Y0039727D02*
X0063958Y0039727D01*
X0063958Y0041651D01*
X0065882Y0041651D01*
X0065882Y0039727D01*
X0065882Y0039727D01*
G37*
G36*
X0057221Y0041962D02*
X0055297Y0041962D01*
X0055297Y0043886D01*
X0057221Y0043886D01*
X0057221Y0041962D01*
X0057221Y0041962D01*
G37*
G36*
X0054681Y0041962D02*
X0052757Y0041962D01*
X0052757Y0043886D01*
X0054681Y0043886D01*
X0054681Y0041962D01*
X0054681Y0041962D01*
G37*
G36*
X0069608Y0043200D02*
X0067758Y0043200D01*
X0067758Y0046000D01*
X0069608Y0046000D01*
X0069608Y0043200D01*
X0069608Y0043200D01*
G37*
G36*
X0063708Y0043200D02*
X0061858Y0043200D01*
X0061858Y0046000D01*
X0063708Y0046000D01*
X0063708Y0043200D01*
X0063708Y0043200D01*
G37*
G36*
X0057221Y0044502D02*
X0055297Y0044502D01*
X0055297Y0046426D01*
X0057221Y0046426D01*
X0057221Y0044502D01*
X0057221Y0044502D01*
G37*
G36*
X0054681Y0044502D02*
X0052757Y0044502D01*
X0052757Y0046426D01*
X0054681Y0046426D01*
X0054681Y0044502D01*
X0054681Y0044502D01*
G37*
G36*
X0061552Y0046648D02*
X0060263Y0046648D01*
X0060263Y0048445D01*
X0061552Y0048445D01*
X0061552Y0046648D01*
X0061552Y0046648D01*
G37*
G36*
X0059647Y0046648D02*
X0058358Y0046648D01*
X0058358Y0048445D01*
X0059647Y0048445D01*
X0059647Y0046648D01*
X0059647Y0046648D01*
G37*
G36*
X0064016Y0046699D02*
X0062727Y0046699D01*
X0062727Y0048496D01*
X0064016Y0048496D01*
X0064016Y0046699D01*
X0064016Y0046699D01*
G37*
G36*
X0065921Y0046699D02*
X0064632Y0046699D01*
X0064632Y0048496D01*
X0065921Y0048496D01*
X0065921Y0046699D01*
X0065921Y0046699D01*
G37*
G36*
X0057221Y0047931D02*
X0055297Y0047931D01*
X0055297Y0049855D01*
X0057221Y0049855D01*
X0057221Y0047931D01*
X0057221Y0047931D01*
G37*
G36*
X0054681Y0047931D02*
X0052757Y0047931D01*
X0052757Y0049855D01*
X0054681Y0049855D01*
X0054681Y0047931D01*
X0054681Y0047931D01*
G37*
G36*
X0062770Y0048706D02*
X0060670Y0048706D01*
X0060670Y0050406D01*
X0062770Y0050406D01*
X0062770Y0048706D01*
X0062770Y0048706D01*
G37*
G36*
X0065271Y0049296D02*
X0063421Y0049296D01*
X0063421Y0052096D01*
X0065271Y0052096D01*
X0065271Y0049296D01*
X0065271Y0049296D01*
G37*
G36*
X0069671Y0049296D02*
X0067821Y0049296D01*
X0067821Y0052096D01*
X0069671Y0052096D01*
X0069671Y0049296D01*
X0069671Y0049296D01*
G37*
G36*
X0060079Y0050268D02*
X0058282Y0050268D01*
X0058282Y0051557D01*
X0060079Y0051557D01*
X0060079Y0050268D01*
X0060079Y0050268D01*
G37*
G36*
X0057221Y0050471D02*
X0055297Y0050471D01*
X0055297Y0052395D01*
X0057221Y0052395D01*
X0057221Y0050471D01*
X0057221Y0050471D01*
G37*
G36*
X0054681Y0050471D02*
X0052757Y0050471D01*
X0052757Y0052395D01*
X0054681Y0052395D01*
X0054681Y0050471D01*
X0054681Y0050471D01*
G37*
G36*
X0060079Y0052173D02*
X0058282Y0052173D01*
X0058282Y0053462D01*
X0060079Y0053462D01*
X0060079Y0052173D01*
X0060079Y0052173D01*
G37*
G36*
X0062770Y0052206D02*
X0060670Y0052206D01*
X0060670Y0053906D01*
X0062770Y0053906D01*
X0062770Y0052206D01*
X0062770Y0052206D01*
G37*
G36*
X0067279Y0052948D02*
X0065990Y0052948D01*
X0065990Y0054745D01*
X0067279Y0054745D01*
X0067279Y0052948D01*
X0067279Y0052948D01*
G37*
G36*
X0065374Y0052948D02*
X0064085Y0052948D01*
X0064085Y0054745D01*
X0065374Y0054745D01*
X0065374Y0052948D01*
X0065374Y0052948D01*
G37*
G36*
X0054681Y0053011D02*
X0052757Y0053011D01*
X0052757Y0054935D01*
X0054681Y0054935D01*
X0054681Y0053011D01*
X0054681Y0053011D01*
G37*
G36*
X0057221Y0053011D02*
X0055297Y0053011D01*
X0055297Y0054935D01*
X0057221Y0054935D01*
X0057221Y0053011D01*
X0057221Y0053011D01*
G37*
G36*
X0060079Y0053722D02*
X0058282Y0053722D01*
X0058282Y0055011D01*
X0060079Y0055011D01*
X0060079Y0053722D01*
X0060079Y0053722D01*
G37*
G36*
X0054681Y0055551D02*
X0052757Y0055551D01*
X0052757Y0057475D01*
X0054681Y0057475D01*
X0054681Y0055551D01*
X0054681Y0055551D01*
G37*
G36*
X0057221Y0055551D02*
X0055297Y0055551D01*
X0055297Y0057475D01*
X0057221Y0057475D01*
X0057221Y0055551D01*
X0057221Y0055551D01*
G37*
G36*
X0068662Y0056611D02*
X0068662Y0056611D01*
X0068666Y0056611D01*
X0068764Y0056600D01*
X0068858Y0056571D01*
X0068944Y0056523D01*
X0069019Y0056460D01*
X0069081Y0056383D01*
X0069127Y0056296D01*
X0069155Y0056201D01*
X0069155Y0056201D01*
X0069155Y0056201D01*
X0069164Y0056103D01*
X0069153Y0056005D01*
X0069153Y0056005D01*
X0069153Y0056005D01*
X0069124Y0055911D01*
X0069077Y0055824D01*
X0069014Y0055748D01*
X0068938Y0055686D01*
X0068851Y0055640D01*
X0068757Y0055611D01*
X0068659Y0055602D01*
X0067786Y0055602D01*
X0067783Y0055602D01*
X0067783Y0055602D01*
X0067779Y0055602D01*
X0067681Y0055613D01*
X0067587Y0055643D01*
X0067501Y0055690D01*
X0067425Y0055753D01*
X0067364Y0055830D01*
X0067318Y0055917D01*
X0067290Y0056012D01*
X0067290Y0056012D01*
X0067290Y0056012D01*
X0067281Y0056110D01*
X0067292Y0056208D01*
X0067292Y0056208D01*
X0067292Y0056208D01*
X0067321Y0056302D01*
X0067368Y0056389D01*
X0067430Y0056465D01*
X0067507Y0056527D01*
X0067594Y0056573D01*
X0067688Y0056602D01*
X0067786Y0056611D01*
X0068659Y0056611D01*
X0068662Y0056611D01*
X0068662Y0056611D01*
G37*
G36*
X0063074Y0056611D02*
X0063074Y0056611D01*
X0063078Y0056611D01*
X0063176Y0056600D01*
X0063270Y0056571D01*
X0063356Y0056523D01*
X0063431Y0056460D01*
X0063493Y0056383D01*
X0063539Y0056296D01*
X0063567Y0056201D01*
X0063567Y0056201D01*
X0063567Y0056201D01*
X0063576Y0056103D01*
X0063565Y0056005D01*
X0063565Y0056005D01*
X0063565Y0056005D01*
X0063536Y0055911D01*
X0063489Y0055824D01*
X0063426Y0055748D01*
X0063350Y0055686D01*
X0063263Y0055640D01*
X0063169Y0055611D01*
X0063071Y0055602D01*
X0062198Y0055602D01*
X0062195Y0055602D01*
X0062195Y0055602D01*
X0062191Y0055602D01*
X0062093Y0055613D01*
X0061999Y0055643D01*
X0061913Y0055690D01*
X0061837Y0055753D01*
X0061776Y0055830D01*
X0061730Y0055917D01*
X0061702Y0056012D01*
X0061702Y0056012D01*
X0061702Y0056012D01*
X0061693Y0056110D01*
X0061704Y0056208D01*
X0061704Y0056208D01*
X0061704Y0056208D01*
X0061733Y0056302D01*
X0061780Y0056389D01*
X0061842Y0056465D01*
X0061919Y0056527D01*
X0062006Y0056573D01*
X0062100Y0056602D01*
X0062198Y0056611D01*
X0063071Y0056611D01*
X0063074Y0056611D01*
X0063074Y0056611D01*
G37*
G36*
X0060079Y0055627D02*
X0058282Y0055627D01*
X0058282Y0056916D01*
X0060079Y0056916D01*
X0060079Y0055627D01*
X0060079Y0055627D01*
G37*
G36*
X0063074Y0057881D02*
X0063074Y0057881D01*
X0063078Y0057881D01*
X0063176Y0057870D01*
X0063270Y0057841D01*
X0063356Y0057793D01*
X0063431Y0057730D01*
X0063493Y0057653D01*
X0063539Y0057566D01*
X0063567Y0057471D01*
X0063567Y0057471D01*
X0063567Y0057471D01*
X0063576Y0057373D01*
X0063565Y0057275D01*
X0063565Y0057275D01*
X0063565Y0057275D01*
X0063536Y0057181D01*
X0063489Y0057094D01*
X0063426Y0057018D01*
X0063350Y0056956D01*
X0063263Y0056910D01*
X0063169Y0056881D01*
X0063071Y0056872D01*
X0062198Y0056872D01*
X0062195Y0056872D01*
X0062195Y0056872D01*
X0062191Y0056872D01*
X0062093Y0056883D01*
X0061999Y0056913D01*
X0061913Y0056960D01*
X0061837Y0057023D01*
X0061776Y0057100D01*
X0061730Y0057187D01*
X0061702Y0057282D01*
X0061702Y0057282D01*
X0061702Y0057282D01*
X0061693Y0057380D01*
X0061704Y0057478D01*
X0061704Y0057478D01*
X0061704Y0057478D01*
X0061733Y0057572D01*
X0061780Y0057659D01*
X0061842Y0057735D01*
X0061919Y0057797D01*
X0062006Y0057843D01*
X0062100Y0057872D01*
X0062198Y0057881D01*
X0063071Y0057881D01*
X0063074Y0057881D01*
X0063074Y0057881D01*
G37*
G36*
X0068662Y0057881D02*
X0068662Y0057881D01*
X0068666Y0057881D01*
X0068764Y0057870D01*
X0068858Y0057841D01*
X0068944Y0057793D01*
X0069019Y0057730D01*
X0069081Y0057653D01*
X0069127Y0057566D01*
X0069155Y0057471D01*
X0069155Y0057471D01*
X0069155Y0057471D01*
X0069164Y0057373D01*
X0069153Y0057275D01*
X0069153Y0057275D01*
X0069153Y0057275D01*
X0069124Y0057181D01*
X0069077Y0057094D01*
X0069014Y0057018D01*
X0068938Y0056956D01*
X0068851Y0056910D01*
X0068757Y0056881D01*
X0068659Y0056872D01*
X0067786Y0056872D01*
X0067783Y0056872D01*
X0067783Y0056872D01*
X0067779Y0056872D01*
X0067681Y0056883D01*
X0067587Y0056913D01*
X0067501Y0056960D01*
X0067425Y0057023D01*
X0067364Y0057100D01*
X0067318Y0057187D01*
X0067290Y0057282D01*
X0067290Y0057282D01*
X0067290Y0057282D01*
X0067281Y0057380D01*
X0067292Y0057478D01*
X0067292Y0057478D01*
X0067292Y0057478D01*
X0067321Y0057572D01*
X0067368Y0057659D01*
X0067430Y0057735D01*
X0067507Y0057797D01*
X0067594Y0057843D01*
X0067688Y0057872D01*
X0067786Y0057881D01*
X0068659Y0057881D01*
X0068662Y0057881D01*
X0068662Y0057881D01*
G37*
G36*
X0057221Y0058091D02*
X0055297Y0058091D01*
X0055297Y0060015D01*
X0057221Y0060015D01*
X0057221Y0058091D01*
X0057221Y0058091D01*
G37*
G36*
X0054681Y0058091D02*
X0052757Y0058091D01*
X0052757Y0060015D01*
X0054681Y0060015D01*
X0054681Y0058091D01*
X0054681Y0058091D01*
G37*
G36*
X0068662Y0059151D02*
X0068662Y0059151D01*
X0068666Y0059151D01*
X0068764Y0059140D01*
X0068858Y0059111D01*
X0068944Y0059063D01*
X0069019Y0059000D01*
X0069081Y0058923D01*
X0069127Y0058836D01*
X0069155Y0058741D01*
X0069155Y0058741D01*
X0069155Y0058741D01*
X0069164Y0058643D01*
X0069153Y0058545D01*
X0069153Y0058545D01*
X0069153Y0058545D01*
X0069124Y0058451D01*
X0069077Y0058364D01*
X0069014Y0058288D01*
X0068938Y0058226D01*
X0068851Y0058180D01*
X0068757Y0058151D01*
X0068659Y0058142D01*
X0067786Y0058142D01*
X0067783Y0058142D01*
X0067783Y0058142D01*
X0067779Y0058142D01*
X0067681Y0058153D01*
X0067587Y0058183D01*
X0067501Y0058230D01*
X0067425Y0058293D01*
X0067364Y0058370D01*
X0067318Y0058457D01*
X0067290Y0058552D01*
X0067290Y0058552D01*
X0067290Y0058552D01*
X0067281Y0058650D01*
X0067292Y0058748D01*
X0067292Y0058748D01*
X0067292Y0058748D01*
X0067321Y0058842D01*
X0067368Y0058929D01*
X0067430Y0059005D01*
X0067507Y0059067D01*
X0067594Y0059113D01*
X0067688Y0059142D01*
X0067786Y0059151D01*
X0068659Y0059151D01*
X0068662Y0059151D01*
X0068662Y0059151D01*
G37*
G36*
X0063074Y0059151D02*
X0063074Y0059151D01*
X0063078Y0059151D01*
X0063176Y0059140D01*
X0063270Y0059111D01*
X0063356Y0059063D01*
X0063431Y0059000D01*
X0063493Y0058923D01*
X0063539Y0058836D01*
X0063567Y0058741D01*
X0063567Y0058741D01*
X0063567Y0058741D01*
X0063576Y0058643D01*
X0063565Y0058545D01*
X0063565Y0058545D01*
X0063565Y0058545D01*
X0063536Y0058451D01*
X0063489Y0058364D01*
X0063426Y0058288D01*
X0063350Y0058226D01*
X0063263Y0058180D01*
X0063169Y0058151D01*
X0063071Y0058142D01*
X0062198Y0058142D01*
X0062195Y0058142D01*
X0062195Y0058142D01*
X0062191Y0058142D01*
X0062093Y0058153D01*
X0061999Y0058183D01*
X0061913Y0058230D01*
X0061837Y0058293D01*
X0061776Y0058370D01*
X0061730Y0058457D01*
X0061702Y0058552D01*
X0061702Y0058552D01*
X0061702Y0058552D01*
X0061693Y0058650D01*
X0061704Y0058748D01*
X0061704Y0058748D01*
X0061704Y0058748D01*
X0061733Y0058842D01*
X0061780Y0058929D01*
X0061842Y0059005D01*
X0061919Y0059067D01*
X0062006Y0059113D01*
X0062100Y0059142D01*
X0062198Y0059151D01*
X0063071Y0059151D01*
X0063074Y0059151D01*
X0063074Y0059151D01*
G37*
G36*
X0060891Y0059209D02*
X0059094Y0059209D01*
X0059094Y0060498D01*
X0060891Y0060498D01*
X0060891Y0059209D01*
X0060891Y0059209D01*
G37*
G36*
X0063074Y0060421D02*
X0063074Y0060421D01*
X0063078Y0060421D01*
X0063176Y0060410D01*
X0063270Y0060381D01*
X0063356Y0060333D01*
X0063431Y0060270D01*
X0063493Y0060193D01*
X0063539Y0060106D01*
X0063567Y0060011D01*
X0063567Y0060011D01*
X0063567Y0060011D01*
X0063576Y0059913D01*
X0063565Y0059815D01*
X0063565Y0059815D01*
X0063565Y0059815D01*
X0063536Y0059721D01*
X0063489Y0059634D01*
X0063426Y0059558D01*
X0063350Y0059496D01*
X0063263Y0059450D01*
X0063169Y0059421D01*
X0063071Y0059412D01*
X0062198Y0059412D01*
X0062195Y0059412D01*
X0062195Y0059412D01*
X0062191Y0059412D01*
X0062093Y0059423D01*
X0061999Y0059453D01*
X0061913Y0059500D01*
X0061837Y0059563D01*
X0061776Y0059640D01*
X0061730Y0059727D01*
X0061702Y0059822D01*
X0061702Y0059822D01*
X0061702Y0059822D01*
X0061693Y0059920D01*
X0061704Y0060018D01*
X0061704Y0060018D01*
X0061704Y0060018D01*
X0061733Y0060112D01*
X0061780Y0060199D01*
X0061842Y0060275D01*
X0061919Y0060337D01*
X0062006Y0060383D01*
X0062100Y0060412D01*
X0062198Y0060421D01*
X0063071Y0060421D01*
X0063074Y0060421D01*
X0063074Y0060421D01*
G37*
G36*
X0068662Y0060421D02*
X0068662Y0060421D01*
X0068666Y0060421D01*
X0068764Y0060410D01*
X0068858Y0060381D01*
X0068944Y0060333D01*
X0069019Y0060270D01*
X0069081Y0060193D01*
X0069127Y0060106D01*
X0069155Y0060011D01*
X0069155Y0060011D01*
X0069155Y0060011D01*
X0069164Y0059913D01*
X0069153Y0059815D01*
X0069153Y0059815D01*
X0069153Y0059815D01*
X0069124Y0059721D01*
X0069077Y0059634D01*
X0069014Y0059558D01*
X0068938Y0059496D01*
X0068851Y0059450D01*
X0068757Y0059421D01*
X0068659Y0059412D01*
X0067786Y0059412D01*
X0067783Y0059412D01*
X0067783Y0059412D01*
X0067779Y0059412D01*
X0067681Y0059423D01*
X0067587Y0059453D01*
X0067501Y0059500D01*
X0067425Y0059563D01*
X0067364Y0059640D01*
X0067318Y0059727D01*
X0067290Y0059822D01*
X0067290Y0059822D01*
X0067290Y0059822D01*
X0067281Y0059920D01*
X0067292Y0060018D01*
X0067292Y0060018D01*
X0067292Y0060018D01*
X0067321Y0060112D01*
X0067368Y0060199D01*
X0067430Y0060275D01*
X0067507Y0060337D01*
X0067594Y0060383D01*
X0067688Y0060412D01*
X0067786Y0060421D01*
X0068659Y0060421D01*
X0068662Y0060421D01*
X0068662Y0060421D01*
G37*
G36*
X0060891Y0061114D02*
X0059094Y0061114D01*
X0059094Y0062403D01*
X0060891Y0062403D01*
X0060891Y0061114D01*
X0060891Y0061114D01*
G37*
G36*
X0065612Y0068474D02*
X0066227Y0068348D01*
X0066805Y0068105D01*
X0067326Y0067754D01*
X0067768Y0067308D01*
X0068115Y0066786D01*
X0068354Y0066205D01*
X0068476Y0065590D01*
X0068476Y0065590D01*
X0068476Y0065590D01*
X0068466Y0064873D01*
X0068466Y0064872D01*
X0068466Y0064872D01*
X0068327Y0064261D01*
X0068072Y0063688D01*
X0067710Y0063175D01*
X0067256Y0062742D01*
X0066726Y0062406D01*
X0066141Y0062179D01*
X0065523Y0062070D01*
X0064895Y0062083D01*
X0064282Y0062218D01*
X0063707Y0062469D01*
X0063192Y0062827D01*
X0062756Y0063279D01*
X0062416Y0063806D01*
X0062185Y0064390D01*
X0062072Y0065007D01*
X0062081Y0065634D01*
X0062211Y0066248D01*
X0062458Y0066825D01*
X0062813Y0067343D01*
X0063261Y0067782D01*
X0063786Y0068126D01*
X0064368Y0068361D01*
X0064985Y0068478D01*
X0065612Y0068474D01*
X0065612Y0068474D01*
G37*
G36*
X0055452Y0068474D02*
X0056067Y0068348D01*
X0056645Y0068105D01*
X0057166Y0067754D01*
X0057608Y0067308D01*
X0057955Y0066786D01*
X0058194Y0066205D01*
X0058316Y0065590D01*
X0058316Y0065590D01*
X0058316Y0065590D01*
X0058306Y0064873D01*
X0058306Y0064872D01*
X0058306Y0064872D01*
X0058167Y0064261D01*
X0057912Y0063688D01*
X0057550Y0063175D01*
X0057096Y0062742D01*
X0056566Y0062406D01*
X0055981Y0062179D01*
X0055363Y0062070D01*
X0054735Y0062083D01*
X0054122Y0062218D01*
X0053547Y0062469D01*
X0053032Y0062827D01*
X0052596Y0063279D01*
X0052256Y0063806D01*
X0052025Y0064390D01*
X0051912Y0065007D01*
X0051921Y0065634D01*
X0052051Y0066248D01*
X0052298Y0066825D01*
X0052653Y0067343D01*
X0053101Y0067782D01*
X0053626Y0068126D01*
X0054208Y0068361D01*
X0054825Y0068478D01*
X0055452Y0068474D01*
X0055452Y0068474D01*
G37*
M02*
