M48
METRIC,000.000             
%
T01C0.400000
X1100Y10700
X1400Y1900
X2000Y12000
X2700Y1900
X4200Y1900
X4300Y13200
X5600Y1900
X6000Y12122
X7100Y12000
X9200Y13325
X9500Y800
X9800Y9400
X10700Y8200
X11300Y4900
X11901Y1999
X12157Y9143
X12300Y10300
X13275Y10800
X15100Y6200
X15100Y2030
X15300Y12100
X16000Y3983
X16100Y900
X17200Y6300
X17800Y2000
X18200Y9954
X18700Y12610
X20000Y8100
X20800Y3600
X22040Y12950
X22100Y700
X23230Y6400
X23400Y5000
X23500Y700
X23626Y11950
X23887Y9087
X24300Y8175
X24630Y6150
X25000Y700
X25200Y7900
X25499Y10298
X25900Y5100
X26300Y9400
X26333Y11108
X26400Y8100
X26400Y6700
X26900Y1700
X29200Y5800
X29200Y4500
X29306Y12610
X30830Y12610
X32100Y12610
X32588Y5732
X32608Y4228
X33116Y11340
X34386Y11340
X35148Y5752
X35148Y4482
X35402Y11340
X1100Y24700
X1400Y15900
X2000Y26000
X2700Y15900
X4200Y15900
X4300Y27200
X5600Y15900
X6000Y26122
X7100Y26000
X9200Y27325
X9500Y14800
X9800Y23400
X10700Y22200
X11300Y18900
X11901Y15999
X12157Y23143
X12300Y24300
X13275Y24800
X15100Y20200
X15100Y16030
X15300Y26100
X16000Y17983
X16100Y14900
X17200Y20300
X17800Y16000
X18200Y23954
X18700Y26610
X20000Y22100
X20800Y17600
X22040Y26950
X22100Y14700
X23230Y20400
X23400Y19000
X23500Y14700
X23626Y25950
X23887Y23087
X24300Y22175
X24630Y20150
X25000Y14700
X25200Y21900
X25499Y24298
X25900Y19100
X26300Y23400
X26333Y25108
X26400Y22100
X26400Y20700
X26900Y15700
X29200Y19800
X29200Y18500
X29306Y26610
X30830Y26610
X32100Y26610
X32588Y19732
X32608Y18228
X33116Y25340
X34386Y25340
X35148Y19752
X35148Y18482
X35402Y25340
X1100Y38700
X1400Y29900
X2000Y40000
X2700Y29900
X4200Y29900
X4300Y41200
X5600Y29900
X6000Y40122
X7100Y40000
X9200Y41325
X9500Y28800
X9800Y37400
X10700Y36200
X11300Y32900
X11901Y29999
X12157Y37143
X12300Y38300
X13275Y38800
X15100Y34200
X15100Y30030
X15300Y40100
X16000Y31983
X16100Y28900
X17200Y34300
X17800Y30000
X18200Y37954
X18700Y40610
X20000Y36100
X20800Y31600
X22040Y40950
X22100Y28700
X23230Y34400
X23400Y33000
X23500Y28700
X23626Y39950
X23887Y37087
X24300Y36175
X24630Y34150
X25000Y28700
X25200Y35900
X25499Y38298
X25900Y33100
X26300Y37400
X26333Y39108
X26400Y36100
X26400Y34700
X26900Y29700
X29200Y33800
X29200Y32500
X29306Y40610
X30830Y40610
X32100Y40610
X32588Y33732
X32608Y32228
X33116Y39340
X34386Y39340
X35148Y33752
X35148Y32482
X35402Y39340
X1100Y52700
X1400Y43900
X2000Y54000
X2700Y43900
X4200Y43900
X4300Y55200
X5600Y43900
X6000Y54122
X7100Y54000
X9200Y55325
X9500Y42800
X9800Y51400
X10700Y50200
X11300Y46900
X11901Y43999
X12157Y51143
X12300Y52300
X13275Y52800
X15100Y48200
X15100Y44030
X15300Y54100
X16000Y45983
X16100Y42900
X17200Y48300
X17800Y44000
X18200Y51954
X18700Y54610
X20000Y50100
X20800Y45600
X22040Y54950
X22100Y42700
X23230Y48400
X23400Y47000
X23500Y42700
X23626Y53950
X23887Y51087
X24300Y50175
X24630Y48150
X25000Y42700
X25200Y49900
X25499Y52298
X25900Y47100
X26300Y51400
X26333Y53108
X26400Y50100
X26400Y48700
X26900Y43700
X29200Y47800
X29200Y46500
X29306Y54610
X30830Y54610
X32100Y54610
X32588Y47732
X32608Y46228
X33116Y53340
X34386Y53340
X35148Y47752
X35148Y46482
X35402Y53340
X1100Y66700
X1400Y57900
X2000Y68000
X2700Y57900
X4200Y57900
X4300Y69200
X5600Y57900
X6000Y68122
X7100Y68000
X9200Y69325
X9500Y56800
X9800Y65400
X10700Y64200
X11300Y60900
X11901Y57999
X12157Y65143
X12300Y66300
X13275Y66800
X15100Y62200
X15100Y58030
X15300Y68100
X16000Y59983
X16100Y56900
X17200Y62300
X17800Y58000
X18200Y65954
X18700Y68610
X20000Y64100
X20800Y59600
X22040Y68950
X22100Y56700
X23230Y62400
X23400Y61000
X23500Y56700
X23626Y67950
X23887Y65087
X24300Y64175
X24630Y62150
X25000Y56700
X25200Y63900
X25499Y66298
X25900Y61100
X26300Y65400
X26333Y67108
X26400Y64100
X26400Y62700
X26900Y57700
X29200Y61800
X29200Y60500
X29306Y68610
X30830Y68610
X32100Y68610
X32588Y61732
X32608Y60228
X33116Y67340
X34386Y67340
X35148Y61752
X35148Y60482
X35402Y67340
X37100Y10700
X37400Y1900
X38000Y12000
X38700Y1900
X40200Y1900
X40300Y13200
X41600Y1900
X42000Y12122
X43100Y12000
X45200Y13325
X45500Y800
X45800Y9400
X46700Y8200
X47300Y4900
X47901Y1999
X48157Y9143
X48300Y10300
X49275Y10800
X51100Y6200
X51100Y2030
X51300Y12100
X52000Y3983
X52100Y900
X53200Y6300
X53800Y2000
X54200Y9954
X54700Y12610
X56000Y8100
X56800Y3600
X58040Y12950
X58100Y700
X59230Y6400
X59400Y5000
X59500Y700
X59626Y11950
X59887Y9087
X60300Y8175
X60630Y6150
X61000Y700
X61200Y7900
X61499Y10298
X61900Y5100
X62300Y9400
X62333Y11108
X62400Y8100
X62400Y6700
X62900Y1700
X65200Y5800
X65200Y4500
X65306Y12610
X66830Y12610
X68100Y12610
X68588Y5732
X68608Y4228
X69116Y11340
X70386Y11340
X71148Y5752
X71148Y4482
X71402Y11340
X37100Y24700
X37400Y15900
X38000Y26000
X38700Y15900
X40200Y15900
X40300Y27200
X41600Y15900
X42000Y26122
X43100Y26000
X45200Y27325
X45500Y14800
X45800Y23400
X46700Y22200
X47300Y18900
X47901Y15999
X48157Y23143
X48300Y24300
X49275Y24800
X51100Y20200
X51100Y16030
X51300Y26100
X52000Y17983
X52100Y14900
X53200Y20300
X53800Y16000
X54200Y23954
X54700Y26610
X56000Y22100
X56800Y17600
X58040Y26950
X58100Y14700
X59230Y20400
X59400Y19000
X59500Y14700
X59626Y25950
X59887Y23087
X60300Y22175
X60630Y20150
X61000Y14700
X61200Y21900
X61499Y24298
X61900Y19100
X62300Y23400
X62333Y25108
X62400Y22100
X62400Y20700
X62900Y15700
X65200Y19800
X65200Y18500
X65306Y26610
X66830Y26610
X68100Y26610
X68588Y19732
X68608Y18228
X69116Y25340
X70386Y25340
X71148Y19752
X71148Y18482
X71402Y25340
X37100Y38700
X37400Y29900
X38000Y40000
X38700Y29900
X40200Y29900
X40300Y41200
X41600Y29900
X42000Y40122
X43100Y40000
X45200Y41325
X45500Y28800
X45800Y37400
X46700Y36200
X47300Y32900
X47901Y29999
X48157Y37143
X48300Y38300
X49275Y38800
X51100Y34200
X51100Y30030
X51300Y40100
X52000Y31983
X52100Y28900
X53200Y34300
X53800Y30000
X54200Y37954
X54700Y40610
X56000Y36100
X56800Y31600
X58040Y40950
X58100Y28700
X59230Y34400
X59400Y33000
X59500Y28700
X59626Y39950
X59887Y37087
X60300Y36175
X60630Y34150
X61000Y28700
X61200Y35900
X61499Y38298
X61900Y33100
X62300Y37400
X62333Y39108
X62400Y36100
X62400Y34700
X62900Y29700
X65200Y33800
X65200Y32500
X65306Y40610
X66830Y40610
X68100Y40610
X68588Y33732
X68608Y32228
X69116Y39340
X70386Y39340
X71148Y33752
X71148Y32482
X71402Y39340
X37100Y52700
X37400Y43900
X38000Y54000
X38700Y43900
X40200Y43900
X40300Y55200
X41600Y43900
X42000Y54122
X43100Y54000
X45200Y55325
X45500Y42800
X45800Y51400
X46700Y50200
X47300Y46900
X47901Y43999
X48157Y51143
X48300Y52300
X49275Y52800
X51100Y48200
X51100Y44030
X51300Y54100
X52000Y45983
X52100Y42900
X53200Y48300
X53800Y44000
X54200Y51954
X54700Y54610
X56000Y50100
X56800Y45600
X58040Y54950
X58100Y42700
X59230Y48400
X59400Y47000
X59500Y42700
X59626Y53950
X59887Y51087
X60300Y50175
X60630Y48150
X61000Y42700
X61200Y49900
X61499Y52298
X61900Y47100
X62300Y51400
X62333Y53108
X62400Y50100
X62400Y48700
X62900Y43700
X65200Y47800
X65200Y46500
X65306Y54610
X66830Y54610
X68100Y54610
X68588Y47732
X68608Y46228
X69116Y53340
X70386Y53340
X71148Y47752
X71148Y46482
X71402Y53340
X37100Y66700
X37400Y57900
X38000Y68000
X38700Y57900
X40200Y57900
X40300Y69200
X41600Y57900
X42000Y68122
X43100Y68000
X45200Y69325
X45500Y56800
X45800Y65400
X46700Y64200
X47300Y60900
X47901Y57999
X48157Y65143
X48300Y66300
X49275Y66800
X51100Y62200
X51100Y58030
X51300Y68100
X52000Y59983
X52100Y56900
X53200Y62300
X53800Y58000
X54200Y65954
X54700Y68610
X56000Y64100
X56800Y59600
X58040Y68950
X58100Y56700
X59230Y62400
X59400Y61000
X59500Y56700
X59626Y67950
X59887Y65087
X60300Y64175
X60630Y62150
X61000Y56700
X61200Y63900
X61499Y66298
X61900Y61100
X62300Y65400
X62333Y67108
X62400Y64100
X62400Y62700
X62900Y57700
X65200Y61800
X65200Y60500
X65306Y68610
X66830Y68610
X68100Y68610
X68588Y61732
X68608Y60228
X69116Y67340
X70386Y67340
X71148Y61752
X71148Y60482
X71402Y67340
X73100Y10700
X73400Y1900
X74000Y12000
X74700Y1900
X76200Y1900
X76300Y13200
X77600Y1900
X78000Y12122
X79100Y12000
X81200Y13325
X81500Y800
X81800Y9400
X82700Y8200
X83300Y4900
X83901Y1999
X84157Y9143
X84300Y10300
X85275Y10800
X87100Y6200
X87100Y2030
X87300Y12100
X88000Y3983
X88100Y900
X89200Y6300
X89800Y2000
X90200Y9954
X90700Y12610
X92000Y8100
X92800Y3600
X94040Y12950
X94100Y700
X95230Y6400
X95400Y5000
X95500Y700
X95626Y11950
X95887Y9087
X96300Y8175
X96630Y6150
X97000Y700
X97200Y7900
X97499Y10298
X97900Y5100
X98300Y9400
X98333Y11108
X98400Y8100
X98400Y6700
X98900Y1700
X101200Y5800
X101200Y4500
X101306Y12610
X102830Y12610
X104100Y12610
X104588Y5732
X104608Y4228
X105116Y11340
X106386Y11340
X107148Y5752
X107148Y4482
X107402Y11340
X73100Y24700
X73400Y15900
X74000Y26000
X74700Y15900
X76200Y15900
X76300Y27200
X77600Y15900
X78000Y26122
X79100Y26000
X81200Y27325
X81500Y14800
X81800Y23400
X82700Y22200
X83300Y18900
X83901Y15999
X84157Y23143
X84300Y24300
X85275Y24800
X87100Y20200
X87100Y16030
X87300Y26100
X88000Y17983
X88100Y14900
X89200Y20300
X89800Y16000
X90200Y23954
X90700Y26610
X92000Y22100
X92800Y17600
X94040Y26950
X94100Y14700
X95230Y20400
X95400Y19000
X95500Y14700
X95626Y25950
X95887Y23087
X96300Y22175
X96630Y20150
X97000Y14700
X97200Y21900
X97499Y24298
X97900Y19100
X98300Y23400
X98333Y25108
X98400Y22100
X98400Y20700
X98900Y15700
X101200Y19800
X101200Y18500
X101306Y26610
X102830Y26610
X104100Y26610
X104588Y19732
X104608Y18228
X105116Y25340
X106386Y25340
X107148Y19752
X107148Y18482
X107402Y25340
X73100Y38700
X73400Y29900
X74000Y40000
X74700Y29900
X76200Y29900
X76300Y41200
X77600Y29900
X78000Y40122
X79100Y40000
X81200Y41325
X81500Y28800
X81800Y37400
X82700Y36200
X83300Y32900
X83901Y29999
X84157Y37143
X84300Y38300
X85275Y38800
X87100Y34200
X87100Y30030
X87300Y40100
X88000Y31983
X88100Y28900
X89200Y34300
X89800Y30000
X90200Y37954
X90700Y40610
X92000Y36100
X92800Y31600
X94040Y40950
X94100Y28700
X95230Y34400
X95400Y33000
X95500Y28700
X95626Y39950
X95887Y37087
X96300Y36175
X96630Y34150
X97000Y28700
X97200Y35900
X97499Y38298
X97900Y33100
X98300Y37400
X98333Y39108
X98400Y36100
X98400Y34700
X98900Y29700
X101200Y33800
X101200Y32500
X101306Y40610
X102830Y40610
X104100Y40610
X104588Y33732
X104608Y32228
X105116Y39340
X106386Y39340
X107148Y33752
X107148Y32482
X107402Y39340
X73100Y52700
X73400Y43900
X74000Y54000
X74700Y43900
X76200Y43900
X76300Y55200
X77600Y43900
X78000Y54122
X79100Y54000
X81200Y55325
X81500Y42800
X81800Y51400
X82700Y50200
X83300Y46900
X83901Y43999
X84157Y51143
X84300Y52300
X85275Y52800
X87100Y48200
X87100Y44030
X87300Y54100
X88000Y45983
X88100Y42900
X89200Y48300
X89800Y44000
X90200Y51954
X90700Y54610
X92000Y50100
X92800Y45600
X94040Y54950
X94100Y42700
X95230Y48400
X95400Y47000
X95500Y42700
X95626Y53950
X95887Y51087
X96300Y50175
X96630Y48150
X97000Y42700
X97200Y49900
X97499Y52298
X97900Y47100
X98300Y51400
X98333Y53108
X98400Y50100
X98400Y48700
X98900Y43700
X101200Y47800
X101200Y46500
X101306Y54610
X102830Y54610
X104100Y54610
X104588Y47732
X104608Y46228
X105116Y53340
X106386Y53340
X107148Y47752
X107148Y46482
X107402Y53340
X73100Y66700
X73400Y57900
X74000Y68000
X74700Y57900
X76200Y57900
X76300Y69200
X77600Y57900
X78000Y68122
X79100Y68000
X81200Y69325
X81500Y56800
X81800Y65400
X82700Y64200
X83300Y60900
X83901Y57999
X84157Y65143
X84300Y66300
X85275Y66800
X87100Y62200
X87100Y58030
X87300Y68100
X88000Y59983
X88100Y56900
X89200Y62300
X89800Y58000
X90200Y65954
X90700Y68610
X92000Y64100
X92800Y59600
X94040Y68950
X94100Y56700
X95230Y62400
X95400Y61000
X95500Y56700
X95626Y67950
X95887Y65087
X96300Y64175
X96630Y62150
X97000Y56700
X97200Y63900
X97499Y66298
X97900Y61100
X98300Y65400
X98333Y67108
X98400Y64100
X98400Y62700
X98900Y57700
X101200Y61800
X101200Y60500
X101306Y68610
X102830Y68610
X104100Y68610
X104588Y61732
X104608Y60228
X105116Y67340
X106386Y67340
X107148Y61752
X107148Y60482
X107402Y67340
X109100Y10700
X109400Y1900
X110000Y12000
X110700Y1900
X112200Y1900
X112300Y13200
X113600Y1900
X114000Y12122
X115100Y12000
X117200Y13325
X117500Y800
X117800Y9400
X118700Y8200
X119300Y4900
X119901Y1999
X120157Y9143
X120300Y10300
X121275Y10800
X123100Y6200
X123100Y2030
X123300Y12100
X124000Y3983
X124100Y900
X125200Y6300
X125800Y2000
X126200Y9954
X126700Y12610
X128000Y8100
X128800Y3600
X130040Y12950
X130100Y700
X131230Y6400
X131400Y5000
X131500Y700
X131626Y11950
X131887Y9087
X132300Y8175
X132630Y6150
X133000Y700
X133200Y7900
X133499Y10298
X133900Y5100
X134300Y9400
X134333Y11108
X134400Y8100
X134400Y6700
X134900Y1700
X137200Y5800
X137200Y4500
X137306Y12610
X138830Y12610
X140100Y12610
X140588Y5732
X140608Y4228
X141116Y11340
X142386Y11340
X143148Y5752
X143148Y4482
X143402Y11340
X109100Y24700
X109400Y15900
X110000Y26000
X110700Y15900
X112200Y15900
X112300Y27200
X113600Y15900
X114000Y26122
X115100Y26000
X117200Y27325
X117500Y14800
X117800Y23400
X118700Y22200
X119300Y18900
X119901Y15999
X120157Y23143
X120300Y24300
X121275Y24800
X123100Y20200
X123100Y16030
X123300Y26100
X124000Y17983
X124100Y14900
X125200Y20300
X125800Y16000
X126200Y23954
X126700Y26610
X128000Y22100
X128800Y17600
X130040Y26950
X130100Y14700
X131230Y20400
X131400Y19000
X131500Y14700
X131626Y25950
X131887Y23087
X132300Y22175
X132630Y20150
X133000Y14700
X133200Y21900
X133499Y24298
X133900Y19100
X134300Y23400
X134333Y25108
X134400Y22100
X134400Y20700
X134900Y15700
X137200Y19800
X137200Y18500
X137306Y26610
X138830Y26610
X140100Y26610
X140588Y19732
X140608Y18228
X141116Y25340
X142386Y25340
X143148Y19752
X143148Y18482
X143402Y25340
X109100Y38700
X109400Y29900
X110000Y40000
X110700Y29900
X112200Y29900
X112300Y41200
X113600Y29900
X114000Y40122
X115100Y40000
X117200Y41325
X117500Y28800
X117800Y37400
X118700Y36200
X119300Y32900
X119901Y29999
X120157Y37143
X120300Y38300
X121275Y38800
X123100Y34200
X123100Y30030
X123300Y40100
X124000Y31983
X124100Y28900
X125200Y34300
X125800Y30000
X126200Y37954
X126700Y40610
X128000Y36100
X128800Y31600
X130040Y40950
X130100Y28700
X131230Y34400
X131400Y33000
X131500Y28700
X131626Y39950
X131887Y37087
X132300Y36175
X132630Y34150
X133000Y28700
X133200Y35900
X133499Y38298
X133900Y33100
X134300Y37400
X134333Y39108
X134400Y36100
X134400Y34700
X134900Y29700
X137200Y33800
X137200Y32500
X137306Y40610
X138830Y40610
X140100Y40610
X140588Y33732
X140608Y32228
X141116Y39340
X142386Y39340
X143148Y33752
X143148Y32482
X143402Y39340
X109100Y52700
X109400Y43900
X110000Y54000
X110700Y43900
X112200Y43900
X112300Y55200
X113600Y43900
X114000Y54122
X115100Y54000
X117200Y55325
X117500Y42800
X117800Y51400
X118700Y50200
X119300Y46900
X119901Y43999
X120157Y51143
X120300Y52300
X121275Y52800
X123100Y48200
X123100Y44030
X123300Y54100
X124000Y45983
X124100Y42900
X125200Y48300
X125800Y44000
X126200Y51954
X126700Y54610
X128000Y50100
X128800Y45600
X130040Y54950
X130100Y42700
X131230Y48400
X131400Y47000
X131500Y42700
X131626Y53950
X131887Y51087
X132300Y50175
X132630Y48150
X133000Y42700
X133200Y49900
X133499Y52298
X133900Y47100
X134300Y51400
X134333Y53108
X134400Y50100
X134400Y48700
X134900Y43700
X137200Y47800
X137200Y46500
X137306Y54610
X138830Y54610
X140100Y54610
X140588Y47732
X140608Y46228
X141116Y53340
X142386Y53340
X143148Y47752
X143148Y46482
X143402Y53340
X109100Y66700
X109400Y57900
X110000Y68000
X110700Y57900
X112200Y57900
X112300Y69200
X113600Y57900
X114000Y68122
X115100Y68000
X117200Y69325
X117500Y56800
X117800Y65400
X118700Y64200
X119300Y60900
X119901Y57999
X120157Y65143
X120300Y66300
X121275Y66800
X123100Y62200
X123100Y58030
X123300Y68100
X124000Y59983
X124100Y56900
X125200Y62300
X125800Y58000
X126200Y65954
X126700Y68610
X128000Y64100
X128800Y59600
X130040Y68950
X130100Y56700
X131230Y62400
X131400Y61000
X131500Y56700
X131626Y67950
X131887Y65087
X132300Y64175
X132630Y62150
X133000Y56700
X133200Y63900
X133499Y66298
X133900Y61100
X134300Y65400
X134333Y67108
X134400Y64100
X134400Y62700
X134900Y57700
X137200Y61800
X137200Y60500
X137306Y68610
X138830Y68610
X140100Y68610
X140588Y61732
X140608Y60228
X141116Y67340
X142386Y67340
X143148Y61752
X143148Y60482
X143402Y67340
M30
