%TF.GenerationSoftware,KiCad,Pcbnew,(5.99.0-6526-g442f40fa66)*%
%TF.CreationDate,2020-10-31T18:39:34+01:00*%
%TF.ProjectId,RFSWITCH01A,52465357-4954-4434-9830-31412e6b6963,rev?*%
%TF.SameCoordinates,Original*%
%TF.FileFunction,Legend,Top*%
%TF.FilePolarity,Positive*%
%FSLAX46Y46*%
G04 Gerber Fmt 4.6, Leading zero omitted, Abs format (unit mm)*
G04 Created by KiCad (PCBNEW (5.99.0-6526-g442f40fa66)) date 2020-10-31 18:39:34*
%MOMM*%
%LPD*%
G01*
G04 APERTURE LIST*
%ADD10C,0.150000*%
%ADD11C,0.300000*%
%ADD12C,0.050000*%
%ADD13C,0.120000*%
G04 APERTURE END LIST*
D10*
X28702000Y12700000D02*
X28956000Y12446000D01*
X9855200Y14605000D02*
X11663391Y14605000D01*
X15387609Y14605000D02*
X19791391Y14605000D01*
X11663391Y14605000D02*
X10795000Y15240000D01*
X15387609Y14605000D02*
G75*
G03*
X15387609Y14605000I-401609J0D01*
G01*
X20066000Y10668000D02*
X20066000Y12700000D01*
X9855200Y26035000D02*
X11430000Y26035000D01*
X22555905Y17145000D02*
G75*
G03*
X22555905Y17145000I-457905J0D01*
G01*
X13970000Y24130000D02*
X13335000Y23495000D01*
X11430000Y19050000D02*
X16510000Y19050000D01*
X20594609Y14605000D02*
G75*
G03*
X20594609Y14605000I-401609J0D01*
G01*
X27686000Y12446000D02*
X27686000Y13208000D01*
X13970000Y19050000D02*
X14605000Y18326453D01*
X14986000Y14605000D02*
X12446000Y16256000D01*
X22860000Y11938000D02*
X22098000Y12700000D01*
X14427905Y17145000D02*
G75*
G03*
X14427905Y17145000I-457905J0D01*
G01*
X13970000Y24130000D02*
X13970000Y22860000D01*
X13970000Y19050000D02*
X13335000Y18326453D01*
X11430000Y22860000D02*
X11430000Y19050000D01*
X29718000Y11684000D02*
X29718000Y10922000D01*
X10795000Y15240000D02*
X11663391Y14605000D01*
X13970000Y24130000D02*
X14605000Y23495000D01*
X22860000Y26035000D02*
X22098000Y25273000D01*
X22098000Y25273000D02*
X22098000Y24130000D01*
X22098000Y12700000D02*
X14732000Y12700000D01*
X11663391Y14605000D02*
X10795000Y13970000D01*
X29718000Y11684000D02*
X28956000Y12446000D01*
X23515609Y14605000D02*
G75*
G03*
X23515609Y14605000I-401609J0D01*
G01*
X13970000Y19050000D02*
X13970000Y17602905D01*
X16510000Y19050000D02*
X16510000Y22860000D01*
X13970000Y12954000D02*
X13970000Y13462000D01*
X16510000Y27940000D02*
X11430000Y27940000D01*
X22606000Y13970000D02*
X22098000Y13970000D01*
X13970000Y13462000D02*
X13970000Y12954000D01*
X26416000Y13208000D02*
X28194000Y13208000D01*
X23114000Y16256000D02*
X20193000Y14605000D01*
X26416000Y13208000D02*
X22860000Y13208000D01*
X22860000Y13208000D02*
X22098000Y13970000D01*
X16510000Y22860000D02*
X11430000Y22860000D01*
X9855200Y26035000D02*
X10642600Y26670000D01*
X16510000Y24130000D02*
X16510000Y27940000D01*
X9855200Y26035000D02*
X10642600Y25400000D01*
X11430000Y24130000D02*
X16510000Y24130000D01*
X11430000Y27940000D02*
X11430000Y24130000D01*
X30784800Y26035000D02*
X22860000Y26035000D01*
X28702000Y12700000D02*
X28194000Y13208000D01*
X22098000Y13970000D02*
X22098000Y13462000D01*
X12466609Y14605000D02*
G75*
G03*
X12466609Y14605000I-401609J0D01*
G01*
X30784800Y14605000D02*
X23515609Y14605000D01*
X22098000Y17602905D02*
X22098000Y24130000D01*
X13970000Y13462000D02*
X14478000Y13462000D01*
X14732000Y12700000D02*
X13970000Y13462000D01*
X22098000Y13462000D02*
X22098000Y13970000D01*
D11*
X31254285Y30690428D02*
X30754285Y31404714D01*
X30397142Y30690428D02*
X30397142Y32190428D01*
X30968571Y32190428D01*
X31111428Y32119000D01*
X31182857Y32047571D01*
X31254285Y31904714D01*
X31254285Y31690428D01*
X31182857Y31547571D01*
X31111428Y31476142D01*
X30968571Y31404714D01*
X30397142Y31404714D01*
X31754285Y32190428D02*
X32754285Y30690428D01*
X32754285Y32190428D02*
X31754285Y30690428D01*
X34397142Y32261857D02*
X33111428Y30333285D01*
X34682857Y32190428D02*
X35540000Y32190428D01*
X35111428Y30690428D02*
X35111428Y32190428D01*
X35897142Y32190428D02*
X36897142Y30690428D01*
X36897142Y32190428D02*
X35897142Y30690428D01*
X38254285Y30690428D02*
X37397142Y30690428D01*
X37825714Y30690428D02*
X37825714Y32190428D01*
X37682857Y31976142D01*
X37540000Y31833285D01*
X37397142Y31761857D01*
X11878571Y30313428D02*
X11878571Y30599142D01*
X11950000Y30742000D01*
X12092857Y30884857D01*
X12378571Y30956285D01*
X12878571Y30956285D01*
X13164285Y30884857D01*
X13307142Y30742000D01*
X13378571Y30599142D01*
X13378571Y30313428D01*
X13307142Y30170571D01*
X13164285Y30027714D01*
X12878571Y29956285D01*
X12378571Y29956285D01*
X12092857Y30027714D01*
X11950000Y30170571D01*
X11878571Y30313428D01*
X13378571Y31599142D02*
X11878571Y31599142D01*
X13378571Y32456285D01*
X11878571Y32456285D01*
X9779428Y591428D02*
X9779428Y2091428D01*
X10493714Y591428D02*
X10493714Y2091428D01*
X11350857Y591428D01*
X11350857Y2091428D01*
X13065142Y2091428D02*
X13993714Y2091428D01*
X13493714Y1520000D01*
X13708000Y1520000D01*
X13850857Y1448571D01*
X13922285Y1377142D01*
X13993714Y1234285D01*
X13993714Y877142D01*
X13922285Y734285D01*
X13850857Y662857D01*
X13708000Y591428D01*
X13279428Y591428D01*
X13136571Y662857D01*
X13065142Y734285D01*
X14422285Y2091428D02*
X14922285Y591428D01*
X15422285Y2091428D01*
X15779428Y2091428D02*
X16708000Y2091428D01*
X16208000Y1520000D01*
X16422285Y1520000D01*
X16565142Y1448571D01*
X16636571Y1377142D01*
X16708000Y1234285D01*
X16708000Y877142D01*
X16636571Y734285D01*
X16565142Y662857D01*
X16422285Y591428D01*
X15993714Y591428D01*
X15850857Y662857D01*
X15779428Y734285D01*
X5207142Y21141428D02*
X6064285Y21141428D01*
X5635714Y19641428D02*
X5635714Y21141428D01*
X6421428Y21141428D02*
X7421428Y19641428D01*
X7421428Y21141428D02*
X6421428Y19641428D01*
X31015714Y9029285D02*
X31087142Y8957857D01*
X31158571Y8743571D01*
X31158571Y8600714D01*
X31087142Y8386428D01*
X30944285Y8243571D01*
X30801428Y8172142D01*
X30515714Y8100714D01*
X30301428Y8100714D01*
X30015714Y8172142D01*
X29872857Y8243571D01*
X29730000Y8386428D01*
X29658571Y8600714D01*
X29658571Y8743571D01*
X29730000Y8957857D01*
X29801428Y9029285D01*
X29658571Y9457857D02*
X29658571Y10315000D01*
X31158571Y9886428D02*
X29658571Y9886428D01*
X23542857Y2218428D02*
X24471428Y2218428D01*
X23971428Y1647000D01*
X24185714Y1647000D01*
X24328571Y1575571D01*
X24400000Y1504142D01*
X24471428Y1361285D01*
X24471428Y1004142D01*
X24400000Y861285D01*
X24328571Y789857D01*
X24185714Y718428D01*
X23757142Y718428D01*
X23614285Y789857D01*
X23542857Y861285D01*
X24900000Y2218428D02*
X25400000Y718428D01*
X25900000Y2218428D01*
X26257142Y2218428D02*
X27185714Y2218428D01*
X26685714Y1647000D01*
X26900000Y1647000D01*
X27042857Y1575571D01*
X27114285Y1504142D01*
X27185714Y1361285D01*
X27185714Y1004142D01*
X27114285Y861285D01*
X27042857Y789857D01*
X26900000Y718428D01*
X26471428Y718428D01*
X26328571Y789857D01*
X26257142Y861285D01*
X9743714Y8211428D02*
X9743714Y9711428D01*
X10315142Y9711428D01*
X10458000Y9640000D01*
X10529428Y9568571D01*
X10600857Y9425714D01*
X10600857Y9211428D01*
X10529428Y9068571D01*
X10458000Y8997142D01*
X10315142Y8925714D01*
X9743714Y8925714D01*
X11529428Y9711428D02*
X11815142Y9711428D01*
X11958000Y9640000D01*
X12100857Y9497142D01*
X12172285Y9211428D01*
X12172285Y8711428D01*
X12100857Y8425714D01*
X11958000Y8282857D01*
X11815142Y8211428D01*
X11529428Y8211428D01*
X11386571Y8282857D01*
X11243714Y8425714D01*
X11172285Y8711428D01*
X11172285Y9211428D01*
X11243714Y9497142D01*
X11386571Y9640000D01*
X11529428Y9711428D01*
X12672285Y9711428D02*
X13029428Y8211428D01*
X13315142Y9282857D01*
X13600857Y8211428D01*
X13958000Y9711428D01*
X14529428Y8997142D02*
X15029428Y8997142D01*
X15243714Y8211428D02*
X14529428Y8211428D01*
X14529428Y9711428D01*
X15243714Y9711428D01*
X16743714Y8211428D02*
X16243714Y8925714D01*
X15886571Y8211428D02*
X15886571Y9711428D01*
X16458000Y9711428D01*
X16600857Y9640000D01*
X16672285Y9568571D01*
X16743714Y9425714D01*
X16743714Y9211428D01*
X16672285Y9068571D01*
X16600857Y8997142D01*
X16458000Y8925714D01*
X15886571Y8925714D01*
X15780000Y16537857D02*
X15994285Y16466428D01*
X16351428Y16466428D01*
X16494285Y16537857D01*
X16565714Y16609285D01*
X16637142Y16752142D01*
X16637142Y16895000D01*
X16565714Y17037857D01*
X16494285Y17109285D01*
X16351428Y17180714D01*
X16065714Y17252142D01*
X15922857Y17323571D01*
X15851428Y17395000D01*
X15780000Y17537857D01*
X15780000Y17680714D01*
X15851428Y17823571D01*
X15922857Y17895000D01*
X16065714Y17966428D01*
X16422857Y17966428D01*
X16637142Y17895000D01*
X17137142Y17966428D02*
X17494285Y16466428D01*
X17780000Y17537857D01*
X18065714Y16466428D01*
X18422857Y17966428D01*
X19780000Y16466428D02*
X18922857Y16466428D01*
X19351428Y16466428D02*
X19351428Y17966428D01*
X19208571Y17752142D01*
X19065714Y17609285D01*
X18922857Y17537857D01*
X22538571Y8100714D02*
X22538571Y9172142D01*
X21895714Y8529285D02*
X23824285Y8100714D01*
X23181428Y9029285D02*
X23181428Y7957857D01*
X23824285Y8600714D02*
X21895714Y9029285D01*
X23395714Y10529285D02*
X23467142Y10457857D01*
X23538571Y10243571D01*
X23538571Y10100714D01*
X23467142Y9886428D01*
X23324285Y9743571D01*
X23181428Y9672142D01*
X22895714Y9600714D01*
X22681428Y9600714D01*
X22395714Y9672142D01*
X22252857Y9743571D01*
X22110000Y9886428D01*
X22038571Y10100714D01*
X22038571Y10243571D01*
X22110000Y10457857D01*
X22181428Y10529285D01*
X22038571Y10957857D02*
X22038571Y11815000D01*
X23538571Y11386428D02*
X22038571Y11386428D01*
X30309428Y33750571D02*
X30238000Y33822000D01*
X30166571Y33964857D01*
X30166571Y34322000D01*
X30238000Y34464857D01*
X30309428Y34536285D01*
X30452285Y34607714D01*
X30595142Y34607714D01*
X30809428Y34536285D01*
X31666571Y33679142D01*
X31666571Y34607714D01*
X30166571Y35536285D02*
X30166571Y35679142D01*
X30238000Y35822000D01*
X30309428Y35893428D01*
X30452285Y35964857D01*
X30738000Y36036285D01*
X31095142Y36036285D01*
X31380857Y35964857D01*
X31523714Y35893428D01*
X31595142Y35822000D01*
X31666571Y35679142D01*
X31666571Y35536285D01*
X31595142Y35393428D01*
X31523714Y35322000D01*
X31380857Y35250571D01*
X31095142Y35179142D01*
X30738000Y35179142D01*
X30452285Y35250571D01*
X30309428Y35322000D01*
X30238000Y35393428D01*
X30166571Y35536285D01*
X30309428Y36607714D02*
X30238000Y36679142D01*
X30166571Y36822000D01*
X30166571Y37179142D01*
X30238000Y37322000D01*
X30309428Y37393428D01*
X30452285Y37464857D01*
X30595142Y37464857D01*
X30809428Y37393428D01*
X31666571Y36536285D01*
X31666571Y37464857D01*
X30166571Y38393428D02*
X30166571Y38536285D01*
X30238000Y38679142D01*
X30309428Y38750571D01*
X30452285Y38822000D01*
X30738000Y38893428D01*
X31095142Y38893428D01*
X31380857Y38822000D01*
X31523714Y38750571D01*
X31595142Y38679142D01*
X31666571Y38536285D01*
X31666571Y38393428D01*
X31595142Y38250571D01*
X31523714Y38179142D01*
X31380857Y38107714D01*
X31095142Y38036285D01*
X30738000Y38036285D01*
X30452285Y38107714D01*
X30309428Y38179142D01*
X30238000Y38250571D01*
X30166571Y38393428D01*
X12041428Y25427857D02*
X12255714Y25356428D01*
X12612857Y25356428D01*
X12755714Y25427857D01*
X12827142Y25499285D01*
X12898571Y25642142D01*
X12898571Y25785000D01*
X12827142Y25927857D01*
X12755714Y25999285D01*
X12612857Y26070714D01*
X12327142Y26142142D01*
X12184285Y26213571D01*
X12112857Y26285000D01*
X12041428Y26427857D01*
X12041428Y26570714D01*
X12112857Y26713571D01*
X12184285Y26785000D01*
X12327142Y26856428D01*
X12684285Y26856428D01*
X12898571Y26785000D01*
X13470000Y25785000D02*
X14184285Y25785000D01*
X13327142Y25356428D02*
X13827142Y26856428D01*
X14327142Y25356428D01*
X14684285Y26856428D02*
X15041428Y25356428D01*
X15327142Y26427857D01*
X15612857Y25356428D01*
X15970000Y26856428D01*
X14418571Y30349142D02*
X14418571Y30634857D01*
X14490000Y30777714D01*
X14632857Y30920571D01*
X14918571Y30992000D01*
X15418571Y30992000D01*
X15704285Y30920571D01*
X15847142Y30777714D01*
X15918571Y30634857D01*
X15918571Y30349142D01*
X15847142Y30206285D01*
X15704285Y30063428D01*
X15418571Y29992000D01*
X14918571Y29992000D01*
X14632857Y30063428D01*
X14490000Y30206285D01*
X14418571Y30349142D01*
X15775714Y32492000D02*
X15847142Y32420571D01*
X15918571Y32206285D01*
X15918571Y32063428D01*
X15847142Y31849142D01*
X15704285Y31706285D01*
X15561428Y31634857D01*
X15275714Y31563428D01*
X15061428Y31563428D01*
X14775714Y31634857D01*
X14632857Y31706285D01*
X14490000Y31849142D01*
X14418571Y32063428D01*
X14418571Y32206285D01*
X14490000Y32420571D01*
X14561428Y32492000D01*
X20998571Y19749285D02*
X20284285Y19249285D01*
X20998571Y18892142D02*
X19498571Y18892142D01*
X19498571Y19463571D01*
X19570000Y19606428D01*
X19641428Y19677857D01*
X19784285Y19749285D01*
X19998571Y19749285D01*
X20141428Y19677857D01*
X20212857Y19606428D01*
X20284285Y19463571D01*
X20284285Y18892142D01*
X20212857Y20892142D02*
X20212857Y20392142D01*
X20998571Y20392142D02*
X19498571Y20392142D01*
X19498571Y21106428D01*
X20927142Y21606428D02*
X20998571Y21820714D01*
X20998571Y22177857D01*
X20927142Y22320714D01*
X20855714Y22392142D01*
X20712857Y22463571D01*
X20570000Y22463571D01*
X20427142Y22392142D01*
X20355714Y22320714D01*
X20284285Y22177857D01*
X20212857Y21892142D01*
X20141428Y21749285D01*
X20070000Y21677857D01*
X19927142Y21606428D01*
X19784285Y21606428D01*
X19641428Y21677857D01*
X19570000Y21749285D01*
X19498571Y21892142D01*
X19498571Y22249285D01*
X19570000Y22463571D01*
X19498571Y22963571D02*
X20998571Y23320714D01*
X19927142Y23606428D01*
X20998571Y23892142D01*
X19498571Y24249285D01*
X20998571Y24820714D02*
X19498571Y24820714D01*
X19498571Y25320714D02*
X19498571Y26177857D01*
X20998571Y25749285D02*
X19498571Y25749285D01*
X20855714Y27535000D02*
X20927142Y27463571D01*
X20998571Y27249285D01*
X20998571Y27106428D01*
X20927142Y26892142D01*
X20784285Y26749285D01*
X20641428Y26677857D01*
X20355714Y26606428D01*
X20141428Y26606428D01*
X19855714Y26677857D01*
X19712857Y26749285D01*
X19570000Y26892142D01*
X19498571Y27106428D01*
X19498571Y27249285D01*
X19570000Y27463571D01*
X19641428Y27535000D01*
X20998571Y28177857D02*
X19498571Y28177857D01*
X20212857Y28177857D02*
X20212857Y29035000D01*
X20998571Y29035000D02*
X19498571Y29035000D01*
X19498571Y30035000D02*
X19498571Y30177857D01*
X19570000Y30320714D01*
X19641428Y30392142D01*
X19784285Y30463571D01*
X20070000Y30534999D01*
X20427142Y30534999D01*
X20712857Y30463571D01*
X20855714Y30392142D01*
X20927142Y30320714D01*
X20998571Y30177857D01*
X20998571Y30035000D01*
X20927142Y29892142D01*
X20855714Y29820714D01*
X20712857Y29749285D01*
X20427142Y29677857D01*
X20070000Y29677857D01*
X19784285Y29749285D01*
X19641428Y29820714D01*
X19570000Y29892142D01*
X19498571Y30035000D01*
X20998571Y31963571D02*
X20998571Y31106428D01*
X20998571Y31535000D02*
X19498571Y31535000D01*
X19712857Y31392142D01*
X19855714Y31249285D01*
X19927142Y31106428D01*
X20570000Y32535000D02*
X20570000Y33249285D01*
X20998571Y32392142D02*
X19498571Y32892142D01*
X20998571Y33392142D01*
X13005714Y20276428D02*
X12291428Y20276428D01*
X12291428Y21776428D01*
X13505714Y20276428D02*
X13505714Y21776428D01*
X14362857Y20276428D01*
X14362857Y21776428D01*
X15005714Y20705000D02*
X15720000Y20705000D01*
X14862857Y20276428D02*
X15362857Y21776428D01*
X15862857Y20276428D01*
X27880571Y33572000D02*
X28952000Y33572000D01*
X29166285Y33500571D01*
X29309142Y33357714D01*
X29380571Y33143428D01*
X29380571Y33000571D01*
X28952000Y34214857D02*
X28952000Y34929142D01*
X29380571Y34072000D02*
X27880571Y34572000D01*
X29380571Y35072000D01*
X29237714Y36429142D02*
X29309142Y36357714D01*
X29380571Y36143428D01*
X29380571Y36000571D01*
X29309142Y35786285D01*
X29166285Y35643428D01*
X29023428Y35572000D01*
X28737714Y35500571D01*
X28523428Y35500571D01*
X28237714Y35572000D01*
X28094857Y35643428D01*
X27952000Y35786285D01*
X27880571Y36000571D01*
X27880571Y36143428D01*
X27952000Y36357714D01*
X28023428Y36429142D01*
X29380571Y37072000D02*
X27880571Y37072000D01*
X28594857Y37072000D02*
X28594857Y37929142D01*
X29380571Y37929142D02*
X27880571Y37929142D01*
X27880571Y38929142D02*
X27880571Y39214857D01*
X27952000Y39357714D01*
X28094857Y39500571D01*
X28380571Y39572000D01*
X28880571Y39572000D01*
X29166285Y39500571D01*
X29309142Y39357714D01*
X29380571Y39214857D01*
X29380571Y38929142D01*
X29309142Y38786285D01*
X29166285Y38643428D01*
X28880571Y38572000D01*
X28380571Y38572000D01*
X28094857Y38643428D01*
X27952000Y38786285D01*
X27880571Y38929142D01*
X6100000Y30690428D02*
X5600000Y31404714D01*
X5242857Y30690428D02*
X5242857Y32190428D01*
X5814285Y32190428D01*
X5957142Y32119000D01*
X6028571Y32047571D01*
X6100000Y31904714D01*
X6100000Y31690428D01*
X6028571Y31547571D01*
X5957142Y31476142D01*
X5814285Y31404714D01*
X5242857Y31404714D01*
X6600000Y32190428D02*
X7600000Y30690428D01*
X7600000Y32190428D02*
X6600000Y30690428D01*
X31254285Y19641428D02*
X30754285Y20355714D01*
X30397142Y19641428D02*
X30397142Y21141428D01*
X30968571Y21141428D01*
X31111428Y21070000D01*
X31182857Y20998571D01*
X31254285Y20855714D01*
X31254285Y20641428D01*
X31182857Y20498571D01*
X31111428Y20427142D01*
X30968571Y20355714D01*
X30397142Y20355714D01*
X31754285Y21141428D02*
X32754285Y19641428D01*
X32754285Y21141428D02*
X31754285Y19641428D01*
X34397142Y21212857D02*
X33111428Y19284285D01*
X34682857Y21141428D02*
X35540000Y21141428D01*
X35111428Y19641428D02*
X35111428Y21141428D01*
X35897142Y21141428D02*
X36897142Y19641428D01*
X36897142Y21141428D02*
X35897142Y19641428D01*
X37397142Y20998571D02*
X37468571Y21070000D01*
X37611428Y21141428D01*
X37968571Y21141428D01*
X38111428Y21070000D01*
X38182857Y20998571D01*
X38254285Y20855714D01*
X38254285Y20712857D01*
X38182857Y20498571D01*
X37325714Y19641428D01*
X38254285Y19641428D01*
X20728714Y9029285D02*
X20800142Y8957857D01*
X20871571Y8743571D01*
X20871571Y8600714D01*
X20800142Y8386428D01*
X20657285Y8243571D01*
X20514428Y8172142D01*
X20228714Y8100714D01*
X20014428Y8100714D01*
X19728714Y8172142D01*
X19585857Y8243571D01*
X19443000Y8386428D01*
X19371571Y8600714D01*
X19371571Y8743571D01*
X19443000Y8957857D01*
X19514428Y9029285D01*
X19371571Y9457857D02*
X19371571Y10315000D01*
X20871571Y9886428D02*
X19371571Y9886428D01*
X27618571Y8100714D02*
X27618571Y9172142D01*
X26975714Y8529285D02*
X28904285Y8100714D01*
X28261428Y9029285D02*
X28261428Y7957857D01*
X28904285Y8600714D02*
X26975714Y9029285D01*
X28475714Y10529285D02*
X28547142Y10457857D01*
X28618571Y10243571D01*
X28618571Y10100714D01*
X28547142Y9886428D01*
X28404285Y9743571D01*
X28261428Y9672142D01*
X27975714Y9600714D01*
X27761428Y9600714D01*
X27475714Y9672142D01*
X27332857Y9743571D01*
X27190000Y9886428D01*
X27118571Y10100714D01*
X27118571Y10243571D01*
X27190000Y10457857D01*
X27261428Y10529285D01*
X27118571Y10957857D02*
X27118571Y11815000D01*
X28618571Y11386428D02*
X27118571Y11386428D01*
X23400000Y16537857D02*
X23614285Y16466428D01*
X23971428Y16466428D01*
X24114285Y16537857D01*
X24185714Y16609285D01*
X24257142Y16752142D01*
X24257142Y16895000D01*
X24185714Y17037857D01*
X24114285Y17109285D01*
X23971428Y17180714D01*
X23685714Y17252142D01*
X23542857Y17323571D01*
X23471428Y17395000D01*
X23400000Y17537857D01*
X23400000Y17680714D01*
X23471428Y17823571D01*
X23542857Y17895000D01*
X23685714Y17966428D01*
X24042857Y17966428D01*
X24257142Y17895000D01*
X24757142Y17966428D02*
X25114285Y16466428D01*
X25400000Y17537857D01*
X25685714Y16466428D01*
X26042857Y17966428D01*
X26542857Y17823571D02*
X26614285Y17895000D01*
X26757142Y17966428D01*
X27114285Y17966428D01*
X27257142Y17895000D01*
X27328571Y17823571D01*
X27400000Y17680714D01*
X27400000Y17537857D01*
X27328571Y17323571D01*
X26471428Y16466428D01*
X27400000Y16466428D01*
X18458571Y22348571D02*
X16958571Y22348571D01*
X18030000Y22848571D01*
X16958571Y23348571D01*
X18458571Y23348571D01*
X18458571Y24777142D02*
X18458571Y24062857D01*
X16958571Y24062857D01*
X18030000Y25205714D02*
X18030000Y25920000D01*
X18458571Y25062857D02*
X16958571Y25562857D01*
X18458571Y26062857D01*
X17672857Y27062857D02*
X17744285Y27277142D01*
X17815714Y27348571D01*
X17958571Y27420000D01*
X18172857Y27420000D01*
X18315714Y27348571D01*
X18387142Y27277142D01*
X18458571Y27134285D01*
X18458571Y26562857D01*
X16958571Y26562857D01*
X16958571Y27062857D01*
X17030000Y27205714D01*
X17101428Y27277142D01*
X17244285Y27348571D01*
X17387142Y27348571D01*
X17530000Y27277142D01*
X17601428Y27205714D01*
X17672857Y27062857D01*
X17672857Y26562857D01*
X18315714Y28062857D02*
X18387142Y28134285D01*
X18458571Y28062857D01*
X18387142Y27991428D01*
X18315714Y28062857D01*
X18458571Y28062857D01*
X18315714Y29634285D02*
X18387142Y29562857D01*
X18458571Y29348571D01*
X18458571Y29205714D01*
X18387142Y28991428D01*
X18244285Y28848571D01*
X18101428Y28777142D01*
X17815714Y28705714D01*
X17601428Y28705714D01*
X17315714Y28777142D01*
X17172857Y28848571D01*
X17030000Y28991428D01*
X16958571Y29205714D01*
X16958571Y29348571D01*
X17030000Y29562857D01*
X17101428Y29634285D01*
X16958571Y30134285D02*
X16958571Y31134285D01*
X18458571Y30134285D01*
X18458571Y31134285D01*
X8612857Y38437428D02*
X7898571Y38437428D01*
X7898571Y39937428D01*
X9112857Y38437428D02*
X9112857Y39937428D01*
X9970000Y38437428D01*
X9970000Y39937428D01*
X10612857Y38866000D02*
X11327142Y38866000D01*
X10470000Y38437428D02*
X10970000Y39937428D01*
X11470000Y38437428D01*
X13112857Y38437428D02*
X13112857Y39937428D01*
X13684285Y39937428D01*
X13827142Y39866000D01*
X13898571Y39794571D01*
X13970000Y39651714D01*
X13970000Y39437428D01*
X13898571Y39294571D01*
X13827142Y39223142D01*
X13684285Y39151714D01*
X13112857Y39151714D01*
X14898571Y39937428D02*
X15184285Y39937428D01*
X15327142Y39866000D01*
X15470000Y39723142D01*
X15541428Y39437428D01*
X15541428Y38937428D01*
X15470000Y38651714D01*
X15327142Y38508857D01*
X15184285Y38437428D01*
X14898571Y38437428D01*
X14755714Y38508857D01*
X14612857Y38651714D01*
X14541428Y38937428D01*
X14541428Y39437428D01*
X14612857Y39723142D01*
X14755714Y39866000D01*
X14898571Y39937428D01*
X16041428Y39937428D02*
X16398571Y38437428D01*
X16684285Y39508857D01*
X16970000Y38437428D01*
X17327142Y39937428D01*
X17898571Y39223142D02*
X18398571Y39223142D01*
X18612857Y38437428D02*
X17898571Y38437428D01*
X17898571Y39937428D01*
X18612857Y39937428D01*
X20112857Y38437428D02*
X19612857Y39151714D01*
X19255714Y38437428D02*
X19255714Y39937428D01*
X19827142Y39937428D01*
X19969999Y39866000D01*
X20041428Y39794571D01*
X20112857Y39651714D01*
X20112857Y39437428D01*
X20041428Y39294571D01*
X19969999Y39223142D01*
X19827142Y39151714D01*
X19255714Y39151714D01*
D10*
%TO.C,J10*%
X38822380Y13795476D02*
X39536666Y13795476D01*
X39679523Y13747857D01*
X39774761Y13652619D01*
X39822380Y13509761D01*
X39822380Y13414523D01*
X39822380Y14795476D02*
X39822380Y14224047D01*
X39822380Y14509761D02*
X38822380Y14509761D01*
X38965238Y14414523D01*
X39060476Y14319285D01*
X39108095Y14224047D01*
X38822380Y15414523D02*
X38822380Y15509761D01*
X38870000Y15605000D01*
X38917619Y15652619D01*
X39012857Y15700238D01*
X39203333Y15747857D01*
X39441428Y15747857D01*
X39631904Y15700238D01*
X39727142Y15652619D01*
X39774761Y15605000D01*
X39822380Y15509761D01*
X39822380Y15414523D01*
X39774761Y15319285D01*
X39727142Y15271666D01*
X39631904Y15224047D01*
X39441428Y15176428D01*
X39203333Y15176428D01*
X39012857Y15224047D01*
X38917619Y15271666D01*
X38870000Y15319285D01*
X38822380Y15414523D01*
D12*
%TO.C,J1*%
X10894190Y2301857D02*
X10894190Y2016142D01*
X10894190Y2159000D02*
X10394190Y2159000D01*
X10465619Y2111380D01*
X10513238Y2063761D01*
X10537047Y2016142D01*
D10*
%TO.C,J3*%
X722380Y25701666D02*
X1436666Y25701666D01*
X1579523Y25654047D01*
X1674761Y25558809D01*
X1722380Y25415952D01*
X1722380Y25320714D01*
X722380Y26082619D02*
X722380Y26701666D01*
X1103333Y26368333D01*
X1103333Y26511190D01*
X1150952Y26606428D01*
X1198571Y26654047D01*
X1293809Y26701666D01*
X1531904Y26701666D01*
X1627142Y26654047D01*
X1674761Y26606428D01*
X1722380Y26511190D01*
X1722380Y26225476D01*
X1674761Y26130238D01*
X1627142Y26082619D01*
%TO.C,J9*%
X38822380Y25701666D02*
X39536666Y25701666D01*
X39679523Y25654047D01*
X39774761Y25558809D01*
X39822380Y25415952D01*
X39822380Y25320714D01*
X39822380Y26225476D02*
X39822380Y26415952D01*
X39774761Y26511190D01*
X39727142Y26558809D01*
X39584285Y26654047D01*
X39393809Y26701666D01*
X39012857Y26701666D01*
X38917619Y26654047D01*
X38870000Y26606428D01*
X38822380Y26511190D01*
X38822380Y26320714D01*
X38870000Y26225476D01*
X38917619Y26177857D01*
X39012857Y26130238D01*
X39250952Y26130238D01*
X39346190Y26177857D01*
X39393809Y26225476D01*
X39441428Y26320714D01*
X39441428Y26511190D01*
X39393809Y26606428D01*
X39346190Y26654047D01*
X39250952Y26701666D01*
%TO.C,J4*%
X722380Y14271666D02*
X1436666Y14271666D01*
X1579523Y14224047D01*
X1674761Y14128809D01*
X1722380Y13985952D01*
X1722380Y13890714D01*
X1055714Y15176428D02*
X1722380Y15176428D01*
X674761Y14938333D02*
X1389047Y14700238D01*
X1389047Y15319285D01*
%TO.C,J5*%
X21590000Y7620000D02*
X21590000Y2540000D01*
X21590000Y2540000D02*
X19304000Y2540000D01*
X19304000Y7620000D02*
X21590000Y7620000D01*
%TO.C,J8*%
X26924000Y7620000D02*
X29210000Y7620000D01*
X29210000Y7620000D02*
X29210000Y2540000D01*
X29210000Y2540000D02*
X26924000Y2540000D01*
%TO.C,J7*%
X31750000Y2540000D02*
X29464000Y2540000D01*
X31750000Y7620000D02*
X31750000Y2540000D01*
X29464000Y7620000D02*
X31750000Y7620000D01*
%TO.C,J11*%
X16510000Y38100000D02*
X16510000Y33020000D01*
X16510000Y33020000D02*
X14224000Y33020000D01*
X14224000Y38100000D02*
X16510000Y38100000D01*
D13*
%TO.C,J10*%
X30784800Y13605000D02*
X30784800Y15605000D01*
X37795200Y15605000D02*
X37795200Y13605000D01*
X35290000Y11099800D02*
X33290000Y11099800D01*
X33290000Y18110200D02*
X35290000Y18110200D01*
D10*
%TO.C,J12*%
X26670000Y7620000D02*
X26670000Y2540000D01*
X26670000Y2540000D02*
X24384000Y2540000D01*
X24384000Y7620000D02*
X26670000Y7620000D01*
%TO.C,J1*%
X9398000Y7620000D02*
X17018000Y7620000D01*
X9398000Y2540000D02*
X9398000Y7620000D01*
X17018000Y7620000D02*
X17018000Y2540000D01*
X17018000Y2540000D02*
X9398000Y2540000D01*
%TO.C,J6*%
X24130000Y2540000D02*
X21844000Y2540000D01*
X21844000Y7620000D02*
X24130000Y7620000D01*
X24130000Y7620000D02*
X24130000Y2540000D01*
D13*
%TO.C,J3*%
X7350000Y22529800D02*
X5350000Y22529800D01*
X5350000Y29540200D02*
X7350000Y29540200D01*
X2844800Y25035000D02*
X2844800Y27035000D01*
X9855200Y27035000D02*
X9855200Y25035000D01*
D10*
%TO.C,J2*%
X13970000Y33020000D02*
X11684000Y33020000D01*
X11684000Y38100000D02*
X13970000Y38100000D01*
X13970000Y38100000D02*
X13970000Y33020000D01*
D13*
%TO.C,J9*%
X33290000Y29540200D02*
X35290000Y29540200D01*
X35290000Y22529800D02*
X33290000Y22529800D01*
X37795200Y27035000D02*
X37795200Y25035000D01*
X30784800Y25035000D02*
X30784800Y27035000D01*
%TO.C,J4*%
X9855200Y15605000D02*
X9855200Y13605000D01*
X7350000Y11099800D02*
X5350000Y11099800D01*
X2844800Y13605000D02*
X2844800Y15605000D01*
X5350000Y18110200D02*
X7350000Y18110200D01*
%TD*%
M02*
