%TF.GenerationSoftware,KiCad,Pcbnew,(5.99.0-6526-g442f40fa66)*%
%TF.CreationDate,2020-10-31T18:39:34+01:00*%
%TF.ProjectId,RFSWITCH01A,52465357-4954-4434-9830-31412e6b6963,rev?*%
%TF.SameCoordinates,Original*%
%TF.FileFunction,Legend,Bot*%
%TF.FilePolarity,Positive*%
%FSLAX46Y46*%
G04 Gerber Fmt 4.6, Leading zero omitted, Abs format (unit mm)*
G04 Created by KiCad (PCBNEW (5.99.0-6526-g442f40fa66)) date 2020-10-31 18:39:34*
%MOMM*%
%LPD*%
G01*
G04 APERTURE LIST*
%ADD10C,0.150000*%
%ADD11C,0.120000*%
%ADD12C,0.127000*%
%ADD13C,0.240000*%
G04 APERTURE END LIST*
D10*
%TO.C,D1*%
X17978095Y7207619D02*
X17978095Y8207619D01*
X17740000Y8207619D01*
X17597142Y8160000D01*
X17501904Y8064761D01*
X17454285Y7969523D01*
X17406666Y7779047D01*
X17406666Y7636190D01*
X17454285Y7445714D01*
X17501904Y7350476D01*
X17597142Y7255238D01*
X17740000Y7207619D01*
X17978095Y7207619D01*
X16454285Y7207619D02*
X17025714Y7207619D01*
X16740000Y7207619D02*
X16740000Y8207619D01*
X16835238Y8064761D01*
X16930476Y7969523D01*
X17025714Y7921904D01*
%TO.C,U3*%
X22351904Y15057619D02*
X22351904Y14248095D01*
X22304285Y14152857D01*
X22256666Y14105238D01*
X22161428Y14057619D01*
X21970952Y14057619D01*
X21875714Y14105238D01*
X21828095Y14152857D01*
X21780476Y14248095D01*
X21780476Y15057619D01*
X21399523Y15057619D02*
X20780476Y15057619D01*
X21113809Y14676666D01*
X20970952Y14676666D01*
X20875714Y14629047D01*
X20828095Y14581428D01*
X20780476Y14486190D01*
X20780476Y14248095D01*
X20828095Y14152857D01*
X20875714Y14105238D01*
X20970952Y14057619D01*
X21256666Y14057619D01*
X21351904Y14105238D01*
X21399523Y14152857D01*
%TO.C,U2*%
X26207904Y21812619D02*
X26207904Y21003095D01*
X26160285Y20907857D01*
X26112666Y20860238D01*
X26017428Y20812619D01*
X25826952Y20812619D01*
X25731714Y20860238D01*
X25684095Y20907857D01*
X25636476Y21003095D01*
X25636476Y21812619D01*
X25207904Y21717380D02*
X25160285Y21765000D01*
X25065047Y21812619D01*
X24826952Y21812619D01*
X24731714Y21765000D01*
X24684095Y21717380D01*
X24636476Y21622142D01*
X24636476Y21526904D01*
X24684095Y21384047D01*
X25255523Y20812619D01*
X24636476Y20812619D01*
%TO.C,U1*%
X21081904Y39377619D02*
X21081904Y38568095D01*
X21034285Y38472857D01*
X20986666Y38425238D01*
X20891428Y38377619D01*
X20700952Y38377619D01*
X20605714Y38425238D01*
X20558095Y38472857D01*
X20510476Y38568095D01*
X20510476Y39377619D01*
X19510476Y38377619D02*
X20081904Y38377619D01*
X19796190Y38377619D02*
X19796190Y39377619D01*
X19891428Y39234761D01*
X19986666Y39139523D01*
X20081904Y39091904D01*
%TO.C,L1*%
X23032380Y34249166D02*
X23032380Y34725357D01*
X22032380Y34725357D01*
X23032380Y33392023D02*
X23032380Y33963452D01*
X23032380Y33677738D02*
X22032380Y33677738D01*
X22175238Y33772976D01*
X22270476Y33868214D01*
X22318095Y33963452D01*
%TO.C,FL1*%
X15724095Y30297428D02*
X16057428Y30297428D01*
X16057428Y29773619D02*
X16057428Y30773619D01*
X15581238Y30773619D01*
X14724095Y29773619D02*
X15200285Y29773619D01*
X15200285Y30773619D01*
X13866952Y29773619D02*
X14438380Y29773619D01*
X14152666Y29773619D02*
X14152666Y30773619D01*
X14247904Y30630761D01*
X14343142Y30535523D01*
X14438380Y30487904D01*
%TO.C,U4*%
X26796904Y19057619D02*
X26796904Y18248095D01*
X26749285Y18152857D01*
X26701666Y18105238D01*
X26606428Y18057619D01*
X26415952Y18057619D01*
X26320714Y18105238D01*
X26273095Y18152857D01*
X26225476Y18248095D01*
X26225476Y19057619D01*
X25320714Y18724285D02*
X25320714Y18057619D01*
X25558809Y19105238D02*
X25796904Y18390952D01*
X25177857Y18390952D01*
%TO.C,L3*%
X20994666Y21925619D02*
X21470857Y21925619D01*
X21470857Y22925619D01*
X20756571Y22925619D02*
X20137523Y22925619D01*
X20470857Y22544666D01*
X20328000Y22544666D01*
X20232761Y22497047D01*
X20185142Y22449428D01*
X20137523Y22354190D01*
X20137523Y22116095D01*
X20185142Y22020857D01*
X20232761Y21973238D01*
X20328000Y21925619D01*
X20613714Y21925619D01*
X20708952Y21973238D01*
X20756571Y22020857D01*
D11*
%TO.C,D1*%
X13840000Y8510000D02*
X13840000Y11810000D01*
X13840000Y8510000D02*
X19240000Y8510000D01*
X13840000Y11810000D02*
X19240000Y11810000D01*
%TO.C,U3*%
X22290000Y15350000D02*
X20390000Y15350000D01*
X20890000Y17670000D02*
X22290000Y17670000D01*
%TO.C,U2*%
X26806000Y27125000D02*
X24086000Y27125000D01*
X26806000Y25815000D02*
X26806000Y27125000D01*
X24086000Y27125000D02*
X24086000Y26895000D01*
X24086000Y22405000D02*
X26806000Y22405000D01*
X26806000Y22405000D02*
X26806000Y23715000D01*
X24086000Y22405000D02*
X24086000Y22635000D01*
X22946000Y22635000D02*
X24086000Y22635000D01*
%TO.C,C1*%
X12827000Y10858500D02*
X12827000Y10096500D01*
D10*
X12827000Y12001500D02*
X11303000Y12001500D01*
D11*
X11303000Y10858500D02*
X11303000Y10096500D01*
D10*
X11303000Y8953500D02*
X12827000Y8953500D01*
D11*
%TO.C,U1*%
X21020000Y35670000D02*
X19620000Y35670000D01*
X19620000Y37990000D02*
X21520000Y37990000D01*
%TO.C,C4*%
X22479000Y30543500D02*
X22479000Y29781500D01*
D10*
X24003000Y31686500D02*
X22479000Y31686500D01*
X22479000Y28638500D02*
X24003000Y28638500D01*
D11*
X24003000Y30543500D02*
X24003000Y29781500D01*
%TO.C,L2*%
X20903000Y27912122D02*
X20903000Y27112878D01*
X22023000Y27912122D02*
X22023000Y27112878D01*
D10*
%TO.C,C2*%
X26606500Y36703000D02*
X26606500Y38227000D01*
X23558500Y38227000D02*
X23558500Y36703000D01*
D11*
X24701500Y38227000D02*
X25463500Y38227000D01*
X24701500Y36703000D02*
X25463500Y36703000D01*
%TO.C,L1*%
X23570000Y34482122D02*
X23570000Y33682878D01*
X24690000Y34482122D02*
X24690000Y33682878D01*
D10*
%TO.C,C6*%
X19177000Y19621500D02*
X17653000Y19621500D01*
D11*
X17653000Y18478500D02*
X17653000Y17716500D01*
D10*
X17653000Y16573500D02*
X19177000Y16573500D01*
D11*
X19177000Y18478500D02*
X19177000Y17716500D01*
D12*
%TO.C,FL1*%
X12070000Y24770000D02*
X15870000Y24770000D01*
X15870000Y28570000D02*
X12070000Y28570000D01*
D13*
X16374000Y28746000D02*
G75*
G03*
X16374000Y28746000I-120000J0D01*
G01*
D11*
%TO.C,U4*%
X25335000Y17670000D02*
X27235000Y17670000D01*
X26735000Y15350000D02*
X25335000Y15350000D01*
%TO.C,C3*%
X25019000Y30543500D02*
X25019000Y29781500D01*
D10*
X26543000Y31686500D02*
X25019000Y31686500D01*
D11*
X26543000Y30543500D02*
X26543000Y29781500D01*
D10*
X25019000Y28638500D02*
X26543000Y28638500D01*
%TO.C,C5*%
X17208500Y27432000D02*
X17208500Y25908000D01*
D11*
X18351500Y27432000D02*
X19113500Y27432000D01*
X18351500Y25908000D02*
X19113500Y25908000D01*
D10*
X20256500Y25908000D02*
X20256500Y27432000D01*
D11*
%TO.C,L3*%
X21227622Y20268000D02*
X20428378Y20268000D01*
X21227622Y21388000D02*
X20428378Y21388000D01*
%TD*%
M02*
