G75*
G71*
%MOMM*%
%OFA0B0*%
%FSLAX53Y53*%
%IPPOS*%
%LPD*%
%ADD14C,0.40000*%
%ADD15C,1.50114*%
%ADD17C,4.50000*%
%ADD18C,3.00000*%
%ADD19C,0.30000*%
%ADD28C,0.60000*%
%ADD29C,0.25400*%
%ADD35R,1.80000X1.80000*%
%ADD37R,1.52400X1.52400*%
%ADD45C,1.80000*%
%ADD47C,2.50000*%
%ADD51C,0.80000*%
%ADD63C,0.25000*%
%ADD66C,2.00000*%
%ADD73C,6.00000*%
%ADD75R,0.90000X1.60000*%
X0000000Y0000000D02*
%LPD*%
G01*
D17*
X0018141Y0070866D03*
X0053741Y0070866D03*
D47*
X0002191Y0070866D03*
X0069691Y0070866D03*
D17*
X0018141Y0032766D03*
X0053741Y0032766D03*
D47*
X0002191Y0032766D03*
X0069691Y0032766D03*
D37*
X0073406Y0043561D03*
X0075946Y0043561D03*
X0075946Y0051181D03*
X0073406Y0051181D03*
X0075946Y0048641D03*
X0073406Y0048641D03*
X0073406Y0046101D03*
X0075946Y0046101D03*
X0075946Y0053721D03*
X0073406Y0053721D03*
X0078486Y0023876D03*
X0078486Y0021336D03*
X0075946Y0023876D03*
X0075946Y0021336D03*
X0073406Y0023876D03*
X0073406Y0021336D03*
X0075946Y0081026D03*
X0073406Y0081026D03*
X0039751Y0094996D03*
X0039751Y0092456D03*
X0075946Y0028956D03*
X0073406Y0028956D03*
X0075946Y0031496D03*
X0073406Y0031496D03*
X0075946Y0034036D03*
X0073406Y0034036D03*
X0019431Y0008636D03*
X0019431Y0006096D03*
X0012446Y0092456D03*
X0012446Y0094996D03*
X0014986Y0092456D03*
X0014986Y0094996D03*
X0017526Y0094996D03*
X0017526Y0092456D03*
X0020066Y0092456D03*
X0020066Y0094996D03*
X0022606Y0094996D03*
X0022606Y0092456D03*
X0073406Y0065151D03*
X0075946Y0065151D03*
X0075946Y0062611D03*
X0073406Y0062611D03*
X0073406Y0060071D03*
X0075946Y0060071D03*
X0075946Y0057531D03*
X0073406Y0057531D03*
X0075946Y0037211D03*
X0073406Y0037211D03*
X0047371Y0092456D03*
X0047371Y0094996D03*
X0044831Y0094996D03*
X0044831Y0092456D03*
X0049911Y0092456D03*
X0049911Y0094996D03*
X0052451Y0094996D03*
X0052451Y0092456D03*
X0054991Y0092456D03*
X0054991Y0094996D03*
X0065151Y0092456D03*
X0065151Y0094996D03*
X0067691Y0094996D03*
X0067691Y0092456D03*
X0062611Y0094996D03*
X0062611Y0092456D03*
X0075946Y0039751D03*
X0073406Y0039751D03*
X0075946Y0084836D03*
X0073406Y0084836D03*
X0075946Y0087376D03*
X0073406Y0087376D03*
X0075946Y0089916D03*
X0073406Y0089916D03*
D73*
X0075946Y0004826D03*
X0004826Y0096266D03*
D28*
X0065151Y0034171D03*
X0065151Y0035171D03*
D75*
X0065151Y0034671D03*
D15*
X0074676Y0075847D03*
X0074676Y0070965D03*
D18*
X0067311Y0011562D03*
X0062611Y0011562D03*
X0057911Y0011562D03*
X0069216Y0002032D03*
X0056006Y0002032D03*
D45*
X0014351Y0004826D03*
D35*
X0011811Y0004826D03*
D73*
X0004826Y0004826D03*
X0075946Y0095946D03*
D37*
X0075946Y0016256D03*
X0075946Y0018796D03*
X0073406Y0011176D03*
X0073406Y0013716D03*
X0075946Y0011176D03*
X0075946Y0013716D03*
X0078486Y0011176D03*
X0078486Y0013716D03*
D51*
X0033401Y0049911D03*
X0033401Y0053721D03*
X0033401Y0055626D03*
X0033401Y0057531D03*
X0038481Y0062611D03*
X0038481Y0059436D03*
X0038481Y0058166D03*
X0038481Y0056261D03*
X0038481Y0054356D03*
X0038481Y0052451D03*
X0038481Y0050546D03*
X0041021Y0050546D03*
X0041021Y0051816D03*
X0041021Y0053086D03*
X0041021Y0054356D03*
X0041021Y0055626D03*
X0041021Y0056896D03*
X0043561Y0056896D03*
X0043561Y0055626D03*
X0043561Y0053721D03*
X0043561Y0051816D03*
X0043561Y0050546D03*
X0031496Y0003556D03*
X0034036Y0003556D03*
X0036576Y0003556D03*
X0039116Y0003556D03*
X0041656Y0003556D03*
X0042291Y0096901D03*
X0042291Y0095631D03*
X0043561Y0089281D03*
X0043561Y0086106D03*
X0044196Y0084201D03*
X0046736Y0083566D03*
X0048641Y0084201D03*
X0048641Y0085471D03*
X0047371Y0087376D03*
X0050546Y0087376D03*
X0049276Y0086741D03*
X0052261Y0085471D03*
X0072136Y0074041D03*
X0070866Y0075311D03*
X0068326Y0077216D03*
X0066421Y0077216D03*
X0066421Y0075311D03*
X0066421Y0073406D03*
X0066421Y0068326D03*
X0066421Y0067056D03*
X0070866Y0067056D03*
X0073406Y0067056D03*
X0075946Y0067056D03*
X0078486Y0067056D03*
X0065151Y0043561D03*
X0004191Y0034671D03*
X0004191Y0032766D03*
X0004191Y0030861D03*
X0006096Y0030861D03*
X0006096Y0032766D03*
X0006096Y0034671D03*
X0006096Y0035941D03*
X0004191Y0035941D03*
X0001651Y0035941D03*
X0021971Y0056896D03*
X0020701Y0056896D03*
X0018161Y0056896D03*
X0018161Y0054991D03*
X0018161Y0053086D03*
X0005461Y0068326D03*
X0008001Y0068326D03*
X0011176Y0068326D03*
X0011176Y0070866D03*
X0008001Y0070866D03*
X0005461Y0070866D03*
X0046101Y0049276D03*
X0046101Y0051181D03*
X0046101Y0053086D03*
X0046101Y0054991D03*
X0046101Y0056896D03*
X0046101Y0058166D03*
X0046101Y0059436D03*
X0049911Y0059436D03*
X0049911Y0058166D03*
X0049911Y0056261D03*
X0053721Y0060706D03*
X0051816Y0062611D03*
X0051816Y0064516D03*
X0051816Y0066421D03*
X0059271Y0070231D03*
X0058331Y0069596D03*
X0058331Y0070866D03*
X0057682Y0072922D03*
X0057047Y0073557D03*
X0061161Y0074041D03*
X0027051Y0030861D03*
X0027051Y0032131D03*
X0025781Y0032766D03*
X0025781Y0031496D03*
X0024511Y0031496D03*
X0024511Y0032766D03*
X0042291Y0034671D03*
X0042291Y0032766D03*
X0042291Y0030861D03*
X0042291Y0029591D03*
X0042291Y0027686D03*
X0034671Y0035306D03*
X0034671Y0034036D03*
X0034671Y0031496D03*
X0034671Y0029591D03*
X0034671Y0027686D03*
X0034671Y0046101D03*
X0036576Y0046101D03*
X0037846Y0046101D03*
X0037846Y0044831D03*
X0036576Y0044831D03*
X0034671Y0044831D03*
X0059436Y0020701D03*
X0059436Y0018796D03*
X0054991Y0027686D03*
X0053721Y0027686D03*
X0052451Y0027686D03*
X0051181Y0027686D03*
X0049911Y0027686D03*
X0049911Y0026416D03*
X0051181Y0026416D03*
X0052451Y0026416D03*
X0053721Y0026416D03*
X0054991Y0026416D03*
X0054991Y0025146D03*
X0053721Y0025146D03*
X0052451Y0025146D03*
X0063246Y0021336D03*
X0063246Y0020066D03*
X0064516Y0020066D03*
X0064516Y0021336D03*
X0064516Y0022606D03*
X0063246Y0022606D03*
X0061976Y0022606D03*
X0079121Y0070231D03*
X0079121Y0071501D03*
X0079121Y0072771D03*
X0079121Y0074041D03*
X0058801Y0077851D03*
X0060071Y0077851D03*
X0060071Y0079121D03*
X0063881Y0081661D03*
X0071501Y0089446D03*
X0071501Y0090551D03*
X0071501Y0091821D03*
X0073406Y0091821D03*
X0052451Y0090716D03*
X0058801Y0089281D03*
X0058801Y0090551D03*
X0058801Y0091821D03*
X0057531Y0091821D03*
X0056261Y0086106D03*
X0054356Y0085471D03*
X0054356Y0084201D03*
X0052261Y0082296D03*
X0028956Y0082931D03*
X0030226Y0082931D03*
X0040386Y0084836D03*
X0040386Y0086106D03*
X0040386Y0087376D03*
X0040386Y0088646D03*
X0039116Y0088646D03*
X0039116Y0087376D03*
X0039116Y0086106D03*
X0039116Y0084836D03*
X0038481Y0079756D03*
X0038481Y0078486D03*
X0039751Y0078486D03*
X0039751Y0079756D03*
X0028956Y0080391D03*
X0030226Y0080391D03*
X0031496Y0080391D03*
X0032766Y0080391D03*
X0034036Y0080391D03*
X0063881Y0039116D03*
X0061341Y0041021D03*
X0060706Y0044831D03*
X0059436Y0044831D03*
X0053721Y0044196D03*
X0053721Y0046736D03*
X0053721Y0049276D03*
X0030861Y0049911D03*
X0030861Y0051816D03*
X0030861Y0053721D03*
X0030861Y0056261D03*
X0028321Y0058801D03*
X0026416Y0057531D03*
X0025146Y0056261D03*
X0023876Y0056261D03*
X0065671Y0048006D03*
X0058911Y0040496D03*
X0056261Y0079121D03*
X0049911Y0073241D03*
X0034036Y0075311D03*
X0034036Y0070231D03*
X0066256Y0049911D03*
X0068072Y0051816D03*
X0057531Y0085471D03*
X0044831Y0044196D03*
X0066421Y0086106D03*
X0063881Y0086106D03*
X0039751Y0044196D03*
X0060319Y0083318D03*
X0032131Y0044196D03*
X0067691Y0087376D03*
X0061961Y0087376D03*
X0029591Y0044196D03*
X0058801Y0084201D03*
X0015621Y0013081D03*
X0045466Y0079756D03*
X0057861Y0058166D03*
X0054356Y0058166D03*
X0055461Y0077851D03*
X0063107Y0035167D03*
D19*
X0032931Y0056096D02*
X0033401Y0055626D01*
X0032931Y0057531D02*
X0032931Y0056096D01*
X0038481Y0059436D02*
X0038481Y0062611D01*
X0038481Y0062141D02*
X0038951Y0062611D01*
X0038481Y0058166D02*
X0038481Y0062141D01*
X0038481Y0054356D02*
X0038481Y0056261D01*
X0041021Y0051816D02*
X0041021Y0050546D01*
X0041021Y0054356D02*
X0041021Y0053086D01*
X0041021Y0056896D02*
X0041021Y0055626D01*
X0043561Y0055626D02*
X0043561Y0056896D01*
X0043561Y0051816D02*
X0043561Y0053721D01*
D63*
X0043561Y0049276D02*
X0043561Y0050546D01*
X0036576Y0003556D02*
X0034036Y0003556D01*
X0041656Y0003556D02*
X0039116Y0003556D01*
X0042291Y0095631D02*
X0042291Y0096901D01*
X0043561Y0086106D02*
X0043561Y0089281D01*
X0044831Y0083566D02*
X0044196Y0084201D01*
X0046736Y0083566D02*
X0044831Y0083566D01*
X0048641Y0085471D02*
X0048641Y0084201D01*
X0050546Y0087376D02*
X0047371Y0087376D01*
X0050546Y0085471D02*
X0049276Y0086741D01*
X0052261Y0085471D02*
X0050546Y0085471D01*
D14*
X0070866Y0075311D02*
X0072136Y0074041D01*
X0066421Y0077216D02*
X0068326Y0077216D01*
X0066421Y0073406D02*
X0066421Y0075311D01*
X0066421Y0067056D02*
X0066421Y0068326D01*
X0073406Y0067056D02*
X0070866Y0067056D01*
X0078486Y0067056D02*
X0075946Y0067056D01*
D19*
X0004191Y0032766D02*
X0004191Y0034671D01*
X0006096Y0030861D02*
X0004191Y0030861D01*
X0006096Y0034671D02*
X0006096Y0032766D01*
X0004191Y0035941D02*
X0006096Y0035941D01*
X0002191Y0035401D02*
X0001651Y0035941D01*
X0002191Y0032766D02*
X0002191Y0035401D01*
X0018161Y0056896D02*
X0020701Y0056896D01*
X0018161Y0053086D02*
X0018161Y0054991D01*
X0008001Y0068326D02*
X0005461Y0068326D01*
X0011176Y0070866D02*
X0011176Y0068326D01*
X0005461Y0070866D02*
X0008001Y0070866D01*
X0046101Y0051181D02*
X0046101Y0049276D01*
X0046101Y0054991D02*
X0046101Y0053086D01*
X0046101Y0058166D02*
X0046101Y0056896D01*
X0049911Y0059436D02*
X0046101Y0059436D01*
X0049911Y0056261D02*
X0049911Y0058166D01*
X0051816Y0064516D02*
X0051816Y0062611D01*
X0055156Y0066421D02*
X0051816Y0066421D01*
X0058331Y0069596D02*
X0055156Y0066421D01*
X0058331Y0070866D02*
X0058331Y0069596D01*
X0057047Y0073557D02*
X0057682Y0072922D01*
X0027051Y0032131D02*
X0027051Y0030861D01*
X0025781Y0031496D02*
X0025781Y0032766D01*
X0024511Y0032766D02*
X0024511Y0031496D01*
X0042291Y0030861D02*
X0042291Y0032766D01*
X0042291Y0027686D02*
X0042291Y0029591D01*
X0034671Y0035306D02*
X0034671Y0037211D01*
X0034671Y0031496D02*
X0034671Y0034036D01*
X0034671Y0027686D02*
X0034671Y0029591D01*
X0036576Y0046101D02*
X0034671Y0046101D01*
X0037846Y0044831D02*
X0037846Y0046101D01*
X0034671Y0044831D02*
X0036576Y0044831D01*
X0059436Y0018796D02*
X0059436Y0020701D01*
X0052451Y0027686D02*
X0053721Y0027686D01*
X0049911Y0027686D02*
X0051181Y0027686D01*
X0051181Y0026416D02*
X0049911Y0026416D01*
X0053721Y0026416D02*
X0052451Y0026416D01*
X0054991Y0025146D02*
X0054991Y0026416D01*
X0052451Y0025146D02*
X0053721Y0025146D01*
X0064516Y0020066D02*
X0063246Y0020066D01*
X0064516Y0022606D02*
X0064516Y0021336D01*
X0061976Y0022606D02*
X0063246Y0022606D01*
X0079121Y0071501D02*
X0079121Y0070231D01*
X0079121Y0074041D02*
X0079121Y0072771D01*
X0060071Y0079121D02*
X0060071Y0077851D01*
X0071501Y0091821D02*
X0071501Y0090551D01*
X0073406Y0089916D02*
X0073406Y0091821D01*
X0058801Y0090551D02*
X0058801Y0089281D01*
X0057531Y0091821D02*
X0058801Y0091821D01*
X0052451Y0082296D02*
X0054356Y0084201D01*
X0052261Y0082296D02*
X0052451Y0082296D01*
X0030226Y0082931D02*
X0028956Y0082931D01*
X0040386Y0086106D02*
X0040386Y0084836D01*
X0040386Y0088646D02*
X0040386Y0087376D01*
X0039116Y0087376D02*
X0039116Y0088646D01*
X0039116Y0084836D02*
X0039116Y0086106D01*
X0038481Y0078486D02*
X0038481Y0079756D01*
X0039751Y0079756D02*
X0039751Y0078486D01*
X0031496Y0080391D02*
X0030226Y0080391D01*
X0034036Y0080391D02*
X0032766Y0080391D01*
D63*
X0063881Y0039116D02*
X0063246Y0039116D01*
X0063246Y0039116D02*
X0061341Y0041021D01*
X0060706Y0044831D02*
X0059436Y0044831D01*
X0053721Y0044196D02*
X0053721Y0046736D01*
X0037846Y0046101D02*
X0037211Y0046736D01*
X0037211Y0046736D02*
X0037211Y0051181D01*
X0037211Y0051181D02*
X0038043Y0051181D01*
D19*
X0038481Y0050546D02*
X0038043Y0051181D01*
X0038043Y0051181D02*
X0038481Y0052451D01*
D63*
X0034126Y0053176D02*
X0034581Y0053176D01*
X0033401Y0052451D02*
X0034126Y0053176D01*
D19*
X0033401Y0052451D02*
X0033401Y0049911D01*
X0033401Y0053721D02*
X0033401Y0052451D01*
D63*
X0034581Y0053176D02*
X0034671Y0053266D01*
X0033406Y0057526D02*
X0033406Y0057531D01*
X0034671Y0056261D02*
X0033406Y0057526D01*
X0034671Y0053266D02*
X0034671Y0056261D01*
X0030861Y0049911D02*
X0030861Y0051816D01*
X0030861Y0053721D02*
X0030861Y0056261D01*
X0028321Y0058801D02*
X0027686Y0058801D01*
X0027686Y0058801D02*
X0026416Y0057531D01*
X0025146Y0056261D02*
X0023876Y0056261D01*
D66*
X0069691Y0070866D02*
X0062611Y0070866D01*
X0062611Y0070866D02*
X0056261Y0064516D01*
X0056261Y0064516D02*
X0056261Y0039751D01*
X0063246Y0032766D02*
X0069691Y0032766D01*
X0056261Y0039751D02*
X0063246Y0032766D01*
D28*
X0066421Y0048006D02*
X0065786Y0047371D01*
X0067056Y0048641D02*
X0066421Y0048006D01*
X0065671Y0048006D02*
X0066421Y0048006D01*
X0065786Y0047371D02*
X0058911Y0040496D01*
X0065671Y0048006D02*
X0065671Y0047440D01*
X0065671Y0047440D02*
X0065740Y0047371D01*
X0065740Y0047371D02*
X0065786Y0047371D01*
X0073406Y0048641D02*
X0067056Y0048641D01*
X0050982Y0074676D02*
X0055427Y0079121D01*
X0049911Y0073241D02*
X0050982Y0074312D01*
X0050982Y0074312D02*
X0050982Y0074676D01*
X0055427Y0079121D02*
X0056261Y0079121D01*
X0034036Y0075311D02*
X0034036Y0070231D01*
D19*
X0066256Y0050000D02*
X0068072Y0051816D01*
X0066256Y0049911D02*
X0066256Y0050000D01*
D28*
X0057531Y0085471D02*
X0057251Y0085471D01*
X0057251Y0085471D02*
X0022606Y0050826D01*
X0022606Y0050826D02*
X0022606Y0018796D01*
X0022606Y0018796D02*
X0019431Y0015621D01*
X0019431Y0015621D02*
X0019431Y0008636D01*
D14*
X0063881Y0085540D02*
X0058732Y0080391D01*
X0063881Y0086106D02*
X0063881Y0085540D01*
X0058732Y0080391D02*
X0055707Y0080391D01*
X0055707Y0080391D02*
X0044831Y0069515D01*
X0044831Y0069515D02*
X0044831Y0057445D01*
X0044831Y0057445D02*
X0044831Y0044196D01*
X0075946Y0084836D02*
X0075311Y0085471D01*
X0066421Y0086106D02*
X0063881Y0086106D01*
X0039751Y0062611D02*
X0039751Y0044196D01*
X0055822Y0081355D02*
X0039751Y0065284D01*
X0039751Y0065284D02*
X0039751Y0062611D01*
X0058357Y0081355D02*
X0055822Y0081355D01*
X0060319Y0083318D02*
X0058357Y0081355D01*
X0061961Y0086091D02*
X0058022Y0082152D01*
X0061961Y0087376D02*
X0061961Y0086091D01*
X0058022Y0082152D02*
X0055770Y0082152D01*
X0055770Y0082152D02*
X0032131Y0058513D01*
X0032131Y0058513D02*
X0032131Y0056261D01*
X0032131Y0056261D02*
X0032131Y0044196D01*
X0067691Y0087376D02*
X0061961Y0087376D01*
X0029591Y0056821D02*
X0029591Y0054991D01*
X0056971Y0084201D02*
X0029591Y0056821D01*
X0058801Y0084201D02*
X0056971Y0084201D01*
X0029591Y0054991D02*
X0029591Y0044196D01*
X0045466Y0074676D02*
X0021906Y0051116D01*
X0045466Y0079756D02*
X0045466Y0074676D01*
X0021906Y0051116D02*
X0021906Y0019366D01*
X0021906Y0019366D02*
X0015621Y0013081D01*
X0063107Y0035167D02*
X0058166Y0040109D01*
X0057861Y0058166D02*
X0057861Y0040414D01*
X0057861Y0040414D02*
X0058166Y0040109D01*
X0057861Y0058166D02*
X0057661Y0058166D01*
X0050546Y0061976D02*
X0054356Y0058166D01*
X0050546Y0072692D02*
X0050546Y0061976D01*
X0055061Y0077451D02*
X0055061Y0077207D01*
X0055461Y0077851D02*
X0055061Y0077451D01*
X0055061Y0077207D02*
X0050546Y0072692D01*
D29*
G36*
X0080037Y0000735D02*
X0000735Y0000735D01*
X0000735Y0005131D01*
X0012816Y0005131D01*
X0012816Y0004521D01*
X0013050Y0003956D01*
X0013481Y0003525D01*
X0014046Y0003291D01*
X0014656Y0003291D01*
X0015221Y0003525D01*
X0015652Y0003956D01*
X0015886Y0004521D01*
X0015886Y0005131D01*
X0015652Y0005696D01*
X0015221Y0006127D01*
X0014656Y0006361D01*
X0014046Y0006361D01*
X0013481Y0006127D01*
X0013050Y0005696D01*
X0012816Y0005131D01*
X0000735Y0005131D01*
X0000735Y0013287D01*
X0014586Y0013287D01*
X0014586Y0012875D01*
X0014744Y0012495D01*
X0015035Y0012204D01*
X0015415Y0012046D01*
X0015827Y0012046D01*
X0016207Y0012204D01*
X0016498Y0012495D01*
X0016656Y0012875D01*
X0016656Y0012935D01*
X0018496Y0014775D01*
X0018496Y0010011D01*
X0018421Y0009996D01*
X0018211Y0009856D01*
X0018071Y0009646D01*
X0018022Y0009398D01*
X0018022Y0007874D01*
X0018071Y0007626D01*
X0018211Y0007416D01*
X0018286Y0007366D01*
X0018211Y0007316D01*
X0018071Y0007106D01*
X0018022Y0006858D01*
X0018022Y0005334D01*
X0018071Y0005086D01*
X0018211Y0004876D01*
X0018421Y0004736D01*
X0018669Y0004687D01*
X0020193Y0004687D01*
X0020441Y0004736D01*
X0020651Y0004876D01*
X0020791Y0005086D01*
X0020840Y0005334D01*
X0020840Y0006858D01*
X0020791Y0007106D01*
X0020651Y0007316D01*
X0020576Y0007366D01*
X0020651Y0007416D01*
X0020791Y0007626D01*
X0020840Y0007874D01*
X0020840Y0009398D01*
X0020791Y0009646D01*
X0020651Y0009856D01*
X0020441Y0009996D01*
X0020366Y0010011D01*
X0020366Y0011987D01*
X0055776Y0011987D01*
X0055776Y0011137D01*
X0056101Y0010353D01*
X0056702Y0009752D01*
X0057486Y0009427D01*
X0058336Y0009427D01*
X0059120Y0009752D01*
X0059721Y0010353D01*
X0060046Y0011137D01*
X0060046Y0011987D01*
X0060476Y0011987D01*
X0060476Y0011137D01*
X0060801Y0010353D01*
X0061402Y0009752D01*
X0062186Y0009427D01*
X0063036Y0009427D01*
X0063820Y0009752D01*
X0064421Y0010353D01*
X0064746Y0011137D01*
X0064746Y0011987D01*
X0065176Y0011987D01*
X0065176Y0011137D01*
X0065501Y0010353D01*
X0066102Y0009752D01*
X0066886Y0009427D01*
X0067736Y0009427D01*
X0068520Y0009752D01*
X0069121Y0010353D01*
X0069446Y0011137D01*
X0069446Y0011987D01*
X0069121Y0012771D01*
X0068520Y0013372D01*
X0067736Y0013697D01*
X0066886Y0013697D01*
X0066102Y0013372D01*
X0065501Y0012771D01*
X0065176Y0011987D01*
X0064746Y0011987D01*
X0064421Y0012771D01*
X0063820Y0013372D01*
X0063036Y0013697D01*
X0062186Y0013697D01*
X0061402Y0013372D01*
X0060801Y0012771D01*
X0060476Y0011987D01*
X0060046Y0011987D01*
X0059721Y0012771D01*
X0059120Y0013372D01*
X0058336Y0013697D01*
X0057486Y0013697D01*
X0056702Y0013372D01*
X0056101Y0012771D01*
X0055776Y0011987D01*
X0020366Y0011987D01*
X0020366Y0015234D01*
X0023202Y0018070D01*
X0023280Y0018122D01*
X0023487Y0018431D01*
X0023541Y0018704D01*
X0023559Y0018796D01*
X0023541Y0018888D01*
X0023541Y0023176D01*
X0025641Y0023176D01*
X0025641Y0022606D01*
X0025859Y0022078D01*
X0026263Y0021674D01*
X0026791Y0021456D01*
X0027361Y0021456D01*
X0027889Y0021674D01*
X0028293Y0022078D01*
X0028511Y0022606D01*
X0028511Y0023127D01*
X0046891Y0023127D01*
X0046891Y0022655D01*
X0047071Y0022220D01*
X0047405Y0021886D01*
X0047840Y0021706D01*
X0048312Y0021706D01*
X0048747Y0021886D01*
X0049081Y0022220D01*
X0049261Y0022655D01*
X0049261Y0023127D01*
X0049081Y0023562D01*
X0048747Y0023896D01*
X0048312Y0024076D01*
X0047840Y0024076D01*
X0047405Y0023896D01*
X0047071Y0023562D01*
X0046891Y0023127D01*
X0028511Y0023127D01*
X0028511Y0023176D01*
X0028293Y0023704D01*
X0027889Y0024108D01*
X0027361Y0024326D01*
X0026791Y0024326D01*
X0026263Y0024108D01*
X0025859Y0023704D01*
X0025641Y0023176D01*
X0023541Y0023176D01*
X0023541Y0024638D01*
X0074537Y0024638D01*
X0074537Y0023114D01*
X0074586Y0022866D01*
X0074726Y0022656D01*
X0074801Y0022606D01*
X0074726Y0022556D01*
X0074586Y0022346D01*
X0074537Y0022098D01*
X0074537Y0020574D01*
X0074586Y0020326D01*
X0074726Y0020116D01*
X0074801Y0020066D01*
X0074726Y0020016D01*
X0074586Y0019806D01*
X0074537Y0019558D01*
X0074537Y0018034D01*
X0074586Y0017786D01*
X0074726Y0017576D01*
X0074801Y0017526D01*
X0074726Y0017476D01*
X0074586Y0017266D01*
X0074537Y0017018D01*
X0074537Y0015494D01*
X0074586Y0015246D01*
X0074726Y0015036D01*
X0074801Y0014986D01*
X0074726Y0014936D01*
X0074586Y0014726D01*
X0074537Y0014478D01*
X0074537Y0012954D01*
X0074586Y0012706D01*
X0074726Y0012496D01*
X0074801Y0012446D01*
X0074726Y0012396D01*
X0074586Y0012186D01*
X0074537Y0011938D01*
X0074537Y0010414D01*
X0074586Y0010166D01*
X0074726Y0009956D01*
X0074936Y0009816D01*
X0075184Y0009767D01*
X0076708Y0009767D01*
X0076956Y0009816D01*
X0077166Y0009956D01*
X0077306Y0010166D01*
X0077355Y0010414D01*
X0077355Y0011938D01*
X0077306Y0012186D01*
X0077166Y0012396D01*
X0077091Y0012446D01*
X0077166Y0012496D01*
X0077306Y0012706D01*
X0077355Y0012954D01*
X0077355Y0014478D01*
X0077306Y0014726D01*
X0077166Y0014936D01*
X0077091Y0014986D01*
X0077166Y0015036D01*
X0077306Y0015246D01*
X0077355Y0015494D01*
X0077355Y0017018D01*
X0077306Y0017266D01*
X0077166Y0017476D01*
X0077091Y0017526D01*
X0077166Y0017576D01*
X0077306Y0017786D01*
X0077355Y0018034D01*
X0077355Y0019558D01*
X0077306Y0019806D01*
X0077166Y0020016D01*
X0077091Y0020066D01*
X0077166Y0020116D01*
X0077306Y0020326D01*
X0077355Y0020574D01*
X0077355Y0022098D01*
X0077306Y0022346D01*
X0077166Y0022556D01*
X0077091Y0022606D01*
X0077166Y0022656D01*
X0077306Y0022866D01*
X0077355Y0023114D01*
X0077355Y0024638D01*
X0077306Y0024886D01*
X0077166Y0025096D01*
X0076956Y0025236D01*
X0076708Y0025285D01*
X0075184Y0025285D01*
X0074936Y0025236D01*
X0074726Y0025096D01*
X0074586Y0024886D01*
X0074537Y0024638D01*
X0023541Y0024638D01*
X0023541Y0034606D01*
X0025641Y0034606D01*
X0025641Y0034036D01*
X0025859Y0033508D01*
X0026263Y0033104D01*
X0026791Y0032886D01*
X0027361Y0032886D01*
X0027889Y0033104D01*
X0028293Y0033508D01*
X0028511Y0034036D01*
X0028511Y0034557D01*
X0046891Y0034557D01*
X0046891Y0034085D01*
X0047071Y0033650D01*
X0047405Y0033316D01*
X0047840Y0033136D01*
X0048312Y0033136D01*
X0048747Y0033316D01*
X0048771Y0033340D01*
X0050856Y0033340D01*
X0050856Y0032192D01*
X0051295Y0031132D01*
X0052107Y0030320D01*
X0053167Y0029881D01*
X0054315Y0029881D01*
X0055375Y0030320D01*
X0056187Y0031132D01*
X0056626Y0032192D01*
X0056626Y0033340D01*
X0056187Y0034400D01*
X0055375Y0035212D01*
X0054315Y0035651D01*
X0053167Y0035651D01*
X0052107Y0035212D01*
X0051295Y0034400D01*
X0050856Y0033340D01*
X0048771Y0033340D01*
X0049081Y0033650D01*
X0049261Y0034085D01*
X0049261Y0034557D01*
X0049081Y0034992D01*
X0048747Y0035326D01*
X0048312Y0035506D01*
X0047840Y0035506D01*
X0047405Y0035326D01*
X0047071Y0034992D01*
X0046891Y0034557D01*
X0028511Y0034557D01*
X0028511Y0034606D01*
X0028293Y0035134D01*
X0027889Y0035538D01*
X0027361Y0035756D01*
X0026791Y0035756D01*
X0026263Y0035538D01*
X0025859Y0035134D01*
X0025641Y0034606D01*
X0023541Y0034606D01*
X0023541Y0050439D01*
X0028756Y0055654D01*
X0028756Y0055073D01*
X0028756Y0055073D01*
X0028756Y0044825D01*
X0028714Y0044782D01*
X0028556Y0044402D01*
X0028556Y0043990D01*
X0028714Y0043610D01*
X0029005Y0043319D01*
X0029385Y0043161D01*
X0029797Y0043161D01*
X0030177Y0043319D01*
X0030468Y0043610D01*
X0030626Y0043990D01*
X0030626Y0044402D01*
X0030468Y0044782D01*
X0030426Y0044825D01*
X0030426Y0056475D01*
X0031296Y0057345D01*
X0031296Y0056343D01*
X0031296Y0056343D01*
X0031296Y0044825D01*
X0031254Y0044782D01*
X0031096Y0044402D01*
X0031096Y0043990D01*
X0031254Y0043610D01*
X0031545Y0043319D01*
X0031925Y0043161D01*
X0032337Y0043161D01*
X0032717Y0043319D01*
X0033008Y0043610D01*
X0033166Y0043990D01*
X0033166Y0044402D01*
X0033008Y0044782D01*
X0032966Y0044825D01*
X0032966Y0058167D01*
X0038916Y0064117D01*
X0038916Y0062693D01*
X0038916Y0062693D01*
X0038916Y0044825D01*
X0038874Y0044782D01*
X0038716Y0044402D01*
X0038716Y0043990D01*
X0038874Y0043610D01*
X0039165Y0043319D01*
X0039545Y0043161D01*
X0039957Y0043161D01*
X0040337Y0043319D01*
X0040628Y0043610D01*
X0040786Y0043990D01*
X0040786Y0044402D01*
X0040628Y0044782D01*
X0040586Y0044825D01*
X0040586Y0064938D01*
X0043996Y0068348D01*
X0043996Y0057527D01*
X0043996Y0057527D01*
X0043996Y0044825D01*
X0043954Y0044782D01*
X0043796Y0044402D01*
X0043796Y0043990D01*
X0043954Y0043610D01*
X0044245Y0043319D01*
X0044625Y0043161D01*
X0045037Y0043161D01*
X0045417Y0043319D01*
X0045708Y0043610D01*
X0045866Y0043990D01*
X0045866Y0044402D01*
X0045708Y0044782D01*
X0045666Y0044825D01*
X0045666Y0069170D01*
X0049092Y0072596D01*
X0049325Y0072364D01*
X0049705Y0072206D01*
X0049711Y0072206D01*
X0049711Y0062058D01*
X0049695Y0061976D01*
X0049759Y0061650D01*
X0049867Y0061489D01*
X0049944Y0061374D01*
X0050014Y0061327D01*
X0053321Y0058020D01*
X0053321Y0057960D01*
X0053479Y0057580D01*
X0053770Y0057289D01*
X0054150Y0057131D01*
X0054562Y0057131D01*
X0054626Y0057158D01*
X0054626Y0039912D01*
X0054594Y0039751D01*
X0054692Y0039257D01*
X0054721Y0039113D01*
X0055082Y0038572D01*
X0055219Y0038481D01*
X0061976Y0031724D01*
X0062067Y0031587D01*
X0062354Y0031396D01*
X0062608Y0031226D01*
X0063246Y0031099D01*
X0063407Y0031131D01*
X0068712Y0031131D01*
X0069316Y0030881D01*
X0070066Y0030881D01*
X0070759Y0031168D01*
X0071289Y0031698D01*
X0071521Y0032258D01*
X0071997Y0032258D01*
X0071997Y0030734D01*
X0072046Y0030486D01*
X0072186Y0030276D01*
X0072396Y0030136D01*
X0072644Y0030087D01*
X0074168Y0030087D01*
X0074416Y0030136D01*
X0074626Y0030276D01*
X0074676Y0030351D01*
X0074726Y0030276D01*
X0074936Y0030136D01*
X0075184Y0030087D01*
X0076708Y0030087D01*
X0076956Y0030136D01*
X0077166Y0030276D01*
X0077306Y0030486D01*
X0077355Y0030734D01*
X0077355Y0032258D01*
X0077306Y0032506D01*
X0077166Y0032716D01*
X0076956Y0032856D01*
X0076708Y0032905D01*
X0075184Y0032905D01*
X0074936Y0032856D01*
X0074726Y0032716D01*
X0074676Y0032641D01*
X0074626Y0032716D01*
X0074416Y0032856D01*
X0074168Y0032905D01*
X0072644Y0032905D01*
X0072396Y0032856D01*
X0072186Y0032716D01*
X0072046Y0032506D01*
X0071997Y0032258D01*
X0071521Y0032258D01*
X0071576Y0032391D01*
X0071576Y0033141D01*
X0071289Y0033834D01*
X0070759Y0034364D01*
X0070066Y0034651D01*
X0069316Y0034651D01*
X0068712Y0034401D01*
X0066248Y0034401D01*
X0066248Y0035471D01*
X0066199Y0035719D01*
X0066059Y0035929D01*
X0065849Y0036069D01*
X0065601Y0036118D01*
X0064701Y0036118D01*
X0064453Y0036069D01*
X0064243Y0035929D01*
X0064103Y0035719D01*
X0064069Y0035550D01*
X0063985Y0035754D01*
X0063694Y0036045D01*
X0063313Y0036202D01*
X0063253Y0036202D01*
X0059667Y0039788D01*
X0059788Y0039909D01*
X0059888Y0040151D01*
X0060250Y0040513D01*
X0071997Y0040513D01*
X0071997Y0038989D01*
X0072046Y0038741D01*
X0072186Y0038531D01*
X0072261Y0038481D01*
X0072186Y0038431D01*
X0072046Y0038221D01*
X0071997Y0037973D01*
X0071997Y0036449D01*
X0072046Y0036201D01*
X0072186Y0035991D01*
X0072396Y0035851D01*
X0072644Y0035802D01*
X0074168Y0035802D01*
X0074416Y0035851D01*
X0074626Y0035991D01*
X0074766Y0036201D01*
X0074815Y0036449D01*
X0074815Y0037973D01*
X0074766Y0038221D01*
X0074626Y0038431D01*
X0074551Y0038481D01*
X0074626Y0038531D01*
X0074676Y0038606D01*
X0074726Y0038531D01*
X0074936Y0038391D01*
X0075184Y0038342D01*
X0076708Y0038342D01*
X0076956Y0038391D01*
X0077166Y0038531D01*
X0077306Y0038741D01*
X0077355Y0038989D01*
X0077355Y0040513D01*
X0077306Y0040761D01*
X0077166Y0040971D01*
X0076956Y0041111D01*
X0076708Y0041160D01*
X0075184Y0041160D01*
X0074936Y0041111D01*
X0074726Y0040971D01*
X0074676Y0040896D01*
X0074626Y0040971D01*
X0074416Y0041111D01*
X0074168Y0041160D01*
X0072644Y0041160D01*
X0072396Y0041111D01*
X0072186Y0040971D01*
X0072046Y0040761D01*
X0071997Y0040513D01*
X0060250Y0040513D01*
X0066382Y0046645D01*
X0066460Y0046697D01*
X0066512Y0046775D01*
X0067017Y0047280D01*
X0067095Y0047332D01*
X0067147Y0047410D01*
X0067443Y0047706D01*
X0072031Y0047706D01*
X0072046Y0047631D01*
X0072186Y0047421D01*
X0072261Y0047371D01*
X0072186Y0047321D01*
X0072046Y0047111D01*
X0071997Y0046863D01*
X0071997Y0045339D01*
X0072046Y0045091D01*
X0072186Y0044881D01*
X0072396Y0044741D01*
X0072644Y0044692D01*
X0074168Y0044692D01*
X0074416Y0044741D01*
X0074626Y0044881D01*
X0074676Y0044956D01*
X0074726Y0044881D01*
X0074936Y0044741D01*
X0075184Y0044692D01*
X0076708Y0044692D01*
X0076956Y0044741D01*
X0077166Y0044881D01*
X0077306Y0045091D01*
X0077355Y0045339D01*
X0077355Y0046863D01*
X0077306Y0047111D01*
X0077166Y0047321D01*
X0077091Y0047371D01*
X0077166Y0047421D01*
X0077306Y0047631D01*
X0077355Y0047879D01*
X0077355Y0049403D01*
X0077306Y0049651D01*
X0077166Y0049861D01*
X0077091Y0049911D01*
X0077166Y0049961D01*
X0077306Y0050171D01*
X0077355Y0050419D01*
X0077355Y0051943D01*
X0077306Y0052191D01*
X0077166Y0052401D01*
X0076956Y0052541D01*
X0076708Y0052590D01*
X0075184Y0052590D01*
X0074936Y0052541D01*
X0074726Y0052401D01*
X0074676Y0052326D01*
X0074626Y0052401D01*
X0074416Y0052541D01*
X0074168Y0052590D01*
X0072644Y0052590D01*
X0072396Y0052541D01*
X0072186Y0052401D01*
X0072046Y0052191D01*
X0071997Y0051943D01*
X0071997Y0050419D01*
X0072046Y0050171D01*
X0072186Y0049961D01*
X0072261Y0049911D01*
X0072186Y0049861D01*
X0072046Y0049651D01*
X0072031Y0049576D01*
X0067238Y0049576D01*
X0067291Y0049705D01*
X0067291Y0049925D01*
X0068147Y0050781D01*
X0068278Y0050781D01*
X0068658Y0050939D01*
X0068949Y0051230D01*
X0069107Y0051610D01*
X0069107Y0052022D01*
X0068949Y0052402D01*
X0068658Y0052693D01*
X0068278Y0052851D01*
X0067866Y0052851D01*
X0067486Y0052693D01*
X0067195Y0052402D01*
X0067037Y0052022D01*
X0067037Y0051891D01*
X0066092Y0050946D01*
X0066050Y0050946D01*
X0065670Y0050788D01*
X0065379Y0050497D01*
X0065221Y0050117D01*
X0065221Y0049705D01*
X0065379Y0049325D01*
X0065662Y0049041D01*
X0065465Y0049041D01*
X0065085Y0048883D01*
X0064794Y0048592D01*
X0064636Y0048212D01*
X0064636Y0047800D01*
X0064711Y0047619D01*
X0058696Y0041603D01*
X0058696Y0057537D01*
X0058738Y0057580D01*
X0058896Y0057960D01*
X0058896Y0058372D01*
X0058738Y0058752D01*
X0058447Y0059043D01*
X0058067Y0059201D01*
X0057896Y0059201D01*
X0057896Y0063839D01*
X0059970Y0065913D01*
X0071997Y0065913D01*
X0071997Y0064389D01*
X0072046Y0064141D01*
X0072186Y0063931D01*
X0072261Y0063881D01*
X0072186Y0063831D01*
X0072046Y0063621D01*
X0071997Y0063373D01*
X0071997Y0061849D01*
X0072046Y0061601D01*
X0072186Y0061391D01*
X0072261Y0061341D01*
X0072186Y0061291D01*
X0072046Y0061081D01*
X0071997Y0060833D01*
X0071997Y0059309D01*
X0072046Y0059061D01*
X0072186Y0058851D01*
X0072261Y0058801D01*
X0072186Y0058751D01*
X0072046Y0058541D01*
X0071997Y0058293D01*
X0071997Y0056769D01*
X0072046Y0056521D01*
X0072186Y0056311D01*
X0072396Y0056171D01*
X0072644Y0056122D01*
X0074168Y0056122D01*
X0074416Y0056171D01*
X0074626Y0056311D01*
X0074676Y0056386D01*
X0074726Y0056311D01*
X0074936Y0056171D01*
X0075184Y0056122D01*
X0076708Y0056122D01*
X0076956Y0056171D01*
X0077166Y0056311D01*
X0077306Y0056521D01*
X0077355Y0056769D01*
X0077355Y0058293D01*
X0077306Y0058541D01*
X0077166Y0058751D01*
X0077091Y0058801D01*
X0077166Y0058851D01*
X0077306Y0059061D01*
X0077355Y0059309D01*
X0077355Y0060833D01*
X0077306Y0061081D01*
X0077166Y0061291D01*
X0077091Y0061341D01*
X0077166Y0061391D01*
X0077306Y0061601D01*
X0077355Y0061849D01*
X0077355Y0063373D01*
X0077306Y0063621D01*
X0077166Y0063831D01*
X0077091Y0063881D01*
X0077166Y0063931D01*
X0077306Y0064141D01*
X0077355Y0064389D01*
X0077355Y0065913D01*
X0077306Y0066161D01*
X0077166Y0066371D01*
X0076956Y0066511D01*
X0076708Y0066560D01*
X0075184Y0066560D01*
X0074936Y0066511D01*
X0074726Y0066371D01*
X0074676Y0066296D01*
X0074626Y0066371D01*
X0074416Y0066511D01*
X0074168Y0066560D01*
X0072644Y0066560D01*
X0072396Y0066511D01*
X0072186Y0066371D01*
X0072046Y0066161D01*
X0071997Y0065913D01*
X0059970Y0065913D01*
X0063288Y0069231D01*
X0068712Y0069231D01*
X0069316Y0068981D01*
X0070066Y0068981D01*
X0070759Y0069268D01*
X0071289Y0069798D01*
X0071576Y0070491D01*
X0071576Y0071241D01*
X0073290Y0071241D01*
X0073290Y0070689D01*
X0073501Y0070180D01*
X0073891Y0069790D01*
X0074400Y0069579D01*
X0074952Y0069579D01*
X0075461Y0069790D01*
X0075851Y0070180D01*
X0076062Y0070689D01*
X0076062Y0071241D01*
X0075851Y0071750D01*
X0075461Y0072140D01*
X0074952Y0072351D01*
X0074400Y0072351D01*
X0073891Y0072140D01*
X0073501Y0071750D01*
X0073290Y0071241D01*
X0071576Y0071241D01*
X0071576Y0071241D01*
X0071289Y0071934D01*
X0070759Y0072464D01*
X0070066Y0072751D01*
X0069316Y0072751D01*
X0068712Y0072501D01*
X0062772Y0072501D01*
X0062611Y0072533D01*
X0062450Y0072501D01*
X0061973Y0072406D01*
X0061432Y0072045D01*
X0061341Y0071908D01*
X0055219Y0065786D01*
X0055082Y0065695D01*
X0054721Y0065154D01*
X0054682Y0064958D01*
X0054594Y0064516D01*
X0054626Y0064355D01*
X0054626Y0059174D01*
X0054562Y0059201D01*
X0054502Y0059201D01*
X0051381Y0062322D01*
X0051381Y0069146D01*
X0052107Y0068420D01*
X0053167Y0067981D01*
X0054315Y0067981D01*
X0055375Y0068420D01*
X0056187Y0069232D01*
X0056626Y0070292D01*
X0056626Y0071440D01*
X0056187Y0072500D01*
X0055375Y0073312D01*
X0054315Y0073751D01*
X0053167Y0073751D01*
X0052516Y0073481D01*
X0055157Y0076123D01*
X0073290Y0076123D01*
X0073290Y0075571D01*
X0073501Y0075062D01*
X0073891Y0074672D01*
X0074400Y0074461D01*
X0074952Y0074461D01*
X0075461Y0074672D01*
X0075851Y0075062D01*
X0076062Y0075571D01*
X0076062Y0076123D01*
X0075851Y0076632D01*
X0075461Y0077022D01*
X0074952Y0077233D01*
X0074400Y0077233D01*
X0073891Y0077022D01*
X0073501Y0076632D01*
X0073290Y0076123D01*
X0055157Y0076123D01*
X0055593Y0076558D01*
X0055663Y0076605D01*
X0055848Y0076881D01*
X0055850Y0076892D01*
X0056047Y0076974D01*
X0056338Y0077265D01*
X0056496Y0077645D01*
X0056496Y0078057D01*
X0056481Y0078092D01*
X0056847Y0078244D01*
X0057138Y0078535D01*
X0057296Y0078915D01*
X0057296Y0079327D01*
X0057201Y0079556D01*
X0058649Y0079556D01*
X0058732Y0079540D01*
X0058814Y0079556D01*
X0058814Y0079556D01*
X0059057Y0079604D01*
X0059334Y0079789D01*
X0059380Y0079859D01*
X0061310Y0081788D01*
X0071997Y0081788D01*
X0071997Y0080264D01*
X0072046Y0080016D01*
X0072186Y0079806D01*
X0072396Y0079666D01*
X0072644Y0079617D01*
X0074168Y0079617D01*
X0074416Y0079666D01*
X0074626Y0079806D01*
X0074676Y0079881D01*
X0074726Y0079806D01*
X0074936Y0079666D01*
X0075184Y0079617D01*
X0076708Y0079617D01*
X0076956Y0079666D01*
X0077166Y0079806D01*
X0077306Y0080016D01*
X0077355Y0080264D01*
X0077355Y0081788D01*
X0077306Y0082036D01*
X0077166Y0082246D01*
X0076956Y0082386D01*
X0076708Y0082435D01*
X0075184Y0082435D01*
X0074936Y0082386D01*
X0074726Y0082246D01*
X0074676Y0082171D01*
X0074626Y0082246D01*
X0074416Y0082386D01*
X0074168Y0082435D01*
X0072644Y0082435D01*
X0072396Y0082386D01*
X0072186Y0082246D01*
X0072046Y0082036D01*
X0071997Y0081788D01*
X0061310Y0081788D01*
X0064413Y0084892D01*
X0064483Y0084938D01*
X0064668Y0085215D01*
X0064679Y0085271D01*
X0065792Y0085271D01*
X0065835Y0085229D01*
X0066215Y0085071D01*
X0066627Y0085071D01*
X0067007Y0085229D01*
X0067298Y0085520D01*
X0067456Y0085900D01*
X0067456Y0086312D01*
X0067435Y0086362D01*
X0067485Y0086341D01*
X0067897Y0086341D01*
X0068277Y0086499D01*
X0068568Y0086790D01*
X0068726Y0087170D01*
X0068726Y0087582D01*
X0068568Y0087962D01*
X0068393Y0088138D01*
X0071997Y0088138D01*
X0071997Y0086614D01*
X0072046Y0086366D01*
X0072186Y0086156D01*
X0072261Y0086106D01*
X0072186Y0086056D01*
X0072046Y0085846D01*
X0071997Y0085598D01*
X0071997Y0084074D01*
X0072046Y0083826D01*
X0072186Y0083616D01*
X0072396Y0083476D01*
X0072644Y0083427D01*
X0074168Y0083427D01*
X0074416Y0083476D01*
X0074626Y0083616D01*
X0074676Y0083691D01*
X0074726Y0083616D01*
X0074936Y0083476D01*
X0075184Y0083427D01*
X0076708Y0083427D01*
X0076956Y0083476D01*
X0077166Y0083616D01*
X0077306Y0083826D01*
X0077355Y0084074D01*
X0077355Y0085598D01*
X0077306Y0085846D01*
X0077166Y0086056D01*
X0077091Y0086106D01*
X0077166Y0086156D01*
X0077306Y0086366D01*
X0077355Y0086614D01*
X0077355Y0088138D01*
X0077306Y0088386D01*
X0077166Y0088596D01*
X0077091Y0088646D01*
X0077166Y0088696D01*
X0077306Y0088906D01*
X0077355Y0089154D01*
X0077355Y0090678D01*
X0077306Y0090926D01*
X0077166Y0091136D01*
X0076956Y0091276D01*
X0076708Y0091325D01*
X0075184Y0091325D01*
X0074936Y0091276D01*
X0074726Y0091136D01*
X0074586Y0090926D01*
X0074537Y0090678D01*
X0074537Y0089154D01*
X0074586Y0088906D01*
X0074726Y0088696D01*
X0074801Y0088646D01*
X0074726Y0088596D01*
X0074676Y0088521D01*
X0074626Y0088596D01*
X0074416Y0088736D01*
X0074168Y0088785D01*
X0072644Y0088785D01*
X0072396Y0088736D01*
X0072186Y0088596D01*
X0072046Y0088386D01*
X0071997Y0088138D01*
X0068393Y0088138D01*
X0068277Y0088253D01*
X0067897Y0088411D01*
X0067485Y0088411D01*
X0067105Y0088253D01*
X0067062Y0088211D01*
X0062590Y0088211D01*
X0062547Y0088253D01*
X0062167Y0088411D01*
X0061755Y0088411D01*
X0061375Y0088253D01*
X0061084Y0087962D01*
X0060926Y0087582D01*
X0060926Y0087170D01*
X0061084Y0086790D01*
X0061126Y0086747D01*
X0061126Y0086437D01*
X0059577Y0084888D01*
X0059387Y0085078D01*
X0059007Y0085236D01*
X0058595Y0085236D01*
X0058545Y0085215D01*
X0058566Y0085265D01*
X0058566Y0085677D01*
X0058408Y0086057D01*
X0058117Y0086348D01*
X0057737Y0086506D01*
X0057325Y0086506D01*
X0057014Y0086377D01*
X0056886Y0086352D01*
X0056577Y0086145D01*
X0056525Y0086067D01*
X0046301Y0075843D01*
X0046301Y0079127D01*
X0046343Y0079170D01*
X0046501Y0079550D01*
X0046501Y0079962D01*
X0046343Y0080342D01*
X0046052Y0080633D01*
X0045672Y0080791D01*
X0045260Y0080791D01*
X0044880Y0080633D01*
X0044589Y0080342D01*
X0044431Y0079962D01*
X0044431Y0079550D01*
X0044589Y0079170D01*
X0044631Y0079127D01*
X0044631Y0075022D01*
X0021374Y0051765D01*
X0021304Y0051718D01*
X0021119Y0051442D01*
X0021071Y0051198D01*
X0021071Y0051198D01*
X0021055Y0051116D01*
X0021071Y0051034D01*
X0021071Y0019712D01*
X0015475Y0014116D01*
X0015415Y0014116D01*
X0015035Y0013958D01*
X0014744Y0013667D01*
X0014586Y0013287D01*
X0000735Y0013287D01*
X0000735Y0033340D01*
X0015256Y0033340D01*
X0015256Y0032192D01*
X0015695Y0031132D01*
X0016507Y0030320D01*
X0017567Y0029881D01*
X0018715Y0029881D01*
X0019775Y0030320D01*
X0020587Y0031132D01*
X0021026Y0032192D01*
X0021026Y0033340D01*
X0020587Y0034400D01*
X0019775Y0035212D01*
X0018715Y0035651D01*
X0017567Y0035651D01*
X0016507Y0035212D01*
X0015695Y0034400D01*
X0015256Y0033340D01*
X0000735Y0033340D01*
X0000735Y0071440D01*
X0015256Y0071440D01*
X0015256Y0070292D01*
X0015695Y0069232D01*
X0016507Y0068420D01*
X0017567Y0067981D01*
X0018715Y0067981D01*
X0019775Y0068420D01*
X0020587Y0069232D01*
X0021026Y0070292D01*
X0021026Y0071440D01*
X0020587Y0072500D01*
X0019775Y0073312D01*
X0018715Y0073751D01*
X0017567Y0073751D01*
X0016507Y0073312D01*
X0015695Y0072500D01*
X0015256Y0071440D01*
X0000735Y0071440D01*
X0000735Y0075517D01*
X0033001Y0075517D01*
X0033001Y0075105D01*
X0033101Y0074864D01*
X0033101Y0070678D01*
X0033001Y0070437D01*
X0033001Y0070025D01*
X0033159Y0069645D01*
X0033450Y0069354D01*
X0033830Y0069196D01*
X0034242Y0069196D01*
X0034622Y0069354D01*
X0034913Y0069645D01*
X0035071Y0070025D01*
X0035071Y0070437D01*
X0034971Y0070678D01*
X0034971Y0074864D01*
X0035071Y0075105D01*
X0035071Y0075517D01*
X0034913Y0075897D01*
X0034622Y0076188D01*
X0034242Y0076346D01*
X0033830Y0076346D01*
X0033450Y0076188D01*
X0033159Y0075897D01*
X0033001Y0075517D01*
X0000735Y0075517D01*
X0000735Y0095758D01*
X0011037Y0095758D01*
X0011037Y0094234D01*
X0011086Y0093986D01*
X0011226Y0093776D01*
X0011301Y0093726D01*
X0011226Y0093676D01*
X0011086Y0093466D01*
X0011037Y0093218D01*
X0011037Y0091694D01*
X0011086Y0091446D01*
X0011226Y0091236D01*
X0011436Y0091096D01*
X0011684Y0091047D01*
X0013208Y0091047D01*
X0013456Y0091096D01*
X0013666Y0091236D01*
X0013716Y0091311D01*
X0013766Y0091236D01*
X0013976Y0091096D01*
X0014224Y0091047D01*
X0015748Y0091047D01*
X0015996Y0091096D01*
X0016206Y0091236D01*
X0016256Y0091311D01*
X0016306Y0091236D01*
X0016516Y0091096D01*
X0016764Y0091047D01*
X0018288Y0091047D01*
X0018536Y0091096D01*
X0018746Y0091236D01*
X0018796Y0091311D01*
X0018846Y0091236D01*
X0019056Y0091096D01*
X0019304Y0091047D01*
X0020828Y0091047D01*
X0021076Y0091096D01*
X0021286Y0091236D01*
X0021336Y0091311D01*
X0021386Y0091236D01*
X0021596Y0091096D01*
X0021844Y0091047D01*
X0023368Y0091047D01*
X0023616Y0091096D01*
X0023826Y0091236D01*
X0023966Y0091446D01*
X0024015Y0091694D01*
X0024015Y0093218D01*
X0023966Y0093466D01*
X0023826Y0093676D01*
X0023751Y0093726D01*
X0023826Y0093776D01*
X0023966Y0093986D01*
X0024015Y0094234D01*
X0024015Y0095758D01*
X0038342Y0095758D01*
X0038342Y0094234D01*
X0038391Y0093986D01*
X0038531Y0093776D01*
X0038606Y0093726D01*
X0038531Y0093676D01*
X0038391Y0093466D01*
X0038342Y0093218D01*
X0038342Y0091694D01*
X0038391Y0091446D01*
X0038531Y0091236D01*
X0038741Y0091096D01*
X0038989Y0091047D01*
X0040513Y0091047D01*
X0040761Y0091096D01*
X0040971Y0091236D01*
X0041111Y0091446D01*
X0041160Y0091694D01*
X0041160Y0093218D01*
X0041111Y0093466D01*
X0040971Y0093676D01*
X0040896Y0093726D01*
X0040971Y0093776D01*
X0041111Y0093986D01*
X0041160Y0094234D01*
X0041160Y0095758D01*
X0043422Y0095758D01*
X0043422Y0094234D01*
X0043471Y0093986D01*
X0043611Y0093776D01*
X0043686Y0093726D01*
X0043611Y0093676D01*
X0043471Y0093466D01*
X0043422Y0093218D01*
X0043422Y0091694D01*
X0043471Y0091446D01*
X0043611Y0091236D01*
X0043821Y0091096D01*
X0044069Y0091047D01*
X0045593Y0091047D01*
X0045841Y0091096D01*
X0046051Y0091236D01*
X0046101Y0091311D01*
X0046151Y0091236D01*
X0046361Y0091096D01*
X0046609Y0091047D01*
X0048133Y0091047D01*
X0048381Y0091096D01*
X0048591Y0091236D01*
X0048641Y0091311D01*
X0048691Y0091236D01*
X0048901Y0091096D01*
X0049149Y0091047D01*
X0050673Y0091047D01*
X0050921Y0091096D01*
X0051131Y0091236D01*
X0051271Y0091446D01*
X0051320Y0091694D01*
X0051320Y0093218D01*
X0051271Y0093466D01*
X0051131Y0093676D01*
X0051056Y0093726D01*
X0051131Y0093776D01*
X0051271Y0093986D01*
X0051320Y0094234D01*
X0051320Y0095758D01*
X0053582Y0095758D01*
X0053582Y0094234D01*
X0053631Y0093986D01*
X0053771Y0093776D01*
X0053846Y0093726D01*
X0053771Y0093676D01*
X0053631Y0093466D01*
X0053582Y0093218D01*
X0053582Y0091694D01*
X0053631Y0091446D01*
X0053771Y0091236D01*
X0053981Y0091096D01*
X0054229Y0091047D01*
X0055753Y0091047D01*
X0056001Y0091096D01*
X0056211Y0091236D01*
X0056351Y0091446D01*
X0056400Y0091694D01*
X0056400Y0093218D01*
X0056351Y0093466D01*
X0056211Y0093676D01*
X0056136Y0093726D01*
X0056211Y0093776D01*
X0056351Y0093986D01*
X0056400Y0094234D01*
X0056400Y0095758D01*
X0061202Y0095758D01*
X0061202Y0094234D01*
X0061251Y0093986D01*
X0061391Y0093776D01*
X0061466Y0093726D01*
X0061391Y0093676D01*
X0061251Y0093466D01*
X0061202Y0093218D01*
X0061202Y0091694D01*
X0061251Y0091446D01*
X0061391Y0091236D01*
X0061601Y0091096D01*
X0061849Y0091047D01*
X0063373Y0091047D01*
X0063621Y0091096D01*
X0063831Y0091236D01*
X0063881Y0091311D01*
X0063931Y0091236D01*
X0064141Y0091096D01*
X0064389Y0091047D01*
X0065913Y0091047D01*
X0066161Y0091096D01*
X0066371Y0091236D01*
X0066421Y0091311D01*
X0066471Y0091236D01*
X0066681Y0091096D01*
X0066929Y0091047D01*
X0068453Y0091047D01*
X0068701Y0091096D01*
X0068911Y0091236D01*
X0069051Y0091446D01*
X0069100Y0091694D01*
X0069100Y0093218D01*
X0069051Y0093466D01*
X0068911Y0093676D01*
X0068836Y0093726D01*
X0068911Y0093776D01*
X0069051Y0093986D01*
X0069100Y0094234D01*
X0069100Y0095758D01*
X0069051Y0096006D01*
X0068911Y0096216D01*
X0068701Y0096356D01*
X0068453Y0096405D01*
X0066929Y0096405D01*
X0066681Y0096356D01*
X0066471Y0096216D01*
X0066421Y0096141D01*
X0066371Y0096216D01*
X0066161Y0096356D01*
X0065913Y0096405D01*
X0064389Y0096405D01*
X0064141Y0096356D01*
X0063931Y0096216D01*
X0063881Y0096141D01*
X0063831Y0096216D01*
X0063621Y0096356D01*
X0063373Y0096405D01*
X0061849Y0096405D01*
X0061601Y0096356D01*
X0061391Y0096216D01*
X0061251Y0096006D01*
X0061202Y0095758D01*
X0056400Y0095758D01*
X0056351Y0096006D01*
X0056211Y0096216D01*
X0056001Y0096356D01*
X0055753Y0096405D01*
X0054229Y0096405D01*
X0053981Y0096356D01*
X0053771Y0096216D01*
X0053631Y0096006D01*
X0053582Y0095758D01*
X0051320Y0095758D01*
X0051271Y0096006D01*
X0051131Y0096216D01*
X0050921Y0096356D01*
X0050673Y0096405D01*
X0049149Y0096405D01*
X0048901Y0096356D01*
X0048691Y0096216D01*
X0048641Y0096141D01*
X0048591Y0096216D01*
X0048381Y0096356D01*
X0048133Y0096405D01*
X0046609Y0096405D01*
X0046361Y0096356D01*
X0046151Y0096216D01*
X0046101Y0096141D01*
X0046051Y0096216D01*
X0045841Y0096356D01*
X0045593Y0096405D01*
X0044069Y0096405D01*
X0043821Y0096356D01*
X0043611Y0096216D01*
X0043471Y0096006D01*
X0043422Y0095758D01*
X0041160Y0095758D01*
X0041111Y0096006D01*
X0040971Y0096216D01*
X0040761Y0096356D01*
X0040513Y0096405D01*
X0038989Y0096405D01*
X0038741Y0096356D01*
X0038531Y0096216D01*
X0038391Y0096006D01*
X0038342Y0095758D01*
X0024015Y0095758D01*
X0023966Y0096006D01*
X0023826Y0096216D01*
X0023616Y0096356D01*
X0023368Y0096405D01*
X0021844Y0096405D01*
X0021596Y0096356D01*
X0021386Y0096216D01*
X0021336Y0096141D01*
X0021286Y0096216D01*
X0021076Y0096356D01*
X0020828Y0096405D01*
X0019304Y0096405D01*
X0019056Y0096356D01*
X0018846Y0096216D01*
X0018796Y0096141D01*
X0018746Y0096216D01*
X0018536Y0096356D01*
X0018288Y0096405D01*
X0016764Y0096405D01*
X0016516Y0096356D01*
X0016306Y0096216D01*
X0016256Y0096141D01*
X0016206Y0096216D01*
X0015996Y0096356D01*
X0015748Y0096405D01*
X0014224Y0096405D01*
X0013976Y0096356D01*
X0013766Y0096216D01*
X0013716Y0096141D01*
X0013666Y0096216D01*
X0013456Y0096356D01*
X0013208Y0096405D01*
X0011684Y0096405D01*
X0011436Y0096356D01*
X0011226Y0096216D01*
X0011086Y0096006D01*
X0011037Y0095758D01*
X0000735Y0095758D01*
X0000735Y0100357D01*
X0080037Y0100357D01*
X0080037Y0000735D01*
X0080037Y0000735D01*
G37*
X0080037Y0000735D02*
X0000735Y0000735D01*
X0000735Y0005131D01*
X0012816Y0005131D01*
X0012816Y0004521D01*
X0013050Y0003956D01*
X0013481Y0003525D01*
X0014046Y0003291D01*
X0014656Y0003291D01*
X0015221Y0003525D01*
X0015652Y0003956D01*
X0015886Y0004521D01*
X0015886Y0005131D01*
X0015652Y0005696D01*
X0015221Y0006127D01*
X0014656Y0006361D01*
X0014046Y0006361D01*
X0013481Y0006127D01*
X0013050Y0005696D01*
X0012816Y0005131D01*
X0000735Y0005131D01*
X0000735Y0013287D01*
X0014586Y0013287D01*
X0014586Y0012875D01*
X0014744Y0012495D01*
X0015035Y0012204D01*
X0015415Y0012046D01*
X0015827Y0012046D01*
X0016207Y0012204D01*
X0016498Y0012495D01*
X0016656Y0012875D01*
X0016656Y0012935D01*
X0018496Y0014775D01*
X0018496Y0010011D01*
X0018421Y0009996D01*
X0018211Y0009856D01*
X0018071Y0009646D01*
X0018022Y0009398D01*
X0018022Y0007874D01*
X0018071Y0007626D01*
X0018211Y0007416D01*
X0018286Y0007366D01*
X0018211Y0007316D01*
X0018071Y0007106D01*
X0018022Y0006858D01*
X0018022Y0005334D01*
X0018071Y0005086D01*
X0018211Y0004876D01*
X0018421Y0004736D01*
X0018669Y0004687D01*
X0020193Y0004687D01*
X0020441Y0004736D01*
X0020651Y0004876D01*
X0020791Y0005086D01*
X0020840Y0005334D01*
X0020840Y0006858D01*
X0020791Y0007106D01*
X0020651Y0007316D01*
X0020576Y0007366D01*
X0020651Y0007416D01*
X0020791Y0007626D01*
X0020840Y0007874D01*
X0020840Y0009398D01*
X0020791Y0009646D01*
X0020651Y0009856D01*
X0020441Y0009996D01*
X0020366Y0010011D01*
X0020366Y0011987D01*
X0055776Y0011987D01*
X0055776Y0011137D01*
X0056101Y0010353D01*
X0056702Y0009752D01*
X0057486Y0009427D01*
X0058336Y0009427D01*
X0059120Y0009752D01*
X0059721Y0010353D01*
X0060046Y0011137D01*
X0060046Y0011987D01*
X0060476Y0011987D01*
X0060476Y0011137D01*
X0060801Y0010353D01*
X0061402Y0009752D01*
X0062186Y0009427D01*
X0063036Y0009427D01*
X0063820Y0009752D01*
X0064421Y0010353D01*
X0064746Y0011137D01*
X0064746Y0011987D01*
X0065176Y0011987D01*
X0065176Y0011137D01*
X0065501Y0010353D01*
X0066102Y0009752D01*
X0066886Y0009427D01*
X0067736Y0009427D01*
X0068520Y0009752D01*
X0069121Y0010353D01*
X0069446Y0011137D01*
X0069446Y0011987D01*
X0069121Y0012771D01*
X0068520Y0013372D01*
X0067736Y0013697D01*
X0066886Y0013697D01*
X0066102Y0013372D01*
X0065501Y0012771D01*
X0065176Y0011987D01*
X0064746Y0011987D01*
X0064421Y0012771D01*
X0063820Y0013372D01*
X0063036Y0013697D01*
X0062186Y0013697D01*
X0061402Y0013372D01*
X0060801Y0012771D01*
X0060476Y0011987D01*
X0060046Y0011987D01*
X0059721Y0012771D01*
X0059120Y0013372D01*
X0058336Y0013697D01*
X0057486Y0013697D01*
X0056702Y0013372D01*
X0056101Y0012771D01*
X0055776Y0011987D01*
X0020366Y0011987D01*
X0020366Y0015234D01*
X0023202Y0018070D01*
X0023280Y0018122D01*
X0023487Y0018431D01*
X0023541Y0018704D01*
X0023559Y0018796D01*
X0023541Y0018888D01*
X0023541Y0023176D01*
X0025641Y0023176D01*
X0025641Y0022606D01*
X0025859Y0022078D01*
X0026263Y0021674D01*
X0026791Y0021456D01*
X0027361Y0021456D01*
X0027889Y0021674D01*
X0028293Y0022078D01*
X0028511Y0022606D01*
X0028511Y0023127D01*
X0046891Y0023127D01*
X0046891Y0022655D01*
X0047071Y0022220D01*
X0047405Y0021886D01*
X0047840Y0021706D01*
X0048312Y0021706D01*
X0048747Y0021886D01*
X0049081Y0022220D01*
X0049261Y0022655D01*
X0049261Y0023127D01*
X0049081Y0023562D01*
X0048747Y0023896D01*
X0048312Y0024076D01*
X0047840Y0024076D01*
X0047405Y0023896D01*
X0047071Y0023562D01*
X0046891Y0023127D01*
X0028511Y0023127D01*
X0028511Y0023176D01*
X0028293Y0023704D01*
X0027889Y0024108D01*
X0027361Y0024326D01*
X0026791Y0024326D01*
X0026263Y0024108D01*
X0025859Y0023704D01*
X0025641Y0023176D01*
X0023541Y0023176D01*
X0023541Y0024638D01*
X0074537Y0024638D01*
X0074537Y0023114D01*
X0074586Y0022866D01*
X0074726Y0022656D01*
X0074801Y0022606D01*
X0074726Y0022556D01*
X0074586Y0022346D01*
X0074537Y0022098D01*
X0074537Y0020574D01*
X0074586Y0020326D01*
X0074726Y0020116D01*
X0074801Y0020066D01*
X0074726Y0020016D01*
X0074586Y0019806D01*
X0074537Y0019558D01*
X0074537Y0018034D01*
X0074586Y0017786D01*
X0074726Y0017576D01*
X0074801Y0017526D01*
X0074726Y0017476D01*
X0074586Y0017266D01*
X0074537Y0017018D01*
X0074537Y0015494D01*
X0074586Y0015246D01*
X0074726Y0015036D01*
X0074801Y0014986D01*
X0074726Y0014936D01*
X0074586Y0014726D01*
X0074537Y0014478D01*
X0074537Y0012954D01*
X0074586Y0012706D01*
X0074726Y0012496D01*
X0074801Y0012446D01*
X0074726Y0012396D01*
X0074586Y0012186D01*
X0074537Y0011938D01*
X0074537Y0010414D01*
X0074586Y0010166D01*
X0074726Y0009956D01*
X0074936Y0009816D01*
X0075184Y0009767D01*
X0076708Y0009767D01*
X0076956Y0009816D01*
X0077166Y0009956D01*
X0077306Y0010166D01*
X0077355Y0010414D01*
X0077355Y0011938D01*
X0077306Y0012186D01*
X0077166Y0012396D01*
X0077091Y0012446D01*
X0077166Y0012496D01*
X0077306Y0012706D01*
X0077355Y0012954D01*
X0077355Y0014478D01*
X0077306Y0014726D01*
X0077166Y0014936D01*
X0077091Y0014986D01*
X0077166Y0015036D01*
X0077306Y0015246D01*
X0077355Y0015494D01*
X0077355Y0017018D01*
X0077306Y0017266D01*
X0077166Y0017476D01*
X0077091Y0017526D01*
X0077166Y0017576D01*
X0077306Y0017786D01*
X0077355Y0018034D01*
X0077355Y0019558D01*
X0077306Y0019806D01*
X0077166Y0020016D01*
X0077091Y0020066D01*
X0077166Y0020116D01*
X0077306Y0020326D01*
X0077355Y0020574D01*
X0077355Y0022098D01*
X0077306Y0022346D01*
X0077166Y0022556D01*
X0077091Y0022606D01*
X0077166Y0022656D01*
X0077306Y0022866D01*
X0077355Y0023114D01*
X0077355Y0024638D01*
X0077306Y0024886D01*
X0077166Y0025096D01*
X0076956Y0025236D01*
X0076708Y0025285D01*
X0075184Y0025285D01*
X0074936Y0025236D01*
X0074726Y0025096D01*
X0074586Y0024886D01*
X0074537Y0024638D01*
X0023541Y0024638D01*
X0023541Y0034606D01*
X0025641Y0034606D01*
X0025641Y0034036D01*
X0025859Y0033508D01*
X0026263Y0033104D01*
X0026791Y0032886D01*
X0027361Y0032886D01*
X0027889Y0033104D01*
X0028293Y0033508D01*
X0028511Y0034036D01*
X0028511Y0034557D01*
X0046891Y0034557D01*
X0046891Y0034085D01*
X0047071Y0033650D01*
X0047405Y0033316D01*
X0047840Y0033136D01*
X0048312Y0033136D01*
X0048747Y0033316D01*
X0048771Y0033340D01*
X0050856Y0033340D01*
X0050856Y0032192D01*
X0051295Y0031132D01*
X0052107Y0030320D01*
X0053167Y0029881D01*
X0054315Y0029881D01*
X0055375Y0030320D01*
X0056187Y0031132D01*
X0056626Y0032192D01*
X0056626Y0033340D01*
X0056187Y0034400D01*
X0055375Y0035212D01*
X0054315Y0035651D01*
X0053167Y0035651D01*
X0052107Y0035212D01*
X0051295Y0034400D01*
X0050856Y0033340D01*
X0048771Y0033340D01*
X0049081Y0033650D01*
X0049261Y0034085D01*
X0049261Y0034557D01*
X0049081Y0034992D01*
X0048747Y0035326D01*
X0048312Y0035506D01*
X0047840Y0035506D01*
X0047405Y0035326D01*
X0047071Y0034992D01*
X0046891Y0034557D01*
X0028511Y0034557D01*
X0028511Y0034606D01*
X0028293Y0035134D01*
X0027889Y0035538D01*
X0027361Y0035756D01*
X0026791Y0035756D01*
X0026263Y0035538D01*
X0025859Y0035134D01*
X0025641Y0034606D01*
X0023541Y0034606D01*
X0023541Y0050439D01*
X0028756Y0055654D01*
X0028756Y0055073D01*
X0028756Y0055073D01*
X0028756Y0044825D01*
X0028714Y0044782D01*
X0028556Y0044402D01*
X0028556Y0043990D01*
X0028714Y0043610D01*
X0029005Y0043319D01*
X0029385Y0043161D01*
X0029797Y0043161D01*
X0030177Y0043319D01*
X0030468Y0043610D01*
X0030626Y0043990D01*
X0030626Y0044402D01*
X0030468Y0044782D01*
X0030426Y0044825D01*
X0030426Y0056475D01*
X0031296Y0057345D01*
X0031296Y0056343D01*
X0031296Y0056343D01*
X0031296Y0044825D01*
X0031254Y0044782D01*
X0031096Y0044402D01*
X0031096Y0043990D01*
X0031254Y0043610D01*
X0031545Y0043319D01*
X0031925Y0043161D01*
X0032337Y0043161D01*
X0032717Y0043319D01*
X0033008Y0043610D01*
X0033166Y0043990D01*
X0033166Y0044402D01*
X0033008Y0044782D01*
X0032966Y0044825D01*
X0032966Y0058167D01*
X0038916Y0064117D01*
X0038916Y0062693D01*
X0038916Y0062693D01*
X0038916Y0044825D01*
X0038874Y0044782D01*
X0038716Y0044402D01*
X0038716Y0043990D01*
X0038874Y0043610D01*
X0039165Y0043319D01*
X0039545Y0043161D01*
X0039957Y0043161D01*
X0040337Y0043319D01*
X0040628Y0043610D01*
X0040786Y0043990D01*
X0040786Y0044402D01*
X0040628Y0044782D01*
X0040586Y0044825D01*
X0040586Y0064938D01*
X0043996Y0068348D01*
X0043996Y0057527D01*
X0043996Y0057527D01*
X0043996Y0044825D01*
X0043954Y0044782D01*
X0043796Y0044402D01*
X0043796Y0043990D01*
X0043954Y0043610D01*
X0044245Y0043319D01*
X0044625Y0043161D01*
X0045037Y0043161D01*
X0045417Y0043319D01*
X0045708Y0043610D01*
X0045866Y0043990D01*
X0045866Y0044402D01*
X0045708Y0044782D01*
X0045666Y0044825D01*
X0045666Y0069170D01*
X0049092Y0072596D01*
X0049325Y0072364D01*
X0049705Y0072206D01*
X0049711Y0072206D01*
X0049711Y0062058D01*
X0049695Y0061976D01*
X0049759Y0061650D01*
X0049867Y0061489D01*
X0049944Y0061374D01*
X0050014Y0061327D01*
X0053321Y0058020D01*
X0053321Y0057960D01*
X0053479Y0057580D01*
X0053770Y0057289D01*
X0054150Y0057131D01*
X0054562Y0057131D01*
X0054626Y0057158D01*
X0054626Y0039912D01*
X0054594Y0039751D01*
X0054692Y0039257D01*
X0054721Y0039113D01*
X0055082Y0038572D01*
X0055219Y0038481D01*
X0061976Y0031724D01*
X0062067Y0031587D01*
X0062354Y0031396D01*
X0062608Y0031226D01*
X0063246Y0031099D01*
X0063407Y0031131D01*
X0068712Y0031131D01*
X0069316Y0030881D01*
X0070066Y0030881D01*
X0070759Y0031168D01*
X0071289Y0031698D01*
X0071521Y0032258D01*
X0071997Y0032258D01*
X0071997Y0030734D01*
X0072046Y0030486D01*
X0072186Y0030276D01*
X0072396Y0030136D01*
X0072644Y0030087D01*
X0074168Y0030087D01*
X0074416Y0030136D01*
X0074626Y0030276D01*
X0074676Y0030351D01*
X0074726Y0030276D01*
X0074936Y0030136D01*
X0075184Y0030087D01*
X0076708Y0030087D01*
X0076956Y0030136D01*
X0077166Y0030276D01*
X0077306Y0030486D01*
X0077355Y0030734D01*
X0077355Y0032258D01*
X0077306Y0032506D01*
X0077166Y0032716D01*
X0076956Y0032856D01*
X0076708Y0032905D01*
X0075184Y0032905D01*
X0074936Y0032856D01*
X0074726Y0032716D01*
X0074676Y0032641D01*
X0074626Y0032716D01*
X0074416Y0032856D01*
X0074168Y0032905D01*
X0072644Y0032905D01*
X0072396Y0032856D01*
X0072186Y0032716D01*
X0072046Y0032506D01*
X0071997Y0032258D01*
X0071521Y0032258D01*
X0071576Y0032391D01*
X0071576Y0033141D01*
X0071289Y0033834D01*
X0070759Y0034364D01*
X0070066Y0034651D01*
X0069316Y0034651D01*
X0068712Y0034401D01*
X0066248Y0034401D01*
X0066248Y0035471D01*
X0066199Y0035719D01*
X0066059Y0035929D01*
X0065849Y0036069D01*
X0065601Y0036118D01*
X0064701Y0036118D01*
X0064453Y0036069D01*
X0064243Y0035929D01*
X0064103Y0035719D01*
X0064069Y0035550D01*
X0063985Y0035754D01*
X0063694Y0036045D01*
X0063313Y0036202D01*
X0063253Y0036202D01*
X0059667Y0039788D01*
X0059788Y0039909D01*
X0059888Y0040151D01*
X0060250Y0040513D01*
X0071997Y0040513D01*
X0071997Y0038989D01*
X0072046Y0038741D01*
X0072186Y0038531D01*
X0072261Y0038481D01*
X0072186Y0038431D01*
X0072046Y0038221D01*
X0071997Y0037973D01*
X0071997Y0036449D01*
X0072046Y0036201D01*
X0072186Y0035991D01*
X0072396Y0035851D01*
X0072644Y0035802D01*
X0074168Y0035802D01*
X0074416Y0035851D01*
X0074626Y0035991D01*
X0074766Y0036201D01*
X0074815Y0036449D01*
X0074815Y0037973D01*
X0074766Y0038221D01*
X0074626Y0038431D01*
X0074551Y0038481D01*
X0074626Y0038531D01*
X0074676Y0038606D01*
X0074726Y0038531D01*
X0074936Y0038391D01*
X0075184Y0038342D01*
X0076708Y0038342D01*
X0076956Y0038391D01*
X0077166Y0038531D01*
X0077306Y0038741D01*
X0077355Y0038989D01*
X0077355Y0040513D01*
X0077306Y0040761D01*
X0077166Y0040971D01*
X0076956Y0041111D01*
X0076708Y0041160D01*
X0075184Y0041160D01*
X0074936Y0041111D01*
X0074726Y0040971D01*
X0074676Y0040896D01*
X0074626Y0040971D01*
X0074416Y0041111D01*
X0074168Y0041160D01*
X0072644Y0041160D01*
X0072396Y0041111D01*
X0072186Y0040971D01*
X0072046Y0040761D01*
X0071997Y0040513D01*
X0060250Y0040513D01*
X0066382Y0046645D01*
X0066460Y0046697D01*
X0066512Y0046775D01*
X0067017Y0047280D01*
X0067095Y0047332D01*
X0067147Y0047410D01*
X0067443Y0047706D01*
X0072031Y0047706D01*
X0072046Y0047631D01*
X0072186Y0047421D01*
X0072261Y0047371D01*
X0072186Y0047321D01*
X0072046Y0047111D01*
X0071997Y0046863D01*
X0071997Y0045339D01*
X0072046Y0045091D01*
X0072186Y0044881D01*
X0072396Y0044741D01*
X0072644Y0044692D01*
X0074168Y0044692D01*
X0074416Y0044741D01*
X0074626Y0044881D01*
X0074676Y0044956D01*
X0074726Y0044881D01*
X0074936Y0044741D01*
X0075184Y0044692D01*
X0076708Y0044692D01*
X0076956Y0044741D01*
X0077166Y0044881D01*
X0077306Y0045091D01*
X0077355Y0045339D01*
X0077355Y0046863D01*
X0077306Y0047111D01*
X0077166Y0047321D01*
X0077091Y0047371D01*
X0077166Y0047421D01*
X0077306Y0047631D01*
X0077355Y0047879D01*
X0077355Y0049403D01*
X0077306Y0049651D01*
X0077166Y0049861D01*
X0077091Y0049911D01*
X0077166Y0049961D01*
X0077306Y0050171D01*
X0077355Y0050419D01*
X0077355Y0051943D01*
X0077306Y0052191D01*
X0077166Y0052401D01*
X0076956Y0052541D01*
X0076708Y0052590D01*
X0075184Y0052590D01*
X0074936Y0052541D01*
X0074726Y0052401D01*
X0074676Y0052326D01*
X0074626Y0052401D01*
X0074416Y0052541D01*
X0074168Y0052590D01*
X0072644Y0052590D01*
X0072396Y0052541D01*
X0072186Y0052401D01*
X0072046Y0052191D01*
X0071997Y0051943D01*
X0071997Y0050419D01*
X0072046Y0050171D01*
X0072186Y0049961D01*
X0072261Y0049911D01*
X0072186Y0049861D01*
X0072046Y0049651D01*
X0072031Y0049576D01*
X0067238Y0049576D01*
X0067291Y0049705D01*
X0067291Y0049925D01*
X0068147Y0050781D01*
X0068278Y0050781D01*
X0068658Y0050939D01*
X0068949Y0051230D01*
X0069107Y0051610D01*
X0069107Y0052022D01*
X0068949Y0052402D01*
X0068658Y0052693D01*
X0068278Y0052851D01*
X0067866Y0052851D01*
X0067486Y0052693D01*
X0067195Y0052402D01*
X0067037Y0052022D01*
X0067037Y0051891D01*
X0066092Y0050946D01*
X0066050Y0050946D01*
X0065670Y0050788D01*
X0065379Y0050497D01*
X0065221Y0050117D01*
X0065221Y0049705D01*
X0065379Y0049325D01*
X0065662Y0049041D01*
X0065465Y0049041D01*
X0065085Y0048883D01*
X0064794Y0048592D01*
X0064636Y0048212D01*
X0064636Y0047800D01*
X0064711Y0047619D01*
X0058696Y0041603D01*
X0058696Y0057537D01*
X0058738Y0057580D01*
X0058896Y0057960D01*
X0058896Y0058372D01*
X0058738Y0058752D01*
X0058447Y0059043D01*
X0058067Y0059201D01*
X0057896Y0059201D01*
X0057896Y0063839D01*
X0059970Y0065913D01*
X0071997Y0065913D01*
X0071997Y0064389D01*
X0072046Y0064141D01*
X0072186Y0063931D01*
X0072261Y0063881D01*
X0072186Y0063831D01*
X0072046Y0063621D01*
X0071997Y0063373D01*
X0071997Y0061849D01*
X0072046Y0061601D01*
X0072186Y0061391D01*
X0072261Y0061341D01*
X0072186Y0061291D01*
X0072046Y0061081D01*
X0071997Y0060833D01*
X0071997Y0059309D01*
X0072046Y0059061D01*
X0072186Y0058851D01*
X0072261Y0058801D01*
X0072186Y0058751D01*
X0072046Y0058541D01*
X0071997Y0058293D01*
X0071997Y0056769D01*
X0072046Y0056521D01*
X0072186Y0056311D01*
X0072396Y0056171D01*
X0072644Y0056122D01*
X0074168Y0056122D01*
X0074416Y0056171D01*
X0074626Y0056311D01*
X0074676Y0056386D01*
X0074726Y0056311D01*
X0074936Y0056171D01*
X0075184Y0056122D01*
X0076708Y0056122D01*
X0076956Y0056171D01*
X0077166Y0056311D01*
X0077306Y0056521D01*
X0077355Y0056769D01*
X0077355Y0058293D01*
X0077306Y0058541D01*
X0077166Y0058751D01*
X0077091Y0058801D01*
X0077166Y0058851D01*
X0077306Y0059061D01*
X0077355Y0059309D01*
X0077355Y0060833D01*
X0077306Y0061081D01*
X0077166Y0061291D01*
X0077091Y0061341D01*
X0077166Y0061391D01*
X0077306Y0061601D01*
X0077355Y0061849D01*
X0077355Y0063373D01*
X0077306Y0063621D01*
X0077166Y0063831D01*
X0077091Y0063881D01*
X0077166Y0063931D01*
X0077306Y0064141D01*
X0077355Y0064389D01*
X0077355Y0065913D01*
X0077306Y0066161D01*
X0077166Y0066371D01*
X0076956Y0066511D01*
X0076708Y0066560D01*
X0075184Y0066560D01*
X0074936Y0066511D01*
X0074726Y0066371D01*
X0074676Y0066296D01*
X0074626Y0066371D01*
X0074416Y0066511D01*
X0074168Y0066560D01*
X0072644Y0066560D01*
X0072396Y0066511D01*
X0072186Y0066371D01*
X0072046Y0066161D01*
X0071997Y0065913D01*
X0059970Y0065913D01*
X0063288Y0069231D01*
X0068712Y0069231D01*
X0069316Y0068981D01*
X0070066Y0068981D01*
X0070759Y0069268D01*
X0071289Y0069798D01*
X0071576Y0070491D01*
X0071576Y0071241D01*
X0073290Y0071241D01*
X0073290Y0070689D01*
X0073501Y0070180D01*
X0073891Y0069790D01*
X0074400Y0069579D01*
X0074952Y0069579D01*
X0075461Y0069790D01*
X0075851Y0070180D01*
X0076062Y0070689D01*
X0076062Y0071241D01*
X0075851Y0071750D01*
X0075461Y0072140D01*
X0074952Y0072351D01*
X0074400Y0072351D01*
X0073891Y0072140D01*
X0073501Y0071750D01*
X0073290Y0071241D01*
X0071576Y0071241D01*
X0071576Y0071241D01*
X0071289Y0071934D01*
X0070759Y0072464D01*
X0070066Y0072751D01*
X0069316Y0072751D01*
X0068712Y0072501D01*
X0062772Y0072501D01*
X0062611Y0072533D01*
X0062450Y0072501D01*
X0061973Y0072406D01*
X0061432Y0072045D01*
X0061341Y0071908D01*
X0055219Y0065786D01*
X0055082Y0065695D01*
X0054721Y0065154D01*
X0054682Y0064958D01*
X0054594Y0064516D01*
X0054626Y0064355D01*
X0054626Y0059174D01*
X0054562Y0059201D01*
X0054502Y0059201D01*
X0051381Y0062322D01*
X0051381Y0069146D01*
X0052107Y0068420D01*
X0053167Y0067981D01*
X0054315Y0067981D01*
X0055375Y0068420D01*
X0056187Y0069232D01*
X0056626Y0070292D01*
X0056626Y0071440D01*
X0056187Y0072500D01*
X0055375Y0073312D01*
X0054315Y0073751D01*
X0053167Y0073751D01*
X0052516Y0073481D01*
X0055157Y0076123D01*
X0073290Y0076123D01*
X0073290Y0075571D01*
X0073501Y0075062D01*
X0073891Y0074672D01*
X0074400Y0074461D01*
X0074952Y0074461D01*
X0075461Y0074672D01*
X0075851Y0075062D01*
X0076062Y0075571D01*
X0076062Y0076123D01*
X0075851Y0076632D01*
X0075461Y0077022D01*
X0074952Y0077233D01*
X0074400Y0077233D01*
X0073891Y0077022D01*
X0073501Y0076632D01*
X0073290Y0076123D01*
X0055157Y0076123D01*
X0055593Y0076558D01*
X0055663Y0076605D01*
X0055848Y0076881D01*
X0055850Y0076892D01*
X0056047Y0076974D01*
X0056338Y0077265D01*
X0056496Y0077645D01*
X0056496Y0078057D01*
X0056481Y0078092D01*
X0056847Y0078244D01*
X0057138Y0078535D01*
X0057296Y0078915D01*
X0057296Y0079327D01*
X0057201Y0079556D01*
X0058649Y0079556D01*
X0058732Y0079540D01*
X0058814Y0079556D01*
X0058814Y0079556D01*
X0059057Y0079604D01*
X0059334Y0079789D01*
X0059380Y0079859D01*
X0061310Y0081788D01*
X0071997Y0081788D01*
X0071997Y0080264D01*
X0072046Y0080016D01*
X0072186Y0079806D01*
X0072396Y0079666D01*
X0072644Y0079617D01*
X0074168Y0079617D01*
X0074416Y0079666D01*
X0074626Y0079806D01*
X0074676Y0079881D01*
X0074726Y0079806D01*
X0074936Y0079666D01*
X0075184Y0079617D01*
X0076708Y0079617D01*
X0076956Y0079666D01*
X0077166Y0079806D01*
X0077306Y0080016D01*
X0077355Y0080264D01*
X0077355Y0081788D01*
X0077306Y0082036D01*
X0077166Y0082246D01*
X0076956Y0082386D01*
X0076708Y0082435D01*
X0075184Y0082435D01*
X0074936Y0082386D01*
X0074726Y0082246D01*
X0074676Y0082171D01*
X0074626Y0082246D01*
X0074416Y0082386D01*
X0074168Y0082435D01*
X0072644Y0082435D01*
X0072396Y0082386D01*
X0072186Y0082246D01*
X0072046Y0082036D01*
X0071997Y0081788D01*
X0061310Y0081788D01*
X0064413Y0084892D01*
X0064483Y0084938D01*
X0064668Y0085215D01*
X0064679Y0085271D01*
X0065792Y0085271D01*
X0065835Y0085229D01*
X0066215Y0085071D01*
X0066627Y0085071D01*
X0067007Y0085229D01*
X0067298Y0085520D01*
X0067456Y0085900D01*
X0067456Y0086312D01*
X0067435Y0086362D01*
X0067485Y0086341D01*
X0067897Y0086341D01*
X0068277Y0086499D01*
X0068568Y0086790D01*
X0068726Y0087170D01*
X0068726Y0087582D01*
X0068568Y0087962D01*
X0068393Y0088138D01*
X0071997Y0088138D01*
X0071997Y0086614D01*
X0072046Y0086366D01*
X0072186Y0086156D01*
X0072261Y0086106D01*
X0072186Y0086056D01*
X0072046Y0085846D01*
X0071997Y0085598D01*
X0071997Y0084074D01*
X0072046Y0083826D01*
X0072186Y0083616D01*
X0072396Y0083476D01*
X0072644Y0083427D01*
X0074168Y0083427D01*
X0074416Y0083476D01*
X0074626Y0083616D01*
X0074676Y0083691D01*
X0074726Y0083616D01*
X0074936Y0083476D01*
X0075184Y0083427D01*
X0076708Y0083427D01*
X0076956Y0083476D01*
X0077166Y0083616D01*
X0077306Y0083826D01*
X0077355Y0084074D01*
X0077355Y0085598D01*
X0077306Y0085846D01*
X0077166Y0086056D01*
X0077091Y0086106D01*
X0077166Y0086156D01*
X0077306Y0086366D01*
X0077355Y0086614D01*
X0077355Y0088138D01*
X0077306Y0088386D01*
X0077166Y0088596D01*
X0077091Y0088646D01*
X0077166Y0088696D01*
X0077306Y0088906D01*
X0077355Y0089154D01*
X0077355Y0090678D01*
X0077306Y0090926D01*
X0077166Y0091136D01*
X0076956Y0091276D01*
X0076708Y0091325D01*
X0075184Y0091325D01*
X0074936Y0091276D01*
X0074726Y0091136D01*
X0074586Y0090926D01*
X0074537Y0090678D01*
X0074537Y0089154D01*
X0074586Y0088906D01*
X0074726Y0088696D01*
X0074801Y0088646D01*
X0074726Y0088596D01*
X0074676Y0088521D01*
X0074626Y0088596D01*
X0074416Y0088736D01*
X0074168Y0088785D01*
X0072644Y0088785D01*
X0072396Y0088736D01*
X0072186Y0088596D01*
X0072046Y0088386D01*
X0071997Y0088138D01*
X0068393Y0088138D01*
X0068277Y0088253D01*
X0067897Y0088411D01*
X0067485Y0088411D01*
X0067105Y0088253D01*
X0067062Y0088211D01*
X0062590Y0088211D01*
X0062547Y0088253D01*
X0062167Y0088411D01*
X0061755Y0088411D01*
X0061375Y0088253D01*
X0061084Y0087962D01*
X0060926Y0087582D01*
X0060926Y0087170D01*
X0061084Y0086790D01*
X0061126Y0086747D01*
X0061126Y0086437D01*
X0059577Y0084888D01*
X0059387Y0085078D01*
X0059007Y0085236D01*
X0058595Y0085236D01*
X0058545Y0085215D01*
X0058566Y0085265D01*
X0058566Y0085677D01*
X0058408Y0086057D01*
X0058117Y0086348D01*
X0057737Y0086506D01*
X0057325Y0086506D01*
X0057014Y0086377D01*
X0056886Y0086352D01*
X0056577Y0086145D01*
X0056525Y0086067D01*
X0046301Y0075843D01*
X0046301Y0079127D01*
X0046343Y0079170D01*
X0046501Y0079550D01*
X0046501Y0079962D01*
X0046343Y0080342D01*
X0046052Y0080633D01*
X0045672Y0080791D01*
X0045260Y0080791D01*
X0044880Y0080633D01*
X0044589Y0080342D01*
X0044431Y0079962D01*
X0044431Y0079550D01*
X0044589Y0079170D01*
X0044631Y0079127D01*
X0044631Y0075022D01*
X0021374Y0051765D01*
X0021304Y0051718D01*
X0021119Y0051442D01*
X0021071Y0051198D01*
X0021071Y0051198D01*
X0021055Y0051116D01*
X0021071Y0051034D01*
X0021071Y0019712D01*
X0015475Y0014116D01*
X0015415Y0014116D01*
X0015035Y0013958D01*
X0014744Y0013667D01*
X0014586Y0013287D01*
X0000735Y0013287D01*
X0000735Y0033340D01*
X0015256Y0033340D01*
X0015256Y0032192D01*
X0015695Y0031132D01*
X0016507Y0030320D01*
X0017567Y0029881D01*
X0018715Y0029881D01*
X0019775Y0030320D01*
X0020587Y0031132D01*
X0021026Y0032192D01*
X0021026Y0033340D01*
X0020587Y0034400D01*
X0019775Y0035212D01*
X0018715Y0035651D01*
X0017567Y0035651D01*
X0016507Y0035212D01*
X0015695Y0034400D01*
X0015256Y0033340D01*
X0000735Y0033340D01*
X0000735Y0071440D01*
X0015256Y0071440D01*
X0015256Y0070292D01*
X0015695Y0069232D01*
X0016507Y0068420D01*
X0017567Y0067981D01*
X0018715Y0067981D01*
X0019775Y0068420D01*
X0020587Y0069232D01*
X0021026Y0070292D01*
X0021026Y0071440D01*
X0020587Y0072500D01*
X0019775Y0073312D01*
X0018715Y0073751D01*
X0017567Y0073751D01*
X0016507Y0073312D01*
X0015695Y0072500D01*
X0015256Y0071440D01*
X0000735Y0071440D01*
X0000735Y0075517D01*
X0033001Y0075517D01*
X0033001Y0075105D01*
X0033101Y0074864D01*
X0033101Y0070678D01*
X0033001Y0070437D01*
X0033001Y0070025D01*
X0033159Y0069645D01*
X0033450Y0069354D01*
X0033830Y0069196D01*
X0034242Y0069196D01*
X0034622Y0069354D01*
X0034913Y0069645D01*
X0035071Y0070025D01*
X0035071Y0070437D01*
X0034971Y0070678D01*
X0034971Y0074864D01*
X0035071Y0075105D01*
X0035071Y0075517D01*
X0034913Y0075897D01*
X0034622Y0076188D01*
X0034242Y0076346D01*
X0033830Y0076346D01*
X0033450Y0076188D01*
X0033159Y0075897D01*
X0033001Y0075517D01*
X0000735Y0075517D01*
X0000735Y0095758D01*
X0011037Y0095758D01*
X0011037Y0094234D01*
X0011086Y0093986D01*
X0011226Y0093776D01*
X0011301Y0093726D01*
X0011226Y0093676D01*
X0011086Y0093466D01*
X0011037Y0093218D01*
X0011037Y0091694D01*
X0011086Y0091446D01*
X0011226Y0091236D01*
X0011436Y0091096D01*
X0011684Y0091047D01*
X0013208Y0091047D01*
X0013456Y0091096D01*
X0013666Y0091236D01*
X0013716Y0091311D01*
X0013766Y0091236D01*
X0013976Y0091096D01*
X0014224Y0091047D01*
X0015748Y0091047D01*
X0015996Y0091096D01*
X0016206Y0091236D01*
X0016256Y0091311D01*
X0016306Y0091236D01*
X0016516Y0091096D01*
X0016764Y0091047D01*
X0018288Y0091047D01*
X0018536Y0091096D01*
X0018746Y0091236D01*
X0018796Y0091311D01*
X0018846Y0091236D01*
X0019056Y0091096D01*
X0019304Y0091047D01*
X0020828Y0091047D01*
X0021076Y0091096D01*
X0021286Y0091236D01*
X0021336Y0091311D01*
X0021386Y0091236D01*
X0021596Y0091096D01*
X0021844Y0091047D01*
X0023368Y0091047D01*
X0023616Y0091096D01*
X0023826Y0091236D01*
X0023966Y0091446D01*
X0024015Y0091694D01*
X0024015Y0093218D01*
X0023966Y0093466D01*
X0023826Y0093676D01*
X0023751Y0093726D01*
X0023826Y0093776D01*
X0023966Y0093986D01*
X0024015Y0094234D01*
X0024015Y0095758D01*
X0038342Y0095758D01*
X0038342Y0094234D01*
X0038391Y0093986D01*
X0038531Y0093776D01*
X0038606Y0093726D01*
X0038531Y0093676D01*
X0038391Y0093466D01*
X0038342Y0093218D01*
X0038342Y0091694D01*
X0038391Y0091446D01*
X0038531Y0091236D01*
X0038741Y0091096D01*
X0038989Y0091047D01*
X0040513Y0091047D01*
X0040761Y0091096D01*
X0040971Y0091236D01*
X0041111Y0091446D01*
X0041160Y0091694D01*
X0041160Y0093218D01*
X0041111Y0093466D01*
X0040971Y0093676D01*
X0040896Y0093726D01*
X0040971Y0093776D01*
X0041111Y0093986D01*
X0041160Y0094234D01*
X0041160Y0095758D01*
X0043422Y0095758D01*
X0043422Y0094234D01*
X0043471Y0093986D01*
X0043611Y0093776D01*
X0043686Y0093726D01*
X0043611Y0093676D01*
X0043471Y0093466D01*
X0043422Y0093218D01*
X0043422Y0091694D01*
X0043471Y0091446D01*
X0043611Y0091236D01*
X0043821Y0091096D01*
X0044069Y0091047D01*
X0045593Y0091047D01*
X0045841Y0091096D01*
X0046051Y0091236D01*
X0046101Y0091311D01*
X0046151Y0091236D01*
X0046361Y0091096D01*
X0046609Y0091047D01*
X0048133Y0091047D01*
X0048381Y0091096D01*
X0048591Y0091236D01*
X0048641Y0091311D01*
X0048691Y0091236D01*
X0048901Y0091096D01*
X0049149Y0091047D01*
X0050673Y0091047D01*
X0050921Y0091096D01*
X0051131Y0091236D01*
X0051271Y0091446D01*
X0051320Y0091694D01*
X0051320Y0093218D01*
X0051271Y0093466D01*
X0051131Y0093676D01*
X0051056Y0093726D01*
X0051131Y0093776D01*
X0051271Y0093986D01*
X0051320Y0094234D01*
X0051320Y0095758D01*
X0053582Y0095758D01*
X0053582Y0094234D01*
X0053631Y0093986D01*
X0053771Y0093776D01*
X0053846Y0093726D01*
X0053771Y0093676D01*
X0053631Y0093466D01*
X0053582Y0093218D01*
X0053582Y0091694D01*
X0053631Y0091446D01*
X0053771Y0091236D01*
X0053981Y0091096D01*
X0054229Y0091047D01*
X0055753Y0091047D01*
X0056001Y0091096D01*
X0056211Y0091236D01*
X0056351Y0091446D01*
X0056400Y0091694D01*
X0056400Y0093218D01*
X0056351Y0093466D01*
X0056211Y0093676D01*
X0056136Y0093726D01*
X0056211Y0093776D01*
X0056351Y0093986D01*
X0056400Y0094234D01*
X0056400Y0095758D01*
X0061202Y0095758D01*
X0061202Y0094234D01*
X0061251Y0093986D01*
X0061391Y0093776D01*
X0061466Y0093726D01*
X0061391Y0093676D01*
X0061251Y0093466D01*
X0061202Y0093218D01*
X0061202Y0091694D01*
X0061251Y0091446D01*
X0061391Y0091236D01*
X0061601Y0091096D01*
X0061849Y0091047D01*
X0063373Y0091047D01*
X0063621Y0091096D01*
X0063831Y0091236D01*
X0063881Y0091311D01*
X0063931Y0091236D01*
X0064141Y0091096D01*
X0064389Y0091047D01*
X0065913Y0091047D01*
X0066161Y0091096D01*
X0066371Y0091236D01*
X0066421Y0091311D01*
X0066471Y0091236D01*
X0066681Y0091096D01*
X0066929Y0091047D01*
X0068453Y0091047D01*
X0068701Y0091096D01*
X0068911Y0091236D01*
X0069051Y0091446D01*
X0069100Y0091694D01*
X0069100Y0093218D01*
X0069051Y0093466D01*
X0068911Y0093676D01*
X0068836Y0093726D01*
X0068911Y0093776D01*
X0069051Y0093986D01*
X0069100Y0094234D01*
X0069100Y0095758D01*
X0069051Y0096006D01*
X0068911Y0096216D01*
X0068701Y0096356D01*
X0068453Y0096405D01*
X0066929Y0096405D01*
X0066681Y0096356D01*
X0066471Y0096216D01*
X0066421Y0096141D01*
X0066371Y0096216D01*
X0066161Y0096356D01*
X0065913Y0096405D01*
X0064389Y0096405D01*
X0064141Y0096356D01*
X0063931Y0096216D01*
X0063881Y0096141D01*
X0063831Y0096216D01*
X0063621Y0096356D01*
X0063373Y0096405D01*
X0061849Y0096405D01*
X0061601Y0096356D01*
X0061391Y0096216D01*
X0061251Y0096006D01*
X0061202Y0095758D01*
X0056400Y0095758D01*
X0056351Y0096006D01*
X0056211Y0096216D01*
X0056001Y0096356D01*
X0055753Y0096405D01*
X0054229Y0096405D01*
X0053981Y0096356D01*
X0053771Y0096216D01*
X0053631Y0096006D01*
X0053582Y0095758D01*
X0051320Y0095758D01*
X0051271Y0096006D01*
X0051131Y0096216D01*
X0050921Y0096356D01*
X0050673Y0096405D01*
X0049149Y0096405D01*
X0048901Y0096356D01*
X0048691Y0096216D01*
X0048641Y0096141D01*
X0048591Y0096216D01*
X0048381Y0096356D01*
X0048133Y0096405D01*
X0046609Y0096405D01*
X0046361Y0096356D01*
X0046151Y0096216D01*
X0046101Y0096141D01*
X0046051Y0096216D01*
X0045841Y0096356D01*
X0045593Y0096405D01*
X0044069Y0096405D01*
X0043821Y0096356D01*
X0043611Y0096216D01*
X0043471Y0096006D01*
X0043422Y0095758D01*
X0041160Y0095758D01*
X0041111Y0096006D01*
X0040971Y0096216D01*
X0040761Y0096356D01*
X0040513Y0096405D01*
X0038989Y0096405D01*
X0038741Y0096356D01*
X0038531Y0096216D01*
X0038391Y0096006D01*
X0038342Y0095758D01*
X0024015Y0095758D01*
X0023966Y0096006D01*
X0023826Y0096216D01*
X0023616Y0096356D01*
X0023368Y0096405D01*
X0021844Y0096405D01*
X0021596Y0096356D01*
X0021386Y0096216D01*
X0021336Y0096141D01*
X0021286Y0096216D01*
X0021076Y0096356D01*
X0020828Y0096405D01*
X0019304Y0096405D01*
X0019056Y0096356D01*
X0018846Y0096216D01*
X0018796Y0096141D01*
X0018746Y0096216D01*
X0018536Y0096356D01*
X0018288Y0096405D01*
X0016764Y0096405D01*
X0016516Y0096356D01*
X0016306Y0096216D01*
X0016256Y0096141D01*
X0016206Y0096216D01*
X0015996Y0096356D01*
X0015748Y0096405D01*
X0014224Y0096405D01*
X0013976Y0096356D01*
X0013766Y0096216D01*
X0013716Y0096141D01*
X0013666Y0096216D01*
X0013456Y0096356D01*
X0013208Y0096405D01*
X0011684Y0096405D01*
X0011436Y0096356D01*
X0011226Y0096216D01*
X0011086Y0096006D01*
X0011037Y0095758D01*
X0000735Y0095758D01*
X0000735Y0100357D01*
X0080037Y0100357D01*
X0080037Y0000735D01*
X0080772Y0000000D02*
%LPD*%
G01*
D17*
X0098913Y0070866D03*
X0134513Y0070866D03*
D47*
X0082963Y0070866D03*
X0150463Y0070866D03*
D17*
X0098913Y0032766D03*
X0134513Y0032766D03*
D47*
X0082963Y0032766D03*
X0150463Y0032766D03*
D37*
X0154178Y0043561D03*
X0156718Y0043561D03*
X0156718Y0051181D03*
X0154178Y0051181D03*
X0156718Y0048641D03*
X0154178Y0048641D03*
X0154178Y0046101D03*
X0156718Y0046101D03*
X0156718Y0053721D03*
X0154178Y0053721D03*
X0159258Y0023876D03*
X0159258Y0021336D03*
X0156718Y0023876D03*
X0156718Y0021336D03*
X0154178Y0023876D03*
X0154178Y0021336D03*
X0156718Y0081026D03*
X0154178Y0081026D03*
X0120523Y0094996D03*
X0120523Y0092456D03*
X0156718Y0028956D03*
X0154178Y0028956D03*
X0156718Y0031496D03*
X0154178Y0031496D03*
X0156718Y0034036D03*
X0154178Y0034036D03*
X0100203Y0008636D03*
X0100203Y0006096D03*
X0093218Y0092456D03*
X0093218Y0094996D03*
X0095758Y0092456D03*
X0095758Y0094996D03*
X0098298Y0094996D03*
X0098298Y0092456D03*
X0100838Y0092456D03*
X0100838Y0094996D03*
X0103378Y0094996D03*
X0103378Y0092456D03*
X0154178Y0065151D03*
X0156718Y0065151D03*
X0156718Y0062611D03*
X0154178Y0062611D03*
X0154178Y0060071D03*
X0156718Y0060071D03*
X0156718Y0057531D03*
X0154178Y0057531D03*
X0156718Y0037211D03*
X0154178Y0037211D03*
X0128143Y0092456D03*
X0128143Y0094996D03*
X0125603Y0094996D03*
X0125603Y0092456D03*
X0130683Y0092456D03*
X0130683Y0094996D03*
X0133223Y0094996D03*
X0133223Y0092456D03*
X0135763Y0092456D03*
X0135763Y0094996D03*
X0145923Y0092456D03*
X0145923Y0094996D03*
X0148463Y0094996D03*
X0148463Y0092456D03*
X0143383Y0094996D03*
X0143383Y0092456D03*
X0156718Y0039751D03*
X0154178Y0039751D03*
X0156718Y0084836D03*
X0154178Y0084836D03*
X0156718Y0087376D03*
X0154178Y0087376D03*
X0156718Y0089916D03*
X0154178Y0089916D03*
D73*
X0156718Y0004826D03*
X0085598Y0096266D03*
D28*
X0145923Y0034171D03*
X0145923Y0035171D03*
D75*
X0145923Y0034671D03*
D15*
X0155448Y0075847D03*
X0155448Y0070965D03*
D18*
X0148083Y0011562D03*
X0143383Y0011562D03*
X0138683Y0011562D03*
X0149988Y0002032D03*
X0136778Y0002032D03*
D45*
X0095123Y0004826D03*
D35*
X0092583Y0004826D03*
D73*
X0085598Y0004826D03*
X0156718Y0095946D03*
D37*
X0156718Y0016256D03*
X0156718Y0018796D03*
X0154178Y0011176D03*
X0154178Y0013716D03*
X0156718Y0011176D03*
X0156718Y0013716D03*
X0159258Y0011176D03*
X0159258Y0013716D03*
D51*
X0114173Y0049911D03*
X0114173Y0053721D03*
X0114173Y0055626D03*
X0114173Y0057531D03*
X0119253Y0062611D03*
X0119253Y0059436D03*
X0119253Y0058166D03*
X0119253Y0056261D03*
X0119253Y0054356D03*
X0119253Y0052451D03*
X0119253Y0050546D03*
X0121793Y0050546D03*
X0121793Y0051816D03*
X0121793Y0053086D03*
X0121793Y0054356D03*
X0121793Y0055626D03*
X0121793Y0056896D03*
X0124333Y0056896D03*
X0124333Y0055626D03*
X0124333Y0053721D03*
X0124333Y0051816D03*
X0124333Y0050546D03*
X0112268Y0003556D03*
X0114808Y0003556D03*
X0117348Y0003556D03*
X0119888Y0003556D03*
X0122428Y0003556D03*
X0123063Y0096901D03*
X0123063Y0095631D03*
X0124333Y0089281D03*
X0124333Y0086106D03*
X0124968Y0084201D03*
X0127508Y0083566D03*
X0129413Y0084201D03*
X0129413Y0085471D03*
X0128143Y0087376D03*
X0131318Y0087376D03*
X0130048Y0086741D03*
X0133033Y0085471D03*
X0152908Y0074041D03*
X0151638Y0075311D03*
X0149098Y0077216D03*
X0147193Y0077216D03*
X0147193Y0075311D03*
X0147193Y0073406D03*
X0147193Y0068326D03*
X0147193Y0067056D03*
X0151638Y0067056D03*
X0154178Y0067056D03*
X0156718Y0067056D03*
X0159258Y0067056D03*
X0145923Y0043561D03*
X0084963Y0034671D03*
X0084963Y0032766D03*
X0084963Y0030861D03*
X0086868Y0030861D03*
X0086868Y0032766D03*
X0086868Y0034671D03*
X0086868Y0035941D03*
X0084963Y0035941D03*
X0082423Y0035941D03*
X0102743Y0056896D03*
X0101473Y0056896D03*
X0098933Y0056896D03*
X0098933Y0054991D03*
X0098933Y0053086D03*
X0086233Y0068326D03*
X0088773Y0068326D03*
X0091948Y0068326D03*
X0091948Y0070866D03*
X0088773Y0070866D03*
X0086233Y0070866D03*
X0126873Y0049276D03*
X0126873Y0051181D03*
X0126873Y0053086D03*
X0126873Y0054991D03*
X0126873Y0056896D03*
X0126873Y0058166D03*
X0126873Y0059436D03*
X0130683Y0059436D03*
X0130683Y0058166D03*
X0130683Y0056261D03*
X0134493Y0060706D03*
X0132588Y0062611D03*
X0132588Y0064516D03*
X0132588Y0066421D03*
X0140043Y0070231D03*
X0139103Y0069596D03*
X0139103Y0070866D03*
X0138454Y0072922D03*
X0137819Y0073557D03*
X0141933Y0074041D03*
X0107823Y0030861D03*
X0107823Y0032131D03*
X0106553Y0032766D03*
X0106553Y0031496D03*
X0105283Y0031496D03*
X0105283Y0032766D03*
X0123063Y0034671D03*
X0123063Y0032766D03*
X0123063Y0030861D03*
X0123063Y0029591D03*
X0123063Y0027686D03*
X0115443Y0035306D03*
X0115443Y0034036D03*
X0115443Y0031496D03*
X0115443Y0029591D03*
X0115443Y0027686D03*
X0115443Y0046101D03*
X0117348Y0046101D03*
X0118618Y0046101D03*
X0118618Y0044831D03*
X0117348Y0044831D03*
X0115443Y0044831D03*
X0140208Y0020701D03*
X0140208Y0018796D03*
X0135763Y0027686D03*
X0134493Y0027686D03*
X0133223Y0027686D03*
X0131953Y0027686D03*
X0130683Y0027686D03*
X0130683Y0026416D03*
X0131953Y0026416D03*
X0133223Y0026416D03*
X0134493Y0026416D03*
X0135763Y0026416D03*
X0135763Y0025146D03*
X0134493Y0025146D03*
X0133223Y0025146D03*
X0144018Y0021336D03*
X0144018Y0020066D03*
X0145288Y0020066D03*
X0145288Y0021336D03*
X0145288Y0022606D03*
X0144018Y0022606D03*
X0142748Y0022606D03*
X0159893Y0070231D03*
X0159893Y0071501D03*
X0159893Y0072771D03*
X0159893Y0074041D03*
X0139573Y0077851D03*
X0140843Y0077851D03*
X0140843Y0079121D03*
X0144653Y0081661D03*
X0152273Y0089446D03*
X0152273Y0090551D03*
X0152273Y0091821D03*
X0154178Y0091821D03*
X0133223Y0090716D03*
X0139573Y0089281D03*
X0139573Y0090551D03*
X0139573Y0091821D03*
X0138303Y0091821D03*
X0137033Y0086106D03*
X0135128Y0085471D03*
X0135128Y0084201D03*
X0133033Y0082296D03*
X0109728Y0082931D03*
X0110998Y0082931D03*
X0121158Y0084836D03*
X0121158Y0086106D03*
X0121158Y0087376D03*
X0121158Y0088646D03*
X0119888Y0088646D03*
X0119888Y0087376D03*
X0119888Y0086106D03*
X0119888Y0084836D03*
X0119253Y0079756D03*
X0119253Y0078486D03*
X0120523Y0078486D03*
X0120523Y0079756D03*
X0109728Y0080391D03*
X0110998Y0080391D03*
X0112268Y0080391D03*
X0113538Y0080391D03*
X0114808Y0080391D03*
X0144653Y0039116D03*
X0142113Y0041021D03*
X0141478Y0044831D03*
X0140208Y0044831D03*
X0134493Y0044196D03*
X0134493Y0046736D03*
X0134493Y0049276D03*
X0111633Y0049911D03*
X0111633Y0051816D03*
X0111633Y0053721D03*
X0111633Y0056261D03*
X0109093Y0058801D03*
X0107188Y0057531D03*
X0105918Y0056261D03*
X0104648Y0056261D03*
X0146443Y0048006D03*
X0139683Y0040496D03*
X0137033Y0079121D03*
X0130683Y0073241D03*
X0114808Y0075311D03*
X0114808Y0070231D03*
X0147028Y0049911D03*
X0148844Y0051816D03*
X0138303Y0085471D03*
X0125603Y0044196D03*
X0147193Y0086106D03*
X0144653Y0086106D03*
X0120523Y0044196D03*
X0141091Y0083318D03*
X0112903Y0044196D03*
X0148463Y0087376D03*
X0142733Y0087376D03*
X0110363Y0044196D03*
X0139573Y0084201D03*
X0096393Y0013081D03*
X0126238Y0079756D03*
X0138633Y0058166D03*
X0135128Y0058166D03*
X0136233Y0077851D03*
X0143879Y0035167D03*
D19*
X0113703Y0056096D02*
X0114173Y0055626D01*
X0113703Y0057531D02*
X0113703Y0056096D01*
X0119253Y0059436D02*
X0119253Y0062611D01*
X0119253Y0062141D02*
X0119723Y0062611D01*
X0119253Y0058166D02*
X0119253Y0062141D01*
X0119253Y0054356D02*
X0119253Y0056261D01*
X0121793Y0051816D02*
X0121793Y0050546D01*
X0121793Y0054356D02*
X0121793Y0053086D01*
X0121793Y0056896D02*
X0121793Y0055626D01*
X0124333Y0055626D02*
X0124333Y0056896D01*
X0124333Y0051816D02*
X0124333Y0053721D01*
D63*
X0124333Y0049276D02*
X0124333Y0050546D01*
X0117348Y0003556D02*
X0114808Y0003556D01*
X0122428Y0003556D02*
X0119888Y0003556D01*
X0123063Y0095631D02*
X0123063Y0096901D01*
X0124333Y0086106D02*
X0124333Y0089281D01*
X0125603Y0083566D02*
X0124968Y0084201D01*
X0127508Y0083566D02*
X0125603Y0083566D01*
X0129413Y0085471D02*
X0129413Y0084201D01*
X0131318Y0087376D02*
X0128143Y0087376D01*
X0131318Y0085471D02*
X0130048Y0086741D01*
X0133033Y0085471D02*
X0131318Y0085471D01*
D14*
X0151638Y0075311D02*
X0152908Y0074041D01*
X0147193Y0077216D02*
X0149098Y0077216D01*
X0147193Y0073406D02*
X0147193Y0075311D01*
X0147193Y0067056D02*
X0147193Y0068326D01*
X0154178Y0067056D02*
X0151638Y0067056D01*
X0159258Y0067056D02*
X0156718Y0067056D01*
D19*
X0084963Y0032766D02*
X0084963Y0034671D01*
X0086868Y0030861D02*
X0084963Y0030861D01*
X0086868Y0034671D02*
X0086868Y0032766D01*
X0084963Y0035941D02*
X0086868Y0035941D01*
X0082963Y0035401D02*
X0082423Y0035941D01*
X0082963Y0032766D02*
X0082963Y0035401D01*
X0098933Y0056896D02*
X0101473Y0056896D01*
X0098933Y0053086D02*
X0098933Y0054991D01*
X0088773Y0068326D02*
X0086233Y0068326D01*
X0091948Y0070866D02*
X0091948Y0068326D01*
X0086233Y0070866D02*
X0088773Y0070866D01*
X0126873Y0051181D02*
X0126873Y0049276D01*
X0126873Y0054991D02*
X0126873Y0053086D01*
X0126873Y0058166D02*
X0126873Y0056896D01*
X0130683Y0059436D02*
X0126873Y0059436D01*
X0130683Y0056261D02*
X0130683Y0058166D01*
X0132588Y0064516D02*
X0132588Y0062611D01*
X0135928Y0066421D02*
X0132588Y0066421D01*
X0139103Y0069596D02*
X0135928Y0066421D01*
X0139103Y0070866D02*
X0139103Y0069596D01*
X0137819Y0073557D02*
X0138454Y0072922D01*
X0107823Y0032131D02*
X0107823Y0030861D01*
X0106553Y0031496D02*
X0106553Y0032766D01*
X0105283Y0032766D02*
X0105283Y0031496D01*
X0123063Y0030861D02*
X0123063Y0032766D01*
X0123063Y0027686D02*
X0123063Y0029591D01*
X0115443Y0035306D02*
X0115443Y0037211D01*
X0115443Y0031496D02*
X0115443Y0034036D01*
X0115443Y0027686D02*
X0115443Y0029591D01*
X0117348Y0046101D02*
X0115443Y0046101D01*
X0118618Y0044831D02*
X0118618Y0046101D01*
X0115443Y0044831D02*
X0117348Y0044831D01*
X0140208Y0018796D02*
X0140208Y0020701D01*
X0133223Y0027686D02*
X0134493Y0027686D01*
X0130683Y0027686D02*
X0131953Y0027686D01*
X0131953Y0026416D02*
X0130683Y0026416D01*
X0134493Y0026416D02*
X0133223Y0026416D01*
X0135763Y0025146D02*
X0135763Y0026416D01*
X0133223Y0025146D02*
X0134493Y0025146D01*
X0145288Y0020066D02*
X0144018Y0020066D01*
X0145288Y0022606D02*
X0145288Y0021336D01*
X0142748Y0022606D02*
X0144018Y0022606D01*
X0159893Y0071501D02*
X0159893Y0070231D01*
X0159893Y0074041D02*
X0159893Y0072771D01*
X0140843Y0079121D02*
X0140843Y0077851D01*
X0152273Y0091821D02*
X0152273Y0090551D01*
X0154178Y0089916D02*
X0154178Y0091821D01*
X0139573Y0090551D02*
X0139573Y0089281D01*
X0138303Y0091821D02*
X0139573Y0091821D01*
X0133223Y0082296D02*
X0135128Y0084201D01*
X0133033Y0082296D02*
X0133223Y0082296D01*
X0110998Y0082931D02*
X0109728Y0082931D01*
X0121158Y0086106D02*
X0121158Y0084836D01*
X0121158Y0088646D02*
X0121158Y0087376D01*
X0119888Y0087376D02*
X0119888Y0088646D01*
X0119888Y0084836D02*
X0119888Y0086106D01*
X0119253Y0078486D02*
X0119253Y0079756D01*
X0120523Y0079756D02*
X0120523Y0078486D01*
X0112268Y0080391D02*
X0110998Y0080391D01*
X0114808Y0080391D02*
X0113538Y0080391D01*
D63*
X0144653Y0039116D02*
X0144018Y0039116D01*
X0144018Y0039116D02*
X0142113Y0041021D01*
X0141478Y0044831D02*
X0140208Y0044831D01*
X0134493Y0044196D02*
X0134493Y0046736D01*
X0118618Y0046101D02*
X0117983Y0046736D01*
X0117983Y0046736D02*
X0117983Y0051181D01*
X0117983Y0051181D02*
X0118815Y0051181D01*
D19*
X0119253Y0050546D02*
X0118815Y0051181D01*
X0118815Y0051181D02*
X0119253Y0052451D01*
D63*
X0114898Y0053176D02*
X0115353Y0053176D01*
X0114173Y0052451D02*
X0114898Y0053176D01*
D19*
X0114173Y0052451D02*
X0114173Y0049911D01*
X0114173Y0053721D02*
X0114173Y0052451D01*
D63*
X0115353Y0053176D02*
X0115443Y0053266D01*
X0114178Y0057526D02*
X0114178Y0057531D01*
X0115443Y0056261D02*
X0114178Y0057526D01*
X0115443Y0053266D02*
X0115443Y0056261D01*
X0111633Y0049911D02*
X0111633Y0051816D01*
X0111633Y0053721D02*
X0111633Y0056261D01*
X0109093Y0058801D02*
X0108458Y0058801D01*
X0108458Y0058801D02*
X0107188Y0057531D01*
X0105918Y0056261D02*
X0104648Y0056261D01*
D66*
X0150463Y0070866D02*
X0143383Y0070866D01*
X0143383Y0070866D02*
X0137033Y0064516D01*
X0137033Y0064516D02*
X0137033Y0039751D01*
X0144018Y0032766D02*
X0150463Y0032766D01*
X0137033Y0039751D02*
X0144018Y0032766D01*
D28*
X0147193Y0048006D02*
X0146558Y0047371D01*
X0147828Y0048641D02*
X0147193Y0048006D01*
X0146443Y0048006D02*
X0147193Y0048006D01*
X0146558Y0047371D02*
X0139683Y0040496D01*
X0146443Y0048006D02*
X0146443Y0047440D01*
X0146443Y0047440D02*
X0146512Y0047371D01*
X0146512Y0047371D02*
X0146558Y0047371D01*
X0154178Y0048641D02*
X0147828Y0048641D01*
X0131754Y0074676D02*
X0136199Y0079121D01*
X0130683Y0073241D02*
X0131754Y0074312D01*
X0131754Y0074312D02*
X0131754Y0074676D01*
X0136199Y0079121D02*
X0137033Y0079121D01*
X0114808Y0075311D02*
X0114808Y0070231D01*
D19*
X0147028Y0050000D02*
X0148844Y0051816D01*
X0147028Y0049911D02*
X0147028Y0050000D01*
D28*
X0138303Y0085471D02*
X0138023Y0085471D01*
X0138023Y0085471D02*
X0103378Y0050826D01*
X0103378Y0050826D02*
X0103378Y0018796D01*
X0103378Y0018796D02*
X0100203Y0015621D01*
X0100203Y0015621D02*
X0100203Y0008636D01*
D14*
X0144653Y0085540D02*
X0139504Y0080391D01*
X0144653Y0086106D02*
X0144653Y0085540D01*
X0139504Y0080391D02*
X0136479Y0080391D01*
X0136479Y0080391D02*
X0125603Y0069515D01*
X0125603Y0069515D02*
X0125603Y0057445D01*
X0125603Y0057445D02*
X0125603Y0044196D01*
X0156718Y0084836D02*
X0156083Y0085471D01*
X0147193Y0086106D02*
X0144653Y0086106D01*
X0120523Y0062611D02*
X0120523Y0044196D01*
X0136594Y0081355D02*
X0120523Y0065284D01*
X0120523Y0065284D02*
X0120523Y0062611D01*
X0139129Y0081355D02*
X0136594Y0081355D01*
X0141091Y0083318D02*
X0139129Y0081355D01*
X0142733Y0086091D02*
X0138794Y0082152D01*
X0142733Y0087376D02*
X0142733Y0086091D01*
X0138794Y0082152D02*
X0136542Y0082152D01*
X0136542Y0082152D02*
X0112903Y0058513D01*
X0112903Y0058513D02*
X0112903Y0056261D01*
X0112903Y0056261D02*
X0112903Y0044196D01*
X0148463Y0087376D02*
X0142733Y0087376D01*
X0110363Y0056821D02*
X0110363Y0054991D01*
X0137743Y0084201D02*
X0110363Y0056821D01*
X0139573Y0084201D02*
X0137743Y0084201D01*
X0110363Y0054991D02*
X0110363Y0044196D01*
X0126238Y0074676D02*
X0102678Y0051116D01*
X0126238Y0079756D02*
X0126238Y0074676D01*
X0102678Y0051116D02*
X0102678Y0019366D01*
X0102678Y0019366D02*
X0096393Y0013081D01*
X0143879Y0035167D02*
X0138938Y0040109D01*
X0138633Y0058166D02*
X0138633Y0040414D01*
X0138633Y0040414D02*
X0138938Y0040109D01*
X0138633Y0058166D02*
X0138433Y0058166D01*
X0131318Y0061976D02*
X0135128Y0058166D01*
X0131318Y0072692D02*
X0131318Y0061976D01*
X0135833Y0077451D02*
X0135833Y0077207D01*
X0136233Y0077851D02*
X0135833Y0077451D01*
X0135833Y0077207D02*
X0131318Y0072692D01*
D29*
G36*
X0160809Y0000735D02*
X0081507Y0000735D01*
X0081507Y0005131D01*
X0093588Y0005131D01*
X0093588Y0004521D01*
X0093822Y0003956D01*
X0094253Y0003525D01*
X0094818Y0003291D01*
X0095428Y0003291D01*
X0095993Y0003525D01*
X0096424Y0003956D01*
X0096658Y0004521D01*
X0096658Y0005131D01*
X0096424Y0005696D01*
X0095993Y0006127D01*
X0095428Y0006361D01*
X0094818Y0006361D01*
X0094253Y0006127D01*
X0093822Y0005696D01*
X0093588Y0005131D01*
X0081507Y0005131D01*
X0081507Y0013287D01*
X0095358Y0013287D01*
X0095358Y0012875D01*
X0095516Y0012495D01*
X0095807Y0012204D01*
X0096187Y0012046D01*
X0096599Y0012046D01*
X0096979Y0012204D01*
X0097270Y0012495D01*
X0097428Y0012875D01*
X0097428Y0012935D01*
X0099268Y0014775D01*
X0099268Y0010011D01*
X0099193Y0009996D01*
X0098983Y0009856D01*
X0098843Y0009646D01*
X0098794Y0009398D01*
X0098794Y0007874D01*
X0098843Y0007626D01*
X0098983Y0007416D01*
X0099058Y0007366D01*
X0098983Y0007316D01*
X0098843Y0007106D01*
X0098794Y0006858D01*
X0098794Y0005334D01*
X0098843Y0005086D01*
X0098983Y0004876D01*
X0099193Y0004736D01*
X0099441Y0004687D01*
X0100965Y0004687D01*
X0101213Y0004736D01*
X0101423Y0004876D01*
X0101563Y0005086D01*
X0101612Y0005334D01*
X0101612Y0006858D01*
X0101563Y0007106D01*
X0101423Y0007316D01*
X0101348Y0007366D01*
X0101423Y0007416D01*
X0101563Y0007626D01*
X0101612Y0007874D01*
X0101612Y0009398D01*
X0101563Y0009646D01*
X0101423Y0009856D01*
X0101213Y0009996D01*
X0101138Y0010011D01*
X0101138Y0011987D01*
X0136548Y0011987D01*
X0136548Y0011137D01*
X0136873Y0010353D01*
X0137474Y0009752D01*
X0138258Y0009427D01*
X0139108Y0009427D01*
X0139892Y0009752D01*
X0140493Y0010353D01*
X0140818Y0011137D01*
X0140818Y0011987D01*
X0141248Y0011987D01*
X0141248Y0011137D01*
X0141573Y0010353D01*
X0142174Y0009752D01*
X0142958Y0009427D01*
X0143808Y0009427D01*
X0144592Y0009752D01*
X0145193Y0010353D01*
X0145518Y0011137D01*
X0145518Y0011987D01*
X0145948Y0011987D01*
X0145948Y0011137D01*
X0146273Y0010353D01*
X0146874Y0009752D01*
X0147658Y0009427D01*
X0148508Y0009427D01*
X0149292Y0009752D01*
X0149893Y0010353D01*
X0150218Y0011137D01*
X0150218Y0011987D01*
X0149893Y0012771D01*
X0149292Y0013372D01*
X0148508Y0013697D01*
X0147658Y0013697D01*
X0146874Y0013372D01*
X0146273Y0012771D01*
X0145948Y0011987D01*
X0145518Y0011987D01*
X0145193Y0012771D01*
X0144592Y0013372D01*
X0143808Y0013697D01*
X0142958Y0013697D01*
X0142174Y0013372D01*
X0141573Y0012771D01*
X0141248Y0011987D01*
X0140818Y0011987D01*
X0140493Y0012771D01*
X0139892Y0013372D01*
X0139108Y0013697D01*
X0138258Y0013697D01*
X0137474Y0013372D01*
X0136873Y0012771D01*
X0136548Y0011987D01*
X0101138Y0011987D01*
X0101138Y0015234D01*
X0103974Y0018070D01*
X0104052Y0018122D01*
X0104259Y0018431D01*
X0104313Y0018704D01*
X0104331Y0018796D01*
X0104313Y0018888D01*
X0104313Y0023176D01*
X0106413Y0023176D01*
X0106413Y0022606D01*
X0106631Y0022078D01*
X0107035Y0021674D01*
X0107563Y0021456D01*
X0108133Y0021456D01*
X0108661Y0021674D01*
X0109065Y0022078D01*
X0109283Y0022606D01*
X0109283Y0023127D01*
X0127663Y0023127D01*
X0127663Y0022655D01*
X0127843Y0022220D01*
X0128177Y0021886D01*
X0128612Y0021706D01*
X0129084Y0021706D01*
X0129519Y0021886D01*
X0129853Y0022220D01*
X0130033Y0022655D01*
X0130033Y0023127D01*
X0129853Y0023562D01*
X0129519Y0023896D01*
X0129084Y0024076D01*
X0128612Y0024076D01*
X0128177Y0023896D01*
X0127843Y0023562D01*
X0127663Y0023127D01*
X0109283Y0023127D01*
X0109283Y0023176D01*
X0109065Y0023704D01*
X0108661Y0024108D01*
X0108133Y0024326D01*
X0107563Y0024326D01*
X0107035Y0024108D01*
X0106631Y0023704D01*
X0106413Y0023176D01*
X0104313Y0023176D01*
X0104313Y0024638D01*
X0155309Y0024638D01*
X0155309Y0023114D01*
X0155358Y0022866D01*
X0155498Y0022656D01*
X0155573Y0022606D01*
X0155498Y0022556D01*
X0155358Y0022346D01*
X0155309Y0022098D01*
X0155309Y0020574D01*
X0155358Y0020326D01*
X0155498Y0020116D01*
X0155573Y0020066D01*
X0155498Y0020016D01*
X0155358Y0019806D01*
X0155309Y0019558D01*
X0155309Y0018034D01*
X0155358Y0017786D01*
X0155498Y0017576D01*
X0155573Y0017526D01*
X0155498Y0017476D01*
X0155358Y0017266D01*
X0155309Y0017018D01*
X0155309Y0015494D01*
X0155358Y0015246D01*
X0155498Y0015036D01*
X0155573Y0014986D01*
X0155498Y0014936D01*
X0155358Y0014726D01*
X0155309Y0014478D01*
X0155309Y0012954D01*
X0155358Y0012706D01*
X0155498Y0012496D01*
X0155573Y0012446D01*
X0155498Y0012396D01*
X0155358Y0012186D01*
X0155309Y0011938D01*
X0155309Y0010414D01*
X0155358Y0010166D01*
X0155498Y0009956D01*
X0155708Y0009816D01*
X0155956Y0009767D01*
X0157480Y0009767D01*
X0157728Y0009816D01*
X0157938Y0009956D01*
X0158078Y0010166D01*
X0158127Y0010414D01*
X0158127Y0011938D01*
X0158078Y0012186D01*
X0157938Y0012396D01*
X0157863Y0012446D01*
X0157938Y0012496D01*
X0158078Y0012706D01*
X0158127Y0012954D01*
X0158127Y0014478D01*
X0158078Y0014726D01*
X0157938Y0014936D01*
X0157863Y0014986D01*
X0157938Y0015036D01*
X0158078Y0015246D01*
X0158127Y0015494D01*
X0158127Y0017018D01*
X0158078Y0017266D01*
X0157938Y0017476D01*
X0157863Y0017526D01*
X0157938Y0017576D01*
X0158078Y0017786D01*
X0158127Y0018034D01*
X0158127Y0019558D01*
X0158078Y0019806D01*
X0157938Y0020016D01*
X0157863Y0020066D01*
X0157938Y0020116D01*
X0158078Y0020326D01*
X0158127Y0020574D01*
X0158127Y0022098D01*
X0158078Y0022346D01*
X0157938Y0022556D01*
X0157863Y0022606D01*
X0157938Y0022656D01*
X0158078Y0022866D01*
X0158127Y0023114D01*
X0158127Y0024638D01*
X0158078Y0024886D01*
X0157938Y0025096D01*
X0157728Y0025236D01*
X0157480Y0025285D01*
X0155956Y0025285D01*
X0155708Y0025236D01*
X0155498Y0025096D01*
X0155358Y0024886D01*
X0155309Y0024638D01*
X0104313Y0024638D01*
X0104313Y0034606D01*
X0106413Y0034606D01*
X0106413Y0034036D01*
X0106631Y0033508D01*
X0107035Y0033104D01*
X0107563Y0032886D01*
X0108133Y0032886D01*
X0108661Y0033104D01*
X0109065Y0033508D01*
X0109283Y0034036D01*
X0109283Y0034557D01*
X0127663Y0034557D01*
X0127663Y0034085D01*
X0127843Y0033650D01*
X0128177Y0033316D01*
X0128612Y0033136D01*
X0129084Y0033136D01*
X0129519Y0033316D01*
X0129543Y0033340D01*
X0131628Y0033340D01*
X0131628Y0032192D01*
X0132067Y0031132D01*
X0132879Y0030320D01*
X0133939Y0029881D01*
X0135087Y0029881D01*
X0136147Y0030320D01*
X0136959Y0031132D01*
X0137398Y0032192D01*
X0137398Y0033340D01*
X0136959Y0034400D01*
X0136147Y0035212D01*
X0135087Y0035651D01*
X0133939Y0035651D01*
X0132879Y0035212D01*
X0132067Y0034400D01*
X0131628Y0033340D01*
X0129543Y0033340D01*
X0129853Y0033650D01*
X0130033Y0034085D01*
X0130033Y0034557D01*
X0129853Y0034992D01*
X0129519Y0035326D01*
X0129084Y0035506D01*
X0128612Y0035506D01*
X0128177Y0035326D01*
X0127843Y0034992D01*
X0127663Y0034557D01*
X0109283Y0034557D01*
X0109283Y0034606D01*
X0109065Y0035134D01*
X0108661Y0035538D01*
X0108133Y0035756D01*
X0107563Y0035756D01*
X0107035Y0035538D01*
X0106631Y0035134D01*
X0106413Y0034606D01*
X0104313Y0034606D01*
X0104313Y0050439D01*
X0109528Y0055654D01*
X0109528Y0055073D01*
X0109528Y0055073D01*
X0109528Y0044825D01*
X0109486Y0044782D01*
X0109328Y0044402D01*
X0109328Y0043990D01*
X0109486Y0043610D01*
X0109777Y0043319D01*
X0110157Y0043161D01*
X0110569Y0043161D01*
X0110949Y0043319D01*
X0111240Y0043610D01*
X0111398Y0043990D01*
X0111398Y0044402D01*
X0111240Y0044782D01*
X0111198Y0044825D01*
X0111198Y0056475D01*
X0112068Y0057345D01*
X0112068Y0056343D01*
X0112068Y0056343D01*
X0112068Y0044825D01*
X0112026Y0044782D01*
X0111868Y0044402D01*
X0111868Y0043990D01*
X0112026Y0043610D01*
X0112317Y0043319D01*
X0112697Y0043161D01*
X0113109Y0043161D01*
X0113489Y0043319D01*
X0113780Y0043610D01*
X0113938Y0043990D01*
X0113938Y0044402D01*
X0113780Y0044782D01*
X0113738Y0044825D01*
X0113738Y0058167D01*
X0119688Y0064117D01*
X0119688Y0062693D01*
X0119688Y0062693D01*
X0119688Y0044825D01*
X0119646Y0044782D01*
X0119488Y0044402D01*
X0119488Y0043990D01*
X0119646Y0043610D01*
X0119937Y0043319D01*
X0120317Y0043161D01*
X0120729Y0043161D01*
X0121109Y0043319D01*
X0121400Y0043610D01*
X0121558Y0043990D01*
X0121558Y0044402D01*
X0121400Y0044782D01*
X0121358Y0044825D01*
X0121358Y0064938D01*
X0124768Y0068348D01*
X0124768Y0057527D01*
X0124768Y0057527D01*
X0124768Y0044825D01*
X0124726Y0044782D01*
X0124568Y0044402D01*
X0124568Y0043990D01*
X0124726Y0043610D01*
X0125017Y0043319D01*
X0125397Y0043161D01*
X0125809Y0043161D01*
X0126189Y0043319D01*
X0126480Y0043610D01*
X0126638Y0043990D01*
X0126638Y0044402D01*
X0126480Y0044782D01*
X0126438Y0044825D01*
X0126438Y0069170D01*
X0129864Y0072596D01*
X0130097Y0072364D01*
X0130477Y0072206D01*
X0130483Y0072206D01*
X0130483Y0062058D01*
X0130467Y0061976D01*
X0130531Y0061650D01*
X0130639Y0061489D01*
X0130716Y0061374D01*
X0130786Y0061327D01*
X0134093Y0058020D01*
X0134093Y0057960D01*
X0134251Y0057580D01*
X0134542Y0057289D01*
X0134922Y0057131D01*
X0135334Y0057131D01*
X0135398Y0057158D01*
X0135398Y0039912D01*
X0135366Y0039751D01*
X0135464Y0039257D01*
X0135493Y0039113D01*
X0135854Y0038572D01*
X0135991Y0038481D01*
X0142748Y0031724D01*
X0142839Y0031587D01*
X0143126Y0031396D01*
X0143380Y0031226D01*
X0144018Y0031099D01*
X0144179Y0031131D01*
X0149484Y0031131D01*
X0150088Y0030881D01*
X0150838Y0030881D01*
X0151531Y0031168D01*
X0152061Y0031698D01*
X0152293Y0032258D01*
X0152769Y0032258D01*
X0152769Y0030734D01*
X0152818Y0030486D01*
X0152958Y0030276D01*
X0153168Y0030136D01*
X0153416Y0030087D01*
X0154940Y0030087D01*
X0155188Y0030136D01*
X0155398Y0030276D01*
X0155448Y0030351D01*
X0155498Y0030276D01*
X0155708Y0030136D01*
X0155956Y0030087D01*
X0157480Y0030087D01*
X0157728Y0030136D01*
X0157938Y0030276D01*
X0158078Y0030486D01*
X0158127Y0030734D01*
X0158127Y0032258D01*
X0158078Y0032506D01*
X0157938Y0032716D01*
X0157728Y0032856D01*
X0157480Y0032905D01*
X0155956Y0032905D01*
X0155708Y0032856D01*
X0155498Y0032716D01*
X0155448Y0032641D01*
X0155398Y0032716D01*
X0155188Y0032856D01*
X0154940Y0032905D01*
X0153416Y0032905D01*
X0153168Y0032856D01*
X0152958Y0032716D01*
X0152818Y0032506D01*
X0152769Y0032258D01*
X0152293Y0032258D01*
X0152348Y0032391D01*
X0152348Y0033141D01*
X0152061Y0033834D01*
X0151531Y0034364D01*
X0150838Y0034651D01*
X0150088Y0034651D01*
X0149484Y0034401D01*
X0147020Y0034401D01*
X0147020Y0035471D01*
X0146971Y0035719D01*
X0146831Y0035929D01*
X0146621Y0036069D01*
X0146373Y0036118D01*
X0145473Y0036118D01*
X0145225Y0036069D01*
X0145015Y0035929D01*
X0144875Y0035719D01*
X0144841Y0035550D01*
X0144757Y0035754D01*
X0144466Y0036045D01*
X0144085Y0036202D01*
X0144025Y0036202D01*
X0140439Y0039788D01*
X0140560Y0039909D01*
X0140660Y0040151D01*
X0141022Y0040513D01*
X0152769Y0040513D01*
X0152769Y0038989D01*
X0152818Y0038741D01*
X0152958Y0038531D01*
X0153033Y0038481D01*
X0152958Y0038431D01*
X0152818Y0038221D01*
X0152769Y0037973D01*
X0152769Y0036449D01*
X0152818Y0036201D01*
X0152958Y0035991D01*
X0153168Y0035851D01*
X0153416Y0035802D01*
X0154940Y0035802D01*
X0155188Y0035851D01*
X0155398Y0035991D01*
X0155538Y0036201D01*
X0155587Y0036449D01*
X0155587Y0037973D01*
X0155538Y0038221D01*
X0155398Y0038431D01*
X0155323Y0038481D01*
X0155398Y0038531D01*
X0155448Y0038606D01*
X0155498Y0038531D01*
X0155708Y0038391D01*
X0155956Y0038342D01*
X0157480Y0038342D01*
X0157728Y0038391D01*
X0157938Y0038531D01*
X0158078Y0038741D01*
X0158127Y0038989D01*
X0158127Y0040513D01*
X0158078Y0040761D01*
X0157938Y0040971D01*
X0157728Y0041111D01*
X0157480Y0041160D01*
X0155956Y0041160D01*
X0155708Y0041111D01*
X0155498Y0040971D01*
X0155448Y0040896D01*
X0155398Y0040971D01*
X0155188Y0041111D01*
X0154940Y0041160D01*
X0153416Y0041160D01*
X0153168Y0041111D01*
X0152958Y0040971D01*
X0152818Y0040761D01*
X0152769Y0040513D01*
X0141022Y0040513D01*
X0147154Y0046645D01*
X0147232Y0046697D01*
X0147284Y0046775D01*
X0147789Y0047280D01*
X0147867Y0047332D01*
X0147919Y0047410D01*
X0148215Y0047706D01*
X0152803Y0047706D01*
X0152818Y0047631D01*
X0152958Y0047421D01*
X0153033Y0047371D01*
X0152958Y0047321D01*
X0152818Y0047111D01*
X0152769Y0046863D01*
X0152769Y0045339D01*
X0152818Y0045091D01*
X0152958Y0044881D01*
X0153168Y0044741D01*
X0153416Y0044692D01*
X0154940Y0044692D01*
X0155188Y0044741D01*
X0155398Y0044881D01*
X0155448Y0044956D01*
X0155498Y0044881D01*
X0155708Y0044741D01*
X0155956Y0044692D01*
X0157480Y0044692D01*
X0157728Y0044741D01*
X0157938Y0044881D01*
X0158078Y0045091D01*
X0158127Y0045339D01*
X0158127Y0046863D01*
X0158078Y0047111D01*
X0157938Y0047321D01*
X0157863Y0047371D01*
X0157938Y0047421D01*
X0158078Y0047631D01*
X0158127Y0047879D01*
X0158127Y0049403D01*
X0158078Y0049651D01*
X0157938Y0049861D01*
X0157863Y0049911D01*
X0157938Y0049961D01*
X0158078Y0050171D01*
X0158127Y0050419D01*
X0158127Y0051943D01*
X0158078Y0052191D01*
X0157938Y0052401D01*
X0157728Y0052541D01*
X0157480Y0052590D01*
X0155956Y0052590D01*
X0155708Y0052541D01*
X0155498Y0052401D01*
X0155448Y0052326D01*
X0155398Y0052401D01*
X0155188Y0052541D01*
X0154940Y0052590D01*
X0153416Y0052590D01*
X0153168Y0052541D01*
X0152958Y0052401D01*
X0152818Y0052191D01*
X0152769Y0051943D01*
X0152769Y0050419D01*
X0152818Y0050171D01*
X0152958Y0049961D01*
X0153033Y0049911D01*
X0152958Y0049861D01*
X0152818Y0049651D01*
X0152803Y0049576D01*
X0148010Y0049576D01*
X0148063Y0049705D01*
X0148063Y0049925D01*
X0148919Y0050781D01*
X0149050Y0050781D01*
X0149430Y0050939D01*
X0149721Y0051230D01*
X0149879Y0051610D01*
X0149879Y0052022D01*
X0149721Y0052402D01*
X0149430Y0052693D01*
X0149050Y0052851D01*
X0148638Y0052851D01*
X0148258Y0052693D01*
X0147967Y0052402D01*
X0147809Y0052022D01*
X0147809Y0051891D01*
X0146864Y0050946D01*
X0146822Y0050946D01*
X0146442Y0050788D01*
X0146151Y0050497D01*
X0145993Y0050117D01*
X0145993Y0049705D01*
X0146151Y0049325D01*
X0146434Y0049041D01*
X0146237Y0049041D01*
X0145857Y0048883D01*
X0145566Y0048592D01*
X0145408Y0048212D01*
X0145408Y0047800D01*
X0145483Y0047619D01*
X0139468Y0041603D01*
X0139468Y0057537D01*
X0139510Y0057580D01*
X0139668Y0057960D01*
X0139668Y0058372D01*
X0139510Y0058752D01*
X0139219Y0059043D01*
X0138839Y0059201D01*
X0138668Y0059201D01*
X0138668Y0063839D01*
X0140742Y0065913D01*
X0152769Y0065913D01*
X0152769Y0064389D01*
X0152818Y0064141D01*
X0152958Y0063931D01*
X0153033Y0063881D01*
X0152958Y0063831D01*
X0152818Y0063621D01*
X0152769Y0063373D01*
X0152769Y0061849D01*
X0152818Y0061601D01*
X0152958Y0061391D01*
X0153033Y0061341D01*
X0152958Y0061291D01*
X0152818Y0061081D01*
X0152769Y0060833D01*
X0152769Y0059309D01*
X0152818Y0059061D01*
X0152958Y0058851D01*
X0153033Y0058801D01*
X0152958Y0058751D01*
X0152818Y0058541D01*
X0152769Y0058293D01*
X0152769Y0056769D01*
X0152818Y0056521D01*
X0152958Y0056311D01*
X0153168Y0056171D01*
X0153416Y0056122D01*
X0154940Y0056122D01*
X0155188Y0056171D01*
X0155398Y0056311D01*
X0155448Y0056386D01*
X0155498Y0056311D01*
X0155708Y0056171D01*
X0155956Y0056122D01*
X0157480Y0056122D01*
X0157728Y0056171D01*
X0157938Y0056311D01*
X0158078Y0056521D01*
X0158127Y0056769D01*
X0158127Y0058293D01*
X0158078Y0058541D01*
X0157938Y0058751D01*
X0157863Y0058801D01*
X0157938Y0058851D01*
X0158078Y0059061D01*
X0158127Y0059309D01*
X0158127Y0060833D01*
X0158078Y0061081D01*
X0157938Y0061291D01*
X0157863Y0061341D01*
X0157938Y0061391D01*
X0158078Y0061601D01*
X0158127Y0061849D01*
X0158127Y0063373D01*
X0158078Y0063621D01*
X0157938Y0063831D01*
X0157863Y0063881D01*
X0157938Y0063931D01*
X0158078Y0064141D01*
X0158127Y0064389D01*
X0158127Y0065913D01*
X0158078Y0066161D01*
X0157938Y0066371D01*
X0157728Y0066511D01*
X0157480Y0066560D01*
X0155956Y0066560D01*
X0155708Y0066511D01*
X0155498Y0066371D01*
X0155448Y0066296D01*
X0155398Y0066371D01*
X0155188Y0066511D01*
X0154940Y0066560D01*
X0153416Y0066560D01*
X0153168Y0066511D01*
X0152958Y0066371D01*
X0152818Y0066161D01*
X0152769Y0065913D01*
X0140742Y0065913D01*
X0144060Y0069231D01*
X0149484Y0069231D01*
X0150088Y0068981D01*
X0150838Y0068981D01*
X0151531Y0069268D01*
X0152061Y0069798D01*
X0152348Y0070491D01*
X0152348Y0071241D01*
X0154062Y0071241D01*
X0154062Y0070689D01*
X0154273Y0070180D01*
X0154663Y0069790D01*
X0155172Y0069579D01*
X0155724Y0069579D01*
X0156233Y0069790D01*
X0156623Y0070180D01*
X0156834Y0070689D01*
X0156834Y0071241D01*
X0156623Y0071750D01*
X0156233Y0072140D01*
X0155724Y0072351D01*
X0155172Y0072351D01*
X0154663Y0072140D01*
X0154273Y0071750D01*
X0154062Y0071241D01*
X0152348Y0071241D01*
X0152348Y0071241D01*
X0152061Y0071934D01*
X0151531Y0072464D01*
X0150838Y0072751D01*
X0150088Y0072751D01*
X0149484Y0072501D01*
X0143544Y0072501D01*
X0143383Y0072533D01*
X0143222Y0072501D01*
X0142745Y0072406D01*
X0142204Y0072045D01*
X0142113Y0071908D01*
X0135991Y0065786D01*
X0135854Y0065695D01*
X0135493Y0065154D01*
X0135454Y0064958D01*
X0135366Y0064516D01*
X0135398Y0064355D01*
X0135398Y0059174D01*
X0135334Y0059201D01*
X0135274Y0059201D01*
X0132153Y0062322D01*
X0132153Y0069146D01*
X0132879Y0068420D01*
X0133939Y0067981D01*
X0135087Y0067981D01*
X0136147Y0068420D01*
X0136959Y0069232D01*
X0137398Y0070292D01*
X0137398Y0071440D01*
X0136959Y0072500D01*
X0136147Y0073312D01*
X0135087Y0073751D01*
X0133939Y0073751D01*
X0133288Y0073481D01*
X0135929Y0076123D01*
X0154062Y0076123D01*
X0154062Y0075571D01*
X0154273Y0075062D01*
X0154663Y0074672D01*
X0155172Y0074461D01*
X0155724Y0074461D01*
X0156233Y0074672D01*
X0156623Y0075062D01*
X0156834Y0075571D01*
X0156834Y0076123D01*
X0156623Y0076632D01*
X0156233Y0077022D01*
X0155724Y0077233D01*
X0155172Y0077233D01*
X0154663Y0077022D01*
X0154273Y0076632D01*
X0154062Y0076123D01*
X0135929Y0076123D01*
X0136365Y0076558D01*
X0136435Y0076605D01*
X0136620Y0076881D01*
X0136622Y0076892D01*
X0136819Y0076974D01*
X0137110Y0077265D01*
X0137268Y0077645D01*
X0137268Y0078057D01*
X0137253Y0078092D01*
X0137619Y0078244D01*
X0137910Y0078535D01*
X0138068Y0078915D01*
X0138068Y0079327D01*
X0137973Y0079556D01*
X0139421Y0079556D01*
X0139504Y0079540D01*
X0139586Y0079556D01*
X0139586Y0079556D01*
X0139829Y0079604D01*
X0140106Y0079789D01*
X0140152Y0079859D01*
X0142082Y0081788D01*
X0152769Y0081788D01*
X0152769Y0080264D01*
X0152818Y0080016D01*
X0152958Y0079806D01*
X0153168Y0079666D01*
X0153416Y0079617D01*
X0154940Y0079617D01*
X0155188Y0079666D01*
X0155398Y0079806D01*
X0155448Y0079881D01*
X0155498Y0079806D01*
X0155708Y0079666D01*
X0155956Y0079617D01*
X0157480Y0079617D01*
X0157728Y0079666D01*
X0157938Y0079806D01*
X0158078Y0080016D01*
X0158127Y0080264D01*
X0158127Y0081788D01*
X0158078Y0082036D01*
X0157938Y0082246D01*
X0157728Y0082386D01*
X0157480Y0082435D01*
X0155956Y0082435D01*
X0155708Y0082386D01*
X0155498Y0082246D01*
X0155448Y0082171D01*
X0155398Y0082246D01*
X0155188Y0082386D01*
X0154940Y0082435D01*
X0153416Y0082435D01*
X0153168Y0082386D01*
X0152958Y0082246D01*
X0152818Y0082036D01*
X0152769Y0081788D01*
X0142082Y0081788D01*
X0145185Y0084892D01*
X0145255Y0084938D01*
X0145440Y0085215D01*
X0145451Y0085271D01*
X0146564Y0085271D01*
X0146607Y0085229D01*
X0146987Y0085071D01*
X0147399Y0085071D01*
X0147779Y0085229D01*
X0148070Y0085520D01*
X0148228Y0085900D01*
X0148228Y0086312D01*
X0148207Y0086362D01*
X0148257Y0086341D01*
X0148669Y0086341D01*
X0149049Y0086499D01*
X0149340Y0086790D01*
X0149498Y0087170D01*
X0149498Y0087582D01*
X0149340Y0087962D01*
X0149165Y0088138D01*
X0152769Y0088138D01*
X0152769Y0086614D01*
X0152818Y0086366D01*
X0152958Y0086156D01*
X0153033Y0086106D01*
X0152958Y0086056D01*
X0152818Y0085846D01*
X0152769Y0085598D01*
X0152769Y0084074D01*
X0152818Y0083826D01*
X0152958Y0083616D01*
X0153168Y0083476D01*
X0153416Y0083427D01*
X0154940Y0083427D01*
X0155188Y0083476D01*
X0155398Y0083616D01*
X0155448Y0083691D01*
X0155498Y0083616D01*
X0155708Y0083476D01*
X0155956Y0083427D01*
X0157480Y0083427D01*
X0157728Y0083476D01*
X0157938Y0083616D01*
X0158078Y0083826D01*
X0158127Y0084074D01*
X0158127Y0085598D01*
X0158078Y0085846D01*
X0157938Y0086056D01*
X0157863Y0086106D01*
X0157938Y0086156D01*
X0158078Y0086366D01*
X0158127Y0086614D01*
X0158127Y0088138D01*
X0158078Y0088386D01*
X0157938Y0088596D01*
X0157863Y0088646D01*
X0157938Y0088696D01*
X0158078Y0088906D01*
X0158127Y0089154D01*
X0158127Y0090678D01*
X0158078Y0090926D01*
X0157938Y0091136D01*
X0157728Y0091276D01*
X0157480Y0091325D01*
X0155956Y0091325D01*
X0155708Y0091276D01*
X0155498Y0091136D01*
X0155358Y0090926D01*
X0155309Y0090678D01*
X0155309Y0089154D01*
X0155358Y0088906D01*
X0155498Y0088696D01*
X0155573Y0088646D01*
X0155498Y0088596D01*
X0155448Y0088521D01*
X0155398Y0088596D01*
X0155188Y0088736D01*
X0154940Y0088785D01*
X0153416Y0088785D01*
X0153168Y0088736D01*
X0152958Y0088596D01*
X0152818Y0088386D01*
X0152769Y0088138D01*
X0149165Y0088138D01*
X0149049Y0088253D01*
X0148669Y0088411D01*
X0148257Y0088411D01*
X0147877Y0088253D01*
X0147834Y0088211D01*
X0143362Y0088211D01*
X0143319Y0088253D01*
X0142939Y0088411D01*
X0142527Y0088411D01*
X0142147Y0088253D01*
X0141856Y0087962D01*
X0141698Y0087582D01*
X0141698Y0087170D01*
X0141856Y0086790D01*
X0141898Y0086747D01*
X0141898Y0086437D01*
X0140349Y0084888D01*
X0140159Y0085078D01*
X0139779Y0085236D01*
X0139367Y0085236D01*
X0139317Y0085215D01*
X0139338Y0085265D01*
X0139338Y0085677D01*
X0139180Y0086057D01*
X0138889Y0086348D01*
X0138509Y0086506D01*
X0138097Y0086506D01*
X0137786Y0086377D01*
X0137658Y0086352D01*
X0137349Y0086145D01*
X0137297Y0086067D01*
X0127073Y0075843D01*
X0127073Y0079127D01*
X0127115Y0079170D01*
X0127273Y0079550D01*
X0127273Y0079962D01*
X0127115Y0080342D01*
X0126824Y0080633D01*
X0126444Y0080791D01*
X0126032Y0080791D01*
X0125652Y0080633D01*
X0125361Y0080342D01*
X0125203Y0079962D01*
X0125203Y0079550D01*
X0125361Y0079170D01*
X0125403Y0079127D01*
X0125403Y0075022D01*
X0102146Y0051765D01*
X0102076Y0051718D01*
X0101891Y0051442D01*
X0101843Y0051198D01*
X0101843Y0051198D01*
X0101827Y0051116D01*
X0101843Y0051034D01*
X0101843Y0019712D01*
X0096247Y0014116D01*
X0096187Y0014116D01*
X0095807Y0013958D01*
X0095516Y0013667D01*
X0095358Y0013287D01*
X0081507Y0013287D01*
X0081507Y0033340D01*
X0096028Y0033340D01*
X0096028Y0032192D01*
X0096467Y0031132D01*
X0097279Y0030320D01*
X0098339Y0029881D01*
X0099487Y0029881D01*
X0100547Y0030320D01*
X0101359Y0031132D01*
X0101798Y0032192D01*
X0101798Y0033340D01*
X0101359Y0034400D01*
X0100547Y0035212D01*
X0099487Y0035651D01*
X0098339Y0035651D01*
X0097279Y0035212D01*
X0096467Y0034400D01*
X0096028Y0033340D01*
X0081507Y0033340D01*
X0081507Y0071440D01*
X0096028Y0071440D01*
X0096028Y0070292D01*
X0096467Y0069232D01*
X0097279Y0068420D01*
X0098339Y0067981D01*
X0099487Y0067981D01*
X0100547Y0068420D01*
X0101359Y0069232D01*
X0101798Y0070292D01*
X0101798Y0071440D01*
X0101359Y0072500D01*
X0100547Y0073312D01*
X0099487Y0073751D01*
X0098339Y0073751D01*
X0097279Y0073312D01*
X0096467Y0072500D01*
X0096028Y0071440D01*
X0081507Y0071440D01*
X0081507Y0075517D01*
X0113773Y0075517D01*
X0113773Y0075105D01*
X0113873Y0074864D01*
X0113873Y0070678D01*
X0113773Y0070437D01*
X0113773Y0070025D01*
X0113931Y0069645D01*
X0114222Y0069354D01*
X0114602Y0069196D01*
X0115014Y0069196D01*
X0115394Y0069354D01*
X0115685Y0069645D01*
X0115843Y0070025D01*
X0115843Y0070437D01*
X0115743Y0070678D01*
X0115743Y0074864D01*
X0115843Y0075105D01*
X0115843Y0075517D01*
X0115685Y0075897D01*
X0115394Y0076188D01*
X0115014Y0076346D01*
X0114602Y0076346D01*
X0114222Y0076188D01*
X0113931Y0075897D01*
X0113773Y0075517D01*
X0081507Y0075517D01*
X0081507Y0095758D01*
X0091809Y0095758D01*
X0091809Y0094234D01*
X0091858Y0093986D01*
X0091998Y0093776D01*
X0092073Y0093726D01*
X0091998Y0093676D01*
X0091858Y0093466D01*
X0091809Y0093218D01*
X0091809Y0091694D01*
X0091858Y0091446D01*
X0091998Y0091236D01*
X0092208Y0091096D01*
X0092456Y0091047D01*
X0093980Y0091047D01*
X0094228Y0091096D01*
X0094438Y0091236D01*
X0094488Y0091311D01*
X0094538Y0091236D01*
X0094748Y0091096D01*
X0094996Y0091047D01*
X0096520Y0091047D01*
X0096768Y0091096D01*
X0096978Y0091236D01*
X0097028Y0091311D01*
X0097078Y0091236D01*
X0097288Y0091096D01*
X0097536Y0091047D01*
X0099060Y0091047D01*
X0099308Y0091096D01*
X0099518Y0091236D01*
X0099568Y0091311D01*
X0099618Y0091236D01*
X0099828Y0091096D01*
X0100076Y0091047D01*
X0101600Y0091047D01*
X0101848Y0091096D01*
X0102058Y0091236D01*
X0102108Y0091311D01*
X0102158Y0091236D01*
X0102368Y0091096D01*
X0102616Y0091047D01*
X0104140Y0091047D01*
X0104388Y0091096D01*
X0104598Y0091236D01*
X0104738Y0091446D01*
X0104787Y0091694D01*
X0104787Y0093218D01*
X0104738Y0093466D01*
X0104598Y0093676D01*
X0104523Y0093726D01*
X0104598Y0093776D01*
X0104738Y0093986D01*
X0104787Y0094234D01*
X0104787Y0095758D01*
X0119114Y0095758D01*
X0119114Y0094234D01*
X0119163Y0093986D01*
X0119303Y0093776D01*
X0119378Y0093726D01*
X0119303Y0093676D01*
X0119163Y0093466D01*
X0119114Y0093218D01*
X0119114Y0091694D01*
X0119163Y0091446D01*
X0119303Y0091236D01*
X0119513Y0091096D01*
X0119761Y0091047D01*
X0121285Y0091047D01*
X0121533Y0091096D01*
X0121743Y0091236D01*
X0121883Y0091446D01*
X0121932Y0091694D01*
X0121932Y0093218D01*
X0121883Y0093466D01*
X0121743Y0093676D01*
X0121668Y0093726D01*
X0121743Y0093776D01*
X0121883Y0093986D01*
X0121932Y0094234D01*
X0121932Y0095758D01*
X0124194Y0095758D01*
X0124194Y0094234D01*
X0124243Y0093986D01*
X0124383Y0093776D01*
X0124458Y0093726D01*
X0124383Y0093676D01*
X0124243Y0093466D01*
X0124194Y0093218D01*
X0124194Y0091694D01*
X0124243Y0091446D01*
X0124383Y0091236D01*
X0124593Y0091096D01*
X0124841Y0091047D01*
X0126365Y0091047D01*
X0126613Y0091096D01*
X0126823Y0091236D01*
X0126873Y0091311D01*
X0126923Y0091236D01*
X0127133Y0091096D01*
X0127381Y0091047D01*
X0128905Y0091047D01*
X0129153Y0091096D01*
X0129363Y0091236D01*
X0129413Y0091311D01*
X0129463Y0091236D01*
X0129673Y0091096D01*
X0129921Y0091047D01*
X0131445Y0091047D01*
X0131693Y0091096D01*
X0131903Y0091236D01*
X0132043Y0091446D01*
X0132092Y0091694D01*
X0132092Y0093218D01*
X0132043Y0093466D01*
X0131903Y0093676D01*
X0131828Y0093726D01*
X0131903Y0093776D01*
X0132043Y0093986D01*
X0132092Y0094234D01*
X0132092Y0095758D01*
X0134354Y0095758D01*
X0134354Y0094234D01*
X0134403Y0093986D01*
X0134543Y0093776D01*
X0134618Y0093726D01*
X0134543Y0093676D01*
X0134403Y0093466D01*
X0134354Y0093218D01*
X0134354Y0091694D01*
X0134403Y0091446D01*
X0134543Y0091236D01*
X0134753Y0091096D01*
X0135001Y0091047D01*
X0136525Y0091047D01*
X0136773Y0091096D01*
X0136983Y0091236D01*
X0137123Y0091446D01*
X0137172Y0091694D01*
X0137172Y0093218D01*
X0137123Y0093466D01*
X0136983Y0093676D01*
X0136908Y0093726D01*
X0136983Y0093776D01*
X0137123Y0093986D01*
X0137172Y0094234D01*
X0137172Y0095758D01*
X0141974Y0095758D01*
X0141974Y0094234D01*
X0142023Y0093986D01*
X0142163Y0093776D01*
X0142238Y0093726D01*
X0142163Y0093676D01*
X0142023Y0093466D01*
X0141974Y0093218D01*
X0141974Y0091694D01*
X0142023Y0091446D01*
X0142163Y0091236D01*
X0142373Y0091096D01*
X0142621Y0091047D01*
X0144145Y0091047D01*
X0144393Y0091096D01*
X0144603Y0091236D01*
X0144653Y0091311D01*
X0144703Y0091236D01*
X0144913Y0091096D01*
X0145161Y0091047D01*
X0146685Y0091047D01*
X0146933Y0091096D01*
X0147143Y0091236D01*
X0147193Y0091311D01*
X0147243Y0091236D01*
X0147453Y0091096D01*
X0147701Y0091047D01*
X0149225Y0091047D01*
X0149473Y0091096D01*
X0149683Y0091236D01*
X0149823Y0091446D01*
X0149872Y0091694D01*
X0149872Y0093218D01*
X0149823Y0093466D01*
X0149683Y0093676D01*
X0149608Y0093726D01*
X0149683Y0093776D01*
X0149823Y0093986D01*
X0149872Y0094234D01*
X0149872Y0095758D01*
X0149823Y0096006D01*
X0149683Y0096216D01*
X0149473Y0096356D01*
X0149225Y0096405D01*
X0147701Y0096405D01*
X0147453Y0096356D01*
X0147243Y0096216D01*
X0147193Y0096141D01*
X0147143Y0096216D01*
X0146933Y0096356D01*
X0146685Y0096405D01*
X0145161Y0096405D01*
X0144913Y0096356D01*
X0144703Y0096216D01*
X0144653Y0096141D01*
X0144603Y0096216D01*
X0144393Y0096356D01*
X0144145Y0096405D01*
X0142621Y0096405D01*
X0142373Y0096356D01*
X0142163Y0096216D01*
X0142023Y0096006D01*
X0141974Y0095758D01*
X0137172Y0095758D01*
X0137123Y0096006D01*
X0136983Y0096216D01*
X0136773Y0096356D01*
X0136525Y0096405D01*
X0135001Y0096405D01*
X0134753Y0096356D01*
X0134543Y0096216D01*
X0134403Y0096006D01*
X0134354Y0095758D01*
X0132092Y0095758D01*
X0132043Y0096006D01*
X0131903Y0096216D01*
X0131693Y0096356D01*
X0131445Y0096405D01*
X0129921Y0096405D01*
X0129673Y0096356D01*
X0129463Y0096216D01*
X0129413Y0096141D01*
X0129363Y0096216D01*
X0129153Y0096356D01*
X0128905Y0096405D01*
X0127381Y0096405D01*
X0127133Y0096356D01*
X0126923Y0096216D01*
X0126873Y0096141D01*
X0126823Y0096216D01*
X0126613Y0096356D01*
X0126365Y0096405D01*
X0124841Y0096405D01*
X0124593Y0096356D01*
X0124383Y0096216D01*
X0124243Y0096006D01*
X0124194Y0095758D01*
X0121932Y0095758D01*
X0121883Y0096006D01*
X0121743Y0096216D01*
X0121533Y0096356D01*
X0121285Y0096405D01*
X0119761Y0096405D01*
X0119513Y0096356D01*
X0119303Y0096216D01*
X0119163Y0096006D01*
X0119114Y0095758D01*
X0104787Y0095758D01*
X0104738Y0096006D01*
X0104598Y0096216D01*
X0104388Y0096356D01*
X0104140Y0096405D01*
X0102616Y0096405D01*
X0102368Y0096356D01*
X0102158Y0096216D01*
X0102108Y0096141D01*
X0102058Y0096216D01*
X0101848Y0096356D01*
X0101600Y0096405D01*
X0100076Y0096405D01*
X0099828Y0096356D01*
X0099618Y0096216D01*
X0099568Y0096141D01*
X0099518Y0096216D01*
X0099308Y0096356D01*
X0099060Y0096405D01*
X0097536Y0096405D01*
X0097288Y0096356D01*
X0097078Y0096216D01*
X0097028Y0096141D01*
X0096978Y0096216D01*
X0096768Y0096356D01*
X0096520Y0096405D01*
X0094996Y0096405D01*
X0094748Y0096356D01*
X0094538Y0096216D01*
X0094488Y0096141D01*
X0094438Y0096216D01*
X0094228Y0096356D01*
X0093980Y0096405D01*
X0092456Y0096405D01*
X0092208Y0096356D01*
X0091998Y0096216D01*
X0091858Y0096006D01*
X0091809Y0095758D01*
X0081507Y0095758D01*
X0081507Y0100357D01*
X0160809Y0100357D01*
X0160809Y0000735D01*
X0160809Y0000735D01*
G37*
X0160809Y0000735D02*
X0081507Y0000735D01*
X0081507Y0005131D01*
X0093588Y0005131D01*
X0093588Y0004521D01*
X0093822Y0003956D01*
X0094253Y0003525D01*
X0094818Y0003291D01*
X0095428Y0003291D01*
X0095993Y0003525D01*
X0096424Y0003956D01*
X0096658Y0004521D01*
X0096658Y0005131D01*
X0096424Y0005696D01*
X0095993Y0006127D01*
X0095428Y0006361D01*
X0094818Y0006361D01*
X0094253Y0006127D01*
X0093822Y0005696D01*
X0093588Y0005131D01*
X0081507Y0005131D01*
X0081507Y0013287D01*
X0095358Y0013287D01*
X0095358Y0012875D01*
X0095516Y0012495D01*
X0095807Y0012204D01*
X0096187Y0012046D01*
X0096599Y0012046D01*
X0096979Y0012204D01*
X0097270Y0012495D01*
X0097428Y0012875D01*
X0097428Y0012935D01*
X0099268Y0014775D01*
X0099268Y0010011D01*
X0099193Y0009996D01*
X0098983Y0009856D01*
X0098843Y0009646D01*
X0098794Y0009398D01*
X0098794Y0007874D01*
X0098843Y0007626D01*
X0098983Y0007416D01*
X0099058Y0007366D01*
X0098983Y0007316D01*
X0098843Y0007106D01*
X0098794Y0006858D01*
X0098794Y0005334D01*
X0098843Y0005086D01*
X0098983Y0004876D01*
X0099193Y0004736D01*
X0099441Y0004687D01*
X0100965Y0004687D01*
X0101213Y0004736D01*
X0101423Y0004876D01*
X0101563Y0005086D01*
X0101612Y0005334D01*
X0101612Y0006858D01*
X0101563Y0007106D01*
X0101423Y0007316D01*
X0101348Y0007366D01*
X0101423Y0007416D01*
X0101563Y0007626D01*
X0101612Y0007874D01*
X0101612Y0009398D01*
X0101563Y0009646D01*
X0101423Y0009856D01*
X0101213Y0009996D01*
X0101138Y0010011D01*
X0101138Y0011987D01*
X0136548Y0011987D01*
X0136548Y0011137D01*
X0136873Y0010353D01*
X0137474Y0009752D01*
X0138258Y0009427D01*
X0139108Y0009427D01*
X0139892Y0009752D01*
X0140493Y0010353D01*
X0140818Y0011137D01*
X0140818Y0011987D01*
X0141248Y0011987D01*
X0141248Y0011137D01*
X0141573Y0010353D01*
X0142174Y0009752D01*
X0142958Y0009427D01*
X0143808Y0009427D01*
X0144592Y0009752D01*
X0145193Y0010353D01*
X0145518Y0011137D01*
X0145518Y0011987D01*
X0145948Y0011987D01*
X0145948Y0011137D01*
X0146273Y0010353D01*
X0146874Y0009752D01*
X0147658Y0009427D01*
X0148508Y0009427D01*
X0149292Y0009752D01*
X0149893Y0010353D01*
X0150218Y0011137D01*
X0150218Y0011987D01*
X0149893Y0012771D01*
X0149292Y0013372D01*
X0148508Y0013697D01*
X0147658Y0013697D01*
X0146874Y0013372D01*
X0146273Y0012771D01*
X0145948Y0011987D01*
X0145518Y0011987D01*
X0145193Y0012771D01*
X0144592Y0013372D01*
X0143808Y0013697D01*
X0142958Y0013697D01*
X0142174Y0013372D01*
X0141573Y0012771D01*
X0141248Y0011987D01*
X0140818Y0011987D01*
X0140493Y0012771D01*
X0139892Y0013372D01*
X0139108Y0013697D01*
X0138258Y0013697D01*
X0137474Y0013372D01*
X0136873Y0012771D01*
X0136548Y0011987D01*
X0101138Y0011987D01*
X0101138Y0015234D01*
X0103974Y0018070D01*
X0104052Y0018122D01*
X0104259Y0018431D01*
X0104313Y0018704D01*
X0104331Y0018796D01*
X0104313Y0018888D01*
X0104313Y0023176D01*
X0106413Y0023176D01*
X0106413Y0022606D01*
X0106631Y0022078D01*
X0107035Y0021674D01*
X0107563Y0021456D01*
X0108133Y0021456D01*
X0108661Y0021674D01*
X0109065Y0022078D01*
X0109283Y0022606D01*
X0109283Y0023127D01*
X0127663Y0023127D01*
X0127663Y0022655D01*
X0127843Y0022220D01*
X0128177Y0021886D01*
X0128612Y0021706D01*
X0129084Y0021706D01*
X0129519Y0021886D01*
X0129853Y0022220D01*
X0130033Y0022655D01*
X0130033Y0023127D01*
X0129853Y0023562D01*
X0129519Y0023896D01*
X0129084Y0024076D01*
X0128612Y0024076D01*
X0128177Y0023896D01*
X0127843Y0023562D01*
X0127663Y0023127D01*
X0109283Y0023127D01*
X0109283Y0023176D01*
X0109065Y0023704D01*
X0108661Y0024108D01*
X0108133Y0024326D01*
X0107563Y0024326D01*
X0107035Y0024108D01*
X0106631Y0023704D01*
X0106413Y0023176D01*
X0104313Y0023176D01*
X0104313Y0024638D01*
X0155309Y0024638D01*
X0155309Y0023114D01*
X0155358Y0022866D01*
X0155498Y0022656D01*
X0155573Y0022606D01*
X0155498Y0022556D01*
X0155358Y0022346D01*
X0155309Y0022098D01*
X0155309Y0020574D01*
X0155358Y0020326D01*
X0155498Y0020116D01*
X0155573Y0020066D01*
X0155498Y0020016D01*
X0155358Y0019806D01*
X0155309Y0019558D01*
X0155309Y0018034D01*
X0155358Y0017786D01*
X0155498Y0017576D01*
X0155573Y0017526D01*
X0155498Y0017476D01*
X0155358Y0017266D01*
X0155309Y0017018D01*
X0155309Y0015494D01*
X0155358Y0015246D01*
X0155498Y0015036D01*
X0155573Y0014986D01*
X0155498Y0014936D01*
X0155358Y0014726D01*
X0155309Y0014478D01*
X0155309Y0012954D01*
X0155358Y0012706D01*
X0155498Y0012496D01*
X0155573Y0012446D01*
X0155498Y0012396D01*
X0155358Y0012186D01*
X0155309Y0011938D01*
X0155309Y0010414D01*
X0155358Y0010166D01*
X0155498Y0009956D01*
X0155708Y0009816D01*
X0155956Y0009767D01*
X0157480Y0009767D01*
X0157728Y0009816D01*
X0157938Y0009956D01*
X0158078Y0010166D01*
X0158127Y0010414D01*
X0158127Y0011938D01*
X0158078Y0012186D01*
X0157938Y0012396D01*
X0157863Y0012446D01*
X0157938Y0012496D01*
X0158078Y0012706D01*
X0158127Y0012954D01*
X0158127Y0014478D01*
X0158078Y0014726D01*
X0157938Y0014936D01*
X0157863Y0014986D01*
X0157938Y0015036D01*
X0158078Y0015246D01*
X0158127Y0015494D01*
X0158127Y0017018D01*
X0158078Y0017266D01*
X0157938Y0017476D01*
X0157863Y0017526D01*
X0157938Y0017576D01*
X0158078Y0017786D01*
X0158127Y0018034D01*
X0158127Y0019558D01*
X0158078Y0019806D01*
X0157938Y0020016D01*
X0157863Y0020066D01*
X0157938Y0020116D01*
X0158078Y0020326D01*
X0158127Y0020574D01*
X0158127Y0022098D01*
X0158078Y0022346D01*
X0157938Y0022556D01*
X0157863Y0022606D01*
X0157938Y0022656D01*
X0158078Y0022866D01*
X0158127Y0023114D01*
X0158127Y0024638D01*
X0158078Y0024886D01*
X0157938Y0025096D01*
X0157728Y0025236D01*
X0157480Y0025285D01*
X0155956Y0025285D01*
X0155708Y0025236D01*
X0155498Y0025096D01*
X0155358Y0024886D01*
X0155309Y0024638D01*
X0104313Y0024638D01*
X0104313Y0034606D01*
X0106413Y0034606D01*
X0106413Y0034036D01*
X0106631Y0033508D01*
X0107035Y0033104D01*
X0107563Y0032886D01*
X0108133Y0032886D01*
X0108661Y0033104D01*
X0109065Y0033508D01*
X0109283Y0034036D01*
X0109283Y0034557D01*
X0127663Y0034557D01*
X0127663Y0034085D01*
X0127843Y0033650D01*
X0128177Y0033316D01*
X0128612Y0033136D01*
X0129084Y0033136D01*
X0129519Y0033316D01*
X0129543Y0033340D01*
X0131628Y0033340D01*
X0131628Y0032192D01*
X0132067Y0031132D01*
X0132879Y0030320D01*
X0133939Y0029881D01*
X0135087Y0029881D01*
X0136147Y0030320D01*
X0136959Y0031132D01*
X0137398Y0032192D01*
X0137398Y0033340D01*
X0136959Y0034400D01*
X0136147Y0035212D01*
X0135087Y0035651D01*
X0133939Y0035651D01*
X0132879Y0035212D01*
X0132067Y0034400D01*
X0131628Y0033340D01*
X0129543Y0033340D01*
X0129853Y0033650D01*
X0130033Y0034085D01*
X0130033Y0034557D01*
X0129853Y0034992D01*
X0129519Y0035326D01*
X0129084Y0035506D01*
X0128612Y0035506D01*
X0128177Y0035326D01*
X0127843Y0034992D01*
X0127663Y0034557D01*
X0109283Y0034557D01*
X0109283Y0034606D01*
X0109065Y0035134D01*
X0108661Y0035538D01*
X0108133Y0035756D01*
X0107563Y0035756D01*
X0107035Y0035538D01*
X0106631Y0035134D01*
X0106413Y0034606D01*
X0104313Y0034606D01*
X0104313Y0050439D01*
X0109528Y0055654D01*
X0109528Y0055073D01*
X0109528Y0055073D01*
X0109528Y0044825D01*
X0109486Y0044782D01*
X0109328Y0044402D01*
X0109328Y0043990D01*
X0109486Y0043610D01*
X0109777Y0043319D01*
X0110157Y0043161D01*
X0110569Y0043161D01*
X0110949Y0043319D01*
X0111240Y0043610D01*
X0111398Y0043990D01*
X0111398Y0044402D01*
X0111240Y0044782D01*
X0111198Y0044825D01*
X0111198Y0056475D01*
X0112068Y0057345D01*
X0112068Y0056343D01*
X0112068Y0056343D01*
X0112068Y0044825D01*
X0112026Y0044782D01*
X0111868Y0044402D01*
X0111868Y0043990D01*
X0112026Y0043610D01*
X0112317Y0043319D01*
X0112697Y0043161D01*
X0113109Y0043161D01*
X0113489Y0043319D01*
X0113780Y0043610D01*
X0113938Y0043990D01*
X0113938Y0044402D01*
X0113780Y0044782D01*
X0113738Y0044825D01*
X0113738Y0058167D01*
X0119688Y0064117D01*
X0119688Y0062693D01*
X0119688Y0062693D01*
X0119688Y0044825D01*
X0119646Y0044782D01*
X0119488Y0044402D01*
X0119488Y0043990D01*
X0119646Y0043610D01*
X0119937Y0043319D01*
X0120317Y0043161D01*
X0120729Y0043161D01*
X0121109Y0043319D01*
X0121400Y0043610D01*
X0121558Y0043990D01*
X0121558Y0044402D01*
X0121400Y0044782D01*
X0121358Y0044825D01*
X0121358Y0064938D01*
X0124768Y0068348D01*
X0124768Y0057527D01*
X0124768Y0057527D01*
X0124768Y0044825D01*
X0124726Y0044782D01*
X0124568Y0044402D01*
X0124568Y0043990D01*
X0124726Y0043610D01*
X0125017Y0043319D01*
X0125397Y0043161D01*
X0125809Y0043161D01*
X0126189Y0043319D01*
X0126480Y0043610D01*
X0126638Y0043990D01*
X0126638Y0044402D01*
X0126480Y0044782D01*
X0126438Y0044825D01*
X0126438Y0069170D01*
X0129864Y0072596D01*
X0130097Y0072364D01*
X0130477Y0072206D01*
X0130483Y0072206D01*
X0130483Y0062058D01*
X0130467Y0061976D01*
X0130531Y0061650D01*
X0130639Y0061489D01*
X0130716Y0061374D01*
X0130786Y0061327D01*
X0134093Y0058020D01*
X0134093Y0057960D01*
X0134251Y0057580D01*
X0134542Y0057289D01*
X0134922Y0057131D01*
X0135334Y0057131D01*
X0135398Y0057158D01*
X0135398Y0039912D01*
X0135366Y0039751D01*
X0135464Y0039257D01*
X0135493Y0039113D01*
X0135854Y0038572D01*
X0135991Y0038481D01*
X0142748Y0031724D01*
X0142839Y0031587D01*
X0143126Y0031396D01*
X0143380Y0031226D01*
X0144018Y0031099D01*
X0144179Y0031131D01*
X0149484Y0031131D01*
X0150088Y0030881D01*
X0150838Y0030881D01*
X0151531Y0031168D01*
X0152061Y0031698D01*
X0152293Y0032258D01*
X0152769Y0032258D01*
X0152769Y0030734D01*
X0152818Y0030486D01*
X0152958Y0030276D01*
X0153168Y0030136D01*
X0153416Y0030087D01*
X0154940Y0030087D01*
X0155188Y0030136D01*
X0155398Y0030276D01*
X0155448Y0030351D01*
X0155498Y0030276D01*
X0155708Y0030136D01*
X0155956Y0030087D01*
X0157480Y0030087D01*
X0157728Y0030136D01*
X0157938Y0030276D01*
X0158078Y0030486D01*
X0158127Y0030734D01*
X0158127Y0032258D01*
X0158078Y0032506D01*
X0157938Y0032716D01*
X0157728Y0032856D01*
X0157480Y0032905D01*
X0155956Y0032905D01*
X0155708Y0032856D01*
X0155498Y0032716D01*
X0155448Y0032641D01*
X0155398Y0032716D01*
X0155188Y0032856D01*
X0154940Y0032905D01*
X0153416Y0032905D01*
X0153168Y0032856D01*
X0152958Y0032716D01*
X0152818Y0032506D01*
X0152769Y0032258D01*
X0152293Y0032258D01*
X0152348Y0032391D01*
X0152348Y0033141D01*
X0152061Y0033834D01*
X0151531Y0034364D01*
X0150838Y0034651D01*
X0150088Y0034651D01*
X0149484Y0034401D01*
X0147020Y0034401D01*
X0147020Y0035471D01*
X0146971Y0035719D01*
X0146831Y0035929D01*
X0146621Y0036069D01*
X0146373Y0036118D01*
X0145473Y0036118D01*
X0145225Y0036069D01*
X0145015Y0035929D01*
X0144875Y0035719D01*
X0144841Y0035550D01*
X0144757Y0035754D01*
X0144466Y0036045D01*
X0144085Y0036202D01*
X0144025Y0036202D01*
X0140439Y0039788D01*
X0140560Y0039909D01*
X0140660Y0040151D01*
X0141022Y0040513D01*
X0152769Y0040513D01*
X0152769Y0038989D01*
X0152818Y0038741D01*
X0152958Y0038531D01*
X0153033Y0038481D01*
X0152958Y0038431D01*
X0152818Y0038221D01*
X0152769Y0037973D01*
X0152769Y0036449D01*
X0152818Y0036201D01*
X0152958Y0035991D01*
X0153168Y0035851D01*
X0153416Y0035802D01*
X0154940Y0035802D01*
X0155188Y0035851D01*
X0155398Y0035991D01*
X0155538Y0036201D01*
X0155587Y0036449D01*
X0155587Y0037973D01*
X0155538Y0038221D01*
X0155398Y0038431D01*
X0155323Y0038481D01*
X0155398Y0038531D01*
X0155448Y0038606D01*
X0155498Y0038531D01*
X0155708Y0038391D01*
X0155956Y0038342D01*
X0157480Y0038342D01*
X0157728Y0038391D01*
X0157938Y0038531D01*
X0158078Y0038741D01*
X0158127Y0038989D01*
X0158127Y0040513D01*
X0158078Y0040761D01*
X0157938Y0040971D01*
X0157728Y0041111D01*
X0157480Y0041160D01*
X0155956Y0041160D01*
X0155708Y0041111D01*
X0155498Y0040971D01*
X0155448Y0040896D01*
X0155398Y0040971D01*
X0155188Y0041111D01*
X0154940Y0041160D01*
X0153416Y0041160D01*
X0153168Y0041111D01*
X0152958Y0040971D01*
X0152818Y0040761D01*
X0152769Y0040513D01*
X0141022Y0040513D01*
X0147154Y0046645D01*
X0147232Y0046697D01*
X0147284Y0046775D01*
X0147789Y0047280D01*
X0147867Y0047332D01*
X0147919Y0047410D01*
X0148215Y0047706D01*
X0152803Y0047706D01*
X0152818Y0047631D01*
X0152958Y0047421D01*
X0153033Y0047371D01*
X0152958Y0047321D01*
X0152818Y0047111D01*
X0152769Y0046863D01*
X0152769Y0045339D01*
X0152818Y0045091D01*
X0152958Y0044881D01*
X0153168Y0044741D01*
X0153416Y0044692D01*
X0154940Y0044692D01*
X0155188Y0044741D01*
X0155398Y0044881D01*
X0155448Y0044956D01*
X0155498Y0044881D01*
X0155708Y0044741D01*
X0155956Y0044692D01*
X0157480Y0044692D01*
X0157728Y0044741D01*
X0157938Y0044881D01*
X0158078Y0045091D01*
X0158127Y0045339D01*
X0158127Y0046863D01*
X0158078Y0047111D01*
X0157938Y0047321D01*
X0157863Y0047371D01*
X0157938Y0047421D01*
X0158078Y0047631D01*
X0158127Y0047879D01*
X0158127Y0049403D01*
X0158078Y0049651D01*
X0157938Y0049861D01*
X0157863Y0049911D01*
X0157938Y0049961D01*
X0158078Y0050171D01*
X0158127Y0050419D01*
X0158127Y0051943D01*
X0158078Y0052191D01*
X0157938Y0052401D01*
X0157728Y0052541D01*
X0157480Y0052590D01*
X0155956Y0052590D01*
X0155708Y0052541D01*
X0155498Y0052401D01*
X0155448Y0052326D01*
X0155398Y0052401D01*
X0155188Y0052541D01*
X0154940Y0052590D01*
X0153416Y0052590D01*
X0153168Y0052541D01*
X0152958Y0052401D01*
X0152818Y0052191D01*
X0152769Y0051943D01*
X0152769Y0050419D01*
X0152818Y0050171D01*
X0152958Y0049961D01*
X0153033Y0049911D01*
X0152958Y0049861D01*
X0152818Y0049651D01*
X0152803Y0049576D01*
X0148010Y0049576D01*
X0148063Y0049705D01*
X0148063Y0049925D01*
X0148919Y0050781D01*
X0149050Y0050781D01*
X0149430Y0050939D01*
X0149721Y0051230D01*
X0149879Y0051610D01*
X0149879Y0052022D01*
X0149721Y0052402D01*
X0149430Y0052693D01*
X0149050Y0052851D01*
X0148638Y0052851D01*
X0148258Y0052693D01*
X0147967Y0052402D01*
X0147809Y0052022D01*
X0147809Y0051891D01*
X0146864Y0050946D01*
X0146822Y0050946D01*
X0146442Y0050788D01*
X0146151Y0050497D01*
X0145993Y0050117D01*
X0145993Y0049705D01*
X0146151Y0049325D01*
X0146434Y0049041D01*
X0146237Y0049041D01*
X0145857Y0048883D01*
X0145566Y0048592D01*
X0145408Y0048212D01*
X0145408Y0047800D01*
X0145483Y0047619D01*
X0139468Y0041603D01*
X0139468Y0057537D01*
X0139510Y0057580D01*
X0139668Y0057960D01*
X0139668Y0058372D01*
X0139510Y0058752D01*
X0139219Y0059043D01*
X0138839Y0059201D01*
X0138668Y0059201D01*
X0138668Y0063839D01*
X0140742Y0065913D01*
X0152769Y0065913D01*
X0152769Y0064389D01*
X0152818Y0064141D01*
X0152958Y0063931D01*
X0153033Y0063881D01*
X0152958Y0063831D01*
X0152818Y0063621D01*
X0152769Y0063373D01*
X0152769Y0061849D01*
X0152818Y0061601D01*
X0152958Y0061391D01*
X0153033Y0061341D01*
X0152958Y0061291D01*
X0152818Y0061081D01*
X0152769Y0060833D01*
X0152769Y0059309D01*
X0152818Y0059061D01*
X0152958Y0058851D01*
X0153033Y0058801D01*
X0152958Y0058751D01*
X0152818Y0058541D01*
X0152769Y0058293D01*
X0152769Y0056769D01*
X0152818Y0056521D01*
X0152958Y0056311D01*
X0153168Y0056171D01*
X0153416Y0056122D01*
X0154940Y0056122D01*
X0155188Y0056171D01*
X0155398Y0056311D01*
X0155448Y0056386D01*
X0155498Y0056311D01*
X0155708Y0056171D01*
X0155956Y0056122D01*
X0157480Y0056122D01*
X0157728Y0056171D01*
X0157938Y0056311D01*
X0158078Y0056521D01*
X0158127Y0056769D01*
X0158127Y0058293D01*
X0158078Y0058541D01*
X0157938Y0058751D01*
X0157863Y0058801D01*
X0157938Y0058851D01*
X0158078Y0059061D01*
X0158127Y0059309D01*
X0158127Y0060833D01*
X0158078Y0061081D01*
X0157938Y0061291D01*
X0157863Y0061341D01*
X0157938Y0061391D01*
X0158078Y0061601D01*
X0158127Y0061849D01*
X0158127Y0063373D01*
X0158078Y0063621D01*
X0157938Y0063831D01*
X0157863Y0063881D01*
X0157938Y0063931D01*
X0158078Y0064141D01*
X0158127Y0064389D01*
X0158127Y0065913D01*
X0158078Y0066161D01*
X0157938Y0066371D01*
X0157728Y0066511D01*
X0157480Y0066560D01*
X0155956Y0066560D01*
X0155708Y0066511D01*
X0155498Y0066371D01*
X0155448Y0066296D01*
X0155398Y0066371D01*
X0155188Y0066511D01*
X0154940Y0066560D01*
X0153416Y0066560D01*
X0153168Y0066511D01*
X0152958Y0066371D01*
X0152818Y0066161D01*
X0152769Y0065913D01*
X0140742Y0065913D01*
X0144060Y0069231D01*
X0149484Y0069231D01*
X0150088Y0068981D01*
X0150838Y0068981D01*
X0151531Y0069268D01*
X0152061Y0069798D01*
X0152348Y0070491D01*
X0152348Y0071241D01*
X0154062Y0071241D01*
X0154062Y0070689D01*
X0154273Y0070180D01*
X0154663Y0069790D01*
X0155172Y0069579D01*
X0155724Y0069579D01*
X0156233Y0069790D01*
X0156623Y0070180D01*
X0156834Y0070689D01*
X0156834Y0071241D01*
X0156623Y0071750D01*
X0156233Y0072140D01*
X0155724Y0072351D01*
X0155172Y0072351D01*
X0154663Y0072140D01*
X0154273Y0071750D01*
X0154062Y0071241D01*
X0152348Y0071241D01*
X0152348Y0071241D01*
X0152061Y0071934D01*
X0151531Y0072464D01*
X0150838Y0072751D01*
X0150088Y0072751D01*
X0149484Y0072501D01*
X0143544Y0072501D01*
X0143383Y0072533D01*
X0143222Y0072501D01*
X0142745Y0072406D01*
X0142204Y0072045D01*
X0142113Y0071908D01*
X0135991Y0065786D01*
X0135854Y0065695D01*
X0135493Y0065154D01*
X0135454Y0064958D01*
X0135366Y0064516D01*
X0135398Y0064355D01*
X0135398Y0059174D01*
X0135334Y0059201D01*
X0135274Y0059201D01*
X0132153Y0062322D01*
X0132153Y0069146D01*
X0132879Y0068420D01*
X0133939Y0067981D01*
X0135087Y0067981D01*
X0136147Y0068420D01*
X0136959Y0069232D01*
X0137398Y0070292D01*
X0137398Y0071440D01*
X0136959Y0072500D01*
X0136147Y0073312D01*
X0135087Y0073751D01*
X0133939Y0073751D01*
X0133288Y0073481D01*
X0135929Y0076123D01*
X0154062Y0076123D01*
X0154062Y0075571D01*
X0154273Y0075062D01*
X0154663Y0074672D01*
X0155172Y0074461D01*
X0155724Y0074461D01*
X0156233Y0074672D01*
X0156623Y0075062D01*
X0156834Y0075571D01*
X0156834Y0076123D01*
X0156623Y0076632D01*
X0156233Y0077022D01*
X0155724Y0077233D01*
X0155172Y0077233D01*
X0154663Y0077022D01*
X0154273Y0076632D01*
X0154062Y0076123D01*
X0135929Y0076123D01*
X0136365Y0076558D01*
X0136435Y0076605D01*
X0136620Y0076881D01*
X0136622Y0076892D01*
X0136819Y0076974D01*
X0137110Y0077265D01*
X0137268Y0077645D01*
X0137268Y0078057D01*
X0137253Y0078092D01*
X0137619Y0078244D01*
X0137910Y0078535D01*
X0138068Y0078915D01*
X0138068Y0079327D01*
X0137973Y0079556D01*
X0139421Y0079556D01*
X0139504Y0079540D01*
X0139586Y0079556D01*
X0139586Y0079556D01*
X0139829Y0079604D01*
X0140106Y0079789D01*
X0140152Y0079859D01*
X0142082Y0081788D01*
X0152769Y0081788D01*
X0152769Y0080264D01*
X0152818Y0080016D01*
X0152958Y0079806D01*
X0153168Y0079666D01*
X0153416Y0079617D01*
X0154940Y0079617D01*
X0155188Y0079666D01*
X0155398Y0079806D01*
X0155448Y0079881D01*
X0155498Y0079806D01*
X0155708Y0079666D01*
X0155956Y0079617D01*
X0157480Y0079617D01*
X0157728Y0079666D01*
X0157938Y0079806D01*
X0158078Y0080016D01*
X0158127Y0080264D01*
X0158127Y0081788D01*
X0158078Y0082036D01*
X0157938Y0082246D01*
X0157728Y0082386D01*
X0157480Y0082435D01*
X0155956Y0082435D01*
X0155708Y0082386D01*
X0155498Y0082246D01*
X0155448Y0082171D01*
X0155398Y0082246D01*
X0155188Y0082386D01*
X0154940Y0082435D01*
X0153416Y0082435D01*
X0153168Y0082386D01*
X0152958Y0082246D01*
X0152818Y0082036D01*
X0152769Y0081788D01*
X0142082Y0081788D01*
X0145185Y0084892D01*
X0145255Y0084938D01*
X0145440Y0085215D01*
X0145451Y0085271D01*
X0146564Y0085271D01*
X0146607Y0085229D01*
X0146987Y0085071D01*
X0147399Y0085071D01*
X0147779Y0085229D01*
X0148070Y0085520D01*
X0148228Y0085900D01*
X0148228Y0086312D01*
X0148207Y0086362D01*
X0148257Y0086341D01*
X0148669Y0086341D01*
X0149049Y0086499D01*
X0149340Y0086790D01*
X0149498Y0087170D01*
X0149498Y0087582D01*
X0149340Y0087962D01*
X0149165Y0088138D01*
X0152769Y0088138D01*
X0152769Y0086614D01*
X0152818Y0086366D01*
X0152958Y0086156D01*
X0153033Y0086106D01*
X0152958Y0086056D01*
X0152818Y0085846D01*
X0152769Y0085598D01*
X0152769Y0084074D01*
X0152818Y0083826D01*
X0152958Y0083616D01*
X0153168Y0083476D01*
X0153416Y0083427D01*
X0154940Y0083427D01*
X0155188Y0083476D01*
X0155398Y0083616D01*
X0155448Y0083691D01*
X0155498Y0083616D01*
X0155708Y0083476D01*
X0155956Y0083427D01*
X0157480Y0083427D01*
X0157728Y0083476D01*
X0157938Y0083616D01*
X0158078Y0083826D01*
X0158127Y0084074D01*
X0158127Y0085598D01*
X0158078Y0085846D01*
X0157938Y0086056D01*
X0157863Y0086106D01*
X0157938Y0086156D01*
X0158078Y0086366D01*
X0158127Y0086614D01*
X0158127Y0088138D01*
X0158078Y0088386D01*
X0157938Y0088596D01*
X0157863Y0088646D01*
X0157938Y0088696D01*
X0158078Y0088906D01*
X0158127Y0089154D01*
X0158127Y0090678D01*
X0158078Y0090926D01*
X0157938Y0091136D01*
X0157728Y0091276D01*
X0157480Y0091325D01*
X0155956Y0091325D01*
X0155708Y0091276D01*
X0155498Y0091136D01*
X0155358Y0090926D01*
X0155309Y0090678D01*
X0155309Y0089154D01*
X0155358Y0088906D01*
X0155498Y0088696D01*
X0155573Y0088646D01*
X0155498Y0088596D01*
X0155448Y0088521D01*
X0155398Y0088596D01*
X0155188Y0088736D01*
X0154940Y0088785D01*
X0153416Y0088785D01*
X0153168Y0088736D01*
X0152958Y0088596D01*
X0152818Y0088386D01*
X0152769Y0088138D01*
X0149165Y0088138D01*
X0149049Y0088253D01*
X0148669Y0088411D01*
X0148257Y0088411D01*
X0147877Y0088253D01*
X0147834Y0088211D01*
X0143362Y0088211D01*
X0143319Y0088253D01*
X0142939Y0088411D01*
X0142527Y0088411D01*
X0142147Y0088253D01*
X0141856Y0087962D01*
X0141698Y0087582D01*
X0141698Y0087170D01*
X0141856Y0086790D01*
X0141898Y0086747D01*
X0141898Y0086437D01*
X0140349Y0084888D01*
X0140159Y0085078D01*
X0139779Y0085236D01*
X0139367Y0085236D01*
X0139317Y0085215D01*
X0139338Y0085265D01*
X0139338Y0085677D01*
X0139180Y0086057D01*
X0138889Y0086348D01*
X0138509Y0086506D01*
X0138097Y0086506D01*
X0137786Y0086377D01*
X0137658Y0086352D01*
X0137349Y0086145D01*
X0137297Y0086067D01*
X0127073Y0075843D01*
X0127073Y0079127D01*
X0127115Y0079170D01*
X0127273Y0079550D01*
X0127273Y0079962D01*
X0127115Y0080342D01*
X0126824Y0080633D01*
X0126444Y0080791D01*
X0126032Y0080791D01*
X0125652Y0080633D01*
X0125361Y0080342D01*
X0125203Y0079962D01*
X0125203Y0079550D01*
X0125361Y0079170D01*
X0125403Y0079127D01*
X0125403Y0075022D01*
X0102146Y0051765D01*
X0102076Y0051718D01*
X0101891Y0051442D01*
X0101843Y0051198D01*
X0101843Y0051198D01*
X0101827Y0051116D01*
X0101843Y0051034D01*
X0101843Y0019712D01*
X0096247Y0014116D01*
X0096187Y0014116D01*
X0095807Y0013958D01*
X0095516Y0013667D01*
X0095358Y0013287D01*
X0081507Y0013287D01*
X0081507Y0033340D01*
X0096028Y0033340D01*
X0096028Y0032192D01*
X0096467Y0031132D01*
X0097279Y0030320D01*
X0098339Y0029881D01*
X0099487Y0029881D01*
X0100547Y0030320D01*
X0101359Y0031132D01*
X0101798Y0032192D01*
X0101798Y0033340D01*
X0101359Y0034400D01*
X0100547Y0035212D01*
X0099487Y0035651D01*
X0098339Y0035651D01*
X0097279Y0035212D01*
X0096467Y0034400D01*
X0096028Y0033340D01*
X0081507Y0033340D01*
X0081507Y0071440D01*
X0096028Y0071440D01*
X0096028Y0070292D01*
X0096467Y0069232D01*
X0097279Y0068420D01*
X0098339Y0067981D01*
X0099487Y0067981D01*
X0100547Y0068420D01*
X0101359Y0069232D01*
X0101798Y0070292D01*
X0101798Y0071440D01*
X0101359Y0072500D01*
X0100547Y0073312D01*
X0099487Y0073751D01*
X0098339Y0073751D01*
X0097279Y0073312D01*
X0096467Y0072500D01*
X0096028Y0071440D01*
X0081507Y0071440D01*
X0081507Y0075517D01*
X0113773Y0075517D01*
X0113773Y0075105D01*
X0113873Y0074864D01*
X0113873Y0070678D01*
X0113773Y0070437D01*
X0113773Y0070025D01*
X0113931Y0069645D01*
X0114222Y0069354D01*
X0114602Y0069196D01*
X0115014Y0069196D01*
X0115394Y0069354D01*
X0115685Y0069645D01*
X0115843Y0070025D01*
X0115843Y0070437D01*
X0115743Y0070678D01*
X0115743Y0074864D01*
X0115843Y0075105D01*
X0115843Y0075517D01*
X0115685Y0075897D01*
X0115394Y0076188D01*
X0115014Y0076346D01*
X0114602Y0076346D01*
X0114222Y0076188D01*
X0113931Y0075897D01*
X0113773Y0075517D01*
X0081507Y0075517D01*
X0081507Y0095758D01*
X0091809Y0095758D01*
X0091809Y0094234D01*
X0091858Y0093986D01*
X0091998Y0093776D01*
X0092073Y0093726D01*
X0091998Y0093676D01*
X0091858Y0093466D01*
X0091809Y0093218D01*
X0091809Y0091694D01*
X0091858Y0091446D01*
X0091998Y0091236D01*
X0092208Y0091096D01*
X0092456Y0091047D01*
X0093980Y0091047D01*
X0094228Y0091096D01*
X0094438Y0091236D01*
X0094488Y0091311D01*
X0094538Y0091236D01*
X0094748Y0091096D01*
X0094996Y0091047D01*
X0096520Y0091047D01*
X0096768Y0091096D01*
X0096978Y0091236D01*
X0097028Y0091311D01*
X0097078Y0091236D01*
X0097288Y0091096D01*
X0097536Y0091047D01*
X0099060Y0091047D01*
X0099308Y0091096D01*
X0099518Y0091236D01*
X0099568Y0091311D01*
X0099618Y0091236D01*
X0099828Y0091096D01*
X0100076Y0091047D01*
X0101600Y0091047D01*
X0101848Y0091096D01*
X0102058Y0091236D01*
X0102108Y0091311D01*
X0102158Y0091236D01*
X0102368Y0091096D01*
X0102616Y0091047D01*
X0104140Y0091047D01*
X0104388Y0091096D01*
X0104598Y0091236D01*
X0104738Y0091446D01*
X0104787Y0091694D01*
X0104787Y0093218D01*
X0104738Y0093466D01*
X0104598Y0093676D01*
X0104523Y0093726D01*
X0104598Y0093776D01*
X0104738Y0093986D01*
X0104787Y0094234D01*
X0104787Y0095758D01*
X0119114Y0095758D01*
X0119114Y0094234D01*
X0119163Y0093986D01*
X0119303Y0093776D01*
X0119378Y0093726D01*
X0119303Y0093676D01*
X0119163Y0093466D01*
X0119114Y0093218D01*
X0119114Y0091694D01*
X0119163Y0091446D01*
X0119303Y0091236D01*
X0119513Y0091096D01*
X0119761Y0091047D01*
X0121285Y0091047D01*
X0121533Y0091096D01*
X0121743Y0091236D01*
X0121883Y0091446D01*
X0121932Y0091694D01*
X0121932Y0093218D01*
X0121883Y0093466D01*
X0121743Y0093676D01*
X0121668Y0093726D01*
X0121743Y0093776D01*
X0121883Y0093986D01*
X0121932Y0094234D01*
X0121932Y0095758D01*
X0124194Y0095758D01*
X0124194Y0094234D01*
X0124243Y0093986D01*
X0124383Y0093776D01*
X0124458Y0093726D01*
X0124383Y0093676D01*
X0124243Y0093466D01*
X0124194Y0093218D01*
X0124194Y0091694D01*
X0124243Y0091446D01*
X0124383Y0091236D01*
X0124593Y0091096D01*
X0124841Y0091047D01*
X0126365Y0091047D01*
X0126613Y0091096D01*
X0126823Y0091236D01*
X0126873Y0091311D01*
X0126923Y0091236D01*
X0127133Y0091096D01*
X0127381Y0091047D01*
X0128905Y0091047D01*
X0129153Y0091096D01*
X0129363Y0091236D01*
X0129413Y0091311D01*
X0129463Y0091236D01*
X0129673Y0091096D01*
X0129921Y0091047D01*
X0131445Y0091047D01*
X0131693Y0091096D01*
X0131903Y0091236D01*
X0132043Y0091446D01*
X0132092Y0091694D01*
X0132092Y0093218D01*
X0132043Y0093466D01*
X0131903Y0093676D01*
X0131828Y0093726D01*
X0131903Y0093776D01*
X0132043Y0093986D01*
X0132092Y0094234D01*
X0132092Y0095758D01*
X0134354Y0095758D01*
X0134354Y0094234D01*
X0134403Y0093986D01*
X0134543Y0093776D01*
X0134618Y0093726D01*
X0134543Y0093676D01*
X0134403Y0093466D01*
X0134354Y0093218D01*
X0134354Y0091694D01*
X0134403Y0091446D01*
X0134543Y0091236D01*
X0134753Y0091096D01*
X0135001Y0091047D01*
X0136525Y0091047D01*
X0136773Y0091096D01*
X0136983Y0091236D01*
X0137123Y0091446D01*
X0137172Y0091694D01*
X0137172Y0093218D01*
X0137123Y0093466D01*
X0136983Y0093676D01*
X0136908Y0093726D01*
X0136983Y0093776D01*
X0137123Y0093986D01*
X0137172Y0094234D01*
X0137172Y0095758D01*
X0141974Y0095758D01*
X0141974Y0094234D01*
X0142023Y0093986D01*
X0142163Y0093776D01*
X0142238Y0093726D01*
X0142163Y0093676D01*
X0142023Y0093466D01*
X0141974Y0093218D01*
X0141974Y0091694D01*
X0142023Y0091446D01*
X0142163Y0091236D01*
X0142373Y0091096D01*
X0142621Y0091047D01*
X0144145Y0091047D01*
X0144393Y0091096D01*
X0144603Y0091236D01*
X0144653Y0091311D01*
X0144703Y0091236D01*
X0144913Y0091096D01*
X0145161Y0091047D01*
X0146685Y0091047D01*
X0146933Y0091096D01*
X0147143Y0091236D01*
X0147193Y0091311D01*
X0147243Y0091236D01*
X0147453Y0091096D01*
X0147701Y0091047D01*
X0149225Y0091047D01*
X0149473Y0091096D01*
X0149683Y0091236D01*
X0149823Y0091446D01*
X0149872Y0091694D01*
X0149872Y0093218D01*
X0149823Y0093466D01*
X0149683Y0093676D01*
X0149608Y0093726D01*
X0149683Y0093776D01*
X0149823Y0093986D01*
X0149872Y0094234D01*
X0149872Y0095758D01*
X0149823Y0096006D01*
X0149683Y0096216D01*
X0149473Y0096356D01*
X0149225Y0096405D01*
X0147701Y0096405D01*
X0147453Y0096356D01*
X0147243Y0096216D01*
X0147193Y0096141D01*
X0147143Y0096216D01*
X0146933Y0096356D01*
X0146685Y0096405D01*
X0145161Y0096405D01*
X0144913Y0096356D01*
X0144703Y0096216D01*
X0144653Y0096141D01*
X0144603Y0096216D01*
X0144393Y0096356D01*
X0144145Y0096405D01*
X0142621Y0096405D01*
X0142373Y0096356D01*
X0142163Y0096216D01*
X0142023Y0096006D01*
X0141974Y0095758D01*
X0137172Y0095758D01*
X0137123Y0096006D01*
X0136983Y0096216D01*
X0136773Y0096356D01*
X0136525Y0096405D01*
X0135001Y0096405D01*
X0134753Y0096356D01*
X0134543Y0096216D01*
X0134403Y0096006D01*
X0134354Y0095758D01*
X0132092Y0095758D01*
X0132043Y0096006D01*
X0131903Y0096216D01*
X0131693Y0096356D01*
X0131445Y0096405D01*
X0129921Y0096405D01*
X0129673Y0096356D01*
X0129463Y0096216D01*
X0129413Y0096141D01*
X0129363Y0096216D01*
X0129153Y0096356D01*
X0128905Y0096405D01*
X0127381Y0096405D01*
X0127133Y0096356D01*
X0126923Y0096216D01*
X0126873Y0096141D01*
X0126823Y0096216D01*
X0126613Y0096356D01*
X0126365Y0096405D01*
X0124841Y0096405D01*
X0124593Y0096356D01*
X0124383Y0096216D01*
X0124243Y0096006D01*
X0124194Y0095758D01*
X0121932Y0095758D01*
X0121883Y0096006D01*
X0121743Y0096216D01*
X0121533Y0096356D01*
X0121285Y0096405D01*
X0119761Y0096405D01*
X0119513Y0096356D01*
X0119303Y0096216D01*
X0119163Y0096006D01*
X0119114Y0095758D01*
X0104787Y0095758D01*
X0104738Y0096006D01*
X0104598Y0096216D01*
X0104388Y0096356D01*
X0104140Y0096405D01*
X0102616Y0096405D01*
X0102368Y0096356D01*
X0102158Y0096216D01*
X0102108Y0096141D01*
X0102058Y0096216D01*
X0101848Y0096356D01*
X0101600Y0096405D01*
X0100076Y0096405D01*
X0099828Y0096356D01*
X0099618Y0096216D01*
X0099568Y0096141D01*
X0099518Y0096216D01*
X0099308Y0096356D01*
X0099060Y0096405D01*
X0097536Y0096405D01*
X0097288Y0096356D01*
X0097078Y0096216D01*
X0097028Y0096141D01*
X0096978Y0096216D01*
X0096768Y0096356D01*
X0096520Y0096405D01*
X0094996Y0096405D01*
X0094748Y0096356D01*
X0094538Y0096216D01*
X0094488Y0096141D01*
X0094438Y0096216D01*
X0094228Y0096356D01*
X0093980Y0096405D01*
X0092456Y0096405D01*
X0092208Y0096356D01*
X0091998Y0096216D01*
X0091858Y0096006D01*
X0091809Y0095758D01*
X0081507Y0095758D01*
X0081507Y0100357D01*
X0160809Y0100357D01*
X0160809Y0000735D01*
M02*
