M48
METRIC,000.000             
%
T01C0.400000
X4826Y9398
X5842Y9398
X5842Y8382
X6604Y30988
X6858Y9398
X6858Y8382
X7366Y11938
X7874Y9906
X7874Y8890
X7874Y7874
X7874Y10922
X9906Y13462
X10922Y12954
X12192Y15240
X12192Y13970
X12192Y12954
X13208Y29210
X13208Y16256
X13462Y12954
X14478Y16256
X15748Y16256
X15748Y14986
X16764Y16256
X16764Y14986
X17341Y23857
X17341Y22841
X17341Y21825
X17341Y20809
X17341Y19793
X17526Y26162
X17526Y25146
X17526Y18542
X17526Y17272
X17780Y30226
X17780Y29210
X17780Y28194
X17780Y27178
X17780Y1270
X18288Y2286
X18542Y26162
X18542Y25146
X18542Y18542
X18542Y17272
X18548Y23857
X18548Y22841
X18548Y21825
X18548Y20809
X18548Y19793
X18796Y1270
X19050Y31242
X19050Y30226
X19050Y29210
X19050Y28194
X19050Y27178
X19304Y32258
X19558Y26162
X19558Y25146
X19558Y18542
X19558Y17272
X19558Y6350
X19558Y5080
X19558Y3810
X19558Y2286
X19742Y23857
X19755Y22841
X19755Y21825
X19755Y20809
X19755Y19793
X19812Y7874
X19812Y1270
X20066Y31242
X20066Y30226
X20066Y29210
X20066Y28194
X20574Y10668
X20620Y32258
X21082Y1270
X21590Y38608
X22352Y1270
X22606Y10922
X23114Y22606
X23114Y21590
X23114Y20574
X23622Y38862
X24130Y22606
X24130Y21590
X24130Y20574
X24638Y29718
X24892Y38862
X24892Y28448
X25146Y22606
X25146Y21590
X25146Y20574
X26162Y38862
X26162Y22606
X26162Y21590
X26162Y20574
X26162Y12954
X26416Y26416
X27178Y27940
X27432Y38862
X27686Y26416
X28956Y38862
X28956Y32512
X28956Y31496
X28956Y11176
X28956Y1270
X30226Y31496
X30226Y1270
X30480Y38862
X30734Y11430
X30988Y36830
X30988Y35560
X30988Y34036
X30988Y32766
X30988Y7112
X30988Y5588
X30988Y4572
X30988Y3556
X30988Y2540
X31242Y1270
X31496Y31496
X31496Y17272
X32004Y32766
X32258Y19558
X32258Y18034
X32512Y11430
X32766Y31496
X33528Y20066
X34798Y20066
X36068Y20066
X37084Y20066
X38100Y20066
X38608Y21844
X38608Y18796
X38608Y17780
X38862Y32512
X38862Y31242
X38862Y29464
X38862Y16510
X38862Y15240
X38862Y14224
X38862Y13208
X38862Y12192
X38862Y11176
X38862Y10160
X4826Y49530
X5842Y49530
X5842Y48514
X6604Y71120
X6858Y49530
X6858Y48514
X7366Y52070
X7874Y50038
X7874Y49022
X7874Y48006
X7874Y51054
X9906Y53594
X10922Y53086
X12192Y55372
X12192Y54102
X12192Y53086
X13208Y69342
X13208Y56388
X13462Y53086
X14478Y56388
X15748Y56388
X15748Y55118
X16764Y56388
X16764Y55118
X17341Y63989
X17341Y62973
X17341Y61957
X17341Y60941
X17341Y59925
X17526Y66294
X17526Y65278
X17526Y58674
X17526Y57404
X17780Y70358
X17780Y69342
X17780Y68326
X17780Y67310
X17780Y41402
X18288Y42418
X18542Y66294
X18542Y65278
X18542Y58674
X18542Y57404
X18548Y63989
X18548Y62973
X18548Y61957
X18548Y60941
X18548Y59925
X18796Y41402
X19050Y71374
X19050Y70358
X19050Y69342
X19050Y68326
X19050Y67310
X19304Y72390
X19558Y66294
X19558Y65278
X19558Y58674
X19558Y57404
X19558Y46482
X19558Y45212
X19558Y43942
X19558Y42418
X19742Y63989
X19755Y62973
X19755Y61957
X19755Y60941
X19755Y59925
X19812Y48006
X19812Y41402
X20066Y71374
X20066Y70358
X20066Y69342
X20066Y68326
X20574Y50800
X20620Y72390
X21082Y41402
X21590Y78740
X22352Y41402
X22606Y51054
X23114Y62738
X23114Y61722
X23114Y60706
X23622Y78994
X24130Y62738
X24130Y61722
X24130Y60706
X24638Y69850
X24892Y78994
X24892Y68580
X25146Y62738
X25146Y61722
X25146Y60706
X26162Y78994
X26162Y62738
X26162Y61722
X26162Y60706
X26162Y53086
X26416Y66548
X27178Y68072
X27432Y78994
X27686Y66548
X28956Y78994
X28956Y72644
X28956Y71628
X28956Y51308
X28956Y41402
X30226Y71628
X30226Y41402
X30480Y78994
X30734Y51562
X30988Y76962
X30988Y75692
X30988Y74168
X30988Y72898
X30988Y47244
X30988Y45720
X30988Y44704
X30988Y43688
X30988Y42672
X31242Y41402
X31496Y71628
X31496Y57404
X32004Y72898
X32258Y59690
X32258Y58166
X32512Y51562
X32766Y71628
X33528Y60198
X34798Y60198
X36068Y60198
X37084Y60198
X38100Y60198
X38608Y61976
X38608Y58928
X38608Y57912
X38862Y72644
X38862Y71374
X38862Y69596
X38862Y56642
X38862Y55372
X38862Y54356
X38862Y53340
X38862Y52324
X38862Y51308
X38862Y50292
X48768Y30099
X49022Y38100
X49022Y36830
X49022Y35560
X49022Y34290
X49022Y33020
X49022Y31750
X49784Y12446
X50292Y38100
X50292Y10922
X50292Y9652
X50292Y8128
X51054Y13716
X51562Y38100
X52324Y13716
X53086Y16891
X53594Y13716
X54610Y13716
X55245Y30734
X55753Y13716
X56388Y23876
X56896Y13716
X57404Y24384
X57912Y30734
X58039Y13716
X58547Y24638
X58923Y23997
X59309Y13716
X59563Y24765
X60325Y30734
X60706Y25019
X62738Y28448
X62992Y30734
X63500Y27178
X64008Y28448
X64516Y27178
X64770Y21336
X64770Y20320
X64805Y25376
X64805Y24376
X64805Y23376
X64805Y22376
X65532Y30734
X65532Y17272
X65786Y21336
X66005Y25376
X66005Y24376
X66005Y23376
X66005Y22376
X68072Y30734
X68072Y13716
X69088Y18796
X69342Y13716
X70612Y30734
X70612Y13716
X70665Y22376
X71755Y22987
X71838Y25253
X71882Y13716
X72517Y24511
X72771Y23384
X73152Y30734
X73152Y13716
X73279Y18415
X74422Y13716
X75692Y30734
X75692Y13716
X76962Y13716
X77470Y35814
X77470Y34798
X77470Y33782
X77470Y32766
X77470Y31750
X77470Y30480
X77978Y13716
X78994Y13716
X80264Y13716
X81026Y11430
X81026Y10160
X81026Y8890
X81280Y12700
X88392Y18415
X48768Y70231
X49022Y78232
X49022Y76962
X49022Y75692
X49022Y74422
X49022Y73152
X49022Y71882
X49784Y52578
X50292Y78232
X50292Y51054
X50292Y49784
X50292Y48260
X51054Y53848
X51562Y78232
X52324Y53848
X53086Y57023
X53594Y53848
X54610Y53848
X55245Y70866
X55753Y53848
X56388Y64008
X56896Y53848
X57404Y64516
X57912Y70866
X58039Y53848
X58547Y64770
X58923Y64129
X59309Y53848
X59563Y64897
X60325Y70866
X60706Y65151
X62738Y68580
X62992Y70866
X63500Y67310
X64008Y68580
X64516Y67310
X64770Y61468
X64770Y60452
X64805Y65508
X64805Y64508
X64805Y63508
X64805Y62508
X65532Y70866
X65532Y57404
X65786Y61468
X66005Y65508
X66005Y64508
X66005Y63508
X66005Y62508
X68072Y70866
X68072Y53848
X69088Y58928
X69342Y53848
X70612Y70866
X70612Y53848
X70665Y62508
X71755Y63119
X71838Y65385
X71882Y53848
X72517Y64643
X72771Y63516
X73152Y70866
X73152Y53848
X73279Y58547
X74422Y53848
X75692Y70866
X75692Y53848
X76962Y53848
X77470Y75946
X77470Y74930
X77470Y73914
X77470Y72898
X77470Y71882
X77470Y70612
X77978Y53848
X78994Y53848
X80264Y53848
X81026Y51562
X81026Y50292
X81026Y49022
X81280Y52832
X88392Y58547
X97536Y18034
X99822Y26924
X99822Y25654
X101092Y14986
X101092Y13970
X101092Y12954
X101346Y26924
X101346Y25654
X101346Y20066
X102108Y14986
X102108Y13970
X102108Y12954
X102616Y26924
X102616Y25654
X102616Y20066
X102870Y16002
X103124Y14986
X103124Y13970
X103124Y12954
X103632Y20066
X103886Y26924
X103886Y25654
X104140Y16002
X104902Y20066
X107442Y20574
X107442Y18034
X112268Y9144
X112268Y7874
X112268Y6604
X112268Y5334
X112268Y4064
X113538Y3556
X114808Y3556
X116078Y3556
X117348Y3556
X118364Y6858
X118364Y5588
X118364Y4318
X118618Y15494
X118618Y13970
X119888Y15240
X119888Y13970
X120142Y17018
X120904Y16256
X121666Y28194
X121666Y27178
X123190Y28194
X123190Y27178
X124460Y15494
X124968Y17526
X125730Y16256
X129286Y29718
X129286Y28448
X129286Y27432
X129286Y26162
X129286Y24638
X129286Y23368
X129286Y22098
X129286Y20320
X97536Y58166
X99822Y67056
X99822Y65786
X101092Y55118
X101092Y54102
X101092Y53086
X101346Y67056
X101346Y65786
X101346Y60198
X102108Y55118
X102108Y54102
X102108Y53086
X102616Y67056
X102616Y65786
X102616Y60198
X102870Y56134
X103124Y55118
X103124Y54102
X103124Y53086
X103632Y60198
X103886Y67056
X103886Y65786
X104140Y56134
X104902Y60198
X107442Y60706
X107442Y58166
X112268Y49276
X112268Y48006
X112268Y46736
X112268Y45466
X112268Y44196
X113538Y43688
X114808Y43688
X116078Y43688
X117348Y43688
X118364Y46990
X118364Y45720
X118364Y44450
X118618Y55626
X118618Y54102
X119888Y55372
X119888Y54102
X120142Y57150
X120904Y56388
X121666Y68326
X121666Y67310
X123190Y68326
X123190Y67310
X124460Y55626
X124968Y57658
X125730Y56388
X129286Y69850
X129286Y68580
X129286Y67564
X129286Y66294
X129286Y64770
X129286Y63500
X129286Y62230
X129286Y60452
T02C0.889000
X3556Y28702
X3556Y26162
X3556Y23622
X3556Y21082
X3556Y18542
X3556Y16002
X3556Y13462
X3556Y10922
X6096Y28702
X6096Y26162
X6096Y23622
X6096Y21082
X6096Y18542
X6096Y16002
X6096Y13462
X6096Y10922
X12954Y37084
X12954Y34544
X15494Y37084
X15494Y34544
X18034Y37084
X18034Y34544
X21336Y36576
X21336Y34036
X21336Y5842
X21336Y3302
X23876Y36576
X23876Y34036
X23876Y5842
X23876Y3302
X26416Y36576
X26416Y34036
X26416Y5842
X26416Y3302
X28194Y21336
X28956Y36576
X28956Y34036
X28956Y5842
X28956Y3302
X30734Y21336
X34036Y29464
X34036Y26924
X34036Y24384
X34036Y21844
X34036Y18288
X34036Y15748
X34036Y13208
X34036Y10668
X36576Y29464
X36576Y26924
X36576Y24384
X36576Y21844
X36576Y18288
X36576Y15748
X36576Y13208
X36576Y10668
X3556Y68834
X3556Y66294
X3556Y63754
X3556Y61214
X3556Y58674
X3556Y56134
X3556Y53594
X3556Y51054
X6096Y68834
X6096Y66294
X6096Y63754
X6096Y61214
X6096Y58674
X6096Y56134
X6096Y53594
X6096Y51054
X12954Y77216
X12954Y74676
X15494Y77216
X15494Y74676
X18034Y77216
X18034Y74676
X21336Y76708
X21336Y74168
X21336Y45974
X21336Y43434
X23876Y76708
X23876Y74168
X23876Y45974
X23876Y43434
X26416Y76708
X26416Y74168
X26416Y45974
X26416Y43434
X28194Y61468
X28956Y76708
X28956Y74168
X28956Y45974
X28956Y43434
X30734Y61468
X34036Y69596
X34036Y67056
X34036Y64516
X34036Y61976
X34036Y58420
X34036Y55880
X34036Y53340
X34036Y50800
X36576Y69596
X36576Y67056
X36576Y64516
X36576Y61976
X36576Y58420
X36576Y55880
X36576Y53340
X36576Y50800
X43053Y13716
X43053Y11176
X55245Y36703
X55245Y34163
X57912Y36703
X57912Y34163
X60452Y36703
X60452Y34163
X62992Y36703
X62992Y34163
X65532Y36703
X65532Y34163
X68072Y36703
X68072Y34163
X70612Y36703
X70612Y34163
X73152Y36703
X73152Y34163
X75692Y36703
X75692Y34163
X43053Y53848
X43053Y51308
X55245Y76835
X55245Y74295
X57912Y76835
X57912Y74295
X60452Y76835
X60452Y74295
X62992Y76835
X62992Y74295
X65532Y76835
X65532Y74295
X68072Y76835
X68072Y74295
X70612Y76835
X70612Y74295
X73152Y76835
X73152Y74295
X75692Y76835
X75692Y74295
X121920Y14224
X124968Y29718
X124968Y27178
X124968Y24638
X124968Y22098
X127508Y29718
X127508Y27178
X127508Y24638
X127508Y22098
X121920Y54356
X124968Y69850
X124968Y67310
X124968Y64770
X124968Y62230
X127508Y69850
X127508Y67310
X127508Y64770
X127508Y62230
T03C1.300000
X11684Y10160
X11684Y5160
X16764Y10160
X16764Y5160
X11684Y50292
X11684Y45292
X16764Y50292
X16764Y45292
X45165Y26289
X45165Y21336
X50165Y26289
X50165Y21336
X52959Y10668
X52959Y5668
X57912Y10668
X57912Y5668
X62992Y10668
X62992Y5668
X68072Y10668
X68072Y5668
X73152Y10668
X73152Y5668
X78232Y10668
X78232Y5668
X80264Y26289
X80264Y21336
X85264Y26289
X85264Y21336
X45165Y66421
X45165Y61468
X50165Y66421
X50165Y61468
X52959Y50800
X52959Y45800
X57912Y50800
X57912Y45800
X62992Y50800
X62992Y45800
X68072Y50800
X68072Y45800
X73152Y50800
X73152Y45800
X78232Y50800
X78232Y45800
X80264Y66421
X80264Y61468
X85264Y66421
X85264Y61468
X102362Y10160
X102362Y5160
X102616Y34972
X102616Y29972
X107442Y10160
X107442Y5160
X107696Y34972
X107696Y29972
X113284Y37338
X113284Y27686
X113297Y32766
X113297Y23114
X118364Y37338
X118364Y27686
X118377Y32766
X118377Y23114
X102362Y50292
X102362Y45292
X102616Y75104
X102616Y70104
X107442Y50292
X107442Y45292
X107696Y75104
X107696Y70104
X113284Y77470
X113284Y67818
X113297Y72898
X113297Y63246
X118364Y77470
X118364Y67818
X118377Y72898
X118377Y63246
T04C2.700000
X95536Y14732
X95536Y54864
T05C2.800000
X115316Y12954
X115316Y6754
X120316Y9854
X115316Y53086
X115316Y46886
X120316Y49986
T06C3.000000
X4826Y35306
X4826Y4826
X35306Y35306
X35306Y4826
X4826Y75438
X4826Y44958
X35306Y75438
X35306Y44958
X44958Y35306
X44958Y4826
X85598Y35306
X85598Y4826
X44958Y75438
X44958Y44958
X85598Y75438
X85598Y44958
X95250Y35306
X95250Y4826
X125730Y35306
X125730Y4826
X95250Y75438
X95250Y44958
X125730Y75438
X125730Y44958
M30
