G75*
G71*
%MOMM*%
%OFA0B0*%
%FSLAX53Y53*%
%IPPOS*%
%LPD*%
%ADD10C,0.40000*%
%ADD12C,0.30000*%
%ADD13C,0.20000*%
%ADD14C,1.30000*%
%ADD15C,0.25400*%
%ADD17C,0.50000*%
%ADD20R,1.52400X1.52400*%
%ADD26C,0.60000*%
%ADD27C,0.80000*%
%ADD29R,3.81000X3.81000*%
%ADD33C,0.25000*%
%ADD40C,6.00000*%
X0000000Y0000000D02*
%LPD*%
G01*
D14*
D27*
X0017342Y0023857D03*
X0017342Y0022841D03*
X0017342Y0021825D03*
X0017342Y0020809D03*
X0017342Y0019793D03*
X0018548Y0023857D03*
X0018548Y0022841D03*
X0018548Y0021825D03*
X0018548Y0020809D03*
X0018548Y0019793D03*
X0019742Y0023857D03*
X0019755Y0022841D03*
X0019755Y0021825D03*
X0019755Y0020809D03*
X0019755Y0019793D03*
D40*
X0004826Y0004826D03*
X0035306Y0004826D03*
X0035306Y0035306D03*
X0004826Y0035306D03*
D29*
X0016764Y0010160D03*
X0016764Y0005160D03*
X0011684Y0005160D03*
X0011684Y0010160D03*
D20*
X0006096Y0028702D03*
X0003556Y0028702D03*
X0012954Y0034544D03*
X0012954Y0037084D03*
X0003556Y0013462D03*
X0006096Y0013462D03*
X0003556Y0016002D03*
X0006096Y0016002D03*
X0006096Y0018542D03*
X0003556Y0018542D03*
X0003556Y0021082D03*
X0006096Y0021082D03*
X0006096Y0023622D03*
X0003556Y0023622D03*
X0006096Y0026162D03*
X0003556Y0026162D03*
X0018034Y0034544D03*
X0018034Y0037084D03*
X0015494Y0037084D03*
X0015494Y0034544D03*
X0028956Y0005842D03*
X0028956Y0003302D03*
X0026416Y0005842D03*
X0026416Y0003302D03*
X0023876Y0005842D03*
X0023876Y0003302D03*
X0021336Y0005842D03*
X0021336Y0003302D03*
X0034036Y0018288D03*
X0036576Y0018288D03*
X0034036Y0015748D03*
X0036576Y0015748D03*
X0034036Y0013208D03*
X0036576Y0013208D03*
X0034036Y0010668D03*
X0036576Y0010668D03*
X0036576Y0021844D03*
X0034036Y0021844D03*
X0036576Y0024384D03*
X0034036Y0024384D03*
X0036576Y0026924D03*
X0034036Y0026924D03*
X0036576Y0029464D03*
X0034036Y0029464D03*
X0021336Y0034036D03*
X0021336Y0036576D03*
X0023876Y0034036D03*
X0023876Y0036576D03*
X0026416Y0034036D03*
X0026416Y0036576D03*
X0028956Y0034036D03*
X0028956Y0036576D03*
X0030734Y0021336D03*
X0028194Y0021336D03*
X0003556Y0010922D03*
X0006096Y0010922D03*
D27*
X0004826Y0009398D03*
X0005842Y0009398D03*
X0005842Y0008382D03*
X0007874Y0007874D03*
X0007366Y0011938D03*
X0006858Y0008382D03*
X0006858Y0009398D03*
X0007874Y0008890D03*
X0007874Y0009906D03*
X0007874Y0010922D03*
X0022606Y0010922D03*
X0020574Y0010668D03*
X0038608Y0021844D03*
X0038862Y0029464D03*
X0038862Y0031242D03*
X0038862Y0032512D03*
X0027686Y0026416D03*
X0027178Y0027940D03*
X0038862Y0010160D03*
X0038862Y0011176D03*
X0038862Y0012192D03*
X0038862Y0013208D03*
X0038862Y0014224D03*
X0038862Y0015240D03*
X0038862Y0016510D03*
X0038608Y0017780D03*
X0038608Y0018796D03*
X0031496Y0017272D03*
X0032512Y0011430D03*
X0030734Y0011430D03*
X0030480Y0038862D03*
X0028956Y0038862D03*
X0027432Y0038862D03*
X0026162Y0038862D03*
X0024892Y0038862D03*
X0023622Y0038862D03*
X0021590Y0038608D03*
X0024638Y0029718D03*
X0024892Y0028448D03*
X0028956Y0032512D03*
X0030988Y0036830D03*
X0030988Y0035560D03*
X0030988Y0034036D03*
X0030988Y0032766D03*
X0032004Y0032766D03*
X0032766Y0031496D03*
X0031496Y0031496D03*
X0030226Y0031496D03*
X0028956Y0031496D03*
X0038100Y0020066D03*
X0037084Y0020066D03*
X0036068Y0020066D03*
X0034798Y0020066D03*
X0033528Y0020066D03*
X0032258Y0019558D03*
X0032258Y0018034D03*
X0028956Y0011176D03*
X0030988Y0007112D03*
X0030988Y0005588D03*
X0030988Y0004572D03*
X0030988Y0003556D03*
X0030988Y0002540D03*
X0031242Y0001270D03*
X0030226Y0001270D03*
X0028956Y0001270D03*
X0019812Y0007874D03*
X0019558Y0006350D03*
X0019558Y0005080D03*
X0019558Y0003810D03*
X0019558Y0002286D03*
X0018288Y0002286D03*
X0017780Y0001270D03*
X0018796Y0001270D03*
X0019812Y0001270D03*
X0021082Y0001270D03*
X0022352Y0001270D03*
X0009906Y0013462D03*
X0010922Y0012954D03*
X0013462Y0012954D03*
X0012192Y0012954D03*
X0012192Y0013970D03*
X0012192Y0015240D03*
X0013208Y0016256D03*
X0014478Y0016256D03*
X0015748Y0016256D03*
X0015748Y0014986D03*
X0016764Y0014986D03*
X0016764Y0016256D03*
X0017526Y0017272D03*
X0018542Y0017272D03*
X0019558Y0017272D03*
X0019558Y0018542D03*
X0018542Y0018542D03*
X0017526Y0018542D03*
X0019558Y0025146D03*
X0018542Y0025146D03*
X0017526Y0025146D03*
X0017526Y0026162D03*
X0018542Y0026162D03*
X0019558Y0026162D03*
X0019050Y0027178D03*
X0017780Y0027178D03*
X0017780Y0028194D03*
X0019050Y0028194D03*
X0020066Y0028194D03*
X0020066Y0029210D03*
X0019050Y0029210D03*
X0017780Y0029210D03*
X0017780Y0030226D03*
X0019050Y0030226D03*
X0020066Y0030226D03*
X0019050Y0031242D03*
X0020066Y0031242D03*
X0020620Y0032258D03*
X0019304Y0032258D03*
X0013208Y0029210D03*
X0026162Y0012954D03*
X0026416Y0026416D03*
X0026162Y0021590D03*
X0026162Y0022606D03*
X0025146Y0022606D03*
X0025146Y0021590D03*
X0006604Y0030988D03*
X0026162Y0020574D03*
X0025146Y0020574D03*
X0024130Y0020574D03*
X0023114Y0020574D03*
X0023114Y0021590D03*
X0024130Y0021590D03*
X0024130Y0022606D03*
X0023114Y0022606D03*
D33*
X0005842Y0009398D02*
X0004826Y0009398D01*
X0006858Y0008382D02*
X0005842Y0008382D01*
X0007874Y0008890D02*
X0007874Y0007874D01*
X0006966Y0011538D02*
X0007366Y0011938D01*
X0006858Y0011430D02*
X0006966Y0011538D01*
X0006858Y0009398D02*
X0006858Y0011430D01*
X0007874Y0009906D02*
X0007874Y0009906D01*
X0007874Y0010922D02*
X0007874Y0009906D01*
X0020574Y0010668D02*
X0022352Y0010668D01*
X0022352Y0010668D02*
X0022606Y0010922D01*
X0036576Y0021844D02*
X0038608Y0021844D01*
X0038862Y0032512D02*
X0038862Y0031242D01*
D12*
X0027686Y0026728D02*
X0027686Y0026416D01*
X0027686Y0027432D02*
X0027686Y0026728D01*
X0027178Y0027940D02*
X0027686Y0027432D01*
X0027686Y0026924D02*
X0027686Y0026728D01*
X0028194Y0027432D02*
X0027686Y0026924D01*
X0038862Y0012192D02*
X0038862Y0011176D01*
X0038862Y0014224D02*
X0038862Y0013208D01*
X0038862Y0016510D02*
X0038862Y0015240D01*
X0038608Y0018796D02*
X0038608Y0017780D01*
X0032258Y0018034D02*
X0031496Y0017272D01*
X0028956Y0011176D02*
X0030480Y0011176D01*
X0030480Y0011176D02*
X0030734Y0011430D01*
X0027432Y0038862D02*
X0028956Y0038862D01*
X0024892Y0038862D02*
X0026162Y0038862D01*
X0021590Y0038608D02*
X0023368Y0038608D01*
X0023368Y0038608D02*
X0023622Y0038862D01*
X0024892Y0028448D02*
X0024892Y0029464D01*
X0024892Y0029464D02*
X0024638Y0029718D01*
X0028956Y0031496D02*
X0028956Y0032512D01*
X0030988Y0034036D02*
X0030988Y0035560D01*
X0032004Y0032766D02*
X0030988Y0032766D01*
X0031496Y0031496D02*
X0032766Y0031496D01*
X0028956Y0031496D02*
X0030226Y0031496D01*
X0036068Y0020066D02*
X0037084Y0020066D01*
X0033528Y0020066D02*
X0034798Y0020066D01*
X0032258Y0018034D02*
X0032258Y0019558D01*
X0030988Y0005588D02*
X0030988Y0007112D01*
X0030988Y0002540D02*
X0030988Y0003556D01*
X0030226Y0001270D02*
X0031242Y0001270D01*
X0028956Y0003302D02*
X0028956Y0001270D01*
D33*
X0019558Y0006350D02*
X0019558Y0007620D01*
X0019558Y0007620D02*
X0019812Y0007874D01*
X0019558Y0003810D02*
X0019558Y0005080D01*
X0018288Y0002286D02*
X0019558Y0002286D01*
X0018796Y0001270D02*
X0017780Y0001270D01*
X0021082Y0001270D02*
X0019812Y0001270D01*
X0021336Y0003302D02*
X0021336Y0002286D01*
X0021336Y0002286D02*
X0022352Y0001270D01*
X0013462Y0012954D02*
X0010922Y0012954D01*
X0012192Y0013970D02*
X0012192Y0012954D01*
X0013208Y0016256D02*
X0012192Y0015240D01*
X0015748Y0016256D02*
X0014478Y0016256D01*
X0016764Y0014986D02*
X0015748Y0014986D01*
X0017526Y0017272D02*
X0017526Y0017018D01*
X0017526Y0017018D02*
X0016764Y0016256D01*
X0019558Y0017272D02*
X0018542Y0017272D01*
X0018542Y0018542D02*
X0019558Y0018542D01*
X0017342Y0019793D02*
X0017342Y0018727D01*
X0017342Y0018727D02*
X0017526Y0018542D01*
D12*
X0018542Y0025146D02*
X0019558Y0025146D01*
X0017526Y0026162D02*
X0017526Y0025146D01*
X0019558Y0026162D02*
X0018542Y0026162D01*
X0017780Y0027178D02*
X0019050Y0027178D01*
X0019050Y0028194D02*
X0017780Y0028194D01*
X0020066Y0029210D02*
X0020066Y0028194D01*
X0017780Y0029210D02*
X0019050Y0029210D01*
X0019050Y0030226D02*
X0017780Y0030226D01*
X0019050Y0031242D02*
X0020066Y0030226D01*
X0020620Y0032258D02*
X0020620Y0031796D01*
X0020620Y0031796D02*
X0020066Y0031242D01*
X0021336Y0034036D02*
X0021336Y0032974D01*
X0020620Y0032258D02*
X0019304Y0032258D01*
X0021336Y0032974D02*
X0020620Y0032258D01*
X0026162Y0012954D02*
X0024384Y0014732D01*
X0024384Y0014732D02*
X0023368Y0014732D01*
X0023368Y0014732D02*
X0021590Y0012954D01*
X0021590Y0012954D02*
X0017353Y0012954D01*
X0017353Y0012954D02*
X0016764Y0012365D01*
X0016764Y0012365D02*
X0016764Y0010160D01*
X0026416Y0026416D02*
X0026416Y0022860D01*
X0026416Y0022860D02*
X0026162Y0022606D01*
X0026162Y0021590D02*
X0025146Y0021590D01*
X0025146Y0022606D02*
X0026162Y0022606D01*
D10*
X0008382Y0029210D02*
X0008382Y0012700D01*
X0009026Y0002912D02*
X0009026Y0012056D01*
X0015941Y0002032D02*
X0009906Y0002032D01*
X0009906Y0002032D02*
X0009026Y0002912D01*
X0009026Y0012056D02*
X0008382Y0012700D01*
X0016764Y0002855D02*
X0015941Y0002032D01*
X0006604Y0030988D02*
X0008382Y0029210D01*
X0016764Y0002855D02*
X0016764Y0005160D01*
D12*
X0025146Y0020574D02*
X0026162Y0020574D01*
X0023114Y0020574D02*
X0024130Y0020574D01*
X0024130Y0021590D02*
X0023114Y0021590D01*
X0023114Y0022606D02*
X0024130Y0022606D01*
D15*
G36*
X0039422Y0000710D02*
X0000710Y0000710D01*
X0000710Y0029464D01*
X0002147Y0029464D01*
X0002147Y0027940D01*
X0002196Y0027692D01*
X0002336Y0027482D01*
X0002411Y0027432D01*
X0002336Y0027382D01*
X0002196Y0027172D01*
X0002147Y0026924D01*
X0002147Y0025400D01*
X0002196Y0025152D01*
X0002336Y0024942D01*
X0002411Y0024892D01*
X0002336Y0024842D01*
X0002196Y0024632D01*
X0002147Y0024384D01*
X0002147Y0022860D01*
X0002196Y0022612D01*
X0002336Y0022402D01*
X0002411Y0022352D01*
X0002336Y0022302D01*
X0002196Y0022092D01*
X0002147Y0021844D01*
X0002147Y0020320D01*
X0002196Y0020072D01*
X0002336Y0019862D01*
X0002411Y0019812D01*
X0002336Y0019762D01*
X0002196Y0019552D01*
X0002147Y0019304D01*
X0002147Y0017780D01*
X0002196Y0017532D01*
X0002336Y0017322D01*
X0002411Y0017272D01*
X0002336Y0017222D01*
X0002196Y0017012D01*
X0002147Y0016764D01*
X0002147Y0015240D01*
X0002196Y0014992D01*
X0002336Y0014782D01*
X0002411Y0014732D01*
X0002336Y0014682D01*
X0002196Y0014472D01*
X0002147Y0014224D01*
X0002147Y0012700D01*
X0002196Y0012452D01*
X0002336Y0012242D01*
X0002546Y0012102D01*
X0002794Y0012053D01*
X0004318Y0012053D01*
X0004566Y0012102D01*
X0004776Y0012242D01*
X0004826Y0012317D01*
X0004876Y0012242D01*
X0005086Y0012102D01*
X0005334Y0012053D01*
X0006858Y0012053D01*
X0007106Y0012102D01*
X0007316Y0012242D01*
X0007456Y0012452D01*
X0007505Y0012700D01*
X0007505Y0014224D01*
X0007456Y0014472D01*
X0007316Y0014682D01*
X0007241Y0014732D01*
X0007316Y0014782D01*
X0007456Y0014992D01*
X0007505Y0015240D01*
X0007505Y0016764D01*
X0007456Y0017012D01*
X0007316Y0017222D01*
X0007241Y0017272D01*
X0007316Y0017322D01*
X0007456Y0017532D01*
X0007505Y0017780D01*
X0007505Y0019304D01*
X0007456Y0019552D01*
X0007316Y0019762D01*
X0007241Y0019812D01*
X0007316Y0019862D01*
X0007456Y0020072D01*
X0007505Y0020320D01*
X0007505Y0021844D01*
X0007456Y0022092D01*
X0007316Y0022302D01*
X0007241Y0022352D01*
X0007316Y0022402D01*
X0007456Y0022612D01*
X0007505Y0022860D01*
X0007505Y0024384D01*
X0007456Y0024632D01*
X0007316Y0024842D01*
X0007241Y0024892D01*
X0007316Y0024942D01*
X0007456Y0025152D01*
X0007505Y0025400D01*
X0007505Y0026924D01*
X0007456Y0027172D01*
X0007316Y0027382D01*
X0007241Y0027432D01*
X0007316Y0027482D01*
X0007456Y0027692D01*
X0007505Y0027940D01*
X0007505Y0028906D01*
X0007547Y0028864D01*
X0007547Y0012700D01*
X0007611Y0012380D01*
X0007792Y0012110D01*
X0008191Y0011710D01*
X0008191Y0002912D01*
X0008255Y0002592D01*
X0008293Y0002535D01*
X0008436Y0002322D01*
X0009316Y0001442D01*
X0009586Y0001261D01*
X0009906Y0001197D01*
X0015941Y0001197D01*
X0016261Y0001261D01*
X0016531Y0001442D01*
X0017354Y0002265D01*
X0017535Y0002535D01*
X0017550Y0002608D01*
X0018669Y0002608D01*
X0018917Y0002657D01*
X0018990Y0002706D01*
X0019039Y0002715D01*
X0019245Y0002853D01*
X0019383Y0003059D01*
X0019431Y0003302D01*
X0019431Y0006604D01*
X0022467Y0006604D01*
X0022467Y0005080D01*
X0022516Y0004832D01*
X0022656Y0004622D01*
X0022731Y0004572D01*
X0022656Y0004522D01*
X0022516Y0004312D01*
X0022467Y0004064D01*
X0022467Y0002540D01*
X0022516Y0002292D01*
X0022656Y0002082D01*
X0022866Y0001942D01*
X0023114Y0001893D01*
X0024638Y0001893D01*
X0024886Y0001942D01*
X0025096Y0002082D01*
X0025146Y0002157D01*
X0025196Y0002082D01*
X0025406Y0001942D01*
X0025654Y0001893D01*
X0027178Y0001893D01*
X0027426Y0001942D01*
X0027636Y0002082D01*
X0027776Y0002292D01*
X0027825Y0002540D01*
X0027825Y0004064D01*
X0027776Y0004312D01*
X0027636Y0004522D01*
X0027561Y0004572D01*
X0027636Y0004622D01*
X0027776Y0004832D01*
X0027825Y0005080D01*
X0027825Y0006604D01*
X0027776Y0006852D01*
X0027636Y0007062D01*
X0027426Y0007202D01*
X0027178Y0007251D01*
X0025654Y0007251D01*
X0025406Y0007202D01*
X0025196Y0007062D01*
X0025146Y0006987D01*
X0025096Y0007062D01*
X0024886Y0007202D01*
X0024638Y0007251D01*
X0023114Y0007251D01*
X0022866Y0007202D01*
X0022656Y0007062D01*
X0022516Y0006852D01*
X0022467Y0006604D01*
X0019431Y0006604D01*
X0019431Y0010405D01*
X0020583Y0011557D01*
X0024130Y0011557D01*
X0024373Y0011605D01*
X0024579Y0011743D01*
X0025261Y0012425D01*
X0025284Y0012368D01*
X0025575Y0012077D01*
X0025955Y0011919D01*
X0026367Y0011919D01*
X0026748Y0012076D01*
X0027039Y0012367D01*
X0027197Y0012747D01*
X0027197Y0013159D01*
X0027040Y0013540D01*
X0026749Y0013831D01*
X0026691Y0013855D01*
X0027119Y0014283D01*
X0027257Y0014489D01*
X0027305Y0014732D01*
X0027305Y0016510D01*
X0032627Y0016510D01*
X0032627Y0014986D01*
X0032676Y0014738D01*
X0032816Y0014528D01*
X0032891Y0014478D01*
X0032816Y0014428D01*
X0032676Y0014218D01*
X0032627Y0013970D01*
X0032627Y0012446D01*
X0032676Y0012198D01*
X0032816Y0011988D01*
X0033026Y0011848D01*
X0033274Y0011799D01*
X0034798Y0011799D01*
X0035046Y0011848D01*
X0035256Y0011988D01*
X0035306Y0012063D01*
X0035356Y0011988D01*
X0035566Y0011848D01*
X0035814Y0011799D01*
X0037338Y0011799D01*
X0037586Y0011848D01*
X0037796Y0011988D01*
X0037936Y0012198D01*
X0037985Y0012446D01*
X0037985Y0013970D01*
X0037936Y0014218D01*
X0037796Y0014428D01*
X0037721Y0014478D01*
X0037796Y0014528D01*
X0037936Y0014738D01*
X0037985Y0014986D01*
X0037985Y0016510D01*
X0037936Y0016758D01*
X0037796Y0016968D01*
X0037586Y0017108D01*
X0037338Y0017157D01*
X0035814Y0017157D01*
X0035566Y0017108D01*
X0035356Y0016968D01*
X0035306Y0016893D01*
X0035256Y0016968D01*
X0035046Y0017108D01*
X0034798Y0017157D01*
X0033274Y0017157D01*
X0033026Y0017108D01*
X0032816Y0016968D01*
X0032676Y0016758D01*
X0032627Y0016510D01*
X0027305Y0016510D01*
X0027305Y0019952D01*
X0027432Y0019927D01*
X0028956Y0019927D01*
X0029204Y0019976D01*
X0029414Y0020116D01*
X0029554Y0020326D01*
X0029603Y0020574D01*
X0029603Y0022098D01*
X0029554Y0022346D01*
X0029414Y0022556D01*
X0029204Y0022696D01*
X0028956Y0022745D01*
X0027432Y0022745D01*
X0027305Y0022720D01*
X0027305Y0023114D01*
X0027257Y0023357D01*
X0027201Y0023440D01*
X0027201Y0025737D01*
X0027293Y0025829D01*
X0027451Y0026209D01*
X0027451Y0026621D01*
X0027294Y0027002D01*
X0027003Y0027293D01*
X0026623Y0027451D01*
X0026211Y0027451D01*
X0025830Y0027294D01*
X0025539Y0027003D01*
X0025381Y0026623D01*
X0025381Y0026211D01*
X0025538Y0025830D01*
X0025631Y0025737D01*
X0025631Y0023749D01*
X0022606Y0023749D01*
X0022363Y0023701D01*
X0022157Y0023563D01*
X0022019Y0023357D01*
X0021971Y0023114D01*
X0021971Y0015249D01*
X0021581Y0014859D01*
X0016764Y0014859D01*
X0016521Y0014811D01*
X0016315Y0014673D01*
X0014283Y0012641D01*
X0014145Y0012435D01*
X0014097Y0012192D01*
X0014097Y0003302D01*
X0014145Y0003059D01*
X0014274Y0002867D01*
X0010252Y0002867D01*
X0009861Y0003258D01*
X0009861Y0012056D01*
X0009797Y0012376D01*
X0009616Y0012646D01*
X0009217Y0013046D01*
X0009217Y0027686D01*
X0032627Y0027686D01*
X0032627Y0026162D01*
X0032676Y0025914D01*
X0032816Y0025704D01*
X0032891Y0025654D01*
X0032816Y0025604D01*
X0032676Y0025394D01*
X0032627Y0025146D01*
X0032627Y0023622D01*
X0032676Y0023374D01*
X0032816Y0023164D01*
X0033026Y0023024D01*
X0033274Y0022975D01*
X0034798Y0022975D01*
X0035046Y0023024D01*
X0035256Y0023164D01*
X0035306Y0023239D01*
X0035356Y0023164D01*
X0035566Y0023024D01*
X0035814Y0022975D01*
X0037338Y0022975D01*
X0037586Y0023024D01*
X0037796Y0023164D01*
X0037936Y0023374D01*
X0037985Y0023622D01*
X0037985Y0025146D01*
X0037936Y0025394D01*
X0037796Y0025604D01*
X0037721Y0025654D01*
X0037796Y0025704D01*
X0037936Y0025914D01*
X0037985Y0026162D01*
X0037985Y0027686D01*
X0037936Y0027934D01*
X0037796Y0028144D01*
X0037586Y0028284D01*
X0037338Y0028333D01*
X0035814Y0028333D01*
X0035566Y0028284D01*
X0035356Y0028144D01*
X0035306Y0028069D01*
X0035256Y0028144D01*
X0035046Y0028284D01*
X0034798Y0028333D01*
X0033274Y0028333D01*
X0033026Y0028284D01*
X0032816Y0028144D01*
X0032676Y0027934D01*
X0032627Y0027686D01*
X0009217Y0027686D01*
X0009217Y0029210D01*
X0009153Y0029530D01*
X0008972Y0029800D01*
X0007639Y0031134D01*
X0007639Y0031193D01*
X0007482Y0031574D01*
X0007191Y0031865D01*
X0006811Y0032023D01*
X0006399Y0032023D01*
X0006018Y0031866D01*
X0005727Y0031575D01*
X0005569Y0031195D01*
X0005569Y0030783D01*
X0005726Y0030402D01*
X0006017Y0030111D01*
X0005334Y0030111D01*
X0005086Y0030062D01*
X0004876Y0029922D01*
X0004826Y0029847D01*
X0004776Y0029922D01*
X0004566Y0030062D01*
X0004318Y0030111D01*
X0002794Y0030111D01*
X0002546Y0030062D01*
X0002336Y0029922D01*
X0002196Y0029712D01*
X0002147Y0029464D01*
X0000710Y0029464D01*
X0000710Y0037846D01*
X0011545Y0037846D01*
X0011545Y0036322D01*
X0011594Y0036074D01*
X0011734Y0035864D01*
X0011809Y0035814D01*
X0011734Y0035764D01*
X0011594Y0035554D01*
X0011545Y0035306D01*
X0011545Y0033782D01*
X0011594Y0033534D01*
X0011734Y0033324D01*
X0011944Y0033184D01*
X0012192Y0033135D01*
X0013716Y0033135D01*
X0013964Y0033184D01*
X0014174Y0033324D01*
X0014224Y0033399D01*
X0014274Y0033324D01*
X0014484Y0033184D01*
X0014732Y0033135D01*
X0016256Y0033135D01*
X0016504Y0033184D01*
X0016714Y0033324D01*
X0016764Y0033399D01*
X0016814Y0033324D01*
X0017024Y0033184D01*
X0017272Y0033135D01*
X0018796Y0033135D01*
X0019044Y0033184D01*
X0019254Y0033324D01*
X0019394Y0033534D01*
X0019443Y0033782D01*
X0019443Y0035306D01*
X0019394Y0035554D01*
X0019254Y0035764D01*
X0019179Y0035814D01*
X0019254Y0035864D01*
X0019394Y0036074D01*
X0019443Y0036322D01*
X0019443Y0037338D01*
X0022467Y0037338D01*
X0022467Y0035814D01*
X0022516Y0035566D01*
X0022656Y0035356D01*
X0022731Y0035306D01*
X0022656Y0035256D01*
X0022516Y0035046D01*
X0022467Y0034798D01*
X0022467Y0033274D01*
X0022516Y0033026D01*
X0022656Y0032816D01*
X0022866Y0032676D01*
X0023114Y0032627D01*
X0024638Y0032627D01*
X0024886Y0032676D01*
X0025096Y0032816D01*
X0025146Y0032891D01*
X0025196Y0032816D01*
X0025406Y0032676D01*
X0025654Y0032627D01*
X0027178Y0032627D01*
X0027426Y0032676D01*
X0027636Y0032816D01*
X0027776Y0033026D01*
X0027825Y0033274D01*
X0027825Y0034798D01*
X0027776Y0035046D01*
X0027636Y0035256D01*
X0027561Y0035306D01*
X0027636Y0035356D01*
X0027776Y0035566D01*
X0027825Y0035814D01*
X0027825Y0037338D01*
X0027776Y0037586D01*
X0027636Y0037796D01*
X0027426Y0037936D01*
X0027178Y0037985D01*
X0025654Y0037985D01*
X0025406Y0037936D01*
X0025196Y0037796D01*
X0025146Y0037721D01*
X0025096Y0037796D01*
X0024886Y0037936D01*
X0024638Y0037985D01*
X0023114Y0037985D01*
X0022866Y0037936D01*
X0022656Y0037796D01*
X0022516Y0037586D01*
X0022467Y0037338D01*
X0019443Y0037338D01*
X0019443Y0037846D01*
X0019394Y0038094D01*
X0019254Y0038304D01*
X0019044Y0038444D01*
X0018796Y0038493D01*
X0017272Y0038493D01*
X0017024Y0038444D01*
X0016814Y0038304D01*
X0016764Y0038229D01*
X0016714Y0038304D01*
X0016504Y0038444D01*
X0016256Y0038493D01*
X0014732Y0038493D01*
X0014484Y0038444D01*
X0014274Y0038304D01*
X0014224Y0038229D01*
X0014174Y0038304D01*
X0013964Y0038444D01*
X0013716Y0038493D01*
X0012192Y0038493D01*
X0011944Y0038444D01*
X0011734Y0038304D01*
X0011594Y0038094D01*
X0011545Y0037846D01*
X0000710Y0037846D01*
X0000710Y0039422D01*
X0039422Y0039422D01*
X0039422Y0000710D01*
X0039422Y0000710D01*
G37*
X0039422Y0000710D02*
X0000710Y0000710D01*
X0000710Y0029464D01*
X0002147Y0029464D01*
X0002147Y0027940D01*
X0002196Y0027692D01*
X0002336Y0027482D01*
X0002411Y0027432D01*
X0002336Y0027382D01*
X0002196Y0027172D01*
X0002147Y0026924D01*
X0002147Y0025400D01*
X0002196Y0025152D01*
X0002336Y0024942D01*
X0002411Y0024892D01*
X0002336Y0024842D01*
X0002196Y0024632D01*
X0002147Y0024384D01*
X0002147Y0022860D01*
X0002196Y0022612D01*
X0002336Y0022402D01*
X0002411Y0022352D01*
X0002336Y0022302D01*
X0002196Y0022092D01*
X0002147Y0021844D01*
X0002147Y0020320D01*
X0002196Y0020072D01*
X0002336Y0019862D01*
X0002411Y0019812D01*
X0002336Y0019762D01*
X0002196Y0019552D01*
X0002147Y0019304D01*
X0002147Y0017780D01*
X0002196Y0017532D01*
X0002336Y0017322D01*
X0002411Y0017272D01*
X0002336Y0017222D01*
X0002196Y0017012D01*
X0002147Y0016764D01*
X0002147Y0015240D01*
X0002196Y0014992D01*
X0002336Y0014782D01*
X0002411Y0014732D01*
X0002336Y0014682D01*
X0002196Y0014472D01*
X0002147Y0014224D01*
X0002147Y0012700D01*
X0002196Y0012452D01*
X0002336Y0012242D01*
X0002546Y0012102D01*
X0002794Y0012053D01*
X0004318Y0012053D01*
X0004566Y0012102D01*
X0004776Y0012242D01*
X0004826Y0012317D01*
X0004876Y0012242D01*
X0005086Y0012102D01*
X0005334Y0012053D01*
X0006858Y0012053D01*
X0007106Y0012102D01*
X0007316Y0012242D01*
X0007456Y0012452D01*
X0007505Y0012700D01*
X0007505Y0014224D01*
X0007456Y0014472D01*
X0007316Y0014682D01*
X0007241Y0014732D01*
X0007316Y0014782D01*
X0007456Y0014992D01*
X0007505Y0015240D01*
X0007505Y0016764D01*
X0007456Y0017012D01*
X0007316Y0017222D01*
X0007241Y0017272D01*
X0007316Y0017322D01*
X0007456Y0017532D01*
X0007505Y0017780D01*
X0007505Y0019304D01*
X0007456Y0019552D01*
X0007316Y0019762D01*
X0007241Y0019812D01*
X0007316Y0019862D01*
X0007456Y0020072D01*
X0007505Y0020320D01*
X0007505Y0021844D01*
X0007456Y0022092D01*
X0007316Y0022302D01*
X0007241Y0022352D01*
X0007316Y0022402D01*
X0007456Y0022612D01*
X0007505Y0022860D01*
X0007505Y0024384D01*
X0007456Y0024632D01*
X0007316Y0024842D01*
X0007241Y0024892D01*
X0007316Y0024942D01*
X0007456Y0025152D01*
X0007505Y0025400D01*
X0007505Y0026924D01*
X0007456Y0027172D01*
X0007316Y0027382D01*
X0007241Y0027432D01*
X0007316Y0027482D01*
X0007456Y0027692D01*
X0007505Y0027940D01*
X0007505Y0028906D01*
X0007547Y0028864D01*
X0007547Y0012700D01*
X0007611Y0012380D01*
X0007792Y0012110D01*
X0008191Y0011710D01*
X0008191Y0002912D01*
X0008255Y0002592D01*
X0008293Y0002535D01*
X0008436Y0002322D01*
X0009316Y0001442D01*
X0009586Y0001261D01*
X0009906Y0001197D01*
X0015941Y0001197D01*
X0016261Y0001261D01*
X0016531Y0001442D01*
X0017354Y0002265D01*
X0017535Y0002535D01*
X0017550Y0002608D01*
X0018669Y0002608D01*
X0018917Y0002657D01*
X0018990Y0002706D01*
X0019039Y0002715D01*
X0019245Y0002853D01*
X0019383Y0003059D01*
X0019431Y0003302D01*
X0019431Y0006604D01*
X0022467Y0006604D01*
X0022467Y0005080D01*
X0022516Y0004832D01*
X0022656Y0004622D01*
X0022731Y0004572D01*
X0022656Y0004522D01*
X0022516Y0004312D01*
X0022467Y0004064D01*
X0022467Y0002540D01*
X0022516Y0002292D01*
X0022656Y0002082D01*
X0022866Y0001942D01*
X0023114Y0001893D01*
X0024638Y0001893D01*
X0024886Y0001942D01*
X0025096Y0002082D01*
X0025146Y0002157D01*
X0025196Y0002082D01*
X0025406Y0001942D01*
X0025654Y0001893D01*
X0027178Y0001893D01*
X0027426Y0001942D01*
X0027636Y0002082D01*
X0027776Y0002292D01*
X0027825Y0002540D01*
X0027825Y0004064D01*
X0027776Y0004312D01*
X0027636Y0004522D01*
X0027561Y0004572D01*
X0027636Y0004622D01*
X0027776Y0004832D01*
X0027825Y0005080D01*
X0027825Y0006604D01*
X0027776Y0006852D01*
X0027636Y0007062D01*
X0027426Y0007202D01*
X0027178Y0007251D01*
X0025654Y0007251D01*
X0025406Y0007202D01*
X0025196Y0007062D01*
X0025146Y0006987D01*
X0025096Y0007062D01*
X0024886Y0007202D01*
X0024638Y0007251D01*
X0023114Y0007251D01*
X0022866Y0007202D01*
X0022656Y0007062D01*
X0022516Y0006852D01*
X0022467Y0006604D01*
X0019431Y0006604D01*
X0019431Y0010405D01*
X0020583Y0011557D01*
X0024130Y0011557D01*
X0024373Y0011605D01*
X0024579Y0011743D01*
X0025261Y0012425D01*
X0025284Y0012368D01*
X0025575Y0012077D01*
X0025955Y0011919D01*
X0026367Y0011919D01*
X0026748Y0012076D01*
X0027039Y0012367D01*
X0027197Y0012747D01*
X0027197Y0013159D01*
X0027040Y0013540D01*
X0026749Y0013831D01*
X0026691Y0013855D01*
X0027119Y0014283D01*
X0027257Y0014489D01*
X0027305Y0014732D01*
X0027305Y0016510D01*
X0032627Y0016510D01*
X0032627Y0014986D01*
X0032676Y0014738D01*
X0032816Y0014528D01*
X0032891Y0014478D01*
X0032816Y0014428D01*
X0032676Y0014218D01*
X0032627Y0013970D01*
X0032627Y0012446D01*
X0032676Y0012198D01*
X0032816Y0011988D01*
X0033026Y0011848D01*
X0033274Y0011799D01*
X0034798Y0011799D01*
X0035046Y0011848D01*
X0035256Y0011988D01*
X0035306Y0012063D01*
X0035356Y0011988D01*
X0035566Y0011848D01*
X0035814Y0011799D01*
X0037338Y0011799D01*
X0037586Y0011848D01*
X0037796Y0011988D01*
X0037936Y0012198D01*
X0037985Y0012446D01*
X0037985Y0013970D01*
X0037936Y0014218D01*
X0037796Y0014428D01*
X0037721Y0014478D01*
X0037796Y0014528D01*
X0037936Y0014738D01*
X0037985Y0014986D01*
X0037985Y0016510D01*
X0037936Y0016758D01*
X0037796Y0016968D01*
X0037586Y0017108D01*
X0037338Y0017157D01*
X0035814Y0017157D01*
X0035566Y0017108D01*
X0035356Y0016968D01*
X0035306Y0016893D01*
X0035256Y0016968D01*
X0035046Y0017108D01*
X0034798Y0017157D01*
X0033274Y0017157D01*
X0033026Y0017108D01*
X0032816Y0016968D01*
X0032676Y0016758D01*
X0032627Y0016510D01*
X0027305Y0016510D01*
X0027305Y0019952D01*
X0027432Y0019927D01*
X0028956Y0019927D01*
X0029204Y0019976D01*
X0029414Y0020116D01*
X0029554Y0020326D01*
X0029603Y0020574D01*
X0029603Y0022098D01*
X0029554Y0022346D01*
X0029414Y0022556D01*
X0029204Y0022696D01*
X0028956Y0022745D01*
X0027432Y0022745D01*
X0027305Y0022720D01*
X0027305Y0023114D01*
X0027257Y0023357D01*
X0027201Y0023440D01*
X0027201Y0025737D01*
X0027293Y0025829D01*
X0027451Y0026209D01*
X0027451Y0026621D01*
X0027294Y0027002D01*
X0027003Y0027293D01*
X0026623Y0027451D01*
X0026211Y0027451D01*
X0025830Y0027294D01*
X0025539Y0027003D01*
X0025381Y0026623D01*
X0025381Y0026211D01*
X0025538Y0025830D01*
X0025631Y0025737D01*
X0025631Y0023749D01*
X0022606Y0023749D01*
X0022363Y0023701D01*
X0022157Y0023563D01*
X0022019Y0023357D01*
X0021971Y0023114D01*
X0021971Y0015249D01*
X0021581Y0014859D01*
X0016764Y0014859D01*
X0016521Y0014811D01*
X0016315Y0014673D01*
X0014283Y0012641D01*
X0014145Y0012435D01*
X0014097Y0012192D01*
X0014097Y0003302D01*
X0014145Y0003059D01*
X0014274Y0002867D01*
X0010252Y0002867D01*
X0009861Y0003258D01*
X0009861Y0012056D01*
X0009797Y0012376D01*
X0009616Y0012646D01*
X0009217Y0013046D01*
X0009217Y0027686D01*
X0032627Y0027686D01*
X0032627Y0026162D01*
X0032676Y0025914D01*
X0032816Y0025704D01*
X0032891Y0025654D01*
X0032816Y0025604D01*
X0032676Y0025394D01*
X0032627Y0025146D01*
X0032627Y0023622D01*
X0032676Y0023374D01*
X0032816Y0023164D01*
X0033026Y0023024D01*
X0033274Y0022975D01*
X0034798Y0022975D01*
X0035046Y0023024D01*
X0035256Y0023164D01*
X0035306Y0023239D01*
X0035356Y0023164D01*
X0035566Y0023024D01*
X0035814Y0022975D01*
X0037338Y0022975D01*
X0037586Y0023024D01*
X0037796Y0023164D01*
X0037936Y0023374D01*
X0037985Y0023622D01*
X0037985Y0025146D01*
X0037936Y0025394D01*
X0037796Y0025604D01*
X0037721Y0025654D01*
X0037796Y0025704D01*
X0037936Y0025914D01*
X0037985Y0026162D01*
X0037985Y0027686D01*
X0037936Y0027934D01*
X0037796Y0028144D01*
X0037586Y0028284D01*
X0037338Y0028333D01*
X0035814Y0028333D01*
X0035566Y0028284D01*
X0035356Y0028144D01*
X0035306Y0028069D01*
X0035256Y0028144D01*
X0035046Y0028284D01*
X0034798Y0028333D01*
X0033274Y0028333D01*
X0033026Y0028284D01*
X0032816Y0028144D01*
X0032676Y0027934D01*
X0032627Y0027686D01*
X0009217Y0027686D01*
X0009217Y0029210D01*
X0009153Y0029530D01*
X0008972Y0029800D01*
X0007639Y0031134D01*
X0007639Y0031193D01*
X0007482Y0031574D01*
X0007191Y0031865D01*
X0006811Y0032023D01*
X0006399Y0032023D01*
X0006018Y0031866D01*
X0005727Y0031575D01*
X0005569Y0031195D01*
X0005569Y0030783D01*
X0005726Y0030402D01*
X0006017Y0030111D01*
X0005334Y0030111D01*
X0005086Y0030062D01*
X0004876Y0029922D01*
X0004826Y0029847D01*
X0004776Y0029922D01*
X0004566Y0030062D01*
X0004318Y0030111D01*
X0002794Y0030111D01*
X0002546Y0030062D01*
X0002336Y0029922D01*
X0002196Y0029712D01*
X0002147Y0029464D01*
X0000710Y0029464D01*
X0000710Y0037846D01*
X0011545Y0037846D01*
X0011545Y0036322D01*
X0011594Y0036074D01*
X0011734Y0035864D01*
X0011809Y0035814D01*
X0011734Y0035764D01*
X0011594Y0035554D01*
X0011545Y0035306D01*
X0011545Y0033782D01*
X0011594Y0033534D01*
X0011734Y0033324D01*
X0011944Y0033184D01*
X0012192Y0033135D01*
X0013716Y0033135D01*
X0013964Y0033184D01*
X0014174Y0033324D01*
X0014224Y0033399D01*
X0014274Y0033324D01*
X0014484Y0033184D01*
X0014732Y0033135D01*
X0016256Y0033135D01*
X0016504Y0033184D01*
X0016714Y0033324D01*
X0016764Y0033399D01*
X0016814Y0033324D01*
X0017024Y0033184D01*
X0017272Y0033135D01*
X0018796Y0033135D01*
X0019044Y0033184D01*
X0019254Y0033324D01*
X0019394Y0033534D01*
X0019443Y0033782D01*
X0019443Y0035306D01*
X0019394Y0035554D01*
X0019254Y0035764D01*
X0019179Y0035814D01*
X0019254Y0035864D01*
X0019394Y0036074D01*
X0019443Y0036322D01*
X0019443Y0037338D01*
X0022467Y0037338D01*
X0022467Y0035814D01*
X0022516Y0035566D01*
X0022656Y0035356D01*
X0022731Y0035306D01*
X0022656Y0035256D01*
X0022516Y0035046D01*
X0022467Y0034798D01*
X0022467Y0033274D01*
X0022516Y0033026D01*
X0022656Y0032816D01*
X0022866Y0032676D01*
X0023114Y0032627D01*
X0024638Y0032627D01*
X0024886Y0032676D01*
X0025096Y0032816D01*
X0025146Y0032891D01*
X0025196Y0032816D01*
X0025406Y0032676D01*
X0025654Y0032627D01*
X0027178Y0032627D01*
X0027426Y0032676D01*
X0027636Y0032816D01*
X0027776Y0033026D01*
X0027825Y0033274D01*
X0027825Y0034798D01*
X0027776Y0035046D01*
X0027636Y0035256D01*
X0027561Y0035306D01*
X0027636Y0035356D01*
X0027776Y0035566D01*
X0027825Y0035814D01*
X0027825Y0037338D01*
X0027776Y0037586D01*
X0027636Y0037796D01*
X0027426Y0037936D01*
X0027178Y0037985D01*
X0025654Y0037985D01*
X0025406Y0037936D01*
X0025196Y0037796D01*
X0025146Y0037721D01*
X0025096Y0037796D01*
X0024886Y0037936D01*
X0024638Y0037985D01*
X0023114Y0037985D01*
X0022866Y0037936D01*
X0022656Y0037796D01*
X0022516Y0037586D01*
X0022467Y0037338D01*
X0019443Y0037338D01*
X0019443Y0037846D01*
X0019394Y0038094D01*
X0019254Y0038304D01*
X0019044Y0038444D01*
X0018796Y0038493D01*
X0017272Y0038493D01*
X0017024Y0038444D01*
X0016814Y0038304D01*
X0016764Y0038229D01*
X0016714Y0038304D01*
X0016504Y0038444D01*
X0016256Y0038493D01*
X0014732Y0038493D01*
X0014484Y0038444D01*
X0014274Y0038304D01*
X0014224Y0038229D01*
X0014174Y0038304D01*
X0013964Y0038444D01*
X0013716Y0038493D01*
X0012192Y0038493D01*
X0011944Y0038444D01*
X0011734Y0038304D01*
X0011594Y0038094D01*
X0011545Y0037846D01*
X0000710Y0037846D01*
X0000710Y0039422D01*
X0039422Y0039422D01*
X0039422Y0000710D01*
G36*
X0026543Y0014785D02*
X0024077Y0012319D01*
X0020320Y0012319D01*
X0020271Y0012309D01*
X0020230Y0012282D01*
X0018706Y0010758D01*
X0018679Y0010717D01*
X0018669Y0010668D01*
X0018669Y0006908D01*
X0018523Y0006557D01*
X0018523Y0006145D01*
X0018669Y0005791D01*
X0018669Y0005638D01*
X0018523Y0005287D01*
X0018523Y0004875D01*
X0018669Y0004521D01*
X0018669Y0004368D01*
X0018523Y0004017D01*
X0018523Y0003605D01*
X0018596Y0003429D01*
X0014859Y0003429D01*
X0014859Y0012139D01*
X0016671Y0013951D01*
X0016969Y0013951D01*
X0017323Y0014097D01*
X0021844Y0014097D01*
X0021893Y0014107D01*
X0021934Y0014134D01*
X0022696Y0014896D01*
X0022723Y0014937D01*
X0022733Y0014986D01*
X0022733Y0022987D01*
X0026543Y0022987D01*
X0026543Y0014785D01*
X0026543Y0014785D01*
G37*
X0026543Y0014785D02*
X0024077Y0012319D01*
X0020320Y0012319D01*
X0020271Y0012309D01*
X0020230Y0012282D01*
X0018706Y0010758D01*
X0018679Y0010717D01*
X0018669Y0010668D01*
X0018669Y0006908D01*
X0018523Y0006557D01*
X0018523Y0006145D01*
X0018669Y0005791D01*
X0018669Y0005638D01*
X0018523Y0005287D01*
X0018523Y0004875D01*
X0018669Y0004521D01*
X0018669Y0004368D01*
X0018523Y0004017D01*
X0018523Y0003605D01*
X0018596Y0003429D01*
X0014859Y0003429D01*
X0014859Y0012139D01*
X0016671Y0013951D01*
X0016969Y0013951D01*
X0017323Y0014097D01*
X0021844Y0014097D01*
X0021893Y0014107D01*
X0021934Y0014134D01*
X0022696Y0014896D01*
X0022723Y0014937D01*
X0022733Y0014986D01*
X0022733Y0022987D01*
X0026543Y0022987D01*
X0026543Y0014785D01*
X0000000Y0040132D02*
%LPD*%
G01*
D14*
D27*
X0017342Y0063989D03*
X0017342Y0062973D03*
X0017342Y0061957D03*
X0017342Y0060941D03*
X0017342Y0059925D03*
X0018548Y0063989D03*
X0018548Y0062973D03*
X0018548Y0061957D03*
X0018548Y0060941D03*
X0018548Y0059925D03*
X0019742Y0063989D03*
X0019755Y0062973D03*
X0019755Y0061957D03*
X0019755Y0060941D03*
X0019755Y0059925D03*
D40*
X0004826Y0044958D03*
X0035306Y0044958D03*
X0035306Y0075438D03*
X0004826Y0075438D03*
D29*
X0016764Y0050292D03*
X0016764Y0045292D03*
X0011684Y0045292D03*
X0011684Y0050292D03*
D20*
X0006096Y0068834D03*
X0003556Y0068834D03*
X0012954Y0074676D03*
X0012954Y0077216D03*
X0003556Y0053594D03*
X0006096Y0053594D03*
X0003556Y0056134D03*
X0006096Y0056134D03*
X0006096Y0058674D03*
X0003556Y0058674D03*
X0003556Y0061214D03*
X0006096Y0061214D03*
X0006096Y0063754D03*
X0003556Y0063754D03*
X0006096Y0066294D03*
X0003556Y0066294D03*
X0018034Y0074676D03*
X0018034Y0077216D03*
X0015494Y0077216D03*
X0015494Y0074676D03*
X0028956Y0045974D03*
X0028956Y0043434D03*
X0026416Y0045974D03*
X0026416Y0043434D03*
X0023876Y0045974D03*
X0023876Y0043434D03*
X0021336Y0045974D03*
X0021336Y0043434D03*
X0034036Y0058420D03*
X0036576Y0058420D03*
X0034036Y0055880D03*
X0036576Y0055880D03*
X0034036Y0053340D03*
X0036576Y0053340D03*
X0034036Y0050800D03*
X0036576Y0050800D03*
X0036576Y0061976D03*
X0034036Y0061976D03*
X0036576Y0064516D03*
X0034036Y0064516D03*
X0036576Y0067056D03*
X0034036Y0067056D03*
X0036576Y0069596D03*
X0034036Y0069596D03*
X0021336Y0074168D03*
X0021336Y0076708D03*
X0023876Y0074168D03*
X0023876Y0076708D03*
X0026416Y0074168D03*
X0026416Y0076708D03*
X0028956Y0074168D03*
X0028956Y0076708D03*
X0030734Y0061468D03*
X0028194Y0061468D03*
X0003556Y0051054D03*
X0006096Y0051054D03*
D27*
X0004826Y0049530D03*
X0005842Y0049530D03*
X0005842Y0048514D03*
X0007874Y0048006D03*
X0007366Y0052070D03*
X0006858Y0048514D03*
X0006858Y0049530D03*
X0007874Y0049022D03*
X0007874Y0050038D03*
X0007874Y0051054D03*
X0022606Y0051054D03*
X0020574Y0050800D03*
X0038608Y0061976D03*
X0038862Y0069596D03*
X0038862Y0071374D03*
X0038862Y0072644D03*
X0027686Y0066548D03*
X0027178Y0068072D03*
X0038862Y0050292D03*
X0038862Y0051308D03*
X0038862Y0052324D03*
X0038862Y0053340D03*
X0038862Y0054356D03*
X0038862Y0055372D03*
X0038862Y0056642D03*
X0038608Y0057912D03*
X0038608Y0058928D03*
X0031496Y0057404D03*
X0032512Y0051562D03*
X0030734Y0051562D03*
X0030480Y0078994D03*
X0028956Y0078994D03*
X0027432Y0078994D03*
X0026162Y0078994D03*
X0024892Y0078994D03*
X0023622Y0078994D03*
X0021590Y0078740D03*
X0024638Y0069850D03*
X0024892Y0068580D03*
X0028956Y0072644D03*
X0030988Y0076962D03*
X0030988Y0075692D03*
X0030988Y0074168D03*
X0030988Y0072898D03*
X0032004Y0072898D03*
X0032766Y0071628D03*
X0031496Y0071628D03*
X0030226Y0071628D03*
X0028956Y0071628D03*
X0038100Y0060198D03*
X0037084Y0060198D03*
X0036068Y0060198D03*
X0034798Y0060198D03*
X0033528Y0060198D03*
X0032258Y0059690D03*
X0032258Y0058166D03*
X0028956Y0051308D03*
X0030988Y0047244D03*
X0030988Y0045720D03*
X0030988Y0044704D03*
X0030988Y0043688D03*
X0030988Y0042672D03*
X0031242Y0041402D03*
X0030226Y0041402D03*
X0028956Y0041402D03*
X0019812Y0048006D03*
X0019558Y0046482D03*
X0019558Y0045212D03*
X0019558Y0043942D03*
X0019558Y0042418D03*
X0018288Y0042418D03*
X0017780Y0041402D03*
X0018796Y0041402D03*
X0019812Y0041402D03*
X0021082Y0041402D03*
X0022352Y0041402D03*
X0009906Y0053594D03*
X0010922Y0053086D03*
X0013462Y0053086D03*
X0012192Y0053086D03*
X0012192Y0054102D03*
X0012192Y0055372D03*
X0013208Y0056388D03*
X0014478Y0056388D03*
X0015748Y0056388D03*
X0015748Y0055118D03*
X0016764Y0055118D03*
X0016764Y0056388D03*
X0017526Y0057404D03*
X0018542Y0057404D03*
X0019558Y0057404D03*
X0019558Y0058674D03*
X0018542Y0058674D03*
X0017526Y0058674D03*
X0019558Y0065278D03*
X0018542Y0065278D03*
X0017526Y0065278D03*
X0017526Y0066294D03*
X0018542Y0066294D03*
X0019558Y0066294D03*
X0019050Y0067310D03*
X0017780Y0067310D03*
X0017780Y0068326D03*
X0019050Y0068326D03*
X0020066Y0068326D03*
X0020066Y0069342D03*
X0019050Y0069342D03*
X0017780Y0069342D03*
X0017780Y0070358D03*
X0019050Y0070358D03*
X0020066Y0070358D03*
X0019050Y0071374D03*
X0020066Y0071374D03*
X0020620Y0072390D03*
X0019304Y0072390D03*
X0013208Y0069342D03*
X0026162Y0053086D03*
X0026416Y0066548D03*
X0026162Y0061722D03*
X0026162Y0062738D03*
X0025146Y0062738D03*
X0025146Y0061722D03*
X0006604Y0071120D03*
X0026162Y0060706D03*
X0025146Y0060706D03*
X0024130Y0060706D03*
X0023114Y0060706D03*
X0023114Y0061722D03*
X0024130Y0061722D03*
X0024130Y0062738D03*
X0023114Y0062738D03*
D33*
X0005842Y0049530D02*
X0004826Y0049530D01*
X0006858Y0048514D02*
X0005842Y0048514D01*
X0007874Y0049022D02*
X0007874Y0048006D01*
X0006966Y0051670D02*
X0007366Y0052070D01*
X0006858Y0051562D02*
X0006966Y0051670D01*
X0006858Y0049530D02*
X0006858Y0051562D01*
X0007874Y0050038D02*
X0007874Y0050038D01*
X0007874Y0051054D02*
X0007874Y0050038D01*
X0020574Y0050800D02*
X0022352Y0050800D01*
X0022352Y0050800D02*
X0022606Y0051054D01*
X0036576Y0061976D02*
X0038608Y0061976D01*
X0038862Y0072644D02*
X0038862Y0071374D01*
D12*
X0027686Y0066860D02*
X0027686Y0066548D01*
X0027686Y0067564D02*
X0027686Y0066860D01*
X0027178Y0068072D02*
X0027686Y0067564D01*
X0027686Y0067056D02*
X0027686Y0066860D01*
X0028194Y0067564D02*
X0027686Y0067056D01*
X0038862Y0052324D02*
X0038862Y0051308D01*
X0038862Y0054356D02*
X0038862Y0053340D01*
X0038862Y0056642D02*
X0038862Y0055372D01*
X0038608Y0058928D02*
X0038608Y0057912D01*
X0032258Y0058166D02*
X0031496Y0057404D01*
X0028956Y0051308D02*
X0030480Y0051308D01*
X0030480Y0051308D02*
X0030734Y0051562D01*
X0027432Y0078994D02*
X0028956Y0078994D01*
X0024892Y0078994D02*
X0026162Y0078994D01*
X0021590Y0078740D02*
X0023368Y0078740D01*
X0023368Y0078740D02*
X0023622Y0078994D01*
X0024892Y0068580D02*
X0024892Y0069596D01*
X0024892Y0069596D02*
X0024638Y0069850D01*
X0028956Y0071628D02*
X0028956Y0072644D01*
X0030988Y0074168D02*
X0030988Y0075692D01*
X0032004Y0072898D02*
X0030988Y0072898D01*
X0031496Y0071628D02*
X0032766Y0071628D01*
X0028956Y0071628D02*
X0030226Y0071628D01*
X0036068Y0060198D02*
X0037084Y0060198D01*
X0033528Y0060198D02*
X0034798Y0060198D01*
X0032258Y0058166D02*
X0032258Y0059690D01*
X0030988Y0045720D02*
X0030988Y0047244D01*
X0030988Y0042672D02*
X0030988Y0043688D01*
X0030226Y0041402D02*
X0031242Y0041402D01*
X0028956Y0043434D02*
X0028956Y0041402D01*
D33*
X0019558Y0046482D02*
X0019558Y0047752D01*
X0019558Y0047752D02*
X0019812Y0048006D01*
X0019558Y0043942D02*
X0019558Y0045212D01*
X0018288Y0042418D02*
X0019558Y0042418D01*
X0018796Y0041402D02*
X0017780Y0041402D01*
X0021082Y0041402D02*
X0019812Y0041402D01*
X0021336Y0043434D02*
X0021336Y0042418D01*
X0021336Y0042418D02*
X0022352Y0041402D01*
X0013462Y0053086D02*
X0010922Y0053086D01*
X0012192Y0054102D02*
X0012192Y0053086D01*
X0013208Y0056388D02*
X0012192Y0055372D01*
X0015748Y0056388D02*
X0014478Y0056388D01*
X0016764Y0055118D02*
X0015748Y0055118D01*
X0017526Y0057404D02*
X0017526Y0057150D01*
X0017526Y0057150D02*
X0016764Y0056388D01*
X0019558Y0057404D02*
X0018542Y0057404D01*
X0018542Y0058674D02*
X0019558Y0058674D01*
X0017342Y0059925D02*
X0017342Y0058859D01*
X0017342Y0058859D02*
X0017526Y0058674D01*
D12*
X0018542Y0065278D02*
X0019558Y0065278D01*
X0017526Y0066294D02*
X0017526Y0065278D01*
X0019558Y0066294D02*
X0018542Y0066294D01*
X0017780Y0067310D02*
X0019050Y0067310D01*
X0019050Y0068326D02*
X0017780Y0068326D01*
X0020066Y0069342D02*
X0020066Y0068326D01*
X0017780Y0069342D02*
X0019050Y0069342D01*
X0019050Y0070358D02*
X0017780Y0070358D01*
X0019050Y0071374D02*
X0020066Y0070358D01*
X0020620Y0072390D02*
X0020620Y0071928D01*
X0020620Y0071928D02*
X0020066Y0071374D01*
X0021336Y0074168D02*
X0021336Y0073106D01*
X0020620Y0072390D02*
X0019304Y0072390D01*
X0021336Y0073106D02*
X0020620Y0072390D01*
X0026162Y0053086D02*
X0024384Y0054864D01*
X0024384Y0054864D02*
X0023368Y0054864D01*
X0023368Y0054864D02*
X0021590Y0053086D01*
X0021590Y0053086D02*
X0017353Y0053086D01*
X0017353Y0053086D02*
X0016764Y0052497D01*
X0016764Y0052497D02*
X0016764Y0050292D01*
X0026416Y0066548D02*
X0026416Y0062992D01*
X0026416Y0062992D02*
X0026162Y0062738D01*
X0026162Y0061722D02*
X0025146Y0061722D01*
X0025146Y0062738D02*
X0026162Y0062738D01*
D10*
X0008382Y0069342D02*
X0008382Y0052832D01*
X0009026Y0043044D02*
X0009026Y0052188D01*
X0015941Y0042164D02*
X0009906Y0042164D01*
X0009906Y0042164D02*
X0009026Y0043044D01*
X0009026Y0052188D02*
X0008382Y0052832D01*
X0016764Y0042987D02*
X0015941Y0042164D01*
X0006604Y0071120D02*
X0008382Y0069342D01*
X0016764Y0042987D02*
X0016764Y0045292D01*
D12*
X0025146Y0060706D02*
X0026162Y0060706D01*
X0023114Y0060706D02*
X0024130Y0060706D01*
X0024130Y0061722D02*
X0023114Y0061722D01*
X0023114Y0062738D02*
X0024130Y0062738D01*
D15*
G36*
X0039422Y0040842D02*
X0000710Y0040842D01*
X0000710Y0069596D01*
X0002147Y0069596D01*
X0002147Y0068072D01*
X0002196Y0067824D01*
X0002336Y0067614D01*
X0002411Y0067564D01*
X0002336Y0067514D01*
X0002196Y0067304D01*
X0002147Y0067056D01*
X0002147Y0065532D01*
X0002196Y0065284D01*
X0002336Y0065074D01*
X0002411Y0065024D01*
X0002336Y0064974D01*
X0002196Y0064764D01*
X0002147Y0064516D01*
X0002147Y0062992D01*
X0002196Y0062744D01*
X0002336Y0062534D01*
X0002411Y0062484D01*
X0002336Y0062434D01*
X0002196Y0062224D01*
X0002147Y0061976D01*
X0002147Y0060452D01*
X0002196Y0060204D01*
X0002336Y0059994D01*
X0002411Y0059944D01*
X0002336Y0059894D01*
X0002196Y0059684D01*
X0002147Y0059436D01*
X0002147Y0057912D01*
X0002196Y0057664D01*
X0002336Y0057454D01*
X0002411Y0057404D01*
X0002336Y0057354D01*
X0002196Y0057144D01*
X0002147Y0056896D01*
X0002147Y0055372D01*
X0002196Y0055124D01*
X0002336Y0054914D01*
X0002411Y0054864D01*
X0002336Y0054814D01*
X0002196Y0054604D01*
X0002147Y0054356D01*
X0002147Y0052832D01*
X0002196Y0052584D01*
X0002336Y0052374D01*
X0002546Y0052234D01*
X0002794Y0052185D01*
X0004318Y0052185D01*
X0004566Y0052234D01*
X0004776Y0052374D01*
X0004826Y0052449D01*
X0004876Y0052374D01*
X0005086Y0052234D01*
X0005334Y0052185D01*
X0006858Y0052185D01*
X0007106Y0052234D01*
X0007316Y0052374D01*
X0007456Y0052584D01*
X0007505Y0052832D01*
X0007505Y0054356D01*
X0007456Y0054604D01*
X0007316Y0054814D01*
X0007241Y0054864D01*
X0007316Y0054914D01*
X0007456Y0055124D01*
X0007505Y0055372D01*
X0007505Y0056896D01*
X0007456Y0057144D01*
X0007316Y0057354D01*
X0007241Y0057404D01*
X0007316Y0057454D01*
X0007456Y0057664D01*
X0007505Y0057912D01*
X0007505Y0059436D01*
X0007456Y0059684D01*
X0007316Y0059894D01*
X0007241Y0059944D01*
X0007316Y0059994D01*
X0007456Y0060204D01*
X0007505Y0060452D01*
X0007505Y0061976D01*
X0007456Y0062224D01*
X0007316Y0062434D01*
X0007241Y0062484D01*
X0007316Y0062534D01*
X0007456Y0062744D01*
X0007505Y0062992D01*
X0007505Y0064516D01*
X0007456Y0064764D01*
X0007316Y0064974D01*
X0007241Y0065024D01*
X0007316Y0065074D01*
X0007456Y0065284D01*
X0007505Y0065532D01*
X0007505Y0067056D01*
X0007456Y0067304D01*
X0007316Y0067514D01*
X0007241Y0067564D01*
X0007316Y0067614D01*
X0007456Y0067824D01*
X0007505Y0068072D01*
X0007505Y0069038D01*
X0007547Y0068996D01*
X0007547Y0052832D01*
X0007611Y0052512D01*
X0007792Y0052242D01*
X0008191Y0051842D01*
X0008191Y0043044D01*
X0008255Y0042724D01*
X0008293Y0042667D01*
X0008436Y0042454D01*
X0009316Y0041574D01*
X0009586Y0041393D01*
X0009906Y0041329D01*
X0015941Y0041329D01*
X0016261Y0041393D01*
X0016531Y0041574D01*
X0017354Y0042397D01*
X0017535Y0042667D01*
X0017550Y0042740D01*
X0018669Y0042740D01*
X0018917Y0042789D01*
X0018990Y0042838D01*
X0019039Y0042847D01*
X0019245Y0042985D01*
X0019383Y0043191D01*
X0019431Y0043434D01*
X0019431Y0046736D01*
X0022467Y0046736D01*
X0022467Y0045212D01*
X0022516Y0044964D01*
X0022656Y0044754D01*
X0022731Y0044704D01*
X0022656Y0044654D01*
X0022516Y0044444D01*
X0022467Y0044196D01*
X0022467Y0042672D01*
X0022516Y0042424D01*
X0022656Y0042214D01*
X0022866Y0042074D01*
X0023114Y0042025D01*
X0024638Y0042025D01*
X0024886Y0042074D01*
X0025096Y0042214D01*
X0025146Y0042289D01*
X0025196Y0042214D01*
X0025406Y0042074D01*
X0025654Y0042025D01*
X0027178Y0042025D01*
X0027426Y0042074D01*
X0027636Y0042214D01*
X0027776Y0042424D01*
X0027825Y0042672D01*
X0027825Y0044196D01*
X0027776Y0044444D01*
X0027636Y0044654D01*
X0027561Y0044704D01*
X0027636Y0044754D01*
X0027776Y0044964D01*
X0027825Y0045212D01*
X0027825Y0046736D01*
X0027776Y0046984D01*
X0027636Y0047194D01*
X0027426Y0047334D01*
X0027178Y0047383D01*
X0025654Y0047383D01*
X0025406Y0047334D01*
X0025196Y0047194D01*
X0025146Y0047119D01*
X0025096Y0047194D01*
X0024886Y0047334D01*
X0024638Y0047383D01*
X0023114Y0047383D01*
X0022866Y0047334D01*
X0022656Y0047194D01*
X0022516Y0046984D01*
X0022467Y0046736D01*
X0019431Y0046736D01*
X0019431Y0050537D01*
X0020583Y0051689D01*
X0024130Y0051689D01*
X0024373Y0051737D01*
X0024579Y0051875D01*
X0025261Y0052557D01*
X0025284Y0052500D01*
X0025575Y0052209D01*
X0025955Y0052051D01*
X0026367Y0052051D01*
X0026748Y0052208D01*
X0027039Y0052499D01*
X0027197Y0052879D01*
X0027197Y0053291D01*
X0027040Y0053672D01*
X0026749Y0053963D01*
X0026691Y0053987D01*
X0027119Y0054415D01*
X0027257Y0054621D01*
X0027305Y0054864D01*
X0027305Y0056642D01*
X0032627Y0056642D01*
X0032627Y0055118D01*
X0032676Y0054870D01*
X0032816Y0054660D01*
X0032891Y0054610D01*
X0032816Y0054560D01*
X0032676Y0054350D01*
X0032627Y0054102D01*
X0032627Y0052578D01*
X0032676Y0052330D01*
X0032816Y0052120D01*
X0033026Y0051980D01*
X0033274Y0051931D01*
X0034798Y0051931D01*
X0035046Y0051980D01*
X0035256Y0052120D01*
X0035306Y0052195D01*
X0035356Y0052120D01*
X0035566Y0051980D01*
X0035814Y0051931D01*
X0037338Y0051931D01*
X0037586Y0051980D01*
X0037796Y0052120D01*
X0037936Y0052330D01*
X0037985Y0052578D01*
X0037985Y0054102D01*
X0037936Y0054350D01*
X0037796Y0054560D01*
X0037721Y0054610D01*
X0037796Y0054660D01*
X0037936Y0054870D01*
X0037985Y0055118D01*
X0037985Y0056642D01*
X0037936Y0056890D01*
X0037796Y0057100D01*
X0037586Y0057240D01*
X0037338Y0057289D01*
X0035814Y0057289D01*
X0035566Y0057240D01*
X0035356Y0057100D01*
X0035306Y0057025D01*
X0035256Y0057100D01*
X0035046Y0057240D01*
X0034798Y0057289D01*
X0033274Y0057289D01*
X0033026Y0057240D01*
X0032816Y0057100D01*
X0032676Y0056890D01*
X0032627Y0056642D01*
X0027305Y0056642D01*
X0027305Y0060084D01*
X0027432Y0060059D01*
X0028956Y0060059D01*
X0029204Y0060108D01*
X0029414Y0060248D01*
X0029554Y0060458D01*
X0029603Y0060706D01*
X0029603Y0062230D01*
X0029554Y0062478D01*
X0029414Y0062688D01*
X0029204Y0062828D01*
X0028956Y0062877D01*
X0027432Y0062877D01*
X0027305Y0062852D01*
X0027305Y0063246D01*
X0027257Y0063489D01*
X0027201Y0063572D01*
X0027201Y0065869D01*
X0027293Y0065961D01*
X0027451Y0066341D01*
X0027451Y0066753D01*
X0027294Y0067134D01*
X0027003Y0067425D01*
X0026623Y0067583D01*
X0026211Y0067583D01*
X0025830Y0067426D01*
X0025539Y0067135D01*
X0025381Y0066755D01*
X0025381Y0066343D01*
X0025538Y0065962D01*
X0025631Y0065869D01*
X0025631Y0063881D01*
X0022606Y0063881D01*
X0022363Y0063833D01*
X0022157Y0063695D01*
X0022019Y0063489D01*
X0021971Y0063246D01*
X0021971Y0055381D01*
X0021581Y0054991D01*
X0016764Y0054991D01*
X0016521Y0054943D01*
X0016315Y0054805D01*
X0014283Y0052773D01*
X0014145Y0052567D01*
X0014097Y0052324D01*
X0014097Y0043434D01*
X0014145Y0043191D01*
X0014274Y0042999D01*
X0010252Y0042999D01*
X0009861Y0043390D01*
X0009861Y0052188D01*
X0009797Y0052508D01*
X0009616Y0052778D01*
X0009217Y0053178D01*
X0009217Y0067818D01*
X0032627Y0067818D01*
X0032627Y0066294D01*
X0032676Y0066046D01*
X0032816Y0065836D01*
X0032891Y0065786D01*
X0032816Y0065736D01*
X0032676Y0065526D01*
X0032627Y0065278D01*
X0032627Y0063754D01*
X0032676Y0063506D01*
X0032816Y0063296D01*
X0033026Y0063156D01*
X0033274Y0063107D01*
X0034798Y0063107D01*
X0035046Y0063156D01*
X0035256Y0063296D01*
X0035306Y0063371D01*
X0035356Y0063296D01*
X0035566Y0063156D01*
X0035814Y0063107D01*
X0037338Y0063107D01*
X0037586Y0063156D01*
X0037796Y0063296D01*
X0037936Y0063506D01*
X0037985Y0063754D01*
X0037985Y0065278D01*
X0037936Y0065526D01*
X0037796Y0065736D01*
X0037721Y0065786D01*
X0037796Y0065836D01*
X0037936Y0066046D01*
X0037985Y0066294D01*
X0037985Y0067818D01*
X0037936Y0068066D01*
X0037796Y0068276D01*
X0037586Y0068416D01*
X0037338Y0068465D01*
X0035814Y0068465D01*
X0035566Y0068416D01*
X0035356Y0068276D01*
X0035306Y0068201D01*
X0035256Y0068276D01*
X0035046Y0068416D01*
X0034798Y0068465D01*
X0033274Y0068465D01*
X0033026Y0068416D01*
X0032816Y0068276D01*
X0032676Y0068066D01*
X0032627Y0067818D01*
X0009217Y0067818D01*
X0009217Y0069342D01*
X0009153Y0069662D01*
X0008972Y0069932D01*
X0007639Y0071266D01*
X0007639Y0071325D01*
X0007482Y0071706D01*
X0007191Y0071997D01*
X0006811Y0072155D01*
X0006399Y0072155D01*
X0006018Y0071998D01*
X0005727Y0071707D01*
X0005569Y0071327D01*
X0005569Y0070915D01*
X0005726Y0070534D01*
X0006017Y0070243D01*
X0005334Y0070243D01*
X0005086Y0070194D01*
X0004876Y0070054D01*
X0004826Y0069979D01*
X0004776Y0070054D01*
X0004566Y0070194D01*
X0004318Y0070243D01*
X0002794Y0070243D01*
X0002546Y0070194D01*
X0002336Y0070054D01*
X0002196Y0069844D01*
X0002147Y0069596D01*
X0000710Y0069596D01*
X0000710Y0077978D01*
X0011545Y0077978D01*
X0011545Y0076454D01*
X0011594Y0076206D01*
X0011734Y0075996D01*
X0011809Y0075946D01*
X0011734Y0075896D01*
X0011594Y0075686D01*
X0011545Y0075438D01*
X0011545Y0073914D01*
X0011594Y0073666D01*
X0011734Y0073456D01*
X0011944Y0073316D01*
X0012192Y0073267D01*
X0013716Y0073267D01*
X0013964Y0073316D01*
X0014174Y0073456D01*
X0014224Y0073531D01*
X0014274Y0073456D01*
X0014484Y0073316D01*
X0014732Y0073267D01*
X0016256Y0073267D01*
X0016504Y0073316D01*
X0016714Y0073456D01*
X0016764Y0073531D01*
X0016814Y0073456D01*
X0017024Y0073316D01*
X0017272Y0073267D01*
X0018796Y0073267D01*
X0019044Y0073316D01*
X0019254Y0073456D01*
X0019394Y0073666D01*
X0019443Y0073914D01*
X0019443Y0075438D01*
X0019394Y0075686D01*
X0019254Y0075896D01*
X0019179Y0075946D01*
X0019254Y0075996D01*
X0019394Y0076206D01*
X0019443Y0076454D01*
X0019443Y0077470D01*
X0022467Y0077470D01*
X0022467Y0075946D01*
X0022516Y0075698D01*
X0022656Y0075488D01*
X0022731Y0075438D01*
X0022656Y0075388D01*
X0022516Y0075178D01*
X0022467Y0074930D01*
X0022467Y0073406D01*
X0022516Y0073158D01*
X0022656Y0072948D01*
X0022866Y0072808D01*
X0023114Y0072759D01*
X0024638Y0072759D01*
X0024886Y0072808D01*
X0025096Y0072948D01*
X0025146Y0073023D01*
X0025196Y0072948D01*
X0025406Y0072808D01*
X0025654Y0072759D01*
X0027178Y0072759D01*
X0027426Y0072808D01*
X0027636Y0072948D01*
X0027776Y0073158D01*
X0027825Y0073406D01*
X0027825Y0074930D01*
X0027776Y0075178D01*
X0027636Y0075388D01*
X0027561Y0075438D01*
X0027636Y0075488D01*
X0027776Y0075698D01*
X0027825Y0075946D01*
X0027825Y0077470D01*
X0027776Y0077718D01*
X0027636Y0077928D01*
X0027426Y0078068D01*
X0027178Y0078117D01*
X0025654Y0078117D01*
X0025406Y0078068D01*
X0025196Y0077928D01*
X0025146Y0077853D01*
X0025096Y0077928D01*
X0024886Y0078068D01*
X0024638Y0078117D01*
X0023114Y0078117D01*
X0022866Y0078068D01*
X0022656Y0077928D01*
X0022516Y0077718D01*
X0022467Y0077470D01*
X0019443Y0077470D01*
X0019443Y0077978D01*
X0019394Y0078226D01*
X0019254Y0078436D01*
X0019044Y0078576D01*
X0018796Y0078625D01*
X0017272Y0078625D01*
X0017024Y0078576D01*
X0016814Y0078436D01*
X0016764Y0078361D01*
X0016714Y0078436D01*
X0016504Y0078576D01*
X0016256Y0078625D01*
X0014732Y0078625D01*
X0014484Y0078576D01*
X0014274Y0078436D01*
X0014224Y0078361D01*
X0014174Y0078436D01*
X0013964Y0078576D01*
X0013716Y0078625D01*
X0012192Y0078625D01*
X0011944Y0078576D01*
X0011734Y0078436D01*
X0011594Y0078226D01*
X0011545Y0077978D01*
X0000710Y0077978D01*
X0000710Y0079554D01*
X0039422Y0079554D01*
X0039422Y0040842D01*
X0039422Y0040842D01*
G37*
X0039422Y0040842D02*
X0000710Y0040842D01*
X0000710Y0069596D01*
X0002147Y0069596D01*
X0002147Y0068072D01*
X0002196Y0067824D01*
X0002336Y0067614D01*
X0002411Y0067564D01*
X0002336Y0067514D01*
X0002196Y0067304D01*
X0002147Y0067056D01*
X0002147Y0065532D01*
X0002196Y0065284D01*
X0002336Y0065074D01*
X0002411Y0065024D01*
X0002336Y0064974D01*
X0002196Y0064764D01*
X0002147Y0064516D01*
X0002147Y0062992D01*
X0002196Y0062744D01*
X0002336Y0062534D01*
X0002411Y0062484D01*
X0002336Y0062434D01*
X0002196Y0062224D01*
X0002147Y0061976D01*
X0002147Y0060452D01*
X0002196Y0060204D01*
X0002336Y0059994D01*
X0002411Y0059944D01*
X0002336Y0059894D01*
X0002196Y0059684D01*
X0002147Y0059436D01*
X0002147Y0057912D01*
X0002196Y0057664D01*
X0002336Y0057454D01*
X0002411Y0057404D01*
X0002336Y0057354D01*
X0002196Y0057144D01*
X0002147Y0056896D01*
X0002147Y0055372D01*
X0002196Y0055124D01*
X0002336Y0054914D01*
X0002411Y0054864D01*
X0002336Y0054814D01*
X0002196Y0054604D01*
X0002147Y0054356D01*
X0002147Y0052832D01*
X0002196Y0052584D01*
X0002336Y0052374D01*
X0002546Y0052234D01*
X0002794Y0052185D01*
X0004318Y0052185D01*
X0004566Y0052234D01*
X0004776Y0052374D01*
X0004826Y0052449D01*
X0004876Y0052374D01*
X0005086Y0052234D01*
X0005334Y0052185D01*
X0006858Y0052185D01*
X0007106Y0052234D01*
X0007316Y0052374D01*
X0007456Y0052584D01*
X0007505Y0052832D01*
X0007505Y0054356D01*
X0007456Y0054604D01*
X0007316Y0054814D01*
X0007241Y0054864D01*
X0007316Y0054914D01*
X0007456Y0055124D01*
X0007505Y0055372D01*
X0007505Y0056896D01*
X0007456Y0057144D01*
X0007316Y0057354D01*
X0007241Y0057404D01*
X0007316Y0057454D01*
X0007456Y0057664D01*
X0007505Y0057912D01*
X0007505Y0059436D01*
X0007456Y0059684D01*
X0007316Y0059894D01*
X0007241Y0059944D01*
X0007316Y0059994D01*
X0007456Y0060204D01*
X0007505Y0060452D01*
X0007505Y0061976D01*
X0007456Y0062224D01*
X0007316Y0062434D01*
X0007241Y0062484D01*
X0007316Y0062534D01*
X0007456Y0062744D01*
X0007505Y0062992D01*
X0007505Y0064516D01*
X0007456Y0064764D01*
X0007316Y0064974D01*
X0007241Y0065024D01*
X0007316Y0065074D01*
X0007456Y0065284D01*
X0007505Y0065532D01*
X0007505Y0067056D01*
X0007456Y0067304D01*
X0007316Y0067514D01*
X0007241Y0067564D01*
X0007316Y0067614D01*
X0007456Y0067824D01*
X0007505Y0068072D01*
X0007505Y0069038D01*
X0007547Y0068996D01*
X0007547Y0052832D01*
X0007611Y0052512D01*
X0007792Y0052242D01*
X0008191Y0051842D01*
X0008191Y0043044D01*
X0008255Y0042724D01*
X0008293Y0042667D01*
X0008436Y0042454D01*
X0009316Y0041574D01*
X0009586Y0041393D01*
X0009906Y0041329D01*
X0015941Y0041329D01*
X0016261Y0041393D01*
X0016531Y0041574D01*
X0017354Y0042397D01*
X0017535Y0042667D01*
X0017550Y0042740D01*
X0018669Y0042740D01*
X0018917Y0042789D01*
X0018990Y0042838D01*
X0019039Y0042847D01*
X0019245Y0042985D01*
X0019383Y0043191D01*
X0019431Y0043434D01*
X0019431Y0046736D01*
X0022467Y0046736D01*
X0022467Y0045212D01*
X0022516Y0044964D01*
X0022656Y0044754D01*
X0022731Y0044704D01*
X0022656Y0044654D01*
X0022516Y0044444D01*
X0022467Y0044196D01*
X0022467Y0042672D01*
X0022516Y0042424D01*
X0022656Y0042214D01*
X0022866Y0042074D01*
X0023114Y0042025D01*
X0024638Y0042025D01*
X0024886Y0042074D01*
X0025096Y0042214D01*
X0025146Y0042289D01*
X0025196Y0042214D01*
X0025406Y0042074D01*
X0025654Y0042025D01*
X0027178Y0042025D01*
X0027426Y0042074D01*
X0027636Y0042214D01*
X0027776Y0042424D01*
X0027825Y0042672D01*
X0027825Y0044196D01*
X0027776Y0044444D01*
X0027636Y0044654D01*
X0027561Y0044704D01*
X0027636Y0044754D01*
X0027776Y0044964D01*
X0027825Y0045212D01*
X0027825Y0046736D01*
X0027776Y0046984D01*
X0027636Y0047194D01*
X0027426Y0047334D01*
X0027178Y0047383D01*
X0025654Y0047383D01*
X0025406Y0047334D01*
X0025196Y0047194D01*
X0025146Y0047119D01*
X0025096Y0047194D01*
X0024886Y0047334D01*
X0024638Y0047383D01*
X0023114Y0047383D01*
X0022866Y0047334D01*
X0022656Y0047194D01*
X0022516Y0046984D01*
X0022467Y0046736D01*
X0019431Y0046736D01*
X0019431Y0050537D01*
X0020583Y0051689D01*
X0024130Y0051689D01*
X0024373Y0051737D01*
X0024579Y0051875D01*
X0025261Y0052557D01*
X0025284Y0052500D01*
X0025575Y0052209D01*
X0025955Y0052051D01*
X0026367Y0052051D01*
X0026748Y0052208D01*
X0027039Y0052499D01*
X0027197Y0052879D01*
X0027197Y0053291D01*
X0027040Y0053672D01*
X0026749Y0053963D01*
X0026691Y0053987D01*
X0027119Y0054415D01*
X0027257Y0054621D01*
X0027305Y0054864D01*
X0027305Y0056642D01*
X0032627Y0056642D01*
X0032627Y0055118D01*
X0032676Y0054870D01*
X0032816Y0054660D01*
X0032891Y0054610D01*
X0032816Y0054560D01*
X0032676Y0054350D01*
X0032627Y0054102D01*
X0032627Y0052578D01*
X0032676Y0052330D01*
X0032816Y0052120D01*
X0033026Y0051980D01*
X0033274Y0051931D01*
X0034798Y0051931D01*
X0035046Y0051980D01*
X0035256Y0052120D01*
X0035306Y0052195D01*
X0035356Y0052120D01*
X0035566Y0051980D01*
X0035814Y0051931D01*
X0037338Y0051931D01*
X0037586Y0051980D01*
X0037796Y0052120D01*
X0037936Y0052330D01*
X0037985Y0052578D01*
X0037985Y0054102D01*
X0037936Y0054350D01*
X0037796Y0054560D01*
X0037721Y0054610D01*
X0037796Y0054660D01*
X0037936Y0054870D01*
X0037985Y0055118D01*
X0037985Y0056642D01*
X0037936Y0056890D01*
X0037796Y0057100D01*
X0037586Y0057240D01*
X0037338Y0057289D01*
X0035814Y0057289D01*
X0035566Y0057240D01*
X0035356Y0057100D01*
X0035306Y0057025D01*
X0035256Y0057100D01*
X0035046Y0057240D01*
X0034798Y0057289D01*
X0033274Y0057289D01*
X0033026Y0057240D01*
X0032816Y0057100D01*
X0032676Y0056890D01*
X0032627Y0056642D01*
X0027305Y0056642D01*
X0027305Y0060084D01*
X0027432Y0060059D01*
X0028956Y0060059D01*
X0029204Y0060108D01*
X0029414Y0060248D01*
X0029554Y0060458D01*
X0029603Y0060706D01*
X0029603Y0062230D01*
X0029554Y0062478D01*
X0029414Y0062688D01*
X0029204Y0062828D01*
X0028956Y0062877D01*
X0027432Y0062877D01*
X0027305Y0062852D01*
X0027305Y0063246D01*
X0027257Y0063489D01*
X0027201Y0063572D01*
X0027201Y0065869D01*
X0027293Y0065961D01*
X0027451Y0066341D01*
X0027451Y0066753D01*
X0027294Y0067134D01*
X0027003Y0067425D01*
X0026623Y0067583D01*
X0026211Y0067583D01*
X0025830Y0067426D01*
X0025539Y0067135D01*
X0025381Y0066755D01*
X0025381Y0066343D01*
X0025538Y0065962D01*
X0025631Y0065869D01*
X0025631Y0063881D01*
X0022606Y0063881D01*
X0022363Y0063833D01*
X0022157Y0063695D01*
X0022019Y0063489D01*
X0021971Y0063246D01*
X0021971Y0055381D01*
X0021581Y0054991D01*
X0016764Y0054991D01*
X0016521Y0054943D01*
X0016315Y0054805D01*
X0014283Y0052773D01*
X0014145Y0052567D01*
X0014097Y0052324D01*
X0014097Y0043434D01*
X0014145Y0043191D01*
X0014274Y0042999D01*
X0010252Y0042999D01*
X0009861Y0043390D01*
X0009861Y0052188D01*
X0009797Y0052508D01*
X0009616Y0052778D01*
X0009217Y0053178D01*
X0009217Y0067818D01*
X0032627Y0067818D01*
X0032627Y0066294D01*
X0032676Y0066046D01*
X0032816Y0065836D01*
X0032891Y0065786D01*
X0032816Y0065736D01*
X0032676Y0065526D01*
X0032627Y0065278D01*
X0032627Y0063754D01*
X0032676Y0063506D01*
X0032816Y0063296D01*
X0033026Y0063156D01*
X0033274Y0063107D01*
X0034798Y0063107D01*
X0035046Y0063156D01*
X0035256Y0063296D01*
X0035306Y0063371D01*
X0035356Y0063296D01*
X0035566Y0063156D01*
X0035814Y0063107D01*
X0037338Y0063107D01*
X0037586Y0063156D01*
X0037796Y0063296D01*
X0037936Y0063506D01*
X0037985Y0063754D01*
X0037985Y0065278D01*
X0037936Y0065526D01*
X0037796Y0065736D01*
X0037721Y0065786D01*
X0037796Y0065836D01*
X0037936Y0066046D01*
X0037985Y0066294D01*
X0037985Y0067818D01*
X0037936Y0068066D01*
X0037796Y0068276D01*
X0037586Y0068416D01*
X0037338Y0068465D01*
X0035814Y0068465D01*
X0035566Y0068416D01*
X0035356Y0068276D01*
X0035306Y0068201D01*
X0035256Y0068276D01*
X0035046Y0068416D01*
X0034798Y0068465D01*
X0033274Y0068465D01*
X0033026Y0068416D01*
X0032816Y0068276D01*
X0032676Y0068066D01*
X0032627Y0067818D01*
X0009217Y0067818D01*
X0009217Y0069342D01*
X0009153Y0069662D01*
X0008972Y0069932D01*
X0007639Y0071266D01*
X0007639Y0071325D01*
X0007482Y0071706D01*
X0007191Y0071997D01*
X0006811Y0072155D01*
X0006399Y0072155D01*
X0006018Y0071998D01*
X0005727Y0071707D01*
X0005569Y0071327D01*
X0005569Y0070915D01*
X0005726Y0070534D01*
X0006017Y0070243D01*
X0005334Y0070243D01*
X0005086Y0070194D01*
X0004876Y0070054D01*
X0004826Y0069979D01*
X0004776Y0070054D01*
X0004566Y0070194D01*
X0004318Y0070243D01*
X0002794Y0070243D01*
X0002546Y0070194D01*
X0002336Y0070054D01*
X0002196Y0069844D01*
X0002147Y0069596D01*
X0000710Y0069596D01*
X0000710Y0077978D01*
X0011545Y0077978D01*
X0011545Y0076454D01*
X0011594Y0076206D01*
X0011734Y0075996D01*
X0011809Y0075946D01*
X0011734Y0075896D01*
X0011594Y0075686D01*
X0011545Y0075438D01*
X0011545Y0073914D01*
X0011594Y0073666D01*
X0011734Y0073456D01*
X0011944Y0073316D01*
X0012192Y0073267D01*
X0013716Y0073267D01*
X0013964Y0073316D01*
X0014174Y0073456D01*
X0014224Y0073531D01*
X0014274Y0073456D01*
X0014484Y0073316D01*
X0014732Y0073267D01*
X0016256Y0073267D01*
X0016504Y0073316D01*
X0016714Y0073456D01*
X0016764Y0073531D01*
X0016814Y0073456D01*
X0017024Y0073316D01*
X0017272Y0073267D01*
X0018796Y0073267D01*
X0019044Y0073316D01*
X0019254Y0073456D01*
X0019394Y0073666D01*
X0019443Y0073914D01*
X0019443Y0075438D01*
X0019394Y0075686D01*
X0019254Y0075896D01*
X0019179Y0075946D01*
X0019254Y0075996D01*
X0019394Y0076206D01*
X0019443Y0076454D01*
X0019443Y0077470D01*
X0022467Y0077470D01*
X0022467Y0075946D01*
X0022516Y0075698D01*
X0022656Y0075488D01*
X0022731Y0075438D01*
X0022656Y0075388D01*
X0022516Y0075178D01*
X0022467Y0074930D01*
X0022467Y0073406D01*
X0022516Y0073158D01*
X0022656Y0072948D01*
X0022866Y0072808D01*
X0023114Y0072759D01*
X0024638Y0072759D01*
X0024886Y0072808D01*
X0025096Y0072948D01*
X0025146Y0073023D01*
X0025196Y0072948D01*
X0025406Y0072808D01*
X0025654Y0072759D01*
X0027178Y0072759D01*
X0027426Y0072808D01*
X0027636Y0072948D01*
X0027776Y0073158D01*
X0027825Y0073406D01*
X0027825Y0074930D01*
X0027776Y0075178D01*
X0027636Y0075388D01*
X0027561Y0075438D01*
X0027636Y0075488D01*
X0027776Y0075698D01*
X0027825Y0075946D01*
X0027825Y0077470D01*
X0027776Y0077718D01*
X0027636Y0077928D01*
X0027426Y0078068D01*
X0027178Y0078117D01*
X0025654Y0078117D01*
X0025406Y0078068D01*
X0025196Y0077928D01*
X0025146Y0077853D01*
X0025096Y0077928D01*
X0024886Y0078068D01*
X0024638Y0078117D01*
X0023114Y0078117D01*
X0022866Y0078068D01*
X0022656Y0077928D01*
X0022516Y0077718D01*
X0022467Y0077470D01*
X0019443Y0077470D01*
X0019443Y0077978D01*
X0019394Y0078226D01*
X0019254Y0078436D01*
X0019044Y0078576D01*
X0018796Y0078625D01*
X0017272Y0078625D01*
X0017024Y0078576D01*
X0016814Y0078436D01*
X0016764Y0078361D01*
X0016714Y0078436D01*
X0016504Y0078576D01*
X0016256Y0078625D01*
X0014732Y0078625D01*
X0014484Y0078576D01*
X0014274Y0078436D01*
X0014224Y0078361D01*
X0014174Y0078436D01*
X0013964Y0078576D01*
X0013716Y0078625D01*
X0012192Y0078625D01*
X0011944Y0078576D01*
X0011734Y0078436D01*
X0011594Y0078226D01*
X0011545Y0077978D01*
X0000710Y0077978D01*
X0000710Y0079554D01*
X0039422Y0079554D01*
X0039422Y0040842D01*
G36*
X0026543Y0054917D02*
X0024077Y0052451D01*
X0020320Y0052451D01*
X0020271Y0052441D01*
X0020230Y0052414D01*
X0018706Y0050890D01*
X0018679Y0050849D01*
X0018669Y0050800D01*
X0018669Y0047040D01*
X0018523Y0046689D01*
X0018523Y0046277D01*
X0018669Y0045923D01*
X0018669Y0045770D01*
X0018523Y0045419D01*
X0018523Y0045007D01*
X0018669Y0044653D01*
X0018669Y0044500D01*
X0018523Y0044149D01*
X0018523Y0043737D01*
X0018596Y0043561D01*
X0014859Y0043561D01*
X0014859Y0052271D01*
X0016671Y0054083D01*
X0016969Y0054083D01*
X0017323Y0054229D01*
X0021844Y0054229D01*
X0021893Y0054239D01*
X0021934Y0054266D01*
X0022696Y0055028D01*
X0022723Y0055069D01*
X0022733Y0055118D01*
X0022733Y0063119D01*
X0026543Y0063119D01*
X0026543Y0054917D01*
X0026543Y0054917D01*
G37*
X0026543Y0054917D02*
X0024077Y0052451D01*
X0020320Y0052451D01*
X0020271Y0052441D01*
X0020230Y0052414D01*
X0018706Y0050890D01*
X0018679Y0050849D01*
X0018669Y0050800D01*
X0018669Y0047040D01*
X0018523Y0046689D01*
X0018523Y0046277D01*
X0018669Y0045923D01*
X0018669Y0045770D01*
X0018523Y0045419D01*
X0018523Y0045007D01*
X0018669Y0044653D01*
X0018669Y0044500D01*
X0018523Y0044149D01*
X0018523Y0043737D01*
X0018596Y0043561D01*
X0014859Y0043561D01*
X0014859Y0052271D01*
X0016671Y0054083D01*
X0016969Y0054083D01*
X0017323Y0054229D01*
X0021844Y0054229D01*
X0021893Y0054239D01*
X0021934Y0054266D01*
X0022696Y0055028D01*
X0022723Y0055069D01*
X0022733Y0055118D01*
X0022733Y0063119D01*
X0026543Y0063119D01*
X0026543Y0054917D01*
X0040132Y0000000D02*
%LPD*%
G01*
D14*
D17*
X0064805Y0022376D03*
X0064805Y0023376D03*
X0064805Y0024376D03*
X0064805Y0025376D03*
X0066005Y0025376D03*
X0066005Y0024376D03*
X0066005Y0023376D03*
X0066005Y0022376D03*
D20*
X0070612Y0034163D03*
X0070612Y0036703D03*
D40*
X0044958Y0004826D03*
X0085598Y0004826D03*
X0085598Y0035306D03*
X0044958Y0035306D03*
D20*
X0057912Y0034163D03*
X0057912Y0036703D03*
X0062992Y0036703D03*
X0062992Y0034163D03*
X0075692Y0034163D03*
X0075692Y0036703D03*
X0068072Y0036703D03*
X0068072Y0034163D03*
X0073152Y0036703D03*
X0073152Y0034163D03*
X0065532Y0034163D03*
X0065532Y0036703D03*
X0055245Y0034163D03*
X0055245Y0036703D03*
X0060452Y0036703D03*
X0060452Y0034163D03*
X0043053Y0011176D03*
X0043053Y0013716D03*
D29*
X0062992Y0010668D03*
X0062992Y0005668D03*
X0057912Y0005668D03*
X0057912Y0010668D03*
X0045165Y0021336D03*
X0050165Y0021336D03*
X0045165Y0026289D03*
X0050165Y0026289D03*
X0080264Y0026289D03*
X0085264Y0026289D03*
X0080264Y0021336D03*
X0085264Y0021336D03*
X0052959Y0005668D03*
X0052959Y0010668D03*
X0068072Y0010668D03*
X0068072Y0005668D03*
X0073152Y0005668D03*
X0073152Y0010668D03*
X0078232Y0010668D03*
X0078232Y0005668D03*
D27*
X0064516Y0027178D03*
X0063500Y0027178D03*
X0064008Y0028448D03*
X0062738Y0028448D03*
X0077470Y0030480D03*
X0077470Y0031750D03*
X0077470Y0032766D03*
X0077470Y0033782D03*
X0077470Y0034798D03*
X0077470Y0035814D03*
X0051562Y0038100D03*
X0050292Y0038100D03*
X0049022Y0038100D03*
X0049022Y0036830D03*
X0049022Y0035560D03*
X0049022Y0034290D03*
X0049022Y0033020D03*
X0049022Y0031750D03*
X0050292Y0008128D03*
X0050292Y0009652D03*
X0050292Y0010922D03*
X0049784Y0012446D03*
X0081026Y0008890D03*
X0081026Y0010160D03*
X0081026Y0011430D03*
X0081280Y0012700D03*
X0069088Y0018796D03*
X0080264Y0013716D03*
X0078994Y0013716D03*
X0077978Y0013716D03*
X0076962Y0013716D03*
X0075692Y0013716D03*
X0074422Y0013716D03*
X0073152Y0013716D03*
X0071882Y0013716D03*
X0070612Y0013716D03*
X0069342Y0013716D03*
X0068072Y0013716D03*
X0055753Y0013716D03*
X0054610Y0013716D03*
X0059309Y0013716D03*
X0058039Y0013716D03*
X0056896Y0013716D03*
X0053594Y0013716D03*
X0052324Y0013716D03*
X0051054Y0013716D03*
X0058923Y0023997D03*
X0058547Y0024638D03*
X0065532Y0017272D03*
X0064770Y0020320D03*
X0065786Y0021336D03*
X0064770Y0021336D03*
X0088392Y0018415D03*
X0053086Y0016891D03*
X0048768Y0030099D03*
X0072771Y0023384D03*
X0073279Y0018415D03*
X0070612Y0030734D03*
X0060706Y0025019D03*
X0062992Y0030734D03*
X0071838Y0025253D03*
X0075692Y0030734D03*
X0071755Y0022987D03*
X0068072Y0030734D03*
X0072517Y0024511D03*
X0073152Y0030734D03*
X0065532Y0030734D03*
X0070665Y0022376D03*
X0055245Y0030734D03*
X0056388Y0023876D03*
X0060325Y0030734D03*
X0059563Y0024765D03*
X0057912Y0030734D03*
X0057404Y0024384D03*
D33*
X0063500Y0027178D02*
X0064516Y0027178D01*
X0062738Y0028448D02*
X0064008Y0028448D01*
X0077470Y0031750D02*
X0077470Y0030480D01*
X0077470Y0033782D02*
X0077470Y0032766D01*
X0077470Y0035814D02*
X0077470Y0034798D01*
X0050292Y0038100D02*
X0051562Y0038100D01*
X0049022Y0036830D02*
X0049022Y0038100D01*
X0049022Y0034290D02*
X0049022Y0035560D01*
X0049022Y0031750D02*
X0049022Y0033020D01*
X0050292Y0009652D02*
X0050292Y0008128D01*
X0049784Y0012446D02*
X0049784Y0011430D01*
X0049784Y0011430D02*
X0050292Y0010922D01*
X0081026Y0010160D02*
X0081026Y0008890D01*
X0081280Y0012700D02*
X0081280Y0011684D01*
X0081280Y0011684D02*
X0081026Y0011430D01*
X0078994Y0013716D02*
X0080264Y0013716D01*
X0076962Y0013716D02*
X0077978Y0013716D01*
X0074422Y0013716D02*
X0075692Y0013716D01*
X0071882Y0013716D02*
X0073152Y0013716D01*
X0069342Y0013716D02*
X0070612Y0013716D01*
X0068072Y0010668D02*
X0068072Y0013716D01*
X0055753Y0013716D02*
X0055753Y0013716D01*
X0054610Y0013716D02*
X0055753Y0013716D01*
X0056896Y0013716D02*
X0058039Y0013716D01*
X0052324Y0013716D02*
X0053594Y0013716D01*
X0052959Y0010668D02*
X0052959Y0012823D01*
X0052959Y0012823D02*
X0052066Y0013716D01*
X0052066Y0013716D02*
X0051054Y0013716D01*
D12*
X0058547Y0024638D02*
X0058547Y0024373D01*
X0058547Y0024373D02*
X0058923Y0023997D01*
X0066098Y0017272D02*
X0065532Y0017272D01*
X0087249Y0017272D02*
X0066098Y0017272D01*
X0088392Y0018415D02*
X0087249Y0017272D01*
D33*
X0064770Y0021336D02*
X0065786Y0021336D01*
D12*
X0047625Y0017145D02*
X0047879Y0016891D01*
X0047879Y0016891D02*
X0053086Y0016891D01*
X0047625Y0028956D02*
X0047625Y0017145D01*
X0048768Y0030099D02*
X0047625Y0028956D01*
X0072054Y0023864D02*
X0072534Y0023384D01*
X0073279Y0022876D02*
X0073171Y0022984D01*
X0073171Y0022984D02*
X0072771Y0023384D01*
X0073279Y0018415D02*
X0073279Y0022876D01*
X0072534Y0023384D02*
X0072771Y0023384D01*
X0070212Y0025055D02*
X0071403Y0023864D01*
X0071403Y0023864D02*
X0072054Y0023864D01*
X0070612Y0030734D02*
X0070212Y0030334D01*
X0070212Y0030334D02*
X0070212Y0025055D01*
X0060706Y0025585D02*
X0060706Y0025019D01*
X0060706Y0028448D02*
X0060706Y0025585D01*
X0062992Y0030734D02*
X0060706Y0028448D01*
X0075692Y0029107D02*
X0072238Y0025653D01*
X0075692Y0030734D02*
X0075692Y0029107D01*
X0072238Y0025653D02*
X0071838Y0025253D01*
X0068072Y0030734D02*
X0068072Y0026488D01*
X0071573Y0022987D02*
X0071755Y0022987D01*
X0068072Y0026488D02*
X0071573Y0022987D01*
X0071951Y0024511D02*
X0072517Y0024511D01*
X0071590Y0024384D02*
X0071824Y0024384D01*
X0071824Y0024384D02*
X0071951Y0024511D01*
X0073152Y0030734D02*
X0071088Y0028670D01*
X0071088Y0028670D02*
X0071088Y0024886D01*
X0071088Y0024886D02*
X0071590Y0024384D01*
X0070665Y0023188D02*
X0065532Y0028321D01*
X0065532Y0028321D02*
X0065532Y0030734D01*
X0070665Y0022376D02*
X0070665Y0023188D01*
X0055245Y0030168D02*
X0055245Y0030734D01*
X0055245Y0025019D02*
X0055245Y0030168D01*
X0056388Y0023876D02*
X0055245Y0025019D01*
X0059563Y0029972D02*
X0059925Y0030334D01*
X0059563Y0024765D02*
X0059563Y0029972D01*
X0059925Y0030334D02*
X0060325Y0030734D01*
X0057512Y0030334D02*
X0057912Y0030734D01*
X0057404Y0030226D02*
X0057512Y0030334D01*
X0057404Y0024384D02*
X0057404Y0030226D01*
D15*
G36*
X0089714Y0000710D02*
X0040842Y0000710D01*
X0040842Y0012573D01*
X0060440Y0012573D01*
X0060440Y0008763D01*
X0060489Y0008515D01*
X0060629Y0008305D01*
X0060835Y0008168D01*
X0060629Y0008031D01*
X0060489Y0007821D01*
X0060440Y0007573D01*
X0060440Y0003763D01*
X0060489Y0003515D01*
X0060629Y0003305D01*
X0060839Y0003165D01*
X0061087Y0003116D01*
X0064897Y0003116D01*
X0065145Y0003165D01*
X0065355Y0003305D01*
X0065495Y0003515D01*
X0065544Y0003763D01*
X0065544Y0007573D01*
X0065495Y0007821D01*
X0065355Y0008031D01*
X0065149Y0008168D01*
X0065355Y0008305D01*
X0065495Y0008515D01*
X0065544Y0008763D01*
X0065544Y0012573D01*
X0065495Y0012821D01*
X0065355Y0013031D01*
X0065145Y0013171D01*
X0064897Y0013220D01*
X0061087Y0013220D01*
X0060839Y0013171D01*
X0060629Y0013031D01*
X0060489Y0012821D01*
X0060440Y0012573D01*
X0040842Y0012573D01*
X0040842Y0028194D01*
X0042613Y0028194D01*
X0042613Y0024384D01*
X0042662Y0024136D01*
X0042802Y0023926D01*
X0042972Y0023813D01*
X0042802Y0023699D01*
X0042662Y0023489D01*
X0042613Y0023241D01*
X0042613Y0019431D01*
X0042662Y0019183D01*
X0042802Y0018973D01*
X0043012Y0018833D01*
X0043260Y0018784D01*
X0046840Y0018784D01*
X0046840Y0017145D01*
X0046900Y0016845D01*
X0047070Y0016590D01*
X0047324Y0016336D01*
X0047579Y0016166D01*
X0047879Y0016106D01*
X0052407Y0016106D01*
X0052499Y0016014D01*
X0052879Y0015856D01*
X0053291Y0015856D01*
X0053672Y0016013D01*
X0053963Y0016304D01*
X0054121Y0016684D01*
X0054121Y0017096D01*
X0053964Y0017477D01*
X0053673Y0017768D01*
X0053293Y0017926D01*
X0052881Y0017926D01*
X0052500Y0017769D01*
X0052407Y0017676D01*
X0048410Y0017676D01*
X0048410Y0018784D01*
X0052070Y0018784D01*
X0052318Y0018833D01*
X0052528Y0018973D01*
X0052668Y0019183D01*
X0052717Y0019431D01*
X0052717Y0023241D01*
X0052668Y0023489D01*
X0052528Y0023699D01*
X0052358Y0023813D01*
X0052528Y0023926D01*
X0052668Y0024136D01*
X0052717Y0024384D01*
X0052717Y0028194D01*
X0052668Y0028442D01*
X0052528Y0028652D01*
X0052318Y0028792D01*
X0052070Y0028841D01*
X0048621Y0028841D01*
X0048843Y0029064D01*
X0048973Y0029064D01*
X0049354Y0029221D01*
X0049645Y0029512D01*
X0049803Y0029892D01*
X0049803Y0030304D01*
X0049710Y0030529D01*
X0054210Y0030529D01*
X0054367Y0030148D01*
X0054460Y0030055D01*
X0054460Y0025019D01*
X0054520Y0024719D01*
X0054690Y0024464D01*
X0055353Y0023801D01*
X0055353Y0023671D01*
X0055510Y0023290D01*
X0055801Y0022999D01*
X0056181Y0022841D01*
X0056593Y0022841D01*
X0056974Y0022998D01*
X0057265Y0023289D01*
X0057290Y0023349D01*
X0057609Y0023349D01*
X0057990Y0023506D01*
X0058281Y0023797D01*
X0058439Y0024177D01*
X0058439Y0024589D01*
X0058282Y0024970D01*
X0058189Y0025063D01*
X0058189Y0029729D01*
X0058498Y0029856D01*
X0058789Y0030147D01*
X0058835Y0030257D01*
X0058819Y0030179D01*
X0058778Y0029972D01*
X0058778Y0025444D01*
X0058686Y0025352D01*
X0058528Y0024972D01*
X0058528Y0024560D01*
X0058685Y0024179D01*
X0058976Y0023888D01*
X0059356Y0023730D01*
X0059768Y0023730D01*
X0060149Y0023887D01*
X0060320Y0024058D01*
X0060499Y0023984D01*
X0060911Y0023984D01*
X0061292Y0024141D01*
X0061583Y0024432D01*
X0061741Y0024812D01*
X0061741Y0025224D01*
X0061584Y0025605D01*
X0061491Y0025698D01*
X0061491Y0025908D01*
X0063627Y0025908D01*
X0063627Y0019812D01*
X0063675Y0019569D01*
X0063813Y0019363D01*
X0064019Y0019225D01*
X0064262Y0019177D01*
X0066548Y0019177D01*
X0066791Y0019225D01*
X0066997Y0019363D01*
X0067135Y0019569D01*
X0067183Y0019812D01*
X0067183Y0025560D01*
X0069786Y0022957D01*
X0069630Y0022583D01*
X0069630Y0022171D01*
X0069787Y0021790D01*
X0070078Y0021499D01*
X0070458Y0021341D01*
X0070870Y0021341D01*
X0071251Y0021498D01*
X0071542Y0021789D01*
X0071610Y0021952D01*
X0071960Y0021952D01*
X0072341Y0022109D01*
X0072494Y0022262D01*
X0072494Y0019094D01*
X0072402Y0019002D01*
X0072244Y0018622D01*
X0072244Y0018210D01*
X0072307Y0018057D01*
X0066211Y0018057D01*
X0066119Y0018149D01*
X0065739Y0018307D01*
X0065327Y0018307D01*
X0064946Y0018150D01*
X0064655Y0017859D01*
X0064497Y0017479D01*
X0064497Y0017067D01*
X0064654Y0016686D01*
X0064945Y0016395D01*
X0065325Y0016237D01*
X0065737Y0016237D01*
X0066118Y0016394D01*
X0066211Y0016487D01*
X0087249Y0016487D01*
X0087549Y0016547D01*
X0087804Y0016717D01*
X0088467Y0017380D01*
X0088597Y0017380D01*
X0088978Y0017537D01*
X0089269Y0017828D01*
X0089427Y0018208D01*
X0089427Y0018620D01*
X0089270Y0019001D01*
X0088979Y0019292D01*
X0088599Y0019450D01*
X0088187Y0019450D01*
X0087806Y0019293D01*
X0087785Y0019271D01*
X0087816Y0019431D01*
X0087816Y0023241D01*
X0087767Y0023489D01*
X0087627Y0023699D01*
X0087457Y0023813D01*
X0087627Y0023926D01*
X0087767Y0024136D01*
X0087816Y0024384D01*
X0087816Y0028194D01*
X0087767Y0028442D01*
X0087627Y0028652D01*
X0087417Y0028792D01*
X0087169Y0028841D01*
X0083359Y0028841D01*
X0083111Y0028792D01*
X0082901Y0028652D01*
X0082764Y0028446D01*
X0082627Y0028652D01*
X0082417Y0028792D01*
X0082169Y0028841D01*
X0078359Y0028841D01*
X0078111Y0028792D01*
X0077901Y0028652D01*
X0077761Y0028442D01*
X0077712Y0028194D01*
X0077712Y0024384D01*
X0077761Y0024136D01*
X0077901Y0023926D01*
X0078071Y0023813D01*
X0077901Y0023699D01*
X0077761Y0023489D01*
X0077712Y0023241D01*
X0077712Y0019431D01*
X0077761Y0019183D01*
X0077901Y0018973D01*
X0078111Y0018833D01*
X0078359Y0018784D01*
X0082169Y0018784D01*
X0082417Y0018833D01*
X0082627Y0018973D01*
X0082764Y0019179D01*
X0082901Y0018973D01*
X0083111Y0018833D01*
X0083359Y0018784D01*
X0087169Y0018784D01*
X0087417Y0018833D01*
X0087456Y0018859D01*
X0087357Y0018622D01*
X0087357Y0018490D01*
X0086924Y0018057D01*
X0074251Y0018057D01*
X0074314Y0018208D01*
X0074314Y0018620D01*
X0074157Y0019001D01*
X0074064Y0019094D01*
X0074064Y0022876D01*
X0074004Y0023176D01*
X0073834Y0023431D01*
X0073834Y0023431D01*
X0073806Y0023459D01*
X0073806Y0023589D01*
X0073649Y0023970D01*
X0073482Y0024137D01*
X0073552Y0024304D01*
X0073552Y0024716D01*
X0073395Y0025097D01*
X0073104Y0025388D01*
X0073089Y0025394D01*
X0076247Y0028552D01*
X0076417Y0028806D01*
X0076477Y0029107D01*
X0076477Y0030055D01*
X0076569Y0030147D01*
X0076727Y0030527D01*
X0076727Y0030939D01*
X0076570Y0031320D01*
X0076279Y0031611D01*
X0075899Y0031769D01*
X0075487Y0031769D01*
X0075106Y0031612D01*
X0074815Y0031321D01*
X0074657Y0030941D01*
X0074657Y0030529D01*
X0074814Y0030148D01*
X0074907Y0030055D01*
X0074907Y0029432D01*
X0071873Y0026398D01*
X0071873Y0028345D01*
X0073227Y0029699D01*
X0073357Y0029699D01*
X0073738Y0029856D01*
X0074029Y0030147D01*
X0074187Y0030527D01*
X0074187Y0030939D01*
X0074030Y0031320D01*
X0073739Y0031611D01*
X0073359Y0031769D01*
X0072947Y0031769D01*
X0072566Y0031612D01*
X0072275Y0031321D01*
X0072117Y0030941D01*
X0072117Y0030809D01*
X0071513Y0030205D01*
X0071647Y0030527D01*
X0071647Y0030939D01*
X0071490Y0031320D01*
X0071199Y0031611D01*
X0070819Y0031769D01*
X0070407Y0031769D01*
X0070026Y0031612D01*
X0069735Y0031321D01*
X0069577Y0030941D01*
X0069577Y0030770D01*
X0069487Y0030634D01*
X0069465Y0030527D01*
X0069427Y0030334D01*
X0069427Y0026243D01*
X0068857Y0026813D01*
X0068857Y0030055D01*
X0068949Y0030147D01*
X0069107Y0030527D01*
X0069107Y0030939D01*
X0068950Y0031320D01*
X0068659Y0031611D01*
X0068279Y0031769D01*
X0067867Y0031769D01*
X0067486Y0031612D01*
X0067195Y0031321D01*
X0067037Y0030941D01*
X0067037Y0030529D01*
X0067194Y0030148D01*
X0067287Y0030055D01*
X0067287Y0027676D01*
X0066317Y0028646D01*
X0066317Y0030055D01*
X0066409Y0030147D01*
X0066567Y0030527D01*
X0066567Y0030939D01*
X0066410Y0031320D01*
X0066119Y0031611D01*
X0065739Y0031769D01*
X0065327Y0031769D01*
X0064946Y0031612D01*
X0064655Y0031321D01*
X0064497Y0030941D01*
X0064497Y0030529D01*
X0064654Y0030148D01*
X0064747Y0030055D01*
X0064747Y0028321D01*
X0064807Y0028021D01*
X0064977Y0027766D01*
X0066200Y0026543D01*
X0064262Y0026543D01*
X0064019Y0026495D01*
X0063813Y0026357D01*
X0063675Y0026151D01*
X0063627Y0025908D01*
X0061491Y0025908D01*
X0061491Y0028123D01*
X0063067Y0029699D01*
X0063197Y0029699D01*
X0063578Y0029856D01*
X0063869Y0030147D01*
X0064027Y0030527D01*
X0064027Y0030939D01*
X0063870Y0031320D01*
X0063579Y0031611D01*
X0063199Y0031769D01*
X0062787Y0031769D01*
X0062406Y0031612D01*
X0062115Y0031321D01*
X0061957Y0030941D01*
X0061957Y0030809D01*
X0060348Y0029200D01*
X0060348Y0029647D01*
X0060400Y0029699D01*
X0060530Y0029699D01*
X0060911Y0029856D01*
X0061202Y0030147D01*
X0061360Y0030527D01*
X0061360Y0030939D01*
X0061203Y0031320D01*
X0060912Y0031611D01*
X0060532Y0031769D01*
X0060120Y0031769D01*
X0059739Y0031612D01*
X0059448Y0031321D01*
X0059290Y0030941D01*
X0059290Y0030809D01*
X0059008Y0030527D01*
X0058846Y0030285D01*
X0058947Y0030527D01*
X0058947Y0030939D01*
X0058790Y0031320D01*
X0058499Y0031611D01*
X0058119Y0031769D01*
X0057707Y0031769D01*
X0057326Y0031612D01*
X0057035Y0031321D01*
X0056877Y0030941D01*
X0056877Y0030809D01*
X0056849Y0030781D01*
X0056679Y0030526D01*
X0056628Y0030272D01*
X0056619Y0030226D01*
X0056619Y0025063D01*
X0056527Y0024971D01*
X0056502Y0024911D01*
X0056463Y0024911D01*
X0056030Y0025344D01*
X0056030Y0030055D01*
X0056122Y0030147D01*
X0056280Y0030527D01*
X0056280Y0030939D01*
X0056123Y0031320D01*
X0055832Y0031611D01*
X0055452Y0031769D01*
X0055040Y0031769D01*
X0054659Y0031612D01*
X0054368Y0031321D01*
X0054210Y0030941D01*
X0054210Y0030529D01*
X0049710Y0030529D01*
X0049646Y0030685D01*
X0049355Y0030976D01*
X0048975Y0031134D01*
X0048563Y0031134D01*
X0048182Y0030977D01*
X0047891Y0030686D01*
X0047733Y0030306D01*
X0047733Y0030174D01*
X0047070Y0029511D01*
X0046900Y0029256D01*
X0046861Y0029064D01*
X0046840Y0028956D01*
X0046840Y0028841D01*
X0043260Y0028841D01*
X0043012Y0028792D01*
X0042802Y0028652D01*
X0042662Y0028442D01*
X0042613Y0028194D01*
X0040842Y0028194D01*
X0040842Y0037465D01*
X0053836Y0037465D01*
X0053836Y0035941D01*
X0053885Y0035693D01*
X0054025Y0035483D01*
X0054100Y0035433D01*
X0054025Y0035383D01*
X0053885Y0035173D01*
X0053836Y0034925D01*
X0053836Y0033401D01*
X0053885Y0033153D01*
X0054025Y0032943D01*
X0054235Y0032803D01*
X0054483Y0032754D01*
X0056007Y0032754D01*
X0056255Y0032803D01*
X0056465Y0032943D01*
X0056579Y0033113D01*
X0056692Y0032943D01*
X0056902Y0032803D01*
X0057150Y0032754D01*
X0058674Y0032754D01*
X0058922Y0032803D01*
X0059132Y0032943D01*
X0059182Y0033018D01*
X0059232Y0032943D01*
X0059442Y0032803D01*
X0059690Y0032754D01*
X0061214Y0032754D01*
X0061462Y0032803D01*
X0061672Y0032943D01*
X0061722Y0033018D01*
X0061772Y0032943D01*
X0061982Y0032803D01*
X0062230Y0032754D01*
X0063754Y0032754D01*
X0064002Y0032803D01*
X0064212Y0032943D01*
X0064262Y0033018D01*
X0064312Y0032943D01*
X0064522Y0032803D01*
X0064770Y0032754D01*
X0066294Y0032754D01*
X0066542Y0032803D01*
X0066752Y0032943D01*
X0066802Y0033018D01*
X0066852Y0032943D01*
X0067062Y0032803D01*
X0067310Y0032754D01*
X0068834Y0032754D01*
X0069082Y0032803D01*
X0069292Y0032943D01*
X0069342Y0033018D01*
X0069392Y0032943D01*
X0069602Y0032803D01*
X0069850Y0032754D01*
X0071374Y0032754D01*
X0071622Y0032803D01*
X0071832Y0032943D01*
X0071882Y0033018D01*
X0071932Y0032943D01*
X0072142Y0032803D01*
X0072390Y0032754D01*
X0073914Y0032754D01*
X0074162Y0032803D01*
X0074372Y0032943D01*
X0074422Y0033018D01*
X0074472Y0032943D01*
X0074682Y0032803D01*
X0074930Y0032754D01*
X0076454Y0032754D01*
X0076702Y0032803D01*
X0076912Y0032943D01*
X0077052Y0033153D01*
X0077101Y0033401D01*
X0077101Y0034925D01*
X0077052Y0035173D01*
X0076912Y0035383D01*
X0076837Y0035433D01*
X0076912Y0035483D01*
X0077052Y0035693D01*
X0077101Y0035941D01*
X0077101Y0037465D01*
X0077052Y0037713D01*
X0076912Y0037923D01*
X0076702Y0038063D01*
X0076454Y0038112D01*
X0074930Y0038112D01*
X0074682Y0038063D01*
X0074472Y0037923D01*
X0074422Y0037848D01*
X0074372Y0037923D01*
X0074162Y0038063D01*
X0073914Y0038112D01*
X0072390Y0038112D01*
X0072142Y0038063D01*
X0071932Y0037923D01*
X0071882Y0037848D01*
X0071832Y0037923D01*
X0071622Y0038063D01*
X0071374Y0038112D01*
X0069850Y0038112D01*
X0069602Y0038063D01*
X0069392Y0037923D01*
X0069342Y0037848D01*
X0069292Y0037923D01*
X0069082Y0038063D01*
X0068834Y0038112D01*
X0067310Y0038112D01*
X0067062Y0038063D01*
X0066852Y0037923D01*
X0066802Y0037848D01*
X0066752Y0037923D01*
X0066542Y0038063D01*
X0066294Y0038112D01*
X0064770Y0038112D01*
X0064522Y0038063D01*
X0064312Y0037923D01*
X0064262Y0037848D01*
X0064212Y0037923D01*
X0064002Y0038063D01*
X0063754Y0038112D01*
X0062230Y0038112D01*
X0061982Y0038063D01*
X0061772Y0037923D01*
X0061722Y0037848D01*
X0061672Y0037923D01*
X0061462Y0038063D01*
X0061214Y0038112D01*
X0059690Y0038112D01*
X0059442Y0038063D01*
X0059232Y0037923D01*
X0059182Y0037848D01*
X0059132Y0037923D01*
X0058922Y0038063D01*
X0058674Y0038112D01*
X0057150Y0038112D01*
X0056902Y0038063D01*
X0056692Y0037923D01*
X0056579Y0037753D01*
X0056465Y0037923D01*
X0056255Y0038063D01*
X0056007Y0038112D01*
X0054483Y0038112D01*
X0054235Y0038063D01*
X0054025Y0037923D01*
X0053885Y0037713D01*
X0053836Y0037465D01*
X0040842Y0037465D01*
X0040842Y0039422D01*
X0089714Y0039422D01*
X0089714Y0000710D01*
X0089714Y0000710D01*
G37*
X0089714Y0000710D02*
X0040842Y0000710D01*
X0040842Y0012573D01*
X0060440Y0012573D01*
X0060440Y0008763D01*
X0060489Y0008515D01*
X0060629Y0008305D01*
X0060835Y0008168D01*
X0060629Y0008031D01*
X0060489Y0007821D01*
X0060440Y0007573D01*
X0060440Y0003763D01*
X0060489Y0003515D01*
X0060629Y0003305D01*
X0060839Y0003165D01*
X0061087Y0003116D01*
X0064897Y0003116D01*
X0065145Y0003165D01*
X0065355Y0003305D01*
X0065495Y0003515D01*
X0065544Y0003763D01*
X0065544Y0007573D01*
X0065495Y0007821D01*
X0065355Y0008031D01*
X0065149Y0008168D01*
X0065355Y0008305D01*
X0065495Y0008515D01*
X0065544Y0008763D01*
X0065544Y0012573D01*
X0065495Y0012821D01*
X0065355Y0013031D01*
X0065145Y0013171D01*
X0064897Y0013220D01*
X0061087Y0013220D01*
X0060839Y0013171D01*
X0060629Y0013031D01*
X0060489Y0012821D01*
X0060440Y0012573D01*
X0040842Y0012573D01*
X0040842Y0028194D01*
X0042613Y0028194D01*
X0042613Y0024384D01*
X0042662Y0024136D01*
X0042802Y0023926D01*
X0042972Y0023813D01*
X0042802Y0023699D01*
X0042662Y0023489D01*
X0042613Y0023241D01*
X0042613Y0019431D01*
X0042662Y0019183D01*
X0042802Y0018973D01*
X0043012Y0018833D01*
X0043260Y0018784D01*
X0046840Y0018784D01*
X0046840Y0017145D01*
X0046900Y0016845D01*
X0047070Y0016590D01*
X0047324Y0016336D01*
X0047579Y0016166D01*
X0047879Y0016106D01*
X0052407Y0016106D01*
X0052499Y0016014D01*
X0052879Y0015856D01*
X0053291Y0015856D01*
X0053672Y0016013D01*
X0053963Y0016304D01*
X0054121Y0016684D01*
X0054121Y0017096D01*
X0053964Y0017477D01*
X0053673Y0017768D01*
X0053293Y0017926D01*
X0052881Y0017926D01*
X0052500Y0017769D01*
X0052407Y0017676D01*
X0048410Y0017676D01*
X0048410Y0018784D01*
X0052070Y0018784D01*
X0052318Y0018833D01*
X0052528Y0018973D01*
X0052668Y0019183D01*
X0052717Y0019431D01*
X0052717Y0023241D01*
X0052668Y0023489D01*
X0052528Y0023699D01*
X0052358Y0023813D01*
X0052528Y0023926D01*
X0052668Y0024136D01*
X0052717Y0024384D01*
X0052717Y0028194D01*
X0052668Y0028442D01*
X0052528Y0028652D01*
X0052318Y0028792D01*
X0052070Y0028841D01*
X0048621Y0028841D01*
X0048843Y0029064D01*
X0048973Y0029064D01*
X0049354Y0029221D01*
X0049645Y0029512D01*
X0049803Y0029892D01*
X0049803Y0030304D01*
X0049710Y0030529D01*
X0054210Y0030529D01*
X0054367Y0030148D01*
X0054460Y0030055D01*
X0054460Y0025019D01*
X0054520Y0024719D01*
X0054690Y0024464D01*
X0055353Y0023801D01*
X0055353Y0023671D01*
X0055510Y0023290D01*
X0055801Y0022999D01*
X0056181Y0022841D01*
X0056593Y0022841D01*
X0056974Y0022998D01*
X0057265Y0023289D01*
X0057290Y0023349D01*
X0057609Y0023349D01*
X0057990Y0023506D01*
X0058281Y0023797D01*
X0058439Y0024177D01*
X0058439Y0024589D01*
X0058282Y0024970D01*
X0058189Y0025063D01*
X0058189Y0029729D01*
X0058498Y0029856D01*
X0058789Y0030147D01*
X0058835Y0030257D01*
X0058819Y0030179D01*
X0058778Y0029972D01*
X0058778Y0025444D01*
X0058686Y0025352D01*
X0058528Y0024972D01*
X0058528Y0024560D01*
X0058685Y0024179D01*
X0058976Y0023888D01*
X0059356Y0023730D01*
X0059768Y0023730D01*
X0060149Y0023887D01*
X0060320Y0024058D01*
X0060499Y0023984D01*
X0060911Y0023984D01*
X0061292Y0024141D01*
X0061583Y0024432D01*
X0061741Y0024812D01*
X0061741Y0025224D01*
X0061584Y0025605D01*
X0061491Y0025698D01*
X0061491Y0025908D01*
X0063627Y0025908D01*
X0063627Y0019812D01*
X0063675Y0019569D01*
X0063813Y0019363D01*
X0064019Y0019225D01*
X0064262Y0019177D01*
X0066548Y0019177D01*
X0066791Y0019225D01*
X0066997Y0019363D01*
X0067135Y0019569D01*
X0067183Y0019812D01*
X0067183Y0025560D01*
X0069786Y0022957D01*
X0069630Y0022583D01*
X0069630Y0022171D01*
X0069787Y0021790D01*
X0070078Y0021499D01*
X0070458Y0021341D01*
X0070870Y0021341D01*
X0071251Y0021498D01*
X0071542Y0021789D01*
X0071610Y0021952D01*
X0071960Y0021952D01*
X0072341Y0022109D01*
X0072494Y0022262D01*
X0072494Y0019094D01*
X0072402Y0019002D01*
X0072244Y0018622D01*
X0072244Y0018210D01*
X0072307Y0018057D01*
X0066211Y0018057D01*
X0066119Y0018149D01*
X0065739Y0018307D01*
X0065327Y0018307D01*
X0064946Y0018150D01*
X0064655Y0017859D01*
X0064497Y0017479D01*
X0064497Y0017067D01*
X0064654Y0016686D01*
X0064945Y0016395D01*
X0065325Y0016237D01*
X0065737Y0016237D01*
X0066118Y0016394D01*
X0066211Y0016487D01*
X0087249Y0016487D01*
X0087549Y0016547D01*
X0087804Y0016717D01*
X0088467Y0017380D01*
X0088597Y0017380D01*
X0088978Y0017537D01*
X0089269Y0017828D01*
X0089427Y0018208D01*
X0089427Y0018620D01*
X0089270Y0019001D01*
X0088979Y0019292D01*
X0088599Y0019450D01*
X0088187Y0019450D01*
X0087806Y0019293D01*
X0087785Y0019271D01*
X0087816Y0019431D01*
X0087816Y0023241D01*
X0087767Y0023489D01*
X0087627Y0023699D01*
X0087457Y0023813D01*
X0087627Y0023926D01*
X0087767Y0024136D01*
X0087816Y0024384D01*
X0087816Y0028194D01*
X0087767Y0028442D01*
X0087627Y0028652D01*
X0087417Y0028792D01*
X0087169Y0028841D01*
X0083359Y0028841D01*
X0083111Y0028792D01*
X0082901Y0028652D01*
X0082764Y0028446D01*
X0082627Y0028652D01*
X0082417Y0028792D01*
X0082169Y0028841D01*
X0078359Y0028841D01*
X0078111Y0028792D01*
X0077901Y0028652D01*
X0077761Y0028442D01*
X0077712Y0028194D01*
X0077712Y0024384D01*
X0077761Y0024136D01*
X0077901Y0023926D01*
X0078071Y0023813D01*
X0077901Y0023699D01*
X0077761Y0023489D01*
X0077712Y0023241D01*
X0077712Y0019431D01*
X0077761Y0019183D01*
X0077901Y0018973D01*
X0078111Y0018833D01*
X0078359Y0018784D01*
X0082169Y0018784D01*
X0082417Y0018833D01*
X0082627Y0018973D01*
X0082764Y0019179D01*
X0082901Y0018973D01*
X0083111Y0018833D01*
X0083359Y0018784D01*
X0087169Y0018784D01*
X0087417Y0018833D01*
X0087456Y0018859D01*
X0087357Y0018622D01*
X0087357Y0018490D01*
X0086924Y0018057D01*
X0074251Y0018057D01*
X0074314Y0018208D01*
X0074314Y0018620D01*
X0074157Y0019001D01*
X0074064Y0019094D01*
X0074064Y0022876D01*
X0074004Y0023176D01*
X0073834Y0023431D01*
X0073834Y0023431D01*
X0073806Y0023459D01*
X0073806Y0023589D01*
X0073649Y0023970D01*
X0073482Y0024137D01*
X0073552Y0024304D01*
X0073552Y0024716D01*
X0073395Y0025097D01*
X0073104Y0025388D01*
X0073089Y0025394D01*
X0076247Y0028552D01*
X0076417Y0028806D01*
X0076477Y0029107D01*
X0076477Y0030055D01*
X0076569Y0030147D01*
X0076727Y0030527D01*
X0076727Y0030939D01*
X0076570Y0031320D01*
X0076279Y0031611D01*
X0075899Y0031769D01*
X0075487Y0031769D01*
X0075106Y0031612D01*
X0074815Y0031321D01*
X0074657Y0030941D01*
X0074657Y0030529D01*
X0074814Y0030148D01*
X0074907Y0030055D01*
X0074907Y0029432D01*
X0071873Y0026398D01*
X0071873Y0028345D01*
X0073227Y0029699D01*
X0073357Y0029699D01*
X0073738Y0029856D01*
X0074029Y0030147D01*
X0074187Y0030527D01*
X0074187Y0030939D01*
X0074030Y0031320D01*
X0073739Y0031611D01*
X0073359Y0031769D01*
X0072947Y0031769D01*
X0072566Y0031612D01*
X0072275Y0031321D01*
X0072117Y0030941D01*
X0072117Y0030809D01*
X0071513Y0030205D01*
X0071647Y0030527D01*
X0071647Y0030939D01*
X0071490Y0031320D01*
X0071199Y0031611D01*
X0070819Y0031769D01*
X0070407Y0031769D01*
X0070026Y0031612D01*
X0069735Y0031321D01*
X0069577Y0030941D01*
X0069577Y0030770D01*
X0069487Y0030634D01*
X0069465Y0030527D01*
X0069427Y0030334D01*
X0069427Y0026243D01*
X0068857Y0026813D01*
X0068857Y0030055D01*
X0068949Y0030147D01*
X0069107Y0030527D01*
X0069107Y0030939D01*
X0068950Y0031320D01*
X0068659Y0031611D01*
X0068279Y0031769D01*
X0067867Y0031769D01*
X0067486Y0031612D01*
X0067195Y0031321D01*
X0067037Y0030941D01*
X0067037Y0030529D01*
X0067194Y0030148D01*
X0067287Y0030055D01*
X0067287Y0027676D01*
X0066317Y0028646D01*
X0066317Y0030055D01*
X0066409Y0030147D01*
X0066567Y0030527D01*
X0066567Y0030939D01*
X0066410Y0031320D01*
X0066119Y0031611D01*
X0065739Y0031769D01*
X0065327Y0031769D01*
X0064946Y0031612D01*
X0064655Y0031321D01*
X0064497Y0030941D01*
X0064497Y0030529D01*
X0064654Y0030148D01*
X0064747Y0030055D01*
X0064747Y0028321D01*
X0064807Y0028021D01*
X0064977Y0027766D01*
X0066200Y0026543D01*
X0064262Y0026543D01*
X0064019Y0026495D01*
X0063813Y0026357D01*
X0063675Y0026151D01*
X0063627Y0025908D01*
X0061491Y0025908D01*
X0061491Y0028123D01*
X0063067Y0029699D01*
X0063197Y0029699D01*
X0063578Y0029856D01*
X0063869Y0030147D01*
X0064027Y0030527D01*
X0064027Y0030939D01*
X0063870Y0031320D01*
X0063579Y0031611D01*
X0063199Y0031769D01*
X0062787Y0031769D01*
X0062406Y0031612D01*
X0062115Y0031321D01*
X0061957Y0030941D01*
X0061957Y0030809D01*
X0060348Y0029200D01*
X0060348Y0029647D01*
X0060400Y0029699D01*
X0060530Y0029699D01*
X0060911Y0029856D01*
X0061202Y0030147D01*
X0061360Y0030527D01*
X0061360Y0030939D01*
X0061203Y0031320D01*
X0060912Y0031611D01*
X0060532Y0031769D01*
X0060120Y0031769D01*
X0059739Y0031612D01*
X0059448Y0031321D01*
X0059290Y0030941D01*
X0059290Y0030809D01*
X0059008Y0030527D01*
X0058846Y0030285D01*
X0058947Y0030527D01*
X0058947Y0030939D01*
X0058790Y0031320D01*
X0058499Y0031611D01*
X0058119Y0031769D01*
X0057707Y0031769D01*
X0057326Y0031612D01*
X0057035Y0031321D01*
X0056877Y0030941D01*
X0056877Y0030809D01*
X0056849Y0030781D01*
X0056679Y0030526D01*
X0056628Y0030272D01*
X0056619Y0030226D01*
X0056619Y0025063D01*
X0056527Y0024971D01*
X0056502Y0024911D01*
X0056463Y0024911D01*
X0056030Y0025344D01*
X0056030Y0030055D01*
X0056122Y0030147D01*
X0056280Y0030527D01*
X0056280Y0030939D01*
X0056123Y0031320D01*
X0055832Y0031611D01*
X0055452Y0031769D01*
X0055040Y0031769D01*
X0054659Y0031612D01*
X0054368Y0031321D01*
X0054210Y0030941D01*
X0054210Y0030529D01*
X0049710Y0030529D01*
X0049646Y0030685D01*
X0049355Y0030976D01*
X0048975Y0031134D01*
X0048563Y0031134D01*
X0048182Y0030977D01*
X0047891Y0030686D01*
X0047733Y0030306D01*
X0047733Y0030174D01*
X0047070Y0029511D01*
X0046900Y0029256D01*
X0046861Y0029064D01*
X0046840Y0028956D01*
X0046840Y0028841D01*
X0043260Y0028841D01*
X0043012Y0028792D01*
X0042802Y0028652D01*
X0042662Y0028442D01*
X0042613Y0028194D01*
X0040842Y0028194D01*
X0040842Y0037465D01*
X0053836Y0037465D01*
X0053836Y0035941D01*
X0053885Y0035693D01*
X0054025Y0035483D01*
X0054100Y0035433D01*
X0054025Y0035383D01*
X0053885Y0035173D01*
X0053836Y0034925D01*
X0053836Y0033401D01*
X0053885Y0033153D01*
X0054025Y0032943D01*
X0054235Y0032803D01*
X0054483Y0032754D01*
X0056007Y0032754D01*
X0056255Y0032803D01*
X0056465Y0032943D01*
X0056579Y0033113D01*
X0056692Y0032943D01*
X0056902Y0032803D01*
X0057150Y0032754D01*
X0058674Y0032754D01*
X0058922Y0032803D01*
X0059132Y0032943D01*
X0059182Y0033018D01*
X0059232Y0032943D01*
X0059442Y0032803D01*
X0059690Y0032754D01*
X0061214Y0032754D01*
X0061462Y0032803D01*
X0061672Y0032943D01*
X0061722Y0033018D01*
X0061772Y0032943D01*
X0061982Y0032803D01*
X0062230Y0032754D01*
X0063754Y0032754D01*
X0064002Y0032803D01*
X0064212Y0032943D01*
X0064262Y0033018D01*
X0064312Y0032943D01*
X0064522Y0032803D01*
X0064770Y0032754D01*
X0066294Y0032754D01*
X0066542Y0032803D01*
X0066752Y0032943D01*
X0066802Y0033018D01*
X0066852Y0032943D01*
X0067062Y0032803D01*
X0067310Y0032754D01*
X0068834Y0032754D01*
X0069082Y0032803D01*
X0069292Y0032943D01*
X0069342Y0033018D01*
X0069392Y0032943D01*
X0069602Y0032803D01*
X0069850Y0032754D01*
X0071374Y0032754D01*
X0071622Y0032803D01*
X0071832Y0032943D01*
X0071882Y0033018D01*
X0071932Y0032943D01*
X0072142Y0032803D01*
X0072390Y0032754D01*
X0073914Y0032754D01*
X0074162Y0032803D01*
X0074372Y0032943D01*
X0074422Y0033018D01*
X0074472Y0032943D01*
X0074682Y0032803D01*
X0074930Y0032754D01*
X0076454Y0032754D01*
X0076702Y0032803D01*
X0076912Y0032943D01*
X0077052Y0033153D01*
X0077101Y0033401D01*
X0077101Y0034925D01*
X0077052Y0035173D01*
X0076912Y0035383D01*
X0076837Y0035433D01*
X0076912Y0035483D01*
X0077052Y0035693D01*
X0077101Y0035941D01*
X0077101Y0037465D01*
X0077052Y0037713D01*
X0076912Y0037923D01*
X0076702Y0038063D01*
X0076454Y0038112D01*
X0074930Y0038112D01*
X0074682Y0038063D01*
X0074472Y0037923D01*
X0074422Y0037848D01*
X0074372Y0037923D01*
X0074162Y0038063D01*
X0073914Y0038112D01*
X0072390Y0038112D01*
X0072142Y0038063D01*
X0071932Y0037923D01*
X0071882Y0037848D01*
X0071832Y0037923D01*
X0071622Y0038063D01*
X0071374Y0038112D01*
X0069850Y0038112D01*
X0069602Y0038063D01*
X0069392Y0037923D01*
X0069342Y0037848D01*
X0069292Y0037923D01*
X0069082Y0038063D01*
X0068834Y0038112D01*
X0067310Y0038112D01*
X0067062Y0038063D01*
X0066852Y0037923D01*
X0066802Y0037848D01*
X0066752Y0037923D01*
X0066542Y0038063D01*
X0066294Y0038112D01*
X0064770Y0038112D01*
X0064522Y0038063D01*
X0064312Y0037923D01*
X0064262Y0037848D01*
X0064212Y0037923D01*
X0064002Y0038063D01*
X0063754Y0038112D01*
X0062230Y0038112D01*
X0061982Y0038063D01*
X0061772Y0037923D01*
X0061722Y0037848D01*
X0061672Y0037923D01*
X0061462Y0038063D01*
X0061214Y0038112D01*
X0059690Y0038112D01*
X0059442Y0038063D01*
X0059232Y0037923D01*
X0059182Y0037848D01*
X0059132Y0037923D01*
X0058922Y0038063D01*
X0058674Y0038112D01*
X0057150Y0038112D01*
X0056902Y0038063D01*
X0056692Y0037923D01*
X0056579Y0037753D01*
X0056465Y0037923D01*
X0056255Y0038063D01*
X0056007Y0038112D01*
X0054483Y0038112D01*
X0054235Y0038063D01*
X0054025Y0037923D01*
X0053885Y0037713D01*
X0053836Y0037465D01*
X0040842Y0037465D01*
X0040842Y0039422D01*
X0089714Y0039422D01*
X0089714Y0000710D01*
G36*
X0066421Y0019939D02*
X0064389Y0019939D01*
X0064389Y0025781D01*
X0066421Y0025781D01*
X0066421Y0019939D01*
X0066421Y0019939D01*
G37*
X0066421Y0019939D02*
X0064389Y0019939D01*
X0064389Y0025781D01*
X0066421Y0025781D01*
X0066421Y0019939D01*
X0040132Y0040132D02*
%LPD*%
G01*
D14*
D17*
X0064805Y0062508D03*
X0064805Y0063508D03*
X0064805Y0064508D03*
X0064805Y0065508D03*
X0066005Y0065508D03*
X0066005Y0064508D03*
X0066005Y0063508D03*
X0066005Y0062508D03*
D20*
X0070612Y0074295D03*
X0070612Y0076835D03*
D40*
X0044958Y0044958D03*
X0085598Y0044958D03*
X0085598Y0075438D03*
X0044958Y0075438D03*
D20*
X0057912Y0074295D03*
X0057912Y0076835D03*
X0062992Y0076835D03*
X0062992Y0074295D03*
X0075692Y0074295D03*
X0075692Y0076835D03*
X0068072Y0076835D03*
X0068072Y0074295D03*
X0073152Y0076835D03*
X0073152Y0074295D03*
X0065532Y0074295D03*
X0065532Y0076835D03*
X0055245Y0074295D03*
X0055245Y0076835D03*
X0060452Y0076835D03*
X0060452Y0074295D03*
X0043053Y0051308D03*
X0043053Y0053848D03*
D29*
X0062992Y0050800D03*
X0062992Y0045800D03*
X0057912Y0045800D03*
X0057912Y0050800D03*
X0045165Y0061468D03*
X0050165Y0061468D03*
X0045165Y0066421D03*
X0050165Y0066421D03*
X0080264Y0066421D03*
X0085264Y0066421D03*
X0080264Y0061468D03*
X0085264Y0061468D03*
X0052959Y0045800D03*
X0052959Y0050800D03*
X0068072Y0050800D03*
X0068072Y0045800D03*
X0073152Y0045800D03*
X0073152Y0050800D03*
X0078232Y0050800D03*
X0078232Y0045800D03*
D27*
X0064516Y0067310D03*
X0063500Y0067310D03*
X0064008Y0068580D03*
X0062738Y0068580D03*
X0077470Y0070612D03*
X0077470Y0071882D03*
X0077470Y0072898D03*
X0077470Y0073914D03*
X0077470Y0074930D03*
X0077470Y0075946D03*
X0051562Y0078232D03*
X0050292Y0078232D03*
X0049022Y0078232D03*
X0049022Y0076962D03*
X0049022Y0075692D03*
X0049022Y0074422D03*
X0049022Y0073152D03*
X0049022Y0071882D03*
X0050292Y0048260D03*
X0050292Y0049784D03*
X0050292Y0051054D03*
X0049784Y0052578D03*
X0081026Y0049022D03*
X0081026Y0050292D03*
X0081026Y0051562D03*
X0081280Y0052832D03*
X0069088Y0058928D03*
X0080264Y0053848D03*
X0078994Y0053848D03*
X0077978Y0053848D03*
X0076962Y0053848D03*
X0075692Y0053848D03*
X0074422Y0053848D03*
X0073152Y0053848D03*
X0071882Y0053848D03*
X0070612Y0053848D03*
X0069342Y0053848D03*
X0068072Y0053848D03*
X0055753Y0053848D03*
X0054610Y0053848D03*
X0059309Y0053848D03*
X0058039Y0053848D03*
X0056896Y0053848D03*
X0053594Y0053848D03*
X0052324Y0053848D03*
X0051054Y0053848D03*
X0058923Y0064129D03*
X0058547Y0064770D03*
X0065532Y0057404D03*
X0064770Y0060452D03*
X0065786Y0061468D03*
X0064770Y0061468D03*
X0088392Y0058547D03*
X0053086Y0057023D03*
X0048768Y0070231D03*
X0072771Y0063516D03*
X0073279Y0058547D03*
X0070612Y0070866D03*
X0060706Y0065151D03*
X0062992Y0070866D03*
X0071838Y0065385D03*
X0075692Y0070866D03*
X0071755Y0063119D03*
X0068072Y0070866D03*
X0072517Y0064643D03*
X0073152Y0070866D03*
X0065532Y0070866D03*
X0070665Y0062508D03*
X0055245Y0070866D03*
X0056388Y0064008D03*
X0060325Y0070866D03*
X0059563Y0064897D03*
X0057912Y0070866D03*
X0057404Y0064516D03*
D33*
X0063500Y0067310D02*
X0064516Y0067310D01*
X0062738Y0068580D02*
X0064008Y0068580D01*
X0077470Y0071882D02*
X0077470Y0070612D01*
X0077470Y0073914D02*
X0077470Y0072898D01*
X0077470Y0075946D02*
X0077470Y0074930D01*
X0050292Y0078232D02*
X0051562Y0078232D01*
X0049022Y0076962D02*
X0049022Y0078232D01*
X0049022Y0074422D02*
X0049022Y0075692D01*
X0049022Y0071882D02*
X0049022Y0073152D01*
X0050292Y0049784D02*
X0050292Y0048260D01*
X0049784Y0052578D02*
X0049784Y0051562D01*
X0049784Y0051562D02*
X0050292Y0051054D01*
X0081026Y0050292D02*
X0081026Y0049022D01*
X0081280Y0052832D02*
X0081280Y0051816D01*
X0081280Y0051816D02*
X0081026Y0051562D01*
X0078994Y0053848D02*
X0080264Y0053848D01*
X0076962Y0053848D02*
X0077978Y0053848D01*
X0074422Y0053848D02*
X0075692Y0053848D01*
X0071882Y0053848D02*
X0073152Y0053848D01*
X0069342Y0053848D02*
X0070612Y0053848D01*
X0068072Y0050800D02*
X0068072Y0053848D01*
X0055753Y0053848D02*
X0055753Y0053848D01*
X0054610Y0053848D02*
X0055753Y0053848D01*
X0056896Y0053848D02*
X0058039Y0053848D01*
X0052324Y0053848D02*
X0053594Y0053848D01*
X0052959Y0050800D02*
X0052959Y0052955D01*
X0052959Y0052955D02*
X0052066Y0053848D01*
X0052066Y0053848D02*
X0051054Y0053848D01*
D12*
X0058547Y0064770D02*
X0058547Y0064505D01*
X0058547Y0064505D02*
X0058923Y0064129D01*
X0066098Y0057404D02*
X0065532Y0057404D01*
X0087249Y0057404D02*
X0066098Y0057404D01*
X0088392Y0058547D02*
X0087249Y0057404D01*
D33*
X0064770Y0061468D02*
X0065786Y0061468D01*
D12*
X0047625Y0057277D02*
X0047879Y0057023D01*
X0047879Y0057023D02*
X0053086Y0057023D01*
X0047625Y0069088D02*
X0047625Y0057277D01*
X0048768Y0070231D02*
X0047625Y0069088D01*
X0072054Y0063996D02*
X0072534Y0063516D01*
X0073279Y0063008D02*
X0073171Y0063116D01*
X0073171Y0063116D02*
X0072771Y0063516D01*
X0073279Y0058547D02*
X0073279Y0063008D01*
X0072534Y0063516D02*
X0072771Y0063516D01*
X0070212Y0065187D02*
X0071403Y0063996D01*
X0071403Y0063996D02*
X0072054Y0063996D01*
X0070612Y0070866D02*
X0070212Y0070466D01*
X0070212Y0070466D02*
X0070212Y0065187D01*
X0060706Y0065717D02*
X0060706Y0065151D01*
X0060706Y0068580D02*
X0060706Y0065717D01*
X0062992Y0070866D02*
X0060706Y0068580D01*
X0075692Y0069239D02*
X0072238Y0065785D01*
X0075692Y0070866D02*
X0075692Y0069239D01*
X0072238Y0065785D02*
X0071838Y0065385D01*
X0068072Y0070866D02*
X0068072Y0066620D01*
X0071573Y0063119D02*
X0071755Y0063119D01*
X0068072Y0066620D02*
X0071573Y0063119D01*
X0071951Y0064643D02*
X0072517Y0064643D01*
X0071590Y0064516D02*
X0071824Y0064516D01*
X0071824Y0064516D02*
X0071951Y0064643D01*
X0073152Y0070866D02*
X0071088Y0068802D01*
X0071088Y0068802D02*
X0071088Y0065018D01*
X0071088Y0065018D02*
X0071590Y0064516D01*
X0070665Y0063320D02*
X0065532Y0068453D01*
X0065532Y0068453D02*
X0065532Y0070866D01*
X0070665Y0062508D02*
X0070665Y0063320D01*
X0055245Y0070300D02*
X0055245Y0070866D01*
X0055245Y0065151D02*
X0055245Y0070300D01*
X0056388Y0064008D02*
X0055245Y0065151D01*
X0059563Y0070104D02*
X0059925Y0070466D01*
X0059563Y0064897D02*
X0059563Y0070104D01*
X0059925Y0070466D02*
X0060325Y0070866D01*
X0057512Y0070466D02*
X0057912Y0070866D01*
X0057404Y0070358D02*
X0057512Y0070466D01*
X0057404Y0064516D02*
X0057404Y0070358D01*
D15*
G36*
X0089714Y0040842D02*
X0040842Y0040842D01*
X0040842Y0052705D01*
X0060440Y0052705D01*
X0060440Y0048895D01*
X0060489Y0048647D01*
X0060629Y0048437D01*
X0060835Y0048300D01*
X0060629Y0048163D01*
X0060489Y0047953D01*
X0060440Y0047705D01*
X0060440Y0043895D01*
X0060489Y0043647D01*
X0060629Y0043437D01*
X0060839Y0043297D01*
X0061087Y0043248D01*
X0064897Y0043248D01*
X0065145Y0043297D01*
X0065355Y0043437D01*
X0065495Y0043647D01*
X0065544Y0043895D01*
X0065544Y0047705D01*
X0065495Y0047953D01*
X0065355Y0048163D01*
X0065149Y0048300D01*
X0065355Y0048437D01*
X0065495Y0048647D01*
X0065544Y0048895D01*
X0065544Y0052705D01*
X0065495Y0052953D01*
X0065355Y0053163D01*
X0065145Y0053303D01*
X0064897Y0053352D01*
X0061087Y0053352D01*
X0060839Y0053303D01*
X0060629Y0053163D01*
X0060489Y0052953D01*
X0060440Y0052705D01*
X0040842Y0052705D01*
X0040842Y0068326D01*
X0042613Y0068326D01*
X0042613Y0064516D01*
X0042662Y0064268D01*
X0042802Y0064058D01*
X0042972Y0063945D01*
X0042802Y0063831D01*
X0042662Y0063621D01*
X0042613Y0063373D01*
X0042613Y0059563D01*
X0042662Y0059315D01*
X0042802Y0059105D01*
X0043012Y0058965D01*
X0043260Y0058916D01*
X0046840Y0058916D01*
X0046840Y0057277D01*
X0046900Y0056977D01*
X0047070Y0056722D01*
X0047324Y0056468D01*
X0047579Y0056298D01*
X0047879Y0056238D01*
X0052407Y0056238D01*
X0052499Y0056146D01*
X0052879Y0055988D01*
X0053291Y0055988D01*
X0053672Y0056145D01*
X0053963Y0056436D01*
X0054121Y0056816D01*
X0054121Y0057228D01*
X0053964Y0057609D01*
X0053673Y0057900D01*
X0053293Y0058058D01*
X0052881Y0058058D01*
X0052500Y0057901D01*
X0052407Y0057808D01*
X0048410Y0057808D01*
X0048410Y0058916D01*
X0052070Y0058916D01*
X0052318Y0058965D01*
X0052528Y0059105D01*
X0052668Y0059315D01*
X0052717Y0059563D01*
X0052717Y0063373D01*
X0052668Y0063621D01*
X0052528Y0063831D01*
X0052358Y0063945D01*
X0052528Y0064058D01*
X0052668Y0064268D01*
X0052717Y0064516D01*
X0052717Y0068326D01*
X0052668Y0068574D01*
X0052528Y0068784D01*
X0052318Y0068924D01*
X0052070Y0068973D01*
X0048621Y0068973D01*
X0048843Y0069196D01*
X0048973Y0069196D01*
X0049354Y0069353D01*
X0049645Y0069644D01*
X0049803Y0070024D01*
X0049803Y0070436D01*
X0049710Y0070661D01*
X0054210Y0070661D01*
X0054367Y0070280D01*
X0054460Y0070187D01*
X0054460Y0065151D01*
X0054520Y0064851D01*
X0054690Y0064596D01*
X0055353Y0063933D01*
X0055353Y0063803D01*
X0055510Y0063422D01*
X0055801Y0063131D01*
X0056181Y0062973D01*
X0056593Y0062973D01*
X0056974Y0063130D01*
X0057265Y0063421D01*
X0057290Y0063481D01*
X0057609Y0063481D01*
X0057990Y0063638D01*
X0058281Y0063929D01*
X0058439Y0064309D01*
X0058439Y0064721D01*
X0058282Y0065102D01*
X0058189Y0065195D01*
X0058189Y0069861D01*
X0058498Y0069988D01*
X0058789Y0070279D01*
X0058835Y0070389D01*
X0058819Y0070311D01*
X0058778Y0070104D01*
X0058778Y0065576D01*
X0058686Y0065484D01*
X0058528Y0065104D01*
X0058528Y0064692D01*
X0058685Y0064311D01*
X0058976Y0064020D01*
X0059356Y0063862D01*
X0059768Y0063862D01*
X0060149Y0064019D01*
X0060320Y0064190D01*
X0060499Y0064116D01*
X0060911Y0064116D01*
X0061292Y0064273D01*
X0061583Y0064564D01*
X0061741Y0064944D01*
X0061741Y0065356D01*
X0061584Y0065737D01*
X0061491Y0065830D01*
X0061491Y0066040D01*
X0063627Y0066040D01*
X0063627Y0059944D01*
X0063675Y0059701D01*
X0063813Y0059495D01*
X0064019Y0059357D01*
X0064262Y0059309D01*
X0066548Y0059309D01*
X0066791Y0059357D01*
X0066997Y0059495D01*
X0067135Y0059701D01*
X0067183Y0059944D01*
X0067183Y0065692D01*
X0069786Y0063089D01*
X0069630Y0062715D01*
X0069630Y0062303D01*
X0069787Y0061922D01*
X0070078Y0061631D01*
X0070458Y0061473D01*
X0070870Y0061473D01*
X0071251Y0061630D01*
X0071542Y0061921D01*
X0071610Y0062084D01*
X0071960Y0062084D01*
X0072341Y0062241D01*
X0072494Y0062394D01*
X0072494Y0059226D01*
X0072402Y0059134D01*
X0072244Y0058754D01*
X0072244Y0058342D01*
X0072307Y0058189D01*
X0066211Y0058189D01*
X0066119Y0058281D01*
X0065739Y0058439D01*
X0065327Y0058439D01*
X0064946Y0058282D01*
X0064655Y0057991D01*
X0064497Y0057611D01*
X0064497Y0057199D01*
X0064654Y0056818D01*
X0064945Y0056527D01*
X0065325Y0056369D01*
X0065737Y0056369D01*
X0066118Y0056526D01*
X0066211Y0056619D01*
X0087249Y0056619D01*
X0087549Y0056679D01*
X0087804Y0056849D01*
X0088467Y0057512D01*
X0088597Y0057512D01*
X0088978Y0057669D01*
X0089269Y0057960D01*
X0089427Y0058340D01*
X0089427Y0058752D01*
X0089270Y0059133D01*
X0088979Y0059424D01*
X0088599Y0059582D01*
X0088187Y0059582D01*
X0087806Y0059425D01*
X0087785Y0059403D01*
X0087816Y0059563D01*
X0087816Y0063373D01*
X0087767Y0063621D01*
X0087627Y0063831D01*
X0087457Y0063945D01*
X0087627Y0064058D01*
X0087767Y0064268D01*
X0087816Y0064516D01*
X0087816Y0068326D01*
X0087767Y0068574D01*
X0087627Y0068784D01*
X0087417Y0068924D01*
X0087169Y0068973D01*
X0083359Y0068973D01*
X0083111Y0068924D01*
X0082901Y0068784D01*
X0082764Y0068578D01*
X0082627Y0068784D01*
X0082417Y0068924D01*
X0082169Y0068973D01*
X0078359Y0068973D01*
X0078111Y0068924D01*
X0077901Y0068784D01*
X0077761Y0068574D01*
X0077712Y0068326D01*
X0077712Y0064516D01*
X0077761Y0064268D01*
X0077901Y0064058D01*
X0078071Y0063945D01*
X0077901Y0063831D01*
X0077761Y0063621D01*
X0077712Y0063373D01*
X0077712Y0059563D01*
X0077761Y0059315D01*
X0077901Y0059105D01*
X0078111Y0058965D01*
X0078359Y0058916D01*
X0082169Y0058916D01*
X0082417Y0058965D01*
X0082627Y0059105D01*
X0082764Y0059311D01*
X0082901Y0059105D01*
X0083111Y0058965D01*
X0083359Y0058916D01*
X0087169Y0058916D01*
X0087417Y0058965D01*
X0087456Y0058991D01*
X0087357Y0058754D01*
X0087357Y0058622D01*
X0086924Y0058189D01*
X0074251Y0058189D01*
X0074314Y0058340D01*
X0074314Y0058752D01*
X0074157Y0059133D01*
X0074064Y0059226D01*
X0074064Y0063008D01*
X0074004Y0063308D01*
X0073834Y0063563D01*
X0073834Y0063563D01*
X0073806Y0063591D01*
X0073806Y0063721D01*
X0073649Y0064102D01*
X0073482Y0064269D01*
X0073552Y0064436D01*
X0073552Y0064848D01*
X0073395Y0065229D01*
X0073104Y0065520D01*
X0073089Y0065526D01*
X0076247Y0068684D01*
X0076417Y0068938D01*
X0076477Y0069239D01*
X0076477Y0070187D01*
X0076569Y0070279D01*
X0076727Y0070659D01*
X0076727Y0071071D01*
X0076570Y0071452D01*
X0076279Y0071743D01*
X0075899Y0071901D01*
X0075487Y0071901D01*
X0075106Y0071744D01*
X0074815Y0071453D01*
X0074657Y0071073D01*
X0074657Y0070661D01*
X0074814Y0070280D01*
X0074907Y0070187D01*
X0074907Y0069564D01*
X0071873Y0066530D01*
X0071873Y0068477D01*
X0073227Y0069831D01*
X0073357Y0069831D01*
X0073738Y0069988D01*
X0074029Y0070279D01*
X0074187Y0070659D01*
X0074187Y0071071D01*
X0074030Y0071452D01*
X0073739Y0071743D01*
X0073359Y0071901D01*
X0072947Y0071901D01*
X0072566Y0071744D01*
X0072275Y0071453D01*
X0072117Y0071073D01*
X0072117Y0070941D01*
X0071513Y0070337D01*
X0071647Y0070659D01*
X0071647Y0071071D01*
X0071490Y0071452D01*
X0071199Y0071743D01*
X0070819Y0071901D01*
X0070407Y0071901D01*
X0070026Y0071744D01*
X0069735Y0071453D01*
X0069577Y0071073D01*
X0069577Y0070902D01*
X0069487Y0070766D01*
X0069465Y0070659D01*
X0069427Y0070466D01*
X0069427Y0066375D01*
X0068857Y0066945D01*
X0068857Y0070187D01*
X0068949Y0070279D01*
X0069107Y0070659D01*
X0069107Y0071071D01*
X0068950Y0071452D01*
X0068659Y0071743D01*
X0068279Y0071901D01*
X0067867Y0071901D01*
X0067486Y0071744D01*
X0067195Y0071453D01*
X0067037Y0071073D01*
X0067037Y0070661D01*
X0067194Y0070280D01*
X0067287Y0070187D01*
X0067287Y0067808D01*
X0066317Y0068778D01*
X0066317Y0070187D01*
X0066409Y0070279D01*
X0066567Y0070659D01*
X0066567Y0071071D01*
X0066410Y0071452D01*
X0066119Y0071743D01*
X0065739Y0071901D01*
X0065327Y0071901D01*
X0064946Y0071744D01*
X0064655Y0071453D01*
X0064497Y0071073D01*
X0064497Y0070661D01*
X0064654Y0070280D01*
X0064747Y0070187D01*
X0064747Y0068453D01*
X0064807Y0068153D01*
X0064977Y0067898D01*
X0066200Y0066675D01*
X0064262Y0066675D01*
X0064019Y0066627D01*
X0063813Y0066489D01*
X0063675Y0066283D01*
X0063627Y0066040D01*
X0061491Y0066040D01*
X0061491Y0068255D01*
X0063067Y0069831D01*
X0063197Y0069831D01*
X0063578Y0069988D01*
X0063869Y0070279D01*
X0064027Y0070659D01*
X0064027Y0071071D01*
X0063870Y0071452D01*
X0063579Y0071743D01*
X0063199Y0071901D01*
X0062787Y0071901D01*
X0062406Y0071744D01*
X0062115Y0071453D01*
X0061957Y0071073D01*
X0061957Y0070941D01*
X0060348Y0069332D01*
X0060348Y0069779D01*
X0060400Y0069831D01*
X0060530Y0069831D01*
X0060911Y0069988D01*
X0061202Y0070279D01*
X0061360Y0070659D01*
X0061360Y0071071D01*
X0061203Y0071452D01*
X0060912Y0071743D01*
X0060532Y0071901D01*
X0060120Y0071901D01*
X0059739Y0071744D01*
X0059448Y0071453D01*
X0059290Y0071073D01*
X0059290Y0070941D01*
X0059008Y0070659D01*
X0058846Y0070417D01*
X0058947Y0070659D01*
X0058947Y0071071D01*
X0058790Y0071452D01*
X0058499Y0071743D01*
X0058119Y0071901D01*
X0057707Y0071901D01*
X0057326Y0071744D01*
X0057035Y0071453D01*
X0056877Y0071073D01*
X0056877Y0070941D01*
X0056849Y0070913D01*
X0056679Y0070658D01*
X0056628Y0070404D01*
X0056619Y0070358D01*
X0056619Y0065195D01*
X0056527Y0065103D01*
X0056502Y0065043D01*
X0056463Y0065043D01*
X0056030Y0065476D01*
X0056030Y0070187D01*
X0056122Y0070279D01*
X0056280Y0070659D01*
X0056280Y0071071D01*
X0056123Y0071452D01*
X0055832Y0071743D01*
X0055452Y0071901D01*
X0055040Y0071901D01*
X0054659Y0071744D01*
X0054368Y0071453D01*
X0054210Y0071073D01*
X0054210Y0070661D01*
X0049710Y0070661D01*
X0049646Y0070817D01*
X0049355Y0071108D01*
X0048975Y0071266D01*
X0048563Y0071266D01*
X0048182Y0071109D01*
X0047891Y0070818D01*
X0047733Y0070438D01*
X0047733Y0070306D01*
X0047070Y0069643D01*
X0046900Y0069388D01*
X0046861Y0069196D01*
X0046840Y0069088D01*
X0046840Y0068973D01*
X0043260Y0068973D01*
X0043012Y0068924D01*
X0042802Y0068784D01*
X0042662Y0068574D01*
X0042613Y0068326D01*
X0040842Y0068326D01*
X0040842Y0077597D01*
X0053836Y0077597D01*
X0053836Y0076073D01*
X0053885Y0075825D01*
X0054025Y0075615D01*
X0054100Y0075565D01*
X0054025Y0075515D01*
X0053885Y0075305D01*
X0053836Y0075057D01*
X0053836Y0073533D01*
X0053885Y0073285D01*
X0054025Y0073075D01*
X0054235Y0072935D01*
X0054483Y0072886D01*
X0056007Y0072886D01*
X0056255Y0072935D01*
X0056465Y0073075D01*
X0056579Y0073245D01*
X0056692Y0073075D01*
X0056902Y0072935D01*
X0057150Y0072886D01*
X0058674Y0072886D01*
X0058922Y0072935D01*
X0059132Y0073075D01*
X0059182Y0073150D01*
X0059232Y0073075D01*
X0059442Y0072935D01*
X0059690Y0072886D01*
X0061214Y0072886D01*
X0061462Y0072935D01*
X0061672Y0073075D01*
X0061722Y0073150D01*
X0061772Y0073075D01*
X0061982Y0072935D01*
X0062230Y0072886D01*
X0063754Y0072886D01*
X0064002Y0072935D01*
X0064212Y0073075D01*
X0064262Y0073150D01*
X0064312Y0073075D01*
X0064522Y0072935D01*
X0064770Y0072886D01*
X0066294Y0072886D01*
X0066542Y0072935D01*
X0066752Y0073075D01*
X0066802Y0073150D01*
X0066852Y0073075D01*
X0067062Y0072935D01*
X0067310Y0072886D01*
X0068834Y0072886D01*
X0069082Y0072935D01*
X0069292Y0073075D01*
X0069342Y0073150D01*
X0069392Y0073075D01*
X0069602Y0072935D01*
X0069850Y0072886D01*
X0071374Y0072886D01*
X0071622Y0072935D01*
X0071832Y0073075D01*
X0071882Y0073150D01*
X0071932Y0073075D01*
X0072142Y0072935D01*
X0072390Y0072886D01*
X0073914Y0072886D01*
X0074162Y0072935D01*
X0074372Y0073075D01*
X0074422Y0073150D01*
X0074472Y0073075D01*
X0074682Y0072935D01*
X0074930Y0072886D01*
X0076454Y0072886D01*
X0076702Y0072935D01*
X0076912Y0073075D01*
X0077052Y0073285D01*
X0077101Y0073533D01*
X0077101Y0075057D01*
X0077052Y0075305D01*
X0076912Y0075515D01*
X0076837Y0075565D01*
X0076912Y0075615D01*
X0077052Y0075825D01*
X0077101Y0076073D01*
X0077101Y0077597D01*
X0077052Y0077845D01*
X0076912Y0078055D01*
X0076702Y0078195D01*
X0076454Y0078244D01*
X0074930Y0078244D01*
X0074682Y0078195D01*
X0074472Y0078055D01*
X0074422Y0077980D01*
X0074372Y0078055D01*
X0074162Y0078195D01*
X0073914Y0078244D01*
X0072390Y0078244D01*
X0072142Y0078195D01*
X0071932Y0078055D01*
X0071882Y0077980D01*
X0071832Y0078055D01*
X0071622Y0078195D01*
X0071374Y0078244D01*
X0069850Y0078244D01*
X0069602Y0078195D01*
X0069392Y0078055D01*
X0069342Y0077980D01*
X0069292Y0078055D01*
X0069082Y0078195D01*
X0068834Y0078244D01*
X0067310Y0078244D01*
X0067062Y0078195D01*
X0066852Y0078055D01*
X0066802Y0077980D01*
X0066752Y0078055D01*
X0066542Y0078195D01*
X0066294Y0078244D01*
X0064770Y0078244D01*
X0064522Y0078195D01*
X0064312Y0078055D01*
X0064262Y0077980D01*
X0064212Y0078055D01*
X0064002Y0078195D01*
X0063754Y0078244D01*
X0062230Y0078244D01*
X0061982Y0078195D01*
X0061772Y0078055D01*
X0061722Y0077980D01*
X0061672Y0078055D01*
X0061462Y0078195D01*
X0061214Y0078244D01*
X0059690Y0078244D01*
X0059442Y0078195D01*
X0059232Y0078055D01*
X0059182Y0077980D01*
X0059132Y0078055D01*
X0058922Y0078195D01*
X0058674Y0078244D01*
X0057150Y0078244D01*
X0056902Y0078195D01*
X0056692Y0078055D01*
X0056579Y0077885D01*
X0056465Y0078055D01*
X0056255Y0078195D01*
X0056007Y0078244D01*
X0054483Y0078244D01*
X0054235Y0078195D01*
X0054025Y0078055D01*
X0053885Y0077845D01*
X0053836Y0077597D01*
X0040842Y0077597D01*
X0040842Y0079554D01*
X0089714Y0079554D01*
X0089714Y0040842D01*
X0089714Y0040842D01*
G37*
X0089714Y0040842D02*
X0040842Y0040842D01*
X0040842Y0052705D01*
X0060440Y0052705D01*
X0060440Y0048895D01*
X0060489Y0048647D01*
X0060629Y0048437D01*
X0060835Y0048300D01*
X0060629Y0048163D01*
X0060489Y0047953D01*
X0060440Y0047705D01*
X0060440Y0043895D01*
X0060489Y0043647D01*
X0060629Y0043437D01*
X0060839Y0043297D01*
X0061087Y0043248D01*
X0064897Y0043248D01*
X0065145Y0043297D01*
X0065355Y0043437D01*
X0065495Y0043647D01*
X0065544Y0043895D01*
X0065544Y0047705D01*
X0065495Y0047953D01*
X0065355Y0048163D01*
X0065149Y0048300D01*
X0065355Y0048437D01*
X0065495Y0048647D01*
X0065544Y0048895D01*
X0065544Y0052705D01*
X0065495Y0052953D01*
X0065355Y0053163D01*
X0065145Y0053303D01*
X0064897Y0053352D01*
X0061087Y0053352D01*
X0060839Y0053303D01*
X0060629Y0053163D01*
X0060489Y0052953D01*
X0060440Y0052705D01*
X0040842Y0052705D01*
X0040842Y0068326D01*
X0042613Y0068326D01*
X0042613Y0064516D01*
X0042662Y0064268D01*
X0042802Y0064058D01*
X0042972Y0063945D01*
X0042802Y0063831D01*
X0042662Y0063621D01*
X0042613Y0063373D01*
X0042613Y0059563D01*
X0042662Y0059315D01*
X0042802Y0059105D01*
X0043012Y0058965D01*
X0043260Y0058916D01*
X0046840Y0058916D01*
X0046840Y0057277D01*
X0046900Y0056977D01*
X0047070Y0056722D01*
X0047324Y0056468D01*
X0047579Y0056298D01*
X0047879Y0056238D01*
X0052407Y0056238D01*
X0052499Y0056146D01*
X0052879Y0055988D01*
X0053291Y0055988D01*
X0053672Y0056145D01*
X0053963Y0056436D01*
X0054121Y0056816D01*
X0054121Y0057228D01*
X0053964Y0057609D01*
X0053673Y0057900D01*
X0053293Y0058058D01*
X0052881Y0058058D01*
X0052500Y0057901D01*
X0052407Y0057808D01*
X0048410Y0057808D01*
X0048410Y0058916D01*
X0052070Y0058916D01*
X0052318Y0058965D01*
X0052528Y0059105D01*
X0052668Y0059315D01*
X0052717Y0059563D01*
X0052717Y0063373D01*
X0052668Y0063621D01*
X0052528Y0063831D01*
X0052358Y0063945D01*
X0052528Y0064058D01*
X0052668Y0064268D01*
X0052717Y0064516D01*
X0052717Y0068326D01*
X0052668Y0068574D01*
X0052528Y0068784D01*
X0052318Y0068924D01*
X0052070Y0068973D01*
X0048621Y0068973D01*
X0048843Y0069196D01*
X0048973Y0069196D01*
X0049354Y0069353D01*
X0049645Y0069644D01*
X0049803Y0070024D01*
X0049803Y0070436D01*
X0049710Y0070661D01*
X0054210Y0070661D01*
X0054367Y0070280D01*
X0054460Y0070187D01*
X0054460Y0065151D01*
X0054520Y0064851D01*
X0054690Y0064596D01*
X0055353Y0063933D01*
X0055353Y0063803D01*
X0055510Y0063422D01*
X0055801Y0063131D01*
X0056181Y0062973D01*
X0056593Y0062973D01*
X0056974Y0063130D01*
X0057265Y0063421D01*
X0057290Y0063481D01*
X0057609Y0063481D01*
X0057990Y0063638D01*
X0058281Y0063929D01*
X0058439Y0064309D01*
X0058439Y0064721D01*
X0058282Y0065102D01*
X0058189Y0065195D01*
X0058189Y0069861D01*
X0058498Y0069988D01*
X0058789Y0070279D01*
X0058835Y0070389D01*
X0058819Y0070311D01*
X0058778Y0070104D01*
X0058778Y0065576D01*
X0058686Y0065484D01*
X0058528Y0065104D01*
X0058528Y0064692D01*
X0058685Y0064311D01*
X0058976Y0064020D01*
X0059356Y0063862D01*
X0059768Y0063862D01*
X0060149Y0064019D01*
X0060320Y0064190D01*
X0060499Y0064116D01*
X0060911Y0064116D01*
X0061292Y0064273D01*
X0061583Y0064564D01*
X0061741Y0064944D01*
X0061741Y0065356D01*
X0061584Y0065737D01*
X0061491Y0065830D01*
X0061491Y0066040D01*
X0063627Y0066040D01*
X0063627Y0059944D01*
X0063675Y0059701D01*
X0063813Y0059495D01*
X0064019Y0059357D01*
X0064262Y0059309D01*
X0066548Y0059309D01*
X0066791Y0059357D01*
X0066997Y0059495D01*
X0067135Y0059701D01*
X0067183Y0059944D01*
X0067183Y0065692D01*
X0069786Y0063089D01*
X0069630Y0062715D01*
X0069630Y0062303D01*
X0069787Y0061922D01*
X0070078Y0061631D01*
X0070458Y0061473D01*
X0070870Y0061473D01*
X0071251Y0061630D01*
X0071542Y0061921D01*
X0071610Y0062084D01*
X0071960Y0062084D01*
X0072341Y0062241D01*
X0072494Y0062394D01*
X0072494Y0059226D01*
X0072402Y0059134D01*
X0072244Y0058754D01*
X0072244Y0058342D01*
X0072307Y0058189D01*
X0066211Y0058189D01*
X0066119Y0058281D01*
X0065739Y0058439D01*
X0065327Y0058439D01*
X0064946Y0058282D01*
X0064655Y0057991D01*
X0064497Y0057611D01*
X0064497Y0057199D01*
X0064654Y0056818D01*
X0064945Y0056527D01*
X0065325Y0056369D01*
X0065737Y0056369D01*
X0066118Y0056526D01*
X0066211Y0056619D01*
X0087249Y0056619D01*
X0087549Y0056679D01*
X0087804Y0056849D01*
X0088467Y0057512D01*
X0088597Y0057512D01*
X0088978Y0057669D01*
X0089269Y0057960D01*
X0089427Y0058340D01*
X0089427Y0058752D01*
X0089270Y0059133D01*
X0088979Y0059424D01*
X0088599Y0059582D01*
X0088187Y0059582D01*
X0087806Y0059425D01*
X0087785Y0059403D01*
X0087816Y0059563D01*
X0087816Y0063373D01*
X0087767Y0063621D01*
X0087627Y0063831D01*
X0087457Y0063945D01*
X0087627Y0064058D01*
X0087767Y0064268D01*
X0087816Y0064516D01*
X0087816Y0068326D01*
X0087767Y0068574D01*
X0087627Y0068784D01*
X0087417Y0068924D01*
X0087169Y0068973D01*
X0083359Y0068973D01*
X0083111Y0068924D01*
X0082901Y0068784D01*
X0082764Y0068578D01*
X0082627Y0068784D01*
X0082417Y0068924D01*
X0082169Y0068973D01*
X0078359Y0068973D01*
X0078111Y0068924D01*
X0077901Y0068784D01*
X0077761Y0068574D01*
X0077712Y0068326D01*
X0077712Y0064516D01*
X0077761Y0064268D01*
X0077901Y0064058D01*
X0078071Y0063945D01*
X0077901Y0063831D01*
X0077761Y0063621D01*
X0077712Y0063373D01*
X0077712Y0059563D01*
X0077761Y0059315D01*
X0077901Y0059105D01*
X0078111Y0058965D01*
X0078359Y0058916D01*
X0082169Y0058916D01*
X0082417Y0058965D01*
X0082627Y0059105D01*
X0082764Y0059311D01*
X0082901Y0059105D01*
X0083111Y0058965D01*
X0083359Y0058916D01*
X0087169Y0058916D01*
X0087417Y0058965D01*
X0087456Y0058991D01*
X0087357Y0058754D01*
X0087357Y0058622D01*
X0086924Y0058189D01*
X0074251Y0058189D01*
X0074314Y0058340D01*
X0074314Y0058752D01*
X0074157Y0059133D01*
X0074064Y0059226D01*
X0074064Y0063008D01*
X0074004Y0063308D01*
X0073834Y0063563D01*
X0073834Y0063563D01*
X0073806Y0063591D01*
X0073806Y0063721D01*
X0073649Y0064102D01*
X0073482Y0064269D01*
X0073552Y0064436D01*
X0073552Y0064848D01*
X0073395Y0065229D01*
X0073104Y0065520D01*
X0073089Y0065526D01*
X0076247Y0068684D01*
X0076417Y0068938D01*
X0076477Y0069239D01*
X0076477Y0070187D01*
X0076569Y0070279D01*
X0076727Y0070659D01*
X0076727Y0071071D01*
X0076570Y0071452D01*
X0076279Y0071743D01*
X0075899Y0071901D01*
X0075487Y0071901D01*
X0075106Y0071744D01*
X0074815Y0071453D01*
X0074657Y0071073D01*
X0074657Y0070661D01*
X0074814Y0070280D01*
X0074907Y0070187D01*
X0074907Y0069564D01*
X0071873Y0066530D01*
X0071873Y0068477D01*
X0073227Y0069831D01*
X0073357Y0069831D01*
X0073738Y0069988D01*
X0074029Y0070279D01*
X0074187Y0070659D01*
X0074187Y0071071D01*
X0074030Y0071452D01*
X0073739Y0071743D01*
X0073359Y0071901D01*
X0072947Y0071901D01*
X0072566Y0071744D01*
X0072275Y0071453D01*
X0072117Y0071073D01*
X0072117Y0070941D01*
X0071513Y0070337D01*
X0071647Y0070659D01*
X0071647Y0071071D01*
X0071490Y0071452D01*
X0071199Y0071743D01*
X0070819Y0071901D01*
X0070407Y0071901D01*
X0070026Y0071744D01*
X0069735Y0071453D01*
X0069577Y0071073D01*
X0069577Y0070902D01*
X0069487Y0070766D01*
X0069465Y0070659D01*
X0069427Y0070466D01*
X0069427Y0066375D01*
X0068857Y0066945D01*
X0068857Y0070187D01*
X0068949Y0070279D01*
X0069107Y0070659D01*
X0069107Y0071071D01*
X0068950Y0071452D01*
X0068659Y0071743D01*
X0068279Y0071901D01*
X0067867Y0071901D01*
X0067486Y0071744D01*
X0067195Y0071453D01*
X0067037Y0071073D01*
X0067037Y0070661D01*
X0067194Y0070280D01*
X0067287Y0070187D01*
X0067287Y0067808D01*
X0066317Y0068778D01*
X0066317Y0070187D01*
X0066409Y0070279D01*
X0066567Y0070659D01*
X0066567Y0071071D01*
X0066410Y0071452D01*
X0066119Y0071743D01*
X0065739Y0071901D01*
X0065327Y0071901D01*
X0064946Y0071744D01*
X0064655Y0071453D01*
X0064497Y0071073D01*
X0064497Y0070661D01*
X0064654Y0070280D01*
X0064747Y0070187D01*
X0064747Y0068453D01*
X0064807Y0068153D01*
X0064977Y0067898D01*
X0066200Y0066675D01*
X0064262Y0066675D01*
X0064019Y0066627D01*
X0063813Y0066489D01*
X0063675Y0066283D01*
X0063627Y0066040D01*
X0061491Y0066040D01*
X0061491Y0068255D01*
X0063067Y0069831D01*
X0063197Y0069831D01*
X0063578Y0069988D01*
X0063869Y0070279D01*
X0064027Y0070659D01*
X0064027Y0071071D01*
X0063870Y0071452D01*
X0063579Y0071743D01*
X0063199Y0071901D01*
X0062787Y0071901D01*
X0062406Y0071744D01*
X0062115Y0071453D01*
X0061957Y0071073D01*
X0061957Y0070941D01*
X0060348Y0069332D01*
X0060348Y0069779D01*
X0060400Y0069831D01*
X0060530Y0069831D01*
X0060911Y0069988D01*
X0061202Y0070279D01*
X0061360Y0070659D01*
X0061360Y0071071D01*
X0061203Y0071452D01*
X0060912Y0071743D01*
X0060532Y0071901D01*
X0060120Y0071901D01*
X0059739Y0071744D01*
X0059448Y0071453D01*
X0059290Y0071073D01*
X0059290Y0070941D01*
X0059008Y0070659D01*
X0058846Y0070417D01*
X0058947Y0070659D01*
X0058947Y0071071D01*
X0058790Y0071452D01*
X0058499Y0071743D01*
X0058119Y0071901D01*
X0057707Y0071901D01*
X0057326Y0071744D01*
X0057035Y0071453D01*
X0056877Y0071073D01*
X0056877Y0070941D01*
X0056849Y0070913D01*
X0056679Y0070658D01*
X0056628Y0070404D01*
X0056619Y0070358D01*
X0056619Y0065195D01*
X0056527Y0065103D01*
X0056502Y0065043D01*
X0056463Y0065043D01*
X0056030Y0065476D01*
X0056030Y0070187D01*
X0056122Y0070279D01*
X0056280Y0070659D01*
X0056280Y0071071D01*
X0056123Y0071452D01*
X0055832Y0071743D01*
X0055452Y0071901D01*
X0055040Y0071901D01*
X0054659Y0071744D01*
X0054368Y0071453D01*
X0054210Y0071073D01*
X0054210Y0070661D01*
X0049710Y0070661D01*
X0049646Y0070817D01*
X0049355Y0071108D01*
X0048975Y0071266D01*
X0048563Y0071266D01*
X0048182Y0071109D01*
X0047891Y0070818D01*
X0047733Y0070438D01*
X0047733Y0070306D01*
X0047070Y0069643D01*
X0046900Y0069388D01*
X0046861Y0069196D01*
X0046840Y0069088D01*
X0046840Y0068973D01*
X0043260Y0068973D01*
X0043012Y0068924D01*
X0042802Y0068784D01*
X0042662Y0068574D01*
X0042613Y0068326D01*
X0040842Y0068326D01*
X0040842Y0077597D01*
X0053836Y0077597D01*
X0053836Y0076073D01*
X0053885Y0075825D01*
X0054025Y0075615D01*
X0054100Y0075565D01*
X0054025Y0075515D01*
X0053885Y0075305D01*
X0053836Y0075057D01*
X0053836Y0073533D01*
X0053885Y0073285D01*
X0054025Y0073075D01*
X0054235Y0072935D01*
X0054483Y0072886D01*
X0056007Y0072886D01*
X0056255Y0072935D01*
X0056465Y0073075D01*
X0056579Y0073245D01*
X0056692Y0073075D01*
X0056902Y0072935D01*
X0057150Y0072886D01*
X0058674Y0072886D01*
X0058922Y0072935D01*
X0059132Y0073075D01*
X0059182Y0073150D01*
X0059232Y0073075D01*
X0059442Y0072935D01*
X0059690Y0072886D01*
X0061214Y0072886D01*
X0061462Y0072935D01*
X0061672Y0073075D01*
X0061722Y0073150D01*
X0061772Y0073075D01*
X0061982Y0072935D01*
X0062230Y0072886D01*
X0063754Y0072886D01*
X0064002Y0072935D01*
X0064212Y0073075D01*
X0064262Y0073150D01*
X0064312Y0073075D01*
X0064522Y0072935D01*
X0064770Y0072886D01*
X0066294Y0072886D01*
X0066542Y0072935D01*
X0066752Y0073075D01*
X0066802Y0073150D01*
X0066852Y0073075D01*
X0067062Y0072935D01*
X0067310Y0072886D01*
X0068834Y0072886D01*
X0069082Y0072935D01*
X0069292Y0073075D01*
X0069342Y0073150D01*
X0069392Y0073075D01*
X0069602Y0072935D01*
X0069850Y0072886D01*
X0071374Y0072886D01*
X0071622Y0072935D01*
X0071832Y0073075D01*
X0071882Y0073150D01*
X0071932Y0073075D01*
X0072142Y0072935D01*
X0072390Y0072886D01*
X0073914Y0072886D01*
X0074162Y0072935D01*
X0074372Y0073075D01*
X0074422Y0073150D01*
X0074472Y0073075D01*
X0074682Y0072935D01*
X0074930Y0072886D01*
X0076454Y0072886D01*
X0076702Y0072935D01*
X0076912Y0073075D01*
X0077052Y0073285D01*
X0077101Y0073533D01*
X0077101Y0075057D01*
X0077052Y0075305D01*
X0076912Y0075515D01*
X0076837Y0075565D01*
X0076912Y0075615D01*
X0077052Y0075825D01*
X0077101Y0076073D01*
X0077101Y0077597D01*
X0077052Y0077845D01*
X0076912Y0078055D01*
X0076702Y0078195D01*
X0076454Y0078244D01*
X0074930Y0078244D01*
X0074682Y0078195D01*
X0074472Y0078055D01*
X0074422Y0077980D01*
X0074372Y0078055D01*
X0074162Y0078195D01*
X0073914Y0078244D01*
X0072390Y0078244D01*
X0072142Y0078195D01*
X0071932Y0078055D01*
X0071882Y0077980D01*
X0071832Y0078055D01*
X0071622Y0078195D01*
X0071374Y0078244D01*
X0069850Y0078244D01*
X0069602Y0078195D01*
X0069392Y0078055D01*
X0069342Y0077980D01*
X0069292Y0078055D01*
X0069082Y0078195D01*
X0068834Y0078244D01*
X0067310Y0078244D01*
X0067062Y0078195D01*
X0066852Y0078055D01*
X0066802Y0077980D01*
X0066752Y0078055D01*
X0066542Y0078195D01*
X0066294Y0078244D01*
X0064770Y0078244D01*
X0064522Y0078195D01*
X0064312Y0078055D01*
X0064262Y0077980D01*
X0064212Y0078055D01*
X0064002Y0078195D01*
X0063754Y0078244D01*
X0062230Y0078244D01*
X0061982Y0078195D01*
X0061772Y0078055D01*
X0061722Y0077980D01*
X0061672Y0078055D01*
X0061462Y0078195D01*
X0061214Y0078244D01*
X0059690Y0078244D01*
X0059442Y0078195D01*
X0059232Y0078055D01*
X0059182Y0077980D01*
X0059132Y0078055D01*
X0058922Y0078195D01*
X0058674Y0078244D01*
X0057150Y0078244D01*
X0056902Y0078195D01*
X0056692Y0078055D01*
X0056579Y0077885D01*
X0056465Y0078055D01*
X0056255Y0078195D01*
X0056007Y0078244D01*
X0054483Y0078244D01*
X0054235Y0078195D01*
X0054025Y0078055D01*
X0053885Y0077845D01*
X0053836Y0077597D01*
X0040842Y0077597D01*
X0040842Y0079554D01*
X0089714Y0079554D01*
X0089714Y0040842D01*
G36*
X0066421Y0060071D02*
X0064389Y0060071D01*
X0064389Y0065913D01*
X0066421Y0065913D01*
X0066421Y0060071D01*
X0066421Y0060071D01*
G37*
X0066421Y0060071D02*
X0064389Y0060071D01*
X0064389Y0065913D01*
X0066421Y0065913D01*
X0066421Y0060071D01*
X0090424Y0000000D02*
%LPD*%
G01*
D12*
D40*
X0125730Y0035306D03*
X0125730Y0004826D03*
X0095250Y0035306D03*
X0095250Y0004826D03*
D29*
X0115316Y0006754D03*
X0115316Y0012954D03*
X0120316Y0009854D03*
X0118364Y0027686D03*
X0113284Y0027686D03*
X0113297Y0023114D03*
X0118377Y0023114D03*
X0107442Y0010160D03*
X0107442Y0005160D03*
X0102362Y0005160D03*
X0102362Y0010160D03*
D20*
X0121920Y0014224D03*
D29*
X0107696Y0034972D03*
X0107696Y0029972D03*
X0102616Y0029972D03*
X0102616Y0034972D03*
D20*
X0124968Y0029718D03*
X0127508Y0029718D03*
X0124968Y0027178D03*
X0127508Y0027178D03*
X0124968Y0024638D03*
X0127508Y0024638D03*
X0124968Y0022098D03*
X0127508Y0022098D03*
D29*
X0118377Y0032766D03*
X0113297Y0032766D03*
X0113284Y0037338D03*
X0118364Y0037338D03*
D27*
X0118618Y0015494D03*
X0118618Y0013970D03*
X0119888Y0013970D03*
X0119888Y0015240D03*
X0120904Y0016256D03*
X0120142Y0017018D03*
X0125730Y0016256D03*
X0124968Y0017526D03*
X0118364Y0006858D03*
X0118364Y0005588D03*
X0118364Y0004318D03*
X0117348Y0003556D03*
X0116078Y0003556D03*
X0114808Y0003556D03*
X0113538Y0003556D03*
X0112268Y0004064D03*
X0112268Y0005334D03*
X0112268Y0006604D03*
X0112268Y0007874D03*
X0112268Y0009144D03*
X0104140Y0016002D03*
X0102870Y0016002D03*
X0104902Y0020066D03*
X0103632Y0020066D03*
X0102616Y0020066D03*
X0101346Y0020066D03*
X0129286Y0020320D03*
X0129286Y0024638D03*
X0129286Y0023368D03*
X0129286Y0022098D03*
X0129286Y0026162D03*
X0129286Y0027432D03*
X0129286Y0028448D03*
X0129286Y0029718D03*
X0123190Y0028194D03*
X0121666Y0028194D03*
X0121666Y0027178D03*
X0123190Y0027178D03*
X0099822Y0025654D03*
X0101346Y0025654D03*
X0102616Y0025654D03*
X0103886Y0025654D03*
X0103886Y0026924D03*
X0102616Y0026924D03*
X0101346Y0026924D03*
X0099822Y0026924D03*
X0101092Y0014986D03*
X0102108Y0014986D03*
X0103124Y0014986D03*
X0103124Y0013970D03*
X0102108Y0013970D03*
X0101092Y0013970D03*
X0101092Y0012954D03*
X0102108Y0012954D03*
X0103124Y0012954D03*
X0107442Y0018034D03*
X0124460Y0015494D03*
X0107442Y0020574D03*
X0097536Y0018034D03*
D13*
X0117856Y0014732D02*
X0118618Y0015494D01*
X0118618Y0015494D02*
X0120142Y0017018D01*
X0119888Y0013970D02*
X0118618Y0013970D01*
X0120904Y0016256D02*
X0119888Y0015240D01*
X0117856Y0007189D02*
X0117856Y0014732D01*
X0115316Y0006754D02*
X0117421Y0006754D01*
X0117421Y0006754D02*
X0117856Y0007189D01*
X0124968Y0022098D02*
X0124968Y0017526D01*
X0118364Y0004318D02*
X0118364Y0005588D01*
X0114808Y0003556D02*
X0116078Y0003556D01*
X0112268Y0004064D02*
X0113030Y0004064D01*
X0113030Y0004064D02*
X0113538Y0003556D01*
X0112268Y0006604D02*
X0112268Y0005334D01*
X0112268Y0009144D02*
X0112268Y0007874D01*
X0102870Y0016002D02*
X0104140Y0016002D01*
X0103632Y0020066D02*
X0104902Y0020066D01*
X0101346Y0020066D02*
X0102616Y0020066D01*
X0129286Y0022098D02*
X0129286Y0020320D01*
X0129286Y0022098D02*
X0129286Y0023368D01*
X0129286Y0027432D02*
X0129286Y0026162D01*
X0129286Y0029718D02*
X0129286Y0028448D01*
X0123190Y0028902D02*
X0123190Y0028194D01*
X0123190Y0028194D02*
X0123190Y0027178D01*
X0121666Y0027178D02*
X0121666Y0028194D01*
X0124968Y0029718D02*
X0124006Y0029718D01*
X0124006Y0029718D02*
X0123190Y0028902D01*
X0102616Y0025654D02*
X0101346Y0025654D01*
X0103886Y0026924D02*
X0103886Y0025654D01*
X0101346Y0026924D02*
X0102616Y0026924D01*
X0101673Y0026924D02*
X0101346Y0026924D01*
X0101346Y0026924D02*
X0099822Y0026924D01*
X0102616Y0029972D02*
X0102616Y0027867D01*
X0102616Y0027867D02*
X0101673Y0026924D01*
X0103124Y0014986D02*
X0102108Y0014986D01*
X0102108Y0013970D02*
X0103124Y0013970D01*
X0101092Y0012954D02*
X0101092Y0013970D01*
X0103124Y0012954D02*
X0102108Y0012954D01*
D14*
X0121158Y0018796D02*
X0108204Y0018796D01*
X0108204Y0018796D02*
X0107442Y0018034D01*
X0124460Y0015494D02*
X0121158Y0018796D01*
D26*
X0097536Y0018034D02*
X0104902Y0018034D01*
X0104902Y0018034D02*
X0107442Y0020574D01*
D15*
G36*
X0111071Y0039551D02*
X0110977Y0039410D01*
X0110944Y0039243D01*
X0110944Y0035433D01*
X0110977Y0035266D01*
X0111071Y0035125D01*
X0111187Y0035048D01*
X0111084Y0034979D01*
X0110989Y0034838D01*
X0110956Y0034671D01*
X0110956Y0030861D01*
X0110989Y0030694D01*
X0111084Y0030553D01*
X0111225Y0030459D01*
X0111392Y0030426D01*
X0115202Y0030426D01*
X0115368Y0030459D01*
X0115510Y0030553D01*
X0115604Y0030694D01*
X0115637Y0030861D01*
X0115637Y0034671D01*
X0115604Y0034838D01*
X0115510Y0034979D01*
X0115394Y0035056D01*
X0115497Y0035125D01*
X0115591Y0035266D01*
X0115624Y0035433D01*
X0115624Y0039243D01*
X0115591Y0039410D01*
X0115497Y0039551D01*
X0115378Y0039630D01*
X0116270Y0039630D01*
X0116151Y0039551D01*
X0116057Y0039410D01*
X0116024Y0039243D01*
X0116024Y0035433D01*
X0116057Y0035266D01*
X0116151Y0035125D01*
X0116267Y0035048D01*
X0116164Y0034979D01*
X0116069Y0034838D01*
X0116036Y0034671D01*
X0116036Y0030861D01*
X0116069Y0030694D01*
X0116164Y0030553D01*
X0116305Y0030459D01*
X0116472Y0030426D01*
X0120282Y0030426D01*
X0120448Y0030459D01*
X0120590Y0030553D01*
X0120684Y0030694D01*
X0120717Y0030861D01*
X0120717Y0034489D01*
X0121602Y0034489D01*
X0122229Y0032971D01*
X0123389Y0031809D01*
X0124905Y0031180D01*
X0126547Y0031178D01*
X0128065Y0031805D01*
X0129227Y0032965D01*
X0129856Y0034481D01*
X0129858Y0036123D01*
X0129231Y0037641D01*
X0128071Y0038803D01*
X0126555Y0039432D01*
X0124913Y0039434D01*
X0123395Y0038807D01*
X0122233Y0037647D01*
X0121604Y0036131D01*
X0121602Y0034489D01*
X0120717Y0034489D01*
X0120717Y0034671D01*
X0120684Y0034838D01*
X0120590Y0034979D01*
X0120474Y0035056D01*
X0120577Y0035125D01*
X0120671Y0035266D01*
X0120704Y0035433D01*
X0120704Y0039243D01*
X0120671Y0039410D01*
X0120577Y0039551D01*
X0120458Y0039630D01*
X0130054Y0039630D01*
X0130054Y0000502D01*
X0090926Y0000502D01*
X0090926Y0004009D01*
X0091122Y0004009D01*
X0091749Y0002491D01*
X0092909Y0001329D01*
X0094425Y0000700D01*
X0096067Y0000698D01*
X0097585Y0001325D01*
X0098747Y0002485D01*
X0099376Y0004001D01*
X0099378Y0005643D01*
X0098790Y0007065D01*
X0105102Y0007065D01*
X0105102Y0003255D01*
X0105135Y0003088D01*
X0105229Y0002947D01*
X0105370Y0002853D01*
X0105537Y0002820D01*
X0109347Y0002820D01*
X0109514Y0002853D01*
X0109655Y0002947D01*
X0109749Y0003088D01*
X0109782Y0003255D01*
X0109782Y0004009D01*
X0121602Y0004009D01*
X0122229Y0002491D01*
X0123389Y0001329D01*
X0124905Y0000700D01*
X0126547Y0000698D01*
X0128065Y0001325D01*
X0129227Y0002485D01*
X0129856Y0004001D01*
X0129858Y0005643D01*
X0129231Y0007161D01*
X0128071Y0008323D01*
X0126555Y0008952D01*
X0124913Y0008954D01*
X0123395Y0008327D01*
X0122233Y0007167D01*
X0121604Y0005651D01*
X0121602Y0004009D01*
X0109782Y0004009D01*
X0109782Y0007065D01*
X0109749Y0007232D01*
X0109655Y0007373D01*
X0109514Y0007467D01*
X0109347Y0007500D01*
X0105537Y0007500D01*
X0105370Y0007467D01*
X0105229Y0007373D01*
X0105135Y0007232D01*
X0105102Y0007065D01*
X0098790Y0007065D01*
X0098751Y0007161D01*
X0097591Y0008323D01*
X0096075Y0008952D01*
X0094433Y0008954D01*
X0092915Y0008327D01*
X0091753Y0007167D01*
X0091124Y0005651D01*
X0091122Y0004009D01*
X0090926Y0004009D01*
X0090926Y0012065D01*
X0105102Y0012065D01*
X0105102Y0008255D01*
X0105135Y0008088D01*
X0105229Y0007947D01*
X0105370Y0007853D01*
X0105537Y0007820D01*
X0109347Y0007820D01*
X0109514Y0007853D01*
X0109655Y0007947D01*
X0109749Y0008088D01*
X0109782Y0008255D01*
X0109782Y0012065D01*
X0109749Y0012232D01*
X0109655Y0012373D01*
X0109514Y0012467D01*
X0109347Y0012500D01*
X0105537Y0012500D01*
X0105370Y0012467D01*
X0105229Y0012373D01*
X0105135Y0012232D01*
X0105102Y0012065D01*
X0090926Y0012065D01*
X0090926Y0014380D01*
X0093759Y0014380D01*
X0094029Y0013727D01*
X0094528Y0013226D01*
X0095181Y0012955D01*
X0095888Y0012955D01*
X0096541Y0013225D01*
X0097042Y0013724D01*
X0097313Y0014377D01*
X0097313Y0014859D01*
X0112976Y0014859D01*
X0112976Y0011049D01*
X0113009Y0010882D01*
X0113103Y0010741D01*
X0113244Y0010647D01*
X0113411Y0010614D01*
X0117221Y0010614D01*
X0117388Y0010647D01*
X0117529Y0010741D01*
X0117623Y0010882D01*
X0117656Y0011049D01*
X0117656Y0011759D01*
X0117976Y0011759D01*
X0117976Y0007949D01*
X0118009Y0007782D01*
X0118103Y0007641D01*
X0118244Y0007547D01*
X0118411Y0007514D01*
X0122221Y0007514D01*
X0122388Y0007547D01*
X0122529Y0007641D01*
X0122623Y0007782D01*
X0122656Y0007949D01*
X0122656Y0011759D01*
X0122623Y0011926D01*
X0122529Y0012067D01*
X0122388Y0012161D01*
X0122221Y0012194D01*
X0118411Y0012194D01*
X0118244Y0012161D01*
X0118103Y0012067D01*
X0118009Y0011926D01*
X0117976Y0011759D01*
X0117656Y0011759D01*
X0117656Y0014859D01*
X0117631Y0014986D01*
X0120723Y0014986D01*
X0120723Y0013462D01*
X0120756Y0013295D01*
X0120850Y0013154D01*
X0120991Y0013060D01*
X0121158Y0013027D01*
X0122682Y0013027D01*
X0122849Y0013060D01*
X0122990Y0013154D01*
X0123084Y0013295D01*
X0123117Y0013462D01*
X0123117Y0014986D01*
X0123084Y0015153D01*
X0122990Y0015294D01*
X0122849Y0015388D01*
X0122682Y0015421D01*
X0121158Y0015421D01*
X0120991Y0015388D01*
X0120850Y0015294D01*
X0120756Y0015153D01*
X0120723Y0014986D01*
X0117631Y0014986D01*
X0117623Y0015026D01*
X0117529Y0015167D01*
X0117388Y0015261D01*
X0117221Y0015294D01*
X0113411Y0015294D01*
X0113244Y0015261D01*
X0113103Y0015167D01*
X0113009Y0015026D01*
X0112976Y0014859D01*
X0097313Y0014859D01*
X0097313Y0015084D01*
X0097043Y0015737D01*
X0096544Y0016238D01*
X0095891Y0016509D01*
X0095184Y0016509D01*
X0094531Y0016239D01*
X0094030Y0015740D01*
X0093759Y0015087D01*
X0093759Y0014380D01*
X0090926Y0014380D01*
X0090926Y0017870D01*
X0096709Y0017870D01*
X0096834Y0017566D01*
X0097067Y0017333D01*
X0097371Y0017207D01*
X0097700Y0017207D01*
X0097942Y0017307D01*
X0104902Y0017307D01*
X0104902Y0017307D01*
X0105134Y0017353D01*
X0105180Y0017362D01*
X0105416Y0017520D01*
X0106658Y0018762D01*
X0106447Y0018446D01*
X0106365Y0018034D01*
X0106447Y0017622D01*
X0106680Y0017272D01*
X0107030Y0017039D01*
X0107442Y0016957D01*
X0107854Y0017039D01*
X0108204Y0017272D01*
X0108650Y0017719D01*
X0120712Y0017719D01*
X0123698Y0014732D01*
X0124048Y0014499D01*
X0124460Y0014417D01*
X0124872Y0014499D01*
X0125222Y0014732D01*
X0125455Y0015082D01*
X0125537Y0015494D01*
X0125455Y0015906D01*
X0125222Y0016256D01*
X0121920Y0019558D01*
X0121570Y0019791D01*
X0121158Y0019873D01*
X0108204Y0019873D01*
X0107792Y0019791D01*
X0107476Y0019580D01*
X0107669Y0019773D01*
X0107910Y0019872D01*
X0108143Y0020105D01*
X0108269Y0020409D01*
X0108269Y0020738D01*
X0108144Y0021042D01*
X0107911Y0021275D01*
X0107607Y0021401D01*
X0107278Y0021401D01*
X0106974Y0021276D01*
X0106741Y0021043D01*
X0106641Y0020801D01*
X0104601Y0018761D01*
X0097942Y0018761D01*
X0097701Y0018861D01*
X0097372Y0018861D01*
X0097068Y0018736D01*
X0096835Y0018503D01*
X0096709Y0018199D01*
X0096709Y0017870D01*
X0090926Y0017870D01*
X0090926Y0034489D01*
X0091122Y0034489D01*
X0091749Y0032971D01*
X0092909Y0031809D01*
X0094425Y0031180D01*
X0096067Y0031178D01*
X0097585Y0031805D01*
X0097657Y0031877D01*
X0105356Y0031877D01*
X0105356Y0028067D01*
X0105389Y0027900D01*
X0105483Y0027759D01*
X0105624Y0027665D01*
X0105791Y0027632D01*
X0109601Y0027632D01*
X0109768Y0027665D01*
X0109909Y0027759D01*
X0110003Y0027900D01*
X0110036Y0028067D01*
X0110036Y0029591D01*
X0110944Y0029591D01*
X0110944Y0025781D01*
X0110977Y0025614D01*
X0111071Y0025473D01*
X0111187Y0025396D01*
X0111084Y0025327D01*
X0110989Y0025186D01*
X0110956Y0025019D01*
X0110956Y0021209D01*
X0110989Y0021042D01*
X0111084Y0020901D01*
X0111225Y0020807D01*
X0111392Y0020774D01*
X0115202Y0020774D01*
X0115368Y0020807D01*
X0115510Y0020901D01*
X0115604Y0021042D01*
X0115637Y0021209D01*
X0115637Y0025019D01*
X0115604Y0025186D01*
X0115510Y0025327D01*
X0115394Y0025404D01*
X0115497Y0025473D01*
X0115591Y0025614D01*
X0115624Y0025781D01*
X0115624Y0029591D01*
X0116024Y0029591D01*
X0116024Y0025781D01*
X0116057Y0025614D01*
X0116151Y0025473D01*
X0116267Y0025396D01*
X0116164Y0025327D01*
X0116069Y0025186D01*
X0116036Y0025019D01*
X0116036Y0021209D01*
X0116069Y0021042D01*
X0116164Y0020901D01*
X0116305Y0020807D01*
X0116472Y0020774D01*
X0120282Y0020774D01*
X0120448Y0020807D01*
X0120590Y0020901D01*
X0120684Y0021042D01*
X0120717Y0021209D01*
X0120717Y0025019D01*
X0120684Y0025186D01*
X0120590Y0025327D01*
X0120480Y0025400D01*
X0123771Y0025400D01*
X0123771Y0023876D01*
X0123804Y0023709D01*
X0123898Y0023568D01*
X0124039Y0023474D01*
X0124206Y0023441D01*
X0125730Y0023441D01*
X0125897Y0023474D01*
X0126038Y0023568D01*
X0126132Y0023709D01*
X0126165Y0023876D01*
X0126165Y0025400D01*
X0126311Y0025400D01*
X0126311Y0023876D01*
X0126344Y0023709D01*
X0126438Y0023568D01*
X0126579Y0023474D01*
X0126746Y0023441D01*
X0128270Y0023441D01*
X0128437Y0023474D01*
X0128578Y0023568D01*
X0128672Y0023709D01*
X0128705Y0023876D01*
X0128705Y0025400D01*
X0128672Y0025567D01*
X0128578Y0025708D01*
X0128437Y0025802D01*
X0128270Y0025835D01*
X0126746Y0025835D01*
X0126579Y0025802D01*
X0126438Y0025708D01*
X0126344Y0025567D01*
X0126311Y0025400D01*
X0126165Y0025400D01*
X0126132Y0025567D01*
X0126038Y0025708D01*
X0125897Y0025802D01*
X0125730Y0025835D01*
X0124206Y0025835D01*
X0124039Y0025802D01*
X0123898Y0025708D01*
X0123804Y0025567D01*
X0123771Y0025400D01*
X0120480Y0025400D01*
X0120474Y0025404D01*
X0120577Y0025473D01*
X0120671Y0025614D01*
X0120704Y0025781D01*
X0120704Y0027940D01*
X0123771Y0027940D01*
X0123771Y0026416D01*
X0123804Y0026249D01*
X0123898Y0026108D01*
X0124039Y0026014D01*
X0124206Y0025981D01*
X0125730Y0025981D01*
X0125897Y0026014D01*
X0126038Y0026108D01*
X0126132Y0026249D01*
X0126165Y0026416D01*
X0126165Y0027940D01*
X0126311Y0027940D01*
X0126311Y0026416D01*
X0126344Y0026249D01*
X0126438Y0026108D01*
X0126579Y0026014D01*
X0126746Y0025981D01*
X0128270Y0025981D01*
X0128437Y0026014D01*
X0128578Y0026108D01*
X0128672Y0026249D01*
X0128705Y0026416D01*
X0128705Y0027940D01*
X0128672Y0028107D01*
X0128578Y0028248D01*
X0128437Y0028342D01*
X0128270Y0028375D01*
X0126746Y0028375D01*
X0126579Y0028342D01*
X0126438Y0028248D01*
X0126344Y0028107D01*
X0126311Y0027940D01*
X0126165Y0027940D01*
X0126132Y0028107D01*
X0126038Y0028248D01*
X0125897Y0028342D01*
X0125730Y0028375D01*
X0124206Y0028375D01*
X0124039Y0028342D01*
X0123898Y0028248D01*
X0123804Y0028107D01*
X0123771Y0027940D01*
X0120704Y0027940D01*
X0120704Y0029591D01*
X0120671Y0029758D01*
X0120577Y0029899D01*
X0120436Y0029993D01*
X0120269Y0030026D01*
X0116459Y0030026D01*
X0116292Y0029993D01*
X0116151Y0029899D01*
X0116057Y0029758D01*
X0116024Y0029591D01*
X0115624Y0029591D01*
X0115591Y0029758D01*
X0115497Y0029899D01*
X0115356Y0029993D01*
X0115189Y0030026D01*
X0111379Y0030026D01*
X0111212Y0029993D01*
X0111071Y0029899D01*
X0110977Y0029758D01*
X0110944Y0029591D01*
X0110036Y0029591D01*
X0110036Y0031877D01*
X0110003Y0032044D01*
X0109909Y0032185D01*
X0109768Y0032279D01*
X0109601Y0032312D01*
X0105791Y0032312D01*
X0105624Y0032279D01*
X0105483Y0032185D01*
X0105389Y0032044D01*
X0105356Y0031877D01*
X0097657Y0031877D01*
X0098747Y0032965D01*
X0099376Y0034481D01*
X0099378Y0036123D01*
X0099066Y0036877D01*
X0105356Y0036877D01*
X0105356Y0033067D01*
X0105389Y0032900D01*
X0105483Y0032759D01*
X0105624Y0032665D01*
X0105791Y0032632D01*
X0109601Y0032632D01*
X0109768Y0032665D01*
X0109909Y0032759D01*
X0110003Y0032900D01*
X0110036Y0033067D01*
X0110036Y0036877D01*
X0110003Y0037044D01*
X0109909Y0037185D01*
X0109768Y0037279D01*
X0109601Y0037312D01*
X0105791Y0037312D01*
X0105624Y0037279D01*
X0105483Y0037185D01*
X0105389Y0037044D01*
X0105356Y0036877D01*
X0099066Y0036877D01*
X0098751Y0037641D01*
X0097591Y0038803D01*
X0096075Y0039432D01*
X0094433Y0039434D01*
X0092915Y0038807D01*
X0091753Y0037647D01*
X0091124Y0036131D01*
X0091122Y0034489D01*
X0090926Y0034489D01*
X0090926Y0039630D01*
X0111190Y0039630D01*
X0111071Y0039551D01*
X0111071Y0039551D01*
G37*
X0111071Y0039551D02*
X0110977Y0039410D01*
X0110944Y0039243D01*
X0110944Y0035433D01*
X0110977Y0035266D01*
X0111071Y0035125D01*
X0111187Y0035048D01*
X0111084Y0034979D01*
X0110989Y0034838D01*
X0110956Y0034671D01*
X0110956Y0030861D01*
X0110989Y0030694D01*
X0111084Y0030553D01*
X0111225Y0030459D01*
X0111392Y0030426D01*
X0115202Y0030426D01*
X0115368Y0030459D01*
X0115510Y0030553D01*
X0115604Y0030694D01*
X0115637Y0030861D01*
X0115637Y0034671D01*
X0115604Y0034838D01*
X0115510Y0034979D01*
X0115394Y0035056D01*
X0115497Y0035125D01*
X0115591Y0035266D01*
X0115624Y0035433D01*
X0115624Y0039243D01*
X0115591Y0039410D01*
X0115497Y0039551D01*
X0115378Y0039630D01*
X0116270Y0039630D01*
X0116151Y0039551D01*
X0116057Y0039410D01*
X0116024Y0039243D01*
X0116024Y0035433D01*
X0116057Y0035266D01*
X0116151Y0035125D01*
X0116267Y0035048D01*
X0116164Y0034979D01*
X0116069Y0034838D01*
X0116036Y0034671D01*
X0116036Y0030861D01*
X0116069Y0030694D01*
X0116164Y0030553D01*
X0116305Y0030459D01*
X0116472Y0030426D01*
X0120282Y0030426D01*
X0120448Y0030459D01*
X0120590Y0030553D01*
X0120684Y0030694D01*
X0120717Y0030861D01*
X0120717Y0034489D01*
X0121602Y0034489D01*
X0122229Y0032971D01*
X0123389Y0031809D01*
X0124905Y0031180D01*
X0126547Y0031178D01*
X0128065Y0031805D01*
X0129227Y0032965D01*
X0129856Y0034481D01*
X0129858Y0036123D01*
X0129231Y0037641D01*
X0128071Y0038803D01*
X0126555Y0039432D01*
X0124913Y0039434D01*
X0123395Y0038807D01*
X0122233Y0037647D01*
X0121604Y0036131D01*
X0121602Y0034489D01*
X0120717Y0034489D01*
X0120717Y0034671D01*
X0120684Y0034838D01*
X0120590Y0034979D01*
X0120474Y0035056D01*
X0120577Y0035125D01*
X0120671Y0035266D01*
X0120704Y0035433D01*
X0120704Y0039243D01*
X0120671Y0039410D01*
X0120577Y0039551D01*
X0120458Y0039630D01*
X0130054Y0039630D01*
X0130054Y0000502D01*
X0090926Y0000502D01*
X0090926Y0004009D01*
X0091122Y0004009D01*
X0091749Y0002491D01*
X0092909Y0001329D01*
X0094425Y0000700D01*
X0096067Y0000698D01*
X0097585Y0001325D01*
X0098747Y0002485D01*
X0099376Y0004001D01*
X0099378Y0005643D01*
X0098790Y0007065D01*
X0105102Y0007065D01*
X0105102Y0003255D01*
X0105135Y0003088D01*
X0105229Y0002947D01*
X0105370Y0002853D01*
X0105537Y0002820D01*
X0109347Y0002820D01*
X0109514Y0002853D01*
X0109655Y0002947D01*
X0109749Y0003088D01*
X0109782Y0003255D01*
X0109782Y0004009D01*
X0121602Y0004009D01*
X0122229Y0002491D01*
X0123389Y0001329D01*
X0124905Y0000700D01*
X0126547Y0000698D01*
X0128065Y0001325D01*
X0129227Y0002485D01*
X0129856Y0004001D01*
X0129858Y0005643D01*
X0129231Y0007161D01*
X0128071Y0008323D01*
X0126555Y0008952D01*
X0124913Y0008954D01*
X0123395Y0008327D01*
X0122233Y0007167D01*
X0121604Y0005651D01*
X0121602Y0004009D01*
X0109782Y0004009D01*
X0109782Y0007065D01*
X0109749Y0007232D01*
X0109655Y0007373D01*
X0109514Y0007467D01*
X0109347Y0007500D01*
X0105537Y0007500D01*
X0105370Y0007467D01*
X0105229Y0007373D01*
X0105135Y0007232D01*
X0105102Y0007065D01*
X0098790Y0007065D01*
X0098751Y0007161D01*
X0097591Y0008323D01*
X0096075Y0008952D01*
X0094433Y0008954D01*
X0092915Y0008327D01*
X0091753Y0007167D01*
X0091124Y0005651D01*
X0091122Y0004009D01*
X0090926Y0004009D01*
X0090926Y0012065D01*
X0105102Y0012065D01*
X0105102Y0008255D01*
X0105135Y0008088D01*
X0105229Y0007947D01*
X0105370Y0007853D01*
X0105537Y0007820D01*
X0109347Y0007820D01*
X0109514Y0007853D01*
X0109655Y0007947D01*
X0109749Y0008088D01*
X0109782Y0008255D01*
X0109782Y0012065D01*
X0109749Y0012232D01*
X0109655Y0012373D01*
X0109514Y0012467D01*
X0109347Y0012500D01*
X0105537Y0012500D01*
X0105370Y0012467D01*
X0105229Y0012373D01*
X0105135Y0012232D01*
X0105102Y0012065D01*
X0090926Y0012065D01*
X0090926Y0014380D01*
X0093759Y0014380D01*
X0094029Y0013727D01*
X0094528Y0013226D01*
X0095181Y0012955D01*
X0095888Y0012955D01*
X0096541Y0013225D01*
X0097042Y0013724D01*
X0097313Y0014377D01*
X0097313Y0014859D01*
X0112976Y0014859D01*
X0112976Y0011049D01*
X0113009Y0010882D01*
X0113103Y0010741D01*
X0113244Y0010647D01*
X0113411Y0010614D01*
X0117221Y0010614D01*
X0117388Y0010647D01*
X0117529Y0010741D01*
X0117623Y0010882D01*
X0117656Y0011049D01*
X0117656Y0011759D01*
X0117976Y0011759D01*
X0117976Y0007949D01*
X0118009Y0007782D01*
X0118103Y0007641D01*
X0118244Y0007547D01*
X0118411Y0007514D01*
X0122221Y0007514D01*
X0122388Y0007547D01*
X0122529Y0007641D01*
X0122623Y0007782D01*
X0122656Y0007949D01*
X0122656Y0011759D01*
X0122623Y0011926D01*
X0122529Y0012067D01*
X0122388Y0012161D01*
X0122221Y0012194D01*
X0118411Y0012194D01*
X0118244Y0012161D01*
X0118103Y0012067D01*
X0118009Y0011926D01*
X0117976Y0011759D01*
X0117656Y0011759D01*
X0117656Y0014859D01*
X0117631Y0014986D01*
X0120723Y0014986D01*
X0120723Y0013462D01*
X0120756Y0013295D01*
X0120850Y0013154D01*
X0120991Y0013060D01*
X0121158Y0013027D01*
X0122682Y0013027D01*
X0122849Y0013060D01*
X0122990Y0013154D01*
X0123084Y0013295D01*
X0123117Y0013462D01*
X0123117Y0014986D01*
X0123084Y0015153D01*
X0122990Y0015294D01*
X0122849Y0015388D01*
X0122682Y0015421D01*
X0121158Y0015421D01*
X0120991Y0015388D01*
X0120850Y0015294D01*
X0120756Y0015153D01*
X0120723Y0014986D01*
X0117631Y0014986D01*
X0117623Y0015026D01*
X0117529Y0015167D01*
X0117388Y0015261D01*
X0117221Y0015294D01*
X0113411Y0015294D01*
X0113244Y0015261D01*
X0113103Y0015167D01*
X0113009Y0015026D01*
X0112976Y0014859D01*
X0097313Y0014859D01*
X0097313Y0015084D01*
X0097043Y0015737D01*
X0096544Y0016238D01*
X0095891Y0016509D01*
X0095184Y0016509D01*
X0094531Y0016239D01*
X0094030Y0015740D01*
X0093759Y0015087D01*
X0093759Y0014380D01*
X0090926Y0014380D01*
X0090926Y0017870D01*
X0096709Y0017870D01*
X0096834Y0017566D01*
X0097067Y0017333D01*
X0097371Y0017207D01*
X0097700Y0017207D01*
X0097942Y0017307D01*
X0104902Y0017307D01*
X0104902Y0017307D01*
X0105134Y0017353D01*
X0105180Y0017362D01*
X0105416Y0017520D01*
X0106658Y0018762D01*
X0106447Y0018446D01*
X0106365Y0018034D01*
X0106447Y0017622D01*
X0106680Y0017272D01*
X0107030Y0017039D01*
X0107442Y0016957D01*
X0107854Y0017039D01*
X0108204Y0017272D01*
X0108650Y0017719D01*
X0120712Y0017719D01*
X0123698Y0014732D01*
X0124048Y0014499D01*
X0124460Y0014417D01*
X0124872Y0014499D01*
X0125222Y0014732D01*
X0125455Y0015082D01*
X0125537Y0015494D01*
X0125455Y0015906D01*
X0125222Y0016256D01*
X0121920Y0019558D01*
X0121570Y0019791D01*
X0121158Y0019873D01*
X0108204Y0019873D01*
X0107792Y0019791D01*
X0107476Y0019580D01*
X0107669Y0019773D01*
X0107910Y0019872D01*
X0108143Y0020105D01*
X0108269Y0020409D01*
X0108269Y0020738D01*
X0108144Y0021042D01*
X0107911Y0021275D01*
X0107607Y0021401D01*
X0107278Y0021401D01*
X0106974Y0021276D01*
X0106741Y0021043D01*
X0106641Y0020801D01*
X0104601Y0018761D01*
X0097942Y0018761D01*
X0097701Y0018861D01*
X0097372Y0018861D01*
X0097068Y0018736D01*
X0096835Y0018503D01*
X0096709Y0018199D01*
X0096709Y0017870D01*
X0090926Y0017870D01*
X0090926Y0034489D01*
X0091122Y0034489D01*
X0091749Y0032971D01*
X0092909Y0031809D01*
X0094425Y0031180D01*
X0096067Y0031178D01*
X0097585Y0031805D01*
X0097657Y0031877D01*
X0105356Y0031877D01*
X0105356Y0028067D01*
X0105389Y0027900D01*
X0105483Y0027759D01*
X0105624Y0027665D01*
X0105791Y0027632D01*
X0109601Y0027632D01*
X0109768Y0027665D01*
X0109909Y0027759D01*
X0110003Y0027900D01*
X0110036Y0028067D01*
X0110036Y0029591D01*
X0110944Y0029591D01*
X0110944Y0025781D01*
X0110977Y0025614D01*
X0111071Y0025473D01*
X0111187Y0025396D01*
X0111084Y0025327D01*
X0110989Y0025186D01*
X0110956Y0025019D01*
X0110956Y0021209D01*
X0110989Y0021042D01*
X0111084Y0020901D01*
X0111225Y0020807D01*
X0111392Y0020774D01*
X0115202Y0020774D01*
X0115368Y0020807D01*
X0115510Y0020901D01*
X0115604Y0021042D01*
X0115637Y0021209D01*
X0115637Y0025019D01*
X0115604Y0025186D01*
X0115510Y0025327D01*
X0115394Y0025404D01*
X0115497Y0025473D01*
X0115591Y0025614D01*
X0115624Y0025781D01*
X0115624Y0029591D01*
X0116024Y0029591D01*
X0116024Y0025781D01*
X0116057Y0025614D01*
X0116151Y0025473D01*
X0116267Y0025396D01*
X0116164Y0025327D01*
X0116069Y0025186D01*
X0116036Y0025019D01*
X0116036Y0021209D01*
X0116069Y0021042D01*
X0116164Y0020901D01*
X0116305Y0020807D01*
X0116472Y0020774D01*
X0120282Y0020774D01*
X0120448Y0020807D01*
X0120590Y0020901D01*
X0120684Y0021042D01*
X0120717Y0021209D01*
X0120717Y0025019D01*
X0120684Y0025186D01*
X0120590Y0025327D01*
X0120480Y0025400D01*
X0123771Y0025400D01*
X0123771Y0023876D01*
X0123804Y0023709D01*
X0123898Y0023568D01*
X0124039Y0023474D01*
X0124206Y0023441D01*
X0125730Y0023441D01*
X0125897Y0023474D01*
X0126038Y0023568D01*
X0126132Y0023709D01*
X0126165Y0023876D01*
X0126165Y0025400D01*
X0126311Y0025400D01*
X0126311Y0023876D01*
X0126344Y0023709D01*
X0126438Y0023568D01*
X0126579Y0023474D01*
X0126746Y0023441D01*
X0128270Y0023441D01*
X0128437Y0023474D01*
X0128578Y0023568D01*
X0128672Y0023709D01*
X0128705Y0023876D01*
X0128705Y0025400D01*
X0128672Y0025567D01*
X0128578Y0025708D01*
X0128437Y0025802D01*
X0128270Y0025835D01*
X0126746Y0025835D01*
X0126579Y0025802D01*
X0126438Y0025708D01*
X0126344Y0025567D01*
X0126311Y0025400D01*
X0126165Y0025400D01*
X0126132Y0025567D01*
X0126038Y0025708D01*
X0125897Y0025802D01*
X0125730Y0025835D01*
X0124206Y0025835D01*
X0124039Y0025802D01*
X0123898Y0025708D01*
X0123804Y0025567D01*
X0123771Y0025400D01*
X0120480Y0025400D01*
X0120474Y0025404D01*
X0120577Y0025473D01*
X0120671Y0025614D01*
X0120704Y0025781D01*
X0120704Y0027940D01*
X0123771Y0027940D01*
X0123771Y0026416D01*
X0123804Y0026249D01*
X0123898Y0026108D01*
X0124039Y0026014D01*
X0124206Y0025981D01*
X0125730Y0025981D01*
X0125897Y0026014D01*
X0126038Y0026108D01*
X0126132Y0026249D01*
X0126165Y0026416D01*
X0126165Y0027940D01*
X0126311Y0027940D01*
X0126311Y0026416D01*
X0126344Y0026249D01*
X0126438Y0026108D01*
X0126579Y0026014D01*
X0126746Y0025981D01*
X0128270Y0025981D01*
X0128437Y0026014D01*
X0128578Y0026108D01*
X0128672Y0026249D01*
X0128705Y0026416D01*
X0128705Y0027940D01*
X0128672Y0028107D01*
X0128578Y0028248D01*
X0128437Y0028342D01*
X0128270Y0028375D01*
X0126746Y0028375D01*
X0126579Y0028342D01*
X0126438Y0028248D01*
X0126344Y0028107D01*
X0126311Y0027940D01*
X0126165Y0027940D01*
X0126132Y0028107D01*
X0126038Y0028248D01*
X0125897Y0028342D01*
X0125730Y0028375D01*
X0124206Y0028375D01*
X0124039Y0028342D01*
X0123898Y0028248D01*
X0123804Y0028107D01*
X0123771Y0027940D01*
X0120704Y0027940D01*
X0120704Y0029591D01*
X0120671Y0029758D01*
X0120577Y0029899D01*
X0120436Y0029993D01*
X0120269Y0030026D01*
X0116459Y0030026D01*
X0116292Y0029993D01*
X0116151Y0029899D01*
X0116057Y0029758D01*
X0116024Y0029591D01*
X0115624Y0029591D01*
X0115591Y0029758D01*
X0115497Y0029899D01*
X0115356Y0029993D01*
X0115189Y0030026D01*
X0111379Y0030026D01*
X0111212Y0029993D01*
X0111071Y0029899D01*
X0110977Y0029758D01*
X0110944Y0029591D01*
X0110036Y0029591D01*
X0110036Y0031877D01*
X0110003Y0032044D01*
X0109909Y0032185D01*
X0109768Y0032279D01*
X0109601Y0032312D01*
X0105791Y0032312D01*
X0105624Y0032279D01*
X0105483Y0032185D01*
X0105389Y0032044D01*
X0105356Y0031877D01*
X0097657Y0031877D01*
X0098747Y0032965D01*
X0099376Y0034481D01*
X0099378Y0036123D01*
X0099066Y0036877D01*
X0105356Y0036877D01*
X0105356Y0033067D01*
X0105389Y0032900D01*
X0105483Y0032759D01*
X0105624Y0032665D01*
X0105791Y0032632D01*
X0109601Y0032632D01*
X0109768Y0032665D01*
X0109909Y0032759D01*
X0110003Y0032900D01*
X0110036Y0033067D01*
X0110036Y0036877D01*
X0110003Y0037044D01*
X0109909Y0037185D01*
X0109768Y0037279D01*
X0109601Y0037312D01*
X0105791Y0037312D01*
X0105624Y0037279D01*
X0105483Y0037185D01*
X0105389Y0037044D01*
X0105356Y0036877D01*
X0099066Y0036877D01*
X0098751Y0037641D01*
X0097591Y0038803D01*
X0096075Y0039432D01*
X0094433Y0039434D01*
X0092915Y0038807D01*
X0091753Y0037647D01*
X0091124Y0036131D01*
X0091122Y0034489D01*
X0090926Y0034489D01*
X0090926Y0039630D01*
X0111190Y0039630D01*
X0111071Y0039551D01*
X0090424Y0040132D02*
%LPD*%
G01*
D12*
D40*
X0125730Y0075438D03*
X0125730Y0044958D03*
X0095250Y0075438D03*
X0095250Y0044958D03*
D29*
X0115316Y0046886D03*
X0115316Y0053086D03*
X0120316Y0049986D03*
X0118364Y0067818D03*
X0113284Y0067818D03*
X0113297Y0063246D03*
X0118377Y0063246D03*
X0107442Y0050292D03*
X0107442Y0045292D03*
X0102362Y0045292D03*
X0102362Y0050292D03*
D20*
X0121920Y0054356D03*
D29*
X0107696Y0075104D03*
X0107696Y0070104D03*
X0102616Y0070104D03*
X0102616Y0075104D03*
D20*
X0124968Y0069850D03*
X0127508Y0069850D03*
X0124968Y0067310D03*
X0127508Y0067310D03*
X0124968Y0064770D03*
X0127508Y0064770D03*
X0124968Y0062230D03*
X0127508Y0062230D03*
D29*
X0118377Y0072898D03*
X0113297Y0072898D03*
X0113284Y0077470D03*
X0118364Y0077470D03*
D27*
X0118618Y0055626D03*
X0118618Y0054102D03*
X0119888Y0054102D03*
X0119888Y0055372D03*
X0120904Y0056388D03*
X0120142Y0057150D03*
X0125730Y0056388D03*
X0124968Y0057658D03*
X0118364Y0046990D03*
X0118364Y0045720D03*
X0118364Y0044450D03*
X0117348Y0043688D03*
X0116078Y0043688D03*
X0114808Y0043688D03*
X0113538Y0043688D03*
X0112268Y0044196D03*
X0112268Y0045466D03*
X0112268Y0046736D03*
X0112268Y0048006D03*
X0112268Y0049276D03*
X0104140Y0056134D03*
X0102870Y0056134D03*
X0104902Y0060198D03*
X0103632Y0060198D03*
X0102616Y0060198D03*
X0101346Y0060198D03*
X0129286Y0060452D03*
X0129286Y0064770D03*
X0129286Y0063500D03*
X0129286Y0062230D03*
X0129286Y0066294D03*
X0129286Y0067564D03*
X0129286Y0068580D03*
X0129286Y0069850D03*
X0123190Y0068326D03*
X0121666Y0068326D03*
X0121666Y0067310D03*
X0123190Y0067310D03*
X0099822Y0065786D03*
X0101346Y0065786D03*
X0102616Y0065786D03*
X0103886Y0065786D03*
X0103886Y0067056D03*
X0102616Y0067056D03*
X0101346Y0067056D03*
X0099822Y0067056D03*
X0101092Y0055118D03*
X0102108Y0055118D03*
X0103124Y0055118D03*
X0103124Y0054102D03*
X0102108Y0054102D03*
X0101092Y0054102D03*
X0101092Y0053086D03*
X0102108Y0053086D03*
X0103124Y0053086D03*
X0107442Y0058166D03*
X0124460Y0055626D03*
X0107442Y0060706D03*
X0097536Y0058166D03*
D13*
X0117856Y0054864D02*
X0118618Y0055626D01*
X0118618Y0055626D02*
X0120142Y0057150D01*
X0119888Y0054102D02*
X0118618Y0054102D01*
X0120904Y0056388D02*
X0119888Y0055372D01*
X0117856Y0047321D02*
X0117856Y0054864D01*
X0115316Y0046886D02*
X0117421Y0046886D01*
X0117421Y0046886D02*
X0117856Y0047321D01*
X0124968Y0062230D02*
X0124968Y0057658D01*
X0118364Y0044450D02*
X0118364Y0045720D01*
X0114808Y0043688D02*
X0116078Y0043688D01*
X0112268Y0044196D02*
X0113030Y0044196D01*
X0113030Y0044196D02*
X0113538Y0043688D01*
X0112268Y0046736D02*
X0112268Y0045466D01*
X0112268Y0049276D02*
X0112268Y0048006D01*
X0102870Y0056134D02*
X0104140Y0056134D01*
X0103632Y0060198D02*
X0104902Y0060198D01*
X0101346Y0060198D02*
X0102616Y0060198D01*
X0129286Y0062230D02*
X0129286Y0060452D01*
X0129286Y0062230D02*
X0129286Y0063500D01*
X0129286Y0067564D02*
X0129286Y0066294D01*
X0129286Y0069850D02*
X0129286Y0068580D01*
X0123190Y0069034D02*
X0123190Y0068326D01*
X0123190Y0068326D02*
X0123190Y0067310D01*
X0121666Y0067310D02*
X0121666Y0068326D01*
X0124968Y0069850D02*
X0124006Y0069850D01*
X0124006Y0069850D02*
X0123190Y0069034D01*
X0102616Y0065786D02*
X0101346Y0065786D01*
X0103886Y0067056D02*
X0103886Y0065786D01*
X0101346Y0067056D02*
X0102616Y0067056D01*
X0101673Y0067056D02*
X0101346Y0067056D01*
X0101346Y0067056D02*
X0099822Y0067056D01*
X0102616Y0070104D02*
X0102616Y0067999D01*
X0102616Y0067999D02*
X0101673Y0067056D01*
X0103124Y0055118D02*
X0102108Y0055118D01*
X0102108Y0054102D02*
X0103124Y0054102D01*
X0101092Y0053086D02*
X0101092Y0054102D01*
X0103124Y0053086D02*
X0102108Y0053086D01*
D14*
X0121158Y0058928D02*
X0108204Y0058928D01*
X0108204Y0058928D02*
X0107442Y0058166D01*
X0124460Y0055626D02*
X0121158Y0058928D01*
D26*
X0097536Y0058166D02*
X0104902Y0058166D01*
X0104902Y0058166D02*
X0107442Y0060706D01*
D15*
G36*
X0111071Y0079683D02*
X0110977Y0079542D01*
X0110944Y0079375D01*
X0110944Y0075565D01*
X0110977Y0075398D01*
X0111071Y0075257D01*
X0111187Y0075180D01*
X0111084Y0075111D01*
X0110989Y0074970D01*
X0110956Y0074803D01*
X0110956Y0070993D01*
X0110989Y0070826D01*
X0111084Y0070685D01*
X0111225Y0070591D01*
X0111392Y0070558D01*
X0115202Y0070558D01*
X0115368Y0070591D01*
X0115510Y0070685D01*
X0115604Y0070826D01*
X0115637Y0070993D01*
X0115637Y0074803D01*
X0115604Y0074970D01*
X0115510Y0075111D01*
X0115394Y0075188D01*
X0115497Y0075257D01*
X0115591Y0075398D01*
X0115624Y0075565D01*
X0115624Y0079375D01*
X0115591Y0079542D01*
X0115497Y0079683D01*
X0115378Y0079762D01*
X0116270Y0079762D01*
X0116151Y0079683D01*
X0116057Y0079542D01*
X0116024Y0079375D01*
X0116024Y0075565D01*
X0116057Y0075398D01*
X0116151Y0075257D01*
X0116267Y0075180D01*
X0116164Y0075111D01*
X0116069Y0074970D01*
X0116036Y0074803D01*
X0116036Y0070993D01*
X0116069Y0070826D01*
X0116164Y0070685D01*
X0116305Y0070591D01*
X0116472Y0070558D01*
X0120282Y0070558D01*
X0120448Y0070591D01*
X0120590Y0070685D01*
X0120684Y0070826D01*
X0120717Y0070993D01*
X0120717Y0074621D01*
X0121602Y0074621D01*
X0122229Y0073103D01*
X0123389Y0071941D01*
X0124905Y0071312D01*
X0126547Y0071310D01*
X0128065Y0071937D01*
X0129227Y0073097D01*
X0129856Y0074613D01*
X0129858Y0076255D01*
X0129231Y0077773D01*
X0128071Y0078935D01*
X0126555Y0079564D01*
X0124913Y0079566D01*
X0123395Y0078939D01*
X0122233Y0077779D01*
X0121604Y0076263D01*
X0121602Y0074621D01*
X0120717Y0074621D01*
X0120717Y0074803D01*
X0120684Y0074970D01*
X0120590Y0075111D01*
X0120474Y0075188D01*
X0120577Y0075257D01*
X0120671Y0075398D01*
X0120704Y0075565D01*
X0120704Y0079375D01*
X0120671Y0079542D01*
X0120577Y0079683D01*
X0120458Y0079762D01*
X0130054Y0079762D01*
X0130054Y0040634D01*
X0090926Y0040634D01*
X0090926Y0044141D01*
X0091122Y0044141D01*
X0091749Y0042623D01*
X0092909Y0041461D01*
X0094425Y0040832D01*
X0096067Y0040830D01*
X0097585Y0041457D01*
X0098747Y0042617D01*
X0099376Y0044133D01*
X0099378Y0045775D01*
X0098790Y0047197D01*
X0105102Y0047197D01*
X0105102Y0043387D01*
X0105135Y0043220D01*
X0105229Y0043079D01*
X0105370Y0042985D01*
X0105537Y0042952D01*
X0109347Y0042952D01*
X0109514Y0042985D01*
X0109655Y0043079D01*
X0109749Y0043220D01*
X0109782Y0043387D01*
X0109782Y0044141D01*
X0121602Y0044141D01*
X0122229Y0042623D01*
X0123389Y0041461D01*
X0124905Y0040832D01*
X0126547Y0040830D01*
X0128065Y0041457D01*
X0129227Y0042617D01*
X0129856Y0044133D01*
X0129858Y0045775D01*
X0129231Y0047293D01*
X0128071Y0048455D01*
X0126555Y0049084D01*
X0124913Y0049086D01*
X0123395Y0048459D01*
X0122233Y0047299D01*
X0121604Y0045783D01*
X0121602Y0044141D01*
X0109782Y0044141D01*
X0109782Y0047197D01*
X0109749Y0047364D01*
X0109655Y0047505D01*
X0109514Y0047599D01*
X0109347Y0047632D01*
X0105537Y0047632D01*
X0105370Y0047599D01*
X0105229Y0047505D01*
X0105135Y0047364D01*
X0105102Y0047197D01*
X0098790Y0047197D01*
X0098751Y0047293D01*
X0097591Y0048455D01*
X0096075Y0049084D01*
X0094433Y0049086D01*
X0092915Y0048459D01*
X0091753Y0047299D01*
X0091124Y0045783D01*
X0091122Y0044141D01*
X0090926Y0044141D01*
X0090926Y0052197D01*
X0105102Y0052197D01*
X0105102Y0048387D01*
X0105135Y0048220D01*
X0105229Y0048079D01*
X0105370Y0047985D01*
X0105537Y0047952D01*
X0109347Y0047952D01*
X0109514Y0047985D01*
X0109655Y0048079D01*
X0109749Y0048220D01*
X0109782Y0048387D01*
X0109782Y0052197D01*
X0109749Y0052364D01*
X0109655Y0052505D01*
X0109514Y0052599D01*
X0109347Y0052632D01*
X0105537Y0052632D01*
X0105370Y0052599D01*
X0105229Y0052505D01*
X0105135Y0052364D01*
X0105102Y0052197D01*
X0090926Y0052197D01*
X0090926Y0054512D01*
X0093759Y0054512D01*
X0094029Y0053859D01*
X0094528Y0053358D01*
X0095181Y0053087D01*
X0095888Y0053087D01*
X0096541Y0053357D01*
X0097042Y0053856D01*
X0097313Y0054509D01*
X0097313Y0054991D01*
X0112976Y0054991D01*
X0112976Y0051181D01*
X0113009Y0051014D01*
X0113103Y0050873D01*
X0113244Y0050779D01*
X0113411Y0050746D01*
X0117221Y0050746D01*
X0117388Y0050779D01*
X0117529Y0050873D01*
X0117623Y0051014D01*
X0117656Y0051181D01*
X0117656Y0051891D01*
X0117976Y0051891D01*
X0117976Y0048081D01*
X0118009Y0047914D01*
X0118103Y0047773D01*
X0118244Y0047679D01*
X0118411Y0047646D01*
X0122221Y0047646D01*
X0122388Y0047679D01*
X0122529Y0047773D01*
X0122623Y0047914D01*
X0122656Y0048081D01*
X0122656Y0051891D01*
X0122623Y0052058D01*
X0122529Y0052199D01*
X0122388Y0052293D01*
X0122221Y0052326D01*
X0118411Y0052326D01*
X0118244Y0052293D01*
X0118103Y0052199D01*
X0118009Y0052058D01*
X0117976Y0051891D01*
X0117656Y0051891D01*
X0117656Y0054991D01*
X0117631Y0055118D01*
X0120723Y0055118D01*
X0120723Y0053594D01*
X0120756Y0053427D01*
X0120850Y0053286D01*
X0120991Y0053192D01*
X0121158Y0053159D01*
X0122682Y0053159D01*
X0122849Y0053192D01*
X0122990Y0053286D01*
X0123084Y0053427D01*
X0123117Y0053594D01*
X0123117Y0055118D01*
X0123084Y0055285D01*
X0122990Y0055426D01*
X0122849Y0055520D01*
X0122682Y0055553D01*
X0121158Y0055553D01*
X0120991Y0055520D01*
X0120850Y0055426D01*
X0120756Y0055285D01*
X0120723Y0055118D01*
X0117631Y0055118D01*
X0117623Y0055158D01*
X0117529Y0055299D01*
X0117388Y0055393D01*
X0117221Y0055426D01*
X0113411Y0055426D01*
X0113244Y0055393D01*
X0113103Y0055299D01*
X0113009Y0055158D01*
X0112976Y0054991D01*
X0097313Y0054991D01*
X0097313Y0055216D01*
X0097043Y0055869D01*
X0096544Y0056370D01*
X0095891Y0056641D01*
X0095184Y0056641D01*
X0094531Y0056371D01*
X0094030Y0055872D01*
X0093759Y0055219D01*
X0093759Y0054512D01*
X0090926Y0054512D01*
X0090926Y0058002D01*
X0096709Y0058002D01*
X0096834Y0057698D01*
X0097067Y0057465D01*
X0097371Y0057339D01*
X0097700Y0057339D01*
X0097942Y0057439D01*
X0104902Y0057439D01*
X0104902Y0057439D01*
X0105134Y0057485D01*
X0105180Y0057494D01*
X0105416Y0057652D01*
X0106658Y0058894D01*
X0106447Y0058578D01*
X0106365Y0058166D01*
X0106447Y0057754D01*
X0106680Y0057404D01*
X0107030Y0057171D01*
X0107442Y0057089D01*
X0107854Y0057171D01*
X0108204Y0057404D01*
X0108650Y0057851D01*
X0120712Y0057851D01*
X0123698Y0054864D01*
X0124048Y0054631D01*
X0124460Y0054549D01*
X0124872Y0054631D01*
X0125222Y0054864D01*
X0125455Y0055214D01*
X0125537Y0055626D01*
X0125455Y0056038D01*
X0125222Y0056388D01*
X0121920Y0059690D01*
X0121570Y0059923D01*
X0121158Y0060005D01*
X0108204Y0060005D01*
X0107792Y0059923D01*
X0107476Y0059712D01*
X0107669Y0059905D01*
X0107910Y0060004D01*
X0108143Y0060237D01*
X0108269Y0060541D01*
X0108269Y0060870D01*
X0108144Y0061174D01*
X0107911Y0061407D01*
X0107607Y0061533D01*
X0107278Y0061533D01*
X0106974Y0061408D01*
X0106741Y0061175D01*
X0106641Y0060933D01*
X0104601Y0058893D01*
X0097942Y0058893D01*
X0097701Y0058993D01*
X0097372Y0058993D01*
X0097068Y0058868D01*
X0096835Y0058635D01*
X0096709Y0058331D01*
X0096709Y0058002D01*
X0090926Y0058002D01*
X0090926Y0074621D01*
X0091122Y0074621D01*
X0091749Y0073103D01*
X0092909Y0071941D01*
X0094425Y0071312D01*
X0096067Y0071310D01*
X0097585Y0071937D01*
X0097657Y0072009D01*
X0105356Y0072009D01*
X0105356Y0068199D01*
X0105389Y0068032D01*
X0105483Y0067891D01*
X0105624Y0067797D01*
X0105791Y0067764D01*
X0109601Y0067764D01*
X0109768Y0067797D01*
X0109909Y0067891D01*
X0110003Y0068032D01*
X0110036Y0068199D01*
X0110036Y0069723D01*
X0110944Y0069723D01*
X0110944Y0065913D01*
X0110977Y0065746D01*
X0111071Y0065605D01*
X0111187Y0065528D01*
X0111084Y0065459D01*
X0110989Y0065318D01*
X0110956Y0065151D01*
X0110956Y0061341D01*
X0110989Y0061174D01*
X0111084Y0061033D01*
X0111225Y0060939D01*
X0111392Y0060906D01*
X0115202Y0060906D01*
X0115368Y0060939D01*
X0115510Y0061033D01*
X0115604Y0061174D01*
X0115637Y0061341D01*
X0115637Y0065151D01*
X0115604Y0065318D01*
X0115510Y0065459D01*
X0115394Y0065536D01*
X0115497Y0065605D01*
X0115591Y0065746D01*
X0115624Y0065913D01*
X0115624Y0069723D01*
X0116024Y0069723D01*
X0116024Y0065913D01*
X0116057Y0065746D01*
X0116151Y0065605D01*
X0116267Y0065528D01*
X0116164Y0065459D01*
X0116069Y0065318D01*
X0116036Y0065151D01*
X0116036Y0061341D01*
X0116069Y0061174D01*
X0116164Y0061033D01*
X0116305Y0060939D01*
X0116472Y0060906D01*
X0120282Y0060906D01*
X0120448Y0060939D01*
X0120590Y0061033D01*
X0120684Y0061174D01*
X0120717Y0061341D01*
X0120717Y0065151D01*
X0120684Y0065318D01*
X0120590Y0065459D01*
X0120480Y0065532D01*
X0123771Y0065532D01*
X0123771Y0064008D01*
X0123804Y0063841D01*
X0123898Y0063700D01*
X0124039Y0063606D01*
X0124206Y0063573D01*
X0125730Y0063573D01*
X0125897Y0063606D01*
X0126038Y0063700D01*
X0126132Y0063841D01*
X0126165Y0064008D01*
X0126165Y0065532D01*
X0126311Y0065532D01*
X0126311Y0064008D01*
X0126344Y0063841D01*
X0126438Y0063700D01*
X0126579Y0063606D01*
X0126746Y0063573D01*
X0128270Y0063573D01*
X0128437Y0063606D01*
X0128578Y0063700D01*
X0128672Y0063841D01*
X0128705Y0064008D01*
X0128705Y0065532D01*
X0128672Y0065699D01*
X0128578Y0065840D01*
X0128437Y0065934D01*
X0128270Y0065967D01*
X0126746Y0065967D01*
X0126579Y0065934D01*
X0126438Y0065840D01*
X0126344Y0065699D01*
X0126311Y0065532D01*
X0126165Y0065532D01*
X0126132Y0065699D01*
X0126038Y0065840D01*
X0125897Y0065934D01*
X0125730Y0065967D01*
X0124206Y0065967D01*
X0124039Y0065934D01*
X0123898Y0065840D01*
X0123804Y0065699D01*
X0123771Y0065532D01*
X0120480Y0065532D01*
X0120474Y0065536D01*
X0120577Y0065605D01*
X0120671Y0065746D01*
X0120704Y0065913D01*
X0120704Y0068072D01*
X0123771Y0068072D01*
X0123771Y0066548D01*
X0123804Y0066381D01*
X0123898Y0066240D01*
X0124039Y0066146D01*
X0124206Y0066113D01*
X0125730Y0066113D01*
X0125897Y0066146D01*
X0126038Y0066240D01*
X0126132Y0066381D01*
X0126165Y0066548D01*
X0126165Y0068072D01*
X0126311Y0068072D01*
X0126311Y0066548D01*
X0126344Y0066381D01*
X0126438Y0066240D01*
X0126579Y0066146D01*
X0126746Y0066113D01*
X0128270Y0066113D01*
X0128437Y0066146D01*
X0128578Y0066240D01*
X0128672Y0066381D01*
X0128705Y0066548D01*
X0128705Y0068072D01*
X0128672Y0068239D01*
X0128578Y0068380D01*
X0128437Y0068474D01*
X0128270Y0068507D01*
X0126746Y0068507D01*
X0126579Y0068474D01*
X0126438Y0068380D01*
X0126344Y0068239D01*
X0126311Y0068072D01*
X0126165Y0068072D01*
X0126132Y0068239D01*
X0126038Y0068380D01*
X0125897Y0068474D01*
X0125730Y0068507D01*
X0124206Y0068507D01*
X0124039Y0068474D01*
X0123898Y0068380D01*
X0123804Y0068239D01*
X0123771Y0068072D01*
X0120704Y0068072D01*
X0120704Y0069723D01*
X0120671Y0069890D01*
X0120577Y0070031D01*
X0120436Y0070125D01*
X0120269Y0070158D01*
X0116459Y0070158D01*
X0116292Y0070125D01*
X0116151Y0070031D01*
X0116057Y0069890D01*
X0116024Y0069723D01*
X0115624Y0069723D01*
X0115591Y0069890D01*
X0115497Y0070031D01*
X0115356Y0070125D01*
X0115189Y0070158D01*
X0111379Y0070158D01*
X0111212Y0070125D01*
X0111071Y0070031D01*
X0110977Y0069890D01*
X0110944Y0069723D01*
X0110036Y0069723D01*
X0110036Y0072009D01*
X0110003Y0072176D01*
X0109909Y0072317D01*
X0109768Y0072411D01*
X0109601Y0072444D01*
X0105791Y0072444D01*
X0105624Y0072411D01*
X0105483Y0072317D01*
X0105389Y0072176D01*
X0105356Y0072009D01*
X0097657Y0072009D01*
X0098747Y0073097D01*
X0099376Y0074613D01*
X0099378Y0076255D01*
X0099066Y0077009D01*
X0105356Y0077009D01*
X0105356Y0073199D01*
X0105389Y0073032D01*
X0105483Y0072891D01*
X0105624Y0072797D01*
X0105791Y0072764D01*
X0109601Y0072764D01*
X0109768Y0072797D01*
X0109909Y0072891D01*
X0110003Y0073032D01*
X0110036Y0073199D01*
X0110036Y0077009D01*
X0110003Y0077176D01*
X0109909Y0077317D01*
X0109768Y0077411D01*
X0109601Y0077444D01*
X0105791Y0077444D01*
X0105624Y0077411D01*
X0105483Y0077317D01*
X0105389Y0077176D01*
X0105356Y0077009D01*
X0099066Y0077009D01*
X0098751Y0077773D01*
X0097591Y0078935D01*
X0096075Y0079564D01*
X0094433Y0079566D01*
X0092915Y0078939D01*
X0091753Y0077779D01*
X0091124Y0076263D01*
X0091122Y0074621D01*
X0090926Y0074621D01*
X0090926Y0079762D01*
X0111190Y0079762D01*
X0111071Y0079683D01*
X0111071Y0079683D01*
G37*
X0111071Y0079683D02*
X0110977Y0079542D01*
X0110944Y0079375D01*
X0110944Y0075565D01*
X0110977Y0075398D01*
X0111071Y0075257D01*
X0111187Y0075180D01*
X0111084Y0075111D01*
X0110989Y0074970D01*
X0110956Y0074803D01*
X0110956Y0070993D01*
X0110989Y0070826D01*
X0111084Y0070685D01*
X0111225Y0070591D01*
X0111392Y0070558D01*
X0115202Y0070558D01*
X0115368Y0070591D01*
X0115510Y0070685D01*
X0115604Y0070826D01*
X0115637Y0070993D01*
X0115637Y0074803D01*
X0115604Y0074970D01*
X0115510Y0075111D01*
X0115394Y0075188D01*
X0115497Y0075257D01*
X0115591Y0075398D01*
X0115624Y0075565D01*
X0115624Y0079375D01*
X0115591Y0079542D01*
X0115497Y0079683D01*
X0115378Y0079762D01*
X0116270Y0079762D01*
X0116151Y0079683D01*
X0116057Y0079542D01*
X0116024Y0079375D01*
X0116024Y0075565D01*
X0116057Y0075398D01*
X0116151Y0075257D01*
X0116267Y0075180D01*
X0116164Y0075111D01*
X0116069Y0074970D01*
X0116036Y0074803D01*
X0116036Y0070993D01*
X0116069Y0070826D01*
X0116164Y0070685D01*
X0116305Y0070591D01*
X0116472Y0070558D01*
X0120282Y0070558D01*
X0120448Y0070591D01*
X0120590Y0070685D01*
X0120684Y0070826D01*
X0120717Y0070993D01*
X0120717Y0074621D01*
X0121602Y0074621D01*
X0122229Y0073103D01*
X0123389Y0071941D01*
X0124905Y0071312D01*
X0126547Y0071310D01*
X0128065Y0071937D01*
X0129227Y0073097D01*
X0129856Y0074613D01*
X0129858Y0076255D01*
X0129231Y0077773D01*
X0128071Y0078935D01*
X0126555Y0079564D01*
X0124913Y0079566D01*
X0123395Y0078939D01*
X0122233Y0077779D01*
X0121604Y0076263D01*
X0121602Y0074621D01*
X0120717Y0074621D01*
X0120717Y0074803D01*
X0120684Y0074970D01*
X0120590Y0075111D01*
X0120474Y0075188D01*
X0120577Y0075257D01*
X0120671Y0075398D01*
X0120704Y0075565D01*
X0120704Y0079375D01*
X0120671Y0079542D01*
X0120577Y0079683D01*
X0120458Y0079762D01*
X0130054Y0079762D01*
X0130054Y0040634D01*
X0090926Y0040634D01*
X0090926Y0044141D01*
X0091122Y0044141D01*
X0091749Y0042623D01*
X0092909Y0041461D01*
X0094425Y0040832D01*
X0096067Y0040830D01*
X0097585Y0041457D01*
X0098747Y0042617D01*
X0099376Y0044133D01*
X0099378Y0045775D01*
X0098790Y0047197D01*
X0105102Y0047197D01*
X0105102Y0043387D01*
X0105135Y0043220D01*
X0105229Y0043079D01*
X0105370Y0042985D01*
X0105537Y0042952D01*
X0109347Y0042952D01*
X0109514Y0042985D01*
X0109655Y0043079D01*
X0109749Y0043220D01*
X0109782Y0043387D01*
X0109782Y0044141D01*
X0121602Y0044141D01*
X0122229Y0042623D01*
X0123389Y0041461D01*
X0124905Y0040832D01*
X0126547Y0040830D01*
X0128065Y0041457D01*
X0129227Y0042617D01*
X0129856Y0044133D01*
X0129858Y0045775D01*
X0129231Y0047293D01*
X0128071Y0048455D01*
X0126555Y0049084D01*
X0124913Y0049086D01*
X0123395Y0048459D01*
X0122233Y0047299D01*
X0121604Y0045783D01*
X0121602Y0044141D01*
X0109782Y0044141D01*
X0109782Y0047197D01*
X0109749Y0047364D01*
X0109655Y0047505D01*
X0109514Y0047599D01*
X0109347Y0047632D01*
X0105537Y0047632D01*
X0105370Y0047599D01*
X0105229Y0047505D01*
X0105135Y0047364D01*
X0105102Y0047197D01*
X0098790Y0047197D01*
X0098751Y0047293D01*
X0097591Y0048455D01*
X0096075Y0049084D01*
X0094433Y0049086D01*
X0092915Y0048459D01*
X0091753Y0047299D01*
X0091124Y0045783D01*
X0091122Y0044141D01*
X0090926Y0044141D01*
X0090926Y0052197D01*
X0105102Y0052197D01*
X0105102Y0048387D01*
X0105135Y0048220D01*
X0105229Y0048079D01*
X0105370Y0047985D01*
X0105537Y0047952D01*
X0109347Y0047952D01*
X0109514Y0047985D01*
X0109655Y0048079D01*
X0109749Y0048220D01*
X0109782Y0048387D01*
X0109782Y0052197D01*
X0109749Y0052364D01*
X0109655Y0052505D01*
X0109514Y0052599D01*
X0109347Y0052632D01*
X0105537Y0052632D01*
X0105370Y0052599D01*
X0105229Y0052505D01*
X0105135Y0052364D01*
X0105102Y0052197D01*
X0090926Y0052197D01*
X0090926Y0054512D01*
X0093759Y0054512D01*
X0094029Y0053859D01*
X0094528Y0053358D01*
X0095181Y0053087D01*
X0095888Y0053087D01*
X0096541Y0053357D01*
X0097042Y0053856D01*
X0097313Y0054509D01*
X0097313Y0054991D01*
X0112976Y0054991D01*
X0112976Y0051181D01*
X0113009Y0051014D01*
X0113103Y0050873D01*
X0113244Y0050779D01*
X0113411Y0050746D01*
X0117221Y0050746D01*
X0117388Y0050779D01*
X0117529Y0050873D01*
X0117623Y0051014D01*
X0117656Y0051181D01*
X0117656Y0051891D01*
X0117976Y0051891D01*
X0117976Y0048081D01*
X0118009Y0047914D01*
X0118103Y0047773D01*
X0118244Y0047679D01*
X0118411Y0047646D01*
X0122221Y0047646D01*
X0122388Y0047679D01*
X0122529Y0047773D01*
X0122623Y0047914D01*
X0122656Y0048081D01*
X0122656Y0051891D01*
X0122623Y0052058D01*
X0122529Y0052199D01*
X0122388Y0052293D01*
X0122221Y0052326D01*
X0118411Y0052326D01*
X0118244Y0052293D01*
X0118103Y0052199D01*
X0118009Y0052058D01*
X0117976Y0051891D01*
X0117656Y0051891D01*
X0117656Y0054991D01*
X0117631Y0055118D01*
X0120723Y0055118D01*
X0120723Y0053594D01*
X0120756Y0053427D01*
X0120850Y0053286D01*
X0120991Y0053192D01*
X0121158Y0053159D01*
X0122682Y0053159D01*
X0122849Y0053192D01*
X0122990Y0053286D01*
X0123084Y0053427D01*
X0123117Y0053594D01*
X0123117Y0055118D01*
X0123084Y0055285D01*
X0122990Y0055426D01*
X0122849Y0055520D01*
X0122682Y0055553D01*
X0121158Y0055553D01*
X0120991Y0055520D01*
X0120850Y0055426D01*
X0120756Y0055285D01*
X0120723Y0055118D01*
X0117631Y0055118D01*
X0117623Y0055158D01*
X0117529Y0055299D01*
X0117388Y0055393D01*
X0117221Y0055426D01*
X0113411Y0055426D01*
X0113244Y0055393D01*
X0113103Y0055299D01*
X0113009Y0055158D01*
X0112976Y0054991D01*
X0097313Y0054991D01*
X0097313Y0055216D01*
X0097043Y0055869D01*
X0096544Y0056370D01*
X0095891Y0056641D01*
X0095184Y0056641D01*
X0094531Y0056371D01*
X0094030Y0055872D01*
X0093759Y0055219D01*
X0093759Y0054512D01*
X0090926Y0054512D01*
X0090926Y0058002D01*
X0096709Y0058002D01*
X0096834Y0057698D01*
X0097067Y0057465D01*
X0097371Y0057339D01*
X0097700Y0057339D01*
X0097942Y0057439D01*
X0104902Y0057439D01*
X0104902Y0057439D01*
X0105134Y0057485D01*
X0105180Y0057494D01*
X0105416Y0057652D01*
X0106658Y0058894D01*
X0106447Y0058578D01*
X0106365Y0058166D01*
X0106447Y0057754D01*
X0106680Y0057404D01*
X0107030Y0057171D01*
X0107442Y0057089D01*
X0107854Y0057171D01*
X0108204Y0057404D01*
X0108650Y0057851D01*
X0120712Y0057851D01*
X0123698Y0054864D01*
X0124048Y0054631D01*
X0124460Y0054549D01*
X0124872Y0054631D01*
X0125222Y0054864D01*
X0125455Y0055214D01*
X0125537Y0055626D01*
X0125455Y0056038D01*
X0125222Y0056388D01*
X0121920Y0059690D01*
X0121570Y0059923D01*
X0121158Y0060005D01*
X0108204Y0060005D01*
X0107792Y0059923D01*
X0107476Y0059712D01*
X0107669Y0059905D01*
X0107910Y0060004D01*
X0108143Y0060237D01*
X0108269Y0060541D01*
X0108269Y0060870D01*
X0108144Y0061174D01*
X0107911Y0061407D01*
X0107607Y0061533D01*
X0107278Y0061533D01*
X0106974Y0061408D01*
X0106741Y0061175D01*
X0106641Y0060933D01*
X0104601Y0058893D01*
X0097942Y0058893D01*
X0097701Y0058993D01*
X0097372Y0058993D01*
X0097068Y0058868D01*
X0096835Y0058635D01*
X0096709Y0058331D01*
X0096709Y0058002D01*
X0090926Y0058002D01*
X0090926Y0074621D01*
X0091122Y0074621D01*
X0091749Y0073103D01*
X0092909Y0071941D01*
X0094425Y0071312D01*
X0096067Y0071310D01*
X0097585Y0071937D01*
X0097657Y0072009D01*
X0105356Y0072009D01*
X0105356Y0068199D01*
X0105389Y0068032D01*
X0105483Y0067891D01*
X0105624Y0067797D01*
X0105791Y0067764D01*
X0109601Y0067764D01*
X0109768Y0067797D01*
X0109909Y0067891D01*
X0110003Y0068032D01*
X0110036Y0068199D01*
X0110036Y0069723D01*
X0110944Y0069723D01*
X0110944Y0065913D01*
X0110977Y0065746D01*
X0111071Y0065605D01*
X0111187Y0065528D01*
X0111084Y0065459D01*
X0110989Y0065318D01*
X0110956Y0065151D01*
X0110956Y0061341D01*
X0110989Y0061174D01*
X0111084Y0061033D01*
X0111225Y0060939D01*
X0111392Y0060906D01*
X0115202Y0060906D01*
X0115368Y0060939D01*
X0115510Y0061033D01*
X0115604Y0061174D01*
X0115637Y0061341D01*
X0115637Y0065151D01*
X0115604Y0065318D01*
X0115510Y0065459D01*
X0115394Y0065536D01*
X0115497Y0065605D01*
X0115591Y0065746D01*
X0115624Y0065913D01*
X0115624Y0069723D01*
X0116024Y0069723D01*
X0116024Y0065913D01*
X0116057Y0065746D01*
X0116151Y0065605D01*
X0116267Y0065528D01*
X0116164Y0065459D01*
X0116069Y0065318D01*
X0116036Y0065151D01*
X0116036Y0061341D01*
X0116069Y0061174D01*
X0116164Y0061033D01*
X0116305Y0060939D01*
X0116472Y0060906D01*
X0120282Y0060906D01*
X0120448Y0060939D01*
X0120590Y0061033D01*
X0120684Y0061174D01*
X0120717Y0061341D01*
X0120717Y0065151D01*
X0120684Y0065318D01*
X0120590Y0065459D01*
X0120480Y0065532D01*
X0123771Y0065532D01*
X0123771Y0064008D01*
X0123804Y0063841D01*
X0123898Y0063700D01*
X0124039Y0063606D01*
X0124206Y0063573D01*
X0125730Y0063573D01*
X0125897Y0063606D01*
X0126038Y0063700D01*
X0126132Y0063841D01*
X0126165Y0064008D01*
X0126165Y0065532D01*
X0126311Y0065532D01*
X0126311Y0064008D01*
X0126344Y0063841D01*
X0126438Y0063700D01*
X0126579Y0063606D01*
X0126746Y0063573D01*
X0128270Y0063573D01*
X0128437Y0063606D01*
X0128578Y0063700D01*
X0128672Y0063841D01*
X0128705Y0064008D01*
X0128705Y0065532D01*
X0128672Y0065699D01*
X0128578Y0065840D01*
X0128437Y0065934D01*
X0128270Y0065967D01*
X0126746Y0065967D01*
X0126579Y0065934D01*
X0126438Y0065840D01*
X0126344Y0065699D01*
X0126311Y0065532D01*
X0126165Y0065532D01*
X0126132Y0065699D01*
X0126038Y0065840D01*
X0125897Y0065934D01*
X0125730Y0065967D01*
X0124206Y0065967D01*
X0124039Y0065934D01*
X0123898Y0065840D01*
X0123804Y0065699D01*
X0123771Y0065532D01*
X0120480Y0065532D01*
X0120474Y0065536D01*
X0120577Y0065605D01*
X0120671Y0065746D01*
X0120704Y0065913D01*
X0120704Y0068072D01*
X0123771Y0068072D01*
X0123771Y0066548D01*
X0123804Y0066381D01*
X0123898Y0066240D01*
X0124039Y0066146D01*
X0124206Y0066113D01*
X0125730Y0066113D01*
X0125897Y0066146D01*
X0126038Y0066240D01*
X0126132Y0066381D01*
X0126165Y0066548D01*
X0126165Y0068072D01*
X0126311Y0068072D01*
X0126311Y0066548D01*
X0126344Y0066381D01*
X0126438Y0066240D01*
X0126579Y0066146D01*
X0126746Y0066113D01*
X0128270Y0066113D01*
X0128437Y0066146D01*
X0128578Y0066240D01*
X0128672Y0066381D01*
X0128705Y0066548D01*
X0128705Y0068072D01*
X0128672Y0068239D01*
X0128578Y0068380D01*
X0128437Y0068474D01*
X0128270Y0068507D01*
X0126746Y0068507D01*
X0126579Y0068474D01*
X0126438Y0068380D01*
X0126344Y0068239D01*
X0126311Y0068072D01*
X0126165Y0068072D01*
X0126132Y0068239D01*
X0126038Y0068380D01*
X0125897Y0068474D01*
X0125730Y0068507D01*
X0124206Y0068507D01*
X0124039Y0068474D01*
X0123898Y0068380D01*
X0123804Y0068239D01*
X0123771Y0068072D01*
X0120704Y0068072D01*
X0120704Y0069723D01*
X0120671Y0069890D01*
X0120577Y0070031D01*
X0120436Y0070125D01*
X0120269Y0070158D01*
X0116459Y0070158D01*
X0116292Y0070125D01*
X0116151Y0070031D01*
X0116057Y0069890D01*
X0116024Y0069723D01*
X0115624Y0069723D01*
X0115591Y0069890D01*
X0115497Y0070031D01*
X0115356Y0070125D01*
X0115189Y0070158D01*
X0111379Y0070158D01*
X0111212Y0070125D01*
X0111071Y0070031D01*
X0110977Y0069890D01*
X0110944Y0069723D01*
X0110036Y0069723D01*
X0110036Y0072009D01*
X0110003Y0072176D01*
X0109909Y0072317D01*
X0109768Y0072411D01*
X0109601Y0072444D01*
X0105791Y0072444D01*
X0105624Y0072411D01*
X0105483Y0072317D01*
X0105389Y0072176D01*
X0105356Y0072009D01*
X0097657Y0072009D01*
X0098747Y0073097D01*
X0099376Y0074613D01*
X0099378Y0076255D01*
X0099066Y0077009D01*
X0105356Y0077009D01*
X0105356Y0073199D01*
X0105389Y0073032D01*
X0105483Y0072891D01*
X0105624Y0072797D01*
X0105791Y0072764D01*
X0109601Y0072764D01*
X0109768Y0072797D01*
X0109909Y0072891D01*
X0110003Y0073032D01*
X0110036Y0073199D01*
X0110036Y0077009D01*
X0110003Y0077176D01*
X0109909Y0077317D01*
X0109768Y0077411D01*
X0109601Y0077444D01*
X0105791Y0077444D01*
X0105624Y0077411D01*
X0105483Y0077317D01*
X0105389Y0077176D01*
X0105356Y0077009D01*
X0099066Y0077009D01*
X0098751Y0077773D01*
X0097591Y0078935D01*
X0096075Y0079564D01*
X0094433Y0079566D01*
X0092915Y0078939D01*
X0091753Y0077779D01*
X0091124Y0076263D01*
X0091122Y0074621D01*
X0090926Y0074621D01*
X0090926Y0079762D01*
X0111190Y0079762D01*
X0111071Y0079683D01*
M02*
