M48
METRIC,000.000             
%
T01C0.400000
X8382Y19050
X8509Y32131
X9652Y19558
X10033Y32131
X10160Y18834
X10795Y19558
X13081Y13208
X13462Y24511
X13462Y17018
X13970Y27940
X14351Y13208
X15113Y27432
X15621Y13208
X16383Y28067
X16764Y19050
X16764Y13208
X17526Y20320
X17780Y19050
X17780Y13208
X19050Y18923
X19304Y20320
X20320Y19431
X20955Y20320
X21336Y18034
X23876Y27940
X27940Y26670
X29210Y26670
X29845Y20320
X29845Y19050
X29845Y17780
X30353Y26670
X30988Y17526
X32258Y17526
X32893Y28194
X33528Y17526
X33782Y27305
X36068Y28702
X36068Y16256
X37068Y25019
X37719Y11176
X37719Y10160
X37846Y18542
X37846Y17653
X37973Y25019
X38100Y26416
X38316Y22446
X38734Y20320
X38862Y11176
X38862Y10160
X39751Y26416
X40005Y11176
X40005Y10160
X40386Y32258
X40894Y22352
X41402Y32131
X41783Y26416
X42418Y32131
X43561Y32131
X45974Y22098
X46863Y26543
X47625Y25654
X48006Y32258
X48006Y31242
X48006Y30226
X48006Y26670
X48641Y25781
X48768Y18542
X48895Y29845
X49657Y21336
X49784Y29083
X49911Y12446
X50673Y28194
X50800Y21336
X51308Y12573
X52578Y12573
X53848Y12573
X8382Y59182
X8509Y72263
X9652Y59690
X10033Y72263
X10160Y58966
X10795Y59690
X13081Y53340
X13462Y64643
X13462Y57150
X13970Y68072
X14351Y53340
X15113Y67564
X15621Y53340
X16383Y68199
X16764Y59182
X16764Y53340
X17526Y60452
X17780Y59182
X17780Y53340
X19050Y59055
X19304Y60452
X20320Y59563
X20955Y60452
X21336Y58166
X23876Y68072
X27940Y66802
X29210Y66802
X29845Y60452
X29845Y59182
X29845Y57912
X30353Y66802
X30988Y57658
X32258Y57658
X32893Y68326
X33528Y57658
X33782Y67437
X36068Y68834
X36068Y56388
X37068Y65151
X37719Y51308
X37719Y50292
X37846Y58674
X37846Y57785
X37973Y65151
X38100Y66548
X38316Y62578
X38734Y60452
X38862Y51308
X38862Y50292
X39751Y66548
X40005Y51308
X40005Y50292
X40386Y72390
X40894Y62484
X41402Y72263
X41783Y66548
X42418Y72263
X43561Y72263
X45974Y62230
X46863Y66675
X47625Y65786
X48006Y72390
X48006Y71374
X48006Y70358
X48006Y66802
X48641Y65913
X48768Y58674
X48895Y69977
X49657Y61468
X49784Y69215
X49911Y52578
X50673Y68326
X50800Y61468
X51308Y52705
X52578Y52705
X53848Y52705
X63500Y17145
X64770Y17272
X65024Y15875
X66929Y28194
X68326Y28194
X69469Y32131
X69977Y22606
X70993Y32131
X71374Y22606
X74549Y16129
X75819Y16129
X63500Y57277
X64770Y57404
X65024Y56007
X66929Y68326
X68326Y68326
X69469Y72263
X69977Y62738
X70993Y72263
X71374Y62738
X74549Y56261
X75819Y56261
X82931Y22352
X83693Y30480
X83693Y20066
X83693Y9652
X83947Y22352
X84709Y9652
X84963Y30480
X84963Y22352
X84963Y20066
X85725Y9652
X85979Y22352
X85979Y21082
X85979Y20066
X86233Y30480
X86741Y9652
X86995Y20066
X87503Y30480
X87757Y29464
X87757Y28448
X88011Y19304
X88011Y18288
X88011Y8890
X88265Y15494
X88773Y17526
X88773Y16510
X89027Y30480
X89027Y29464
X89027Y28448
X89027Y7366
X89535Y20036
X90043Y7366
X90551Y21844
X90551Y17496
X90551Y12700
X90551Y11938
X90805Y8636
X91059Y7366
X91313Y17272
X92329Y17272
X92710Y23241
X93345Y17272
X93345Y16256
X93345Y15240
X93980Y24511
X94107Y15748
X94869Y15748
X96647Y11430
X96647Y10414
X96647Y9398
X97155Y18796
X97158Y21087
X99060Y20701
X82931Y62484
X83693Y70612
X83693Y60198
X83693Y49784
X83947Y62484
X84709Y49784
X84963Y70612
X84963Y62484
X84963Y60198
X85725Y49784
X85979Y62484
X85979Y61214
X85979Y60198
X86233Y70612
X86741Y49784
X86995Y60198
X87503Y70612
X87757Y69596
X87757Y68580
X88011Y59436
X88011Y58420
X88011Y49022
X88265Y55626
X88773Y57658
X88773Y56642
X89027Y70612
X89027Y69596
X89027Y68580
X89027Y47498
X89535Y60168
X90043Y47498
X90551Y61976
X90551Y57628
X90551Y52832
X90551Y52070
X90805Y48768
X91059Y47498
X91313Y57404
X92329Y57404
X92710Y63373
X93345Y57404
X93345Y56388
X93345Y55372
X93980Y64643
X94107Y55880
X94869Y55880
X96647Y51562
X96647Y50546
X96647Y49530
X97155Y58928
X97158Y61219
X99060Y60833
T02C0.762000
X15026Y29631
X20026Y29631
X15026Y69763
X20026Y69763
T03C0.889000
X52578Y27178
X45466Y36576
X45466Y34036
X48006Y36576
X48006Y34036
X42926Y34036
X57658Y27178
X52578Y29718
X57658Y29718
X55118Y29718
X55118Y27178
X42926Y36576
X3556Y27686
X3556Y25146
X3556Y22606
X6096Y27686
X6096Y25146
X6096Y22606
X3556Y17526
X6096Y17526
X42926Y6096
X42926Y3556
X45466Y6096
X45466Y3556
X48006Y6096
X48006Y3556
X12446Y36576
X12446Y34036
X14986Y36576
X14986Y34036
X52578Y67310
X45466Y76708
X45466Y74168
X48006Y76708
X48006Y74168
X42926Y74168
X57658Y67310
X52578Y69850
X57658Y69850
X55118Y69850
X55118Y67310
X42926Y76708
X3556Y67818
X3556Y65278
X3556Y62738
X6096Y67818
X6096Y65278
X6096Y62738
X3556Y57658
X6096Y57658
X42926Y46228
X42926Y43688
X45466Y46228
X45466Y43688
X48006Y46228
X48006Y43688
X12446Y76708
X12446Y74168
X14986Y76708
X14986Y74168
X75184Y11684
X77724Y14224
X77724Y11684
X75184Y26670
X75184Y14224
X75184Y29210
X62103Y25146
X62103Y22606
X64643Y25146
X64643Y22606
X75184Y24130
X77724Y29210
X77724Y26670
X77724Y24130
X75184Y51816
X77724Y54356
X77724Y51816
X75184Y66802
X75184Y54356
X75184Y69342
X62103Y65278
X62103Y62738
X64643Y65278
X64643Y62738
X75184Y64262
X77724Y69342
X77724Y66802
X77724Y64262
X83820Y18796
X83820Y16256
X83820Y13716
X83820Y11176
X86360Y18796
X86360Y16256
X86360Y13716
X86360Y11176
X98425Y12446
X98425Y9906
X83820Y28956
X83820Y26416
X83820Y23876
X86360Y28956
X86360Y26416
X86360Y23876
X83820Y58928
X83820Y56388
X83820Y53848
X83820Y51308
X86360Y58928
X86360Y56388
X86360Y53848
X86360Y51308
X98425Y52578
X98425Y50038
X83820Y69088
X83820Y66548
X83820Y64008
X86360Y69088
X86360Y66548
X86360Y64008
T04C3.000000
X35306Y35306
X4826Y4826
X55626Y4826
X55626Y35306
X4826Y35306
X35306Y4826
X35306Y75438
X4826Y44958
X55626Y44958
X55626Y75438
X4826Y75438
X35306Y44958
X75438Y4826
X65278Y35306
X75438Y35306
X65278Y4826
X75438Y44958
X65278Y75438
X75438Y75438
X65278Y44958
X95250Y4826
X85090Y35306
X85090Y4826
X95250Y35306
X95250Y44958
X85090Y75438
X85090Y44958
X95250Y75438
M30
