G75*
G71*
%MOMM*%
%OFA0B0*%
%FSLAX53Y53*%
%IPPOS*%
%LPD*%
%ADD12C,1.50114*%
%ADD13C,0.30000*%
%ADD14C,1.52000*%
%ADD21C,0.25400*%
%ADD23C,0.50000*%
%ADD37C,0.80000*%
%ADD42R,1.67640X1.67640*%
%ADD52C,1.00000*%
%ADD55R,1.52400X1.52400*%
%ADD57C,2.70000*%
%ADD58C,6.00000*%
X0000000Y0000000D02*
%LPD*%
G01*
D37*
X0082804Y0025146D03*
X0082804Y0027686D03*
X0083058Y0045466D03*
X0083058Y0042926D03*
X0083058Y0040566D03*
X0056388Y0063754D03*
X0060960Y0063754D03*
X0062230Y0068580D03*
X0051308Y0069342D03*
X0049530Y0068580D03*
X0015748Y0008255D03*
X0015789Y0003941D03*
X0017821Y0003941D03*
X0022139Y0003941D03*
X0022139Y0009656D03*
X0017821Y0009656D03*
X0017821Y0008259D03*
X0022139Y0008259D03*
X0089408Y0016383D03*
X0089408Y0018923D03*
X0089408Y0021463D03*
X0089408Y0024003D03*
X0089408Y0026543D03*
X0089408Y0029083D03*
X0089408Y0031623D03*
X0089408Y0034163D03*
X0089408Y0036703D03*
X0089408Y0039243D03*
X0089408Y0041783D03*
X0089408Y0044323D03*
X0089408Y0046863D03*
X0089408Y0049403D03*
X0089408Y0051943D03*
X0089408Y0054483D03*
X0029972Y0004191D03*
X0032004Y0004191D03*
X0032004Y0007239D03*
X0029083Y0010033D03*
X0028702Y0013208D03*
X0034036Y0013208D03*
X0019050Y0061722D03*
X0016764Y0054102D03*
X0013716Y0054102D03*
X0013716Y0056642D03*
X0016764Y0056642D03*
X0021590Y0059182D03*
X0020320Y0056642D03*
X0017780Y0059182D03*
X0083058Y0061214D03*
X0080010Y0061214D03*
X0080010Y0058674D03*
X0083058Y0058674D03*
X0083058Y0056134D03*
X0080010Y0056134D03*
X0076454Y0009398D03*
X0076454Y0011938D03*
X0076454Y0014478D03*
X0079502Y0014478D03*
X0079502Y0011938D03*
X0083566Y0014478D03*
X0083566Y0011938D03*
X0083566Y0009398D03*
X0079502Y0009398D03*
X0073914Y0009398D03*
X0071374Y0009398D03*
X0055626Y0007366D03*
X0053086Y0007366D03*
X0050546Y0007366D03*
X0048006Y0007366D03*
X0045466Y0007366D03*
X0042926Y0007366D03*
X0044704Y0020320D03*
X0047244Y0022860D03*
X0051054Y0026670D03*
X0032766Y0054102D03*
X0032766Y0051562D03*
X0032766Y0044704D03*
X0035306Y0042164D03*
X0037846Y0039624D03*
X0046736Y0043434D03*
X0038862Y0043434D03*
X0041402Y0040894D03*
X0026416Y0062992D03*
X0028956Y0062992D03*
X0023876Y0061722D03*
X0023876Y0056642D03*
X0023876Y0059182D03*
X0032766Y0059182D03*
X0030226Y0059182D03*
X0027686Y0059182D03*
X0032766Y0056642D03*
X0030226Y0056642D03*
X0027686Y0056642D03*
X0007210Y0011746D03*
X0006050Y0014286D03*
X0006050Y0016826D03*
X0006050Y0019366D03*
X0006050Y0021906D03*
X0006050Y0024446D03*
X0006050Y0026986D03*
X0011850Y0014276D03*
X0011850Y0016816D03*
X0011850Y0026976D03*
X0011850Y0024436D03*
X0021250Y0013466D03*
X0017950Y0013466D03*
X0021250Y0016006D03*
X0017950Y0016816D03*
X0011850Y0021896D03*
X0011850Y0019356D03*
X0017950Y0023626D03*
X0021250Y0026166D03*
X0017950Y0026166D03*
X0021250Y0028706D03*
X0017950Y0028706D03*
X0021250Y0031246D03*
X0021250Y0033786D03*
X0017950Y0033786D03*
X0021250Y0036326D03*
X0017950Y0036326D03*
X0021250Y0038866D03*
X0017950Y0038866D03*
X0021250Y0041406D03*
X0017950Y0041406D03*
X0021250Y0049026D03*
X0021250Y0051566D03*
X0017950Y0051566D03*
X0045466Y0028194D03*
X0042926Y0028194D03*
X0049276Y0029464D03*
X0046736Y0029464D03*
X0044196Y0029464D03*
X0055350Y0035266D03*
X0059750Y0030966D03*
X0051150Y0030966D03*
X0059750Y0039566D03*
X0051150Y0039566D03*
X0068650Y0025166D03*
X0059650Y0022966D03*
X0079502Y0017018D03*
X0076454Y0017018D03*
X0079650Y0027866D03*
X0079650Y0025166D03*
X0074150Y0025166D03*
X0074150Y0027866D03*
X0049276Y0040894D03*
X0070450Y0054766D03*
X0065450Y0050766D03*
X0059950Y0045466D03*
X0075550Y0048066D03*
X0070950Y0042166D03*
X0070450Y0045566D03*
X0077750Y0048066D03*
X0077750Y0045566D03*
X0079950Y0045566D03*
X0079950Y0048066D03*
X0079950Y0043066D03*
X0068350Y0036766D03*
X0076250Y0042566D03*
X0074550Y0041066D03*
X0079950Y0040566D03*
X0075850Y0035366D03*
X0075950Y0037066D03*
X0079950Y0035466D03*
X0079950Y0037966D03*
X0071550Y0046666D03*
X0072750Y0043766D03*
X0074350Y0035366D03*
D58*
X0004826Y0065786D03*
X0086106Y0004826D03*
X0004826Y0004826D03*
X0086106Y0065786D03*
D42*
X0059080Y0002576D03*
X0059080Y0007076D03*
X0065380Y0002576D03*
X0065380Y0007076D03*
X0077826Y0007076D03*
X0077826Y0002576D03*
X0071526Y0007076D03*
X0071526Y0002576D03*
D12*
X0068390Y0039271D03*
X0068390Y0034389D03*
D55*
X0012700Y0060261D03*
X0015240Y0060261D03*
X0012700Y0040830D03*
X0015240Y0040830D03*
X0004720Y0032526D03*
X0002180Y0032526D03*
X0004720Y0035066D03*
X0002180Y0035066D03*
X0004720Y0037606D03*
X0002180Y0037606D03*
X0074422Y0068072D03*
X0074422Y0065532D03*
X0071882Y0068072D03*
X0071882Y0065532D03*
X0069342Y0068072D03*
X0069342Y0065532D03*
X0066802Y0068072D03*
X0066802Y0065532D03*
X0064262Y0068072D03*
X0064262Y0065532D03*
X0025380Y0008306D03*
X0027920Y0008306D03*
X0025380Y0005766D03*
X0027920Y0005766D03*
X0025380Y0003226D03*
X0027920Y0003226D03*
X0084836Y0054356D03*
X0087376Y0054356D03*
X0084836Y0051816D03*
X0087376Y0051816D03*
X0084836Y0049276D03*
X0087376Y0049276D03*
X0084836Y0046736D03*
X0087376Y0046736D03*
X0084836Y0044196D03*
X0087376Y0044196D03*
X0084836Y0041656D03*
X0087376Y0041656D03*
X0084836Y0039116D03*
X0087376Y0039116D03*
X0084836Y0036576D03*
X0087376Y0036576D03*
X0084836Y0034036D03*
X0087376Y0034036D03*
X0084836Y0031496D03*
X0087376Y0031496D03*
X0084836Y0028956D03*
X0087376Y0028956D03*
X0084836Y0026416D03*
X0087376Y0026416D03*
X0084836Y0023876D03*
X0087376Y0023876D03*
X0084836Y0021336D03*
X0087376Y0021336D03*
X0084836Y0018796D03*
X0087376Y0018796D03*
X0084836Y0016256D03*
X0087376Y0016256D03*
D14*
X0015240Y0051816D03*
X0015240Y0049276D03*
X0013240Y0049276D03*
X0013240Y0051816D03*
D57*
X0010540Y0056546D03*
X0010540Y0044546D03*
D55*
X0057404Y0068072D03*
X0059944Y0068072D03*
X0057404Y0065532D03*
X0059944Y0065532D03*
X0080010Y0065532D03*
X0080010Y0068072D03*
X0074422Y0059182D03*
X0074422Y0056642D03*
X0071882Y0059182D03*
X0071882Y0056642D03*
X0069342Y0059182D03*
X0069342Y0056642D03*
X0066802Y0059182D03*
X0066802Y0056642D03*
X0064262Y0059182D03*
X0064262Y0056642D03*
X0061722Y0059182D03*
X0061722Y0056642D03*
X0059182Y0059182D03*
X0059182Y0056642D03*
X0056642Y0059182D03*
X0056642Y0056642D03*
X0054102Y0059182D03*
X0054102Y0056642D03*
X0051562Y0059182D03*
X0051562Y0056642D03*
X0049022Y0059182D03*
X0049022Y0056642D03*
X0046482Y0059182D03*
X0046482Y0056642D03*
X0043942Y0059182D03*
X0043942Y0056642D03*
X0041402Y0059182D03*
X0041402Y0056642D03*
X0038862Y0059182D03*
X0038862Y0056642D03*
X0036322Y0059182D03*
X0036322Y0056642D03*
X0023368Y0054102D03*
X0025908Y0054102D03*
X0023368Y0051562D03*
X0025908Y0051562D03*
X0023368Y0049022D03*
X0025908Y0049022D03*
X0023368Y0046482D03*
X0025908Y0046482D03*
X0023368Y0043942D03*
X0025908Y0043942D03*
X0023368Y0041402D03*
X0025908Y0041402D03*
X0023368Y0038862D03*
X0025908Y0038862D03*
X0023368Y0036322D03*
X0025908Y0036322D03*
X0023368Y0033782D03*
X0025908Y0033782D03*
X0023368Y0031242D03*
X0025908Y0031242D03*
X0023368Y0028702D03*
X0025908Y0028702D03*
X0023368Y0026162D03*
X0025908Y0026162D03*
X0023368Y0023622D03*
X0025908Y0023622D03*
X0023368Y0021082D03*
X0025908Y0021082D03*
X0023368Y0018542D03*
X0025908Y0018542D03*
X0023368Y0016002D03*
X0025908Y0016002D03*
X0036322Y0011430D03*
X0036322Y0013970D03*
X0038862Y0011430D03*
X0038862Y0013970D03*
X0041402Y0011430D03*
X0041402Y0013970D03*
X0043942Y0011430D03*
X0043942Y0013970D03*
X0046482Y0011430D03*
X0046482Y0013970D03*
X0049022Y0011430D03*
X0049022Y0013970D03*
X0051562Y0011430D03*
X0051562Y0013970D03*
X0054102Y0011430D03*
X0054102Y0013970D03*
X0056642Y0011430D03*
X0056642Y0013970D03*
X0059182Y0011430D03*
X0059182Y0013970D03*
X0061722Y0011430D03*
X0061722Y0013970D03*
X0064262Y0011430D03*
X0064262Y0013970D03*
X0066802Y0011430D03*
X0066802Y0013970D03*
X0069342Y0011430D03*
X0069342Y0013970D03*
X0071882Y0011430D03*
X0071882Y0013970D03*
X0074422Y0011430D03*
X0074422Y0013970D03*
X0031380Y0065546D03*
X0031380Y0068086D03*
X0033920Y0065546D03*
X0033920Y0068086D03*
X0036460Y0065546D03*
X0036460Y0068086D03*
X0039000Y0065546D03*
X0039000Y0068086D03*
X0041540Y0065546D03*
X0041540Y0068086D03*
X0044080Y0065546D03*
X0044080Y0068086D03*
X0046620Y0065546D03*
X0046620Y0068086D03*
D52*
X0064008Y0042857D03*
X0064008Y0040957D03*
D37*
X0017907Y0019050D03*
X0044069Y0062103D03*
X0041529Y0062103D03*
X0038989Y0062138D03*
X0035179Y0061316D03*
X0053086Y0063500D03*
X0069320Y0021596D03*
D13*
X0019500Y0019016D02*
X0019466Y0019050D01*
X0019466Y0019050D02*
X0017907Y0019050D01*
D52*
X0041529Y0061316D02*
X0044069Y0061316D01*
X0044069Y0061316D02*
X0046650Y0061316D01*
D13*
X0044069Y0062103D02*
X0044069Y0061316D01*
D52*
X0038862Y0061316D02*
X0041529Y0061316D01*
D13*
X0041529Y0062103D02*
X0041529Y0061316D01*
D52*
X0035179Y0061316D02*
X0038862Y0061316D01*
D13*
X0038989Y0062138D02*
X0038989Y0061443D01*
X0038989Y0061443D02*
X0038862Y0061316D01*
D52*
X0031400Y0061316D02*
X0035179Y0061316D01*
X0025908Y0061316D02*
X0031400Y0061316D01*
X0031380Y0061336D02*
X0031380Y0065546D01*
X0031400Y0061316D02*
X0031380Y0061336D01*
X0046650Y0061316D02*
X0053086Y0061316D01*
X0046620Y0061346D02*
X0046620Y0065546D01*
X0046650Y0061316D02*
X0046620Y0061346D01*
X0080010Y0065532D02*
X0080010Y0064745D01*
X0080010Y0064745D02*
X0076581Y0061316D01*
X0076581Y0061316D02*
X0076556Y0061316D01*
X0076556Y0061316D02*
X0074359Y0061316D01*
X0053086Y0061316D02*
X0074359Y0061316D01*
X0074422Y0059182D02*
X0074422Y0060944D01*
X0074422Y0060944D02*
X0074359Y0061007D01*
X0074359Y0061007D02*
X0074359Y0061316D01*
D13*
X0053086Y0063500D02*
X0053086Y0061316D01*
D52*
X0019500Y0005766D02*
X0019500Y0019016D01*
X0019500Y0019016D02*
X0019500Y0054102D01*
X0025908Y0054102D02*
X0025908Y0061316D01*
D13*
X0077826Y0002576D02*
X0076688Y0002576D01*
X0076688Y0002576D02*
X0071526Y0002576D01*
D52*
X0031750Y0009166D02*
X0063350Y0009166D01*
X0063350Y0009166D02*
X0069350Y0009166D01*
D13*
X0071526Y0002576D02*
X0067574Y0002576D01*
X0067574Y0002576D02*
X0063350Y0006800D01*
X0063350Y0006800D02*
X0063350Y0009166D01*
D52*
X0027920Y0005766D02*
X0028350Y0005766D01*
X0028350Y0005766D02*
X0031750Y0009166D01*
X0069350Y0011422D02*
X0069342Y0011430D01*
X0069350Y0009166D02*
X0069350Y0011422D01*
X0025380Y0005766D02*
X0019500Y0005766D01*
X0019500Y0054102D02*
X0023368Y0054102D01*
X0025380Y0005766D02*
X0027920Y0005766D01*
D13*
X0069342Y0021574D02*
X0069320Y0021596D01*
X0069342Y0013970D02*
X0069342Y0021574D01*
D52*
X0023368Y0054102D02*
X0025908Y0054102D01*
X0036322Y0011430D02*
X0036322Y0013970D01*
X0069342Y0013970D02*
X0069342Y0011430D01*
X0074422Y0059182D02*
X0074422Y0056642D01*
D13*
X0081480Y0039166D02*
X0081480Y0066386D01*
X0051550Y0066816D02*
X0044288Y0066816D01*
X0081480Y0066386D02*
X0081100Y0066766D01*
X0081100Y0066766D02*
X0077600Y0066766D01*
X0077200Y0066366D02*
X0077200Y0063716D01*
X0077600Y0066766D02*
X0077200Y0066366D01*
X0055800Y0062566D02*
X0051550Y0066816D01*
X0077200Y0063716D02*
X0076050Y0062566D01*
X0076050Y0062566D02*
X0055800Y0062566D01*
X0044288Y0066816D02*
X0044080Y0067024D01*
X0044080Y0067024D02*
X0044080Y0068086D01*
X0081480Y0036822D02*
X0081480Y0039166D01*
X0084836Y0039116D02*
X0081530Y0039116D01*
X0081530Y0039116D02*
X0081480Y0039166D01*
X0065380Y0007076D02*
X0065380Y0007066D01*
X0081480Y0007356D02*
X0081480Y0036822D01*
X0065380Y0007066D02*
X0067510Y0004936D01*
X0067510Y0004936D02*
X0079060Y0004936D01*
X0079060Y0004936D02*
X0081480Y0007356D01*
D23*
X0084836Y0039116D02*
X0087376Y0039116D01*
D13*
X0077826Y0007076D02*
X0077826Y0043078D01*
X0077826Y0043078D02*
X0064262Y0056642D01*
D23*
X0064262Y0059182D02*
X0064262Y0056642D01*
D52*
X0002180Y0035066D02*
X0004720Y0035066D01*
D23*
X0087376Y0054356D02*
X0084836Y0054356D01*
X0084836Y0051816D02*
X0087376Y0051816D01*
X0084836Y0049276D02*
X0087376Y0049276D01*
X0084836Y0046736D02*
X0087376Y0046736D01*
X0084836Y0044196D02*
X0087376Y0044196D01*
X0087376Y0041656D02*
X0084836Y0041656D01*
X0087376Y0036576D02*
X0084836Y0036576D01*
X0084836Y0034036D02*
X0087376Y0034036D01*
X0087376Y0031496D02*
X0084836Y0031496D01*
X0084836Y0028956D02*
X0087376Y0028956D01*
X0087376Y0023876D02*
X0084836Y0023876D01*
X0084836Y0021336D02*
X0087376Y0021336D01*
X0087376Y0018796D02*
X0084836Y0018796D01*
X0087376Y0016256D02*
X0084836Y0016256D01*
X0074422Y0013970D02*
X0074422Y0011430D01*
X0066802Y0013970D02*
X0066802Y0011430D01*
X0064262Y0011430D02*
X0064262Y0013970D01*
X0061722Y0013970D02*
X0061722Y0011430D01*
X0059182Y0011430D02*
X0059182Y0013970D01*
X0056642Y0011430D02*
X0056642Y0013970D01*
X0054102Y0013970D02*
X0054102Y0011430D01*
X0051562Y0011430D02*
X0051562Y0013970D01*
X0049022Y0013970D02*
X0049022Y0011430D01*
X0046482Y0011430D02*
X0046482Y0013970D01*
X0043942Y0013970D02*
X0043942Y0011430D01*
X0041402Y0011430D02*
X0041402Y0013970D01*
X0023368Y0016002D02*
X0025908Y0016002D01*
X0025908Y0018542D02*
X0023368Y0018542D01*
X0025908Y0028702D02*
X0023368Y0028702D01*
X0023368Y0031242D02*
X0025908Y0031242D01*
X0025908Y0033782D02*
X0023368Y0033782D01*
X0023368Y0036322D02*
X0025908Y0036322D01*
X0023368Y0038862D02*
X0025908Y0038862D01*
X0023368Y0041402D02*
X0025908Y0041402D01*
X0023368Y0043942D02*
X0025908Y0043942D01*
X0023368Y0046482D02*
X0025908Y0046482D01*
X0025908Y0049022D02*
X0023368Y0049022D01*
X0036322Y0059182D02*
X0036322Y0056642D01*
X0038862Y0056642D02*
X0038862Y0059182D01*
X0041402Y0059182D02*
X0041402Y0056642D01*
X0043942Y0056642D02*
X0043942Y0059182D01*
X0046482Y0059182D02*
X0046482Y0056642D01*
X0049022Y0056642D02*
X0049022Y0059182D01*
X0051562Y0056642D02*
X0051562Y0059182D01*
X0054102Y0059182D02*
X0054102Y0056642D01*
X0056642Y0056642D02*
X0056642Y0059182D01*
X0059182Y0059182D02*
X0059182Y0056642D01*
X0061722Y0056642D02*
X0061722Y0059182D01*
X0066802Y0068072D02*
X0066802Y0065532D01*
X0066802Y0056642D02*
X0066802Y0059182D01*
X0071882Y0068072D02*
X0071882Y0065532D01*
X0069342Y0059182D02*
X0069342Y0056642D01*
D52*
X0080010Y0068072D02*
X0077256Y0068072D01*
X0076000Y0066816D02*
X0076000Y0064326D01*
X0075440Y0063766D02*
X0070346Y0063766D01*
X0077256Y0068072D02*
X0076000Y0066816D01*
X0076000Y0064326D02*
X0075440Y0063766D01*
X0070346Y0063766D02*
X0069342Y0064770D01*
X0069342Y0064770D02*
X0069342Y0065532D01*
X0069342Y0065532D02*
X0069342Y0068072D01*
X0015240Y0049276D02*
X0015240Y0040830D01*
D23*
X0023368Y0026162D02*
X0025908Y0026162D01*
X0025908Y0023622D02*
X0023368Y0023622D01*
X0023368Y0021082D02*
X0025908Y0021082D01*
D21*
G36*
X0090222Y0000710D02*
X0000710Y0000710D01*
X0000710Y0014891D01*
X0002961Y0014891D01*
X0003133Y0014474D01*
X0003452Y0014154D01*
X0003869Y0013981D01*
X0004321Y0013981D01*
X0004738Y0014153D01*
X0005058Y0014472D01*
X0005231Y0014889D01*
X0005231Y0015341D01*
X0005059Y0015758D01*
X0004740Y0016078D01*
X0004323Y0016251D01*
X0003871Y0016251D01*
X0003454Y0016079D01*
X0003134Y0015760D01*
X0002961Y0015343D01*
X0002961Y0014891D01*
X0000710Y0014891D01*
X0000710Y0018845D01*
X0016872Y0018845D01*
X0017029Y0018464D01*
X0017320Y0018173D01*
X0017700Y0018015D01*
X0018112Y0018015D01*
X0018365Y0018119D01*
X0018365Y0005766D01*
X0018451Y0005332D01*
X0018697Y0004963D01*
X0019066Y0004717D01*
X0019500Y0004631D01*
X0024103Y0004631D01*
X0024154Y0004553D01*
X0024366Y0004408D01*
X0024618Y0004357D01*
X0026142Y0004357D01*
X0026377Y0004401D01*
X0026593Y0004540D01*
X0026649Y0004622D01*
X0026694Y0004553D01*
X0026906Y0004408D01*
X0027158Y0004357D01*
X0028682Y0004357D01*
X0028917Y0004401D01*
X0029133Y0004540D01*
X0029278Y0004752D01*
X0029329Y0005004D01*
X0029329Y0005140D01*
X0032220Y0008031D01*
X0057618Y0008031D01*
X0057594Y0007914D01*
X0057594Y0006238D01*
X0057639Y0006002D01*
X0057778Y0005786D01*
X0057990Y0005641D01*
X0058242Y0005590D01*
X0059918Y0005590D01*
X0060154Y0005635D01*
X0060370Y0005774D01*
X0060515Y0005986D01*
X0060566Y0006238D01*
X0060566Y0007914D01*
X0060544Y0008031D01*
X0062565Y0008031D01*
X0062565Y0006800D01*
X0062625Y0006499D01*
X0062795Y0006245D01*
X0067019Y0002021D01*
X0067273Y0001851D01*
X0067574Y0001791D01*
X0067574Y0001791D01*
X0070040Y0001791D01*
X0070040Y0001738D01*
X0070085Y0001502D01*
X0070224Y0001286D01*
X0070436Y0001141D01*
X0070688Y0001090D01*
X0072364Y0001090D01*
X0072600Y0001135D01*
X0072816Y0001274D01*
X0072961Y0001486D01*
X0073012Y0001738D01*
X0073012Y0001791D01*
X0076340Y0001791D01*
X0076340Y0001738D01*
X0076385Y0001502D01*
X0076524Y0001286D01*
X0076736Y0001141D01*
X0076988Y0001090D01*
X0078664Y0001090D01*
X0078900Y0001135D01*
X0079116Y0001274D01*
X0079261Y0001486D01*
X0079312Y0001738D01*
X0079312Y0003414D01*
X0079267Y0003650D01*
X0079128Y0003866D01*
X0078916Y0004011D01*
X0078664Y0004062D01*
X0076988Y0004062D01*
X0076752Y0004017D01*
X0076536Y0003878D01*
X0076391Y0003666D01*
X0076340Y0003414D01*
X0076340Y0003361D01*
X0073012Y0003361D01*
X0073012Y0003414D01*
X0072967Y0003650D01*
X0072828Y0003866D01*
X0072616Y0004011D01*
X0072364Y0004062D01*
X0070688Y0004062D01*
X0070452Y0004017D01*
X0070236Y0003878D01*
X0070091Y0003666D01*
X0070040Y0003414D01*
X0070040Y0003361D01*
X0067899Y0003361D01*
X0065669Y0005590D01*
X0065745Y0005590D01*
X0066955Y0004381D01*
X0067210Y0004211D01*
X0067510Y0004151D01*
X0079060Y0004151D01*
X0079360Y0004211D01*
X0079615Y0004381D01*
X0082035Y0006801D01*
X0082205Y0007056D01*
X0082265Y0007356D01*
X0082265Y0024638D01*
X0083427Y0024638D01*
X0083427Y0023114D01*
X0083471Y0022879D01*
X0083610Y0022663D01*
X0083692Y0022607D01*
X0083623Y0022562D01*
X0083478Y0022350D01*
X0083427Y0022098D01*
X0083427Y0020574D01*
X0083471Y0020339D01*
X0083610Y0020123D01*
X0083692Y0020067D01*
X0083623Y0020022D01*
X0083478Y0019810D01*
X0083427Y0019558D01*
X0083427Y0018034D01*
X0083471Y0017799D01*
X0083610Y0017583D01*
X0083692Y0017527D01*
X0083623Y0017482D01*
X0083478Y0017270D01*
X0083427Y0017018D01*
X0083427Y0015494D01*
X0083471Y0015259D01*
X0083610Y0015043D01*
X0083822Y0014898D01*
X0084074Y0014847D01*
X0085598Y0014847D01*
X0085833Y0014891D01*
X0086049Y0015030D01*
X0086105Y0015112D01*
X0086150Y0015043D01*
X0086362Y0014898D01*
X0086614Y0014847D01*
X0088138Y0014847D01*
X0088373Y0014891D01*
X0088589Y0015030D01*
X0088734Y0015242D01*
X0088785Y0015494D01*
X0088785Y0017018D01*
X0088741Y0017253D01*
X0088602Y0017469D01*
X0088520Y0017525D01*
X0088589Y0017570D01*
X0088734Y0017782D01*
X0088785Y0018034D01*
X0088785Y0019558D01*
X0088741Y0019793D01*
X0088602Y0020009D01*
X0088520Y0020065D01*
X0088589Y0020110D01*
X0088734Y0020322D01*
X0088785Y0020574D01*
X0088785Y0022098D01*
X0088741Y0022333D01*
X0088602Y0022549D01*
X0088520Y0022605D01*
X0088589Y0022650D01*
X0088734Y0022862D01*
X0088785Y0023114D01*
X0088785Y0024638D01*
X0088741Y0024873D01*
X0088602Y0025089D01*
X0088390Y0025234D01*
X0088138Y0025285D01*
X0086614Y0025285D01*
X0086379Y0025241D01*
X0086163Y0025102D01*
X0086107Y0025020D01*
X0086062Y0025089D01*
X0085850Y0025234D01*
X0085598Y0025285D01*
X0084074Y0025285D01*
X0083839Y0025241D01*
X0083623Y0025102D01*
X0083478Y0024890D01*
X0083427Y0024638D01*
X0082265Y0024638D01*
X0082265Y0038331D01*
X0083431Y0038331D01*
X0083471Y0038119D01*
X0083610Y0037903D01*
X0083692Y0037847D01*
X0083623Y0037802D01*
X0083478Y0037590D01*
X0083427Y0037338D01*
X0083427Y0035814D01*
X0083471Y0035579D01*
X0083610Y0035363D01*
X0083692Y0035307D01*
X0083623Y0035262D01*
X0083478Y0035050D01*
X0083427Y0034798D01*
X0083427Y0033274D01*
X0083471Y0033039D01*
X0083610Y0032823D01*
X0083692Y0032767D01*
X0083623Y0032722D01*
X0083478Y0032510D01*
X0083427Y0032258D01*
X0083427Y0030734D01*
X0083471Y0030499D01*
X0083610Y0030283D01*
X0083692Y0030227D01*
X0083623Y0030182D01*
X0083478Y0029970D01*
X0083427Y0029718D01*
X0083427Y0028194D01*
X0083471Y0027959D01*
X0083610Y0027743D01*
X0083822Y0027598D01*
X0084074Y0027547D01*
X0085598Y0027547D01*
X0085833Y0027591D01*
X0086049Y0027730D01*
X0086105Y0027812D01*
X0086150Y0027743D01*
X0086362Y0027598D01*
X0086614Y0027547D01*
X0088138Y0027547D01*
X0088373Y0027591D01*
X0088589Y0027730D01*
X0088734Y0027942D01*
X0088785Y0028194D01*
X0088785Y0029718D01*
X0088741Y0029953D01*
X0088602Y0030169D01*
X0088520Y0030225D01*
X0088589Y0030270D01*
X0088734Y0030482D01*
X0088785Y0030734D01*
X0088785Y0032258D01*
X0088741Y0032493D01*
X0088602Y0032709D01*
X0088520Y0032765D01*
X0088589Y0032810D01*
X0088734Y0033022D01*
X0088785Y0033274D01*
X0088785Y0034798D01*
X0088741Y0035033D01*
X0088602Y0035249D01*
X0088520Y0035305D01*
X0088589Y0035350D01*
X0088734Y0035562D01*
X0088785Y0035814D01*
X0088785Y0037338D01*
X0088741Y0037573D01*
X0088602Y0037789D01*
X0088520Y0037845D01*
X0088589Y0037890D01*
X0088734Y0038102D01*
X0088785Y0038354D01*
X0088785Y0039878D01*
X0088741Y0040113D01*
X0088602Y0040329D01*
X0088520Y0040385D01*
X0088589Y0040430D01*
X0088734Y0040642D01*
X0088785Y0040894D01*
X0088785Y0042418D01*
X0088741Y0042653D01*
X0088602Y0042869D01*
X0088520Y0042925D01*
X0088589Y0042970D01*
X0088734Y0043182D01*
X0088785Y0043434D01*
X0088785Y0044958D01*
X0088741Y0045193D01*
X0088602Y0045409D01*
X0088520Y0045465D01*
X0088589Y0045510D01*
X0088734Y0045722D01*
X0088785Y0045974D01*
X0088785Y0047498D01*
X0088741Y0047733D01*
X0088602Y0047949D01*
X0088520Y0048005D01*
X0088589Y0048050D01*
X0088734Y0048262D01*
X0088785Y0048514D01*
X0088785Y0050038D01*
X0088741Y0050273D01*
X0088602Y0050489D01*
X0088520Y0050545D01*
X0088589Y0050590D01*
X0088734Y0050802D01*
X0088785Y0051054D01*
X0088785Y0052578D01*
X0088741Y0052813D01*
X0088602Y0053029D01*
X0088520Y0053085D01*
X0088589Y0053130D01*
X0088734Y0053342D01*
X0088785Y0053594D01*
X0088785Y0055118D01*
X0088741Y0055353D01*
X0088602Y0055569D01*
X0088390Y0055714D01*
X0088138Y0055765D01*
X0086614Y0055765D01*
X0086379Y0055721D01*
X0086163Y0055582D01*
X0086107Y0055500D01*
X0086062Y0055569D01*
X0085850Y0055714D01*
X0085598Y0055765D01*
X0084074Y0055765D01*
X0083839Y0055721D01*
X0083623Y0055582D01*
X0083478Y0055370D01*
X0083427Y0055118D01*
X0083427Y0053594D01*
X0083471Y0053359D01*
X0083610Y0053143D01*
X0083692Y0053087D01*
X0083623Y0053042D01*
X0083478Y0052830D01*
X0083427Y0052578D01*
X0083427Y0051054D01*
X0083471Y0050819D01*
X0083610Y0050603D01*
X0083692Y0050547D01*
X0083623Y0050502D01*
X0083478Y0050290D01*
X0083427Y0050038D01*
X0083427Y0048514D01*
X0083471Y0048279D01*
X0083610Y0048063D01*
X0083692Y0048007D01*
X0083623Y0047962D01*
X0083478Y0047750D01*
X0083427Y0047498D01*
X0083427Y0045974D01*
X0083471Y0045739D01*
X0083610Y0045523D01*
X0083692Y0045467D01*
X0083623Y0045422D01*
X0083478Y0045210D01*
X0083427Y0044958D01*
X0083427Y0043434D01*
X0083471Y0043199D01*
X0083610Y0042983D01*
X0083692Y0042927D01*
X0083623Y0042882D01*
X0083478Y0042670D01*
X0083427Y0042418D01*
X0083427Y0040894D01*
X0083471Y0040659D01*
X0083610Y0040443D01*
X0083692Y0040387D01*
X0083623Y0040342D01*
X0083478Y0040130D01*
X0083431Y0039901D01*
X0082265Y0039901D01*
X0082265Y0066386D01*
X0082236Y0066529D01*
X0082205Y0066686D01*
X0082035Y0066941D01*
X0081655Y0067321D01*
X0081419Y0067479D01*
X0081419Y0068834D01*
X0081375Y0069069D01*
X0081236Y0069285D01*
X0081024Y0069430D01*
X0080772Y0069481D01*
X0079248Y0069481D01*
X0079013Y0069437D01*
X0078797Y0069298D01*
X0078734Y0069207D01*
X0077256Y0069207D01*
X0076822Y0069121D01*
X0076577Y0068957D01*
X0076453Y0068875D01*
X0075197Y0067619D01*
X0074951Y0067250D01*
X0074865Y0066816D01*
X0074865Y0064901D01*
X0073291Y0064901D01*
X0073291Y0066294D01*
X0073247Y0066529D01*
X0073108Y0066745D01*
X0073026Y0066801D01*
X0073095Y0066846D01*
X0073240Y0067058D01*
X0073291Y0067310D01*
X0073291Y0068834D01*
X0073247Y0069069D01*
X0073108Y0069285D01*
X0072896Y0069430D01*
X0072644Y0069481D01*
X0071120Y0069481D01*
X0070885Y0069437D01*
X0070669Y0069298D01*
X0070613Y0069216D01*
X0070568Y0069285D01*
X0070356Y0069430D01*
X0070104Y0069481D01*
X0068580Y0069481D01*
X0068345Y0069437D01*
X0068129Y0069298D01*
X0068073Y0069216D01*
X0068028Y0069285D01*
X0067816Y0069430D01*
X0067564Y0069481D01*
X0066040Y0069481D01*
X0065805Y0069437D01*
X0065589Y0069298D01*
X0065444Y0069086D01*
X0065393Y0068834D01*
X0065393Y0067310D01*
X0065437Y0067075D01*
X0065576Y0066859D01*
X0065658Y0066803D01*
X0065589Y0066758D01*
X0065444Y0066546D01*
X0065393Y0066294D01*
X0065393Y0064770D01*
X0065437Y0064535D01*
X0065576Y0064319D01*
X0065788Y0064174D01*
X0066040Y0064123D01*
X0067564Y0064123D01*
X0067799Y0064167D01*
X0068015Y0064306D01*
X0068071Y0064388D01*
X0068116Y0064319D01*
X0068328Y0064174D01*
X0068413Y0064156D01*
X0068507Y0064016D01*
X0068539Y0063967D01*
X0069156Y0063351D01*
X0056125Y0063351D01*
X0052105Y0067371D01*
X0051850Y0067541D01*
X0051550Y0067601D01*
X0045489Y0067601D01*
X0045489Y0068834D01*
X0055995Y0068834D01*
X0055995Y0067310D01*
X0056039Y0067075D01*
X0056178Y0066859D01*
X0056260Y0066803D01*
X0056191Y0066758D01*
X0056046Y0066546D01*
X0055995Y0066294D01*
X0055995Y0064770D01*
X0056039Y0064535D01*
X0056178Y0064319D01*
X0056390Y0064174D01*
X0056642Y0064123D01*
X0058166Y0064123D01*
X0058401Y0064167D01*
X0058617Y0064306D01*
X0058673Y0064388D01*
X0058718Y0064319D01*
X0058930Y0064174D01*
X0059182Y0064123D01*
X0060706Y0064123D01*
X0060941Y0064167D01*
X0061157Y0064306D01*
X0061302Y0064518D01*
X0061353Y0064770D01*
X0061353Y0066294D01*
X0061309Y0066529D01*
X0061170Y0066745D01*
X0061088Y0066801D01*
X0061157Y0066846D01*
X0061302Y0067058D01*
X0061353Y0067310D01*
X0061353Y0068834D01*
X0061309Y0069069D01*
X0061170Y0069285D01*
X0060958Y0069430D01*
X0060706Y0069481D01*
X0059182Y0069481D01*
X0058947Y0069437D01*
X0058731Y0069298D01*
X0058675Y0069216D01*
X0058630Y0069285D01*
X0058418Y0069430D01*
X0058166Y0069481D01*
X0056642Y0069481D01*
X0056407Y0069437D01*
X0056191Y0069298D01*
X0056046Y0069086D01*
X0055995Y0068834D01*
X0045489Y0068834D01*
X0045489Y0068848D01*
X0045445Y0069083D01*
X0045306Y0069299D01*
X0045094Y0069444D01*
X0044842Y0069495D01*
X0043318Y0069495D01*
X0043083Y0069451D01*
X0042867Y0069312D01*
X0042722Y0069100D01*
X0042671Y0068848D01*
X0042671Y0067324D01*
X0042715Y0067089D01*
X0042854Y0066873D01*
X0042936Y0066817D01*
X0042867Y0066772D01*
X0042811Y0066690D01*
X0042766Y0066759D01*
X0042554Y0066904D01*
X0042302Y0066955D01*
X0040778Y0066955D01*
X0040543Y0066911D01*
X0040327Y0066772D01*
X0040271Y0066690D01*
X0040226Y0066759D01*
X0040014Y0066904D01*
X0039762Y0066955D01*
X0038238Y0066955D01*
X0038003Y0066911D01*
X0037787Y0066772D01*
X0037731Y0066690D01*
X0037686Y0066759D01*
X0037474Y0066904D01*
X0037222Y0066955D01*
X0035698Y0066955D01*
X0035463Y0066911D01*
X0035247Y0066772D01*
X0035191Y0066690D01*
X0035146Y0066759D01*
X0034934Y0066904D01*
X0034682Y0066955D01*
X0033158Y0066955D01*
X0032923Y0066911D01*
X0032707Y0066772D01*
X0032651Y0066690D01*
X0032606Y0066759D01*
X0032394Y0066904D01*
X0032142Y0066955D01*
X0030618Y0066955D01*
X0030383Y0066911D01*
X0030167Y0066772D01*
X0030022Y0066560D01*
X0029971Y0066308D01*
X0029971Y0064784D01*
X0030015Y0064549D01*
X0030154Y0064333D01*
X0030245Y0064270D01*
X0030245Y0062451D01*
X0025908Y0062451D01*
X0025474Y0062365D01*
X0025105Y0062119D01*
X0024859Y0061750D01*
X0024773Y0061316D01*
X0024773Y0055379D01*
X0024695Y0055328D01*
X0024639Y0055246D01*
X0024594Y0055315D01*
X0024382Y0055460D01*
X0024130Y0055511D01*
X0022606Y0055511D01*
X0022371Y0055467D01*
X0022155Y0055328D01*
X0022092Y0055237D01*
X0019500Y0055237D01*
X0019066Y0055151D01*
X0018697Y0054905D01*
X0018451Y0054536D01*
X0018365Y0054102D01*
X0018365Y0019981D01*
X0018114Y0020085D01*
X0017702Y0020085D01*
X0017321Y0019928D01*
X0017030Y0019637D01*
X0016872Y0019257D01*
X0016872Y0018845D01*
X0000710Y0018845D01*
X0000710Y0022891D01*
X0002961Y0022891D01*
X0003133Y0022474D01*
X0003452Y0022154D01*
X0003869Y0021981D01*
X0004321Y0021981D01*
X0004738Y0022153D01*
X0005058Y0022472D01*
X0005231Y0022889D01*
X0005231Y0023341D01*
X0005059Y0023758D01*
X0004740Y0024078D01*
X0004323Y0024251D01*
X0003871Y0024251D01*
X0003454Y0024079D01*
X0003134Y0023760D01*
X0002961Y0023343D01*
X0002961Y0022891D01*
X0000710Y0022891D01*
X0000710Y0035828D01*
X0000771Y0035828D01*
X0000771Y0034304D01*
X0000815Y0034069D01*
X0000954Y0033853D01*
X0001166Y0033708D01*
X0001418Y0033657D01*
X0002942Y0033657D01*
X0003177Y0033701D01*
X0003393Y0033840D01*
X0003449Y0033922D01*
X0003494Y0033853D01*
X0003706Y0033708D01*
X0003958Y0033657D01*
X0005482Y0033657D01*
X0005717Y0033701D01*
X0005933Y0033840D01*
X0006078Y0034052D01*
X0006129Y0034304D01*
X0006129Y0035828D01*
X0006085Y0036063D01*
X0005946Y0036279D01*
X0005734Y0036424D01*
X0005482Y0036475D01*
X0003958Y0036475D01*
X0003723Y0036431D01*
X0003507Y0036292D01*
X0003451Y0036210D01*
X0003406Y0036279D01*
X0003194Y0036424D01*
X0002942Y0036475D01*
X0001418Y0036475D01*
X0001183Y0036431D01*
X0000967Y0036292D01*
X0000822Y0036080D01*
X0000771Y0035828D01*
X0000710Y0035828D01*
X0000710Y0041592D01*
X0011291Y0041592D01*
X0011291Y0040068D01*
X0011335Y0039833D01*
X0011474Y0039617D01*
X0011686Y0039472D01*
X0011938Y0039421D01*
X0013462Y0039421D01*
X0013697Y0039465D01*
X0013913Y0039604D01*
X0013969Y0039686D01*
X0014014Y0039617D01*
X0014226Y0039472D01*
X0014478Y0039421D01*
X0016002Y0039421D01*
X0016237Y0039465D01*
X0016453Y0039604D01*
X0016598Y0039817D01*
X0016649Y0040068D01*
X0016649Y0041592D01*
X0016605Y0041828D01*
X0016466Y0042044D01*
X0016375Y0042106D01*
X0016375Y0048438D01*
X0016422Y0048485D01*
X0016635Y0048997D01*
X0016635Y0049552D01*
X0016423Y0050065D01*
X0016031Y0050458D01*
X0015819Y0050546D01*
X0016029Y0050633D01*
X0016422Y0051025D01*
X0016635Y0051537D01*
X0016635Y0052092D01*
X0016423Y0052605D01*
X0016031Y0052998D01*
X0015519Y0053211D01*
X0014964Y0053211D01*
X0014451Y0052999D01*
X0014240Y0052789D01*
X0014031Y0052998D01*
X0013519Y0053211D01*
X0012964Y0053211D01*
X0012451Y0052999D01*
X0012058Y0052607D01*
X0011845Y0052095D01*
X0011845Y0051540D01*
X0012057Y0051027D01*
X0012449Y0050634D01*
X0012961Y0050421D01*
X0013516Y0050421D01*
X0014029Y0050633D01*
X0014240Y0050843D01*
X0014449Y0050634D01*
X0014661Y0050546D01*
X0014451Y0050459D01*
X0014058Y0050067D01*
X0013845Y0049555D01*
X0013845Y0049000D01*
X0014057Y0048487D01*
X0014105Y0048438D01*
X0014105Y0042107D01*
X0014027Y0042057D01*
X0013971Y0041975D01*
X0013926Y0042044D01*
X0013714Y0042189D01*
X0013462Y0042240D01*
X0011938Y0042240D01*
X0011703Y0042196D01*
X0011487Y0042057D01*
X0011342Y0041844D01*
X0011291Y0041592D01*
X0000710Y0041592D01*
X0000710Y0061023D01*
X0011291Y0061023D01*
X0011291Y0059499D01*
X0011335Y0059264D01*
X0011474Y0059048D01*
X0011686Y0058903D01*
X0011938Y0058852D01*
X0013462Y0058852D01*
X0013697Y0058896D01*
X0013913Y0059035D01*
X0013969Y0059117D01*
X0014014Y0059048D01*
X0014226Y0058903D01*
X0014478Y0058852D01*
X0016002Y0058852D01*
X0016237Y0058896D01*
X0016453Y0059035D01*
X0016598Y0059248D01*
X0016649Y0059499D01*
X0016649Y0061023D01*
X0016605Y0061259D01*
X0016466Y0061475D01*
X0016254Y0061620D01*
X0016002Y0061671D01*
X0014478Y0061671D01*
X0014243Y0061627D01*
X0014027Y0061488D01*
X0013971Y0061406D01*
X0013926Y0061475D01*
X0013714Y0061620D01*
X0013462Y0061671D01*
X0011938Y0061671D01*
X0011703Y0061627D01*
X0011487Y0061488D01*
X0011342Y0061275D01*
X0011291Y0061023D01*
X0000710Y0061023D01*
X0000710Y0069902D01*
X0090222Y0069902D01*
X0090222Y0000710D01*
X0090222Y0000710D01*
G37*
X0090222Y0000710D02*
X0000710Y0000710D01*
X0000710Y0014891D01*
X0002961Y0014891D01*
X0003133Y0014474D01*
X0003452Y0014154D01*
X0003869Y0013981D01*
X0004321Y0013981D01*
X0004738Y0014153D01*
X0005058Y0014472D01*
X0005231Y0014889D01*
X0005231Y0015341D01*
X0005059Y0015758D01*
X0004740Y0016078D01*
X0004323Y0016251D01*
X0003871Y0016251D01*
X0003454Y0016079D01*
X0003134Y0015760D01*
X0002961Y0015343D01*
X0002961Y0014891D01*
X0000710Y0014891D01*
X0000710Y0018845D01*
X0016872Y0018845D01*
X0017029Y0018464D01*
X0017320Y0018173D01*
X0017700Y0018015D01*
X0018112Y0018015D01*
X0018365Y0018119D01*
X0018365Y0005766D01*
X0018451Y0005332D01*
X0018697Y0004963D01*
X0019066Y0004717D01*
X0019500Y0004631D01*
X0024103Y0004631D01*
X0024154Y0004553D01*
X0024366Y0004408D01*
X0024618Y0004357D01*
X0026142Y0004357D01*
X0026377Y0004401D01*
X0026593Y0004540D01*
X0026649Y0004622D01*
X0026694Y0004553D01*
X0026906Y0004408D01*
X0027158Y0004357D01*
X0028682Y0004357D01*
X0028917Y0004401D01*
X0029133Y0004540D01*
X0029278Y0004752D01*
X0029329Y0005004D01*
X0029329Y0005140D01*
X0032220Y0008031D01*
X0057618Y0008031D01*
X0057594Y0007914D01*
X0057594Y0006238D01*
X0057639Y0006002D01*
X0057778Y0005786D01*
X0057990Y0005641D01*
X0058242Y0005590D01*
X0059918Y0005590D01*
X0060154Y0005635D01*
X0060370Y0005774D01*
X0060515Y0005986D01*
X0060566Y0006238D01*
X0060566Y0007914D01*
X0060544Y0008031D01*
X0062565Y0008031D01*
X0062565Y0006800D01*
X0062625Y0006499D01*
X0062795Y0006245D01*
X0067019Y0002021D01*
X0067273Y0001851D01*
X0067574Y0001791D01*
X0067574Y0001791D01*
X0070040Y0001791D01*
X0070040Y0001738D01*
X0070085Y0001502D01*
X0070224Y0001286D01*
X0070436Y0001141D01*
X0070688Y0001090D01*
X0072364Y0001090D01*
X0072600Y0001135D01*
X0072816Y0001274D01*
X0072961Y0001486D01*
X0073012Y0001738D01*
X0073012Y0001791D01*
X0076340Y0001791D01*
X0076340Y0001738D01*
X0076385Y0001502D01*
X0076524Y0001286D01*
X0076736Y0001141D01*
X0076988Y0001090D01*
X0078664Y0001090D01*
X0078900Y0001135D01*
X0079116Y0001274D01*
X0079261Y0001486D01*
X0079312Y0001738D01*
X0079312Y0003414D01*
X0079267Y0003650D01*
X0079128Y0003866D01*
X0078916Y0004011D01*
X0078664Y0004062D01*
X0076988Y0004062D01*
X0076752Y0004017D01*
X0076536Y0003878D01*
X0076391Y0003666D01*
X0076340Y0003414D01*
X0076340Y0003361D01*
X0073012Y0003361D01*
X0073012Y0003414D01*
X0072967Y0003650D01*
X0072828Y0003866D01*
X0072616Y0004011D01*
X0072364Y0004062D01*
X0070688Y0004062D01*
X0070452Y0004017D01*
X0070236Y0003878D01*
X0070091Y0003666D01*
X0070040Y0003414D01*
X0070040Y0003361D01*
X0067899Y0003361D01*
X0065669Y0005590D01*
X0065745Y0005590D01*
X0066955Y0004381D01*
X0067210Y0004211D01*
X0067510Y0004151D01*
X0079060Y0004151D01*
X0079360Y0004211D01*
X0079615Y0004381D01*
X0082035Y0006801D01*
X0082205Y0007056D01*
X0082265Y0007356D01*
X0082265Y0024638D01*
X0083427Y0024638D01*
X0083427Y0023114D01*
X0083471Y0022879D01*
X0083610Y0022663D01*
X0083692Y0022607D01*
X0083623Y0022562D01*
X0083478Y0022350D01*
X0083427Y0022098D01*
X0083427Y0020574D01*
X0083471Y0020339D01*
X0083610Y0020123D01*
X0083692Y0020067D01*
X0083623Y0020022D01*
X0083478Y0019810D01*
X0083427Y0019558D01*
X0083427Y0018034D01*
X0083471Y0017799D01*
X0083610Y0017583D01*
X0083692Y0017527D01*
X0083623Y0017482D01*
X0083478Y0017270D01*
X0083427Y0017018D01*
X0083427Y0015494D01*
X0083471Y0015259D01*
X0083610Y0015043D01*
X0083822Y0014898D01*
X0084074Y0014847D01*
X0085598Y0014847D01*
X0085833Y0014891D01*
X0086049Y0015030D01*
X0086105Y0015112D01*
X0086150Y0015043D01*
X0086362Y0014898D01*
X0086614Y0014847D01*
X0088138Y0014847D01*
X0088373Y0014891D01*
X0088589Y0015030D01*
X0088734Y0015242D01*
X0088785Y0015494D01*
X0088785Y0017018D01*
X0088741Y0017253D01*
X0088602Y0017469D01*
X0088520Y0017525D01*
X0088589Y0017570D01*
X0088734Y0017782D01*
X0088785Y0018034D01*
X0088785Y0019558D01*
X0088741Y0019793D01*
X0088602Y0020009D01*
X0088520Y0020065D01*
X0088589Y0020110D01*
X0088734Y0020322D01*
X0088785Y0020574D01*
X0088785Y0022098D01*
X0088741Y0022333D01*
X0088602Y0022549D01*
X0088520Y0022605D01*
X0088589Y0022650D01*
X0088734Y0022862D01*
X0088785Y0023114D01*
X0088785Y0024638D01*
X0088741Y0024873D01*
X0088602Y0025089D01*
X0088390Y0025234D01*
X0088138Y0025285D01*
X0086614Y0025285D01*
X0086379Y0025241D01*
X0086163Y0025102D01*
X0086107Y0025020D01*
X0086062Y0025089D01*
X0085850Y0025234D01*
X0085598Y0025285D01*
X0084074Y0025285D01*
X0083839Y0025241D01*
X0083623Y0025102D01*
X0083478Y0024890D01*
X0083427Y0024638D01*
X0082265Y0024638D01*
X0082265Y0038331D01*
X0083431Y0038331D01*
X0083471Y0038119D01*
X0083610Y0037903D01*
X0083692Y0037847D01*
X0083623Y0037802D01*
X0083478Y0037590D01*
X0083427Y0037338D01*
X0083427Y0035814D01*
X0083471Y0035579D01*
X0083610Y0035363D01*
X0083692Y0035307D01*
X0083623Y0035262D01*
X0083478Y0035050D01*
X0083427Y0034798D01*
X0083427Y0033274D01*
X0083471Y0033039D01*
X0083610Y0032823D01*
X0083692Y0032767D01*
X0083623Y0032722D01*
X0083478Y0032510D01*
X0083427Y0032258D01*
X0083427Y0030734D01*
X0083471Y0030499D01*
X0083610Y0030283D01*
X0083692Y0030227D01*
X0083623Y0030182D01*
X0083478Y0029970D01*
X0083427Y0029718D01*
X0083427Y0028194D01*
X0083471Y0027959D01*
X0083610Y0027743D01*
X0083822Y0027598D01*
X0084074Y0027547D01*
X0085598Y0027547D01*
X0085833Y0027591D01*
X0086049Y0027730D01*
X0086105Y0027812D01*
X0086150Y0027743D01*
X0086362Y0027598D01*
X0086614Y0027547D01*
X0088138Y0027547D01*
X0088373Y0027591D01*
X0088589Y0027730D01*
X0088734Y0027942D01*
X0088785Y0028194D01*
X0088785Y0029718D01*
X0088741Y0029953D01*
X0088602Y0030169D01*
X0088520Y0030225D01*
X0088589Y0030270D01*
X0088734Y0030482D01*
X0088785Y0030734D01*
X0088785Y0032258D01*
X0088741Y0032493D01*
X0088602Y0032709D01*
X0088520Y0032765D01*
X0088589Y0032810D01*
X0088734Y0033022D01*
X0088785Y0033274D01*
X0088785Y0034798D01*
X0088741Y0035033D01*
X0088602Y0035249D01*
X0088520Y0035305D01*
X0088589Y0035350D01*
X0088734Y0035562D01*
X0088785Y0035814D01*
X0088785Y0037338D01*
X0088741Y0037573D01*
X0088602Y0037789D01*
X0088520Y0037845D01*
X0088589Y0037890D01*
X0088734Y0038102D01*
X0088785Y0038354D01*
X0088785Y0039878D01*
X0088741Y0040113D01*
X0088602Y0040329D01*
X0088520Y0040385D01*
X0088589Y0040430D01*
X0088734Y0040642D01*
X0088785Y0040894D01*
X0088785Y0042418D01*
X0088741Y0042653D01*
X0088602Y0042869D01*
X0088520Y0042925D01*
X0088589Y0042970D01*
X0088734Y0043182D01*
X0088785Y0043434D01*
X0088785Y0044958D01*
X0088741Y0045193D01*
X0088602Y0045409D01*
X0088520Y0045465D01*
X0088589Y0045510D01*
X0088734Y0045722D01*
X0088785Y0045974D01*
X0088785Y0047498D01*
X0088741Y0047733D01*
X0088602Y0047949D01*
X0088520Y0048005D01*
X0088589Y0048050D01*
X0088734Y0048262D01*
X0088785Y0048514D01*
X0088785Y0050038D01*
X0088741Y0050273D01*
X0088602Y0050489D01*
X0088520Y0050545D01*
X0088589Y0050590D01*
X0088734Y0050802D01*
X0088785Y0051054D01*
X0088785Y0052578D01*
X0088741Y0052813D01*
X0088602Y0053029D01*
X0088520Y0053085D01*
X0088589Y0053130D01*
X0088734Y0053342D01*
X0088785Y0053594D01*
X0088785Y0055118D01*
X0088741Y0055353D01*
X0088602Y0055569D01*
X0088390Y0055714D01*
X0088138Y0055765D01*
X0086614Y0055765D01*
X0086379Y0055721D01*
X0086163Y0055582D01*
X0086107Y0055500D01*
X0086062Y0055569D01*
X0085850Y0055714D01*
X0085598Y0055765D01*
X0084074Y0055765D01*
X0083839Y0055721D01*
X0083623Y0055582D01*
X0083478Y0055370D01*
X0083427Y0055118D01*
X0083427Y0053594D01*
X0083471Y0053359D01*
X0083610Y0053143D01*
X0083692Y0053087D01*
X0083623Y0053042D01*
X0083478Y0052830D01*
X0083427Y0052578D01*
X0083427Y0051054D01*
X0083471Y0050819D01*
X0083610Y0050603D01*
X0083692Y0050547D01*
X0083623Y0050502D01*
X0083478Y0050290D01*
X0083427Y0050038D01*
X0083427Y0048514D01*
X0083471Y0048279D01*
X0083610Y0048063D01*
X0083692Y0048007D01*
X0083623Y0047962D01*
X0083478Y0047750D01*
X0083427Y0047498D01*
X0083427Y0045974D01*
X0083471Y0045739D01*
X0083610Y0045523D01*
X0083692Y0045467D01*
X0083623Y0045422D01*
X0083478Y0045210D01*
X0083427Y0044958D01*
X0083427Y0043434D01*
X0083471Y0043199D01*
X0083610Y0042983D01*
X0083692Y0042927D01*
X0083623Y0042882D01*
X0083478Y0042670D01*
X0083427Y0042418D01*
X0083427Y0040894D01*
X0083471Y0040659D01*
X0083610Y0040443D01*
X0083692Y0040387D01*
X0083623Y0040342D01*
X0083478Y0040130D01*
X0083431Y0039901D01*
X0082265Y0039901D01*
X0082265Y0066386D01*
X0082236Y0066529D01*
X0082205Y0066686D01*
X0082035Y0066941D01*
X0081655Y0067321D01*
X0081419Y0067479D01*
X0081419Y0068834D01*
X0081375Y0069069D01*
X0081236Y0069285D01*
X0081024Y0069430D01*
X0080772Y0069481D01*
X0079248Y0069481D01*
X0079013Y0069437D01*
X0078797Y0069298D01*
X0078734Y0069207D01*
X0077256Y0069207D01*
X0076822Y0069121D01*
X0076577Y0068957D01*
X0076453Y0068875D01*
X0075197Y0067619D01*
X0074951Y0067250D01*
X0074865Y0066816D01*
X0074865Y0064901D01*
X0073291Y0064901D01*
X0073291Y0066294D01*
X0073247Y0066529D01*
X0073108Y0066745D01*
X0073026Y0066801D01*
X0073095Y0066846D01*
X0073240Y0067058D01*
X0073291Y0067310D01*
X0073291Y0068834D01*
X0073247Y0069069D01*
X0073108Y0069285D01*
X0072896Y0069430D01*
X0072644Y0069481D01*
X0071120Y0069481D01*
X0070885Y0069437D01*
X0070669Y0069298D01*
X0070613Y0069216D01*
X0070568Y0069285D01*
X0070356Y0069430D01*
X0070104Y0069481D01*
X0068580Y0069481D01*
X0068345Y0069437D01*
X0068129Y0069298D01*
X0068073Y0069216D01*
X0068028Y0069285D01*
X0067816Y0069430D01*
X0067564Y0069481D01*
X0066040Y0069481D01*
X0065805Y0069437D01*
X0065589Y0069298D01*
X0065444Y0069086D01*
X0065393Y0068834D01*
X0065393Y0067310D01*
X0065437Y0067075D01*
X0065576Y0066859D01*
X0065658Y0066803D01*
X0065589Y0066758D01*
X0065444Y0066546D01*
X0065393Y0066294D01*
X0065393Y0064770D01*
X0065437Y0064535D01*
X0065576Y0064319D01*
X0065788Y0064174D01*
X0066040Y0064123D01*
X0067564Y0064123D01*
X0067799Y0064167D01*
X0068015Y0064306D01*
X0068071Y0064388D01*
X0068116Y0064319D01*
X0068328Y0064174D01*
X0068413Y0064156D01*
X0068507Y0064016D01*
X0068539Y0063967D01*
X0069156Y0063351D01*
X0056125Y0063351D01*
X0052105Y0067371D01*
X0051850Y0067541D01*
X0051550Y0067601D01*
X0045489Y0067601D01*
X0045489Y0068834D01*
X0055995Y0068834D01*
X0055995Y0067310D01*
X0056039Y0067075D01*
X0056178Y0066859D01*
X0056260Y0066803D01*
X0056191Y0066758D01*
X0056046Y0066546D01*
X0055995Y0066294D01*
X0055995Y0064770D01*
X0056039Y0064535D01*
X0056178Y0064319D01*
X0056390Y0064174D01*
X0056642Y0064123D01*
X0058166Y0064123D01*
X0058401Y0064167D01*
X0058617Y0064306D01*
X0058673Y0064388D01*
X0058718Y0064319D01*
X0058930Y0064174D01*
X0059182Y0064123D01*
X0060706Y0064123D01*
X0060941Y0064167D01*
X0061157Y0064306D01*
X0061302Y0064518D01*
X0061353Y0064770D01*
X0061353Y0066294D01*
X0061309Y0066529D01*
X0061170Y0066745D01*
X0061088Y0066801D01*
X0061157Y0066846D01*
X0061302Y0067058D01*
X0061353Y0067310D01*
X0061353Y0068834D01*
X0061309Y0069069D01*
X0061170Y0069285D01*
X0060958Y0069430D01*
X0060706Y0069481D01*
X0059182Y0069481D01*
X0058947Y0069437D01*
X0058731Y0069298D01*
X0058675Y0069216D01*
X0058630Y0069285D01*
X0058418Y0069430D01*
X0058166Y0069481D01*
X0056642Y0069481D01*
X0056407Y0069437D01*
X0056191Y0069298D01*
X0056046Y0069086D01*
X0055995Y0068834D01*
X0045489Y0068834D01*
X0045489Y0068848D01*
X0045445Y0069083D01*
X0045306Y0069299D01*
X0045094Y0069444D01*
X0044842Y0069495D01*
X0043318Y0069495D01*
X0043083Y0069451D01*
X0042867Y0069312D01*
X0042722Y0069100D01*
X0042671Y0068848D01*
X0042671Y0067324D01*
X0042715Y0067089D01*
X0042854Y0066873D01*
X0042936Y0066817D01*
X0042867Y0066772D01*
X0042811Y0066690D01*
X0042766Y0066759D01*
X0042554Y0066904D01*
X0042302Y0066955D01*
X0040778Y0066955D01*
X0040543Y0066911D01*
X0040327Y0066772D01*
X0040271Y0066690D01*
X0040226Y0066759D01*
X0040014Y0066904D01*
X0039762Y0066955D01*
X0038238Y0066955D01*
X0038003Y0066911D01*
X0037787Y0066772D01*
X0037731Y0066690D01*
X0037686Y0066759D01*
X0037474Y0066904D01*
X0037222Y0066955D01*
X0035698Y0066955D01*
X0035463Y0066911D01*
X0035247Y0066772D01*
X0035191Y0066690D01*
X0035146Y0066759D01*
X0034934Y0066904D01*
X0034682Y0066955D01*
X0033158Y0066955D01*
X0032923Y0066911D01*
X0032707Y0066772D01*
X0032651Y0066690D01*
X0032606Y0066759D01*
X0032394Y0066904D01*
X0032142Y0066955D01*
X0030618Y0066955D01*
X0030383Y0066911D01*
X0030167Y0066772D01*
X0030022Y0066560D01*
X0029971Y0066308D01*
X0029971Y0064784D01*
X0030015Y0064549D01*
X0030154Y0064333D01*
X0030245Y0064270D01*
X0030245Y0062451D01*
X0025908Y0062451D01*
X0025474Y0062365D01*
X0025105Y0062119D01*
X0024859Y0061750D01*
X0024773Y0061316D01*
X0024773Y0055379D01*
X0024695Y0055328D01*
X0024639Y0055246D01*
X0024594Y0055315D01*
X0024382Y0055460D01*
X0024130Y0055511D01*
X0022606Y0055511D01*
X0022371Y0055467D01*
X0022155Y0055328D01*
X0022092Y0055237D01*
X0019500Y0055237D01*
X0019066Y0055151D01*
X0018697Y0054905D01*
X0018451Y0054536D01*
X0018365Y0054102D01*
X0018365Y0019981D01*
X0018114Y0020085D01*
X0017702Y0020085D01*
X0017321Y0019928D01*
X0017030Y0019637D01*
X0016872Y0019257D01*
X0016872Y0018845D01*
X0000710Y0018845D01*
X0000710Y0022891D01*
X0002961Y0022891D01*
X0003133Y0022474D01*
X0003452Y0022154D01*
X0003869Y0021981D01*
X0004321Y0021981D01*
X0004738Y0022153D01*
X0005058Y0022472D01*
X0005231Y0022889D01*
X0005231Y0023341D01*
X0005059Y0023758D01*
X0004740Y0024078D01*
X0004323Y0024251D01*
X0003871Y0024251D01*
X0003454Y0024079D01*
X0003134Y0023760D01*
X0002961Y0023343D01*
X0002961Y0022891D01*
X0000710Y0022891D01*
X0000710Y0035828D01*
X0000771Y0035828D01*
X0000771Y0034304D01*
X0000815Y0034069D01*
X0000954Y0033853D01*
X0001166Y0033708D01*
X0001418Y0033657D01*
X0002942Y0033657D01*
X0003177Y0033701D01*
X0003393Y0033840D01*
X0003449Y0033922D01*
X0003494Y0033853D01*
X0003706Y0033708D01*
X0003958Y0033657D01*
X0005482Y0033657D01*
X0005717Y0033701D01*
X0005933Y0033840D01*
X0006078Y0034052D01*
X0006129Y0034304D01*
X0006129Y0035828D01*
X0006085Y0036063D01*
X0005946Y0036279D01*
X0005734Y0036424D01*
X0005482Y0036475D01*
X0003958Y0036475D01*
X0003723Y0036431D01*
X0003507Y0036292D01*
X0003451Y0036210D01*
X0003406Y0036279D01*
X0003194Y0036424D01*
X0002942Y0036475D01*
X0001418Y0036475D01*
X0001183Y0036431D01*
X0000967Y0036292D01*
X0000822Y0036080D01*
X0000771Y0035828D01*
X0000710Y0035828D01*
X0000710Y0041592D01*
X0011291Y0041592D01*
X0011291Y0040068D01*
X0011335Y0039833D01*
X0011474Y0039617D01*
X0011686Y0039472D01*
X0011938Y0039421D01*
X0013462Y0039421D01*
X0013697Y0039465D01*
X0013913Y0039604D01*
X0013969Y0039686D01*
X0014014Y0039617D01*
X0014226Y0039472D01*
X0014478Y0039421D01*
X0016002Y0039421D01*
X0016237Y0039465D01*
X0016453Y0039604D01*
X0016598Y0039817D01*
X0016649Y0040068D01*
X0016649Y0041592D01*
X0016605Y0041828D01*
X0016466Y0042044D01*
X0016375Y0042106D01*
X0016375Y0048438D01*
X0016422Y0048485D01*
X0016635Y0048997D01*
X0016635Y0049552D01*
X0016423Y0050065D01*
X0016031Y0050458D01*
X0015819Y0050546D01*
X0016029Y0050633D01*
X0016422Y0051025D01*
X0016635Y0051537D01*
X0016635Y0052092D01*
X0016423Y0052605D01*
X0016031Y0052998D01*
X0015519Y0053211D01*
X0014964Y0053211D01*
X0014451Y0052999D01*
X0014240Y0052789D01*
X0014031Y0052998D01*
X0013519Y0053211D01*
X0012964Y0053211D01*
X0012451Y0052999D01*
X0012058Y0052607D01*
X0011845Y0052095D01*
X0011845Y0051540D01*
X0012057Y0051027D01*
X0012449Y0050634D01*
X0012961Y0050421D01*
X0013516Y0050421D01*
X0014029Y0050633D01*
X0014240Y0050843D01*
X0014449Y0050634D01*
X0014661Y0050546D01*
X0014451Y0050459D01*
X0014058Y0050067D01*
X0013845Y0049555D01*
X0013845Y0049000D01*
X0014057Y0048487D01*
X0014105Y0048438D01*
X0014105Y0042107D01*
X0014027Y0042057D01*
X0013971Y0041975D01*
X0013926Y0042044D01*
X0013714Y0042189D01*
X0013462Y0042240D01*
X0011938Y0042240D01*
X0011703Y0042196D01*
X0011487Y0042057D01*
X0011342Y0041844D01*
X0011291Y0041592D01*
X0000710Y0041592D01*
X0000710Y0061023D01*
X0011291Y0061023D01*
X0011291Y0059499D01*
X0011335Y0059264D01*
X0011474Y0059048D01*
X0011686Y0058903D01*
X0011938Y0058852D01*
X0013462Y0058852D01*
X0013697Y0058896D01*
X0013913Y0059035D01*
X0013969Y0059117D01*
X0014014Y0059048D01*
X0014226Y0058903D01*
X0014478Y0058852D01*
X0016002Y0058852D01*
X0016237Y0058896D01*
X0016453Y0059035D01*
X0016598Y0059248D01*
X0016649Y0059499D01*
X0016649Y0061023D01*
X0016605Y0061259D01*
X0016466Y0061475D01*
X0016254Y0061620D01*
X0016002Y0061671D01*
X0014478Y0061671D01*
X0014243Y0061627D01*
X0014027Y0061488D01*
X0013971Y0061406D01*
X0013926Y0061475D01*
X0013714Y0061620D01*
X0013462Y0061671D01*
X0011938Y0061671D01*
X0011703Y0061627D01*
X0011487Y0061488D01*
X0011342Y0061275D01*
X0011291Y0061023D01*
X0000710Y0061023D01*
X0000710Y0069902D01*
X0090222Y0069902D01*
X0090222Y0000710D01*
G36*
X0034913Y0059944D02*
X0034913Y0058420D01*
X0034957Y0058185D01*
X0035096Y0057969D01*
X0035178Y0057913D01*
X0035109Y0057868D01*
X0034964Y0057656D01*
X0034913Y0057404D01*
X0034913Y0055880D01*
X0034957Y0055645D01*
X0035096Y0055429D01*
X0035308Y0055284D01*
X0035560Y0055233D01*
X0037084Y0055233D01*
X0037319Y0055277D01*
X0037535Y0055416D01*
X0037591Y0055498D01*
X0037636Y0055429D01*
X0037848Y0055284D01*
X0038100Y0055233D01*
X0039624Y0055233D01*
X0039859Y0055277D01*
X0040075Y0055416D01*
X0040131Y0055498D01*
X0040176Y0055429D01*
X0040388Y0055284D01*
X0040640Y0055233D01*
X0042164Y0055233D01*
X0042399Y0055277D01*
X0042615Y0055416D01*
X0042671Y0055498D01*
X0042716Y0055429D01*
X0042928Y0055284D01*
X0043180Y0055233D01*
X0044704Y0055233D01*
X0044939Y0055277D01*
X0045155Y0055416D01*
X0045211Y0055498D01*
X0045256Y0055429D01*
X0045468Y0055284D01*
X0045720Y0055233D01*
X0047244Y0055233D01*
X0047479Y0055277D01*
X0047695Y0055416D01*
X0047751Y0055498D01*
X0047796Y0055429D01*
X0048008Y0055284D01*
X0048260Y0055233D01*
X0049784Y0055233D01*
X0050019Y0055277D01*
X0050235Y0055416D01*
X0050291Y0055498D01*
X0050336Y0055429D01*
X0050548Y0055284D01*
X0050800Y0055233D01*
X0052324Y0055233D01*
X0052559Y0055277D01*
X0052775Y0055416D01*
X0052831Y0055498D01*
X0052876Y0055429D01*
X0053088Y0055284D01*
X0053340Y0055233D01*
X0054864Y0055233D01*
X0055099Y0055277D01*
X0055315Y0055416D01*
X0055371Y0055498D01*
X0055416Y0055429D01*
X0055628Y0055284D01*
X0055880Y0055233D01*
X0057404Y0055233D01*
X0057639Y0055277D01*
X0057855Y0055416D01*
X0057911Y0055498D01*
X0057956Y0055429D01*
X0058168Y0055284D01*
X0058420Y0055233D01*
X0059944Y0055233D01*
X0060179Y0055277D01*
X0060395Y0055416D01*
X0060451Y0055498D01*
X0060496Y0055429D01*
X0060708Y0055284D01*
X0060960Y0055233D01*
X0062484Y0055233D01*
X0062719Y0055277D01*
X0062935Y0055416D01*
X0062991Y0055498D01*
X0063036Y0055429D01*
X0063248Y0055284D01*
X0063500Y0055233D01*
X0064561Y0055233D01*
X0077041Y0042753D01*
X0077041Y0008562D01*
X0076988Y0008562D01*
X0076752Y0008517D01*
X0076536Y0008378D01*
X0076391Y0008166D01*
X0076340Y0007914D01*
X0076340Y0006238D01*
X0076385Y0006002D01*
X0076524Y0005786D01*
X0076619Y0005721D01*
X0072734Y0005721D01*
X0072816Y0005774D01*
X0072961Y0005986D01*
X0073012Y0006238D01*
X0073012Y0007914D01*
X0072967Y0008150D01*
X0072828Y0008366D01*
X0072616Y0008511D01*
X0072364Y0008562D01*
X0070688Y0008562D01*
X0070452Y0008517D01*
X0070236Y0008378D01*
X0070091Y0008166D01*
X0070040Y0007914D01*
X0070040Y0006238D01*
X0070085Y0006002D01*
X0070224Y0005786D01*
X0070319Y0005721D01*
X0067835Y0005721D01*
X0066866Y0006691D01*
X0066866Y0007914D01*
X0066844Y0008031D01*
X0069350Y0008031D01*
X0069784Y0008117D01*
X0070153Y0008363D01*
X0070399Y0008732D01*
X0070485Y0009166D01*
X0070485Y0010159D01*
X0070555Y0010204D01*
X0070700Y0010416D01*
X0070751Y0010668D01*
X0070751Y0012192D01*
X0070707Y0012427D01*
X0070568Y0012643D01*
X0070486Y0012699D01*
X0070555Y0012744D01*
X0070700Y0012956D01*
X0070751Y0013208D01*
X0070751Y0014732D01*
X0073013Y0014732D01*
X0073013Y0013208D01*
X0073057Y0012973D01*
X0073196Y0012757D01*
X0073278Y0012701D01*
X0073209Y0012656D01*
X0073064Y0012444D01*
X0073013Y0012192D01*
X0073013Y0010668D01*
X0073057Y0010433D01*
X0073196Y0010217D01*
X0073408Y0010072D01*
X0073660Y0010021D01*
X0075184Y0010021D01*
X0075419Y0010065D01*
X0075635Y0010204D01*
X0075780Y0010416D01*
X0075831Y0010668D01*
X0075831Y0012192D01*
X0075787Y0012427D01*
X0075648Y0012643D01*
X0075566Y0012699D01*
X0075635Y0012744D01*
X0075780Y0012956D01*
X0075831Y0013208D01*
X0075831Y0014732D01*
X0075787Y0014967D01*
X0075648Y0015183D01*
X0075436Y0015328D01*
X0075184Y0015379D01*
X0073660Y0015379D01*
X0073425Y0015335D01*
X0073209Y0015196D01*
X0073064Y0014984D01*
X0073013Y0014732D01*
X0070751Y0014732D01*
X0070707Y0014967D01*
X0070568Y0015183D01*
X0070356Y0015328D01*
X0070127Y0015375D01*
X0070127Y0020939D01*
X0070197Y0021009D01*
X0070355Y0021389D01*
X0070355Y0021801D01*
X0070198Y0022182D01*
X0069907Y0022473D01*
X0069527Y0022631D01*
X0069115Y0022631D01*
X0068734Y0022474D01*
X0068443Y0022183D01*
X0068285Y0021803D01*
X0068285Y0021391D01*
X0068442Y0021010D01*
X0068557Y0020895D01*
X0068557Y0015375D01*
X0068345Y0015335D01*
X0068129Y0015196D01*
X0068073Y0015114D01*
X0068028Y0015183D01*
X0067816Y0015328D01*
X0067564Y0015379D01*
X0066040Y0015379D01*
X0065805Y0015335D01*
X0065589Y0015196D01*
X0065533Y0015114D01*
X0065488Y0015183D01*
X0065276Y0015328D01*
X0065024Y0015379D01*
X0063500Y0015379D01*
X0063265Y0015335D01*
X0063049Y0015196D01*
X0062993Y0015114D01*
X0062948Y0015183D01*
X0062736Y0015328D01*
X0062484Y0015379D01*
X0060960Y0015379D01*
X0060725Y0015335D01*
X0060509Y0015196D01*
X0060453Y0015114D01*
X0060408Y0015183D01*
X0060196Y0015328D01*
X0059944Y0015379D01*
X0058420Y0015379D01*
X0058185Y0015335D01*
X0057969Y0015196D01*
X0057913Y0015114D01*
X0057868Y0015183D01*
X0057656Y0015328D01*
X0057404Y0015379D01*
X0055880Y0015379D01*
X0055645Y0015335D01*
X0055429Y0015196D01*
X0055373Y0015114D01*
X0055328Y0015183D01*
X0055116Y0015328D01*
X0054864Y0015379D01*
X0053340Y0015379D01*
X0053105Y0015335D01*
X0052889Y0015196D01*
X0052833Y0015114D01*
X0052788Y0015183D01*
X0052576Y0015328D01*
X0052324Y0015379D01*
X0050800Y0015379D01*
X0050565Y0015335D01*
X0050349Y0015196D01*
X0050293Y0015114D01*
X0050248Y0015183D01*
X0050036Y0015328D01*
X0049784Y0015379D01*
X0048260Y0015379D01*
X0048025Y0015335D01*
X0047809Y0015196D01*
X0047753Y0015114D01*
X0047708Y0015183D01*
X0047496Y0015328D01*
X0047244Y0015379D01*
X0045720Y0015379D01*
X0045485Y0015335D01*
X0045269Y0015196D01*
X0045213Y0015114D01*
X0045168Y0015183D01*
X0044956Y0015328D01*
X0044704Y0015379D01*
X0043180Y0015379D01*
X0042945Y0015335D01*
X0042729Y0015196D01*
X0042673Y0015114D01*
X0042628Y0015183D01*
X0042416Y0015328D01*
X0042164Y0015379D01*
X0040640Y0015379D01*
X0040405Y0015335D01*
X0040189Y0015196D01*
X0040044Y0014984D01*
X0039993Y0014732D01*
X0039993Y0013208D01*
X0040037Y0012973D01*
X0040176Y0012757D01*
X0040258Y0012701D01*
X0040189Y0012656D01*
X0040044Y0012444D01*
X0039993Y0012192D01*
X0039993Y0010668D01*
X0040037Y0010433D01*
X0040122Y0010301D01*
X0037602Y0010301D01*
X0037680Y0010416D01*
X0037731Y0010668D01*
X0037731Y0012192D01*
X0037687Y0012427D01*
X0037548Y0012643D01*
X0037466Y0012699D01*
X0037535Y0012744D01*
X0037680Y0012956D01*
X0037731Y0013208D01*
X0037731Y0014732D01*
X0037687Y0014967D01*
X0037548Y0015183D01*
X0037336Y0015328D01*
X0037084Y0015379D01*
X0035560Y0015379D01*
X0035325Y0015335D01*
X0035109Y0015196D01*
X0034964Y0014984D01*
X0034913Y0014732D01*
X0034913Y0013208D01*
X0034957Y0012973D01*
X0035096Y0012757D01*
X0035178Y0012701D01*
X0035109Y0012656D01*
X0034964Y0012444D01*
X0034913Y0012192D01*
X0034913Y0010668D01*
X0034957Y0010433D01*
X0035042Y0010301D01*
X0031750Y0010301D01*
X0031316Y0010215D01*
X0030947Y0009969D01*
X0028154Y0007175D01*
X0027158Y0007175D01*
X0026923Y0007131D01*
X0026707Y0006992D01*
X0026651Y0006910D01*
X0026606Y0006979D01*
X0026394Y0007124D01*
X0026142Y0007175D01*
X0024618Y0007175D01*
X0024383Y0007131D01*
X0024167Y0006992D01*
X0024104Y0006901D01*
X0020635Y0006901D01*
X0020635Y0049784D01*
X0021959Y0049784D01*
X0021959Y0048260D01*
X0022003Y0048025D01*
X0022142Y0047809D01*
X0022224Y0047753D01*
X0022155Y0047708D01*
X0022010Y0047496D01*
X0021959Y0047244D01*
X0021959Y0045720D01*
X0022003Y0045485D01*
X0022142Y0045269D01*
X0022224Y0045213D01*
X0022155Y0045168D01*
X0022010Y0044956D01*
X0021959Y0044704D01*
X0021959Y0043180D01*
X0022003Y0042945D01*
X0022142Y0042729D01*
X0022224Y0042673D01*
X0022155Y0042628D01*
X0022010Y0042416D01*
X0021959Y0042164D01*
X0021959Y0040640D01*
X0022003Y0040405D01*
X0022142Y0040189D01*
X0022224Y0040133D01*
X0022155Y0040088D01*
X0022010Y0039876D01*
X0021959Y0039624D01*
X0021959Y0038100D01*
X0022003Y0037865D01*
X0022142Y0037649D01*
X0022224Y0037593D01*
X0022155Y0037548D01*
X0022010Y0037336D01*
X0021959Y0037084D01*
X0021959Y0035560D01*
X0022003Y0035325D01*
X0022142Y0035109D01*
X0022224Y0035053D01*
X0022155Y0035008D01*
X0022010Y0034796D01*
X0021959Y0034544D01*
X0021959Y0033020D01*
X0022003Y0032785D01*
X0022142Y0032569D01*
X0022224Y0032513D01*
X0022155Y0032468D01*
X0022010Y0032256D01*
X0021959Y0032004D01*
X0021959Y0030480D01*
X0022003Y0030245D01*
X0022142Y0030029D01*
X0022224Y0029973D01*
X0022155Y0029928D01*
X0022010Y0029716D01*
X0021959Y0029464D01*
X0021959Y0027940D01*
X0022003Y0027705D01*
X0022142Y0027489D01*
X0022224Y0027433D01*
X0022155Y0027388D01*
X0022010Y0027176D01*
X0021959Y0026924D01*
X0021959Y0025400D01*
X0022003Y0025165D01*
X0022142Y0024949D01*
X0022224Y0024893D01*
X0022155Y0024848D01*
X0022010Y0024636D01*
X0021959Y0024384D01*
X0021959Y0022860D01*
X0022003Y0022625D01*
X0022142Y0022409D01*
X0022224Y0022353D01*
X0022155Y0022308D01*
X0022010Y0022096D01*
X0021959Y0021844D01*
X0021959Y0020320D01*
X0022003Y0020085D01*
X0022142Y0019869D01*
X0022224Y0019813D01*
X0022155Y0019768D01*
X0022010Y0019556D01*
X0021959Y0019304D01*
X0021959Y0017780D01*
X0022003Y0017545D01*
X0022142Y0017329D01*
X0022224Y0017273D01*
X0022155Y0017228D01*
X0022010Y0017016D01*
X0021959Y0016764D01*
X0021959Y0015240D01*
X0022003Y0015005D01*
X0022142Y0014789D01*
X0022354Y0014644D01*
X0022606Y0014593D01*
X0024130Y0014593D01*
X0024365Y0014637D01*
X0024581Y0014776D01*
X0024637Y0014858D01*
X0024682Y0014789D01*
X0024894Y0014644D01*
X0025146Y0014593D01*
X0026670Y0014593D01*
X0026905Y0014637D01*
X0027121Y0014776D01*
X0027266Y0014988D01*
X0027317Y0015240D01*
X0027317Y0016764D01*
X0027273Y0016999D01*
X0027134Y0017215D01*
X0027052Y0017271D01*
X0027121Y0017316D01*
X0027266Y0017528D01*
X0027317Y0017780D01*
X0027317Y0019304D01*
X0027273Y0019539D01*
X0027134Y0019755D01*
X0027052Y0019811D01*
X0027121Y0019856D01*
X0027266Y0020068D01*
X0027317Y0020320D01*
X0027317Y0021844D01*
X0027273Y0022079D01*
X0027134Y0022295D01*
X0027052Y0022351D01*
X0027121Y0022396D01*
X0027266Y0022608D01*
X0027317Y0022860D01*
X0027317Y0024384D01*
X0027273Y0024619D01*
X0027134Y0024835D01*
X0027052Y0024891D01*
X0027121Y0024936D01*
X0027266Y0025148D01*
X0027317Y0025400D01*
X0027317Y0026924D01*
X0027273Y0027159D01*
X0027134Y0027375D01*
X0027052Y0027431D01*
X0027121Y0027476D01*
X0027266Y0027688D01*
X0027317Y0027940D01*
X0027317Y0029464D01*
X0027273Y0029699D01*
X0027134Y0029915D01*
X0027052Y0029971D01*
X0027121Y0030016D01*
X0027266Y0030228D01*
X0027317Y0030480D01*
X0027317Y0032004D01*
X0027273Y0032239D01*
X0027134Y0032455D01*
X0027052Y0032511D01*
X0027121Y0032556D01*
X0027266Y0032768D01*
X0027317Y0033020D01*
X0027317Y0034115D01*
X0067004Y0034115D01*
X0067214Y0033605D01*
X0067604Y0033215D01*
X0068113Y0033004D01*
X0068664Y0033003D01*
X0069173Y0033214D01*
X0069563Y0033603D01*
X0069775Y0034112D01*
X0069775Y0034663D01*
X0069565Y0035173D01*
X0069175Y0035563D01*
X0068666Y0035774D01*
X0068115Y0035775D01*
X0067606Y0035564D01*
X0067216Y0035175D01*
X0067004Y0034666D01*
X0067004Y0034115D01*
X0027317Y0034115D01*
X0027317Y0034544D01*
X0027273Y0034779D01*
X0027134Y0034995D01*
X0027052Y0035051D01*
X0027121Y0035096D01*
X0027266Y0035308D01*
X0027317Y0035560D01*
X0027317Y0037084D01*
X0027273Y0037319D01*
X0027134Y0037535D01*
X0027052Y0037591D01*
X0027121Y0037636D01*
X0027266Y0037848D01*
X0027317Y0038100D01*
X0027317Y0038997D01*
X0067004Y0038997D01*
X0067214Y0038487D01*
X0067604Y0038097D01*
X0068113Y0037886D01*
X0068664Y0037885D01*
X0069173Y0038096D01*
X0069563Y0038485D01*
X0069775Y0038994D01*
X0069775Y0039545D01*
X0069565Y0040055D01*
X0069175Y0040445D01*
X0068666Y0040656D01*
X0068115Y0040657D01*
X0067606Y0040446D01*
X0067216Y0040057D01*
X0067004Y0039548D01*
X0067004Y0038997D01*
X0027317Y0038997D01*
X0027317Y0039624D01*
X0027273Y0039859D01*
X0027134Y0040075D01*
X0027052Y0040131D01*
X0027121Y0040176D01*
X0027266Y0040388D01*
X0027317Y0040640D01*
X0027317Y0042164D01*
X0027273Y0042399D01*
X0027134Y0042615D01*
X0027109Y0042633D01*
X0062873Y0042633D01*
X0063045Y0042215D01*
X0063353Y0041907D01*
X0063046Y0041601D01*
X0062873Y0041184D01*
X0062873Y0040733D01*
X0063045Y0040315D01*
X0063364Y0039996D01*
X0063781Y0039823D01*
X0064233Y0039822D01*
X0064650Y0039995D01*
X0064970Y0040314D01*
X0065143Y0040731D01*
X0065143Y0041182D01*
X0064971Y0041600D01*
X0064663Y0041908D01*
X0064970Y0042214D01*
X0065143Y0042631D01*
X0065143Y0043082D01*
X0064971Y0043500D01*
X0064652Y0043819D01*
X0064235Y0043992D01*
X0063783Y0043993D01*
X0063366Y0043820D01*
X0063046Y0043501D01*
X0062873Y0043084D01*
X0062873Y0042633D01*
X0027109Y0042633D01*
X0027052Y0042671D01*
X0027121Y0042716D01*
X0027266Y0042928D01*
X0027317Y0043180D01*
X0027317Y0044704D01*
X0027273Y0044939D01*
X0027134Y0045155D01*
X0027052Y0045211D01*
X0027121Y0045256D01*
X0027266Y0045468D01*
X0027317Y0045720D01*
X0027317Y0047244D01*
X0027273Y0047479D01*
X0027134Y0047695D01*
X0027052Y0047751D01*
X0027121Y0047796D01*
X0027266Y0048008D01*
X0027317Y0048260D01*
X0027317Y0049784D01*
X0027273Y0050019D01*
X0027134Y0050235D01*
X0026922Y0050380D01*
X0026670Y0050431D01*
X0025146Y0050431D01*
X0024911Y0050387D01*
X0024695Y0050248D01*
X0024639Y0050166D01*
X0024594Y0050235D01*
X0024382Y0050380D01*
X0024130Y0050431D01*
X0022606Y0050431D01*
X0022371Y0050387D01*
X0022155Y0050248D01*
X0022010Y0050036D01*
X0021959Y0049784D01*
X0020635Y0049784D01*
X0020635Y0052967D01*
X0022091Y0052967D01*
X0022142Y0052889D01*
X0022354Y0052744D01*
X0022606Y0052693D01*
X0024130Y0052693D01*
X0024365Y0052737D01*
X0024581Y0052876D01*
X0024637Y0052958D01*
X0024682Y0052889D01*
X0024894Y0052744D01*
X0025146Y0052693D01*
X0026670Y0052693D01*
X0026905Y0052737D01*
X0027121Y0052876D01*
X0027266Y0053088D01*
X0027317Y0053340D01*
X0027317Y0054864D01*
X0027273Y0055099D01*
X0027134Y0055315D01*
X0027043Y0055378D01*
X0027043Y0060181D01*
X0034961Y0060181D01*
X0034913Y0059944D01*
X0034913Y0059944D01*
G37*
X0034913Y0059944D02*
X0034913Y0058420D01*
X0034957Y0058185D01*
X0035096Y0057969D01*
X0035178Y0057913D01*
X0035109Y0057868D01*
X0034964Y0057656D01*
X0034913Y0057404D01*
X0034913Y0055880D01*
X0034957Y0055645D01*
X0035096Y0055429D01*
X0035308Y0055284D01*
X0035560Y0055233D01*
X0037084Y0055233D01*
X0037319Y0055277D01*
X0037535Y0055416D01*
X0037591Y0055498D01*
X0037636Y0055429D01*
X0037848Y0055284D01*
X0038100Y0055233D01*
X0039624Y0055233D01*
X0039859Y0055277D01*
X0040075Y0055416D01*
X0040131Y0055498D01*
X0040176Y0055429D01*
X0040388Y0055284D01*
X0040640Y0055233D01*
X0042164Y0055233D01*
X0042399Y0055277D01*
X0042615Y0055416D01*
X0042671Y0055498D01*
X0042716Y0055429D01*
X0042928Y0055284D01*
X0043180Y0055233D01*
X0044704Y0055233D01*
X0044939Y0055277D01*
X0045155Y0055416D01*
X0045211Y0055498D01*
X0045256Y0055429D01*
X0045468Y0055284D01*
X0045720Y0055233D01*
X0047244Y0055233D01*
X0047479Y0055277D01*
X0047695Y0055416D01*
X0047751Y0055498D01*
X0047796Y0055429D01*
X0048008Y0055284D01*
X0048260Y0055233D01*
X0049784Y0055233D01*
X0050019Y0055277D01*
X0050235Y0055416D01*
X0050291Y0055498D01*
X0050336Y0055429D01*
X0050548Y0055284D01*
X0050800Y0055233D01*
X0052324Y0055233D01*
X0052559Y0055277D01*
X0052775Y0055416D01*
X0052831Y0055498D01*
X0052876Y0055429D01*
X0053088Y0055284D01*
X0053340Y0055233D01*
X0054864Y0055233D01*
X0055099Y0055277D01*
X0055315Y0055416D01*
X0055371Y0055498D01*
X0055416Y0055429D01*
X0055628Y0055284D01*
X0055880Y0055233D01*
X0057404Y0055233D01*
X0057639Y0055277D01*
X0057855Y0055416D01*
X0057911Y0055498D01*
X0057956Y0055429D01*
X0058168Y0055284D01*
X0058420Y0055233D01*
X0059944Y0055233D01*
X0060179Y0055277D01*
X0060395Y0055416D01*
X0060451Y0055498D01*
X0060496Y0055429D01*
X0060708Y0055284D01*
X0060960Y0055233D01*
X0062484Y0055233D01*
X0062719Y0055277D01*
X0062935Y0055416D01*
X0062991Y0055498D01*
X0063036Y0055429D01*
X0063248Y0055284D01*
X0063500Y0055233D01*
X0064561Y0055233D01*
X0077041Y0042753D01*
X0077041Y0008562D01*
X0076988Y0008562D01*
X0076752Y0008517D01*
X0076536Y0008378D01*
X0076391Y0008166D01*
X0076340Y0007914D01*
X0076340Y0006238D01*
X0076385Y0006002D01*
X0076524Y0005786D01*
X0076619Y0005721D01*
X0072734Y0005721D01*
X0072816Y0005774D01*
X0072961Y0005986D01*
X0073012Y0006238D01*
X0073012Y0007914D01*
X0072967Y0008150D01*
X0072828Y0008366D01*
X0072616Y0008511D01*
X0072364Y0008562D01*
X0070688Y0008562D01*
X0070452Y0008517D01*
X0070236Y0008378D01*
X0070091Y0008166D01*
X0070040Y0007914D01*
X0070040Y0006238D01*
X0070085Y0006002D01*
X0070224Y0005786D01*
X0070319Y0005721D01*
X0067835Y0005721D01*
X0066866Y0006691D01*
X0066866Y0007914D01*
X0066844Y0008031D01*
X0069350Y0008031D01*
X0069784Y0008117D01*
X0070153Y0008363D01*
X0070399Y0008732D01*
X0070485Y0009166D01*
X0070485Y0010159D01*
X0070555Y0010204D01*
X0070700Y0010416D01*
X0070751Y0010668D01*
X0070751Y0012192D01*
X0070707Y0012427D01*
X0070568Y0012643D01*
X0070486Y0012699D01*
X0070555Y0012744D01*
X0070700Y0012956D01*
X0070751Y0013208D01*
X0070751Y0014732D01*
X0073013Y0014732D01*
X0073013Y0013208D01*
X0073057Y0012973D01*
X0073196Y0012757D01*
X0073278Y0012701D01*
X0073209Y0012656D01*
X0073064Y0012444D01*
X0073013Y0012192D01*
X0073013Y0010668D01*
X0073057Y0010433D01*
X0073196Y0010217D01*
X0073408Y0010072D01*
X0073660Y0010021D01*
X0075184Y0010021D01*
X0075419Y0010065D01*
X0075635Y0010204D01*
X0075780Y0010416D01*
X0075831Y0010668D01*
X0075831Y0012192D01*
X0075787Y0012427D01*
X0075648Y0012643D01*
X0075566Y0012699D01*
X0075635Y0012744D01*
X0075780Y0012956D01*
X0075831Y0013208D01*
X0075831Y0014732D01*
X0075787Y0014967D01*
X0075648Y0015183D01*
X0075436Y0015328D01*
X0075184Y0015379D01*
X0073660Y0015379D01*
X0073425Y0015335D01*
X0073209Y0015196D01*
X0073064Y0014984D01*
X0073013Y0014732D01*
X0070751Y0014732D01*
X0070707Y0014967D01*
X0070568Y0015183D01*
X0070356Y0015328D01*
X0070127Y0015375D01*
X0070127Y0020939D01*
X0070197Y0021009D01*
X0070355Y0021389D01*
X0070355Y0021801D01*
X0070198Y0022182D01*
X0069907Y0022473D01*
X0069527Y0022631D01*
X0069115Y0022631D01*
X0068734Y0022474D01*
X0068443Y0022183D01*
X0068285Y0021803D01*
X0068285Y0021391D01*
X0068442Y0021010D01*
X0068557Y0020895D01*
X0068557Y0015375D01*
X0068345Y0015335D01*
X0068129Y0015196D01*
X0068073Y0015114D01*
X0068028Y0015183D01*
X0067816Y0015328D01*
X0067564Y0015379D01*
X0066040Y0015379D01*
X0065805Y0015335D01*
X0065589Y0015196D01*
X0065533Y0015114D01*
X0065488Y0015183D01*
X0065276Y0015328D01*
X0065024Y0015379D01*
X0063500Y0015379D01*
X0063265Y0015335D01*
X0063049Y0015196D01*
X0062993Y0015114D01*
X0062948Y0015183D01*
X0062736Y0015328D01*
X0062484Y0015379D01*
X0060960Y0015379D01*
X0060725Y0015335D01*
X0060509Y0015196D01*
X0060453Y0015114D01*
X0060408Y0015183D01*
X0060196Y0015328D01*
X0059944Y0015379D01*
X0058420Y0015379D01*
X0058185Y0015335D01*
X0057969Y0015196D01*
X0057913Y0015114D01*
X0057868Y0015183D01*
X0057656Y0015328D01*
X0057404Y0015379D01*
X0055880Y0015379D01*
X0055645Y0015335D01*
X0055429Y0015196D01*
X0055373Y0015114D01*
X0055328Y0015183D01*
X0055116Y0015328D01*
X0054864Y0015379D01*
X0053340Y0015379D01*
X0053105Y0015335D01*
X0052889Y0015196D01*
X0052833Y0015114D01*
X0052788Y0015183D01*
X0052576Y0015328D01*
X0052324Y0015379D01*
X0050800Y0015379D01*
X0050565Y0015335D01*
X0050349Y0015196D01*
X0050293Y0015114D01*
X0050248Y0015183D01*
X0050036Y0015328D01*
X0049784Y0015379D01*
X0048260Y0015379D01*
X0048025Y0015335D01*
X0047809Y0015196D01*
X0047753Y0015114D01*
X0047708Y0015183D01*
X0047496Y0015328D01*
X0047244Y0015379D01*
X0045720Y0015379D01*
X0045485Y0015335D01*
X0045269Y0015196D01*
X0045213Y0015114D01*
X0045168Y0015183D01*
X0044956Y0015328D01*
X0044704Y0015379D01*
X0043180Y0015379D01*
X0042945Y0015335D01*
X0042729Y0015196D01*
X0042673Y0015114D01*
X0042628Y0015183D01*
X0042416Y0015328D01*
X0042164Y0015379D01*
X0040640Y0015379D01*
X0040405Y0015335D01*
X0040189Y0015196D01*
X0040044Y0014984D01*
X0039993Y0014732D01*
X0039993Y0013208D01*
X0040037Y0012973D01*
X0040176Y0012757D01*
X0040258Y0012701D01*
X0040189Y0012656D01*
X0040044Y0012444D01*
X0039993Y0012192D01*
X0039993Y0010668D01*
X0040037Y0010433D01*
X0040122Y0010301D01*
X0037602Y0010301D01*
X0037680Y0010416D01*
X0037731Y0010668D01*
X0037731Y0012192D01*
X0037687Y0012427D01*
X0037548Y0012643D01*
X0037466Y0012699D01*
X0037535Y0012744D01*
X0037680Y0012956D01*
X0037731Y0013208D01*
X0037731Y0014732D01*
X0037687Y0014967D01*
X0037548Y0015183D01*
X0037336Y0015328D01*
X0037084Y0015379D01*
X0035560Y0015379D01*
X0035325Y0015335D01*
X0035109Y0015196D01*
X0034964Y0014984D01*
X0034913Y0014732D01*
X0034913Y0013208D01*
X0034957Y0012973D01*
X0035096Y0012757D01*
X0035178Y0012701D01*
X0035109Y0012656D01*
X0034964Y0012444D01*
X0034913Y0012192D01*
X0034913Y0010668D01*
X0034957Y0010433D01*
X0035042Y0010301D01*
X0031750Y0010301D01*
X0031316Y0010215D01*
X0030947Y0009969D01*
X0028154Y0007175D01*
X0027158Y0007175D01*
X0026923Y0007131D01*
X0026707Y0006992D01*
X0026651Y0006910D01*
X0026606Y0006979D01*
X0026394Y0007124D01*
X0026142Y0007175D01*
X0024618Y0007175D01*
X0024383Y0007131D01*
X0024167Y0006992D01*
X0024104Y0006901D01*
X0020635Y0006901D01*
X0020635Y0049784D01*
X0021959Y0049784D01*
X0021959Y0048260D01*
X0022003Y0048025D01*
X0022142Y0047809D01*
X0022224Y0047753D01*
X0022155Y0047708D01*
X0022010Y0047496D01*
X0021959Y0047244D01*
X0021959Y0045720D01*
X0022003Y0045485D01*
X0022142Y0045269D01*
X0022224Y0045213D01*
X0022155Y0045168D01*
X0022010Y0044956D01*
X0021959Y0044704D01*
X0021959Y0043180D01*
X0022003Y0042945D01*
X0022142Y0042729D01*
X0022224Y0042673D01*
X0022155Y0042628D01*
X0022010Y0042416D01*
X0021959Y0042164D01*
X0021959Y0040640D01*
X0022003Y0040405D01*
X0022142Y0040189D01*
X0022224Y0040133D01*
X0022155Y0040088D01*
X0022010Y0039876D01*
X0021959Y0039624D01*
X0021959Y0038100D01*
X0022003Y0037865D01*
X0022142Y0037649D01*
X0022224Y0037593D01*
X0022155Y0037548D01*
X0022010Y0037336D01*
X0021959Y0037084D01*
X0021959Y0035560D01*
X0022003Y0035325D01*
X0022142Y0035109D01*
X0022224Y0035053D01*
X0022155Y0035008D01*
X0022010Y0034796D01*
X0021959Y0034544D01*
X0021959Y0033020D01*
X0022003Y0032785D01*
X0022142Y0032569D01*
X0022224Y0032513D01*
X0022155Y0032468D01*
X0022010Y0032256D01*
X0021959Y0032004D01*
X0021959Y0030480D01*
X0022003Y0030245D01*
X0022142Y0030029D01*
X0022224Y0029973D01*
X0022155Y0029928D01*
X0022010Y0029716D01*
X0021959Y0029464D01*
X0021959Y0027940D01*
X0022003Y0027705D01*
X0022142Y0027489D01*
X0022224Y0027433D01*
X0022155Y0027388D01*
X0022010Y0027176D01*
X0021959Y0026924D01*
X0021959Y0025400D01*
X0022003Y0025165D01*
X0022142Y0024949D01*
X0022224Y0024893D01*
X0022155Y0024848D01*
X0022010Y0024636D01*
X0021959Y0024384D01*
X0021959Y0022860D01*
X0022003Y0022625D01*
X0022142Y0022409D01*
X0022224Y0022353D01*
X0022155Y0022308D01*
X0022010Y0022096D01*
X0021959Y0021844D01*
X0021959Y0020320D01*
X0022003Y0020085D01*
X0022142Y0019869D01*
X0022224Y0019813D01*
X0022155Y0019768D01*
X0022010Y0019556D01*
X0021959Y0019304D01*
X0021959Y0017780D01*
X0022003Y0017545D01*
X0022142Y0017329D01*
X0022224Y0017273D01*
X0022155Y0017228D01*
X0022010Y0017016D01*
X0021959Y0016764D01*
X0021959Y0015240D01*
X0022003Y0015005D01*
X0022142Y0014789D01*
X0022354Y0014644D01*
X0022606Y0014593D01*
X0024130Y0014593D01*
X0024365Y0014637D01*
X0024581Y0014776D01*
X0024637Y0014858D01*
X0024682Y0014789D01*
X0024894Y0014644D01*
X0025146Y0014593D01*
X0026670Y0014593D01*
X0026905Y0014637D01*
X0027121Y0014776D01*
X0027266Y0014988D01*
X0027317Y0015240D01*
X0027317Y0016764D01*
X0027273Y0016999D01*
X0027134Y0017215D01*
X0027052Y0017271D01*
X0027121Y0017316D01*
X0027266Y0017528D01*
X0027317Y0017780D01*
X0027317Y0019304D01*
X0027273Y0019539D01*
X0027134Y0019755D01*
X0027052Y0019811D01*
X0027121Y0019856D01*
X0027266Y0020068D01*
X0027317Y0020320D01*
X0027317Y0021844D01*
X0027273Y0022079D01*
X0027134Y0022295D01*
X0027052Y0022351D01*
X0027121Y0022396D01*
X0027266Y0022608D01*
X0027317Y0022860D01*
X0027317Y0024384D01*
X0027273Y0024619D01*
X0027134Y0024835D01*
X0027052Y0024891D01*
X0027121Y0024936D01*
X0027266Y0025148D01*
X0027317Y0025400D01*
X0027317Y0026924D01*
X0027273Y0027159D01*
X0027134Y0027375D01*
X0027052Y0027431D01*
X0027121Y0027476D01*
X0027266Y0027688D01*
X0027317Y0027940D01*
X0027317Y0029464D01*
X0027273Y0029699D01*
X0027134Y0029915D01*
X0027052Y0029971D01*
X0027121Y0030016D01*
X0027266Y0030228D01*
X0027317Y0030480D01*
X0027317Y0032004D01*
X0027273Y0032239D01*
X0027134Y0032455D01*
X0027052Y0032511D01*
X0027121Y0032556D01*
X0027266Y0032768D01*
X0027317Y0033020D01*
X0027317Y0034115D01*
X0067004Y0034115D01*
X0067214Y0033605D01*
X0067604Y0033215D01*
X0068113Y0033004D01*
X0068664Y0033003D01*
X0069173Y0033214D01*
X0069563Y0033603D01*
X0069775Y0034112D01*
X0069775Y0034663D01*
X0069565Y0035173D01*
X0069175Y0035563D01*
X0068666Y0035774D01*
X0068115Y0035775D01*
X0067606Y0035564D01*
X0067216Y0035175D01*
X0067004Y0034666D01*
X0067004Y0034115D01*
X0027317Y0034115D01*
X0027317Y0034544D01*
X0027273Y0034779D01*
X0027134Y0034995D01*
X0027052Y0035051D01*
X0027121Y0035096D01*
X0027266Y0035308D01*
X0027317Y0035560D01*
X0027317Y0037084D01*
X0027273Y0037319D01*
X0027134Y0037535D01*
X0027052Y0037591D01*
X0027121Y0037636D01*
X0027266Y0037848D01*
X0027317Y0038100D01*
X0027317Y0038997D01*
X0067004Y0038997D01*
X0067214Y0038487D01*
X0067604Y0038097D01*
X0068113Y0037886D01*
X0068664Y0037885D01*
X0069173Y0038096D01*
X0069563Y0038485D01*
X0069775Y0038994D01*
X0069775Y0039545D01*
X0069565Y0040055D01*
X0069175Y0040445D01*
X0068666Y0040656D01*
X0068115Y0040657D01*
X0067606Y0040446D01*
X0067216Y0040057D01*
X0067004Y0039548D01*
X0067004Y0038997D01*
X0027317Y0038997D01*
X0027317Y0039624D01*
X0027273Y0039859D01*
X0027134Y0040075D01*
X0027052Y0040131D01*
X0027121Y0040176D01*
X0027266Y0040388D01*
X0027317Y0040640D01*
X0027317Y0042164D01*
X0027273Y0042399D01*
X0027134Y0042615D01*
X0027109Y0042633D01*
X0062873Y0042633D01*
X0063045Y0042215D01*
X0063353Y0041907D01*
X0063046Y0041601D01*
X0062873Y0041184D01*
X0062873Y0040733D01*
X0063045Y0040315D01*
X0063364Y0039996D01*
X0063781Y0039823D01*
X0064233Y0039822D01*
X0064650Y0039995D01*
X0064970Y0040314D01*
X0065143Y0040731D01*
X0065143Y0041182D01*
X0064971Y0041600D01*
X0064663Y0041908D01*
X0064970Y0042214D01*
X0065143Y0042631D01*
X0065143Y0043082D01*
X0064971Y0043500D01*
X0064652Y0043819D01*
X0064235Y0043992D01*
X0063783Y0043993D01*
X0063366Y0043820D01*
X0063046Y0043501D01*
X0062873Y0043084D01*
X0062873Y0042633D01*
X0027109Y0042633D01*
X0027052Y0042671D01*
X0027121Y0042716D01*
X0027266Y0042928D01*
X0027317Y0043180D01*
X0027317Y0044704D01*
X0027273Y0044939D01*
X0027134Y0045155D01*
X0027052Y0045211D01*
X0027121Y0045256D01*
X0027266Y0045468D01*
X0027317Y0045720D01*
X0027317Y0047244D01*
X0027273Y0047479D01*
X0027134Y0047695D01*
X0027052Y0047751D01*
X0027121Y0047796D01*
X0027266Y0048008D01*
X0027317Y0048260D01*
X0027317Y0049784D01*
X0027273Y0050019D01*
X0027134Y0050235D01*
X0026922Y0050380D01*
X0026670Y0050431D01*
X0025146Y0050431D01*
X0024911Y0050387D01*
X0024695Y0050248D01*
X0024639Y0050166D01*
X0024594Y0050235D01*
X0024382Y0050380D01*
X0024130Y0050431D01*
X0022606Y0050431D01*
X0022371Y0050387D01*
X0022155Y0050248D01*
X0022010Y0050036D01*
X0021959Y0049784D01*
X0020635Y0049784D01*
X0020635Y0052967D01*
X0022091Y0052967D01*
X0022142Y0052889D01*
X0022354Y0052744D01*
X0022606Y0052693D01*
X0024130Y0052693D01*
X0024365Y0052737D01*
X0024581Y0052876D01*
X0024637Y0052958D01*
X0024682Y0052889D01*
X0024894Y0052744D01*
X0025146Y0052693D01*
X0026670Y0052693D01*
X0026905Y0052737D01*
X0027121Y0052876D01*
X0027266Y0053088D01*
X0027317Y0053340D01*
X0027317Y0054864D01*
X0027273Y0055099D01*
X0027134Y0055315D01*
X0027043Y0055378D01*
X0027043Y0060181D01*
X0034961Y0060181D01*
X0034913Y0059944D01*
G36*
X0080695Y0007681D02*
X0079312Y0006298D01*
X0079312Y0007914D01*
X0079267Y0008150D01*
X0079128Y0008366D01*
X0078916Y0008511D01*
X0078664Y0008562D01*
X0078611Y0008562D01*
X0078611Y0043078D01*
X0078551Y0043378D01*
X0078381Y0043633D01*
X0066782Y0055233D01*
X0067564Y0055233D01*
X0067799Y0055277D01*
X0068015Y0055416D01*
X0068071Y0055498D01*
X0068116Y0055429D01*
X0068328Y0055284D01*
X0068580Y0055233D01*
X0070104Y0055233D01*
X0070339Y0055277D01*
X0070555Y0055416D01*
X0070700Y0055628D01*
X0070751Y0055880D01*
X0070751Y0057404D01*
X0070707Y0057639D01*
X0070568Y0057855D01*
X0070486Y0057911D01*
X0070555Y0057956D01*
X0070700Y0058168D01*
X0070751Y0058420D01*
X0070751Y0059944D01*
X0070707Y0060179D01*
X0070706Y0060181D01*
X0073061Y0060181D01*
X0073013Y0059944D01*
X0073013Y0058420D01*
X0073057Y0058185D01*
X0073196Y0057969D01*
X0073278Y0057913D01*
X0073209Y0057868D01*
X0073064Y0057656D01*
X0073013Y0057404D01*
X0073013Y0055880D01*
X0073057Y0055645D01*
X0073196Y0055429D01*
X0073408Y0055284D01*
X0073660Y0055233D01*
X0075184Y0055233D01*
X0075419Y0055277D01*
X0075635Y0055416D01*
X0075780Y0055628D01*
X0075831Y0055880D01*
X0075831Y0057404D01*
X0075787Y0057639D01*
X0075648Y0057855D01*
X0075566Y0057911D01*
X0075635Y0057956D01*
X0075780Y0058168D01*
X0075831Y0058420D01*
X0075831Y0059944D01*
X0075787Y0060179D01*
X0075786Y0060181D01*
X0076581Y0060181D01*
X0077016Y0060267D01*
X0077384Y0060513D01*
X0080695Y0063824D01*
X0080695Y0007681D01*
X0080695Y0007681D01*
G37*
X0080695Y0007681D02*
X0079312Y0006298D01*
X0079312Y0007914D01*
X0079267Y0008150D01*
X0079128Y0008366D01*
X0078916Y0008511D01*
X0078664Y0008562D01*
X0078611Y0008562D01*
X0078611Y0043078D01*
X0078551Y0043378D01*
X0078381Y0043633D01*
X0066782Y0055233D01*
X0067564Y0055233D01*
X0067799Y0055277D01*
X0068015Y0055416D01*
X0068071Y0055498D01*
X0068116Y0055429D01*
X0068328Y0055284D01*
X0068580Y0055233D01*
X0070104Y0055233D01*
X0070339Y0055277D01*
X0070555Y0055416D01*
X0070700Y0055628D01*
X0070751Y0055880D01*
X0070751Y0057404D01*
X0070707Y0057639D01*
X0070568Y0057855D01*
X0070486Y0057911D01*
X0070555Y0057956D01*
X0070700Y0058168D01*
X0070751Y0058420D01*
X0070751Y0059944D01*
X0070707Y0060179D01*
X0070706Y0060181D01*
X0073061Y0060181D01*
X0073013Y0059944D01*
X0073013Y0058420D01*
X0073057Y0058185D01*
X0073196Y0057969D01*
X0073278Y0057913D01*
X0073209Y0057868D01*
X0073064Y0057656D01*
X0073013Y0057404D01*
X0073013Y0055880D01*
X0073057Y0055645D01*
X0073196Y0055429D01*
X0073408Y0055284D01*
X0073660Y0055233D01*
X0075184Y0055233D01*
X0075419Y0055277D01*
X0075635Y0055416D01*
X0075780Y0055628D01*
X0075831Y0055880D01*
X0075831Y0057404D01*
X0075787Y0057639D01*
X0075648Y0057855D01*
X0075566Y0057911D01*
X0075635Y0057956D01*
X0075780Y0058168D01*
X0075831Y0058420D01*
X0075831Y0059944D01*
X0075787Y0060179D01*
X0075786Y0060181D01*
X0076581Y0060181D01*
X0077016Y0060267D01*
X0077384Y0060513D01*
X0080695Y0063824D01*
X0080695Y0007681D01*
X0000000Y0070610D02*
%LPD*%
G01*
D37*
X0082804Y0095756D03*
X0082804Y0098296D03*
X0083058Y0116076D03*
X0083058Y0113536D03*
X0083058Y0111176D03*
X0056388Y0134364D03*
X0060960Y0134364D03*
X0062230Y0139190D03*
X0051308Y0139952D03*
X0049530Y0139190D03*
X0015748Y0078865D03*
X0015789Y0074551D03*
X0017821Y0074551D03*
X0022139Y0074551D03*
X0022139Y0080266D03*
X0017821Y0080266D03*
X0017821Y0078869D03*
X0022139Y0078869D03*
X0089408Y0086993D03*
X0089408Y0089533D03*
X0089408Y0092073D03*
X0089408Y0094613D03*
X0089408Y0097153D03*
X0089408Y0099693D03*
X0089408Y0102233D03*
X0089408Y0104773D03*
X0089408Y0107313D03*
X0089408Y0109853D03*
X0089408Y0112393D03*
X0089408Y0114933D03*
X0089408Y0117473D03*
X0089408Y0120013D03*
X0089408Y0122553D03*
X0089408Y0125093D03*
X0029972Y0074801D03*
X0032004Y0074801D03*
X0032004Y0077849D03*
X0029083Y0080643D03*
X0028702Y0083818D03*
X0034036Y0083818D03*
X0019050Y0132332D03*
X0016764Y0124712D03*
X0013716Y0124712D03*
X0013716Y0127252D03*
X0016764Y0127252D03*
X0021590Y0129792D03*
X0020320Y0127252D03*
X0017780Y0129792D03*
X0083058Y0131824D03*
X0080010Y0131824D03*
X0080010Y0129284D03*
X0083058Y0129284D03*
X0083058Y0126744D03*
X0080010Y0126744D03*
X0076454Y0080008D03*
X0076454Y0082548D03*
X0076454Y0085088D03*
X0079502Y0085088D03*
X0079502Y0082548D03*
X0083566Y0085088D03*
X0083566Y0082548D03*
X0083566Y0080008D03*
X0079502Y0080008D03*
X0073914Y0080008D03*
X0071374Y0080008D03*
X0055626Y0077976D03*
X0053086Y0077976D03*
X0050546Y0077976D03*
X0048006Y0077976D03*
X0045466Y0077976D03*
X0042926Y0077976D03*
X0044704Y0090930D03*
X0047244Y0093470D03*
X0051054Y0097280D03*
X0032766Y0124712D03*
X0032766Y0122172D03*
X0032766Y0115314D03*
X0035306Y0112774D03*
X0037846Y0110234D03*
X0046736Y0114044D03*
X0038862Y0114044D03*
X0041402Y0111504D03*
X0026416Y0133602D03*
X0028956Y0133602D03*
X0023876Y0132332D03*
X0023876Y0127252D03*
X0023876Y0129792D03*
X0032766Y0129792D03*
X0030226Y0129792D03*
X0027686Y0129792D03*
X0032766Y0127252D03*
X0030226Y0127252D03*
X0027686Y0127252D03*
X0007210Y0082356D03*
X0006050Y0084896D03*
X0006050Y0087436D03*
X0006050Y0089976D03*
X0006050Y0092516D03*
X0006050Y0095056D03*
X0006050Y0097596D03*
X0011850Y0084886D03*
X0011850Y0087426D03*
X0011850Y0097586D03*
X0011850Y0095046D03*
X0021250Y0084076D03*
X0017950Y0084076D03*
X0021250Y0086616D03*
X0017950Y0087426D03*
X0011850Y0092506D03*
X0011850Y0089966D03*
X0017950Y0094236D03*
X0021250Y0096776D03*
X0017950Y0096776D03*
X0021250Y0099316D03*
X0017950Y0099316D03*
X0021250Y0101856D03*
X0021250Y0104396D03*
X0017950Y0104396D03*
X0021250Y0106936D03*
X0017950Y0106936D03*
X0021250Y0109476D03*
X0017950Y0109476D03*
X0021250Y0112016D03*
X0017950Y0112016D03*
X0021250Y0119636D03*
X0021250Y0122176D03*
X0017950Y0122176D03*
X0045466Y0098804D03*
X0042926Y0098804D03*
X0049276Y0100074D03*
X0046736Y0100074D03*
X0044196Y0100074D03*
X0055350Y0105876D03*
X0059750Y0101576D03*
X0051150Y0101576D03*
X0059750Y0110176D03*
X0051150Y0110176D03*
X0068650Y0095776D03*
X0059650Y0093576D03*
X0079502Y0087628D03*
X0076454Y0087628D03*
X0079650Y0098476D03*
X0079650Y0095776D03*
X0074150Y0095776D03*
X0074150Y0098476D03*
X0049276Y0111504D03*
X0070450Y0125376D03*
X0065450Y0121376D03*
X0059950Y0116076D03*
X0075550Y0118676D03*
X0070950Y0112776D03*
X0070450Y0116176D03*
X0077750Y0118676D03*
X0077750Y0116176D03*
X0079950Y0116176D03*
X0079950Y0118676D03*
X0079950Y0113676D03*
X0068350Y0107376D03*
X0076250Y0113176D03*
X0074550Y0111676D03*
X0079950Y0111176D03*
X0075850Y0105976D03*
X0075950Y0107676D03*
X0079950Y0106076D03*
X0079950Y0108576D03*
X0071550Y0117276D03*
X0072750Y0114376D03*
X0074350Y0105976D03*
D58*
X0004826Y0136396D03*
X0086106Y0075436D03*
X0004826Y0075436D03*
X0086106Y0136396D03*
D42*
X0059080Y0073186D03*
X0059080Y0077686D03*
X0065380Y0073186D03*
X0065380Y0077686D03*
X0077826Y0077686D03*
X0077826Y0073186D03*
X0071526Y0077686D03*
X0071526Y0073186D03*
D12*
X0068390Y0109881D03*
X0068390Y0104999D03*
D55*
X0012700Y0130871D03*
X0015240Y0130871D03*
X0012700Y0111440D03*
X0015240Y0111440D03*
X0004720Y0103136D03*
X0002180Y0103136D03*
X0004720Y0105676D03*
X0002180Y0105676D03*
X0004720Y0108216D03*
X0002180Y0108216D03*
X0074422Y0138682D03*
X0074422Y0136142D03*
X0071882Y0138682D03*
X0071882Y0136142D03*
X0069342Y0138682D03*
X0069342Y0136142D03*
X0066802Y0138682D03*
X0066802Y0136142D03*
X0064262Y0138682D03*
X0064262Y0136142D03*
X0025380Y0078916D03*
X0027920Y0078916D03*
X0025380Y0076376D03*
X0027920Y0076376D03*
X0025380Y0073836D03*
X0027920Y0073836D03*
X0084836Y0124966D03*
X0087376Y0124966D03*
X0084836Y0122426D03*
X0087376Y0122426D03*
X0084836Y0119886D03*
X0087376Y0119886D03*
X0084836Y0117346D03*
X0087376Y0117346D03*
X0084836Y0114806D03*
X0087376Y0114806D03*
X0084836Y0112266D03*
X0087376Y0112266D03*
X0084836Y0109726D03*
X0087376Y0109726D03*
X0084836Y0107186D03*
X0087376Y0107186D03*
X0084836Y0104646D03*
X0087376Y0104646D03*
X0084836Y0102106D03*
X0087376Y0102106D03*
X0084836Y0099566D03*
X0087376Y0099566D03*
X0084836Y0097026D03*
X0087376Y0097026D03*
X0084836Y0094486D03*
X0087376Y0094486D03*
X0084836Y0091946D03*
X0087376Y0091946D03*
X0084836Y0089406D03*
X0087376Y0089406D03*
X0084836Y0086866D03*
X0087376Y0086866D03*
D14*
X0015240Y0122426D03*
X0015240Y0119886D03*
X0013240Y0119886D03*
X0013240Y0122426D03*
D57*
X0010540Y0127156D03*
X0010540Y0115156D03*
D55*
X0057404Y0138682D03*
X0059944Y0138682D03*
X0057404Y0136142D03*
X0059944Y0136142D03*
X0080010Y0136142D03*
X0080010Y0138682D03*
X0074422Y0129792D03*
X0074422Y0127252D03*
X0071882Y0129792D03*
X0071882Y0127252D03*
X0069342Y0129792D03*
X0069342Y0127252D03*
X0066802Y0129792D03*
X0066802Y0127252D03*
X0064262Y0129792D03*
X0064262Y0127252D03*
X0061722Y0129792D03*
X0061722Y0127252D03*
X0059182Y0129792D03*
X0059182Y0127252D03*
X0056642Y0129792D03*
X0056642Y0127252D03*
X0054102Y0129792D03*
X0054102Y0127252D03*
X0051562Y0129792D03*
X0051562Y0127252D03*
X0049022Y0129792D03*
X0049022Y0127252D03*
X0046482Y0129792D03*
X0046482Y0127252D03*
X0043942Y0129792D03*
X0043942Y0127252D03*
X0041402Y0129792D03*
X0041402Y0127252D03*
X0038862Y0129792D03*
X0038862Y0127252D03*
X0036322Y0129792D03*
X0036322Y0127252D03*
X0023368Y0124712D03*
X0025908Y0124712D03*
X0023368Y0122172D03*
X0025908Y0122172D03*
X0023368Y0119632D03*
X0025908Y0119632D03*
X0023368Y0117092D03*
X0025908Y0117092D03*
X0023368Y0114552D03*
X0025908Y0114552D03*
X0023368Y0112012D03*
X0025908Y0112012D03*
X0023368Y0109472D03*
X0025908Y0109472D03*
X0023368Y0106932D03*
X0025908Y0106932D03*
X0023368Y0104392D03*
X0025908Y0104392D03*
X0023368Y0101852D03*
X0025908Y0101852D03*
X0023368Y0099312D03*
X0025908Y0099312D03*
X0023368Y0096772D03*
X0025908Y0096772D03*
X0023368Y0094232D03*
X0025908Y0094232D03*
X0023368Y0091692D03*
X0025908Y0091692D03*
X0023368Y0089152D03*
X0025908Y0089152D03*
X0023368Y0086612D03*
X0025908Y0086612D03*
X0036322Y0082040D03*
X0036322Y0084580D03*
X0038862Y0082040D03*
X0038862Y0084580D03*
X0041402Y0082040D03*
X0041402Y0084580D03*
X0043942Y0082040D03*
X0043942Y0084580D03*
X0046482Y0082040D03*
X0046482Y0084580D03*
X0049022Y0082040D03*
X0049022Y0084580D03*
X0051562Y0082040D03*
X0051562Y0084580D03*
X0054102Y0082040D03*
X0054102Y0084580D03*
X0056642Y0082040D03*
X0056642Y0084580D03*
X0059182Y0082040D03*
X0059182Y0084580D03*
X0061722Y0082040D03*
X0061722Y0084580D03*
X0064262Y0082040D03*
X0064262Y0084580D03*
X0066802Y0082040D03*
X0066802Y0084580D03*
X0069342Y0082040D03*
X0069342Y0084580D03*
X0071882Y0082040D03*
X0071882Y0084580D03*
X0074422Y0082040D03*
X0074422Y0084580D03*
X0031380Y0136156D03*
X0031380Y0138696D03*
X0033920Y0136156D03*
X0033920Y0138696D03*
X0036460Y0136156D03*
X0036460Y0138696D03*
X0039000Y0136156D03*
X0039000Y0138696D03*
X0041540Y0136156D03*
X0041540Y0138696D03*
X0044080Y0136156D03*
X0044080Y0138696D03*
X0046620Y0136156D03*
X0046620Y0138696D03*
D52*
X0064008Y0113467D03*
X0064008Y0111567D03*
D37*
X0017907Y0089660D03*
X0044069Y0132713D03*
X0041529Y0132713D03*
X0038989Y0132748D03*
X0035179Y0131926D03*
X0053086Y0134110D03*
X0069320Y0092206D03*
D13*
X0019500Y0089626D02*
X0019466Y0089660D01*
X0019466Y0089660D02*
X0017907Y0089660D01*
D52*
X0041529Y0131926D02*
X0044069Y0131926D01*
X0044069Y0131926D02*
X0046650Y0131926D01*
D13*
X0044069Y0132713D02*
X0044069Y0131926D01*
D52*
X0038862Y0131926D02*
X0041529Y0131926D01*
D13*
X0041529Y0132713D02*
X0041529Y0131926D01*
D52*
X0035179Y0131926D02*
X0038862Y0131926D01*
D13*
X0038989Y0132748D02*
X0038989Y0132053D01*
X0038989Y0132053D02*
X0038862Y0131926D01*
D52*
X0031400Y0131926D02*
X0035179Y0131926D01*
X0025908Y0131926D02*
X0031400Y0131926D01*
X0031380Y0131946D02*
X0031380Y0136156D01*
X0031400Y0131926D02*
X0031380Y0131946D01*
X0046650Y0131926D02*
X0053086Y0131926D01*
X0046620Y0131956D02*
X0046620Y0136156D01*
X0046650Y0131926D02*
X0046620Y0131956D01*
X0080010Y0136142D02*
X0080010Y0135355D01*
X0080010Y0135355D02*
X0076581Y0131926D01*
X0076581Y0131926D02*
X0076556Y0131926D01*
X0076556Y0131926D02*
X0074359Y0131926D01*
X0053086Y0131926D02*
X0074359Y0131926D01*
X0074422Y0129792D02*
X0074422Y0131554D01*
X0074422Y0131554D02*
X0074359Y0131617D01*
X0074359Y0131617D02*
X0074359Y0131926D01*
D13*
X0053086Y0134110D02*
X0053086Y0131926D01*
D52*
X0019500Y0076376D02*
X0019500Y0089626D01*
X0019500Y0089626D02*
X0019500Y0124712D01*
X0025908Y0124712D02*
X0025908Y0131926D01*
D13*
X0077826Y0073186D02*
X0076688Y0073186D01*
X0076688Y0073186D02*
X0071526Y0073186D01*
D52*
X0031750Y0079776D02*
X0063350Y0079776D01*
X0063350Y0079776D02*
X0069350Y0079776D01*
D13*
X0071526Y0073186D02*
X0067574Y0073186D01*
X0067574Y0073186D02*
X0063350Y0077410D01*
X0063350Y0077410D02*
X0063350Y0079776D01*
D52*
X0027920Y0076376D02*
X0028350Y0076376D01*
X0028350Y0076376D02*
X0031750Y0079776D01*
X0069350Y0082032D02*
X0069342Y0082040D01*
X0069350Y0079776D02*
X0069350Y0082032D01*
X0025380Y0076376D02*
X0019500Y0076376D01*
X0019500Y0124712D02*
X0023368Y0124712D01*
X0025380Y0076376D02*
X0027920Y0076376D01*
D13*
X0069342Y0092184D02*
X0069320Y0092206D01*
X0069342Y0084580D02*
X0069342Y0092184D01*
D52*
X0023368Y0124712D02*
X0025908Y0124712D01*
X0036322Y0082040D02*
X0036322Y0084580D01*
X0069342Y0084580D02*
X0069342Y0082040D01*
X0074422Y0129792D02*
X0074422Y0127252D01*
D13*
X0081480Y0109776D02*
X0081480Y0136996D01*
X0051550Y0137426D02*
X0044288Y0137426D01*
X0081480Y0136996D02*
X0081100Y0137376D01*
X0081100Y0137376D02*
X0077600Y0137376D01*
X0077200Y0136976D02*
X0077200Y0134326D01*
X0077600Y0137376D02*
X0077200Y0136976D01*
X0055800Y0133176D02*
X0051550Y0137426D01*
X0077200Y0134326D02*
X0076050Y0133176D01*
X0076050Y0133176D02*
X0055800Y0133176D01*
X0044288Y0137426D02*
X0044080Y0137634D01*
X0044080Y0137634D02*
X0044080Y0138696D01*
X0081480Y0107432D02*
X0081480Y0109776D01*
X0084836Y0109726D02*
X0081530Y0109726D01*
X0081530Y0109726D02*
X0081480Y0109776D01*
X0065380Y0077686D02*
X0065380Y0077676D01*
X0081480Y0077966D02*
X0081480Y0107432D01*
X0065380Y0077676D02*
X0067510Y0075546D01*
X0067510Y0075546D02*
X0079060Y0075546D01*
X0079060Y0075546D02*
X0081480Y0077966D01*
D23*
X0084836Y0109726D02*
X0087376Y0109726D01*
D13*
X0077826Y0077686D02*
X0077826Y0113688D01*
X0077826Y0113688D02*
X0064262Y0127252D01*
D23*
X0064262Y0129792D02*
X0064262Y0127252D01*
D52*
X0002180Y0105676D02*
X0004720Y0105676D01*
D23*
X0087376Y0124966D02*
X0084836Y0124966D01*
X0084836Y0122426D02*
X0087376Y0122426D01*
X0084836Y0119886D02*
X0087376Y0119886D01*
X0084836Y0117346D02*
X0087376Y0117346D01*
X0084836Y0114806D02*
X0087376Y0114806D01*
X0087376Y0112266D02*
X0084836Y0112266D01*
X0087376Y0107186D02*
X0084836Y0107186D01*
X0084836Y0104646D02*
X0087376Y0104646D01*
X0087376Y0102106D02*
X0084836Y0102106D01*
X0084836Y0099566D02*
X0087376Y0099566D01*
X0087376Y0094486D02*
X0084836Y0094486D01*
X0084836Y0091946D02*
X0087376Y0091946D01*
X0087376Y0089406D02*
X0084836Y0089406D01*
X0087376Y0086866D02*
X0084836Y0086866D01*
X0074422Y0084580D02*
X0074422Y0082040D01*
X0066802Y0084580D02*
X0066802Y0082040D01*
X0064262Y0082040D02*
X0064262Y0084580D01*
X0061722Y0084580D02*
X0061722Y0082040D01*
X0059182Y0082040D02*
X0059182Y0084580D01*
X0056642Y0082040D02*
X0056642Y0084580D01*
X0054102Y0084580D02*
X0054102Y0082040D01*
X0051562Y0082040D02*
X0051562Y0084580D01*
X0049022Y0084580D02*
X0049022Y0082040D01*
X0046482Y0082040D02*
X0046482Y0084580D01*
X0043942Y0084580D02*
X0043942Y0082040D01*
X0041402Y0082040D02*
X0041402Y0084580D01*
X0023368Y0086612D02*
X0025908Y0086612D01*
X0025908Y0089152D02*
X0023368Y0089152D01*
X0025908Y0099312D02*
X0023368Y0099312D01*
X0023368Y0101852D02*
X0025908Y0101852D01*
X0025908Y0104392D02*
X0023368Y0104392D01*
X0023368Y0106932D02*
X0025908Y0106932D01*
X0023368Y0109472D02*
X0025908Y0109472D01*
X0023368Y0112012D02*
X0025908Y0112012D01*
X0023368Y0114552D02*
X0025908Y0114552D01*
X0023368Y0117092D02*
X0025908Y0117092D01*
X0025908Y0119632D02*
X0023368Y0119632D01*
X0036322Y0129792D02*
X0036322Y0127252D01*
X0038862Y0127252D02*
X0038862Y0129792D01*
X0041402Y0129792D02*
X0041402Y0127252D01*
X0043942Y0127252D02*
X0043942Y0129792D01*
X0046482Y0129792D02*
X0046482Y0127252D01*
X0049022Y0127252D02*
X0049022Y0129792D01*
X0051562Y0127252D02*
X0051562Y0129792D01*
X0054102Y0129792D02*
X0054102Y0127252D01*
X0056642Y0127252D02*
X0056642Y0129792D01*
X0059182Y0129792D02*
X0059182Y0127252D01*
X0061722Y0127252D02*
X0061722Y0129792D01*
X0066802Y0138682D02*
X0066802Y0136142D01*
X0066802Y0127252D02*
X0066802Y0129792D01*
X0071882Y0138682D02*
X0071882Y0136142D01*
X0069342Y0129792D02*
X0069342Y0127252D01*
D52*
X0080010Y0138682D02*
X0077256Y0138682D01*
X0076000Y0137426D02*
X0076000Y0134936D01*
X0075440Y0134376D02*
X0070346Y0134376D01*
X0077256Y0138682D02*
X0076000Y0137426D01*
X0076000Y0134936D02*
X0075440Y0134376D01*
X0070346Y0134376D02*
X0069342Y0135380D01*
X0069342Y0135380D02*
X0069342Y0136142D01*
X0069342Y0136142D02*
X0069342Y0138682D01*
X0015240Y0119886D02*
X0015240Y0111440D01*
D23*
X0023368Y0096772D02*
X0025908Y0096772D01*
X0025908Y0094232D02*
X0023368Y0094232D01*
X0023368Y0091692D02*
X0025908Y0091692D01*
D21*
G36*
X0090222Y0071320D02*
X0000710Y0071320D01*
X0000710Y0085501D01*
X0002961Y0085501D01*
X0003133Y0085084D01*
X0003452Y0084764D01*
X0003869Y0084591D01*
X0004321Y0084591D01*
X0004738Y0084763D01*
X0005058Y0085082D01*
X0005231Y0085499D01*
X0005231Y0085951D01*
X0005059Y0086368D01*
X0004740Y0086688D01*
X0004323Y0086861D01*
X0003871Y0086861D01*
X0003454Y0086689D01*
X0003134Y0086370D01*
X0002961Y0085953D01*
X0002961Y0085501D01*
X0000710Y0085501D01*
X0000710Y0089455D01*
X0016872Y0089455D01*
X0017029Y0089074D01*
X0017320Y0088783D01*
X0017700Y0088625D01*
X0018112Y0088625D01*
X0018365Y0088729D01*
X0018365Y0076376D01*
X0018451Y0075942D01*
X0018697Y0075573D01*
X0019066Y0075327D01*
X0019500Y0075241D01*
X0024103Y0075241D01*
X0024154Y0075163D01*
X0024366Y0075018D01*
X0024618Y0074967D01*
X0026142Y0074967D01*
X0026377Y0075011D01*
X0026593Y0075150D01*
X0026649Y0075232D01*
X0026694Y0075163D01*
X0026906Y0075018D01*
X0027158Y0074967D01*
X0028682Y0074967D01*
X0028917Y0075011D01*
X0029133Y0075150D01*
X0029278Y0075362D01*
X0029329Y0075614D01*
X0029329Y0075750D01*
X0032220Y0078641D01*
X0057618Y0078641D01*
X0057594Y0078524D01*
X0057594Y0076848D01*
X0057639Y0076612D01*
X0057778Y0076396D01*
X0057990Y0076251D01*
X0058242Y0076200D01*
X0059918Y0076200D01*
X0060154Y0076245D01*
X0060370Y0076384D01*
X0060515Y0076596D01*
X0060566Y0076848D01*
X0060566Y0078524D01*
X0060544Y0078641D01*
X0062565Y0078641D01*
X0062565Y0077410D01*
X0062625Y0077109D01*
X0062795Y0076855D01*
X0067019Y0072631D01*
X0067273Y0072461D01*
X0067574Y0072401D01*
X0067574Y0072401D01*
X0070040Y0072401D01*
X0070040Y0072348D01*
X0070085Y0072112D01*
X0070224Y0071896D01*
X0070436Y0071751D01*
X0070688Y0071700D01*
X0072364Y0071700D01*
X0072600Y0071745D01*
X0072816Y0071884D01*
X0072961Y0072096D01*
X0073012Y0072348D01*
X0073012Y0072401D01*
X0076340Y0072401D01*
X0076340Y0072348D01*
X0076385Y0072112D01*
X0076524Y0071896D01*
X0076736Y0071751D01*
X0076988Y0071700D01*
X0078664Y0071700D01*
X0078900Y0071745D01*
X0079116Y0071884D01*
X0079261Y0072096D01*
X0079312Y0072348D01*
X0079312Y0074024D01*
X0079267Y0074260D01*
X0079128Y0074476D01*
X0078916Y0074621D01*
X0078664Y0074672D01*
X0076988Y0074672D01*
X0076752Y0074627D01*
X0076536Y0074488D01*
X0076391Y0074276D01*
X0076340Y0074024D01*
X0076340Y0073971D01*
X0073012Y0073971D01*
X0073012Y0074024D01*
X0072967Y0074260D01*
X0072828Y0074476D01*
X0072616Y0074621D01*
X0072364Y0074672D01*
X0070688Y0074672D01*
X0070452Y0074627D01*
X0070236Y0074488D01*
X0070091Y0074276D01*
X0070040Y0074024D01*
X0070040Y0073971D01*
X0067899Y0073971D01*
X0065669Y0076200D01*
X0065745Y0076200D01*
X0066955Y0074991D01*
X0067210Y0074821D01*
X0067510Y0074761D01*
X0079060Y0074761D01*
X0079360Y0074821D01*
X0079615Y0074991D01*
X0082035Y0077411D01*
X0082205Y0077666D01*
X0082265Y0077966D01*
X0082265Y0095248D01*
X0083427Y0095248D01*
X0083427Y0093724D01*
X0083471Y0093489D01*
X0083610Y0093273D01*
X0083692Y0093217D01*
X0083623Y0093172D01*
X0083478Y0092960D01*
X0083427Y0092708D01*
X0083427Y0091184D01*
X0083471Y0090949D01*
X0083610Y0090733D01*
X0083692Y0090677D01*
X0083623Y0090632D01*
X0083478Y0090420D01*
X0083427Y0090168D01*
X0083427Y0088644D01*
X0083471Y0088409D01*
X0083610Y0088193D01*
X0083692Y0088137D01*
X0083623Y0088092D01*
X0083478Y0087880D01*
X0083427Y0087628D01*
X0083427Y0086104D01*
X0083471Y0085869D01*
X0083610Y0085653D01*
X0083822Y0085508D01*
X0084074Y0085457D01*
X0085598Y0085457D01*
X0085833Y0085501D01*
X0086049Y0085640D01*
X0086105Y0085722D01*
X0086150Y0085653D01*
X0086362Y0085508D01*
X0086614Y0085457D01*
X0088138Y0085457D01*
X0088373Y0085501D01*
X0088589Y0085640D01*
X0088734Y0085852D01*
X0088785Y0086104D01*
X0088785Y0087628D01*
X0088741Y0087863D01*
X0088602Y0088079D01*
X0088520Y0088135D01*
X0088589Y0088180D01*
X0088734Y0088392D01*
X0088785Y0088644D01*
X0088785Y0090168D01*
X0088741Y0090403D01*
X0088602Y0090619D01*
X0088520Y0090675D01*
X0088589Y0090720D01*
X0088734Y0090932D01*
X0088785Y0091184D01*
X0088785Y0092708D01*
X0088741Y0092943D01*
X0088602Y0093159D01*
X0088520Y0093215D01*
X0088589Y0093260D01*
X0088734Y0093472D01*
X0088785Y0093724D01*
X0088785Y0095248D01*
X0088741Y0095483D01*
X0088602Y0095699D01*
X0088390Y0095844D01*
X0088138Y0095895D01*
X0086614Y0095895D01*
X0086379Y0095851D01*
X0086163Y0095712D01*
X0086107Y0095630D01*
X0086062Y0095699D01*
X0085850Y0095844D01*
X0085598Y0095895D01*
X0084074Y0095895D01*
X0083839Y0095851D01*
X0083623Y0095712D01*
X0083478Y0095500D01*
X0083427Y0095248D01*
X0082265Y0095248D01*
X0082265Y0108941D01*
X0083431Y0108941D01*
X0083471Y0108729D01*
X0083610Y0108513D01*
X0083692Y0108457D01*
X0083623Y0108412D01*
X0083478Y0108200D01*
X0083427Y0107948D01*
X0083427Y0106424D01*
X0083471Y0106189D01*
X0083610Y0105973D01*
X0083692Y0105917D01*
X0083623Y0105872D01*
X0083478Y0105660D01*
X0083427Y0105408D01*
X0083427Y0103884D01*
X0083471Y0103649D01*
X0083610Y0103433D01*
X0083692Y0103377D01*
X0083623Y0103332D01*
X0083478Y0103120D01*
X0083427Y0102868D01*
X0083427Y0101344D01*
X0083471Y0101109D01*
X0083610Y0100893D01*
X0083692Y0100837D01*
X0083623Y0100792D01*
X0083478Y0100580D01*
X0083427Y0100328D01*
X0083427Y0098804D01*
X0083471Y0098569D01*
X0083610Y0098353D01*
X0083822Y0098208D01*
X0084074Y0098157D01*
X0085598Y0098157D01*
X0085833Y0098201D01*
X0086049Y0098340D01*
X0086105Y0098422D01*
X0086150Y0098353D01*
X0086362Y0098208D01*
X0086614Y0098157D01*
X0088138Y0098157D01*
X0088373Y0098201D01*
X0088589Y0098340D01*
X0088734Y0098552D01*
X0088785Y0098804D01*
X0088785Y0100328D01*
X0088741Y0100563D01*
X0088602Y0100779D01*
X0088520Y0100835D01*
X0088589Y0100880D01*
X0088734Y0101092D01*
X0088785Y0101344D01*
X0088785Y0102868D01*
X0088741Y0103103D01*
X0088602Y0103319D01*
X0088520Y0103375D01*
X0088589Y0103420D01*
X0088734Y0103632D01*
X0088785Y0103884D01*
X0088785Y0105408D01*
X0088741Y0105643D01*
X0088602Y0105859D01*
X0088520Y0105915D01*
X0088589Y0105960D01*
X0088734Y0106172D01*
X0088785Y0106424D01*
X0088785Y0107948D01*
X0088741Y0108183D01*
X0088602Y0108399D01*
X0088520Y0108455D01*
X0088589Y0108500D01*
X0088734Y0108712D01*
X0088785Y0108964D01*
X0088785Y0110488D01*
X0088741Y0110723D01*
X0088602Y0110939D01*
X0088520Y0110995D01*
X0088589Y0111040D01*
X0088734Y0111252D01*
X0088785Y0111504D01*
X0088785Y0113028D01*
X0088741Y0113263D01*
X0088602Y0113479D01*
X0088520Y0113535D01*
X0088589Y0113580D01*
X0088734Y0113792D01*
X0088785Y0114044D01*
X0088785Y0115568D01*
X0088741Y0115803D01*
X0088602Y0116019D01*
X0088520Y0116075D01*
X0088589Y0116120D01*
X0088734Y0116332D01*
X0088785Y0116584D01*
X0088785Y0118108D01*
X0088741Y0118343D01*
X0088602Y0118559D01*
X0088520Y0118615D01*
X0088589Y0118660D01*
X0088734Y0118872D01*
X0088785Y0119124D01*
X0088785Y0120648D01*
X0088741Y0120883D01*
X0088602Y0121099D01*
X0088520Y0121155D01*
X0088589Y0121200D01*
X0088734Y0121412D01*
X0088785Y0121664D01*
X0088785Y0123188D01*
X0088741Y0123423D01*
X0088602Y0123639D01*
X0088520Y0123695D01*
X0088589Y0123740D01*
X0088734Y0123952D01*
X0088785Y0124204D01*
X0088785Y0125728D01*
X0088741Y0125963D01*
X0088602Y0126179D01*
X0088390Y0126324D01*
X0088138Y0126375D01*
X0086614Y0126375D01*
X0086379Y0126331D01*
X0086163Y0126192D01*
X0086107Y0126110D01*
X0086062Y0126179D01*
X0085850Y0126324D01*
X0085598Y0126375D01*
X0084074Y0126375D01*
X0083839Y0126331D01*
X0083623Y0126192D01*
X0083478Y0125980D01*
X0083427Y0125728D01*
X0083427Y0124204D01*
X0083471Y0123969D01*
X0083610Y0123753D01*
X0083692Y0123697D01*
X0083623Y0123652D01*
X0083478Y0123440D01*
X0083427Y0123188D01*
X0083427Y0121664D01*
X0083471Y0121429D01*
X0083610Y0121213D01*
X0083692Y0121157D01*
X0083623Y0121112D01*
X0083478Y0120900D01*
X0083427Y0120648D01*
X0083427Y0119124D01*
X0083471Y0118889D01*
X0083610Y0118673D01*
X0083692Y0118617D01*
X0083623Y0118572D01*
X0083478Y0118360D01*
X0083427Y0118108D01*
X0083427Y0116584D01*
X0083471Y0116349D01*
X0083610Y0116133D01*
X0083692Y0116077D01*
X0083623Y0116032D01*
X0083478Y0115820D01*
X0083427Y0115568D01*
X0083427Y0114044D01*
X0083471Y0113809D01*
X0083610Y0113593D01*
X0083692Y0113537D01*
X0083623Y0113492D01*
X0083478Y0113280D01*
X0083427Y0113028D01*
X0083427Y0111504D01*
X0083471Y0111269D01*
X0083610Y0111053D01*
X0083692Y0110997D01*
X0083623Y0110952D01*
X0083478Y0110740D01*
X0083431Y0110511D01*
X0082265Y0110511D01*
X0082265Y0136996D01*
X0082236Y0137139D01*
X0082205Y0137296D01*
X0082035Y0137551D01*
X0081655Y0137931D01*
X0081419Y0138089D01*
X0081419Y0139444D01*
X0081375Y0139679D01*
X0081236Y0139895D01*
X0081024Y0140040D01*
X0080772Y0140091D01*
X0079248Y0140091D01*
X0079013Y0140047D01*
X0078797Y0139908D01*
X0078734Y0139817D01*
X0077256Y0139817D01*
X0076822Y0139731D01*
X0076577Y0139567D01*
X0076453Y0139485D01*
X0075197Y0138229D01*
X0074951Y0137860D01*
X0074865Y0137426D01*
X0074865Y0135511D01*
X0073291Y0135511D01*
X0073291Y0136904D01*
X0073247Y0137139D01*
X0073108Y0137355D01*
X0073026Y0137411D01*
X0073095Y0137456D01*
X0073240Y0137668D01*
X0073291Y0137920D01*
X0073291Y0139444D01*
X0073247Y0139679D01*
X0073108Y0139895D01*
X0072896Y0140040D01*
X0072644Y0140091D01*
X0071120Y0140091D01*
X0070885Y0140047D01*
X0070669Y0139908D01*
X0070613Y0139826D01*
X0070568Y0139895D01*
X0070356Y0140040D01*
X0070104Y0140091D01*
X0068580Y0140091D01*
X0068345Y0140047D01*
X0068129Y0139908D01*
X0068073Y0139826D01*
X0068028Y0139895D01*
X0067816Y0140040D01*
X0067564Y0140091D01*
X0066040Y0140091D01*
X0065805Y0140047D01*
X0065589Y0139908D01*
X0065444Y0139696D01*
X0065393Y0139444D01*
X0065393Y0137920D01*
X0065437Y0137685D01*
X0065576Y0137469D01*
X0065658Y0137413D01*
X0065589Y0137368D01*
X0065444Y0137156D01*
X0065393Y0136904D01*
X0065393Y0135380D01*
X0065437Y0135145D01*
X0065576Y0134929D01*
X0065788Y0134784D01*
X0066040Y0134733D01*
X0067564Y0134733D01*
X0067799Y0134777D01*
X0068015Y0134916D01*
X0068071Y0134998D01*
X0068116Y0134929D01*
X0068328Y0134784D01*
X0068413Y0134766D01*
X0068507Y0134626D01*
X0068539Y0134577D01*
X0069156Y0133961D01*
X0056125Y0133961D01*
X0052105Y0137981D01*
X0051850Y0138151D01*
X0051550Y0138211D01*
X0045489Y0138211D01*
X0045489Y0139444D01*
X0055995Y0139444D01*
X0055995Y0137920D01*
X0056039Y0137685D01*
X0056178Y0137469D01*
X0056260Y0137413D01*
X0056191Y0137368D01*
X0056046Y0137156D01*
X0055995Y0136904D01*
X0055995Y0135380D01*
X0056039Y0135145D01*
X0056178Y0134929D01*
X0056390Y0134784D01*
X0056642Y0134733D01*
X0058166Y0134733D01*
X0058401Y0134777D01*
X0058617Y0134916D01*
X0058673Y0134998D01*
X0058718Y0134929D01*
X0058930Y0134784D01*
X0059182Y0134733D01*
X0060706Y0134733D01*
X0060941Y0134777D01*
X0061157Y0134916D01*
X0061302Y0135128D01*
X0061353Y0135380D01*
X0061353Y0136904D01*
X0061309Y0137139D01*
X0061170Y0137355D01*
X0061088Y0137411D01*
X0061157Y0137456D01*
X0061302Y0137668D01*
X0061353Y0137920D01*
X0061353Y0139444D01*
X0061309Y0139679D01*
X0061170Y0139895D01*
X0060958Y0140040D01*
X0060706Y0140091D01*
X0059182Y0140091D01*
X0058947Y0140047D01*
X0058731Y0139908D01*
X0058675Y0139826D01*
X0058630Y0139895D01*
X0058418Y0140040D01*
X0058166Y0140091D01*
X0056642Y0140091D01*
X0056407Y0140047D01*
X0056191Y0139908D01*
X0056046Y0139696D01*
X0055995Y0139444D01*
X0045489Y0139444D01*
X0045489Y0139458D01*
X0045445Y0139693D01*
X0045306Y0139909D01*
X0045094Y0140054D01*
X0044842Y0140105D01*
X0043318Y0140105D01*
X0043083Y0140061D01*
X0042867Y0139922D01*
X0042722Y0139710D01*
X0042671Y0139458D01*
X0042671Y0137934D01*
X0042715Y0137699D01*
X0042854Y0137483D01*
X0042936Y0137427D01*
X0042867Y0137382D01*
X0042811Y0137300D01*
X0042766Y0137369D01*
X0042554Y0137514D01*
X0042302Y0137565D01*
X0040778Y0137565D01*
X0040543Y0137521D01*
X0040327Y0137382D01*
X0040271Y0137300D01*
X0040226Y0137369D01*
X0040014Y0137514D01*
X0039762Y0137565D01*
X0038238Y0137565D01*
X0038003Y0137521D01*
X0037787Y0137382D01*
X0037731Y0137300D01*
X0037686Y0137369D01*
X0037474Y0137514D01*
X0037222Y0137565D01*
X0035698Y0137565D01*
X0035463Y0137521D01*
X0035247Y0137382D01*
X0035191Y0137300D01*
X0035146Y0137369D01*
X0034934Y0137514D01*
X0034682Y0137565D01*
X0033158Y0137565D01*
X0032923Y0137521D01*
X0032707Y0137382D01*
X0032651Y0137300D01*
X0032606Y0137369D01*
X0032394Y0137514D01*
X0032142Y0137565D01*
X0030618Y0137565D01*
X0030383Y0137521D01*
X0030167Y0137382D01*
X0030022Y0137170D01*
X0029971Y0136918D01*
X0029971Y0135394D01*
X0030015Y0135159D01*
X0030154Y0134943D01*
X0030245Y0134880D01*
X0030245Y0133061D01*
X0025908Y0133061D01*
X0025474Y0132975D01*
X0025105Y0132729D01*
X0024859Y0132360D01*
X0024773Y0131926D01*
X0024773Y0125989D01*
X0024695Y0125938D01*
X0024639Y0125856D01*
X0024594Y0125925D01*
X0024382Y0126070D01*
X0024130Y0126121D01*
X0022606Y0126121D01*
X0022371Y0126077D01*
X0022155Y0125938D01*
X0022092Y0125847D01*
X0019500Y0125847D01*
X0019066Y0125761D01*
X0018697Y0125515D01*
X0018451Y0125146D01*
X0018365Y0124712D01*
X0018365Y0090591D01*
X0018114Y0090695D01*
X0017702Y0090695D01*
X0017321Y0090538D01*
X0017030Y0090247D01*
X0016872Y0089867D01*
X0016872Y0089455D01*
X0000710Y0089455D01*
X0000710Y0093501D01*
X0002961Y0093501D01*
X0003133Y0093084D01*
X0003452Y0092764D01*
X0003869Y0092591D01*
X0004321Y0092591D01*
X0004738Y0092763D01*
X0005058Y0093082D01*
X0005231Y0093499D01*
X0005231Y0093951D01*
X0005059Y0094368D01*
X0004740Y0094688D01*
X0004323Y0094861D01*
X0003871Y0094861D01*
X0003454Y0094689D01*
X0003134Y0094370D01*
X0002961Y0093953D01*
X0002961Y0093501D01*
X0000710Y0093501D01*
X0000710Y0106438D01*
X0000771Y0106438D01*
X0000771Y0104914D01*
X0000815Y0104679D01*
X0000954Y0104463D01*
X0001166Y0104318D01*
X0001418Y0104267D01*
X0002942Y0104267D01*
X0003177Y0104311D01*
X0003393Y0104450D01*
X0003449Y0104532D01*
X0003494Y0104463D01*
X0003706Y0104318D01*
X0003958Y0104267D01*
X0005482Y0104267D01*
X0005717Y0104311D01*
X0005933Y0104450D01*
X0006078Y0104662D01*
X0006129Y0104914D01*
X0006129Y0106438D01*
X0006085Y0106673D01*
X0005946Y0106889D01*
X0005734Y0107034D01*
X0005482Y0107085D01*
X0003958Y0107085D01*
X0003723Y0107041D01*
X0003507Y0106902D01*
X0003451Y0106820D01*
X0003406Y0106889D01*
X0003194Y0107034D01*
X0002942Y0107085D01*
X0001418Y0107085D01*
X0001183Y0107041D01*
X0000967Y0106902D01*
X0000822Y0106690D01*
X0000771Y0106438D01*
X0000710Y0106438D01*
X0000710Y0112202D01*
X0011291Y0112202D01*
X0011291Y0110678D01*
X0011335Y0110443D01*
X0011474Y0110227D01*
X0011686Y0110082D01*
X0011938Y0110031D01*
X0013462Y0110031D01*
X0013697Y0110075D01*
X0013913Y0110214D01*
X0013969Y0110296D01*
X0014014Y0110227D01*
X0014226Y0110082D01*
X0014478Y0110031D01*
X0016002Y0110031D01*
X0016237Y0110075D01*
X0016453Y0110214D01*
X0016598Y0110427D01*
X0016649Y0110678D01*
X0016649Y0112202D01*
X0016605Y0112438D01*
X0016466Y0112654D01*
X0016375Y0112716D01*
X0016375Y0119048D01*
X0016422Y0119095D01*
X0016635Y0119607D01*
X0016635Y0120162D01*
X0016423Y0120675D01*
X0016031Y0121068D01*
X0015819Y0121156D01*
X0016029Y0121243D01*
X0016422Y0121635D01*
X0016635Y0122147D01*
X0016635Y0122702D01*
X0016423Y0123215D01*
X0016031Y0123608D01*
X0015519Y0123821D01*
X0014964Y0123821D01*
X0014451Y0123609D01*
X0014240Y0123399D01*
X0014031Y0123608D01*
X0013519Y0123821D01*
X0012964Y0123821D01*
X0012451Y0123609D01*
X0012058Y0123217D01*
X0011845Y0122705D01*
X0011845Y0122150D01*
X0012057Y0121637D01*
X0012449Y0121244D01*
X0012961Y0121031D01*
X0013516Y0121031D01*
X0014029Y0121243D01*
X0014240Y0121453D01*
X0014449Y0121244D01*
X0014661Y0121156D01*
X0014451Y0121069D01*
X0014058Y0120677D01*
X0013845Y0120165D01*
X0013845Y0119610D01*
X0014057Y0119097D01*
X0014105Y0119048D01*
X0014105Y0112717D01*
X0014027Y0112667D01*
X0013971Y0112585D01*
X0013926Y0112654D01*
X0013714Y0112799D01*
X0013462Y0112850D01*
X0011938Y0112850D01*
X0011703Y0112806D01*
X0011487Y0112667D01*
X0011342Y0112454D01*
X0011291Y0112202D01*
X0000710Y0112202D01*
X0000710Y0131633D01*
X0011291Y0131633D01*
X0011291Y0130109D01*
X0011335Y0129874D01*
X0011474Y0129658D01*
X0011686Y0129513D01*
X0011938Y0129462D01*
X0013462Y0129462D01*
X0013697Y0129506D01*
X0013913Y0129645D01*
X0013969Y0129727D01*
X0014014Y0129658D01*
X0014226Y0129513D01*
X0014478Y0129462D01*
X0016002Y0129462D01*
X0016237Y0129506D01*
X0016453Y0129645D01*
X0016598Y0129858D01*
X0016649Y0130109D01*
X0016649Y0131633D01*
X0016605Y0131869D01*
X0016466Y0132085D01*
X0016254Y0132230D01*
X0016002Y0132281D01*
X0014478Y0132281D01*
X0014243Y0132237D01*
X0014027Y0132098D01*
X0013971Y0132016D01*
X0013926Y0132085D01*
X0013714Y0132230D01*
X0013462Y0132281D01*
X0011938Y0132281D01*
X0011703Y0132237D01*
X0011487Y0132098D01*
X0011342Y0131885D01*
X0011291Y0131633D01*
X0000710Y0131633D01*
X0000710Y0140512D01*
X0090222Y0140512D01*
X0090222Y0071320D01*
X0090222Y0071320D01*
G37*
X0090222Y0071320D02*
X0000710Y0071320D01*
X0000710Y0085501D01*
X0002961Y0085501D01*
X0003133Y0085084D01*
X0003452Y0084764D01*
X0003869Y0084591D01*
X0004321Y0084591D01*
X0004738Y0084763D01*
X0005058Y0085082D01*
X0005231Y0085499D01*
X0005231Y0085951D01*
X0005059Y0086368D01*
X0004740Y0086688D01*
X0004323Y0086861D01*
X0003871Y0086861D01*
X0003454Y0086689D01*
X0003134Y0086370D01*
X0002961Y0085953D01*
X0002961Y0085501D01*
X0000710Y0085501D01*
X0000710Y0089455D01*
X0016872Y0089455D01*
X0017029Y0089074D01*
X0017320Y0088783D01*
X0017700Y0088625D01*
X0018112Y0088625D01*
X0018365Y0088729D01*
X0018365Y0076376D01*
X0018451Y0075942D01*
X0018697Y0075573D01*
X0019066Y0075327D01*
X0019500Y0075241D01*
X0024103Y0075241D01*
X0024154Y0075163D01*
X0024366Y0075018D01*
X0024618Y0074967D01*
X0026142Y0074967D01*
X0026377Y0075011D01*
X0026593Y0075150D01*
X0026649Y0075232D01*
X0026694Y0075163D01*
X0026906Y0075018D01*
X0027158Y0074967D01*
X0028682Y0074967D01*
X0028917Y0075011D01*
X0029133Y0075150D01*
X0029278Y0075362D01*
X0029329Y0075614D01*
X0029329Y0075750D01*
X0032220Y0078641D01*
X0057618Y0078641D01*
X0057594Y0078524D01*
X0057594Y0076848D01*
X0057639Y0076612D01*
X0057778Y0076396D01*
X0057990Y0076251D01*
X0058242Y0076200D01*
X0059918Y0076200D01*
X0060154Y0076245D01*
X0060370Y0076384D01*
X0060515Y0076596D01*
X0060566Y0076848D01*
X0060566Y0078524D01*
X0060544Y0078641D01*
X0062565Y0078641D01*
X0062565Y0077410D01*
X0062625Y0077109D01*
X0062795Y0076855D01*
X0067019Y0072631D01*
X0067273Y0072461D01*
X0067574Y0072401D01*
X0067574Y0072401D01*
X0070040Y0072401D01*
X0070040Y0072348D01*
X0070085Y0072112D01*
X0070224Y0071896D01*
X0070436Y0071751D01*
X0070688Y0071700D01*
X0072364Y0071700D01*
X0072600Y0071745D01*
X0072816Y0071884D01*
X0072961Y0072096D01*
X0073012Y0072348D01*
X0073012Y0072401D01*
X0076340Y0072401D01*
X0076340Y0072348D01*
X0076385Y0072112D01*
X0076524Y0071896D01*
X0076736Y0071751D01*
X0076988Y0071700D01*
X0078664Y0071700D01*
X0078900Y0071745D01*
X0079116Y0071884D01*
X0079261Y0072096D01*
X0079312Y0072348D01*
X0079312Y0074024D01*
X0079267Y0074260D01*
X0079128Y0074476D01*
X0078916Y0074621D01*
X0078664Y0074672D01*
X0076988Y0074672D01*
X0076752Y0074627D01*
X0076536Y0074488D01*
X0076391Y0074276D01*
X0076340Y0074024D01*
X0076340Y0073971D01*
X0073012Y0073971D01*
X0073012Y0074024D01*
X0072967Y0074260D01*
X0072828Y0074476D01*
X0072616Y0074621D01*
X0072364Y0074672D01*
X0070688Y0074672D01*
X0070452Y0074627D01*
X0070236Y0074488D01*
X0070091Y0074276D01*
X0070040Y0074024D01*
X0070040Y0073971D01*
X0067899Y0073971D01*
X0065669Y0076200D01*
X0065745Y0076200D01*
X0066955Y0074991D01*
X0067210Y0074821D01*
X0067510Y0074761D01*
X0079060Y0074761D01*
X0079360Y0074821D01*
X0079615Y0074991D01*
X0082035Y0077411D01*
X0082205Y0077666D01*
X0082265Y0077966D01*
X0082265Y0095248D01*
X0083427Y0095248D01*
X0083427Y0093724D01*
X0083471Y0093489D01*
X0083610Y0093273D01*
X0083692Y0093217D01*
X0083623Y0093172D01*
X0083478Y0092960D01*
X0083427Y0092708D01*
X0083427Y0091184D01*
X0083471Y0090949D01*
X0083610Y0090733D01*
X0083692Y0090677D01*
X0083623Y0090632D01*
X0083478Y0090420D01*
X0083427Y0090168D01*
X0083427Y0088644D01*
X0083471Y0088409D01*
X0083610Y0088193D01*
X0083692Y0088137D01*
X0083623Y0088092D01*
X0083478Y0087880D01*
X0083427Y0087628D01*
X0083427Y0086104D01*
X0083471Y0085869D01*
X0083610Y0085653D01*
X0083822Y0085508D01*
X0084074Y0085457D01*
X0085598Y0085457D01*
X0085833Y0085501D01*
X0086049Y0085640D01*
X0086105Y0085722D01*
X0086150Y0085653D01*
X0086362Y0085508D01*
X0086614Y0085457D01*
X0088138Y0085457D01*
X0088373Y0085501D01*
X0088589Y0085640D01*
X0088734Y0085852D01*
X0088785Y0086104D01*
X0088785Y0087628D01*
X0088741Y0087863D01*
X0088602Y0088079D01*
X0088520Y0088135D01*
X0088589Y0088180D01*
X0088734Y0088392D01*
X0088785Y0088644D01*
X0088785Y0090168D01*
X0088741Y0090403D01*
X0088602Y0090619D01*
X0088520Y0090675D01*
X0088589Y0090720D01*
X0088734Y0090932D01*
X0088785Y0091184D01*
X0088785Y0092708D01*
X0088741Y0092943D01*
X0088602Y0093159D01*
X0088520Y0093215D01*
X0088589Y0093260D01*
X0088734Y0093472D01*
X0088785Y0093724D01*
X0088785Y0095248D01*
X0088741Y0095483D01*
X0088602Y0095699D01*
X0088390Y0095844D01*
X0088138Y0095895D01*
X0086614Y0095895D01*
X0086379Y0095851D01*
X0086163Y0095712D01*
X0086107Y0095630D01*
X0086062Y0095699D01*
X0085850Y0095844D01*
X0085598Y0095895D01*
X0084074Y0095895D01*
X0083839Y0095851D01*
X0083623Y0095712D01*
X0083478Y0095500D01*
X0083427Y0095248D01*
X0082265Y0095248D01*
X0082265Y0108941D01*
X0083431Y0108941D01*
X0083471Y0108729D01*
X0083610Y0108513D01*
X0083692Y0108457D01*
X0083623Y0108412D01*
X0083478Y0108200D01*
X0083427Y0107948D01*
X0083427Y0106424D01*
X0083471Y0106189D01*
X0083610Y0105973D01*
X0083692Y0105917D01*
X0083623Y0105872D01*
X0083478Y0105660D01*
X0083427Y0105408D01*
X0083427Y0103884D01*
X0083471Y0103649D01*
X0083610Y0103433D01*
X0083692Y0103377D01*
X0083623Y0103332D01*
X0083478Y0103120D01*
X0083427Y0102868D01*
X0083427Y0101344D01*
X0083471Y0101109D01*
X0083610Y0100893D01*
X0083692Y0100837D01*
X0083623Y0100792D01*
X0083478Y0100580D01*
X0083427Y0100328D01*
X0083427Y0098804D01*
X0083471Y0098569D01*
X0083610Y0098353D01*
X0083822Y0098208D01*
X0084074Y0098157D01*
X0085598Y0098157D01*
X0085833Y0098201D01*
X0086049Y0098340D01*
X0086105Y0098422D01*
X0086150Y0098353D01*
X0086362Y0098208D01*
X0086614Y0098157D01*
X0088138Y0098157D01*
X0088373Y0098201D01*
X0088589Y0098340D01*
X0088734Y0098552D01*
X0088785Y0098804D01*
X0088785Y0100328D01*
X0088741Y0100563D01*
X0088602Y0100779D01*
X0088520Y0100835D01*
X0088589Y0100880D01*
X0088734Y0101092D01*
X0088785Y0101344D01*
X0088785Y0102868D01*
X0088741Y0103103D01*
X0088602Y0103319D01*
X0088520Y0103375D01*
X0088589Y0103420D01*
X0088734Y0103632D01*
X0088785Y0103884D01*
X0088785Y0105408D01*
X0088741Y0105643D01*
X0088602Y0105859D01*
X0088520Y0105915D01*
X0088589Y0105960D01*
X0088734Y0106172D01*
X0088785Y0106424D01*
X0088785Y0107948D01*
X0088741Y0108183D01*
X0088602Y0108399D01*
X0088520Y0108455D01*
X0088589Y0108500D01*
X0088734Y0108712D01*
X0088785Y0108964D01*
X0088785Y0110488D01*
X0088741Y0110723D01*
X0088602Y0110939D01*
X0088520Y0110995D01*
X0088589Y0111040D01*
X0088734Y0111252D01*
X0088785Y0111504D01*
X0088785Y0113028D01*
X0088741Y0113263D01*
X0088602Y0113479D01*
X0088520Y0113535D01*
X0088589Y0113580D01*
X0088734Y0113792D01*
X0088785Y0114044D01*
X0088785Y0115568D01*
X0088741Y0115803D01*
X0088602Y0116019D01*
X0088520Y0116075D01*
X0088589Y0116120D01*
X0088734Y0116332D01*
X0088785Y0116584D01*
X0088785Y0118108D01*
X0088741Y0118343D01*
X0088602Y0118559D01*
X0088520Y0118615D01*
X0088589Y0118660D01*
X0088734Y0118872D01*
X0088785Y0119124D01*
X0088785Y0120648D01*
X0088741Y0120883D01*
X0088602Y0121099D01*
X0088520Y0121155D01*
X0088589Y0121200D01*
X0088734Y0121412D01*
X0088785Y0121664D01*
X0088785Y0123188D01*
X0088741Y0123423D01*
X0088602Y0123639D01*
X0088520Y0123695D01*
X0088589Y0123740D01*
X0088734Y0123952D01*
X0088785Y0124204D01*
X0088785Y0125728D01*
X0088741Y0125963D01*
X0088602Y0126179D01*
X0088390Y0126324D01*
X0088138Y0126375D01*
X0086614Y0126375D01*
X0086379Y0126331D01*
X0086163Y0126192D01*
X0086107Y0126110D01*
X0086062Y0126179D01*
X0085850Y0126324D01*
X0085598Y0126375D01*
X0084074Y0126375D01*
X0083839Y0126331D01*
X0083623Y0126192D01*
X0083478Y0125980D01*
X0083427Y0125728D01*
X0083427Y0124204D01*
X0083471Y0123969D01*
X0083610Y0123753D01*
X0083692Y0123697D01*
X0083623Y0123652D01*
X0083478Y0123440D01*
X0083427Y0123188D01*
X0083427Y0121664D01*
X0083471Y0121429D01*
X0083610Y0121213D01*
X0083692Y0121157D01*
X0083623Y0121112D01*
X0083478Y0120900D01*
X0083427Y0120648D01*
X0083427Y0119124D01*
X0083471Y0118889D01*
X0083610Y0118673D01*
X0083692Y0118617D01*
X0083623Y0118572D01*
X0083478Y0118360D01*
X0083427Y0118108D01*
X0083427Y0116584D01*
X0083471Y0116349D01*
X0083610Y0116133D01*
X0083692Y0116077D01*
X0083623Y0116032D01*
X0083478Y0115820D01*
X0083427Y0115568D01*
X0083427Y0114044D01*
X0083471Y0113809D01*
X0083610Y0113593D01*
X0083692Y0113537D01*
X0083623Y0113492D01*
X0083478Y0113280D01*
X0083427Y0113028D01*
X0083427Y0111504D01*
X0083471Y0111269D01*
X0083610Y0111053D01*
X0083692Y0110997D01*
X0083623Y0110952D01*
X0083478Y0110740D01*
X0083431Y0110511D01*
X0082265Y0110511D01*
X0082265Y0136996D01*
X0082236Y0137139D01*
X0082205Y0137296D01*
X0082035Y0137551D01*
X0081655Y0137931D01*
X0081419Y0138089D01*
X0081419Y0139444D01*
X0081375Y0139679D01*
X0081236Y0139895D01*
X0081024Y0140040D01*
X0080772Y0140091D01*
X0079248Y0140091D01*
X0079013Y0140047D01*
X0078797Y0139908D01*
X0078734Y0139817D01*
X0077256Y0139817D01*
X0076822Y0139731D01*
X0076577Y0139567D01*
X0076453Y0139485D01*
X0075197Y0138229D01*
X0074951Y0137860D01*
X0074865Y0137426D01*
X0074865Y0135511D01*
X0073291Y0135511D01*
X0073291Y0136904D01*
X0073247Y0137139D01*
X0073108Y0137355D01*
X0073026Y0137411D01*
X0073095Y0137456D01*
X0073240Y0137668D01*
X0073291Y0137920D01*
X0073291Y0139444D01*
X0073247Y0139679D01*
X0073108Y0139895D01*
X0072896Y0140040D01*
X0072644Y0140091D01*
X0071120Y0140091D01*
X0070885Y0140047D01*
X0070669Y0139908D01*
X0070613Y0139826D01*
X0070568Y0139895D01*
X0070356Y0140040D01*
X0070104Y0140091D01*
X0068580Y0140091D01*
X0068345Y0140047D01*
X0068129Y0139908D01*
X0068073Y0139826D01*
X0068028Y0139895D01*
X0067816Y0140040D01*
X0067564Y0140091D01*
X0066040Y0140091D01*
X0065805Y0140047D01*
X0065589Y0139908D01*
X0065444Y0139696D01*
X0065393Y0139444D01*
X0065393Y0137920D01*
X0065437Y0137685D01*
X0065576Y0137469D01*
X0065658Y0137413D01*
X0065589Y0137368D01*
X0065444Y0137156D01*
X0065393Y0136904D01*
X0065393Y0135380D01*
X0065437Y0135145D01*
X0065576Y0134929D01*
X0065788Y0134784D01*
X0066040Y0134733D01*
X0067564Y0134733D01*
X0067799Y0134777D01*
X0068015Y0134916D01*
X0068071Y0134998D01*
X0068116Y0134929D01*
X0068328Y0134784D01*
X0068413Y0134766D01*
X0068507Y0134626D01*
X0068539Y0134577D01*
X0069156Y0133961D01*
X0056125Y0133961D01*
X0052105Y0137981D01*
X0051850Y0138151D01*
X0051550Y0138211D01*
X0045489Y0138211D01*
X0045489Y0139444D01*
X0055995Y0139444D01*
X0055995Y0137920D01*
X0056039Y0137685D01*
X0056178Y0137469D01*
X0056260Y0137413D01*
X0056191Y0137368D01*
X0056046Y0137156D01*
X0055995Y0136904D01*
X0055995Y0135380D01*
X0056039Y0135145D01*
X0056178Y0134929D01*
X0056390Y0134784D01*
X0056642Y0134733D01*
X0058166Y0134733D01*
X0058401Y0134777D01*
X0058617Y0134916D01*
X0058673Y0134998D01*
X0058718Y0134929D01*
X0058930Y0134784D01*
X0059182Y0134733D01*
X0060706Y0134733D01*
X0060941Y0134777D01*
X0061157Y0134916D01*
X0061302Y0135128D01*
X0061353Y0135380D01*
X0061353Y0136904D01*
X0061309Y0137139D01*
X0061170Y0137355D01*
X0061088Y0137411D01*
X0061157Y0137456D01*
X0061302Y0137668D01*
X0061353Y0137920D01*
X0061353Y0139444D01*
X0061309Y0139679D01*
X0061170Y0139895D01*
X0060958Y0140040D01*
X0060706Y0140091D01*
X0059182Y0140091D01*
X0058947Y0140047D01*
X0058731Y0139908D01*
X0058675Y0139826D01*
X0058630Y0139895D01*
X0058418Y0140040D01*
X0058166Y0140091D01*
X0056642Y0140091D01*
X0056407Y0140047D01*
X0056191Y0139908D01*
X0056046Y0139696D01*
X0055995Y0139444D01*
X0045489Y0139444D01*
X0045489Y0139458D01*
X0045445Y0139693D01*
X0045306Y0139909D01*
X0045094Y0140054D01*
X0044842Y0140105D01*
X0043318Y0140105D01*
X0043083Y0140061D01*
X0042867Y0139922D01*
X0042722Y0139710D01*
X0042671Y0139458D01*
X0042671Y0137934D01*
X0042715Y0137699D01*
X0042854Y0137483D01*
X0042936Y0137427D01*
X0042867Y0137382D01*
X0042811Y0137300D01*
X0042766Y0137369D01*
X0042554Y0137514D01*
X0042302Y0137565D01*
X0040778Y0137565D01*
X0040543Y0137521D01*
X0040327Y0137382D01*
X0040271Y0137300D01*
X0040226Y0137369D01*
X0040014Y0137514D01*
X0039762Y0137565D01*
X0038238Y0137565D01*
X0038003Y0137521D01*
X0037787Y0137382D01*
X0037731Y0137300D01*
X0037686Y0137369D01*
X0037474Y0137514D01*
X0037222Y0137565D01*
X0035698Y0137565D01*
X0035463Y0137521D01*
X0035247Y0137382D01*
X0035191Y0137300D01*
X0035146Y0137369D01*
X0034934Y0137514D01*
X0034682Y0137565D01*
X0033158Y0137565D01*
X0032923Y0137521D01*
X0032707Y0137382D01*
X0032651Y0137300D01*
X0032606Y0137369D01*
X0032394Y0137514D01*
X0032142Y0137565D01*
X0030618Y0137565D01*
X0030383Y0137521D01*
X0030167Y0137382D01*
X0030022Y0137170D01*
X0029971Y0136918D01*
X0029971Y0135394D01*
X0030015Y0135159D01*
X0030154Y0134943D01*
X0030245Y0134880D01*
X0030245Y0133061D01*
X0025908Y0133061D01*
X0025474Y0132975D01*
X0025105Y0132729D01*
X0024859Y0132360D01*
X0024773Y0131926D01*
X0024773Y0125989D01*
X0024695Y0125938D01*
X0024639Y0125856D01*
X0024594Y0125925D01*
X0024382Y0126070D01*
X0024130Y0126121D01*
X0022606Y0126121D01*
X0022371Y0126077D01*
X0022155Y0125938D01*
X0022092Y0125847D01*
X0019500Y0125847D01*
X0019066Y0125761D01*
X0018697Y0125515D01*
X0018451Y0125146D01*
X0018365Y0124712D01*
X0018365Y0090591D01*
X0018114Y0090695D01*
X0017702Y0090695D01*
X0017321Y0090538D01*
X0017030Y0090247D01*
X0016872Y0089867D01*
X0016872Y0089455D01*
X0000710Y0089455D01*
X0000710Y0093501D01*
X0002961Y0093501D01*
X0003133Y0093084D01*
X0003452Y0092764D01*
X0003869Y0092591D01*
X0004321Y0092591D01*
X0004738Y0092763D01*
X0005058Y0093082D01*
X0005231Y0093499D01*
X0005231Y0093951D01*
X0005059Y0094368D01*
X0004740Y0094688D01*
X0004323Y0094861D01*
X0003871Y0094861D01*
X0003454Y0094689D01*
X0003134Y0094370D01*
X0002961Y0093953D01*
X0002961Y0093501D01*
X0000710Y0093501D01*
X0000710Y0106438D01*
X0000771Y0106438D01*
X0000771Y0104914D01*
X0000815Y0104679D01*
X0000954Y0104463D01*
X0001166Y0104318D01*
X0001418Y0104267D01*
X0002942Y0104267D01*
X0003177Y0104311D01*
X0003393Y0104450D01*
X0003449Y0104532D01*
X0003494Y0104463D01*
X0003706Y0104318D01*
X0003958Y0104267D01*
X0005482Y0104267D01*
X0005717Y0104311D01*
X0005933Y0104450D01*
X0006078Y0104662D01*
X0006129Y0104914D01*
X0006129Y0106438D01*
X0006085Y0106673D01*
X0005946Y0106889D01*
X0005734Y0107034D01*
X0005482Y0107085D01*
X0003958Y0107085D01*
X0003723Y0107041D01*
X0003507Y0106902D01*
X0003451Y0106820D01*
X0003406Y0106889D01*
X0003194Y0107034D01*
X0002942Y0107085D01*
X0001418Y0107085D01*
X0001183Y0107041D01*
X0000967Y0106902D01*
X0000822Y0106690D01*
X0000771Y0106438D01*
X0000710Y0106438D01*
X0000710Y0112202D01*
X0011291Y0112202D01*
X0011291Y0110678D01*
X0011335Y0110443D01*
X0011474Y0110227D01*
X0011686Y0110082D01*
X0011938Y0110031D01*
X0013462Y0110031D01*
X0013697Y0110075D01*
X0013913Y0110214D01*
X0013969Y0110296D01*
X0014014Y0110227D01*
X0014226Y0110082D01*
X0014478Y0110031D01*
X0016002Y0110031D01*
X0016237Y0110075D01*
X0016453Y0110214D01*
X0016598Y0110427D01*
X0016649Y0110678D01*
X0016649Y0112202D01*
X0016605Y0112438D01*
X0016466Y0112654D01*
X0016375Y0112716D01*
X0016375Y0119048D01*
X0016422Y0119095D01*
X0016635Y0119607D01*
X0016635Y0120162D01*
X0016423Y0120675D01*
X0016031Y0121068D01*
X0015819Y0121156D01*
X0016029Y0121243D01*
X0016422Y0121635D01*
X0016635Y0122147D01*
X0016635Y0122702D01*
X0016423Y0123215D01*
X0016031Y0123608D01*
X0015519Y0123821D01*
X0014964Y0123821D01*
X0014451Y0123609D01*
X0014240Y0123399D01*
X0014031Y0123608D01*
X0013519Y0123821D01*
X0012964Y0123821D01*
X0012451Y0123609D01*
X0012058Y0123217D01*
X0011845Y0122705D01*
X0011845Y0122150D01*
X0012057Y0121637D01*
X0012449Y0121244D01*
X0012961Y0121031D01*
X0013516Y0121031D01*
X0014029Y0121243D01*
X0014240Y0121453D01*
X0014449Y0121244D01*
X0014661Y0121156D01*
X0014451Y0121069D01*
X0014058Y0120677D01*
X0013845Y0120165D01*
X0013845Y0119610D01*
X0014057Y0119097D01*
X0014105Y0119048D01*
X0014105Y0112717D01*
X0014027Y0112667D01*
X0013971Y0112585D01*
X0013926Y0112654D01*
X0013714Y0112799D01*
X0013462Y0112850D01*
X0011938Y0112850D01*
X0011703Y0112806D01*
X0011487Y0112667D01*
X0011342Y0112454D01*
X0011291Y0112202D01*
X0000710Y0112202D01*
X0000710Y0131633D01*
X0011291Y0131633D01*
X0011291Y0130109D01*
X0011335Y0129874D01*
X0011474Y0129658D01*
X0011686Y0129513D01*
X0011938Y0129462D01*
X0013462Y0129462D01*
X0013697Y0129506D01*
X0013913Y0129645D01*
X0013969Y0129727D01*
X0014014Y0129658D01*
X0014226Y0129513D01*
X0014478Y0129462D01*
X0016002Y0129462D01*
X0016237Y0129506D01*
X0016453Y0129645D01*
X0016598Y0129858D01*
X0016649Y0130109D01*
X0016649Y0131633D01*
X0016605Y0131869D01*
X0016466Y0132085D01*
X0016254Y0132230D01*
X0016002Y0132281D01*
X0014478Y0132281D01*
X0014243Y0132237D01*
X0014027Y0132098D01*
X0013971Y0132016D01*
X0013926Y0132085D01*
X0013714Y0132230D01*
X0013462Y0132281D01*
X0011938Y0132281D01*
X0011703Y0132237D01*
X0011487Y0132098D01*
X0011342Y0131885D01*
X0011291Y0131633D01*
X0000710Y0131633D01*
X0000710Y0140512D01*
X0090222Y0140512D01*
X0090222Y0071320D01*
G36*
X0034913Y0130554D02*
X0034913Y0129030D01*
X0034957Y0128795D01*
X0035096Y0128579D01*
X0035178Y0128523D01*
X0035109Y0128478D01*
X0034964Y0128266D01*
X0034913Y0128014D01*
X0034913Y0126490D01*
X0034957Y0126255D01*
X0035096Y0126039D01*
X0035308Y0125894D01*
X0035560Y0125843D01*
X0037084Y0125843D01*
X0037319Y0125887D01*
X0037535Y0126026D01*
X0037591Y0126108D01*
X0037636Y0126039D01*
X0037848Y0125894D01*
X0038100Y0125843D01*
X0039624Y0125843D01*
X0039859Y0125887D01*
X0040075Y0126026D01*
X0040131Y0126108D01*
X0040176Y0126039D01*
X0040388Y0125894D01*
X0040640Y0125843D01*
X0042164Y0125843D01*
X0042399Y0125887D01*
X0042615Y0126026D01*
X0042671Y0126108D01*
X0042716Y0126039D01*
X0042928Y0125894D01*
X0043180Y0125843D01*
X0044704Y0125843D01*
X0044939Y0125887D01*
X0045155Y0126026D01*
X0045211Y0126108D01*
X0045256Y0126039D01*
X0045468Y0125894D01*
X0045720Y0125843D01*
X0047244Y0125843D01*
X0047479Y0125887D01*
X0047695Y0126026D01*
X0047751Y0126108D01*
X0047796Y0126039D01*
X0048008Y0125894D01*
X0048260Y0125843D01*
X0049784Y0125843D01*
X0050019Y0125887D01*
X0050235Y0126026D01*
X0050291Y0126108D01*
X0050336Y0126039D01*
X0050548Y0125894D01*
X0050800Y0125843D01*
X0052324Y0125843D01*
X0052559Y0125887D01*
X0052775Y0126026D01*
X0052831Y0126108D01*
X0052876Y0126039D01*
X0053088Y0125894D01*
X0053340Y0125843D01*
X0054864Y0125843D01*
X0055099Y0125887D01*
X0055315Y0126026D01*
X0055371Y0126108D01*
X0055416Y0126039D01*
X0055628Y0125894D01*
X0055880Y0125843D01*
X0057404Y0125843D01*
X0057639Y0125887D01*
X0057855Y0126026D01*
X0057911Y0126108D01*
X0057956Y0126039D01*
X0058168Y0125894D01*
X0058420Y0125843D01*
X0059944Y0125843D01*
X0060179Y0125887D01*
X0060395Y0126026D01*
X0060451Y0126108D01*
X0060496Y0126039D01*
X0060708Y0125894D01*
X0060960Y0125843D01*
X0062484Y0125843D01*
X0062719Y0125887D01*
X0062935Y0126026D01*
X0062991Y0126108D01*
X0063036Y0126039D01*
X0063248Y0125894D01*
X0063500Y0125843D01*
X0064561Y0125843D01*
X0077041Y0113363D01*
X0077041Y0079172D01*
X0076988Y0079172D01*
X0076752Y0079127D01*
X0076536Y0078988D01*
X0076391Y0078776D01*
X0076340Y0078524D01*
X0076340Y0076848D01*
X0076385Y0076612D01*
X0076524Y0076396D01*
X0076619Y0076331D01*
X0072734Y0076331D01*
X0072816Y0076384D01*
X0072961Y0076596D01*
X0073012Y0076848D01*
X0073012Y0078524D01*
X0072967Y0078760D01*
X0072828Y0078976D01*
X0072616Y0079121D01*
X0072364Y0079172D01*
X0070688Y0079172D01*
X0070452Y0079127D01*
X0070236Y0078988D01*
X0070091Y0078776D01*
X0070040Y0078524D01*
X0070040Y0076848D01*
X0070085Y0076612D01*
X0070224Y0076396D01*
X0070319Y0076331D01*
X0067835Y0076331D01*
X0066866Y0077301D01*
X0066866Y0078524D01*
X0066844Y0078641D01*
X0069350Y0078641D01*
X0069784Y0078727D01*
X0070153Y0078973D01*
X0070399Y0079342D01*
X0070485Y0079776D01*
X0070485Y0080769D01*
X0070555Y0080814D01*
X0070700Y0081026D01*
X0070751Y0081278D01*
X0070751Y0082802D01*
X0070707Y0083037D01*
X0070568Y0083253D01*
X0070486Y0083309D01*
X0070555Y0083354D01*
X0070700Y0083566D01*
X0070751Y0083818D01*
X0070751Y0085342D01*
X0073013Y0085342D01*
X0073013Y0083818D01*
X0073057Y0083583D01*
X0073196Y0083367D01*
X0073278Y0083311D01*
X0073209Y0083266D01*
X0073064Y0083054D01*
X0073013Y0082802D01*
X0073013Y0081278D01*
X0073057Y0081043D01*
X0073196Y0080827D01*
X0073408Y0080682D01*
X0073660Y0080631D01*
X0075184Y0080631D01*
X0075419Y0080675D01*
X0075635Y0080814D01*
X0075780Y0081026D01*
X0075831Y0081278D01*
X0075831Y0082802D01*
X0075787Y0083037D01*
X0075648Y0083253D01*
X0075566Y0083309D01*
X0075635Y0083354D01*
X0075780Y0083566D01*
X0075831Y0083818D01*
X0075831Y0085342D01*
X0075787Y0085577D01*
X0075648Y0085793D01*
X0075436Y0085938D01*
X0075184Y0085989D01*
X0073660Y0085989D01*
X0073425Y0085945D01*
X0073209Y0085806D01*
X0073064Y0085594D01*
X0073013Y0085342D01*
X0070751Y0085342D01*
X0070707Y0085577D01*
X0070568Y0085793D01*
X0070356Y0085938D01*
X0070127Y0085985D01*
X0070127Y0091549D01*
X0070197Y0091619D01*
X0070355Y0091999D01*
X0070355Y0092411D01*
X0070198Y0092792D01*
X0069907Y0093083D01*
X0069527Y0093241D01*
X0069115Y0093241D01*
X0068734Y0093084D01*
X0068443Y0092793D01*
X0068285Y0092413D01*
X0068285Y0092001D01*
X0068442Y0091620D01*
X0068557Y0091505D01*
X0068557Y0085985D01*
X0068345Y0085945D01*
X0068129Y0085806D01*
X0068073Y0085724D01*
X0068028Y0085793D01*
X0067816Y0085938D01*
X0067564Y0085989D01*
X0066040Y0085989D01*
X0065805Y0085945D01*
X0065589Y0085806D01*
X0065533Y0085724D01*
X0065488Y0085793D01*
X0065276Y0085938D01*
X0065024Y0085989D01*
X0063500Y0085989D01*
X0063265Y0085945D01*
X0063049Y0085806D01*
X0062993Y0085724D01*
X0062948Y0085793D01*
X0062736Y0085938D01*
X0062484Y0085989D01*
X0060960Y0085989D01*
X0060725Y0085945D01*
X0060509Y0085806D01*
X0060453Y0085724D01*
X0060408Y0085793D01*
X0060196Y0085938D01*
X0059944Y0085989D01*
X0058420Y0085989D01*
X0058185Y0085945D01*
X0057969Y0085806D01*
X0057913Y0085724D01*
X0057868Y0085793D01*
X0057656Y0085938D01*
X0057404Y0085989D01*
X0055880Y0085989D01*
X0055645Y0085945D01*
X0055429Y0085806D01*
X0055373Y0085724D01*
X0055328Y0085793D01*
X0055116Y0085938D01*
X0054864Y0085989D01*
X0053340Y0085989D01*
X0053105Y0085945D01*
X0052889Y0085806D01*
X0052833Y0085724D01*
X0052788Y0085793D01*
X0052576Y0085938D01*
X0052324Y0085989D01*
X0050800Y0085989D01*
X0050565Y0085945D01*
X0050349Y0085806D01*
X0050293Y0085724D01*
X0050248Y0085793D01*
X0050036Y0085938D01*
X0049784Y0085989D01*
X0048260Y0085989D01*
X0048025Y0085945D01*
X0047809Y0085806D01*
X0047753Y0085724D01*
X0047708Y0085793D01*
X0047496Y0085938D01*
X0047244Y0085989D01*
X0045720Y0085989D01*
X0045485Y0085945D01*
X0045269Y0085806D01*
X0045213Y0085724D01*
X0045168Y0085793D01*
X0044956Y0085938D01*
X0044704Y0085989D01*
X0043180Y0085989D01*
X0042945Y0085945D01*
X0042729Y0085806D01*
X0042673Y0085724D01*
X0042628Y0085793D01*
X0042416Y0085938D01*
X0042164Y0085989D01*
X0040640Y0085989D01*
X0040405Y0085945D01*
X0040189Y0085806D01*
X0040044Y0085594D01*
X0039993Y0085342D01*
X0039993Y0083818D01*
X0040037Y0083583D01*
X0040176Y0083367D01*
X0040258Y0083311D01*
X0040189Y0083266D01*
X0040044Y0083054D01*
X0039993Y0082802D01*
X0039993Y0081278D01*
X0040037Y0081043D01*
X0040122Y0080911D01*
X0037602Y0080911D01*
X0037680Y0081026D01*
X0037731Y0081278D01*
X0037731Y0082802D01*
X0037687Y0083037D01*
X0037548Y0083253D01*
X0037466Y0083309D01*
X0037535Y0083354D01*
X0037680Y0083566D01*
X0037731Y0083818D01*
X0037731Y0085342D01*
X0037687Y0085577D01*
X0037548Y0085793D01*
X0037336Y0085938D01*
X0037084Y0085989D01*
X0035560Y0085989D01*
X0035325Y0085945D01*
X0035109Y0085806D01*
X0034964Y0085594D01*
X0034913Y0085342D01*
X0034913Y0083818D01*
X0034957Y0083583D01*
X0035096Y0083367D01*
X0035178Y0083311D01*
X0035109Y0083266D01*
X0034964Y0083054D01*
X0034913Y0082802D01*
X0034913Y0081278D01*
X0034957Y0081043D01*
X0035042Y0080911D01*
X0031750Y0080911D01*
X0031316Y0080825D01*
X0030947Y0080579D01*
X0028154Y0077785D01*
X0027158Y0077785D01*
X0026923Y0077741D01*
X0026707Y0077602D01*
X0026651Y0077520D01*
X0026606Y0077589D01*
X0026394Y0077734D01*
X0026142Y0077785D01*
X0024618Y0077785D01*
X0024383Y0077741D01*
X0024167Y0077602D01*
X0024104Y0077511D01*
X0020635Y0077511D01*
X0020635Y0120394D01*
X0021959Y0120394D01*
X0021959Y0118870D01*
X0022003Y0118635D01*
X0022142Y0118419D01*
X0022224Y0118363D01*
X0022155Y0118318D01*
X0022010Y0118106D01*
X0021959Y0117854D01*
X0021959Y0116330D01*
X0022003Y0116095D01*
X0022142Y0115879D01*
X0022224Y0115823D01*
X0022155Y0115778D01*
X0022010Y0115566D01*
X0021959Y0115314D01*
X0021959Y0113790D01*
X0022003Y0113555D01*
X0022142Y0113339D01*
X0022224Y0113283D01*
X0022155Y0113238D01*
X0022010Y0113026D01*
X0021959Y0112774D01*
X0021959Y0111250D01*
X0022003Y0111015D01*
X0022142Y0110799D01*
X0022224Y0110743D01*
X0022155Y0110698D01*
X0022010Y0110486D01*
X0021959Y0110234D01*
X0021959Y0108710D01*
X0022003Y0108475D01*
X0022142Y0108259D01*
X0022224Y0108203D01*
X0022155Y0108158D01*
X0022010Y0107946D01*
X0021959Y0107694D01*
X0021959Y0106170D01*
X0022003Y0105935D01*
X0022142Y0105719D01*
X0022224Y0105663D01*
X0022155Y0105618D01*
X0022010Y0105406D01*
X0021959Y0105154D01*
X0021959Y0103630D01*
X0022003Y0103395D01*
X0022142Y0103179D01*
X0022224Y0103123D01*
X0022155Y0103078D01*
X0022010Y0102866D01*
X0021959Y0102614D01*
X0021959Y0101090D01*
X0022003Y0100855D01*
X0022142Y0100639D01*
X0022224Y0100583D01*
X0022155Y0100538D01*
X0022010Y0100326D01*
X0021959Y0100074D01*
X0021959Y0098550D01*
X0022003Y0098315D01*
X0022142Y0098099D01*
X0022224Y0098043D01*
X0022155Y0097998D01*
X0022010Y0097786D01*
X0021959Y0097534D01*
X0021959Y0096010D01*
X0022003Y0095775D01*
X0022142Y0095559D01*
X0022224Y0095503D01*
X0022155Y0095458D01*
X0022010Y0095246D01*
X0021959Y0094994D01*
X0021959Y0093470D01*
X0022003Y0093235D01*
X0022142Y0093019D01*
X0022224Y0092963D01*
X0022155Y0092918D01*
X0022010Y0092706D01*
X0021959Y0092454D01*
X0021959Y0090930D01*
X0022003Y0090695D01*
X0022142Y0090479D01*
X0022224Y0090423D01*
X0022155Y0090378D01*
X0022010Y0090166D01*
X0021959Y0089914D01*
X0021959Y0088390D01*
X0022003Y0088155D01*
X0022142Y0087939D01*
X0022224Y0087883D01*
X0022155Y0087838D01*
X0022010Y0087626D01*
X0021959Y0087374D01*
X0021959Y0085850D01*
X0022003Y0085615D01*
X0022142Y0085399D01*
X0022354Y0085254D01*
X0022606Y0085203D01*
X0024130Y0085203D01*
X0024365Y0085247D01*
X0024581Y0085386D01*
X0024637Y0085468D01*
X0024682Y0085399D01*
X0024894Y0085254D01*
X0025146Y0085203D01*
X0026670Y0085203D01*
X0026905Y0085247D01*
X0027121Y0085386D01*
X0027266Y0085598D01*
X0027317Y0085850D01*
X0027317Y0087374D01*
X0027273Y0087609D01*
X0027134Y0087825D01*
X0027052Y0087881D01*
X0027121Y0087926D01*
X0027266Y0088138D01*
X0027317Y0088390D01*
X0027317Y0089914D01*
X0027273Y0090149D01*
X0027134Y0090365D01*
X0027052Y0090421D01*
X0027121Y0090466D01*
X0027266Y0090678D01*
X0027317Y0090930D01*
X0027317Y0092454D01*
X0027273Y0092689D01*
X0027134Y0092905D01*
X0027052Y0092961D01*
X0027121Y0093006D01*
X0027266Y0093218D01*
X0027317Y0093470D01*
X0027317Y0094994D01*
X0027273Y0095229D01*
X0027134Y0095445D01*
X0027052Y0095501D01*
X0027121Y0095546D01*
X0027266Y0095758D01*
X0027317Y0096010D01*
X0027317Y0097534D01*
X0027273Y0097769D01*
X0027134Y0097985D01*
X0027052Y0098041D01*
X0027121Y0098086D01*
X0027266Y0098298D01*
X0027317Y0098550D01*
X0027317Y0100074D01*
X0027273Y0100309D01*
X0027134Y0100525D01*
X0027052Y0100581D01*
X0027121Y0100626D01*
X0027266Y0100838D01*
X0027317Y0101090D01*
X0027317Y0102614D01*
X0027273Y0102849D01*
X0027134Y0103065D01*
X0027052Y0103121D01*
X0027121Y0103166D01*
X0027266Y0103378D01*
X0027317Y0103630D01*
X0027317Y0104725D01*
X0067004Y0104725D01*
X0067214Y0104215D01*
X0067604Y0103825D01*
X0068113Y0103614D01*
X0068664Y0103613D01*
X0069173Y0103824D01*
X0069563Y0104213D01*
X0069775Y0104722D01*
X0069775Y0105273D01*
X0069565Y0105783D01*
X0069175Y0106173D01*
X0068666Y0106384D01*
X0068115Y0106385D01*
X0067606Y0106174D01*
X0067216Y0105785D01*
X0067004Y0105276D01*
X0067004Y0104725D01*
X0027317Y0104725D01*
X0027317Y0105154D01*
X0027273Y0105389D01*
X0027134Y0105605D01*
X0027052Y0105661D01*
X0027121Y0105706D01*
X0027266Y0105918D01*
X0027317Y0106170D01*
X0027317Y0107694D01*
X0027273Y0107929D01*
X0027134Y0108145D01*
X0027052Y0108201D01*
X0027121Y0108246D01*
X0027266Y0108458D01*
X0027317Y0108710D01*
X0027317Y0109607D01*
X0067004Y0109607D01*
X0067214Y0109097D01*
X0067604Y0108707D01*
X0068113Y0108496D01*
X0068664Y0108495D01*
X0069173Y0108706D01*
X0069563Y0109095D01*
X0069775Y0109604D01*
X0069775Y0110155D01*
X0069565Y0110665D01*
X0069175Y0111055D01*
X0068666Y0111266D01*
X0068115Y0111267D01*
X0067606Y0111056D01*
X0067216Y0110667D01*
X0067004Y0110158D01*
X0067004Y0109607D01*
X0027317Y0109607D01*
X0027317Y0110234D01*
X0027273Y0110469D01*
X0027134Y0110685D01*
X0027052Y0110741D01*
X0027121Y0110786D01*
X0027266Y0110998D01*
X0027317Y0111250D01*
X0027317Y0112774D01*
X0027273Y0113009D01*
X0027134Y0113225D01*
X0027109Y0113243D01*
X0062873Y0113243D01*
X0063045Y0112825D01*
X0063353Y0112517D01*
X0063046Y0112211D01*
X0062873Y0111794D01*
X0062873Y0111343D01*
X0063045Y0110925D01*
X0063364Y0110606D01*
X0063781Y0110433D01*
X0064233Y0110432D01*
X0064650Y0110605D01*
X0064970Y0110924D01*
X0065143Y0111341D01*
X0065143Y0111792D01*
X0064971Y0112210D01*
X0064663Y0112518D01*
X0064970Y0112824D01*
X0065143Y0113241D01*
X0065143Y0113692D01*
X0064971Y0114110D01*
X0064652Y0114429D01*
X0064235Y0114602D01*
X0063783Y0114603D01*
X0063366Y0114430D01*
X0063046Y0114111D01*
X0062873Y0113694D01*
X0062873Y0113243D01*
X0027109Y0113243D01*
X0027052Y0113281D01*
X0027121Y0113326D01*
X0027266Y0113538D01*
X0027317Y0113790D01*
X0027317Y0115314D01*
X0027273Y0115549D01*
X0027134Y0115765D01*
X0027052Y0115821D01*
X0027121Y0115866D01*
X0027266Y0116078D01*
X0027317Y0116330D01*
X0027317Y0117854D01*
X0027273Y0118089D01*
X0027134Y0118305D01*
X0027052Y0118361D01*
X0027121Y0118406D01*
X0027266Y0118618D01*
X0027317Y0118870D01*
X0027317Y0120394D01*
X0027273Y0120629D01*
X0027134Y0120845D01*
X0026922Y0120990D01*
X0026670Y0121041D01*
X0025146Y0121041D01*
X0024911Y0120997D01*
X0024695Y0120858D01*
X0024639Y0120776D01*
X0024594Y0120845D01*
X0024382Y0120990D01*
X0024130Y0121041D01*
X0022606Y0121041D01*
X0022371Y0120997D01*
X0022155Y0120858D01*
X0022010Y0120646D01*
X0021959Y0120394D01*
X0020635Y0120394D01*
X0020635Y0123577D01*
X0022091Y0123577D01*
X0022142Y0123499D01*
X0022354Y0123354D01*
X0022606Y0123303D01*
X0024130Y0123303D01*
X0024365Y0123347D01*
X0024581Y0123486D01*
X0024637Y0123568D01*
X0024682Y0123499D01*
X0024894Y0123354D01*
X0025146Y0123303D01*
X0026670Y0123303D01*
X0026905Y0123347D01*
X0027121Y0123486D01*
X0027266Y0123698D01*
X0027317Y0123950D01*
X0027317Y0125474D01*
X0027273Y0125709D01*
X0027134Y0125925D01*
X0027043Y0125988D01*
X0027043Y0130791D01*
X0034961Y0130791D01*
X0034913Y0130554D01*
X0034913Y0130554D01*
G37*
X0034913Y0130554D02*
X0034913Y0129030D01*
X0034957Y0128795D01*
X0035096Y0128579D01*
X0035178Y0128523D01*
X0035109Y0128478D01*
X0034964Y0128266D01*
X0034913Y0128014D01*
X0034913Y0126490D01*
X0034957Y0126255D01*
X0035096Y0126039D01*
X0035308Y0125894D01*
X0035560Y0125843D01*
X0037084Y0125843D01*
X0037319Y0125887D01*
X0037535Y0126026D01*
X0037591Y0126108D01*
X0037636Y0126039D01*
X0037848Y0125894D01*
X0038100Y0125843D01*
X0039624Y0125843D01*
X0039859Y0125887D01*
X0040075Y0126026D01*
X0040131Y0126108D01*
X0040176Y0126039D01*
X0040388Y0125894D01*
X0040640Y0125843D01*
X0042164Y0125843D01*
X0042399Y0125887D01*
X0042615Y0126026D01*
X0042671Y0126108D01*
X0042716Y0126039D01*
X0042928Y0125894D01*
X0043180Y0125843D01*
X0044704Y0125843D01*
X0044939Y0125887D01*
X0045155Y0126026D01*
X0045211Y0126108D01*
X0045256Y0126039D01*
X0045468Y0125894D01*
X0045720Y0125843D01*
X0047244Y0125843D01*
X0047479Y0125887D01*
X0047695Y0126026D01*
X0047751Y0126108D01*
X0047796Y0126039D01*
X0048008Y0125894D01*
X0048260Y0125843D01*
X0049784Y0125843D01*
X0050019Y0125887D01*
X0050235Y0126026D01*
X0050291Y0126108D01*
X0050336Y0126039D01*
X0050548Y0125894D01*
X0050800Y0125843D01*
X0052324Y0125843D01*
X0052559Y0125887D01*
X0052775Y0126026D01*
X0052831Y0126108D01*
X0052876Y0126039D01*
X0053088Y0125894D01*
X0053340Y0125843D01*
X0054864Y0125843D01*
X0055099Y0125887D01*
X0055315Y0126026D01*
X0055371Y0126108D01*
X0055416Y0126039D01*
X0055628Y0125894D01*
X0055880Y0125843D01*
X0057404Y0125843D01*
X0057639Y0125887D01*
X0057855Y0126026D01*
X0057911Y0126108D01*
X0057956Y0126039D01*
X0058168Y0125894D01*
X0058420Y0125843D01*
X0059944Y0125843D01*
X0060179Y0125887D01*
X0060395Y0126026D01*
X0060451Y0126108D01*
X0060496Y0126039D01*
X0060708Y0125894D01*
X0060960Y0125843D01*
X0062484Y0125843D01*
X0062719Y0125887D01*
X0062935Y0126026D01*
X0062991Y0126108D01*
X0063036Y0126039D01*
X0063248Y0125894D01*
X0063500Y0125843D01*
X0064561Y0125843D01*
X0077041Y0113363D01*
X0077041Y0079172D01*
X0076988Y0079172D01*
X0076752Y0079127D01*
X0076536Y0078988D01*
X0076391Y0078776D01*
X0076340Y0078524D01*
X0076340Y0076848D01*
X0076385Y0076612D01*
X0076524Y0076396D01*
X0076619Y0076331D01*
X0072734Y0076331D01*
X0072816Y0076384D01*
X0072961Y0076596D01*
X0073012Y0076848D01*
X0073012Y0078524D01*
X0072967Y0078760D01*
X0072828Y0078976D01*
X0072616Y0079121D01*
X0072364Y0079172D01*
X0070688Y0079172D01*
X0070452Y0079127D01*
X0070236Y0078988D01*
X0070091Y0078776D01*
X0070040Y0078524D01*
X0070040Y0076848D01*
X0070085Y0076612D01*
X0070224Y0076396D01*
X0070319Y0076331D01*
X0067835Y0076331D01*
X0066866Y0077301D01*
X0066866Y0078524D01*
X0066844Y0078641D01*
X0069350Y0078641D01*
X0069784Y0078727D01*
X0070153Y0078973D01*
X0070399Y0079342D01*
X0070485Y0079776D01*
X0070485Y0080769D01*
X0070555Y0080814D01*
X0070700Y0081026D01*
X0070751Y0081278D01*
X0070751Y0082802D01*
X0070707Y0083037D01*
X0070568Y0083253D01*
X0070486Y0083309D01*
X0070555Y0083354D01*
X0070700Y0083566D01*
X0070751Y0083818D01*
X0070751Y0085342D01*
X0073013Y0085342D01*
X0073013Y0083818D01*
X0073057Y0083583D01*
X0073196Y0083367D01*
X0073278Y0083311D01*
X0073209Y0083266D01*
X0073064Y0083054D01*
X0073013Y0082802D01*
X0073013Y0081278D01*
X0073057Y0081043D01*
X0073196Y0080827D01*
X0073408Y0080682D01*
X0073660Y0080631D01*
X0075184Y0080631D01*
X0075419Y0080675D01*
X0075635Y0080814D01*
X0075780Y0081026D01*
X0075831Y0081278D01*
X0075831Y0082802D01*
X0075787Y0083037D01*
X0075648Y0083253D01*
X0075566Y0083309D01*
X0075635Y0083354D01*
X0075780Y0083566D01*
X0075831Y0083818D01*
X0075831Y0085342D01*
X0075787Y0085577D01*
X0075648Y0085793D01*
X0075436Y0085938D01*
X0075184Y0085989D01*
X0073660Y0085989D01*
X0073425Y0085945D01*
X0073209Y0085806D01*
X0073064Y0085594D01*
X0073013Y0085342D01*
X0070751Y0085342D01*
X0070707Y0085577D01*
X0070568Y0085793D01*
X0070356Y0085938D01*
X0070127Y0085985D01*
X0070127Y0091549D01*
X0070197Y0091619D01*
X0070355Y0091999D01*
X0070355Y0092411D01*
X0070198Y0092792D01*
X0069907Y0093083D01*
X0069527Y0093241D01*
X0069115Y0093241D01*
X0068734Y0093084D01*
X0068443Y0092793D01*
X0068285Y0092413D01*
X0068285Y0092001D01*
X0068442Y0091620D01*
X0068557Y0091505D01*
X0068557Y0085985D01*
X0068345Y0085945D01*
X0068129Y0085806D01*
X0068073Y0085724D01*
X0068028Y0085793D01*
X0067816Y0085938D01*
X0067564Y0085989D01*
X0066040Y0085989D01*
X0065805Y0085945D01*
X0065589Y0085806D01*
X0065533Y0085724D01*
X0065488Y0085793D01*
X0065276Y0085938D01*
X0065024Y0085989D01*
X0063500Y0085989D01*
X0063265Y0085945D01*
X0063049Y0085806D01*
X0062993Y0085724D01*
X0062948Y0085793D01*
X0062736Y0085938D01*
X0062484Y0085989D01*
X0060960Y0085989D01*
X0060725Y0085945D01*
X0060509Y0085806D01*
X0060453Y0085724D01*
X0060408Y0085793D01*
X0060196Y0085938D01*
X0059944Y0085989D01*
X0058420Y0085989D01*
X0058185Y0085945D01*
X0057969Y0085806D01*
X0057913Y0085724D01*
X0057868Y0085793D01*
X0057656Y0085938D01*
X0057404Y0085989D01*
X0055880Y0085989D01*
X0055645Y0085945D01*
X0055429Y0085806D01*
X0055373Y0085724D01*
X0055328Y0085793D01*
X0055116Y0085938D01*
X0054864Y0085989D01*
X0053340Y0085989D01*
X0053105Y0085945D01*
X0052889Y0085806D01*
X0052833Y0085724D01*
X0052788Y0085793D01*
X0052576Y0085938D01*
X0052324Y0085989D01*
X0050800Y0085989D01*
X0050565Y0085945D01*
X0050349Y0085806D01*
X0050293Y0085724D01*
X0050248Y0085793D01*
X0050036Y0085938D01*
X0049784Y0085989D01*
X0048260Y0085989D01*
X0048025Y0085945D01*
X0047809Y0085806D01*
X0047753Y0085724D01*
X0047708Y0085793D01*
X0047496Y0085938D01*
X0047244Y0085989D01*
X0045720Y0085989D01*
X0045485Y0085945D01*
X0045269Y0085806D01*
X0045213Y0085724D01*
X0045168Y0085793D01*
X0044956Y0085938D01*
X0044704Y0085989D01*
X0043180Y0085989D01*
X0042945Y0085945D01*
X0042729Y0085806D01*
X0042673Y0085724D01*
X0042628Y0085793D01*
X0042416Y0085938D01*
X0042164Y0085989D01*
X0040640Y0085989D01*
X0040405Y0085945D01*
X0040189Y0085806D01*
X0040044Y0085594D01*
X0039993Y0085342D01*
X0039993Y0083818D01*
X0040037Y0083583D01*
X0040176Y0083367D01*
X0040258Y0083311D01*
X0040189Y0083266D01*
X0040044Y0083054D01*
X0039993Y0082802D01*
X0039993Y0081278D01*
X0040037Y0081043D01*
X0040122Y0080911D01*
X0037602Y0080911D01*
X0037680Y0081026D01*
X0037731Y0081278D01*
X0037731Y0082802D01*
X0037687Y0083037D01*
X0037548Y0083253D01*
X0037466Y0083309D01*
X0037535Y0083354D01*
X0037680Y0083566D01*
X0037731Y0083818D01*
X0037731Y0085342D01*
X0037687Y0085577D01*
X0037548Y0085793D01*
X0037336Y0085938D01*
X0037084Y0085989D01*
X0035560Y0085989D01*
X0035325Y0085945D01*
X0035109Y0085806D01*
X0034964Y0085594D01*
X0034913Y0085342D01*
X0034913Y0083818D01*
X0034957Y0083583D01*
X0035096Y0083367D01*
X0035178Y0083311D01*
X0035109Y0083266D01*
X0034964Y0083054D01*
X0034913Y0082802D01*
X0034913Y0081278D01*
X0034957Y0081043D01*
X0035042Y0080911D01*
X0031750Y0080911D01*
X0031316Y0080825D01*
X0030947Y0080579D01*
X0028154Y0077785D01*
X0027158Y0077785D01*
X0026923Y0077741D01*
X0026707Y0077602D01*
X0026651Y0077520D01*
X0026606Y0077589D01*
X0026394Y0077734D01*
X0026142Y0077785D01*
X0024618Y0077785D01*
X0024383Y0077741D01*
X0024167Y0077602D01*
X0024104Y0077511D01*
X0020635Y0077511D01*
X0020635Y0120394D01*
X0021959Y0120394D01*
X0021959Y0118870D01*
X0022003Y0118635D01*
X0022142Y0118419D01*
X0022224Y0118363D01*
X0022155Y0118318D01*
X0022010Y0118106D01*
X0021959Y0117854D01*
X0021959Y0116330D01*
X0022003Y0116095D01*
X0022142Y0115879D01*
X0022224Y0115823D01*
X0022155Y0115778D01*
X0022010Y0115566D01*
X0021959Y0115314D01*
X0021959Y0113790D01*
X0022003Y0113555D01*
X0022142Y0113339D01*
X0022224Y0113283D01*
X0022155Y0113238D01*
X0022010Y0113026D01*
X0021959Y0112774D01*
X0021959Y0111250D01*
X0022003Y0111015D01*
X0022142Y0110799D01*
X0022224Y0110743D01*
X0022155Y0110698D01*
X0022010Y0110486D01*
X0021959Y0110234D01*
X0021959Y0108710D01*
X0022003Y0108475D01*
X0022142Y0108259D01*
X0022224Y0108203D01*
X0022155Y0108158D01*
X0022010Y0107946D01*
X0021959Y0107694D01*
X0021959Y0106170D01*
X0022003Y0105935D01*
X0022142Y0105719D01*
X0022224Y0105663D01*
X0022155Y0105618D01*
X0022010Y0105406D01*
X0021959Y0105154D01*
X0021959Y0103630D01*
X0022003Y0103395D01*
X0022142Y0103179D01*
X0022224Y0103123D01*
X0022155Y0103078D01*
X0022010Y0102866D01*
X0021959Y0102614D01*
X0021959Y0101090D01*
X0022003Y0100855D01*
X0022142Y0100639D01*
X0022224Y0100583D01*
X0022155Y0100538D01*
X0022010Y0100326D01*
X0021959Y0100074D01*
X0021959Y0098550D01*
X0022003Y0098315D01*
X0022142Y0098099D01*
X0022224Y0098043D01*
X0022155Y0097998D01*
X0022010Y0097786D01*
X0021959Y0097534D01*
X0021959Y0096010D01*
X0022003Y0095775D01*
X0022142Y0095559D01*
X0022224Y0095503D01*
X0022155Y0095458D01*
X0022010Y0095246D01*
X0021959Y0094994D01*
X0021959Y0093470D01*
X0022003Y0093235D01*
X0022142Y0093019D01*
X0022224Y0092963D01*
X0022155Y0092918D01*
X0022010Y0092706D01*
X0021959Y0092454D01*
X0021959Y0090930D01*
X0022003Y0090695D01*
X0022142Y0090479D01*
X0022224Y0090423D01*
X0022155Y0090378D01*
X0022010Y0090166D01*
X0021959Y0089914D01*
X0021959Y0088390D01*
X0022003Y0088155D01*
X0022142Y0087939D01*
X0022224Y0087883D01*
X0022155Y0087838D01*
X0022010Y0087626D01*
X0021959Y0087374D01*
X0021959Y0085850D01*
X0022003Y0085615D01*
X0022142Y0085399D01*
X0022354Y0085254D01*
X0022606Y0085203D01*
X0024130Y0085203D01*
X0024365Y0085247D01*
X0024581Y0085386D01*
X0024637Y0085468D01*
X0024682Y0085399D01*
X0024894Y0085254D01*
X0025146Y0085203D01*
X0026670Y0085203D01*
X0026905Y0085247D01*
X0027121Y0085386D01*
X0027266Y0085598D01*
X0027317Y0085850D01*
X0027317Y0087374D01*
X0027273Y0087609D01*
X0027134Y0087825D01*
X0027052Y0087881D01*
X0027121Y0087926D01*
X0027266Y0088138D01*
X0027317Y0088390D01*
X0027317Y0089914D01*
X0027273Y0090149D01*
X0027134Y0090365D01*
X0027052Y0090421D01*
X0027121Y0090466D01*
X0027266Y0090678D01*
X0027317Y0090930D01*
X0027317Y0092454D01*
X0027273Y0092689D01*
X0027134Y0092905D01*
X0027052Y0092961D01*
X0027121Y0093006D01*
X0027266Y0093218D01*
X0027317Y0093470D01*
X0027317Y0094994D01*
X0027273Y0095229D01*
X0027134Y0095445D01*
X0027052Y0095501D01*
X0027121Y0095546D01*
X0027266Y0095758D01*
X0027317Y0096010D01*
X0027317Y0097534D01*
X0027273Y0097769D01*
X0027134Y0097985D01*
X0027052Y0098041D01*
X0027121Y0098086D01*
X0027266Y0098298D01*
X0027317Y0098550D01*
X0027317Y0100074D01*
X0027273Y0100309D01*
X0027134Y0100525D01*
X0027052Y0100581D01*
X0027121Y0100626D01*
X0027266Y0100838D01*
X0027317Y0101090D01*
X0027317Y0102614D01*
X0027273Y0102849D01*
X0027134Y0103065D01*
X0027052Y0103121D01*
X0027121Y0103166D01*
X0027266Y0103378D01*
X0027317Y0103630D01*
X0027317Y0104725D01*
X0067004Y0104725D01*
X0067214Y0104215D01*
X0067604Y0103825D01*
X0068113Y0103614D01*
X0068664Y0103613D01*
X0069173Y0103824D01*
X0069563Y0104213D01*
X0069775Y0104722D01*
X0069775Y0105273D01*
X0069565Y0105783D01*
X0069175Y0106173D01*
X0068666Y0106384D01*
X0068115Y0106385D01*
X0067606Y0106174D01*
X0067216Y0105785D01*
X0067004Y0105276D01*
X0067004Y0104725D01*
X0027317Y0104725D01*
X0027317Y0105154D01*
X0027273Y0105389D01*
X0027134Y0105605D01*
X0027052Y0105661D01*
X0027121Y0105706D01*
X0027266Y0105918D01*
X0027317Y0106170D01*
X0027317Y0107694D01*
X0027273Y0107929D01*
X0027134Y0108145D01*
X0027052Y0108201D01*
X0027121Y0108246D01*
X0027266Y0108458D01*
X0027317Y0108710D01*
X0027317Y0109607D01*
X0067004Y0109607D01*
X0067214Y0109097D01*
X0067604Y0108707D01*
X0068113Y0108496D01*
X0068664Y0108495D01*
X0069173Y0108706D01*
X0069563Y0109095D01*
X0069775Y0109604D01*
X0069775Y0110155D01*
X0069565Y0110665D01*
X0069175Y0111055D01*
X0068666Y0111266D01*
X0068115Y0111267D01*
X0067606Y0111056D01*
X0067216Y0110667D01*
X0067004Y0110158D01*
X0067004Y0109607D01*
X0027317Y0109607D01*
X0027317Y0110234D01*
X0027273Y0110469D01*
X0027134Y0110685D01*
X0027052Y0110741D01*
X0027121Y0110786D01*
X0027266Y0110998D01*
X0027317Y0111250D01*
X0027317Y0112774D01*
X0027273Y0113009D01*
X0027134Y0113225D01*
X0027109Y0113243D01*
X0062873Y0113243D01*
X0063045Y0112825D01*
X0063353Y0112517D01*
X0063046Y0112211D01*
X0062873Y0111794D01*
X0062873Y0111343D01*
X0063045Y0110925D01*
X0063364Y0110606D01*
X0063781Y0110433D01*
X0064233Y0110432D01*
X0064650Y0110605D01*
X0064970Y0110924D01*
X0065143Y0111341D01*
X0065143Y0111792D01*
X0064971Y0112210D01*
X0064663Y0112518D01*
X0064970Y0112824D01*
X0065143Y0113241D01*
X0065143Y0113692D01*
X0064971Y0114110D01*
X0064652Y0114429D01*
X0064235Y0114602D01*
X0063783Y0114603D01*
X0063366Y0114430D01*
X0063046Y0114111D01*
X0062873Y0113694D01*
X0062873Y0113243D01*
X0027109Y0113243D01*
X0027052Y0113281D01*
X0027121Y0113326D01*
X0027266Y0113538D01*
X0027317Y0113790D01*
X0027317Y0115314D01*
X0027273Y0115549D01*
X0027134Y0115765D01*
X0027052Y0115821D01*
X0027121Y0115866D01*
X0027266Y0116078D01*
X0027317Y0116330D01*
X0027317Y0117854D01*
X0027273Y0118089D01*
X0027134Y0118305D01*
X0027052Y0118361D01*
X0027121Y0118406D01*
X0027266Y0118618D01*
X0027317Y0118870D01*
X0027317Y0120394D01*
X0027273Y0120629D01*
X0027134Y0120845D01*
X0026922Y0120990D01*
X0026670Y0121041D01*
X0025146Y0121041D01*
X0024911Y0120997D01*
X0024695Y0120858D01*
X0024639Y0120776D01*
X0024594Y0120845D01*
X0024382Y0120990D01*
X0024130Y0121041D01*
X0022606Y0121041D01*
X0022371Y0120997D01*
X0022155Y0120858D01*
X0022010Y0120646D01*
X0021959Y0120394D01*
X0020635Y0120394D01*
X0020635Y0123577D01*
X0022091Y0123577D01*
X0022142Y0123499D01*
X0022354Y0123354D01*
X0022606Y0123303D01*
X0024130Y0123303D01*
X0024365Y0123347D01*
X0024581Y0123486D01*
X0024637Y0123568D01*
X0024682Y0123499D01*
X0024894Y0123354D01*
X0025146Y0123303D01*
X0026670Y0123303D01*
X0026905Y0123347D01*
X0027121Y0123486D01*
X0027266Y0123698D01*
X0027317Y0123950D01*
X0027317Y0125474D01*
X0027273Y0125709D01*
X0027134Y0125925D01*
X0027043Y0125988D01*
X0027043Y0130791D01*
X0034961Y0130791D01*
X0034913Y0130554D01*
G36*
X0080695Y0078291D02*
X0079312Y0076908D01*
X0079312Y0078524D01*
X0079267Y0078760D01*
X0079128Y0078976D01*
X0078916Y0079121D01*
X0078664Y0079172D01*
X0078611Y0079172D01*
X0078611Y0113688D01*
X0078551Y0113988D01*
X0078381Y0114243D01*
X0066782Y0125843D01*
X0067564Y0125843D01*
X0067799Y0125887D01*
X0068015Y0126026D01*
X0068071Y0126108D01*
X0068116Y0126039D01*
X0068328Y0125894D01*
X0068580Y0125843D01*
X0070104Y0125843D01*
X0070339Y0125887D01*
X0070555Y0126026D01*
X0070700Y0126238D01*
X0070751Y0126490D01*
X0070751Y0128014D01*
X0070707Y0128249D01*
X0070568Y0128465D01*
X0070486Y0128521D01*
X0070555Y0128566D01*
X0070700Y0128778D01*
X0070751Y0129030D01*
X0070751Y0130554D01*
X0070707Y0130789D01*
X0070706Y0130791D01*
X0073061Y0130791D01*
X0073013Y0130554D01*
X0073013Y0129030D01*
X0073057Y0128795D01*
X0073196Y0128579D01*
X0073278Y0128523D01*
X0073209Y0128478D01*
X0073064Y0128266D01*
X0073013Y0128014D01*
X0073013Y0126490D01*
X0073057Y0126255D01*
X0073196Y0126039D01*
X0073408Y0125894D01*
X0073660Y0125843D01*
X0075184Y0125843D01*
X0075419Y0125887D01*
X0075635Y0126026D01*
X0075780Y0126238D01*
X0075831Y0126490D01*
X0075831Y0128014D01*
X0075787Y0128249D01*
X0075648Y0128465D01*
X0075566Y0128521D01*
X0075635Y0128566D01*
X0075780Y0128778D01*
X0075831Y0129030D01*
X0075831Y0130554D01*
X0075787Y0130789D01*
X0075786Y0130791D01*
X0076581Y0130791D01*
X0077016Y0130877D01*
X0077384Y0131123D01*
X0080695Y0134434D01*
X0080695Y0078291D01*
X0080695Y0078291D01*
G37*
X0080695Y0078291D02*
X0079312Y0076908D01*
X0079312Y0078524D01*
X0079267Y0078760D01*
X0079128Y0078976D01*
X0078916Y0079121D01*
X0078664Y0079172D01*
X0078611Y0079172D01*
X0078611Y0113688D01*
X0078551Y0113988D01*
X0078381Y0114243D01*
X0066782Y0125843D01*
X0067564Y0125843D01*
X0067799Y0125887D01*
X0068015Y0126026D01*
X0068071Y0126108D01*
X0068116Y0126039D01*
X0068328Y0125894D01*
X0068580Y0125843D01*
X0070104Y0125843D01*
X0070339Y0125887D01*
X0070555Y0126026D01*
X0070700Y0126238D01*
X0070751Y0126490D01*
X0070751Y0128014D01*
X0070707Y0128249D01*
X0070568Y0128465D01*
X0070486Y0128521D01*
X0070555Y0128566D01*
X0070700Y0128778D01*
X0070751Y0129030D01*
X0070751Y0130554D01*
X0070707Y0130789D01*
X0070706Y0130791D01*
X0073061Y0130791D01*
X0073013Y0130554D01*
X0073013Y0129030D01*
X0073057Y0128795D01*
X0073196Y0128579D01*
X0073278Y0128523D01*
X0073209Y0128478D01*
X0073064Y0128266D01*
X0073013Y0128014D01*
X0073013Y0126490D01*
X0073057Y0126255D01*
X0073196Y0126039D01*
X0073408Y0125894D01*
X0073660Y0125843D01*
X0075184Y0125843D01*
X0075419Y0125887D01*
X0075635Y0126026D01*
X0075780Y0126238D01*
X0075831Y0126490D01*
X0075831Y0128014D01*
X0075787Y0128249D01*
X0075648Y0128465D01*
X0075566Y0128521D01*
X0075635Y0128566D01*
X0075780Y0128778D01*
X0075831Y0129030D01*
X0075831Y0130554D01*
X0075787Y0130789D01*
X0075786Y0130791D01*
X0076581Y0130791D01*
X0077016Y0130877D01*
X0077384Y0131123D01*
X0080695Y0134434D01*
X0080695Y0078291D01*
M02*
