G75*
G71*
%MOMM*%
%OFA0B0*%
%FSLAX53Y53*%
%IPPOS*%
%LPD*%
%ADD16R,2.43200X4.05760*%
%ADD17R,3.10002X2.95016*%
%ADD18C,1.92000*%
%ADD19R,1.90000X2.00000*%
%ADD20R,2.07640X2.07640*%
%ADD22C,3.10000*%
%ADD24R,1.92400X2.43200*%
%ADD26C,6.40000*%
%ADD27R,1.92400X1.92400*%
%ADD28R,2.40000X1.60000*%
%ADD31R,2.95016X3.10002*%
%ADD32R,0.70000X1.60000*%
%ADD35C,1.40000*%
%ADD39R,1.60000X0.70000*%
%ADD41R,2.60000X1.60000*%
%ADD43R,2.20086X2.89936*%
%ADD46R,1.28900X1.79700*%
%ADD47R,2.43200X1.41600*%
%ADD49R,2.89936X2.20086*%
%ADD60R,2.50000X1.20000*%
%ADD61C,1.90114*%
%ADD62R,1.79700X1.28900*%
X0000000Y0000000D02*
%LPD*%
G01*
D31*
X0071501Y0028321D03*
X0065151Y0028321D03*
X0040675Y0005766D03*
X0034325Y0005766D03*
D62*
X0045085Y0039052D03*
X0045085Y0040957D03*
X0062040Y0045516D03*
X0062040Y0047421D03*
X0048980Y0026698D03*
X0048980Y0024793D03*
X0059410Y0025986D03*
X0059410Y0024081D03*
D46*
X0009853Y0040816D03*
X0007948Y0040816D03*
X0061214Y0005842D03*
X0063119Y0005842D03*
X0073724Y0003048D03*
X0075629Y0003048D03*
D62*
X0009000Y0008063D03*
X0009000Y0009968D03*
D26*
X0004826Y0065786D03*
X0086106Y0004826D03*
X0004826Y0004826D03*
X0086106Y0065786D03*
D20*
X0059080Y0002576D03*
X0059080Y0007076D03*
X0065380Y0002576D03*
X0065380Y0007076D03*
X0077826Y0007076D03*
X0077826Y0002576D03*
X0071526Y0007076D03*
X0071526Y0002576D03*
D61*
X0068390Y0039271D03*
X0068390Y0034389D03*
D27*
X0012700Y0060261D03*
X0015240Y0060261D03*
X0012700Y0040830D03*
X0015240Y0040830D03*
X0004720Y0032526D03*
X0002180Y0032526D03*
X0004720Y0035066D03*
X0002180Y0035066D03*
X0004720Y0037606D03*
X0002180Y0037606D03*
X0074422Y0068072D03*
X0074422Y0065532D03*
X0071882Y0068072D03*
X0071882Y0065532D03*
X0069342Y0068072D03*
X0069342Y0065532D03*
X0066802Y0068072D03*
X0066802Y0065532D03*
X0064262Y0068072D03*
X0064262Y0065532D03*
X0025380Y0008306D03*
X0027920Y0008306D03*
X0025380Y0005766D03*
X0027920Y0005766D03*
X0025380Y0003226D03*
X0027920Y0003226D03*
X0084836Y0054356D03*
X0087376Y0054356D03*
X0084836Y0051816D03*
X0087376Y0051816D03*
X0084836Y0049276D03*
X0087376Y0049276D03*
X0084836Y0046736D03*
X0087376Y0046736D03*
X0084836Y0044196D03*
X0087376Y0044196D03*
X0084836Y0041656D03*
X0087376Y0041656D03*
X0084836Y0039116D03*
X0087376Y0039116D03*
X0084836Y0036576D03*
X0087376Y0036576D03*
X0084836Y0034036D03*
X0087376Y0034036D03*
X0084836Y0031496D03*
X0087376Y0031496D03*
X0084836Y0028956D03*
X0087376Y0028956D03*
X0084836Y0026416D03*
X0087376Y0026416D03*
X0084836Y0023876D03*
X0087376Y0023876D03*
X0084836Y0021336D03*
X0087376Y0021336D03*
X0084836Y0018796D03*
X0087376Y0018796D03*
X0084836Y0016256D03*
X0087376Y0016256D03*
D17*
X0008950Y0037091D03*
X0008950Y0030741D03*
D46*
X0070485Y0039306D03*
X0072390Y0039306D03*
X0070485Y0034417D03*
X0072390Y0034417D03*
X0067383Y0044403D03*
X0069288Y0044403D03*
X0020153Y0011166D03*
X0018248Y0011166D03*
X0067447Y0041863D03*
X0069352Y0041863D03*
X0065151Y0023876D03*
X0067056Y0023876D03*
D49*
X0018149Y0030766D03*
X0014151Y0030766D03*
D43*
X0031150Y0015315D03*
X0031150Y0011317D03*
D24*
X0012749Y0037316D03*
X0016051Y0037316D03*
D46*
X0020701Y0046482D03*
X0018796Y0046482D03*
X0020701Y0043942D03*
X0018796Y0043942D03*
X0014605Y0063563D03*
X0012700Y0063563D03*
X0073724Y0005080D03*
X0075629Y0005080D03*
D16*
X0020152Y0005766D03*
D47*
X0013548Y0005766D03*
X0013548Y0008052D03*
X0013548Y0003480D03*
D46*
X0053150Y0065532D03*
X0055055Y0065532D03*
X0053150Y0068072D03*
X0055055Y0068072D03*
D18*
X0015240Y0051816D03*
X0015240Y0049276D03*
X0013240Y0049276D03*
X0013240Y0051816D03*
D22*
X0010540Y0056546D03*
X0010540Y0044546D03*
D27*
X0057404Y0068072D03*
X0059944Y0068072D03*
X0057404Y0065532D03*
X0059944Y0065532D03*
X0080010Y0065532D03*
X0080010Y0068072D03*
D46*
X0016053Y0034366D03*
X0014148Y0034366D03*
X0067056Y0021590D03*
X0065151Y0021590D03*
D27*
X0074422Y0059182D03*
X0074422Y0056642D03*
X0071882Y0059182D03*
X0071882Y0056642D03*
X0069342Y0059182D03*
X0069342Y0056642D03*
X0066802Y0059182D03*
X0066802Y0056642D03*
X0064262Y0059182D03*
X0064262Y0056642D03*
X0061722Y0059182D03*
X0061722Y0056642D03*
X0059182Y0059182D03*
X0059182Y0056642D03*
X0056642Y0059182D03*
X0056642Y0056642D03*
X0054102Y0059182D03*
X0054102Y0056642D03*
X0051562Y0059182D03*
X0051562Y0056642D03*
X0049022Y0059182D03*
X0049022Y0056642D03*
X0046482Y0059182D03*
X0046482Y0056642D03*
X0043942Y0059182D03*
X0043942Y0056642D03*
X0041402Y0059182D03*
X0041402Y0056642D03*
X0038862Y0059182D03*
X0038862Y0056642D03*
X0036322Y0059182D03*
X0036322Y0056642D03*
X0023368Y0054102D03*
X0025908Y0054102D03*
X0023368Y0051562D03*
X0025908Y0051562D03*
X0023368Y0049022D03*
X0025908Y0049022D03*
X0023368Y0046482D03*
X0025908Y0046482D03*
X0023368Y0043942D03*
X0025908Y0043942D03*
X0023368Y0041402D03*
X0025908Y0041402D03*
X0023368Y0038862D03*
X0025908Y0038862D03*
X0023368Y0036322D03*
X0025908Y0036322D03*
X0023368Y0033782D03*
X0025908Y0033782D03*
X0023368Y0031242D03*
X0025908Y0031242D03*
X0023368Y0028702D03*
X0025908Y0028702D03*
X0023368Y0026162D03*
X0025908Y0026162D03*
X0023368Y0023622D03*
X0025908Y0023622D03*
X0023368Y0021082D03*
X0025908Y0021082D03*
X0023368Y0018542D03*
X0025908Y0018542D03*
X0023368Y0016002D03*
X0025908Y0016002D03*
X0036322Y0011430D03*
X0036322Y0013970D03*
X0038862Y0011430D03*
X0038862Y0013970D03*
X0041402Y0011430D03*
X0041402Y0013970D03*
X0043942Y0011430D03*
X0043942Y0013970D03*
X0046482Y0011430D03*
X0046482Y0013970D03*
X0049022Y0011430D03*
X0049022Y0013970D03*
X0051562Y0011430D03*
X0051562Y0013970D03*
X0054102Y0011430D03*
X0054102Y0013970D03*
X0056642Y0011430D03*
X0056642Y0013970D03*
X0059182Y0011430D03*
X0059182Y0013970D03*
X0061722Y0011430D03*
X0061722Y0013970D03*
X0064262Y0011430D03*
X0064262Y0013970D03*
X0066802Y0011430D03*
X0066802Y0013970D03*
X0069342Y0011430D03*
X0069342Y0013970D03*
X0071882Y0011430D03*
X0071882Y0013970D03*
X0074422Y0011430D03*
X0074422Y0013970D03*
D39*
X0061122Y0039056D03*
X0061122Y0038556D03*
X0061122Y0038056D03*
X0061122Y0037556D03*
X0061122Y0037056D03*
X0061122Y0036556D03*
X0061122Y0036056D03*
X0061122Y0035556D03*
X0061122Y0035056D03*
X0061122Y0034556D03*
X0061122Y0034056D03*
X0061122Y0033556D03*
X0061122Y0033056D03*
X0061122Y0032556D03*
X0061122Y0032056D03*
X0061122Y0031556D03*
D32*
X0059122Y0029556D03*
X0058622Y0029556D03*
X0058122Y0029556D03*
X0057622Y0029556D03*
X0057122Y0029556D03*
X0056622Y0029556D03*
X0056122Y0029556D03*
X0055622Y0029556D03*
X0055122Y0029556D03*
X0054622Y0029556D03*
X0054122Y0029556D03*
X0053622Y0029556D03*
X0053122Y0029556D03*
X0052622Y0029556D03*
X0052122Y0029556D03*
X0051622Y0029556D03*
D39*
X0049622Y0031556D03*
X0049622Y0032056D03*
X0049622Y0032556D03*
X0049622Y0033056D03*
X0049622Y0033556D03*
X0049622Y0034056D03*
X0049622Y0034556D03*
X0049622Y0035056D03*
X0049622Y0035556D03*
X0049622Y0036056D03*
X0049622Y0036556D03*
X0049622Y0037056D03*
X0049622Y0037556D03*
X0049622Y0038056D03*
X0049622Y0038556D03*
X0049622Y0039056D03*
D32*
X0051622Y0041056D03*
X0052122Y0041056D03*
X0052622Y0041056D03*
X0053122Y0041056D03*
X0053622Y0041056D03*
X0054122Y0041056D03*
X0054622Y0041056D03*
X0055122Y0041056D03*
X0055622Y0041056D03*
X0056122Y0041056D03*
X0056622Y0041056D03*
X0057122Y0041056D03*
X0057622Y0041056D03*
X0058122Y0041056D03*
X0058622Y0041056D03*
X0059122Y0041056D03*
D27*
X0031380Y0065546D03*
X0031380Y0068086D03*
X0033920Y0065546D03*
X0033920Y0068086D03*
X0036460Y0065546D03*
X0036460Y0068086D03*
X0039000Y0065546D03*
X0039000Y0068086D03*
X0041540Y0065546D03*
X0041540Y0068086D03*
X0044080Y0065546D03*
X0044080Y0068086D03*
X0046620Y0065546D03*
X0046620Y0068086D03*
D62*
X0033909Y0063182D03*
X0033909Y0061277D03*
X0036449Y0063182D03*
X0036449Y0061277D03*
X0038989Y0063182D03*
X0038989Y0061277D03*
X0041529Y0063182D03*
X0041529Y0061277D03*
X0044069Y0063182D03*
X0044069Y0061277D03*
D35*
X0064008Y0042857D03*
X0064008Y0040957D03*
D19*
X0014046Y0026916D03*
D35*
X0004096Y0023116D03*
X0004096Y0015116D03*
D41*
X0004496Y0027816D03*
X0004496Y0012366D03*
D28*
X0013796Y0012316D03*
D60*
X0014846Y0013516D03*
X0014846Y0014616D03*
X0014846Y0015716D03*
X0014846Y0016816D03*
X0014846Y0017916D03*
X0014846Y0019016D03*
X0014846Y0020116D03*
X0014846Y0021216D03*
X0014846Y0022316D03*
D46*
X0025908Y0011176D03*
X0024003Y0011176D03*
X0000000Y0070610D02*
%LPD*%
G01*
D31*
X0071501Y0098931D03*
X0065151Y0098931D03*
X0040675Y0076376D03*
X0034325Y0076376D03*
D62*
X0045085Y0109662D03*
X0045085Y0111567D03*
X0062040Y0116126D03*
X0062040Y0118031D03*
X0048980Y0097308D03*
X0048980Y0095403D03*
X0059410Y0096596D03*
X0059410Y0094691D03*
D46*
X0009853Y0111426D03*
X0007948Y0111426D03*
X0061214Y0076452D03*
X0063119Y0076452D03*
X0073724Y0073658D03*
X0075629Y0073658D03*
D62*
X0009000Y0078673D03*
X0009000Y0080578D03*
D26*
X0004826Y0136396D03*
X0086106Y0075436D03*
X0004826Y0075436D03*
X0086106Y0136396D03*
D20*
X0059080Y0073186D03*
X0059080Y0077686D03*
X0065380Y0073186D03*
X0065380Y0077686D03*
X0077826Y0077686D03*
X0077826Y0073186D03*
X0071526Y0077686D03*
X0071526Y0073186D03*
D61*
X0068390Y0109881D03*
X0068390Y0104999D03*
D27*
X0012700Y0130871D03*
X0015240Y0130871D03*
X0012700Y0111440D03*
X0015240Y0111440D03*
X0004720Y0103136D03*
X0002180Y0103136D03*
X0004720Y0105676D03*
X0002180Y0105676D03*
X0004720Y0108216D03*
X0002180Y0108216D03*
X0074422Y0138682D03*
X0074422Y0136142D03*
X0071882Y0138682D03*
X0071882Y0136142D03*
X0069342Y0138682D03*
X0069342Y0136142D03*
X0066802Y0138682D03*
X0066802Y0136142D03*
X0064262Y0138682D03*
X0064262Y0136142D03*
X0025380Y0078916D03*
X0027920Y0078916D03*
X0025380Y0076376D03*
X0027920Y0076376D03*
X0025380Y0073836D03*
X0027920Y0073836D03*
X0084836Y0124966D03*
X0087376Y0124966D03*
X0084836Y0122426D03*
X0087376Y0122426D03*
X0084836Y0119886D03*
X0087376Y0119886D03*
X0084836Y0117346D03*
X0087376Y0117346D03*
X0084836Y0114806D03*
X0087376Y0114806D03*
X0084836Y0112266D03*
X0087376Y0112266D03*
X0084836Y0109726D03*
X0087376Y0109726D03*
X0084836Y0107186D03*
X0087376Y0107186D03*
X0084836Y0104646D03*
X0087376Y0104646D03*
X0084836Y0102106D03*
X0087376Y0102106D03*
X0084836Y0099566D03*
X0087376Y0099566D03*
X0084836Y0097026D03*
X0087376Y0097026D03*
X0084836Y0094486D03*
X0087376Y0094486D03*
X0084836Y0091946D03*
X0087376Y0091946D03*
X0084836Y0089406D03*
X0087376Y0089406D03*
X0084836Y0086866D03*
X0087376Y0086866D03*
D17*
X0008950Y0107701D03*
X0008950Y0101351D03*
D46*
X0070485Y0109916D03*
X0072390Y0109916D03*
X0070485Y0105027D03*
X0072390Y0105027D03*
X0067383Y0115013D03*
X0069288Y0115013D03*
X0020153Y0081776D03*
X0018248Y0081776D03*
X0067447Y0112473D03*
X0069352Y0112473D03*
X0065151Y0094486D03*
X0067056Y0094486D03*
D49*
X0018149Y0101376D03*
X0014151Y0101376D03*
D43*
X0031150Y0085925D03*
X0031150Y0081927D03*
D24*
X0012749Y0107926D03*
X0016051Y0107926D03*
D46*
X0020701Y0117092D03*
X0018796Y0117092D03*
X0020701Y0114552D03*
X0018796Y0114552D03*
X0014605Y0134173D03*
X0012700Y0134173D03*
X0073724Y0075690D03*
X0075629Y0075690D03*
D16*
X0020152Y0076376D03*
D47*
X0013548Y0076376D03*
X0013548Y0078662D03*
X0013548Y0074090D03*
D46*
X0053150Y0136142D03*
X0055055Y0136142D03*
X0053150Y0138682D03*
X0055055Y0138682D03*
D18*
X0015240Y0122426D03*
X0015240Y0119886D03*
X0013240Y0119886D03*
X0013240Y0122426D03*
D22*
X0010540Y0127156D03*
X0010540Y0115156D03*
D27*
X0057404Y0138682D03*
X0059944Y0138682D03*
X0057404Y0136142D03*
X0059944Y0136142D03*
X0080010Y0136142D03*
X0080010Y0138682D03*
D46*
X0016053Y0104976D03*
X0014148Y0104976D03*
X0067056Y0092200D03*
X0065151Y0092200D03*
D27*
X0074422Y0129792D03*
X0074422Y0127252D03*
X0071882Y0129792D03*
X0071882Y0127252D03*
X0069342Y0129792D03*
X0069342Y0127252D03*
X0066802Y0129792D03*
X0066802Y0127252D03*
X0064262Y0129792D03*
X0064262Y0127252D03*
X0061722Y0129792D03*
X0061722Y0127252D03*
X0059182Y0129792D03*
X0059182Y0127252D03*
X0056642Y0129792D03*
X0056642Y0127252D03*
X0054102Y0129792D03*
X0054102Y0127252D03*
X0051562Y0129792D03*
X0051562Y0127252D03*
X0049022Y0129792D03*
X0049022Y0127252D03*
X0046482Y0129792D03*
X0046482Y0127252D03*
X0043942Y0129792D03*
X0043942Y0127252D03*
X0041402Y0129792D03*
X0041402Y0127252D03*
X0038862Y0129792D03*
X0038862Y0127252D03*
X0036322Y0129792D03*
X0036322Y0127252D03*
X0023368Y0124712D03*
X0025908Y0124712D03*
X0023368Y0122172D03*
X0025908Y0122172D03*
X0023368Y0119632D03*
X0025908Y0119632D03*
X0023368Y0117092D03*
X0025908Y0117092D03*
X0023368Y0114552D03*
X0025908Y0114552D03*
X0023368Y0112012D03*
X0025908Y0112012D03*
X0023368Y0109472D03*
X0025908Y0109472D03*
X0023368Y0106932D03*
X0025908Y0106932D03*
X0023368Y0104392D03*
X0025908Y0104392D03*
X0023368Y0101852D03*
X0025908Y0101852D03*
X0023368Y0099312D03*
X0025908Y0099312D03*
X0023368Y0096772D03*
X0025908Y0096772D03*
X0023368Y0094232D03*
X0025908Y0094232D03*
X0023368Y0091692D03*
X0025908Y0091692D03*
X0023368Y0089152D03*
X0025908Y0089152D03*
X0023368Y0086612D03*
X0025908Y0086612D03*
X0036322Y0082040D03*
X0036322Y0084580D03*
X0038862Y0082040D03*
X0038862Y0084580D03*
X0041402Y0082040D03*
X0041402Y0084580D03*
X0043942Y0082040D03*
X0043942Y0084580D03*
X0046482Y0082040D03*
X0046482Y0084580D03*
X0049022Y0082040D03*
X0049022Y0084580D03*
X0051562Y0082040D03*
X0051562Y0084580D03*
X0054102Y0082040D03*
X0054102Y0084580D03*
X0056642Y0082040D03*
X0056642Y0084580D03*
X0059182Y0082040D03*
X0059182Y0084580D03*
X0061722Y0082040D03*
X0061722Y0084580D03*
X0064262Y0082040D03*
X0064262Y0084580D03*
X0066802Y0082040D03*
X0066802Y0084580D03*
X0069342Y0082040D03*
X0069342Y0084580D03*
X0071882Y0082040D03*
X0071882Y0084580D03*
X0074422Y0082040D03*
X0074422Y0084580D03*
D39*
X0061122Y0109666D03*
X0061122Y0109166D03*
X0061122Y0108666D03*
X0061122Y0108166D03*
X0061122Y0107666D03*
X0061122Y0107166D03*
X0061122Y0106666D03*
X0061122Y0106166D03*
X0061122Y0105666D03*
X0061122Y0105166D03*
X0061122Y0104666D03*
X0061122Y0104166D03*
X0061122Y0103666D03*
X0061122Y0103166D03*
X0061122Y0102666D03*
X0061122Y0102166D03*
D32*
X0059122Y0100166D03*
X0058622Y0100166D03*
X0058122Y0100166D03*
X0057622Y0100166D03*
X0057122Y0100166D03*
X0056622Y0100166D03*
X0056122Y0100166D03*
X0055622Y0100166D03*
X0055122Y0100166D03*
X0054622Y0100166D03*
X0054122Y0100166D03*
X0053622Y0100166D03*
X0053122Y0100166D03*
X0052622Y0100166D03*
X0052122Y0100166D03*
X0051622Y0100166D03*
D39*
X0049622Y0102166D03*
X0049622Y0102666D03*
X0049622Y0103166D03*
X0049622Y0103666D03*
X0049622Y0104166D03*
X0049622Y0104666D03*
X0049622Y0105166D03*
X0049622Y0105666D03*
X0049622Y0106166D03*
X0049622Y0106666D03*
X0049622Y0107166D03*
X0049622Y0107666D03*
X0049622Y0108166D03*
X0049622Y0108666D03*
X0049622Y0109166D03*
X0049622Y0109666D03*
D32*
X0051622Y0111666D03*
X0052122Y0111666D03*
X0052622Y0111666D03*
X0053122Y0111666D03*
X0053622Y0111666D03*
X0054122Y0111666D03*
X0054622Y0111666D03*
X0055122Y0111666D03*
X0055622Y0111666D03*
X0056122Y0111666D03*
X0056622Y0111666D03*
X0057122Y0111666D03*
X0057622Y0111666D03*
X0058122Y0111666D03*
X0058622Y0111666D03*
X0059122Y0111666D03*
D27*
X0031380Y0136156D03*
X0031380Y0138696D03*
X0033920Y0136156D03*
X0033920Y0138696D03*
X0036460Y0136156D03*
X0036460Y0138696D03*
X0039000Y0136156D03*
X0039000Y0138696D03*
X0041540Y0136156D03*
X0041540Y0138696D03*
X0044080Y0136156D03*
X0044080Y0138696D03*
X0046620Y0136156D03*
X0046620Y0138696D03*
D62*
X0033909Y0133792D03*
X0033909Y0131887D03*
X0036449Y0133792D03*
X0036449Y0131887D03*
X0038989Y0133792D03*
X0038989Y0131887D03*
X0041529Y0133792D03*
X0041529Y0131887D03*
X0044069Y0133792D03*
X0044069Y0131887D03*
D35*
X0064008Y0113467D03*
X0064008Y0111567D03*
D19*
X0014046Y0097526D03*
D35*
X0004096Y0093726D03*
X0004096Y0085726D03*
D41*
X0004496Y0098426D03*
X0004496Y0082976D03*
D28*
X0013796Y0082926D03*
D60*
X0014846Y0084126D03*
X0014846Y0085226D03*
X0014846Y0086326D03*
X0014846Y0087426D03*
X0014846Y0088526D03*
X0014846Y0089626D03*
X0014846Y0090726D03*
X0014846Y0091826D03*
X0014846Y0092926D03*
D46*
X0025908Y0081786D03*
X0024003Y0081786D03*
M02*
