M48
METRIC,000.000             
%
T01C0.400000
X16764Y19558
X18796Y12446
X19812Y11938
X20240Y14732
X21082Y11938
X21336Y21082
X27178Y17526
X56896Y19558
X58928Y12446
X59944Y11938
X60372Y14732
X61214Y11938
X61468Y21082
X67310Y17526
X97028Y19558
X99060Y12446
X100076Y11938
X100504Y14732
X101346Y11938
X101600Y21082
X107442Y17526
X137160Y19558
X139192Y12446
X140208Y11938
X140636Y14732
X141478Y11938
X141732Y21082
X147574Y17526
X16764Y49530
X18796Y42418
X19812Y41910
X20240Y44704
X21082Y41910
X21336Y51054
X27178Y47498
X56896Y49530
X58928Y42418
X59944Y41910
X60372Y44704
X61214Y41910
X61468Y51054
X67310Y47498
X97028Y49530
X99060Y42418
X100076Y41910
X100504Y44704
X101346Y41910
X101600Y51054
X107442Y47498
X137160Y49530
X139192Y42418
X140208Y41910
X140636Y44704
X141478Y41910
X141732Y51054
X147574Y47498
X16764Y79502
X18796Y72390
X19812Y71882
X20240Y74676
X21082Y71882
X21336Y81026
X27178Y77470
X56896Y79502
X58928Y72390
X59944Y71882
X60372Y74676
X61214Y71882
X61468Y81026
X67310Y77470
X97028Y79502
X99060Y72390
X100076Y71882
X100504Y74676
X101346Y71882
X101600Y81026
X107442Y77470
X137160Y79502
X139192Y72390
X140208Y71882
X140636Y74676
X141478Y71882
X141732Y81026
X147574Y77470
T02C0.600000
X10160Y3810
X10160Y1270
X10414Y28194
X10414Y26416
X10414Y24384
X10922Y21590
X11176Y19558
X11684Y22860
X12446Y28194
X12446Y17526
X12573Y13843
X13970Y18034
X15494Y16256
X15494Y14795
X16256Y15494
X16709Y21313
X17018Y16256
X18288Y2540
X18288Y1270
X24130Y20320
X25654Y23368
X27940Y13462
X27940Y8382
X30480Y7112
X33020Y11176
X34290Y20066
X36068Y20066
X50292Y3810
X50292Y1270
X50546Y28194
X50546Y26416
X50546Y24384
X51054Y21590
X51308Y19558
X51816Y22860
X52578Y28194
X52578Y17526
X52705Y13843
X54102Y18034
X55626Y16256
X55626Y14795
X56388Y15494
X56841Y21313
X57150Y16256
X58420Y2540
X58420Y1270
X64262Y20320
X65786Y23368
X68072Y13462
X68072Y8382
X70612Y7112
X73152Y11176
X74422Y20066
X76200Y20066
X90424Y3810
X90424Y1270
X90678Y28194
X90678Y26416
X90678Y24384
X91186Y21590
X91440Y19558
X91948Y22860
X92710Y28194
X92710Y17526
X92837Y13843
X94234Y18034
X95758Y16256
X95758Y14795
X96520Y15494
X96973Y21313
X97282Y16256
X98552Y2540
X98552Y1270
X104394Y20320
X105918Y23368
X108204Y13462
X108204Y8382
X110744Y7112
X113284Y11176
X114554Y20066
X116332Y20066
X130556Y3810
X130556Y1270
X130810Y28194
X130810Y26416
X130810Y24384
X131318Y21590
X131572Y19558
X132080Y22860
X132842Y28194
X132842Y17526
X132969Y13843
X134366Y18034
X135890Y16256
X135890Y14795
X136652Y15494
X137105Y21313
X137414Y16256
X138684Y2540
X138684Y1270
X144526Y20320
X146050Y23368
X148336Y13462
X148336Y8382
X150876Y7112
X153416Y11176
X154686Y20066
X156464Y20066
X10160Y33782
X10160Y31242
X10414Y58166
X10414Y56388
X10414Y54356
X10922Y51562
X11176Y49530
X11684Y52832
X12446Y58166
X12446Y47498
X12573Y43815
X13970Y48006
X15494Y46228
X15494Y44767
X16256Y45466
X16709Y51285
X17018Y46228
X18288Y32512
X18288Y31242
X24130Y50292
X25654Y53340
X27940Y43434
X27940Y38354
X30480Y37084
X33020Y41148
X34290Y50038
X36068Y50038
X50292Y33782
X50292Y31242
X50546Y58166
X50546Y56388
X50546Y54356
X51054Y51562
X51308Y49530
X51816Y52832
X52578Y58166
X52578Y47498
X52705Y43815
X54102Y48006
X55626Y46228
X55626Y44767
X56388Y45466
X56841Y51285
X57150Y46228
X58420Y32512
X58420Y31242
X64262Y50292
X65786Y53340
X68072Y43434
X68072Y38354
X70612Y37084
X73152Y41148
X74422Y50038
X76200Y50038
X90424Y33782
X90424Y31242
X90678Y58166
X90678Y56388
X90678Y54356
X91186Y51562
X91440Y49530
X91948Y52832
X92710Y58166
X92710Y47498
X92837Y43815
X94234Y48006
X95758Y46228
X95758Y44767
X96520Y45466
X96973Y51285
X97282Y46228
X98552Y32512
X98552Y31242
X104394Y50292
X105918Y53340
X108204Y43434
X108204Y38354
X110744Y37084
X113284Y41148
X114554Y50038
X116332Y50038
X130556Y33782
X130556Y31242
X130810Y58166
X130810Y56388
X130810Y54356
X131318Y51562
X131572Y49530
X132080Y52832
X132842Y58166
X132842Y47498
X132969Y43815
X134366Y48006
X135890Y46228
X135890Y44767
X136652Y45466
X137105Y51285
X137414Y46228
X138684Y32512
X138684Y31242
X144526Y50292
X146050Y53340
X148336Y43434
X148336Y38354
X150876Y37084
X153416Y41148
X154686Y50038
X156464Y50038
X10160Y63754
X10160Y61214
X10414Y88138
X10414Y86360
X10414Y84328
X10922Y81534
X11176Y79502
X11684Y82804
X12446Y88138
X12446Y77470
X12573Y73787
X13970Y77978
X15494Y76200
X15494Y74739
X16256Y75438
X16709Y81257
X17018Y76200
X18288Y62484
X18288Y61214
X24130Y80264
X25654Y83312
X27940Y73406
X27940Y68326
X30480Y67056
X33020Y71120
X34290Y80010
X36068Y80010
X50292Y63754
X50292Y61214
X50546Y88138
X50546Y86360
X50546Y84328
X51054Y81534
X51308Y79502
X51816Y82804
X52578Y88138
X52578Y77470
X52705Y73787
X54102Y77978
X55626Y76200
X55626Y74739
X56388Y75438
X56841Y81257
X57150Y76200
X58420Y62484
X58420Y61214
X64262Y80264
X65786Y83312
X68072Y73406
X68072Y68326
X70612Y67056
X73152Y71120
X74422Y80010
X76200Y80010
X90424Y63754
X90424Y61214
X90678Y88138
X90678Y86360
X90678Y84328
X91186Y81534
X91440Y79502
X91948Y82804
X92710Y88138
X92710Y77470
X92837Y73787
X94234Y77978
X95758Y76200
X95758Y74739
X96520Y75438
X96973Y81257
X97282Y76200
X98552Y62484
X98552Y61214
X104394Y80264
X105918Y83312
X108204Y73406
X108204Y68326
X110744Y67056
X113284Y71120
X114554Y80010
X116332Y80010
X130556Y63754
X130556Y61214
X130810Y88138
X130810Y86360
X130810Y84328
X131318Y81534
X131572Y79502
X132080Y82804
X132842Y88138
X132842Y77470
X132969Y73787
X134366Y77978
X135890Y76200
X135890Y74739
X136652Y75438
X137105Y81257
X137414Y76200
X138684Y62484
X138684Y61214
X144526Y80264
X146050Y83312
X148336Y73406
X148336Y68326
X150876Y67056
X153416Y71120
X154686Y80010
X156464Y80010
T03C0.889000
X24892Y28137
X24892Y25597
X29464Y25654
X19812Y28137
X19812Y25597
X14732Y28137
X14732Y25597
X17272Y28137
X17272Y25597
X22352Y28137
X22352Y25597
X29464Y28194
X22606Y5461
X22606Y2921
X25146Y5461
X25146Y2921
X27686Y5461
X27686Y2921
X33782Y17526
X36322Y17526
X16256Y5461
X16256Y2921
X33782Y14986
X36322Y14986
X65024Y28137
X65024Y25597
X69596Y25654
X59944Y28137
X59944Y25597
X54864Y28137
X54864Y25597
X57404Y28137
X57404Y25597
X62484Y28137
X62484Y25597
X69596Y28194
X62738Y5461
X62738Y2921
X65278Y5461
X65278Y2921
X67818Y5461
X67818Y2921
X73914Y17526
X76454Y17526
X56388Y5461
X56388Y2921
X73914Y14986
X76454Y14986
X105156Y28137
X105156Y25597
X109728Y25654
X100076Y28137
X100076Y25597
X94996Y28137
X94996Y25597
X97536Y28137
X97536Y25597
X102616Y28137
X102616Y25597
X109728Y28194
X102870Y5461
X102870Y2921
X105410Y5461
X105410Y2921
X107950Y5461
X107950Y2921
X114046Y17526
X116586Y17526
X96520Y5461
X96520Y2921
X114046Y14986
X116586Y14986
X145288Y28137
X145288Y25597
X149860Y25654
X140208Y28137
X140208Y25597
X135128Y28137
X135128Y25597
X137668Y28137
X137668Y25597
X142748Y28137
X142748Y25597
X149860Y28194
X143002Y5461
X143002Y2921
X145542Y5461
X145542Y2921
X148082Y5461
X148082Y2921
X154178Y17526
X156718Y17526
X136652Y5461
X136652Y2921
X154178Y14986
X156718Y14986
X24892Y58109
X24892Y55569
X29464Y55626
X19812Y58109
X19812Y55569
X14732Y58109
X14732Y55569
X17272Y58109
X17272Y55569
X22352Y58109
X22352Y55569
X29464Y58166
X22606Y35433
X22606Y32893
X25146Y35433
X25146Y32893
X27686Y35433
X27686Y32893
X33782Y47498
X36322Y47498
X16256Y35433
X16256Y32893
X33782Y44958
X36322Y44958
X65024Y58109
X65024Y55569
X69596Y55626
X59944Y58109
X59944Y55569
X54864Y58109
X54864Y55569
X57404Y58109
X57404Y55569
X62484Y58109
X62484Y55569
X69596Y58166
X62738Y35433
X62738Y32893
X65278Y35433
X65278Y32893
X67818Y35433
X67818Y32893
X73914Y47498
X76454Y47498
X56388Y35433
X56388Y32893
X73914Y44958
X76454Y44958
X105156Y58109
X105156Y55569
X109728Y55626
X100076Y58109
X100076Y55569
X94996Y58109
X94996Y55569
X97536Y58109
X97536Y55569
X102616Y58109
X102616Y55569
X109728Y58166
X102870Y35433
X102870Y32893
X105410Y35433
X105410Y32893
X107950Y35433
X107950Y32893
X114046Y47498
X116586Y47498
X96520Y35433
X96520Y32893
X114046Y44958
X116586Y44958
X145288Y58109
X145288Y55569
X149860Y55626
X140208Y58109
X140208Y55569
X135128Y58109
X135128Y55569
X137668Y58109
X137668Y55569
X142748Y58109
X142748Y55569
X149860Y58166
X143002Y35433
X143002Y32893
X145542Y35433
X145542Y32893
X148082Y35433
X148082Y32893
X154178Y47498
X156718Y47498
X136652Y35433
X136652Y32893
X154178Y44958
X156718Y44958
X24892Y88081
X24892Y85541
X29464Y85598
X19812Y88081
X19812Y85541
X14732Y88081
X14732Y85541
X17272Y88081
X17272Y85541
X22352Y88081
X22352Y85541
X29464Y88138
X22606Y65405
X22606Y62865
X25146Y65405
X25146Y62865
X27686Y65405
X27686Y62865
X33782Y77470
X36322Y77470
X16256Y65405
X16256Y62865
X33782Y74930
X36322Y74930
X65024Y88081
X65024Y85541
X69596Y85598
X59944Y88081
X59944Y85541
X54864Y88081
X54864Y85541
X57404Y88081
X57404Y85541
X62484Y88081
X62484Y85541
X69596Y88138
X62738Y65405
X62738Y62865
X65278Y65405
X65278Y62865
X67818Y65405
X67818Y62865
X73914Y77470
X76454Y77470
X56388Y65405
X56388Y62865
X73914Y74930
X76454Y74930
X105156Y88081
X105156Y85541
X109728Y85598
X100076Y88081
X100076Y85541
X94996Y88081
X94996Y85541
X97536Y88081
X97536Y85541
X102616Y88081
X102616Y85541
X109728Y88138
X102870Y65405
X102870Y62865
X105410Y65405
X105410Y62865
X107950Y65405
X107950Y62865
X114046Y77470
X116586Y77470
X96520Y65405
X96520Y62865
X114046Y74930
X116586Y74930
X145288Y88081
X145288Y85541
X149860Y85598
X140208Y88081
X140208Y85541
X135128Y88081
X135128Y85541
X137668Y88081
X137668Y85541
X142748Y88081
X142748Y85541
X149860Y88138
X143002Y65405
X143002Y62865
X145542Y65405
X145542Y62865
X148082Y65405
X148082Y62865
X154178Y77470
X156718Y77470
X136652Y65405
X136652Y62865
X154178Y74930
X156718Y74930
T04C3.000000
X35306Y25146
X35306Y4826
X4826Y25146
X4826Y4826
X75438Y25146
X75438Y4826
X44958Y25146
X44958Y4826
X115570Y25146
X115570Y4826
X85090Y25146
X85090Y4826
X155702Y25146
X155702Y4826
X125222Y25146
X125222Y4826
X35306Y55118
X35306Y34798
X4826Y55118
X4826Y34798
X75438Y55118
X75438Y34798
X44958Y55118
X44958Y34798
X115570Y55118
X115570Y34798
X85090Y55118
X85090Y34798
X155702Y55118
X155702Y34798
X125222Y55118
X125222Y34798
X35306Y85090
X35306Y64770
X4826Y85090
X4826Y64770
X75438Y85090
X75438Y64770
X44958Y85090
X44958Y64770
X115570Y85090
X115570Y64770
X85090Y85090
X85090Y64770
X155702Y85090
X155702Y64770
X125222Y85090
X125222Y64770
M30
