M48
METRIC,000.000             
%
T01C0.400000
X19556Y20824
X22731Y20824
X24128Y20824
X8634Y22094
X8634Y23364
X22572Y23474
X8634Y24634
X19810Y24634
X8634Y26330
X22388Y26754
X23328Y26754
X20318Y26920
X22388Y27594
X23328Y27594
X25259Y28655
X8634Y28698
X26414Y28952
X22483Y30476
X17270Y36318
X19048Y36826
X20064Y36826
X21080Y36826
X22096Y36826
X13589Y105658
X11430Y105785
X12319Y106674
X11049Y107436
X13462Y107436
X19304Y111627
X17399Y113532
X18161Y113532
X19050Y113532
X20382Y114040
X21082Y114040
X21782Y114040
X23749Y114294
X25654Y114294
X28194Y114421
X9646Y115062
X7747Y120009
X7620Y128645
X8636Y128645
X9652Y128645
T02C0.500000
X1793Y143503
X7430Y143756
X8079Y145853
X10033Y156075
X10620Y140567
X10683Y149790
X11633Y142978
X11953Y145282
X12080Y154997
X12446Y134391
X14097Y155313
X15572Y161855
X17477Y148901
X17780Y155186
X18415Y158488
X19177Y151757
X20193Y161917
X25083Y161282
X25288Y148647
X27447Y161982
X29289Y160204
X30178Y162236
X31369Y149725
T03C0.635000
X22350Y2538
X26984Y4538
X28931Y5419
X21842Y5586
X28762Y6824
X20908Y8716
X29849Y13089
X20953Y13841
X30605Y14349
X23422Y14471
X24564Y14501
X16764Y60448
X12954Y63242
X15875Y63242
X38354Y68957
X36318Y68960
X27178Y69592
X11684Y71624
X19685Y71751
X20955Y71751
X22606Y71751
X24257Y71751
X13716Y71878
X30480Y72132
X17018Y72386
X22606Y72894
X19685Y73021
X21082Y73021
X13744Y73049
X31496Y73212
X24130Y73402
X22606Y74291
X21336Y74418
X17018Y74545
X19939Y74545
X4064Y75053
X5461Y75053
X13829Y75420
X17018Y75688
X22352Y75688
X20447Y75815
X2921Y76323
X24130Y76450
X27178Y76450
X17529Y76710
X20701Y77593
X23241Y77593
X31256Y78468
X22098Y78609
X22098Y79851
X28321Y80641
X36571Y81408
X36449Y82419
X37846Y82800
X29210Y84070
X29210Y88388
X9017Y88642
T04C0.800000
X7000Y76196
X9002Y76196
X11049Y152039
X11049Y147157
T05C0.889000
X10666Y22094
X13206Y22094
X15746Y22094
X18286Y22094
X26922Y22094
X29462Y22094
X10666Y24634
X13206Y24634
X15746Y24634
X18286Y24634
X26922Y24634
X29462Y24634
X26922Y27174
X29462Y27174
X10414Y52066
X12954Y52066
X15494Y52066
X10414Y54606
X12954Y54606
X15494Y54606
X34036Y61464
X36576Y61464
X34036Y64004
X36576Y64004
X32512Y74672
X35052Y74672
X32512Y77212
X35052Y77212
X32512Y79752
X35052Y79752
X32512Y82292
X35052Y82292
X4064Y83816
X6604Y83816
X9144Y83816
X11684Y83816
X14224Y83816
X4064Y86356
X6604Y86356
X9144Y86356
X11684Y86356
X14224Y86356
X10668Y93976
X13208Y93976
X10668Y96516
X13208Y96516
X34036Y109976
X36576Y109976
X3556Y110738
X6096Y110738
X34036Y112516
X36576Y112516
X3556Y113278
X6096Y113278
X8636Y113278
X34036Y115056
X36576Y115056
X3556Y115818
X6096Y115818
X34036Y117596
X36576Y117596
X34036Y120136
X36576Y120136
X4064Y158234
X4064Y155694
X4064Y153154
X4064Y150614
X4064Y148074
X6604Y158234
X6604Y155694
X6604Y153154
X6604Y150614
X6604Y148074
X11240Y167124
X11240Y164584
X13780Y167124
X13780Y164584
X16002Y139184
X16002Y136644
X16002Y134104
X16256Y146550
X16320Y167124
X16320Y164584
X18542Y139184
X18542Y136644
X18542Y134104
X18796Y146550
X18860Y167124
X18860Y164584
X21082Y139184
X21082Y136644
X21082Y134104
X21336Y146550
X21400Y167124
X21400Y164584
X23622Y139184
X23622Y136644
X23622Y134104
X23955Y167125
X23955Y164585
X26495Y167125
X26495Y164585
X29035Y167125
X29035Y164585
X34544Y158488
X34544Y155948
X34544Y153408
X34544Y150868
X34544Y148328
X34544Y145788
X34544Y143248
X37084Y158488
X37084Y155948
X37084Y153408
X37084Y150868
X37084Y148328
X37084Y145788
X37084Y143248
T06C0.900000
X2030Y3554
X4570Y3554
X2030Y6094
X4570Y6094
X2030Y8634
X4570Y8634
X2030Y11174
X4570Y11174
X2030Y13714
X4570Y13714
X2030Y16254
X4570Y16254
T07C1.300000
X29970Y32000
X34970Y32000
X5158Y32762
X10158Y32762
X29970Y37080
X34970Y37080
X5158Y37842
X10158Y37842
X22098Y54860
X27098Y54860
X22098Y59860
X27098Y59860
X5160Y63242
X10160Y63242
X5160Y68322
X10160Y68322
X20320Y89992
X25320Y89992
X20320Y94992
X25320Y94992
X18542Y102864
X23542Y102864
X18542Y107944
X23542Y107944
X12954Y119882
X18034Y119882
X23114Y119882
X28194Y119882
X12954Y124882
X18034Y124882
X23114Y124882
X28194Y124882
T08C3.000000
X14984Y4824
X35304Y4824
X14984Y14984
X35304Y14984
X4824Y24634
X35304Y24634
X4824Y44934
X35304Y44934
X4826Y54606
X35306Y54606
X4826Y95246
X35306Y95246
X4826Y104896
X35306Y104896
X4826Y125216
X35306Y125216
X4826Y165346
X4826Y134866
X35306Y165346
X35306Y134866
T09C4.000000
X25144Y9904
M30
