M48
METRIC,000.000             
%
T01C0.400000
X16701Y61532
X16701Y61532
X22606Y66993
X20002Y68072
X18866Y71530
X19812Y73914
X19876Y72771
X20955Y73914
X20955Y72771
X27838Y77521
X29083Y72517
X31369Y75057
X33768Y75057
X33782Y77343
X33846Y78804
X33846Y73152
X37211Y73406
X38418Y71946
X39053Y71184
X9525Y83185
X18034Y83185
X9525Y85725
X18034Y85725
X17769Y92294
X18288Y93472
X19304Y93472
X20447Y93726
X25006Y94934
X18224Y95313
X25832Y95802
X29972Y96139
X27046Y96602
X12446Y97790
X15494Y97790
X21844Y98679
X12573Y98806
X14605Y98806
X28156Y98844
X20828Y98933
X26416Y100965
X27305Y101854
X17145Y102235
X28194Y102743
X26416Y102870
X29083Y103632
X11684Y104013
X17145Y104521
X29083Y104775
X25654Y109982
X22923Y111506
X22987Y112903
X17590Y113221
X19304Y114046
X15811Y114173
X23050Y114364
X19431Y115697
X15811Y115888
X18478Y116904
X16827Y116967
T02C0.500000
X1971Y25598
X2032Y29616
X2159Y28194
X5959Y23856
X9119Y34371
X10419Y24049
X11019Y17079
X11557Y29718
X11938Y26924
X11938Y24638
X12192Y21209
X12446Y19939
X12446Y18542
X12517Y27906
X12521Y29183
X13068Y24613
X14759Y34163
X15240Y12002
X15671Y28254
X16383Y29210
X16510Y21781
X18225Y21781
X20316Y25621
X21190Y26289
X22860Y22479
X22860Y21590
X24638Y12256
X25523Y27563
X26416Y26670
T03C0.800000
X9208Y92901
X9208Y100401
X17716Y107696
X17716Y115196
T04C0.889000
X3429Y20955
X3429Y18415
X3429Y15875
X3429Y13335
X3429Y10795
X3493Y37656
X3493Y35115
X3505Y40183
X5969Y20955
X5969Y18415
X5969Y15875
X5969Y13335
X5969Y10795
X6033Y37656
X6033Y35115
X6045Y40183
X12192Y41910
X12192Y39370
X12192Y36830
X13970Y20320
X13970Y17780
X14732Y41910
X14732Y39370
X14732Y36830
X16510Y20320
X16510Y17780
X19050Y20320
X19050Y17780
X20574Y47879
X20574Y45339
X21590Y20320
X21590Y17780
X23114Y47879
X23114Y45339
X24130Y20320
X24130Y17780
X25654Y47879
X25654Y45339
X26670Y20320
X26670Y17780
X28448Y38735
X28448Y36195
X32957Y22924
X34925Y40005
X34925Y37465
X34925Y34925
X35306Y17272
X35306Y14732
X35306Y12192
X35306Y9652
X35496Y22924
X37465Y40005
X37465Y37465
X37465Y34925
X37846Y17272
X37846Y14732
X37846Y12192
X37846Y9652
X18860Y52070
X21399Y52070
X23939Y52070
X26479Y52070
X29019Y52070
X10731Y52896
X13271Y52896
X18860Y54610
X21399Y54610
X23939Y54610
X26479Y54610
X29019Y54610
X10731Y55436
X13271Y55436
X18860Y57150
X21399Y57150
X23939Y57150
X26479Y57150
X29019Y57150
X10731Y57976
X13271Y57976
X18860Y59690
X21399Y59690
X23939Y59690
X26479Y59690
X29019Y59690
X18860Y62230
X21399Y62230
X23939Y62230
X26479Y62230
X29019Y62230
X18860Y64770
X21399Y64770
X23939Y64770
X26479Y64770
X29019Y64770
X12256Y65468
X14796Y65468
X12256Y68008
X14796Y68008
X9906Y78232
X9906Y75692
X12446Y78232
X12446Y75692
X14986Y78232
X14986Y75692
X17526Y78232
X17526Y75692
X20066Y78232
X20066Y75692
X38608Y78232
X11176Y83185
X13716Y83185
X16256Y83185
X11176Y85725
X13716Y85725
X16256Y85725
X33274Y92075
X35814Y92075
X33274Y94615
X35814Y94615
X33274Y97155
X35814Y97155
X33274Y99695
X35814Y99695
X33274Y102235
X35814Y102235
X38354Y102235
X28702Y106172
X31242Y106172
X33782Y106172
X28702Y108712
X31242Y108712
X33782Y108712
T05C0.930000
X13206Y14728
X15496Y14728
X16506Y9908
X17526Y8128
X18536Y9908
X19556Y8128
X20566Y9908
X21586Y8128
X22596Y9908
X23616Y8128
X24636Y14728
X26926Y14728
T06C1.300000
X22352Y84662
X27305Y84662
X22352Y89662
X27305Y89662
T07C1.650000
X11936Y9018
X28196Y9018
T08C3.000000
X4826Y45466
X4826Y4826
X35306Y45466
X35306Y4826
X4826Y55118
X35306Y55118
X4826Y65278
X35306Y65278
X4826Y74930
X25146Y74930
X4826Y84582
X35306Y84582
X4826Y115062
X35306Y115062
T09C3.300000
X13716Y5588
X26416Y5588
M30
