M48
METRIC,000.000             
%
T01C0.400000
X16256Y13462
X16510Y18542
X16510Y14986
X18542Y13462
X23876Y11938
X25908Y16510
X18288Y33018
X19558Y33018
X21082Y33018
X13970Y33780
X15240Y33780
X16510Y33780
X17526Y33780
X13208Y34796
X23114Y36320
X13208Y36320
X24892Y37336
X28702Y38098
X9296Y38250
X30734Y38352
X8128Y38860
X7874Y39876
X32004Y40130
X34036Y40384
X35560Y40384
X37084Y40384
X7874Y41146
X21082Y41400
X10668Y41908
X9398Y41908
X7874Y42162
X21082Y42416
X7112Y42924
X18034Y42924
X16042Y43229
X23114Y43432
X6350Y44194
X13767Y44448
X21082Y44702
X6350Y45464
X21082Y45718
X24892Y46480
X6350Y46734
X26416Y47242
X28448Y47242
X6350Y48258
X31242Y48766
X32512Y49020
X5588Y49274
X7112Y49274
X2540Y49528
X4064Y49528
X1016Y49782
X7874Y50036
X17780Y50544
X8636Y50798
X4064Y51306
X18288Y51306
X14224Y51814
X15494Y52068
X17272Y52068
X12166Y52500
X18288Y52576
X6096Y53084
X17120Y53389
X2794Y53592
X4318Y53592
X1270Y54100
X24384Y54608
X1270Y55624
X23114Y55624
X26162Y55878
X13462Y56132
X14478Y56132
X17272Y56132
X9906Y56640
X26162Y57148
X20574Y58418
X17526Y58672
X19558Y58672
X21590Y58672
X26162Y59180
X34036Y59688
X35306Y59688
X36576Y59688
X26670Y60704
X27686Y60704
X28956Y60704
X30226Y60704
X31750Y60704
X33274Y60704
X15240Y61720
X34036Y61720
X35306Y61720
X36576Y61720
X11938Y62482
X13462Y62482
X26162Y62736
X23876Y64006
X25908Y65022
X17272Y65530
X12700Y65784
X1270Y65784
X18542Y65784
X16256Y66546
X25146Y66800
X19050Y67308
X1270Y67562
X3048Y67562
X4826Y67562
X23876Y67816
X13237Y67845
X19050Y68324
X12250Y68832
X13208Y68832
X10189Y70893
X1524Y71372
X32004Y71880
X30988Y72134
X14478Y73912
X18034Y73912
X20828Y73912
X16358Y74115
X21082Y74674
X27686Y74674
X29718Y74674
X26162Y75182
X12700Y75436
X13970Y75944
X22957Y75944
X26416Y76706
X8382Y76960
X21082Y76960
X7112Y77468
X1778Y77976
X21082Y77976
X8382Y78230
X6858Y78992
X1778Y79246
X8382Y79500
X2794Y80008
X9398Y80516
X31496Y80516
X32766Y80516
X34036Y80516
X35306Y80516
X36576Y80516
X10414Y81532
X24130Y81786
X31496Y81786
X17780Y82040
X25146Y82040
X26416Y82294
X11430Y82802
X19050Y82802
X27432Y82802
X28702Y82802
X30226Y82802
X21082Y83056
X23622Y83564
X21336Y84072
X11938Y84326
X20828Y85088
X12700Y85342
X13970Y85342
X15494Y85342
X17018Y85342
X21590Y85850
X8890Y127250
X8890Y125726
X8890Y124202
X8890Y95754
X8890Y94738
X8890Y93214
X11684Y111756
X11684Y110486
X11938Y109216
X11938Y107692
X12446Y106676
X12700Y112518
X13970Y106676
X14986Y115058
X14986Y114042
X14986Y112518
X16510Y115058
X16510Y114042
X17018Y104136
X17018Y102358
X17526Y114042
X18542Y112518
X21082Y114550
X23622Y127758
X23622Y126234
X23622Y124710
X24638Y116074
X24638Y114550
X24638Y112518
X25654Y113534
X26162Y112518
X27686Y112518
X27686Y110994
X27686Y109978
X27686Y108962
X32766Y107438
X34036Y107438
X35306Y107438
X36576Y107438
X37846Y107438
X38862Y112264
X38862Y110994
X38862Y109724
X38862Y108454
X16256Y139084
X18339Y137510
X22454Y139288
X56896Y13462
X57150Y18542
X57150Y14986
X59182Y13462
X64516Y11938
X66548Y16510
X58928Y33018
X60198Y33018
X61722Y33018
X54610Y33780
X55880Y33780
X57150Y33780
X58166Y33780
X53848Y34796
X63754Y36320
X53848Y36320
X65532Y37336
X69342Y38098
X49936Y38250
X71374Y38352
X48768Y38860
X48514Y39876
X72644Y40130
X74676Y40384
X76200Y40384
X77724Y40384
X48514Y41146
X61722Y41400
X51308Y41908
X50038Y41908
X48514Y42162
X61722Y42416
X47752Y42924
X58674Y42924
X56682Y43229
X63754Y43432
X46990Y44194
X54407Y44448
X61722Y44702
X46990Y45464
X61722Y45718
X65532Y46480
X46990Y46734
X67056Y47242
X69088Y47242
X46990Y48258
X71882Y48766
X73152Y49020
X46228Y49274
X47752Y49274
X43180Y49528
X44704Y49528
X41656Y49782
X48514Y50036
X58420Y50544
X49276Y50798
X44704Y51306
X58928Y51306
X54864Y51814
X56134Y52068
X57912Y52068
X52806Y52500
X58928Y52576
X46736Y53084
X57760Y53389
X43434Y53592
X44958Y53592
X41910Y54100
X65024Y54608
X41910Y55624
X63754Y55624
X66802Y55878
X54102Y56132
X55118Y56132
X57912Y56132
X50546Y56640
X66802Y57148
X61214Y58418
X58166Y58672
X60198Y58672
X62230Y58672
X66802Y59180
X74676Y59688
X75946Y59688
X77216Y59688
X67310Y60704
X68326Y60704
X69596Y60704
X70866Y60704
X72390Y60704
X73914Y60704
X55880Y61720
X74676Y61720
X75946Y61720
X77216Y61720
X52578Y62482
X54102Y62482
X66802Y62736
X64516Y64006
X66548Y65022
X57912Y65530
X53340Y65784
X41910Y65784
X59182Y65784
X56896Y66546
X65786Y66800
X59690Y67308
X41910Y67562
X43688Y67562
X45466Y67562
X64516Y67816
X53877Y67845
X59690Y68324
X52890Y68832
X53848Y68832
X50829Y70893
X42164Y71372
X72644Y71880
X71628Y72134
X55118Y73912
X58674Y73912
X61468Y73912
X56998Y74115
X61722Y74674
X68326Y74674
X70358Y74674
X66802Y75182
X53340Y75436
X54610Y75944
X63597Y75944
X67056Y76706
X49022Y76960
X61722Y76960
X47752Y77468
X42418Y77976
X61722Y77976
X49022Y78230
X47498Y78992
X42418Y79246
X49022Y79500
X43434Y80008
X50038Y80516
X72136Y80516
X73406Y80516
X74676Y80516
X75946Y80516
X77216Y80516
X51054Y81532
X64770Y81786
X72136Y81786
X58420Y82040
X65786Y82040
X67056Y82294
X52070Y82802
X59690Y82802
X68072Y82802
X69342Y82802
X70866Y82802
X61722Y83056
X64262Y83564
X61976Y84072
X52578Y84326
X61468Y85088
X53340Y85342
X54610Y85342
X56134Y85342
X57658Y85342
X62230Y85850
X49530Y127250
X49530Y125726
X49530Y124202
X49530Y95754
X49530Y94738
X49530Y93214
X52324Y111756
X52324Y110486
X52578Y109216
X52578Y107692
X53086Y106676
X53340Y112518
X54610Y106676
X55626Y115058
X55626Y114042
X55626Y112518
X57150Y115058
X57150Y114042
X57658Y104136
X57658Y102358
X58166Y114042
X59182Y112518
X61722Y114550
X64262Y127758
X64262Y126234
X64262Y124710
X65278Y116074
X65278Y114550
X65278Y112518
X66294Y113534
X66802Y112518
X68326Y112518
X68326Y110994
X68326Y109978
X68326Y108962
X73406Y107438
X74676Y107438
X75946Y107438
X77216Y107438
X78486Y107438
X79502Y112264
X79502Y110994
X79502Y109724
X79502Y108454
X56896Y139084
X58979Y137510
X63094Y139288
T02C0.889000
X11811Y27559
X11811Y25019
X11811Y22479
X14351Y27559
X14351Y25019
X14351Y22479
X30099Y17526
X30099Y14986
X30099Y12446
X32639Y17526
X32639Y14986
X32639Y12446
X25146Y41908
X34036Y42416
X36576Y42416
X25146Y44448
X34036Y44956
X36576Y44956
X34036Y47496
X36576Y47496
X25146Y48512
X34036Y50036
X36576Y50036
X25146Y51052
X34036Y52576
X36576Y52576
X34036Y55116
X36576Y55116
X3302Y55624
X5842Y55624
X34036Y57656
X36576Y57656
X3302Y58164
X5842Y58164
X3302Y60704
X5842Y60704
X3302Y63244
X5842Y63244
X34036Y63244
X36576Y63244
X3302Y65784
X5842Y65784
X34036Y65784
X36576Y65784
X34036Y68324
X36576Y68324
X24892Y70864
X34036Y70864
X36576Y70864
X3302Y72896
X5842Y72896
X24892Y73404
X34036Y73404
X36576Y73404
X3302Y75436
X5842Y75436
X34036Y75944
X36576Y75944
X24892Y76960
X34036Y78484
X36576Y78484
X24892Y79500
X10414Y96008
X10414Y93468
X11430Y127250
X11430Y124710
X12954Y96008
X12954Y93468
X13970Y127250
X13970Y124710
X15494Y96008
X15494Y93468
X16510Y127250
X16510Y124710
X18034Y96008
X18034Y93468
X19050Y127250
X19050Y124710
X20574Y96008
X20574Y93468
X21590Y127250
X21590Y124710
X12725Y158261
X12725Y155721
X12725Y153181
X15265Y158261
X15265Y155721
X15265Y153181
X32639Y146603
X32639Y144063
X35179Y146603
X35179Y144063
X52451Y27559
X52451Y25019
X52451Y22479
X54991Y27559
X54991Y25019
X54991Y22479
X70739Y17526
X70739Y14986
X70739Y12446
X73279Y17526
X73279Y14986
X73279Y12446
X65786Y41908
X74676Y42416
X77216Y42416
X65786Y44448
X74676Y44956
X77216Y44956
X74676Y47496
X77216Y47496
X65786Y48512
X74676Y50036
X77216Y50036
X65786Y51052
X74676Y52576
X77216Y52576
X74676Y55116
X77216Y55116
X43942Y55624
X46482Y55624
X74676Y57656
X77216Y57656
X43942Y58164
X46482Y58164
X43942Y60704
X46482Y60704
X43942Y63244
X46482Y63244
X74676Y63244
X77216Y63244
X43942Y65784
X46482Y65784
X74676Y65784
X77216Y65784
X74676Y68324
X77216Y68324
X65532Y70864
X74676Y70864
X77216Y70864
X43942Y72896
X46482Y72896
X65532Y73404
X74676Y73404
X77216Y73404
X43942Y75436
X46482Y75436
X74676Y75944
X77216Y75944
X65532Y76960
X74676Y78484
X77216Y78484
X65532Y79500
X51054Y96008
X51054Y93468
X52070Y127250
X52070Y124710
X53594Y96008
X53594Y93468
X54610Y127250
X54610Y124710
X56134Y96008
X56134Y93468
X57150Y127250
X57150Y124710
X58674Y96008
X58674Y93468
X59690Y127250
X59690Y124710
X61214Y96008
X61214Y93468
X62230Y127250
X62230Y124710
X53365Y158261
X53365Y155721
X53365Y153181
X55905Y158261
X55905Y155721
X55905Y153181
X73279Y146603
X73279Y144063
X75819Y146603
X75819Y144063
T03C1.000000
X24928Y100428
X24928Y94128
X29428Y100428
X29428Y94128
X65568Y100428
X65568Y94128
X70068Y100428
X70068Y94128
T04C1.500000
X6858Y14986
X6731Y145155
X47498Y14986
X47371Y145155
T05C1.700000
X4318Y17526
X4318Y12446
X9398Y17526
X9398Y12446
X4191Y147695
X4191Y142615
X9271Y147695
X9271Y142615
X44958Y17526
X44958Y12446
X50038Y17526
X50038Y12446
X44831Y147695
X44831Y142615
X49911Y147695
X49911Y142615
T06C3.000000
X4826Y25146
X4826Y4826
X35306Y25146
X35306Y4826
X4826Y34796
X35306Y34796
X4826Y85596
X35306Y85596
X4826Y125726
X4826Y95246
X35306Y125726
X35306Y95246
X5080Y155950
X5080Y135630
X35560Y155950
X35560Y135630
X45466Y25146
X45466Y4826
X75946Y25146
X75946Y4826
X45466Y34796
X75946Y34796
X45466Y85596
X75946Y85596
X45466Y125726
X45466Y95246
X75946Y125726
X75946Y95246
X45720Y155950
X45720Y135630
X76200Y155950
X76200Y135630
M30
