G75*
G71*
%MOMM*%
%OFA0B0*%
%FSLAX53Y53*%
%IPPOS*%
%LPD*%
%ADD10R,1.90000X1.45000*%
%ADD12R,1.65000X1.40000*%
%ADD17R,0.85000X1.85000*%
%ADD23R,2.07640X2.07640*%
%ADD25C,3.10000*%
%ADD26C,0.50000*%
%ADD31R,1.70000X1.10000*%
%ADD33C,6.40000*%
%ADD36R,1.92400X1.92400*%
%ADD39R,1.70048X2.09926*%
%ADD43C,0.10000*%
%ADD48R,1.50000X0.65000*%
%ADD55R,2.20000X1.40000*%
%ADD58R,1.40000X1.65000*%
%ADD59R,1.28900X1.79700*%
%ADD62R,2.89936X2.20086*%
%ADD69R,1.10000X1.70000*%
%ADD70C,2.90000*%
%ADD74R,1.79700X1.28900*%
%ADD78R,1.00000X1.54300*%
%ADD79R,1.00000X1.95000*%
%ADD80R,2.43200X1.92400*%
X0000000Y0000000D02*
%LPD*%
G01*
D43*
D36*
X0011811Y0022479D03*
X0014351Y0022479D03*
X0011811Y0025019D03*
X0014351Y0025019D03*
X0011811Y0027559D03*
X0014351Y0027559D03*
X0032639Y0014986D03*
X0030099Y0014986D03*
X0032639Y0012446D03*
X0030099Y0012446D03*
X0032639Y0017526D03*
X0030099Y0017526D03*
D33*
X0035306Y0025146D03*
X0004826Y0004826D03*
X0004826Y0025146D03*
X0035306Y0004826D03*
D25*
X0009398Y0012446D03*
X0004318Y0012446D03*
X0004318Y0017526D03*
X0009398Y0017526D03*
D70*
X0006858Y0014986D03*
X0000000Y0029970D02*
%LPD*%
G01*
D26*
D74*
X0014732Y0037209D03*
X0014732Y0035304D03*
X0014986Y0067118D03*
X0014986Y0069023D03*
X0017526Y0069023D03*
X0017526Y0067118D03*
X0015545Y0070635D03*
X0015545Y0072540D03*
D79*
X0013589Y0072482D03*
X0012319Y0072482D03*
X0011049Y0072482D03*
X0009779Y0072482D03*
X0009779Y0077882D03*
X0011049Y0077882D03*
X0012319Y0077882D03*
X0013589Y0077882D03*
D59*
X0005410Y0070254D03*
X0003505Y0070254D03*
D74*
X0017526Y0041298D03*
X0017526Y0039393D03*
D39*
X0019484Y0034593D03*
X0022984Y0034593D03*
D59*
X0011938Y0054608D03*
X0013843Y0054608D03*
X0010160Y0054608D03*
X0008255Y0054608D03*
D74*
X0013716Y0048830D03*
X0013716Y0050735D03*
D59*
X0014948Y0043280D03*
X0016853Y0043280D03*
D74*
X0017526Y0045274D03*
X0017526Y0047179D03*
X0016002Y0081850D03*
X0016002Y0083755D03*
X0017780Y0072579D03*
X0017780Y0070674D03*
X0015596Y0077786D03*
X0015596Y0079691D03*
D39*
X0005814Y0051306D03*
X0002314Y0051306D03*
X0019406Y0042060D03*
X0022906Y0042060D03*
X0019332Y0044702D03*
X0022832Y0044702D03*
X0019355Y0053948D03*
X0022855Y0053948D03*
X0019456Y0074776D03*
X0022957Y0074776D03*
X0019383Y0077214D03*
X0022883Y0077214D03*
X0020348Y0065530D03*
X0023848Y0065530D03*
X0019332Y0084580D03*
X0022832Y0084580D03*
D36*
X0025146Y0044448D03*
X0025146Y0041908D03*
X0025146Y0048512D03*
X0025146Y0051052D03*
X0024892Y0073404D03*
X0024892Y0070864D03*
X0024892Y0076960D03*
X0024892Y0079500D03*
X0005842Y0072896D03*
X0003302Y0072896D03*
X0005842Y0075436D03*
X0003302Y0075436D03*
X0005842Y0055624D03*
X0003302Y0055624D03*
X0005842Y0058164D03*
X0003302Y0058164D03*
X0005842Y0060704D03*
X0003302Y0060704D03*
X0005842Y0063244D03*
X0003302Y0063244D03*
X0005842Y0065784D03*
X0003302Y0065784D03*
D33*
X0004826Y0085596D03*
X0035306Y0034796D03*
X0035306Y0085596D03*
X0004826Y0034796D03*
D59*
X0019367Y0039927D03*
X0021272Y0039927D03*
X0019367Y0037387D03*
X0021272Y0037387D03*
X0019367Y0047242D03*
X0021272Y0047242D03*
X0019367Y0049782D03*
X0021272Y0049782D03*
D74*
X0017272Y0035304D03*
X0017272Y0037209D03*
X0016256Y0050735D03*
X0016256Y0048830D03*
X0015494Y0039393D03*
X0015494Y0041298D03*
X0015240Y0047179D03*
X0015240Y0045274D03*
D59*
X0019875Y0072642D03*
X0021780Y0072642D03*
X0019875Y0070102D03*
X0021780Y0070102D03*
X0020129Y0079500D03*
X0022034Y0079500D03*
X0020129Y0081786D03*
X0022034Y0081786D03*
D74*
X0013716Y0083755D03*
X0013716Y0081850D03*
X0017526Y0079691D03*
X0017526Y0077786D03*
D59*
X0005524Y0078230D03*
X0003619Y0078230D03*
D74*
X0008382Y0059371D03*
X0008382Y0057466D03*
X0008382Y0061022D03*
X0008382Y0062927D03*
D79*
X0013081Y0040224D03*
X0011811Y0040224D03*
X0010541Y0040224D03*
X0009271Y0040224D03*
X0009271Y0045624D03*
X0010541Y0045624D03*
X0011811Y0045624D03*
X0013081Y0045624D03*
D78*
X0018542Y0057656D03*
X0017272Y0057656D03*
X0016002Y0057656D03*
X0014732Y0057656D03*
X0013462Y0057656D03*
X0012192Y0057656D03*
X0010922Y0057656D03*
X0010922Y0064006D03*
X0012192Y0064006D03*
X0014732Y0064006D03*
X0016002Y0064006D03*
X0017272Y0064006D03*
X0018542Y0064006D03*
X0013462Y0064006D03*
D59*
X0015303Y0075182D03*
X0017208Y0075182D03*
D36*
X0036576Y0057656D03*
X0034036Y0057656D03*
X0036576Y0052576D03*
X0034036Y0052576D03*
X0036576Y0055116D03*
X0034036Y0055116D03*
X0036576Y0050036D03*
X0034036Y0050036D03*
X0036576Y0068324D03*
X0034036Y0068324D03*
X0036576Y0065784D03*
X0034036Y0065784D03*
X0036576Y0078484D03*
X0034036Y0078484D03*
X0036576Y0073404D03*
X0034036Y0073404D03*
X0036576Y0075944D03*
X0034036Y0075944D03*
X0036576Y0063244D03*
X0034036Y0063244D03*
X0036576Y0070864D03*
X0034036Y0070864D03*
X0036576Y0042416D03*
X0034036Y0042416D03*
X0036576Y0047496D03*
X0034036Y0047496D03*
X0036576Y0044956D03*
X0034036Y0044956D03*
D59*
X0009398Y0052322D03*
X0007493Y0052322D03*
D80*
X0028702Y0043305D03*
X0028702Y0040003D03*
X0028702Y0054735D03*
X0028702Y0051433D03*
X0028448Y0069213D03*
X0028448Y0065911D03*
X0028702Y0081151D03*
X0028702Y0077849D03*
X0000000Y0090420D02*
%LPD*%
G01*
D26*
D59*
X0026607Y0110994D03*
X0024702Y0110994D03*
X0026607Y0108962D03*
X0024702Y0108962D03*
D39*
X0015720Y0120646D03*
X0012220Y0120646D03*
D25*
X0027686Y0125726D03*
D10*
X0027686Y0123726D03*
X0027686Y0127726D03*
D36*
X0011430Y0124710D03*
X0011430Y0127250D03*
X0013970Y0124710D03*
X0013970Y0127250D03*
X0016510Y0124710D03*
X0016510Y0127250D03*
X0019050Y0124710D03*
X0019050Y0127250D03*
X0021590Y0124710D03*
X0021590Y0127250D03*
X0018034Y0096008D03*
X0018034Y0093468D03*
X0015494Y0096008D03*
X0015494Y0093468D03*
X0012954Y0096008D03*
X0012954Y0093468D03*
X0020574Y0096008D03*
X0020574Y0093468D03*
D33*
X0004826Y0095246D03*
X0004826Y0125726D03*
X0035306Y0125726D03*
X0035306Y0095246D03*
D74*
X0027686Y0120202D03*
X0027686Y0122107D03*
D23*
X0029428Y0094128D03*
X0024928Y0094128D03*
X0029428Y0100428D03*
X0024928Y0100428D03*
D55*
X0013970Y0108220D03*
X0013970Y0110720D03*
D59*
X0017653Y0116074D03*
X0019558Y0116074D03*
X0023114Y0116074D03*
X0021209Y0116074D03*
D36*
X0010414Y0096008D03*
X0010414Y0093468D03*
D48*
X0021200Y0110502D03*
X0021200Y0111002D03*
X0021200Y0111502D03*
X0021200Y0112002D03*
X0021200Y0112502D03*
X0016900Y0112502D03*
X0016900Y0112002D03*
X0016900Y0111502D03*
X0016900Y0111002D03*
X0016900Y0110502D03*
X0000000Y0130550D02*
%LPD*%
G01*
D43*
D17*
X0024749Y0141355D03*
X0024099Y0141355D03*
X0023449Y0141355D03*
X0022799Y0141355D03*
X0022799Y0145755D03*
X0023449Y0145755D03*
X0024099Y0145755D03*
X0024749Y0145755D03*
D58*
X0026686Y0145892D03*
X0028686Y0145892D03*
D12*
X0018390Y0141304D03*
X0018390Y0139304D03*
D62*
X0022878Y0155493D03*
X0018880Y0155493D03*
D36*
X0015265Y0153181D03*
X0012725Y0153181D03*
X0015265Y0155721D03*
X0012725Y0155721D03*
X0015265Y0158261D03*
X0012725Y0158261D03*
X0035179Y0144063D03*
X0032639Y0144063D03*
X0035179Y0146603D03*
X0032639Y0146603D03*
D33*
X0005080Y0135630D03*
X0005080Y0155950D03*
X0035560Y0155950D03*
X0035560Y0135630D03*
D70*
X0006731Y0145155D03*
D25*
X0009271Y0142615D03*
X0004191Y0142615D03*
X0004191Y0147695D03*
X0009271Y0147695D03*
D69*
X0013269Y0145028D03*
X0011369Y0145028D03*
D31*
X0018390Y0145114D03*
X0018390Y0143214D03*
D69*
X0021605Y0148838D03*
X0023505Y0148838D03*
X0024907Y0148838D03*
X0026807Y0148838D03*
D31*
X0018390Y0151922D03*
X0018390Y0150022D03*
X0018390Y0148518D03*
X0018390Y0146618D03*
X0040640Y0000000D02*
%LPD*%
G01*
D43*
D36*
X0052451Y0022479D03*
X0054991Y0022479D03*
X0052451Y0025019D03*
X0054991Y0025019D03*
X0052451Y0027559D03*
X0054991Y0027559D03*
X0073279Y0014986D03*
X0070739Y0014986D03*
X0073279Y0012446D03*
X0070739Y0012446D03*
X0073279Y0017526D03*
X0070739Y0017526D03*
D33*
X0075946Y0025146D03*
X0045466Y0004826D03*
X0045466Y0025146D03*
X0075946Y0004826D03*
D25*
X0050038Y0012446D03*
X0044958Y0012446D03*
X0044958Y0017526D03*
X0050038Y0017526D03*
D70*
X0047498Y0014986D03*
X0040640Y0029970D02*
%LPD*%
G01*
D26*
D74*
X0055372Y0037209D03*
X0055372Y0035304D03*
X0055626Y0067118D03*
X0055626Y0069023D03*
X0058166Y0069023D03*
X0058166Y0067118D03*
X0056185Y0070635D03*
X0056185Y0072540D03*
D79*
X0054229Y0072482D03*
X0052959Y0072482D03*
X0051689Y0072482D03*
X0050419Y0072482D03*
X0050419Y0077882D03*
X0051689Y0077882D03*
X0052959Y0077882D03*
X0054229Y0077882D03*
D59*
X0046050Y0070254D03*
X0044145Y0070254D03*
D74*
X0058166Y0041298D03*
X0058166Y0039393D03*
D39*
X0060124Y0034593D03*
X0063624Y0034593D03*
D59*
X0052578Y0054608D03*
X0054483Y0054608D03*
X0050800Y0054608D03*
X0048895Y0054608D03*
D74*
X0054356Y0048830D03*
X0054356Y0050735D03*
D59*
X0055588Y0043280D03*
X0057493Y0043280D03*
D74*
X0058166Y0045274D03*
X0058166Y0047179D03*
X0056642Y0081850D03*
X0056642Y0083755D03*
X0058420Y0072579D03*
X0058420Y0070674D03*
X0056236Y0077786D03*
X0056236Y0079691D03*
D39*
X0046454Y0051306D03*
X0042954Y0051306D03*
X0060046Y0042060D03*
X0063546Y0042060D03*
X0059972Y0044702D03*
X0063472Y0044702D03*
X0059995Y0053948D03*
X0063495Y0053948D03*
X0060096Y0074776D03*
X0063597Y0074776D03*
X0060023Y0077214D03*
X0063523Y0077214D03*
X0060988Y0065530D03*
X0064488Y0065530D03*
X0059972Y0084580D03*
X0063472Y0084580D03*
D36*
X0065786Y0044448D03*
X0065786Y0041908D03*
X0065786Y0048512D03*
X0065786Y0051052D03*
X0065532Y0073404D03*
X0065532Y0070864D03*
X0065532Y0076960D03*
X0065532Y0079500D03*
X0046482Y0072896D03*
X0043942Y0072896D03*
X0046482Y0075436D03*
X0043942Y0075436D03*
X0046482Y0055624D03*
X0043942Y0055624D03*
X0046482Y0058164D03*
X0043942Y0058164D03*
X0046482Y0060704D03*
X0043942Y0060704D03*
X0046482Y0063244D03*
X0043942Y0063244D03*
X0046482Y0065784D03*
X0043942Y0065784D03*
D33*
X0045466Y0085596D03*
X0075946Y0034796D03*
X0075946Y0085596D03*
X0045466Y0034796D03*
D59*
X0060007Y0039927D03*
X0061912Y0039927D03*
X0060007Y0037387D03*
X0061912Y0037387D03*
X0060007Y0047242D03*
X0061912Y0047242D03*
X0060007Y0049782D03*
X0061912Y0049782D03*
D74*
X0057912Y0035304D03*
X0057912Y0037209D03*
X0056896Y0050735D03*
X0056896Y0048830D03*
X0056134Y0039393D03*
X0056134Y0041298D03*
X0055880Y0047179D03*
X0055880Y0045274D03*
D59*
X0060515Y0072642D03*
X0062420Y0072642D03*
X0060515Y0070102D03*
X0062420Y0070102D03*
X0060769Y0079500D03*
X0062674Y0079500D03*
X0060769Y0081786D03*
X0062674Y0081786D03*
D74*
X0054356Y0083755D03*
X0054356Y0081850D03*
X0058166Y0079691D03*
X0058166Y0077786D03*
D59*
X0046164Y0078230D03*
X0044259Y0078230D03*
D74*
X0049022Y0059371D03*
X0049022Y0057466D03*
X0049022Y0061022D03*
X0049022Y0062927D03*
D79*
X0053721Y0040224D03*
X0052451Y0040224D03*
X0051181Y0040224D03*
X0049911Y0040224D03*
X0049911Y0045624D03*
X0051181Y0045624D03*
X0052451Y0045624D03*
X0053721Y0045624D03*
D78*
X0059182Y0057656D03*
X0057912Y0057656D03*
X0056642Y0057656D03*
X0055372Y0057656D03*
X0054102Y0057656D03*
X0052832Y0057656D03*
X0051562Y0057656D03*
X0051562Y0064006D03*
X0052832Y0064006D03*
X0055372Y0064006D03*
X0056642Y0064006D03*
X0057912Y0064006D03*
X0059182Y0064006D03*
X0054102Y0064006D03*
D59*
X0055943Y0075182D03*
X0057848Y0075182D03*
D36*
X0077216Y0057656D03*
X0074676Y0057656D03*
X0077216Y0052576D03*
X0074676Y0052576D03*
X0077216Y0055116D03*
X0074676Y0055116D03*
X0077216Y0050036D03*
X0074676Y0050036D03*
X0077216Y0068324D03*
X0074676Y0068324D03*
X0077216Y0065784D03*
X0074676Y0065784D03*
X0077216Y0078484D03*
X0074676Y0078484D03*
X0077216Y0073404D03*
X0074676Y0073404D03*
X0077216Y0075944D03*
X0074676Y0075944D03*
X0077216Y0063244D03*
X0074676Y0063244D03*
X0077216Y0070864D03*
X0074676Y0070864D03*
X0077216Y0042416D03*
X0074676Y0042416D03*
X0077216Y0047496D03*
X0074676Y0047496D03*
X0077216Y0044956D03*
X0074676Y0044956D03*
D59*
X0050038Y0052322D03*
X0048133Y0052322D03*
D80*
X0069342Y0043305D03*
X0069342Y0040003D03*
X0069342Y0054735D03*
X0069342Y0051433D03*
X0069088Y0069213D03*
X0069088Y0065911D03*
X0069342Y0081151D03*
X0069342Y0077849D03*
X0040640Y0090420D02*
%LPD*%
G01*
D26*
D59*
X0067247Y0110994D03*
X0065342Y0110994D03*
X0067247Y0108962D03*
X0065342Y0108962D03*
D39*
X0056360Y0120646D03*
X0052860Y0120646D03*
D25*
X0068326Y0125726D03*
D10*
X0068326Y0123726D03*
X0068326Y0127726D03*
D36*
X0052070Y0124710D03*
X0052070Y0127250D03*
X0054610Y0124710D03*
X0054610Y0127250D03*
X0057150Y0124710D03*
X0057150Y0127250D03*
X0059690Y0124710D03*
X0059690Y0127250D03*
X0062230Y0124710D03*
X0062230Y0127250D03*
X0058674Y0096008D03*
X0058674Y0093468D03*
X0056134Y0096008D03*
X0056134Y0093468D03*
X0053594Y0096008D03*
X0053594Y0093468D03*
X0061214Y0096008D03*
X0061214Y0093468D03*
D33*
X0045466Y0095246D03*
X0045466Y0125726D03*
X0075946Y0125726D03*
X0075946Y0095246D03*
D74*
X0068326Y0120202D03*
X0068326Y0122107D03*
D23*
X0070068Y0094128D03*
X0065568Y0094128D03*
X0070068Y0100428D03*
X0065568Y0100428D03*
D55*
X0054610Y0108220D03*
X0054610Y0110720D03*
D59*
X0058293Y0116074D03*
X0060198Y0116074D03*
X0063754Y0116074D03*
X0061849Y0116074D03*
D36*
X0051054Y0096008D03*
X0051054Y0093468D03*
D48*
X0061840Y0110502D03*
X0061840Y0111002D03*
X0061840Y0111502D03*
X0061840Y0112002D03*
X0061840Y0112502D03*
X0057540Y0112502D03*
X0057540Y0112002D03*
X0057540Y0111502D03*
X0057540Y0111002D03*
X0057540Y0110502D03*
X0040640Y0130550D02*
%LPD*%
G01*
D43*
D17*
X0065389Y0141355D03*
X0064739Y0141355D03*
X0064089Y0141355D03*
X0063439Y0141355D03*
X0063439Y0145755D03*
X0064089Y0145755D03*
X0064739Y0145755D03*
X0065389Y0145755D03*
D58*
X0067326Y0145892D03*
X0069326Y0145892D03*
D12*
X0059030Y0141304D03*
X0059030Y0139304D03*
D62*
X0063518Y0155493D03*
X0059520Y0155493D03*
D36*
X0055905Y0153181D03*
X0053365Y0153181D03*
X0055905Y0155721D03*
X0053365Y0155721D03*
X0055905Y0158261D03*
X0053365Y0158261D03*
X0075819Y0144063D03*
X0073279Y0144063D03*
X0075819Y0146603D03*
X0073279Y0146603D03*
D33*
X0045720Y0135630D03*
X0045720Y0155950D03*
X0076200Y0155950D03*
X0076200Y0135630D03*
D70*
X0047371Y0145155D03*
D25*
X0049911Y0142615D03*
X0044831Y0142615D03*
X0044831Y0147695D03*
X0049911Y0147695D03*
D69*
X0053909Y0145028D03*
X0052009Y0145028D03*
D31*
X0059030Y0145114D03*
X0059030Y0143214D03*
D69*
X0062245Y0148838D03*
X0064145Y0148838D03*
X0065547Y0148838D03*
X0067447Y0148838D03*
D31*
X0059030Y0151922D03*
X0059030Y0150022D03*
X0059030Y0148518D03*
X0059030Y0146618D03*
M02*
