G75*
G71*
%MOMM*%
%OFA0B0*%
%FSLAX53Y53*%
%IPPOS*%
%LPD*%
%ADD20C,6.40000*%
%ADD23R,2.10000X2.10000*%
%ADD29O,2.10000X2.10000*%
%ADD33C,3.10000*%
X0000000Y0000000D02*
%LPD*%
D29*
X0027305Y0012015D03*
X0027305Y0009475D03*
D23*
X0027305Y0006935D03*
D20*
X0021590Y0009475D03*
D33*
X0021876Y0002109D03*
X0000000Y0019000D02*
%LPD*%
D29*
X0027305Y0031015D03*
X0027305Y0028475D03*
D23*
X0027305Y0025935D03*
D20*
X0021590Y0028475D03*
D33*
X0021876Y0021109D03*
X0000000Y0038000D02*
%LPD*%
D29*
X0027305Y0050015D03*
X0027305Y0047475D03*
D23*
X0027305Y0044935D03*
D20*
X0021590Y0047475D03*
D33*
X0021876Y0040109D03*
X0000000Y0057000D02*
%LPD*%
D29*
X0027305Y0069015D03*
X0027305Y0066475D03*
D23*
X0027305Y0063935D03*
D20*
X0021590Y0066475D03*
D33*
X0021876Y0059109D03*
X0000000Y0076000D02*
%LPD*%
D29*
X0027305Y0088015D03*
X0027305Y0085475D03*
D23*
X0027305Y0082935D03*
D20*
X0021590Y0085475D03*
D33*
X0021876Y0078109D03*
X0000000Y0095000D02*
%LPD*%
D29*
X0027305Y0107015D03*
X0027305Y0104475D03*
D23*
X0027305Y0101935D03*
D20*
X0021590Y0104475D03*
D33*
X0021876Y0097109D03*
X0000000Y0114000D02*
%LPD*%
D29*
X0027305Y0126015D03*
X0027305Y0123475D03*
D23*
X0027305Y0120935D03*
D20*
X0021590Y0123475D03*
D33*
X0021876Y0116109D03*
X0037500Y0000000D02*
%LPD*%
D29*
X0064805Y0012015D03*
X0064805Y0009475D03*
D23*
X0064805Y0006935D03*
D20*
X0059090Y0009475D03*
D33*
X0059376Y0002109D03*
X0037500Y0019000D02*
%LPD*%
D29*
X0064805Y0031015D03*
X0064805Y0028475D03*
D23*
X0064805Y0025935D03*
D20*
X0059090Y0028475D03*
D33*
X0059376Y0021109D03*
X0037500Y0038000D02*
%LPD*%
D29*
X0064805Y0050015D03*
X0064805Y0047475D03*
D23*
X0064805Y0044935D03*
D20*
X0059090Y0047475D03*
D33*
X0059376Y0040109D03*
X0037500Y0057000D02*
%LPD*%
D29*
X0064805Y0069015D03*
X0064805Y0066475D03*
D23*
X0064805Y0063935D03*
D20*
X0059090Y0066475D03*
D33*
X0059376Y0059109D03*
X0037500Y0076000D02*
%LPD*%
D29*
X0064805Y0088015D03*
X0064805Y0085475D03*
D23*
X0064805Y0082935D03*
D20*
X0059090Y0085475D03*
D33*
X0059376Y0078109D03*
X0037500Y0095000D02*
%LPD*%
D29*
X0064805Y0107015D03*
X0064805Y0104475D03*
D23*
X0064805Y0101935D03*
D20*
X0059090Y0104475D03*
D33*
X0059376Y0097109D03*
X0037500Y0114000D02*
%LPD*%
D29*
X0064805Y0126015D03*
X0064805Y0123475D03*
D23*
X0064805Y0120935D03*
D20*
X0059090Y0123475D03*
D33*
X0059376Y0116109D03*
M02*
