M48
METRIC,000.000             
%
T07C3.000000
X4826Y25146
X65786Y25146
X65786Y4826
X4826Y4826
X4826Y55116
X65786Y55116
X65786Y34796
X4826Y34796
X4826Y85086
X65786Y85086
X65786Y64766
X4826Y64766
X4826Y115056
X65786Y115056
X65786Y94736
X4826Y94736
X4826Y145026
X65786Y145026
X65786Y124706
X4826Y124706
T06C1.900000
X13756Y14144
X18756Y14144
X13756Y44114
X18756Y44114
X13756Y74084
X18756Y74084
X13756Y104054
X18756Y104054
X13756Y134024
X18756Y134024
T05C1.400000
X31066Y18724
X60066Y6724
X31066Y48694
X60066Y36694
X31066Y78664
X60066Y66664
X31066Y108634
X60066Y96634
X31066Y138604
X60066Y126604
T04C1.200000
X10756Y4144
X21756Y4144
X10756Y34114
X21756Y34114
X10756Y64084
X21756Y64084
X10756Y94054
X21756Y94054
X10756Y124024
X21756Y124024
T03C0.889000
X64516Y17272
X64516Y14732
X67056Y17272
X67056Y14732
X10668Y26670
X10668Y24130
X16510Y26670
X16510Y24130
X19050Y26670
X19050Y24130
X21590Y26670
X21590Y24130
X24130Y26670
X24130Y24130
X26670Y26670
X26670Y24130
X64516Y47242
X64516Y44702
X67056Y47242
X67056Y44702
X10668Y56640
X10668Y54100
X16510Y56640
X16510Y54100
X19050Y56640
X19050Y54100
X21590Y56640
X21590Y54100
X24130Y56640
X24130Y54100
X26670Y56640
X26670Y54100
X64516Y77212
X64516Y74672
X67056Y77212
X67056Y74672
X10668Y86610
X10668Y84070
X16510Y86610
X16510Y84070
X19050Y86610
X19050Y84070
X21590Y86610
X21590Y84070
X24130Y86610
X24130Y84070
X26670Y86610
X26670Y84070
X64516Y107182
X64516Y104642
X67056Y107182
X67056Y104642
X10668Y116580
X10668Y114040
X16510Y116580
X16510Y114040
X19050Y116580
X19050Y114040
X21590Y116580
X21590Y114040
X24130Y116580
X24130Y114040
X26670Y116580
X26670Y114040
X64516Y137152
X64516Y134612
X67056Y137152
X67056Y134612
X10668Y146550
X10668Y144010
X16510Y146550
X16510Y144010
X19050Y146550
X19050Y144010
X21590Y146550
X21590Y144010
X24130Y146550
X24130Y144010
X26670Y146550
X26670Y144010
T02C0.800000
X27686Y1524
X30226Y1524
X32766Y1524
X27686Y31494
X30226Y31494
X32766Y31494
X27686Y61464
X30226Y61464
X32766Y61464
X27686Y91434
X30226Y91434
X32766Y91434
X27686Y121404
X30226Y121404
X32766Y121404
T01C0.400000
X762Y29210
X762Y22860
X762Y17780
X762Y11938
X762Y6858
X762Y762
X3810Y9652
X5080Y10922
X6858Y29210
X7366Y762
X8890Y16002
X10668Y16002
X12192Y762
X12700Y25146
X12700Y21082
X12700Y16510
X14732Y3556
X14732Y7112
X14970Y17780
X14981Y20829
X14986Y29210
X14986Y25146
X17272Y762
X17780Y29210
X18796Y7112
X18796Y3556
X22352Y762
X22606Y6096
X22860Y8890
X22860Y14478
X25654Y29210
X25654Y8890
X25654Y6096
X25654Y762
X32004Y15940
X32512Y29210
X33020Y15240
X34290Y700
X39116Y29210
X39307Y14678
X39307Y11811
X39624Y700
X46736Y700
X46736Y29210
X54864Y29272
X54864Y762
X62230Y29210
X62230Y700
X69850Y29210
X69850Y22606
X69850Y17526
X69850Y11938
X69850Y700
X69912Y6858
X762Y59180
X762Y52830
X762Y47750
X762Y41908
X762Y36828
X762Y30732
X3810Y39622
X5080Y40892
X6858Y59180
X7366Y30732
X8890Y45972
X10668Y45972
X12192Y30732
X12700Y55116
X12700Y51052
X12700Y46480
X14732Y33526
X14732Y37082
X14970Y47750
X14981Y50799
X14986Y59180
X14986Y55116
X17272Y30732
X17780Y59180
X18796Y37082
X18796Y33526
X22352Y30732
X22606Y36066
X22860Y38860
X22860Y44448
X25654Y59180
X25654Y38860
X25654Y36066
X25654Y30732
X32004Y45910
X32512Y59180
X33020Y45210
X34290Y30670
X39116Y59180
X39307Y44648
X39307Y41781
X39624Y30670
X46736Y30670
X46736Y59180
X54864Y59242
X54864Y30732
X62230Y59180
X62230Y30670
X69850Y59180
X69850Y52576
X69850Y47496
X69850Y41908
X69850Y30670
X69912Y36828
X762Y89150
X762Y82800
X762Y77720
X762Y71878
X762Y66798
X762Y60702
X3810Y69592
X5080Y70862
X6858Y89150
X7366Y60702
X8890Y75942
X10668Y75942
X12192Y60702
X12700Y85086
X12700Y81022
X12700Y76450
X14732Y63496
X14732Y67052
X14970Y77720
X14981Y80769
X14986Y89150
X14986Y85086
X17272Y60702
X17780Y89150
X18796Y67052
X18796Y63496
X22352Y60702
X22606Y66036
X22860Y68830
X22860Y74418
X25654Y89150
X25654Y68830
X25654Y66036
X25654Y60702
X32004Y75880
X32512Y89150
X33020Y75180
X34290Y60640
X39116Y89150
X39307Y74618
X39307Y71751
X39624Y60640
X46736Y60640
X46736Y89150
X54864Y89212
X54864Y60702
X62230Y89150
X62230Y60640
X69850Y89150
X69850Y82546
X69850Y77466
X69850Y71878
X69850Y60640
X69912Y66798
X762Y119120
X762Y112770
X762Y107690
X762Y101848
X762Y96768
X762Y90672
X3810Y99562
X5080Y100832
X6858Y119120
X7366Y90672
X8890Y105912
X10668Y105912
X12192Y90672
X12700Y115056
X12700Y110992
X12700Y106420
X14732Y93466
X14732Y97022
X14970Y107690
X14981Y110739
X14986Y119120
X14986Y115056
X17272Y90672
X17780Y119120
X18796Y97022
X18796Y93466
X22352Y90672
X22606Y96006
X22860Y98800
X22860Y104388
X25654Y119120
X25654Y98800
X25654Y96006
X25654Y90672
X32004Y105850
X32512Y119120
X33020Y105150
X34290Y90610
X39116Y119120
X39307Y104588
X39307Y101721
X39624Y90610
X46736Y90610
X46736Y119120
X54864Y119182
X54864Y90672
X62230Y119120
X62230Y90610
X69850Y119120
X69850Y112516
X69850Y107436
X69850Y101848
X69850Y90610
X69912Y96768
X762Y149090
X762Y142740
X762Y137660
X762Y131818
X762Y126738
X762Y120642
X3810Y129532
X5080Y130802
X6858Y149090
X7366Y120642
X8890Y135882
X10668Y135882
X12192Y120642
X12700Y145026
X12700Y140962
X12700Y136390
X14732Y123436
X14732Y126992
X14970Y137660
X14981Y140709
X14986Y149090
X14986Y145026
X17272Y120642
X17780Y149090
X18796Y126992
X18796Y123436
X22352Y120642
X22606Y125976
X22860Y128770
X22860Y134358
X25654Y149090
X25654Y128770
X25654Y125976
X25654Y120642
X32004Y135820
X32512Y149090
X33020Y135120
X34290Y120580
X39116Y149090
X39307Y134558
X39307Y131691
X39624Y120580
X46736Y120580
X46736Y149090
X54864Y149152
X54864Y120642
X62230Y149090
X62230Y120580
X69850Y149090
X69850Y142486
X69850Y137406
X69850Y131818
X69850Y120580
X69912Y126738
M30
