G04 #@! TF.GenerationSoftware,KiCad,Pcbnew,(2017-02-05 revision 431abcf)-makepkg*
G04 #@! TF.CreationDate,2017-06-05T07:43:53+02:00*
G04 #@! TF.ProjectId,DIG4SWHI01A,44494734535748493031412E6B696361,rev?*
G04 #@! TF.FileFunction,Copper,L1,Top,Signal*
G04 #@! TF.FilePolarity,Positive*
%FSLAX46Y46*%
G04 Gerber Fmt 4.6, Leading zero omitted, Abs format (unit mm)*
G04 Created by KiCad (PCBNEW (2017-02-05 revision 431abcf)-makepkg) date 06/05/17 07:43:53*
%MOMM*%
%LPD*%
G01*
G04 APERTURE LIST*
%ADD10C,1.300000*%
%ADD11C,0.500000*%
%ADD12R,1.524000X1.524000*%
%ADD13C,6.000000*%
%ADD14R,3.810000X3.810000*%
%ADD15C,0.800000*%
%ADD16C,0.250000*%
%ADD17C,0.300000*%
%ADD18C,0.254000*%
G04 APERTURE END LIST*
D10*
D11*
X24927000Y22630000D03*
X24927000Y23630000D03*
X24927000Y24630000D03*
X24927000Y25630000D03*
X26127000Y25630000D03*
X26127000Y24630000D03*
X26127000Y23630000D03*
X26127000Y22630000D03*
D12*
X30734000Y34417000D03*
X30734000Y36957000D03*
D13*
X5080000Y5080000D03*
X45720000Y5080000D03*
X45720000Y35560000D03*
X5080000Y35560000D03*
D12*
X18034000Y34417000D03*
X18034000Y36957000D03*
X23114000Y36957000D03*
X23114000Y34417000D03*
X35814000Y34417000D03*
X35814000Y36957000D03*
X28194000Y36957000D03*
X28194000Y34417000D03*
X33274000Y36957000D03*
X33274000Y34417000D03*
X25654000Y34417000D03*
X25654000Y36957000D03*
X15367000Y34417000D03*
X15367000Y36957000D03*
X20574000Y36957000D03*
X20574000Y34417000D03*
X3175000Y11430000D03*
X3175000Y13970000D03*
D14*
X23114000Y10922000D03*
X23114000Y5922000D03*
X18034000Y5922000D03*
X18034000Y10922000D03*
X5287000Y21590000D03*
X10287000Y21590000D03*
X5287000Y26543000D03*
X10287000Y26543000D03*
X40386000Y26543000D03*
X45386000Y26543000D03*
X40386000Y21590000D03*
X45386000Y21590000D03*
X13081000Y5922000D03*
X13081000Y10922000D03*
X28194000Y10922000D03*
X28194000Y5922000D03*
X33274000Y5922000D03*
X33274000Y10922000D03*
X38354000Y10922000D03*
X38354000Y5922000D03*
D15*
X24638000Y27432000D03*
X23622000Y27432000D03*
X24130000Y28702000D03*
X22860000Y28702000D03*
X37592000Y30734000D03*
X37592000Y32004000D03*
X37592000Y33020000D03*
X37592000Y34036000D03*
X37592000Y35052000D03*
X37592000Y36068000D03*
X11684000Y38354000D03*
X10414000Y38354000D03*
X9144000Y38354000D03*
X9144000Y37084000D03*
X9144000Y35814000D03*
X9144000Y34544000D03*
X9144000Y33274000D03*
X9144000Y32004000D03*
X10414000Y8382000D03*
X10414000Y9906000D03*
X10414000Y11176000D03*
X9906000Y12700000D03*
X41148000Y9144000D03*
X41148000Y10414000D03*
X41148000Y11684000D03*
X41402000Y12954000D03*
X29210000Y19050000D03*
X40386000Y13970000D03*
X39116000Y13970000D03*
X38100000Y13970000D03*
X37084000Y13970000D03*
X35814000Y13970000D03*
X34544000Y13970000D03*
X33274000Y13970000D03*
X32004000Y13970000D03*
X30734000Y13970000D03*
X29464000Y13970000D03*
X28194000Y13970000D03*
X15875000Y13969998D03*
X14732000Y13969994D03*
X19431000Y13970000D03*
X18161000Y13970000D03*
X17018000Y13970000D03*
X13716000Y13970000D03*
X12446000Y13970000D03*
X11176000Y13970000D03*
X19044814Y24250777D03*
X18669000Y24892000D03*
X25654000Y17526000D03*
X24892000Y20574000D03*
X25908000Y21590000D03*
X24892000Y21590000D03*
X48514000Y18669000D03*
X13208000Y17145000D03*
X8890000Y30353000D03*
X32893000Y23637987D03*
X33401000Y18669000D03*
X30734000Y30988000D03*
X20828000Y25273006D03*
X23114000Y30988000D03*
X31959985Y25506802D03*
X35814000Y30988000D03*
X31877000Y23240998D03*
X28194000Y30988000D03*
X32639000Y24765000D03*
X33274000Y30988000D03*
X25654000Y30988000D03*
X30787228Y22630000D03*
X15367000Y30988000D03*
X16510000Y24130000D03*
X20447000Y30988006D03*
X19685000Y25019000D03*
X18034000Y30988000D03*
X17526000Y24638000D03*
D16*
X23622000Y27432000D02*
X24638000Y27432000D01*
X22860000Y28702000D02*
X24130000Y28702000D01*
X37592000Y32004000D02*
X37592000Y30734000D01*
X37592000Y34036000D02*
X37592000Y33020000D01*
X37592000Y36068000D02*
X37592000Y35052000D01*
X10414000Y38354000D02*
X11684000Y38354000D01*
X9144000Y37084000D02*
X9144000Y38354000D01*
X9144000Y34544000D02*
X9144000Y35814000D01*
X9144000Y32004000D02*
X9144000Y33274000D01*
X10414000Y9906000D02*
X10414000Y8382000D01*
X9906000Y12700000D02*
X9906000Y11684000D01*
X9906000Y11684000D02*
X10414000Y11176000D01*
X41148000Y10414000D02*
X41148000Y9144000D01*
X41402000Y12954000D02*
X41402000Y11938000D01*
X41402000Y11938000D02*
X41148000Y11684000D01*
X39116000Y13970000D02*
X40386000Y13970000D01*
X37084000Y13970000D02*
X38100000Y13970000D01*
X34544000Y13970000D02*
X35814000Y13970000D01*
X32004000Y13970000D02*
X33274000Y13970000D01*
X29464000Y13970000D02*
X30734000Y13970000D01*
X28194000Y10922000D02*
X28194000Y13970000D01*
X15874996Y13969994D02*
X15875000Y13969998D01*
X14732000Y13969994D02*
X15874996Y13969994D01*
X17018000Y13970000D02*
X18161000Y13970000D01*
X12446000Y13970000D02*
X13716000Y13970000D01*
X13081000Y10922000D02*
X13081000Y13077000D01*
X13081000Y13077000D02*
X12188000Y13970000D01*
X12188000Y13970000D02*
X11176000Y13970000D01*
D17*
X18669000Y24892000D02*
X18669000Y24626591D01*
X18669000Y24626591D02*
X19044814Y24250777D01*
X26219685Y17526000D02*
X25654000Y17526000D01*
X47371000Y17526000D02*
X26219685Y17526000D01*
X48514000Y18669000D02*
X47371000Y17526000D01*
D16*
X24892000Y21590000D02*
X25908000Y21590000D01*
D17*
X7747000Y17399000D02*
X8001000Y17145000D01*
X8001000Y17145000D02*
X13208000Y17145000D01*
X7747000Y29210000D02*
X7747000Y17399000D01*
X8890000Y30353000D02*
X7747000Y29210000D01*
X32175994Y24118002D02*
X32656009Y23637987D01*
X33401000Y23129987D02*
X33292999Y23237988D01*
X33292999Y23237988D02*
X32893000Y23637987D01*
X33401000Y18669000D02*
X33401000Y23129987D01*
X32656009Y23637987D02*
X32893000Y23637987D01*
X30334001Y25309243D02*
X31525242Y24118002D01*
X31525242Y24118002D02*
X32175994Y24118002D01*
X30734000Y30988000D02*
X30334001Y30588001D01*
X30334001Y30588001D02*
X30334001Y25309243D01*
X20828000Y25838691D02*
X20828000Y25273006D01*
X20828000Y28702000D02*
X20828000Y25838691D01*
X23114000Y30988000D02*
X20828000Y28702000D01*
X35814000Y29360817D02*
X32359984Y25906801D01*
X35814000Y30988000D02*
X35814000Y29360817D01*
X32359984Y25906801D02*
X31959985Y25506802D01*
X28194000Y30988000D02*
X28194000Y26742122D01*
X31695124Y23240998D02*
X31877000Y23240998D01*
X28194000Y26742122D02*
X31695124Y23240998D01*
X32073315Y24765000D02*
X32639000Y24765000D01*
X31712366Y24638000D02*
X31946315Y24638000D01*
X31946315Y24638000D02*
X32073315Y24765000D01*
X33274000Y30988000D02*
X31209975Y28923975D01*
X31209975Y28923975D02*
X31209975Y25140391D01*
X31209975Y25140391D02*
X31712366Y24638000D01*
X30787228Y23441772D02*
X25654000Y28575000D01*
X25654000Y28575000D02*
X25654000Y30988000D01*
X30787228Y22630000D02*
X30787228Y23441772D01*
X15367000Y30422315D02*
X15367000Y30988000D01*
X15367000Y25273000D02*
X15367000Y30422315D01*
X16510000Y24130000D02*
X15367000Y25273000D01*
X19685000Y30226006D02*
X20047001Y30588007D01*
X19685000Y25019000D02*
X19685000Y30226006D01*
X20047001Y30588007D02*
X20447000Y30988006D01*
X17634001Y30588001D02*
X18034000Y30988000D01*
X17526000Y30480000D02*
X17634001Y30588001D01*
X17526000Y24638000D02*
X17526000Y30480000D01*
D18*
G36*
X49836000Y964000D02*
X964000Y964000D01*
X964000Y12827000D01*
X20561560Y12827000D01*
X20561560Y9017000D01*
X20610843Y8769235D01*
X20751191Y8559191D01*
X20956510Y8422000D01*
X20751191Y8284809D01*
X20610843Y8074765D01*
X20561560Y7827000D01*
X20561560Y4017000D01*
X20610843Y3769235D01*
X20751191Y3559191D01*
X20961235Y3418843D01*
X21209000Y3369560D01*
X25019000Y3369560D01*
X25266765Y3418843D01*
X25476809Y3559191D01*
X25617157Y3769235D01*
X25666440Y4017000D01*
X25666440Y7827000D01*
X25617157Y8074765D01*
X25476809Y8284809D01*
X25271490Y8422000D01*
X25476809Y8559191D01*
X25617157Y8769235D01*
X25666440Y9017000D01*
X25666440Y12827000D01*
X25617157Y13074765D01*
X25476809Y13284809D01*
X25266765Y13425157D01*
X25019000Y13474440D01*
X21209000Y13474440D01*
X20961235Y13425157D01*
X20751191Y13284809D01*
X20610843Y13074765D01*
X20561560Y12827000D01*
X964000Y12827000D01*
X964000Y28448000D01*
X2734560Y28448000D01*
X2734560Y24638000D01*
X2783843Y24390235D01*
X2924191Y24180191D01*
X3094340Y24066500D01*
X2924191Y23952809D01*
X2783843Y23742765D01*
X2734560Y23495000D01*
X2734560Y19685000D01*
X2783843Y19437235D01*
X2924191Y19227191D01*
X3134235Y19086843D01*
X3382000Y19037560D01*
X6962000Y19037560D01*
X6962000Y17399000D01*
X7021755Y17098593D01*
X7191921Y16843921D01*
X7445921Y16589921D01*
X7700593Y16419755D01*
X8001000Y16360000D01*
X12529195Y16360000D01*
X12620954Y16268081D01*
X13001223Y16110180D01*
X13412971Y16109821D01*
X13793515Y16267058D01*
X14084919Y16557954D01*
X14242820Y16938223D01*
X14243179Y17349971D01*
X14085942Y17730515D01*
X13795046Y18021919D01*
X13414777Y18179820D01*
X13003029Y18180179D01*
X12622485Y18022942D01*
X12529381Y17930000D01*
X8532000Y17930000D01*
X8532000Y19037560D01*
X12192000Y19037560D01*
X12439765Y19086843D01*
X12649809Y19227191D01*
X12790157Y19437235D01*
X12839440Y19685000D01*
X12839440Y23495000D01*
X12790157Y23742765D01*
X12649809Y23952809D01*
X12479660Y24066500D01*
X12649809Y24180191D01*
X12790157Y24390235D01*
X12839440Y24638000D01*
X12839440Y28448000D01*
X12790157Y28695765D01*
X12649809Y28905809D01*
X12439765Y29046157D01*
X12192000Y29095440D01*
X8742598Y29095440D01*
X8965092Y29317934D01*
X9094971Y29317821D01*
X9475515Y29475058D01*
X9766919Y29765954D01*
X9924820Y30146223D01*
X9925179Y30557971D01*
X9832188Y30783029D01*
X14331821Y30783029D01*
X14489058Y30402485D01*
X14582000Y30309381D01*
X14582000Y25273000D01*
X14641755Y24972593D01*
X14811921Y24717921D01*
X15474934Y24054908D01*
X15474821Y23925029D01*
X15632058Y23544485D01*
X15922954Y23253081D01*
X16303223Y23095180D01*
X16714971Y23094821D01*
X17095515Y23252058D01*
X17386919Y23542954D01*
X17411893Y23603099D01*
X17730971Y23602821D01*
X18111515Y23760058D01*
X18402919Y24050954D01*
X18560820Y24431223D01*
X18561179Y24842971D01*
X18403942Y25223515D01*
X18311000Y25316619D01*
X18311000Y29982583D01*
X18619515Y30110058D01*
X18910919Y30400954D01*
X18956758Y30511348D01*
X18941158Y30432921D01*
X18900000Y30226006D01*
X18900000Y25697805D01*
X18808081Y25606046D01*
X18650180Y25225777D01*
X18649821Y24814029D01*
X18807058Y24433485D01*
X19097954Y24142081D01*
X19478223Y23984180D01*
X19889971Y23983821D01*
X20270515Y24141058D01*
X20442256Y24312499D01*
X20621223Y24238186D01*
X21032971Y24237827D01*
X21413515Y24395064D01*
X21704919Y24685960D01*
X21862820Y25066229D01*
X21863179Y25477977D01*
X21705942Y25858521D01*
X21613000Y25951625D01*
X21613000Y26162000D01*
X23749000Y26162000D01*
X23749000Y20066000D01*
X23797336Y19822996D01*
X23934987Y19616987D01*
X24140996Y19479336D01*
X24384000Y19431000D01*
X26670000Y19431000D01*
X26913004Y19479336D01*
X27119013Y19616987D01*
X27256664Y19822996D01*
X27305000Y20066000D01*
X27305000Y25813842D01*
X29907811Y23211031D01*
X29752408Y22836777D01*
X29752049Y22425029D01*
X29909286Y22044485D01*
X30200182Y21753081D01*
X30580451Y21595180D01*
X30992199Y21594821D01*
X31372743Y21752058D01*
X31664147Y22042954D01*
X31731901Y22206124D01*
X32081971Y22205819D01*
X32462515Y22363056D01*
X32616000Y22516273D01*
X32616000Y19347805D01*
X32524081Y19256046D01*
X32366180Y18875777D01*
X32365821Y18464029D01*
X32429051Y18311000D01*
X26332805Y18311000D01*
X26241046Y18402919D01*
X25860777Y18560820D01*
X25449029Y18561179D01*
X25068485Y18403942D01*
X24777081Y18113046D01*
X24619180Y17732777D01*
X24618821Y17321029D01*
X24776058Y16940485D01*
X25066954Y16649081D01*
X25447223Y16491180D01*
X25858971Y16490821D01*
X26239515Y16648058D01*
X26332619Y16741000D01*
X47371000Y16741000D01*
X47671407Y16800755D01*
X47926079Y16970921D01*
X48589092Y17633934D01*
X48718971Y17633821D01*
X49099515Y17791058D01*
X49390919Y18081954D01*
X49548820Y18462223D01*
X49549179Y18873971D01*
X49391942Y19254515D01*
X49101046Y19545919D01*
X48720777Y19703820D01*
X48309029Y19704179D01*
X47928485Y19546942D01*
X47906642Y19525137D01*
X47938440Y19685000D01*
X47938440Y23495000D01*
X47889157Y23742765D01*
X47748809Y23952809D01*
X47578660Y24066500D01*
X47748809Y24180191D01*
X47889157Y24390235D01*
X47938440Y24638000D01*
X47938440Y28448000D01*
X47889157Y28695765D01*
X47748809Y28905809D01*
X47538765Y29046157D01*
X47291000Y29095440D01*
X43481000Y29095440D01*
X43233235Y29046157D01*
X43023191Y28905809D01*
X42886000Y28700490D01*
X42748809Y28905809D01*
X42538765Y29046157D01*
X42291000Y29095440D01*
X38481000Y29095440D01*
X38233235Y29046157D01*
X38023191Y28905809D01*
X37882843Y28695765D01*
X37833560Y28448000D01*
X37833560Y24638000D01*
X37882843Y24390235D01*
X38023191Y24180191D01*
X38193340Y24066500D01*
X38023191Y23952809D01*
X37882843Y23742765D01*
X37833560Y23495000D01*
X37833560Y19685000D01*
X37882843Y19437235D01*
X38023191Y19227191D01*
X38233235Y19086843D01*
X38481000Y19037560D01*
X42291000Y19037560D01*
X42538765Y19086843D01*
X42748809Y19227191D01*
X42886000Y19432510D01*
X43023191Y19227191D01*
X43233235Y19086843D01*
X43481000Y19037560D01*
X47291000Y19037560D01*
X47538765Y19086843D01*
X47577596Y19112789D01*
X47479180Y18875777D01*
X47479065Y18744223D01*
X47045842Y18311000D01*
X34373027Y18311000D01*
X34435820Y18462223D01*
X34436179Y18873971D01*
X34278942Y19254515D01*
X34186000Y19347619D01*
X34186000Y23129987D01*
X34126245Y23430393D01*
X33956079Y23685066D01*
X33956076Y23685068D01*
X33928066Y23713079D01*
X33928179Y23842958D01*
X33770942Y24223502D01*
X33604193Y24390542D01*
X33673820Y24558223D01*
X33674179Y24969971D01*
X33516942Y25350515D01*
X33226046Y25641919D01*
X33211359Y25648018D01*
X36369079Y28805738D01*
X36539245Y29060410D01*
X36599000Y29360817D01*
X36599000Y30309195D01*
X36690919Y30400954D01*
X36848820Y30781223D01*
X36849179Y31192971D01*
X36691942Y31573515D01*
X36401046Y31864919D01*
X36020777Y32022820D01*
X35609029Y32023179D01*
X35228485Y31865942D01*
X34937081Y31575046D01*
X34779180Y31194777D01*
X34778821Y30783029D01*
X34936058Y30402485D01*
X35029000Y30309381D01*
X35029000Y29685975D01*
X31994975Y26651950D01*
X31994975Y28598817D01*
X33349092Y29952934D01*
X33478971Y29952821D01*
X33859515Y30110058D01*
X34150919Y30400954D01*
X34308820Y30781223D01*
X34309179Y31192971D01*
X34151942Y31573515D01*
X33861046Y31864919D01*
X33480777Y32022820D01*
X33069029Y32023179D01*
X32688485Y31865942D01*
X32397081Y31575046D01*
X32239180Y31194777D01*
X32239065Y31063223D01*
X31635149Y30459307D01*
X31768820Y30781223D01*
X31769179Y31192971D01*
X31611942Y31573515D01*
X31321046Y31864919D01*
X30940777Y32022820D01*
X30529029Y32023179D01*
X30148485Y31865942D01*
X29857081Y31575046D01*
X29699180Y31194777D01*
X29699031Y31023514D01*
X29608756Y30888408D01*
X29587408Y30781085D01*
X29549001Y30588001D01*
X29549001Y26497279D01*
X28979000Y27067280D01*
X28979000Y30309195D01*
X29070919Y30400954D01*
X29228820Y30781223D01*
X29229179Y31192971D01*
X29071942Y31573515D01*
X28781046Y31864919D01*
X28400777Y32022820D01*
X27989029Y32023179D01*
X27608485Y31865942D01*
X27317081Y31575046D01*
X27159180Y31194777D01*
X27158821Y30783029D01*
X27316058Y30402485D01*
X27409000Y30309381D01*
X27409000Y27930158D01*
X26439000Y28900158D01*
X26439000Y30309195D01*
X26530919Y30400954D01*
X26688820Y30781223D01*
X26689179Y31192971D01*
X26531942Y31573515D01*
X26241046Y31864919D01*
X25860777Y32022820D01*
X25449029Y32023179D01*
X25068485Y31865942D01*
X24777081Y31575046D01*
X24619180Y31194777D01*
X24618821Y30783029D01*
X24776058Y30402485D01*
X24869000Y30309381D01*
X24869000Y28575000D01*
X24928755Y28274593D01*
X25098921Y28019921D01*
X26321842Y26797000D01*
X24384000Y26797000D01*
X24140996Y26748664D01*
X23934987Y26611013D01*
X23797336Y26405004D01*
X23749000Y26162000D01*
X21613000Y26162000D01*
X21613000Y28376842D01*
X23189092Y29952934D01*
X23318971Y29952821D01*
X23699515Y30110058D01*
X23990919Y30400954D01*
X24148820Y30781223D01*
X24149179Y31192971D01*
X23991942Y31573515D01*
X23701046Y31864919D01*
X23320777Y32022820D01*
X22909029Y32023179D01*
X22528485Y31865942D01*
X22237081Y31575046D01*
X22079180Y31194777D01*
X22079065Y31063223D01*
X20470000Y29454158D01*
X20470000Y29900848D01*
X20522092Y29952940D01*
X20651971Y29952827D01*
X21032515Y30110064D01*
X21323919Y30400960D01*
X21481820Y30781229D01*
X21482179Y31192977D01*
X21324942Y31573521D01*
X21034046Y31864925D01*
X20653777Y32022826D01*
X20242029Y32023185D01*
X19861485Y31865948D01*
X19570081Y31575052D01*
X19412180Y31194783D01*
X19412065Y31063229D01*
X19129921Y30781085D01*
X18968364Y30539297D01*
X19068820Y30781223D01*
X19069179Y31192971D01*
X18911942Y31573515D01*
X18621046Y31864919D01*
X18240777Y32022820D01*
X17829029Y32023179D01*
X17448485Y31865942D01*
X17157081Y31575046D01*
X16999180Y31194777D01*
X16999065Y31063223D01*
X16970921Y31035079D01*
X16800755Y30780407D01*
X16750232Y30526413D01*
X16741000Y30480000D01*
X16741000Y25316805D01*
X16649081Y25225046D01*
X16624107Y25164901D01*
X16585223Y25164935D01*
X16152000Y25598158D01*
X16152000Y30309195D01*
X16243919Y30400954D01*
X16401820Y30781223D01*
X16402179Y31192971D01*
X16244942Y31573515D01*
X15954046Y31864919D01*
X15573777Y32022820D01*
X15162029Y32023179D01*
X14781485Y31865942D01*
X14490081Y31575046D01*
X14332180Y31194777D01*
X14331821Y30783029D01*
X9832188Y30783029D01*
X9767942Y30938515D01*
X9477046Y31229919D01*
X9096777Y31387820D01*
X8685029Y31388179D01*
X8304485Y31230942D01*
X8013081Y30940046D01*
X7855180Y30559777D01*
X7855065Y30428223D01*
X7191921Y29765079D01*
X7021755Y29510407D01*
X6983447Y29317821D01*
X6962000Y29210000D01*
X6962000Y29095440D01*
X3382000Y29095440D01*
X3134235Y29046157D01*
X2924191Y28905809D01*
X2783843Y28695765D01*
X2734560Y28448000D01*
X964000Y28448000D01*
X964000Y37719000D01*
X13957560Y37719000D01*
X13957560Y36195000D01*
X14006843Y35947235D01*
X14147191Y35737191D01*
X14222307Y35687000D01*
X14147191Y35636809D01*
X14006843Y35426765D01*
X13957560Y35179000D01*
X13957560Y33655000D01*
X14006843Y33407235D01*
X14147191Y33197191D01*
X14357235Y33056843D01*
X14605000Y33007560D01*
X16129000Y33007560D01*
X16376765Y33056843D01*
X16586809Y33197191D01*
X16700500Y33367340D01*
X16814191Y33197191D01*
X17024235Y33056843D01*
X17272000Y33007560D01*
X18796000Y33007560D01*
X19043765Y33056843D01*
X19253809Y33197191D01*
X19304000Y33272307D01*
X19354191Y33197191D01*
X19564235Y33056843D01*
X19812000Y33007560D01*
X21336000Y33007560D01*
X21583765Y33056843D01*
X21793809Y33197191D01*
X21844000Y33272307D01*
X21894191Y33197191D01*
X22104235Y33056843D01*
X22352000Y33007560D01*
X23876000Y33007560D01*
X24123765Y33056843D01*
X24333809Y33197191D01*
X24384000Y33272307D01*
X24434191Y33197191D01*
X24644235Y33056843D01*
X24892000Y33007560D01*
X26416000Y33007560D01*
X26663765Y33056843D01*
X26873809Y33197191D01*
X26924000Y33272307D01*
X26974191Y33197191D01*
X27184235Y33056843D01*
X27432000Y33007560D01*
X28956000Y33007560D01*
X29203765Y33056843D01*
X29413809Y33197191D01*
X29464000Y33272307D01*
X29514191Y33197191D01*
X29724235Y33056843D01*
X29972000Y33007560D01*
X31496000Y33007560D01*
X31743765Y33056843D01*
X31953809Y33197191D01*
X32004000Y33272307D01*
X32054191Y33197191D01*
X32264235Y33056843D01*
X32512000Y33007560D01*
X34036000Y33007560D01*
X34283765Y33056843D01*
X34493809Y33197191D01*
X34544000Y33272307D01*
X34594191Y33197191D01*
X34804235Y33056843D01*
X35052000Y33007560D01*
X36576000Y33007560D01*
X36823765Y33056843D01*
X37033809Y33197191D01*
X37174157Y33407235D01*
X37223440Y33655000D01*
X37223440Y35179000D01*
X37174157Y35426765D01*
X37033809Y35636809D01*
X36958693Y35687000D01*
X37033809Y35737191D01*
X37174157Y35947235D01*
X37223440Y36195000D01*
X37223440Y37719000D01*
X37174157Y37966765D01*
X37033809Y38176809D01*
X36823765Y38317157D01*
X36576000Y38366440D01*
X35052000Y38366440D01*
X34804235Y38317157D01*
X34594191Y38176809D01*
X34544000Y38101693D01*
X34493809Y38176809D01*
X34283765Y38317157D01*
X34036000Y38366440D01*
X32512000Y38366440D01*
X32264235Y38317157D01*
X32054191Y38176809D01*
X32004000Y38101693D01*
X31953809Y38176809D01*
X31743765Y38317157D01*
X31496000Y38366440D01*
X29972000Y38366440D01*
X29724235Y38317157D01*
X29514191Y38176809D01*
X29464000Y38101693D01*
X29413809Y38176809D01*
X29203765Y38317157D01*
X28956000Y38366440D01*
X27432000Y38366440D01*
X27184235Y38317157D01*
X26974191Y38176809D01*
X26924000Y38101693D01*
X26873809Y38176809D01*
X26663765Y38317157D01*
X26416000Y38366440D01*
X24892000Y38366440D01*
X24644235Y38317157D01*
X24434191Y38176809D01*
X24384000Y38101693D01*
X24333809Y38176809D01*
X24123765Y38317157D01*
X23876000Y38366440D01*
X22352000Y38366440D01*
X22104235Y38317157D01*
X21894191Y38176809D01*
X21844000Y38101693D01*
X21793809Y38176809D01*
X21583765Y38317157D01*
X21336000Y38366440D01*
X19812000Y38366440D01*
X19564235Y38317157D01*
X19354191Y38176809D01*
X19304000Y38101693D01*
X19253809Y38176809D01*
X19043765Y38317157D01*
X18796000Y38366440D01*
X17272000Y38366440D01*
X17024235Y38317157D01*
X16814191Y38176809D01*
X16700500Y38006660D01*
X16586809Y38176809D01*
X16376765Y38317157D01*
X16129000Y38366440D01*
X14605000Y38366440D01*
X14357235Y38317157D01*
X14147191Y38176809D01*
X14006843Y37966765D01*
X13957560Y37719000D01*
X964000Y37719000D01*
X964000Y39676000D01*
X49836000Y39676000D01*
X49836000Y964000D01*
X49836000Y964000D01*
G37*
X49836000Y964000D02*
X964000Y964000D01*
X964000Y12827000D01*
X20561560Y12827000D01*
X20561560Y9017000D01*
X20610843Y8769235D01*
X20751191Y8559191D01*
X20956510Y8422000D01*
X20751191Y8284809D01*
X20610843Y8074765D01*
X20561560Y7827000D01*
X20561560Y4017000D01*
X20610843Y3769235D01*
X20751191Y3559191D01*
X20961235Y3418843D01*
X21209000Y3369560D01*
X25019000Y3369560D01*
X25266765Y3418843D01*
X25476809Y3559191D01*
X25617157Y3769235D01*
X25666440Y4017000D01*
X25666440Y7827000D01*
X25617157Y8074765D01*
X25476809Y8284809D01*
X25271490Y8422000D01*
X25476809Y8559191D01*
X25617157Y8769235D01*
X25666440Y9017000D01*
X25666440Y12827000D01*
X25617157Y13074765D01*
X25476809Y13284809D01*
X25266765Y13425157D01*
X25019000Y13474440D01*
X21209000Y13474440D01*
X20961235Y13425157D01*
X20751191Y13284809D01*
X20610843Y13074765D01*
X20561560Y12827000D01*
X964000Y12827000D01*
X964000Y28448000D01*
X2734560Y28448000D01*
X2734560Y24638000D01*
X2783843Y24390235D01*
X2924191Y24180191D01*
X3094340Y24066500D01*
X2924191Y23952809D01*
X2783843Y23742765D01*
X2734560Y23495000D01*
X2734560Y19685000D01*
X2783843Y19437235D01*
X2924191Y19227191D01*
X3134235Y19086843D01*
X3382000Y19037560D01*
X6962000Y19037560D01*
X6962000Y17399000D01*
X7021755Y17098593D01*
X7191921Y16843921D01*
X7445921Y16589921D01*
X7700593Y16419755D01*
X8001000Y16360000D01*
X12529195Y16360000D01*
X12620954Y16268081D01*
X13001223Y16110180D01*
X13412971Y16109821D01*
X13793515Y16267058D01*
X14084919Y16557954D01*
X14242820Y16938223D01*
X14243179Y17349971D01*
X14085942Y17730515D01*
X13795046Y18021919D01*
X13414777Y18179820D01*
X13003029Y18180179D01*
X12622485Y18022942D01*
X12529381Y17930000D01*
X8532000Y17930000D01*
X8532000Y19037560D01*
X12192000Y19037560D01*
X12439765Y19086843D01*
X12649809Y19227191D01*
X12790157Y19437235D01*
X12839440Y19685000D01*
X12839440Y23495000D01*
X12790157Y23742765D01*
X12649809Y23952809D01*
X12479660Y24066500D01*
X12649809Y24180191D01*
X12790157Y24390235D01*
X12839440Y24638000D01*
X12839440Y28448000D01*
X12790157Y28695765D01*
X12649809Y28905809D01*
X12439765Y29046157D01*
X12192000Y29095440D01*
X8742598Y29095440D01*
X8965092Y29317934D01*
X9094971Y29317821D01*
X9475515Y29475058D01*
X9766919Y29765954D01*
X9924820Y30146223D01*
X9925179Y30557971D01*
X9832188Y30783029D01*
X14331821Y30783029D01*
X14489058Y30402485D01*
X14582000Y30309381D01*
X14582000Y25273000D01*
X14641755Y24972593D01*
X14811921Y24717921D01*
X15474934Y24054908D01*
X15474821Y23925029D01*
X15632058Y23544485D01*
X15922954Y23253081D01*
X16303223Y23095180D01*
X16714971Y23094821D01*
X17095515Y23252058D01*
X17386919Y23542954D01*
X17411893Y23603099D01*
X17730971Y23602821D01*
X18111515Y23760058D01*
X18402919Y24050954D01*
X18560820Y24431223D01*
X18561179Y24842971D01*
X18403942Y25223515D01*
X18311000Y25316619D01*
X18311000Y29982583D01*
X18619515Y30110058D01*
X18910919Y30400954D01*
X18956758Y30511348D01*
X18941158Y30432921D01*
X18900000Y30226006D01*
X18900000Y25697805D01*
X18808081Y25606046D01*
X18650180Y25225777D01*
X18649821Y24814029D01*
X18807058Y24433485D01*
X19097954Y24142081D01*
X19478223Y23984180D01*
X19889971Y23983821D01*
X20270515Y24141058D01*
X20442256Y24312499D01*
X20621223Y24238186D01*
X21032971Y24237827D01*
X21413515Y24395064D01*
X21704919Y24685960D01*
X21862820Y25066229D01*
X21863179Y25477977D01*
X21705942Y25858521D01*
X21613000Y25951625D01*
X21613000Y26162000D01*
X23749000Y26162000D01*
X23749000Y20066000D01*
X23797336Y19822996D01*
X23934987Y19616987D01*
X24140996Y19479336D01*
X24384000Y19431000D01*
X26670000Y19431000D01*
X26913004Y19479336D01*
X27119013Y19616987D01*
X27256664Y19822996D01*
X27305000Y20066000D01*
X27305000Y25813842D01*
X29907811Y23211031D01*
X29752408Y22836777D01*
X29752049Y22425029D01*
X29909286Y22044485D01*
X30200182Y21753081D01*
X30580451Y21595180D01*
X30992199Y21594821D01*
X31372743Y21752058D01*
X31664147Y22042954D01*
X31731901Y22206124D01*
X32081971Y22205819D01*
X32462515Y22363056D01*
X32616000Y22516273D01*
X32616000Y19347805D01*
X32524081Y19256046D01*
X32366180Y18875777D01*
X32365821Y18464029D01*
X32429051Y18311000D01*
X26332805Y18311000D01*
X26241046Y18402919D01*
X25860777Y18560820D01*
X25449029Y18561179D01*
X25068485Y18403942D01*
X24777081Y18113046D01*
X24619180Y17732777D01*
X24618821Y17321029D01*
X24776058Y16940485D01*
X25066954Y16649081D01*
X25447223Y16491180D01*
X25858971Y16490821D01*
X26239515Y16648058D01*
X26332619Y16741000D01*
X47371000Y16741000D01*
X47671407Y16800755D01*
X47926079Y16970921D01*
X48589092Y17633934D01*
X48718971Y17633821D01*
X49099515Y17791058D01*
X49390919Y18081954D01*
X49548820Y18462223D01*
X49549179Y18873971D01*
X49391942Y19254515D01*
X49101046Y19545919D01*
X48720777Y19703820D01*
X48309029Y19704179D01*
X47928485Y19546942D01*
X47906642Y19525137D01*
X47938440Y19685000D01*
X47938440Y23495000D01*
X47889157Y23742765D01*
X47748809Y23952809D01*
X47578660Y24066500D01*
X47748809Y24180191D01*
X47889157Y24390235D01*
X47938440Y24638000D01*
X47938440Y28448000D01*
X47889157Y28695765D01*
X47748809Y28905809D01*
X47538765Y29046157D01*
X47291000Y29095440D01*
X43481000Y29095440D01*
X43233235Y29046157D01*
X43023191Y28905809D01*
X42886000Y28700490D01*
X42748809Y28905809D01*
X42538765Y29046157D01*
X42291000Y29095440D01*
X38481000Y29095440D01*
X38233235Y29046157D01*
X38023191Y28905809D01*
X37882843Y28695765D01*
X37833560Y28448000D01*
X37833560Y24638000D01*
X37882843Y24390235D01*
X38023191Y24180191D01*
X38193340Y24066500D01*
X38023191Y23952809D01*
X37882843Y23742765D01*
X37833560Y23495000D01*
X37833560Y19685000D01*
X37882843Y19437235D01*
X38023191Y19227191D01*
X38233235Y19086843D01*
X38481000Y19037560D01*
X42291000Y19037560D01*
X42538765Y19086843D01*
X42748809Y19227191D01*
X42886000Y19432510D01*
X43023191Y19227191D01*
X43233235Y19086843D01*
X43481000Y19037560D01*
X47291000Y19037560D01*
X47538765Y19086843D01*
X47577596Y19112789D01*
X47479180Y18875777D01*
X47479065Y18744223D01*
X47045842Y18311000D01*
X34373027Y18311000D01*
X34435820Y18462223D01*
X34436179Y18873971D01*
X34278942Y19254515D01*
X34186000Y19347619D01*
X34186000Y23129987D01*
X34126245Y23430393D01*
X33956079Y23685066D01*
X33956076Y23685068D01*
X33928066Y23713079D01*
X33928179Y23842958D01*
X33770942Y24223502D01*
X33604193Y24390542D01*
X33673820Y24558223D01*
X33674179Y24969971D01*
X33516942Y25350515D01*
X33226046Y25641919D01*
X33211359Y25648018D01*
X36369079Y28805738D01*
X36539245Y29060410D01*
X36599000Y29360817D01*
X36599000Y30309195D01*
X36690919Y30400954D01*
X36848820Y30781223D01*
X36849179Y31192971D01*
X36691942Y31573515D01*
X36401046Y31864919D01*
X36020777Y32022820D01*
X35609029Y32023179D01*
X35228485Y31865942D01*
X34937081Y31575046D01*
X34779180Y31194777D01*
X34778821Y30783029D01*
X34936058Y30402485D01*
X35029000Y30309381D01*
X35029000Y29685975D01*
X31994975Y26651950D01*
X31994975Y28598817D01*
X33349092Y29952934D01*
X33478971Y29952821D01*
X33859515Y30110058D01*
X34150919Y30400954D01*
X34308820Y30781223D01*
X34309179Y31192971D01*
X34151942Y31573515D01*
X33861046Y31864919D01*
X33480777Y32022820D01*
X33069029Y32023179D01*
X32688485Y31865942D01*
X32397081Y31575046D01*
X32239180Y31194777D01*
X32239065Y31063223D01*
X31635149Y30459307D01*
X31768820Y30781223D01*
X31769179Y31192971D01*
X31611942Y31573515D01*
X31321046Y31864919D01*
X30940777Y32022820D01*
X30529029Y32023179D01*
X30148485Y31865942D01*
X29857081Y31575046D01*
X29699180Y31194777D01*
X29699031Y31023514D01*
X29608756Y30888408D01*
X29587408Y30781085D01*
X29549001Y30588001D01*
X29549001Y26497279D01*
X28979000Y27067280D01*
X28979000Y30309195D01*
X29070919Y30400954D01*
X29228820Y30781223D01*
X29229179Y31192971D01*
X29071942Y31573515D01*
X28781046Y31864919D01*
X28400777Y32022820D01*
X27989029Y32023179D01*
X27608485Y31865942D01*
X27317081Y31575046D01*
X27159180Y31194777D01*
X27158821Y30783029D01*
X27316058Y30402485D01*
X27409000Y30309381D01*
X27409000Y27930158D01*
X26439000Y28900158D01*
X26439000Y30309195D01*
X26530919Y30400954D01*
X26688820Y30781223D01*
X26689179Y31192971D01*
X26531942Y31573515D01*
X26241046Y31864919D01*
X25860777Y32022820D01*
X25449029Y32023179D01*
X25068485Y31865942D01*
X24777081Y31575046D01*
X24619180Y31194777D01*
X24618821Y30783029D01*
X24776058Y30402485D01*
X24869000Y30309381D01*
X24869000Y28575000D01*
X24928755Y28274593D01*
X25098921Y28019921D01*
X26321842Y26797000D01*
X24384000Y26797000D01*
X24140996Y26748664D01*
X23934987Y26611013D01*
X23797336Y26405004D01*
X23749000Y26162000D01*
X21613000Y26162000D01*
X21613000Y28376842D01*
X23189092Y29952934D01*
X23318971Y29952821D01*
X23699515Y30110058D01*
X23990919Y30400954D01*
X24148820Y30781223D01*
X24149179Y31192971D01*
X23991942Y31573515D01*
X23701046Y31864919D01*
X23320777Y32022820D01*
X22909029Y32023179D01*
X22528485Y31865942D01*
X22237081Y31575046D01*
X22079180Y31194777D01*
X22079065Y31063223D01*
X20470000Y29454158D01*
X20470000Y29900848D01*
X20522092Y29952940D01*
X20651971Y29952827D01*
X21032515Y30110064D01*
X21323919Y30400960D01*
X21481820Y30781229D01*
X21482179Y31192977D01*
X21324942Y31573521D01*
X21034046Y31864925D01*
X20653777Y32022826D01*
X20242029Y32023185D01*
X19861485Y31865948D01*
X19570081Y31575052D01*
X19412180Y31194783D01*
X19412065Y31063229D01*
X19129921Y30781085D01*
X18968364Y30539297D01*
X19068820Y30781223D01*
X19069179Y31192971D01*
X18911942Y31573515D01*
X18621046Y31864919D01*
X18240777Y32022820D01*
X17829029Y32023179D01*
X17448485Y31865942D01*
X17157081Y31575046D01*
X16999180Y31194777D01*
X16999065Y31063223D01*
X16970921Y31035079D01*
X16800755Y30780407D01*
X16750232Y30526413D01*
X16741000Y30480000D01*
X16741000Y25316805D01*
X16649081Y25225046D01*
X16624107Y25164901D01*
X16585223Y25164935D01*
X16152000Y25598158D01*
X16152000Y30309195D01*
X16243919Y30400954D01*
X16401820Y30781223D01*
X16402179Y31192971D01*
X16244942Y31573515D01*
X15954046Y31864919D01*
X15573777Y32022820D01*
X15162029Y32023179D01*
X14781485Y31865942D01*
X14490081Y31575046D01*
X14332180Y31194777D01*
X14331821Y30783029D01*
X9832188Y30783029D01*
X9767942Y30938515D01*
X9477046Y31229919D01*
X9096777Y31387820D01*
X8685029Y31388179D01*
X8304485Y31230942D01*
X8013081Y30940046D01*
X7855180Y30559777D01*
X7855065Y30428223D01*
X7191921Y29765079D01*
X7021755Y29510407D01*
X6983447Y29317821D01*
X6962000Y29210000D01*
X6962000Y29095440D01*
X3382000Y29095440D01*
X3134235Y29046157D01*
X2924191Y28905809D01*
X2783843Y28695765D01*
X2734560Y28448000D01*
X964000Y28448000D01*
X964000Y37719000D01*
X13957560Y37719000D01*
X13957560Y36195000D01*
X14006843Y35947235D01*
X14147191Y35737191D01*
X14222307Y35687000D01*
X14147191Y35636809D01*
X14006843Y35426765D01*
X13957560Y35179000D01*
X13957560Y33655000D01*
X14006843Y33407235D01*
X14147191Y33197191D01*
X14357235Y33056843D01*
X14605000Y33007560D01*
X16129000Y33007560D01*
X16376765Y33056843D01*
X16586809Y33197191D01*
X16700500Y33367340D01*
X16814191Y33197191D01*
X17024235Y33056843D01*
X17272000Y33007560D01*
X18796000Y33007560D01*
X19043765Y33056843D01*
X19253809Y33197191D01*
X19304000Y33272307D01*
X19354191Y33197191D01*
X19564235Y33056843D01*
X19812000Y33007560D01*
X21336000Y33007560D01*
X21583765Y33056843D01*
X21793809Y33197191D01*
X21844000Y33272307D01*
X21894191Y33197191D01*
X22104235Y33056843D01*
X22352000Y33007560D01*
X23876000Y33007560D01*
X24123765Y33056843D01*
X24333809Y33197191D01*
X24384000Y33272307D01*
X24434191Y33197191D01*
X24644235Y33056843D01*
X24892000Y33007560D01*
X26416000Y33007560D01*
X26663765Y33056843D01*
X26873809Y33197191D01*
X26924000Y33272307D01*
X26974191Y33197191D01*
X27184235Y33056843D01*
X27432000Y33007560D01*
X28956000Y33007560D01*
X29203765Y33056843D01*
X29413809Y33197191D01*
X29464000Y33272307D01*
X29514191Y33197191D01*
X29724235Y33056843D01*
X29972000Y33007560D01*
X31496000Y33007560D01*
X31743765Y33056843D01*
X31953809Y33197191D01*
X32004000Y33272307D01*
X32054191Y33197191D01*
X32264235Y33056843D01*
X32512000Y33007560D01*
X34036000Y33007560D01*
X34283765Y33056843D01*
X34493809Y33197191D01*
X34544000Y33272307D01*
X34594191Y33197191D01*
X34804235Y33056843D01*
X35052000Y33007560D01*
X36576000Y33007560D01*
X36823765Y33056843D01*
X37033809Y33197191D01*
X37174157Y33407235D01*
X37223440Y33655000D01*
X37223440Y35179000D01*
X37174157Y35426765D01*
X37033809Y35636809D01*
X36958693Y35687000D01*
X37033809Y35737191D01*
X37174157Y35947235D01*
X37223440Y36195000D01*
X37223440Y37719000D01*
X37174157Y37966765D01*
X37033809Y38176809D01*
X36823765Y38317157D01*
X36576000Y38366440D01*
X35052000Y38366440D01*
X34804235Y38317157D01*
X34594191Y38176809D01*
X34544000Y38101693D01*
X34493809Y38176809D01*
X34283765Y38317157D01*
X34036000Y38366440D01*
X32512000Y38366440D01*
X32264235Y38317157D01*
X32054191Y38176809D01*
X32004000Y38101693D01*
X31953809Y38176809D01*
X31743765Y38317157D01*
X31496000Y38366440D01*
X29972000Y38366440D01*
X29724235Y38317157D01*
X29514191Y38176809D01*
X29464000Y38101693D01*
X29413809Y38176809D01*
X29203765Y38317157D01*
X28956000Y38366440D01*
X27432000Y38366440D01*
X27184235Y38317157D01*
X26974191Y38176809D01*
X26924000Y38101693D01*
X26873809Y38176809D01*
X26663765Y38317157D01*
X26416000Y38366440D01*
X24892000Y38366440D01*
X24644235Y38317157D01*
X24434191Y38176809D01*
X24384000Y38101693D01*
X24333809Y38176809D01*
X24123765Y38317157D01*
X23876000Y38366440D01*
X22352000Y38366440D01*
X22104235Y38317157D01*
X21894191Y38176809D01*
X21844000Y38101693D01*
X21793809Y38176809D01*
X21583765Y38317157D01*
X21336000Y38366440D01*
X19812000Y38366440D01*
X19564235Y38317157D01*
X19354191Y38176809D01*
X19304000Y38101693D01*
X19253809Y38176809D01*
X19043765Y38317157D01*
X18796000Y38366440D01*
X17272000Y38366440D01*
X17024235Y38317157D01*
X16814191Y38176809D01*
X16700500Y38006660D01*
X16586809Y38176809D01*
X16376765Y38317157D01*
X16129000Y38366440D01*
X14605000Y38366440D01*
X14357235Y38317157D01*
X14147191Y38176809D01*
X14006843Y37966765D01*
X13957560Y37719000D01*
X964000Y37719000D01*
X964000Y39676000D01*
X49836000Y39676000D01*
X49836000Y964000D01*
G36*
X26543000Y20193000D02*
X24511000Y20193000D01*
X24511000Y26035000D01*
X26543000Y26035000D01*
X26543000Y20193000D01*
X26543000Y20193000D01*
G37*
X26543000Y20193000D02*
X24511000Y20193000D01*
X24511000Y26035000D01*
X26543000Y26035000D01*
X26543000Y20193000D01*
M02*
