M48
METRIC,000.000             
%
T01C0.300000
X20686Y42246
X21386Y15946
X25186Y42246
X28186Y42246
X29086Y37996
X29086Y36746
X29186Y27746
X29486Y14146
X29886Y38196
X30186Y17846
X30386Y30046
X30386Y28046
X30886Y38346
X31686Y37996
X31786Y26946
X32286Y25546
X32586Y26546
X33186Y42246
X33386Y35046
X34386Y14646
X35186Y31046
X35186Y30046
X35386Y15346
X35586Y38446
X36086Y42246
X36186Y35946
X36486Y19246
X36686Y34046
X37186Y24546
X37686Y38846
X38336Y33946
X38586Y19246
X38686Y39746
X39186Y38846
X39186Y33946
X40686Y24796
X41686Y38846
X43686Y26296
X44486Y28446
X44586Y30246
X44686Y32546
X44686Y25546
X44786Y33446
X46686Y28046
X47286Y33746
X49286Y33846
X49486Y32546
X49486Y29546
X52236Y41796
X52986Y32496
X52986Y30646
X55886Y31446
X57386Y27646
X58986Y26046
X20686Y92536
X21386Y66236
X25186Y92536
X28186Y92536
X29086Y88286
X29086Y87036
X29186Y78036
X29486Y64436
X29886Y88486
X30186Y68136
X30386Y80336
X30386Y78336
X30886Y88636
X31686Y88286
X31786Y77236
X32286Y75836
X32586Y76836
X33186Y92536
X33386Y85336
X34386Y64936
X35186Y81336
X35186Y80336
X35386Y65636
X35586Y88736
X36086Y92536
X36186Y86236
X36486Y69536
X36686Y84336
X37186Y74836
X37686Y89136
X38336Y84236
X38586Y69536
X38686Y90036
X39186Y89136
X39186Y84236
X40686Y75086
X41686Y89136
X43686Y76586
X44486Y78736
X44586Y80536
X44686Y82836
X44686Y75836
X44786Y83736
X46686Y78336
X47286Y84036
X49286Y84136
X49486Y82836
X49486Y79836
X52236Y92086
X52986Y82786
X52986Y80936
X55886Y81736
X57386Y77936
X58986Y76336
X20686Y142826
X21386Y116526
X25186Y142826
X28186Y142826
X29086Y138576
X29086Y137326
X29186Y128326
X29486Y114726
X29886Y138776
X30186Y118426
X30386Y130626
X30386Y128626
X30886Y138926
X31686Y138576
X31786Y127526
X32286Y126126
X32586Y127126
X33186Y142826
X33386Y135626
X34386Y115226
X35186Y131626
X35186Y130626
X35386Y115926
X35586Y139026
X36086Y142826
X36186Y136526
X36486Y119826
X36686Y134626
X37186Y125126
X37686Y139426
X38336Y134526
X38586Y119826
X38686Y140326
X39186Y139426
X39186Y134526
X40686Y125376
X41686Y139426
X43686Y126876
X44486Y129026
X44586Y130826
X44686Y133126
X44686Y126126
X44786Y134026
X46686Y128626
X47286Y134326
X49286Y134426
X49486Y133126
X49486Y130126
X52236Y142376
X52986Y133076
X52986Y131226
X55886Y132026
X57386Y128226
X58986Y126626
T02C0.400000
X7686Y19646
X14186Y20446
X14186Y14146
X15436Y14146
X16686Y14146
X17986Y14096
X29086Y19546
X29786Y13046
X29786Y9746
X33386Y20446
X33386Y16246
X34786Y41446
X36886Y22046
X37686Y19746
X42286Y6246
X43586Y6246
X44786Y6246
X46086Y6246
X58286Y5146
X60486Y6046
X60486Y3646
X60586Y47546
X60586Y45146
X60586Y42046
X60586Y39146
X60586Y36046
X60586Y33146
X60586Y30046
X60586Y27146
X60586Y24046
X60586Y21146
X60586Y18046
X60586Y15146
X60586Y12046
X60586Y9146
X62186Y47546
X62186Y3646
X62886Y20346
X63686Y33646
X63686Y32046
X63686Y30746
X63686Y29146
X63686Y27546
X64186Y42146
X64386Y20346
X65286Y47546
X65286Y3746
X65686Y6946
X66986Y39646
X67086Y18546
X67086Y17046
X67086Y15546
X67186Y6946
X67686Y26146
X67886Y13346
X67886Y11746
X68186Y47546
X68186Y3746
X68686Y6946
X68886Y31046
X68886Y29446
X69186Y39646
X69686Y30246
X70186Y33846
X70486Y31046
X70486Y29446
X70986Y33146
X71286Y47546
X71286Y3746
X71586Y20846
X71786Y19246
X71886Y36446
X72886Y26846
X72886Y25346
X72886Y23846
X72886Y22346
X72969Y12883
X72969Y12008
X73186Y5346
X73386Y35546
X73844Y12883
X73844Y12008
X74186Y47546
X74186Y3746
X74386Y14846
X75386Y5346
X75486Y18746
X75486Y17246
X75486Y15746
X75986Y23446
X77286Y47546
X77286Y3746
X77786Y35646
X77786Y32646
X78386Y29546
X78386Y28046
X78386Y5346
X78886Y36846
X78886Y31446
X78886Y12546
X78886Y11046
X79186Y24046
X79286Y14646
X80186Y47546
X80186Y3746
X80486Y5346
X81686Y36846
X81886Y31346
X82086Y25446
X82086Y22646
X82586Y19246
X82586Y10146
X82786Y35646
X82786Y32946
X83286Y47546
X83286Y25446
X83286Y22646
X83286Y3746
X83486Y31246
X83486Y12446
X84386Y22646
X84486Y25446
X84786Y17746
X85686Y22446
X86186Y47546
X86186Y3746
X86686Y26246
X87086Y22446
X87586Y17746
X89086Y17746
X89286Y47546
X89286Y3646
X90886Y47546
X90886Y45146
X90886Y42046
X90886Y39146
X90886Y36046
X90886Y33146
X90886Y30046
X90886Y27146
X90886Y24046
X90886Y21146
X90886Y18046
X90886Y15146
X90886Y12046
X90886Y9146
X90886Y6046
X90886Y3646
X7686Y69936
X14186Y70736
X14186Y64436
X15436Y64436
X16686Y64436
X17986Y64386
X29086Y69836
X29786Y63336
X29786Y60036
X33386Y70736
X33386Y66536
X34786Y91736
X36886Y72336
X37686Y70036
X42286Y56536
X43586Y56536
X44786Y56536
X46086Y56536
X58286Y55436
X60486Y56336
X60486Y53936
X60586Y97836
X60586Y95436
X60586Y92336
X60586Y89436
X60586Y86336
X60586Y83436
X60586Y80336
X60586Y77436
X60586Y74336
X60586Y71436
X60586Y68336
X60586Y65436
X60586Y62336
X60586Y59436
X62186Y97836
X62186Y53936
X62886Y70636
X63686Y83936
X63686Y82336
X63686Y81036
X63686Y79436
X63686Y77836
X64186Y92436
X64386Y70636
X65286Y97836
X65286Y54036
X65686Y57236
X66986Y89936
X67086Y68836
X67086Y67336
X67086Y65836
X67186Y57236
X67686Y76436
X67886Y63636
X67886Y62036
X68186Y97836
X68186Y54036
X68686Y57236
X68886Y81336
X68886Y79736
X69186Y89936
X69686Y80536
X70186Y84136
X70486Y81336
X70486Y79736
X70986Y83436
X71286Y97836
X71286Y54036
X71586Y71136
X71786Y69536
X71886Y86736
X72886Y77136
X72886Y75636
X72886Y74136
X72886Y72636
X72969Y63173
X72969Y62298
X73186Y55636
X73386Y85836
X73844Y63173
X73844Y62298
X74186Y97836
X74186Y54036
X74386Y65136
X75386Y55636
X75486Y69036
X75486Y67536
X75486Y66036
X75986Y73736
X77286Y97836
X77286Y54036
X77786Y85936
X77786Y82936
X78386Y79836
X78386Y78336
X78386Y55636
X78886Y87136
X78886Y81736
X78886Y62836
X78886Y61336
X79186Y74336
X79286Y64936
X80186Y97836
X80186Y54036
X80486Y55636
X81686Y87136
X81886Y81636
X82086Y75736
X82086Y72936
X82586Y69536
X82586Y60436
X82786Y85936
X82786Y83236
X83286Y97836
X83286Y75736
X83286Y72936
X83286Y54036
X83486Y81536
X83486Y62736
X84386Y72936
X84486Y75736
X84786Y68036
X85686Y72736
X86186Y97836
X86186Y54036
X86686Y76536
X87086Y72736
X87586Y68036
X89086Y68036
X89286Y97836
X89286Y53936
X90886Y97836
X90886Y95436
X90886Y92336
X90886Y89436
X90886Y86336
X90886Y83436
X90886Y80336
X90886Y77436
X90886Y74336
X90886Y71436
X90886Y68336
X90886Y65436
X90886Y62336
X90886Y59436
X90886Y56336
X90886Y53936
X7686Y120226
X14186Y121026
X14186Y114726
X15436Y114726
X16686Y114726
X17986Y114676
X29086Y120126
X29786Y113626
X29786Y110326
X33386Y121026
X33386Y116826
X34786Y142026
X36886Y122626
X37686Y120326
X42286Y106826
X43586Y106826
X44786Y106826
X46086Y106826
X58286Y105726
X60486Y106626
X60486Y104226
X60586Y148126
X60586Y145726
X60586Y142626
X60586Y139726
X60586Y136626
X60586Y133726
X60586Y130626
X60586Y127726
X60586Y124626
X60586Y121726
X60586Y118626
X60586Y115726
X60586Y112626
X60586Y109726
X62186Y148126
X62186Y104226
X62886Y120926
X63686Y134226
X63686Y132626
X63686Y131326
X63686Y129726
X63686Y128126
X64186Y142726
X64386Y120926
X65286Y148126
X65286Y104326
X65686Y107526
X66986Y140226
X67086Y119126
X67086Y117626
X67086Y116126
X67186Y107526
X67686Y126726
X67886Y113926
X67886Y112326
X68186Y148126
X68186Y104326
X68686Y107526
X68886Y131626
X68886Y130026
X69186Y140226
X69686Y130826
X70186Y134426
X70486Y131626
X70486Y130026
X70986Y133726
X71286Y148126
X71286Y104326
X71586Y121426
X71786Y119826
X71886Y137026
X72886Y127426
X72886Y125926
X72886Y124426
X72886Y122926
X72969Y113463
X72969Y112588
X73186Y105926
X73386Y136126
X73844Y113463
X73844Y112588
X74186Y148126
X74186Y104326
X74386Y115426
X75386Y105926
X75486Y119326
X75486Y117826
X75486Y116326
X75986Y124026
X77286Y148126
X77286Y104326
X77786Y136226
X77786Y133226
X78386Y130126
X78386Y128626
X78386Y105926
X78886Y137426
X78886Y132026
X78886Y113126
X78886Y111626
X79186Y124626
X79286Y115226
X80186Y148126
X80186Y104326
X80486Y105926
X81686Y137426
X81886Y131926
X82086Y126026
X82086Y123226
X82586Y119826
X82586Y110726
X82786Y136226
X82786Y133526
X83286Y148126
X83286Y126026
X83286Y123226
X83286Y104326
X83486Y131826
X83486Y113026
X84386Y123226
X84486Y126026
X84786Y118326
X85686Y123026
X86186Y148126
X86186Y104326
X86686Y126826
X87086Y123026
X87586Y118326
X89086Y118326
X89286Y148126
X89286Y104226
X90886Y148126
X90886Y145726
X90886Y142626
X90886Y139726
X90886Y136626
X90886Y133726
X90886Y130626
X90886Y127726
X90886Y124626
X90886Y121726
X90886Y118626
X90886Y115726
X90886Y112626
X90886Y109726
X90886Y106626
X90886Y104226
T03C0.600000
X62586Y11146
X69686Y19946
X77986Y20146
X62586Y61436
X69686Y70236
X77986Y70436
X62586Y111726
X69686Y120526
X77986Y120726
T04C0.800000
X3986Y33846
X5286Y27146
X8486Y16446
X9286Y33846
X9586Y12446
X14586Y33846
X14586Y27446
X19886Y33846
X33586Y7946
X33686Y9846
X38886Y9846
X49486Y7846
X54486Y7846
X3986Y84136
X5286Y77436
X8486Y66736
X9286Y84136
X9586Y62736
X14586Y84136
X14586Y77736
X19886Y84136
X33586Y58236
X33686Y60136
X38886Y60136
X49486Y58136
X54486Y58136
X3986Y134426
X5286Y127726
X8486Y117026
X9286Y134426
X9586Y113026
X14586Y134426
X14586Y128026
X19886Y134426
X33586Y108526
X33686Y110426
X38886Y110426
X49486Y108426
X54486Y108426
T05C1.016000
X2286Y25146
X2286Y22606
X2286Y20066
X2286Y17526
X2286Y14986
X2286Y12446
X12446Y48006
X12446Y45466
X12446Y2286
X14986Y48006
X14986Y45466
X14986Y2286
X17526Y48006
X17526Y45466
X17526Y2286
X20066Y48006
X20066Y45466
X20066Y2286
X22606Y48006
X22606Y45466
X22606Y2286
X24416Y37076
X24416Y34536
X24416Y31996
X24416Y29456
X24416Y26916
X24416Y24376
X24416Y21836
X24416Y19296
X24416Y16756
X24416Y14216
X25146Y48006
X25146Y45466
X25146Y2286
X26956Y37076
X26956Y34536
X26956Y31996
X26956Y29456
X26956Y26916
X26956Y24376
X26956Y21836
X26956Y19296
X26956Y16756
X26956Y14216
X27686Y48006
X27686Y45466
X27686Y2286
X30226Y48006
X30226Y45466
X30226Y2286
X32766Y48006
X32766Y45466
X32766Y2286
X35306Y48006
X35306Y45466
X35306Y2286
X42926Y45466
X42926Y2286
X45466Y45466
X45466Y2286
X48006Y45466
X48006Y2286
X50546Y45466
X50546Y2286
X53086Y45466
X53086Y2286
X55626Y45466
X55626Y2286
X2286Y75436
X2286Y72896
X2286Y70356
X2286Y67816
X2286Y65276
X2286Y62736
X12446Y98296
X12446Y95756
X12446Y52576
X14986Y98296
X14986Y95756
X14986Y52576
X17526Y98296
X17526Y95756
X17526Y52576
X20066Y98296
X20066Y95756
X20066Y52576
X22606Y98296
X22606Y95756
X22606Y52576
X24416Y87366
X24416Y84826
X24416Y82286
X24416Y79746
X24416Y77206
X24416Y74666
X24416Y72126
X24416Y69586
X24416Y67046
X24416Y64506
X25146Y98296
X25146Y95756
X25146Y52576
X26956Y87366
X26956Y84826
X26956Y82286
X26956Y79746
X26956Y77206
X26956Y74666
X26956Y72126
X26956Y69586
X26956Y67046
X26956Y64506
X27686Y98296
X27686Y95756
X27686Y52576
X30226Y98296
X30226Y95756
X30226Y52576
X32766Y98296
X32766Y95756
X32766Y52576
X35306Y98296
X35306Y95756
X35306Y52576
X42926Y95756
X42926Y52576
X45466Y95756
X45466Y52576
X48006Y95756
X48006Y52576
X50546Y95756
X50546Y52576
X53086Y95756
X53086Y52576
X55626Y95756
X55626Y52576
X2286Y125726
X2286Y123186
X2286Y120646
X2286Y118106
X2286Y115566
X2286Y113026
X12446Y148586
X12446Y146046
X12446Y102866
X14986Y148586
X14986Y146046
X14986Y102866
X17526Y148586
X17526Y146046
X17526Y102866
X20066Y148586
X20066Y146046
X20066Y102866
X22606Y148586
X22606Y146046
X22606Y102866
X24416Y137656
X24416Y135116
X24416Y132576
X24416Y130036
X24416Y127496
X24416Y124956
X24416Y122416
X24416Y119876
X24416Y117336
X24416Y114796
X25146Y148586
X25146Y146046
X25146Y102866
X26956Y137656
X26956Y135116
X26956Y132576
X26956Y130036
X26956Y127496
X26956Y124956
X26956Y122416
X26956Y119876
X26956Y117336
X26956Y114796
X27686Y148586
X27686Y146046
X27686Y102866
X30226Y148586
X30226Y146046
X30226Y102866
X32766Y148586
X32766Y146046
X32766Y102866
X35306Y148586
X35306Y146046
X35306Y102866
X42926Y146046
X42926Y102866
X45466Y146046
X45466Y102866
X48006Y146046
X48006Y102866
X50546Y146046
X50546Y102866
X53086Y146046
X53086Y102866
X55626Y146046
X55626Y102866
T06C1.700000
X96266Y37211
X96266Y14986
X96266Y87501
X96266Y65276
X96266Y137791
X96266Y115566
T07C1.900000
X93726Y39751
X93726Y34671
X93726Y17526
X93726Y12446
X98806Y39751
X98806Y34671
X98806Y17526
X98806Y12446
X93726Y90041
X93726Y84961
X93726Y67816
X93726Y62736
X98806Y90041
X98806Y84961
X98806Y67816
X98806Y62736
X93726Y140331
X93726Y135251
X93726Y118106
X93726Y113026
X98806Y140331
X98806Y135251
X98806Y118106
X98806Y113026
T08C2.200000
X16686Y39646
X16686Y9646
X86686Y39646
X86686Y9646
X16686Y89936
X16686Y59936
X86686Y89936
X86686Y59936
X16686Y140226
X16686Y110226
X86686Y140226
X86686Y110226
T09C3.200000
X4826Y45466
X4826Y4826
X96266Y45466
X96266Y4826
X4826Y95756
X4826Y55116
X96266Y95756
X96266Y55116
X4826Y146046
X4826Y105406
X96266Y146046
X96266Y105406
M30
