G75*
G71*
%MOMM*%
%OFA0B0*%
%FSLAX53Y53*%
%IPPOS*%
%LPD*%
%ADD14R,2.40000X1.60000*%
%ADD19C,0.15000*%
%ADD22C,5.40000*%
%ADD24R,1.92400X1.92400*%
%ADD26R,2.40000X7.40000*%
%ADD27R,4.40000X2.40000*%
X0000000Y0000000D02*
%LPD*%
G01*
D19*
G36*
X0000000Y0003980D02*
X0024746Y0003980D01*
X-000254Y0003980D02*
G37*
X0000000Y0003980D02*
X0024746Y0003980D01*
X-000254Y0003980D02*
G36*
X0019431Y0000000D02*
X0019431Y0036746D01*
X0019431Y0037000D02*
G37*
X0019431Y0000000D02*
X0019431Y0036746D01*
X0019431Y0037000D02*
G36*
X0000000Y0033190D02*
X0024746Y0033190D01*
X-000254Y0033190D02*
G37*
X0000000Y0033190D02*
X0024746Y0033190D01*
X-000254Y0033190D02*
G36*
X0004826Y0000000D02*
X0004826Y0036746D01*
X0004826Y-000465D02*
G37*
X0004826Y0000000D02*
X0004826Y0036746D01*
X0004826Y-000465D02*
D26*
X0016256Y0032040D03*
X0011176Y0032040D03*
D27*
X0002286Y0028110D03*
X0002286Y0025570D03*
D24*
X0008001Y0001440D03*
X0005461Y0001440D03*
X0002921Y0001440D03*
X0023241Y0007155D03*
X0023241Y0004615D03*
X0023241Y0002075D03*
X0023241Y0030015D03*
X0023241Y0032555D03*
X0023241Y0035095D03*
X0000000Y0036746D02*
%LPD*%
G01*
D19*
G36*
X0000000Y0040726D02*
X0024746Y0040726D01*
X-000254Y0040726D02*
G37*
X0000000Y0040726D02*
X0024746Y0040726D01*
X-000254Y0040726D02*
G36*
X0019431Y0036746D02*
X0019431Y0073492D01*
X0019431Y0073746D02*
G37*
X0019431Y0036746D02*
X0019431Y0073492D01*
X0019431Y0073746D02*
G36*
X0000000Y0069936D02*
X0024746Y0069936D01*
X-000254Y0069936D02*
G37*
X0000000Y0069936D02*
X0024746Y0069936D01*
X-000254Y0069936D02*
G36*
X0004826Y0036746D02*
X0004826Y0073492D01*
X0004826Y0036281D02*
G37*
X0004826Y0036746D02*
X0004826Y0073492D01*
X0004826Y0036281D02*
D26*
X0016256Y0068786D03*
X0011176Y0068786D03*
D27*
X0002286Y0064856D03*
X0002286Y0062316D03*
D24*
X0008001Y0038186D03*
X0005461Y0038186D03*
X0002921Y0038186D03*
X0023241Y0043901D03*
X0023241Y0041361D03*
X0023241Y0038821D03*
X0023241Y0066761D03*
X0023241Y0069301D03*
X0023241Y0071841D03*
X0000000Y0073492D02*
%LPD*%
G01*
D19*
G36*
X0000000Y0077472D02*
X0024746Y0077472D01*
X-000254Y0077472D02*
G37*
X0000000Y0077472D02*
X0024746Y0077472D01*
X-000254Y0077472D02*
G36*
X0019431Y0073492D02*
X0019431Y0110238D01*
X0019431Y0110492D02*
G37*
X0019431Y0073492D02*
X0019431Y0110238D01*
X0019431Y0110492D02*
G36*
X0000000Y0106682D02*
X0024746Y0106682D01*
X-000254Y0106682D02*
G37*
X0000000Y0106682D02*
X0024746Y0106682D01*
X-000254Y0106682D02*
G36*
X0004826Y0073492D02*
X0004826Y0110238D01*
X0004826Y0073027D02*
G37*
X0004826Y0073492D02*
X0004826Y0110238D01*
X0004826Y0073027D02*
D26*
X0016256Y0105532D03*
X0011176Y0105532D03*
D27*
X0002286Y0101602D03*
X0002286Y0099062D03*
D24*
X0008001Y0074932D03*
X0005461Y0074932D03*
X0002921Y0074932D03*
X0023241Y0080647D03*
X0023241Y0078107D03*
X0023241Y0075567D03*
X0023241Y0103507D03*
X0023241Y0106047D03*
X0023241Y0108587D03*
X0000000Y0110238D02*
%LPD*%
G01*
D19*
G36*
X0000000Y0114218D02*
X0024746Y0114218D01*
X-000254Y0114218D02*
G37*
X0000000Y0114218D02*
X0024746Y0114218D01*
X-000254Y0114218D02*
G36*
X0019431Y0110238D02*
X0019431Y0146984D01*
X0019431Y0147238D02*
G37*
X0019431Y0110238D02*
X0019431Y0146984D01*
X0019431Y0147238D02*
G36*
X0000000Y0143428D02*
X0024746Y0143428D01*
X-000254Y0143428D02*
G37*
X0000000Y0143428D02*
X0024746Y0143428D01*
X-000254Y0143428D02*
G36*
X0004826Y0110238D02*
X0004826Y0146984D01*
X0004826Y0109773D02*
G37*
X0004826Y0110238D02*
X0004826Y0146984D01*
X0004826Y0109773D02*
D26*
X0016256Y0142278D03*
X0011176Y0142278D03*
D27*
X0002286Y0138348D03*
X0002286Y0135808D03*
D24*
X0008001Y0111678D03*
X0005461Y0111678D03*
X0002921Y0111678D03*
X0023241Y0117393D03*
X0023241Y0114853D03*
X0023241Y0112313D03*
X0023241Y0140253D03*
X0023241Y0142793D03*
X0023241Y0145333D03*
X0024746Y0000000D02*
%LPD*%
G01*
D19*
G36*
X0024746Y0003980D02*
X0049492Y0003980D01*
X0024492Y0003980D02*
G37*
X0024746Y0003980D02*
X0049492Y0003980D01*
X0024492Y0003980D02*
G36*
X0044177Y0000000D02*
X0044177Y0036746D01*
X0044177Y0037000D02*
G37*
X0044177Y0000000D02*
X0044177Y0036746D01*
X0044177Y0037000D02*
G36*
X0024746Y0033190D02*
X0049492Y0033190D01*
X0024492Y0033190D02*
G37*
X0024746Y0033190D02*
X0049492Y0033190D01*
X0024492Y0033190D02*
G36*
G37*
D24*
X0032747Y0001440D03*
X0030207Y0001440D03*
X0027667Y0001440D03*
X0047987Y0007155D03*
X0047987Y0004615D03*
X0047987Y0002075D03*
X0047987Y0030015D03*
X0047987Y0032555D03*
X0047987Y0035095D03*
D22*
X0038462Y0017270D03*
X0024746Y0036746D02*
%LPD*%
G01*
D19*
G36*
X0024746Y0040726D02*
X0049492Y0040726D01*
X0024492Y0040726D02*
G37*
X0024746Y0040726D02*
X0049492Y0040726D01*
X0024492Y0040726D02*
G36*
X0044177Y0036746D02*
X0044177Y0073492D01*
X0044177Y0073746D02*
G37*
X0044177Y0036746D02*
X0044177Y0073492D01*
X0044177Y0073746D02*
G36*
X0024746Y0069936D02*
X0049492Y0069936D01*
X0024492Y0069936D02*
G37*
X0024746Y0069936D02*
X0049492Y0069936D01*
X0024492Y0069936D02*
G36*
G37*
D24*
X0032747Y0038186D03*
X0030207Y0038186D03*
X0027667Y0038186D03*
X0047987Y0043901D03*
X0047987Y0041361D03*
X0047987Y0038821D03*
X0047987Y0066761D03*
X0047987Y0069301D03*
X0047987Y0071841D03*
D22*
X0038462Y0054016D03*
X0024746Y0073492D02*
%LPD*%
G01*
D19*
G36*
X0024746Y0077472D02*
X0049492Y0077472D01*
X0024492Y0077472D02*
G37*
X0024746Y0077472D02*
X0049492Y0077472D01*
X0024492Y0077472D02*
G36*
X0044177Y0073492D02*
X0044177Y0110238D01*
X0044177Y0110492D02*
G37*
X0044177Y0073492D02*
X0044177Y0110238D01*
X0044177Y0110492D02*
G36*
X0024746Y0106682D02*
X0049492Y0106682D01*
X0024492Y0106682D02*
G37*
X0024746Y0106682D02*
X0049492Y0106682D01*
X0024492Y0106682D02*
G36*
G37*
D24*
X0032747Y0074932D03*
X0030207Y0074932D03*
X0027667Y0074932D03*
X0047987Y0080647D03*
X0047987Y0078107D03*
X0047987Y0075567D03*
X0047987Y0103507D03*
X0047987Y0106047D03*
X0047987Y0108587D03*
D22*
X0038462Y0090762D03*
X0024746Y0110238D02*
%LPD*%
G01*
D19*
G36*
X0024746Y0114218D02*
X0049492Y0114218D01*
X0024492Y0114218D02*
G37*
X0024746Y0114218D02*
X0049492Y0114218D01*
X0024492Y0114218D02*
G36*
X0044177Y0110238D02*
X0044177Y0146984D01*
X0044177Y0147238D02*
G37*
X0044177Y0110238D02*
X0044177Y0146984D01*
X0044177Y0147238D02*
G36*
X0024746Y0143428D02*
X0049492Y0143428D01*
X0024492Y0143428D02*
G37*
X0024746Y0143428D02*
X0049492Y0143428D01*
X0024492Y0143428D02*
G36*
G37*
D24*
X0032747Y0111678D03*
X0030207Y0111678D03*
X0027667Y0111678D03*
X0047987Y0117393D03*
X0047987Y0114853D03*
X0047987Y0112313D03*
X0047987Y0140253D03*
X0047987Y0142793D03*
X0047987Y0145333D03*
D22*
X0038462Y0127508D03*
X0049492Y0000000D02*
%LPD*%
G01*
D19*
G36*
G37*
D14*
X0054953Y0023030D03*
X0054953Y0025570D03*
X0049492Y0036746D02*
%LPD*%
G01*
D19*
G36*
G37*
D14*
X0054953Y0059776D03*
X0054953Y0062316D03*
X0049492Y0073492D02*
%LPD*%
G01*
D19*
G36*
G37*
D14*
X0054953Y0096522D03*
X0054953Y0099062D03*
X0049492Y0110238D02*
%LPD*%
G01*
D19*
G36*
G37*
D14*
X0054953Y0133268D03*
X0054953Y0135808D03*
X0060492Y0000000D02*
%LPD*%
G01*
D19*
G36*
G37*
D14*
X0065953Y0023030D03*
X0065953Y0025570D03*
X0060492Y0036746D02*
%LPD*%
G01*
D19*
G36*
G37*
D14*
X0065953Y0059776D03*
X0065953Y0062316D03*
X0060492Y0073492D02*
%LPD*%
G01*
D19*
G36*
G37*
D14*
X0065953Y0096522D03*
X0065953Y0099062D03*
X0060492Y0110238D02*
%LPD*%
G01*
D19*
G36*
G37*
D14*
X0065953Y0133268D03*
X0065953Y0135808D03*
X0071492Y0000000D02*
%LPD*%
G01*
D19*
G36*
G37*
D14*
X0076953Y0023030D03*
X0076953Y0025570D03*
X0071492Y0036746D02*
%LPD*%
G01*
D19*
G36*
G37*
D14*
X0076953Y0059776D03*
X0076953Y0062316D03*
X0071492Y0073492D02*
%LPD*%
G01*
D19*
G36*
G37*
D14*
X0076953Y0096522D03*
X0076953Y0099062D03*
X0071492Y0110238D02*
%LPD*%
G01*
D19*
G36*
G37*
D14*
X0076953Y0133268D03*
X0076953Y0135808D03*
M02*
