G75*
G71*
%MOMM*%
%OFA0B0*%
%FSLAX53Y53*%
%IPPOS*%
%LPD*%
%ADD19C,0.15000*%
%ADD22C,5.40000*%
%ADD24R,1.92400X1.92400*%
X0000000Y0000000D02*
%LPD*%
G01*
D19*
G36*
G37*
D24*
X0008001Y0001440D03*
X0005461Y0001440D03*
X0002921Y0001440D03*
X0023241Y0007155D03*
X0023241Y0004615D03*
X0023241Y0002075D03*
X0023241Y0030015D03*
X0023241Y0032555D03*
X0023241Y0035095D03*
X0000000Y0036746D02*
%LPD*%
G01*
D19*
G36*
G37*
D24*
X0008001Y0038186D03*
X0005461Y0038186D03*
X0002921Y0038186D03*
X0023241Y0043901D03*
X0023241Y0041361D03*
X0023241Y0038821D03*
X0023241Y0066761D03*
X0023241Y0069301D03*
X0023241Y0071841D03*
X0000000Y0073492D02*
%LPD*%
G01*
D19*
G36*
G37*
D24*
X0008001Y0074932D03*
X0005461Y0074932D03*
X0002921Y0074932D03*
X0023241Y0080647D03*
X0023241Y0078107D03*
X0023241Y0075567D03*
X0023241Y0103507D03*
X0023241Y0106047D03*
X0023241Y0108587D03*
X0000000Y0110238D02*
%LPD*%
G01*
D19*
G36*
G37*
D24*
X0008001Y0111678D03*
X0005461Y0111678D03*
X0002921Y0111678D03*
X0023241Y0117393D03*
X0023241Y0114853D03*
X0023241Y0112313D03*
X0023241Y0140253D03*
X0023241Y0142793D03*
X0023241Y0145333D03*
X0024746Y0000000D02*
%LPD*%
G01*
D19*
G36*
G37*
D24*
X0032747Y0001440D03*
X0030207Y0001440D03*
X0027667Y0001440D03*
X0047987Y0007155D03*
X0047987Y0004615D03*
X0047987Y0002075D03*
X0047987Y0030015D03*
X0047987Y0032555D03*
X0047987Y0035095D03*
D22*
X0038462Y0017270D03*
X0024746Y0036746D02*
%LPD*%
G01*
D19*
G36*
G37*
D24*
X0032747Y0038186D03*
X0030207Y0038186D03*
X0027667Y0038186D03*
X0047987Y0043901D03*
X0047987Y0041361D03*
X0047987Y0038821D03*
X0047987Y0066761D03*
X0047987Y0069301D03*
X0047987Y0071841D03*
D22*
X0038462Y0054016D03*
X0024746Y0073492D02*
%LPD*%
G01*
D19*
G36*
G37*
D24*
X0032747Y0074932D03*
X0030207Y0074932D03*
X0027667Y0074932D03*
X0047987Y0080647D03*
X0047987Y0078107D03*
X0047987Y0075567D03*
X0047987Y0103507D03*
X0047987Y0106047D03*
X0047987Y0108587D03*
D22*
X0038462Y0090762D03*
X0024746Y0110238D02*
%LPD*%
G01*
D19*
G36*
G37*
D24*
X0032747Y0111678D03*
X0030207Y0111678D03*
X0027667Y0111678D03*
X0047987Y0117393D03*
X0047987Y0114853D03*
X0047987Y0112313D03*
X0047987Y0140253D03*
X0047987Y0142793D03*
X0047987Y0145333D03*
D22*
X0038462Y0127508D03*
X0049492Y0000000D02*
%LPD*%
G01*
D19*
G36*
G37*
X0049492Y0036746D02*
%LPD*%
G01*
D19*
G36*
G37*
X0049492Y0073492D02*
%LPD*%
G01*
D19*
G36*
G37*
X0049492Y0110238D02*
%LPD*%
G01*
D19*
G36*
G37*
X0060492Y0000000D02*
%LPD*%
G01*
D19*
G36*
G37*
X0060492Y0036746D02*
%LPD*%
G01*
D19*
G36*
G37*
X0060492Y0073492D02*
%LPD*%
G01*
D19*
G36*
G37*
X0060492Y0110238D02*
%LPD*%
G01*
D19*
G36*
G37*
X0071492Y0000000D02*
%LPD*%
G01*
D19*
G36*
G37*
X0071492Y0036746D02*
%LPD*%
G01*
D19*
G36*
G37*
X0071492Y0073492D02*
%LPD*%
G01*
D19*
G36*
G37*
X0071492Y0110238D02*
%LPD*%
G01*
D19*
G36*
G37*
M02*
