G75*
G71*
%MOMM*%
%OFA0B0*%
%FSLAX53Y53*%
%IPPOS*%
%LPD*%
%ADD10C,0.25400*%
%ADD13C,0.25000*%
%ADD15C,0.80000*%
%ADD20R,1.52400X1.52400*%
%ADD25C,5.00000*%
X0000000Y0000000D02*
%LPD*%
G01*
D20*
X0008001Y0001440D03*
X0005461Y0001440D03*
X0002921Y0001440D03*
X0023241Y0007155D03*
X0023241Y0004615D03*
X0023241Y0002075D03*
X0023241Y0030015D03*
X0023241Y0032555D03*
X0023241Y0035095D03*
D15*
X0001016Y0030650D03*
X0001016Y0031920D03*
X0001016Y0033190D03*
X0001016Y0034460D03*
X0001016Y0035730D03*
X0002286Y0035730D03*
X0003556Y0035730D03*
X0004826Y0035730D03*
X0006096Y0035730D03*
X0007366Y0035730D03*
X0008636Y0035730D03*
X0013716Y0035730D03*
X0018796Y0035730D03*
X0020066Y0035730D03*
X0021336Y0035730D03*
X0001016Y0023030D03*
X0001016Y0021760D03*
X0001016Y0020490D03*
X0001016Y0019220D03*
X0001016Y0017950D03*
X0001016Y0016680D03*
X0001016Y0015410D03*
X0001016Y0014140D03*
X0001016Y0012870D03*
X0001016Y0011600D03*
X0001016Y0010330D03*
X0001016Y0009060D03*
X0001016Y0007790D03*
X0001016Y0006520D03*
X0001016Y0005250D03*
X0001016Y0003980D03*
X0001016Y0002710D03*
X0001016Y0000754D03*
X0009906Y0000754D03*
X0011176Y0000754D03*
X0012446Y0000754D03*
X0013716Y0000754D03*
X0014986Y0000754D03*
X0016256Y0000754D03*
X0017526Y0000754D03*
X0018796Y0000754D03*
X0020066Y0000754D03*
X0021336Y0000754D03*
X0023876Y0009060D03*
X0023876Y0010330D03*
X0023876Y0011600D03*
X0023876Y0012870D03*
X0023876Y0014140D03*
X0023876Y0015410D03*
X0023876Y0016680D03*
X0023876Y0017950D03*
X0023876Y0019220D03*
X0023876Y0020490D03*
X0023876Y0021760D03*
X0023876Y0023030D03*
X0023876Y0024300D03*
X0023876Y0025570D03*
X0023876Y0026840D03*
X0023876Y0028110D03*
D13*
X0001016Y0031920D02*
X0001016Y0030650D01*
X0001016Y0034460D02*
X0001016Y0033190D01*
X0002286Y0035730D02*
X0001016Y0035730D01*
X0004826Y0035730D02*
X0003556Y0035730D01*
X0007366Y0035730D02*
X0006096Y0035730D01*
X0013716Y0035730D02*
X0008636Y0035730D01*
X0020066Y0035730D02*
X0018796Y0035730D01*
X0021971Y0035095D02*
X0021336Y0035730D01*
X0023241Y0035095D02*
X0021971Y0035095D01*
X0001016Y0020490D02*
X0001016Y0021760D01*
X0001016Y0017950D02*
X0001016Y0019220D01*
X0001016Y0015410D02*
X0001016Y0016680D01*
X0001016Y0012870D02*
X0001016Y0014140D01*
X0001016Y0010330D02*
X0001016Y0011600D01*
X0001016Y0007790D02*
X0001016Y0009060D01*
X0001016Y0005250D02*
X0001016Y0006520D01*
X0001016Y0002710D02*
X0001016Y0003980D01*
X0001702Y0001440D02*
X0001016Y0000754D01*
X0002921Y0001440D02*
X0001702Y0001440D01*
X0012446Y0000754D02*
X0011176Y0000754D01*
X0014986Y0000754D02*
X0013716Y0000754D01*
X0017526Y0000754D02*
X0016256Y0000754D01*
X0020066Y0000754D02*
X0018796Y0000754D01*
X0023241Y0001063D02*
X0022932Y0000754D01*
X0023241Y0002075D02*
X0023241Y0001063D01*
X0022932Y0000754D02*
X0021336Y0000754D01*
X0023876Y0010330D02*
X0023876Y0009060D01*
X0023876Y0012870D02*
X0023876Y0011600D01*
X0023876Y0015410D02*
X0023876Y0014140D01*
X0023876Y0017950D02*
X0023876Y0016680D01*
X0023876Y0020490D02*
X0023876Y0019220D01*
X0023876Y0023030D02*
X0023876Y0021760D01*
X0023876Y0025570D02*
X0023876Y0024300D01*
X0023876Y0028110D02*
X0023876Y0026840D01*
D10*
G36*
X0024519Y0000227D02*
X0000227Y0000227D01*
X0000227Y0036519D01*
X0024519Y0036519D01*
X0024519Y0000227D01*
X0024519Y0000227D01*
G37*
X0024519Y0000227D02*
X0000227Y0000227D01*
X0000227Y0036519D01*
X0024519Y0036519D01*
X0024519Y0000227D01*
X0000000Y0036746D02*
%LPD*%
G01*
D20*
X0008001Y0038186D03*
X0005461Y0038186D03*
X0002921Y0038186D03*
X0023241Y0043901D03*
X0023241Y0041361D03*
X0023241Y0038821D03*
X0023241Y0066761D03*
X0023241Y0069301D03*
X0023241Y0071841D03*
D15*
X0001016Y0067396D03*
X0001016Y0068666D03*
X0001016Y0069936D03*
X0001016Y0071206D03*
X0001016Y0072476D03*
X0002286Y0072476D03*
X0003556Y0072476D03*
X0004826Y0072476D03*
X0006096Y0072476D03*
X0007366Y0072476D03*
X0008636Y0072476D03*
X0013716Y0072476D03*
X0018796Y0072476D03*
X0020066Y0072476D03*
X0021336Y0072476D03*
X0001016Y0059776D03*
X0001016Y0058506D03*
X0001016Y0057236D03*
X0001016Y0055966D03*
X0001016Y0054696D03*
X0001016Y0053426D03*
X0001016Y0052156D03*
X0001016Y0050886D03*
X0001016Y0049616D03*
X0001016Y0048346D03*
X0001016Y0047076D03*
X0001016Y0045806D03*
X0001016Y0044536D03*
X0001016Y0043266D03*
X0001016Y0041996D03*
X0001016Y0040726D03*
X0001016Y0039456D03*
X0001016Y0037500D03*
X0009906Y0037500D03*
X0011176Y0037500D03*
X0012446Y0037500D03*
X0013716Y0037500D03*
X0014986Y0037500D03*
X0016256Y0037500D03*
X0017526Y0037500D03*
X0018796Y0037500D03*
X0020066Y0037500D03*
X0021336Y0037500D03*
X0023876Y0045806D03*
X0023876Y0047076D03*
X0023876Y0048346D03*
X0023876Y0049616D03*
X0023876Y0050886D03*
X0023876Y0052156D03*
X0023876Y0053426D03*
X0023876Y0054696D03*
X0023876Y0055966D03*
X0023876Y0057236D03*
X0023876Y0058506D03*
X0023876Y0059776D03*
X0023876Y0061046D03*
X0023876Y0062316D03*
X0023876Y0063586D03*
X0023876Y0064856D03*
D13*
X0001016Y0068666D02*
X0001016Y0067396D01*
X0001016Y0071206D02*
X0001016Y0069936D01*
X0002286Y0072476D02*
X0001016Y0072476D01*
X0004826Y0072476D02*
X0003556Y0072476D01*
X0007366Y0072476D02*
X0006096Y0072476D01*
X0013716Y0072476D02*
X0008636Y0072476D01*
X0020066Y0072476D02*
X0018796Y0072476D01*
X0021971Y0071841D02*
X0021336Y0072476D01*
X0023241Y0071841D02*
X0021971Y0071841D01*
X0001016Y0057236D02*
X0001016Y0058506D01*
X0001016Y0054696D02*
X0001016Y0055966D01*
X0001016Y0052156D02*
X0001016Y0053426D01*
X0001016Y0049616D02*
X0001016Y0050886D01*
X0001016Y0047076D02*
X0001016Y0048346D01*
X0001016Y0044536D02*
X0001016Y0045806D01*
X0001016Y0041996D02*
X0001016Y0043266D01*
X0001016Y0039456D02*
X0001016Y0040726D01*
X0001702Y0038186D02*
X0001016Y0037500D01*
X0002921Y0038186D02*
X0001702Y0038186D01*
X0012446Y0037500D02*
X0011176Y0037500D01*
X0014986Y0037500D02*
X0013716Y0037500D01*
X0017526Y0037500D02*
X0016256Y0037500D01*
X0020066Y0037500D02*
X0018796Y0037500D01*
X0023241Y0037809D02*
X0022932Y0037500D01*
X0023241Y0038821D02*
X0023241Y0037809D01*
X0022932Y0037500D02*
X0021336Y0037500D01*
X0023876Y0047076D02*
X0023876Y0045806D01*
X0023876Y0049616D02*
X0023876Y0048346D01*
X0023876Y0052156D02*
X0023876Y0050886D01*
X0023876Y0054696D02*
X0023876Y0053426D01*
X0023876Y0057236D02*
X0023876Y0055966D01*
X0023876Y0059776D02*
X0023876Y0058506D01*
X0023876Y0062316D02*
X0023876Y0061046D01*
X0023876Y0064856D02*
X0023876Y0063586D01*
D10*
G36*
X0024519Y0036973D02*
X0000227Y0036973D01*
X0000227Y0073265D01*
X0024519Y0073265D01*
X0024519Y0036973D01*
X0024519Y0036973D01*
G37*
X0024519Y0036973D02*
X0000227Y0036973D01*
X0000227Y0073265D01*
X0024519Y0073265D01*
X0024519Y0036973D01*
X0000000Y0073492D02*
%LPD*%
G01*
D20*
X0008001Y0074932D03*
X0005461Y0074932D03*
X0002921Y0074932D03*
X0023241Y0080647D03*
X0023241Y0078107D03*
X0023241Y0075567D03*
X0023241Y0103507D03*
X0023241Y0106047D03*
X0023241Y0108587D03*
D15*
X0001016Y0104142D03*
X0001016Y0105412D03*
X0001016Y0106682D03*
X0001016Y0107952D03*
X0001016Y0109222D03*
X0002286Y0109222D03*
X0003556Y0109222D03*
X0004826Y0109222D03*
X0006096Y0109222D03*
X0007366Y0109222D03*
X0008636Y0109222D03*
X0013716Y0109222D03*
X0018796Y0109222D03*
X0020066Y0109222D03*
X0021336Y0109222D03*
X0001016Y0096522D03*
X0001016Y0095252D03*
X0001016Y0093982D03*
X0001016Y0092712D03*
X0001016Y0091442D03*
X0001016Y0090172D03*
X0001016Y0088902D03*
X0001016Y0087632D03*
X0001016Y0086362D03*
X0001016Y0085092D03*
X0001016Y0083822D03*
X0001016Y0082552D03*
X0001016Y0081282D03*
X0001016Y0080012D03*
X0001016Y0078742D03*
X0001016Y0077472D03*
X0001016Y0076202D03*
X0001016Y0074246D03*
X0009906Y0074246D03*
X0011176Y0074246D03*
X0012446Y0074246D03*
X0013716Y0074246D03*
X0014986Y0074246D03*
X0016256Y0074246D03*
X0017526Y0074246D03*
X0018796Y0074246D03*
X0020066Y0074246D03*
X0021336Y0074246D03*
X0023876Y0082552D03*
X0023876Y0083822D03*
X0023876Y0085092D03*
X0023876Y0086362D03*
X0023876Y0087632D03*
X0023876Y0088902D03*
X0023876Y0090172D03*
X0023876Y0091442D03*
X0023876Y0092712D03*
X0023876Y0093982D03*
X0023876Y0095252D03*
X0023876Y0096522D03*
X0023876Y0097792D03*
X0023876Y0099062D03*
X0023876Y0100332D03*
X0023876Y0101602D03*
D13*
X0001016Y0105412D02*
X0001016Y0104142D01*
X0001016Y0107952D02*
X0001016Y0106682D01*
X0002286Y0109222D02*
X0001016Y0109222D01*
X0004826Y0109222D02*
X0003556Y0109222D01*
X0007366Y0109222D02*
X0006096Y0109222D01*
X0013716Y0109222D02*
X0008636Y0109222D01*
X0020066Y0109222D02*
X0018796Y0109222D01*
X0021971Y0108587D02*
X0021336Y0109222D01*
X0023241Y0108587D02*
X0021971Y0108587D01*
X0001016Y0093982D02*
X0001016Y0095252D01*
X0001016Y0091442D02*
X0001016Y0092712D01*
X0001016Y0088902D02*
X0001016Y0090172D01*
X0001016Y0086362D02*
X0001016Y0087632D01*
X0001016Y0083822D02*
X0001016Y0085092D01*
X0001016Y0081282D02*
X0001016Y0082552D01*
X0001016Y0078742D02*
X0001016Y0080012D01*
X0001016Y0076202D02*
X0001016Y0077472D01*
X0001702Y0074932D02*
X0001016Y0074246D01*
X0002921Y0074932D02*
X0001702Y0074932D01*
X0012446Y0074246D02*
X0011176Y0074246D01*
X0014986Y0074246D02*
X0013716Y0074246D01*
X0017526Y0074246D02*
X0016256Y0074246D01*
X0020066Y0074246D02*
X0018796Y0074246D01*
X0023241Y0074555D02*
X0022932Y0074246D01*
X0023241Y0075567D02*
X0023241Y0074555D01*
X0022932Y0074246D02*
X0021336Y0074246D01*
X0023876Y0083822D02*
X0023876Y0082552D01*
X0023876Y0086362D02*
X0023876Y0085092D01*
X0023876Y0088902D02*
X0023876Y0087632D01*
X0023876Y0091442D02*
X0023876Y0090172D01*
X0023876Y0093982D02*
X0023876Y0092712D01*
X0023876Y0096522D02*
X0023876Y0095252D01*
X0023876Y0099062D02*
X0023876Y0097792D01*
X0023876Y0101602D02*
X0023876Y0100332D01*
D10*
G36*
X0024519Y0073719D02*
X0000227Y0073719D01*
X0000227Y0110011D01*
X0024519Y0110011D01*
X0024519Y0073719D01*
X0024519Y0073719D01*
G37*
X0024519Y0073719D02*
X0000227Y0073719D01*
X0000227Y0110011D01*
X0024519Y0110011D01*
X0024519Y0073719D01*
X0000000Y0110238D02*
%LPD*%
G01*
D20*
X0008001Y0111678D03*
X0005461Y0111678D03*
X0002921Y0111678D03*
X0023241Y0117393D03*
X0023241Y0114853D03*
X0023241Y0112313D03*
X0023241Y0140253D03*
X0023241Y0142793D03*
X0023241Y0145333D03*
D15*
X0001016Y0140888D03*
X0001016Y0142158D03*
X0001016Y0143428D03*
X0001016Y0144698D03*
X0001016Y0145968D03*
X0002286Y0145968D03*
X0003556Y0145968D03*
X0004826Y0145968D03*
X0006096Y0145968D03*
X0007366Y0145968D03*
X0008636Y0145968D03*
X0013716Y0145968D03*
X0018796Y0145968D03*
X0020066Y0145968D03*
X0021336Y0145968D03*
X0001016Y0133268D03*
X0001016Y0131998D03*
X0001016Y0130728D03*
X0001016Y0129458D03*
X0001016Y0128188D03*
X0001016Y0126918D03*
X0001016Y0125648D03*
X0001016Y0124378D03*
X0001016Y0123108D03*
X0001016Y0121838D03*
X0001016Y0120568D03*
X0001016Y0119298D03*
X0001016Y0118028D03*
X0001016Y0116758D03*
X0001016Y0115488D03*
X0001016Y0114218D03*
X0001016Y0112948D03*
X0001016Y0110992D03*
X0009906Y0110992D03*
X0011176Y0110992D03*
X0012446Y0110992D03*
X0013716Y0110992D03*
X0014986Y0110992D03*
X0016256Y0110992D03*
X0017526Y0110992D03*
X0018796Y0110992D03*
X0020066Y0110992D03*
X0021336Y0110992D03*
X0023876Y0119298D03*
X0023876Y0120568D03*
X0023876Y0121838D03*
X0023876Y0123108D03*
X0023876Y0124378D03*
X0023876Y0125648D03*
X0023876Y0126918D03*
X0023876Y0128188D03*
X0023876Y0129458D03*
X0023876Y0130728D03*
X0023876Y0131998D03*
X0023876Y0133268D03*
X0023876Y0134538D03*
X0023876Y0135808D03*
X0023876Y0137078D03*
X0023876Y0138348D03*
D13*
X0001016Y0142158D02*
X0001016Y0140888D01*
X0001016Y0144698D02*
X0001016Y0143428D01*
X0002286Y0145968D02*
X0001016Y0145968D01*
X0004826Y0145968D02*
X0003556Y0145968D01*
X0007366Y0145968D02*
X0006096Y0145968D01*
X0013716Y0145968D02*
X0008636Y0145968D01*
X0020066Y0145968D02*
X0018796Y0145968D01*
X0021971Y0145333D02*
X0021336Y0145968D01*
X0023241Y0145333D02*
X0021971Y0145333D01*
X0001016Y0130728D02*
X0001016Y0131998D01*
X0001016Y0128188D02*
X0001016Y0129458D01*
X0001016Y0125648D02*
X0001016Y0126918D01*
X0001016Y0123108D02*
X0001016Y0124378D01*
X0001016Y0120568D02*
X0001016Y0121838D01*
X0001016Y0118028D02*
X0001016Y0119298D01*
X0001016Y0115488D02*
X0001016Y0116758D01*
X0001016Y0112948D02*
X0001016Y0114218D01*
X0001702Y0111678D02*
X0001016Y0110992D01*
X0002921Y0111678D02*
X0001702Y0111678D01*
X0012446Y0110992D02*
X0011176Y0110992D01*
X0014986Y0110992D02*
X0013716Y0110992D01*
X0017526Y0110992D02*
X0016256Y0110992D01*
X0020066Y0110992D02*
X0018796Y0110992D01*
X0023241Y0111301D02*
X0022932Y0110992D01*
X0023241Y0112313D02*
X0023241Y0111301D01*
X0022932Y0110992D02*
X0021336Y0110992D01*
X0023876Y0120568D02*
X0023876Y0119298D01*
X0023876Y0123108D02*
X0023876Y0121838D01*
X0023876Y0125648D02*
X0023876Y0124378D01*
X0023876Y0128188D02*
X0023876Y0126918D01*
X0023876Y0130728D02*
X0023876Y0129458D01*
X0023876Y0133268D02*
X0023876Y0131998D01*
X0023876Y0135808D02*
X0023876Y0134538D01*
X0023876Y0138348D02*
X0023876Y0137078D01*
D10*
G36*
X0024519Y0110465D02*
X0000227Y0110465D01*
X0000227Y0146757D01*
X0024519Y0146757D01*
X0024519Y0110465D01*
X0024519Y0110465D01*
G37*
X0024519Y0110465D02*
X0000227Y0110465D01*
X0000227Y0146757D01*
X0024519Y0146757D01*
X0024519Y0110465D01*
X0024746Y0000000D02*
%LPD*%
G01*
D20*
X0032747Y0001440D03*
X0030207Y0001440D03*
X0027667Y0001440D03*
X0047987Y0007155D03*
X0047987Y0004615D03*
X0047987Y0002075D03*
X0047987Y0030015D03*
X0047987Y0032555D03*
X0047987Y0035095D03*
D25*
X0038462Y0017270D03*
D15*
X0025762Y0030650D03*
X0025762Y0031920D03*
X0025762Y0033190D03*
X0025762Y0034460D03*
X0025762Y0035730D03*
X0027032Y0035730D03*
X0028302Y0035730D03*
X0029572Y0035730D03*
X0030842Y0035730D03*
X0032112Y0035730D03*
X0033382Y0035730D03*
X0038462Y0035730D03*
X0043542Y0035730D03*
X0044812Y0035730D03*
X0046082Y0035730D03*
X0025762Y0023030D03*
X0025762Y0021760D03*
X0025762Y0020490D03*
X0025762Y0019220D03*
X0025762Y0017950D03*
X0025762Y0016680D03*
X0025762Y0015410D03*
X0025762Y0014140D03*
X0025762Y0012870D03*
X0025762Y0011600D03*
X0025762Y0010330D03*
X0025762Y0009060D03*
X0025762Y0007790D03*
X0025762Y0006520D03*
X0025762Y0005250D03*
X0025762Y0003980D03*
X0025762Y0002710D03*
X0025762Y0000754D03*
X0034652Y0000754D03*
X0035922Y0000754D03*
X0037192Y0000754D03*
X0038462Y0000754D03*
X0039732Y0000754D03*
X0041002Y0000754D03*
X0042272Y0000754D03*
X0043542Y0000754D03*
X0044812Y0000754D03*
X0046082Y0000754D03*
X0048622Y0009060D03*
X0048622Y0010330D03*
X0048622Y0011600D03*
X0048622Y0012870D03*
X0048622Y0014140D03*
X0048622Y0015410D03*
X0048622Y0016680D03*
X0048622Y0017950D03*
X0048622Y0019220D03*
X0048622Y0020490D03*
X0048622Y0021760D03*
X0048622Y0023030D03*
X0048622Y0024300D03*
X0048622Y0025570D03*
X0048622Y0026840D03*
X0048622Y0028110D03*
D13*
X0025762Y0031920D02*
X0025762Y0030650D01*
X0025762Y0034460D02*
X0025762Y0033190D01*
X0027032Y0035730D02*
X0025762Y0035730D01*
X0029572Y0035730D02*
X0028302Y0035730D01*
X0032112Y0035730D02*
X0030842Y0035730D01*
X0038462Y0035730D02*
X0033382Y0035730D01*
X0044812Y0035730D02*
X0043542Y0035730D01*
X0046717Y0035095D02*
X0046082Y0035730D01*
X0047987Y0035095D02*
X0046717Y0035095D01*
X0025762Y0020490D02*
X0025762Y0021760D01*
X0025762Y0017950D02*
X0025762Y0019220D01*
X0025762Y0015410D02*
X0025762Y0016680D01*
X0025762Y0012870D02*
X0025762Y0014140D01*
X0025762Y0010330D02*
X0025762Y0011600D01*
X0025762Y0007790D02*
X0025762Y0009060D01*
X0025762Y0005250D02*
X0025762Y0006520D01*
X0025762Y0002710D02*
X0025762Y0003980D01*
X0026448Y0001440D02*
X0025762Y0000754D01*
X0027667Y0001440D02*
X0026448Y0001440D01*
X0037192Y0000754D02*
X0035922Y0000754D01*
X0039732Y0000754D02*
X0038462Y0000754D01*
X0042272Y0000754D02*
X0041002Y0000754D01*
X0044812Y0000754D02*
X0043542Y0000754D01*
X0047987Y0001063D02*
X0047678Y0000754D01*
X0047987Y0002075D02*
X0047987Y0001063D01*
X0047678Y0000754D02*
X0046082Y0000754D01*
X0048622Y0010330D02*
X0048622Y0009060D01*
X0048622Y0012870D02*
X0048622Y0011600D01*
X0048622Y0015410D02*
X0048622Y0014140D01*
X0048622Y0017950D02*
X0048622Y0016680D01*
X0048622Y0020490D02*
X0048622Y0019220D01*
X0048622Y0023030D02*
X0048622Y0021760D01*
X0048622Y0025570D02*
X0048622Y0024300D01*
X0048622Y0028110D02*
X0048622Y0026840D01*
D10*
G36*
X0049265Y0000227D02*
X0024973Y0000227D01*
X0024973Y0036519D01*
X0049265Y0036519D01*
X0049265Y0000227D01*
X0049265Y0000227D01*
G37*
X0049265Y0000227D02*
X0024973Y0000227D01*
X0024973Y0036519D01*
X0049265Y0036519D01*
X0049265Y0000227D01*
X0024746Y0036746D02*
%LPD*%
G01*
D20*
X0032747Y0038186D03*
X0030207Y0038186D03*
X0027667Y0038186D03*
X0047987Y0043901D03*
X0047987Y0041361D03*
X0047987Y0038821D03*
X0047987Y0066761D03*
X0047987Y0069301D03*
X0047987Y0071841D03*
D25*
X0038462Y0054016D03*
D15*
X0025762Y0067396D03*
X0025762Y0068666D03*
X0025762Y0069936D03*
X0025762Y0071206D03*
X0025762Y0072476D03*
X0027032Y0072476D03*
X0028302Y0072476D03*
X0029572Y0072476D03*
X0030842Y0072476D03*
X0032112Y0072476D03*
X0033382Y0072476D03*
X0038462Y0072476D03*
X0043542Y0072476D03*
X0044812Y0072476D03*
X0046082Y0072476D03*
X0025762Y0059776D03*
X0025762Y0058506D03*
X0025762Y0057236D03*
X0025762Y0055966D03*
X0025762Y0054696D03*
X0025762Y0053426D03*
X0025762Y0052156D03*
X0025762Y0050886D03*
X0025762Y0049616D03*
X0025762Y0048346D03*
X0025762Y0047076D03*
X0025762Y0045806D03*
X0025762Y0044536D03*
X0025762Y0043266D03*
X0025762Y0041996D03*
X0025762Y0040726D03*
X0025762Y0039456D03*
X0025762Y0037500D03*
X0034652Y0037500D03*
X0035922Y0037500D03*
X0037192Y0037500D03*
X0038462Y0037500D03*
X0039732Y0037500D03*
X0041002Y0037500D03*
X0042272Y0037500D03*
X0043542Y0037500D03*
X0044812Y0037500D03*
X0046082Y0037500D03*
X0048622Y0045806D03*
X0048622Y0047076D03*
X0048622Y0048346D03*
X0048622Y0049616D03*
X0048622Y0050886D03*
X0048622Y0052156D03*
X0048622Y0053426D03*
X0048622Y0054696D03*
X0048622Y0055966D03*
X0048622Y0057236D03*
X0048622Y0058506D03*
X0048622Y0059776D03*
X0048622Y0061046D03*
X0048622Y0062316D03*
X0048622Y0063586D03*
X0048622Y0064856D03*
D13*
X0025762Y0068666D02*
X0025762Y0067396D01*
X0025762Y0071206D02*
X0025762Y0069936D01*
X0027032Y0072476D02*
X0025762Y0072476D01*
X0029572Y0072476D02*
X0028302Y0072476D01*
X0032112Y0072476D02*
X0030842Y0072476D01*
X0038462Y0072476D02*
X0033382Y0072476D01*
X0044812Y0072476D02*
X0043542Y0072476D01*
X0046717Y0071841D02*
X0046082Y0072476D01*
X0047987Y0071841D02*
X0046717Y0071841D01*
X0025762Y0057236D02*
X0025762Y0058506D01*
X0025762Y0054696D02*
X0025762Y0055966D01*
X0025762Y0052156D02*
X0025762Y0053426D01*
X0025762Y0049616D02*
X0025762Y0050886D01*
X0025762Y0047076D02*
X0025762Y0048346D01*
X0025762Y0044536D02*
X0025762Y0045806D01*
X0025762Y0041996D02*
X0025762Y0043266D01*
X0025762Y0039456D02*
X0025762Y0040726D01*
X0026448Y0038186D02*
X0025762Y0037500D01*
X0027667Y0038186D02*
X0026448Y0038186D01*
X0037192Y0037500D02*
X0035922Y0037500D01*
X0039732Y0037500D02*
X0038462Y0037500D01*
X0042272Y0037500D02*
X0041002Y0037500D01*
X0044812Y0037500D02*
X0043542Y0037500D01*
X0047987Y0037809D02*
X0047678Y0037500D01*
X0047987Y0038821D02*
X0047987Y0037809D01*
X0047678Y0037500D02*
X0046082Y0037500D01*
X0048622Y0047076D02*
X0048622Y0045806D01*
X0048622Y0049616D02*
X0048622Y0048346D01*
X0048622Y0052156D02*
X0048622Y0050886D01*
X0048622Y0054696D02*
X0048622Y0053426D01*
X0048622Y0057236D02*
X0048622Y0055966D01*
X0048622Y0059776D02*
X0048622Y0058506D01*
X0048622Y0062316D02*
X0048622Y0061046D01*
X0048622Y0064856D02*
X0048622Y0063586D01*
D10*
G36*
X0049265Y0036973D02*
X0024973Y0036973D01*
X0024973Y0073265D01*
X0049265Y0073265D01*
X0049265Y0036973D01*
X0049265Y0036973D01*
G37*
X0049265Y0036973D02*
X0024973Y0036973D01*
X0024973Y0073265D01*
X0049265Y0073265D01*
X0049265Y0036973D01*
X0024746Y0073492D02*
%LPD*%
G01*
D20*
X0032747Y0074932D03*
X0030207Y0074932D03*
X0027667Y0074932D03*
X0047987Y0080647D03*
X0047987Y0078107D03*
X0047987Y0075567D03*
X0047987Y0103507D03*
X0047987Y0106047D03*
X0047987Y0108587D03*
D25*
X0038462Y0090762D03*
D15*
X0025762Y0104142D03*
X0025762Y0105412D03*
X0025762Y0106682D03*
X0025762Y0107952D03*
X0025762Y0109222D03*
X0027032Y0109222D03*
X0028302Y0109222D03*
X0029572Y0109222D03*
X0030842Y0109222D03*
X0032112Y0109222D03*
X0033382Y0109222D03*
X0038462Y0109222D03*
X0043542Y0109222D03*
X0044812Y0109222D03*
X0046082Y0109222D03*
X0025762Y0096522D03*
X0025762Y0095252D03*
X0025762Y0093982D03*
X0025762Y0092712D03*
X0025762Y0091442D03*
X0025762Y0090172D03*
X0025762Y0088902D03*
X0025762Y0087632D03*
X0025762Y0086362D03*
X0025762Y0085092D03*
X0025762Y0083822D03*
X0025762Y0082552D03*
X0025762Y0081282D03*
X0025762Y0080012D03*
X0025762Y0078742D03*
X0025762Y0077472D03*
X0025762Y0076202D03*
X0025762Y0074246D03*
X0034652Y0074246D03*
X0035922Y0074246D03*
X0037192Y0074246D03*
X0038462Y0074246D03*
X0039732Y0074246D03*
X0041002Y0074246D03*
X0042272Y0074246D03*
X0043542Y0074246D03*
X0044812Y0074246D03*
X0046082Y0074246D03*
X0048622Y0082552D03*
X0048622Y0083822D03*
X0048622Y0085092D03*
X0048622Y0086362D03*
X0048622Y0087632D03*
X0048622Y0088902D03*
X0048622Y0090172D03*
X0048622Y0091442D03*
X0048622Y0092712D03*
X0048622Y0093982D03*
X0048622Y0095252D03*
X0048622Y0096522D03*
X0048622Y0097792D03*
X0048622Y0099062D03*
X0048622Y0100332D03*
X0048622Y0101602D03*
D13*
X0025762Y0105412D02*
X0025762Y0104142D01*
X0025762Y0107952D02*
X0025762Y0106682D01*
X0027032Y0109222D02*
X0025762Y0109222D01*
X0029572Y0109222D02*
X0028302Y0109222D01*
X0032112Y0109222D02*
X0030842Y0109222D01*
X0038462Y0109222D02*
X0033382Y0109222D01*
X0044812Y0109222D02*
X0043542Y0109222D01*
X0046717Y0108587D02*
X0046082Y0109222D01*
X0047987Y0108587D02*
X0046717Y0108587D01*
X0025762Y0093982D02*
X0025762Y0095252D01*
X0025762Y0091442D02*
X0025762Y0092712D01*
X0025762Y0088902D02*
X0025762Y0090172D01*
X0025762Y0086362D02*
X0025762Y0087632D01*
X0025762Y0083822D02*
X0025762Y0085092D01*
X0025762Y0081282D02*
X0025762Y0082552D01*
X0025762Y0078742D02*
X0025762Y0080012D01*
X0025762Y0076202D02*
X0025762Y0077472D01*
X0026448Y0074932D02*
X0025762Y0074246D01*
X0027667Y0074932D02*
X0026448Y0074932D01*
X0037192Y0074246D02*
X0035922Y0074246D01*
X0039732Y0074246D02*
X0038462Y0074246D01*
X0042272Y0074246D02*
X0041002Y0074246D01*
X0044812Y0074246D02*
X0043542Y0074246D01*
X0047987Y0074555D02*
X0047678Y0074246D01*
X0047987Y0075567D02*
X0047987Y0074555D01*
X0047678Y0074246D02*
X0046082Y0074246D01*
X0048622Y0083822D02*
X0048622Y0082552D01*
X0048622Y0086362D02*
X0048622Y0085092D01*
X0048622Y0088902D02*
X0048622Y0087632D01*
X0048622Y0091442D02*
X0048622Y0090172D01*
X0048622Y0093982D02*
X0048622Y0092712D01*
X0048622Y0096522D02*
X0048622Y0095252D01*
X0048622Y0099062D02*
X0048622Y0097792D01*
X0048622Y0101602D02*
X0048622Y0100332D01*
D10*
G36*
X0049265Y0073719D02*
X0024973Y0073719D01*
X0024973Y0110011D01*
X0049265Y0110011D01*
X0049265Y0073719D01*
X0049265Y0073719D01*
G37*
X0049265Y0073719D02*
X0024973Y0073719D01*
X0024973Y0110011D01*
X0049265Y0110011D01*
X0049265Y0073719D01*
X0024746Y0110238D02*
%LPD*%
G01*
D20*
X0032747Y0111678D03*
X0030207Y0111678D03*
X0027667Y0111678D03*
X0047987Y0117393D03*
X0047987Y0114853D03*
X0047987Y0112313D03*
X0047987Y0140253D03*
X0047987Y0142793D03*
X0047987Y0145333D03*
D25*
X0038462Y0127508D03*
D15*
X0025762Y0140888D03*
X0025762Y0142158D03*
X0025762Y0143428D03*
X0025762Y0144698D03*
X0025762Y0145968D03*
X0027032Y0145968D03*
X0028302Y0145968D03*
X0029572Y0145968D03*
X0030842Y0145968D03*
X0032112Y0145968D03*
X0033382Y0145968D03*
X0038462Y0145968D03*
X0043542Y0145968D03*
X0044812Y0145968D03*
X0046082Y0145968D03*
X0025762Y0133268D03*
X0025762Y0131998D03*
X0025762Y0130728D03*
X0025762Y0129458D03*
X0025762Y0128188D03*
X0025762Y0126918D03*
X0025762Y0125648D03*
X0025762Y0124378D03*
X0025762Y0123108D03*
X0025762Y0121838D03*
X0025762Y0120568D03*
X0025762Y0119298D03*
X0025762Y0118028D03*
X0025762Y0116758D03*
X0025762Y0115488D03*
X0025762Y0114218D03*
X0025762Y0112948D03*
X0025762Y0110992D03*
X0034652Y0110992D03*
X0035922Y0110992D03*
X0037192Y0110992D03*
X0038462Y0110992D03*
X0039732Y0110992D03*
X0041002Y0110992D03*
X0042272Y0110992D03*
X0043542Y0110992D03*
X0044812Y0110992D03*
X0046082Y0110992D03*
X0048622Y0119298D03*
X0048622Y0120568D03*
X0048622Y0121838D03*
X0048622Y0123108D03*
X0048622Y0124378D03*
X0048622Y0125648D03*
X0048622Y0126918D03*
X0048622Y0128188D03*
X0048622Y0129458D03*
X0048622Y0130728D03*
X0048622Y0131998D03*
X0048622Y0133268D03*
X0048622Y0134538D03*
X0048622Y0135808D03*
X0048622Y0137078D03*
X0048622Y0138348D03*
D13*
X0025762Y0142158D02*
X0025762Y0140888D01*
X0025762Y0144698D02*
X0025762Y0143428D01*
X0027032Y0145968D02*
X0025762Y0145968D01*
X0029572Y0145968D02*
X0028302Y0145968D01*
X0032112Y0145968D02*
X0030842Y0145968D01*
X0038462Y0145968D02*
X0033382Y0145968D01*
X0044812Y0145968D02*
X0043542Y0145968D01*
X0046717Y0145333D02*
X0046082Y0145968D01*
X0047987Y0145333D02*
X0046717Y0145333D01*
X0025762Y0130728D02*
X0025762Y0131998D01*
X0025762Y0128188D02*
X0025762Y0129458D01*
X0025762Y0125648D02*
X0025762Y0126918D01*
X0025762Y0123108D02*
X0025762Y0124378D01*
X0025762Y0120568D02*
X0025762Y0121838D01*
X0025762Y0118028D02*
X0025762Y0119298D01*
X0025762Y0115488D02*
X0025762Y0116758D01*
X0025762Y0112948D02*
X0025762Y0114218D01*
X0026448Y0111678D02*
X0025762Y0110992D01*
X0027667Y0111678D02*
X0026448Y0111678D01*
X0037192Y0110992D02*
X0035922Y0110992D01*
X0039732Y0110992D02*
X0038462Y0110992D01*
X0042272Y0110992D02*
X0041002Y0110992D01*
X0044812Y0110992D02*
X0043542Y0110992D01*
X0047987Y0111301D02*
X0047678Y0110992D01*
X0047987Y0112313D02*
X0047987Y0111301D01*
X0047678Y0110992D02*
X0046082Y0110992D01*
X0048622Y0120568D02*
X0048622Y0119298D01*
X0048622Y0123108D02*
X0048622Y0121838D01*
X0048622Y0125648D02*
X0048622Y0124378D01*
X0048622Y0128188D02*
X0048622Y0126918D01*
X0048622Y0130728D02*
X0048622Y0129458D01*
X0048622Y0133268D02*
X0048622Y0131998D01*
X0048622Y0135808D02*
X0048622Y0134538D01*
X0048622Y0138348D02*
X0048622Y0137078D01*
D10*
G36*
X0049265Y0110465D02*
X0024973Y0110465D01*
X0024973Y0146757D01*
X0049265Y0146757D01*
X0049265Y0110465D01*
X0049265Y0110465D01*
G37*
X0049265Y0110465D02*
X0024973Y0110465D01*
X0024973Y0146757D01*
X0049265Y0146757D01*
X0049265Y0110465D01*
X0049492Y0000000D02*
%LPD*%
G01*
D15*
X0059398Y0035730D03*
X0059398Y0034460D03*
X0059398Y0033190D03*
X0059398Y0031920D03*
X0059398Y0030650D03*
X0059398Y0029380D03*
X0059398Y0028110D03*
X0059398Y0026840D03*
X0059398Y0025570D03*
X0059398Y0024300D03*
X0059398Y0023030D03*
X0059398Y0021760D03*
X0059398Y0020490D03*
X0059398Y0019220D03*
X0059398Y0017950D03*
X0059398Y0016680D03*
X0059398Y0015410D03*
X0059398Y0014140D03*
X0059398Y0012870D03*
X0059398Y0011600D03*
X0059398Y0010330D03*
X0059398Y0009060D03*
X0059398Y0007790D03*
X0059398Y0006520D03*
X0059398Y0005250D03*
X0059398Y0003980D03*
X0059398Y0002710D03*
X0059398Y0000754D03*
X0058128Y0000754D03*
X0056858Y0000754D03*
X0055588Y0000754D03*
X0054318Y0000754D03*
X0053048Y0000754D03*
X0051778Y0000754D03*
X0050508Y0001440D03*
X0050508Y0024300D03*
X0050508Y0025570D03*
X0050508Y0026840D03*
X0050508Y0028110D03*
X0050508Y0029380D03*
X0050508Y0030650D03*
X0050508Y0031920D03*
X0050508Y0033190D03*
X0050508Y0034460D03*
X0050508Y0035730D03*
X0051778Y0035730D03*
X0053048Y0035730D03*
X0054318Y0035730D03*
X0055588Y0035730D03*
X0056858Y0035730D03*
X0058128Y0035730D03*
X0050508Y0023030D03*
X0050508Y0021760D03*
X0050508Y0020490D03*
X0050508Y0019220D03*
X0050508Y0017950D03*
X0050508Y0016680D03*
X0050508Y0015410D03*
X0050508Y0014140D03*
X0050508Y0012870D03*
X0050508Y0011600D03*
X0050508Y0010330D03*
X0050508Y0009060D03*
X0050508Y0007790D03*
X0050508Y0006520D03*
X0050508Y0005250D03*
X0050508Y0003980D03*
X0050508Y0002710D03*
D13*
X0059398Y0034460D02*
X0059398Y0035730D01*
X0059398Y0031920D02*
X0059398Y0033190D01*
X0059398Y0029380D02*
X0059398Y0030650D01*
X0059398Y0026840D02*
X0059398Y0028110D01*
X0059398Y0024300D02*
X0059398Y0025570D01*
X0059398Y0021760D02*
X0059398Y0023030D01*
X0059398Y0019220D02*
X0059398Y0020490D01*
X0059398Y0016680D02*
X0059398Y0017950D01*
X0059398Y0014140D02*
X0059398Y0015410D01*
X0059398Y0011600D02*
X0059398Y0012870D01*
X0059398Y0009060D02*
X0059398Y0010330D01*
X0059398Y0006520D02*
X0059398Y0007790D01*
X0059398Y0003980D02*
X0059398Y0005250D01*
X0059398Y0000754D02*
X0059398Y0002710D01*
X0056858Y0000754D02*
X0058128Y0000754D01*
X0054318Y0000754D02*
X0055588Y0000754D01*
X0051778Y0000754D02*
X0053048Y0000754D01*
X0050508Y0002710D02*
X0050508Y0001440D01*
X0050508Y0026840D02*
X0050508Y0025570D01*
X0050508Y0029380D02*
X0050508Y0028110D01*
X0050508Y0031920D02*
X0050508Y0030650D01*
X0050508Y0034460D02*
X0050508Y0033190D01*
X0051778Y0035730D02*
X0050508Y0035730D01*
X0054318Y0035730D02*
X0053048Y0035730D01*
X0056858Y0035730D02*
X0055588Y0035730D01*
X0050508Y0020490D02*
X0050508Y0021760D01*
X0050508Y0017950D02*
X0050508Y0019220D01*
X0050508Y0015410D02*
X0050508Y0016680D01*
X0050508Y0012870D02*
X0050508Y0014140D01*
X0050508Y0010330D02*
X0050508Y0011600D01*
X0050508Y0007790D02*
X0050508Y0009060D01*
X0050508Y0005250D02*
X0050508Y0006520D01*
X0050508Y0002710D02*
X0050508Y0003980D01*
D10*
G36*
X0060265Y0000227D02*
X0049719Y0000227D01*
X0049719Y0036519D01*
X0060265Y0036519D01*
X0060265Y0000227D01*
X0060265Y0000227D01*
G37*
X0060265Y0000227D02*
X0049719Y0000227D01*
X0049719Y0036519D01*
X0060265Y0036519D01*
X0060265Y0000227D01*
X0049492Y0036746D02*
%LPD*%
G01*
D15*
X0059398Y0072476D03*
X0059398Y0071206D03*
X0059398Y0069936D03*
X0059398Y0068666D03*
X0059398Y0067396D03*
X0059398Y0066126D03*
X0059398Y0064856D03*
X0059398Y0063586D03*
X0059398Y0062316D03*
X0059398Y0061046D03*
X0059398Y0059776D03*
X0059398Y0058506D03*
X0059398Y0057236D03*
X0059398Y0055966D03*
X0059398Y0054696D03*
X0059398Y0053426D03*
X0059398Y0052156D03*
X0059398Y0050886D03*
X0059398Y0049616D03*
X0059398Y0048346D03*
X0059398Y0047076D03*
X0059398Y0045806D03*
X0059398Y0044536D03*
X0059398Y0043266D03*
X0059398Y0041996D03*
X0059398Y0040726D03*
X0059398Y0039456D03*
X0059398Y0037500D03*
X0058128Y0037500D03*
X0056858Y0037500D03*
X0055588Y0037500D03*
X0054318Y0037500D03*
X0053048Y0037500D03*
X0051778Y0037500D03*
X0050508Y0038186D03*
X0050508Y0061046D03*
X0050508Y0062316D03*
X0050508Y0063586D03*
X0050508Y0064856D03*
X0050508Y0066126D03*
X0050508Y0067396D03*
X0050508Y0068666D03*
X0050508Y0069936D03*
X0050508Y0071206D03*
X0050508Y0072476D03*
X0051778Y0072476D03*
X0053048Y0072476D03*
X0054318Y0072476D03*
X0055588Y0072476D03*
X0056858Y0072476D03*
X0058128Y0072476D03*
X0050508Y0059776D03*
X0050508Y0058506D03*
X0050508Y0057236D03*
X0050508Y0055966D03*
X0050508Y0054696D03*
X0050508Y0053426D03*
X0050508Y0052156D03*
X0050508Y0050886D03*
X0050508Y0049616D03*
X0050508Y0048346D03*
X0050508Y0047076D03*
X0050508Y0045806D03*
X0050508Y0044536D03*
X0050508Y0043266D03*
X0050508Y0041996D03*
X0050508Y0040726D03*
X0050508Y0039456D03*
D13*
X0059398Y0071206D02*
X0059398Y0072476D01*
X0059398Y0068666D02*
X0059398Y0069936D01*
X0059398Y0066126D02*
X0059398Y0067396D01*
X0059398Y0063586D02*
X0059398Y0064856D01*
X0059398Y0061046D02*
X0059398Y0062316D01*
X0059398Y0058506D02*
X0059398Y0059776D01*
X0059398Y0055966D02*
X0059398Y0057236D01*
X0059398Y0053426D02*
X0059398Y0054696D01*
X0059398Y0050886D02*
X0059398Y0052156D01*
X0059398Y0048346D02*
X0059398Y0049616D01*
X0059398Y0045806D02*
X0059398Y0047076D01*
X0059398Y0043266D02*
X0059398Y0044536D01*
X0059398Y0040726D02*
X0059398Y0041996D01*
X0059398Y0037500D02*
X0059398Y0039456D01*
X0056858Y0037500D02*
X0058128Y0037500D01*
X0054318Y0037500D02*
X0055588Y0037500D01*
X0051778Y0037500D02*
X0053048Y0037500D01*
X0050508Y0039456D02*
X0050508Y0038186D01*
X0050508Y0063586D02*
X0050508Y0062316D01*
X0050508Y0066126D02*
X0050508Y0064856D01*
X0050508Y0068666D02*
X0050508Y0067396D01*
X0050508Y0071206D02*
X0050508Y0069936D01*
X0051778Y0072476D02*
X0050508Y0072476D01*
X0054318Y0072476D02*
X0053048Y0072476D01*
X0056858Y0072476D02*
X0055588Y0072476D01*
X0050508Y0057236D02*
X0050508Y0058506D01*
X0050508Y0054696D02*
X0050508Y0055966D01*
X0050508Y0052156D02*
X0050508Y0053426D01*
X0050508Y0049616D02*
X0050508Y0050886D01*
X0050508Y0047076D02*
X0050508Y0048346D01*
X0050508Y0044536D02*
X0050508Y0045806D01*
X0050508Y0041996D02*
X0050508Y0043266D01*
X0050508Y0039456D02*
X0050508Y0040726D01*
D10*
G36*
X0060265Y0036973D02*
X0049719Y0036973D01*
X0049719Y0073265D01*
X0060265Y0073265D01*
X0060265Y0036973D01*
X0060265Y0036973D01*
G37*
X0060265Y0036973D02*
X0049719Y0036973D01*
X0049719Y0073265D01*
X0060265Y0073265D01*
X0060265Y0036973D01*
X0049492Y0073492D02*
%LPD*%
G01*
D15*
X0059398Y0109222D03*
X0059398Y0107952D03*
X0059398Y0106682D03*
X0059398Y0105412D03*
X0059398Y0104142D03*
X0059398Y0102872D03*
X0059398Y0101602D03*
X0059398Y0100332D03*
X0059398Y0099062D03*
X0059398Y0097792D03*
X0059398Y0096522D03*
X0059398Y0095252D03*
X0059398Y0093982D03*
X0059398Y0092712D03*
X0059398Y0091442D03*
X0059398Y0090172D03*
X0059398Y0088902D03*
X0059398Y0087632D03*
X0059398Y0086362D03*
X0059398Y0085092D03*
X0059398Y0083822D03*
X0059398Y0082552D03*
X0059398Y0081282D03*
X0059398Y0080012D03*
X0059398Y0078742D03*
X0059398Y0077472D03*
X0059398Y0076202D03*
X0059398Y0074246D03*
X0058128Y0074246D03*
X0056858Y0074246D03*
X0055588Y0074246D03*
X0054318Y0074246D03*
X0053048Y0074246D03*
X0051778Y0074246D03*
X0050508Y0074932D03*
X0050508Y0097792D03*
X0050508Y0099062D03*
X0050508Y0100332D03*
X0050508Y0101602D03*
X0050508Y0102872D03*
X0050508Y0104142D03*
X0050508Y0105412D03*
X0050508Y0106682D03*
X0050508Y0107952D03*
X0050508Y0109222D03*
X0051778Y0109222D03*
X0053048Y0109222D03*
X0054318Y0109222D03*
X0055588Y0109222D03*
X0056858Y0109222D03*
X0058128Y0109222D03*
X0050508Y0096522D03*
X0050508Y0095252D03*
X0050508Y0093982D03*
X0050508Y0092712D03*
X0050508Y0091442D03*
X0050508Y0090172D03*
X0050508Y0088902D03*
X0050508Y0087632D03*
X0050508Y0086362D03*
X0050508Y0085092D03*
X0050508Y0083822D03*
X0050508Y0082552D03*
X0050508Y0081282D03*
X0050508Y0080012D03*
X0050508Y0078742D03*
X0050508Y0077472D03*
X0050508Y0076202D03*
D13*
X0059398Y0107952D02*
X0059398Y0109222D01*
X0059398Y0105412D02*
X0059398Y0106682D01*
X0059398Y0102872D02*
X0059398Y0104142D01*
X0059398Y0100332D02*
X0059398Y0101602D01*
X0059398Y0097792D02*
X0059398Y0099062D01*
X0059398Y0095252D02*
X0059398Y0096522D01*
X0059398Y0092712D02*
X0059398Y0093982D01*
X0059398Y0090172D02*
X0059398Y0091442D01*
X0059398Y0087632D02*
X0059398Y0088902D01*
X0059398Y0085092D02*
X0059398Y0086362D01*
X0059398Y0082552D02*
X0059398Y0083822D01*
X0059398Y0080012D02*
X0059398Y0081282D01*
X0059398Y0077472D02*
X0059398Y0078742D01*
X0059398Y0074246D02*
X0059398Y0076202D01*
X0056858Y0074246D02*
X0058128Y0074246D01*
X0054318Y0074246D02*
X0055588Y0074246D01*
X0051778Y0074246D02*
X0053048Y0074246D01*
X0050508Y0076202D02*
X0050508Y0074932D01*
X0050508Y0100332D02*
X0050508Y0099062D01*
X0050508Y0102872D02*
X0050508Y0101602D01*
X0050508Y0105412D02*
X0050508Y0104142D01*
X0050508Y0107952D02*
X0050508Y0106682D01*
X0051778Y0109222D02*
X0050508Y0109222D01*
X0054318Y0109222D02*
X0053048Y0109222D01*
X0056858Y0109222D02*
X0055588Y0109222D01*
X0050508Y0093982D02*
X0050508Y0095252D01*
X0050508Y0091442D02*
X0050508Y0092712D01*
X0050508Y0088902D02*
X0050508Y0090172D01*
X0050508Y0086362D02*
X0050508Y0087632D01*
X0050508Y0083822D02*
X0050508Y0085092D01*
X0050508Y0081282D02*
X0050508Y0082552D01*
X0050508Y0078742D02*
X0050508Y0080012D01*
X0050508Y0076202D02*
X0050508Y0077472D01*
D10*
G36*
X0060265Y0073719D02*
X0049719Y0073719D01*
X0049719Y0110011D01*
X0060265Y0110011D01*
X0060265Y0073719D01*
X0060265Y0073719D01*
G37*
X0060265Y0073719D02*
X0049719Y0073719D01*
X0049719Y0110011D01*
X0060265Y0110011D01*
X0060265Y0073719D01*
X0049492Y0110238D02*
%LPD*%
G01*
D15*
X0059398Y0145968D03*
X0059398Y0144698D03*
X0059398Y0143428D03*
X0059398Y0142158D03*
X0059398Y0140888D03*
X0059398Y0139618D03*
X0059398Y0138348D03*
X0059398Y0137078D03*
X0059398Y0135808D03*
X0059398Y0134538D03*
X0059398Y0133268D03*
X0059398Y0131998D03*
X0059398Y0130728D03*
X0059398Y0129458D03*
X0059398Y0128188D03*
X0059398Y0126918D03*
X0059398Y0125648D03*
X0059398Y0124378D03*
X0059398Y0123108D03*
X0059398Y0121838D03*
X0059398Y0120568D03*
X0059398Y0119298D03*
X0059398Y0118028D03*
X0059398Y0116758D03*
X0059398Y0115488D03*
X0059398Y0114218D03*
X0059398Y0112948D03*
X0059398Y0110992D03*
X0058128Y0110992D03*
X0056858Y0110992D03*
X0055588Y0110992D03*
X0054318Y0110992D03*
X0053048Y0110992D03*
X0051778Y0110992D03*
X0050508Y0111678D03*
X0050508Y0134538D03*
X0050508Y0135808D03*
X0050508Y0137078D03*
X0050508Y0138348D03*
X0050508Y0139618D03*
X0050508Y0140888D03*
X0050508Y0142158D03*
X0050508Y0143428D03*
X0050508Y0144698D03*
X0050508Y0145968D03*
X0051778Y0145968D03*
X0053048Y0145968D03*
X0054318Y0145968D03*
X0055588Y0145968D03*
X0056858Y0145968D03*
X0058128Y0145968D03*
X0050508Y0133268D03*
X0050508Y0131998D03*
X0050508Y0130728D03*
X0050508Y0129458D03*
X0050508Y0128188D03*
X0050508Y0126918D03*
X0050508Y0125648D03*
X0050508Y0124378D03*
X0050508Y0123108D03*
X0050508Y0121838D03*
X0050508Y0120568D03*
X0050508Y0119298D03*
X0050508Y0118028D03*
X0050508Y0116758D03*
X0050508Y0115488D03*
X0050508Y0114218D03*
X0050508Y0112948D03*
D13*
X0059398Y0144698D02*
X0059398Y0145968D01*
X0059398Y0142158D02*
X0059398Y0143428D01*
X0059398Y0139618D02*
X0059398Y0140888D01*
X0059398Y0137078D02*
X0059398Y0138348D01*
X0059398Y0134538D02*
X0059398Y0135808D01*
X0059398Y0131998D02*
X0059398Y0133268D01*
X0059398Y0129458D02*
X0059398Y0130728D01*
X0059398Y0126918D02*
X0059398Y0128188D01*
X0059398Y0124378D02*
X0059398Y0125648D01*
X0059398Y0121838D02*
X0059398Y0123108D01*
X0059398Y0119298D02*
X0059398Y0120568D01*
X0059398Y0116758D02*
X0059398Y0118028D01*
X0059398Y0114218D02*
X0059398Y0115488D01*
X0059398Y0110992D02*
X0059398Y0112948D01*
X0056858Y0110992D02*
X0058128Y0110992D01*
X0054318Y0110992D02*
X0055588Y0110992D01*
X0051778Y0110992D02*
X0053048Y0110992D01*
X0050508Y0112948D02*
X0050508Y0111678D01*
X0050508Y0137078D02*
X0050508Y0135808D01*
X0050508Y0139618D02*
X0050508Y0138348D01*
X0050508Y0142158D02*
X0050508Y0140888D01*
X0050508Y0144698D02*
X0050508Y0143428D01*
X0051778Y0145968D02*
X0050508Y0145968D01*
X0054318Y0145968D02*
X0053048Y0145968D01*
X0056858Y0145968D02*
X0055588Y0145968D01*
X0050508Y0130728D02*
X0050508Y0131998D01*
X0050508Y0128188D02*
X0050508Y0129458D01*
X0050508Y0125648D02*
X0050508Y0126918D01*
X0050508Y0123108D02*
X0050508Y0124378D01*
X0050508Y0120568D02*
X0050508Y0121838D01*
X0050508Y0118028D02*
X0050508Y0119298D01*
X0050508Y0115488D02*
X0050508Y0116758D01*
X0050508Y0112948D02*
X0050508Y0114218D01*
D10*
G36*
X0060265Y0110465D02*
X0049719Y0110465D01*
X0049719Y0146757D01*
X0060265Y0146757D01*
X0060265Y0110465D01*
X0060265Y0110465D01*
G37*
X0060265Y0110465D02*
X0049719Y0110465D01*
X0049719Y0146757D01*
X0060265Y0146757D01*
X0060265Y0110465D01*
X0060492Y0000000D02*
%LPD*%
G01*
D15*
X0070398Y0035730D03*
X0070398Y0034460D03*
X0070398Y0033190D03*
X0070398Y0031920D03*
X0070398Y0030650D03*
X0070398Y0029380D03*
X0070398Y0028110D03*
X0070398Y0026840D03*
X0070398Y0025570D03*
X0070398Y0024300D03*
X0070398Y0023030D03*
X0070398Y0021760D03*
X0070398Y0020490D03*
X0070398Y0019220D03*
X0070398Y0017950D03*
X0070398Y0016680D03*
X0070398Y0015410D03*
X0070398Y0014140D03*
X0070398Y0012870D03*
X0070398Y0011600D03*
X0070398Y0010330D03*
X0070398Y0009060D03*
X0070398Y0007790D03*
X0070398Y0006520D03*
X0070398Y0005250D03*
X0070398Y0003980D03*
X0070398Y0002710D03*
X0070398Y0000754D03*
X0069128Y0000754D03*
X0067858Y0000754D03*
X0066588Y0000754D03*
X0065318Y0000754D03*
X0064048Y0000754D03*
X0062778Y0000754D03*
X0061508Y0001440D03*
X0061508Y0024300D03*
X0061508Y0025570D03*
X0061508Y0026840D03*
X0061508Y0028110D03*
X0061508Y0029380D03*
X0061508Y0030650D03*
X0061508Y0031920D03*
X0061508Y0033190D03*
X0061508Y0034460D03*
X0061508Y0035730D03*
X0062778Y0035730D03*
X0064048Y0035730D03*
X0065318Y0035730D03*
X0066588Y0035730D03*
X0067858Y0035730D03*
X0069128Y0035730D03*
X0061508Y0023030D03*
X0061508Y0021760D03*
X0061508Y0020490D03*
X0061508Y0019220D03*
X0061508Y0017950D03*
X0061508Y0016680D03*
X0061508Y0015410D03*
X0061508Y0014140D03*
X0061508Y0012870D03*
X0061508Y0011600D03*
X0061508Y0010330D03*
X0061508Y0009060D03*
X0061508Y0007790D03*
X0061508Y0006520D03*
X0061508Y0005250D03*
X0061508Y0003980D03*
X0061508Y0002710D03*
D13*
X0070398Y0034460D02*
X0070398Y0035730D01*
X0070398Y0031920D02*
X0070398Y0033190D01*
X0070398Y0029380D02*
X0070398Y0030650D01*
X0070398Y0026840D02*
X0070398Y0028110D01*
X0070398Y0024300D02*
X0070398Y0025570D01*
X0070398Y0021760D02*
X0070398Y0023030D01*
X0070398Y0019220D02*
X0070398Y0020490D01*
X0070398Y0016680D02*
X0070398Y0017950D01*
X0070398Y0014140D02*
X0070398Y0015410D01*
X0070398Y0011600D02*
X0070398Y0012870D01*
X0070398Y0009060D02*
X0070398Y0010330D01*
X0070398Y0006520D02*
X0070398Y0007790D01*
X0070398Y0003980D02*
X0070398Y0005250D01*
X0070398Y0000754D02*
X0070398Y0002710D01*
X0067858Y0000754D02*
X0069128Y0000754D01*
X0065318Y0000754D02*
X0066588Y0000754D01*
X0062778Y0000754D02*
X0064048Y0000754D01*
X0061508Y0002710D02*
X0061508Y0001440D01*
X0061508Y0026840D02*
X0061508Y0025570D01*
X0061508Y0029380D02*
X0061508Y0028110D01*
X0061508Y0031920D02*
X0061508Y0030650D01*
X0061508Y0034460D02*
X0061508Y0033190D01*
X0062778Y0035730D02*
X0061508Y0035730D01*
X0065318Y0035730D02*
X0064048Y0035730D01*
X0067858Y0035730D02*
X0066588Y0035730D01*
X0061508Y0020490D02*
X0061508Y0021760D01*
X0061508Y0017950D02*
X0061508Y0019220D01*
X0061508Y0015410D02*
X0061508Y0016680D01*
X0061508Y0012870D02*
X0061508Y0014140D01*
X0061508Y0010330D02*
X0061508Y0011600D01*
X0061508Y0007790D02*
X0061508Y0009060D01*
X0061508Y0005250D02*
X0061508Y0006520D01*
X0061508Y0002710D02*
X0061508Y0003980D01*
D10*
G36*
X0071265Y0000227D02*
X0060719Y0000227D01*
X0060719Y0036519D01*
X0071265Y0036519D01*
X0071265Y0000227D01*
X0071265Y0000227D01*
G37*
X0071265Y0000227D02*
X0060719Y0000227D01*
X0060719Y0036519D01*
X0071265Y0036519D01*
X0071265Y0000227D01*
X0060492Y0036746D02*
%LPD*%
G01*
D15*
X0070398Y0072476D03*
X0070398Y0071206D03*
X0070398Y0069936D03*
X0070398Y0068666D03*
X0070398Y0067396D03*
X0070398Y0066126D03*
X0070398Y0064856D03*
X0070398Y0063586D03*
X0070398Y0062316D03*
X0070398Y0061046D03*
X0070398Y0059776D03*
X0070398Y0058506D03*
X0070398Y0057236D03*
X0070398Y0055966D03*
X0070398Y0054696D03*
X0070398Y0053426D03*
X0070398Y0052156D03*
X0070398Y0050886D03*
X0070398Y0049616D03*
X0070398Y0048346D03*
X0070398Y0047076D03*
X0070398Y0045806D03*
X0070398Y0044536D03*
X0070398Y0043266D03*
X0070398Y0041996D03*
X0070398Y0040726D03*
X0070398Y0039456D03*
X0070398Y0037500D03*
X0069128Y0037500D03*
X0067858Y0037500D03*
X0066588Y0037500D03*
X0065318Y0037500D03*
X0064048Y0037500D03*
X0062778Y0037500D03*
X0061508Y0038186D03*
X0061508Y0061046D03*
X0061508Y0062316D03*
X0061508Y0063586D03*
X0061508Y0064856D03*
X0061508Y0066126D03*
X0061508Y0067396D03*
X0061508Y0068666D03*
X0061508Y0069936D03*
X0061508Y0071206D03*
X0061508Y0072476D03*
X0062778Y0072476D03*
X0064048Y0072476D03*
X0065318Y0072476D03*
X0066588Y0072476D03*
X0067858Y0072476D03*
X0069128Y0072476D03*
X0061508Y0059776D03*
X0061508Y0058506D03*
X0061508Y0057236D03*
X0061508Y0055966D03*
X0061508Y0054696D03*
X0061508Y0053426D03*
X0061508Y0052156D03*
X0061508Y0050886D03*
X0061508Y0049616D03*
X0061508Y0048346D03*
X0061508Y0047076D03*
X0061508Y0045806D03*
X0061508Y0044536D03*
X0061508Y0043266D03*
X0061508Y0041996D03*
X0061508Y0040726D03*
X0061508Y0039456D03*
D13*
X0070398Y0071206D02*
X0070398Y0072476D01*
X0070398Y0068666D02*
X0070398Y0069936D01*
X0070398Y0066126D02*
X0070398Y0067396D01*
X0070398Y0063586D02*
X0070398Y0064856D01*
X0070398Y0061046D02*
X0070398Y0062316D01*
X0070398Y0058506D02*
X0070398Y0059776D01*
X0070398Y0055966D02*
X0070398Y0057236D01*
X0070398Y0053426D02*
X0070398Y0054696D01*
X0070398Y0050886D02*
X0070398Y0052156D01*
X0070398Y0048346D02*
X0070398Y0049616D01*
X0070398Y0045806D02*
X0070398Y0047076D01*
X0070398Y0043266D02*
X0070398Y0044536D01*
X0070398Y0040726D02*
X0070398Y0041996D01*
X0070398Y0037500D02*
X0070398Y0039456D01*
X0067858Y0037500D02*
X0069128Y0037500D01*
X0065318Y0037500D02*
X0066588Y0037500D01*
X0062778Y0037500D02*
X0064048Y0037500D01*
X0061508Y0039456D02*
X0061508Y0038186D01*
X0061508Y0063586D02*
X0061508Y0062316D01*
X0061508Y0066126D02*
X0061508Y0064856D01*
X0061508Y0068666D02*
X0061508Y0067396D01*
X0061508Y0071206D02*
X0061508Y0069936D01*
X0062778Y0072476D02*
X0061508Y0072476D01*
X0065318Y0072476D02*
X0064048Y0072476D01*
X0067858Y0072476D02*
X0066588Y0072476D01*
X0061508Y0057236D02*
X0061508Y0058506D01*
X0061508Y0054696D02*
X0061508Y0055966D01*
X0061508Y0052156D02*
X0061508Y0053426D01*
X0061508Y0049616D02*
X0061508Y0050886D01*
X0061508Y0047076D02*
X0061508Y0048346D01*
X0061508Y0044536D02*
X0061508Y0045806D01*
X0061508Y0041996D02*
X0061508Y0043266D01*
X0061508Y0039456D02*
X0061508Y0040726D01*
D10*
G36*
X0071265Y0036973D02*
X0060719Y0036973D01*
X0060719Y0073265D01*
X0071265Y0073265D01*
X0071265Y0036973D01*
X0071265Y0036973D01*
G37*
X0071265Y0036973D02*
X0060719Y0036973D01*
X0060719Y0073265D01*
X0071265Y0073265D01*
X0071265Y0036973D01*
X0060492Y0073492D02*
%LPD*%
G01*
D15*
X0070398Y0109222D03*
X0070398Y0107952D03*
X0070398Y0106682D03*
X0070398Y0105412D03*
X0070398Y0104142D03*
X0070398Y0102872D03*
X0070398Y0101602D03*
X0070398Y0100332D03*
X0070398Y0099062D03*
X0070398Y0097792D03*
X0070398Y0096522D03*
X0070398Y0095252D03*
X0070398Y0093982D03*
X0070398Y0092712D03*
X0070398Y0091442D03*
X0070398Y0090172D03*
X0070398Y0088902D03*
X0070398Y0087632D03*
X0070398Y0086362D03*
X0070398Y0085092D03*
X0070398Y0083822D03*
X0070398Y0082552D03*
X0070398Y0081282D03*
X0070398Y0080012D03*
X0070398Y0078742D03*
X0070398Y0077472D03*
X0070398Y0076202D03*
X0070398Y0074246D03*
X0069128Y0074246D03*
X0067858Y0074246D03*
X0066588Y0074246D03*
X0065318Y0074246D03*
X0064048Y0074246D03*
X0062778Y0074246D03*
X0061508Y0074932D03*
X0061508Y0097792D03*
X0061508Y0099062D03*
X0061508Y0100332D03*
X0061508Y0101602D03*
X0061508Y0102872D03*
X0061508Y0104142D03*
X0061508Y0105412D03*
X0061508Y0106682D03*
X0061508Y0107952D03*
X0061508Y0109222D03*
X0062778Y0109222D03*
X0064048Y0109222D03*
X0065318Y0109222D03*
X0066588Y0109222D03*
X0067858Y0109222D03*
X0069128Y0109222D03*
X0061508Y0096522D03*
X0061508Y0095252D03*
X0061508Y0093982D03*
X0061508Y0092712D03*
X0061508Y0091442D03*
X0061508Y0090172D03*
X0061508Y0088902D03*
X0061508Y0087632D03*
X0061508Y0086362D03*
X0061508Y0085092D03*
X0061508Y0083822D03*
X0061508Y0082552D03*
X0061508Y0081282D03*
X0061508Y0080012D03*
X0061508Y0078742D03*
X0061508Y0077472D03*
X0061508Y0076202D03*
D13*
X0070398Y0107952D02*
X0070398Y0109222D01*
X0070398Y0105412D02*
X0070398Y0106682D01*
X0070398Y0102872D02*
X0070398Y0104142D01*
X0070398Y0100332D02*
X0070398Y0101602D01*
X0070398Y0097792D02*
X0070398Y0099062D01*
X0070398Y0095252D02*
X0070398Y0096522D01*
X0070398Y0092712D02*
X0070398Y0093982D01*
X0070398Y0090172D02*
X0070398Y0091442D01*
X0070398Y0087632D02*
X0070398Y0088902D01*
X0070398Y0085092D02*
X0070398Y0086362D01*
X0070398Y0082552D02*
X0070398Y0083822D01*
X0070398Y0080012D02*
X0070398Y0081282D01*
X0070398Y0077472D02*
X0070398Y0078742D01*
X0070398Y0074246D02*
X0070398Y0076202D01*
X0067858Y0074246D02*
X0069128Y0074246D01*
X0065318Y0074246D02*
X0066588Y0074246D01*
X0062778Y0074246D02*
X0064048Y0074246D01*
X0061508Y0076202D02*
X0061508Y0074932D01*
X0061508Y0100332D02*
X0061508Y0099062D01*
X0061508Y0102872D02*
X0061508Y0101602D01*
X0061508Y0105412D02*
X0061508Y0104142D01*
X0061508Y0107952D02*
X0061508Y0106682D01*
X0062778Y0109222D02*
X0061508Y0109222D01*
X0065318Y0109222D02*
X0064048Y0109222D01*
X0067858Y0109222D02*
X0066588Y0109222D01*
X0061508Y0093982D02*
X0061508Y0095252D01*
X0061508Y0091442D02*
X0061508Y0092712D01*
X0061508Y0088902D02*
X0061508Y0090172D01*
X0061508Y0086362D02*
X0061508Y0087632D01*
X0061508Y0083822D02*
X0061508Y0085092D01*
X0061508Y0081282D02*
X0061508Y0082552D01*
X0061508Y0078742D02*
X0061508Y0080012D01*
X0061508Y0076202D02*
X0061508Y0077472D01*
D10*
G36*
X0071265Y0073719D02*
X0060719Y0073719D01*
X0060719Y0110011D01*
X0071265Y0110011D01*
X0071265Y0073719D01*
X0071265Y0073719D01*
G37*
X0071265Y0073719D02*
X0060719Y0073719D01*
X0060719Y0110011D01*
X0071265Y0110011D01*
X0071265Y0073719D01*
X0060492Y0110238D02*
%LPD*%
G01*
D15*
X0070398Y0145968D03*
X0070398Y0144698D03*
X0070398Y0143428D03*
X0070398Y0142158D03*
X0070398Y0140888D03*
X0070398Y0139618D03*
X0070398Y0138348D03*
X0070398Y0137078D03*
X0070398Y0135808D03*
X0070398Y0134538D03*
X0070398Y0133268D03*
X0070398Y0131998D03*
X0070398Y0130728D03*
X0070398Y0129458D03*
X0070398Y0128188D03*
X0070398Y0126918D03*
X0070398Y0125648D03*
X0070398Y0124378D03*
X0070398Y0123108D03*
X0070398Y0121838D03*
X0070398Y0120568D03*
X0070398Y0119298D03*
X0070398Y0118028D03*
X0070398Y0116758D03*
X0070398Y0115488D03*
X0070398Y0114218D03*
X0070398Y0112948D03*
X0070398Y0110992D03*
X0069128Y0110992D03*
X0067858Y0110992D03*
X0066588Y0110992D03*
X0065318Y0110992D03*
X0064048Y0110992D03*
X0062778Y0110992D03*
X0061508Y0111678D03*
X0061508Y0134538D03*
X0061508Y0135808D03*
X0061508Y0137078D03*
X0061508Y0138348D03*
X0061508Y0139618D03*
X0061508Y0140888D03*
X0061508Y0142158D03*
X0061508Y0143428D03*
X0061508Y0144698D03*
X0061508Y0145968D03*
X0062778Y0145968D03*
X0064048Y0145968D03*
X0065318Y0145968D03*
X0066588Y0145968D03*
X0067858Y0145968D03*
X0069128Y0145968D03*
X0061508Y0133268D03*
X0061508Y0131998D03*
X0061508Y0130728D03*
X0061508Y0129458D03*
X0061508Y0128188D03*
X0061508Y0126918D03*
X0061508Y0125648D03*
X0061508Y0124378D03*
X0061508Y0123108D03*
X0061508Y0121838D03*
X0061508Y0120568D03*
X0061508Y0119298D03*
X0061508Y0118028D03*
X0061508Y0116758D03*
X0061508Y0115488D03*
X0061508Y0114218D03*
X0061508Y0112948D03*
D13*
X0070398Y0144698D02*
X0070398Y0145968D01*
X0070398Y0142158D02*
X0070398Y0143428D01*
X0070398Y0139618D02*
X0070398Y0140888D01*
X0070398Y0137078D02*
X0070398Y0138348D01*
X0070398Y0134538D02*
X0070398Y0135808D01*
X0070398Y0131998D02*
X0070398Y0133268D01*
X0070398Y0129458D02*
X0070398Y0130728D01*
X0070398Y0126918D02*
X0070398Y0128188D01*
X0070398Y0124378D02*
X0070398Y0125648D01*
X0070398Y0121838D02*
X0070398Y0123108D01*
X0070398Y0119298D02*
X0070398Y0120568D01*
X0070398Y0116758D02*
X0070398Y0118028D01*
X0070398Y0114218D02*
X0070398Y0115488D01*
X0070398Y0110992D02*
X0070398Y0112948D01*
X0067858Y0110992D02*
X0069128Y0110992D01*
X0065318Y0110992D02*
X0066588Y0110992D01*
X0062778Y0110992D02*
X0064048Y0110992D01*
X0061508Y0112948D02*
X0061508Y0111678D01*
X0061508Y0137078D02*
X0061508Y0135808D01*
X0061508Y0139618D02*
X0061508Y0138348D01*
X0061508Y0142158D02*
X0061508Y0140888D01*
X0061508Y0144698D02*
X0061508Y0143428D01*
X0062778Y0145968D02*
X0061508Y0145968D01*
X0065318Y0145968D02*
X0064048Y0145968D01*
X0067858Y0145968D02*
X0066588Y0145968D01*
X0061508Y0130728D02*
X0061508Y0131998D01*
X0061508Y0128188D02*
X0061508Y0129458D01*
X0061508Y0125648D02*
X0061508Y0126918D01*
X0061508Y0123108D02*
X0061508Y0124378D01*
X0061508Y0120568D02*
X0061508Y0121838D01*
X0061508Y0118028D02*
X0061508Y0119298D01*
X0061508Y0115488D02*
X0061508Y0116758D01*
X0061508Y0112948D02*
X0061508Y0114218D01*
D10*
G36*
X0071265Y0110465D02*
X0060719Y0110465D01*
X0060719Y0146757D01*
X0071265Y0146757D01*
X0071265Y0110465D01*
X0071265Y0110465D01*
G37*
X0071265Y0110465D02*
X0060719Y0110465D01*
X0060719Y0146757D01*
X0071265Y0146757D01*
X0071265Y0110465D01*
X0071492Y0000000D02*
%LPD*%
G01*
D15*
X0081398Y0035730D03*
X0081398Y0034460D03*
X0081398Y0033190D03*
X0081398Y0031920D03*
X0081398Y0030650D03*
X0081398Y0029380D03*
X0081398Y0028110D03*
X0081398Y0026840D03*
X0081398Y0025570D03*
X0081398Y0024300D03*
X0081398Y0023030D03*
X0081398Y0021760D03*
X0081398Y0020490D03*
X0081398Y0019220D03*
X0081398Y0017950D03*
X0081398Y0016680D03*
X0081398Y0015410D03*
X0081398Y0014140D03*
X0081398Y0012870D03*
X0081398Y0011600D03*
X0081398Y0010330D03*
X0081398Y0009060D03*
X0081398Y0007790D03*
X0081398Y0006520D03*
X0081398Y0005250D03*
X0081398Y0003980D03*
X0081398Y0002710D03*
X0081398Y0000754D03*
X0080128Y0000754D03*
X0078858Y0000754D03*
X0077588Y0000754D03*
X0076318Y0000754D03*
X0075048Y0000754D03*
X0073778Y0000754D03*
X0072508Y0001440D03*
X0072508Y0024300D03*
X0072508Y0025570D03*
X0072508Y0026840D03*
X0072508Y0028110D03*
X0072508Y0029380D03*
X0072508Y0030650D03*
X0072508Y0031920D03*
X0072508Y0033190D03*
X0072508Y0034460D03*
X0072508Y0035730D03*
X0073778Y0035730D03*
X0075048Y0035730D03*
X0076318Y0035730D03*
X0077588Y0035730D03*
X0078858Y0035730D03*
X0080128Y0035730D03*
X0072508Y0023030D03*
X0072508Y0021760D03*
X0072508Y0020490D03*
X0072508Y0019220D03*
X0072508Y0017950D03*
X0072508Y0016680D03*
X0072508Y0015410D03*
X0072508Y0014140D03*
X0072508Y0012870D03*
X0072508Y0011600D03*
X0072508Y0010330D03*
X0072508Y0009060D03*
X0072508Y0007790D03*
X0072508Y0006520D03*
X0072508Y0005250D03*
X0072508Y0003980D03*
X0072508Y0002710D03*
D13*
X0081398Y0034460D02*
X0081398Y0035730D01*
X0081398Y0031920D02*
X0081398Y0033190D01*
X0081398Y0029380D02*
X0081398Y0030650D01*
X0081398Y0026840D02*
X0081398Y0028110D01*
X0081398Y0024300D02*
X0081398Y0025570D01*
X0081398Y0021760D02*
X0081398Y0023030D01*
X0081398Y0019220D02*
X0081398Y0020490D01*
X0081398Y0016680D02*
X0081398Y0017950D01*
X0081398Y0014140D02*
X0081398Y0015410D01*
X0081398Y0011600D02*
X0081398Y0012870D01*
X0081398Y0009060D02*
X0081398Y0010330D01*
X0081398Y0006520D02*
X0081398Y0007790D01*
X0081398Y0003980D02*
X0081398Y0005250D01*
X0081398Y0000754D02*
X0081398Y0002710D01*
X0078858Y0000754D02*
X0080128Y0000754D01*
X0076318Y0000754D02*
X0077588Y0000754D01*
X0073778Y0000754D02*
X0075048Y0000754D01*
X0072508Y0002710D02*
X0072508Y0001440D01*
X0072508Y0026840D02*
X0072508Y0025570D01*
X0072508Y0029380D02*
X0072508Y0028110D01*
X0072508Y0031920D02*
X0072508Y0030650D01*
X0072508Y0034460D02*
X0072508Y0033190D01*
X0073778Y0035730D02*
X0072508Y0035730D01*
X0076318Y0035730D02*
X0075048Y0035730D01*
X0078858Y0035730D02*
X0077588Y0035730D01*
X0072508Y0020490D02*
X0072508Y0021760D01*
X0072508Y0017950D02*
X0072508Y0019220D01*
X0072508Y0015410D02*
X0072508Y0016680D01*
X0072508Y0012870D02*
X0072508Y0014140D01*
X0072508Y0010330D02*
X0072508Y0011600D01*
X0072508Y0007790D02*
X0072508Y0009060D01*
X0072508Y0005250D02*
X0072508Y0006520D01*
X0072508Y0002710D02*
X0072508Y0003980D01*
D10*
G36*
X0082265Y0000227D02*
X0071719Y0000227D01*
X0071719Y0036519D01*
X0082265Y0036519D01*
X0082265Y0000227D01*
X0082265Y0000227D01*
G37*
X0082265Y0000227D02*
X0071719Y0000227D01*
X0071719Y0036519D01*
X0082265Y0036519D01*
X0082265Y0000227D01*
X0071492Y0036746D02*
%LPD*%
G01*
D15*
X0081398Y0072476D03*
X0081398Y0071206D03*
X0081398Y0069936D03*
X0081398Y0068666D03*
X0081398Y0067396D03*
X0081398Y0066126D03*
X0081398Y0064856D03*
X0081398Y0063586D03*
X0081398Y0062316D03*
X0081398Y0061046D03*
X0081398Y0059776D03*
X0081398Y0058506D03*
X0081398Y0057236D03*
X0081398Y0055966D03*
X0081398Y0054696D03*
X0081398Y0053426D03*
X0081398Y0052156D03*
X0081398Y0050886D03*
X0081398Y0049616D03*
X0081398Y0048346D03*
X0081398Y0047076D03*
X0081398Y0045806D03*
X0081398Y0044536D03*
X0081398Y0043266D03*
X0081398Y0041996D03*
X0081398Y0040726D03*
X0081398Y0039456D03*
X0081398Y0037500D03*
X0080128Y0037500D03*
X0078858Y0037500D03*
X0077588Y0037500D03*
X0076318Y0037500D03*
X0075048Y0037500D03*
X0073778Y0037500D03*
X0072508Y0038186D03*
X0072508Y0061046D03*
X0072508Y0062316D03*
X0072508Y0063586D03*
X0072508Y0064856D03*
X0072508Y0066126D03*
X0072508Y0067396D03*
X0072508Y0068666D03*
X0072508Y0069936D03*
X0072508Y0071206D03*
X0072508Y0072476D03*
X0073778Y0072476D03*
X0075048Y0072476D03*
X0076318Y0072476D03*
X0077588Y0072476D03*
X0078858Y0072476D03*
X0080128Y0072476D03*
X0072508Y0059776D03*
X0072508Y0058506D03*
X0072508Y0057236D03*
X0072508Y0055966D03*
X0072508Y0054696D03*
X0072508Y0053426D03*
X0072508Y0052156D03*
X0072508Y0050886D03*
X0072508Y0049616D03*
X0072508Y0048346D03*
X0072508Y0047076D03*
X0072508Y0045806D03*
X0072508Y0044536D03*
X0072508Y0043266D03*
X0072508Y0041996D03*
X0072508Y0040726D03*
X0072508Y0039456D03*
D13*
X0081398Y0071206D02*
X0081398Y0072476D01*
X0081398Y0068666D02*
X0081398Y0069936D01*
X0081398Y0066126D02*
X0081398Y0067396D01*
X0081398Y0063586D02*
X0081398Y0064856D01*
X0081398Y0061046D02*
X0081398Y0062316D01*
X0081398Y0058506D02*
X0081398Y0059776D01*
X0081398Y0055966D02*
X0081398Y0057236D01*
X0081398Y0053426D02*
X0081398Y0054696D01*
X0081398Y0050886D02*
X0081398Y0052156D01*
X0081398Y0048346D02*
X0081398Y0049616D01*
X0081398Y0045806D02*
X0081398Y0047076D01*
X0081398Y0043266D02*
X0081398Y0044536D01*
X0081398Y0040726D02*
X0081398Y0041996D01*
X0081398Y0037500D02*
X0081398Y0039456D01*
X0078858Y0037500D02*
X0080128Y0037500D01*
X0076318Y0037500D02*
X0077588Y0037500D01*
X0073778Y0037500D02*
X0075048Y0037500D01*
X0072508Y0039456D02*
X0072508Y0038186D01*
X0072508Y0063586D02*
X0072508Y0062316D01*
X0072508Y0066126D02*
X0072508Y0064856D01*
X0072508Y0068666D02*
X0072508Y0067396D01*
X0072508Y0071206D02*
X0072508Y0069936D01*
X0073778Y0072476D02*
X0072508Y0072476D01*
X0076318Y0072476D02*
X0075048Y0072476D01*
X0078858Y0072476D02*
X0077588Y0072476D01*
X0072508Y0057236D02*
X0072508Y0058506D01*
X0072508Y0054696D02*
X0072508Y0055966D01*
X0072508Y0052156D02*
X0072508Y0053426D01*
X0072508Y0049616D02*
X0072508Y0050886D01*
X0072508Y0047076D02*
X0072508Y0048346D01*
X0072508Y0044536D02*
X0072508Y0045806D01*
X0072508Y0041996D02*
X0072508Y0043266D01*
X0072508Y0039456D02*
X0072508Y0040726D01*
D10*
G36*
X0082265Y0036973D02*
X0071719Y0036973D01*
X0071719Y0073265D01*
X0082265Y0073265D01*
X0082265Y0036973D01*
X0082265Y0036973D01*
G37*
X0082265Y0036973D02*
X0071719Y0036973D01*
X0071719Y0073265D01*
X0082265Y0073265D01*
X0082265Y0036973D01*
X0071492Y0073492D02*
%LPD*%
G01*
D15*
X0081398Y0109222D03*
X0081398Y0107952D03*
X0081398Y0106682D03*
X0081398Y0105412D03*
X0081398Y0104142D03*
X0081398Y0102872D03*
X0081398Y0101602D03*
X0081398Y0100332D03*
X0081398Y0099062D03*
X0081398Y0097792D03*
X0081398Y0096522D03*
X0081398Y0095252D03*
X0081398Y0093982D03*
X0081398Y0092712D03*
X0081398Y0091442D03*
X0081398Y0090172D03*
X0081398Y0088902D03*
X0081398Y0087632D03*
X0081398Y0086362D03*
X0081398Y0085092D03*
X0081398Y0083822D03*
X0081398Y0082552D03*
X0081398Y0081282D03*
X0081398Y0080012D03*
X0081398Y0078742D03*
X0081398Y0077472D03*
X0081398Y0076202D03*
X0081398Y0074246D03*
X0080128Y0074246D03*
X0078858Y0074246D03*
X0077588Y0074246D03*
X0076318Y0074246D03*
X0075048Y0074246D03*
X0073778Y0074246D03*
X0072508Y0074932D03*
X0072508Y0097792D03*
X0072508Y0099062D03*
X0072508Y0100332D03*
X0072508Y0101602D03*
X0072508Y0102872D03*
X0072508Y0104142D03*
X0072508Y0105412D03*
X0072508Y0106682D03*
X0072508Y0107952D03*
X0072508Y0109222D03*
X0073778Y0109222D03*
X0075048Y0109222D03*
X0076318Y0109222D03*
X0077588Y0109222D03*
X0078858Y0109222D03*
X0080128Y0109222D03*
X0072508Y0096522D03*
X0072508Y0095252D03*
X0072508Y0093982D03*
X0072508Y0092712D03*
X0072508Y0091442D03*
X0072508Y0090172D03*
X0072508Y0088902D03*
X0072508Y0087632D03*
X0072508Y0086362D03*
X0072508Y0085092D03*
X0072508Y0083822D03*
X0072508Y0082552D03*
X0072508Y0081282D03*
X0072508Y0080012D03*
X0072508Y0078742D03*
X0072508Y0077472D03*
X0072508Y0076202D03*
D13*
X0081398Y0107952D02*
X0081398Y0109222D01*
X0081398Y0105412D02*
X0081398Y0106682D01*
X0081398Y0102872D02*
X0081398Y0104142D01*
X0081398Y0100332D02*
X0081398Y0101602D01*
X0081398Y0097792D02*
X0081398Y0099062D01*
X0081398Y0095252D02*
X0081398Y0096522D01*
X0081398Y0092712D02*
X0081398Y0093982D01*
X0081398Y0090172D02*
X0081398Y0091442D01*
X0081398Y0087632D02*
X0081398Y0088902D01*
X0081398Y0085092D02*
X0081398Y0086362D01*
X0081398Y0082552D02*
X0081398Y0083822D01*
X0081398Y0080012D02*
X0081398Y0081282D01*
X0081398Y0077472D02*
X0081398Y0078742D01*
X0081398Y0074246D02*
X0081398Y0076202D01*
X0078858Y0074246D02*
X0080128Y0074246D01*
X0076318Y0074246D02*
X0077588Y0074246D01*
X0073778Y0074246D02*
X0075048Y0074246D01*
X0072508Y0076202D02*
X0072508Y0074932D01*
X0072508Y0100332D02*
X0072508Y0099062D01*
X0072508Y0102872D02*
X0072508Y0101602D01*
X0072508Y0105412D02*
X0072508Y0104142D01*
X0072508Y0107952D02*
X0072508Y0106682D01*
X0073778Y0109222D02*
X0072508Y0109222D01*
X0076318Y0109222D02*
X0075048Y0109222D01*
X0078858Y0109222D02*
X0077588Y0109222D01*
X0072508Y0093982D02*
X0072508Y0095252D01*
X0072508Y0091442D02*
X0072508Y0092712D01*
X0072508Y0088902D02*
X0072508Y0090172D01*
X0072508Y0086362D02*
X0072508Y0087632D01*
X0072508Y0083822D02*
X0072508Y0085092D01*
X0072508Y0081282D02*
X0072508Y0082552D01*
X0072508Y0078742D02*
X0072508Y0080012D01*
X0072508Y0076202D02*
X0072508Y0077472D01*
D10*
G36*
X0082265Y0073719D02*
X0071719Y0073719D01*
X0071719Y0110011D01*
X0082265Y0110011D01*
X0082265Y0073719D01*
X0082265Y0073719D01*
G37*
X0082265Y0073719D02*
X0071719Y0073719D01*
X0071719Y0110011D01*
X0082265Y0110011D01*
X0082265Y0073719D01*
X0071492Y0110238D02*
%LPD*%
G01*
D15*
X0081398Y0145968D03*
X0081398Y0144698D03*
X0081398Y0143428D03*
X0081398Y0142158D03*
X0081398Y0140888D03*
X0081398Y0139618D03*
X0081398Y0138348D03*
X0081398Y0137078D03*
X0081398Y0135808D03*
X0081398Y0134538D03*
X0081398Y0133268D03*
X0081398Y0131998D03*
X0081398Y0130728D03*
X0081398Y0129458D03*
X0081398Y0128188D03*
X0081398Y0126918D03*
X0081398Y0125648D03*
X0081398Y0124378D03*
X0081398Y0123108D03*
X0081398Y0121838D03*
X0081398Y0120568D03*
X0081398Y0119298D03*
X0081398Y0118028D03*
X0081398Y0116758D03*
X0081398Y0115488D03*
X0081398Y0114218D03*
X0081398Y0112948D03*
X0081398Y0110992D03*
X0080128Y0110992D03*
X0078858Y0110992D03*
X0077588Y0110992D03*
X0076318Y0110992D03*
X0075048Y0110992D03*
X0073778Y0110992D03*
X0072508Y0111678D03*
X0072508Y0134538D03*
X0072508Y0135808D03*
X0072508Y0137078D03*
X0072508Y0138348D03*
X0072508Y0139618D03*
X0072508Y0140888D03*
X0072508Y0142158D03*
X0072508Y0143428D03*
X0072508Y0144698D03*
X0072508Y0145968D03*
X0073778Y0145968D03*
X0075048Y0145968D03*
X0076318Y0145968D03*
X0077588Y0145968D03*
X0078858Y0145968D03*
X0080128Y0145968D03*
X0072508Y0133268D03*
X0072508Y0131998D03*
X0072508Y0130728D03*
X0072508Y0129458D03*
X0072508Y0128188D03*
X0072508Y0126918D03*
X0072508Y0125648D03*
X0072508Y0124378D03*
X0072508Y0123108D03*
X0072508Y0121838D03*
X0072508Y0120568D03*
X0072508Y0119298D03*
X0072508Y0118028D03*
X0072508Y0116758D03*
X0072508Y0115488D03*
X0072508Y0114218D03*
X0072508Y0112948D03*
D13*
X0081398Y0144698D02*
X0081398Y0145968D01*
X0081398Y0142158D02*
X0081398Y0143428D01*
X0081398Y0139618D02*
X0081398Y0140888D01*
X0081398Y0137078D02*
X0081398Y0138348D01*
X0081398Y0134538D02*
X0081398Y0135808D01*
X0081398Y0131998D02*
X0081398Y0133268D01*
X0081398Y0129458D02*
X0081398Y0130728D01*
X0081398Y0126918D02*
X0081398Y0128188D01*
X0081398Y0124378D02*
X0081398Y0125648D01*
X0081398Y0121838D02*
X0081398Y0123108D01*
X0081398Y0119298D02*
X0081398Y0120568D01*
X0081398Y0116758D02*
X0081398Y0118028D01*
X0081398Y0114218D02*
X0081398Y0115488D01*
X0081398Y0110992D02*
X0081398Y0112948D01*
X0078858Y0110992D02*
X0080128Y0110992D01*
X0076318Y0110992D02*
X0077588Y0110992D01*
X0073778Y0110992D02*
X0075048Y0110992D01*
X0072508Y0112948D02*
X0072508Y0111678D01*
X0072508Y0137078D02*
X0072508Y0135808D01*
X0072508Y0139618D02*
X0072508Y0138348D01*
X0072508Y0142158D02*
X0072508Y0140888D01*
X0072508Y0144698D02*
X0072508Y0143428D01*
X0073778Y0145968D02*
X0072508Y0145968D01*
X0076318Y0145968D02*
X0075048Y0145968D01*
X0078858Y0145968D02*
X0077588Y0145968D01*
X0072508Y0130728D02*
X0072508Y0131998D01*
X0072508Y0128188D02*
X0072508Y0129458D01*
X0072508Y0125648D02*
X0072508Y0126918D01*
X0072508Y0123108D02*
X0072508Y0124378D01*
X0072508Y0120568D02*
X0072508Y0121838D01*
X0072508Y0118028D02*
X0072508Y0119298D01*
X0072508Y0115488D02*
X0072508Y0116758D01*
X0072508Y0112948D02*
X0072508Y0114218D01*
D10*
G36*
X0082265Y0110465D02*
X0071719Y0110465D01*
X0071719Y0146757D01*
X0082265Y0146757D01*
X0082265Y0110465D01*
X0082265Y0110465D01*
G37*
X0082265Y0110465D02*
X0071719Y0110465D01*
X0071719Y0146757D01*
X0082265Y0146757D01*
X0082265Y0110465D01*
M02*
