G75*
G71*
%MOMM*%
%OFA0B0*%
%FSLAX53Y53*%
%IPPOS*%
%LPD*%
%ADD11C,0.40000*%
%ADD16C,0.30000*%
%ADD25C,0.25400*%
%ADD31R,1.52400X1.52400*%
%ADD39C,0.60000*%
%ADD40R,5.00000X4.00000*%
%ADD41C,0.80000*%
%ADD43C,1.52400*%
%ADD54C,0.25000*%
%ADD63C,6.00000*%
X0000000Y0000000D02*
%LPD*%
G01*
D43*
X0015026Y0029631D03*
X0020026Y0029631D03*
D40*
X0025894Y0017272D03*
X0055894Y0017272D03*
D31*
X0042926Y0003556D03*
X0042926Y0006096D03*
X0045466Y0003556D03*
X0045466Y0006096D03*
X0048006Y0003556D03*
X0048006Y0006096D03*
X0052578Y0029718D03*
X0052578Y0027178D03*
X0055118Y0027178D03*
X0055118Y0029718D03*
X0057658Y0029718D03*
X0057658Y0027178D03*
X0048006Y0036576D03*
X0048006Y0034036D03*
X0045466Y0034036D03*
X0045466Y0036576D03*
X0042926Y0034036D03*
X0042926Y0036576D03*
D63*
X0004826Y0035306D03*
X0055626Y0035306D03*
X0055626Y0004826D03*
X0004826Y0004826D03*
D31*
X0003556Y0027686D03*
X0006096Y0027686D03*
X0003556Y0025146D03*
X0006096Y0025146D03*
X0003556Y0022606D03*
X0006096Y0022606D03*
X0006096Y0017526D03*
X0003556Y0017526D03*
D63*
X0035306Y0035306D03*
X0035306Y0004826D03*
D31*
X0012446Y0036576D03*
X0014986Y0036576D03*
X0012446Y0034036D03*
X0014986Y0034036D03*
D41*
X0027940Y0026670D03*
X0029210Y0026670D03*
X0030353Y0026670D03*
X0033782Y0027305D03*
X0032893Y0028194D03*
X0038100Y0026416D03*
X0039751Y0026416D03*
X0041783Y0026416D03*
X0050673Y0028194D03*
X0049784Y0029083D03*
X0048895Y0029845D03*
X0048006Y0030226D03*
X0048006Y0031242D03*
X0048006Y0032258D03*
X0043561Y0032131D03*
X0042418Y0032131D03*
X0041402Y0032131D03*
X0040386Y0032258D03*
X0040005Y0011176D03*
X0040005Y0010160D03*
X0038862Y0010160D03*
X0037719Y0010160D03*
X0037719Y0011176D03*
X0038862Y0011176D03*
X0053848Y0012573D03*
X0052578Y0012573D03*
X0051308Y0012573D03*
X0049911Y0012446D03*
X0029845Y0020320D03*
X0029845Y0019050D03*
X0017526Y0020320D03*
X0019304Y0020320D03*
X0020955Y0020320D03*
X0020320Y0019431D03*
X0019050Y0018923D03*
X0017780Y0019050D03*
X0016764Y0019050D03*
X0013081Y0013208D03*
X0014351Y0013208D03*
X0015621Y0013208D03*
X0016764Y0013208D03*
X0017780Y0013208D03*
X0010160Y0018834D03*
X0008382Y0019050D03*
X0010795Y0019558D03*
X0009652Y0019558D03*
X0050800Y0021336D03*
X0049657Y0021336D03*
X0048641Y0025781D03*
X0048006Y0026670D03*
X0047625Y0025654D03*
X0046863Y0026543D03*
X0045974Y0022098D03*
X0037846Y0017653D03*
X0037846Y0018542D03*
X0033528Y0017526D03*
X0032258Y0017526D03*
X0030988Y0017526D03*
X0029845Y0017780D03*
X0037973Y0025019D03*
X0037068Y0025019D03*
X0016383Y0028067D03*
X0015113Y0027432D03*
X0013970Y0027940D03*
X0008509Y0032131D03*
X0010033Y0032131D03*
X0036068Y0016256D03*
X0036068Y0028702D03*
X0038734Y0020320D03*
X0048768Y0018542D03*
X0040894Y0022352D03*
X0013462Y0017018D03*
X0038316Y0022446D03*
X0023876Y0027940D03*
X0013462Y0024511D03*
X0021336Y0018034D03*
D11*
X0029210Y0026670D02*
X0027940Y0026670D01*
X0030988Y0027305D02*
X0030353Y0026670D01*
X0033782Y0027305D02*
X0030988Y0027305D01*
X0032893Y0028194D02*
X0033782Y0027305D01*
X0041783Y0026416D02*
X0039751Y0026416D01*
X0049784Y0029083D02*
X0050673Y0028194D01*
X0048514Y0030226D02*
X0048895Y0029845D01*
X0048006Y0030226D02*
X0048514Y0030226D01*
X0048006Y0032258D02*
X0048006Y0031242D01*
X0042418Y0032131D02*
X0043561Y0032131D01*
X0041275Y0032258D02*
X0041402Y0032131D01*
X0040386Y0032258D02*
X0041275Y0032258D01*
X0040005Y0010160D02*
X0040005Y0011176D01*
X0037719Y0010160D02*
X0038862Y0010160D01*
X0038862Y0011176D02*
X0037719Y0011176D01*
X0052578Y0012573D02*
X0053848Y0012573D01*
X0051181Y0012446D02*
X0051308Y0012573D01*
X0049911Y0012446D02*
X0051181Y0012446D01*
X0029845Y0019050D02*
X0029845Y0020320D01*
X0019304Y0020320D02*
X0017526Y0020320D01*
X0020320Y0019685D02*
X0020955Y0020320D01*
X0020320Y0019431D02*
X0020320Y0019685D01*
X0018923Y0019050D02*
X0019050Y0018923D01*
X0017780Y0019050D02*
X0018923Y0019050D01*
X0016764Y0015748D02*
X0016764Y0019050D01*
X0014624Y0013608D02*
X0016764Y0015748D01*
X0013081Y0013208D02*
X0013481Y0013608D01*
X0013481Y0013608D02*
X0014624Y0013608D01*
X0015621Y0013208D02*
X0014351Y0013208D01*
X0017780Y0013208D02*
X0016764Y0013208D01*
X0008890Y0019558D02*
X0008382Y0019050D01*
X0010795Y0019558D02*
X0008890Y0019558D01*
X0006096Y0021444D02*
X0007982Y0019558D01*
X0006096Y0022606D02*
X0006096Y0021444D01*
X0007982Y0019558D02*
X0009652Y0019558D01*
D54*
X0049657Y0021336D02*
X0050800Y0021336D01*
X0048006Y0026416D02*
X0048641Y0025781D01*
X0048006Y0026670D02*
X0048006Y0026416D01*
X0046863Y0026416D02*
X0047625Y0025654D01*
X0046863Y0026543D02*
X0046863Y0026416D01*
X0037846Y0018542D02*
X0037846Y0017653D01*
X0032258Y0017526D02*
X0033528Y0017526D01*
X0030734Y0017780D02*
X0030988Y0017526D01*
X0029845Y0017780D02*
X0030734Y0017780D01*
X0037068Y0025019D02*
X0037973Y0025019D01*
X0014605Y0027940D02*
X0015113Y0027432D01*
X0013970Y0027940D02*
X0014605Y0027940D01*
X0010033Y0032131D02*
X0008509Y0032131D01*
D41*
X0036068Y0028702D02*
X0036068Y0016256D01*
D11*
X0048768Y0018542D02*
X0040512Y0018542D01*
X0040512Y0018542D02*
X0038734Y0020320D01*
X0040894Y0022352D02*
X0045466Y0026924D01*
X0045466Y0026924D02*
X0045466Y0034036D01*
X0013462Y0024511D02*
X0013462Y0017018D01*
X0041204Y0019558D02*
X0038316Y0022446D01*
X0050708Y0019558D02*
X0041204Y0019558D01*
X0055894Y0017272D02*
X0052994Y0017272D01*
X0052994Y0017272D02*
X0050708Y0019558D01*
X0020447Y0024511D02*
X0023876Y0027940D01*
X0013462Y0024511D02*
X0020447Y0024511D01*
X0022098Y0017272D02*
X0021336Y0018034D01*
X0025894Y0017272D02*
X0022098Y0017272D01*
D25*
G36*
X0059717Y0000735D02*
X0000735Y0000735D01*
X0000735Y0006858D01*
X0044057Y0006858D01*
X0044057Y0005334D01*
X0044106Y0005086D01*
X0044246Y0004876D01*
X0044321Y0004826D01*
X0044246Y0004776D01*
X0044106Y0004566D01*
X0044057Y0004318D01*
X0044057Y0002794D01*
X0044106Y0002546D01*
X0044246Y0002336D01*
X0044456Y0002196D01*
X0044704Y0002147D01*
X0046228Y0002147D01*
X0046476Y0002196D01*
X0046686Y0002336D01*
X0046826Y0002546D01*
X0046875Y0002794D01*
X0046875Y0004318D01*
X0046826Y0004566D01*
X0046686Y0004776D01*
X0046611Y0004826D01*
X0046686Y0004876D01*
X0046826Y0005086D01*
X0046875Y0005334D01*
X0046875Y0006858D01*
X0046826Y0007106D01*
X0046686Y0007316D01*
X0046476Y0007456D01*
X0046228Y0007505D01*
X0044704Y0007505D01*
X0044456Y0007456D01*
X0044246Y0007316D01*
X0044106Y0007106D01*
X0044057Y0006858D01*
X0000735Y0006858D01*
X0000735Y0018288D01*
X0002147Y0018288D01*
X0002147Y0016764D01*
X0002196Y0016516D01*
X0002336Y0016306D01*
X0002546Y0016166D01*
X0002794Y0016117D01*
X0004318Y0016117D01*
X0004566Y0016166D01*
X0004776Y0016306D01*
X0004826Y0016381D01*
X0004876Y0016306D01*
X0005086Y0016166D01*
X0005334Y0016117D01*
X0006858Y0016117D01*
X0007106Y0016166D01*
X0007316Y0016306D01*
X0007456Y0016516D01*
X0007505Y0016764D01*
X0007505Y0018288D01*
X0007456Y0018536D01*
X0007316Y0018746D01*
X0007106Y0018886D01*
X0006858Y0018935D01*
X0005334Y0018935D01*
X0005086Y0018886D01*
X0004876Y0018746D01*
X0004826Y0018671D01*
X0004776Y0018746D01*
X0004566Y0018886D01*
X0004318Y0018935D01*
X0002794Y0018935D01*
X0002546Y0018886D01*
X0002336Y0018746D01*
X0002196Y0018536D01*
X0002147Y0018288D01*
X0000735Y0018288D01*
X0000735Y0025908D01*
X0002147Y0025908D01*
X0002147Y0024384D01*
X0002196Y0024136D01*
X0002336Y0023926D01*
X0002546Y0023786D01*
X0002794Y0023737D01*
X0004318Y0023737D01*
X0004566Y0023786D01*
X0004776Y0023926D01*
X0004826Y0024001D01*
X0004876Y0023926D01*
X0005086Y0023786D01*
X0005334Y0023737D01*
X0006858Y0023737D01*
X0007106Y0023786D01*
X0007316Y0023926D01*
X0007456Y0024136D01*
X0007505Y0024384D01*
X0007505Y0024717D01*
X0012427Y0024717D01*
X0012427Y0024305D01*
X0012585Y0023925D01*
X0012627Y0023882D01*
X0012627Y0017647D01*
X0012585Y0017604D01*
X0012427Y0017224D01*
X0012427Y0016812D01*
X0012585Y0016432D01*
X0012876Y0016141D01*
X0013256Y0015983D01*
X0013668Y0015983D01*
X0014048Y0016141D01*
X0014339Y0016432D01*
X0014497Y0016812D01*
X0014497Y0017224D01*
X0014339Y0017604D01*
X0014297Y0017647D01*
X0014297Y0018240D01*
X0020301Y0018240D01*
X0020301Y0017828D01*
X0020459Y0017448D01*
X0020750Y0017157D01*
X0021130Y0016999D01*
X0021190Y0016999D01*
X0021449Y0016740D01*
X0021496Y0016670D01*
X0021772Y0016485D01*
X0022016Y0016437D01*
X0022098Y0016421D01*
X0022180Y0016437D01*
X0022747Y0016437D01*
X0022747Y0015272D01*
X0022796Y0015024D01*
X0022936Y0014814D01*
X0023146Y0014674D01*
X0023394Y0014625D01*
X0028394Y0014625D01*
X0028642Y0014674D01*
X0028852Y0014814D01*
X0028992Y0015024D01*
X0029041Y0015272D01*
X0029041Y0019272D01*
X0028992Y0019520D01*
X0028852Y0019730D01*
X0028642Y0019870D01*
X0028394Y0019919D01*
X0023394Y0019919D01*
X0023146Y0019870D01*
X0022936Y0019730D01*
X0022796Y0019520D01*
X0022747Y0019272D01*
X0022747Y0018107D01*
X0022444Y0018107D01*
X0022371Y0018180D01*
X0022371Y0018240D01*
X0022213Y0018620D01*
X0021922Y0018911D01*
X0021542Y0019069D01*
X0021130Y0019069D01*
X0020750Y0018911D01*
X0020459Y0018620D01*
X0020301Y0018240D01*
X0014297Y0018240D01*
X0014297Y0023676D01*
X0020365Y0023676D01*
X0020447Y0023660D01*
X0020529Y0023676D01*
X0020529Y0023676D01*
X0020773Y0023724D01*
X0021049Y0023909D01*
X0021096Y0023979D01*
X0024022Y0026905D01*
X0024082Y0026905D01*
X0024462Y0027063D01*
X0024753Y0027354D01*
X0024911Y0027734D01*
X0024911Y0028146D01*
X0024753Y0028526D01*
X0024462Y0028817D01*
X0024244Y0028908D01*
X0035033Y0028908D01*
X0035033Y0028804D01*
X0035033Y0016462D01*
X0035033Y0016462D01*
X0035033Y0016050D01*
X0035073Y0015954D01*
X0035093Y0015852D01*
X0035151Y0015766D01*
X0035191Y0015670D01*
X0035264Y0015596D01*
X0035322Y0015510D01*
X0035408Y0015452D01*
X0035482Y0015379D01*
X0035578Y0015339D01*
X0035664Y0015281D01*
X0035766Y0015261D01*
X0035862Y0015221D01*
X0035966Y0015221D01*
X0036068Y0015201D01*
X0036170Y0015221D01*
X0036274Y0015221D01*
X0036370Y0015261D01*
X0036472Y0015281D01*
X0036558Y0015339D01*
X0036654Y0015379D01*
X0036728Y0015452D01*
X0036814Y0015510D01*
X0036872Y0015596D01*
X0036945Y0015670D01*
X0036985Y0015766D01*
X0037043Y0015852D01*
X0037063Y0015954D01*
X0037103Y0016050D01*
X0037103Y0022652D01*
X0037281Y0022652D01*
X0037281Y0022240D01*
X0037439Y0021859D01*
X0037730Y0021568D01*
X0038110Y0021411D01*
X0038170Y0021411D01*
X0038314Y0021266D01*
X0038148Y0021197D01*
X0037857Y0020906D01*
X0037699Y0020526D01*
X0037699Y0020114D01*
X0037857Y0019734D01*
X0038148Y0019443D01*
X0038528Y0019285D01*
X0038588Y0019285D01*
X0039863Y0018010D01*
X0039910Y0017940D01*
X0040186Y0017755D01*
X0040430Y0017707D01*
X0040512Y0017691D01*
X0040594Y0017707D01*
X0048139Y0017707D01*
X0048182Y0017665D01*
X0048562Y0017507D01*
X0048974Y0017507D01*
X0049354Y0017665D01*
X0049645Y0017956D01*
X0049803Y0018336D01*
X0049803Y0018723D01*
X0050362Y0018723D01*
X0052345Y0016740D01*
X0052392Y0016670D01*
X0052668Y0016485D01*
X0052747Y0016470D01*
X0052747Y0015272D01*
X0052796Y0015024D01*
X0052936Y0014814D01*
X0053146Y0014674D01*
X0053394Y0014625D01*
X0058394Y0014625D01*
X0058642Y0014674D01*
X0058852Y0014814D01*
X0058992Y0015024D01*
X0059041Y0015272D01*
X0059041Y0019272D01*
X0058992Y0019520D01*
X0058852Y0019730D01*
X0058642Y0019870D01*
X0058394Y0019919D01*
X0053394Y0019919D01*
X0053146Y0019870D01*
X0052936Y0019730D01*
X0052796Y0019520D01*
X0052747Y0019272D01*
X0052747Y0018700D01*
X0051357Y0020090D01*
X0051310Y0020160D01*
X0051034Y0020345D01*
X0050790Y0020393D01*
X0050790Y0020393D01*
X0050708Y0020409D01*
X0050626Y0020393D01*
X0041550Y0020393D01*
X0040581Y0021361D01*
X0040688Y0021317D01*
X0041100Y0021317D01*
X0041480Y0021475D01*
X0041771Y0021766D01*
X0041929Y0022146D01*
X0041929Y0022206D01*
X0045998Y0026275D01*
X0046068Y0026322D01*
X0046131Y0026416D01*
X0046253Y0026598D01*
X0046253Y0026598D01*
X0046301Y0026842D01*
X0046301Y0026842D01*
X0046317Y0026924D01*
X0046301Y0027006D01*
X0046301Y0030480D01*
X0053709Y0030480D01*
X0053709Y0028956D01*
X0053758Y0028708D01*
X0053898Y0028498D01*
X0053973Y0028448D01*
X0053898Y0028398D01*
X0053758Y0028188D01*
X0053709Y0027940D01*
X0053709Y0026416D01*
X0053758Y0026168D01*
X0053898Y0025958D01*
X0054108Y0025818D01*
X0054356Y0025769D01*
X0055880Y0025769D01*
X0056128Y0025818D01*
X0056338Y0025958D01*
X0056478Y0026168D01*
X0056527Y0026416D01*
X0056527Y0027940D01*
X0056478Y0028188D01*
X0056338Y0028398D01*
X0056263Y0028448D01*
X0056338Y0028498D01*
X0056478Y0028708D01*
X0056527Y0028956D01*
X0056527Y0030480D01*
X0056478Y0030728D01*
X0056338Y0030938D01*
X0056128Y0031078D01*
X0055880Y0031127D01*
X0054356Y0031127D01*
X0054108Y0031078D01*
X0053898Y0030938D01*
X0053758Y0030728D01*
X0053709Y0030480D01*
X0046301Y0030480D01*
X0046301Y0032641D01*
X0046476Y0032676D01*
X0046686Y0032816D01*
X0046826Y0033026D01*
X0046875Y0033274D01*
X0046875Y0034798D01*
X0046826Y0035046D01*
X0046686Y0035256D01*
X0046611Y0035306D01*
X0046686Y0035356D01*
X0046826Y0035566D01*
X0046875Y0035814D01*
X0046875Y0037338D01*
X0046826Y0037586D01*
X0046686Y0037796D01*
X0046476Y0037936D01*
X0046228Y0037985D01*
X0044704Y0037985D01*
X0044456Y0037936D01*
X0044246Y0037796D01*
X0044106Y0037586D01*
X0044057Y0037338D01*
X0044057Y0035814D01*
X0044106Y0035566D01*
X0044246Y0035356D01*
X0044321Y0035306D01*
X0044246Y0035256D01*
X0044106Y0035046D01*
X0044057Y0034798D01*
X0044057Y0033274D01*
X0044106Y0033026D01*
X0044246Y0032816D01*
X0044456Y0032676D01*
X0044631Y0032641D01*
X0044631Y0027270D01*
X0040748Y0023387D01*
X0040688Y0023387D01*
X0040308Y0023229D01*
X0040017Y0022938D01*
X0039859Y0022558D01*
X0039859Y0022146D01*
X0039903Y0022039D01*
X0039351Y0022592D01*
X0039351Y0022652D01*
X0039193Y0023032D01*
X0038902Y0023323D01*
X0038522Y0023481D01*
X0038110Y0023481D01*
X0037730Y0023323D01*
X0037439Y0023032D01*
X0037281Y0022652D01*
X0037103Y0022652D01*
X0037103Y0028908D01*
X0037063Y0029004D01*
X0037043Y0029106D01*
X0036985Y0029192D01*
X0036945Y0029288D01*
X0036872Y0029362D01*
X0036814Y0029448D01*
X0036728Y0029506D01*
X0036654Y0029579D01*
X0036558Y0029619D01*
X0036472Y0029677D01*
X0036370Y0029697D01*
X0036274Y0029737D01*
X0036170Y0029737D01*
X0036068Y0029757D01*
X0035966Y0029737D01*
X0035862Y0029737D01*
X0035766Y0029697D01*
X0035664Y0029677D01*
X0035578Y0029619D01*
X0035482Y0029579D01*
X0035408Y0029506D01*
X0035322Y0029448D01*
X0035264Y0029362D01*
X0035191Y0029288D01*
X0035151Y0029192D01*
X0035093Y0029106D01*
X0035073Y0029004D01*
X0035033Y0028908D01*
X0024244Y0028908D01*
X0024082Y0028975D01*
X0023670Y0028975D01*
X0023290Y0028817D01*
X0022999Y0028526D01*
X0022841Y0028146D01*
X0022841Y0028086D01*
X0020101Y0025346D01*
X0014091Y0025346D01*
X0014048Y0025388D01*
X0013668Y0025546D01*
X0013256Y0025546D01*
X0012876Y0025388D01*
X0012585Y0025097D01*
X0012427Y0024717D01*
X0007505Y0024717D01*
X0007505Y0025908D01*
X0007456Y0026156D01*
X0007316Y0026366D01*
X0007106Y0026506D01*
X0006858Y0026555D01*
X0005334Y0026555D01*
X0005086Y0026506D01*
X0004876Y0026366D01*
X0004826Y0026291D01*
X0004776Y0026366D01*
X0004566Y0026506D01*
X0004318Y0026555D01*
X0002794Y0026555D01*
X0002546Y0026506D01*
X0002336Y0026366D01*
X0002196Y0026156D01*
X0002147Y0025908D01*
X0000735Y0025908D01*
X0000735Y0029909D01*
X0013629Y0029909D01*
X0013629Y0029353D01*
X0013842Y0028840D01*
X0014235Y0028447D01*
X0014748Y0028234D01*
X0015304Y0028234D01*
X0015817Y0028447D01*
X0016210Y0028840D01*
X0016423Y0029353D01*
X0016423Y0029909D01*
X0018629Y0029909D01*
X0018629Y0029353D01*
X0018842Y0028840D01*
X0019235Y0028447D01*
X0019748Y0028234D01*
X0020304Y0028234D01*
X0020817Y0028447D01*
X0021210Y0028840D01*
X0021423Y0029353D01*
X0021423Y0029909D01*
X0021210Y0030422D01*
X0020817Y0030815D01*
X0020304Y0031028D01*
X0019748Y0031028D01*
X0019235Y0030815D01*
X0018842Y0030422D01*
X0018629Y0029909D01*
X0016423Y0029909D01*
X0016210Y0030422D01*
X0015817Y0030815D01*
X0015304Y0031028D01*
X0014748Y0031028D01*
X0014235Y0030815D01*
X0013842Y0030422D01*
X0013629Y0029909D01*
X0000735Y0029909D01*
X0000735Y0037338D01*
X0011037Y0037338D01*
X0011037Y0035814D01*
X0011086Y0035566D01*
X0011226Y0035356D01*
X0011301Y0035306D01*
X0011226Y0035256D01*
X0011086Y0035046D01*
X0011037Y0034798D01*
X0011037Y0033274D01*
X0011086Y0033026D01*
X0011226Y0032816D01*
X0011436Y0032676D01*
X0011684Y0032627D01*
X0013208Y0032627D01*
X0013456Y0032676D01*
X0013666Y0032816D01*
X0013716Y0032891D01*
X0013766Y0032816D01*
X0013976Y0032676D01*
X0014224Y0032627D01*
X0015748Y0032627D01*
X0015996Y0032676D01*
X0016206Y0032816D01*
X0016346Y0033026D01*
X0016395Y0033274D01*
X0016395Y0034798D01*
X0016346Y0035046D01*
X0016206Y0035256D01*
X0016131Y0035306D01*
X0016206Y0035356D01*
X0016346Y0035566D01*
X0016395Y0035814D01*
X0016395Y0037338D01*
X0016346Y0037586D01*
X0016206Y0037796D01*
X0015996Y0037936D01*
X0015748Y0037985D01*
X0014224Y0037985D01*
X0013976Y0037936D01*
X0013766Y0037796D01*
X0013716Y0037721D01*
X0013666Y0037796D01*
X0013456Y0037936D01*
X0013208Y0037985D01*
X0011684Y0037985D01*
X0011436Y0037936D01*
X0011226Y0037796D01*
X0011086Y0037586D01*
X0011037Y0037338D01*
X0000735Y0037338D01*
X0000735Y0039397D01*
X0059717Y0039397D01*
X0059717Y0000735D01*
X0059717Y0000735D01*
G37*
X0059717Y0000735D02*
X0000735Y0000735D01*
X0000735Y0006858D01*
X0044057Y0006858D01*
X0044057Y0005334D01*
X0044106Y0005086D01*
X0044246Y0004876D01*
X0044321Y0004826D01*
X0044246Y0004776D01*
X0044106Y0004566D01*
X0044057Y0004318D01*
X0044057Y0002794D01*
X0044106Y0002546D01*
X0044246Y0002336D01*
X0044456Y0002196D01*
X0044704Y0002147D01*
X0046228Y0002147D01*
X0046476Y0002196D01*
X0046686Y0002336D01*
X0046826Y0002546D01*
X0046875Y0002794D01*
X0046875Y0004318D01*
X0046826Y0004566D01*
X0046686Y0004776D01*
X0046611Y0004826D01*
X0046686Y0004876D01*
X0046826Y0005086D01*
X0046875Y0005334D01*
X0046875Y0006858D01*
X0046826Y0007106D01*
X0046686Y0007316D01*
X0046476Y0007456D01*
X0046228Y0007505D01*
X0044704Y0007505D01*
X0044456Y0007456D01*
X0044246Y0007316D01*
X0044106Y0007106D01*
X0044057Y0006858D01*
X0000735Y0006858D01*
X0000735Y0018288D01*
X0002147Y0018288D01*
X0002147Y0016764D01*
X0002196Y0016516D01*
X0002336Y0016306D01*
X0002546Y0016166D01*
X0002794Y0016117D01*
X0004318Y0016117D01*
X0004566Y0016166D01*
X0004776Y0016306D01*
X0004826Y0016381D01*
X0004876Y0016306D01*
X0005086Y0016166D01*
X0005334Y0016117D01*
X0006858Y0016117D01*
X0007106Y0016166D01*
X0007316Y0016306D01*
X0007456Y0016516D01*
X0007505Y0016764D01*
X0007505Y0018288D01*
X0007456Y0018536D01*
X0007316Y0018746D01*
X0007106Y0018886D01*
X0006858Y0018935D01*
X0005334Y0018935D01*
X0005086Y0018886D01*
X0004876Y0018746D01*
X0004826Y0018671D01*
X0004776Y0018746D01*
X0004566Y0018886D01*
X0004318Y0018935D01*
X0002794Y0018935D01*
X0002546Y0018886D01*
X0002336Y0018746D01*
X0002196Y0018536D01*
X0002147Y0018288D01*
X0000735Y0018288D01*
X0000735Y0025908D01*
X0002147Y0025908D01*
X0002147Y0024384D01*
X0002196Y0024136D01*
X0002336Y0023926D01*
X0002546Y0023786D01*
X0002794Y0023737D01*
X0004318Y0023737D01*
X0004566Y0023786D01*
X0004776Y0023926D01*
X0004826Y0024001D01*
X0004876Y0023926D01*
X0005086Y0023786D01*
X0005334Y0023737D01*
X0006858Y0023737D01*
X0007106Y0023786D01*
X0007316Y0023926D01*
X0007456Y0024136D01*
X0007505Y0024384D01*
X0007505Y0024717D01*
X0012427Y0024717D01*
X0012427Y0024305D01*
X0012585Y0023925D01*
X0012627Y0023882D01*
X0012627Y0017647D01*
X0012585Y0017604D01*
X0012427Y0017224D01*
X0012427Y0016812D01*
X0012585Y0016432D01*
X0012876Y0016141D01*
X0013256Y0015983D01*
X0013668Y0015983D01*
X0014048Y0016141D01*
X0014339Y0016432D01*
X0014497Y0016812D01*
X0014497Y0017224D01*
X0014339Y0017604D01*
X0014297Y0017647D01*
X0014297Y0018240D01*
X0020301Y0018240D01*
X0020301Y0017828D01*
X0020459Y0017448D01*
X0020750Y0017157D01*
X0021130Y0016999D01*
X0021190Y0016999D01*
X0021449Y0016740D01*
X0021496Y0016670D01*
X0021772Y0016485D01*
X0022016Y0016437D01*
X0022098Y0016421D01*
X0022180Y0016437D01*
X0022747Y0016437D01*
X0022747Y0015272D01*
X0022796Y0015024D01*
X0022936Y0014814D01*
X0023146Y0014674D01*
X0023394Y0014625D01*
X0028394Y0014625D01*
X0028642Y0014674D01*
X0028852Y0014814D01*
X0028992Y0015024D01*
X0029041Y0015272D01*
X0029041Y0019272D01*
X0028992Y0019520D01*
X0028852Y0019730D01*
X0028642Y0019870D01*
X0028394Y0019919D01*
X0023394Y0019919D01*
X0023146Y0019870D01*
X0022936Y0019730D01*
X0022796Y0019520D01*
X0022747Y0019272D01*
X0022747Y0018107D01*
X0022444Y0018107D01*
X0022371Y0018180D01*
X0022371Y0018240D01*
X0022213Y0018620D01*
X0021922Y0018911D01*
X0021542Y0019069D01*
X0021130Y0019069D01*
X0020750Y0018911D01*
X0020459Y0018620D01*
X0020301Y0018240D01*
X0014297Y0018240D01*
X0014297Y0023676D01*
X0020365Y0023676D01*
X0020447Y0023660D01*
X0020529Y0023676D01*
X0020529Y0023676D01*
X0020773Y0023724D01*
X0021049Y0023909D01*
X0021096Y0023979D01*
X0024022Y0026905D01*
X0024082Y0026905D01*
X0024462Y0027063D01*
X0024753Y0027354D01*
X0024911Y0027734D01*
X0024911Y0028146D01*
X0024753Y0028526D01*
X0024462Y0028817D01*
X0024244Y0028908D01*
X0035033Y0028908D01*
X0035033Y0028804D01*
X0035033Y0016462D01*
X0035033Y0016462D01*
X0035033Y0016050D01*
X0035073Y0015954D01*
X0035093Y0015852D01*
X0035151Y0015766D01*
X0035191Y0015670D01*
X0035264Y0015596D01*
X0035322Y0015510D01*
X0035408Y0015452D01*
X0035482Y0015379D01*
X0035578Y0015339D01*
X0035664Y0015281D01*
X0035766Y0015261D01*
X0035862Y0015221D01*
X0035966Y0015221D01*
X0036068Y0015201D01*
X0036170Y0015221D01*
X0036274Y0015221D01*
X0036370Y0015261D01*
X0036472Y0015281D01*
X0036558Y0015339D01*
X0036654Y0015379D01*
X0036728Y0015452D01*
X0036814Y0015510D01*
X0036872Y0015596D01*
X0036945Y0015670D01*
X0036985Y0015766D01*
X0037043Y0015852D01*
X0037063Y0015954D01*
X0037103Y0016050D01*
X0037103Y0022652D01*
X0037281Y0022652D01*
X0037281Y0022240D01*
X0037439Y0021859D01*
X0037730Y0021568D01*
X0038110Y0021411D01*
X0038170Y0021411D01*
X0038314Y0021266D01*
X0038148Y0021197D01*
X0037857Y0020906D01*
X0037699Y0020526D01*
X0037699Y0020114D01*
X0037857Y0019734D01*
X0038148Y0019443D01*
X0038528Y0019285D01*
X0038588Y0019285D01*
X0039863Y0018010D01*
X0039910Y0017940D01*
X0040186Y0017755D01*
X0040430Y0017707D01*
X0040512Y0017691D01*
X0040594Y0017707D01*
X0048139Y0017707D01*
X0048182Y0017665D01*
X0048562Y0017507D01*
X0048974Y0017507D01*
X0049354Y0017665D01*
X0049645Y0017956D01*
X0049803Y0018336D01*
X0049803Y0018723D01*
X0050362Y0018723D01*
X0052345Y0016740D01*
X0052392Y0016670D01*
X0052668Y0016485D01*
X0052747Y0016470D01*
X0052747Y0015272D01*
X0052796Y0015024D01*
X0052936Y0014814D01*
X0053146Y0014674D01*
X0053394Y0014625D01*
X0058394Y0014625D01*
X0058642Y0014674D01*
X0058852Y0014814D01*
X0058992Y0015024D01*
X0059041Y0015272D01*
X0059041Y0019272D01*
X0058992Y0019520D01*
X0058852Y0019730D01*
X0058642Y0019870D01*
X0058394Y0019919D01*
X0053394Y0019919D01*
X0053146Y0019870D01*
X0052936Y0019730D01*
X0052796Y0019520D01*
X0052747Y0019272D01*
X0052747Y0018700D01*
X0051357Y0020090D01*
X0051310Y0020160D01*
X0051034Y0020345D01*
X0050790Y0020393D01*
X0050790Y0020393D01*
X0050708Y0020409D01*
X0050626Y0020393D01*
X0041550Y0020393D01*
X0040581Y0021361D01*
X0040688Y0021317D01*
X0041100Y0021317D01*
X0041480Y0021475D01*
X0041771Y0021766D01*
X0041929Y0022146D01*
X0041929Y0022206D01*
X0045998Y0026275D01*
X0046068Y0026322D01*
X0046131Y0026416D01*
X0046253Y0026598D01*
X0046253Y0026598D01*
X0046301Y0026842D01*
X0046301Y0026842D01*
X0046317Y0026924D01*
X0046301Y0027006D01*
X0046301Y0030480D01*
X0053709Y0030480D01*
X0053709Y0028956D01*
X0053758Y0028708D01*
X0053898Y0028498D01*
X0053973Y0028448D01*
X0053898Y0028398D01*
X0053758Y0028188D01*
X0053709Y0027940D01*
X0053709Y0026416D01*
X0053758Y0026168D01*
X0053898Y0025958D01*
X0054108Y0025818D01*
X0054356Y0025769D01*
X0055880Y0025769D01*
X0056128Y0025818D01*
X0056338Y0025958D01*
X0056478Y0026168D01*
X0056527Y0026416D01*
X0056527Y0027940D01*
X0056478Y0028188D01*
X0056338Y0028398D01*
X0056263Y0028448D01*
X0056338Y0028498D01*
X0056478Y0028708D01*
X0056527Y0028956D01*
X0056527Y0030480D01*
X0056478Y0030728D01*
X0056338Y0030938D01*
X0056128Y0031078D01*
X0055880Y0031127D01*
X0054356Y0031127D01*
X0054108Y0031078D01*
X0053898Y0030938D01*
X0053758Y0030728D01*
X0053709Y0030480D01*
X0046301Y0030480D01*
X0046301Y0032641D01*
X0046476Y0032676D01*
X0046686Y0032816D01*
X0046826Y0033026D01*
X0046875Y0033274D01*
X0046875Y0034798D01*
X0046826Y0035046D01*
X0046686Y0035256D01*
X0046611Y0035306D01*
X0046686Y0035356D01*
X0046826Y0035566D01*
X0046875Y0035814D01*
X0046875Y0037338D01*
X0046826Y0037586D01*
X0046686Y0037796D01*
X0046476Y0037936D01*
X0046228Y0037985D01*
X0044704Y0037985D01*
X0044456Y0037936D01*
X0044246Y0037796D01*
X0044106Y0037586D01*
X0044057Y0037338D01*
X0044057Y0035814D01*
X0044106Y0035566D01*
X0044246Y0035356D01*
X0044321Y0035306D01*
X0044246Y0035256D01*
X0044106Y0035046D01*
X0044057Y0034798D01*
X0044057Y0033274D01*
X0044106Y0033026D01*
X0044246Y0032816D01*
X0044456Y0032676D01*
X0044631Y0032641D01*
X0044631Y0027270D01*
X0040748Y0023387D01*
X0040688Y0023387D01*
X0040308Y0023229D01*
X0040017Y0022938D01*
X0039859Y0022558D01*
X0039859Y0022146D01*
X0039903Y0022039D01*
X0039351Y0022592D01*
X0039351Y0022652D01*
X0039193Y0023032D01*
X0038902Y0023323D01*
X0038522Y0023481D01*
X0038110Y0023481D01*
X0037730Y0023323D01*
X0037439Y0023032D01*
X0037281Y0022652D01*
X0037103Y0022652D01*
X0037103Y0028908D01*
X0037063Y0029004D01*
X0037043Y0029106D01*
X0036985Y0029192D01*
X0036945Y0029288D01*
X0036872Y0029362D01*
X0036814Y0029448D01*
X0036728Y0029506D01*
X0036654Y0029579D01*
X0036558Y0029619D01*
X0036472Y0029677D01*
X0036370Y0029697D01*
X0036274Y0029737D01*
X0036170Y0029737D01*
X0036068Y0029757D01*
X0035966Y0029737D01*
X0035862Y0029737D01*
X0035766Y0029697D01*
X0035664Y0029677D01*
X0035578Y0029619D01*
X0035482Y0029579D01*
X0035408Y0029506D01*
X0035322Y0029448D01*
X0035264Y0029362D01*
X0035191Y0029288D01*
X0035151Y0029192D01*
X0035093Y0029106D01*
X0035073Y0029004D01*
X0035033Y0028908D01*
X0024244Y0028908D01*
X0024082Y0028975D01*
X0023670Y0028975D01*
X0023290Y0028817D01*
X0022999Y0028526D01*
X0022841Y0028146D01*
X0022841Y0028086D01*
X0020101Y0025346D01*
X0014091Y0025346D01*
X0014048Y0025388D01*
X0013668Y0025546D01*
X0013256Y0025546D01*
X0012876Y0025388D01*
X0012585Y0025097D01*
X0012427Y0024717D01*
X0007505Y0024717D01*
X0007505Y0025908D01*
X0007456Y0026156D01*
X0007316Y0026366D01*
X0007106Y0026506D01*
X0006858Y0026555D01*
X0005334Y0026555D01*
X0005086Y0026506D01*
X0004876Y0026366D01*
X0004826Y0026291D01*
X0004776Y0026366D01*
X0004566Y0026506D01*
X0004318Y0026555D01*
X0002794Y0026555D01*
X0002546Y0026506D01*
X0002336Y0026366D01*
X0002196Y0026156D01*
X0002147Y0025908D01*
X0000735Y0025908D01*
X0000735Y0029909D01*
X0013629Y0029909D01*
X0013629Y0029353D01*
X0013842Y0028840D01*
X0014235Y0028447D01*
X0014748Y0028234D01*
X0015304Y0028234D01*
X0015817Y0028447D01*
X0016210Y0028840D01*
X0016423Y0029353D01*
X0016423Y0029909D01*
X0018629Y0029909D01*
X0018629Y0029353D01*
X0018842Y0028840D01*
X0019235Y0028447D01*
X0019748Y0028234D01*
X0020304Y0028234D01*
X0020817Y0028447D01*
X0021210Y0028840D01*
X0021423Y0029353D01*
X0021423Y0029909D01*
X0021210Y0030422D01*
X0020817Y0030815D01*
X0020304Y0031028D01*
X0019748Y0031028D01*
X0019235Y0030815D01*
X0018842Y0030422D01*
X0018629Y0029909D01*
X0016423Y0029909D01*
X0016210Y0030422D01*
X0015817Y0030815D01*
X0015304Y0031028D01*
X0014748Y0031028D01*
X0014235Y0030815D01*
X0013842Y0030422D01*
X0013629Y0029909D01*
X0000735Y0029909D01*
X0000735Y0037338D01*
X0011037Y0037338D01*
X0011037Y0035814D01*
X0011086Y0035566D01*
X0011226Y0035356D01*
X0011301Y0035306D01*
X0011226Y0035256D01*
X0011086Y0035046D01*
X0011037Y0034798D01*
X0011037Y0033274D01*
X0011086Y0033026D01*
X0011226Y0032816D01*
X0011436Y0032676D01*
X0011684Y0032627D01*
X0013208Y0032627D01*
X0013456Y0032676D01*
X0013666Y0032816D01*
X0013716Y0032891D01*
X0013766Y0032816D01*
X0013976Y0032676D01*
X0014224Y0032627D01*
X0015748Y0032627D01*
X0015996Y0032676D01*
X0016206Y0032816D01*
X0016346Y0033026D01*
X0016395Y0033274D01*
X0016395Y0034798D01*
X0016346Y0035046D01*
X0016206Y0035256D01*
X0016131Y0035306D01*
X0016206Y0035356D01*
X0016346Y0035566D01*
X0016395Y0035814D01*
X0016395Y0037338D01*
X0016346Y0037586D01*
X0016206Y0037796D01*
X0015996Y0037936D01*
X0015748Y0037985D01*
X0014224Y0037985D01*
X0013976Y0037936D01*
X0013766Y0037796D01*
X0013716Y0037721D01*
X0013666Y0037796D01*
X0013456Y0037936D01*
X0013208Y0037985D01*
X0011684Y0037985D01*
X0011436Y0037936D01*
X0011226Y0037796D01*
X0011086Y0037586D01*
X0011037Y0037338D01*
X0000735Y0037338D01*
X0000735Y0039397D01*
X0059717Y0039397D01*
X0059717Y0000735D01*
X0000000Y0040132D02*
%LPD*%
G01*
D43*
X0015026Y0069763D03*
X0020026Y0069763D03*
D40*
X0025894Y0057404D03*
X0055894Y0057404D03*
D31*
X0042926Y0043688D03*
X0042926Y0046228D03*
X0045466Y0043688D03*
X0045466Y0046228D03*
X0048006Y0043688D03*
X0048006Y0046228D03*
X0052578Y0069850D03*
X0052578Y0067310D03*
X0055118Y0067310D03*
X0055118Y0069850D03*
X0057658Y0069850D03*
X0057658Y0067310D03*
X0048006Y0076708D03*
X0048006Y0074168D03*
X0045466Y0074168D03*
X0045466Y0076708D03*
X0042926Y0074168D03*
X0042926Y0076708D03*
D63*
X0004826Y0075438D03*
X0055626Y0075438D03*
X0055626Y0044958D03*
X0004826Y0044958D03*
D31*
X0003556Y0067818D03*
X0006096Y0067818D03*
X0003556Y0065278D03*
X0006096Y0065278D03*
X0003556Y0062738D03*
X0006096Y0062738D03*
X0006096Y0057658D03*
X0003556Y0057658D03*
D63*
X0035306Y0075438D03*
X0035306Y0044958D03*
D31*
X0012446Y0076708D03*
X0014986Y0076708D03*
X0012446Y0074168D03*
X0014986Y0074168D03*
D41*
X0027940Y0066802D03*
X0029210Y0066802D03*
X0030353Y0066802D03*
X0033782Y0067437D03*
X0032893Y0068326D03*
X0038100Y0066548D03*
X0039751Y0066548D03*
X0041783Y0066548D03*
X0050673Y0068326D03*
X0049784Y0069215D03*
X0048895Y0069977D03*
X0048006Y0070358D03*
X0048006Y0071374D03*
X0048006Y0072390D03*
X0043561Y0072263D03*
X0042418Y0072263D03*
X0041402Y0072263D03*
X0040386Y0072390D03*
X0040005Y0051308D03*
X0040005Y0050292D03*
X0038862Y0050292D03*
X0037719Y0050292D03*
X0037719Y0051308D03*
X0038862Y0051308D03*
X0053848Y0052705D03*
X0052578Y0052705D03*
X0051308Y0052705D03*
X0049911Y0052578D03*
X0029845Y0060452D03*
X0029845Y0059182D03*
X0017526Y0060452D03*
X0019304Y0060452D03*
X0020955Y0060452D03*
X0020320Y0059563D03*
X0019050Y0059055D03*
X0017780Y0059182D03*
X0016764Y0059182D03*
X0013081Y0053340D03*
X0014351Y0053340D03*
X0015621Y0053340D03*
X0016764Y0053340D03*
X0017780Y0053340D03*
X0010160Y0058966D03*
X0008382Y0059182D03*
X0010795Y0059690D03*
X0009652Y0059690D03*
X0050800Y0061468D03*
X0049657Y0061468D03*
X0048641Y0065913D03*
X0048006Y0066802D03*
X0047625Y0065786D03*
X0046863Y0066675D03*
X0045974Y0062230D03*
X0037846Y0057785D03*
X0037846Y0058674D03*
X0033528Y0057658D03*
X0032258Y0057658D03*
X0030988Y0057658D03*
X0029845Y0057912D03*
X0037973Y0065151D03*
X0037068Y0065151D03*
X0016383Y0068199D03*
X0015113Y0067564D03*
X0013970Y0068072D03*
X0008509Y0072263D03*
X0010033Y0072263D03*
X0036068Y0056388D03*
X0036068Y0068834D03*
X0038734Y0060452D03*
X0048768Y0058674D03*
X0040894Y0062484D03*
X0013462Y0057150D03*
X0038316Y0062578D03*
X0023876Y0068072D03*
X0013462Y0064643D03*
X0021336Y0058166D03*
D11*
X0029210Y0066802D02*
X0027940Y0066802D01*
X0030988Y0067437D02*
X0030353Y0066802D01*
X0033782Y0067437D02*
X0030988Y0067437D01*
X0032893Y0068326D02*
X0033782Y0067437D01*
X0041783Y0066548D02*
X0039751Y0066548D01*
X0049784Y0069215D02*
X0050673Y0068326D01*
X0048514Y0070358D02*
X0048895Y0069977D01*
X0048006Y0070358D02*
X0048514Y0070358D01*
X0048006Y0072390D02*
X0048006Y0071374D01*
X0042418Y0072263D02*
X0043561Y0072263D01*
X0041275Y0072390D02*
X0041402Y0072263D01*
X0040386Y0072390D02*
X0041275Y0072390D01*
X0040005Y0050292D02*
X0040005Y0051308D01*
X0037719Y0050292D02*
X0038862Y0050292D01*
X0038862Y0051308D02*
X0037719Y0051308D01*
X0052578Y0052705D02*
X0053848Y0052705D01*
X0051181Y0052578D02*
X0051308Y0052705D01*
X0049911Y0052578D02*
X0051181Y0052578D01*
X0029845Y0059182D02*
X0029845Y0060452D01*
X0019304Y0060452D02*
X0017526Y0060452D01*
X0020320Y0059817D02*
X0020955Y0060452D01*
X0020320Y0059563D02*
X0020320Y0059817D01*
X0018923Y0059182D02*
X0019050Y0059055D01*
X0017780Y0059182D02*
X0018923Y0059182D01*
X0016764Y0055880D02*
X0016764Y0059182D01*
X0014624Y0053740D02*
X0016764Y0055880D01*
X0013081Y0053340D02*
X0013481Y0053740D01*
X0013481Y0053740D02*
X0014624Y0053740D01*
X0015621Y0053340D02*
X0014351Y0053340D01*
X0017780Y0053340D02*
X0016764Y0053340D01*
X0008890Y0059690D02*
X0008382Y0059182D01*
X0010795Y0059690D02*
X0008890Y0059690D01*
X0006096Y0061576D02*
X0007982Y0059690D01*
X0006096Y0062738D02*
X0006096Y0061576D01*
X0007982Y0059690D02*
X0009652Y0059690D01*
D54*
X0049657Y0061468D02*
X0050800Y0061468D01*
X0048006Y0066548D02*
X0048641Y0065913D01*
X0048006Y0066802D02*
X0048006Y0066548D01*
X0046863Y0066548D02*
X0047625Y0065786D01*
X0046863Y0066675D02*
X0046863Y0066548D01*
X0037846Y0058674D02*
X0037846Y0057785D01*
X0032258Y0057658D02*
X0033528Y0057658D01*
X0030734Y0057912D02*
X0030988Y0057658D01*
X0029845Y0057912D02*
X0030734Y0057912D01*
X0037068Y0065151D02*
X0037973Y0065151D01*
X0014605Y0068072D02*
X0015113Y0067564D01*
X0013970Y0068072D02*
X0014605Y0068072D01*
X0010033Y0072263D02*
X0008509Y0072263D01*
D41*
X0036068Y0068834D02*
X0036068Y0056388D01*
D11*
X0048768Y0058674D02*
X0040512Y0058674D01*
X0040512Y0058674D02*
X0038734Y0060452D01*
X0040894Y0062484D02*
X0045466Y0067056D01*
X0045466Y0067056D02*
X0045466Y0074168D01*
X0013462Y0064643D02*
X0013462Y0057150D01*
X0041204Y0059690D02*
X0038316Y0062578D01*
X0050708Y0059690D02*
X0041204Y0059690D01*
X0055894Y0057404D02*
X0052994Y0057404D01*
X0052994Y0057404D02*
X0050708Y0059690D01*
X0020447Y0064643D02*
X0023876Y0068072D01*
X0013462Y0064643D02*
X0020447Y0064643D01*
X0022098Y0057404D02*
X0021336Y0058166D01*
X0025894Y0057404D02*
X0022098Y0057404D01*
D25*
G36*
X0059717Y0040867D02*
X0000735Y0040867D01*
X0000735Y0046990D01*
X0044057Y0046990D01*
X0044057Y0045466D01*
X0044106Y0045218D01*
X0044246Y0045008D01*
X0044321Y0044958D01*
X0044246Y0044908D01*
X0044106Y0044698D01*
X0044057Y0044450D01*
X0044057Y0042926D01*
X0044106Y0042678D01*
X0044246Y0042468D01*
X0044456Y0042328D01*
X0044704Y0042279D01*
X0046228Y0042279D01*
X0046476Y0042328D01*
X0046686Y0042468D01*
X0046826Y0042678D01*
X0046875Y0042926D01*
X0046875Y0044450D01*
X0046826Y0044698D01*
X0046686Y0044908D01*
X0046611Y0044958D01*
X0046686Y0045008D01*
X0046826Y0045218D01*
X0046875Y0045466D01*
X0046875Y0046990D01*
X0046826Y0047238D01*
X0046686Y0047448D01*
X0046476Y0047588D01*
X0046228Y0047637D01*
X0044704Y0047637D01*
X0044456Y0047588D01*
X0044246Y0047448D01*
X0044106Y0047238D01*
X0044057Y0046990D01*
X0000735Y0046990D01*
X0000735Y0058420D01*
X0002147Y0058420D01*
X0002147Y0056896D01*
X0002196Y0056648D01*
X0002336Y0056438D01*
X0002546Y0056298D01*
X0002794Y0056249D01*
X0004318Y0056249D01*
X0004566Y0056298D01*
X0004776Y0056438D01*
X0004826Y0056513D01*
X0004876Y0056438D01*
X0005086Y0056298D01*
X0005334Y0056249D01*
X0006858Y0056249D01*
X0007106Y0056298D01*
X0007316Y0056438D01*
X0007456Y0056648D01*
X0007505Y0056896D01*
X0007505Y0058420D01*
X0007456Y0058668D01*
X0007316Y0058878D01*
X0007106Y0059018D01*
X0006858Y0059067D01*
X0005334Y0059067D01*
X0005086Y0059018D01*
X0004876Y0058878D01*
X0004826Y0058803D01*
X0004776Y0058878D01*
X0004566Y0059018D01*
X0004318Y0059067D01*
X0002794Y0059067D01*
X0002546Y0059018D01*
X0002336Y0058878D01*
X0002196Y0058668D01*
X0002147Y0058420D01*
X0000735Y0058420D01*
X0000735Y0066040D01*
X0002147Y0066040D01*
X0002147Y0064516D01*
X0002196Y0064268D01*
X0002336Y0064058D01*
X0002546Y0063918D01*
X0002794Y0063869D01*
X0004318Y0063869D01*
X0004566Y0063918D01*
X0004776Y0064058D01*
X0004826Y0064133D01*
X0004876Y0064058D01*
X0005086Y0063918D01*
X0005334Y0063869D01*
X0006858Y0063869D01*
X0007106Y0063918D01*
X0007316Y0064058D01*
X0007456Y0064268D01*
X0007505Y0064516D01*
X0007505Y0064849D01*
X0012427Y0064849D01*
X0012427Y0064437D01*
X0012585Y0064057D01*
X0012627Y0064014D01*
X0012627Y0057779D01*
X0012585Y0057736D01*
X0012427Y0057356D01*
X0012427Y0056944D01*
X0012585Y0056564D01*
X0012876Y0056273D01*
X0013256Y0056115D01*
X0013668Y0056115D01*
X0014048Y0056273D01*
X0014339Y0056564D01*
X0014497Y0056944D01*
X0014497Y0057356D01*
X0014339Y0057736D01*
X0014297Y0057779D01*
X0014297Y0058372D01*
X0020301Y0058372D01*
X0020301Y0057960D01*
X0020459Y0057580D01*
X0020750Y0057289D01*
X0021130Y0057131D01*
X0021190Y0057131D01*
X0021449Y0056872D01*
X0021496Y0056802D01*
X0021772Y0056617D01*
X0022016Y0056569D01*
X0022098Y0056553D01*
X0022180Y0056569D01*
X0022747Y0056569D01*
X0022747Y0055404D01*
X0022796Y0055156D01*
X0022936Y0054946D01*
X0023146Y0054806D01*
X0023394Y0054757D01*
X0028394Y0054757D01*
X0028642Y0054806D01*
X0028852Y0054946D01*
X0028992Y0055156D01*
X0029041Y0055404D01*
X0029041Y0059404D01*
X0028992Y0059652D01*
X0028852Y0059862D01*
X0028642Y0060002D01*
X0028394Y0060051D01*
X0023394Y0060051D01*
X0023146Y0060002D01*
X0022936Y0059862D01*
X0022796Y0059652D01*
X0022747Y0059404D01*
X0022747Y0058239D01*
X0022444Y0058239D01*
X0022371Y0058312D01*
X0022371Y0058372D01*
X0022213Y0058752D01*
X0021922Y0059043D01*
X0021542Y0059201D01*
X0021130Y0059201D01*
X0020750Y0059043D01*
X0020459Y0058752D01*
X0020301Y0058372D01*
X0014297Y0058372D01*
X0014297Y0063808D01*
X0020365Y0063808D01*
X0020447Y0063792D01*
X0020529Y0063808D01*
X0020529Y0063808D01*
X0020773Y0063856D01*
X0021049Y0064041D01*
X0021096Y0064111D01*
X0024022Y0067037D01*
X0024082Y0067037D01*
X0024462Y0067195D01*
X0024753Y0067486D01*
X0024911Y0067866D01*
X0024911Y0068278D01*
X0024753Y0068658D01*
X0024462Y0068949D01*
X0024244Y0069040D01*
X0035033Y0069040D01*
X0035033Y0068936D01*
X0035033Y0056594D01*
X0035033Y0056594D01*
X0035033Y0056182D01*
X0035073Y0056086D01*
X0035093Y0055984D01*
X0035151Y0055898D01*
X0035191Y0055802D01*
X0035264Y0055728D01*
X0035322Y0055642D01*
X0035408Y0055584D01*
X0035482Y0055511D01*
X0035578Y0055471D01*
X0035664Y0055413D01*
X0035766Y0055393D01*
X0035862Y0055353D01*
X0035966Y0055353D01*
X0036068Y0055333D01*
X0036170Y0055353D01*
X0036274Y0055353D01*
X0036370Y0055393D01*
X0036472Y0055413D01*
X0036558Y0055471D01*
X0036654Y0055511D01*
X0036728Y0055584D01*
X0036814Y0055642D01*
X0036872Y0055728D01*
X0036945Y0055802D01*
X0036985Y0055898D01*
X0037043Y0055984D01*
X0037063Y0056086D01*
X0037103Y0056182D01*
X0037103Y0062784D01*
X0037281Y0062784D01*
X0037281Y0062372D01*
X0037439Y0061991D01*
X0037730Y0061700D01*
X0038110Y0061543D01*
X0038170Y0061543D01*
X0038314Y0061398D01*
X0038148Y0061329D01*
X0037857Y0061038D01*
X0037699Y0060658D01*
X0037699Y0060246D01*
X0037857Y0059866D01*
X0038148Y0059575D01*
X0038528Y0059417D01*
X0038588Y0059417D01*
X0039863Y0058142D01*
X0039910Y0058072D01*
X0040186Y0057887D01*
X0040430Y0057839D01*
X0040512Y0057823D01*
X0040594Y0057839D01*
X0048139Y0057839D01*
X0048182Y0057797D01*
X0048562Y0057639D01*
X0048974Y0057639D01*
X0049354Y0057797D01*
X0049645Y0058088D01*
X0049803Y0058468D01*
X0049803Y0058855D01*
X0050362Y0058855D01*
X0052345Y0056872D01*
X0052392Y0056802D01*
X0052668Y0056617D01*
X0052747Y0056602D01*
X0052747Y0055404D01*
X0052796Y0055156D01*
X0052936Y0054946D01*
X0053146Y0054806D01*
X0053394Y0054757D01*
X0058394Y0054757D01*
X0058642Y0054806D01*
X0058852Y0054946D01*
X0058992Y0055156D01*
X0059041Y0055404D01*
X0059041Y0059404D01*
X0058992Y0059652D01*
X0058852Y0059862D01*
X0058642Y0060002D01*
X0058394Y0060051D01*
X0053394Y0060051D01*
X0053146Y0060002D01*
X0052936Y0059862D01*
X0052796Y0059652D01*
X0052747Y0059404D01*
X0052747Y0058832D01*
X0051357Y0060222D01*
X0051310Y0060292D01*
X0051034Y0060477D01*
X0050790Y0060525D01*
X0050790Y0060525D01*
X0050708Y0060541D01*
X0050626Y0060525D01*
X0041550Y0060525D01*
X0040581Y0061493D01*
X0040688Y0061449D01*
X0041100Y0061449D01*
X0041480Y0061607D01*
X0041771Y0061898D01*
X0041929Y0062278D01*
X0041929Y0062338D01*
X0045998Y0066407D01*
X0046068Y0066454D01*
X0046131Y0066548D01*
X0046253Y0066730D01*
X0046253Y0066730D01*
X0046301Y0066974D01*
X0046301Y0066974D01*
X0046317Y0067056D01*
X0046301Y0067138D01*
X0046301Y0070612D01*
X0053709Y0070612D01*
X0053709Y0069088D01*
X0053758Y0068840D01*
X0053898Y0068630D01*
X0053973Y0068580D01*
X0053898Y0068530D01*
X0053758Y0068320D01*
X0053709Y0068072D01*
X0053709Y0066548D01*
X0053758Y0066300D01*
X0053898Y0066090D01*
X0054108Y0065950D01*
X0054356Y0065901D01*
X0055880Y0065901D01*
X0056128Y0065950D01*
X0056338Y0066090D01*
X0056478Y0066300D01*
X0056527Y0066548D01*
X0056527Y0068072D01*
X0056478Y0068320D01*
X0056338Y0068530D01*
X0056263Y0068580D01*
X0056338Y0068630D01*
X0056478Y0068840D01*
X0056527Y0069088D01*
X0056527Y0070612D01*
X0056478Y0070860D01*
X0056338Y0071070D01*
X0056128Y0071210D01*
X0055880Y0071259D01*
X0054356Y0071259D01*
X0054108Y0071210D01*
X0053898Y0071070D01*
X0053758Y0070860D01*
X0053709Y0070612D01*
X0046301Y0070612D01*
X0046301Y0072773D01*
X0046476Y0072808D01*
X0046686Y0072948D01*
X0046826Y0073158D01*
X0046875Y0073406D01*
X0046875Y0074930D01*
X0046826Y0075178D01*
X0046686Y0075388D01*
X0046611Y0075438D01*
X0046686Y0075488D01*
X0046826Y0075698D01*
X0046875Y0075946D01*
X0046875Y0077470D01*
X0046826Y0077718D01*
X0046686Y0077928D01*
X0046476Y0078068D01*
X0046228Y0078117D01*
X0044704Y0078117D01*
X0044456Y0078068D01*
X0044246Y0077928D01*
X0044106Y0077718D01*
X0044057Y0077470D01*
X0044057Y0075946D01*
X0044106Y0075698D01*
X0044246Y0075488D01*
X0044321Y0075438D01*
X0044246Y0075388D01*
X0044106Y0075178D01*
X0044057Y0074930D01*
X0044057Y0073406D01*
X0044106Y0073158D01*
X0044246Y0072948D01*
X0044456Y0072808D01*
X0044631Y0072773D01*
X0044631Y0067402D01*
X0040748Y0063519D01*
X0040688Y0063519D01*
X0040308Y0063361D01*
X0040017Y0063070D01*
X0039859Y0062690D01*
X0039859Y0062278D01*
X0039903Y0062171D01*
X0039351Y0062724D01*
X0039351Y0062784D01*
X0039193Y0063164D01*
X0038902Y0063455D01*
X0038522Y0063613D01*
X0038110Y0063613D01*
X0037730Y0063455D01*
X0037439Y0063164D01*
X0037281Y0062784D01*
X0037103Y0062784D01*
X0037103Y0069040D01*
X0037063Y0069136D01*
X0037043Y0069238D01*
X0036985Y0069324D01*
X0036945Y0069420D01*
X0036872Y0069494D01*
X0036814Y0069580D01*
X0036728Y0069638D01*
X0036654Y0069711D01*
X0036558Y0069751D01*
X0036472Y0069809D01*
X0036370Y0069829D01*
X0036274Y0069869D01*
X0036170Y0069869D01*
X0036068Y0069889D01*
X0035966Y0069869D01*
X0035862Y0069869D01*
X0035766Y0069829D01*
X0035664Y0069809D01*
X0035578Y0069751D01*
X0035482Y0069711D01*
X0035408Y0069638D01*
X0035322Y0069580D01*
X0035264Y0069494D01*
X0035191Y0069420D01*
X0035151Y0069324D01*
X0035093Y0069238D01*
X0035073Y0069136D01*
X0035033Y0069040D01*
X0024244Y0069040D01*
X0024082Y0069107D01*
X0023670Y0069107D01*
X0023290Y0068949D01*
X0022999Y0068658D01*
X0022841Y0068278D01*
X0022841Y0068218D01*
X0020101Y0065478D01*
X0014091Y0065478D01*
X0014048Y0065520D01*
X0013668Y0065678D01*
X0013256Y0065678D01*
X0012876Y0065520D01*
X0012585Y0065229D01*
X0012427Y0064849D01*
X0007505Y0064849D01*
X0007505Y0066040D01*
X0007456Y0066288D01*
X0007316Y0066498D01*
X0007106Y0066638D01*
X0006858Y0066687D01*
X0005334Y0066687D01*
X0005086Y0066638D01*
X0004876Y0066498D01*
X0004826Y0066423D01*
X0004776Y0066498D01*
X0004566Y0066638D01*
X0004318Y0066687D01*
X0002794Y0066687D01*
X0002546Y0066638D01*
X0002336Y0066498D01*
X0002196Y0066288D01*
X0002147Y0066040D01*
X0000735Y0066040D01*
X0000735Y0070041D01*
X0013629Y0070041D01*
X0013629Y0069485D01*
X0013842Y0068972D01*
X0014235Y0068579D01*
X0014748Y0068366D01*
X0015304Y0068366D01*
X0015817Y0068579D01*
X0016210Y0068972D01*
X0016423Y0069485D01*
X0016423Y0070041D01*
X0018629Y0070041D01*
X0018629Y0069485D01*
X0018842Y0068972D01*
X0019235Y0068579D01*
X0019748Y0068366D01*
X0020304Y0068366D01*
X0020817Y0068579D01*
X0021210Y0068972D01*
X0021423Y0069485D01*
X0021423Y0070041D01*
X0021210Y0070554D01*
X0020817Y0070947D01*
X0020304Y0071160D01*
X0019748Y0071160D01*
X0019235Y0070947D01*
X0018842Y0070554D01*
X0018629Y0070041D01*
X0016423Y0070041D01*
X0016210Y0070554D01*
X0015817Y0070947D01*
X0015304Y0071160D01*
X0014748Y0071160D01*
X0014235Y0070947D01*
X0013842Y0070554D01*
X0013629Y0070041D01*
X0000735Y0070041D01*
X0000735Y0077470D01*
X0011037Y0077470D01*
X0011037Y0075946D01*
X0011086Y0075698D01*
X0011226Y0075488D01*
X0011301Y0075438D01*
X0011226Y0075388D01*
X0011086Y0075178D01*
X0011037Y0074930D01*
X0011037Y0073406D01*
X0011086Y0073158D01*
X0011226Y0072948D01*
X0011436Y0072808D01*
X0011684Y0072759D01*
X0013208Y0072759D01*
X0013456Y0072808D01*
X0013666Y0072948D01*
X0013716Y0073023D01*
X0013766Y0072948D01*
X0013976Y0072808D01*
X0014224Y0072759D01*
X0015748Y0072759D01*
X0015996Y0072808D01*
X0016206Y0072948D01*
X0016346Y0073158D01*
X0016395Y0073406D01*
X0016395Y0074930D01*
X0016346Y0075178D01*
X0016206Y0075388D01*
X0016131Y0075438D01*
X0016206Y0075488D01*
X0016346Y0075698D01*
X0016395Y0075946D01*
X0016395Y0077470D01*
X0016346Y0077718D01*
X0016206Y0077928D01*
X0015996Y0078068D01*
X0015748Y0078117D01*
X0014224Y0078117D01*
X0013976Y0078068D01*
X0013766Y0077928D01*
X0013716Y0077853D01*
X0013666Y0077928D01*
X0013456Y0078068D01*
X0013208Y0078117D01*
X0011684Y0078117D01*
X0011436Y0078068D01*
X0011226Y0077928D01*
X0011086Y0077718D01*
X0011037Y0077470D01*
X0000735Y0077470D01*
X0000735Y0079529D01*
X0059717Y0079529D01*
X0059717Y0040867D01*
X0059717Y0040867D01*
G37*
X0059717Y0040867D02*
X0000735Y0040867D01*
X0000735Y0046990D01*
X0044057Y0046990D01*
X0044057Y0045466D01*
X0044106Y0045218D01*
X0044246Y0045008D01*
X0044321Y0044958D01*
X0044246Y0044908D01*
X0044106Y0044698D01*
X0044057Y0044450D01*
X0044057Y0042926D01*
X0044106Y0042678D01*
X0044246Y0042468D01*
X0044456Y0042328D01*
X0044704Y0042279D01*
X0046228Y0042279D01*
X0046476Y0042328D01*
X0046686Y0042468D01*
X0046826Y0042678D01*
X0046875Y0042926D01*
X0046875Y0044450D01*
X0046826Y0044698D01*
X0046686Y0044908D01*
X0046611Y0044958D01*
X0046686Y0045008D01*
X0046826Y0045218D01*
X0046875Y0045466D01*
X0046875Y0046990D01*
X0046826Y0047238D01*
X0046686Y0047448D01*
X0046476Y0047588D01*
X0046228Y0047637D01*
X0044704Y0047637D01*
X0044456Y0047588D01*
X0044246Y0047448D01*
X0044106Y0047238D01*
X0044057Y0046990D01*
X0000735Y0046990D01*
X0000735Y0058420D01*
X0002147Y0058420D01*
X0002147Y0056896D01*
X0002196Y0056648D01*
X0002336Y0056438D01*
X0002546Y0056298D01*
X0002794Y0056249D01*
X0004318Y0056249D01*
X0004566Y0056298D01*
X0004776Y0056438D01*
X0004826Y0056513D01*
X0004876Y0056438D01*
X0005086Y0056298D01*
X0005334Y0056249D01*
X0006858Y0056249D01*
X0007106Y0056298D01*
X0007316Y0056438D01*
X0007456Y0056648D01*
X0007505Y0056896D01*
X0007505Y0058420D01*
X0007456Y0058668D01*
X0007316Y0058878D01*
X0007106Y0059018D01*
X0006858Y0059067D01*
X0005334Y0059067D01*
X0005086Y0059018D01*
X0004876Y0058878D01*
X0004826Y0058803D01*
X0004776Y0058878D01*
X0004566Y0059018D01*
X0004318Y0059067D01*
X0002794Y0059067D01*
X0002546Y0059018D01*
X0002336Y0058878D01*
X0002196Y0058668D01*
X0002147Y0058420D01*
X0000735Y0058420D01*
X0000735Y0066040D01*
X0002147Y0066040D01*
X0002147Y0064516D01*
X0002196Y0064268D01*
X0002336Y0064058D01*
X0002546Y0063918D01*
X0002794Y0063869D01*
X0004318Y0063869D01*
X0004566Y0063918D01*
X0004776Y0064058D01*
X0004826Y0064133D01*
X0004876Y0064058D01*
X0005086Y0063918D01*
X0005334Y0063869D01*
X0006858Y0063869D01*
X0007106Y0063918D01*
X0007316Y0064058D01*
X0007456Y0064268D01*
X0007505Y0064516D01*
X0007505Y0064849D01*
X0012427Y0064849D01*
X0012427Y0064437D01*
X0012585Y0064057D01*
X0012627Y0064014D01*
X0012627Y0057779D01*
X0012585Y0057736D01*
X0012427Y0057356D01*
X0012427Y0056944D01*
X0012585Y0056564D01*
X0012876Y0056273D01*
X0013256Y0056115D01*
X0013668Y0056115D01*
X0014048Y0056273D01*
X0014339Y0056564D01*
X0014497Y0056944D01*
X0014497Y0057356D01*
X0014339Y0057736D01*
X0014297Y0057779D01*
X0014297Y0058372D01*
X0020301Y0058372D01*
X0020301Y0057960D01*
X0020459Y0057580D01*
X0020750Y0057289D01*
X0021130Y0057131D01*
X0021190Y0057131D01*
X0021449Y0056872D01*
X0021496Y0056802D01*
X0021772Y0056617D01*
X0022016Y0056569D01*
X0022098Y0056553D01*
X0022180Y0056569D01*
X0022747Y0056569D01*
X0022747Y0055404D01*
X0022796Y0055156D01*
X0022936Y0054946D01*
X0023146Y0054806D01*
X0023394Y0054757D01*
X0028394Y0054757D01*
X0028642Y0054806D01*
X0028852Y0054946D01*
X0028992Y0055156D01*
X0029041Y0055404D01*
X0029041Y0059404D01*
X0028992Y0059652D01*
X0028852Y0059862D01*
X0028642Y0060002D01*
X0028394Y0060051D01*
X0023394Y0060051D01*
X0023146Y0060002D01*
X0022936Y0059862D01*
X0022796Y0059652D01*
X0022747Y0059404D01*
X0022747Y0058239D01*
X0022444Y0058239D01*
X0022371Y0058312D01*
X0022371Y0058372D01*
X0022213Y0058752D01*
X0021922Y0059043D01*
X0021542Y0059201D01*
X0021130Y0059201D01*
X0020750Y0059043D01*
X0020459Y0058752D01*
X0020301Y0058372D01*
X0014297Y0058372D01*
X0014297Y0063808D01*
X0020365Y0063808D01*
X0020447Y0063792D01*
X0020529Y0063808D01*
X0020529Y0063808D01*
X0020773Y0063856D01*
X0021049Y0064041D01*
X0021096Y0064111D01*
X0024022Y0067037D01*
X0024082Y0067037D01*
X0024462Y0067195D01*
X0024753Y0067486D01*
X0024911Y0067866D01*
X0024911Y0068278D01*
X0024753Y0068658D01*
X0024462Y0068949D01*
X0024244Y0069040D01*
X0035033Y0069040D01*
X0035033Y0068936D01*
X0035033Y0056594D01*
X0035033Y0056594D01*
X0035033Y0056182D01*
X0035073Y0056086D01*
X0035093Y0055984D01*
X0035151Y0055898D01*
X0035191Y0055802D01*
X0035264Y0055728D01*
X0035322Y0055642D01*
X0035408Y0055584D01*
X0035482Y0055511D01*
X0035578Y0055471D01*
X0035664Y0055413D01*
X0035766Y0055393D01*
X0035862Y0055353D01*
X0035966Y0055353D01*
X0036068Y0055333D01*
X0036170Y0055353D01*
X0036274Y0055353D01*
X0036370Y0055393D01*
X0036472Y0055413D01*
X0036558Y0055471D01*
X0036654Y0055511D01*
X0036728Y0055584D01*
X0036814Y0055642D01*
X0036872Y0055728D01*
X0036945Y0055802D01*
X0036985Y0055898D01*
X0037043Y0055984D01*
X0037063Y0056086D01*
X0037103Y0056182D01*
X0037103Y0062784D01*
X0037281Y0062784D01*
X0037281Y0062372D01*
X0037439Y0061991D01*
X0037730Y0061700D01*
X0038110Y0061543D01*
X0038170Y0061543D01*
X0038314Y0061398D01*
X0038148Y0061329D01*
X0037857Y0061038D01*
X0037699Y0060658D01*
X0037699Y0060246D01*
X0037857Y0059866D01*
X0038148Y0059575D01*
X0038528Y0059417D01*
X0038588Y0059417D01*
X0039863Y0058142D01*
X0039910Y0058072D01*
X0040186Y0057887D01*
X0040430Y0057839D01*
X0040512Y0057823D01*
X0040594Y0057839D01*
X0048139Y0057839D01*
X0048182Y0057797D01*
X0048562Y0057639D01*
X0048974Y0057639D01*
X0049354Y0057797D01*
X0049645Y0058088D01*
X0049803Y0058468D01*
X0049803Y0058855D01*
X0050362Y0058855D01*
X0052345Y0056872D01*
X0052392Y0056802D01*
X0052668Y0056617D01*
X0052747Y0056602D01*
X0052747Y0055404D01*
X0052796Y0055156D01*
X0052936Y0054946D01*
X0053146Y0054806D01*
X0053394Y0054757D01*
X0058394Y0054757D01*
X0058642Y0054806D01*
X0058852Y0054946D01*
X0058992Y0055156D01*
X0059041Y0055404D01*
X0059041Y0059404D01*
X0058992Y0059652D01*
X0058852Y0059862D01*
X0058642Y0060002D01*
X0058394Y0060051D01*
X0053394Y0060051D01*
X0053146Y0060002D01*
X0052936Y0059862D01*
X0052796Y0059652D01*
X0052747Y0059404D01*
X0052747Y0058832D01*
X0051357Y0060222D01*
X0051310Y0060292D01*
X0051034Y0060477D01*
X0050790Y0060525D01*
X0050790Y0060525D01*
X0050708Y0060541D01*
X0050626Y0060525D01*
X0041550Y0060525D01*
X0040581Y0061493D01*
X0040688Y0061449D01*
X0041100Y0061449D01*
X0041480Y0061607D01*
X0041771Y0061898D01*
X0041929Y0062278D01*
X0041929Y0062338D01*
X0045998Y0066407D01*
X0046068Y0066454D01*
X0046131Y0066548D01*
X0046253Y0066730D01*
X0046253Y0066730D01*
X0046301Y0066974D01*
X0046301Y0066974D01*
X0046317Y0067056D01*
X0046301Y0067138D01*
X0046301Y0070612D01*
X0053709Y0070612D01*
X0053709Y0069088D01*
X0053758Y0068840D01*
X0053898Y0068630D01*
X0053973Y0068580D01*
X0053898Y0068530D01*
X0053758Y0068320D01*
X0053709Y0068072D01*
X0053709Y0066548D01*
X0053758Y0066300D01*
X0053898Y0066090D01*
X0054108Y0065950D01*
X0054356Y0065901D01*
X0055880Y0065901D01*
X0056128Y0065950D01*
X0056338Y0066090D01*
X0056478Y0066300D01*
X0056527Y0066548D01*
X0056527Y0068072D01*
X0056478Y0068320D01*
X0056338Y0068530D01*
X0056263Y0068580D01*
X0056338Y0068630D01*
X0056478Y0068840D01*
X0056527Y0069088D01*
X0056527Y0070612D01*
X0056478Y0070860D01*
X0056338Y0071070D01*
X0056128Y0071210D01*
X0055880Y0071259D01*
X0054356Y0071259D01*
X0054108Y0071210D01*
X0053898Y0071070D01*
X0053758Y0070860D01*
X0053709Y0070612D01*
X0046301Y0070612D01*
X0046301Y0072773D01*
X0046476Y0072808D01*
X0046686Y0072948D01*
X0046826Y0073158D01*
X0046875Y0073406D01*
X0046875Y0074930D01*
X0046826Y0075178D01*
X0046686Y0075388D01*
X0046611Y0075438D01*
X0046686Y0075488D01*
X0046826Y0075698D01*
X0046875Y0075946D01*
X0046875Y0077470D01*
X0046826Y0077718D01*
X0046686Y0077928D01*
X0046476Y0078068D01*
X0046228Y0078117D01*
X0044704Y0078117D01*
X0044456Y0078068D01*
X0044246Y0077928D01*
X0044106Y0077718D01*
X0044057Y0077470D01*
X0044057Y0075946D01*
X0044106Y0075698D01*
X0044246Y0075488D01*
X0044321Y0075438D01*
X0044246Y0075388D01*
X0044106Y0075178D01*
X0044057Y0074930D01*
X0044057Y0073406D01*
X0044106Y0073158D01*
X0044246Y0072948D01*
X0044456Y0072808D01*
X0044631Y0072773D01*
X0044631Y0067402D01*
X0040748Y0063519D01*
X0040688Y0063519D01*
X0040308Y0063361D01*
X0040017Y0063070D01*
X0039859Y0062690D01*
X0039859Y0062278D01*
X0039903Y0062171D01*
X0039351Y0062724D01*
X0039351Y0062784D01*
X0039193Y0063164D01*
X0038902Y0063455D01*
X0038522Y0063613D01*
X0038110Y0063613D01*
X0037730Y0063455D01*
X0037439Y0063164D01*
X0037281Y0062784D01*
X0037103Y0062784D01*
X0037103Y0069040D01*
X0037063Y0069136D01*
X0037043Y0069238D01*
X0036985Y0069324D01*
X0036945Y0069420D01*
X0036872Y0069494D01*
X0036814Y0069580D01*
X0036728Y0069638D01*
X0036654Y0069711D01*
X0036558Y0069751D01*
X0036472Y0069809D01*
X0036370Y0069829D01*
X0036274Y0069869D01*
X0036170Y0069869D01*
X0036068Y0069889D01*
X0035966Y0069869D01*
X0035862Y0069869D01*
X0035766Y0069829D01*
X0035664Y0069809D01*
X0035578Y0069751D01*
X0035482Y0069711D01*
X0035408Y0069638D01*
X0035322Y0069580D01*
X0035264Y0069494D01*
X0035191Y0069420D01*
X0035151Y0069324D01*
X0035093Y0069238D01*
X0035073Y0069136D01*
X0035033Y0069040D01*
X0024244Y0069040D01*
X0024082Y0069107D01*
X0023670Y0069107D01*
X0023290Y0068949D01*
X0022999Y0068658D01*
X0022841Y0068278D01*
X0022841Y0068218D01*
X0020101Y0065478D01*
X0014091Y0065478D01*
X0014048Y0065520D01*
X0013668Y0065678D01*
X0013256Y0065678D01*
X0012876Y0065520D01*
X0012585Y0065229D01*
X0012427Y0064849D01*
X0007505Y0064849D01*
X0007505Y0066040D01*
X0007456Y0066288D01*
X0007316Y0066498D01*
X0007106Y0066638D01*
X0006858Y0066687D01*
X0005334Y0066687D01*
X0005086Y0066638D01*
X0004876Y0066498D01*
X0004826Y0066423D01*
X0004776Y0066498D01*
X0004566Y0066638D01*
X0004318Y0066687D01*
X0002794Y0066687D01*
X0002546Y0066638D01*
X0002336Y0066498D01*
X0002196Y0066288D01*
X0002147Y0066040D01*
X0000735Y0066040D01*
X0000735Y0070041D01*
X0013629Y0070041D01*
X0013629Y0069485D01*
X0013842Y0068972D01*
X0014235Y0068579D01*
X0014748Y0068366D01*
X0015304Y0068366D01*
X0015817Y0068579D01*
X0016210Y0068972D01*
X0016423Y0069485D01*
X0016423Y0070041D01*
X0018629Y0070041D01*
X0018629Y0069485D01*
X0018842Y0068972D01*
X0019235Y0068579D01*
X0019748Y0068366D01*
X0020304Y0068366D01*
X0020817Y0068579D01*
X0021210Y0068972D01*
X0021423Y0069485D01*
X0021423Y0070041D01*
X0021210Y0070554D01*
X0020817Y0070947D01*
X0020304Y0071160D01*
X0019748Y0071160D01*
X0019235Y0070947D01*
X0018842Y0070554D01*
X0018629Y0070041D01*
X0016423Y0070041D01*
X0016210Y0070554D01*
X0015817Y0070947D01*
X0015304Y0071160D01*
X0014748Y0071160D01*
X0014235Y0070947D01*
X0013842Y0070554D01*
X0013629Y0070041D01*
X0000735Y0070041D01*
X0000735Y0077470D01*
X0011037Y0077470D01*
X0011037Y0075946D01*
X0011086Y0075698D01*
X0011226Y0075488D01*
X0011301Y0075438D01*
X0011226Y0075388D01*
X0011086Y0075178D01*
X0011037Y0074930D01*
X0011037Y0073406D01*
X0011086Y0073158D01*
X0011226Y0072948D01*
X0011436Y0072808D01*
X0011684Y0072759D01*
X0013208Y0072759D01*
X0013456Y0072808D01*
X0013666Y0072948D01*
X0013716Y0073023D01*
X0013766Y0072948D01*
X0013976Y0072808D01*
X0014224Y0072759D01*
X0015748Y0072759D01*
X0015996Y0072808D01*
X0016206Y0072948D01*
X0016346Y0073158D01*
X0016395Y0073406D01*
X0016395Y0074930D01*
X0016346Y0075178D01*
X0016206Y0075388D01*
X0016131Y0075438D01*
X0016206Y0075488D01*
X0016346Y0075698D01*
X0016395Y0075946D01*
X0016395Y0077470D01*
X0016346Y0077718D01*
X0016206Y0077928D01*
X0015996Y0078068D01*
X0015748Y0078117D01*
X0014224Y0078117D01*
X0013976Y0078068D01*
X0013766Y0077928D01*
X0013716Y0077853D01*
X0013666Y0077928D01*
X0013456Y0078068D01*
X0013208Y0078117D01*
X0011684Y0078117D01*
X0011436Y0078068D01*
X0011226Y0077928D01*
X0011086Y0077718D01*
X0011037Y0077470D01*
X0000735Y0077470D01*
X0000735Y0079529D01*
X0059717Y0079529D01*
X0059717Y0040867D01*
X0060452Y0000000D02*
%LPD*%
G01*
D31*
X0077724Y0024130D03*
X0075184Y0024130D03*
X0077724Y0026670D03*
X0075184Y0026670D03*
X0077724Y0029210D03*
X0075184Y0029210D03*
X0064643Y0022606D03*
X0062103Y0022606D03*
X0064643Y0025146D03*
X0062103Y0025146D03*
X0075184Y0014224D03*
X0077724Y0014224D03*
X0075184Y0011684D03*
X0077724Y0011684D03*
D63*
X0075438Y0004826D03*
X0065278Y0004826D03*
X0065278Y0035306D03*
X0075438Y0035306D03*
D41*
X0065024Y0015875D03*
X0071374Y0022606D03*
X0069977Y0022606D03*
X0066929Y0028194D03*
X0068326Y0028194D03*
X0070993Y0032131D03*
X0069469Y0032131D03*
X0075819Y0016129D03*
X0074549Y0016129D03*
X0064770Y0017272D03*
X0063500Y0017145D03*
D39*
X0069977Y0022606D02*
X0071374Y0022606D01*
X0068326Y0028194D02*
X0066929Y0028194D01*
X0069469Y0032131D02*
X0070993Y0032131D01*
X0074549Y0016129D02*
X0075819Y0016129D01*
X0064643Y0017145D02*
X0064770Y0017272D01*
X0063500Y0017145D02*
X0064643Y0017145D01*
D25*
G36*
X0079554Y0000710D02*
X0061162Y0000710D01*
X0061162Y0014986D01*
X0073775Y0014986D01*
X0073775Y0013462D01*
X0073824Y0013214D01*
X0073964Y0013004D01*
X0074174Y0012864D01*
X0074422Y0012815D01*
X0075946Y0012815D01*
X0076194Y0012864D01*
X0076404Y0013004D01*
X0076454Y0013079D01*
X0076504Y0013004D01*
X0076714Y0012864D01*
X0076962Y0012815D01*
X0078486Y0012815D01*
X0078734Y0012864D01*
X0078944Y0013004D01*
X0079084Y0013214D01*
X0079133Y0013462D01*
X0079133Y0014986D01*
X0079084Y0015234D01*
X0078944Y0015444D01*
X0078734Y0015584D01*
X0078486Y0015633D01*
X0076962Y0015633D01*
X0076714Y0015584D01*
X0076504Y0015444D01*
X0076454Y0015369D01*
X0076404Y0015444D01*
X0076194Y0015584D01*
X0075946Y0015633D01*
X0074422Y0015633D01*
X0074174Y0015584D01*
X0073964Y0015444D01*
X0073824Y0015234D01*
X0073775Y0014986D01*
X0061162Y0014986D01*
X0061162Y0021232D01*
X0061341Y0021197D01*
X0062865Y0021197D01*
X0063113Y0021246D01*
X0063323Y0021386D01*
X0063373Y0021461D01*
X0063423Y0021386D01*
X0063633Y0021246D01*
X0063881Y0021197D01*
X0065405Y0021197D01*
X0065653Y0021246D01*
X0065863Y0021386D01*
X0066003Y0021596D01*
X0066052Y0021844D01*
X0066052Y0023368D01*
X0066003Y0023616D01*
X0065863Y0023826D01*
X0065653Y0023966D01*
X0065405Y0024015D01*
X0063881Y0024015D01*
X0063633Y0023966D01*
X0063423Y0023826D01*
X0063373Y0023751D01*
X0063323Y0023826D01*
X0063113Y0023966D01*
X0062865Y0024015D01*
X0061341Y0024015D01*
X0061162Y0023980D01*
X0061162Y0027432D01*
X0073775Y0027432D01*
X0073775Y0025908D01*
X0073824Y0025660D01*
X0073964Y0025450D01*
X0074174Y0025310D01*
X0074422Y0025261D01*
X0075946Y0025261D01*
X0076194Y0025310D01*
X0076404Y0025450D01*
X0076454Y0025525D01*
X0076504Y0025450D01*
X0076714Y0025310D01*
X0076962Y0025261D01*
X0078486Y0025261D01*
X0078734Y0025310D01*
X0078944Y0025450D01*
X0079084Y0025660D01*
X0079133Y0025908D01*
X0079133Y0027432D01*
X0079084Y0027680D01*
X0078944Y0027890D01*
X0078734Y0028030D01*
X0078486Y0028079D01*
X0076962Y0028079D01*
X0076714Y0028030D01*
X0076504Y0027890D01*
X0076454Y0027815D01*
X0076404Y0027890D01*
X0076194Y0028030D01*
X0075946Y0028079D01*
X0074422Y0028079D01*
X0074174Y0028030D01*
X0073964Y0027890D01*
X0073824Y0027680D01*
X0073775Y0027432D01*
X0061162Y0027432D01*
X0061162Y0039422D01*
X0079554Y0039422D01*
X0079554Y0000710D01*
X0079554Y0000710D01*
G37*
X0079554Y0000710D02*
X0061162Y0000710D01*
X0061162Y0014986D01*
X0073775Y0014986D01*
X0073775Y0013462D01*
X0073824Y0013214D01*
X0073964Y0013004D01*
X0074174Y0012864D01*
X0074422Y0012815D01*
X0075946Y0012815D01*
X0076194Y0012864D01*
X0076404Y0013004D01*
X0076454Y0013079D01*
X0076504Y0013004D01*
X0076714Y0012864D01*
X0076962Y0012815D01*
X0078486Y0012815D01*
X0078734Y0012864D01*
X0078944Y0013004D01*
X0079084Y0013214D01*
X0079133Y0013462D01*
X0079133Y0014986D01*
X0079084Y0015234D01*
X0078944Y0015444D01*
X0078734Y0015584D01*
X0078486Y0015633D01*
X0076962Y0015633D01*
X0076714Y0015584D01*
X0076504Y0015444D01*
X0076454Y0015369D01*
X0076404Y0015444D01*
X0076194Y0015584D01*
X0075946Y0015633D01*
X0074422Y0015633D01*
X0074174Y0015584D01*
X0073964Y0015444D01*
X0073824Y0015234D01*
X0073775Y0014986D01*
X0061162Y0014986D01*
X0061162Y0021232D01*
X0061341Y0021197D01*
X0062865Y0021197D01*
X0063113Y0021246D01*
X0063323Y0021386D01*
X0063373Y0021461D01*
X0063423Y0021386D01*
X0063633Y0021246D01*
X0063881Y0021197D01*
X0065405Y0021197D01*
X0065653Y0021246D01*
X0065863Y0021386D01*
X0066003Y0021596D01*
X0066052Y0021844D01*
X0066052Y0023368D01*
X0066003Y0023616D01*
X0065863Y0023826D01*
X0065653Y0023966D01*
X0065405Y0024015D01*
X0063881Y0024015D01*
X0063633Y0023966D01*
X0063423Y0023826D01*
X0063373Y0023751D01*
X0063323Y0023826D01*
X0063113Y0023966D01*
X0062865Y0024015D01*
X0061341Y0024015D01*
X0061162Y0023980D01*
X0061162Y0027432D01*
X0073775Y0027432D01*
X0073775Y0025908D01*
X0073824Y0025660D01*
X0073964Y0025450D01*
X0074174Y0025310D01*
X0074422Y0025261D01*
X0075946Y0025261D01*
X0076194Y0025310D01*
X0076404Y0025450D01*
X0076454Y0025525D01*
X0076504Y0025450D01*
X0076714Y0025310D01*
X0076962Y0025261D01*
X0078486Y0025261D01*
X0078734Y0025310D01*
X0078944Y0025450D01*
X0079084Y0025660D01*
X0079133Y0025908D01*
X0079133Y0027432D01*
X0079084Y0027680D01*
X0078944Y0027890D01*
X0078734Y0028030D01*
X0078486Y0028079D01*
X0076962Y0028079D01*
X0076714Y0028030D01*
X0076504Y0027890D01*
X0076454Y0027815D01*
X0076404Y0027890D01*
X0076194Y0028030D01*
X0075946Y0028079D01*
X0074422Y0028079D01*
X0074174Y0028030D01*
X0073964Y0027890D01*
X0073824Y0027680D01*
X0073775Y0027432D01*
X0061162Y0027432D01*
X0061162Y0039422D01*
X0079554Y0039422D01*
X0079554Y0000710D01*
X0060452Y0040132D02*
%LPD*%
G01*
D31*
X0077724Y0064262D03*
X0075184Y0064262D03*
X0077724Y0066802D03*
X0075184Y0066802D03*
X0077724Y0069342D03*
X0075184Y0069342D03*
X0064643Y0062738D03*
X0062103Y0062738D03*
X0064643Y0065278D03*
X0062103Y0065278D03*
X0075184Y0054356D03*
X0077724Y0054356D03*
X0075184Y0051816D03*
X0077724Y0051816D03*
D63*
X0075438Y0044958D03*
X0065278Y0044958D03*
X0065278Y0075438D03*
X0075438Y0075438D03*
D41*
X0065024Y0056007D03*
X0071374Y0062738D03*
X0069977Y0062738D03*
X0066929Y0068326D03*
X0068326Y0068326D03*
X0070993Y0072263D03*
X0069469Y0072263D03*
X0075819Y0056261D03*
X0074549Y0056261D03*
X0064770Y0057404D03*
X0063500Y0057277D03*
D39*
X0069977Y0062738D02*
X0071374Y0062738D01*
X0068326Y0068326D02*
X0066929Y0068326D01*
X0069469Y0072263D02*
X0070993Y0072263D01*
X0074549Y0056261D02*
X0075819Y0056261D01*
X0064643Y0057277D02*
X0064770Y0057404D01*
X0063500Y0057277D02*
X0064643Y0057277D01*
D25*
G36*
X0079554Y0040842D02*
X0061162Y0040842D01*
X0061162Y0055118D01*
X0073775Y0055118D01*
X0073775Y0053594D01*
X0073824Y0053346D01*
X0073964Y0053136D01*
X0074174Y0052996D01*
X0074422Y0052947D01*
X0075946Y0052947D01*
X0076194Y0052996D01*
X0076404Y0053136D01*
X0076454Y0053211D01*
X0076504Y0053136D01*
X0076714Y0052996D01*
X0076962Y0052947D01*
X0078486Y0052947D01*
X0078734Y0052996D01*
X0078944Y0053136D01*
X0079084Y0053346D01*
X0079133Y0053594D01*
X0079133Y0055118D01*
X0079084Y0055366D01*
X0078944Y0055576D01*
X0078734Y0055716D01*
X0078486Y0055765D01*
X0076962Y0055765D01*
X0076714Y0055716D01*
X0076504Y0055576D01*
X0076454Y0055501D01*
X0076404Y0055576D01*
X0076194Y0055716D01*
X0075946Y0055765D01*
X0074422Y0055765D01*
X0074174Y0055716D01*
X0073964Y0055576D01*
X0073824Y0055366D01*
X0073775Y0055118D01*
X0061162Y0055118D01*
X0061162Y0061364D01*
X0061341Y0061329D01*
X0062865Y0061329D01*
X0063113Y0061378D01*
X0063323Y0061518D01*
X0063373Y0061593D01*
X0063423Y0061518D01*
X0063633Y0061378D01*
X0063881Y0061329D01*
X0065405Y0061329D01*
X0065653Y0061378D01*
X0065863Y0061518D01*
X0066003Y0061728D01*
X0066052Y0061976D01*
X0066052Y0063500D01*
X0066003Y0063748D01*
X0065863Y0063958D01*
X0065653Y0064098D01*
X0065405Y0064147D01*
X0063881Y0064147D01*
X0063633Y0064098D01*
X0063423Y0063958D01*
X0063373Y0063883D01*
X0063323Y0063958D01*
X0063113Y0064098D01*
X0062865Y0064147D01*
X0061341Y0064147D01*
X0061162Y0064112D01*
X0061162Y0067564D01*
X0073775Y0067564D01*
X0073775Y0066040D01*
X0073824Y0065792D01*
X0073964Y0065582D01*
X0074174Y0065442D01*
X0074422Y0065393D01*
X0075946Y0065393D01*
X0076194Y0065442D01*
X0076404Y0065582D01*
X0076454Y0065657D01*
X0076504Y0065582D01*
X0076714Y0065442D01*
X0076962Y0065393D01*
X0078486Y0065393D01*
X0078734Y0065442D01*
X0078944Y0065582D01*
X0079084Y0065792D01*
X0079133Y0066040D01*
X0079133Y0067564D01*
X0079084Y0067812D01*
X0078944Y0068022D01*
X0078734Y0068162D01*
X0078486Y0068211D01*
X0076962Y0068211D01*
X0076714Y0068162D01*
X0076504Y0068022D01*
X0076454Y0067947D01*
X0076404Y0068022D01*
X0076194Y0068162D01*
X0075946Y0068211D01*
X0074422Y0068211D01*
X0074174Y0068162D01*
X0073964Y0068022D01*
X0073824Y0067812D01*
X0073775Y0067564D01*
X0061162Y0067564D01*
X0061162Y0079554D01*
X0079554Y0079554D01*
X0079554Y0040842D01*
X0079554Y0040842D01*
G37*
X0079554Y0040842D02*
X0061162Y0040842D01*
X0061162Y0055118D01*
X0073775Y0055118D01*
X0073775Y0053594D01*
X0073824Y0053346D01*
X0073964Y0053136D01*
X0074174Y0052996D01*
X0074422Y0052947D01*
X0075946Y0052947D01*
X0076194Y0052996D01*
X0076404Y0053136D01*
X0076454Y0053211D01*
X0076504Y0053136D01*
X0076714Y0052996D01*
X0076962Y0052947D01*
X0078486Y0052947D01*
X0078734Y0052996D01*
X0078944Y0053136D01*
X0079084Y0053346D01*
X0079133Y0053594D01*
X0079133Y0055118D01*
X0079084Y0055366D01*
X0078944Y0055576D01*
X0078734Y0055716D01*
X0078486Y0055765D01*
X0076962Y0055765D01*
X0076714Y0055716D01*
X0076504Y0055576D01*
X0076454Y0055501D01*
X0076404Y0055576D01*
X0076194Y0055716D01*
X0075946Y0055765D01*
X0074422Y0055765D01*
X0074174Y0055716D01*
X0073964Y0055576D01*
X0073824Y0055366D01*
X0073775Y0055118D01*
X0061162Y0055118D01*
X0061162Y0061364D01*
X0061341Y0061329D01*
X0062865Y0061329D01*
X0063113Y0061378D01*
X0063323Y0061518D01*
X0063373Y0061593D01*
X0063423Y0061518D01*
X0063633Y0061378D01*
X0063881Y0061329D01*
X0065405Y0061329D01*
X0065653Y0061378D01*
X0065863Y0061518D01*
X0066003Y0061728D01*
X0066052Y0061976D01*
X0066052Y0063500D01*
X0066003Y0063748D01*
X0065863Y0063958D01*
X0065653Y0064098D01*
X0065405Y0064147D01*
X0063881Y0064147D01*
X0063633Y0064098D01*
X0063423Y0063958D01*
X0063373Y0063883D01*
X0063323Y0063958D01*
X0063113Y0064098D01*
X0062865Y0064147D01*
X0061341Y0064147D01*
X0061162Y0064112D01*
X0061162Y0067564D01*
X0073775Y0067564D01*
X0073775Y0066040D01*
X0073824Y0065792D01*
X0073964Y0065582D01*
X0074174Y0065442D01*
X0074422Y0065393D01*
X0075946Y0065393D01*
X0076194Y0065442D01*
X0076404Y0065582D01*
X0076454Y0065657D01*
X0076504Y0065582D01*
X0076714Y0065442D01*
X0076962Y0065393D01*
X0078486Y0065393D01*
X0078734Y0065442D01*
X0078944Y0065582D01*
X0079084Y0065792D01*
X0079133Y0066040D01*
X0079133Y0067564D01*
X0079084Y0067812D01*
X0078944Y0068022D01*
X0078734Y0068162D01*
X0078486Y0068211D01*
X0076962Y0068211D01*
X0076714Y0068162D01*
X0076504Y0068022D01*
X0076454Y0067947D01*
X0076404Y0068022D01*
X0076194Y0068162D01*
X0075946Y0068211D01*
X0074422Y0068211D01*
X0074174Y0068162D01*
X0073964Y0068022D01*
X0073824Y0067812D01*
X0073775Y0067564D01*
X0061162Y0067564D01*
X0061162Y0079554D01*
X0079554Y0079554D01*
X0079554Y0040842D01*
X0080264Y0000000D02*
%LPD*%
G01*
D31*
X0083820Y0028956D03*
X0086360Y0028956D03*
X0083820Y0026416D03*
X0086360Y0026416D03*
X0083820Y0023876D03*
X0086360Y0023876D03*
X0086360Y0011176D03*
X0083820Y0011176D03*
X0086360Y0013716D03*
X0083820Y0013716D03*
X0086360Y0016256D03*
X0083820Y0016256D03*
X0086360Y0018796D03*
X0083820Y0018796D03*
D63*
X0095250Y0004826D03*
X0085090Y0035306D03*
X0095250Y0035306D03*
X0085090Y0004826D03*
D31*
X0098425Y0012446D03*
X0098425Y0009906D03*
D41*
X0090551Y0021844D03*
X0097158Y0021087D03*
X0093980Y0024511D03*
X0092710Y0023241D03*
X0099060Y0020701D03*
X0097155Y0018796D03*
X0090805Y0008636D03*
X0091059Y0007366D03*
X0090043Y0007366D03*
X0089027Y0007366D03*
X0088011Y0008890D03*
X0096647Y0009398D03*
X0096647Y0010414D03*
X0096647Y0011430D03*
X0094869Y0015748D03*
X0094107Y0015748D03*
X0090551Y0011938D03*
X0090551Y0012700D03*
X0086741Y0009652D03*
X0085725Y0009652D03*
X0084709Y0009652D03*
X0083693Y0009652D03*
X0083693Y0020066D03*
X0084963Y0020066D03*
X0084963Y0022352D03*
X0083947Y0022352D03*
X0082931Y0022352D03*
X0087757Y0029464D03*
X0087757Y0028448D03*
X0089027Y0028448D03*
X0089027Y0029464D03*
X0089027Y0030480D03*
X0087503Y0030480D03*
X0086233Y0030480D03*
X0084963Y0030480D03*
X0083693Y0030480D03*
X0085979Y0022352D03*
X0085979Y0021082D03*
X0085979Y0020066D03*
X0086995Y0020066D03*
X0088011Y0019304D03*
X0088011Y0018288D03*
X0088265Y0015494D03*
X0088773Y0016510D03*
X0088773Y0017526D03*
X0090551Y0017496D03*
X0091313Y0017272D03*
X0092329Y0017272D03*
X0093345Y0017272D03*
X0093345Y0016256D03*
X0093345Y0015240D03*
X0089535Y0020036D03*
D16*
X0096401Y0021844D02*
X0090551Y0021844D01*
X0097158Y0021087D02*
X0096401Y0021844D01*
X0092710Y0023241D02*
X0093980Y0024511D01*
X0090043Y0007366D02*
X0091059Y0007366D01*
X0088011Y0008382D02*
X0089027Y0007366D01*
X0088011Y0008890D02*
X0088011Y0008382D01*
X0096647Y0011430D02*
X0096647Y0010414D01*
X0094107Y0015748D02*
X0094869Y0015748D01*
X0090551Y0012700D02*
X0090551Y0011938D01*
X0084709Y0009652D02*
X0085725Y0009652D01*
X0083820Y0009779D02*
X0083693Y0009652D01*
X0083820Y0011176D02*
X0083820Y0009779D01*
X0085979Y0020066D02*
X0084963Y0020066D01*
X0082931Y0022352D02*
X0083947Y0022352D01*
X0087757Y0028448D02*
X0087757Y0029464D01*
X0089027Y0029464D02*
X0089027Y0028448D01*
X0087503Y0030480D02*
X0089027Y0030480D01*
X0084963Y0030480D02*
X0086233Y0030480D01*
X0083820Y0030353D02*
X0083693Y0030480D01*
X0083820Y0028956D02*
X0083820Y0030353D01*
X0085979Y0020066D02*
X0085979Y0021082D01*
X0087757Y0019304D02*
X0086995Y0020066D01*
X0088011Y0019304D02*
X0087757Y0019304D01*
X0088265Y0018034D02*
X0088011Y0018288D01*
X0088265Y0015494D02*
X0088265Y0018034D01*
X0088773Y0017526D02*
X0088773Y0016510D01*
X0090775Y0017272D02*
X0090551Y0017496D01*
X0091313Y0017272D02*
X0090775Y0017272D01*
X0093345Y0017272D02*
X0092329Y0017272D01*
X0093345Y0015240D02*
X0093345Y0016256D01*
X0096785Y0020436D02*
X0098425Y0018796D01*
X0098425Y0018796D02*
X0098425Y0012446D01*
X0089535Y0020036D02*
X0089935Y0020436D01*
X0089935Y0020436D02*
X0096785Y0020436D01*
D25*
G36*
X0092912Y0038805D02*
X0091751Y0037644D01*
X0091123Y0036127D01*
X0091123Y0034485D01*
X0091751Y0032968D01*
X0092912Y0031807D01*
X0094429Y0031179D01*
X0096071Y0031179D01*
X0097588Y0031807D01*
X0098749Y0032968D01*
X0099341Y0034398D01*
X0099341Y0013825D01*
X0099210Y0013851D01*
X0099210Y0018719D01*
X0099225Y0018796D01*
X0099210Y0018873D01*
X0099210Y0018873D01*
X0099164Y0019102D01*
X0099075Y0019236D01*
X0099035Y0019296D01*
X0099035Y0019296D01*
X0098991Y0019362D01*
X0098925Y0019406D01*
X0097933Y0020398D01*
X0098035Y0020501D01*
X0098193Y0020881D01*
X0098193Y0021293D01*
X0098035Y0021673D01*
X0097744Y0021964D01*
X0097364Y0022122D01*
X0097233Y0022122D01*
X0097010Y0022344D01*
X0096967Y0022410D01*
X0096707Y0022583D01*
X0096478Y0022629D01*
X0096478Y0022629D01*
X0096401Y0022644D01*
X0096323Y0022629D01*
X0091230Y0022629D01*
X0091137Y0022721D01*
X0090757Y0022879D01*
X0090345Y0022879D01*
X0089965Y0022721D01*
X0089674Y0022430D01*
X0089516Y0022050D01*
X0089516Y0021638D01*
X0089674Y0021258D01*
X0089735Y0021197D01*
X0089629Y0021175D01*
X0089472Y0021071D01*
X0089329Y0021071D01*
X0088949Y0020913D01*
X0088658Y0020622D01*
X0088500Y0020242D01*
X0088500Y0019830D01*
X0088658Y0019450D01*
X0088949Y0019159D01*
X0089329Y0019001D01*
X0089741Y0019001D01*
X0090121Y0019159D01*
X0090412Y0019450D01*
X0090496Y0019651D01*
X0096460Y0019651D01*
X0097640Y0018471D01*
X0097640Y0013851D01*
X0097415Y0013806D01*
X0097205Y0013666D01*
X0097065Y0013456D01*
X0097016Y0013208D01*
X0097016Y0011684D01*
X0097065Y0011436D01*
X0097205Y0011226D01*
X0097415Y0011086D01*
X0097663Y0011037D01*
X0099187Y0011037D01*
X0099341Y0011067D01*
X0099341Y0005734D01*
X0098749Y0007164D01*
X0097588Y0008325D01*
X0096071Y0008953D01*
X0094429Y0008953D01*
X0092912Y0008325D01*
X0091751Y0007164D01*
X0091123Y0005647D01*
X0091123Y0004005D01*
X0091751Y0002488D01*
X0092912Y0001327D01*
X0094342Y0000735D01*
X0085998Y0000735D01*
X0087428Y0001327D01*
X0088589Y0002488D01*
X0089217Y0004005D01*
X0089217Y0005647D01*
X0088589Y0007164D01*
X0087428Y0008325D01*
X0085911Y0008953D01*
X0084269Y0008953D01*
X0082752Y0008325D01*
X0081591Y0007164D01*
X0080999Y0005734D01*
X0080999Y0017018D01*
X0082411Y0017018D01*
X0082411Y0015494D01*
X0082460Y0015246D01*
X0082600Y0015036D01*
X0082675Y0014986D01*
X0082600Y0014936D01*
X0082460Y0014726D01*
X0082411Y0014478D01*
X0082411Y0012954D01*
X0082460Y0012706D01*
X0082600Y0012496D01*
X0082810Y0012356D01*
X0083058Y0012307D01*
X0084582Y0012307D01*
X0084830Y0012356D01*
X0085040Y0012496D01*
X0085090Y0012571D01*
X0085140Y0012496D01*
X0085350Y0012356D01*
X0085598Y0012307D01*
X0087122Y0012307D01*
X0087370Y0012356D01*
X0087580Y0012496D01*
X0087720Y0012706D01*
X0087769Y0012954D01*
X0087769Y0014478D01*
X0087720Y0014726D01*
X0087580Y0014936D01*
X0087505Y0014986D01*
X0087580Y0015036D01*
X0087720Y0015246D01*
X0087769Y0015494D01*
X0087769Y0017018D01*
X0087720Y0017266D01*
X0087580Y0017476D01*
X0087370Y0017616D01*
X0087122Y0017665D01*
X0085598Y0017665D01*
X0085350Y0017616D01*
X0085140Y0017476D01*
X0085090Y0017401D01*
X0085040Y0017476D01*
X0084830Y0017616D01*
X0084582Y0017665D01*
X0083058Y0017665D01*
X0082810Y0017616D01*
X0082600Y0017476D01*
X0082460Y0017266D01*
X0082411Y0017018D01*
X0080999Y0017018D01*
X0080999Y0027178D01*
X0082411Y0027178D01*
X0082411Y0025654D01*
X0082460Y0025406D01*
X0082600Y0025196D01*
X0082810Y0025056D01*
X0083058Y0025007D01*
X0084582Y0025007D01*
X0084830Y0025056D01*
X0085040Y0025196D01*
X0085090Y0025271D01*
X0085140Y0025196D01*
X0085350Y0025056D01*
X0085598Y0025007D01*
X0087122Y0025007D01*
X0087370Y0025056D01*
X0087580Y0025196D01*
X0087720Y0025406D01*
X0087769Y0025654D01*
X0087769Y0027178D01*
X0087720Y0027426D01*
X0087580Y0027636D01*
X0087370Y0027776D01*
X0087122Y0027825D01*
X0085598Y0027825D01*
X0085350Y0027776D01*
X0085140Y0027636D01*
X0085090Y0027561D01*
X0085040Y0027636D01*
X0084830Y0027776D01*
X0084582Y0027825D01*
X0083058Y0027825D01*
X0082810Y0027776D01*
X0082600Y0027636D01*
X0082460Y0027426D01*
X0082411Y0027178D01*
X0080999Y0027178D01*
X0080999Y0034398D01*
X0081591Y0032968D01*
X0082752Y0031807D01*
X0084269Y0031179D01*
X0085911Y0031179D01*
X0087428Y0031807D01*
X0088589Y0032968D01*
X0089217Y0034485D01*
X0089217Y0036127D01*
X0088589Y0037644D01*
X0087428Y0038805D01*
X0085998Y0039397D01*
X0094342Y0039397D01*
X0092912Y0038805D01*
X0092912Y0038805D01*
G37*
X0092912Y0038805D02*
X0091751Y0037644D01*
X0091123Y0036127D01*
X0091123Y0034485D01*
X0091751Y0032968D01*
X0092912Y0031807D01*
X0094429Y0031179D01*
X0096071Y0031179D01*
X0097588Y0031807D01*
X0098749Y0032968D01*
X0099341Y0034398D01*
X0099341Y0013825D01*
X0099210Y0013851D01*
X0099210Y0018719D01*
X0099225Y0018796D01*
X0099210Y0018873D01*
X0099210Y0018873D01*
X0099164Y0019102D01*
X0099075Y0019236D01*
X0099035Y0019296D01*
X0099035Y0019296D01*
X0098991Y0019362D01*
X0098925Y0019406D01*
X0097933Y0020398D01*
X0098035Y0020501D01*
X0098193Y0020881D01*
X0098193Y0021293D01*
X0098035Y0021673D01*
X0097744Y0021964D01*
X0097364Y0022122D01*
X0097233Y0022122D01*
X0097010Y0022344D01*
X0096967Y0022410D01*
X0096707Y0022583D01*
X0096478Y0022629D01*
X0096478Y0022629D01*
X0096401Y0022644D01*
X0096323Y0022629D01*
X0091230Y0022629D01*
X0091137Y0022721D01*
X0090757Y0022879D01*
X0090345Y0022879D01*
X0089965Y0022721D01*
X0089674Y0022430D01*
X0089516Y0022050D01*
X0089516Y0021638D01*
X0089674Y0021258D01*
X0089735Y0021197D01*
X0089629Y0021175D01*
X0089472Y0021071D01*
X0089329Y0021071D01*
X0088949Y0020913D01*
X0088658Y0020622D01*
X0088500Y0020242D01*
X0088500Y0019830D01*
X0088658Y0019450D01*
X0088949Y0019159D01*
X0089329Y0019001D01*
X0089741Y0019001D01*
X0090121Y0019159D01*
X0090412Y0019450D01*
X0090496Y0019651D01*
X0096460Y0019651D01*
X0097640Y0018471D01*
X0097640Y0013851D01*
X0097415Y0013806D01*
X0097205Y0013666D01*
X0097065Y0013456D01*
X0097016Y0013208D01*
X0097016Y0011684D01*
X0097065Y0011436D01*
X0097205Y0011226D01*
X0097415Y0011086D01*
X0097663Y0011037D01*
X0099187Y0011037D01*
X0099341Y0011067D01*
X0099341Y0005734D01*
X0098749Y0007164D01*
X0097588Y0008325D01*
X0096071Y0008953D01*
X0094429Y0008953D01*
X0092912Y0008325D01*
X0091751Y0007164D01*
X0091123Y0005647D01*
X0091123Y0004005D01*
X0091751Y0002488D01*
X0092912Y0001327D01*
X0094342Y0000735D01*
X0085998Y0000735D01*
X0087428Y0001327D01*
X0088589Y0002488D01*
X0089217Y0004005D01*
X0089217Y0005647D01*
X0088589Y0007164D01*
X0087428Y0008325D01*
X0085911Y0008953D01*
X0084269Y0008953D01*
X0082752Y0008325D01*
X0081591Y0007164D01*
X0080999Y0005734D01*
X0080999Y0017018D01*
X0082411Y0017018D01*
X0082411Y0015494D01*
X0082460Y0015246D01*
X0082600Y0015036D01*
X0082675Y0014986D01*
X0082600Y0014936D01*
X0082460Y0014726D01*
X0082411Y0014478D01*
X0082411Y0012954D01*
X0082460Y0012706D01*
X0082600Y0012496D01*
X0082810Y0012356D01*
X0083058Y0012307D01*
X0084582Y0012307D01*
X0084830Y0012356D01*
X0085040Y0012496D01*
X0085090Y0012571D01*
X0085140Y0012496D01*
X0085350Y0012356D01*
X0085598Y0012307D01*
X0087122Y0012307D01*
X0087370Y0012356D01*
X0087580Y0012496D01*
X0087720Y0012706D01*
X0087769Y0012954D01*
X0087769Y0014478D01*
X0087720Y0014726D01*
X0087580Y0014936D01*
X0087505Y0014986D01*
X0087580Y0015036D01*
X0087720Y0015246D01*
X0087769Y0015494D01*
X0087769Y0017018D01*
X0087720Y0017266D01*
X0087580Y0017476D01*
X0087370Y0017616D01*
X0087122Y0017665D01*
X0085598Y0017665D01*
X0085350Y0017616D01*
X0085140Y0017476D01*
X0085090Y0017401D01*
X0085040Y0017476D01*
X0084830Y0017616D01*
X0084582Y0017665D01*
X0083058Y0017665D01*
X0082810Y0017616D01*
X0082600Y0017476D01*
X0082460Y0017266D01*
X0082411Y0017018D01*
X0080999Y0017018D01*
X0080999Y0027178D01*
X0082411Y0027178D01*
X0082411Y0025654D01*
X0082460Y0025406D01*
X0082600Y0025196D01*
X0082810Y0025056D01*
X0083058Y0025007D01*
X0084582Y0025007D01*
X0084830Y0025056D01*
X0085040Y0025196D01*
X0085090Y0025271D01*
X0085140Y0025196D01*
X0085350Y0025056D01*
X0085598Y0025007D01*
X0087122Y0025007D01*
X0087370Y0025056D01*
X0087580Y0025196D01*
X0087720Y0025406D01*
X0087769Y0025654D01*
X0087769Y0027178D01*
X0087720Y0027426D01*
X0087580Y0027636D01*
X0087370Y0027776D01*
X0087122Y0027825D01*
X0085598Y0027825D01*
X0085350Y0027776D01*
X0085140Y0027636D01*
X0085090Y0027561D01*
X0085040Y0027636D01*
X0084830Y0027776D01*
X0084582Y0027825D01*
X0083058Y0027825D01*
X0082810Y0027776D01*
X0082600Y0027636D01*
X0082460Y0027426D01*
X0082411Y0027178D01*
X0080999Y0027178D01*
X0080999Y0034398D01*
X0081591Y0032968D01*
X0082752Y0031807D01*
X0084269Y0031179D01*
X0085911Y0031179D01*
X0087428Y0031807D01*
X0088589Y0032968D01*
X0089217Y0034485D01*
X0089217Y0036127D01*
X0088589Y0037644D01*
X0087428Y0038805D01*
X0085998Y0039397D01*
X0094342Y0039397D01*
X0092912Y0038805D01*
X0080264Y0040132D02*
%LPD*%
G01*
D31*
X0083820Y0069088D03*
X0086360Y0069088D03*
X0083820Y0066548D03*
X0086360Y0066548D03*
X0083820Y0064008D03*
X0086360Y0064008D03*
X0086360Y0051308D03*
X0083820Y0051308D03*
X0086360Y0053848D03*
X0083820Y0053848D03*
X0086360Y0056388D03*
X0083820Y0056388D03*
X0086360Y0058928D03*
X0083820Y0058928D03*
D63*
X0095250Y0044958D03*
X0085090Y0075438D03*
X0095250Y0075438D03*
X0085090Y0044958D03*
D31*
X0098425Y0052578D03*
X0098425Y0050038D03*
D41*
X0090551Y0061976D03*
X0097158Y0061219D03*
X0093980Y0064643D03*
X0092710Y0063373D03*
X0099060Y0060833D03*
X0097155Y0058928D03*
X0090805Y0048768D03*
X0091059Y0047498D03*
X0090043Y0047498D03*
X0089027Y0047498D03*
X0088011Y0049022D03*
X0096647Y0049530D03*
X0096647Y0050546D03*
X0096647Y0051562D03*
X0094869Y0055880D03*
X0094107Y0055880D03*
X0090551Y0052070D03*
X0090551Y0052832D03*
X0086741Y0049784D03*
X0085725Y0049784D03*
X0084709Y0049784D03*
X0083693Y0049784D03*
X0083693Y0060198D03*
X0084963Y0060198D03*
X0084963Y0062484D03*
X0083947Y0062484D03*
X0082931Y0062484D03*
X0087757Y0069596D03*
X0087757Y0068580D03*
X0089027Y0068580D03*
X0089027Y0069596D03*
X0089027Y0070612D03*
X0087503Y0070612D03*
X0086233Y0070612D03*
X0084963Y0070612D03*
X0083693Y0070612D03*
X0085979Y0062484D03*
X0085979Y0061214D03*
X0085979Y0060198D03*
X0086995Y0060198D03*
X0088011Y0059436D03*
X0088011Y0058420D03*
X0088265Y0055626D03*
X0088773Y0056642D03*
X0088773Y0057658D03*
X0090551Y0057628D03*
X0091313Y0057404D03*
X0092329Y0057404D03*
X0093345Y0057404D03*
X0093345Y0056388D03*
X0093345Y0055372D03*
X0089535Y0060168D03*
D16*
X0096401Y0061976D02*
X0090551Y0061976D01*
X0097158Y0061219D02*
X0096401Y0061976D01*
X0092710Y0063373D02*
X0093980Y0064643D01*
X0090043Y0047498D02*
X0091059Y0047498D01*
X0088011Y0048514D02*
X0089027Y0047498D01*
X0088011Y0049022D02*
X0088011Y0048514D01*
X0096647Y0051562D02*
X0096647Y0050546D01*
X0094107Y0055880D02*
X0094869Y0055880D01*
X0090551Y0052832D02*
X0090551Y0052070D01*
X0084709Y0049784D02*
X0085725Y0049784D01*
X0083820Y0049911D02*
X0083693Y0049784D01*
X0083820Y0051308D02*
X0083820Y0049911D01*
X0085979Y0060198D02*
X0084963Y0060198D01*
X0082931Y0062484D02*
X0083947Y0062484D01*
X0087757Y0068580D02*
X0087757Y0069596D01*
X0089027Y0069596D02*
X0089027Y0068580D01*
X0087503Y0070612D02*
X0089027Y0070612D01*
X0084963Y0070612D02*
X0086233Y0070612D01*
X0083820Y0070485D02*
X0083693Y0070612D01*
X0083820Y0069088D02*
X0083820Y0070485D01*
X0085979Y0060198D02*
X0085979Y0061214D01*
X0087757Y0059436D02*
X0086995Y0060198D01*
X0088011Y0059436D02*
X0087757Y0059436D01*
X0088265Y0058166D02*
X0088011Y0058420D01*
X0088265Y0055626D02*
X0088265Y0058166D01*
X0088773Y0057658D02*
X0088773Y0056642D01*
X0090775Y0057404D02*
X0090551Y0057628D01*
X0091313Y0057404D02*
X0090775Y0057404D01*
X0093345Y0057404D02*
X0092329Y0057404D01*
X0093345Y0055372D02*
X0093345Y0056388D01*
X0096785Y0060568D02*
X0098425Y0058928D01*
X0098425Y0058928D02*
X0098425Y0052578D01*
X0089535Y0060168D02*
X0089935Y0060568D01*
X0089935Y0060568D02*
X0096785Y0060568D01*
D25*
G36*
X0092912Y0078937D02*
X0091751Y0077776D01*
X0091123Y0076259D01*
X0091123Y0074617D01*
X0091751Y0073100D01*
X0092912Y0071939D01*
X0094429Y0071311D01*
X0096071Y0071311D01*
X0097588Y0071939D01*
X0098749Y0073100D01*
X0099341Y0074530D01*
X0099341Y0053957D01*
X0099210Y0053983D01*
X0099210Y0058851D01*
X0099225Y0058928D01*
X0099210Y0059005D01*
X0099210Y0059005D01*
X0099164Y0059234D01*
X0099075Y0059368D01*
X0099035Y0059428D01*
X0099035Y0059428D01*
X0098991Y0059494D01*
X0098925Y0059538D01*
X0097933Y0060530D01*
X0098035Y0060633D01*
X0098193Y0061013D01*
X0098193Y0061425D01*
X0098035Y0061805D01*
X0097744Y0062096D01*
X0097364Y0062254D01*
X0097233Y0062254D01*
X0097010Y0062476D01*
X0096967Y0062542D01*
X0096707Y0062715D01*
X0096478Y0062761D01*
X0096478Y0062761D01*
X0096401Y0062776D01*
X0096323Y0062761D01*
X0091230Y0062761D01*
X0091137Y0062853D01*
X0090757Y0063011D01*
X0090345Y0063011D01*
X0089965Y0062853D01*
X0089674Y0062562D01*
X0089516Y0062182D01*
X0089516Y0061770D01*
X0089674Y0061390D01*
X0089735Y0061329D01*
X0089629Y0061307D01*
X0089472Y0061203D01*
X0089329Y0061203D01*
X0088949Y0061045D01*
X0088658Y0060754D01*
X0088500Y0060374D01*
X0088500Y0059962D01*
X0088658Y0059582D01*
X0088949Y0059291D01*
X0089329Y0059133D01*
X0089741Y0059133D01*
X0090121Y0059291D01*
X0090412Y0059582D01*
X0090496Y0059783D01*
X0096460Y0059783D01*
X0097640Y0058603D01*
X0097640Y0053983D01*
X0097415Y0053938D01*
X0097205Y0053798D01*
X0097065Y0053588D01*
X0097016Y0053340D01*
X0097016Y0051816D01*
X0097065Y0051568D01*
X0097205Y0051358D01*
X0097415Y0051218D01*
X0097663Y0051169D01*
X0099187Y0051169D01*
X0099341Y0051199D01*
X0099341Y0045866D01*
X0098749Y0047296D01*
X0097588Y0048457D01*
X0096071Y0049085D01*
X0094429Y0049085D01*
X0092912Y0048457D01*
X0091751Y0047296D01*
X0091123Y0045779D01*
X0091123Y0044137D01*
X0091751Y0042620D01*
X0092912Y0041459D01*
X0094342Y0040867D01*
X0085998Y0040867D01*
X0087428Y0041459D01*
X0088589Y0042620D01*
X0089217Y0044137D01*
X0089217Y0045779D01*
X0088589Y0047296D01*
X0087428Y0048457D01*
X0085911Y0049085D01*
X0084269Y0049085D01*
X0082752Y0048457D01*
X0081591Y0047296D01*
X0080999Y0045866D01*
X0080999Y0057150D01*
X0082411Y0057150D01*
X0082411Y0055626D01*
X0082460Y0055378D01*
X0082600Y0055168D01*
X0082675Y0055118D01*
X0082600Y0055068D01*
X0082460Y0054858D01*
X0082411Y0054610D01*
X0082411Y0053086D01*
X0082460Y0052838D01*
X0082600Y0052628D01*
X0082810Y0052488D01*
X0083058Y0052439D01*
X0084582Y0052439D01*
X0084830Y0052488D01*
X0085040Y0052628D01*
X0085090Y0052703D01*
X0085140Y0052628D01*
X0085350Y0052488D01*
X0085598Y0052439D01*
X0087122Y0052439D01*
X0087370Y0052488D01*
X0087580Y0052628D01*
X0087720Y0052838D01*
X0087769Y0053086D01*
X0087769Y0054610D01*
X0087720Y0054858D01*
X0087580Y0055068D01*
X0087505Y0055118D01*
X0087580Y0055168D01*
X0087720Y0055378D01*
X0087769Y0055626D01*
X0087769Y0057150D01*
X0087720Y0057398D01*
X0087580Y0057608D01*
X0087370Y0057748D01*
X0087122Y0057797D01*
X0085598Y0057797D01*
X0085350Y0057748D01*
X0085140Y0057608D01*
X0085090Y0057533D01*
X0085040Y0057608D01*
X0084830Y0057748D01*
X0084582Y0057797D01*
X0083058Y0057797D01*
X0082810Y0057748D01*
X0082600Y0057608D01*
X0082460Y0057398D01*
X0082411Y0057150D01*
X0080999Y0057150D01*
X0080999Y0067310D01*
X0082411Y0067310D01*
X0082411Y0065786D01*
X0082460Y0065538D01*
X0082600Y0065328D01*
X0082810Y0065188D01*
X0083058Y0065139D01*
X0084582Y0065139D01*
X0084830Y0065188D01*
X0085040Y0065328D01*
X0085090Y0065403D01*
X0085140Y0065328D01*
X0085350Y0065188D01*
X0085598Y0065139D01*
X0087122Y0065139D01*
X0087370Y0065188D01*
X0087580Y0065328D01*
X0087720Y0065538D01*
X0087769Y0065786D01*
X0087769Y0067310D01*
X0087720Y0067558D01*
X0087580Y0067768D01*
X0087370Y0067908D01*
X0087122Y0067957D01*
X0085598Y0067957D01*
X0085350Y0067908D01*
X0085140Y0067768D01*
X0085090Y0067693D01*
X0085040Y0067768D01*
X0084830Y0067908D01*
X0084582Y0067957D01*
X0083058Y0067957D01*
X0082810Y0067908D01*
X0082600Y0067768D01*
X0082460Y0067558D01*
X0082411Y0067310D01*
X0080999Y0067310D01*
X0080999Y0074530D01*
X0081591Y0073100D01*
X0082752Y0071939D01*
X0084269Y0071311D01*
X0085911Y0071311D01*
X0087428Y0071939D01*
X0088589Y0073100D01*
X0089217Y0074617D01*
X0089217Y0076259D01*
X0088589Y0077776D01*
X0087428Y0078937D01*
X0085998Y0079529D01*
X0094342Y0079529D01*
X0092912Y0078937D01*
X0092912Y0078937D01*
G37*
X0092912Y0078937D02*
X0091751Y0077776D01*
X0091123Y0076259D01*
X0091123Y0074617D01*
X0091751Y0073100D01*
X0092912Y0071939D01*
X0094429Y0071311D01*
X0096071Y0071311D01*
X0097588Y0071939D01*
X0098749Y0073100D01*
X0099341Y0074530D01*
X0099341Y0053957D01*
X0099210Y0053983D01*
X0099210Y0058851D01*
X0099225Y0058928D01*
X0099210Y0059005D01*
X0099210Y0059005D01*
X0099164Y0059234D01*
X0099075Y0059368D01*
X0099035Y0059428D01*
X0099035Y0059428D01*
X0098991Y0059494D01*
X0098925Y0059538D01*
X0097933Y0060530D01*
X0098035Y0060633D01*
X0098193Y0061013D01*
X0098193Y0061425D01*
X0098035Y0061805D01*
X0097744Y0062096D01*
X0097364Y0062254D01*
X0097233Y0062254D01*
X0097010Y0062476D01*
X0096967Y0062542D01*
X0096707Y0062715D01*
X0096478Y0062761D01*
X0096478Y0062761D01*
X0096401Y0062776D01*
X0096323Y0062761D01*
X0091230Y0062761D01*
X0091137Y0062853D01*
X0090757Y0063011D01*
X0090345Y0063011D01*
X0089965Y0062853D01*
X0089674Y0062562D01*
X0089516Y0062182D01*
X0089516Y0061770D01*
X0089674Y0061390D01*
X0089735Y0061329D01*
X0089629Y0061307D01*
X0089472Y0061203D01*
X0089329Y0061203D01*
X0088949Y0061045D01*
X0088658Y0060754D01*
X0088500Y0060374D01*
X0088500Y0059962D01*
X0088658Y0059582D01*
X0088949Y0059291D01*
X0089329Y0059133D01*
X0089741Y0059133D01*
X0090121Y0059291D01*
X0090412Y0059582D01*
X0090496Y0059783D01*
X0096460Y0059783D01*
X0097640Y0058603D01*
X0097640Y0053983D01*
X0097415Y0053938D01*
X0097205Y0053798D01*
X0097065Y0053588D01*
X0097016Y0053340D01*
X0097016Y0051816D01*
X0097065Y0051568D01*
X0097205Y0051358D01*
X0097415Y0051218D01*
X0097663Y0051169D01*
X0099187Y0051169D01*
X0099341Y0051199D01*
X0099341Y0045866D01*
X0098749Y0047296D01*
X0097588Y0048457D01*
X0096071Y0049085D01*
X0094429Y0049085D01*
X0092912Y0048457D01*
X0091751Y0047296D01*
X0091123Y0045779D01*
X0091123Y0044137D01*
X0091751Y0042620D01*
X0092912Y0041459D01*
X0094342Y0040867D01*
X0085998Y0040867D01*
X0087428Y0041459D01*
X0088589Y0042620D01*
X0089217Y0044137D01*
X0089217Y0045779D01*
X0088589Y0047296D01*
X0087428Y0048457D01*
X0085911Y0049085D01*
X0084269Y0049085D01*
X0082752Y0048457D01*
X0081591Y0047296D01*
X0080999Y0045866D01*
X0080999Y0057150D01*
X0082411Y0057150D01*
X0082411Y0055626D01*
X0082460Y0055378D01*
X0082600Y0055168D01*
X0082675Y0055118D01*
X0082600Y0055068D01*
X0082460Y0054858D01*
X0082411Y0054610D01*
X0082411Y0053086D01*
X0082460Y0052838D01*
X0082600Y0052628D01*
X0082810Y0052488D01*
X0083058Y0052439D01*
X0084582Y0052439D01*
X0084830Y0052488D01*
X0085040Y0052628D01*
X0085090Y0052703D01*
X0085140Y0052628D01*
X0085350Y0052488D01*
X0085598Y0052439D01*
X0087122Y0052439D01*
X0087370Y0052488D01*
X0087580Y0052628D01*
X0087720Y0052838D01*
X0087769Y0053086D01*
X0087769Y0054610D01*
X0087720Y0054858D01*
X0087580Y0055068D01*
X0087505Y0055118D01*
X0087580Y0055168D01*
X0087720Y0055378D01*
X0087769Y0055626D01*
X0087769Y0057150D01*
X0087720Y0057398D01*
X0087580Y0057608D01*
X0087370Y0057748D01*
X0087122Y0057797D01*
X0085598Y0057797D01*
X0085350Y0057748D01*
X0085140Y0057608D01*
X0085090Y0057533D01*
X0085040Y0057608D01*
X0084830Y0057748D01*
X0084582Y0057797D01*
X0083058Y0057797D01*
X0082810Y0057748D01*
X0082600Y0057608D01*
X0082460Y0057398D01*
X0082411Y0057150D01*
X0080999Y0057150D01*
X0080999Y0067310D01*
X0082411Y0067310D01*
X0082411Y0065786D01*
X0082460Y0065538D01*
X0082600Y0065328D01*
X0082810Y0065188D01*
X0083058Y0065139D01*
X0084582Y0065139D01*
X0084830Y0065188D01*
X0085040Y0065328D01*
X0085090Y0065403D01*
X0085140Y0065328D01*
X0085350Y0065188D01*
X0085598Y0065139D01*
X0087122Y0065139D01*
X0087370Y0065188D01*
X0087580Y0065328D01*
X0087720Y0065538D01*
X0087769Y0065786D01*
X0087769Y0067310D01*
X0087720Y0067558D01*
X0087580Y0067768D01*
X0087370Y0067908D01*
X0087122Y0067957D01*
X0085598Y0067957D01*
X0085350Y0067908D01*
X0085140Y0067768D01*
X0085090Y0067693D01*
X0085040Y0067768D01*
X0084830Y0067908D01*
X0084582Y0067957D01*
X0083058Y0067957D01*
X0082810Y0067908D01*
X0082600Y0067768D01*
X0082460Y0067558D01*
X0082411Y0067310D01*
X0080999Y0067310D01*
X0080999Y0074530D01*
X0081591Y0073100D01*
X0082752Y0071939D01*
X0084269Y0071311D01*
X0085911Y0071311D01*
X0087428Y0071939D01*
X0088589Y0073100D01*
X0089217Y0074617D01*
X0089217Y0076259D01*
X0088589Y0077776D01*
X0087428Y0078937D01*
X0085998Y0079529D01*
X0094342Y0079529D01*
X0092912Y0078937D01*
M02*
