G75*
G71*
%MOMM*%
%OFA0B0*%
%FSLAX53Y53*%
%IPPOS*%
%LPD*%
%ADD26C,6.40000*%
%ADD27R,1.92400X1.92400*%
%ADD30C,1.30000*%
%ADD32C,0.15000*%
%ADD40C,0.50000*%
X0000000Y0000000D02*
%LPD*%
G01*
D32*
G36*
X0055962Y0008024D02*
X0056577Y0007898D01*
X0057155Y0007655D01*
X0057676Y0007304D01*
X0058118Y0006858D01*
X0058465Y0006336D01*
X0058704Y0005755D01*
X0058826Y0005140D01*
X0058826Y0005140D01*
X0058826Y0005140D01*
X0058816Y0004423D01*
X0058816Y0004422D01*
X0058816Y0004422D01*
X0058677Y0003811D01*
X0058422Y0003238D01*
X0058060Y0002725D01*
X0057606Y0002292D01*
X0057076Y0001956D01*
X0056491Y0001729D01*
X0055873Y0001620D01*
X0055245Y0001633D01*
X0054632Y0001768D01*
X0054057Y0002019D01*
X0053542Y0002377D01*
X0053106Y0002829D01*
X0052766Y0003356D01*
X0052535Y0003940D01*
X0052422Y0004557D01*
X0052431Y0005184D01*
X0052561Y0005798D01*
X0052808Y0006375D01*
X0053163Y0006893D01*
X0053611Y0007332D01*
X0054136Y0007676D01*
X0054718Y0007911D01*
X0055335Y0008028D01*
X0055962Y0008024D01*
X0055962Y0008024D01*
G37*
G36*
X0005162Y0008024D02*
X0005777Y0007898D01*
X0006355Y0007655D01*
X0006876Y0007304D01*
X0007318Y0006858D01*
X0007665Y0006336D01*
X0007904Y0005755D01*
X0008026Y0005140D01*
X0008026Y0005140D01*
X0008026Y0005140D01*
X0008016Y0004423D01*
X0008016Y0004422D01*
X0008016Y0004422D01*
X0007877Y0003811D01*
X0007622Y0003238D01*
X0007260Y0002725D01*
X0006806Y0002292D01*
X0006276Y0001956D01*
X0005691Y0001729D01*
X0005073Y0001620D01*
X0004445Y0001633D01*
X0003832Y0001768D01*
X0003257Y0002019D01*
X0002742Y0002377D01*
X0002306Y0002829D01*
X0001966Y0003356D01*
X0001735Y0003940D01*
X0001622Y0004557D01*
X0001631Y0005184D01*
X0001761Y0005798D01*
X0002008Y0006375D01*
X0002363Y0006893D01*
X0002811Y0007332D01*
X0003336Y0007676D01*
X0003918Y0007911D01*
X0004535Y0008028D01*
X0005162Y0008024D01*
X0005162Y0008024D01*
G37*
G36*
X0007529Y0019075D02*
X0007827Y0019014D01*
X0008107Y0018896D01*
X0008359Y0018726D01*
X0008573Y0018510D01*
X0008741Y0018257D01*
X0008857Y0017976D01*
X0008916Y0017679D01*
X0008916Y0017679D01*
X0008916Y0017678D01*
X0008911Y0017331D01*
X0008911Y0017330D01*
X0008911Y0017330D01*
X0008844Y0017034D01*
X0008720Y0016757D01*
X0008545Y0016508D01*
X0008325Y0016299D01*
X0008068Y0016136D01*
X0007785Y0016026D01*
X0007485Y0015973D01*
X0007182Y0015979D01*
X0006885Y0016045D01*
X0006606Y0016166D01*
X0006357Y0016340D01*
X0006145Y0016559D01*
X0005981Y0016814D01*
X0005869Y0017097D01*
X0005814Y0017396D01*
X0005818Y0017700D01*
X0005881Y0017997D01*
X0006001Y0018276D01*
X0006173Y0018527D01*
X0006390Y0018740D01*
X0006644Y0018906D01*
X0006926Y0019020D01*
X0007225Y0019077D01*
X0007529Y0019075D01*
X0007529Y0019075D01*
G37*
G36*
X0012609Y0019075D02*
X0012907Y0019014D01*
X0013187Y0018896D01*
X0013439Y0018726D01*
X0013653Y0018510D01*
X0013821Y0018257D01*
X0013937Y0017976D01*
X0013996Y0017679D01*
X0013996Y0017679D01*
X0013996Y0017678D01*
X0013991Y0017331D01*
X0013991Y0017330D01*
X0013991Y0017330D01*
X0013924Y0017034D01*
X0013800Y0016757D01*
X0013625Y0016508D01*
X0013405Y0016299D01*
X0013148Y0016136D01*
X0012865Y0016026D01*
X0012565Y0015973D01*
X0012262Y0015979D01*
X0011965Y0016045D01*
X0011686Y0016166D01*
X0011437Y0016340D01*
X0011225Y0016559D01*
X0011061Y0016814D01*
X0010949Y0017097D01*
X0010894Y0017396D01*
X0010898Y0017700D01*
X0010961Y0017997D01*
X0011081Y0018276D01*
X0011253Y0018527D01*
X0011470Y0018740D01*
X0011724Y0018906D01*
X0012006Y0019020D01*
X0012305Y0019077D01*
X0012609Y0019075D01*
X0012609Y0019075D01*
G37*
G36*
X0048169Y0019075D02*
X0048467Y0019014D01*
X0048747Y0018896D01*
X0048999Y0018726D01*
X0049213Y0018510D01*
X0049381Y0018257D01*
X0049497Y0017976D01*
X0049556Y0017679D01*
X0049556Y0017679D01*
X0049556Y0017678D01*
X0049551Y0017331D01*
X0049551Y0017330D01*
X0049551Y0017330D01*
X0049484Y0017034D01*
X0049360Y0016757D01*
X0049185Y0016508D01*
X0048965Y0016299D01*
X0048708Y0016136D01*
X0048425Y0016026D01*
X0048125Y0015973D01*
X0047822Y0015979D01*
X0047525Y0016045D01*
X0047246Y0016166D01*
X0046997Y0016340D01*
X0046785Y0016559D01*
X0046621Y0016814D01*
X0046509Y0017097D01*
X0046454Y0017396D01*
X0046458Y0017700D01*
X0046521Y0017997D01*
X0046641Y0018276D01*
X0046813Y0018527D01*
X0047030Y0018740D01*
X0047284Y0018906D01*
X0047566Y0019020D01*
X0047865Y0019077D01*
X0048169Y0019075D01*
X0048169Y0019075D01*
G37*
G36*
X0053249Y0019075D02*
X0053547Y0019014D01*
X0053827Y0018896D01*
X0054079Y0018726D01*
X0054293Y0018510D01*
X0054461Y0018257D01*
X0054577Y0017976D01*
X0054636Y0017679D01*
X0054636Y0017679D01*
X0054636Y0017678D01*
X0054631Y0017331D01*
X0054631Y0017330D01*
X0054631Y0017330D01*
X0054564Y0017034D01*
X0054440Y0016757D01*
X0054265Y0016508D01*
X0054045Y0016299D01*
X0053788Y0016136D01*
X0053505Y0016026D01*
X0053205Y0015973D01*
X0052902Y0015979D01*
X0052605Y0016045D01*
X0052326Y0016166D01*
X0052077Y0016340D01*
X0051865Y0016559D01*
X0051701Y0016814D01*
X0051589Y0017097D01*
X0051534Y0017396D01*
X0051538Y0017700D01*
X0051601Y0017997D01*
X0051721Y0018276D01*
X0051893Y0018527D01*
X0052110Y0018740D01*
X0052364Y0018906D01*
X0052646Y0019020D01*
X0052945Y0019077D01*
X0053249Y0019075D01*
X0053249Y0019075D01*
G37*
G36*
X0050698Y0021515D02*
X0050977Y0021458D01*
X0051239Y0021348D01*
X0051475Y0021189D01*
X0051675Y0020987D01*
X0051832Y0020750D01*
X0051941Y0020487D01*
X0051996Y0020209D01*
X0051996Y0020209D01*
X0051996Y0020208D01*
X0051992Y0019883D01*
X0051991Y0019883D01*
X0051991Y0019883D01*
X0051929Y0019606D01*
X0051813Y0019346D01*
X0051649Y0019114D01*
X0051443Y0018918D01*
X0051203Y0018765D01*
X0050938Y0018663D01*
X0050658Y0018613D01*
X0050373Y0018619D01*
X0050096Y0018680D01*
X0049835Y0018794D01*
X0049602Y0018956D01*
X0049404Y0019161D01*
X0049250Y0019400D01*
X0049145Y0019664D01*
X0049094Y0019944D01*
X0049098Y0020228D01*
X0049157Y0020507D01*
X0049269Y0020768D01*
X0049430Y0021003D01*
X0049633Y0021202D01*
X0049871Y0021357D01*
X0050135Y0021464D01*
X0050414Y0021517D01*
X0050698Y0021515D01*
X0050698Y0021515D01*
G37*
G36*
X0010058Y0021515D02*
X0010337Y0021458D01*
X0010599Y0021348D01*
X0010835Y0021189D01*
X0011035Y0020987D01*
X0011192Y0020750D01*
X0011301Y0020487D01*
X0011356Y0020209D01*
X0011356Y0020209D01*
X0011356Y0020208D01*
X0011352Y0019883D01*
X0011351Y0019883D01*
X0011351Y0019883D01*
X0011289Y0019606D01*
X0011173Y0019346D01*
X0011009Y0019114D01*
X0010803Y0018918D01*
X0010563Y0018765D01*
X0010298Y0018663D01*
X0010018Y0018613D01*
X0009733Y0018619D01*
X0009456Y0018680D01*
X0009195Y0018794D01*
X0008962Y0018956D01*
X0008764Y0019161D01*
X0008610Y0019400D01*
X0008505Y0019664D01*
X0008454Y0019944D01*
X0008458Y0020228D01*
X0008517Y0020507D01*
X0008629Y0020768D01*
X0008790Y0021003D01*
X0008993Y0021202D01*
X0009231Y0021357D01*
X0009495Y0021464D01*
X0009774Y0021517D01*
X0010058Y0021515D01*
X0010058Y0021515D01*
G37*
G36*
X0053249Y0024155D02*
X0053547Y0024094D01*
X0053827Y0023976D01*
X0054079Y0023806D01*
X0054293Y0023590D01*
X0054461Y0023337D01*
X0054577Y0023056D01*
X0054636Y0022759D01*
X0054636Y0022759D01*
X0054636Y0022758D01*
X0054631Y0022411D01*
X0054631Y0022410D01*
X0054631Y0022410D01*
X0054564Y0022114D01*
X0054440Y0021837D01*
X0054265Y0021588D01*
X0054045Y0021379D01*
X0053788Y0021216D01*
X0053505Y0021106D01*
X0053205Y0021053D01*
X0052902Y0021059D01*
X0052605Y0021125D01*
X0052326Y0021246D01*
X0052077Y0021420D01*
X0051865Y0021639D01*
X0051701Y0021894D01*
X0051589Y0022177D01*
X0051534Y0022476D01*
X0051538Y0022780D01*
X0051601Y0023077D01*
X0051721Y0023356D01*
X0051893Y0023607D01*
X0052110Y0023820D01*
X0052364Y0023986D01*
X0052646Y0024100D01*
X0052945Y0024157D01*
X0053249Y0024155D01*
X0053249Y0024155D01*
G37*
G36*
X0048169Y0024155D02*
X0048467Y0024094D01*
X0048747Y0023976D01*
X0048999Y0023806D01*
X0049213Y0023590D01*
X0049381Y0023337D01*
X0049497Y0023056D01*
X0049556Y0022759D01*
X0049556Y0022759D01*
X0049556Y0022758D01*
X0049551Y0022411D01*
X0049551Y0022410D01*
X0049551Y0022410D01*
X0049484Y0022114D01*
X0049360Y0021837D01*
X0049185Y0021588D01*
X0048965Y0021379D01*
X0048708Y0021216D01*
X0048425Y0021106D01*
X0048125Y0021053D01*
X0047822Y0021059D01*
X0047525Y0021125D01*
X0047246Y0021246D01*
X0046997Y0021420D01*
X0046785Y0021639D01*
X0046621Y0021894D01*
X0046509Y0022177D01*
X0046454Y0022476D01*
X0046458Y0022780D01*
X0046521Y0023077D01*
X0046641Y0023356D01*
X0046813Y0023607D01*
X0047030Y0023820D01*
X0047284Y0023986D01*
X0047566Y0024100D01*
X0047865Y0024157D01*
X0048169Y0024155D01*
X0048169Y0024155D01*
G37*
G36*
X0012609Y0024155D02*
X0012907Y0024094D01*
X0013187Y0023976D01*
X0013439Y0023806D01*
X0013653Y0023590D01*
X0013821Y0023337D01*
X0013937Y0023056D01*
X0013996Y0022759D01*
X0013996Y0022759D01*
X0013996Y0022758D01*
X0013991Y0022411D01*
X0013991Y0022410D01*
X0013991Y0022410D01*
X0013924Y0022114D01*
X0013800Y0021837D01*
X0013625Y0021588D01*
X0013405Y0021379D01*
X0013148Y0021216D01*
X0012865Y0021106D01*
X0012565Y0021053D01*
X0012262Y0021059D01*
X0011965Y0021125D01*
X0011686Y0021246D01*
X0011437Y0021420D01*
X0011225Y0021639D01*
X0011061Y0021894D01*
X0010949Y0022177D01*
X0010894Y0022476D01*
X0010898Y0022780D01*
X0010961Y0023077D01*
X0011081Y0023356D01*
X0011253Y0023607D01*
X0011470Y0023820D01*
X0011724Y0023986D01*
X0012006Y0024100D01*
X0012305Y0024157D01*
X0012609Y0024155D01*
X0012609Y0024155D01*
G37*
G36*
X0007529Y0024155D02*
X0007827Y0024094D01*
X0008107Y0023976D01*
X0008359Y0023806D01*
X0008573Y0023590D01*
X0008741Y0023337D01*
X0008857Y0023056D01*
X0008916Y0022759D01*
X0008916Y0022759D01*
X0008916Y0022758D01*
X0008911Y0022411D01*
X0008911Y0022410D01*
X0008911Y0022410D01*
X0008844Y0022114D01*
X0008720Y0021837D01*
X0008545Y0021588D01*
X0008325Y0021379D01*
X0008068Y0021216D01*
X0007785Y0021106D01*
X0007485Y0021053D01*
X0007182Y0021059D01*
X0006885Y0021125D01*
X0006606Y0021246D01*
X0006357Y0021420D01*
X0006145Y0021639D01*
X0005981Y0021894D01*
X0005869Y0022177D01*
X0005814Y0022476D01*
X0005818Y0022780D01*
X0005881Y0023077D01*
X0006001Y0023356D01*
X0006173Y0023607D01*
X0006390Y0023820D01*
X0006644Y0023986D01*
X0006926Y0024100D01*
X0007225Y0024157D01*
X0007529Y0024155D01*
X0007529Y0024155D01*
G37*
G36*
X0055962Y0038504D02*
X0056577Y0038378D01*
X0057155Y0038135D01*
X0057676Y0037784D01*
X0058118Y0037338D01*
X0058465Y0036816D01*
X0058704Y0036235D01*
X0058826Y0035620D01*
X0058826Y0035620D01*
X0058826Y0035620D01*
X0058816Y0034903D01*
X0058816Y0034902D01*
X0058816Y0034902D01*
X0058677Y0034291D01*
X0058422Y0033718D01*
X0058060Y0033205D01*
X0057606Y0032772D01*
X0057076Y0032436D01*
X0056491Y0032209D01*
X0055873Y0032100D01*
X0055245Y0032113D01*
X0054632Y0032248D01*
X0054057Y0032499D01*
X0053542Y0032857D01*
X0053106Y0033309D01*
X0052766Y0033836D01*
X0052535Y0034420D01*
X0052422Y0035037D01*
X0052431Y0035664D01*
X0052561Y0036278D01*
X0052808Y0036855D01*
X0053163Y0037373D01*
X0053611Y0037812D01*
X0054136Y0038156D01*
X0054718Y0038391D01*
X0055335Y0038508D01*
X0055962Y0038504D01*
X0055962Y0038504D01*
G37*
G36*
X0005162Y0038504D02*
X0005777Y0038378D01*
X0006355Y0038135D01*
X0006876Y0037784D01*
X0007318Y0037338D01*
X0007665Y0036816D01*
X0007904Y0036235D01*
X0008026Y0035620D01*
X0008026Y0035620D01*
X0008026Y0035620D01*
X0008016Y0034903D01*
X0008016Y0034902D01*
X0008016Y0034902D01*
X0007877Y0034291D01*
X0007622Y0033718D01*
X0007260Y0033205D01*
X0006806Y0032772D01*
X0006276Y0032436D01*
X0005691Y0032209D01*
X0005073Y0032100D01*
X0004445Y0032113D01*
X0003832Y0032248D01*
X0003257Y0032499D01*
X0002742Y0032857D01*
X0002306Y0033309D01*
X0001966Y0033836D01*
X0001735Y0034420D01*
X0001622Y0035037D01*
X0001631Y0035664D01*
X0001761Y0036278D01*
X0002008Y0036855D01*
X0002363Y0037373D01*
X0002811Y0037812D01*
X0003336Y0038156D01*
X0003918Y0038391D01*
X0004535Y0038508D01*
X0005162Y0038504D01*
X0005162Y0038504D01*
G37*
X0060452Y0000000D02*
%LPD*%
G01*
D30*
G36*
X0065614Y0008024D02*
X0066229Y0007898D01*
X0066807Y0007655D01*
X0067328Y0007304D01*
X0067770Y0006858D01*
X0068117Y0006336D01*
X0068356Y0005755D01*
X0068478Y0005140D01*
X0068478Y0005140D01*
X0068478Y0005140D01*
X0068468Y0004423D01*
X0068468Y0004422D01*
X0068468Y0004422D01*
X0068329Y0003811D01*
X0068074Y0003238D01*
X0067712Y0002725D01*
X0067258Y0002292D01*
X0066728Y0001956D01*
X0066143Y0001729D01*
X0065525Y0001620D01*
X0064897Y0001633D01*
X0064284Y0001768D01*
X0063709Y0002019D01*
X0063194Y0002377D01*
X0062758Y0002829D01*
X0062418Y0003356D01*
X0062187Y0003940D01*
X0062074Y0004557D01*
X0062083Y0005184D01*
X0062213Y0005798D01*
X0062460Y0006375D01*
X0062815Y0006893D01*
X0063263Y0007332D01*
X0063788Y0007676D01*
X0064370Y0007911D01*
X0064987Y0008028D01*
X0065614Y0008024D01*
X0065614Y0008024D01*
G37*
G36*
X0085934Y0008024D02*
X0086549Y0007898D01*
X0087127Y0007655D01*
X0087648Y0007304D01*
X0088090Y0006858D01*
X0088437Y0006336D01*
X0088676Y0005755D01*
X0088798Y0005140D01*
X0088798Y0005140D01*
X0088798Y0005140D01*
X0088788Y0004423D01*
X0088788Y0004422D01*
X0088788Y0004422D01*
X0088649Y0003811D01*
X0088394Y0003238D01*
X0088032Y0002725D01*
X0087578Y0002292D01*
X0087048Y0001956D01*
X0086463Y0001729D01*
X0085845Y0001620D01*
X0085217Y0001633D01*
X0084604Y0001768D01*
X0084029Y0002019D01*
X0083514Y0002377D01*
X0083078Y0002829D01*
X0082738Y0003356D01*
X0082507Y0003940D01*
X0082394Y0004557D01*
X0082403Y0005184D01*
X0082533Y0005798D01*
X0082780Y0006375D01*
X0083135Y0006893D01*
X0083583Y0007332D01*
X0084108Y0007676D01*
X0084690Y0007911D01*
X0085307Y0008028D01*
X0085934Y0008024D01*
X0085934Y0008024D01*
G37*
G36*
X0073987Y0002594D02*
X0072063Y0002594D01*
X0072063Y0004518D01*
X0073987Y0004518D01*
X0073987Y0002594D01*
X0073987Y0002594D01*
G37*
G36*
X0079067Y0002594D02*
X0077143Y0002594D01*
X0077143Y0004518D01*
X0079067Y0004518D01*
X0079067Y0002594D01*
X0079067Y0002594D01*
G37*
G36*
X0076527Y0002594D02*
X0074603Y0002594D01*
X0074603Y0004518D01*
X0076527Y0004518D01*
X0076527Y0002594D01*
X0076527Y0002594D01*
G37*
G36*
X0073987Y0005134D02*
X0072063Y0005134D01*
X0072063Y0007058D01*
X0073987Y0007058D01*
X0073987Y0005134D01*
X0073987Y0005134D01*
G37*
G36*
X0076527Y0005134D02*
X0074603Y0005134D01*
X0074603Y0007058D01*
X0076527Y0007058D01*
X0076527Y0005134D01*
X0076527Y0005134D01*
G37*
G36*
X0079067Y0005134D02*
X0077143Y0005134D01*
X0077143Y0007058D01*
X0079067Y0007058D01*
X0079067Y0005134D01*
X0079067Y0005134D01*
G37*
G36*
X0072463Y0011357D02*
X0068253Y0011357D01*
X0068253Y0015567D01*
X0072463Y0015567D01*
X0072463Y0011357D01*
X0072463Y0011357D01*
G37*
G36*
X0067463Y0011357D02*
X0063253Y0011357D01*
X0063253Y0015567D01*
X0067463Y0015567D01*
X0067463Y0011357D01*
X0067463Y0011357D01*
G37*
G36*
X0072463Y0016437D02*
X0068253Y0016437D01*
X0068253Y0020647D01*
X0072463Y0020647D01*
X0072463Y0016437D01*
X0072463Y0016437D01*
G37*
G36*
X0067463Y0016437D02*
X0063253Y0016437D01*
X0063253Y0020647D01*
X0067463Y0020647D01*
X0067463Y0016437D01*
X0067463Y0016437D01*
G37*
G36*
X0079577Y0019460D02*
X0079658Y0019443D01*
X0079735Y0019411D01*
X0079804Y0019364D01*
X0079863Y0019305D01*
X0079909Y0019235D01*
X0079941Y0019158D01*
X0079957Y0019077D01*
X0079957Y0019077D01*
X0079957Y0019077D01*
X0079956Y0018981D01*
X0079956Y0018981D01*
X0079956Y0018981D01*
X0079937Y0018900D01*
X0079903Y0018824D01*
X0079855Y0018756D01*
X0079795Y0018698D01*
X0079725Y0018654D01*
X0079647Y0018624D01*
X0079565Y0018609D01*
X0079481Y0018611D01*
X0079400Y0018629D01*
X0079324Y0018662D01*
X0079255Y0018710D01*
X0079197Y0018770D01*
X0079152Y0018840D01*
X0079121Y0018917D01*
X0079106Y0018999D01*
X0079108Y0019083D01*
X0079125Y0019164D01*
X0079158Y0019241D01*
X0079205Y0019310D01*
X0079264Y0019368D01*
X0079334Y0019413D01*
X0079411Y0019445D01*
X0079493Y0019460D01*
X0079577Y0019460D01*
X0079577Y0019460D01*
G37*
G36*
X0078277Y0019460D02*
X0078358Y0019443D01*
X0078435Y0019411D01*
X0078504Y0019364D01*
X0078563Y0019305D01*
X0078609Y0019235D01*
X0078641Y0019158D01*
X0078657Y0019077D01*
X0078657Y0019077D01*
X0078657Y0019077D01*
X0078656Y0018981D01*
X0078656Y0018981D01*
X0078656Y0018981D01*
X0078637Y0018900D01*
X0078603Y0018824D01*
X0078555Y0018756D01*
X0078495Y0018698D01*
X0078425Y0018654D01*
X0078347Y0018624D01*
X0078265Y0018609D01*
X0078181Y0018611D01*
X0078100Y0018629D01*
X0078024Y0018662D01*
X0077955Y0018710D01*
X0077897Y0018770D01*
X0077852Y0018840D01*
X0077821Y0018917D01*
X0077806Y0018999D01*
X0077808Y0019083D01*
X0077825Y0019164D01*
X0077858Y0019241D01*
X0077905Y0019310D01*
X0077964Y0019368D01*
X0078034Y0019413D01*
X0078111Y0019445D01*
X0078193Y0019460D01*
X0078277Y0019460D01*
X0078277Y0019460D01*
G37*
G36*
X0076977Y0019460D02*
X0077058Y0019443D01*
X0077135Y0019411D01*
X0077204Y0019364D01*
X0077263Y0019305D01*
X0077309Y0019235D01*
X0077341Y0019158D01*
X0077357Y0019077D01*
X0077357Y0019077D01*
X0077357Y0019077D01*
X0077356Y0018981D01*
X0077356Y0018981D01*
X0077356Y0018981D01*
X0077337Y0018900D01*
X0077303Y0018824D01*
X0077255Y0018756D01*
X0077195Y0018698D01*
X0077125Y0018654D01*
X0077047Y0018624D01*
X0076965Y0018609D01*
X0076881Y0018611D01*
X0076800Y0018629D01*
X0076724Y0018662D01*
X0076655Y0018710D01*
X0076597Y0018770D01*
X0076552Y0018840D01*
X0076521Y0018917D01*
X0076506Y0018999D01*
X0076508Y0019083D01*
X0076525Y0019164D01*
X0076558Y0019241D01*
X0076605Y0019310D01*
X0076664Y0019368D01*
X0076734Y0019413D01*
X0076811Y0019445D01*
X0076893Y0019460D01*
X0076977Y0019460D01*
X0076977Y0019460D01*
G37*
G36*
X0079577Y0020760D02*
X0079658Y0020743D01*
X0079735Y0020711D01*
X0079804Y0020664D01*
X0079863Y0020605D01*
X0079909Y0020535D01*
X0079941Y0020458D01*
X0079957Y0020377D01*
X0079957Y0020377D01*
X0079957Y0020377D01*
X0079956Y0020281D01*
X0079956Y0020281D01*
X0079956Y0020281D01*
X0079937Y0020200D01*
X0079903Y0020124D01*
X0079855Y0020056D01*
X0079795Y0019998D01*
X0079725Y0019954D01*
X0079647Y0019924D01*
X0079565Y0019909D01*
X0079481Y0019911D01*
X0079400Y0019929D01*
X0079324Y0019962D01*
X0079255Y0020010D01*
X0079197Y0020070D01*
X0079152Y0020140D01*
X0079121Y0020217D01*
X0079106Y0020299D01*
X0079108Y0020383D01*
X0079125Y0020464D01*
X0079158Y0020541D01*
X0079205Y0020610D01*
X0079264Y0020668D01*
X0079334Y0020713D01*
X0079411Y0020745D01*
X0079493Y0020760D01*
X0079577Y0020760D01*
X0079577Y0020760D01*
G37*
G36*
X0076977Y0020760D02*
X0077058Y0020743D01*
X0077135Y0020711D01*
X0077204Y0020664D01*
X0077263Y0020605D01*
X0077309Y0020535D01*
X0077341Y0020458D01*
X0077357Y0020377D01*
X0077357Y0020377D01*
X0077357Y0020377D01*
X0077356Y0020281D01*
X0077356Y0020281D01*
X0077356Y0020281D01*
X0077337Y0020200D01*
X0077303Y0020124D01*
X0077255Y0020056D01*
X0077195Y0019998D01*
X0077125Y0019954D01*
X0077047Y0019924D01*
X0076965Y0019909D01*
X0076881Y0019911D01*
X0076800Y0019929D01*
X0076724Y0019962D01*
X0076655Y0020010D01*
X0076597Y0020070D01*
X0076552Y0020140D01*
X0076521Y0020217D01*
X0076506Y0020299D01*
X0076508Y0020383D01*
X0076525Y0020464D01*
X0076558Y0020541D01*
X0076605Y0020610D01*
X0076664Y0020668D01*
X0076734Y0020713D01*
X0076811Y0020745D01*
X0076893Y0020760D01*
X0076977Y0020760D01*
X0076977Y0020760D01*
G37*
G36*
X0078277Y0020760D02*
X0078358Y0020743D01*
X0078435Y0020711D01*
X0078504Y0020664D01*
X0078563Y0020605D01*
X0078609Y0020535D01*
X0078641Y0020458D01*
X0078657Y0020377D01*
X0078657Y0020377D01*
X0078657Y0020377D01*
X0078656Y0020281D01*
X0078656Y0020281D01*
X0078656Y0020281D01*
X0078637Y0020200D01*
X0078603Y0020124D01*
X0078555Y0020056D01*
X0078495Y0019998D01*
X0078425Y0019954D01*
X0078347Y0019924D01*
X0078265Y0019909D01*
X0078181Y0019911D01*
X0078100Y0019929D01*
X0078024Y0019962D01*
X0077955Y0020010D01*
X0077897Y0020070D01*
X0077852Y0020140D01*
X0077821Y0020217D01*
X0077806Y0020299D01*
X0077808Y0020383D01*
X0077825Y0020464D01*
X0077858Y0020541D01*
X0077905Y0020610D01*
X0077964Y0020668D01*
X0078034Y0020713D01*
X0078111Y0020745D01*
X0078193Y0020760D01*
X0078277Y0020760D01*
X0078277Y0020760D01*
G37*
G36*
X0085163Y0024565D02*
X0083239Y0024565D01*
X0083239Y0026489D01*
X0085163Y0026489D01*
X0085163Y0024565D01*
X0085163Y0024565D01*
G37*
G36*
X0087703Y0024565D02*
X0085779Y0024565D01*
X0085779Y0026489D01*
X0087703Y0026489D01*
X0087703Y0024565D01*
X0087703Y0024565D01*
G37*
G36*
X0065915Y0026376D02*
X0066079Y0026343D01*
X0066232Y0026278D01*
X0066370Y0026185D01*
X0066488Y0026067D01*
X0066580Y0025928D01*
X0066644Y0025774D01*
X0066676Y0025611D01*
X0066676Y0025611D01*
X0066676Y0025610D01*
X0066673Y0025420D01*
X0066673Y0025419D01*
X0066673Y0025419D01*
X0066636Y0025257D01*
X0066569Y0025105D01*
X0066473Y0024969D01*
X0066352Y0024854D01*
X0066211Y0024765D01*
X0066056Y0024704D01*
X0065892Y0024675D01*
X0065725Y0024679D01*
X0065562Y0024715D01*
X0065409Y0024781D01*
X0065272Y0024877D01*
X0065157Y0024996D01*
X0065066Y0025137D01*
X0065005Y0025292D01*
X0064975Y0025456D01*
X0064977Y0025622D01*
X0065012Y0025785D01*
X0065078Y0025938D01*
X0065172Y0026076D01*
X0065291Y0026193D01*
X0065430Y0026284D01*
X0065585Y0026346D01*
X0065749Y0026378D01*
X0065915Y0026376D01*
X0065915Y0026376D01*
G37*
G36*
X0069176Y0024677D02*
X0067476Y0024677D01*
X0067476Y0026377D01*
X0069176Y0026377D01*
X0069176Y0024677D01*
X0069176Y0024677D01*
G37*
G36*
X0087703Y0027105D02*
X0085779Y0027105D01*
X0085779Y0029029D01*
X0087703Y0029029D01*
X0087703Y0027105D01*
X0087703Y0027105D01*
G37*
G36*
X0085163Y0027105D02*
X0083239Y0027105D01*
X0083239Y0029029D01*
X0085163Y0029029D01*
X0085163Y0027105D01*
X0085163Y0027105D01*
G37*
G36*
X0075638Y0027994D02*
X0071428Y0027994D01*
X0071428Y0032204D01*
X0075638Y0032204D01*
X0075638Y0027994D01*
X0075638Y0027994D01*
G37*
G36*
X0080718Y0027994D02*
X0076508Y0027994D01*
X0076508Y0032204D01*
X0080718Y0032204D01*
X0080718Y0027994D01*
X0080718Y0027994D01*
G37*
G36*
X0065614Y0038504D02*
X0066229Y0038378D01*
X0066807Y0038135D01*
X0067328Y0037784D01*
X0067770Y0037338D01*
X0068117Y0036816D01*
X0068356Y0036235D01*
X0068478Y0035620D01*
X0068478Y0035620D01*
X0068478Y0035620D01*
X0068468Y0034903D01*
X0068468Y0034902D01*
X0068468Y0034902D01*
X0068329Y0034291D01*
X0068074Y0033718D01*
X0067712Y0033205D01*
X0067258Y0032772D01*
X0066728Y0032436D01*
X0066143Y0032209D01*
X0065525Y0032100D01*
X0064897Y0032113D01*
X0064284Y0032248D01*
X0063709Y0032499D01*
X0063194Y0032857D01*
X0062758Y0033309D01*
X0062418Y0033836D01*
X0062187Y0034420D01*
X0062074Y0035037D01*
X0062083Y0035664D01*
X0062213Y0036278D01*
X0062460Y0036855D01*
X0062815Y0037373D01*
X0063263Y0037812D01*
X0063788Y0038156D01*
X0064370Y0038391D01*
X0064987Y0038508D01*
X0065614Y0038504D01*
X0065614Y0038504D01*
G37*
G36*
X0085934Y0038504D02*
X0086549Y0038378D01*
X0087127Y0038135D01*
X0087648Y0037784D01*
X0088090Y0037338D01*
X0088437Y0036816D01*
X0088676Y0036235D01*
X0088798Y0035620D01*
X0088798Y0035620D01*
X0088798Y0035620D01*
X0088788Y0034903D01*
X0088788Y0034902D01*
X0088788Y0034902D01*
X0088649Y0034291D01*
X0088394Y0033718D01*
X0088032Y0033205D01*
X0087578Y0032772D01*
X0087048Y0032436D01*
X0086463Y0032209D01*
X0085845Y0032100D01*
X0085217Y0032113D01*
X0084604Y0032248D01*
X0084029Y0032499D01*
X0083514Y0032857D01*
X0083078Y0033309D01*
X0082738Y0033836D01*
X0082507Y0034420D01*
X0082394Y0035037D01*
X0082403Y0035664D01*
X0082533Y0036278D01*
X0082780Y0036855D01*
X0083135Y0037373D01*
X0083583Y0037812D01*
X0084108Y0038156D01*
X0084690Y0038391D01*
X0085307Y0038508D01*
X0085934Y0038504D01*
X0085934Y0038504D01*
G37*
G36*
X0075638Y0032994D02*
X0071428Y0032994D01*
X0071428Y0037204D01*
X0075638Y0037204D01*
X0075638Y0032994D01*
X0075638Y0032994D01*
G37*
G36*
X0080718Y0032994D02*
X0076508Y0032994D01*
X0076508Y0037204D01*
X0080718Y0037204D01*
X0080718Y0032994D01*
X0080718Y0032994D01*
G37*
X0090424Y0000000D02*
%LPD*%
G01*
D32*
D27*
X0093980Y0029464D03*
X0096520Y0029464D03*
X0093980Y0026924D03*
X0096520Y0026924D03*
X0093980Y0024384D03*
X0096520Y0024384D03*
X0093980Y0021844D03*
X0096520Y0021844D03*
X0125476Y0018288D03*
X0128016Y0018288D03*
X0125476Y0015748D03*
X0128016Y0015748D03*
X0125476Y0013208D03*
X0128016Y0013208D03*
X0125476Y0010668D03*
X0128016Y0010668D03*
X0125476Y0029464D03*
X0128016Y0029464D03*
X0125476Y0026924D03*
X0128016Y0026924D03*
X0125476Y0024384D03*
X0128016Y0024384D03*
X0125476Y0021844D03*
X0128016Y0021844D03*
D26*
X0125730Y0035306D03*
D27*
X0114046Y0011684D03*
X0114046Y0009144D03*
D26*
X0095250Y0035306D03*
X0095250Y0004826D03*
D27*
X0116586Y0011684D03*
X0116586Y0009144D03*
D26*
X0125730Y0004826D03*
D27*
X0093980Y0018288D03*
X0096520Y0018288D03*
X0093980Y0015748D03*
X0096520Y0015748D03*
X0093980Y0013208D03*
X0096520Y0013208D03*
X0093980Y0010668D03*
X0096520Y0010668D03*
X0116586Y0028956D03*
X0116586Y0031496D03*
X0114046Y0028956D03*
X0114046Y0031496D03*
X0130556Y0000000D02*
%LPD*%
G01*
D40*
G36*
X0135718Y0008024D02*
X0136333Y0007898D01*
X0136911Y0007655D01*
X0137432Y0007304D01*
X0137874Y0006858D01*
X0138221Y0006336D01*
X0138460Y0005755D01*
X0138582Y0005140D01*
X0138582Y0005140D01*
X0138582Y0005140D01*
X0138572Y0004423D01*
X0138572Y0004422D01*
X0138572Y0004422D01*
X0138433Y0003811D01*
X0138178Y0003238D01*
X0137816Y0002725D01*
X0137362Y0002292D01*
X0136832Y0001956D01*
X0136247Y0001729D01*
X0135629Y0001620D01*
X0135001Y0001633D01*
X0134388Y0001768D01*
X0133813Y0002019D01*
X0133298Y0002377D01*
X0132862Y0002829D01*
X0132522Y0003356D01*
X0132291Y0003940D01*
X0132178Y0004557D01*
X0132187Y0005184D01*
X0132317Y0005798D01*
X0132564Y0006375D01*
X0132919Y0006893D01*
X0133367Y0007332D01*
X0133892Y0007676D01*
X0134474Y0007911D01*
X0135091Y0008028D01*
X0135718Y0008024D01*
X0135718Y0008024D01*
G37*
G36*
X0176358Y0008024D02*
X0176973Y0007898D01*
X0177551Y0007655D01*
X0178072Y0007304D01*
X0178514Y0006858D01*
X0178861Y0006336D01*
X0179100Y0005755D01*
X0179222Y0005140D01*
X0179222Y0005140D01*
X0179222Y0005140D01*
X0179212Y0004423D01*
X0179212Y0004422D01*
X0179212Y0004422D01*
X0179073Y0003811D01*
X0178818Y0003238D01*
X0178456Y0002725D01*
X0178002Y0002292D01*
X0177472Y0001956D01*
X0176887Y0001729D01*
X0176269Y0001620D01*
X0175641Y0001633D01*
X0175028Y0001768D01*
X0174453Y0002019D01*
X0173938Y0002377D01*
X0173502Y0002829D01*
X0173162Y0003356D01*
X0172931Y0003940D01*
X0172818Y0004557D01*
X0172827Y0005184D01*
X0172957Y0005798D01*
X0173204Y0006375D01*
X0173559Y0006893D01*
X0174007Y0007332D01*
X0174532Y0007676D01*
X0175114Y0007911D01*
X0175731Y0008028D01*
X0176358Y0008024D01*
X0176358Y0008024D01*
G37*
G36*
X0149165Y0007437D02*
X0149521Y0007364D01*
X0149855Y0007223D01*
X0150156Y0007020D01*
X0150412Y0006763D01*
X0150612Y0006461D01*
X0150751Y0006125D01*
X0150821Y0005770D01*
X0150821Y0005770D01*
X0150821Y0005769D01*
X0150815Y0005355D01*
X0150815Y0005354D01*
X0150815Y0005354D01*
X0150735Y0005001D01*
X0150587Y0004670D01*
X0150378Y0004373D01*
X0150115Y0004123D01*
X0149809Y0003929D01*
X0149471Y0003798D01*
X0149114Y0003735D01*
X0148751Y0003742D01*
X0148397Y0003820D01*
X0148064Y0003965D01*
X0147766Y0004172D01*
X0147514Y0004433D01*
X0147318Y0004738D01*
X0147184Y0005076D01*
X0147119Y0005432D01*
X0147124Y0005795D01*
X0147199Y0006150D01*
X0147342Y0006484D01*
X0147547Y0006783D01*
X0147806Y0007037D01*
X0148110Y0007235D01*
X0148446Y0007371D01*
X0148803Y0007439D01*
X0149165Y0007437D01*
X0149165Y0007437D01*
G37*
G36*
X0161865Y0007437D02*
X0162221Y0007364D01*
X0162555Y0007223D01*
X0162856Y0007020D01*
X0163112Y0006763D01*
X0163312Y0006461D01*
X0163451Y0006125D01*
X0163521Y0005770D01*
X0163521Y0005770D01*
X0163521Y0005769D01*
X0163515Y0005355D01*
X0163515Y0005354D01*
X0163515Y0005354D01*
X0163435Y0005001D01*
X0163287Y0004670D01*
X0163078Y0004373D01*
X0162815Y0004123D01*
X0162509Y0003929D01*
X0162171Y0003798D01*
X0161814Y0003735D01*
X0161451Y0003742D01*
X0161097Y0003820D01*
X0160764Y0003965D01*
X0160466Y0004172D01*
X0160214Y0004433D01*
X0160018Y0004738D01*
X0159884Y0005076D01*
X0159819Y0005432D01*
X0159824Y0005795D01*
X0159899Y0006150D01*
X0160042Y0006484D01*
X0160247Y0006783D01*
X0160506Y0007037D01*
X0160810Y0007235D01*
X0161146Y0007371D01*
X0161503Y0007439D01*
X0161865Y0007437D01*
X0161865Y0007437D01*
G37*
G36*
X0156930Y0008977D02*
X0157094Y0008944D01*
X0157247Y0008879D01*
X0157385Y0008786D01*
X0157503Y0008668D01*
X0157595Y0008529D01*
X0157659Y0008375D01*
X0157691Y0008212D01*
X0157691Y0008212D01*
X0157691Y0008211D01*
X0157688Y0008021D01*
X0157688Y0008020D01*
X0157688Y0008020D01*
X0157651Y0007858D01*
X0157584Y0007706D01*
X0157488Y0007570D01*
X0157367Y0007455D01*
X0157226Y0007366D01*
X0157071Y0007305D01*
X0156907Y0007276D01*
X0156740Y0007280D01*
X0156577Y0007316D01*
X0156424Y0007382D01*
X0156287Y0007478D01*
X0156172Y0007597D01*
X0156081Y0007738D01*
X0156020Y0007893D01*
X0155990Y0008057D01*
X0155992Y0008223D01*
X0156027Y0008386D01*
X0156093Y0008539D01*
X0156187Y0008677D01*
X0156306Y0008794D01*
X0156445Y0008885D01*
X0156600Y0008947D01*
X0156764Y0008979D01*
X0156930Y0008977D01*
X0156930Y0008977D01*
G37*
G36*
X0152870Y0008977D02*
X0153034Y0008944D01*
X0153187Y0008879D01*
X0153325Y0008786D01*
X0153443Y0008668D01*
X0153535Y0008529D01*
X0153599Y0008375D01*
X0153631Y0008212D01*
X0153631Y0008212D01*
X0153631Y0008211D01*
X0153628Y0008021D01*
X0153628Y0008020D01*
X0153628Y0008020D01*
X0153591Y0007858D01*
X0153524Y0007706D01*
X0153428Y0007570D01*
X0153307Y0007455D01*
X0153166Y0007366D01*
X0153011Y0007305D01*
X0152847Y0007276D01*
X0152680Y0007280D01*
X0152517Y0007316D01*
X0152364Y0007382D01*
X0152227Y0007478D01*
X0152112Y0007597D01*
X0152021Y0007738D01*
X0151960Y0007893D01*
X0151930Y0008057D01*
X0151932Y0008223D01*
X0151967Y0008386D01*
X0152033Y0008539D01*
X0152127Y0008677D01*
X0152246Y0008794D01*
X0152385Y0008885D01*
X0152540Y0008947D01*
X0152704Y0008979D01*
X0152870Y0008977D01*
X0152870Y0008977D01*
G37*
G36*
X0154900Y0008977D02*
X0155064Y0008944D01*
X0155217Y0008879D01*
X0155355Y0008786D01*
X0155473Y0008668D01*
X0155565Y0008529D01*
X0155629Y0008375D01*
X0155661Y0008212D01*
X0155661Y0008212D01*
X0155661Y0008211D01*
X0155658Y0008021D01*
X0155658Y0008020D01*
X0155658Y0008020D01*
X0155621Y0007858D01*
X0155554Y0007706D01*
X0155458Y0007570D01*
X0155337Y0007455D01*
X0155196Y0007366D01*
X0155041Y0007305D01*
X0154877Y0007276D01*
X0154710Y0007280D01*
X0154547Y0007316D01*
X0154394Y0007382D01*
X0154257Y0007478D01*
X0154142Y0007597D01*
X0154051Y0007738D01*
X0153990Y0007893D01*
X0153960Y0008057D01*
X0153962Y0008223D01*
X0153997Y0008386D01*
X0154063Y0008539D01*
X0154157Y0008677D01*
X0154276Y0008794D01*
X0154415Y0008885D01*
X0154570Y0008947D01*
X0154734Y0008979D01*
X0154900Y0008977D01*
X0154900Y0008977D01*
G37*
G36*
X0158960Y0008977D02*
X0159124Y0008944D01*
X0159277Y0008879D01*
X0159415Y0008786D01*
X0159533Y0008668D01*
X0159625Y0008529D01*
X0159689Y0008375D01*
X0159721Y0008212D01*
X0159721Y0008212D01*
X0159721Y0008211D01*
X0159718Y0008021D01*
X0159718Y0008020D01*
X0159718Y0008020D01*
X0159681Y0007858D01*
X0159614Y0007706D01*
X0159518Y0007570D01*
X0159397Y0007455D01*
X0159256Y0007366D01*
X0159101Y0007305D01*
X0158937Y0007276D01*
X0158770Y0007280D01*
X0158607Y0007316D01*
X0158454Y0007382D01*
X0158317Y0007478D01*
X0158202Y0007597D01*
X0158111Y0007738D01*
X0158050Y0007893D01*
X0158020Y0008057D01*
X0158022Y0008223D01*
X0158057Y0008386D01*
X0158123Y0008539D01*
X0158217Y0008677D01*
X0158336Y0008794D01*
X0158475Y0008885D01*
X0158630Y0008947D01*
X0158794Y0008979D01*
X0158960Y0008977D01*
X0158960Y0008977D01*
G37*
G36*
X0147333Y0010367D02*
X0147592Y0010314D01*
X0147836Y0010211D01*
X0148056Y0010063D01*
X0148242Y0009875D01*
X0148389Y0009655D01*
X0148490Y0009410D01*
X0148541Y0009151D01*
X0148541Y0009151D01*
X0148541Y0009150D01*
X0148537Y0008848D01*
X0148537Y0008847D01*
X0148537Y0008847D01*
X0148478Y0008590D01*
X0148371Y0008348D01*
X0148218Y0008132D01*
X0148026Y0007949D01*
X0147803Y0007807D01*
X0147556Y0007711D01*
X0147295Y0007665D01*
X0147030Y0007671D01*
X0146772Y0007728D01*
X0146529Y0007834D01*
X0146312Y0007985D01*
X0146128Y0008175D01*
X0145984Y0008398D01*
X0145887Y0008644D01*
X0145839Y0008904D01*
X0145843Y0009169D01*
X0145898Y0009428D01*
X0146002Y0009672D01*
X0146152Y0009890D01*
X0146341Y0010075D01*
X0146563Y0010220D01*
X0146808Y0010319D01*
X0147068Y0010369D01*
X0147333Y0010367D01*
X0147333Y0010367D01*
G37*
G36*
X0163593Y0010367D02*
X0163852Y0010314D01*
X0164096Y0010211D01*
X0164316Y0010063D01*
X0164502Y0009875D01*
X0164649Y0009655D01*
X0164750Y0009410D01*
X0164801Y0009151D01*
X0164801Y0009151D01*
X0164801Y0009150D01*
X0164797Y0008848D01*
X0164797Y0008847D01*
X0164797Y0008847D01*
X0164738Y0008590D01*
X0164631Y0008348D01*
X0164478Y0008132D01*
X0164286Y0007949D01*
X0164063Y0007807D01*
X0163816Y0007711D01*
X0163555Y0007665D01*
X0163290Y0007671D01*
X0163032Y0007728D01*
X0162789Y0007834D01*
X0162572Y0007985D01*
X0162388Y0008175D01*
X0162244Y0008398D01*
X0162147Y0008644D01*
X0162099Y0008904D01*
X0162103Y0009169D01*
X0162158Y0009428D01*
X0162262Y0009672D01*
X0162412Y0009890D01*
X0162601Y0010075D01*
X0162823Y0010220D01*
X0163068Y0010319D01*
X0163328Y0010369D01*
X0163593Y0010367D01*
X0163593Y0010367D01*
G37*
G36*
X0153880Y0010757D02*
X0154044Y0010724D01*
X0154197Y0010659D01*
X0154335Y0010566D01*
X0154453Y0010448D01*
X0154545Y0010309D01*
X0154609Y0010155D01*
X0154641Y0009992D01*
X0154641Y0009992D01*
X0154641Y0009991D01*
X0154638Y0009801D01*
X0154638Y0009800D01*
X0154638Y0009800D01*
X0154601Y0009638D01*
X0154534Y0009486D01*
X0154438Y0009350D01*
X0154317Y0009235D01*
X0154176Y0009146D01*
X0154021Y0009085D01*
X0153857Y0009056D01*
X0153690Y0009060D01*
X0153527Y0009096D01*
X0153374Y0009162D01*
X0153237Y0009258D01*
X0153122Y0009377D01*
X0153031Y0009518D01*
X0152970Y0009673D01*
X0152940Y0009837D01*
X0152942Y0010003D01*
X0152977Y0010166D01*
X0153043Y0010319D01*
X0153137Y0010457D01*
X0153256Y0010574D01*
X0153395Y0010665D01*
X0153550Y0010727D01*
X0153714Y0010759D01*
X0153880Y0010757D01*
X0153880Y0010757D01*
G37*
G36*
X0151850Y0010757D02*
X0152014Y0010724D01*
X0152167Y0010659D01*
X0152305Y0010566D01*
X0152423Y0010448D01*
X0152515Y0010309D01*
X0152579Y0010155D01*
X0152611Y0009992D01*
X0152611Y0009992D01*
X0152611Y0009991D01*
X0152608Y0009801D01*
X0152608Y0009800D01*
X0152608Y0009800D01*
X0152571Y0009638D01*
X0152504Y0009486D01*
X0152408Y0009350D01*
X0152287Y0009235D01*
X0152146Y0009146D01*
X0151991Y0009085D01*
X0151827Y0009056D01*
X0151660Y0009060D01*
X0151497Y0009096D01*
X0151344Y0009162D01*
X0151207Y0009258D01*
X0151092Y0009377D01*
X0151001Y0009518D01*
X0150940Y0009673D01*
X0150910Y0009837D01*
X0150912Y0010003D01*
X0150947Y0010166D01*
X0151013Y0010319D01*
X0151107Y0010457D01*
X0151226Y0010574D01*
X0151365Y0010665D01*
X0151520Y0010727D01*
X0151684Y0010759D01*
X0151850Y0010757D01*
X0151850Y0010757D01*
G37*
G36*
X0155910Y0010757D02*
X0156074Y0010724D01*
X0156227Y0010659D01*
X0156365Y0010566D01*
X0156483Y0010448D01*
X0156575Y0010309D01*
X0156639Y0010155D01*
X0156671Y0009992D01*
X0156671Y0009992D01*
X0156671Y0009991D01*
X0156668Y0009801D01*
X0156668Y0009800D01*
X0156668Y0009800D01*
X0156631Y0009638D01*
X0156564Y0009486D01*
X0156468Y0009350D01*
X0156347Y0009235D01*
X0156206Y0009146D01*
X0156051Y0009085D01*
X0155887Y0009056D01*
X0155720Y0009060D01*
X0155557Y0009096D01*
X0155404Y0009162D01*
X0155267Y0009258D01*
X0155152Y0009377D01*
X0155061Y0009518D01*
X0155000Y0009673D01*
X0154970Y0009837D01*
X0154972Y0010003D01*
X0155007Y0010166D01*
X0155073Y0010319D01*
X0155167Y0010457D01*
X0155286Y0010574D01*
X0155425Y0010665D01*
X0155580Y0010727D01*
X0155744Y0010759D01*
X0155910Y0010757D01*
X0155910Y0010757D01*
G37*
G36*
X0157940Y0010757D02*
X0158104Y0010724D01*
X0158257Y0010659D01*
X0158395Y0010566D01*
X0158513Y0010448D01*
X0158605Y0010309D01*
X0158669Y0010155D01*
X0158701Y0009992D01*
X0158701Y0009992D01*
X0158701Y0009991D01*
X0158698Y0009801D01*
X0158698Y0009800D01*
X0158698Y0009800D01*
X0158661Y0009638D01*
X0158594Y0009486D01*
X0158498Y0009350D01*
X0158377Y0009235D01*
X0158236Y0009146D01*
X0158081Y0009085D01*
X0157917Y0009056D01*
X0157750Y0009060D01*
X0157587Y0009096D01*
X0157434Y0009162D01*
X0157297Y0009258D01*
X0157182Y0009377D01*
X0157091Y0009518D01*
X0157030Y0009673D01*
X0157000Y0009837D01*
X0157002Y0010003D01*
X0157037Y0010166D01*
X0157103Y0010319D01*
X0157197Y0010457D01*
X0157316Y0010574D01*
X0157455Y0010665D01*
X0157610Y0010727D01*
X0157774Y0010759D01*
X0157940Y0010757D01*
X0157940Y0010757D01*
G37*
G36*
X0171845Y0013412D02*
X0172104Y0013359D01*
X0172348Y0013256D01*
X0172568Y0013108D01*
X0172754Y0012920D01*
X0172901Y0012700D01*
X0173002Y0012455D01*
X0173053Y0012196D01*
X0173053Y0012196D01*
X0173053Y0012195D01*
X0173049Y0011893D01*
X0173049Y0011892D01*
X0173049Y0011892D01*
X0172990Y0011635D01*
X0172883Y0011393D01*
X0172730Y0011177D01*
X0172538Y0010994D01*
X0172315Y0010852D01*
X0172068Y0010756D01*
X0171807Y0010710D01*
X0171542Y0010716D01*
X0171284Y0010773D01*
X0171041Y0010879D01*
X0170824Y0011030D01*
X0170640Y0011220D01*
X0170496Y0011443D01*
X0170399Y0011689D01*
X0170351Y0011949D01*
X0170355Y0012214D01*
X0170410Y0012473D01*
X0170514Y0012717D01*
X0170664Y0012935D01*
X0170853Y0013120D01*
X0171075Y0013265D01*
X0171320Y0013364D01*
X0171580Y0013414D01*
X0171845Y0013412D01*
X0171845Y0013412D01*
G37*
G36*
X0139716Y0013666D02*
X0139975Y0013613D01*
X0140219Y0013510D01*
X0140439Y0013362D01*
X0140625Y0013174D01*
X0140772Y0012954D01*
X0140873Y0012709D01*
X0140924Y0012450D01*
X0140924Y0012450D01*
X0140924Y0012449D01*
X0140920Y0012147D01*
X0140920Y0012146D01*
X0140920Y0012146D01*
X0140861Y0011889D01*
X0140754Y0011647D01*
X0140601Y0011431D01*
X0140409Y0011248D01*
X0140186Y0011106D01*
X0139939Y0011010D01*
X0139678Y0010964D01*
X0139413Y0010970D01*
X0139155Y0011027D01*
X0138912Y0011133D01*
X0138695Y0011284D01*
X0138511Y0011474D01*
X0138367Y0011697D01*
X0138270Y0011943D01*
X0138222Y0012203D01*
X0138226Y0012468D01*
X0138281Y0012727D01*
X0138385Y0012971D01*
X0138535Y0013189D01*
X0138724Y0013374D01*
X0138946Y0013519D01*
X0139191Y0013618D01*
X0139451Y0013668D01*
X0139716Y0013666D01*
X0139716Y0013666D01*
G37*
G36*
X0175327Y0015692D02*
X0175683Y0015619D01*
X0176017Y0015478D01*
X0176318Y0015275D01*
X0176574Y0015018D01*
X0176774Y0014716D01*
X0176913Y0014380D01*
X0176983Y0014025D01*
X0176983Y0014025D01*
X0176983Y0014024D01*
X0176977Y0013610D01*
X0176977Y0013609D01*
X0176977Y0013609D01*
X0176897Y0013256D01*
X0176749Y0012925D01*
X0176540Y0012628D01*
X0176277Y0012378D01*
X0175971Y0012184D01*
X0175633Y0012053D01*
X0175276Y0011990D01*
X0174913Y0011997D01*
X0174559Y0012075D01*
X0174226Y0012220D01*
X0173928Y0012427D01*
X0173676Y0012688D01*
X0173480Y0012993D01*
X0173346Y0013331D01*
X0173281Y0013687D01*
X0173286Y0014050D01*
X0173361Y0014405D01*
X0173504Y0014739D01*
X0173709Y0015038D01*
X0173968Y0015292D01*
X0174272Y0015490D01*
X0174608Y0015626D01*
X0174965Y0015694D01*
X0175327Y0015692D01*
X0175327Y0015692D01*
G37*
G36*
X0136338Y0015946D02*
X0136694Y0015873D01*
X0137028Y0015732D01*
X0137329Y0015529D01*
X0137585Y0015272D01*
X0137785Y0014970D01*
X0137924Y0014634D01*
X0137994Y0014279D01*
X0137994Y0014279D01*
X0137994Y0014278D01*
X0137988Y0013864D01*
X0137988Y0013863D01*
X0137988Y0013863D01*
X0137908Y0013510D01*
X0137760Y0013179D01*
X0137551Y0012882D01*
X0137288Y0012632D01*
X0136982Y0012438D01*
X0136644Y0012307D01*
X0136287Y0012244D01*
X0135924Y0012251D01*
X0135570Y0012329D01*
X0135237Y0012474D01*
X0134939Y0012681D01*
X0134687Y0012942D01*
X0134491Y0013247D01*
X0134357Y0013585D01*
X0134292Y0013941D01*
X0134297Y0014304D01*
X0134372Y0014659D01*
X0134515Y0014993D01*
X0134720Y0015292D01*
X0134979Y0015546D01*
X0135283Y0015744D01*
X0135619Y0015880D01*
X0135976Y0015948D01*
X0136338Y0015946D01*
X0136338Y0015946D01*
G37*
G36*
X0166093Y0014282D02*
X0166275Y0014245D01*
X0166447Y0014173D01*
X0166601Y0014069D01*
X0166733Y0013936D01*
X0166836Y0013781D01*
X0166907Y0013609D01*
X0166943Y0013427D01*
X0166943Y0013427D01*
X0166943Y0013426D01*
X0166940Y0013213D01*
X0166940Y0013213D01*
X0166940Y0013213D01*
X0166899Y0013032D01*
X0166823Y0012861D01*
X0166716Y0012709D01*
X0166581Y0012581D01*
X0166423Y0012481D01*
X0166250Y0012414D01*
X0166066Y0012381D01*
X0165880Y0012385D01*
X0165698Y0012425D01*
X0165527Y0012500D01*
X0165374Y0012606D01*
X0165245Y0012740D01*
X0165144Y0012897D01*
X0165075Y0013070D01*
X0165042Y0013253D01*
X0165044Y0013439D01*
X0165083Y0013622D01*
X0165156Y0013793D01*
X0165262Y0013947D01*
X0165395Y0014077D01*
X0165551Y0014179D01*
X0165723Y0014249D01*
X0165906Y0014284D01*
X0166093Y0014282D01*
X0166093Y0014282D01*
G37*
G36*
X0145384Y0014536D02*
X0145566Y0014499D01*
X0145738Y0014427D01*
X0145892Y0014323D01*
X0146024Y0014190D01*
X0146127Y0014035D01*
X0146198Y0013863D01*
X0146234Y0013681D01*
X0146234Y0013681D01*
X0146234Y0013680D01*
X0146231Y0013467D01*
X0146231Y0013467D01*
X0146231Y0013467D01*
X0146190Y0013286D01*
X0146114Y0013115D01*
X0146007Y0012963D01*
X0145872Y0012835D01*
X0145714Y0012735D01*
X0145541Y0012668D01*
X0145357Y0012635D01*
X0145171Y0012639D01*
X0144989Y0012679D01*
X0144818Y0012754D01*
X0144665Y0012860D01*
X0144536Y0012994D01*
X0144435Y0013151D01*
X0144366Y0013324D01*
X0144333Y0013507D01*
X0144335Y0013693D01*
X0144374Y0013876D01*
X0144447Y0014047D01*
X0144553Y0014201D01*
X0144686Y0014331D01*
X0144842Y0014433D01*
X0145014Y0014503D01*
X0145197Y0014538D01*
X0145384Y0014536D01*
X0145384Y0014536D01*
G37*
G36*
X0150851Y0015677D02*
X0151033Y0015640D01*
X0151205Y0015568D01*
X0151359Y0015464D01*
X0151491Y0015331D01*
X0151594Y0015176D01*
X0151665Y0015004D01*
X0151701Y0014822D01*
X0151701Y0014822D01*
X0151701Y0014821D01*
X0151698Y0014608D01*
X0151698Y0014608D01*
X0151698Y0014608D01*
X0151657Y0014427D01*
X0151581Y0014256D01*
X0151474Y0014104D01*
X0151339Y0013976D01*
X0151181Y0013876D01*
X0151008Y0013809D01*
X0150824Y0013776D01*
X0150638Y0013780D01*
X0150456Y0013820D01*
X0150285Y0013895D01*
X0150132Y0014001D01*
X0150003Y0014135D01*
X0149902Y0014292D01*
X0149833Y0014465D01*
X0149800Y0014648D01*
X0149802Y0014834D01*
X0149841Y0015017D01*
X0149914Y0015188D01*
X0150020Y0015342D01*
X0150153Y0015472D01*
X0150309Y0015574D01*
X0150481Y0015644D01*
X0150664Y0015679D01*
X0150851Y0015677D01*
X0150851Y0015677D01*
G37*
G36*
X0148561Y0015677D02*
X0148743Y0015640D01*
X0148915Y0015568D01*
X0149069Y0015464D01*
X0149201Y0015331D01*
X0149304Y0015176D01*
X0149375Y0015004D01*
X0149411Y0014822D01*
X0149411Y0014822D01*
X0149411Y0014821D01*
X0149408Y0014608D01*
X0149408Y0014608D01*
X0149408Y0014608D01*
X0149367Y0014427D01*
X0149291Y0014256D01*
X0149184Y0014104D01*
X0149049Y0013976D01*
X0148891Y0013876D01*
X0148718Y0013809D01*
X0148534Y0013776D01*
X0148348Y0013780D01*
X0148166Y0013820D01*
X0147995Y0013895D01*
X0147842Y0014001D01*
X0147713Y0014135D01*
X0147612Y0014292D01*
X0147543Y0014465D01*
X0147510Y0014648D01*
X0147512Y0014834D01*
X0147551Y0015017D01*
X0147624Y0015188D01*
X0147730Y0015342D01*
X0147863Y0015472D01*
X0148019Y0015574D01*
X0148191Y0015644D01*
X0148374Y0015679D01*
X0148561Y0015677D01*
X0148561Y0015677D01*
G37*
G36*
X0162281Y0015677D02*
X0162463Y0015640D01*
X0162635Y0015568D01*
X0162789Y0015464D01*
X0162921Y0015331D01*
X0163024Y0015176D01*
X0163095Y0015004D01*
X0163131Y0014822D01*
X0163131Y0014822D01*
X0163131Y0014821D01*
X0163128Y0014608D01*
X0163128Y0014608D01*
X0163128Y0014608D01*
X0163087Y0014427D01*
X0163011Y0014256D01*
X0162904Y0014104D01*
X0162769Y0013976D01*
X0162611Y0013876D01*
X0162438Y0013809D01*
X0162254Y0013776D01*
X0162068Y0013780D01*
X0161886Y0013820D01*
X0161715Y0013895D01*
X0161562Y0014001D01*
X0161433Y0014135D01*
X0161332Y0014292D01*
X0161263Y0014465D01*
X0161230Y0014648D01*
X0161232Y0014834D01*
X0161271Y0015017D01*
X0161344Y0015188D01*
X0161450Y0015342D01*
X0161583Y0015472D01*
X0161739Y0015574D01*
X0161911Y0015644D01*
X0162094Y0015679D01*
X0162281Y0015677D01*
X0162281Y0015677D01*
G37*
G36*
X0159991Y0015677D02*
X0160173Y0015640D01*
X0160345Y0015568D01*
X0160499Y0015464D01*
X0160631Y0015331D01*
X0160734Y0015176D01*
X0160805Y0015004D01*
X0160841Y0014822D01*
X0160841Y0014822D01*
X0160841Y0014821D01*
X0160838Y0014608D01*
X0160838Y0014608D01*
X0160838Y0014608D01*
X0160797Y0014427D01*
X0160721Y0014256D01*
X0160614Y0014104D01*
X0160479Y0013976D01*
X0160321Y0013876D01*
X0160148Y0013809D01*
X0159964Y0013776D01*
X0159778Y0013780D01*
X0159596Y0013820D01*
X0159425Y0013895D01*
X0159272Y0014001D01*
X0159143Y0014135D01*
X0159042Y0014292D01*
X0158973Y0014465D01*
X0158940Y0014648D01*
X0158942Y0014834D01*
X0158981Y0015017D01*
X0159054Y0015188D01*
X0159160Y0015342D01*
X0159293Y0015472D01*
X0159449Y0015574D01*
X0159621Y0015644D01*
X0159804Y0015679D01*
X0159991Y0015677D01*
X0159991Y0015677D01*
G37*
G36*
X0166093Y0016572D02*
X0166275Y0016535D01*
X0166447Y0016463D01*
X0166601Y0016359D01*
X0166733Y0016226D01*
X0166836Y0016071D01*
X0166907Y0015899D01*
X0166943Y0015717D01*
X0166943Y0015717D01*
X0166943Y0015716D01*
X0166940Y0015503D01*
X0166940Y0015503D01*
X0166940Y0015503D01*
X0166899Y0015322D01*
X0166823Y0015151D01*
X0166716Y0014999D01*
X0166581Y0014871D01*
X0166423Y0014771D01*
X0166250Y0014704D01*
X0166066Y0014671D01*
X0165880Y0014675D01*
X0165698Y0014715D01*
X0165527Y0014790D01*
X0165374Y0014896D01*
X0165245Y0015030D01*
X0165144Y0015187D01*
X0165075Y0015360D01*
X0165042Y0015543D01*
X0165044Y0015729D01*
X0165083Y0015912D01*
X0165156Y0016083D01*
X0165262Y0016237D01*
X0165395Y0016367D01*
X0165551Y0016469D01*
X0165723Y0016539D01*
X0165906Y0016574D01*
X0166093Y0016572D01*
X0166093Y0016572D01*
G37*
G36*
X0145384Y0016826D02*
X0145566Y0016789D01*
X0145738Y0016717D01*
X0145892Y0016613D01*
X0146024Y0016480D01*
X0146127Y0016325D01*
X0146198Y0016153D01*
X0146234Y0015971D01*
X0146234Y0015971D01*
X0146234Y0015970D01*
X0146231Y0015757D01*
X0146231Y0015757D01*
X0146231Y0015757D01*
X0146190Y0015576D01*
X0146114Y0015405D01*
X0146007Y0015253D01*
X0145872Y0015125D01*
X0145714Y0015025D01*
X0145541Y0014958D01*
X0145357Y0014925D01*
X0145171Y0014929D01*
X0144989Y0014969D01*
X0144818Y0015044D01*
X0144665Y0015150D01*
X0144536Y0015284D01*
X0144435Y0015441D01*
X0144366Y0015614D01*
X0144333Y0015797D01*
X0144335Y0015983D01*
X0144374Y0016166D01*
X0144447Y0016337D01*
X0144553Y0016491D01*
X0144686Y0016621D01*
X0144842Y0016723D01*
X0145014Y0016793D01*
X0145197Y0016828D01*
X0145384Y0016826D01*
X0145384Y0016826D01*
G37*
G36*
X0170902Y0017482D02*
X0171066Y0017449D01*
X0171219Y0017384D01*
X0171357Y0017291D01*
X0171475Y0017173D01*
X0171567Y0017034D01*
X0171631Y0016880D01*
X0171663Y0016717D01*
X0171663Y0016717D01*
X0171663Y0016716D01*
X0171660Y0016526D01*
X0171660Y0016525D01*
X0171660Y0016525D01*
X0171623Y0016363D01*
X0171556Y0016211D01*
X0171460Y0016075D01*
X0171339Y0015960D01*
X0171198Y0015871D01*
X0171043Y0015810D01*
X0170879Y0015781D01*
X0170712Y0015785D01*
X0170549Y0015821D01*
X0170396Y0015887D01*
X0170259Y0015983D01*
X0170144Y0016102D01*
X0170053Y0016243D01*
X0169992Y0016398D01*
X0169962Y0016562D01*
X0169964Y0016728D01*
X0169999Y0016891D01*
X0170065Y0017044D01*
X0170159Y0017182D01*
X0170278Y0017299D01*
X0170417Y0017390D01*
X0170572Y0017452D01*
X0170736Y0017484D01*
X0170902Y0017482D01*
X0170902Y0017482D01*
G37*
G36*
X0138773Y0017746D02*
X0138937Y0017713D01*
X0139090Y0017648D01*
X0139228Y0017555D01*
X0139346Y0017437D01*
X0139438Y0017298D01*
X0139502Y0017144D01*
X0139534Y0016981D01*
X0139534Y0016981D01*
X0139534Y0016980D01*
X0139531Y0016790D01*
X0139531Y0016789D01*
X0139531Y0016789D01*
X0139494Y0016627D01*
X0139427Y0016475D01*
X0139331Y0016339D01*
X0139210Y0016224D01*
X0139069Y0016135D01*
X0138914Y0016074D01*
X0138750Y0016045D01*
X0138583Y0016049D01*
X0138420Y0016085D01*
X0138267Y0016151D01*
X0138130Y0016247D01*
X0138015Y0016366D01*
X0137924Y0016507D01*
X0137863Y0016662D01*
X0137833Y0016826D01*
X0137835Y0016992D01*
X0137870Y0017155D01*
X0137936Y0017308D01*
X0138030Y0017446D01*
X0138149Y0017563D01*
X0138288Y0017654D01*
X0138443Y0017716D01*
X0138607Y0017748D01*
X0138773Y0017746D01*
X0138773Y0017746D01*
G37*
G36*
X0172682Y0018502D02*
X0172846Y0018469D01*
X0172999Y0018404D01*
X0173137Y0018311D01*
X0173255Y0018193D01*
X0173347Y0018054D01*
X0173411Y0017900D01*
X0173443Y0017737D01*
X0173443Y0017737D01*
X0173443Y0017736D01*
X0173440Y0017546D01*
X0173440Y0017545D01*
X0173440Y0017545D01*
X0173403Y0017383D01*
X0173336Y0017231D01*
X0173240Y0017095D01*
X0173119Y0016980D01*
X0172978Y0016891D01*
X0172823Y0016830D01*
X0172659Y0016801D01*
X0172492Y0016805D01*
X0172329Y0016841D01*
X0172176Y0016907D01*
X0172039Y0017003D01*
X0171924Y0017122D01*
X0171833Y0017263D01*
X0171772Y0017418D01*
X0171742Y0017582D01*
X0171744Y0017748D01*
X0171779Y0017911D01*
X0171845Y0018064D01*
X0171939Y0018202D01*
X0172058Y0018319D01*
X0172197Y0018410D01*
X0172352Y0018472D01*
X0172516Y0018504D01*
X0172682Y0018502D01*
X0172682Y0018502D01*
G37*
G36*
X0140553Y0018766D02*
X0140717Y0018733D01*
X0140870Y0018668D01*
X0141008Y0018575D01*
X0141126Y0018457D01*
X0141218Y0018318D01*
X0141282Y0018164D01*
X0141314Y0018001D01*
X0141314Y0018001D01*
X0141314Y0018000D01*
X0141311Y0017810D01*
X0141311Y0017809D01*
X0141311Y0017809D01*
X0141274Y0017647D01*
X0141207Y0017495D01*
X0141111Y0017359D01*
X0140990Y0017244D01*
X0140849Y0017155D01*
X0140694Y0017094D01*
X0140530Y0017065D01*
X0140363Y0017069D01*
X0140200Y0017105D01*
X0140047Y0017171D01*
X0139910Y0017267D01*
X0139795Y0017386D01*
X0139704Y0017527D01*
X0139643Y0017682D01*
X0139613Y0017846D01*
X0139615Y0018012D01*
X0139650Y0018175D01*
X0139716Y0018328D01*
X0139810Y0018466D01*
X0139929Y0018583D01*
X0140068Y0018674D01*
X0140223Y0018736D01*
X0140387Y0018768D01*
X0140553Y0018766D01*
X0140553Y0018766D01*
G37*
G36*
X0170902Y0019512D02*
X0171066Y0019479D01*
X0171219Y0019414D01*
X0171357Y0019321D01*
X0171475Y0019203D01*
X0171567Y0019064D01*
X0171631Y0018910D01*
X0171663Y0018747D01*
X0171663Y0018747D01*
X0171663Y0018746D01*
X0171660Y0018556D01*
X0171660Y0018555D01*
X0171660Y0018555D01*
X0171623Y0018393D01*
X0171556Y0018241D01*
X0171460Y0018105D01*
X0171339Y0017990D01*
X0171198Y0017901D01*
X0171043Y0017840D01*
X0170879Y0017811D01*
X0170712Y0017815D01*
X0170549Y0017851D01*
X0170396Y0017917D01*
X0170259Y0018013D01*
X0170144Y0018132D01*
X0170053Y0018273D01*
X0169992Y0018428D01*
X0169962Y0018592D01*
X0169964Y0018758D01*
X0169999Y0018921D01*
X0170065Y0019074D01*
X0170159Y0019212D01*
X0170278Y0019329D01*
X0170417Y0019420D01*
X0170572Y0019482D01*
X0170736Y0019514D01*
X0170902Y0019512D01*
X0170902Y0019512D01*
G37*
G36*
X0138773Y0019776D02*
X0138937Y0019743D01*
X0139090Y0019678D01*
X0139228Y0019585D01*
X0139346Y0019467D01*
X0139438Y0019328D01*
X0139502Y0019174D01*
X0139534Y0019011D01*
X0139534Y0019011D01*
X0139534Y0019010D01*
X0139531Y0018820D01*
X0139531Y0018819D01*
X0139531Y0018819D01*
X0139494Y0018657D01*
X0139427Y0018505D01*
X0139331Y0018369D01*
X0139210Y0018254D01*
X0139069Y0018165D01*
X0138914Y0018104D01*
X0138750Y0018075D01*
X0138583Y0018079D01*
X0138420Y0018115D01*
X0138267Y0018181D01*
X0138130Y0018277D01*
X0138015Y0018396D01*
X0137924Y0018537D01*
X0137863Y0018692D01*
X0137833Y0018856D01*
X0137835Y0019022D01*
X0137870Y0019185D01*
X0137936Y0019338D01*
X0138030Y0019476D01*
X0138149Y0019593D01*
X0138288Y0019684D01*
X0138443Y0019746D01*
X0138607Y0019778D01*
X0138773Y0019776D01*
X0138773Y0019776D01*
G37*
G36*
X0172682Y0020532D02*
X0172846Y0020499D01*
X0172999Y0020434D01*
X0173137Y0020341D01*
X0173255Y0020223D01*
X0173347Y0020084D01*
X0173411Y0019930D01*
X0173443Y0019767D01*
X0173443Y0019767D01*
X0173443Y0019766D01*
X0173440Y0019576D01*
X0173440Y0019575D01*
X0173440Y0019575D01*
X0173403Y0019413D01*
X0173336Y0019261D01*
X0173240Y0019125D01*
X0173119Y0019010D01*
X0172978Y0018921D01*
X0172823Y0018860D01*
X0172659Y0018831D01*
X0172492Y0018835D01*
X0172329Y0018871D01*
X0172176Y0018937D01*
X0172039Y0019033D01*
X0171924Y0019152D01*
X0171833Y0019293D01*
X0171772Y0019448D01*
X0171742Y0019612D01*
X0171744Y0019778D01*
X0171779Y0019941D01*
X0171845Y0020094D01*
X0171939Y0020232D01*
X0172058Y0020349D01*
X0172197Y0020440D01*
X0172352Y0020502D01*
X0172516Y0020534D01*
X0172682Y0020532D01*
X0172682Y0020532D01*
G37*
G36*
X0140553Y0020796D02*
X0140717Y0020763D01*
X0140870Y0020698D01*
X0141008Y0020605D01*
X0141126Y0020487D01*
X0141218Y0020348D01*
X0141282Y0020194D01*
X0141314Y0020031D01*
X0141314Y0020031D01*
X0141314Y0020030D01*
X0141311Y0019840D01*
X0141311Y0019839D01*
X0141311Y0019839D01*
X0141274Y0019677D01*
X0141207Y0019525D01*
X0141111Y0019389D01*
X0140990Y0019274D01*
X0140849Y0019185D01*
X0140694Y0019124D01*
X0140530Y0019095D01*
X0140363Y0019099D01*
X0140200Y0019135D01*
X0140047Y0019201D01*
X0139910Y0019297D01*
X0139795Y0019416D01*
X0139704Y0019557D01*
X0139643Y0019712D01*
X0139613Y0019876D01*
X0139615Y0020042D01*
X0139650Y0020205D01*
X0139716Y0020358D01*
X0139810Y0020496D01*
X0139929Y0020613D01*
X0140068Y0020704D01*
X0140223Y0020766D01*
X0140387Y0020798D01*
X0140553Y0020796D01*
X0140553Y0020796D01*
G37*
G36*
X0170902Y0021542D02*
X0171066Y0021509D01*
X0171219Y0021444D01*
X0171357Y0021351D01*
X0171475Y0021233D01*
X0171567Y0021094D01*
X0171631Y0020940D01*
X0171663Y0020777D01*
X0171663Y0020777D01*
X0171663Y0020776D01*
X0171660Y0020586D01*
X0171660Y0020585D01*
X0171660Y0020585D01*
X0171623Y0020423D01*
X0171556Y0020271D01*
X0171460Y0020135D01*
X0171339Y0020020D01*
X0171198Y0019931D01*
X0171043Y0019870D01*
X0170879Y0019841D01*
X0170712Y0019845D01*
X0170549Y0019881D01*
X0170396Y0019947D01*
X0170259Y0020043D01*
X0170144Y0020162D01*
X0170053Y0020303D01*
X0169992Y0020458D01*
X0169962Y0020622D01*
X0169964Y0020788D01*
X0169999Y0020951D01*
X0170065Y0021104D01*
X0170159Y0021242D01*
X0170278Y0021359D01*
X0170417Y0021450D01*
X0170572Y0021512D01*
X0170736Y0021544D01*
X0170902Y0021542D01*
X0170902Y0021542D01*
G37*
G36*
X0138773Y0021806D02*
X0138937Y0021773D01*
X0139090Y0021708D01*
X0139228Y0021615D01*
X0139346Y0021497D01*
X0139438Y0021358D01*
X0139502Y0021204D01*
X0139534Y0021041D01*
X0139534Y0021041D01*
X0139534Y0021040D01*
X0139531Y0020850D01*
X0139531Y0020849D01*
X0139531Y0020849D01*
X0139494Y0020687D01*
X0139427Y0020535D01*
X0139331Y0020399D01*
X0139210Y0020284D01*
X0139069Y0020195D01*
X0138914Y0020134D01*
X0138750Y0020105D01*
X0138583Y0020109D01*
X0138420Y0020145D01*
X0138267Y0020211D01*
X0138130Y0020307D01*
X0138015Y0020426D01*
X0137924Y0020567D01*
X0137863Y0020722D01*
X0137833Y0020886D01*
X0137835Y0021052D01*
X0137870Y0021215D01*
X0137936Y0021368D01*
X0138030Y0021506D01*
X0138149Y0021623D01*
X0138288Y0021714D01*
X0138443Y0021776D01*
X0138607Y0021808D01*
X0138773Y0021806D01*
X0138773Y0021806D01*
G37*
G36*
X0172682Y0022562D02*
X0172846Y0022529D01*
X0172999Y0022464D01*
X0173137Y0022371D01*
X0173255Y0022253D01*
X0173347Y0022114D01*
X0173411Y0021960D01*
X0173443Y0021797D01*
X0173443Y0021797D01*
X0173443Y0021796D01*
X0173440Y0021606D01*
X0173440Y0021605D01*
X0173440Y0021605D01*
X0173403Y0021443D01*
X0173336Y0021291D01*
X0173240Y0021155D01*
X0173119Y0021040D01*
X0172978Y0020951D01*
X0172823Y0020890D01*
X0172659Y0020861D01*
X0172492Y0020865D01*
X0172329Y0020901D01*
X0172176Y0020967D01*
X0172039Y0021063D01*
X0171924Y0021182D01*
X0171833Y0021323D01*
X0171772Y0021478D01*
X0171742Y0021642D01*
X0171744Y0021808D01*
X0171779Y0021971D01*
X0171845Y0022124D01*
X0171939Y0022262D01*
X0172058Y0022379D01*
X0172197Y0022470D01*
X0172352Y0022532D01*
X0172516Y0022564D01*
X0172682Y0022562D01*
X0172682Y0022562D01*
G37*
G36*
X0140553Y0022826D02*
X0140717Y0022793D01*
X0140870Y0022728D01*
X0141008Y0022635D01*
X0141126Y0022517D01*
X0141218Y0022378D01*
X0141282Y0022224D01*
X0141314Y0022061D01*
X0141314Y0022061D01*
X0141314Y0022060D01*
X0141311Y0021870D01*
X0141311Y0021869D01*
X0141311Y0021869D01*
X0141274Y0021707D01*
X0141207Y0021555D01*
X0141111Y0021419D01*
X0140990Y0021304D01*
X0140849Y0021215D01*
X0140694Y0021154D01*
X0140530Y0021125D01*
X0140363Y0021129D01*
X0140200Y0021165D01*
X0140047Y0021231D01*
X0139910Y0021327D01*
X0139795Y0021446D01*
X0139704Y0021587D01*
X0139643Y0021742D01*
X0139613Y0021906D01*
X0139615Y0022072D01*
X0139650Y0022235D01*
X0139716Y0022388D01*
X0139810Y0022526D01*
X0139929Y0022643D01*
X0140068Y0022734D01*
X0140223Y0022796D01*
X0140387Y0022828D01*
X0140553Y0022826D01*
X0140553Y0022826D01*
G37*
G36*
X0170902Y0023572D02*
X0171066Y0023539D01*
X0171219Y0023474D01*
X0171357Y0023381D01*
X0171475Y0023263D01*
X0171567Y0023124D01*
X0171631Y0022970D01*
X0171663Y0022807D01*
X0171663Y0022807D01*
X0171663Y0022806D01*
X0171660Y0022616D01*
X0171660Y0022615D01*
X0171660Y0022615D01*
X0171623Y0022453D01*
X0171556Y0022301D01*
X0171460Y0022165D01*
X0171339Y0022050D01*
X0171198Y0021961D01*
X0171043Y0021900D01*
X0170879Y0021871D01*
X0170712Y0021875D01*
X0170549Y0021911D01*
X0170396Y0021977D01*
X0170259Y0022073D01*
X0170144Y0022192D01*
X0170053Y0022333D01*
X0169992Y0022488D01*
X0169962Y0022652D01*
X0169964Y0022818D01*
X0169999Y0022981D01*
X0170065Y0023134D01*
X0170159Y0023272D01*
X0170278Y0023389D01*
X0170417Y0023480D01*
X0170572Y0023542D01*
X0170736Y0023574D01*
X0170902Y0023572D01*
X0170902Y0023572D01*
G37*
G36*
X0138773Y0023836D02*
X0138937Y0023803D01*
X0139090Y0023738D01*
X0139228Y0023645D01*
X0139346Y0023527D01*
X0139438Y0023388D01*
X0139502Y0023234D01*
X0139534Y0023071D01*
X0139534Y0023071D01*
X0139534Y0023070D01*
X0139531Y0022880D01*
X0139531Y0022879D01*
X0139531Y0022879D01*
X0139494Y0022717D01*
X0139427Y0022565D01*
X0139331Y0022429D01*
X0139210Y0022314D01*
X0139069Y0022225D01*
X0138914Y0022164D01*
X0138750Y0022135D01*
X0138583Y0022139D01*
X0138420Y0022175D01*
X0138267Y0022241D01*
X0138130Y0022337D01*
X0138015Y0022456D01*
X0137924Y0022597D01*
X0137863Y0022752D01*
X0137833Y0022916D01*
X0137835Y0023082D01*
X0137870Y0023245D01*
X0137936Y0023398D01*
X0138030Y0023536D01*
X0138149Y0023653D01*
X0138288Y0023744D01*
X0138443Y0023806D01*
X0138607Y0023838D01*
X0138773Y0023836D01*
X0138773Y0023836D01*
G37*
G36*
X0172682Y0024592D02*
X0172846Y0024559D01*
X0172999Y0024494D01*
X0173137Y0024401D01*
X0173255Y0024283D01*
X0173347Y0024144D01*
X0173411Y0023990D01*
X0173443Y0023827D01*
X0173443Y0023827D01*
X0173443Y0023826D01*
X0173440Y0023636D01*
X0173440Y0023635D01*
X0173440Y0023635D01*
X0173403Y0023473D01*
X0173336Y0023321D01*
X0173240Y0023185D01*
X0173119Y0023070D01*
X0172978Y0022981D01*
X0172823Y0022920D01*
X0172659Y0022891D01*
X0172492Y0022895D01*
X0172329Y0022931D01*
X0172176Y0022997D01*
X0172039Y0023093D01*
X0171924Y0023212D01*
X0171833Y0023353D01*
X0171772Y0023508D01*
X0171742Y0023672D01*
X0171744Y0023838D01*
X0171779Y0024001D01*
X0171845Y0024154D01*
X0171939Y0024292D01*
X0172058Y0024409D01*
X0172197Y0024500D01*
X0172352Y0024562D01*
X0172516Y0024594D01*
X0172682Y0024592D01*
X0172682Y0024592D01*
G37*
G36*
X0140553Y0024856D02*
X0140717Y0024823D01*
X0140870Y0024758D01*
X0141008Y0024665D01*
X0141126Y0024547D01*
X0141218Y0024408D01*
X0141282Y0024254D01*
X0141314Y0024091D01*
X0141314Y0024091D01*
X0141314Y0024090D01*
X0141311Y0023900D01*
X0141311Y0023899D01*
X0141311Y0023899D01*
X0141274Y0023737D01*
X0141207Y0023585D01*
X0141111Y0023449D01*
X0140990Y0023334D01*
X0140849Y0023245D01*
X0140694Y0023184D01*
X0140530Y0023155D01*
X0140363Y0023159D01*
X0140200Y0023195D01*
X0140047Y0023261D01*
X0139910Y0023357D01*
X0139795Y0023476D01*
X0139704Y0023617D01*
X0139643Y0023772D01*
X0139613Y0023936D01*
X0139615Y0024102D01*
X0139650Y0024265D01*
X0139716Y0024418D01*
X0139810Y0024556D01*
X0139929Y0024673D01*
X0140068Y0024764D01*
X0140223Y0024826D01*
X0140387Y0024858D01*
X0140553Y0024856D01*
X0140553Y0024856D01*
G37*
G36*
X0166093Y0025712D02*
X0166275Y0025675D01*
X0166447Y0025603D01*
X0166601Y0025499D01*
X0166733Y0025366D01*
X0166836Y0025211D01*
X0166907Y0025039D01*
X0166943Y0024857D01*
X0166943Y0024857D01*
X0166943Y0024856D01*
X0166940Y0024643D01*
X0166940Y0024643D01*
X0166940Y0024643D01*
X0166899Y0024462D01*
X0166823Y0024291D01*
X0166716Y0024139D01*
X0166581Y0024011D01*
X0166423Y0023911D01*
X0166250Y0023844D01*
X0166066Y0023811D01*
X0165880Y0023815D01*
X0165698Y0023855D01*
X0165527Y0023930D01*
X0165374Y0024036D01*
X0165245Y0024170D01*
X0165144Y0024327D01*
X0165075Y0024500D01*
X0165042Y0024683D01*
X0165044Y0024869D01*
X0165083Y0025052D01*
X0165156Y0025223D01*
X0165262Y0025377D01*
X0165395Y0025507D01*
X0165551Y0025609D01*
X0165723Y0025679D01*
X0165906Y0025714D01*
X0166093Y0025712D01*
X0166093Y0025712D01*
G37*
G36*
X0145384Y0025966D02*
X0145566Y0025929D01*
X0145738Y0025857D01*
X0145892Y0025753D01*
X0146024Y0025620D01*
X0146127Y0025465D01*
X0146198Y0025293D01*
X0146234Y0025111D01*
X0146234Y0025111D01*
X0146234Y0025110D01*
X0146231Y0024897D01*
X0146231Y0024897D01*
X0146231Y0024897D01*
X0146190Y0024716D01*
X0146114Y0024545D01*
X0146007Y0024393D01*
X0145872Y0024265D01*
X0145714Y0024165D01*
X0145541Y0024098D01*
X0145357Y0024065D01*
X0145171Y0024069D01*
X0144989Y0024109D01*
X0144818Y0024184D01*
X0144665Y0024290D01*
X0144536Y0024424D01*
X0144435Y0024581D01*
X0144366Y0024754D01*
X0144333Y0024937D01*
X0144335Y0025123D01*
X0144374Y0025306D01*
X0144447Y0025477D01*
X0144553Y0025631D01*
X0144686Y0025761D01*
X0144842Y0025863D01*
X0145014Y0025933D01*
X0145197Y0025968D01*
X0145384Y0025966D01*
X0145384Y0025966D01*
G37*
G36*
X0175327Y0028392D02*
X0175683Y0028319D01*
X0176017Y0028178D01*
X0176318Y0027975D01*
X0176574Y0027718D01*
X0176774Y0027416D01*
X0176913Y0027080D01*
X0176983Y0026725D01*
X0176983Y0026725D01*
X0176983Y0026724D01*
X0176977Y0026310D01*
X0176977Y0026309D01*
X0176977Y0026309D01*
X0176897Y0025956D01*
X0176749Y0025625D01*
X0176540Y0025328D01*
X0176277Y0025078D01*
X0175971Y0024884D01*
X0175633Y0024753D01*
X0175276Y0024690D01*
X0174913Y0024697D01*
X0174559Y0024775D01*
X0174226Y0024920D01*
X0173928Y0025127D01*
X0173676Y0025388D01*
X0173480Y0025693D01*
X0173346Y0026031D01*
X0173281Y0026387D01*
X0173286Y0026750D01*
X0173361Y0027105D01*
X0173504Y0027439D01*
X0173709Y0027738D01*
X0173968Y0027992D01*
X0174272Y0028190D01*
X0174608Y0028326D01*
X0174965Y0028394D01*
X0175327Y0028392D01*
X0175327Y0028392D01*
G37*
G36*
X0136338Y0028646D02*
X0136694Y0028573D01*
X0137028Y0028432D01*
X0137329Y0028229D01*
X0137585Y0027972D01*
X0137785Y0027670D01*
X0137924Y0027334D01*
X0137994Y0026979D01*
X0137994Y0026979D01*
X0137994Y0026978D01*
X0137988Y0026564D01*
X0137988Y0026563D01*
X0137988Y0026563D01*
X0137908Y0026210D01*
X0137760Y0025879D01*
X0137551Y0025582D01*
X0137288Y0025332D01*
X0136982Y0025138D01*
X0136644Y0025007D01*
X0136287Y0024944D01*
X0135924Y0024951D01*
X0135570Y0025029D01*
X0135237Y0025174D01*
X0134939Y0025381D01*
X0134687Y0025642D01*
X0134491Y0025947D01*
X0134357Y0026285D01*
X0134292Y0026641D01*
X0134297Y0027004D01*
X0134372Y0027359D01*
X0134515Y0027693D01*
X0134720Y0027992D01*
X0134979Y0028246D01*
X0135283Y0028444D01*
X0135619Y0028580D01*
X0135976Y0028648D01*
X0136338Y0028646D01*
X0136338Y0028646D01*
G37*
G36*
X0166093Y0028002D02*
X0166275Y0027965D01*
X0166447Y0027893D01*
X0166601Y0027789D01*
X0166733Y0027656D01*
X0166836Y0027501D01*
X0166907Y0027329D01*
X0166943Y0027147D01*
X0166943Y0027147D01*
X0166943Y0027146D01*
X0166940Y0026933D01*
X0166940Y0026933D01*
X0166940Y0026933D01*
X0166899Y0026752D01*
X0166823Y0026581D01*
X0166716Y0026429D01*
X0166581Y0026301D01*
X0166423Y0026201D01*
X0166250Y0026134D01*
X0166066Y0026101D01*
X0165880Y0026105D01*
X0165698Y0026145D01*
X0165527Y0026220D01*
X0165374Y0026326D01*
X0165245Y0026460D01*
X0165144Y0026617D01*
X0165075Y0026790D01*
X0165042Y0026973D01*
X0165044Y0027159D01*
X0165083Y0027342D01*
X0165156Y0027513D01*
X0165262Y0027667D01*
X0165395Y0027797D01*
X0165551Y0027899D01*
X0165723Y0027969D01*
X0165906Y0028004D01*
X0166093Y0028002D01*
X0166093Y0028002D01*
G37*
G36*
X0145384Y0028256D02*
X0145566Y0028219D01*
X0145738Y0028147D01*
X0145892Y0028043D01*
X0146024Y0027910D01*
X0146127Y0027755D01*
X0146198Y0027583D01*
X0146234Y0027401D01*
X0146234Y0027401D01*
X0146234Y0027400D01*
X0146231Y0027187D01*
X0146231Y0027187D01*
X0146231Y0027187D01*
X0146190Y0027006D01*
X0146114Y0026835D01*
X0146007Y0026683D01*
X0145872Y0026555D01*
X0145714Y0026455D01*
X0145541Y0026388D01*
X0145357Y0026355D01*
X0145171Y0026359D01*
X0144989Y0026399D01*
X0144818Y0026474D01*
X0144665Y0026580D01*
X0144536Y0026714D01*
X0144435Y0026871D01*
X0144366Y0027044D01*
X0144333Y0027227D01*
X0144335Y0027413D01*
X0144374Y0027596D01*
X0144447Y0027767D01*
X0144553Y0027921D01*
X0144686Y0028051D01*
X0144842Y0028153D01*
X0145014Y0028223D01*
X0145197Y0028258D01*
X0145384Y0028256D01*
X0145384Y0028256D01*
G37*
G36*
X0171845Y0029672D02*
X0172104Y0029619D01*
X0172348Y0029516D01*
X0172568Y0029368D01*
X0172754Y0029180D01*
X0172901Y0028960D01*
X0173002Y0028715D01*
X0173053Y0028456D01*
X0173053Y0028456D01*
X0173053Y0028455D01*
X0173049Y0028153D01*
X0173049Y0028152D01*
X0173049Y0028152D01*
X0172990Y0027895D01*
X0172883Y0027653D01*
X0172730Y0027437D01*
X0172538Y0027254D01*
X0172315Y0027112D01*
X0172068Y0027016D01*
X0171807Y0026970D01*
X0171542Y0026976D01*
X0171284Y0027033D01*
X0171041Y0027139D01*
X0170824Y0027290D01*
X0170640Y0027480D01*
X0170496Y0027703D01*
X0170399Y0027949D01*
X0170351Y0028209D01*
X0170355Y0028474D01*
X0170410Y0028733D01*
X0170514Y0028977D01*
X0170664Y0029195D01*
X0170853Y0029380D01*
X0171075Y0029525D01*
X0171320Y0029624D01*
X0171580Y0029674D01*
X0171845Y0029672D01*
X0171845Y0029672D01*
G37*
G36*
X0139716Y0029926D02*
X0139975Y0029873D01*
X0140219Y0029770D01*
X0140439Y0029622D01*
X0140625Y0029434D01*
X0140772Y0029214D01*
X0140873Y0028969D01*
X0140924Y0028710D01*
X0140924Y0028710D01*
X0140924Y0028709D01*
X0140920Y0028407D01*
X0140920Y0028406D01*
X0140920Y0028406D01*
X0140861Y0028149D01*
X0140754Y0027907D01*
X0140601Y0027691D01*
X0140409Y0027508D01*
X0140186Y0027366D01*
X0139939Y0027270D01*
X0139678Y0027224D01*
X0139413Y0027230D01*
X0139155Y0027287D01*
X0138912Y0027393D01*
X0138695Y0027544D01*
X0138511Y0027734D01*
X0138367Y0027957D01*
X0138270Y0028203D01*
X0138222Y0028463D01*
X0138226Y0028728D01*
X0138281Y0028987D01*
X0138385Y0029231D01*
X0138535Y0029449D01*
X0138724Y0029634D01*
X0138946Y0029779D01*
X0139191Y0029878D01*
X0139451Y0029928D01*
X0139716Y0029926D01*
X0139716Y0029926D01*
G37*
G36*
X0155357Y0033172D02*
X0155655Y0033111D01*
X0155935Y0032993D01*
X0156187Y0032823D01*
X0156401Y0032607D01*
X0156569Y0032354D01*
X0156685Y0032073D01*
X0156744Y0031776D01*
X0156744Y0031776D01*
X0156744Y0031775D01*
X0156739Y0031428D01*
X0156739Y0031427D01*
X0156739Y0031427D01*
X0156672Y0031131D01*
X0156548Y0030854D01*
X0156373Y0030605D01*
X0156153Y0030396D01*
X0155896Y0030233D01*
X0155613Y0030123D01*
X0155313Y0030070D01*
X0155010Y0030076D01*
X0154713Y0030142D01*
X0154434Y0030263D01*
X0154185Y0030437D01*
X0153973Y0030656D01*
X0153809Y0030911D01*
X0153697Y0031194D01*
X0153642Y0031493D01*
X0153646Y0031797D01*
X0153709Y0032094D01*
X0153829Y0032373D01*
X0154001Y0032624D01*
X0154218Y0032837D01*
X0154472Y0033003D01*
X0154754Y0033117D01*
X0155053Y0033174D01*
X0155357Y0033172D01*
X0155357Y0033172D01*
G37*
G36*
X0160437Y0033172D02*
X0160735Y0033111D01*
X0161015Y0032993D01*
X0161267Y0032823D01*
X0161481Y0032607D01*
X0161649Y0032354D01*
X0161765Y0032073D01*
X0161824Y0031776D01*
X0161824Y0031776D01*
X0161824Y0031775D01*
X0161819Y0031428D01*
X0161819Y0031427D01*
X0161819Y0031427D01*
X0161752Y0031131D01*
X0161628Y0030854D01*
X0161453Y0030605D01*
X0161233Y0030396D01*
X0160976Y0030233D01*
X0160693Y0030123D01*
X0160393Y0030070D01*
X0160090Y0030076D01*
X0159793Y0030142D01*
X0159514Y0030263D01*
X0159265Y0030437D01*
X0159053Y0030656D01*
X0158889Y0030911D01*
X0158777Y0031194D01*
X0158722Y0031493D01*
X0158726Y0031797D01*
X0158789Y0032094D01*
X0158909Y0032373D01*
X0159081Y0032624D01*
X0159298Y0032837D01*
X0159552Y0033003D01*
X0159834Y0033117D01*
X0160133Y0033174D01*
X0160437Y0033172D01*
X0160437Y0033172D01*
G37*
G36*
X0176358Y0038504D02*
X0176973Y0038378D01*
X0177551Y0038135D01*
X0178072Y0037784D01*
X0178514Y0037338D01*
X0178861Y0036816D01*
X0179100Y0036235D01*
X0179222Y0035620D01*
X0179222Y0035620D01*
X0179222Y0035620D01*
X0179212Y0034903D01*
X0179212Y0034902D01*
X0179212Y0034902D01*
X0179073Y0034291D01*
X0178818Y0033718D01*
X0178456Y0033205D01*
X0178002Y0032772D01*
X0177472Y0032436D01*
X0176887Y0032209D01*
X0176269Y0032100D01*
X0175641Y0032113D01*
X0175028Y0032248D01*
X0174453Y0032499D01*
X0173938Y0032857D01*
X0173502Y0033309D01*
X0173162Y0033836D01*
X0172931Y0034420D01*
X0172818Y0035037D01*
X0172827Y0035664D01*
X0172957Y0036278D01*
X0173204Y0036855D01*
X0173559Y0037373D01*
X0174007Y0037812D01*
X0174532Y0038156D01*
X0175114Y0038391D01*
X0175731Y0038508D01*
X0176358Y0038504D01*
X0176358Y0038504D01*
G37*
G36*
X0135718Y0038504D02*
X0136333Y0038378D01*
X0136911Y0038135D01*
X0137432Y0037784D01*
X0137874Y0037338D01*
X0138221Y0036816D01*
X0138460Y0036235D01*
X0138582Y0035620D01*
X0138582Y0035620D01*
X0138582Y0035620D01*
X0138572Y0034903D01*
X0138572Y0034902D01*
X0138572Y0034902D01*
X0138433Y0034291D01*
X0138178Y0033718D01*
X0137816Y0033205D01*
X0137362Y0032772D01*
X0136832Y0032436D01*
X0136247Y0032209D01*
X0135629Y0032100D01*
X0135001Y0032113D01*
X0134388Y0032248D01*
X0133813Y0032499D01*
X0133298Y0032857D01*
X0132862Y0033309D01*
X0132522Y0033836D01*
X0132291Y0034420D01*
X0132178Y0035037D01*
X0132187Y0035664D01*
X0132317Y0036278D01*
X0132564Y0036855D01*
X0132919Y0037373D01*
X0133367Y0037812D01*
X0133892Y0038156D01*
X0134474Y0038391D01*
X0135091Y0038508D01*
X0135718Y0038504D01*
X0135718Y0038504D01*
G37*
G36*
X0157886Y0035612D02*
X0158165Y0035555D01*
X0158427Y0035445D01*
X0158663Y0035286D01*
X0158863Y0035084D01*
X0159020Y0034847D01*
X0159129Y0034584D01*
X0159184Y0034306D01*
X0159184Y0034306D01*
X0159184Y0034305D01*
X0159180Y0033980D01*
X0159179Y0033980D01*
X0159179Y0033980D01*
X0159117Y0033703D01*
X0159001Y0033443D01*
X0158837Y0033211D01*
X0158631Y0033015D01*
X0158391Y0032862D01*
X0158126Y0032760D01*
X0157846Y0032710D01*
X0157561Y0032716D01*
X0157284Y0032777D01*
X0157023Y0032891D01*
X0156790Y0033053D01*
X0156592Y0033258D01*
X0156438Y0033497D01*
X0156333Y0033761D01*
X0156282Y0034041D01*
X0156286Y0034325D01*
X0156345Y0034604D01*
X0156457Y0034865D01*
X0156618Y0035100D01*
X0156821Y0035299D01*
X0157059Y0035454D01*
X0157323Y0035561D01*
X0157602Y0035614D01*
X0157886Y0035612D01*
X0157886Y0035612D01*
G37*
G36*
X0149298Y0032947D02*
X0147374Y0032947D01*
X0147374Y0034871D01*
X0149298Y0034871D01*
X0149298Y0032947D01*
X0149298Y0032947D01*
G37*
G36*
X0144218Y0032947D02*
X0142294Y0032947D01*
X0142294Y0034871D01*
X0144218Y0034871D01*
X0144218Y0032947D01*
X0144218Y0032947D01*
G37*
G36*
X0146758Y0032947D02*
X0144834Y0032947D01*
X0144834Y0034871D01*
X0146758Y0034871D01*
X0146758Y0032947D01*
X0146758Y0032947D01*
G37*
G36*
X0160437Y0038252D02*
X0160735Y0038191D01*
X0161015Y0038073D01*
X0161267Y0037903D01*
X0161481Y0037687D01*
X0161649Y0037434D01*
X0161765Y0037153D01*
X0161824Y0036856D01*
X0161824Y0036856D01*
X0161824Y0036855D01*
X0161819Y0036508D01*
X0161819Y0036507D01*
X0161819Y0036507D01*
X0161752Y0036211D01*
X0161628Y0035934D01*
X0161453Y0035685D01*
X0161233Y0035476D01*
X0160976Y0035313D01*
X0160693Y0035203D01*
X0160393Y0035150D01*
X0160090Y0035156D01*
X0159793Y0035222D01*
X0159514Y0035343D01*
X0159265Y0035517D01*
X0159053Y0035736D01*
X0158889Y0035991D01*
X0158777Y0036274D01*
X0158722Y0036573D01*
X0158726Y0036877D01*
X0158789Y0037174D01*
X0158909Y0037453D01*
X0159081Y0037704D01*
X0159298Y0037917D01*
X0159552Y0038083D01*
X0159834Y0038197D01*
X0160133Y0038254D01*
X0160437Y0038252D01*
X0160437Y0038252D01*
G37*
G36*
X0155357Y0038252D02*
X0155655Y0038191D01*
X0155935Y0038073D01*
X0156187Y0037903D01*
X0156401Y0037687D01*
X0156569Y0037434D01*
X0156685Y0037153D01*
X0156744Y0036856D01*
X0156744Y0036856D01*
X0156744Y0036855D01*
X0156739Y0036508D01*
X0156739Y0036507D01*
X0156739Y0036507D01*
X0156672Y0036211D01*
X0156548Y0035934D01*
X0156373Y0035685D01*
X0156153Y0035476D01*
X0155896Y0035313D01*
X0155613Y0035203D01*
X0155313Y0035150D01*
X0155010Y0035156D01*
X0154713Y0035222D01*
X0154434Y0035343D01*
X0154185Y0035517D01*
X0153973Y0035736D01*
X0153809Y0035991D01*
X0153697Y0036274D01*
X0153642Y0036573D01*
X0153646Y0036877D01*
X0153709Y0037174D01*
X0153829Y0037453D01*
X0154001Y0037704D01*
X0154218Y0037917D01*
X0154472Y0038083D01*
X0154754Y0038197D01*
X0155053Y0038254D01*
X0155357Y0038252D01*
X0155357Y0038252D01*
G37*
G36*
X0144218Y0035487D02*
X0142294Y0035487D01*
X0142294Y0037411D01*
X0144218Y0037411D01*
X0144218Y0035487D01*
X0144218Y0035487D01*
G37*
G36*
X0146758Y0035487D02*
X0144834Y0035487D01*
X0144834Y0037411D01*
X0146758Y0037411D01*
X0146758Y0035487D01*
X0146758Y0035487D01*
G37*
G36*
X0149298Y0035487D02*
X0147374Y0035487D01*
X0147374Y0037411D01*
X0149298Y0037411D01*
X0149298Y0035487D01*
X0149298Y0035487D01*
G37*
M02*
