M48
METRIC,000.000             
%
T01C0.400000
X9652Y12954
X9652Y11938
X9652Y10922
X9652Y9652
X9652Y8382
X9652Y7366
X9652Y6096
X9652Y5080
X9652Y2286
X9906Y17272
X9906Y15748
X9906Y14478
X10668Y12954
X10668Y2286
X11684Y12954
X11684Y2286
X12700Y12954
X12700Y2286
X13716Y12954
X13716Y2286
X23114Y12700
X23622Y16002
X23622Y14986
X23622Y13970
X24384Y12700
X24638Y16002
X24638Y14986
X24638Y13970
X25654Y16002
X25654Y14986
X25654Y13970
X25654Y12700
X26670Y16002
X26670Y14986
X26670Y13970
X26924Y12700
X28194Y12700
X36322Y13208
X37084Y35306
X37084Y34290
X37084Y33274
X37084Y32258
X37084Y31242
X37084Y30226
X37084Y29210
X37084Y27940
X37592Y13208
X37846Y27432
X37846Y26416
X38862Y13208
X39116Y27432
X39116Y26416
X39878Y13208
X40386Y27432
X40386Y26416
X41402Y27432
X41402Y26416
X41402Y13208
X41402Y11684
X41402Y10668
X41402Y9652
X41402Y8636
X41402Y7620
X41402Y6350
X41402Y5080
X47752Y27686
X47752Y26670
X48514Y25654
X48768Y27686
X48768Y26670
X49530Y25654
X49784Y27686
X49784Y26670
X50546Y25654
X50800Y27686
X50800Y26670
X51562Y25654
X51816Y27686
X51816Y26670
X53594Y7874
X53594Y6604
X53594Y5080
X53594Y4064
X53594Y3048
X53594Y1778
X54610Y7874
X54610Y6604
X54610Y5080
X54610Y4064
X54610Y3048
X54610Y1778
X55880Y7874
X55880Y1778
X56896Y7874
X56896Y1778
X57912Y7874
X58420Y17272
X59690Y18542
X59944Y16764
X60198Y36576
X60198Y33782
X60198Y31496
X60198Y28956
X60960Y17780
X60960Y16002
X61976Y16764
X61976Y14986
X62992Y15748
X62992Y13970
X63754Y14732
X71374Y36576
X71374Y34036
X71628Y31496
X71628Y28956
X9652Y53086
X9652Y52070
X9652Y51054
X9652Y49784
X9652Y48514
X9652Y47498
X9652Y46228
X9652Y45212
X9652Y42418
X9906Y57404
X9906Y55880
X9906Y54610
X10668Y53086
X10668Y42418
X11684Y53086
X11684Y42418
X12700Y53086
X12700Y42418
X13716Y53086
X13716Y42418
X23114Y52832
X23622Y56134
X23622Y55118
X23622Y54102
X24384Y52832
X24638Y56134
X24638Y55118
X24638Y54102
X25654Y56134
X25654Y55118
X25654Y54102
X25654Y52832
X26670Y56134
X26670Y55118
X26670Y54102
X26924Y52832
X28194Y52832
X36322Y53340
X37084Y75438
X37084Y74422
X37084Y73406
X37084Y72390
X37084Y71374
X37084Y70358
X37084Y69342
X37084Y68072
X37592Y53340
X37846Y67564
X37846Y66548
X38862Y53340
X39116Y67564
X39116Y66548
X39878Y53340
X40386Y67564
X40386Y66548
X41402Y67564
X41402Y66548
X41402Y53340
X41402Y51816
X41402Y50800
X41402Y49784
X41402Y48768
X41402Y47752
X41402Y46482
X41402Y45212
X47752Y67818
X47752Y66802
X48514Y65786
X48768Y67818
X48768Y66802
X49530Y65786
X49784Y67818
X49784Y66802
X50546Y65786
X50800Y67818
X50800Y66802
X51562Y65786
X51816Y67818
X51816Y66802
X53594Y48006
X53594Y46736
X53594Y45212
X53594Y44196
X53594Y43180
X53594Y41910
X54610Y48006
X54610Y46736
X54610Y45212
X54610Y44196
X54610Y43180
X54610Y41910
X55880Y48006
X55880Y41910
X56896Y48006
X56896Y41910
X57912Y48006
X58420Y57404
X59690Y58674
X59944Y56896
X60198Y76708
X60198Y73914
X60198Y71628
X60198Y69088
X60960Y57912
X60960Y56134
X61976Y56896
X61976Y55118
X62992Y55880
X62992Y54102
X63754Y54864
X71374Y76708
X71374Y74168
X71628Y71628
X71628Y69088
X82804Y20320
X82804Y19304
X82804Y18288
X82804Y17272
X82804Y16256
X83820Y20320
X83820Y19304
X83820Y18288
X83820Y17272
X83820Y16256
X84836Y20320
X84836Y19304
X84836Y18288
X84836Y17272
X84836Y16256
X85852Y20320
X85852Y19304
X85852Y18288
X85852Y17272
X85852Y16256
X89408Y30480
X89408Y29210
X89408Y27940
X89408Y31750
X90424Y31750
X90424Y30480
X90424Y29210
X90424Y27940
X91186Y38354
X91694Y32766
X91694Y14986
X91694Y13970
X91694Y12954
X91694Y11938
X92202Y38354
X92710Y12954
X92710Y32766
X92710Y14986
X92710Y13970
X93218Y38354
X93726Y32740
X93726Y14224
X93726Y12954
X94234Y38354
X94488Y13462
X94742Y32766
X95250Y38354
X95250Y12700
X97536Y2286
X97790Y12954
X97790Y7620
X98806Y12954
X98806Y7620
X98806Y2286
X99822Y12954
X100076Y7620
X100076Y2286
X100838Y12954
X101092Y7620
X101092Y2286
X101854Y38354
X101854Y32766
X102870Y38354
X102870Y32766
X103886Y38354
X103886Y32766
X104902Y38354
X104902Y32766
X107950Y7620
X107950Y2286
X108204Y14478
X108204Y13208
X108966Y7620
X109220Y14478
X109220Y13208
X109220Y2286
X110236Y14478
X110236Y13208
X110236Y7620
X110490Y2286
X111506Y7620
X111506Y2286
X111760Y27432
X112268Y28956
X112776Y27432
X113538Y31496
X115824Y20066
X117094Y20066
X118364Y20066
X119126Y30988
X119126Y29718
X119126Y28194
X119126Y22098
X119126Y20828
X82804Y60452
X82804Y59436
X82804Y58420
X82804Y57404
X82804Y56388
X83820Y60452
X83820Y59436
X83820Y58420
X83820Y57404
X83820Y56388
X84836Y60452
X84836Y59436
X84836Y58420
X84836Y57404
X84836Y56388
X85852Y60452
X85852Y59436
X85852Y58420
X85852Y57404
X85852Y56388
X89408Y70612
X89408Y69342
X89408Y68072
X89408Y71882
X90424Y71882
X90424Y70612
X90424Y69342
X90424Y68072
X91186Y78486
X91694Y72898
X91694Y55118
X91694Y54102
X91694Y53086
X91694Y52070
X92202Y78486
X92710Y53086
X92710Y72898
X92710Y55118
X92710Y54102
X93218Y78486
X93726Y72872
X93726Y54356
X93726Y53086
X94234Y78486
X94488Y53594
X94742Y72898
X95250Y78486
X95250Y52832
X97536Y42418
X97790Y53086
X97790Y47752
X98806Y53086
X98806Y47752
X98806Y42418
X99822Y53086
X100076Y47752
X100076Y42418
X100838Y53086
X101092Y47752
X101092Y42418
X101854Y78486
X101854Y72898
X102870Y78486
X102870Y72898
X103886Y78486
X103886Y72898
X104902Y78486
X104902Y72898
X107950Y47752
X107950Y42418
X108204Y54610
X108204Y53340
X108966Y47752
X109220Y54610
X109220Y53340
X109220Y42418
X110236Y54610
X110236Y53340
X110236Y47752
X110490Y42418
X111506Y47752
X111506Y42418
X111760Y67564
X112268Y69088
X112776Y67564
X113538Y71628
X115824Y60198
X117094Y60198
X118364Y60198
X119126Y71120
X119126Y69850
X119126Y68326
X119126Y62230
X119126Y60960
T02C0.889000
X55372Y18288
X61976Y36576
X61976Y34036
X61976Y31496
X61976Y28956
X64516Y36576
X64516Y34036
X64516Y31496
X64516Y28956
X67056Y36576
X67056Y34036
X67056Y31496
X67056Y28956
X69596Y36576
X69596Y34036
X69596Y31496
X69596Y28956
X55372Y58420
X61976Y76708
X61976Y74168
X61976Y71628
X61976Y69088
X64516Y76708
X64516Y74168
X64516Y71628
X64516Y69088
X67056Y76708
X67056Y74168
X67056Y71628
X67056Y69088
X69596Y76708
X69596Y74168
X69596Y71628
X69596Y69088
X114681Y29718
X114681Y27178
X114681Y24638
X114681Y22098
X117221Y29718
X117221Y27178
X117221Y24638
X117221Y22098
X114681Y69850
X114681Y67310
X114681Y64770
X114681Y62230
X117221Y69850
X117221Y67310
X117221Y64770
X117221Y62230
T03C1.300000
X12446Y10160
X12446Y5160
X17526Y10160
X17526Y5160
X33528Y10160
X33528Y5160
X38608Y10160
X38608Y5160
X39751Y35226
X39751Y30226
X44704Y35226
X44704Y30226
X44958Y9398
X44958Y4398
X49657Y35226
X49657Y30226
X50038Y9398
X50038Y4398
X54610Y35226
X54610Y30226
X12446Y50292
X12446Y45292
X17526Y50292
X17526Y45292
X33528Y50292
X33528Y45292
X38608Y50292
X38608Y45292
X39751Y75358
X39751Y70358
X44704Y75358
X44704Y70358
X44958Y49530
X44958Y44530
X49657Y75358
X49657Y70358
X50038Y49530
X50038Y44530
X54610Y75358
X54610Y70358
X93345Y35226
X93345Y30226
X94361Y10160
X94361Y5160
X98425Y35226
X98425Y30226
X99441Y10160
X99441Y5160
X103505Y35226
X103505Y30226
X104521Y10160
X104521Y5160
X108585Y35226
X108585Y30226
X109601Y10160
X109601Y5160
X93345Y75358
X93345Y70358
X94361Y50292
X94361Y45292
X98425Y75358
X98425Y70358
X99441Y50292
X99441Y45292
X103505Y75358
X103505Y70358
X104521Y50292
X104521Y45292
X108585Y75358
X108585Y70358
X109601Y50292
X109601Y45292
T04C2.300000
X67056Y12066
X67056Y7366
X67056Y2666
X67056Y52198
X67056Y47498
X67056Y42798
T05C2.800000
X50546Y13970
X50546Y7770
X55546Y10870
X50546Y54102
X50546Y47902
X55546Y51002
T06C3.000000
X4826Y35306
X4826Y4826
X75946Y35306
X75946Y4826
X4826Y75438
X4826Y44958
X75946Y75438
X75946Y44958
X85598Y35306
X85598Y4826
X116078Y35306
X116078Y4826
X85598Y75438
X85598Y44958
X116078Y75438
X116078Y44958
M30
