M48
METRIC,000.000             
%
T01C0.400000
X5334Y24130
X5334Y22860
X5334Y21590
X5334Y20320
X5334Y19050
X5334Y17780
X5334Y16510
X5842Y15494
X6858Y24638
X7112Y15494
X8128Y24638
X8382Y15494
X9398Y24638
X9652Y15494
X10668Y24638
X10922Y15494
X11938Y24638
X12192Y15494
X13208Y24638
X13462Y15494
X14478Y30734
X14478Y29464
X14478Y28194
X14478Y27178
X14478Y25908
X14478Y24638
X14478Y23368
X14732Y18288
X14732Y17272
X14732Y16002
X15494Y26416
X16002Y30734
X16002Y18288
X16764Y26416
X17272Y30734
X17272Y18288
X18034Y26416
X18542Y30734
X18542Y18288
X19304Y26416
X19812Y32766
X19812Y31496
X19812Y27432
X19812Y18288
X20066Y25654
X20066Y24384
X20066Y23114
X20066Y21844
X20066Y17018
X20574Y28194
X21082Y32766
X21336Y21844
X21336Y16764
X21844Y28194
X22352Y32766
X22606Y21844
X22606Y16764
X23114Y28194
X23622Y32766
X23876Y16764
X24130Y23114
X24130Y21844
X24384Y28194
X24892Y32766
X24892Y23876
X25146Y16764
X25400Y18034
X25654Y31496
X25654Y28194
X26162Y23876
X26670Y18034
X26924Y28194
X27178Y32766
X27178Y27178
X27178Y31496
X27432Y23876
X27940Y18034
X28194Y17018
X28448Y27178
X28702Y23876
X28956Y22606
X28956Y21336
X29210Y16764
X29718Y27178
X30226Y21336
X30226Y16764
X30734Y32766
X30734Y31496
X30988Y27686
X31496Y21336
X31496Y16764
X32004Y32766
X32004Y31496
X32004Y27686
X32004Y22352
X32258Y23622
X32512Y26670
X32512Y16764
X33274Y23622
X33274Y18542
X33274Y17526
X33782Y26670
X34544Y23622
X34544Y18542
X35052Y26670
X35560Y18542
X35560Y17526
X35814Y23622
X36068Y27940
X36068Y26924
X36068Y16510
X36322Y34036
X36322Y32766
X36576Y22860
X36576Y21590
X37338Y27940
X37338Y16510
X37592Y32512
X37592Y21336
X38608Y27940
X38608Y16510
X38862Y32512
X38862Y21336
X39878Y27940
X39878Y16510
X40132Y32512
X40132Y21844
X40640Y26162
X40640Y24638
X40640Y23114
X40894Y27940
X40894Y18288
X40894Y17272
X41402Y32512
X41402Y31496
X41402Y21844
X41656Y27432
X41910Y26416
X42164Y30734
X42164Y18288
X42672Y21844
X43180Y26416
X43434Y30734
X43434Y18288
X44704Y30734
X44704Y26416
X44704Y18288
X45974Y26162
X45974Y18288
X45974Y17018
X45974Y15748
X46228Y30734
X46228Y29464
X46228Y28194
X46228Y27178
X46482Y25146
X46482Y24130
X46990Y14986
X47752Y24892
X48260Y14986
X49022Y24892
X49530Y14986
X50292Y24892
X50800Y14986
X51562Y24892
X52070Y14986
X52832Y24892
X53340Y14986
X54102Y24892
X54610Y14986
X55118Y24384
X55372Y23368
X55372Y22098
X55372Y20828
X55372Y19558
X55372Y18288
X55372Y17018
X55372Y15748
X62357Y29845
X62357Y28829
X62357Y27686
X62357Y26670
X62484Y30988
X62738Y15621
X62738Y14478
X62738Y13335
X62738Y12319
X62738Y11303
X63373Y26670
X63627Y15875
X63627Y10668
X63754Y25146
X63754Y24130
X63754Y23114
X63881Y30988
X64008Y21717
X64389Y26035
X64516Y27051
X64643Y15875
X64770Y10668
X65024Y21590
X65151Y30988
X65532Y27051
X65786Y15875
X65913Y10668
X66294Y21590
X66421Y30988
X66421Y29972
X66421Y28956
X66548Y27940
X66548Y26924
X66802Y15875
X67183Y10668
X67437Y23749
X67437Y22733
X67437Y21590
X67818Y15113
X67818Y14097
X67818Y13081
X67818Y12065
X68326Y10795
X68580Y15875
X69469Y10795
X69596Y15875
X70612Y15875
X70612Y10795
X71628Y15875
X71755Y10795
X72644Y15875
X72771Y14859
X72771Y13843
X72771Y12700
X72771Y11557
X73660Y18542
X74676Y18542
X75819Y19812
X75819Y18923
X76932Y20335
X76932Y19035
X77724Y27432
X78232Y20335
X78232Y19035
X78359Y26797
X78867Y26035
X78867Y25146
X78867Y24257
X79532Y20335
X79532Y19035
X80772Y20447
X80772Y19558
X80772Y18669
X81153Y17780
X81153Y16764
X81661Y20828
X81788Y19812
X81788Y18796
X82042Y17907
X82169Y21844
X82169Y16764
X82677Y20955
X82804Y19939
X82804Y18796
X83058Y18034
X83185Y17018
X132588Y29972
X135128Y29972
X136652Y23368
X136652Y21590
X136652Y20066
X136652Y18542
X136906Y29972
X144018Y9144
X144018Y7620
X144018Y6096
X144018Y4064
X148336Y27940
X148336Y26670
X149098Y28956
X150114Y29718
X152400Y4572
X153924Y4572
X154686Y14732
X155448Y4572
X156210Y22860
X156464Y14732
X156972Y4572
X158496Y4572
X158750Y21971
X161417Y21082
X163703Y19939
X166497Y20828
X166624Y9652
X166624Y8636
X167132Y32512
X167894Y9652
X167894Y8636
X168402Y32512
X168402Y25654
X168402Y21717
X169164Y9652
X169164Y8636
X169672Y32512
X169672Y24638
X170434Y9652
X170434Y8636
X170942Y32512
X176530Y23114
X176530Y21590
X176530Y20066
X176530Y18288
X176530Y17018
T02C0.800000
X65826Y25527
X68326Y25527
T03C0.889000
X73025Y6096
X73025Y3556
X75565Y6096
X75565Y3556
X78105Y6096
X78105Y3556
X84201Y28067
X84201Y25527
X86741Y28067
X86741Y25527
X93980Y29464
X93980Y26924
X93980Y24384
X93980Y21844
X93980Y18288
X93980Y15748
X93980Y13208
X93980Y10668
X96520Y29464
X96520Y26924
X96520Y24384
X96520Y21844
X96520Y18288
X96520Y15748
X96520Y13208
X96520Y10668
X114046Y31496
X114046Y28956
X114046Y11684
X114046Y9144
X116586Y31496
X116586Y28956
X116586Y11684
X116586Y9144
X125476Y29464
X125476Y26924
X125476Y24384
X125476Y21844
X125476Y18288
X125476Y15748
X125476Y13208
X125476Y10668
X128016Y29464
X128016Y26924
X128016Y24384
X128016Y21844
X128016Y18288
X128016Y15748
X128016Y13208
X128016Y10668
X143256Y36449
X143256Y33909
X145796Y36449
X145796Y33909
X148336Y36449
X148336Y33909
T04C0.930000
X138684Y22987
X138684Y20957
X138684Y18927
X138684Y16897
X140464Y24007
X140464Y21977
X140464Y19947
X140464Y17917
X145284Y27307
X145284Y25017
X145284Y15877
X145284Y13587
X148461Y14728
X150751Y14728
X151761Y9908
X152781Y8128
X153791Y9908
X154811Y8128
X155821Y9908
X156841Y8128
X157851Y9908
X158871Y8128
X159891Y14728
X162181Y14728
X165993Y27053
X165993Y24763
X165993Y15623
X165993Y13333
X170813Y22723
X170813Y20693
X170813Y18663
X170813Y16633
X172593Y23743
X172593Y21713
X172593Y19683
X172593Y17653
T05C1.300000
X65358Y18542
X65358Y13462
X70358Y18542
X70358Y13462
X73533Y35099
X73533Y30099
X78613Y35099
X78613Y30099
T06C1.500000
X9906Y20066
X50546Y20066
X157734Y34163
T07C1.650000
X139574Y28577
X139574Y12317
X147191Y9018
X163451Y9018
X171703Y28323
X171703Y12063
T08C1.700000
X7366Y22606
X7366Y17526
X12446Y22606
X12446Y17526
X48006Y22606
X48006Y17526
X53086Y22606
X53086Y17526
X155194Y36703
X155194Y31623
X160274Y36703
X160274Y31623
T09C3.000000
X4826Y35306
X4826Y4826
X55626Y35306
X55626Y4826
X65278Y35306
X65278Y4826
X85598Y35306
X85598Y4826
X95250Y35306
X95250Y4826
X125730Y35306
X125730Y4826
X135382Y35306
X135382Y4826
X176022Y35306
X176022Y4826
M30
