G75*
G71*
%MOMM*%
%OFA0B0*%
%FSLAX53Y53*%
%IPPOS*%
%LPD*%
%ADD43C,0.10000*%
X0000000Y0000000D02*
%LPD*%
G01*
D43*
G36*
X0005267Y0009023D02*
X0006074Y0008858D01*
X0006833Y0008538D01*
X0007516Y0008078D01*
X0008097Y0007493D01*
X0008552Y0006807D01*
X0008866Y0006046D01*
X0009026Y0005239D01*
X0009026Y0005238D01*
X0009026Y0005238D01*
X0009013Y0004297D01*
X0009013Y0004296D01*
X0009013Y0004296D01*
X0008831Y0003494D01*
X0008496Y0002741D01*
X0008021Y0002068D01*
X0007424Y0001500D01*
X0006729Y0001059D01*
X0005961Y0000761D01*
X0005150Y0000618D01*
X0004326Y0000635D01*
X0003522Y0000812D01*
X0002767Y0001142D01*
X0002091Y0001612D01*
X0001519Y0002205D01*
X0001072Y0002897D01*
X0000769Y0003663D01*
X0000620Y0004473D01*
X0000632Y0005296D01*
X0000803Y0006102D01*
X0001128Y0006859D01*
X0001593Y0007539D01*
X0002182Y0008115D01*
X0002871Y0008566D01*
X0003634Y0008875D01*
X0004444Y0009029D01*
X0005267Y0009023D01*
X0005267Y0009023D01*
G37*
G36*
X0096707Y0009023D02*
X0097514Y0008858D01*
X0098273Y0008538D01*
X0098956Y0008078D01*
X0099537Y0007493D01*
X0099992Y0006807D01*
X0100306Y0006046D01*
X0100466Y0005239D01*
X0100466Y0005238D01*
X0100466Y0005238D01*
X0100453Y0004297D01*
X0100453Y0004296D01*
X0100453Y0004296D01*
X0100271Y0003494D01*
X0099936Y0002741D01*
X0099461Y0002068D01*
X0098864Y0001500D01*
X0098169Y0001059D01*
X0097401Y0000761D01*
X0096590Y0000618D01*
X0095766Y0000635D01*
X0094962Y0000812D01*
X0094207Y0001142D01*
X0093531Y0001612D01*
X0092959Y0002205D01*
X0092512Y0002897D01*
X0092209Y0003663D01*
X0092060Y0004473D01*
X0092072Y0005296D01*
X0092243Y0006102D01*
X0092568Y0006859D01*
X0093033Y0007539D01*
X0093622Y0008115D01*
X0094311Y0008566D01*
X0095074Y0008875D01*
X0095884Y0009029D01*
X0096707Y0009023D01*
X0096707Y0009023D01*
G37*
G36*
X0035520Y0003486D02*
X0035520Y0003486D01*
X0035520Y0003486D01*
X0035718Y0003425D01*
X0035901Y0003326D01*
X0036061Y0003194D01*
X0036192Y0003033D01*
X0036289Y0002850D01*
X0036349Y0002651D01*
X0036370Y0002444D01*
X0036370Y0002128D01*
X0036370Y0002117D01*
X0036370Y0002117D01*
X0036369Y0002113D01*
X0036346Y0001907D01*
X0036284Y0001709D01*
X0036184Y0001527D01*
X0036050Y0001368D01*
X0035888Y0001238D01*
X0035704Y0001142D01*
X0035505Y0001083D01*
X0035505Y0001083D01*
X0035505Y0001083D01*
X0035299Y0001064D01*
X0035092Y0001086D01*
X0035092Y0001086D01*
X0035092Y0001086D01*
X0034894Y0001147D01*
X0034711Y0001246D01*
X0034551Y0001378D01*
X0034420Y0001539D01*
X0034323Y0001722D01*
X0034263Y0001921D01*
X0034242Y0002128D01*
X0034242Y0002444D01*
X0034242Y0002455D01*
X0034242Y0002455D01*
X0034243Y0002459D01*
X0034266Y0002665D01*
X0034328Y0002863D01*
X0034428Y0003045D01*
X0034562Y0003204D01*
X0034724Y0003334D01*
X0034908Y0003430D01*
X0035107Y0003489D01*
X0035107Y0003489D01*
X0035107Y0003489D01*
X0035313Y0003508D01*
X0035520Y0003486D01*
X0035520Y0003486D01*
G37*
G36*
X0017740Y0003486D02*
X0017740Y0003486D01*
X0017740Y0003486D01*
X0017938Y0003425D01*
X0018121Y0003326D01*
X0018281Y0003194D01*
X0018412Y0003033D01*
X0018509Y0002850D01*
X0018569Y0002651D01*
X0018590Y0002444D01*
X0018590Y0002128D01*
X0018590Y0002117D01*
X0018590Y0002117D01*
X0018589Y0002113D01*
X0018566Y0001907D01*
X0018504Y0001709D01*
X0018404Y0001527D01*
X0018270Y0001368D01*
X0018108Y0001238D01*
X0017924Y0001142D01*
X0017725Y0001083D01*
X0017725Y0001083D01*
X0017725Y0001083D01*
X0017519Y0001064D01*
X0017312Y0001086D01*
X0017312Y0001086D01*
X0017312Y0001086D01*
X0017114Y0001147D01*
X0016931Y0001246D01*
X0016771Y0001378D01*
X0016640Y0001539D01*
X0016543Y0001722D01*
X0016483Y0001921D01*
X0016462Y0002128D01*
X0016462Y0002444D01*
X0016462Y0002455D01*
X0016462Y0002455D01*
X0016463Y0002459D01*
X0016486Y0002665D01*
X0016548Y0002863D01*
X0016648Y0003045D01*
X0016782Y0003204D01*
X0016944Y0003334D01*
X0017128Y0003430D01*
X0017327Y0003489D01*
X0017327Y0003489D01*
X0017327Y0003489D01*
X0017533Y0003508D01*
X0017740Y0003486D01*
X0017740Y0003486D01*
G37*
G36*
X0020280Y0003486D02*
X0020280Y0003486D01*
X0020280Y0003486D01*
X0020478Y0003425D01*
X0020661Y0003326D01*
X0020821Y0003194D01*
X0020952Y0003033D01*
X0021049Y0002850D01*
X0021109Y0002651D01*
X0021130Y0002444D01*
X0021130Y0002128D01*
X0021130Y0002117D01*
X0021130Y0002117D01*
X0021129Y0002113D01*
X0021106Y0001907D01*
X0021044Y0001709D01*
X0020944Y0001527D01*
X0020810Y0001368D01*
X0020648Y0001238D01*
X0020464Y0001142D01*
X0020265Y0001083D01*
X0020265Y0001083D01*
X0020265Y0001083D01*
X0020059Y0001064D01*
X0019852Y0001086D01*
X0019852Y0001086D01*
X0019852Y0001086D01*
X0019654Y0001147D01*
X0019471Y0001246D01*
X0019311Y0001378D01*
X0019180Y0001539D01*
X0019083Y0001722D01*
X0019023Y0001921D01*
X0019002Y0002128D01*
X0019002Y0002444D01*
X0019002Y0002455D01*
X0019002Y0002455D01*
X0019003Y0002459D01*
X0019026Y0002665D01*
X0019088Y0002863D01*
X0019188Y0003045D01*
X0019322Y0003204D01*
X0019484Y0003334D01*
X0019668Y0003430D01*
X0019867Y0003489D01*
X0019867Y0003489D01*
X0019867Y0003489D01*
X0020073Y0003508D01*
X0020280Y0003486D01*
X0020280Y0003486D01*
G37*
G36*
X0015200Y0003486D02*
X0015200Y0003486D01*
X0015200Y0003486D01*
X0015398Y0003425D01*
X0015581Y0003326D01*
X0015741Y0003194D01*
X0015872Y0003033D01*
X0015969Y0002850D01*
X0016029Y0002651D01*
X0016050Y0002444D01*
X0016050Y0002128D01*
X0016050Y0002117D01*
X0016050Y0002117D01*
X0016049Y0002113D01*
X0016026Y0001907D01*
X0015964Y0001709D01*
X0015864Y0001527D01*
X0015730Y0001368D01*
X0015568Y0001238D01*
X0015384Y0001142D01*
X0015185Y0001083D01*
X0015185Y0001083D01*
X0015185Y0001083D01*
X0014979Y0001064D01*
X0014772Y0001086D01*
X0014772Y0001086D01*
X0014772Y0001086D01*
X0014574Y0001147D01*
X0014391Y0001246D01*
X0014231Y0001378D01*
X0014100Y0001539D01*
X0014003Y0001722D01*
X0013943Y0001921D01*
X0013922Y0002128D01*
X0013922Y0002444D01*
X0013922Y0002455D01*
X0013922Y0002455D01*
X0013923Y0002459D01*
X0013946Y0002665D01*
X0014008Y0002863D01*
X0014108Y0003045D01*
X0014242Y0003204D01*
X0014404Y0003334D01*
X0014588Y0003430D01*
X0014787Y0003489D01*
X0014787Y0003489D01*
X0014787Y0003489D01*
X0014993Y0003508D01*
X0015200Y0003486D01*
X0015200Y0003486D01*
G37*
G36*
X0022820Y0003486D02*
X0022820Y0003486D01*
X0022820Y0003486D01*
X0023018Y0003425D01*
X0023201Y0003326D01*
X0023361Y0003194D01*
X0023492Y0003033D01*
X0023589Y0002850D01*
X0023649Y0002651D01*
X0023670Y0002444D01*
X0023670Y0002128D01*
X0023670Y0002117D01*
X0023670Y0002117D01*
X0023669Y0002113D01*
X0023646Y0001907D01*
X0023584Y0001709D01*
X0023484Y0001527D01*
X0023350Y0001368D01*
X0023188Y0001238D01*
X0023004Y0001142D01*
X0022805Y0001083D01*
X0022805Y0001083D01*
X0022805Y0001083D01*
X0022599Y0001064D01*
X0022392Y0001086D01*
X0022392Y0001086D01*
X0022392Y0001086D01*
X0022194Y0001147D01*
X0022011Y0001246D01*
X0021851Y0001378D01*
X0021720Y0001539D01*
X0021623Y0001722D01*
X0021563Y0001921D01*
X0021542Y0002128D01*
X0021542Y0002444D01*
X0021542Y0002455D01*
X0021542Y0002455D01*
X0021543Y0002459D01*
X0021566Y0002665D01*
X0021628Y0002863D01*
X0021728Y0003045D01*
X0021862Y0003204D01*
X0022024Y0003334D01*
X0022208Y0003430D01*
X0022407Y0003489D01*
X0022407Y0003489D01*
X0022407Y0003489D01*
X0022613Y0003508D01*
X0022820Y0003486D01*
X0022820Y0003486D01*
G37*
G36*
X0025360Y0003486D02*
X0025360Y0003486D01*
X0025360Y0003486D01*
X0025558Y0003425D01*
X0025741Y0003326D01*
X0025901Y0003194D01*
X0026032Y0003033D01*
X0026129Y0002850D01*
X0026189Y0002651D01*
X0026210Y0002444D01*
X0026210Y0002128D01*
X0026210Y0002117D01*
X0026210Y0002117D01*
X0026209Y0002113D01*
X0026186Y0001907D01*
X0026124Y0001709D01*
X0026024Y0001527D01*
X0025890Y0001368D01*
X0025728Y0001238D01*
X0025544Y0001142D01*
X0025345Y0001083D01*
X0025345Y0001083D01*
X0025345Y0001083D01*
X0025139Y0001064D01*
X0024932Y0001086D01*
X0024932Y0001086D01*
X0024932Y0001086D01*
X0024734Y0001147D01*
X0024551Y0001246D01*
X0024391Y0001378D01*
X0024260Y0001539D01*
X0024163Y0001722D01*
X0024103Y0001921D01*
X0024082Y0002128D01*
X0024082Y0002444D01*
X0024082Y0002455D01*
X0024082Y0002455D01*
X0024083Y0002459D01*
X0024106Y0002665D01*
X0024168Y0002863D01*
X0024268Y0003045D01*
X0024402Y0003204D01*
X0024564Y0003334D01*
X0024748Y0003430D01*
X0024947Y0003489D01*
X0024947Y0003489D01*
X0024947Y0003489D01*
X0025153Y0003508D01*
X0025360Y0003486D01*
X0025360Y0003486D01*
G37*
G36*
X0027900Y0003486D02*
X0027900Y0003486D01*
X0027900Y0003486D01*
X0028098Y0003425D01*
X0028281Y0003326D01*
X0028441Y0003194D01*
X0028572Y0003033D01*
X0028669Y0002850D01*
X0028729Y0002651D01*
X0028750Y0002444D01*
X0028750Y0002128D01*
X0028750Y0002117D01*
X0028750Y0002117D01*
X0028749Y0002113D01*
X0028726Y0001907D01*
X0028664Y0001709D01*
X0028564Y0001527D01*
X0028430Y0001368D01*
X0028268Y0001238D01*
X0028084Y0001142D01*
X0027885Y0001083D01*
X0027885Y0001083D01*
X0027885Y0001083D01*
X0027679Y0001064D01*
X0027472Y0001086D01*
X0027472Y0001086D01*
X0027472Y0001086D01*
X0027274Y0001147D01*
X0027091Y0001246D01*
X0026931Y0001378D01*
X0026800Y0001539D01*
X0026703Y0001722D01*
X0026643Y0001921D01*
X0026622Y0002128D01*
X0026622Y0002444D01*
X0026622Y0002455D01*
X0026622Y0002455D01*
X0026623Y0002459D01*
X0026646Y0002665D01*
X0026708Y0002863D01*
X0026808Y0003045D01*
X0026942Y0003204D01*
X0027104Y0003334D01*
X0027288Y0003430D01*
X0027487Y0003489D01*
X0027487Y0003489D01*
X0027487Y0003489D01*
X0027693Y0003508D01*
X0027900Y0003486D01*
X0027900Y0003486D01*
G37*
G36*
X0030440Y0003486D02*
X0030440Y0003486D01*
X0030440Y0003486D01*
X0030638Y0003425D01*
X0030821Y0003326D01*
X0030981Y0003194D01*
X0031112Y0003033D01*
X0031209Y0002850D01*
X0031269Y0002651D01*
X0031290Y0002444D01*
X0031290Y0002128D01*
X0031290Y0002117D01*
X0031290Y0002117D01*
X0031289Y0002113D01*
X0031266Y0001907D01*
X0031204Y0001709D01*
X0031104Y0001527D01*
X0030970Y0001368D01*
X0030808Y0001238D01*
X0030624Y0001142D01*
X0030425Y0001083D01*
X0030425Y0001083D01*
X0030425Y0001083D01*
X0030219Y0001064D01*
X0030012Y0001086D01*
X0030012Y0001086D01*
X0030012Y0001086D01*
X0029814Y0001147D01*
X0029631Y0001246D01*
X0029471Y0001378D01*
X0029340Y0001539D01*
X0029243Y0001722D01*
X0029183Y0001921D01*
X0029162Y0002128D01*
X0029162Y0002444D01*
X0029162Y0002455D01*
X0029162Y0002455D01*
X0029163Y0002459D01*
X0029186Y0002665D01*
X0029248Y0002863D01*
X0029348Y0003045D01*
X0029482Y0003204D01*
X0029644Y0003334D01*
X0029828Y0003430D01*
X0030027Y0003489D01*
X0030027Y0003489D01*
X0030027Y0003489D01*
X0030233Y0003508D01*
X0030440Y0003486D01*
X0030440Y0003486D01*
G37*
G36*
X0032980Y0003486D02*
X0032980Y0003486D01*
X0032980Y0003486D01*
X0033178Y0003425D01*
X0033361Y0003326D01*
X0033521Y0003194D01*
X0033652Y0003033D01*
X0033749Y0002850D01*
X0033809Y0002651D01*
X0033830Y0002444D01*
X0033830Y0002128D01*
X0033830Y0002117D01*
X0033830Y0002117D01*
X0033829Y0002113D01*
X0033806Y0001907D01*
X0033744Y0001709D01*
X0033644Y0001527D01*
X0033510Y0001368D01*
X0033348Y0001238D01*
X0033164Y0001142D01*
X0032965Y0001083D01*
X0032965Y0001083D01*
X0032965Y0001083D01*
X0032759Y0001064D01*
X0032552Y0001086D01*
X0032552Y0001086D01*
X0032552Y0001086D01*
X0032354Y0001147D01*
X0032171Y0001246D01*
X0032011Y0001378D01*
X0031880Y0001539D01*
X0031783Y0001722D01*
X0031723Y0001921D01*
X0031702Y0002128D01*
X0031702Y0002444D01*
X0031702Y0002455D01*
X0031702Y0002455D01*
X0031703Y0002459D01*
X0031726Y0002665D01*
X0031788Y0002863D01*
X0031888Y0003045D01*
X0032022Y0003204D01*
X0032184Y0003334D01*
X0032368Y0003430D01*
X0032567Y0003489D01*
X0032567Y0003489D01*
X0032567Y0003489D01*
X0032773Y0003508D01*
X0032980Y0003486D01*
X0032980Y0003486D01*
G37*
G36*
X0043140Y0003486D02*
X0043140Y0003486D01*
X0043140Y0003486D01*
X0043338Y0003425D01*
X0043521Y0003326D01*
X0043681Y0003194D01*
X0043812Y0003033D01*
X0043909Y0002850D01*
X0043969Y0002651D01*
X0043990Y0002444D01*
X0043990Y0002128D01*
X0043990Y0002117D01*
X0043990Y0002117D01*
X0043989Y0002113D01*
X0043966Y0001907D01*
X0043904Y0001709D01*
X0043804Y0001527D01*
X0043670Y0001368D01*
X0043508Y0001238D01*
X0043324Y0001142D01*
X0043125Y0001083D01*
X0043125Y0001083D01*
X0043125Y0001083D01*
X0042919Y0001064D01*
X0042712Y0001086D01*
X0042712Y0001086D01*
X0042712Y0001086D01*
X0042514Y0001147D01*
X0042331Y0001246D01*
X0042171Y0001378D01*
X0042040Y0001539D01*
X0041943Y0001722D01*
X0041883Y0001921D01*
X0041862Y0002128D01*
X0041862Y0002444D01*
X0041862Y0002455D01*
X0041862Y0002455D01*
X0041863Y0002459D01*
X0041886Y0002665D01*
X0041948Y0002863D01*
X0042048Y0003045D01*
X0042182Y0003204D01*
X0042344Y0003334D01*
X0042528Y0003430D01*
X0042727Y0003489D01*
X0042727Y0003489D01*
X0042727Y0003489D01*
X0042933Y0003508D01*
X0043140Y0003486D01*
X0043140Y0003486D01*
G37*
G36*
X0045680Y0003486D02*
X0045680Y0003486D01*
X0045680Y0003486D01*
X0045878Y0003425D01*
X0046061Y0003326D01*
X0046221Y0003194D01*
X0046352Y0003033D01*
X0046449Y0002850D01*
X0046509Y0002651D01*
X0046530Y0002444D01*
X0046530Y0002128D01*
X0046530Y0002117D01*
X0046530Y0002117D01*
X0046529Y0002113D01*
X0046506Y0001907D01*
X0046444Y0001709D01*
X0046344Y0001527D01*
X0046210Y0001368D01*
X0046048Y0001238D01*
X0045864Y0001142D01*
X0045665Y0001083D01*
X0045665Y0001083D01*
X0045665Y0001083D01*
X0045459Y0001064D01*
X0045252Y0001086D01*
X0045252Y0001086D01*
X0045252Y0001086D01*
X0045054Y0001147D01*
X0044871Y0001246D01*
X0044711Y0001378D01*
X0044580Y0001539D01*
X0044483Y0001722D01*
X0044423Y0001921D01*
X0044402Y0002128D01*
X0044402Y0002444D01*
X0044402Y0002455D01*
X0044402Y0002455D01*
X0044403Y0002459D01*
X0044426Y0002665D01*
X0044488Y0002863D01*
X0044588Y0003045D01*
X0044722Y0003204D01*
X0044884Y0003334D01*
X0045068Y0003430D01*
X0045267Y0003489D01*
X0045267Y0003489D01*
X0045267Y0003489D01*
X0045473Y0003508D01*
X0045680Y0003486D01*
X0045680Y0003486D01*
G37*
G36*
X0048220Y0003486D02*
X0048220Y0003486D01*
X0048220Y0003486D01*
X0048418Y0003425D01*
X0048601Y0003326D01*
X0048761Y0003194D01*
X0048892Y0003033D01*
X0048989Y0002850D01*
X0049049Y0002651D01*
X0049070Y0002444D01*
X0049070Y0002128D01*
X0049070Y0002117D01*
X0049070Y0002117D01*
X0049069Y0002113D01*
X0049046Y0001907D01*
X0048984Y0001709D01*
X0048884Y0001527D01*
X0048750Y0001368D01*
X0048588Y0001238D01*
X0048404Y0001142D01*
X0048205Y0001083D01*
X0048205Y0001083D01*
X0048205Y0001083D01*
X0047999Y0001064D01*
X0047792Y0001086D01*
X0047792Y0001086D01*
X0047792Y0001086D01*
X0047594Y0001147D01*
X0047411Y0001246D01*
X0047251Y0001378D01*
X0047120Y0001539D01*
X0047023Y0001722D01*
X0046963Y0001921D01*
X0046942Y0002128D01*
X0046942Y0002444D01*
X0046942Y0002455D01*
X0046942Y0002455D01*
X0046943Y0002459D01*
X0046966Y0002665D01*
X0047028Y0002863D01*
X0047128Y0003045D01*
X0047262Y0003204D01*
X0047424Y0003334D01*
X0047608Y0003430D01*
X0047807Y0003489D01*
X0047807Y0003489D01*
X0047807Y0003489D01*
X0048013Y0003508D01*
X0048220Y0003486D01*
X0048220Y0003486D01*
G37*
G36*
X0050760Y0003486D02*
X0050760Y0003486D01*
X0050760Y0003486D01*
X0050958Y0003425D01*
X0051141Y0003326D01*
X0051301Y0003194D01*
X0051432Y0003033D01*
X0051529Y0002850D01*
X0051589Y0002651D01*
X0051610Y0002444D01*
X0051610Y0002128D01*
X0051610Y0002117D01*
X0051610Y0002117D01*
X0051609Y0002113D01*
X0051586Y0001907D01*
X0051524Y0001709D01*
X0051424Y0001527D01*
X0051290Y0001368D01*
X0051128Y0001238D01*
X0050944Y0001142D01*
X0050745Y0001083D01*
X0050745Y0001083D01*
X0050745Y0001083D01*
X0050539Y0001064D01*
X0050332Y0001086D01*
X0050332Y0001086D01*
X0050332Y0001086D01*
X0050134Y0001147D01*
X0049951Y0001246D01*
X0049791Y0001378D01*
X0049660Y0001539D01*
X0049563Y0001722D01*
X0049503Y0001921D01*
X0049482Y0002128D01*
X0049482Y0002444D01*
X0049482Y0002455D01*
X0049482Y0002455D01*
X0049483Y0002459D01*
X0049506Y0002665D01*
X0049568Y0002863D01*
X0049668Y0003045D01*
X0049802Y0003204D01*
X0049964Y0003334D01*
X0050148Y0003430D01*
X0050347Y0003489D01*
X0050347Y0003489D01*
X0050347Y0003489D01*
X0050553Y0003508D01*
X0050760Y0003486D01*
X0050760Y0003486D01*
G37*
G36*
X0053300Y0003486D02*
X0053300Y0003486D01*
X0053300Y0003486D01*
X0053498Y0003425D01*
X0053681Y0003326D01*
X0053841Y0003194D01*
X0053972Y0003033D01*
X0054069Y0002850D01*
X0054129Y0002651D01*
X0054150Y0002444D01*
X0054150Y0002128D01*
X0054150Y0002117D01*
X0054150Y0002117D01*
X0054149Y0002113D01*
X0054126Y0001907D01*
X0054064Y0001709D01*
X0053964Y0001527D01*
X0053830Y0001368D01*
X0053668Y0001238D01*
X0053484Y0001142D01*
X0053285Y0001083D01*
X0053285Y0001083D01*
X0053285Y0001083D01*
X0053079Y0001064D01*
X0052872Y0001086D01*
X0052872Y0001086D01*
X0052872Y0001086D01*
X0052674Y0001147D01*
X0052491Y0001246D01*
X0052331Y0001378D01*
X0052200Y0001539D01*
X0052103Y0001722D01*
X0052043Y0001921D01*
X0052022Y0002128D01*
X0052022Y0002444D01*
X0052022Y0002455D01*
X0052022Y0002455D01*
X0052023Y0002459D01*
X0052046Y0002665D01*
X0052108Y0002863D01*
X0052208Y0003045D01*
X0052342Y0003204D01*
X0052504Y0003334D01*
X0052688Y0003430D01*
X0052887Y0003489D01*
X0052887Y0003489D01*
X0052887Y0003489D01*
X0053093Y0003508D01*
X0053300Y0003486D01*
X0053300Y0003486D01*
G37*
G36*
X0013510Y0001070D02*
X0011382Y0001070D01*
X0011382Y0003502D01*
X0013510Y0003502D01*
X0013510Y0001070D01*
X0013510Y0001070D01*
G37*
G36*
X0056690Y0001070D02*
X0054562Y0001070D01*
X0054562Y0003502D01*
X0056690Y0003502D01*
X0056690Y0001070D01*
X0056690Y0001070D01*
G37*
G36*
X0084917Y0013845D02*
X0085340Y0013758D01*
X0085737Y0013591D01*
X0086095Y0013349D01*
X0086399Y0013043D01*
X0086638Y0012684D01*
X0086802Y0012285D01*
X0086886Y0011862D01*
X0086886Y0011862D01*
X0086886Y0011862D01*
X0086879Y0011369D01*
X0086879Y0011368D01*
X0086879Y0011368D01*
X0086784Y0010948D01*
X0086608Y0010554D01*
X0086359Y0010202D01*
X0086047Y0009904D01*
X0085683Y0009673D01*
X0085280Y0009517D01*
X0084856Y0009442D01*
X0084424Y0009451D01*
X0084003Y0009544D01*
X0083608Y0009716D01*
X0083253Y0009963D01*
X0082954Y0010273D01*
X0082720Y0010636D01*
X0082561Y0011037D01*
X0082483Y0011461D01*
X0082489Y0011892D01*
X0082579Y0012314D01*
X0082749Y0012711D01*
X0082993Y0013067D01*
X0083301Y0013369D01*
X0083662Y0013605D01*
X0084062Y0013767D01*
X0084486Y0013848D01*
X0084917Y0013845D01*
X0084917Y0013845D01*
G37*
G36*
X0018917Y0013845D02*
X0019340Y0013758D01*
X0019737Y0013591D01*
X0020095Y0013349D01*
X0020399Y0013043D01*
X0020638Y0012684D01*
X0020802Y0012285D01*
X0020886Y0011862D01*
X0020886Y0011862D01*
X0020886Y0011862D01*
X0020879Y0011369D01*
X0020879Y0011368D01*
X0020879Y0011368D01*
X0020784Y0010948D01*
X0020608Y0010554D01*
X0020359Y0010202D01*
X0020047Y0009904D01*
X0019683Y0009673D01*
X0019280Y0009517D01*
X0018856Y0009442D01*
X0018424Y0009451D01*
X0018003Y0009544D01*
X0017608Y0009716D01*
X0017253Y0009963D01*
X0016954Y0010273D01*
X0016720Y0010636D01*
X0016561Y0011037D01*
X0016483Y0011461D01*
X0016489Y0011892D01*
X0016579Y0012314D01*
X0016749Y0012711D01*
X0016993Y0013067D01*
X0017301Y0013369D01*
X0017662Y0013605D01*
X0018062Y0013767D01*
X0018486Y0013848D01*
X0018917Y0013845D01*
X0018917Y0013845D01*
G37*
G36*
X0093905Y0014145D02*
X0094231Y0014078D01*
X0094538Y0013949D01*
X0094815Y0013762D01*
X0095050Y0013526D01*
X0095234Y0013248D01*
X0095361Y0012940D01*
X0095426Y0012613D01*
X0095426Y0012613D01*
X0095426Y0012613D01*
X0095421Y0012232D01*
X0095421Y0012231D01*
X0095421Y0012231D01*
X0095347Y0011907D01*
X0095211Y0011602D01*
X0095019Y0011330D01*
X0094778Y0011100D01*
X0094496Y0010921D01*
X0094185Y0010801D01*
X0093857Y0010743D01*
X0093524Y0010750D01*
X0093198Y0010821D01*
X0092893Y0010955D01*
X0092619Y0011145D01*
X0092387Y0011385D01*
X0092207Y0011665D01*
X0092084Y0011975D01*
X0092024Y0012303D01*
X0092028Y0012636D01*
X0092098Y0012963D01*
X0092229Y0013269D01*
X0092417Y0013544D01*
X0092656Y0013777D01*
X0092935Y0013960D01*
X0093244Y0014085D01*
X0093571Y0014147D01*
X0093905Y0014145D01*
X0093905Y0014145D01*
G37*
G36*
X0098985Y0014145D02*
X0099311Y0014078D01*
X0099618Y0013949D01*
X0099895Y0013762D01*
X0100130Y0013526D01*
X0100314Y0013248D01*
X0100441Y0012940D01*
X0100506Y0012613D01*
X0100506Y0012613D01*
X0100506Y0012613D01*
X0100501Y0012232D01*
X0100501Y0012231D01*
X0100501Y0012231D01*
X0100427Y0011907D01*
X0100291Y0011602D01*
X0100099Y0011330D01*
X0099858Y0011100D01*
X0099576Y0010921D01*
X0099265Y0010801D01*
X0098937Y0010743D01*
X0098604Y0010750D01*
X0098278Y0010821D01*
X0097973Y0010955D01*
X0097699Y0011145D01*
X0097467Y0011385D01*
X0097287Y0011665D01*
X0097164Y0011975D01*
X0097104Y0012303D01*
X0097108Y0012636D01*
X0097178Y0012963D01*
X0097309Y0013269D01*
X0097497Y0013544D01*
X0097736Y0013777D01*
X0098015Y0013960D01*
X0098324Y0014085D01*
X0098651Y0014147D01*
X0098985Y0014145D01*
X0098985Y0014145D01*
G37*
G36*
X0002455Y0013510D02*
X0002455Y0013510D01*
X0002459Y0013509D01*
X0002665Y0013486D01*
X0002863Y0013424D01*
X0003045Y0013324D01*
X0003204Y0013190D01*
X0003334Y0013028D01*
X0003430Y0012844D01*
X0003489Y0012645D01*
X0003489Y0012645D01*
X0003489Y0012645D01*
X0003508Y0012439D01*
X0003486Y0012232D01*
X0003486Y0012232D01*
X0003486Y0012232D01*
X0003425Y0012034D01*
X0003326Y0011851D01*
X0003194Y0011691D01*
X0003033Y0011560D01*
X0002850Y0011463D01*
X0002651Y0011403D01*
X0002444Y0011382D01*
X0002128Y0011382D01*
X0002117Y0011382D01*
X0002117Y0011382D01*
X0002113Y0011383D01*
X0001907Y0011406D01*
X0001709Y0011468D01*
X0001527Y0011568D01*
X0001368Y0011702D01*
X0001238Y0011864D01*
X0001142Y0012048D01*
X0001083Y0012247D01*
X0001083Y0012247D01*
X0001083Y0012247D01*
X0001064Y0012453D01*
X0001086Y0012660D01*
X0001086Y0012660D01*
X0001086Y0012660D01*
X0001147Y0012858D01*
X0001246Y0013041D01*
X0001378Y0013201D01*
X0001539Y0013332D01*
X0001722Y0013429D01*
X0001921Y0013489D01*
X0002128Y0013510D01*
X0002444Y0013510D01*
X0002455Y0013510D01*
X0002455Y0013510D01*
G37*
G36*
X0026972Y0015280D02*
X0026972Y0015280D01*
X0026976Y0015279D01*
X0027182Y0015256D01*
X0027380Y0015194D01*
X0027562Y0015094D01*
X0027721Y0014960D01*
X0027851Y0014798D01*
X0027947Y0014614D01*
X0028006Y0014415D01*
X0028006Y0014415D01*
X0028006Y0014415D01*
X0028025Y0014209D01*
X0028003Y0014002D01*
X0028003Y0014002D01*
X0028003Y0014002D01*
X0027942Y0013804D01*
X0027843Y0013621D01*
X0027711Y0013461D01*
X0027550Y0013330D01*
X0027366Y0013233D01*
X0027168Y0013173D01*
X0026961Y0013152D01*
X0026951Y0013152D01*
X0026940Y0013152D01*
X0026940Y0013152D01*
X0026936Y0013153D01*
X0026730Y0013176D01*
X0026532Y0013238D01*
X0026350Y0013338D01*
X0026191Y0013472D01*
X0026061Y0013634D01*
X0025965Y0013818D01*
X0025906Y0014017D01*
X0025906Y0014017D01*
X0025906Y0014017D01*
X0025887Y0014223D01*
X0025909Y0014430D01*
X0025909Y0014430D01*
X0025909Y0014430D01*
X0025970Y0014628D01*
X0026069Y0014811D01*
X0026201Y0014971D01*
X0026362Y0015102D01*
X0026546Y0015199D01*
X0026744Y0015259D01*
X0026951Y0015280D01*
X0026961Y0015280D01*
X0026972Y0015280D01*
X0026972Y0015280D01*
G37*
G36*
X0024432Y0015280D02*
X0024432Y0015280D01*
X0024436Y0015279D01*
X0024642Y0015256D01*
X0024840Y0015194D01*
X0025022Y0015094D01*
X0025181Y0014960D01*
X0025311Y0014798D01*
X0025407Y0014614D01*
X0025466Y0014415D01*
X0025466Y0014415D01*
X0025466Y0014415D01*
X0025485Y0014209D01*
X0025463Y0014002D01*
X0025463Y0014002D01*
X0025463Y0014002D01*
X0025402Y0013804D01*
X0025303Y0013621D01*
X0025171Y0013461D01*
X0025010Y0013330D01*
X0024826Y0013233D01*
X0024628Y0013173D01*
X0024421Y0013152D01*
X0024411Y0013152D01*
X0024400Y0013152D01*
X0024400Y0013152D01*
X0024396Y0013153D01*
X0024190Y0013176D01*
X0023992Y0013238D01*
X0023810Y0013338D01*
X0023651Y0013472D01*
X0023521Y0013634D01*
X0023425Y0013818D01*
X0023366Y0014017D01*
X0023366Y0014017D01*
X0023366Y0014017D01*
X0023347Y0014223D01*
X0023369Y0014430D01*
X0023369Y0014430D01*
X0023369Y0014430D01*
X0023430Y0014628D01*
X0023529Y0014811D01*
X0023661Y0014971D01*
X0023822Y0015102D01*
X0024006Y0015199D01*
X0024204Y0015259D01*
X0024411Y0015280D01*
X0024421Y0015280D01*
X0024432Y0015280D01*
X0024432Y0015280D01*
G37*
G36*
X0096424Y0016485D02*
X0096712Y0016426D01*
X0096983Y0016312D01*
X0097227Y0016147D01*
X0097434Y0015939D01*
X0097597Y0015694D01*
X0097709Y0015422D01*
X0097766Y0015134D01*
X0097766Y0015134D01*
X0097766Y0015133D01*
X0097761Y0014797D01*
X0097761Y0014796D01*
X0097761Y0014796D01*
X0097696Y0014510D01*
X0097577Y0014241D01*
X0097407Y0014001D01*
X0097194Y0013798D01*
X0096946Y0013641D01*
X0096671Y0013534D01*
X0096382Y0013483D01*
X0096088Y0013489D01*
X0095800Y0013553D01*
X0095531Y0013670D01*
X0095289Y0013838D01*
X0095085Y0014050D01*
X0094925Y0014297D01*
X0094817Y0014571D01*
X0094764Y0014860D01*
X0094768Y0015154D01*
X0094829Y0015442D01*
X0094945Y0015712D01*
X0095111Y0015955D01*
X0095322Y0016161D01*
X0095568Y0016322D01*
X0095840Y0016432D01*
X0096129Y0016487D01*
X0096424Y0016485D01*
X0096424Y0016485D01*
G37*
G36*
X0002455Y0016050D02*
X0002455Y0016050D01*
X0002459Y0016049D01*
X0002665Y0016026D01*
X0002863Y0015964D01*
X0003045Y0015864D01*
X0003204Y0015730D01*
X0003334Y0015568D01*
X0003430Y0015384D01*
X0003489Y0015185D01*
X0003489Y0015185D01*
X0003489Y0015185D01*
X0003508Y0014979D01*
X0003486Y0014772D01*
X0003486Y0014772D01*
X0003486Y0014772D01*
X0003425Y0014574D01*
X0003326Y0014391D01*
X0003194Y0014231D01*
X0003033Y0014100D01*
X0002850Y0014003D01*
X0002651Y0013943D01*
X0002444Y0013922D01*
X0002128Y0013922D01*
X0002117Y0013922D01*
X0002117Y0013922D01*
X0002113Y0013923D01*
X0001907Y0013946D01*
X0001709Y0014008D01*
X0001527Y0014108D01*
X0001368Y0014242D01*
X0001238Y0014404D01*
X0001142Y0014588D01*
X0001083Y0014787D01*
X0001083Y0014787D01*
X0001083Y0014787D01*
X0001064Y0014993D01*
X0001086Y0015200D01*
X0001086Y0015200D01*
X0001086Y0015200D01*
X0001147Y0015398D01*
X0001246Y0015581D01*
X0001378Y0015741D01*
X0001539Y0015872D01*
X0001722Y0015969D01*
X0001921Y0016029D01*
X0002128Y0016050D01*
X0002444Y0016050D01*
X0002455Y0016050D01*
X0002455Y0016050D01*
G37*
G36*
X0026972Y0017820D02*
X0026972Y0017820D01*
X0026976Y0017819D01*
X0027182Y0017796D01*
X0027380Y0017734D01*
X0027562Y0017634D01*
X0027721Y0017500D01*
X0027851Y0017338D01*
X0027947Y0017154D01*
X0028006Y0016955D01*
X0028006Y0016955D01*
X0028006Y0016955D01*
X0028025Y0016749D01*
X0028003Y0016542D01*
X0028003Y0016542D01*
X0028003Y0016542D01*
X0027942Y0016344D01*
X0027843Y0016161D01*
X0027711Y0016001D01*
X0027550Y0015870D01*
X0027366Y0015773D01*
X0027168Y0015713D01*
X0026961Y0015692D01*
X0026951Y0015692D01*
X0026940Y0015692D01*
X0026940Y0015692D01*
X0026936Y0015693D01*
X0026730Y0015716D01*
X0026532Y0015778D01*
X0026350Y0015878D01*
X0026191Y0016012D01*
X0026061Y0016174D01*
X0025965Y0016358D01*
X0025906Y0016557D01*
X0025906Y0016557D01*
X0025906Y0016557D01*
X0025887Y0016763D01*
X0025909Y0016970D01*
X0025909Y0016970D01*
X0025909Y0016970D01*
X0025970Y0017168D01*
X0026069Y0017351D01*
X0026201Y0017511D01*
X0026362Y0017642D01*
X0026546Y0017739D01*
X0026744Y0017799D01*
X0026951Y0017820D01*
X0026961Y0017820D01*
X0026972Y0017820D01*
X0026972Y0017820D01*
G37*
G36*
X0024432Y0017820D02*
X0024432Y0017820D01*
X0024436Y0017819D01*
X0024642Y0017796D01*
X0024840Y0017734D01*
X0025022Y0017634D01*
X0025181Y0017500D01*
X0025311Y0017338D01*
X0025407Y0017154D01*
X0025466Y0016955D01*
X0025466Y0016955D01*
X0025466Y0016955D01*
X0025485Y0016749D01*
X0025463Y0016542D01*
X0025463Y0016542D01*
X0025463Y0016542D01*
X0025402Y0016344D01*
X0025303Y0016161D01*
X0025171Y0016001D01*
X0025010Y0015870D01*
X0024826Y0015773D01*
X0024628Y0015713D01*
X0024421Y0015692D01*
X0024411Y0015692D01*
X0024400Y0015692D01*
X0024400Y0015692D01*
X0024396Y0015693D01*
X0024190Y0015716D01*
X0023992Y0015778D01*
X0023810Y0015878D01*
X0023651Y0016012D01*
X0023521Y0016174D01*
X0023425Y0016358D01*
X0023366Y0016557D01*
X0023366Y0016557D01*
X0023366Y0016557D01*
X0023347Y0016763D01*
X0023369Y0016970D01*
X0023369Y0016970D01*
X0023369Y0016970D01*
X0023430Y0017168D01*
X0023529Y0017351D01*
X0023661Y0017511D01*
X0023822Y0017642D01*
X0024006Y0017739D01*
X0024204Y0017799D01*
X0024411Y0017820D01*
X0024421Y0017820D01*
X0024432Y0017820D01*
X0024432Y0017820D01*
G37*
G36*
X0093905Y0019225D02*
X0094231Y0019158D01*
X0094538Y0019029D01*
X0094815Y0018842D01*
X0095050Y0018606D01*
X0095234Y0018328D01*
X0095361Y0018020D01*
X0095426Y0017693D01*
X0095426Y0017693D01*
X0095426Y0017693D01*
X0095421Y0017312D01*
X0095421Y0017311D01*
X0095421Y0017311D01*
X0095347Y0016987D01*
X0095211Y0016682D01*
X0095019Y0016410D01*
X0094778Y0016180D01*
X0094496Y0016001D01*
X0094185Y0015881D01*
X0093857Y0015823D01*
X0093524Y0015830D01*
X0093198Y0015901D01*
X0092893Y0016035D01*
X0092619Y0016225D01*
X0092387Y0016465D01*
X0092207Y0016745D01*
X0092084Y0017055D01*
X0092024Y0017383D01*
X0092028Y0017716D01*
X0092098Y0018043D01*
X0092229Y0018349D01*
X0092417Y0018624D01*
X0092656Y0018857D01*
X0092935Y0019040D01*
X0093244Y0019165D01*
X0093571Y0019227D01*
X0093905Y0019225D01*
X0093905Y0019225D01*
G37*
G36*
X0098985Y0019225D02*
X0099311Y0019158D01*
X0099618Y0019029D01*
X0099895Y0018842D01*
X0100130Y0018606D01*
X0100314Y0018328D01*
X0100441Y0018020D01*
X0100506Y0017693D01*
X0100506Y0017693D01*
X0100506Y0017693D01*
X0100501Y0017312D01*
X0100501Y0017311D01*
X0100501Y0017311D01*
X0100427Y0016987D01*
X0100291Y0016682D01*
X0100099Y0016410D01*
X0099858Y0016180D01*
X0099576Y0016001D01*
X0099265Y0015881D01*
X0098937Y0015823D01*
X0098604Y0015830D01*
X0098278Y0015901D01*
X0097973Y0016035D01*
X0097699Y0016225D01*
X0097467Y0016465D01*
X0097287Y0016745D01*
X0097164Y0017055D01*
X0097104Y0017383D01*
X0097108Y0017716D01*
X0097178Y0018043D01*
X0097309Y0018349D01*
X0097497Y0018624D01*
X0097736Y0018857D01*
X0098015Y0019040D01*
X0098324Y0019165D01*
X0098651Y0019227D01*
X0098985Y0019225D01*
X0098985Y0019225D01*
G37*
G36*
X0002455Y0018590D02*
X0002455Y0018590D01*
X0002459Y0018589D01*
X0002665Y0018566D01*
X0002863Y0018504D01*
X0003045Y0018404D01*
X0003204Y0018270D01*
X0003334Y0018108D01*
X0003430Y0017924D01*
X0003489Y0017725D01*
X0003489Y0017725D01*
X0003489Y0017725D01*
X0003508Y0017519D01*
X0003486Y0017312D01*
X0003486Y0017312D01*
X0003486Y0017312D01*
X0003425Y0017114D01*
X0003326Y0016931D01*
X0003194Y0016771D01*
X0003033Y0016640D01*
X0002850Y0016543D01*
X0002651Y0016483D01*
X0002444Y0016462D01*
X0002128Y0016462D01*
X0002117Y0016462D01*
X0002117Y0016462D01*
X0002113Y0016463D01*
X0001907Y0016486D01*
X0001709Y0016548D01*
X0001527Y0016648D01*
X0001368Y0016782D01*
X0001238Y0016944D01*
X0001142Y0017128D01*
X0001083Y0017327D01*
X0001083Y0017327D01*
X0001083Y0017327D01*
X0001064Y0017533D01*
X0001086Y0017740D01*
X0001086Y0017740D01*
X0001086Y0017740D01*
X0001147Y0017938D01*
X0001246Y0018121D01*
X0001378Y0018281D01*
X0001539Y0018412D01*
X0001722Y0018509D01*
X0001921Y0018569D01*
X0002128Y0018590D01*
X0002444Y0018590D01*
X0002455Y0018590D01*
X0002455Y0018590D01*
G37*
G36*
X0026972Y0020360D02*
X0026972Y0020360D01*
X0026976Y0020359D01*
X0027182Y0020336D01*
X0027380Y0020274D01*
X0027562Y0020174D01*
X0027721Y0020040D01*
X0027851Y0019878D01*
X0027947Y0019694D01*
X0028006Y0019495D01*
X0028006Y0019495D01*
X0028006Y0019495D01*
X0028025Y0019289D01*
X0028003Y0019082D01*
X0028003Y0019082D01*
X0028003Y0019082D01*
X0027942Y0018884D01*
X0027843Y0018701D01*
X0027711Y0018541D01*
X0027550Y0018410D01*
X0027366Y0018313D01*
X0027168Y0018253D01*
X0026961Y0018232D01*
X0026951Y0018232D01*
X0026940Y0018232D01*
X0026940Y0018232D01*
X0026936Y0018233D01*
X0026730Y0018256D01*
X0026532Y0018318D01*
X0026350Y0018418D01*
X0026191Y0018552D01*
X0026061Y0018714D01*
X0025965Y0018898D01*
X0025906Y0019097D01*
X0025906Y0019097D01*
X0025906Y0019097D01*
X0025887Y0019303D01*
X0025909Y0019510D01*
X0025909Y0019510D01*
X0025909Y0019510D01*
X0025970Y0019708D01*
X0026069Y0019891D01*
X0026201Y0020051D01*
X0026362Y0020182D01*
X0026546Y0020279D01*
X0026744Y0020339D01*
X0026951Y0020360D01*
X0026961Y0020360D01*
X0026972Y0020360D01*
X0026972Y0020360D01*
G37*
G36*
X0024432Y0020360D02*
X0024432Y0020360D01*
X0024436Y0020359D01*
X0024642Y0020336D01*
X0024840Y0020274D01*
X0025022Y0020174D01*
X0025181Y0020040D01*
X0025311Y0019878D01*
X0025407Y0019694D01*
X0025466Y0019495D01*
X0025466Y0019495D01*
X0025466Y0019495D01*
X0025485Y0019289D01*
X0025463Y0019082D01*
X0025463Y0019082D01*
X0025463Y0019082D01*
X0025402Y0018884D01*
X0025303Y0018701D01*
X0025171Y0018541D01*
X0025010Y0018410D01*
X0024826Y0018313D01*
X0024628Y0018253D01*
X0024421Y0018232D01*
X0024411Y0018232D01*
X0024400Y0018232D01*
X0024400Y0018232D01*
X0024396Y0018233D01*
X0024190Y0018256D01*
X0023992Y0018318D01*
X0023810Y0018418D01*
X0023651Y0018552D01*
X0023521Y0018714D01*
X0023425Y0018898D01*
X0023366Y0019097D01*
X0023366Y0019097D01*
X0023366Y0019097D01*
X0023347Y0019303D01*
X0023369Y0019510D01*
X0023369Y0019510D01*
X0023369Y0019510D01*
X0023430Y0019708D01*
X0023529Y0019891D01*
X0023661Y0020051D01*
X0023822Y0020182D01*
X0024006Y0020279D01*
X0024204Y0020339D01*
X0024411Y0020360D01*
X0024421Y0020360D01*
X0024432Y0020360D01*
X0024432Y0020360D01*
G37*
G36*
X0002455Y0021130D02*
X0002455Y0021130D01*
X0002459Y0021129D01*
X0002665Y0021106D01*
X0002863Y0021044D01*
X0003045Y0020944D01*
X0003204Y0020810D01*
X0003334Y0020648D01*
X0003430Y0020464D01*
X0003489Y0020265D01*
X0003489Y0020265D01*
X0003489Y0020265D01*
X0003508Y0020059D01*
X0003486Y0019852D01*
X0003486Y0019852D01*
X0003486Y0019852D01*
X0003425Y0019654D01*
X0003326Y0019471D01*
X0003194Y0019311D01*
X0003033Y0019180D01*
X0002850Y0019083D01*
X0002651Y0019023D01*
X0002444Y0019002D01*
X0002128Y0019002D01*
X0002117Y0019002D01*
X0002117Y0019002D01*
X0002113Y0019003D01*
X0001907Y0019026D01*
X0001709Y0019088D01*
X0001527Y0019188D01*
X0001368Y0019322D01*
X0001238Y0019484D01*
X0001142Y0019668D01*
X0001083Y0019867D01*
X0001083Y0019867D01*
X0001083Y0019867D01*
X0001064Y0020073D01*
X0001086Y0020280D01*
X0001086Y0020280D01*
X0001086Y0020280D01*
X0001147Y0020478D01*
X0001246Y0020661D01*
X0001378Y0020821D01*
X0001539Y0020952D01*
X0001722Y0021049D01*
X0001921Y0021109D01*
X0002128Y0021130D01*
X0002444Y0021130D01*
X0002455Y0021130D01*
X0002455Y0021130D01*
G37*
G36*
X0026972Y0022900D02*
X0026972Y0022900D01*
X0026976Y0022899D01*
X0027182Y0022876D01*
X0027380Y0022814D01*
X0027562Y0022714D01*
X0027721Y0022580D01*
X0027851Y0022418D01*
X0027947Y0022234D01*
X0028006Y0022035D01*
X0028006Y0022035D01*
X0028006Y0022035D01*
X0028025Y0021829D01*
X0028003Y0021622D01*
X0028003Y0021622D01*
X0028003Y0021622D01*
X0027942Y0021424D01*
X0027843Y0021241D01*
X0027711Y0021081D01*
X0027550Y0020950D01*
X0027366Y0020853D01*
X0027168Y0020793D01*
X0026961Y0020772D01*
X0026951Y0020772D01*
X0026940Y0020772D01*
X0026940Y0020772D01*
X0026936Y0020773D01*
X0026730Y0020796D01*
X0026532Y0020858D01*
X0026350Y0020958D01*
X0026191Y0021092D01*
X0026061Y0021254D01*
X0025965Y0021438D01*
X0025906Y0021637D01*
X0025906Y0021637D01*
X0025906Y0021637D01*
X0025887Y0021843D01*
X0025909Y0022050D01*
X0025909Y0022050D01*
X0025909Y0022050D01*
X0025970Y0022248D01*
X0026069Y0022431D01*
X0026201Y0022591D01*
X0026362Y0022722D01*
X0026546Y0022819D01*
X0026744Y0022879D01*
X0026951Y0022900D01*
X0026961Y0022900D01*
X0026972Y0022900D01*
X0026972Y0022900D01*
G37*
G36*
X0024432Y0022900D02*
X0024432Y0022900D01*
X0024436Y0022899D01*
X0024642Y0022876D01*
X0024840Y0022814D01*
X0025022Y0022714D01*
X0025181Y0022580D01*
X0025311Y0022418D01*
X0025407Y0022234D01*
X0025466Y0022035D01*
X0025466Y0022035D01*
X0025466Y0022035D01*
X0025485Y0021829D01*
X0025463Y0021622D01*
X0025463Y0021622D01*
X0025463Y0021622D01*
X0025402Y0021424D01*
X0025303Y0021241D01*
X0025171Y0021081D01*
X0025010Y0020950D01*
X0024826Y0020853D01*
X0024628Y0020793D01*
X0024421Y0020772D01*
X0024411Y0020772D01*
X0024400Y0020772D01*
X0024400Y0020772D01*
X0024396Y0020773D01*
X0024190Y0020796D01*
X0023992Y0020858D01*
X0023810Y0020958D01*
X0023651Y0021092D01*
X0023521Y0021254D01*
X0023425Y0021438D01*
X0023366Y0021637D01*
X0023366Y0021637D01*
X0023366Y0021637D01*
X0023347Y0021843D01*
X0023369Y0022050D01*
X0023369Y0022050D01*
X0023369Y0022050D01*
X0023430Y0022248D01*
X0023529Y0022431D01*
X0023661Y0022591D01*
X0023822Y0022722D01*
X0024006Y0022819D01*
X0024204Y0022879D01*
X0024411Y0022900D01*
X0024421Y0022900D01*
X0024432Y0022900D01*
X0024432Y0022900D01*
G37*
G36*
X0002455Y0023670D02*
X0002455Y0023670D01*
X0002459Y0023669D01*
X0002665Y0023646D01*
X0002863Y0023584D01*
X0003045Y0023484D01*
X0003204Y0023350D01*
X0003334Y0023188D01*
X0003430Y0023004D01*
X0003489Y0022805D01*
X0003489Y0022805D01*
X0003489Y0022805D01*
X0003508Y0022599D01*
X0003486Y0022392D01*
X0003486Y0022392D01*
X0003486Y0022392D01*
X0003425Y0022194D01*
X0003326Y0022011D01*
X0003194Y0021851D01*
X0003033Y0021720D01*
X0002850Y0021623D01*
X0002651Y0021563D01*
X0002444Y0021542D01*
X0002128Y0021542D01*
X0002117Y0021542D01*
X0002117Y0021542D01*
X0002113Y0021543D01*
X0001907Y0021566D01*
X0001709Y0021628D01*
X0001527Y0021728D01*
X0001368Y0021862D01*
X0001238Y0022024D01*
X0001142Y0022208D01*
X0001083Y0022407D01*
X0001083Y0022407D01*
X0001083Y0022407D01*
X0001064Y0022613D01*
X0001086Y0022820D01*
X0001086Y0022820D01*
X0001086Y0022820D01*
X0001147Y0023018D01*
X0001246Y0023201D01*
X0001378Y0023361D01*
X0001539Y0023492D01*
X0001722Y0023589D01*
X0001921Y0023649D01*
X0002128Y0023670D01*
X0002444Y0023670D01*
X0002455Y0023670D01*
X0002455Y0023670D01*
G37*
G36*
X0026972Y0025440D02*
X0026972Y0025440D01*
X0026976Y0025439D01*
X0027182Y0025416D01*
X0027380Y0025354D01*
X0027562Y0025254D01*
X0027721Y0025120D01*
X0027851Y0024958D01*
X0027947Y0024774D01*
X0028006Y0024575D01*
X0028006Y0024575D01*
X0028006Y0024575D01*
X0028025Y0024369D01*
X0028003Y0024162D01*
X0028003Y0024162D01*
X0028003Y0024162D01*
X0027942Y0023964D01*
X0027843Y0023781D01*
X0027711Y0023621D01*
X0027550Y0023490D01*
X0027366Y0023393D01*
X0027168Y0023333D01*
X0026961Y0023312D01*
X0026951Y0023312D01*
X0026940Y0023312D01*
X0026940Y0023312D01*
X0026936Y0023313D01*
X0026730Y0023336D01*
X0026532Y0023398D01*
X0026350Y0023498D01*
X0026191Y0023632D01*
X0026061Y0023794D01*
X0025965Y0023978D01*
X0025906Y0024177D01*
X0025906Y0024177D01*
X0025906Y0024177D01*
X0025887Y0024383D01*
X0025909Y0024590D01*
X0025909Y0024590D01*
X0025909Y0024590D01*
X0025970Y0024788D01*
X0026069Y0024971D01*
X0026201Y0025131D01*
X0026362Y0025262D01*
X0026546Y0025359D01*
X0026744Y0025419D01*
X0026951Y0025440D01*
X0026961Y0025440D01*
X0026972Y0025440D01*
X0026972Y0025440D01*
G37*
G36*
X0024432Y0025440D02*
X0024432Y0025440D01*
X0024436Y0025439D01*
X0024642Y0025416D01*
X0024840Y0025354D01*
X0025022Y0025254D01*
X0025181Y0025120D01*
X0025311Y0024958D01*
X0025407Y0024774D01*
X0025466Y0024575D01*
X0025466Y0024575D01*
X0025466Y0024575D01*
X0025485Y0024369D01*
X0025463Y0024162D01*
X0025463Y0024162D01*
X0025463Y0024162D01*
X0025402Y0023964D01*
X0025303Y0023781D01*
X0025171Y0023621D01*
X0025010Y0023490D01*
X0024826Y0023393D01*
X0024628Y0023333D01*
X0024421Y0023312D01*
X0024411Y0023312D01*
X0024400Y0023312D01*
X0024400Y0023312D01*
X0024396Y0023313D01*
X0024190Y0023336D01*
X0023992Y0023398D01*
X0023810Y0023498D01*
X0023651Y0023632D01*
X0023521Y0023794D01*
X0023425Y0023978D01*
X0023366Y0024177D01*
X0023366Y0024177D01*
X0023366Y0024177D01*
X0023347Y0024383D01*
X0023369Y0024590D01*
X0023369Y0024590D01*
X0023369Y0024590D01*
X0023430Y0024788D01*
X0023529Y0024971D01*
X0023661Y0025131D01*
X0023822Y0025262D01*
X0024006Y0025359D01*
X0024204Y0025419D01*
X0024411Y0025440D01*
X0024421Y0025440D01*
X0024432Y0025440D01*
X0024432Y0025440D01*
G37*
G36*
X0003502Y0024082D02*
X0001070Y0024082D01*
X0001070Y0026210D01*
X0003502Y0026210D01*
X0003502Y0024082D01*
X0003502Y0024082D01*
G37*
G36*
X0024432Y0027980D02*
X0024432Y0027980D01*
X0024436Y0027979D01*
X0024642Y0027956D01*
X0024840Y0027894D01*
X0025022Y0027794D01*
X0025181Y0027660D01*
X0025311Y0027498D01*
X0025407Y0027314D01*
X0025466Y0027115D01*
X0025466Y0027115D01*
X0025466Y0027115D01*
X0025485Y0026909D01*
X0025463Y0026702D01*
X0025463Y0026702D01*
X0025463Y0026702D01*
X0025402Y0026504D01*
X0025303Y0026321D01*
X0025171Y0026161D01*
X0025010Y0026030D01*
X0024826Y0025933D01*
X0024628Y0025873D01*
X0024421Y0025852D01*
X0024411Y0025852D01*
X0024400Y0025852D01*
X0024400Y0025852D01*
X0024396Y0025853D01*
X0024190Y0025876D01*
X0023992Y0025938D01*
X0023810Y0026038D01*
X0023651Y0026172D01*
X0023521Y0026334D01*
X0023425Y0026518D01*
X0023366Y0026717D01*
X0023366Y0026717D01*
X0023366Y0026717D01*
X0023347Y0026923D01*
X0023369Y0027130D01*
X0023369Y0027130D01*
X0023369Y0027130D01*
X0023430Y0027328D01*
X0023529Y0027511D01*
X0023661Y0027671D01*
X0023822Y0027802D01*
X0024006Y0027899D01*
X0024204Y0027959D01*
X0024411Y0027980D01*
X0024421Y0027980D01*
X0024432Y0027980D01*
X0024432Y0027980D01*
G37*
G36*
X0026972Y0027980D02*
X0026972Y0027980D01*
X0026976Y0027979D01*
X0027182Y0027956D01*
X0027380Y0027894D01*
X0027562Y0027794D01*
X0027721Y0027660D01*
X0027851Y0027498D01*
X0027947Y0027314D01*
X0028006Y0027115D01*
X0028006Y0027115D01*
X0028006Y0027115D01*
X0028025Y0026909D01*
X0028003Y0026702D01*
X0028003Y0026702D01*
X0028003Y0026702D01*
X0027942Y0026504D01*
X0027843Y0026321D01*
X0027711Y0026161D01*
X0027550Y0026030D01*
X0027366Y0025933D01*
X0027168Y0025873D01*
X0026961Y0025852D01*
X0026951Y0025852D01*
X0026940Y0025852D01*
X0026940Y0025852D01*
X0026936Y0025853D01*
X0026730Y0025876D01*
X0026532Y0025938D01*
X0026350Y0026038D01*
X0026191Y0026172D01*
X0026061Y0026334D01*
X0025965Y0026518D01*
X0025906Y0026717D01*
X0025906Y0026717D01*
X0025906Y0026717D01*
X0025887Y0026923D01*
X0025909Y0027130D01*
X0025909Y0027130D01*
X0025909Y0027130D01*
X0025970Y0027328D01*
X0026069Y0027511D01*
X0026201Y0027671D01*
X0026362Y0027802D01*
X0026546Y0027899D01*
X0026744Y0027959D01*
X0026951Y0027980D01*
X0026961Y0027980D01*
X0026972Y0027980D01*
X0026972Y0027980D01*
G37*
G36*
X0024432Y0030520D02*
X0024432Y0030520D01*
X0024436Y0030519D01*
X0024642Y0030496D01*
X0024840Y0030434D01*
X0025022Y0030334D01*
X0025181Y0030200D01*
X0025311Y0030038D01*
X0025407Y0029854D01*
X0025466Y0029655D01*
X0025466Y0029655D01*
X0025466Y0029655D01*
X0025485Y0029449D01*
X0025463Y0029242D01*
X0025463Y0029242D01*
X0025463Y0029242D01*
X0025402Y0029044D01*
X0025303Y0028861D01*
X0025171Y0028701D01*
X0025010Y0028570D01*
X0024826Y0028473D01*
X0024628Y0028413D01*
X0024421Y0028392D01*
X0024411Y0028392D01*
X0024400Y0028392D01*
X0024400Y0028392D01*
X0024396Y0028393D01*
X0024190Y0028416D01*
X0023992Y0028478D01*
X0023810Y0028578D01*
X0023651Y0028712D01*
X0023521Y0028874D01*
X0023425Y0029058D01*
X0023366Y0029257D01*
X0023366Y0029257D01*
X0023366Y0029257D01*
X0023347Y0029463D01*
X0023369Y0029670D01*
X0023369Y0029670D01*
X0023369Y0029670D01*
X0023430Y0029868D01*
X0023529Y0030051D01*
X0023661Y0030211D01*
X0023822Y0030342D01*
X0024006Y0030439D01*
X0024204Y0030499D01*
X0024411Y0030520D01*
X0024421Y0030520D01*
X0024432Y0030520D01*
X0024432Y0030520D01*
G37*
G36*
X0026972Y0030520D02*
X0026972Y0030520D01*
X0026976Y0030519D01*
X0027182Y0030496D01*
X0027380Y0030434D01*
X0027562Y0030334D01*
X0027721Y0030200D01*
X0027851Y0030038D01*
X0027947Y0029854D01*
X0028006Y0029655D01*
X0028006Y0029655D01*
X0028006Y0029655D01*
X0028025Y0029449D01*
X0028003Y0029242D01*
X0028003Y0029242D01*
X0028003Y0029242D01*
X0027942Y0029044D01*
X0027843Y0028861D01*
X0027711Y0028701D01*
X0027550Y0028570D01*
X0027366Y0028473D01*
X0027168Y0028413D01*
X0026961Y0028392D01*
X0026951Y0028392D01*
X0026940Y0028392D01*
X0026940Y0028392D01*
X0026936Y0028393D01*
X0026730Y0028416D01*
X0026532Y0028478D01*
X0026350Y0028578D01*
X0026191Y0028712D01*
X0026061Y0028874D01*
X0025965Y0029058D01*
X0025906Y0029257D01*
X0025906Y0029257D01*
X0025906Y0029257D01*
X0025887Y0029463D01*
X0025909Y0029670D01*
X0025909Y0029670D01*
X0025909Y0029670D01*
X0025970Y0029868D01*
X0026069Y0030051D01*
X0026201Y0030211D01*
X0026362Y0030342D01*
X0026546Y0030439D01*
X0026744Y0030499D01*
X0026951Y0030520D01*
X0026961Y0030520D01*
X0026972Y0030520D01*
X0026972Y0030520D01*
G37*
G36*
X0026972Y0033060D02*
X0026972Y0033060D01*
X0026976Y0033059D01*
X0027182Y0033036D01*
X0027380Y0032974D01*
X0027562Y0032874D01*
X0027721Y0032740D01*
X0027851Y0032578D01*
X0027947Y0032394D01*
X0028006Y0032195D01*
X0028006Y0032195D01*
X0028006Y0032195D01*
X0028025Y0031989D01*
X0028003Y0031782D01*
X0028003Y0031782D01*
X0028003Y0031782D01*
X0027942Y0031584D01*
X0027843Y0031401D01*
X0027711Y0031241D01*
X0027550Y0031110D01*
X0027366Y0031013D01*
X0027168Y0030953D01*
X0026961Y0030932D01*
X0026951Y0030932D01*
X0026940Y0030932D01*
X0026940Y0030932D01*
X0026936Y0030933D01*
X0026730Y0030956D01*
X0026532Y0031018D01*
X0026350Y0031118D01*
X0026191Y0031252D01*
X0026061Y0031414D01*
X0025965Y0031598D01*
X0025906Y0031797D01*
X0025906Y0031797D01*
X0025906Y0031797D01*
X0025887Y0032003D01*
X0025909Y0032210D01*
X0025909Y0032210D01*
X0025909Y0032210D01*
X0025970Y0032408D01*
X0026069Y0032591D01*
X0026201Y0032751D01*
X0026362Y0032882D01*
X0026546Y0032979D01*
X0026744Y0033039D01*
X0026951Y0033060D01*
X0026961Y0033060D01*
X0026972Y0033060D01*
X0026972Y0033060D01*
G37*
G36*
X0024432Y0033060D02*
X0024432Y0033060D01*
X0024436Y0033059D01*
X0024642Y0033036D01*
X0024840Y0032974D01*
X0025022Y0032874D01*
X0025181Y0032740D01*
X0025311Y0032578D01*
X0025407Y0032394D01*
X0025466Y0032195D01*
X0025466Y0032195D01*
X0025466Y0032195D01*
X0025485Y0031989D01*
X0025463Y0031782D01*
X0025463Y0031782D01*
X0025463Y0031782D01*
X0025402Y0031584D01*
X0025303Y0031401D01*
X0025171Y0031241D01*
X0025010Y0031110D01*
X0024826Y0031013D01*
X0024628Y0030953D01*
X0024421Y0030932D01*
X0024411Y0030932D01*
X0024400Y0030932D01*
X0024400Y0030932D01*
X0024396Y0030933D01*
X0024190Y0030956D01*
X0023992Y0031018D01*
X0023810Y0031118D01*
X0023651Y0031252D01*
X0023521Y0031414D01*
X0023425Y0031598D01*
X0023366Y0031797D01*
X0023366Y0031797D01*
X0023366Y0031797D01*
X0023347Y0032003D01*
X0023369Y0032210D01*
X0023369Y0032210D01*
X0023369Y0032210D01*
X0023430Y0032408D01*
X0023529Y0032591D01*
X0023661Y0032751D01*
X0023822Y0032882D01*
X0024006Y0032979D01*
X0024204Y0033039D01*
X0024411Y0033060D01*
X0024421Y0033060D01*
X0024432Y0033060D01*
X0024432Y0033060D01*
G37*
G36*
X0093905Y0036370D02*
X0094231Y0036303D01*
X0094538Y0036174D01*
X0094815Y0035987D01*
X0095050Y0035751D01*
X0095234Y0035473D01*
X0095361Y0035165D01*
X0095426Y0034838D01*
X0095426Y0034838D01*
X0095426Y0034838D01*
X0095421Y0034457D01*
X0095421Y0034456D01*
X0095421Y0034456D01*
X0095347Y0034132D01*
X0095211Y0033827D01*
X0095019Y0033555D01*
X0094778Y0033325D01*
X0094496Y0033146D01*
X0094185Y0033026D01*
X0093857Y0032968D01*
X0093524Y0032975D01*
X0093198Y0033046D01*
X0092893Y0033180D01*
X0092619Y0033370D01*
X0092387Y0033610D01*
X0092207Y0033890D01*
X0092084Y0034200D01*
X0092024Y0034528D01*
X0092028Y0034861D01*
X0092098Y0035188D01*
X0092229Y0035494D01*
X0092417Y0035769D01*
X0092656Y0036002D01*
X0092935Y0036185D01*
X0093244Y0036310D01*
X0093571Y0036372D01*
X0093905Y0036370D01*
X0093905Y0036370D01*
G37*
G36*
X0098985Y0036370D02*
X0099311Y0036303D01*
X0099618Y0036174D01*
X0099895Y0035987D01*
X0100130Y0035751D01*
X0100314Y0035473D01*
X0100441Y0035165D01*
X0100506Y0034838D01*
X0100506Y0034838D01*
X0100506Y0034838D01*
X0100501Y0034457D01*
X0100501Y0034456D01*
X0100501Y0034456D01*
X0100427Y0034132D01*
X0100291Y0033827D01*
X0100099Y0033555D01*
X0099858Y0033325D01*
X0099576Y0033146D01*
X0099265Y0033026D01*
X0098937Y0032968D01*
X0098604Y0032975D01*
X0098278Y0033046D01*
X0097973Y0033180D01*
X0097699Y0033370D01*
X0097467Y0033610D01*
X0097287Y0033890D01*
X0097164Y0034200D01*
X0097104Y0034528D01*
X0097108Y0034861D01*
X0097178Y0035188D01*
X0097309Y0035494D01*
X0097497Y0035769D01*
X0097736Y0036002D01*
X0098015Y0036185D01*
X0098324Y0036310D01*
X0098651Y0036372D01*
X0098985Y0036370D01*
X0098985Y0036370D01*
G37*
G36*
X0024432Y0035600D02*
X0024432Y0035600D01*
X0024436Y0035599D01*
X0024642Y0035576D01*
X0024840Y0035514D01*
X0025022Y0035414D01*
X0025181Y0035280D01*
X0025311Y0035118D01*
X0025407Y0034934D01*
X0025466Y0034735D01*
X0025466Y0034735D01*
X0025466Y0034735D01*
X0025485Y0034529D01*
X0025463Y0034322D01*
X0025463Y0034322D01*
X0025463Y0034322D01*
X0025402Y0034124D01*
X0025303Y0033941D01*
X0025171Y0033781D01*
X0025010Y0033650D01*
X0024826Y0033553D01*
X0024628Y0033493D01*
X0024421Y0033472D01*
X0024411Y0033472D01*
X0024400Y0033472D01*
X0024400Y0033472D01*
X0024396Y0033473D01*
X0024190Y0033496D01*
X0023992Y0033558D01*
X0023810Y0033658D01*
X0023651Y0033792D01*
X0023521Y0033954D01*
X0023425Y0034138D01*
X0023366Y0034337D01*
X0023366Y0034337D01*
X0023366Y0034337D01*
X0023347Y0034543D01*
X0023369Y0034750D01*
X0023369Y0034750D01*
X0023369Y0034750D01*
X0023430Y0034948D01*
X0023529Y0035131D01*
X0023661Y0035291D01*
X0023822Y0035422D01*
X0024006Y0035519D01*
X0024204Y0035579D01*
X0024411Y0035600D01*
X0024421Y0035600D01*
X0024432Y0035600D01*
X0024432Y0035600D01*
G37*
G36*
X0026972Y0035600D02*
X0026972Y0035600D01*
X0026976Y0035599D01*
X0027182Y0035576D01*
X0027380Y0035514D01*
X0027562Y0035414D01*
X0027721Y0035280D01*
X0027851Y0035118D01*
X0027947Y0034934D01*
X0028006Y0034735D01*
X0028006Y0034735D01*
X0028006Y0034735D01*
X0028025Y0034529D01*
X0028003Y0034322D01*
X0028003Y0034322D01*
X0028003Y0034322D01*
X0027942Y0034124D01*
X0027843Y0033941D01*
X0027711Y0033781D01*
X0027550Y0033650D01*
X0027366Y0033553D01*
X0027168Y0033493D01*
X0026961Y0033472D01*
X0026951Y0033472D01*
X0026940Y0033472D01*
X0026940Y0033472D01*
X0026936Y0033473D01*
X0026730Y0033496D01*
X0026532Y0033558D01*
X0026350Y0033658D01*
X0026191Y0033792D01*
X0026061Y0033954D01*
X0025965Y0034138D01*
X0025906Y0034337D01*
X0025906Y0034337D01*
X0025906Y0034337D01*
X0025887Y0034543D01*
X0025909Y0034750D01*
X0025909Y0034750D01*
X0025909Y0034750D01*
X0025970Y0034948D01*
X0026069Y0035131D01*
X0026201Y0035291D01*
X0026362Y0035422D01*
X0026546Y0035519D01*
X0026744Y0035579D01*
X0026951Y0035600D01*
X0026961Y0035600D01*
X0026972Y0035600D01*
X0026972Y0035600D01*
G37*
G36*
X0084917Y0039845D02*
X0085340Y0039758D01*
X0085737Y0039591D01*
X0086095Y0039349D01*
X0086399Y0039043D01*
X0086638Y0038684D01*
X0086802Y0038285D01*
X0086886Y0037862D01*
X0086886Y0037862D01*
X0086886Y0037862D01*
X0086879Y0037369D01*
X0086879Y0037368D01*
X0086879Y0037368D01*
X0086784Y0036948D01*
X0086608Y0036554D01*
X0086359Y0036202D01*
X0086047Y0035904D01*
X0085683Y0035673D01*
X0085280Y0035517D01*
X0084856Y0035442D01*
X0084424Y0035451D01*
X0084003Y0035544D01*
X0083608Y0035716D01*
X0083253Y0035963D01*
X0082954Y0036273D01*
X0082720Y0036636D01*
X0082561Y0037037D01*
X0082483Y0037461D01*
X0082489Y0037892D01*
X0082579Y0038314D01*
X0082749Y0038711D01*
X0082993Y0039067D01*
X0083301Y0039369D01*
X0083662Y0039605D01*
X0084062Y0039767D01*
X0084486Y0039848D01*
X0084917Y0039845D01*
X0084917Y0039845D01*
G37*
G36*
X0018917Y0039845D02*
X0019340Y0039758D01*
X0019737Y0039591D01*
X0020095Y0039349D01*
X0020399Y0039043D01*
X0020638Y0038684D01*
X0020802Y0038285D01*
X0020886Y0037862D01*
X0020886Y0037862D01*
X0020886Y0037862D01*
X0020879Y0037369D01*
X0020879Y0037368D01*
X0020879Y0037368D01*
X0020784Y0036948D01*
X0020608Y0036554D01*
X0020359Y0036202D01*
X0020047Y0035904D01*
X0019683Y0035673D01*
X0019280Y0035517D01*
X0018856Y0035442D01*
X0018424Y0035451D01*
X0018003Y0035544D01*
X0017608Y0035716D01*
X0017253Y0035963D01*
X0016954Y0036273D01*
X0016720Y0036636D01*
X0016561Y0037037D01*
X0016483Y0037461D01*
X0016489Y0037892D01*
X0016579Y0038314D01*
X0016749Y0038711D01*
X0016993Y0039067D01*
X0017301Y0039369D01*
X0017662Y0039605D01*
X0018062Y0039767D01*
X0018486Y0039848D01*
X0018917Y0039845D01*
X0018917Y0039845D01*
G37*
G36*
X0096424Y0038710D02*
X0096712Y0038651D01*
X0096983Y0038537D01*
X0097227Y0038372D01*
X0097434Y0038164D01*
X0097597Y0037919D01*
X0097709Y0037647D01*
X0097766Y0037359D01*
X0097766Y0037359D01*
X0097766Y0037358D01*
X0097761Y0037022D01*
X0097761Y0037021D01*
X0097761Y0037021D01*
X0097696Y0036735D01*
X0097577Y0036466D01*
X0097407Y0036226D01*
X0097194Y0036023D01*
X0096946Y0035866D01*
X0096671Y0035759D01*
X0096382Y0035708D01*
X0096088Y0035714D01*
X0095800Y0035778D01*
X0095531Y0035895D01*
X0095289Y0036063D01*
X0095085Y0036275D01*
X0094925Y0036522D01*
X0094817Y0036796D01*
X0094764Y0037085D01*
X0094768Y0037379D01*
X0094829Y0037667D01*
X0094945Y0037937D01*
X0095111Y0038180D01*
X0095322Y0038386D01*
X0095568Y0038547D01*
X0095840Y0038657D01*
X0096129Y0038712D01*
X0096424Y0038710D01*
X0096424Y0038710D01*
G37*
G36*
X0024432Y0038140D02*
X0024432Y0038140D01*
X0024436Y0038139D01*
X0024642Y0038116D01*
X0024840Y0038054D01*
X0025022Y0037954D01*
X0025181Y0037820D01*
X0025311Y0037658D01*
X0025407Y0037474D01*
X0025466Y0037275D01*
X0025466Y0037275D01*
X0025466Y0037275D01*
X0025485Y0037069D01*
X0025463Y0036862D01*
X0025463Y0036862D01*
X0025463Y0036862D01*
X0025402Y0036664D01*
X0025303Y0036481D01*
X0025171Y0036321D01*
X0025010Y0036190D01*
X0024826Y0036093D01*
X0024628Y0036033D01*
X0024421Y0036012D01*
X0024411Y0036012D01*
X0024400Y0036012D01*
X0024400Y0036012D01*
X0024396Y0036013D01*
X0024190Y0036036D01*
X0023992Y0036098D01*
X0023810Y0036198D01*
X0023651Y0036332D01*
X0023521Y0036494D01*
X0023425Y0036678D01*
X0023366Y0036877D01*
X0023366Y0036877D01*
X0023366Y0036877D01*
X0023347Y0037083D01*
X0023369Y0037290D01*
X0023369Y0037290D01*
X0023369Y0037290D01*
X0023430Y0037488D01*
X0023529Y0037671D01*
X0023661Y0037831D01*
X0023822Y0037962D01*
X0024006Y0038059D01*
X0024204Y0038119D01*
X0024411Y0038140D01*
X0024421Y0038140D01*
X0024432Y0038140D01*
X0024432Y0038140D01*
G37*
G36*
X0028020Y0036012D02*
X0025892Y0036012D01*
X0025892Y0038140D01*
X0028020Y0038140D01*
X0028020Y0036012D01*
X0028020Y0036012D01*
G37*
G36*
X0098985Y0041450D02*
X0099311Y0041383D01*
X0099618Y0041254D01*
X0099895Y0041067D01*
X0100130Y0040831D01*
X0100314Y0040553D01*
X0100441Y0040245D01*
X0100506Y0039918D01*
X0100506Y0039918D01*
X0100506Y0039918D01*
X0100501Y0039537D01*
X0100501Y0039536D01*
X0100501Y0039536D01*
X0100427Y0039212D01*
X0100291Y0038907D01*
X0100099Y0038635D01*
X0099858Y0038405D01*
X0099576Y0038226D01*
X0099265Y0038106D01*
X0098937Y0038048D01*
X0098604Y0038055D01*
X0098278Y0038126D01*
X0097973Y0038260D01*
X0097699Y0038450D01*
X0097467Y0038690D01*
X0097287Y0038970D01*
X0097164Y0039280D01*
X0097104Y0039608D01*
X0097108Y0039941D01*
X0097178Y0040268D01*
X0097309Y0040574D01*
X0097497Y0040849D01*
X0097736Y0041082D01*
X0098015Y0041265D01*
X0098324Y0041390D01*
X0098651Y0041452D01*
X0098985Y0041450D01*
X0098985Y0041450D01*
G37*
G36*
X0093905Y0041450D02*
X0094231Y0041383D01*
X0094538Y0041254D01*
X0094815Y0041067D01*
X0095050Y0040831D01*
X0095234Y0040553D01*
X0095361Y0040245D01*
X0095426Y0039918D01*
X0095426Y0039918D01*
X0095426Y0039918D01*
X0095421Y0039537D01*
X0095421Y0039536D01*
X0095421Y0039536D01*
X0095347Y0039212D01*
X0095211Y0038907D01*
X0095019Y0038635D01*
X0094778Y0038405D01*
X0094496Y0038226D01*
X0094185Y0038106D01*
X0093857Y0038048D01*
X0093524Y0038055D01*
X0093198Y0038126D01*
X0092893Y0038260D01*
X0092619Y0038450D01*
X0092387Y0038690D01*
X0092207Y0038970D01*
X0092084Y0039280D01*
X0092024Y0039608D01*
X0092028Y0039941D01*
X0092098Y0040268D01*
X0092229Y0040574D01*
X0092417Y0040849D01*
X0092656Y0041082D01*
X0092935Y0041265D01*
X0093244Y0041390D01*
X0093571Y0041452D01*
X0093905Y0041450D01*
X0093905Y0041450D01*
G37*
G36*
X0096707Y0049663D02*
X0097514Y0049498D01*
X0098273Y0049178D01*
X0098956Y0048718D01*
X0099537Y0048133D01*
X0099992Y0047447D01*
X0100306Y0046686D01*
X0100466Y0045879D01*
X0100466Y0045878D01*
X0100466Y0045878D01*
X0100453Y0044937D01*
X0100453Y0044936D01*
X0100453Y0044936D01*
X0100271Y0044134D01*
X0099936Y0043381D01*
X0099461Y0042708D01*
X0098864Y0042140D01*
X0098169Y0041699D01*
X0097401Y0041401D01*
X0096590Y0041258D01*
X0095766Y0041275D01*
X0094962Y0041452D01*
X0094207Y0041782D01*
X0093531Y0042252D01*
X0092959Y0042845D01*
X0092512Y0043537D01*
X0092209Y0044303D01*
X0092060Y0045113D01*
X0092072Y0045936D01*
X0092243Y0046742D01*
X0092568Y0047499D01*
X0093033Y0048179D01*
X0093622Y0048755D01*
X0094311Y0049206D01*
X0095074Y0049515D01*
X0095884Y0049669D01*
X0096707Y0049663D01*
X0096707Y0049663D01*
G37*
G36*
X0005267Y0049663D02*
X0006074Y0049498D01*
X0006833Y0049178D01*
X0007516Y0048718D01*
X0008097Y0048133D01*
X0008552Y0047447D01*
X0008866Y0046686D01*
X0009026Y0045879D01*
X0009026Y0045878D01*
X0009026Y0045878D01*
X0009013Y0044937D01*
X0009013Y0044936D01*
X0009013Y0044936D01*
X0008831Y0044134D01*
X0008496Y0043381D01*
X0008021Y0042708D01*
X0007424Y0042140D01*
X0006729Y0041699D01*
X0005961Y0041401D01*
X0005150Y0041258D01*
X0004326Y0041275D01*
X0003522Y0041452D01*
X0002767Y0041782D01*
X0002091Y0042252D01*
X0001519Y0042845D01*
X0001072Y0043537D01*
X0000769Y0044303D01*
X0000620Y0045113D01*
X0000632Y0045936D01*
X0000803Y0046742D01*
X0001128Y0047499D01*
X0001593Y0048179D01*
X0002182Y0048755D01*
X0002871Y0049206D01*
X0003634Y0049515D01*
X0004444Y0049669D01*
X0005267Y0049663D01*
X0005267Y0049663D01*
G37*
G36*
X0055840Y0046666D02*
X0055840Y0046666D01*
X0055840Y0046666D01*
X0056038Y0046605D01*
X0056221Y0046506D01*
X0056381Y0046374D01*
X0056512Y0046213D01*
X0056609Y0046030D01*
X0056669Y0045831D01*
X0056690Y0045624D01*
X0056690Y0045308D01*
X0056690Y0045297D01*
X0056690Y0045297D01*
X0056689Y0045293D01*
X0056666Y0045087D01*
X0056604Y0044889D01*
X0056504Y0044707D01*
X0056370Y0044548D01*
X0056208Y0044418D01*
X0056024Y0044322D01*
X0055825Y0044263D01*
X0055825Y0044263D01*
X0055825Y0044263D01*
X0055619Y0044244D01*
X0055412Y0044266D01*
X0055412Y0044266D01*
X0055412Y0044266D01*
X0055214Y0044327D01*
X0055031Y0044426D01*
X0054871Y0044558D01*
X0054740Y0044719D01*
X0054643Y0044902D01*
X0054583Y0045101D01*
X0054562Y0045308D01*
X0054562Y0045624D01*
X0054562Y0045635D01*
X0054562Y0045635D01*
X0054563Y0045639D01*
X0054586Y0045845D01*
X0054648Y0046043D01*
X0054748Y0046225D01*
X0054882Y0046384D01*
X0055044Y0046514D01*
X0055228Y0046610D01*
X0055427Y0046669D01*
X0055427Y0046669D01*
X0055427Y0046669D01*
X0055633Y0046688D01*
X0055840Y0046666D01*
X0055840Y0046666D01*
G37*
G36*
X0053300Y0046666D02*
X0053300Y0046666D01*
X0053300Y0046666D01*
X0053498Y0046605D01*
X0053681Y0046506D01*
X0053841Y0046374D01*
X0053972Y0046213D01*
X0054069Y0046030D01*
X0054129Y0045831D01*
X0054150Y0045624D01*
X0054150Y0045308D01*
X0054150Y0045297D01*
X0054150Y0045297D01*
X0054149Y0045293D01*
X0054126Y0045087D01*
X0054064Y0044889D01*
X0053964Y0044707D01*
X0053830Y0044548D01*
X0053668Y0044418D01*
X0053484Y0044322D01*
X0053285Y0044263D01*
X0053285Y0044263D01*
X0053285Y0044263D01*
X0053079Y0044244D01*
X0052872Y0044266D01*
X0052872Y0044266D01*
X0052872Y0044266D01*
X0052674Y0044327D01*
X0052491Y0044426D01*
X0052331Y0044558D01*
X0052200Y0044719D01*
X0052103Y0044902D01*
X0052043Y0045101D01*
X0052022Y0045308D01*
X0052022Y0045624D01*
X0052022Y0045635D01*
X0052022Y0045635D01*
X0052023Y0045639D01*
X0052046Y0045845D01*
X0052108Y0046043D01*
X0052208Y0046225D01*
X0052342Y0046384D01*
X0052504Y0046514D01*
X0052688Y0046610D01*
X0052887Y0046669D01*
X0052887Y0046669D01*
X0052887Y0046669D01*
X0053093Y0046688D01*
X0053300Y0046666D01*
X0053300Y0046666D01*
G37*
G36*
X0050760Y0046666D02*
X0050760Y0046666D01*
X0050760Y0046666D01*
X0050958Y0046605D01*
X0051141Y0046506D01*
X0051301Y0046374D01*
X0051432Y0046213D01*
X0051529Y0046030D01*
X0051589Y0045831D01*
X0051610Y0045624D01*
X0051610Y0045308D01*
X0051610Y0045297D01*
X0051610Y0045297D01*
X0051609Y0045293D01*
X0051586Y0045087D01*
X0051524Y0044889D01*
X0051424Y0044707D01*
X0051290Y0044548D01*
X0051128Y0044418D01*
X0050944Y0044322D01*
X0050745Y0044263D01*
X0050745Y0044263D01*
X0050745Y0044263D01*
X0050539Y0044244D01*
X0050332Y0044266D01*
X0050332Y0044266D01*
X0050332Y0044266D01*
X0050134Y0044327D01*
X0049951Y0044426D01*
X0049791Y0044558D01*
X0049660Y0044719D01*
X0049563Y0044902D01*
X0049503Y0045101D01*
X0049482Y0045308D01*
X0049482Y0045624D01*
X0049482Y0045635D01*
X0049482Y0045635D01*
X0049483Y0045639D01*
X0049506Y0045845D01*
X0049568Y0046043D01*
X0049668Y0046225D01*
X0049802Y0046384D01*
X0049964Y0046514D01*
X0050148Y0046610D01*
X0050347Y0046669D01*
X0050347Y0046669D01*
X0050347Y0046669D01*
X0050553Y0046688D01*
X0050760Y0046666D01*
X0050760Y0046666D01*
G37*
G36*
X0048220Y0046666D02*
X0048220Y0046666D01*
X0048220Y0046666D01*
X0048418Y0046605D01*
X0048601Y0046506D01*
X0048761Y0046374D01*
X0048892Y0046213D01*
X0048989Y0046030D01*
X0049049Y0045831D01*
X0049070Y0045624D01*
X0049070Y0045308D01*
X0049070Y0045297D01*
X0049070Y0045297D01*
X0049069Y0045293D01*
X0049046Y0045087D01*
X0048984Y0044889D01*
X0048884Y0044707D01*
X0048750Y0044548D01*
X0048588Y0044418D01*
X0048404Y0044322D01*
X0048205Y0044263D01*
X0048205Y0044263D01*
X0048205Y0044263D01*
X0047999Y0044244D01*
X0047792Y0044266D01*
X0047792Y0044266D01*
X0047792Y0044266D01*
X0047594Y0044327D01*
X0047411Y0044426D01*
X0047251Y0044558D01*
X0047120Y0044719D01*
X0047023Y0044902D01*
X0046963Y0045101D01*
X0046942Y0045308D01*
X0046942Y0045624D01*
X0046942Y0045635D01*
X0046942Y0045635D01*
X0046943Y0045639D01*
X0046966Y0045845D01*
X0047028Y0046043D01*
X0047128Y0046225D01*
X0047262Y0046384D01*
X0047424Y0046514D01*
X0047608Y0046610D01*
X0047807Y0046669D01*
X0047807Y0046669D01*
X0047807Y0046669D01*
X0048013Y0046688D01*
X0048220Y0046666D01*
X0048220Y0046666D01*
G37*
G36*
X0045680Y0046666D02*
X0045680Y0046666D01*
X0045680Y0046666D01*
X0045878Y0046605D01*
X0046061Y0046506D01*
X0046221Y0046374D01*
X0046352Y0046213D01*
X0046449Y0046030D01*
X0046509Y0045831D01*
X0046530Y0045624D01*
X0046530Y0045308D01*
X0046530Y0045297D01*
X0046530Y0045297D01*
X0046529Y0045293D01*
X0046506Y0045087D01*
X0046444Y0044889D01*
X0046344Y0044707D01*
X0046210Y0044548D01*
X0046048Y0044418D01*
X0045864Y0044322D01*
X0045665Y0044263D01*
X0045665Y0044263D01*
X0045665Y0044263D01*
X0045459Y0044244D01*
X0045252Y0044266D01*
X0045252Y0044266D01*
X0045252Y0044266D01*
X0045054Y0044327D01*
X0044871Y0044426D01*
X0044711Y0044558D01*
X0044580Y0044719D01*
X0044483Y0044902D01*
X0044423Y0045101D01*
X0044402Y0045308D01*
X0044402Y0045624D01*
X0044402Y0045635D01*
X0044402Y0045635D01*
X0044403Y0045639D01*
X0044426Y0045845D01*
X0044488Y0046043D01*
X0044588Y0046225D01*
X0044722Y0046384D01*
X0044884Y0046514D01*
X0045068Y0046610D01*
X0045267Y0046669D01*
X0045267Y0046669D01*
X0045267Y0046669D01*
X0045473Y0046688D01*
X0045680Y0046666D01*
X0045680Y0046666D01*
G37*
G36*
X0043990Y0044250D02*
X0041862Y0044250D01*
X0041862Y0046682D01*
X0043990Y0046682D01*
X0043990Y0044250D01*
X0043990Y0044250D01*
G37*
G36*
X0035520Y0046513D02*
X0035520Y0046513D01*
X0035520Y0046513D01*
X0035718Y0046452D01*
X0035901Y0046353D01*
X0036061Y0046221D01*
X0036192Y0046060D01*
X0036289Y0045876D01*
X0036349Y0045678D01*
X0036370Y0045471D01*
X0036370Y0045461D01*
X0036370Y0045450D01*
X0036370Y0045450D01*
X0036369Y0045446D01*
X0036346Y0045240D01*
X0036284Y0045042D01*
X0036184Y0044860D01*
X0036050Y0044701D01*
X0035888Y0044571D01*
X0035704Y0044475D01*
X0035505Y0044416D01*
X0035505Y0044416D01*
X0035505Y0044416D01*
X0035299Y0044397D01*
X0035092Y0044419D01*
X0035092Y0044419D01*
X0035092Y0044419D01*
X0034894Y0044480D01*
X0034711Y0044579D01*
X0034551Y0044711D01*
X0034420Y0044872D01*
X0034323Y0045056D01*
X0034263Y0045254D01*
X0034242Y0045461D01*
X0034242Y0045471D01*
X0034242Y0045482D01*
X0034242Y0045482D01*
X0034243Y0045486D01*
X0034266Y0045692D01*
X0034328Y0045890D01*
X0034428Y0046072D01*
X0034562Y0046231D01*
X0034724Y0046361D01*
X0034908Y0046457D01*
X0035107Y0046516D01*
X0035107Y0046516D01*
X0035107Y0046516D01*
X0035313Y0046535D01*
X0035520Y0046513D01*
X0035520Y0046513D01*
G37*
G36*
X0032980Y0046513D02*
X0032980Y0046513D01*
X0032980Y0046513D01*
X0033178Y0046452D01*
X0033361Y0046353D01*
X0033521Y0046221D01*
X0033652Y0046060D01*
X0033749Y0045876D01*
X0033809Y0045678D01*
X0033830Y0045471D01*
X0033830Y0045461D01*
X0033830Y0045450D01*
X0033830Y0045450D01*
X0033829Y0045446D01*
X0033806Y0045240D01*
X0033744Y0045042D01*
X0033644Y0044860D01*
X0033510Y0044701D01*
X0033348Y0044571D01*
X0033164Y0044475D01*
X0032965Y0044416D01*
X0032965Y0044416D01*
X0032965Y0044416D01*
X0032759Y0044397D01*
X0032552Y0044419D01*
X0032552Y0044419D01*
X0032552Y0044419D01*
X0032354Y0044480D01*
X0032171Y0044579D01*
X0032011Y0044711D01*
X0031880Y0044872D01*
X0031783Y0045056D01*
X0031723Y0045254D01*
X0031702Y0045461D01*
X0031702Y0045471D01*
X0031702Y0045482D01*
X0031702Y0045482D01*
X0031703Y0045486D01*
X0031726Y0045692D01*
X0031788Y0045890D01*
X0031888Y0046072D01*
X0032022Y0046231D01*
X0032184Y0046361D01*
X0032368Y0046457D01*
X0032567Y0046516D01*
X0032567Y0046516D01*
X0032567Y0046516D01*
X0032773Y0046535D01*
X0032980Y0046513D01*
X0032980Y0046513D01*
G37*
G36*
X0027900Y0046513D02*
X0027900Y0046513D01*
X0027900Y0046513D01*
X0028098Y0046452D01*
X0028281Y0046353D01*
X0028441Y0046221D01*
X0028572Y0046060D01*
X0028669Y0045876D01*
X0028729Y0045678D01*
X0028750Y0045471D01*
X0028750Y0045461D01*
X0028750Y0045450D01*
X0028750Y0045450D01*
X0028749Y0045446D01*
X0028726Y0045240D01*
X0028664Y0045042D01*
X0028564Y0044860D01*
X0028430Y0044701D01*
X0028268Y0044571D01*
X0028084Y0044475D01*
X0027885Y0044416D01*
X0027885Y0044416D01*
X0027885Y0044416D01*
X0027679Y0044397D01*
X0027472Y0044419D01*
X0027472Y0044419D01*
X0027472Y0044419D01*
X0027274Y0044480D01*
X0027091Y0044579D01*
X0026931Y0044711D01*
X0026800Y0044872D01*
X0026703Y0045056D01*
X0026643Y0045254D01*
X0026622Y0045461D01*
X0026622Y0045471D01*
X0026622Y0045482D01*
X0026622Y0045482D01*
X0026623Y0045486D01*
X0026646Y0045692D01*
X0026708Y0045890D01*
X0026808Y0046072D01*
X0026942Y0046231D01*
X0027104Y0046361D01*
X0027288Y0046457D01*
X0027487Y0046516D01*
X0027487Y0046516D01*
X0027487Y0046516D01*
X0027693Y0046535D01*
X0027900Y0046513D01*
X0027900Y0046513D01*
G37*
G36*
X0025360Y0046513D02*
X0025360Y0046513D01*
X0025360Y0046513D01*
X0025558Y0046452D01*
X0025741Y0046353D01*
X0025901Y0046221D01*
X0026032Y0046060D01*
X0026129Y0045876D01*
X0026189Y0045678D01*
X0026210Y0045471D01*
X0026210Y0045461D01*
X0026210Y0045450D01*
X0026210Y0045450D01*
X0026209Y0045446D01*
X0026186Y0045240D01*
X0026124Y0045042D01*
X0026024Y0044860D01*
X0025890Y0044701D01*
X0025728Y0044571D01*
X0025544Y0044475D01*
X0025345Y0044416D01*
X0025345Y0044416D01*
X0025345Y0044416D01*
X0025139Y0044397D01*
X0024932Y0044419D01*
X0024932Y0044419D01*
X0024932Y0044419D01*
X0024734Y0044480D01*
X0024551Y0044579D01*
X0024391Y0044711D01*
X0024260Y0044872D01*
X0024163Y0045056D01*
X0024103Y0045254D01*
X0024082Y0045461D01*
X0024082Y0045471D01*
X0024082Y0045482D01*
X0024082Y0045482D01*
X0024083Y0045486D01*
X0024106Y0045692D01*
X0024168Y0045890D01*
X0024268Y0046072D01*
X0024402Y0046231D01*
X0024564Y0046361D01*
X0024748Y0046457D01*
X0024947Y0046516D01*
X0024947Y0046516D01*
X0024947Y0046516D01*
X0025153Y0046535D01*
X0025360Y0046513D01*
X0025360Y0046513D01*
G37*
G36*
X0020280Y0046513D02*
X0020280Y0046513D01*
X0020280Y0046513D01*
X0020478Y0046452D01*
X0020661Y0046353D01*
X0020821Y0046221D01*
X0020952Y0046060D01*
X0021049Y0045876D01*
X0021109Y0045678D01*
X0021130Y0045471D01*
X0021130Y0045461D01*
X0021130Y0045450D01*
X0021130Y0045450D01*
X0021129Y0045446D01*
X0021106Y0045240D01*
X0021044Y0045042D01*
X0020944Y0044860D01*
X0020810Y0044701D01*
X0020648Y0044571D01*
X0020464Y0044475D01*
X0020265Y0044416D01*
X0020265Y0044416D01*
X0020265Y0044416D01*
X0020059Y0044397D01*
X0019852Y0044419D01*
X0019852Y0044419D01*
X0019852Y0044419D01*
X0019654Y0044480D01*
X0019471Y0044579D01*
X0019311Y0044711D01*
X0019180Y0044872D01*
X0019083Y0045056D01*
X0019023Y0045254D01*
X0019002Y0045461D01*
X0019002Y0045471D01*
X0019002Y0045482D01*
X0019002Y0045482D01*
X0019003Y0045486D01*
X0019026Y0045692D01*
X0019088Y0045890D01*
X0019188Y0046072D01*
X0019322Y0046231D01*
X0019484Y0046361D01*
X0019668Y0046457D01*
X0019867Y0046516D01*
X0019867Y0046516D01*
X0019867Y0046516D01*
X0020073Y0046535D01*
X0020280Y0046513D01*
X0020280Y0046513D01*
G37*
G36*
X0022820Y0046513D02*
X0022820Y0046513D01*
X0022820Y0046513D01*
X0023018Y0046452D01*
X0023201Y0046353D01*
X0023361Y0046221D01*
X0023492Y0046060D01*
X0023589Y0045876D01*
X0023649Y0045678D01*
X0023670Y0045471D01*
X0023670Y0045461D01*
X0023670Y0045450D01*
X0023670Y0045450D01*
X0023669Y0045446D01*
X0023646Y0045240D01*
X0023584Y0045042D01*
X0023484Y0044860D01*
X0023350Y0044701D01*
X0023188Y0044571D01*
X0023004Y0044475D01*
X0022805Y0044416D01*
X0022805Y0044416D01*
X0022805Y0044416D01*
X0022599Y0044397D01*
X0022392Y0044419D01*
X0022392Y0044419D01*
X0022392Y0044419D01*
X0022194Y0044480D01*
X0022011Y0044579D01*
X0021851Y0044711D01*
X0021720Y0044872D01*
X0021623Y0045056D01*
X0021563Y0045254D01*
X0021542Y0045461D01*
X0021542Y0045471D01*
X0021542Y0045482D01*
X0021542Y0045482D01*
X0021543Y0045486D01*
X0021566Y0045692D01*
X0021628Y0045890D01*
X0021728Y0046072D01*
X0021862Y0046231D01*
X0022024Y0046361D01*
X0022208Y0046457D01*
X0022407Y0046516D01*
X0022407Y0046516D01*
X0022407Y0046516D01*
X0022613Y0046535D01*
X0022820Y0046513D01*
X0022820Y0046513D01*
G37*
G36*
X0017740Y0046513D02*
X0017740Y0046513D01*
X0017740Y0046513D01*
X0017938Y0046452D01*
X0018121Y0046353D01*
X0018281Y0046221D01*
X0018412Y0046060D01*
X0018509Y0045876D01*
X0018569Y0045678D01*
X0018590Y0045471D01*
X0018590Y0045461D01*
X0018590Y0045450D01*
X0018590Y0045450D01*
X0018589Y0045446D01*
X0018566Y0045240D01*
X0018504Y0045042D01*
X0018404Y0044860D01*
X0018270Y0044701D01*
X0018108Y0044571D01*
X0017924Y0044475D01*
X0017725Y0044416D01*
X0017725Y0044416D01*
X0017725Y0044416D01*
X0017519Y0044397D01*
X0017312Y0044419D01*
X0017312Y0044419D01*
X0017312Y0044419D01*
X0017114Y0044480D01*
X0016931Y0044579D01*
X0016771Y0044711D01*
X0016640Y0044872D01*
X0016543Y0045056D01*
X0016483Y0045254D01*
X0016462Y0045461D01*
X0016462Y0045471D01*
X0016462Y0045482D01*
X0016462Y0045482D01*
X0016463Y0045486D01*
X0016486Y0045692D01*
X0016548Y0045890D01*
X0016648Y0046072D01*
X0016782Y0046231D01*
X0016944Y0046361D01*
X0017128Y0046457D01*
X0017327Y0046516D01*
X0017327Y0046516D01*
X0017327Y0046516D01*
X0017533Y0046535D01*
X0017740Y0046513D01*
X0017740Y0046513D01*
G37*
G36*
X0015200Y0046513D02*
X0015200Y0046513D01*
X0015200Y0046513D01*
X0015398Y0046452D01*
X0015581Y0046353D01*
X0015741Y0046221D01*
X0015872Y0046060D01*
X0015969Y0045876D01*
X0016029Y0045678D01*
X0016050Y0045471D01*
X0016050Y0045461D01*
X0016050Y0045450D01*
X0016050Y0045450D01*
X0016049Y0045446D01*
X0016026Y0045240D01*
X0015964Y0045042D01*
X0015864Y0044860D01*
X0015730Y0044701D01*
X0015568Y0044571D01*
X0015384Y0044475D01*
X0015185Y0044416D01*
X0015185Y0044416D01*
X0015185Y0044416D01*
X0014979Y0044397D01*
X0014772Y0044419D01*
X0014772Y0044419D01*
X0014772Y0044419D01*
X0014574Y0044480D01*
X0014391Y0044579D01*
X0014231Y0044711D01*
X0014100Y0044872D01*
X0014003Y0045056D01*
X0013943Y0045254D01*
X0013922Y0045461D01*
X0013922Y0045471D01*
X0013922Y0045482D01*
X0013922Y0045482D01*
X0013923Y0045486D01*
X0013946Y0045692D01*
X0014008Y0045890D01*
X0014108Y0046072D01*
X0014242Y0046231D01*
X0014404Y0046361D01*
X0014588Y0046457D01*
X0014787Y0046516D01*
X0014787Y0046516D01*
X0014787Y0046516D01*
X0014993Y0046535D01*
X0015200Y0046513D01*
X0015200Y0046513D01*
G37*
G36*
X0012660Y0046513D02*
X0012660Y0046513D01*
X0012660Y0046513D01*
X0012858Y0046452D01*
X0013041Y0046353D01*
X0013201Y0046221D01*
X0013332Y0046060D01*
X0013429Y0045876D01*
X0013489Y0045678D01*
X0013510Y0045471D01*
X0013510Y0045461D01*
X0013510Y0045450D01*
X0013510Y0045450D01*
X0013509Y0045446D01*
X0013486Y0045240D01*
X0013424Y0045042D01*
X0013324Y0044860D01*
X0013190Y0044701D01*
X0013028Y0044571D01*
X0012844Y0044475D01*
X0012645Y0044416D01*
X0012645Y0044416D01*
X0012645Y0044416D01*
X0012439Y0044397D01*
X0012232Y0044419D01*
X0012232Y0044419D01*
X0012232Y0044419D01*
X0012034Y0044480D01*
X0011851Y0044579D01*
X0011691Y0044711D01*
X0011560Y0044872D01*
X0011463Y0045056D01*
X0011403Y0045254D01*
X0011382Y0045461D01*
X0011382Y0045471D01*
X0011382Y0045482D01*
X0011382Y0045482D01*
X0011383Y0045486D01*
X0011406Y0045692D01*
X0011468Y0045890D01*
X0011568Y0046072D01*
X0011702Y0046231D01*
X0011864Y0046361D01*
X0012048Y0046457D01*
X0012247Y0046516D01*
X0012247Y0046516D01*
X0012247Y0046516D01*
X0012453Y0046535D01*
X0012660Y0046513D01*
X0012660Y0046513D01*
G37*
G36*
X0030440Y0046513D02*
X0030440Y0046513D01*
X0030440Y0046513D01*
X0030638Y0046452D01*
X0030821Y0046353D01*
X0030981Y0046221D01*
X0031112Y0046060D01*
X0031209Y0045876D01*
X0031269Y0045678D01*
X0031290Y0045471D01*
X0031290Y0045461D01*
X0031290Y0045450D01*
X0031290Y0045450D01*
X0031289Y0045446D01*
X0031266Y0045240D01*
X0031204Y0045042D01*
X0031104Y0044860D01*
X0030970Y0044701D01*
X0030808Y0044571D01*
X0030624Y0044475D01*
X0030425Y0044416D01*
X0030425Y0044416D01*
X0030425Y0044416D01*
X0030219Y0044397D01*
X0030012Y0044419D01*
X0030012Y0044419D01*
X0030012Y0044419D01*
X0029814Y0044480D01*
X0029631Y0044579D01*
X0029471Y0044711D01*
X0029340Y0044872D01*
X0029243Y0045056D01*
X0029183Y0045254D01*
X0029162Y0045461D01*
X0029162Y0045471D01*
X0029162Y0045482D01*
X0029162Y0045482D01*
X0029163Y0045486D01*
X0029186Y0045692D01*
X0029248Y0045890D01*
X0029348Y0046072D01*
X0029482Y0046231D01*
X0029644Y0046361D01*
X0029828Y0046457D01*
X0030027Y0046516D01*
X0030027Y0046516D01*
X0030027Y0046516D01*
X0030233Y0046535D01*
X0030440Y0046513D01*
X0030440Y0046513D01*
G37*
G36*
X0020280Y0049053D02*
X0020280Y0049053D01*
X0020280Y0049053D01*
X0020478Y0048992D01*
X0020661Y0048893D01*
X0020821Y0048761D01*
X0020952Y0048600D01*
X0021049Y0048416D01*
X0021109Y0048218D01*
X0021130Y0048011D01*
X0021130Y0048001D01*
X0021130Y0047990D01*
X0021130Y0047990D01*
X0021129Y0047986D01*
X0021106Y0047780D01*
X0021044Y0047582D01*
X0020944Y0047400D01*
X0020810Y0047241D01*
X0020648Y0047111D01*
X0020464Y0047015D01*
X0020265Y0046956D01*
X0020265Y0046956D01*
X0020265Y0046956D01*
X0020059Y0046937D01*
X0019852Y0046959D01*
X0019852Y0046959D01*
X0019852Y0046959D01*
X0019654Y0047020D01*
X0019471Y0047119D01*
X0019311Y0047251D01*
X0019180Y0047412D01*
X0019083Y0047596D01*
X0019023Y0047794D01*
X0019002Y0048001D01*
X0019002Y0048011D01*
X0019002Y0048022D01*
X0019002Y0048022D01*
X0019003Y0048026D01*
X0019026Y0048232D01*
X0019088Y0048430D01*
X0019188Y0048612D01*
X0019322Y0048771D01*
X0019484Y0048901D01*
X0019668Y0048997D01*
X0019867Y0049056D01*
X0019867Y0049056D01*
X0019867Y0049056D01*
X0020073Y0049075D01*
X0020280Y0049053D01*
X0020280Y0049053D01*
G37*
G36*
X0012660Y0049053D02*
X0012660Y0049053D01*
X0012660Y0049053D01*
X0012858Y0048992D01*
X0013041Y0048893D01*
X0013201Y0048761D01*
X0013332Y0048600D01*
X0013429Y0048416D01*
X0013489Y0048218D01*
X0013510Y0048011D01*
X0013510Y0048001D01*
X0013510Y0047990D01*
X0013510Y0047990D01*
X0013509Y0047986D01*
X0013486Y0047780D01*
X0013424Y0047582D01*
X0013324Y0047400D01*
X0013190Y0047241D01*
X0013028Y0047111D01*
X0012844Y0047015D01*
X0012645Y0046956D01*
X0012645Y0046956D01*
X0012645Y0046956D01*
X0012439Y0046937D01*
X0012232Y0046959D01*
X0012232Y0046959D01*
X0012232Y0046959D01*
X0012034Y0047020D01*
X0011851Y0047119D01*
X0011691Y0047251D01*
X0011560Y0047412D01*
X0011463Y0047596D01*
X0011403Y0047794D01*
X0011382Y0048001D01*
X0011382Y0048011D01*
X0011382Y0048022D01*
X0011382Y0048022D01*
X0011383Y0048026D01*
X0011406Y0048232D01*
X0011468Y0048430D01*
X0011568Y0048612D01*
X0011702Y0048771D01*
X0011864Y0048901D01*
X0012048Y0048997D01*
X0012247Y0049056D01*
X0012247Y0049056D01*
X0012247Y0049056D01*
X0012453Y0049075D01*
X0012660Y0049053D01*
X0012660Y0049053D01*
G37*
G36*
X0015200Y0049053D02*
X0015200Y0049053D01*
X0015200Y0049053D01*
X0015398Y0048992D01*
X0015581Y0048893D01*
X0015741Y0048761D01*
X0015872Y0048600D01*
X0015969Y0048416D01*
X0016029Y0048218D01*
X0016050Y0048011D01*
X0016050Y0048001D01*
X0016050Y0047990D01*
X0016050Y0047990D01*
X0016049Y0047986D01*
X0016026Y0047780D01*
X0015964Y0047582D01*
X0015864Y0047400D01*
X0015730Y0047241D01*
X0015568Y0047111D01*
X0015384Y0047015D01*
X0015185Y0046956D01*
X0015185Y0046956D01*
X0015185Y0046956D01*
X0014979Y0046937D01*
X0014772Y0046959D01*
X0014772Y0046959D01*
X0014772Y0046959D01*
X0014574Y0047020D01*
X0014391Y0047119D01*
X0014231Y0047251D01*
X0014100Y0047412D01*
X0014003Y0047596D01*
X0013943Y0047794D01*
X0013922Y0048001D01*
X0013922Y0048011D01*
X0013922Y0048022D01*
X0013922Y0048022D01*
X0013923Y0048026D01*
X0013946Y0048232D01*
X0014008Y0048430D01*
X0014108Y0048612D01*
X0014242Y0048771D01*
X0014404Y0048901D01*
X0014588Y0048997D01*
X0014787Y0049056D01*
X0014787Y0049056D01*
X0014787Y0049056D01*
X0014993Y0049075D01*
X0015200Y0049053D01*
X0015200Y0049053D01*
G37*
G36*
X0025360Y0049053D02*
X0025360Y0049053D01*
X0025360Y0049053D01*
X0025558Y0048992D01*
X0025741Y0048893D01*
X0025901Y0048761D01*
X0026032Y0048600D01*
X0026129Y0048416D01*
X0026189Y0048218D01*
X0026210Y0048011D01*
X0026210Y0048001D01*
X0026210Y0047990D01*
X0026210Y0047990D01*
X0026209Y0047986D01*
X0026186Y0047780D01*
X0026124Y0047582D01*
X0026024Y0047400D01*
X0025890Y0047241D01*
X0025728Y0047111D01*
X0025544Y0047015D01*
X0025345Y0046956D01*
X0025345Y0046956D01*
X0025345Y0046956D01*
X0025139Y0046937D01*
X0024932Y0046959D01*
X0024932Y0046959D01*
X0024932Y0046959D01*
X0024734Y0047020D01*
X0024551Y0047119D01*
X0024391Y0047251D01*
X0024260Y0047412D01*
X0024163Y0047596D01*
X0024103Y0047794D01*
X0024082Y0048001D01*
X0024082Y0048011D01*
X0024082Y0048022D01*
X0024082Y0048022D01*
X0024083Y0048026D01*
X0024106Y0048232D01*
X0024168Y0048430D01*
X0024268Y0048612D01*
X0024402Y0048771D01*
X0024564Y0048901D01*
X0024748Y0048997D01*
X0024947Y0049056D01*
X0024947Y0049056D01*
X0024947Y0049056D01*
X0025153Y0049075D01*
X0025360Y0049053D01*
X0025360Y0049053D01*
G37*
G36*
X0027900Y0049053D02*
X0027900Y0049053D01*
X0027900Y0049053D01*
X0028098Y0048992D01*
X0028281Y0048893D01*
X0028441Y0048761D01*
X0028572Y0048600D01*
X0028669Y0048416D01*
X0028729Y0048218D01*
X0028750Y0048011D01*
X0028750Y0048001D01*
X0028750Y0047990D01*
X0028750Y0047990D01*
X0028749Y0047986D01*
X0028726Y0047780D01*
X0028664Y0047582D01*
X0028564Y0047400D01*
X0028430Y0047241D01*
X0028268Y0047111D01*
X0028084Y0047015D01*
X0027885Y0046956D01*
X0027885Y0046956D01*
X0027885Y0046956D01*
X0027679Y0046937D01*
X0027472Y0046959D01*
X0027472Y0046959D01*
X0027472Y0046959D01*
X0027274Y0047020D01*
X0027091Y0047119D01*
X0026931Y0047251D01*
X0026800Y0047412D01*
X0026703Y0047596D01*
X0026643Y0047794D01*
X0026622Y0048001D01*
X0026622Y0048011D01*
X0026622Y0048022D01*
X0026622Y0048022D01*
X0026623Y0048026D01*
X0026646Y0048232D01*
X0026708Y0048430D01*
X0026808Y0048612D01*
X0026942Y0048771D01*
X0027104Y0048901D01*
X0027288Y0048997D01*
X0027487Y0049056D01*
X0027487Y0049056D01*
X0027487Y0049056D01*
X0027693Y0049075D01*
X0027900Y0049053D01*
X0027900Y0049053D01*
G37*
G36*
X0030440Y0049053D02*
X0030440Y0049053D01*
X0030440Y0049053D01*
X0030638Y0048992D01*
X0030821Y0048893D01*
X0030981Y0048761D01*
X0031112Y0048600D01*
X0031209Y0048416D01*
X0031269Y0048218D01*
X0031290Y0048011D01*
X0031290Y0048001D01*
X0031290Y0047990D01*
X0031290Y0047990D01*
X0031289Y0047986D01*
X0031266Y0047780D01*
X0031204Y0047582D01*
X0031104Y0047400D01*
X0030970Y0047241D01*
X0030808Y0047111D01*
X0030624Y0047015D01*
X0030425Y0046956D01*
X0030425Y0046956D01*
X0030425Y0046956D01*
X0030219Y0046937D01*
X0030012Y0046959D01*
X0030012Y0046959D01*
X0030012Y0046959D01*
X0029814Y0047020D01*
X0029631Y0047119D01*
X0029471Y0047251D01*
X0029340Y0047412D01*
X0029243Y0047596D01*
X0029183Y0047794D01*
X0029162Y0048001D01*
X0029162Y0048011D01*
X0029162Y0048022D01*
X0029162Y0048022D01*
X0029163Y0048026D01*
X0029186Y0048232D01*
X0029248Y0048430D01*
X0029348Y0048612D01*
X0029482Y0048771D01*
X0029644Y0048901D01*
X0029828Y0048997D01*
X0030027Y0049056D01*
X0030027Y0049056D01*
X0030027Y0049056D01*
X0030233Y0049075D01*
X0030440Y0049053D01*
X0030440Y0049053D01*
G37*
G36*
X0032980Y0049053D02*
X0032980Y0049053D01*
X0032980Y0049053D01*
X0033178Y0048992D01*
X0033361Y0048893D01*
X0033521Y0048761D01*
X0033652Y0048600D01*
X0033749Y0048416D01*
X0033809Y0048218D01*
X0033830Y0048011D01*
X0033830Y0048001D01*
X0033830Y0047990D01*
X0033830Y0047990D01*
X0033829Y0047986D01*
X0033806Y0047780D01*
X0033744Y0047582D01*
X0033644Y0047400D01*
X0033510Y0047241D01*
X0033348Y0047111D01*
X0033164Y0047015D01*
X0032965Y0046956D01*
X0032965Y0046956D01*
X0032965Y0046956D01*
X0032759Y0046937D01*
X0032552Y0046959D01*
X0032552Y0046959D01*
X0032552Y0046959D01*
X0032354Y0047020D01*
X0032171Y0047119D01*
X0032011Y0047251D01*
X0031880Y0047412D01*
X0031783Y0047596D01*
X0031723Y0047794D01*
X0031702Y0048001D01*
X0031702Y0048011D01*
X0031702Y0048022D01*
X0031702Y0048022D01*
X0031703Y0048026D01*
X0031726Y0048232D01*
X0031788Y0048430D01*
X0031888Y0048612D01*
X0032022Y0048771D01*
X0032184Y0048901D01*
X0032368Y0048997D01*
X0032567Y0049056D01*
X0032567Y0049056D01*
X0032567Y0049056D01*
X0032773Y0049075D01*
X0032980Y0049053D01*
X0032980Y0049053D01*
G37*
G36*
X0017740Y0049053D02*
X0017740Y0049053D01*
X0017740Y0049053D01*
X0017938Y0048992D01*
X0018121Y0048893D01*
X0018281Y0048761D01*
X0018412Y0048600D01*
X0018509Y0048416D01*
X0018569Y0048218D01*
X0018590Y0048011D01*
X0018590Y0048001D01*
X0018590Y0047990D01*
X0018590Y0047990D01*
X0018589Y0047986D01*
X0018566Y0047780D01*
X0018504Y0047582D01*
X0018404Y0047400D01*
X0018270Y0047241D01*
X0018108Y0047111D01*
X0017924Y0047015D01*
X0017725Y0046956D01*
X0017725Y0046956D01*
X0017725Y0046956D01*
X0017519Y0046937D01*
X0017312Y0046959D01*
X0017312Y0046959D01*
X0017312Y0046959D01*
X0017114Y0047020D01*
X0016931Y0047119D01*
X0016771Y0047251D01*
X0016640Y0047412D01*
X0016543Y0047596D01*
X0016483Y0047794D01*
X0016462Y0048001D01*
X0016462Y0048011D01*
X0016462Y0048022D01*
X0016462Y0048022D01*
X0016463Y0048026D01*
X0016486Y0048232D01*
X0016548Y0048430D01*
X0016648Y0048612D01*
X0016782Y0048771D01*
X0016944Y0048901D01*
X0017128Y0048997D01*
X0017327Y0049056D01*
X0017327Y0049056D01*
X0017327Y0049056D01*
X0017533Y0049075D01*
X0017740Y0049053D01*
X0017740Y0049053D01*
G37*
G36*
X0022820Y0049053D02*
X0022820Y0049053D01*
X0022820Y0049053D01*
X0023018Y0048992D01*
X0023201Y0048893D01*
X0023361Y0048761D01*
X0023492Y0048600D01*
X0023589Y0048416D01*
X0023649Y0048218D01*
X0023670Y0048011D01*
X0023670Y0048001D01*
X0023670Y0047990D01*
X0023670Y0047990D01*
X0023669Y0047986D01*
X0023646Y0047780D01*
X0023584Y0047582D01*
X0023484Y0047400D01*
X0023350Y0047241D01*
X0023188Y0047111D01*
X0023004Y0047015D01*
X0022805Y0046956D01*
X0022805Y0046956D01*
X0022805Y0046956D01*
X0022599Y0046937D01*
X0022392Y0046959D01*
X0022392Y0046959D01*
X0022392Y0046959D01*
X0022194Y0047020D01*
X0022011Y0047119D01*
X0021851Y0047251D01*
X0021720Y0047412D01*
X0021623Y0047596D01*
X0021563Y0047794D01*
X0021542Y0048001D01*
X0021542Y0048011D01*
X0021542Y0048022D01*
X0021542Y0048022D01*
X0021543Y0048026D01*
X0021566Y0048232D01*
X0021628Y0048430D01*
X0021728Y0048612D01*
X0021862Y0048771D01*
X0022024Y0048901D01*
X0022208Y0048997D01*
X0022407Y0049056D01*
X0022407Y0049056D01*
X0022407Y0049056D01*
X0022613Y0049075D01*
X0022820Y0049053D01*
X0022820Y0049053D01*
G37*
G36*
X0036370Y0046942D02*
X0034242Y0046942D01*
X0034242Y0049070D01*
X0036370Y0049070D01*
X0036370Y0046942D01*
X0036370Y0046942D01*
G37*
X0000000Y0050290D02*
%LPD*%
G01*
D43*
G36*
X0005267Y0059313D02*
X0006074Y0059148D01*
X0006833Y0058828D01*
X0007516Y0058368D01*
X0008097Y0057783D01*
X0008552Y0057097D01*
X0008866Y0056336D01*
X0009026Y0055529D01*
X0009026Y0055528D01*
X0009026Y0055528D01*
X0009013Y0054587D01*
X0009013Y0054586D01*
X0009013Y0054586D01*
X0008831Y0053784D01*
X0008496Y0053031D01*
X0008021Y0052358D01*
X0007424Y0051790D01*
X0006729Y0051349D01*
X0005961Y0051051D01*
X0005150Y0050908D01*
X0004326Y0050925D01*
X0003522Y0051102D01*
X0002767Y0051432D01*
X0002091Y0051902D01*
X0001519Y0052495D01*
X0001072Y0053187D01*
X0000769Y0053953D01*
X0000620Y0054763D01*
X0000632Y0055586D01*
X0000803Y0056392D01*
X0001128Y0057149D01*
X0001593Y0057829D01*
X0002182Y0058405D01*
X0002871Y0058856D01*
X0003634Y0059165D01*
X0004444Y0059319D01*
X0005267Y0059313D01*
X0005267Y0059313D01*
G37*
G36*
X0096707Y0059313D02*
X0097514Y0059148D01*
X0098273Y0058828D01*
X0098956Y0058368D01*
X0099537Y0057783D01*
X0099992Y0057097D01*
X0100306Y0056336D01*
X0100466Y0055529D01*
X0100466Y0055528D01*
X0100466Y0055528D01*
X0100453Y0054587D01*
X0100453Y0054586D01*
X0100453Y0054586D01*
X0100271Y0053784D01*
X0099936Y0053031D01*
X0099461Y0052358D01*
X0098864Y0051790D01*
X0098169Y0051349D01*
X0097401Y0051051D01*
X0096590Y0050908D01*
X0095766Y0050925D01*
X0094962Y0051102D01*
X0094207Y0051432D01*
X0093531Y0051902D01*
X0092959Y0052495D01*
X0092512Y0053187D01*
X0092209Y0053953D01*
X0092060Y0054763D01*
X0092072Y0055586D01*
X0092243Y0056392D01*
X0092568Y0057149D01*
X0093033Y0057829D01*
X0093622Y0058405D01*
X0094311Y0058856D01*
X0095074Y0059165D01*
X0095884Y0059319D01*
X0096707Y0059313D01*
X0096707Y0059313D01*
G37*
G36*
X0035520Y0053776D02*
X0035520Y0053776D01*
X0035520Y0053776D01*
X0035718Y0053715D01*
X0035901Y0053616D01*
X0036061Y0053484D01*
X0036192Y0053323D01*
X0036289Y0053140D01*
X0036349Y0052941D01*
X0036370Y0052734D01*
X0036370Y0052418D01*
X0036370Y0052407D01*
X0036370Y0052407D01*
X0036369Y0052403D01*
X0036346Y0052197D01*
X0036284Y0051999D01*
X0036184Y0051817D01*
X0036050Y0051658D01*
X0035888Y0051528D01*
X0035704Y0051432D01*
X0035505Y0051373D01*
X0035505Y0051373D01*
X0035505Y0051373D01*
X0035299Y0051354D01*
X0035092Y0051376D01*
X0035092Y0051376D01*
X0035092Y0051376D01*
X0034894Y0051437D01*
X0034711Y0051536D01*
X0034551Y0051668D01*
X0034420Y0051829D01*
X0034323Y0052012D01*
X0034263Y0052211D01*
X0034242Y0052418D01*
X0034242Y0052734D01*
X0034242Y0052745D01*
X0034242Y0052745D01*
X0034243Y0052749D01*
X0034266Y0052955D01*
X0034328Y0053153D01*
X0034428Y0053335D01*
X0034562Y0053494D01*
X0034724Y0053624D01*
X0034908Y0053720D01*
X0035107Y0053779D01*
X0035107Y0053779D01*
X0035107Y0053779D01*
X0035313Y0053798D01*
X0035520Y0053776D01*
X0035520Y0053776D01*
G37*
G36*
X0017740Y0053776D02*
X0017740Y0053776D01*
X0017740Y0053776D01*
X0017938Y0053715D01*
X0018121Y0053616D01*
X0018281Y0053484D01*
X0018412Y0053323D01*
X0018509Y0053140D01*
X0018569Y0052941D01*
X0018590Y0052734D01*
X0018590Y0052418D01*
X0018590Y0052407D01*
X0018590Y0052407D01*
X0018589Y0052403D01*
X0018566Y0052197D01*
X0018504Y0051999D01*
X0018404Y0051817D01*
X0018270Y0051658D01*
X0018108Y0051528D01*
X0017924Y0051432D01*
X0017725Y0051373D01*
X0017725Y0051373D01*
X0017725Y0051373D01*
X0017519Y0051354D01*
X0017312Y0051376D01*
X0017312Y0051376D01*
X0017312Y0051376D01*
X0017114Y0051437D01*
X0016931Y0051536D01*
X0016771Y0051668D01*
X0016640Y0051829D01*
X0016543Y0052012D01*
X0016483Y0052211D01*
X0016462Y0052418D01*
X0016462Y0052734D01*
X0016462Y0052745D01*
X0016462Y0052745D01*
X0016463Y0052749D01*
X0016486Y0052955D01*
X0016548Y0053153D01*
X0016648Y0053335D01*
X0016782Y0053494D01*
X0016944Y0053624D01*
X0017128Y0053720D01*
X0017327Y0053779D01*
X0017327Y0053779D01*
X0017327Y0053779D01*
X0017533Y0053798D01*
X0017740Y0053776D01*
X0017740Y0053776D01*
G37*
G36*
X0020280Y0053776D02*
X0020280Y0053776D01*
X0020280Y0053776D01*
X0020478Y0053715D01*
X0020661Y0053616D01*
X0020821Y0053484D01*
X0020952Y0053323D01*
X0021049Y0053140D01*
X0021109Y0052941D01*
X0021130Y0052734D01*
X0021130Y0052418D01*
X0021130Y0052407D01*
X0021130Y0052407D01*
X0021129Y0052403D01*
X0021106Y0052197D01*
X0021044Y0051999D01*
X0020944Y0051817D01*
X0020810Y0051658D01*
X0020648Y0051528D01*
X0020464Y0051432D01*
X0020265Y0051373D01*
X0020265Y0051373D01*
X0020265Y0051373D01*
X0020059Y0051354D01*
X0019852Y0051376D01*
X0019852Y0051376D01*
X0019852Y0051376D01*
X0019654Y0051437D01*
X0019471Y0051536D01*
X0019311Y0051668D01*
X0019180Y0051829D01*
X0019083Y0052012D01*
X0019023Y0052211D01*
X0019002Y0052418D01*
X0019002Y0052734D01*
X0019002Y0052745D01*
X0019002Y0052745D01*
X0019003Y0052749D01*
X0019026Y0052955D01*
X0019088Y0053153D01*
X0019188Y0053335D01*
X0019322Y0053494D01*
X0019484Y0053624D01*
X0019668Y0053720D01*
X0019867Y0053779D01*
X0019867Y0053779D01*
X0019867Y0053779D01*
X0020073Y0053798D01*
X0020280Y0053776D01*
X0020280Y0053776D01*
G37*
G36*
X0015200Y0053776D02*
X0015200Y0053776D01*
X0015200Y0053776D01*
X0015398Y0053715D01*
X0015581Y0053616D01*
X0015741Y0053484D01*
X0015872Y0053323D01*
X0015969Y0053140D01*
X0016029Y0052941D01*
X0016050Y0052734D01*
X0016050Y0052418D01*
X0016050Y0052407D01*
X0016050Y0052407D01*
X0016049Y0052403D01*
X0016026Y0052197D01*
X0015964Y0051999D01*
X0015864Y0051817D01*
X0015730Y0051658D01*
X0015568Y0051528D01*
X0015384Y0051432D01*
X0015185Y0051373D01*
X0015185Y0051373D01*
X0015185Y0051373D01*
X0014979Y0051354D01*
X0014772Y0051376D01*
X0014772Y0051376D01*
X0014772Y0051376D01*
X0014574Y0051437D01*
X0014391Y0051536D01*
X0014231Y0051668D01*
X0014100Y0051829D01*
X0014003Y0052012D01*
X0013943Y0052211D01*
X0013922Y0052418D01*
X0013922Y0052734D01*
X0013922Y0052745D01*
X0013922Y0052745D01*
X0013923Y0052749D01*
X0013946Y0052955D01*
X0014008Y0053153D01*
X0014108Y0053335D01*
X0014242Y0053494D01*
X0014404Y0053624D01*
X0014588Y0053720D01*
X0014787Y0053779D01*
X0014787Y0053779D01*
X0014787Y0053779D01*
X0014993Y0053798D01*
X0015200Y0053776D01*
X0015200Y0053776D01*
G37*
G36*
X0022820Y0053776D02*
X0022820Y0053776D01*
X0022820Y0053776D01*
X0023018Y0053715D01*
X0023201Y0053616D01*
X0023361Y0053484D01*
X0023492Y0053323D01*
X0023589Y0053140D01*
X0023649Y0052941D01*
X0023670Y0052734D01*
X0023670Y0052418D01*
X0023670Y0052407D01*
X0023670Y0052407D01*
X0023669Y0052403D01*
X0023646Y0052197D01*
X0023584Y0051999D01*
X0023484Y0051817D01*
X0023350Y0051658D01*
X0023188Y0051528D01*
X0023004Y0051432D01*
X0022805Y0051373D01*
X0022805Y0051373D01*
X0022805Y0051373D01*
X0022599Y0051354D01*
X0022392Y0051376D01*
X0022392Y0051376D01*
X0022392Y0051376D01*
X0022194Y0051437D01*
X0022011Y0051536D01*
X0021851Y0051668D01*
X0021720Y0051829D01*
X0021623Y0052012D01*
X0021563Y0052211D01*
X0021542Y0052418D01*
X0021542Y0052734D01*
X0021542Y0052745D01*
X0021542Y0052745D01*
X0021543Y0052749D01*
X0021566Y0052955D01*
X0021628Y0053153D01*
X0021728Y0053335D01*
X0021862Y0053494D01*
X0022024Y0053624D01*
X0022208Y0053720D01*
X0022407Y0053779D01*
X0022407Y0053779D01*
X0022407Y0053779D01*
X0022613Y0053798D01*
X0022820Y0053776D01*
X0022820Y0053776D01*
G37*
G36*
X0025360Y0053776D02*
X0025360Y0053776D01*
X0025360Y0053776D01*
X0025558Y0053715D01*
X0025741Y0053616D01*
X0025901Y0053484D01*
X0026032Y0053323D01*
X0026129Y0053140D01*
X0026189Y0052941D01*
X0026210Y0052734D01*
X0026210Y0052418D01*
X0026210Y0052407D01*
X0026210Y0052407D01*
X0026209Y0052403D01*
X0026186Y0052197D01*
X0026124Y0051999D01*
X0026024Y0051817D01*
X0025890Y0051658D01*
X0025728Y0051528D01*
X0025544Y0051432D01*
X0025345Y0051373D01*
X0025345Y0051373D01*
X0025345Y0051373D01*
X0025139Y0051354D01*
X0024932Y0051376D01*
X0024932Y0051376D01*
X0024932Y0051376D01*
X0024734Y0051437D01*
X0024551Y0051536D01*
X0024391Y0051668D01*
X0024260Y0051829D01*
X0024163Y0052012D01*
X0024103Y0052211D01*
X0024082Y0052418D01*
X0024082Y0052734D01*
X0024082Y0052745D01*
X0024082Y0052745D01*
X0024083Y0052749D01*
X0024106Y0052955D01*
X0024168Y0053153D01*
X0024268Y0053335D01*
X0024402Y0053494D01*
X0024564Y0053624D01*
X0024748Y0053720D01*
X0024947Y0053779D01*
X0024947Y0053779D01*
X0024947Y0053779D01*
X0025153Y0053798D01*
X0025360Y0053776D01*
X0025360Y0053776D01*
G37*
G36*
X0027900Y0053776D02*
X0027900Y0053776D01*
X0027900Y0053776D01*
X0028098Y0053715D01*
X0028281Y0053616D01*
X0028441Y0053484D01*
X0028572Y0053323D01*
X0028669Y0053140D01*
X0028729Y0052941D01*
X0028750Y0052734D01*
X0028750Y0052418D01*
X0028750Y0052407D01*
X0028750Y0052407D01*
X0028749Y0052403D01*
X0028726Y0052197D01*
X0028664Y0051999D01*
X0028564Y0051817D01*
X0028430Y0051658D01*
X0028268Y0051528D01*
X0028084Y0051432D01*
X0027885Y0051373D01*
X0027885Y0051373D01*
X0027885Y0051373D01*
X0027679Y0051354D01*
X0027472Y0051376D01*
X0027472Y0051376D01*
X0027472Y0051376D01*
X0027274Y0051437D01*
X0027091Y0051536D01*
X0026931Y0051668D01*
X0026800Y0051829D01*
X0026703Y0052012D01*
X0026643Y0052211D01*
X0026622Y0052418D01*
X0026622Y0052734D01*
X0026622Y0052745D01*
X0026622Y0052745D01*
X0026623Y0052749D01*
X0026646Y0052955D01*
X0026708Y0053153D01*
X0026808Y0053335D01*
X0026942Y0053494D01*
X0027104Y0053624D01*
X0027288Y0053720D01*
X0027487Y0053779D01*
X0027487Y0053779D01*
X0027487Y0053779D01*
X0027693Y0053798D01*
X0027900Y0053776D01*
X0027900Y0053776D01*
G37*
G36*
X0030440Y0053776D02*
X0030440Y0053776D01*
X0030440Y0053776D01*
X0030638Y0053715D01*
X0030821Y0053616D01*
X0030981Y0053484D01*
X0031112Y0053323D01*
X0031209Y0053140D01*
X0031269Y0052941D01*
X0031290Y0052734D01*
X0031290Y0052418D01*
X0031290Y0052407D01*
X0031290Y0052407D01*
X0031289Y0052403D01*
X0031266Y0052197D01*
X0031204Y0051999D01*
X0031104Y0051817D01*
X0030970Y0051658D01*
X0030808Y0051528D01*
X0030624Y0051432D01*
X0030425Y0051373D01*
X0030425Y0051373D01*
X0030425Y0051373D01*
X0030219Y0051354D01*
X0030012Y0051376D01*
X0030012Y0051376D01*
X0030012Y0051376D01*
X0029814Y0051437D01*
X0029631Y0051536D01*
X0029471Y0051668D01*
X0029340Y0051829D01*
X0029243Y0052012D01*
X0029183Y0052211D01*
X0029162Y0052418D01*
X0029162Y0052734D01*
X0029162Y0052745D01*
X0029162Y0052745D01*
X0029163Y0052749D01*
X0029186Y0052955D01*
X0029248Y0053153D01*
X0029348Y0053335D01*
X0029482Y0053494D01*
X0029644Y0053624D01*
X0029828Y0053720D01*
X0030027Y0053779D01*
X0030027Y0053779D01*
X0030027Y0053779D01*
X0030233Y0053798D01*
X0030440Y0053776D01*
X0030440Y0053776D01*
G37*
G36*
X0032980Y0053776D02*
X0032980Y0053776D01*
X0032980Y0053776D01*
X0033178Y0053715D01*
X0033361Y0053616D01*
X0033521Y0053484D01*
X0033652Y0053323D01*
X0033749Y0053140D01*
X0033809Y0052941D01*
X0033830Y0052734D01*
X0033830Y0052418D01*
X0033830Y0052407D01*
X0033830Y0052407D01*
X0033829Y0052403D01*
X0033806Y0052197D01*
X0033744Y0051999D01*
X0033644Y0051817D01*
X0033510Y0051658D01*
X0033348Y0051528D01*
X0033164Y0051432D01*
X0032965Y0051373D01*
X0032965Y0051373D01*
X0032965Y0051373D01*
X0032759Y0051354D01*
X0032552Y0051376D01*
X0032552Y0051376D01*
X0032552Y0051376D01*
X0032354Y0051437D01*
X0032171Y0051536D01*
X0032011Y0051668D01*
X0031880Y0051829D01*
X0031783Y0052012D01*
X0031723Y0052211D01*
X0031702Y0052418D01*
X0031702Y0052734D01*
X0031702Y0052745D01*
X0031702Y0052745D01*
X0031703Y0052749D01*
X0031726Y0052955D01*
X0031788Y0053153D01*
X0031888Y0053335D01*
X0032022Y0053494D01*
X0032184Y0053624D01*
X0032368Y0053720D01*
X0032567Y0053779D01*
X0032567Y0053779D01*
X0032567Y0053779D01*
X0032773Y0053798D01*
X0032980Y0053776D01*
X0032980Y0053776D01*
G37*
G36*
X0043140Y0053776D02*
X0043140Y0053776D01*
X0043140Y0053776D01*
X0043338Y0053715D01*
X0043521Y0053616D01*
X0043681Y0053484D01*
X0043812Y0053323D01*
X0043909Y0053140D01*
X0043969Y0052941D01*
X0043990Y0052734D01*
X0043990Y0052418D01*
X0043990Y0052407D01*
X0043990Y0052407D01*
X0043989Y0052403D01*
X0043966Y0052197D01*
X0043904Y0051999D01*
X0043804Y0051817D01*
X0043670Y0051658D01*
X0043508Y0051528D01*
X0043324Y0051432D01*
X0043125Y0051373D01*
X0043125Y0051373D01*
X0043125Y0051373D01*
X0042919Y0051354D01*
X0042712Y0051376D01*
X0042712Y0051376D01*
X0042712Y0051376D01*
X0042514Y0051437D01*
X0042331Y0051536D01*
X0042171Y0051668D01*
X0042040Y0051829D01*
X0041943Y0052012D01*
X0041883Y0052211D01*
X0041862Y0052418D01*
X0041862Y0052734D01*
X0041862Y0052745D01*
X0041862Y0052745D01*
X0041863Y0052749D01*
X0041886Y0052955D01*
X0041948Y0053153D01*
X0042048Y0053335D01*
X0042182Y0053494D01*
X0042344Y0053624D01*
X0042528Y0053720D01*
X0042727Y0053779D01*
X0042727Y0053779D01*
X0042727Y0053779D01*
X0042933Y0053798D01*
X0043140Y0053776D01*
X0043140Y0053776D01*
G37*
G36*
X0045680Y0053776D02*
X0045680Y0053776D01*
X0045680Y0053776D01*
X0045878Y0053715D01*
X0046061Y0053616D01*
X0046221Y0053484D01*
X0046352Y0053323D01*
X0046449Y0053140D01*
X0046509Y0052941D01*
X0046530Y0052734D01*
X0046530Y0052418D01*
X0046530Y0052407D01*
X0046530Y0052407D01*
X0046529Y0052403D01*
X0046506Y0052197D01*
X0046444Y0051999D01*
X0046344Y0051817D01*
X0046210Y0051658D01*
X0046048Y0051528D01*
X0045864Y0051432D01*
X0045665Y0051373D01*
X0045665Y0051373D01*
X0045665Y0051373D01*
X0045459Y0051354D01*
X0045252Y0051376D01*
X0045252Y0051376D01*
X0045252Y0051376D01*
X0045054Y0051437D01*
X0044871Y0051536D01*
X0044711Y0051668D01*
X0044580Y0051829D01*
X0044483Y0052012D01*
X0044423Y0052211D01*
X0044402Y0052418D01*
X0044402Y0052734D01*
X0044402Y0052745D01*
X0044402Y0052745D01*
X0044403Y0052749D01*
X0044426Y0052955D01*
X0044488Y0053153D01*
X0044588Y0053335D01*
X0044722Y0053494D01*
X0044884Y0053624D01*
X0045068Y0053720D01*
X0045267Y0053779D01*
X0045267Y0053779D01*
X0045267Y0053779D01*
X0045473Y0053798D01*
X0045680Y0053776D01*
X0045680Y0053776D01*
G37*
G36*
X0048220Y0053776D02*
X0048220Y0053776D01*
X0048220Y0053776D01*
X0048418Y0053715D01*
X0048601Y0053616D01*
X0048761Y0053484D01*
X0048892Y0053323D01*
X0048989Y0053140D01*
X0049049Y0052941D01*
X0049070Y0052734D01*
X0049070Y0052418D01*
X0049070Y0052407D01*
X0049070Y0052407D01*
X0049069Y0052403D01*
X0049046Y0052197D01*
X0048984Y0051999D01*
X0048884Y0051817D01*
X0048750Y0051658D01*
X0048588Y0051528D01*
X0048404Y0051432D01*
X0048205Y0051373D01*
X0048205Y0051373D01*
X0048205Y0051373D01*
X0047999Y0051354D01*
X0047792Y0051376D01*
X0047792Y0051376D01*
X0047792Y0051376D01*
X0047594Y0051437D01*
X0047411Y0051536D01*
X0047251Y0051668D01*
X0047120Y0051829D01*
X0047023Y0052012D01*
X0046963Y0052211D01*
X0046942Y0052418D01*
X0046942Y0052734D01*
X0046942Y0052745D01*
X0046942Y0052745D01*
X0046943Y0052749D01*
X0046966Y0052955D01*
X0047028Y0053153D01*
X0047128Y0053335D01*
X0047262Y0053494D01*
X0047424Y0053624D01*
X0047608Y0053720D01*
X0047807Y0053779D01*
X0047807Y0053779D01*
X0047807Y0053779D01*
X0048013Y0053798D01*
X0048220Y0053776D01*
X0048220Y0053776D01*
G37*
G36*
X0050760Y0053776D02*
X0050760Y0053776D01*
X0050760Y0053776D01*
X0050958Y0053715D01*
X0051141Y0053616D01*
X0051301Y0053484D01*
X0051432Y0053323D01*
X0051529Y0053140D01*
X0051589Y0052941D01*
X0051610Y0052734D01*
X0051610Y0052418D01*
X0051610Y0052407D01*
X0051610Y0052407D01*
X0051609Y0052403D01*
X0051586Y0052197D01*
X0051524Y0051999D01*
X0051424Y0051817D01*
X0051290Y0051658D01*
X0051128Y0051528D01*
X0050944Y0051432D01*
X0050745Y0051373D01*
X0050745Y0051373D01*
X0050745Y0051373D01*
X0050539Y0051354D01*
X0050332Y0051376D01*
X0050332Y0051376D01*
X0050332Y0051376D01*
X0050134Y0051437D01*
X0049951Y0051536D01*
X0049791Y0051668D01*
X0049660Y0051829D01*
X0049563Y0052012D01*
X0049503Y0052211D01*
X0049482Y0052418D01*
X0049482Y0052734D01*
X0049482Y0052745D01*
X0049482Y0052745D01*
X0049483Y0052749D01*
X0049506Y0052955D01*
X0049568Y0053153D01*
X0049668Y0053335D01*
X0049802Y0053494D01*
X0049964Y0053624D01*
X0050148Y0053720D01*
X0050347Y0053779D01*
X0050347Y0053779D01*
X0050347Y0053779D01*
X0050553Y0053798D01*
X0050760Y0053776D01*
X0050760Y0053776D01*
G37*
G36*
X0053300Y0053776D02*
X0053300Y0053776D01*
X0053300Y0053776D01*
X0053498Y0053715D01*
X0053681Y0053616D01*
X0053841Y0053484D01*
X0053972Y0053323D01*
X0054069Y0053140D01*
X0054129Y0052941D01*
X0054150Y0052734D01*
X0054150Y0052418D01*
X0054150Y0052407D01*
X0054150Y0052407D01*
X0054149Y0052403D01*
X0054126Y0052197D01*
X0054064Y0051999D01*
X0053964Y0051817D01*
X0053830Y0051658D01*
X0053668Y0051528D01*
X0053484Y0051432D01*
X0053285Y0051373D01*
X0053285Y0051373D01*
X0053285Y0051373D01*
X0053079Y0051354D01*
X0052872Y0051376D01*
X0052872Y0051376D01*
X0052872Y0051376D01*
X0052674Y0051437D01*
X0052491Y0051536D01*
X0052331Y0051668D01*
X0052200Y0051829D01*
X0052103Y0052012D01*
X0052043Y0052211D01*
X0052022Y0052418D01*
X0052022Y0052734D01*
X0052022Y0052745D01*
X0052022Y0052745D01*
X0052023Y0052749D01*
X0052046Y0052955D01*
X0052108Y0053153D01*
X0052208Y0053335D01*
X0052342Y0053494D01*
X0052504Y0053624D01*
X0052688Y0053720D01*
X0052887Y0053779D01*
X0052887Y0053779D01*
X0052887Y0053779D01*
X0053093Y0053798D01*
X0053300Y0053776D01*
X0053300Y0053776D01*
G37*
G36*
X0013510Y0051360D02*
X0011382Y0051360D01*
X0011382Y0053792D01*
X0013510Y0053792D01*
X0013510Y0051360D01*
X0013510Y0051360D01*
G37*
G36*
X0056690Y0051360D02*
X0054562Y0051360D01*
X0054562Y0053792D01*
X0056690Y0053792D01*
X0056690Y0051360D01*
X0056690Y0051360D01*
G37*
G36*
X0084917Y0064135D02*
X0085340Y0064048D01*
X0085737Y0063881D01*
X0086095Y0063639D01*
X0086399Y0063333D01*
X0086638Y0062974D01*
X0086802Y0062575D01*
X0086886Y0062152D01*
X0086886Y0062152D01*
X0086886Y0062152D01*
X0086879Y0061659D01*
X0086879Y0061658D01*
X0086879Y0061658D01*
X0086784Y0061238D01*
X0086608Y0060844D01*
X0086359Y0060492D01*
X0086047Y0060194D01*
X0085683Y0059963D01*
X0085280Y0059807D01*
X0084856Y0059732D01*
X0084424Y0059741D01*
X0084003Y0059834D01*
X0083608Y0060006D01*
X0083253Y0060253D01*
X0082954Y0060563D01*
X0082720Y0060926D01*
X0082561Y0061327D01*
X0082483Y0061751D01*
X0082489Y0062182D01*
X0082579Y0062604D01*
X0082749Y0063001D01*
X0082993Y0063357D01*
X0083301Y0063659D01*
X0083662Y0063895D01*
X0084062Y0064057D01*
X0084486Y0064138D01*
X0084917Y0064135D01*
X0084917Y0064135D01*
G37*
G36*
X0018917Y0064135D02*
X0019340Y0064048D01*
X0019737Y0063881D01*
X0020095Y0063639D01*
X0020399Y0063333D01*
X0020638Y0062974D01*
X0020802Y0062575D01*
X0020886Y0062152D01*
X0020886Y0062152D01*
X0020886Y0062152D01*
X0020879Y0061659D01*
X0020879Y0061658D01*
X0020879Y0061658D01*
X0020784Y0061238D01*
X0020608Y0060844D01*
X0020359Y0060492D01*
X0020047Y0060194D01*
X0019683Y0059963D01*
X0019280Y0059807D01*
X0018856Y0059732D01*
X0018424Y0059741D01*
X0018003Y0059834D01*
X0017608Y0060006D01*
X0017253Y0060253D01*
X0016954Y0060563D01*
X0016720Y0060926D01*
X0016561Y0061327D01*
X0016483Y0061751D01*
X0016489Y0062182D01*
X0016579Y0062604D01*
X0016749Y0063001D01*
X0016993Y0063357D01*
X0017301Y0063659D01*
X0017662Y0063895D01*
X0018062Y0064057D01*
X0018486Y0064138D01*
X0018917Y0064135D01*
X0018917Y0064135D01*
G37*
G36*
X0093905Y0064435D02*
X0094231Y0064368D01*
X0094538Y0064239D01*
X0094815Y0064052D01*
X0095050Y0063816D01*
X0095234Y0063538D01*
X0095361Y0063230D01*
X0095426Y0062903D01*
X0095426Y0062903D01*
X0095426Y0062903D01*
X0095421Y0062522D01*
X0095421Y0062521D01*
X0095421Y0062521D01*
X0095347Y0062197D01*
X0095211Y0061892D01*
X0095019Y0061620D01*
X0094778Y0061390D01*
X0094496Y0061211D01*
X0094185Y0061091D01*
X0093857Y0061033D01*
X0093524Y0061040D01*
X0093198Y0061111D01*
X0092893Y0061245D01*
X0092619Y0061435D01*
X0092387Y0061675D01*
X0092207Y0061955D01*
X0092084Y0062265D01*
X0092024Y0062593D01*
X0092028Y0062926D01*
X0092098Y0063253D01*
X0092229Y0063559D01*
X0092417Y0063834D01*
X0092656Y0064067D01*
X0092935Y0064250D01*
X0093244Y0064375D01*
X0093571Y0064437D01*
X0093905Y0064435D01*
X0093905Y0064435D01*
G37*
G36*
X0098985Y0064435D02*
X0099311Y0064368D01*
X0099618Y0064239D01*
X0099895Y0064052D01*
X0100130Y0063816D01*
X0100314Y0063538D01*
X0100441Y0063230D01*
X0100506Y0062903D01*
X0100506Y0062903D01*
X0100506Y0062903D01*
X0100501Y0062522D01*
X0100501Y0062521D01*
X0100501Y0062521D01*
X0100427Y0062197D01*
X0100291Y0061892D01*
X0100099Y0061620D01*
X0099858Y0061390D01*
X0099576Y0061211D01*
X0099265Y0061091D01*
X0098937Y0061033D01*
X0098604Y0061040D01*
X0098278Y0061111D01*
X0097973Y0061245D01*
X0097699Y0061435D01*
X0097467Y0061675D01*
X0097287Y0061955D01*
X0097164Y0062265D01*
X0097104Y0062593D01*
X0097108Y0062926D01*
X0097178Y0063253D01*
X0097309Y0063559D01*
X0097497Y0063834D01*
X0097736Y0064067D01*
X0098015Y0064250D01*
X0098324Y0064375D01*
X0098651Y0064437D01*
X0098985Y0064435D01*
X0098985Y0064435D01*
G37*
G36*
X0002455Y0063800D02*
X0002455Y0063800D01*
X0002459Y0063799D01*
X0002665Y0063776D01*
X0002863Y0063714D01*
X0003045Y0063614D01*
X0003204Y0063480D01*
X0003334Y0063318D01*
X0003430Y0063134D01*
X0003489Y0062935D01*
X0003489Y0062935D01*
X0003489Y0062935D01*
X0003508Y0062729D01*
X0003486Y0062522D01*
X0003486Y0062522D01*
X0003486Y0062522D01*
X0003425Y0062324D01*
X0003326Y0062141D01*
X0003194Y0061981D01*
X0003033Y0061850D01*
X0002850Y0061753D01*
X0002651Y0061693D01*
X0002444Y0061672D01*
X0002128Y0061672D01*
X0002117Y0061672D01*
X0002117Y0061672D01*
X0002113Y0061673D01*
X0001907Y0061696D01*
X0001709Y0061758D01*
X0001527Y0061858D01*
X0001368Y0061992D01*
X0001238Y0062154D01*
X0001142Y0062338D01*
X0001083Y0062537D01*
X0001083Y0062537D01*
X0001083Y0062537D01*
X0001064Y0062743D01*
X0001086Y0062950D01*
X0001086Y0062950D01*
X0001086Y0062950D01*
X0001147Y0063148D01*
X0001246Y0063331D01*
X0001378Y0063491D01*
X0001539Y0063622D01*
X0001722Y0063719D01*
X0001921Y0063779D01*
X0002128Y0063800D01*
X0002444Y0063800D01*
X0002455Y0063800D01*
X0002455Y0063800D01*
G37*
G36*
X0026972Y0065570D02*
X0026972Y0065570D01*
X0026976Y0065569D01*
X0027182Y0065546D01*
X0027380Y0065484D01*
X0027562Y0065384D01*
X0027721Y0065250D01*
X0027851Y0065088D01*
X0027947Y0064904D01*
X0028006Y0064705D01*
X0028006Y0064705D01*
X0028006Y0064705D01*
X0028025Y0064499D01*
X0028003Y0064292D01*
X0028003Y0064292D01*
X0028003Y0064292D01*
X0027942Y0064094D01*
X0027843Y0063911D01*
X0027711Y0063751D01*
X0027550Y0063620D01*
X0027366Y0063523D01*
X0027168Y0063463D01*
X0026961Y0063442D01*
X0026951Y0063442D01*
X0026940Y0063442D01*
X0026940Y0063442D01*
X0026936Y0063443D01*
X0026730Y0063466D01*
X0026532Y0063528D01*
X0026350Y0063628D01*
X0026191Y0063762D01*
X0026061Y0063924D01*
X0025965Y0064108D01*
X0025906Y0064307D01*
X0025906Y0064307D01*
X0025906Y0064307D01*
X0025887Y0064513D01*
X0025909Y0064720D01*
X0025909Y0064720D01*
X0025909Y0064720D01*
X0025970Y0064918D01*
X0026069Y0065101D01*
X0026201Y0065261D01*
X0026362Y0065392D01*
X0026546Y0065489D01*
X0026744Y0065549D01*
X0026951Y0065570D01*
X0026961Y0065570D01*
X0026972Y0065570D01*
X0026972Y0065570D01*
G37*
G36*
X0024432Y0065570D02*
X0024432Y0065570D01*
X0024436Y0065569D01*
X0024642Y0065546D01*
X0024840Y0065484D01*
X0025022Y0065384D01*
X0025181Y0065250D01*
X0025311Y0065088D01*
X0025407Y0064904D01*
X0025466Y0064705D01*
X0025466Y0064705D01*
X0025466Y0064705D01*
X0025485Y0064499D01*
X0025463Y0064292D01*
X0025463Y0064292D01*
X0025463Y0064292D01*
X0025402Y0064094D01*
X0025303Y0063911D01*
X0025171Y0063751D01*
X0025010Y0063620D01*
X0024826Y0063523D01*
X0024628Y0063463D01*
X0024421Y0063442D01*
X0024411Y0063442D01*
X0024400Y0063442D01*
X0024400Y0063442D01*
X0024396Y0063443D01*
X0024190Y0063466D01*
X0023992Y0063528D01*
X0023810Y0063628D01*
X0023651Y0063762D01*
X0023521Y0063924D01*
X0023425Y0064108D01*
X0023366Y0064307D01*
X0023366Y0064307D01*
X0023366Y0064307D01*
X0023347Y0064513D01*
X0023369Y0064720D01*
X0023369Y0064720D01*
X0023369Y0064720D01*
X0023430Y0064918D01*
X0023529Y0065101D01*
X0023661Y0065261D01*
X0023822Y0065392D01*
X0024006Y0065489D01*
X0024204Y0065549D01*
X0024411Y0065570D01*
X0024421Y0065570D01*
X0024432Y0065570D01*
X0024432Y0065570D01*
G37*
G36*
X0096424Y0066775D02*
X0096712Y0066716D01*
X0096983Y0066602D01*
X0097227Y0066437D01*
X0097434Y0066229D01*
X0097597Y0065984D01*
X0097709Y0065712D01*
X0097766Y0065424D01*
X0097766Y0065424D01*
X0097766Y0065423D01*
X0097761Y0065087D01*
X0097761Y0065086D01*
X0097761Y0065086D01*
X0097696Y0064800D01*
X0097577Y0064531D01*
X0097407Y0064291D01*
X0097194Y0064088D01*
X0096946Y0063931D01*
X0096671Y0063824D01*
X0096382Y0063773D01*
X0096088Y0063779D01*
X0095800Y0063843D01*
X0095531Y0063960D01*
X0095289Y0064128D01*
X0095085Y0064340D01*
X0094925Y0064587D01*
X0094817Y0064861D01*
X0094764Y0065150D01*
X0094768Y0065444D01*
X0094829Y0065732D01*
X0094945Y0066002D01*
X0095111Y0066245D01*
X0095322Y0066451D01*
X0095568Y0066612D01*
X0095840Y0066722D01*
X0096129Y0066777D01*
X0096424Y0066775D01*
X0096424Y0066775D01*
G37*
G36*
X0002455Y0066340D02*
X0002455Y0066340D01*
X0002459Y0066339D01*
X0002665Y0066316D01*
X0002863Y0066254D01*
X0003045Y0066154D01*
X0003204Y0066020D01*
X0003334Y0065858D01*
X0003430Y0065674D01*
X0003489Y0065475D01*
X0003489Y0065475D01*
X0003489Y0065475D01*
X0003508Y0065269D01*
X0003486Y0065062D01*
X0003486Y0065062D01*
X0003486Y0065062D01*
X0003425Y0064864D01*
X0003326Y0064681D01*
X0003194Y0064521D01*
X0003033Y0064390D01*
X0002850Y0064293D01*
X0002651Y0064233D01*
X0002444Y0064212D01*
X0002128Y0064212D01*
X0002117Y0064212D01*
X0002117Y0064212D01*
X0002113Y0064213D01*
X0001907Y0064236D01*
X0001709Y0064298D01*
X0001527Y0064398D01*
X0001368Y0064532D01*
X0001238Y0064694D01*
X0001142Y0064878D01*
X0001083Y0065077D01*
X0001083Y0065077D01*
X0001083Y0065077D01*
X0001064Y0065283D01*
X0001086Y0065490D01*
X0001086Y0065490D01*
X0001086Y0065490D01*
X0001147Y0065688D01*
X0001246Y0065871D01*
X0001378Y0066031D01*
X0001539Y0066162D01*
X0001722Y0066259D01*
X0001921Y0066319D01*
X0002128Y0066340D01*
X0002444Y0066340D01*
X0002455Y0066340D01*
X0002455Y0066340D01*
G37*
G36*
X0026972Y0068110D02*
X0026972Y0068110D01*
X0026976Y0068109D01*
X0027182Y0068086D01*
X0027380Y0068024D01*
X0027562Y0067924D01*
X0027721Y0067790D01*
X0027851Y0067628D01*
X0027947Y0067444D01*
X0028006Y0067245D01*
X0028006Y0067245D01*
X0028006Y0067245D01*
X0028025Y0067039D01*
X0028003Y0066832D01*
X0028003Y0066832D01*
X0028003Y0066832D01*
X0027942Y0066634D01*
X0027843Y0066451D01*
X0027711Y0066291D01*
X0027550Y0066160D01*
X0027366Y0066063D01*
X0027168Y0066003D01*
X0026961Y0065982D01*
X0026951Y0065982D01*
X0026940Y0065982D01*
X0026940Y0065982D01*
X0026936Y0065983D01*
X0026730Y0066006D01*
X0026532Y0066068D01*
X0026350Y0066168D01*
X0026191Y0066302D01*
X0026061Y0066464D01*
X0025965Y0066648D01*
X0025906Y0066847D01*
X0025906Y0066847D01*
X0025906Y0066847D01*
X0025887Y0067053D01*
X0025909Y0067260D01*
X0025909Y0067260D01*
X0025909Y0067260D01*
X0025970Y0067458D01*
X0026069Y0067641D01*
X0026201Y0067801D01*
X0026362Y0067932D01*
X0026546Y0068029D01*
X0026744Y0068089D01*
X0026951Y0068110D01*
X0026961Y0068110D01*
X0026972Y0068110D01*
X0026972Y0068110D01*
G37*
G36*
X0024432Y0068110D02*
X0024432Y0068110D01*
X0024436Y0068109D01*
X0024642Y0068086D01*
X0024840Y0068024D01*
X0025022Y0067924D01*
X0025181Y0067790D01*
X0025311Y0067628D01*
X0025407Y0067444D01*
X0025466Y0067245D01*
X0025466Y0067245D01*
X0025466Y0067245D01*
X0025485Y0067039D01*
X0025463Y0066832D01*
X0025463Y0066832D01*
X0025463Y0066832D01*
X0025402Y0066634D01*
X0025303Y0066451D01*
X0025171Y0066291D01*
X0025010Y0066160D01*
X0024826Y0066063D01*
X0024628Y0066003D01*
X0024421Y0065982D01*
X0024411Y0065982D01*
X0024400Y0065982D01*
X0024400Y0065982D01*
X0024396Y0065983D01*
X0024190Y0066006D01*
X0023992Y0066068D01*
X0023810Y0066168D01*
X0023651Y0066302D01*
X0023521Y0066464D01*
X0023425Y0066648D01*
X0023366Y0066847D01*
X0023366Y0066847D01*
X0023366Y0066847D01*
X0023347Y0067053D01*
X0023369Y0067260D01*
X0023369Y0067260D01*
X0023369Y0067260D01*
X0023430Y0067458D01*
X0023529Y0067641D01*
X0023661Y0067801D01*
X0023822Y0067932D01*
X0024006Y0068029D01*
X0024204Y0068089D01*
X0024411Y0068110D01*
X0024421Y0068110D01*
X0024432Y0068110D01*
X0024432Y0068110D01*
G37*
G36*
X0093905Y0069515D02*
X0094231Y0069448D01*
X0094538Y0069319D01*
X0094815Y0069132D01*
X0095050Y0068896D01*
X0095234Y0068618D01*
X0095361Y0068310D01*
X0095426Y0067983D01*
X0095426Y0067983D01*
X0095426Y0067983D01*
X0095421Y0067602D01*
X0095421Y0067601D01*
X0095421Y0067601D01*
X0095347Y0067277D01*
X0095211Y0066972D01*
X0095019Y0066700D01*
X0094778Y0066470D01*
X0094496Y0066291D01*
X0094185Y0066171D01*
X0093857Y0066113D01*
X0093524Y0066120D01*
X0093198Y0066191D01*
X0092893Y0066325D01*
X0092619Y0066515D01*
X0092387Y0066755D01*
X0092207Y0067035D01*
X0092084Y0067345D01*
X0092024Y0067673D01*
X0092028Y0068006D01*
X0092098Y0068333D01*
X0092229Y0068639D01*
X0092417Y0068914D01*
X0092656Y0069147D01*
X0092935Y0069330D01*
X0093244Y0069455D01*
X0093571Y0069517D01*
X0093905Y0069515D01*
X0093905Y0069515D01*
G37*
G36*
X0098985Y0069515D02*
X0099311Y0069448D01*
X0099618Y0069319D01*
X0099895Y0069132D01*
X0100130Y0068896D01*
X0100314Y0068618D01*
X0100441Y0068310D01*
X0100506Y0067983D01*
X0100506Y0067983D01*
X0100506Y0067983D01*
X0100501Y0067602D01*
X0100501Y0067601D01*
X0100501Y0067601D01*
X0100427Y0067277D01*
X0100291Y0066972D01*
X0100099Y0066700D01*
X0099858Y0066470D01*
X0099576Y0066291D01*
X0099265Y0066171D01*
X0098937Y0066113D01*
X0098604Y0066120D01*
X0098278Y0066191D01*
X0097973Y0066325D01*
X0097699Y0066515D01*
X0097467Y0066755D01*
X0097287Y0067035D01*
X0097164Y0067345D01*
X0097104Y0067673D01*
X0097108Y0068006D01*
X0097178Y0068333D01*
X0097309Y0068639D01*
X0097497Y0068914D01*
X0097736Y0069147D01*
X0098015Y0069330D01*
X0098324Y0069455D01*
X0098651Y0069517D01*
X0098985Y0069515D01*
X0098985Y0069515D01*
G37*
G36*
X0002455Y0068880D02*
X0002455Y0068880D01*
X0002459Y0068879D01*
X0002665Y0068856D01*
X0002863Y0068794D01*
X0003045Y0068694D01*
X0003204Y0068560D01*
X0003334Y0068398D01*
X0003430Y0068214D01*
X0003489Y0068015D01*
X0003489Y0068015D01*
X0003489Y0068015D01*
X0003508Y0067809D01*
X0003486Y0067602D01*
X0003486Y0067602D01*
X0003486Y0067602D01*
X0003425Y0067404D01*
X0003326Y0067221D01*
X0003194Y0067061D01*
X0003033Y0066930D01*
X0002850Y0066833D01*
X0002651Y0066773D01*
X0002444Y0066752D01*
X0002128Y0066752D01*
X0002117Y0066752D01*
X0002117Y0066752D01*
X0002113Y0066753D01*
X0001907Y0066776D01*
X0001709Y0066838D01*
X0001527Y0066938D01*
X0001368Y0067072D01*
X0001238Y0067234D01*
X0001142Y0067418D01*
X0001083Y0067617D01*
X0001083Y0067617D01*
X0001083Y0067617D01*
X0001064Y0067823D01*
X0001086Y0068030D01*
X0001086Y0068030D01*
X0001086Y0068030D01*
X0001147Y0068228D01*
X0001246Y0068411D01*
X0001378Y0068571D01*
X0001539Y0068702D01*
X0001722Y0068799D01*
X0001921Y0068859D01*
X0002128Y0068880D01*
X0002444Y0068880D01*
X0002455Y0068880D01*
X0002455Y0068880D01*
G37*
G36*
X0026972Y0070650D02*
X0026972Y0070650D01*
X0026976Y0070649D01*
X0027182Y0070626D01*
X0027380Y0070564D01*
X0027562Y0070464D01*
X0027721Y0070330D01*
X0027851Y0070168D01*
X0027947Y0069984D01*
X0028006Y0069785D01*
X0028006Y0069785D01*
X0028006Y0069785D01*
X0028025Y0069579D01*
X0028003Y0069372D01*
X0028003Y0069372D01*
X0028003Y0069372D01*
X0027942Y0069174D01*
X0027843Y0068991D01*
X0027711Y0068831D01*
X0027550Y0068700D01*
X0027366Y0068603D01*
X0027168Y0068543D01*
X0026961Y0068522D01*
X0026951Y0068522D01*
X0026940Y0068522D01*
X0026940Y0068522D01*
X0026936Y0068523D01*
X0026730Y0068546D01*
X0026532Y0068608D01*
X0026350Y0068708D01*
X0026191Y0068842D01*
X0026061Y0069004D01*
X0025965Y0069188D01*
X0025906Y0069387D01*
X0025906Y0069387D01*
X0025906Y0069387D01*
X0025887Y0069593D01*
X0025909Y0069800D01*
X0025909Y0069800D01*
X0025909Y0069800D01*
X0025970Y0069998D01*
X0026069Y0070181D01*
X0026201Y0070341D01*
X0026362Y0070472D01*
X0026546Y0070569D01*
X0026744Y0070629D01*
X0026951Y0070650D01*
X0026961Y0070650D01*
X0026972Y0070650D01*
X0026972Y0070650D01*
G37*
G36*
X0024432Y0070650D02*
X0024432Y0070650D01*
X0024436Y0070649D01*
X0024642Y0070626D01*
X0024840Y0070564D01*
X0025022Y0070464D01*
X0025181Y0070330D01*
X0025311Y0070168D01*
X0025407Y0069984D01*
X0025466Y0069785D01*
X0025466Y0069785D01*
X0025466Y0069785D01*
X0025485Y0069579D01*
X0025463Y0069372D01*
X0025463Y0069372D01*
X0025463Y0069372D01*
X0025402Y0069174D01*
X0025303Y0068991D01*
X0025171Y0068831D01*
X0025010Y0068700D01*
X0024826Y0068603D01*
X0024628Y0068543D01*
X0024421Y0068522D01*
X0024411Y0068522D01*
X0024400Y0068522D01*
X0024400Y0068522D01*
X0024396Y0068523D01*
X0024190Y0068546D01*
X0023992Y0068608D01*
X0023810Y0068708D01*
X0023651Y0068842D01*
X0023521Y0069004D01*
X0023425Y0069188D01*
X0023366Y0069387D01*
X0023366Y0069387D01*
X0023366Y0069387D01*
X0023347Y0069593D01*
X0023369Y0069800D01*
X0023369Y0069800D01*
X0023369Y0069800D01*
X0023430Y0069998D01*
X0023529Y0070181D01*
X0023661Y0070341D01*
X0023822Y0070472D01*
X0024006Y0070569D01*
X0024204Y0070629D01*
X0024411Y0070650D01*
X0024421Y0070650D01*
X0024432Y0070650D01*
X0024432Y0070650D01*
G37*
G36*
X0002455Y0071420D02*
X0002455Y0071420D01*
X0002459Y0071419D01*
X0002665Y0071396D01*
X0002863Y0071334D01*
X0003045Y0071234D01*
X0003204Y0071100D01*
X0003334Y0070938D01*
X0003430Y0070754D01*
X0003489Y0070555D01*
X0003489Y0070555D01*
X0003489Y0070555D01*
X0003508Y0070349D01*
X0003486Y0070142D01*
X0003486Y0070142D01*
X0003486Y0070142D01*
X0003425Y0069944D01*
X0003326Y0069761D01*
X0003194Y0069601D01*
X0003033Y0069470D01*
X0002850Y0069373D01*
X0002651Y0069313D01*
X0002444Y0069292D01*
X0002128Y0069292D01*
X0002117Y0069292D01*
X0002117Y0069292D01*
X0002113Y0069293D01*
X0001907Y0069316D01*
X0001709Y0069378D01*
X0001527Y0069478D01*
X0001368Y0069612D01*
X0001238Y0069774D01*
X0001142Y0069958D01*
X0001083Y0070157D01*
X0001083Y0070157D01*
X0001083Y0070157D01*
X0001064Y0070363D01*
X0001086Y0070570D01*
X0001086Y0070570D01*
X0001086Y0070570D01*
X0001147Y0070768D01*
X0001246Y0070951D01*
X0001378Y0071111D01*
X0001539Y0071242D01*
X0001722Y0071339D01*
X0001921Y0071399D01*
X0002128Y0071420D01*
X0002444Y0071420D01*
X0002455Y0071420D01*
X0002455Y0071420D01*
G37*
G36*
X0026972Y0073190D02*
X0026972Y0073190D01*
X0026976Y0073189D01*
X0027182Y0073166D01*
X0027380Y0073104D01*
X0027562Y0073004D01*
X0027721Y0072870D01*
X0027851Y0072708D01*
X0027947Y0072524D01*
X0028006Y0072325D01*
X0028006Y0072325D01*
X0028006Y0072325D01*
X0028025Y0072119D01*
X0028003Y0071912D01*
X0028003Y0071912D01*
X0028003Y0071912D01*
X0027942Y0071714D01*
X0027843Y0071531D01*
X0027711Y0071371D01*
X0027550Y0071240D01*
X0027366Y0071143D01*
X0027168Y0071083D01*
X0026961Y0071062D01*
X0026951Y0071062D01*
X0026940Y0071062D01*
X0026940Y0071062D01*
X0026936Y0071063D01*
X0026730Y0071086D01*
X0026532Y0071148D01*
X0026350Y0071248D01*
X0026191Y0071382D01*
X0026061Y0071544D01*
X0025965Y0071728D01*
X0025906Y0071927D01*
X0025906Y0071927D01*
X0025906Y0071927D01*
X0025887Y0072133D01*
X0025909Y0072340D01*
X0025909Y0072340D01*
X0025909Y0072340D01*
X0025970Y0072538D01*
X0026069Y0072721D01*
X0026201Y0072881D01*
X0026362Y0073012D01*
X0026546Y0073109D01*
X0026744Y0073169D01*
X0026951Y0073190D01*
X0026961Y0073190D01*
X0026972Y0073190D01*
X0026972Y0073190D01*
G37*
G36*
X0024432Y0073190D02*
X0024432Y0073190D01*
X0024436Y0073189D01*
X0024642Y0073166D01*
X0024840Y0073104D01*
X0025022Y0073004D01*
X0025181Y0072870D01*
X0025311Y0072708D01*
X0025407Y0072524D01*
X0025466Y0072325D01*
X0025466Y0072325D01*
X0025466Y0072325D01*
X0025485Y0072119D01*
X0025463Y0071912D01*
X0025463Y0071912D01*
X0025463Y0071912D01*
X0025402Y0071714D01*
X0025303Y0071531D01*
X0025171Y0071371D01*
X0025010Y0071240D01*
X0024826Y0071143D01*
X0024628Y0071083D01*
X0024421Y0071062D01*
X0024411Y0071062D01*
X0024400Y0071062D01*
X0024400Y0071062D01*
X0024396Y0071063D01*
X0024190Y0071086D01*
X0023992Y0071148D01*
X0023810Y0071248D01*
X0023651Y0071382D01*
X0023521Y0071544D01*
X0023425Y0071728D01*
X0023366Y0071927D01*
X0023366Y0071927D01*
X0023366Y0071927D01*
X0023347Y0072133D01*
X0023369Y0072340D01*
X0023369Y0072340D01*
X0023369Y0072340D01*
X0023430Y0072538D01*
X0023529Y0072721D01*
X0023661Y0072881D01*
X0023822Y0073012D01*
X0024006Y0073109D01*
X0024204Y0073169D01*
X0024411Y0073190D01*
X0024421Y0073190D01*
X0024432Y0073190D01*
X0024432Y0073190D01*
G37*
G36*
X0002455Y0073960D02*
X0002455Y0073960D01*
X0002459Y0073959D01*
X0002665Y0073936D01*
X0002863Y0073874D01*
X0003045Y0073774D01*
X0003204Y0073640D01*
X0003334Y0073478D01*
X0003430Y0073294D01*
X0003489Y0073095D01*
X0003489Y0073095D01*
X0003489Y0073095D01*
X0003508Y0072889D01*
X0003486Y0072682D01*
X0003486Y0072682D01*
X0003486Y0072682D01*
X0003425Y0072484D01*
X0003326Y0072301D01*
X0003194Y0072141D01*
X0003033Y0072010D01*
X0002850Y0071913D01*
X0002651Y0071853D01*
X0002444Y0071832D01*
X0002128Y0071832D01*
X0002117Y0071832D01*
X0002117Y0071832D01*
X0002113Y0071833D01*
X0001907Y0071856D01*
X0001709Y0071918D01*
X0001527Y0072018D01*
X0001368Y0072152D01*
X0001238Y0072314D01*
X0001142Y0072498D01*
X0001083Y0072697D01*
X0001083Y0072697D01*
X0001083Y0072697D01*
X0001064Y0072903D01*
X0001086Y0073110D01*
X0001086Y0073110D01*
X0001086Y0073110D01*
X0001147Y0073308D01*
X0001246Y0073491D01*
X0001378Y0073651D01*
X0001539Y0073782D01*
X0001722Y0073879D01*
X0001921Y0073939D01*
X0002128Y0073960D01*
X0002444Y0073960D01*
X0002455Y0073960D01*
X0002455Y0073960D01*
G37*
G36*
X0026972Y0075730D02*
X0026972Y0075730D01*
X0026976Y0075729D01*
X0027182Y0075706D01*
X0027380Y0075644D01*
X0027562Y0075544D01*
X0027721Y0075410D01*
X0027851Y0075248D01*
X0027947Y0075064D01*
X0028006Y0074865D01*
X0028006Y0074865D01*
X0028006Y0074865D01*
X0028025Y0074659D01*
X0028003Y0074452D01*
X0028003Y0074452D01*
X0028003Y0074452D01*
X0027942Y0074254D01*
X0027843Y0074071D01*
X0027711Y0073911D01*
X0027550Y0073780D01*
X0027366Y0073683D01*
X0027168Y0073623D01*
X0026961Y0073602D01*
X0026951Y0073602D01*
X0026940Y0073602D01*
X0026940Y0073602D01*
X0026936Y0073603D01*
X0026730Y0073626D01*
X0026532Y0073688D01*
X0026350Y0073788D01*
X0026191Y0073922D01*
X0026061Y0074084D01*
X0025965Y0074268D01*
X0025906Y0074467D01*
X0025906Y0074467D01*
X0025906Y0074467D01*
X0025887Y0074673D01*
X0025909Y0074880D01*
X0025909Y0074880D01*
X0025909Y0074880D01*
X0025970Y0075078D01*
X0026069Y0075261D01*
X0026201Y0075421D01*
X0026362Y0075552D01*
X0026546Y0075649D01*
X0026744Y0075709D01*
X0026951Y0075730D01*
X0026961Y0075730D01*
X0026972Y0075730D01*
X0026972Y0075730D01*
G37*
G36*
X0024432Y0075730D02*
X0024432Y0075730D01*
X0024436Y0075729D01*
X0024642Y0075706D01*
X0024840Y0075644D01*
X0025022Y0075544D01*
X0025181Y0075410D01*
X0025311Y0075248D01*
X0025407Y0075064D01*
X0025466Y0074865D01*
X0025466Y0074865D01*
X0025466Y0074865D01*
X0025485Y0074659D01*
X0025463Y0074452D01*
X0025463Y0074452D01*
X0025463Y0074452D01*
X0025402Y0074254D01*
X0025303Y0074071D01*
X0025171Y0073911D01*
X0025010Y0073780D01*
X0024826Y0073683D01*
X0024628Y0073623D01*
X0024421Y0073602D01*
X0024411Y0073602D01*
X0024400Y0073602D01*
X0024400Y0073602D01*
X0024396Y0073603D01*
X0024190Y0073626D01*
X0023992Y0073688D01*
X0023810Y0073788D01*
X0023651Y0073922D01*
X0023521Y0074084D01*
X0023425Y0074268D01*
X0023366Y0074467D01*
X0023366Y0074467D01*
X0023366Y0074467D01*
X0023347Y0074673D01*
X0023369Y0074880D01*
X0023369Y0074880D01*
X0023369Y0074880D01*
X0023430Y0075078D01*
X0023529Y0075261D01*
X0023661Y0075421D01*
X0023822Y0075552D01*
X0024006Y0075649D01*
X0024204Y0075709D01*
X0024411Y0075730D01*
X0024421Y0075730D01*
X0024432Y0075730D01*
X0024432Y0075730D01*
G37*
G36*
X0003502Y0074372D02*
X0001070Y0074372D01*
X0001070Y0076500D01*
X0003502Y0076500D01*
X0003502Y0074372D01*
X0003502Y0074372D01*
G37*
G36*
X0024432Y0078270D02*
X0024432Y0078270D01*
X0024436Y0078269D01*
X0024642Y0078246D01*
X0024840Y0078184D01*
X0025022Y0078084D01*
X0025181Y0077950D01*
X0025311Y0077788D01*
X0025407Y0077604D01*
X0025466Y0077405D01*
X0025466Y0077405D01*
X0025466Y0077405D01*
X0025485Y0077199D01*
X0025463Y0076992D01*
X0025463Y0076992D01*
X0025463Y0076992D01*
X0025402Y0076794D01*
X0025303Y0076611D01*
X0025171Y0076451D01*
X0025010Y0076320D01*
X0024826Y0076223D01*
X0024628Y0076163D01*
X0024421Y0076142D01*
X0024411Y0076142D01*
X0024400Y0076142D01*
X0024400Y0076142D01*
X0024396Y0076143D01*
X0024190Y0076166D01*
X0023992Y0076228D01*
X0023810Y0076328D01*
X0023651Y0076462D01*
X0023521Y0076624D01*
X0023425Y0076808D01*
X0023366Y0077007D01*
X0023366Y0077007D01*
X0023366Y0077007D01*
X0023347Y0077213D01*
X0023369Y0077420D01*
X0023369Y0077420D01*
X0023369Y0077420D01*
X0023430Y0077618D01*
X0023529Y0077801D01*
X0023661Y0077961D01*
X0023822Y0078092D01*
X0024006Y0078189D01*
X0024204Y0078249D01*
X0024411Y0078270D01*
X0024421Y0078270D01*
X0024432Y0078270D01*
X0024432Y0078270D01*
G37*
G36*
X0026972Y0078270D02*
X0026972Y0078270D01*
X0026976Y0078269D01*
X0027182Y0078246D01*
X0027380Y0078184D01*
X0027562Y0078084D01*
X0027721Y0077950D01*
X0027851Y0077788D01*
X0027947Y0077604D01*
X0028006Y0077405D01*
X0028006Y0077405D01*
X0028006Y0077405D01*
X0028025Y0077199D01*
X0028003Y0076992D01*
X0028003Y0076992D01*
X0028003Y0076992D01*
X0027942Y0076794D01*
X0027843Y0076611D01*
X0027711Y0076451D01*
X0027550Y0076320D01*
X0027366Y0076223D01*
X0027168Y0076163D01*
X0026961Y0076142D01*
X0026951Y0076142D01*
X0026940Y0076142D01*
X0026940Y0076142D01*
X0026936Y0076143D01*
X0026730Y0076166D01*
X0026532Y0076228D01*
X0026350Y0076328D01*
X0026191Y0076462D01*
X0026061Y0076624D01*
X0025965Y0076808D01*
X0025906Y0077007D01*
X0025906Y0077007D01*
X0025906Y0077007D01*
X0025887Y0077213D01*
X0025909Y0077420D01*
X0025909Y0077420D01*
X0025909Y0077420D01*
X0025970Y0077618D01*
X0026069Y0077801D01*
X0026201Y0077961D01*
X0026362Y0078092D01*
X0026546Y0078189D01*
X0026744Y0078249D01*
X0026951Y0078270D01*
X0026961Y0078270D01*
X0026972Y0078270D01*
X0026972Y0078270D01*
G37*
G36*
X0024432Y0080810D02*
X0024432Y0080810D01*
X0024436Y0080809D01*
X0024642Y0080786D01*
X0024840Y0080724D01*
X0025022Y0080624D01*
X0025181Y0080490D01*
X0025311Y0080328D01*
X0025407Y0080144D01*
X0025466Y0079945D01*
X0025466Y0079945D01*
X0025466Y0079945D01*
X0025485Y0079739D01*
X0025463Y0079532D01*
X0025463Y0079532D01*
X0025463Y0079532D01*
X0025402Y0079334D01*
X0025303Y0079151D01*
X0025171Y0078991D01*
X0025010Y0078860D01*
X0024826Y0078763D01*
X0024628Y0078703D01*
X0024421Y0078682D01*
X0024411Y0078682D01*
X0024400Y0078682D01*
X0024400Y0078682D01*
X0024396Y0078683D01*
X0024190Y0078706D01*
X0023992Y0078768D01*
X0023810Y0078868D01*
X0023651Y0079002D01*
X0023521Y0079164D01*
X0023425Y0079348D01*
X0023366Y0079547D01*
X0023366Y0079547D01*
X0023366Y0079547D01*
X0023347Y0079753D01*
X0023369Y0079960D01*
X0023369Y0079960D01*
X0023369Y0079960D01*
X0023430Y0080158D01*
X0023529Y0080341D01*
X0023661Y0080501D01*
X0023822Y0080632D01*
X0024006Y0080729D01*
X0024204Y0080789D01*
X0024411Y0080810D01*
X0024421Y0080810D01*
X0024432Y0080810D01*
X0024432Y0080810D01*
G37*
G36*
X0026972Y0080810D02*
X0026972Y0080810D01*
X0026976Y0080809D01*
X0027182Y0080786D01*
X0027380Y0080724D01*
X0027562Y0080624D01*
X0027721Y0080490D01*
X0027851Y0080328D01*
X0027947Y0080144D01*
X0028006Y0079945D01*
X0028006Y0079945D01*
X0028006Y0079945D01*
X0028025Y0079739D01*
X0028003Y0079532D01*
X0028003Y0079532D01*
X0028003Y0079532D01*
X0027942Y0079334D01*
X0027843Y0079151D01*
X0027711Y0078991D01*
X0027550Y0078860D01*
X0027366Y0078763D01*
X0027168Y0078703D01*
X0026961Y0078682D01*
X0026951Y0078682D01*
X0026940Y0078682D01*
X0026940Y0078682D01*
X0026936Y0078683D01*
X0026730Y0078706D01*
X0026532Y0078768D01*
X0026350Y0078868D01*
X0026191Y0079002D01*
X0026061Y0079164D01*
X0025965Y0079348D01*
X0025906Y0079547D01*
X0025906Y0079547D01*
X0025906Y0079547D01*
X0025887Y0079753D01*
X0025909Y0079960D01*
X0025909Y0079960D01*
X0025909Y0079960D01*
X0025970Y0080158D01*
X0026069Y0080341D01*
X0026201Y0080501D01*
X0026362Y0080632D01*
X0026546Y0080729D01*
X0026744Y0080789D01*
X0026951Y0080810D01*
X0026961Y0080810D01*
X0026972Y0080810D01*
X0026972Y0080810D01*
G37*
G36*
X0026972Y0083350D02*
X0026972Y0083350D01*
X0026976Y0083349D01*
X0027182Y0083326D01*
X0027380Y0083264D01*
X0027562Y0083164D01*
X0027721Y0083030D01*
X0027851Y0082868D01*
X0027947Y0082684D01*
X0028006Y0082485D01*
X0028006Y0082485D01*
X0028006Y0082485D01*
X0028025Y0082279D01*
X0028003Y0082072D01*
X0028003Y0082072D01*
X0028003Y0082072D01*
X0027942Y0081874D01*
X0027843Y0081691D01*
X0027711Y0081531D01*
X0027550Y0081400D01*
X0027366Y0081303D01*
X0027168Y0081243D01*
X0026961Y0081222D01*
X0026951Y0081222D01*
X0026940Y0081222D01*
X0026940Y0081222D01*
X0026936Y0081223D01*
X0026730Y0081246D01*
X0026532Y0081308D01*
X0026350Y0081408D01*
X0026191Y0081542D01*
X0026061Y0081704D01*
X0025965Y0081888D01*
X0025906Y0082087D01*
X0025906Y0082087D01*
X0025906Y0082087D01*
X0025887Y0082293D01*
X0025909Y0082500D01*
X0025909Y0082500D01*
X0025909Y0082500D01*
X0025970Y0082698D01*
X0026069Y0082881D01*
X0026201Y0083041D01*
X0026362Y0083172D01*
X0026546Y0083269D01*
X0026744Y0083329D01*
X0026951Y0083350D01*
X0026961Y0083350D01*
X0026972Y0083350D01*
X0026972Y0083350D01*
G37*
G36*
X0024432Y0083350D02*
X0024432Y0083350D01*
X0024436Y0083349D01*
X0024642Y0083326D01*
X0024840Y0083264D01*
X0025022Y0083164D01*
X0025181Y0083030D01*
X0025311Y0082868D01*
X0025407Y0082684D01*
X0025466Y0082485D01*
X0025466Y0082485D01*
X0025466Y0082485D01*
X0025485Y0082279D01*
X0025463Y0082072D01*
X0025463Y0082072D01*
X0025463Y0082072D01*
X0025402Y0081874D01*
X0025303Y0081691D01*
X0025171Y0081531D01*
X0025010Y0081400D01*
X0024826Y0081303D01*
X0024628Y0081243D01*
X0024421Y0081222D01*
X0024411Y0081222D01*
X0024400Y0081222D01*
X0024400Y0081222D01*
X0024396Y0081223D01*
X0024190Y0081246D01*
X0023992Y0081308D01*
X0023810Y0081408D01*
X0023651Y0081542D01*
X0023521Y0081704D01*
X0023425Y0081888D01*
X0023366Y0082087D01*
X0023366Y0082087D01*
X0023366Y0082087D01*
X0023347Y0082293D01*
X0023369Y0082500D01*
X0023369Y0082500D01*
X0023369Y0082500D01*
X0023430Y0082698D01*
X0023529Y0082881D01*
X0023661Y0083041D01*
X0023822Y0083172D01*
X0024006Y0083269D01*
X0024204Y0083329D01*
X0024411Y0083350D01*
X0024421Y0083350D01*
X0024432Y0083350D01*
X0024432Y0083350D01*
G37*
G36*
X0093905Y0086660D02*
X0094231Y0086593D01*
X0094538Y0086464D01*
X0094815Y0086277D01*
X0095050Y0086041D01*
X0095234Y0085763D01*
X0095361Y0085455D01*
X0095426Y0085128D01*
X0095426Y0085128D01*
X0095426Y0085128D01*
X0095421Y0084747D01*
X0095421Y0084746D01*
X0095421Y0084746D01*
X0095347Y0084422D01*
X0095211Y0084117D01*
X0095019Y0083845D01*
X0094778Y0083615D01*
X0094496Y0083436D01*
X0094185Y0083316D01*
X0093857Y0083258D01*
X0093524Y0083265D01*
X0093198Y0083336D01*
X0092893Y0083470D01*
X0092619Y0083660D01*
X0092387Y0083900D01*
X0092207Y0084180D01*
X0092084Y0084490D01*
X0092024Y0084818D01*
X0092028Y0085151D01*
X0092098Y0085478D01*
X0092229Y0085784D01*
X0092417Y0086059D01*
X0092656Y0086292D01*
X0092935Y0086475D01*
X0093244Y0086600D01*
X0093571Y0086662D01*
X0093905Y0086660D01*
X0093905Y0086660D01*
G37*
G36*
X0098985Y0086660D02*
X0099311Y0086593D01*
X0099618Y0086464D01*
X0099895Y0086277D01*
X0100130Y0086041D01*
X0100314Y0085763D01*
X0100441Y0085455D01*
X0100506Y0085128D01*
X0100506Y0085128D01*
X0100506Y0085128D01*
X0100501Y0084747D01*
X0100501Y0084746D01*
X0100501Y0084746D01*
X0100427Y0084422D01*
X0100291Y0084117D01*
X0100099Y0083845D01*
X0099858Y0083615D01*
X0099576Y0083436D01*
X0099265Y0083316D01*
X0098937Y0083258D01*
X0098604Y0083265D01*
X0098278Y0083336D01*
X0097973Y0083470D01*
X0097699Y0083660D01*
X0097467Y0083900D01*
X0097287Y0084180D01*
X0097164Y0084490D01*
X0097104Y0084818D01*
X0097108Y0085151D01*
X0097178Y0085478D01*
X0097309Y0085784D01*
X0097497Y0086059D01*
X0097736Y0086292D01*
X0098015Y0086475D01*
X0098324Y0086600D01*
X0098651Y0086662D01*
X0098985Y0086660D01*
X0098985Y0086660D01*
G37*
G36*
X0024432Y0085890D02*
X0024432Y0085890D01*
X0024436Y0085889D01*
X0024642Y0085866D01*
X0024840Y0085804D01*
X0025022Y0085704D01*
X0025181Y0085570D01*
X0025311Y0085408D01*
X0025407Y0085224D01*
X0025466Y0085025D01*
X0025466Y0085025D01*
X0025466Y0085025D01*
X0025485Y0084819D01*
X0025463Y0084612D01*
X0025463Y0084612D01*
X0025463Y0084612D01*
X0025402Y0084414D01*
X0025303Y0084231D01*
X0025171Y0084071D01*
X0025010Y0083940D01*
X0024826Y0083843D01*
X0024628Y0083783D01*
X0024421Y0083762D01*
X0024411Y0083762D01*
X0024400Y0083762D01*
X0024400Y0083762D01*
X0024396Y0083763D01*
X0024190Y0083786D01*
X0023992Y0083848D01*
X0023810Y0083948D01*
X0023651Y0084082D01*
X0023521Y0084244D01*
X0023425Y0084428D01*
X0023366Y0084627D01*
X0023366Y0084627D01*
X0023366Y0084627D01*
X0023347Y0084833D01*
X0023369Y0085040D01*
X0023369Y0085040D01*
X0023369Y0085040D01*
X0023430Y0085238D01*
X0023529Y0085421D01*
X0023661Y0085581D01*
X0023822Y0085712D01*
X0024006Y0085809D01*
X0024204Y0085869D01*
X0024411Y0085890D01*
X0024421Y0085890D01*
X0024432Y0085890D01*
X0024432Y0085890D01*
G37*
G36*
X0026972Y0085890D02*
X0026972Y0085890D01*
X0026976Y0085889D01*
X0027182Y0085866D01*
X0027380Y0085804D01*
X0027562Y0085704D01*
X0027721Y0085570D01*
X0027851Y0085408D01*
X0027947Y0085224D01*
X0028006Y0085025D01*
X0028006Y0085025D01*
X0028006Y0085025D01*
X0028025Y0084819D01*
X0028003Y0084612D01*
X0028003Y0084612D01*
X0028003Y0084612D01*
X0027942Y0084414D01*
X0027843Y0084231D01*
X0027711Y0084071D01*
X0027550Y0083940D01*
X0027366Y0083843D01*
X0027168Y0083783D01*
X0026961Y0083762D01*
X0026951Y0083762D01*
X0026940Y0083762D01*
X0026940Y0083762D01*
X0026936Y0083763D01*
X0026730Y0083786D01*
X0026532Y0083848D01*
X0026350Y0083948D01*
X0026191Y0084082D01*
X0026061Y0084244D01*
X0025965Y0084428D01*
X0025906Y0084627D01*
X0025906Y0084627D01*
X0025906Y0084627D01*
X0025887Y0084833D01*
X0025909Y0085040D01*
X0025909Y0085040D01*
X0025909Y0085040D01*
X0025970Y0085238D01*
X0026069Y0085421D01*
X0026201Y0085581D01*
X0026362Y0085712D01*
X0026546Y0085809D01*
X0026744Y0085869D01*
X0026951Y0085890D01*
X0026961Y0085890D01*
X0026972Y0085890D01*
X0026972Y0085890D01*
G37*
G36*
X0084917Y0090135D02*
X0085340Y0090048D01*
X0085737Y0089881D01*
X0086095Y0089639D01*
X0086399Y0089333D01*
X0086638Y0088974D01*
X0086802Y0088575D01*
X0086886Y0088152D01*
X0086886Y0088152D01*
X0086886Y0088152D01*
X0086879Y0087659D01*
X0086879Y0087658D01*
X0086879Y0087658D01*
X0086784Y0087238D01*
X0086608Y0086844D01*
X0086359Y0086492D01*
X0086047Y0086194D01*
X0085683Y0085963D01*
X0085280Y0085807D01*
X0084856Y0085732D01*
X0084424Y0085741D01*
X0084003Y0085834D01*
X0083608Y0086006D01*
X0083253Y0086253D01*
X0082954Y0086563D01*
X0082720Y0086926D01*
X0082561Y0087327D01*
X0082483Y0087751D01*
X0082489Y0088182D01*
X0082579Y0088604D01*
X0082749Y0089001D01*
X0082993Y0089357D01*
X0083301Y0089659D01*
X0083662Y0089895D01*
X0084062Y0090057D01*
X0084486Y0090138D01*
X0084917Y0090135D01*
X0084917Y0090135D01*
G37*
G36*
X0018917Y0090135D02*
X0019340Y0090048D01*
X0019737Y0089881D01*
X0020095Y0089639D01*
X0020399Y0089333D01*
X0020638Y0088974D01*
X0020802Y0088575D01*
X0020886Y0088152D01*
X0020886Y0088152D01*
X0020886Y0088152D01*
X0020879Y0087659D01*
X0020879Y0087658D01*
X0020879Y0087658D01*
X0020784Y0087238D01*
X0020608Y0086844D01*
X0020359Y0086492D01*
X0020047Y0086194D01*
X0019683Y0085963D01*
X0019280Y0085807D01*
X0018856Y0085732D01*
X0018424Y0085741D01*
X0018003Y0085834D01*
X0017608Y0086006D01*
X0017253Y0086253D01*
X0016954Y0086563D01*
X0016720Y0086926D01*
X0016561Y0087327D01*
X0016483Y0087751D01*
X0016489Y0088182D01*
X0016579Y0088604D01*
X0016749Y0089001D01*
X0016993Y0089357D01*
X0017301Y0089659D01*
X0017662Y0089895D01*
X0018062Y0090057D01*
X0018486Y0090138D01*
X0018917Y0090135D01*
X0018917Y0090135D01*
G37*
G36*
X0096424Y0089000D02*
X0096712Y0088941D01*
X0096983Y0088827D01*
X0097227Y0088662D01*
X0097434Y0088454D01*
X0097597Y0088209D01*
X0097709Y0087937D01*
X0097766Y0087649D01*
X0097766Y0087649D01*
X0097766Y0087648D01*
X0097761Y0087312D01*
X0097761Y0087311D01*
X0097761Y0087311D01*
X0097696Y0087025D01*
X0097577Y0086756D01*
X0097407Y0086516D01*
X0097194Y0086313D01*
X0096946Y0086156D01*
X0096671Y0086049D01*
X0096382Y0085998D01*
X0096088Y0086004D01*
X0095800Y0086068D01*
X0095531Y0086185D01*
X0095289Y0086353D01*
X0095085Y0086565D01*
X0094925Y0086812D01*
X0094817Y0087086D01*
X0094764Y0087375D01*
X0094768Y0087669D01*
X0094829Y0087957D01*
X0094945Y0088227D01*
X0095111Y0088470D01*
X0095322Y0088676D01*
X0095568Y0088837D01*
X0095840Y0088947D01*
X0096129Y0089002D01*
X0096424Y0089000D01*
X0096424Y0089000D01*
G37*
G36*
X0024432Y0088430D02*
X0024432Y0088430D01*
X0024436Y0088429D01*
X0024642Y0088406D01*
X0024840Y0088344D01*
X0025022Y0088244D01*
X0025181Y0088110D01*
X0025311Y0087948D01*
X0025407Y0087764D01*
X0025466Y0087565D01*
X0025466Y0087565D01*
X0025466Y0087565D01*
X0025485Y0087359D01*
X0025463Y0087152D01*
X0025463Y0087152D01*
X0025463Y0087152D01*
X0025402Y0086954D01*
X0025303Y0086771D01*
X0025171Y0086611D01*
X0025010Y0086480D01*
X0024826Y0086383D01*
X0024628Y0086323D01*
X0024421Y0086302D01*
X0024411Y0086302D01*
X0024400Y0086302D01*
X0024400Y0086302D01*
X0024396Y0086303D01*
X0024190Y0086326D01*
X0023992Y0086388D01*
X0023810Y0086488D01*
X0023651Y0086622D01*
X0023521Y0086784D01*
X0023425Y0086968D01*
X0023366Y0087167D01*
X0023366Y0087167D01*
X0023366Y0087167D01*
X0023347Y0087373D01*
X0023369Y0087580D01*
X0023369Y0087580D01*
X0023369Y0087580D01*
X0023430Y0087778D01*
X0023529Y0087961D01*
X0023661Y0088121D01*
X0023822Y0088252D01*
X0024006Y0088349D01*
X0024204Y0088409D01*
X0024411Y0088430D01*
X0024421Y0088430D01*
X0024432Y0088430D01*
X0024432Y0088430D01*
G37*
G36*
X0028020Y0086302D02*
X0025892Y0086302D01*
X0025892Y0088430D01*
X0028020Y0088430D01*
X0028020Y0086302D01*
X0028020Y0086302D01*
G37*
G36*
X0098985Y0091740D02*
X0099311Y0091673D01*
X0099618Y0091544D01*
X0099895Y0091357D01*
X0100130Y0091121D01*
X0100314Y0090843D01*
X0100441Y0090535D01*
X0100506Y0090208D01*
X0100506Y0090208D01*
X0100506Y0090208D01*
X0100501Y0089827D01*
X0100501Y0089826D01*
X0100501Y0089826D01*
X0100427Y0089502D01*
X0100291Y0089197D01*
X0100099Y0088925D01*
X0099858Y0088695D01*
X0099576Y0088516D01*
X0099265Y0088396D01*
X0098937Y0088338D01*
X0098604Y0088345D01*
X0098278Y0088416D01*
X0097973Y0088550D01*
X0097699Y0088740D01*
X0097467Y0088980D01*
X0097287Y0089260D01*
X0097164Y0089570D01*
X0097104Y0089898D01*
X0097108Y0090231D01*
X0097178Y0090558D01*
X0097309Y0090864D01*
X0097497Y0091139D01*
X0097736Y0091372D01*
X0098015Y0091555D01*
X0098324Y0091680D01*
X0098651Y0091742D01*
X0098985Y0091740D01*
X0098985Y0091740D01*
G37*
G36*
X0093905Y0091740D02*
X0094231Y0091673D01*
X0094538Y0091544D01*
X0094815Y0091357D01*
X0095050Y0091121D01*
X0095234Y0090843D01*
X0095361Y0090535D01*
X0095426Y0090208D01*
X0095426Y0090208D01*
X0095426Y0090208D01*
X0095421Y0089827D01*
X0095421Y0089826D01*
X0095421Y0089826D01*
X0095347Y0089502D01*
X0095211Y0089197D01*
X0095019Y0088925D01*
X0094778Y0088695D01*
X0094496Y0088516D01*
X0094185Y0088396D01*
X0093857Y0088338D01*
X0093524Y0088345D01*
X0093198Y0088416D01*
X0092893Y0088550D01*
X0092619Y0088740D01*
X0092387Y0088980D01*
X0092207Y0089260D01*
X0092084Y0089570D01*
X0092024Y0089898D01*
X0092028Y0090231D01*
X0092098Y0090558D01*
X0092229Y0090864D01*
X0092417Y0091139D01*
X0092656Y0091372D01*
X0092935Y0091555D01*
X0093244Y0091680D01*
X0093571Y0091742D01*
X0093905Y0091740D01*
X0093905Y0091740D01*
G37*
G36*
X0096707Y0099953D02*
X0097514Y0099788D01*
X0098273Y0099468D01*
X0098956Y0099008D01*
X0099537Y0098423D01*
X0099992Y0097737D01*
X0100306Y0096976D01*
X0100466Y0096169D01*
X0100466Y0096168D01*
X0100466Y0096168D01*
X0100453Y0095227D01*
X0100453Y0095226D01*
X0100453Y0095226D01*
X0100271Y0094424D01*
X0099936Y0093671D01*
X0099461Y0092998D01*
X0098864Y0092430D01*
X0098169Y0091989D01*
X0097401Y0091691D01*
X0096590Y0091548D01*
X0095766Y0091565D01*
X0094962Y0091742D01*
X0094207Y0092072D01*
X0093531Y0092542D01*
X0092959Y0093135D01*
X0092512Y0093827D01*
X0092209Y0094593D01*
X0092060Y0095403D01*
X0092072Y0096226D01*
X0092243Y0097032D01*
X0092568Y0097789D01*
X0093033Y0098469D01*
X0093622Y0099045D01*
X0094311Y0099496D01*
X0095074Y0099805D01*
X0095884Y0099959D01*
X0096707Y0099953D01*
X0096707Y0099953D01*
G37*
G36*
X0005267Y0099953D02*
X0006074Y0099788D01*
X0006833Y0099468D01*
X0007516Y0099008D01*
X0008097Y0098423D01*
X0008552Y0097737D01*
X0008866Y0096976D01*
X0009026Y0096169D01*
X0009026Y0096168D01*
X0009026Y0096168D01*
X0009013Y0095227D01*
X0009013Y0095226D01*
X0009013Y0095226D01*
X0008831Y0094424D01*
X0008496Y0093671D01*
X0008021Y0092998D01*
X0007424Y0092430D01*
X0006729Y0091989D01*
X0005961Y0091691D01*
X0005150Y0091548D01*
X0004326Y0091565D01*
X0003522Y0091742D01*
X0002767Y0092072D01*
X0002091Y0092542D01*
X0001519Y0093135D01*
X0001072Y0093827D01*
X0000769Y0094593D01*
X0000620Y0095403D01*
X0000632Y0096226D01*
X0000803Y0097032D01*
X0001128Y0097789D01*
X0001593Y0098469D01*
X0002182Y0099045D01*
X0002871Y0099496D01*
X0003634Y0099805D01*
X0004444Y0099959D01*
X0005267Y0099953D01*
X0005267Y0099953D01*
G37*
G36*
X0055840Y0096956D02*
X0055840Y0096956D01*
X0055840Y0096956D01*
X0056038Y0096895D01*
X0056221Y0096796D01*
X0056381Y0096664D01*
X0056512Y0096503D01*
X0056609Y0096320D01*
X0056669Y0096121D01*
X0056690Y0095914D01*
X0056690Y0095598D01*
X0056690Y0095587D01*
X0056690Y0095587D01*
X0056689Y0095583D01*
X0056666Y0095377D01*
X0056604Y0095179D01*
X0056504Y0094997D01*
X0056370Y0094838D01*
X0056208Y0094708D01*
X0056024Y0094612D01*
X0055825Y0094553D01*
X0055825Y0094553D01*
X0055825Y0094553D01*
X0055619Y0094534D01*
X0055412Y0094556D01*
X0055412Y0094556D01*
X0055412Y0094556D01*
X0055214Y0094617D01*
X0055031Y0094716D01*
X0054871Y0094848D01*
X0054740Y0095009D01*
X0054643Y0095192D01*
X0054583Y0095391D01*
X0054562Y0095598D01*
X0054562Y0095914D01*
X0054562Y0095925D01*
X0054562Y0095925D01*
X0054563Y0095929D01*
X0054586Y0096135D01*
X0054648Y0096333D01*
X0054748Y0096515D01*
X0054882Y0096674D01*
X0055044Y0096804D01*
X0055228Y0096900D01*
X0055427Y0096959D01*
X0055427Y0096959D01*
X0055427Y0096959D01*
X0055633Y0096978D01*
X0055840Y0096956D01*
X0055840Y0096956D01*
G37*
G36*
X0053300Y0096956D02*
X0053300Y0096956D01*
X0053300Y0096956D01*
X0053498Y0096895D01*
X0053681Y0096796D01*
X0053841Y0096664D01*
X0053972Y0096503D01*
X0054069Y0096320D01*
X0054129Y0096121D01*
X0054150Y0095914D01*
X0054150Y0095598D01*
X0054150Y0095587D01*
X0054150Y0095587D01*
X0054149Y0095583D01*
X0054126Y0095377D01*
X0054064Y0095179D01*
X0053964Y0094997D01*
X0053830Y0094838D01*
X0053668Y0094708D01*
X0053484Y0094612D01*
X0053285Y0094553D01*
X0053285Y0094553D01*
X0053285Y0094553D01*
X0053079Y0094534D01*
X0052872Y0094556D01*
X0052872Y0094556D01*
X0052872Y0094556D01*
X0052674Y0094617D01*
X0052491Y0094716D01*
X0052331Y0094848D01*
X0052200Y0095009D01*
X0052103Y0095192D01*
X0052043Y0095391D01*
X0052022Y0095598D01*
X0052022Y0095914D01*
X0052022Y0095925D01*
X0052022Y0095925D01*
X0052023Y0095929D01*
X0052046Y0096135D01*
X0052108Y0096333D01*
X0052208Y0096515D01*
X0052342Y0096674D01*
X0052504Y0096804D01*
X0052688Y0096900D01*
X0052887Y0096959D01*
X0052887Y0096959D01*
X0052887Y0096959D01*
X0053093Y0096978D01*
X0053300Y0096956D01*
X0053300Y0096956D01*
G37*
G36*
X0050760Y0096956D02*
X0050760Y0096956D01*
X0050760Y0096956D01*
X0050958Y0096895D01*
X0051141Y0096796D01*
X0051301Y0096664D01*
X0051432Y0096503D01*
X0051529Y0096320D01*
X0051589Y0096121D01*
X0051610Y0095914D01*
X0051610Y0095598D01*
X0051610Y0095587D01*
X0051610Y0095587D01*
X0051609Y0095583D01*
X0051586Y0095377D01*
X0051524Y0095179D01*
X0051424Y0094997D01*
X0051290Y0094838D01*
X0051128Y0094708D01*
X0050944Y0094612D01*
X0050745Y0094553D01*
X0050745Y0094553D01*
X0050745Y0094553D01*
X0050539Y0094534D01*
X0050332Y0094556D01*
X0050332Y0094556D01*
X0050332Y0094556D01*
X0050134Y0094617D01*
X0049951Y0094716D01*
X0049791Y0094848D01*
X0049660Y0095009D01*
X0049563Y0095192D01*
X0049503Y0095391D01*
X0049482Y0095598D01*
X0049482Y0095914D01*
X0049482Y0095925D01*
X0049482Y0095925D01*
X0049483Y0095929D01*
X0049506Y0096135D01*
X0049568Y0096333D01*
X0049668Y0096515D01*
X0049802Y0096674D01*
X0049964Y0096804D01*
X0050148Y0096900D01*
X0050347Y0096959D01*
X0050347Y0096959D01*
X0050347Y0096959D01*
X0050553Y0096978D01*
X0050760Y0096956D01*
X0050760Y0096956D01*
G37*
G36*
X0048220Y0096956D02*
X0048220Y0096956D01*
X0048220Y0096956D01*
X0048418Y0096895D01*
X0048601Y0096796D01*
X0048761Y0096664D01*
X0048892Y0096503D01*
X0048989Y0096320D01*
X0049049Y0096121D01*
X0049070Y0095914D01*
X0049070Y0095598D01*
X0049070Y0095587D01*
X0049070Y0095587D01*
X0049069Y0095583D01*
X0049046Y0095377D01*
X0048984Y0095179D01*
X0048884Y0094997D01*
X0048750Y0094838D01*
X0048588Y0094708D01*
X0048404Y0094612D01*
X0048205Y0094553D01*
X0048205Y0094553D01*
X0048205Y0094553D01*
X0047999Y0094534D01*
X0047792Y0094556D01*
X0047792Y0094556D01*
X0047792Y0094556D01*
X0047594Y0094617D01*
X0047411Y0094716D01*
X0047251Y0094848D01*
X0047120Y0095009D01*
X0047023Y0095192D01*
X0046963Y0095391D01*
X0046942Y0095598D01*
X0046942Y0095914D01*
X0046942Y0095925D01*
X0046942Y0095925D01*
X0046943Y0095929D01*
X0046966Y0096135D01*
X0047028Y0096333D01*
X0047128Y0096515D01*
X0047262Y0096674D01*
X0047424Y0096804D01*
X0047608Y0096900D01*
X0047807Y0096959D01*
X0047807Y0096959D01*
X0047807Y0096959D01*
X0048013Y0096978D01*
X0048220Y0096956D01*
X0048220Y0096956D01*
G37*
G36*
X0045680Y0096956D02*
X0045680Y0096956D01*
X0045680Y0096956D01*
X0045878Y0096895D01*
X0046061Y0096796D01*
X0046221Y0096664D01*
X0046352Y0096503D01*
X0046449Y0096320D01*
X0046509Y0096121D01*
X0046530Y0095914D01*
X0046530Y0095598D01*
X0046530Y0095587D01*
X0046530Y0095587D01*
X0046529Y0095583D01*
X0046506Y0095377D01*
X0046444Y0095179D01*
X0046344Y0094997D01*
X0046210Y0094838D01*
X0046048Y0094708D01*
X0045864Y0094612D01*
X0045665Y0094553D01*
X0045665Y0094553D01*
X0045665Y0094553D01*
X0045459Y0094534D01*
X0045252Y0094556D01*
X0045252Y0094556D01*
X0045252Y0094556D01*
X0045054Y0094617D01*
X0044871Y0094716D01*
X0044711Y0094848D01*
X0044580Y0095009D01*
X0044483Y0095192D01*
X0044423Y0095391D01*
X0044402Y0095598D01*
X0044402Y0095914D01*
X0044402Y0095925D01*
X0044402Y0095925D01*
X0044403Y0095929D01*
X0044426Y0096135D01*
X0044488Y0096333D01*
X0044588Y0096515D01*
X0044722Y0096674D01*
X0044884Y0096804D01*
X0045068Y0096900D01*
X0045267Y0096959D01*
X0045267Y0096959D01*
X0045267Y0096959D01*
X0045473Y0096978D01*
X0045680Y0096956D01*
X0045680Y0096956D01*
G37*
G36*
X0043990Y0094540D02*
X0041862Y0094540D01*
X0041862Y0096972D01*
X0043990Y0096972D01*
X0043990Y0094540D01*
X0043990Y0094540D01*
G37*
G36*
X0035520Y0096803D02*
X0035520Y0096803D01*
X0035520Y0096803D01*
X0035718Y0096742D01*
X0035901Y0096643D01*
X0036061Y0096511D01*
X0036192Y0096350D01*
X0036289Y0096166D01*
X0036349Y0095968D01*
X0036370Y0095761D01*
X0036370Y0095751D01*
X0036370Y0095740D01*
X0036370Y0095740D01*
X0036369Y0095736D01*
X0036346Y0095530D01*
X0036284Y0095332D01*
X0036184Y0095150D01*
X0036050Y0094991D01*
X0035888Y0094861D01*
X0035704Y0094765D01*
X0035505Y0094706D01*
X0035505Y0094706D01*
X0035505Y0094706D01*
X0035299Y0094687D01*
X0035092Y0094709D01*
X0035092Y0094709D01*
X0035092Y0094709D01*
X0034894Y0094770D01*
X0034711Y0094869D01*
X0034551Y0095001D01*
X0034420Y0095162D01*
X0034323Y0095346D01*
X0034263Y0095544D01*
X0034242Y0095751D01*
X0034242Y0095761D01*
X0034242Y0095772D01*
X0034242Y0095772D01*
X0034243Y0095776D01*
X0034266Y0095982D01*
X0034328Y0096180D01*
X0034428Y0096362D01*
X0034562Y0096521D01*
X0034724Y0096651D01*
X0034908Y0096747D01*
X0035107Y0096806D01*
X0035107Y0096806D01*
X0035107Y0096806D01*
X0035313Y0096825D01*
X0035520Y0096803D01*
X0035520Y0096803D01*
G37*
G36*
X0032980Y0096803D02*
X0032980Y0096803D01*
X0032980Y0096803D01*
X0033178Y0096742D01*
X0033361Y0096643D01*
X0033521Y0096511D01*
X0033652Y0096350D01*
X0033749Y0096166D01*
X0033809Y0095968D01*
X0033830Y0095761D01*
X0033830Y0095751D01*
X0033830Y0095740D01*
X0033830Y0095740D01*
X0033829Y0095736D01*
X0033806Y0095530D01*
X0033744Y0095332D01*
X0033644Y0095150D01*
X0033510Y0094991D01*
X0033348Y0094861D01*
X0033164Y0094765D01*
X0032965Y0094706D01*
X0032965Y0094706D01*
X0032965Y0094706D01*
X0032759Y0094687D01*
X0032552Y0094709D01*
X0032552Y0094709D01*
X0032552Y0094709D01*
X0032354Y0094770D01*
X0032171Y0094869D01*
X0032011Y0095001D01*
X0031880Y0095162D01*
X0031783Y0095346D01*
X0031723Y0095544D01*
X0031702Y0095751D01*
X0031702Y0095761D01*
X0031702Y0095772D01*
X0031702Y0095772D01*
X0031703Y0095776D01*
X0031726Y0095982D01*
X0031788Y0096180D01*
X0031888Y0096362D01*
X0032022Y0096521D01*
X0032184Y0096651D01*
X0032368Y0096747D01*
X0032567Y0096806D01*
X0032567Y0096806D01*
X0032567Y0096806D01*
X0032773Y0096825D01*
X0032980Y0096803D01*
X0032980Y0096803D01*
G37*
G36*
X0027900Y0096803D02*
X0027900Y0096803D01*
X0027900Y0096803D01*
X0028098Y0096742D01*
X0028281Y0096643D01*
X0028441Y0096511D01*
X0028572Y0096350D01*
X0028669Y0096166D01*
X0028729Y0095968D01*
X0028750Y0095761D01*
X0028750Y0095751D01*
X0028750Y0095740D01*
X0028750Y0095740D01*
X0028749Y0095736D01*
X0028726Y0095530D01*
X0028664Y0095332D01*
X0028564Y0095150D01*
X0028430Y0094991D01*
X0028268Y0094861D01*
X0028084Y0094765D01*
X0027885Y0094706D01*
X0027885Y0094706D01*
X0027885Y0094706D01*
X0027679Y0094687D01*
X0027472Y0094709D01*
X0027472Y0094709D01*
X0027472Y0094709D01*
X0027274Y0094770D01*
X0027091Y0094869D01*
X0026931Y0095001D01*
X0026800Y0095162D01*
X0026703Y0095346D01*
X0026643Y0095544D01*
X0026622Y0095751D01*
X0026622Y0095761D01*
X0026622Y0095772D01*
X0026622Y0095772D01*
X0026623Y0095776D01*
X0026646Y0095982D01*
X0026708Y0096180D01*
X0026808Y0096362D01*
X0026942Y0096521D01*
X0027104Y0096651D01*
X0027288Y0096747D01*
X0027487Y0096806D01*
X0027487Y0096806D01*
X0027487Y0096806D01*
X0027693Y0096825D01*
X0027900Y0096803D01*
X0027900Y0096803D01*
G37*
G36*
X0025360Y0096803D02*
X0025360Y0096803D01*
X0025360Y0096803D01*
X0025558Y0096742D01*
X0025741Y0096643D01*
X0025901Y0096511D01*
X0026032Y0096350D01*
X0026129Y0096166D01*
X0026189Y0095968D01*
X0026210Y0095761D01*
X0026210Y0095751D01*
X0026210Y0095740D01*
X0026210Y0095740D01*
X0026209Y0095736D01*
X0026186Y0095530D01*
X0026124Y0095332D01*
X0026024Y0095150D01*
X0025890Y0094991D01*
X0025728Y0094861D01*
X0025544Y0094765D01*
X0025345Y0094706D01*
X0025345Y0094706D01*
X0025345Y0094706D01*
X0025139Y0094687D01*
X0024932Y0094709D01*
X0024932Y0094709D01*
X0024932Y0094709D01*
X0024734Y0094770D01*
X0024551Y0094869D01*
X0024391Y0095001D01*
X0024260Y0095162D01*
X0024163Y0095346D01*
X0024103Y0095544D01*
X0024082Y0095751D01*
X0024082Y0095761D01*
X0024082Y0095772D01*
X0024082Y0095772D01*
X0024083Y0095776D01*
X0024106Y0095982D01*
X0024168Y0096180D01*
X0024268Y0096362D01*
X0024402Y0096521D01*
X0024564Y0096651D01*
X0024748Y0096747D01*
X0024947Y0096806D01*
X0024947Y0096806D01*
X0024947Y0096806D01*
X0025153Y0096825D01*
X0025360Y0096803D01*
X0025360Y0096803D01*
G37*
G36*
X0020280Y0096803D02*
X0020280Y0096803D01*
X0020280Y0096803D01*
X0020478Y0096742D01*
X0020661Y0096643D01*
X0020821Y0096511D01*
X0020952Y0096350D01*
X0021049Y0096166D01*
X0021109Y0095968D01*
X0021130Y0095761D01*
X0021130Y0095751D01*
X0021130Y0095740D01*
X0021130Y0095740D01*
X0021129Y0095736D01*
X0021106Y0095530D01*
X0021044Y0095332D01*
X0020944Y0095150D01*
X0020810Y0094991D01*
X0020648Y0094861D01*
X0020464Y0094765D01*
X0020265Y0094706D01*
X0020265Y0094706D01*
X0020265Y0094706D01*
X0020059Y0094687D01*
X0019852Y0094709D01*
X0019852Y0094709D01*
X0019852Y0094709D01*
X0019654Y0094770D01*
X0019471Y0094869D01*
X0019311Y0095001D01*
X0019180Y0095162D01*
X0019083Y0095346D01*
X0019023Y0095544D01*
X0019002Y0095751D01*
X0019002Y0095761D01*
X0019002Y0095772D01*
X0019002Y0095772D01*
X0019003Y0095776D01*
X0019026Y0095982D01*
X0019088Y0096180D01*
X0019188Y0096362D01*
X0019322Y0096521D01*
X0019484Y0096651D01*
X0019668Y0096747D01*
X0019867Y0096806D01*
X0019867Y0096806D01*
X0019867Y0096806D01*
X0020073Y0096825D01*
X0020280Y0096803D01*
X0020280Y0096803D01*
G37*
G36*
X0022820Y0096803D02*
X0022820Y0096803D01*
X0022820Y0096803D01*
X0023018Y0096742D01*
X0023201Y0096643D01*
X0023361Y0096511D01*
X0023492Y0096350D01*
X0023589Y0096166D01*
X0023649Y0095968D01*
X0023670Y0095761D01*
X0023670Y0095751D01*
X0023670Y0095740D01*
X0023670Y0095740D01*
X0023669Y0095736D01*
X0023646Y0095530D01*
X0023584Y0095332D01*
X0023484Y0095150D01*
X0023350Y0094991D01*
X0023188Y0094861D01*
X0023004Y0094765D01*
X0022805Y0094706D01*
X0022805Y0094706D01*
X0022805Y0094706D01*
X0022599Y0094687D01*
X0022392Y0094709D01*
X0022392Y0094709D01*
X0022392Y0094709D01*
X0022194Y0094770D01*
X0022011Y0094869D01*
X0021851Y0095001D01*
X0021720Y0095162D01*
X0021623Y0095346D01*
X0021563Y0095544D01*
X0021542Y0095751D01*
X0021542Y0095761D01*
X0021542Y0095772D01*
X0021542Y0095772D01*
X0021543Y0095776D01*
X0021566Y0095982D01*
X0021628Y0096180D01*
X0021728Y0096362D01*
X0021862Y0096521D01*
X0022024Y0096651D01*
X0022208Y0096747D01*
X0022407Y0096806D01*
X0022407Y0096806D01*
X0022407Y0096806D01*
X0022613Y0096825D01*
X0022820Y0096803D01*
X0022820Y0096803D01*
G37*
G36*
X0017740Y0096803D02*
X0017740Y0096803D01*
X0017740Y0096803D01*
X0017938Y0096742D01*
X0018121Y0096643D01*
X0018281Y0096511D01*
X0018412Y0096350D01*
X0018509Y0096166D01*
X0018569Y0095968D01*
X0018590Y0095761D01*
X0018590Y0095751D01*
X0018590Y0095740D01*
X0018590Y0095740D01*
X0018589Y0095736D01*
X0018566Y0095530D01*
X0018504Y0095332D01*
X0018404Y0095150D01*
X0018270Y0094991D01*
X0018108Y0094861D01*
X0017924Y0094765D01*
X0017725Y0094706D01*
X0017725Y0094706D01*
X0017725Y0094706D01*
X0017519Y0094687D01*
X0017312Y0094709D01*
X0017312Y0094709D01*
X0017312Y0094709D01*
X0017114Y0094770D01*
X0016931Y0094869D01*
X0016771Y0095001D01*
X0016640Y0095162D01*
X0016543Y0095346D01*
X0016483Y0095544D01*
X0016462Y0095751D01*
X0016462Y0095761D01*
X0016462Y0095772D01*
X0016462Y0095772D01*
X0016463Y0095776D01*
X0016486Y0095982D01*
X0016548Y0096180D01*
X0016648Y0096362D01*
X0016782Y0096521D01*
X0016944Y0096651D01*
X0017128Y0096747D01*
X0017327Y0096806D01*
X0017327Y0096806D01*
X0017327Y0096806D01*
X0017533Y0096825D01*
X0017740Y0096803D01*
X0017740Y0096803D01*
G37*
G36*
X0015200Y0096803D02*
X0015200Y0096803D01*
X0015200Y0096803D01*
X0015398Y0096742D01*
X0015581Y0096643D01*
X0015741Y0096511D01*
X0015872Y0096350D01*
X0015969Y0096166D01*
X0016029Y0095968D01*
X0016050Y0095761D01*
X0016050Y0095751D01*
X0016050Y0095740D01*
X0016050Y0095740D01*
X0016049Y0095736D01*
X0016026Y0095530D01*
X0015964Y0095332D01*
X0015864Y0095150D01*
X0015730Y0094991D01*
X0015568Y0094861D01*
X0015384Y0094765D01*
X0015185Y0094706D01*
X0015185Y0094706D01*
X0015185Y0094706D01*
X0014979Y0094687D01*
X0014772Y0094709D01*
X0014772Y0094709D01*
X0014772Y0094709D01*
X0014574Y0094770D01*
X0014391Y0094869D01*
X0014231Y0095001D01*
X0014100Y0095162D01*
X0014003Y0095346D01*
X0013943Y0095544D01*
X0013922Y0095751D01*
X0013922Y0095761D01*
X0013922Y0095772D01*
X0013922Y0095772D01*
X0013923Y0095776D01*
X0013946Y0095982D01*
X0014008Y0096180D01*
X0014108Y0096362D01*
X0014242Y0096521D01*
X0014404Y0096651D01*
X0014588Y0096747D01*
X0014787Y0096806D01*
X0014787Y0096806D01*
X0014787Y0096806D01*
X0014993Y0096825D01*
X0015200Y0096803D01*
X0015200Y0096803D01*
G37*
G36*
X0012660Y0096803D02*
X0012660Y0096803D01*
X0012660Y0096803D01*
X0012858Y0096742D01*
X0013041Y0096643D01*
X0013201Y0096511D01*
X0013332Y0096350D01*
X0013429Y0096166D01*
X0013489Y0095968D01*
X0013510Y0095761D01*
X0013510Y0095751D01*
X0013510Y0095740D01*
X0013510Y0095740D01*
X0013509Y0095736D01*
X0013486Y0095530D01*
X0013424Y0095332D01*
X0013324Y0095150D01*
X0013190Y0094991D01*
X0013028Y0094861D01*
X0012844Y0094765D01*
X0012645Y0094706D01*
X0012645Y0094706D01*
X0012645Y0094706D01*
X0012439Y0094687D01*
X0012232Y0094709D01*
X0012232Y0094709D01*
X0012232Y0094709D01*
X0012034Y0094770D01*
X0011851Y0094869D01*
X0011691Y0095001D01*
X0011560Y0095162D01*
X0011463Y0095346D01*
X0011403Y0095544D01*
X0011382Y0095751D01*
X0011382Y0095761D01*
X0011382Y0095772D01*
X0011382Y0095772D01*
X0011383Y0095776D01*
X0011406Y0095982D01*
X0011468Y0096180D01*
X0011568Y0096362D01*
X0011702Y0096521D01*
X0011864Y0096651D01*
X0012048Y0096747D01*
X0012247Y0096806D01*
X0012247Y0096806D01*
X0012247Y0096806D01*
X0012453Y0096825D01*
X0012660Y0096803D01*
X0012660Y0096803D01*
G37*
G36*
X0030440Y0096803D02*
X0030440Y0096803D01*
X0030440Y0096803D01*
X0030638Y0096742D01*
X0030821Y0096643D01*
X0030981Y0096511D01*
X0031112Y0096350D01*
X0031209Y0096166D01*
X0031269Y0095968D01*
X0031290Y0095761D01*
X0031290Y0095751D01*
X0031290Y0095740D01*
X0031290Y0095740D01*
X0031289Y0095736D01*
X0031266Y0095530D01*
X0031204Y0095332D01*
X0031104Y0095150D01*
X0030970Y0094991D01*
X0030808Y0094861D01*
X0030624Y0094765D01*
X0030425Y0094706D01*
X0030425Y0094706D01*
X0030425Y0094706D01*
X0030219Y0094687D01*
X0030012Y0094709D01*
X0030012Y0094709D01*
X0030012Y0094709D01*
X0029814Y0094770D01*
X0029631Y0094869D01*
X0029471Y0095001D01*
X0029340Y0095162D01*
X0029243Y0095346D01*
X0029183Y0095544D01*
X0029162Y0095751D01*
X0029162Y0095761D01*
X0029162Y0095772D01*
X0029162Y0095772D01*
X0029163Y0095776D01*
X0029186Y0095982D01*
X0029248Y0096180D01*
X0029348Y0096362D01*
X0029482Y0096521D01*
X0029644Y0096651D01*
X0029828Y0096747D01*
X0030027Y0096806D01*
X0030027Y0096806D01*
X0030027Y0096806D01*
X0030233Y0096825D01*
X0030440Y0096803D01*
X0030440Y0096803D01*
G37*
G36*
X0020280Y0099343D02*
X0020280Y0099343D01*
X0020280Y0099343D01*
X0020478Y0099282D01*
X0020661Y0099183D01*
X0020821Y0099051D01*
X0020952Y0098890D01*
X0021049Y0098706D01*
X0021109Y0098508D01*
X0021130Y0098301D01*
X0021130Y0098291D01*
X0021130Y0098280D01*
X0021130Y0098280D01*
X0021129Y0098276D01*
X0021106Y0098070D01*
X0021044Y0097872D01*
X0020944Y0097690D01*
X0020810Y0097531D01*
X0020648Y0097401D01*
X0020464Y0097305D01*
X0020265Y0097246D01*
X0020265Y0097246D01*
X0020265Y0097246D01*
X0020059Y0097227D01*
X0019852Y0097249D01*
X0019852Y0097249D01*
X0019852Y0097249D01*
X0019654Y0097310D01*
X0019471Y0097409D01*
X0019311Y0097541D01*
X0019180Y0097702D01*
X0019083Y0097886D01*
X0019023Y0098084D01*
X0019002Y0098291D01*
X0019002Y0098301D01*
X0019002Y0098312D01*
X0019002Y0098312D01*
X0019003Y0098316D01*
X0019026Y0098522D01*
X0019088Y0098720D01*
X0019188Y0098902D01*
X0019322Y0099061D01*
X0019484Y0099191D01*
X0019668Y0099287D01*
X0019867Y0099346D01*
X0019867Y0099346D01*
X0019867Y0099346D01*
X0020073Y0099365D01*
X0020280Y0099343D01*
X0020280Y0099343D01*
G37*
G36*
X0012660Y0099343D02*
X0012660Y0099343D01*
X0012660Y0099343D01*
X0012858Y0099282D01*
X0013041Y0099183D01*
X0013201Y0099051D01*
X0013332Y0098890D01*
X0013429Y0098706D01*
X0013489Y0098508D01*
X0013510Y0098301D01*
X0013510Y0098291D01*
X0013510Y0098280D01*
X0013510Y0098280D01*
X0013509Y0098276D01*
X0013486Y0098070D01*
X0013424Y0097872D01*
X0013324Y0097690D01*
X0013190Y0097531D01*
X0013028Y0097401D01*
X0012844Y0097305D01*
X0012645Y0097246D01*
X0012645Y0097246D01*
X0012645Y0097246D01*
X0012439Y0097227D01*
X0012232Y0097249D01*
X0012232Y0097249D01*
X0012232Y0097249D01*
X0012034Y0097310D01*
X0011851Y0097409D01*
X0011691Y0097541D01*
X0011560Y0097702D01*
X0011463Y0097886D01*
X0011403Y0098084D01*
X0011382Y0098291D01*
X0011382Y0098301D01*
X0011382Y0098312D01*
X0011382Y0098312D01*
X0011383Y0098316D01*
X0011406Y0098522D01*
X0011468Y0098720D01*
X0011568Y0098902D01*
X0011702Y0099061D01*
X0011864Y0099191D01*
X0012048Y0099287D01*
X0012247Y0099346D01*
X0012247Y0099346D01*
X0012247Y0099346D01*
X0012453Y0099365D01*
X0012660Y0099343D01*
X0012660Y0099343D01*
G37*
G36*
X0015200Y0099343D02*
X0015200Y0099343D01*
X0015200Y0099343D01*
X0015398Y0099282D01*
X0015581Y0099183D01*
X0015741Y0099051D01*
X0015872Y0098890D01*
X0015969Y0098706D01*
X0016029Y0098508D01*
X0016050Y0098301D01*
X0016050Y0098291D01*
X0016050Y0098280D01*
X0016050Y0098280D01*
X0016049Y0098276D01*
X0016026Y0098070D01*
X0015964Y0097872D01*
X0015864Y0097690D01*
X0015730Y0097531D01*
X0015568Y0097401D01*
X0015384Y0097305D01*
X0015185Y0097246D01*
X0015185Y0097246D01*
X0015185Y0097246D01*
X0014979Y0097227D01*
X0014772Y0097249D01*
X0014772Y0097249D01*
X0014772Y0097249D01*
X0014574Y0097310D01*
X0014391Y0097409D01*
X0014231Y0097541D01*
X0014100Y0097702D01*
X0014003Y0097886D01*
X0013943Y0098084D01*
X0013922Y0098291D01*
X0013922Y0098301D01*
X0013922Y0098312D01*
X0013922Y0098312D01*
X0013923Y0098316D01*
X0013946Y0098522D01*
X0014008Y0098720D01*
X0014108Y0098902D01*
X0014242Y0099061D01*
X0014404Y0099191D01*
X0014588Y0099287D01*
X0014787Y0099346D01*
X0014787Y0099346D01*
X0014787Y0099346D01*
X0014993Y0099365D01*
X0015200Y0099343D01*
X0015200Y0099343D01*
G37*
G36*
X0025360Y0099343D02*
X0025360Y0099343D01*
X0025360Y0099343D01*
X0025558Y0099282D01*
X0025741Y0099183D01*
X0025901Y0099051D01*
X0026032Y0098890D01*
X0026129Y0098706D01*
X0026189Y0098508D01*
X0026210Y0098301D01*
X0026210Y0098291D01*
X0026210Y0098280D01*
X0026210Y0098280D01*
X0026209Y0098276D01*
X0026186Y0098070D01*
X0026124Y0097872D01*
X0026024Y0097690D01*
X0025890Y0097531D01*
X0025728Y0097401D01*
X0025544Y0097305D01*
X0025345Y0097246D01*
X0025345Y0097246D01*
X0025345Y0097246D01*
X0025139Y0097227D01*
X0024932Y0097249D01*
X0024932Y0097249D01*
X0024932Y0097249D01*
X0024734Y0097310D01*
X0024551Y0097409D01*
X0024391Y0097541D01*
X0024260Y0097702D01*
X0024163Y0097886D01*
X0024103Y0098084D01*
X0024082Y0098291D01*
X0024082Y0098301D01*
X0024082Y0098312D01*
X0024082Y0098312D01*
X0024083Y0098316D01*
X0024106Y0098522D01*
X0024168Y0098720D01*
X0024268Y0098902D01*
X0024402Y0099061D01*
X0024564Y0099191D01*
X0024748Y0099287D01*
X0024947Y0099346D01*
X0024947Y0099346D01*
X0024947Y0099346D01*
X0025153Y0099365D01*
X0025360Y0099343D01*
X0025360Y0099343D01*
G37*
G36*
X0027900Y0099343D02*
X0027900Y0099343D01*
X0027900Y0099343D01*
X0028098Y0099282D01*
X0028281Y0099183D01*
X0028441Y0099051D01*
X0028572Y0098890D01*
X0028669Y0098706D01*
X0028729Y0098508D01*
X0028750Y0098301D01*
X0028750Y0098291D01*
X0028750Y0098280D01*
X0028750Y0098280D01*
X0028749Y0098276D01*
X0028726Y0098070D01*
X0028664Y0097872D01*
X0028564Y0097690D01*
X0028430Y0097531D01*
X0028268Y0097401D01*
X0028084Y0097305D01*
X0027885Y0097246D01*
X0027885Y0097246D01*
X0027885Y0097246D01*
X0027679Y0097227D01*
X0027472Y0097249D01*
X0027472Y0097249D01*
X0027472Y0097249D01*
X0027274Y0097310D01*
X0027091Y0097409D01*
X0026931Y0097541D01*
X0026800Y0097702D01*
X0026703Y0097886D01*
X0026643Y0098084D01*
X0026622Y0098291D01*
X0026622Y0098301D01*
X0026622Y0098312D01*
X0026622Y0098312D01*
X0026623Y0098316D01*
X0026646Y0098522D01*
X0026708Y0098720D01*
X0026808Y0098902D01*
X0026942Y0099061D01*
X0027104Y0099191D01*
X0027288Y0099287D01*
X0027487Y0099346D01*
X0027487Y0099346D01*
X0027487Y0099346D01*
X0027693Y0099365D01*
X0027900Y0099343D01*
X0027900Y0099343D01*
G37*
G36*
X0030440Y0099343D02*
X0030440Y0099343D01*
X0030440Y0099343D01*
X0030638Y0099282D01*
X0030821Y0099183D01*
X0030981Y0099051D01*
X0031112Y0098890D01*
X0031209Y0098706D01*
X0031269Y0098508D01*
X0031290Y0098301D01*
X0031290Y0098291D01*
X0031290Y0098280D01*
X0031290Y0098280D01*
X0031289Y0098276D01*
X0031266Y0098070D01*
X0031204Y0097872D01*
X0031104Y0097690D01*
X0030970Y0097531D01*
X0030808Y0097401D01*
X0030624Y0097305D01*
X0030425Y0097246D01*
X0030425Y0097246D01*
X0030425Y0097246D01*
X0030219Y0097227D01*
X0030012Y0097249D01*
X0030012Y0097249D01*
X0030012Y0097249D01*
X0029814Y0097310D01*
X0029631Y0097409D01*
X0029471Y0097541D01*
X0029340Y0097702D01*
X0029243Y0097886D01*
X0029183Y0098084D01*
X0029162Y0098291D01*
X0029162Y0098301D01*
X0029162Y0098312D01*
X0029162Y0098312D01*
X0029163Y0098316D01*
X0029186Y0098522D01*
X0029248Y0098720D01*
X0029348Y0098902D01*
X0029482Y0099061D01*
X0029644Y0099191D01*
X0029828Y0099287D01*
X0030027Y0099346D01*
X0030027Y0099346D01*
X0030027Y0099346D01*
X0030233Y0099365D01*
X0030440Y0099343D01*
X0030440Y0099343D01*
G37*
G36*
X0032980Y0099343D02*
X0032980Y0099343D01*
X0032980Y0099343D01*
X0033178Y0099282D01*
X0033361Y0099183D01*
X0033521Y0099051D01*
X0033652Y0098890D01*
X0033749Y0098706D01*
X0033809Y0098508D01*
X0033830Y0098301D01*
X0033830Y0098291D01*
X0033830Y0098280D01*
X0033830Y0098280D01*
X0033829Y0098276D01*
X0033806Y0098070D01*
X0033744Y0097872D01*
X0033644Y0097690D01*
X0033510Y0097531D01*
X0033348Y0097401D01*
X0033164Y0097305D01*
X0032965Y0097246D01*
X0032965Y0097246D01*
X0032965Y0097246D01*
X0032759Y0097227D01*
X0032552Y0097249D01*
X0032552Y0097249D01*
X0032552Y0097249D01*
X0032354Y0097310D01*
X0032171Y0097409D01*
X0032011Y0097541D01*
X0031880Y0097702D01*
X0031783Y0097886D01*
X0031723Y0098084D01*
X0031702Y0098291D01*
X0031702Y0098301D01*
X0031702Y0098312D01*
X0031702Y0098312D01*
X0031703Y0098316D01*
X0031726Y0098522D01*
X0031788Y0098720D01*
X0031888Y0098902D01*
X0032022Y0099061D01*
X0032184Y0099191D01*
X0032368Y0099287D01*
X0032567Y0099346D01*
X0032567Y0099346D01*
X0032567Y0099346D01*
X0032773Y0099365D01*
X0032980Y0099343D01*
X0032980Y0099343D01*
G37*
G36*
X0017740Y0099343D02*
X0017740Y0099343D01*
X0017740Y0099343D01*
X0017938Y0099282D01*
X0018121Y0099183D01*
X0018281Y0099051D01*
X0018412Y0098890D01*
X0018509Y0098706D01*
X0018569Y0098508D01*
X0018590Y0098301D01*
X0018590Y0098291D01*
X0018590Y0098280D01*
X0018590Y0098280D01*
X0018589Y0098276D01*
X0018566Y0098070D01*
X0018504Y0097872D01*
X0018404Y0097690D01*
X0018270Y0097531D01*
X0018108Y0097401D01*
X0017924Y0097305D01*
X0017725Y0097246D01*
X0017725Y0097246D01*
X0017725Y0097246D01*
X0017519Y0097227D01*
X0017312Y0097249D01*
X0017312Y0097249D01*
X0017312Y0097249D01*
X0017114Y0097310D01*
X0016931Y0097409D01*
X0016771Y0097541D01*
X0016640Y0097702D01*
X0016543Y0097886D01*
X0016483Y0098084D01*
X0016462Y0098291D01*
X0016462Y0098301D01*
X0016462Y0098312D01*
X0016462Y0098312D01*
X0016463Y0098316D01*
X0016486Y0098522D01*
X0016548Y0098720D01*
X0016648Y0098902D01*
X0016782Y0099061D01*
X0016944Y0099191D01*
X0017128Y0099287D01*
X0017327Y0099346D01*
X0017327Y0099346D01*
X0017327Y0099346D01*
X0017533Y0099365D01*
X0017740Y0099343D01*
X0017740Y0099343D01*
G37*
G36*
X0022820Y0099343D02*
X0022820Y0099343D01*
X0022820Y0099343D01*
X0023018Y0099282D01*
X0023201Y0099183D01*
X0023361Y0099051D01*
X0023492Y0098890D01*
X0023589Y0098706D01*
X0023649Y0098508D01*
X0023670Y0098301D01*
X0023670Y0098291D01*
X0023670Y0098280D01*
X0023670Y0098280D01*
X0023669Y0098276D01*
X0023646Y0098070D01*
X0023584Y0097872D01*
X0023484Y0097690D01*
X0023350Y0097531D01*
X0023188Y0097401D01*
X0023004Y0097305D01*
X0022805Y0097246D01*
X0022805Y0097246D01*
X0022805Y0097246D01*
X0022599Y0097227D01*
X0022392Y0097249D01*
X0022392Y0097249D01*
X0022392Y0097249D01*
X0022194Y0097310D01*
X0022011Y0097409D01*
X0021851Y0097541D01*
X0021720Y0097702D01*
X0021623Y0097886D01*
X0021563Y0098084D01*
X0021542Y0098291D01*
X0021542Y0098301D01*
X0021542Y0098312D01*
X0021542Y0098312D01*
X0021543Y0098316D01*
X0021566Y0098522D01*
X0021628Y0098720D01*
X0021728Y0098902D01*
X0021862Y0099061D01*
X0022024Y0099191D01*
X0022208Y0099287D01*
X0022407Y0099346D01*
X0022407Y0099346D01*
X0022407Y0099346D01*
X0022613Y0099365D01*
X0022820Y0099343D01*
X0022820Y0099343D01*
G37*
G36*
X0036370Y0097232D02*
X0034242Y0097232D01*
X0034242Y0099360D01*
X0036370Y0099360D01*
X0036370Y0097232D01*
X0036370Y0097232D01*
G37*
M02*
