M48
METRIC,000.000             
%
T01C0.400000
X4191Y27234
X6096Y22606
X9906Y18979
X13716Y24511
X13716Y18979
X15621Y25781
X17780Y30416
X4191Y67366
X6096Y62738
X9906Y59111
X13716Y64643
X13716Y59111
X15621Y65913
X17780Y70548
X4191Y107498
X6096Y102870
X9906Y99243
X13716Y104775
X13716Y99243
X15621Y106045
X17780Y110680
X47244Y22606
X69088Y21336
X76073Y20701
X47244Y62738
X69088Y61468
X76073Y60833
X47244Y102870
X69088Y101600
X76073Y100965
T02C0.800000
X72263Y22606
X74803Y22606
X77343Y22606
X72263Y16891
X74803Y16891
X77343Y16891
X72263Y28321
X74803Y28321
X77343Y28321
X72263Y11176
X74803Y11176
X77343Y11176
X72263Y62738
X74803Y62738
X77343Y62738
X72263Y57023
X74803Y57023
X77343Y57023
X72263Y68453
X74803Y68453
X77343Y68453
X72263Y51308
X74803Y51308
X77343Y51308
X72263Y102870
X74803Y102870
X77343Y102870
X72263Y97155
X74803Y97155
X77343Y97155
X72263Y108585
X74803Y108585
X77343Y108585
X72263Y91440
X74803Y91440
X77343Y91440
T03C0.889000
X9271Y11176
X6731Y11176
X4191Y11176
X11811Y11176
X14351Y11176
X9271Y51308
X6731Y51308
X4191Y51308
X11811Y51308
X14351Y51308
X9271Y91440
X6731Y91440
X4191Y91440
X11811Y91440
X14351Y91440
X24130Y30734
X24130Y28194
X65913Y12446
X65913Y9906
X65913Y2286
X68453Y2286
X65913Y4826
X68453Y4826
X21590Y30734
X21590Y28194
X65913Y32766
X68453Y32766
X26670Y30734
X26670Y28194
X65913Y37846
X68453Y37846
X65913Y35306
X68453Y35306
X24130Y70866
X24130Y68326
X65913Y52578
X65913Y50038
X65913Y42418
X68453Y42418
X65913Y44958
X68453Y44958
X21590Y70866
X21590Y68326
X65913Y72898
X68453Y72898
X26670Y70866
X26670Y68326
X65913Y77978
X68453Y77978
X65913Y75438
X68453Y75438
X24130Y110998
X24130Y108458
X65913Y92710
X65913Y90170
X65913Y82550
X68453Y82550
X65913Y85090
X68453Y85090
X21590Y110998
X21590Y108458
X65913Y113030
X68453Y113030
X26670Y110998
X26670Y108458
X65913Y118110
X68453Y118110
X65913Y115570
X68453Y115570
T04C1.000000
X62103Y22606
X62103Y17606
X62103Y62738
X62103Y57738
X62103Y102870
X62103Y97870
T05C1.200000
X30378Y33401
X62078Y33401
X22123Y20066
X53823Y20066
X30378Y6731
X62078Y6731
X30378Y73533
X62078Y73533
X22123Y60198
X53823Y60198
X30378Y46863
X62078Y46863
X30378Y113665
X62078Y113665
X22123Y100330
X53823Y100330
X30378Y86995
X62078Y86995
T06C3.000000
X4826Y4826
X4826Y35306
X14986Y35306
X14986Y4826
X4826Y44958
X4826Y75438
X14986Y75438
X14986Y44958
X4826Y85090
X4826Y115570
X14986Y115570
X14986Y85090
X24638Y35306
X75438Y35306
X24638Y4826
X75438Y4826
X24638Y75438
X75438Y75438
X24638Y44958
X75438Y44958
X24638Y115570
X75438Y115570
X24638Y85090
X75438Y85090
M30
