G75*
G71*
%MOMM*%
%OFA0B0*%
%FSLAX53Y53*%
%IPPOS*%
%LPD*%
%ADD11R,3.70000X2.95000*%
%ADD15R,1.10000X3.40000*%
%ADD19R,1.30000X1.20000*%
%ADD20R,2.95016X2.89936*%
%ADD22R,1.80000X1.28900*%
%ADD25R,1.40000X4.20000*%
%ADD28C,1.92400*%
%ADD34R,1.90000X1.70000*%
%ADD39C,6.40000*%
%ADD42R,1.92400X1.92400*%
%ADD43R,3.40000X1.10000*%
%ADD47C,0.10000*%
%ADD49R,1.95000X1.00000*%
%ADD53R,1.05000X1.96000*%
%ADD55R,1.80000X1.29900*%
%ADD60C,2.10000*%
%ADD65R,1.96000X1.05000*%
%ADD66R,4.20000X1.40000*%
%ADD67R,2.89936X2.20086*%
%ADD73R,1.70000X1.90000*%
%ADD75R,1.28900X1.79700*%
%ADD80R,1.79700X1.28900*%
X0000000Y0000000D02*
%LPD*%
G01*
D47*
G36*
X0015919Y0007903D02*
X0016502Y0007662D01*
X0017026Y0007312D01*
X0017472Y0006866D01*
X0017822Y0006342D01*
X0018063Y0005759D01*
X0018186Y0005141D01*
X0018186Y0004511D01*
X0018063Y0003893D01*
X0017822Y0003310D01*
X0017472Y0002786D01*
X0017026Y0002340D01*
X0016502Y0001990D01*
X0015919Y0001749D01*
X0015301Y0001626D01*
X0014671Y0001626D01*
X0014053Y0001749D01*
X0013470Y0001990D01*
X0012946Y0002340D01*
X0012500Y0002786D01*
X0012150Y0003310D01*
X0011909Y0003893D01*
X0011786Y0004511D01*
X0011786Y0005141D01*
X0011909Y0005759D01*
X0012150Y0006342D01*
X0012500Y0006866D01*
X0012946Y0007312D01*
X0013470Y0007662D01*
X0014053Y0007903D01*
X0014671Y0008026D01*
X0015301Y0008026D01*
X0015919Y0007903D01*
X0015919Y0007903D01*
G37*
G36*
X0005759Y0007903D02*
X0006342Y0007662D01*
X0006866Y0007312D01*
X0007312Y0006866D01*
X0007662Y0006342D01*
X0007903Y0005759D01*
X0008026Y0005141D01*
X0008026Y0004511D01*
X0007903Y0003893D01*
X0007662Y0003310D01*
X0007312Y0002786D01*
X0006866Y0002340D01*
X0006342Y0001990D01*
X0005759Y0001749D01*
X0005141Y0001626D01*
X0004511Y0001626D01*
X0003893Y0001749D01*
X0003310Y0001990D01*
X0002786Y0002340D01*
X0002340Y0002786D01*
X0001990Y0003310D01*
X0001749Y0003893D01*
X0001626Y0004511D01*
X0001626Y0005141D01*
X0001749Y0005759D01*
X0001990Y0006342D01*
X0002340Y0006866D01*
X0002786Y0007312D01*
X0003310Y0007662D01*
X0003893Y0007903D01*
X0004511Y0008026D01*
X0005141Y0008026D01*
X0005759Y0007903D01*
X0005759Y0007903D01*
G37*
G36*
X0007693Y0010214D02*
X0005769Y0010214D01*
X0005769Y0012138D01*
X0007693Y0012138D01*
X0007693Y0010214D01*
X0007693Y0010214D01*
G37*
G36*
X0015313Y0010214D02*
X0013389Y0010214D01*
X0013389Y0012138D01*
X0015313Y0012138D01*
X0015313Y0010214D01*
X0015313Y0010214D01*
G37*
G36*
X0005153Y0010214D02*
X0003229Y0010214D01*
X0003229Y0012138D01*
X0005153Y0012138D01*
X0005153Y0010214D01*
X0005153Y0010214D01*
G37*
G36*
X0010233Y0010214D02*
X0008309Y0010214D01*
X0008309Y0012138D01*
X0010233Y0012138D01*
X0010233Y0010214D01*
X0010233Y0010214D01*
G37*
G36*
X0012773Y0010214D02*
X0010849Y0010214D01*
X0010849Y0012138D01*
X0012773Y0012138D01*
X0012773Y0010214D01*
X0012773Y0010214D01*
G37*
G36*
X0018976Y0012271D02*
X0016076Y0012271D01*
X0016076Y0015222D01*
X0018976Y0015222D01*
X0018976Y0012271D01*
X0018976Y0012271D01*
G37*
G36*
X0006276Y0013511D02*
X0003376Y0013511D01*
X0003376Y0016461D01*
X0006276Y0016461D01*
X0006276Y0013511D01*
X0006276Y0013511D01*
G37*
G36*
X0010822Y0019961D02*
X0010865Y0019948D01*
X0010904Y0019927D01*
X0010939Y0019899D01*
X0010967Y0019864D01*
X0010988Y0019825D01*
X0011001Y0019782D01*
X0011006Y0019731D01*
X0011006Y0018226D01*
X0011001Y0018175D01*
X0010988Y0018132D01*
X0010967Y0018093D01*
X0010934Y0018053D01*
X0010926Y0018045D01*
X0010913Y0018025D01*
X0010903Y0018002D01*
X0010899Y0017978D01*
X0010899Y0017954D01*
X0010903Y0017930D01*
X0010913Y0017907D01*
X0010926Y0017887D01*
X0010944Y0017869D01*
X0010964Y0017856D01*
X0010987Y0017846D01*
X0011011Y0017842D01*
X0011023Y0017841D01*
X0011606Y0017841D01*
X0011606Y0015941D01*
X0011023Y0015941D01*
X0010999Y0015939D01*
X0010976Y0015931D01*
X0010954Y0015920D01*
X0010935Y0015904D01*
X0010919Y0015885D01*
X0010908Y0015864D01*
X0010901Y0015840D01*
X0010898Y0015816D01*
X0010901Y0015792D01*
X0010908Y0015768D01*
X0010919Y0015747D01*
X0010931Y0015734D01*
X0010931Y0015733D01*
X0010967Y0015689D01*
X0010988Y0015650D01*
X0011001Y0015607D01*
X0011006Y0015557D01*
X0011006Y0014050D01*
X0011001Y0014000D01*
X0010988Y0013957D01*
X0010967Y0013918D01*
X0010939Y0013883D01*
X0010904Y0013855D01*
X0010865Y0013834D01*
X0010822Y0013821D01*
X0010772Y0013816D01*
X0009040Y0013816D01*
X0008990Y0013821D01*
X0008947Y0013834D01*
X0008908Y0013855D01*
X0008873Y0013883D01*
X0008845Y0013918D01*
X0008824Y0013957D01*
X0008811Y0014000D01*
X0008806Y0014050D01*
X0008806Y0015557D01*
X0008811Y0015607D01*
X0008824Y0015650D01*
X0008845Y0015689D01*
X0008878Y0015729D01*
X0008885Y0015737D01*
X0008899Y0015757D01*
X0008908Y0015780D01*
X0008913Y0015804D01*
X0008913Y0015828D01*
X0008908Y0015852D01*
X0008899Y0015875D01*
X0008885Y0015895D01*
X0008868Y0015913D01*
X0008848Y0015926D01*
X0008825Y0015936D01*
X0008789Y0015941D01*
X0008206Y0015941D01*
X0008206Y0017841D01*
X0008789Y0017841D01*
X0008813Y0017843D01*
X0008837Y0017851D01*
X0008858Y0017862D01*
X0008877Y0017878D01*
X0008893Y0017897D01*
X0008905Y0017918D01*
X0008912Y0017942D01*
X0008914Y0017966D01*
X0008912Y0017990D01*
X0008905Y0018014D01*
X0008893Y0018035D01*
X0008877Y0018054D01*
X0008875Y0018057D01*
X0008845Y0018093D01*
X0008824Y0018132D01*
X0008811Y0018175D01*
X0008806Y0018226D01*
X0008806Y0019731D01*
X0008811Y0019782D01*
X0008824Y0019825D01*
X0008845Y0019864D01*
X0008873Y0019899D01*
X0008908Y0019927D01*
X0008947Y0019948D01*
X0008990Y0019961D01*
X0009041Y0019966D01*
X0010771Y0019966D01*
X0010822Y0019961D01*
X0010822Y0019961D01*
G37*
G36*
X0014632Y0019961D02*
X0014675Y0019948D01*
X0014714Y0019927D01*
X0014749Y0019899D01*
X0014777Y0019864D01*
X0014798Y0019825D01*
X0014811Y0019782D01*
X0014816Y0019731D01*
X0014816Y0018226D01*
X0014811Y0018175D01*
X0014798Y0018132D01*
X0014777Y0018093D01*
X0014744Y0018053D01*
X0014736Y0018045D01*
X0014723Y0018025D01*
X0014713Y0018002D01*
X0014709Y0017978D01*
X0014709Y0017954D01*
X0014713Y0017930D01*
X0014723Y0017907D01*
X0014736Y0017887D01*
X0014754Y0017869D01*
X0014774Y0017856D01*
X0014797Y0017846D01*
X0014821Y0017842D01*
X0014833Y0017841D01*
X0015416Y0017841D01*
X0015416Y0015941D01*
X0014833Y0015941D01*
X0014809Y0015939D01*
X0014786Y0015931D01*
X0014764Y0015920D01*
X0014745Y0015904D01*
X0014729Y0015885D01*
X0014718Y0015864D01*
X0014711Y0015840D01*
X0014708Y0015816D01*
X0014711Y0015792D01*
X0014718Y0015768D01*
X0014729Y0015747D01*
X0014741Y0015734D01*
X0014741Y0015733D01*
X0014777Y0015689D01*
X0014798Y0015650D01*
X0014811Y0015607D01*
X0014816Y0015557D01*
X0014816Y0014050D01*
X0014811Y0014000D01*
X0014798Y0013957D01*
X0014777Y0013918D01*
X0014749Y0013883D01*
X0014714Y0013855D01*
X0014675Y0013834D01*
X0014632Y0013821D01*
X0014582Y0013816D01*
X0012850Y0013816D01*
X0012800Y0013821D01*
X0012757Y0013834D01*
X0012718Y0013855D01*
X0012683Y0013883D01*
X0012655Y0013918D01*
X0012634Y0013957D01*
X0012621Y0014000D01*
X0012616Y0014050D01*
X0012616Y0015557D01*
X0012621Y0015607D01*
X0012634Y0015650D01*
X0012655Y0015689D01*
X0012688Y0015729D01*
X0012695Y0015737D01*
X0012709Y0015757D01*
X0012718Y0015780D01*
X0012723Y0015804D01*
X0012723Y0015828D01*
X0012718Y0015852D01*
X0012709Y0015875D01*
X0012695Y0015895D01*
X0012678Y0015913D01*
X0012658Y0015926D01*
X0012635Y0015936D01*
X0012599Y0015941D01*
X0012016Y0015941D01*
X0012016Y0017841D01*
X0012599Y0017841D01*
X0012623Y0017843D01*
X0012647Y0017851D01*
X0012668Y0017862D01*
X0012687Y0017878D01*
X0012703Y0017897D01*
X0012715Y0017918D01*
X0012722Y0017942D01*
X0012724Y0017966D01*
X0012722Y0017990D01*
X0012715Y0018014D01*
X0012703Y0018035D01*
X0012687Y0018054D01*
X0012685Y0018057D01*
X0012655Y0018093D01*
X0012634Y0018132D01*
X0012621Y0018175D01*
X0012616Y0018226D01*
X0012616Y0019731D01*
X0012621Y0019782D01*
X0012634Y0019825D01*
X0012655Y0019864D01*
X0012683Y0019899D01*
X0012718Y0019927D01*
X0012757Y0019948D01*
X0012800Y0019961D01*
X0012851Y0019966D01*
X0014581Y0019966D01*
X0014632Y0019961D01*
X0014632Y0019961D01*
G37*
G36*
X0018976Y0017321D02*
X0016076Y0017321D01*
X0016076Y0020271D01*
X0018976Y0020271D01*
X0018976Y0017321D01*
X0018976Y0017321D01*
G37*
G36*
X0006276Y0018560D02*
X0003376Y0018560D01*
X0003376Y0021511D01*
X0006276Y0021511D01*
X0006276Y0018560D01*
X0006276Y0018560D01*
G37*
G36*
X0012579Y0023723D02*
X0012581Y0023699D01*
X0012588Y0023675D01*
X0012600Y0023654D01*
X0012615Y0023635D01*
X0012634Y0023619D01*
X0012656Y0023607D01*
X0012679Y0023600D01*
X0012704Y0023598D01*
X0012728Y0023600D01*
X0012751Y0023607D01*
X0012773Y0023619D01*
X0012792Y0023635D01*
X0012794Y0023637D01*
X0012831Y0023667D01*
X0012870Y0023688D01*
X0012913Y0023701D01*
X0012963Y0023706D01*
X0014469Y0023706D01*
X0014519Y0023701D01*
X0014562Y0023688D01*
X0014601Y0023667D01*
X0014636Y0023639D01*
X0014664Y0023604D01*
X0014686Y0023565D01*
X0014699Y0023522D01*
X0014704Y0023471D01*
X0014704Y0021741D01*
X0014699Y0021690D01*
X0014686Y0021647D01*
X0014664Y0021608D01*
X0014636Y0021573D01*
X0014601Y0021545D01*
X0014562Y0021524D01*
X0014519Y0021511D01*
X0014469Y0021506D01*
X0012963Y0021506D01*
X0012913Y0021511D01*
X0012870Y0021524D01*
X0012831Y0021545D01*
X0012791Y0021578D01*
X0012783Y0021586D01*
X0012762Y0021599D01*
X0012740Y0021609D01*
X0012716Y0021613D01*
X0012691Y0021613D01*
X0012667Y0021609D01*
X0012645Y0021599D01*
X0012624Y0021586D01*
X0012607Y0021568D01*
X0012593Y0021548D01*
X0012584Y0021525D01*
X0012579Y0021501D01*
X0012579Y0021489D01*
X0012579Y0020906D01*
X0010679Y0020906D01*
X0010679Y0021489D01*
X0010676Y0021513D01*
X0010669Y0021536D01*
X0010657Y0021558D01*
X0010642Y0021577D01*
X0010623Y0021593D01*
X0010601Y0021604D01*
X0010578Y0021611D01*
X0010554Y0021614D01*
X0010529Y0021611D01*
X0010506Y0021604D01*
X0010484Y0021593D01*
X0010471Y0021581D01*
X0010471Y0021581D01*
X0010427Y0021545D01*
X0010387Y0021524D01*
X0010345Y0021511D01*
X0010294Y0021506D01*
X0008788Y0021506D01*
X0008737Y0021511D01*
X0008695Y0021524D01*
X0008655Y0021545D01*
X0008621Y0021573D01*
X0008592Y0021608D01*
X0008571Y0021647D01*
X0008558Y0021690D01*
X0008554Y0021740D01*
X0008554Y0023472D01*
X0008558Y0023522D01*
X0008571Y0023565D01*
X0008592Y0023604D01*
X0008621Y0023639D01*
X0008655Y0023667D01*
X0008695Y0023688D01*
X0008737Y0023701D01*
X0008788Y0023706D01*
X0010294Y0023706D01*
X0010345Y0023701D01*
X0010387Y0023688D01*
X0010427Y0023667D01*
X0010467Y0023634D01*
X0010474Y0023627D01*
X0010495Y0023613D01*
X0010517Y0023604D01*
X0010541Y0023599D01*
X0010566Y0023599D01*
X0010590Y0023604D01*
X0010612Y0023613D01*
X0010633Y0023627D01*
X0010650Y0023644D01*
X0010664Y0023664D01*
X0010673Y0023687D01*
X0010679Y0023723D01*
X0010679Y0024306D01*
X0012579Y0024306D01*
X0012579Y0023723D01*
X0012579Y0023723D01*
G37*
G36*
X0019812Y0021203D02*
X0015580Y0021203D01*
X0015580Y0026143D01*
X0019812Y0026143D01*
X0019980Y0026143D02*
G37*
G36*
X0005107Y0028216D02*
X0005150Y0028203D01*
X0005189Y0028182D01*
X0005224Y0028154D01*
X0005252Y0028119D01*
X0005273Y0028080D01*
X0005286Y0028037D01*
X0005291Y0027986D01*
X0005291Y0026481D01*
X0005286Y0026430D01*
X0005273Y0026387D01*
X0005252Y0026348D01*
X0005219Y0026308D01*
X0005211Y0026300D01*
X0005198Y0026280D01*
X0005188Y0026257D01*
X0005184Y0026233D01*
X0005184Y0026209D01*
X0005188Y0026185D01*
X0005198Y0026162D01*
X0005211Y0026142D01*
X0005229Y0026124D01*
X0005249Y0026111D01*
X0005272Y0026101D01*
X0005296Y0026097D01*
X0005308Y0026096D01*
X0005891Y0026096D01*
X0005891Y0024196D01*
X0005308Y0024196D01*
X0005284Y0024194D01*
X0005261Y0024186D01*
X0005239Y0024175D01*
X0005220Y0024159D01*
X0005204Y0024140D01*
X0005193Y0024119D01*
X0005186Y0024095D01*
X0005183Y0024071D01*
X0005186Y0024047D01*
X0005193Y0024023D01*
X0005204Y0024002D01*
X0005216Y0023989D01*
X0005216Y0023988D01*
X0005252Y0023944D01*
X0005273Y0023905D01*
X0005286Y0023862D01*
X0005291Y0023812D01*
X0005291Y0022305D01*
X0005286Y0022255D01*
X0005273Y0022212D01*
X0005252Y0022173D01*
X0005224Y0022138D01*
X0005189Y0022110D01*
X0005150Y0022089D01*
X0005107Y0022076D01*
X0005057Y0022071D01*
X0003325Y0022071D01*
X0003275Y0022076D01*
X0003232Y0022089D01*
X0003193Y0022110D01*
X0003158Y0022138D01*
X0003130Y0022173D01*
X0003109Y0022212D01*
X0003096Y0022255D01*
X0003091Y0022305D01*
X0003091Y0023812D01*
X0003096Y0023862D01*
X0003109Y0023905D01*
X0003130Y0023944D01*
X0003163Y0023984D01*
X0003170Y0023992D01*
X0003184Y0024012D01*
X0003193Y0024035D01*
X0003198Y0024059D01*
X0003198Y0024083D01*
X0003193Y0024107D01*
X0003184Y0024130D01*
X0003170Y0024150D01*
X0003153Y0024168D01*
X0003133Y0024181D01*
X0003110Y0024191D01*
X0003074Y0024196D01*
X0002491Y0024196D01*
X0002491Y0026096D01*
X0003074Y0026096D01*
X0003098Y0026098D01*
X0003122Y0026106D01*
X0003143Y0026117D01*
X0003162Y0026133D01*
X0003178Y0026152D01*
X0003190Y0026173D01*
X0003197Y0026197D01*
X0003199Y0026221D01*
X0003197Y0026245D01*
X0003190Y0026269D01*
X0003178Y0026290D01*
X0003162Y0026309D01*
X0003160Y0026312D01*
X0003130Y0026348D01*
X0003109Y0026387D01*
X0003096Y0026430D01*
X0003091Y0026481D01*
X0003091Y0027986D01*
X0003096Y0028037D01*
X0003109Y0028080D01*
X0003130Y0028119D01*
X0003158Y0028154D01*
X0003193Y0028182D01*
X0003232Y0028203D01*
X0003275Y0028216D01*
X0003326Y0028221D01*
X0005056Y0028221D01*
X0005107Y0028216D01*
X0005107Y0028216D01*
G37*
G36*
X0014526Y0024966D02*
X0011575Y0024966D01*
X0011575Y0027866D01*
X0014526Y0027866D01*
X0014526Y0024966D01*
X0014526Y0024966D01*
G37*
G36*
X0009476Y0024966D02*
X0006526Y0024966D01*
X0006526Y0027866D01*
X0009476Y0027866D01*
X0009476Y0024966D01*
X0009476Y0024966D01*
G37*
G36*
X0019812Y0026677D02*
X0015580Y0026677D01*
X0015580Y0031617D01*
X0019812Y0031617D01*
X0019980Y0031617D02*
G37*
G36*
X0012651Y0028776D02*
X0009701Y0028776D01*
X0009701Y0031676D01*
X0012651Y0031676D01*
X0012651Y0028776D01*
X0012651Y0028776D01*
G37*
G36*
X0007602Y0028776D02*
X0004651Y0028776D01*
X0004651Y0031676D01*
X0007602Y0031676D01*
X0007602Y0028776D01*
X0007602Y0028776D01*
G37*
G36*
X0005759Y0038383D02*
X0006342Y0038142D01*
X0006866Y0037792D01*
X0007312Y0037346D01*
X0007662Y0036822D01*
X0007903Y0036239D01*
X0008026Y0035621D01*
X0008026Y0034991D01*
X0007903Y0034373D01*
X0007662Y0033790D01*
X0007312Y0033266D01*
X0006866Y0032820D01*
X0006342Y0032470D01*
X0005759Y0032229D01*
X0005141Y0032106D01*
X0004511Y0032106D01*
X0003893Y0032229D01*
X0003310Y0032470D01*
X0002786Y0032820D01*
X0002340Y0033266D01*
X0001990Y0033790D01*
X0001749Y0034373D01*
X0001626Y0034991D01*
X0001626Y0035621D01*
X0001749Y0036239D01*
X0001990Y0036822D01*
X0002340Y0037346D01*
X0002786Y0037792D01*
X0003310Y0038142D01*
X0003893Y0038383D01*
X0004511Y0038506D01*
X0005141Y0038506D01*
X0005759Y0038383D01*
X0005759Y0038383D01*
G37*
G36*
X0015919Y0038383D02*
X0016502Y0038142D01*
X0017026Y0037792D01*
X0017472Y0037346D01*
X0017822Y0036822D01*
X0018063Y0036239D01*
X0018186Y0035621D01*
X0018186Y0034991D01*
X0018063Y0034373D01*
X0017822Y0033790D01*
X0017472Y0033266D01*
X0017026Y0032820D01*
X0016502Y0032470D01*
X0015919Y0032229D01*
X0015301Y0032106D01*
X0014671Y0032106D01*
X0014053Y0032229D01*
X0013470Y0032470D01*
X0012946Y0032820D01*
X0012500Y0033266D01*
X0012150Y0033790D01*
X0011909Y0034373D01*
X0011786Y0034991D01*
X0011786Y0035621D01*
X0011909Y0036239D01*
X0012150Y0036822D01*
X0012500Y0037346D01*
X0012946Y0037792D01*
X0013470Y0038142D01*
X0014053Y0038383D01*
X0014671Y0038506D01*
X0015301Y0038506D01*
X0015919Y0038383D01*
X0015919Y0038383D01*
G37*
X0000000Y0040132D02*
%LPD*%
G01*
D47*
G36*
X0015919Y0048035D02*
X0016502Y0047794D01*
X0017026Y0047444D01*
X0017472Y0046998D01*
X0017822Y0046474D01*
X0018063Y0045891D01*
X0018186Y0045273D01*
X0018186Y0044643D01*
X0018063Y0044025D01*
X0017822Y0043442D01*
X0017472Y0042918D01*
X0017026Y0042472D01*
X0016502Y0042122D01*
X0015919Y0041881D01*
X0015301Y0041758D01*
X0014671Y0041758D01*
X0014053Y0041881D01*
X0013470Y0042122D01*
X0012946Y0042472D01*
X0012500Y0042918D01*
X0012150Y0043442D01*
X0011909Y0044025D01*
X0011786Y0044643D01*
X0011786Y0045273D01*
X0011909Y0045891D01*
X0012150Y0046474D01*
X0012500Y0046998D01*
X0012946Y0047444D01*
X0013470Y0047794D01*
X0014053Y0048035D01*
X0014671Y0048158D01*
X0015301Y0048158D01*
X0015919Y0048035D01*
X0015919Y0048035D01*
G37*
G36*
X0005759Y0048035D02*
X0006342Y0047794D01*
X0006866Y0047444D01*
X0007312Y0046998D01*
X0007662Y0046474D01*
X0007903Y0045891D01*
X0008026Y0045273D01*
X0008026Y0044643D01*
X0007903Y0044025D01*
X0007662Y0043442D01*
X0007312Y0042918D01*
X0006866Y0042472D01*
X0006342Y0042122D01*
X0005759Y0041881D01*
X0005141Y0041758D01*
X0004511Y0041758D01*
X0003893Y0041881D01*
X0003310Y0042122D01*
X0002786Y0042472D01*
X0002340Y0042918D01*
X0001990Y0043442D01*
X0001749Y0044025D01*
X0001626Y0044643D01*
X0001626Y0045273D01*
X0001749Y0045891D01*
X0001990Y0046474D01*
X0002340Y0046998D01*
X0002786Y0047444D01*
X0003310Y0047794D01*
X0003893Y0048035D01*
X0004511Y0048158D01*
X0005141Y0048158D01*
X0005759Y0048035D01*
X0005759Y0048035D01*
G37*
G36*
X0007693Y0050346D02*
X0005769Y0050346D01*
X0005769Y0052270D01*
X0007693Y0052270D01*
X0007693Y0050346D01*
X0007693Y0050346D01*
G37*
G36*
X0015313Y0050346D02*
X0013389Y0050346D01*
X0013389Y0052270D01*
X0015313Y0052270D01*
X0015313Y0050346D01*
X0015313Y0050346D01*
G37*
G36*
X0005153Y0050346D02*
X0003229Y0050346D01*
X0003229Y0052270D01*
X0005153Y0052270D01*
X0005153Y0050346D01*
X0005153Y0050346D01*
G37*
G36*
X0010233Y0050346D02*
X0008309Y0050346D01*
X0008309Y0052270D01*
X0010233Y0052270D01*
X0010233Y0050346D01*
X0010233Y0050346D01*
G37*
G36*
X0012773Y0050346D02*
X0010849Y0050346D01*
X0010849Y0052270D01*
X0012773Y0052270D01*
X0012773Y0050346D01*
X0012773Y0050346D01*
G37*
G36*
X0018976Y0052403D02*
X0016076Y0052403D01*
X0016076Y0055354D01*
X0018976Y0055354D01*
X0018976Y0052403D01*
X0018976Y0052403D01*
G37*
G36*
X0006276Y0053643D02*
X0003376Y0053643D01*
X0003376Y0056593D01*
X0006276Y0056593D01*
X0006276Y0053643D01*
X0006276Y0053643D01*
G37*
G36*
X0010822Y0060093D02*
X0010865Y0060080D01*
X0010904Y0060059D01*
X0010939Y0060031D01*
X0010967Y0059996D01*
X0010988Y0059957D01*
X0011001Y0059914D01*
X0011006Y0059863D01*
X0011006Y0058358D01*
X0011001Y0058307D01*
X0010988Y0058264D01*
X0010967Y0058225D01*
X0010934Y0058185D01*
X0010926Y0058177D01*
X0010913Y0058157D01*
X0010903Y0058134D01*
X0010899Y0058110D01*
X0010899Y0058086D01*
X0010903Y0058062D01*
X0010913Y0058039D01*
X0010926Y0058019D01*
X0010944Y0058001D01*
X0010964Y0057988D01*
X0010987Y0057978D01*
X0011011Y0057974D01*
X0011023Y0057973D01*
X0011606Y0057973D01*
X0011606Y0056073D01*
X0011023Y0056073D01*
X0010999Y0056071D01*
X0010976Y0056063D01*
X0010954Y0056052D01*
X0010935Y0056036D01*
X0010919Y0056017D01*
X0010908Y0055996D01*
X0010901Y0055972D01*
X0010898Y0055948D01*
X0010901Y0055924D01*
X0010908Y0055900D01*
X0010919Y0055879D01*
X0010931Y0055866D01*
X0010931Y0055865D01*
X0010967Y0055821D01*
X0010988Y0055782D01*
X0011001Y0055739D01*
X0011006Y0055689D01*
X0011006Y0054182D01*
X0011001Y0054132D01*
X0010988Y0054089D01*
X0010967Y0054050D01*
X0010939Y0054015D01*
X0010904Y0053987D01*
X0010865Y0053966D01*
X0010822Y0053953D01*
X0010772Y0053948D01*
X0009040Y0053948D01*
X0008990Y0053953D01*
X0008947Y0053966D01*
X0008908Y0053987D01*
X0008873Y0054015D01*
X0008845Y0054050D01*
X0008824Y0054089D01*
X0008811Y0054132D01*
X0008806Y0054182D01*
X0008806Y0055689D01*
X0008811Y0055739D01*
X0008824Y0055782D01*
X0008845Y0055821D01*
X0008878Y0055861D01*
X0008885Y0055869D01*
X0008899Y0055889D01*
X0008908Y0055912D01*
X0008913Y0055936D01*
X0008913Y0055960D01*
X0008908Y0055984D01*
X0008899Y0056007D01*
X0008885Y0056027D01*
X0008868Y0056045D01*
X0008848Y0056058D01*
X0008825Y0056068D01*
X0008789Y0056073D01*
X0008206Y0056073D01*
X0008206Y0057973D01*
X0008789Y0057973D01*
X0008813Y0057975D01*
X0008837Y0057983D01*
X0008858Y0057994D01*
X0008877Y0058010D01*
X0008893Y0058029D01*
X0008905Y0058050D01*
X0008912Y0058074D01*
X0008914Y0058098D01*
X0008912Y0058122D01*
X0008905Y0058146D01*
X0008893Y0058167D01*
X0008877Y0058186D01*
X0008875Y0058189D01*
X0008845Y0058225D01*
X0008824Y0058264D01*
X0008811Y0058307D01*
X0008806Y0058358D01*
X0008806Y0059863D01*
X0008811Y0059914D01*
X0008824Y0059957D01*
X0008845Y0059996D01*
X0008873Y0060031D01*
X0008908Y0060059D01*
X0008947Y0060080D01*
X0008990Y0060093D01*
X0009041Y0060098D01*
X0010771Y0060098D01*
X0010822Y0060093D01*
X0010822Y0060093D01*
G37*
G36*
X0014632Y0060093D02*
X0014675Y0060080D01*
X0014714Y0060059D01*
X0014749Y0060031D01*
X0014777Y0059996D01*
X0014798Y0059957D01*
X0014811Y0059914D01*
X0014816Y0059863D01*
X0014816Y0058358D01*
X0014811Y0058307D01*
X0014798Y0058264D01*
X0014777Y0058225D01*
X0014744Y0058185D01*
X0014736Y0058177D01*
X0014723Y0058157D01*
X0014713Y0058134D01*
X0014709Y0058110D01*
X0014709Y0058086D01*
X0014713Y0058062D01*
X0014723Y0058039D01*
X0014736Y0058019D01*
X0014754Y0058001D01*
X0014774Y0057988D01*
X0014797Y0057978D01*
X0014821Y0057974D01*
X0014833Y0057973D01*
X0015416Y0057973D01*
X0015416Y0056073D01*
X0014833Y0056073D01*
X0014809Y0056071D01*
X0014786Y0056063D01*
X0014764Y0056052D01*
X0014745Y0056036D01*
X0014729Y0056017D01*
X0014718Y0055996D01*
X0014711Y0055972D01*
X0014708Y0055948D01*
X0014711Y0055924D01*
X0014718Y0055900D01*
X0014729Y0055879D01*
X0014741Y0055866D01*
X0014741Y0055865D01*
X0014777Y0055821D01*
X0014798Y0055782D01*
X0014811Y0055739D01*
X0014816Y0055689D01*
X0014816Y0054182D01*
X0014811Y0054132D01*
X0014798Y0054089D01*
X0014777Y0054050D01*
X0014749Y0054015D01*
X0014714Y0053987D01*
X0014675Y0053966D01*
X0014632Y0053953D01*
X0014582Y0053948D01*
X0012850Y0053948D01*
X0012800Y0053953D01*
X0012757Y0053966D01*
X0012718Y0053987D01*
X0012683Y0054015D01*
X0012655Y0054050D01*
X0012634Y0054089D01*
X0012621Y0054132D01*
X0012616Y0054182D01*
X0012616Y0055689D01*
X0012621Y0055739D01*
X0012634Y0055782D01*
X0012655Y0055821D01*
X0012688Y0055861D01*
X0012695Y0055869D01*
X0012709Y0055889D01*
X0012718Y0055912D01*
X0012723Y0055936D01*
X0012723Y0055960D01*
X0012718Y0055984D01*
X0012709Y0056007D01*
X0012695Y0056027D01*
X0012678Y0056045D01*
X0012658Y0056058D01*
X0012635Y0056068D01*
X0012599Y0056073D01*
X0012016Y0056073D01*
X0012016Y0057973D01*
X0012599Y0057973D01*
X0012623Y0057975D01*
X0012647Y0057983D01*
X0012668Y0057994D01*
X0012687Y0058010D01*
X0012703Y0058029D01*
X0012715Y0058050D01*
X0012722Y0058074D01*
X0012724Y0058098D01*
X0012722Y0058122D01*
X0012715Y0058146D01*
X0012703Y0058167D01*
X0012687Y0058186D01*
X0012685Y0058189D01*
X0012655Y0058225D01*
X0012634Y0058264D01*
X0012621Y0058307D01*
X0012616Y0058358D01*
X0012616Y0059863D01*
X0012621Y0059914D01*
X0012634Y0059957D01*
X0012655Y0059996D01*
X0012683Y0060031D01*
X0012718Y0060059D01*
X0012757Y0060080D01*
X0012800Y0060093D01*
X0012851Y0060098D01*
X0014581Y0060098D01*
X0014632Y0060093D01*
X0014632Y0060093D01*
G37*
G36*
X0018976Y0057453D02*
X0016076Y0057453D01*
X0016076Y0060403D01*
X0018976Y0060403D01*
X0018976Y0057453D01*
X0018976Y0057453D01*
G37*
G36*
X0006276Y0058692D02*
X0003376Y0058692D01*
X0003376Y0061643D01*
X0006276Y0061643D01*
X0006276Y0058692D01*
X0006276Y0058692D01*
G37*
G36*
X0012579Y0063855D02*
X0012581Y0063831D01*
X0012588Y0063807D01*
X0012600Y0063786D01*
X0012615Y0063767D01*
X0012634Y0063751D01*
X0012656Y0063739D01*
X0012679Y0063732D01*
X0012704Y0063730D01*
X0012728Y0063732D01*
X0012751Y0063739D01*
X0012773Y0063751D01*
X0012792Y0063767D01*
X0012794Y0063769D01*
X0012831Y0063799D01*
X0012870Y0063820D01*
X0012913Y0063833D01*
X0012963Y0063838D01*
X0014469Y0063838D01*
X0014519Y0063833D01*
X0014562Y0063820D01*
X0014601Y0063799D01*
X0014636Y0063771D01*
X0014664Y0063736D01*
X0014686Y0063697D01*
X0014699Y0063654D01*
X0014704Y0063603D01*
X0014704Y0061873D01*
X0014699Y0061822D01*
X0014686Y0061779D01*
X0014664Y0061740D01*
X0014636Y0061705D01*
X0014601Y0061677D01*
X0014562Y0061656D01*
X0014519Y0061643D01*
X0014469Y0061638D01*
X0012963Y0061638D01*
X0012913Y0061643D01*
X0012870Y0061656D01*
X0012831Y0061677D01*
X0012791Y0061710D01*
X0012783Y0061718D01*
X0012762Y0061731D01*
X0012740Y0061741D01*
X0012716Y0061745D01*
X0012691Y0061745D01*
X0012667Y0061741D01*
X0012645Y0061731D01*
X0012624Y0061718D01*
X0012607Y0061700D01*
X0012593Y0061680D01*
X0012584Y0061657D01*
X0012579Y0061633D01*
X0012579Y0061621D01*
X0012579Y0061038D01*
X0010679Y0061038D01*
X0010679Y0061621D01*
X0010676Y0061645D01*
X0010669Y0061668D01*
X0010657Y0061690D01*
X0010642Y0061709D01*
X0010623Y0061725D01*
X0010601Y0061736D01*
X0010578Y0061743D01*
X0010554Y0061746D01*
X0010529Y0061743D01*
X0010506Y0061736D01*
X0010484Y0061725D01*
X0010471Y0061713D01*
X0010471Y0061713D01*
X0010427Y0061677D01*
X0010387Y0061656D01*
X0010345Y0061643D01*
X0010294Y0061638D01*
X0008788Y0061638D01*
X0008737Y0061643D01*
X0008695Y0061656D01*
X0008655Y0061677D01*
X0008621Y0061705D01*
X0008592Y0061740D01*
X0008571Y0061779D01*
X0008558Y0061822D01*
X0008554Y0061872D01*
X0008554Y0063604D01*
X0008558Y0063654D01*
X0008571Y0063697D01*
X0008592Y0063736D01*
X0008621Y0063771D01*
X0008655Y0063799D01*
X0008695Y0063820D01*
X0008737Y0063833D01*
X0008788Y0063838D01*
X0010294Y0063838D01*
X0010345Y0063833D01*
X0010387Y0063820D01*
X0010427Y0063799D01*
X0010467Y0063766D01*
X0010474Y0063759D01*
X0010495Y0063745D01*
X0010517Y0063736D01*
X0010541Y0063731D01*
X0010566Y0063731D01*
X0010590Y0063736D01*
X0010612Y0063745D01*
X0010633Y0063759D01*
X0010650Y0063776D01*
X0010664Y0063796D01*
X0010673Y0063819D01*
X0010679Y0063855D01*
X0010679Y0064438D01*
X0012579Y0064438D01*
X0012579Y0063855D01*
X0012579Y0063855D01*
G37*
G36*
X0019812Y0061335D02*
X0015580Y0061335D01*
X0015580Y0066275D01*
X0019812Y0066275D01*
X0019980Y0066275D02*
G37*
G36*
X0005107Y0068348D02*
X0005150Y0068335D01*
X0005189Y0068314D01*
X0005224Y0068286D01*
X0005252Y0068251D01*
X0005273Y0068212D01*
X0005286Y0068169D01*
X0005291Y0068118D01*
X0005291Y0066613D01*
X0005286Y0066562D01*
X0005273Y0066519D01*
X0005252Y0066480D01*
X0005219Y0066440D01*
X0005211Y0066432D01*
X0005198Y0066412D01*
X0005188Y0066389D01*
X0005184Y0066365D01*
X0005184Y0066341D01*
X0005188Y0066317D01*
X0005198Y0066294D01*
X0005211Y0066274D01*
X0005229Y0066256D01*
X0005249Y0066243D01*
X0005272Y0066233D01*
X0005296Y0066229D01*
X0005308Y0066228D01*
X0005891Y0066228D01*
X0005891Y0064328D01*
X0005308Y0064328D01*
X0005284Y0064326D01*
X0005261Y0064318D01*
X0005239Y0064307D01*
X0005220Y0064291D01*
X0005204Y0064272D01*
X0005193Y0064251D01*
X0005186Y0064227D01*
X0005183Y0064203D01*
X0005186Y0064179D01*
X0005193Y0064155D01*
X0005204Y0064134D01*
X0005216Y0064121D01*
X0005216Y0064120D01*
X0005252Y0064076D01*
X0005273Y0064037D01*
X0005286Y0063994D01*
X0005291Y0063944D01*
X0005291Y0062437D01*
X0005286Y0062387D01*
X0005273Y0062344D01*
X0005252Y0062305D01*
X0005224Y0062270D01*
X0005189Y0062242D01*
X0005150Y0062221D01*
X0005107Y0062208D01*
X0005057Y0062203D01*
X0003325Y0062203D01*
X0003275Y0062208D01*
X0003232Y0062221D01*
X0003193Y0062242D01*
X0003158Y0062270D01*
X0003130Y0062305D01*
X0003109Y0062344D01*
X0003096Y0062387D01*
X0003091Y0062437D01*
X0003091Y0063944D01*
X0003096Y0063994D01*
X0003109Y0064037D01*
X0003130Y0064076D01*
X0003163Y0064116D01*
X0003170Y0064124D01*
X0003184Y0064144D01*
X0003193Y0064167D01*
X0003198Y0064191D01*
X0003198Y0064215D01*
X0003193Y0064239D01*
X0003184Y0064262D01*
X0003170Y0064282D01*
X0003153Y0064300D01*
X0003133Y0064313D01*
X0003110Y0064323D01*
X0003074Y0064328D01*
X0002491Y0064328D01*
X0002491Y0066228D01*
X0003074Y0066228D01*
X0003098Y0066230D01*
X0003122Y0066238D01*
X0003143Y0066249D01*
X0003162Y0066265D01*
X0003178Y0066284D01*
X0003190Y0066305D01*
X0003197Y0066329D01*
X0003199Y0066353D01*
X0003197Y0066377D01*
X0003190Y0066401D01*
X0003178Y0066422D01*
X0003162Y0066441D01*
X0003160Y0066444D01*
X0003130Y0066480D01*
X0003109Y0066519D01*
X0003096Y0066562D01*
X0003091Y0066613D01*
X0003091Y0068118D01*
X0003096Y0068169D01*
X0003109Y0068212D01*
X0003130Y0068251D01*
X0003158Y0068286D01*
X0003193Y0068314D01*
X0003232Y0068335D01*
X0003275Y0068348D01*
X0003326Y0068353D01*
X0005056Y0068353D01*
X0005107Y0068348D01*
X0005107Y0068348D01*
G37*
G36*
X0014526Y0065098D02*
X0011575Y0065098D01*
X0011575Y0067998D01*
X0014526Y0067998D01*
X0014526Y0065098D01*
X0014526Y0065098D01*
G37*
G36*
X0009476Y0065098D02*
X0006526Y0065098D01*
X0006526Y0067998D01*
X0009476Y0067998D01*
X0009476Y0065098D01*
X0009476Y0065098D01*
G37*
G36*
X0019812Y0066809D02*
X0015580Y0066809D01*
X0015580Y0071749D01*
X0019812Y0071749D01*
X0019980Y0071749D02*
G37*
G36*
X0012651Y0068908D02*
X0009701Y0068908D01*
X0009701Y0071808D01*
X0012651Y0071808D01*
X0012651Y0068908D01*
X0012651Y0068908D01*
G37*
G36*
X0007602Y0068908D02*
X0004651Y0068908D01*
X0004651Y0071808D01*
X0007602Y0071808D01*
X0007602Y0068908D01*
X0007602Y0068908D01*
G37*
G36*
X0005759Y0078515D02*
X0006342Y0078274D01*
X0006866Y0077924D01*
X0007312Y0077478D01*
X0007662Y0076954D01*
X0007903Y0076371D01*
X0008026Y0075753D01*
X0008026Y0075123D01*
X0007903Y0074505D01*
X0007662Y0073922D01*
X0007312Y0073398D01*
X0006866Y0072952D01*
X0006342Y0072602D01*
X0005759Y0072361D01*
X0005141Y0072238D01*
X0004511Y0072238D01*
X0003893Y0072361D01*
X0003310Y0072602D01*
X0002786Y0072952D01*
X0002340Y0073398D01*
X0001990Y0073922D01*
X0001749Y0074505D01*
X0001626Y0075123D01*
X0001626Y0075753D01*
X0001749Y0076371D01*
X0001990Y0076954D01*
X0002340Y0077478D01*
X0002786Y0077924D01*
X0003310Y0078274D01*
X0003893Y0078515D01*
X0004511Y0078638D01*
X0005141Y0078638D01*
X0005759Y0078515D01*
X0005759Y0078515D01*
G37*
G36*
X0015919Y0078515D02*
X0016502Y0078274D01*
X0017026Y0077924D01*
X0017472Y0077478D01*
X0017822Y0076954D01*
X0018063Y0076371D01*
X0018186Y0075753D01*
X0018186Y0075123D01*
X0018063Y0074505D01*
X0017822Y0073922D01*
X0017472Y0073398D01*
X0017026Y0072952D01*
X0016502Y0072602D01*
X0015919Y0072361D01*
X0015301Y0072238D01*
X0014671Y0072238D01*
X0014053Y0072361D01*
X0013470Y0072602D01*
X0012946Y0072952D01*
X0012500Y0073398D01*
X0012150Y0073922D01*
X0011909Y0074505D01*
X0011786Y0075123D01*
X0011786Y0075753D01*
X0011909Y0076371D01*
X0012150Y0076954D01*
X0012500Y0077478D01*
X0012946Y0077924D01*
X0013470Y0078274D01*
X0014053Y0078515D01*
X0014671Y0078638D01*
X0015301Y0078638D01*
X0015919Y0078515D01*
X0015919Y0078515D01*
G37*
X0000000Y0080264D02*
%LPD*%
G01*
D47*
G36*
X0015919Y0088167D02*
X0016502Y0087926D01*
X0017026Y0087576D01*
X0017472Y0087130D01*
X0017822Y0086606D01*
X0018063Y0086023D01*
X0018186Y0085405D01*
X0018186Y0084775D01*
X0018063Y0084157D01*
X0017822Y0083574D01*
X0017472Y0083050D01*
X0017026Y0082604D01*
X0016502Y0082254D01*
X0015919Y0082013D01*
X0015301Y0081890D01*
X0014671Y0081890D01*
X0014053Y0082013D01*
X0013470Y0082254D01*
X0012946Y0082604D01*
X0012500Y0083050D01*
X0012150Y0083574D01*
X0011909Y0084157D01*
X0011786Y0084775D01*
X0011786Y0085405D01*
X0011909Y0086023D01*
X0012150Y0086606D01*
X0012500Y0087130D01*
X0012946Y0087576D01*
X0013470Y0087926D01*
X0014053Y0088167D01*
X0014671Y0088290D01*
X0015301Y0088290D01*
X0015919Y0088167D01*
X0015919Y0088167D01*
G37*
G36*
X0005759Y0088167D02*
X0006342Y0087926D01*
X0006866Y0087576D01*
X0007312Y0087130D01*
X0007662Y0086606D01*
X0007903Y0086023D01*
X0008026Y0085405D01*
X0008026Y0084775D01*
X0007903Y0084157D01*
X0007662Y0083574D01*
X0007312Y0083050D01*
X0006866Y0082604D01*
X0006342Y0082254D01*
X0005759Y0082013D01*
X0005141Y0081890D01*
X0004511Y0081890D01*
X0003893Y0082013D01*
X0003310Y0082254D01*
X0002786Y0082604D01*
X0002340Y0083050D01*
X0001990Y0083574D01*
X0001749Y0084157D01*
X0001626Y0084775D01*
X0001626Y0085405D01*
X0001749Y0086023D01*
X0001990Y0086606D01*
X0002340Y0087130D01*
X0002786Y0087576D01*
X0003310Y0087926D01*
X0003893Y0088167D01*
X0004511Y0088290D01*
X0005141Y0088290D01*
X0005759Y0088167D01*
X0005759Y0088167D01*
G37*
G36*
X0007693Y0090478D02*
X0005769Y0090478D01*
X0005769Y0092402D01*
X0007693Y0092402D01*
X0007693Y0090478D01*
X0007693Y0090478D01*
G37*
G36*
X0015313Y0090478D02*
X0013389Y0090478D01*
X0013389Y0092402D01*
X0015313Y0092402D01*
X0015313Y0090478D01*
X0015313Y0090478D01*
G37*
G36*
X0005153Y0090478D02*
X0003229Y0090478D01*
X0003229Y0092402D01*
X0005153Y0092402D01*
X0005153Y0090478D01*
X0005153Y0090478D01*
G37*
G36*
X0010233Y0090478D02*
X0008309Y0090478D01*
X0008309Y0092402D01*
X0010233Y0092402D01*
X0010233Y0090478D01*
X0010233Y0090478D01*
G37*
G36*
X0012773Y0090478D02*
X0010849Y0090478D01*
X0010849Y0092402D01*
X0012773Y0092402D01*
X0012773Y0090478D01*
X0012773Y0090478D01*
G37*
G36*
X0018976Y0092535D02*
X0016076Y0092535D01*
X0016076Y0095486D01*
X0018976Y0095486D01*
X0018976Y0092535D01*
X0018976Y0092535D01*
G37*
G36*
X0006276Y0093775D02*
X0003376Y0093775D01*
X0003376Y0096725D01*
X0006276Y0096725D01*
X0006276Y0093775D01*
X0006276Y0093775D01*
G37*
G36*
X0010822Y0100225D02*
X0010865Y0100212D01*
X0010904Y0100191D01*
X0010939Y0100163D01*
X0010967Y0100128D01*
X0010988Y0100089D01*
X0011001Y0100046D01*
X0011006Y0099995D01*
X0011006Y0098490D01*
X0011001Y0098439D01*
X0010988Y0098396D01*
X0010967Y0098357D01*
X0010934Y0098317D01*
X0010926Y0098309D01*
X0010913Y0098289D01*
X0010903Y0098266D01*
X0010899Y0098242D01*
X0010899Y0098218D01*
X0010903Y0098194D01*
X0010913Y0098171D01*
X0010926Y0098151D01*
X0010944Y0098133D01*
X0010964Y0098120D01*
X0010987Y0098110D01*
X0011011Y0098106D01*
X0011023Y0098105D01*
X0011606Y0098105D01*
X0011606Y0096205D01*
X0011023Y0096205D01*
X0010999Y0096203D01*
X0010976Y0096195D01*
X0010954Y0096184D01*
X0010935Y0096168D01*
X0010919Y0096149D01*
X0010908Y0096128D01*
X0010901Y0096104D01*
X0010898Y0096080D01*
X0010901Y0096056D01*
X0010908Y0096032D01*
X0010919Y0096011D01*
X0010931Y0095998D01*
X0010931Y0095997D01*
X0010967Y0095953D01*
X0010988Y0095914D01*
X0011001Y0095871D01*
X0011006Y0095821D01*
X0011006Y0094314D01*
X0011001Y0094264D01*
X0010988Y0094221D01*
X0010967Y0094182D01*
X0010939Y0094147D01*
X0010904Y0094119D01*
X0010865Y0094098D01*
X0010822Y0094085D01*
X0010772Y0094080D01*
X0009040Y0094080D01*
X0008990Y0094085D01*
X0008947Y0094098D01*
X0008908Y0094119D01*
X0008873Y0094147D01*
X0008845Y0094182D01*
X0008824Y0094221D01*
X0008811Y0094264D01*
X0008806Y0094314D01*
X0008806Y0095821D01*
X0008811Y0095871D01*
X0008824Y0095914D01*
X0008845Y0095953D01*
X0008878Y0095993D01*
X0008885Y0096001D01*
X0008899Y0096021D01*
X0008908Y0096044D01*
X0008913Y0096068D01*
X0008913Y0096092D01*
X0008908Y0096116D01*
X0008899Y0096139D01*
X0008885Y0096159D01*
X0008868Y0096177D01*
X0008848Y0096190D01*
X0008825Y0096200D01*
X0008789Y0096205D01*
X0008206Y0096205D01*
X0008206Y0098105D01*
X0008789Y0098105D01*
X0008813Y0098107D01*
X0008837Y0098115D01*
X0008858Y0098126D01*
X0008877Y0098142D01*
X0008893Y0098161D01*
X0008905Y0098182D01*
X0008912Y0098206D01*
X0008914Y0098230D01*
X0008912Y0098254D01*
X0008905Y0098278D01*
X0008893Y0098299D01*
X0008877Y0098318D01*
X0008875Y0098321D01*
X0008845Y0098357D01*
X0008824Y0098396D01*
X0008811Y0098439D01*
X0008806Y0098490D01*
X0008806Y0099995D01*
X0008811Y0100046D01*
X0008824Y0100089D01*
X0008845Y0100128D01*
X0008873Y0100163D01*
X0008908Y0100191D01*
X0008947Y0100212D01*
X0008990Y0100225D01*
X0009041Y0100230D01*
X0010771Y0100230D01*
X0010822Y0100225D01*
X0010822Y0100225D01*
G37*
G36*
X0014632Y0100225D02*
X0014675Y0100212D01*
X0014714Y0100191D01*
X0014749Y0100163D01*
X0014777Y0100128D01*
X0014798Y0100089D01*
X0014811Y0100046D01*
X0014816Y0099995D01*
X0014816Y0098490D01*
X0014811Y0098439D01*
X0014798Y0098396D01*
X0014777Y0098357D01*
X0014744Y0098317D01*
X0014736Y0098309D01*
X0014723Y0098289D01*
X0014713Y0098266D01*
X0014709Y0098242D01*
X0014709Y0098218D01*
X0014713Y0098194D01*
X0014723Y0098171D01*
X0014736Y0098151D01*
X0014754Y0098133D01*
X0014774Y0098120D01*
X0014797Y0098110D01*
X0014821Y0098106D01*
X0014833Y0098105D01*
X0015416Y0098105D01*
X0015416Y0096205D01*
X0014833Y0096205D01*
X0014809Y0096203D01*
X0014786Y0096195D01*
X0014764Y0096184D01*
X0014745Y0096168D01*
X0014729Y0096149D01*
X0014718Y0096128D01*
X0014711Y0096104D01*
X0014708Y0096080D01*
X0014711Y0096056D01*
X0014718Y0096032D01*
X0014729Y0096011D01*
X0014741Y0095998D01*
X0014741Y0095997D01*
X0014777Y0095953D01*
X0014798Y0095914D01*
X0014811Y0095871D01*
X0014816Y0095821D01*
X0014816Y0094314D01*
X0014811Y0094264D01*
X0014798Y0094221D01*
X0014777Y0094182D01*
X0014749Y0094147D01*
X0014714Y0094119D01*
X0014675Y0094098D01*
X0014632Y0094085D01*
X0014582Y0094080D01*
X0012850Y0094080D01*
X0012800Y0094085D01*
X0012757Y0094098D01*
X0012718Y0094119D01*
X0012683Y0094147D01*
X0012655Y0094182D01*
X0012634Y0094221D01*
X0012621Y0094264D01*
X0012616Y0094314D01*
X0012616Y0095821D01*
X0012621Y0095871D01*
X0012634Y0095914D01*
X0012655Y0095953D01*
X0012688Y0095993D01*
X0012695Y0096001D01*
X0012709Y0096021D01*
X0012718Y0096044D01*
X0012723Y0096068D01*
X0012723Y0096092D01*
X0012718Y0096116D01*
X0012709Y0096139D01*
X0012695Y0096159D01*
X0012678Y0096177D01*
X0012658Y0096190D01*
X0012635Y0096200D01*
X0012599Y0096205D01*
X0012016Y0096205D01*
X0012016Y0098105D01*
X0012599Y0098105D01*
X0012623Y0098107D01*
X0012647Y0098115D01*
X0012668Y0098126D01*
X0012687Y0098142D01*
X0012703Y0098161D01*
X0012715Y0098182D01*
X0012722Y0098206D01*
X0012724Y0098230D01*
X0012722Y0098254D01*
X0012715Y0098278D01*
X0012703Y0098299D01*
X0012687Y0098318D01*
X0012685Y0098321D01*
X0012655Y0098357D01*
X0012634Y0098396D01*
X0012621Y0098439D01*
X0012616Y0098490D01*
X0012616Y0099995D01*
X0012621Y0100046D01*
X0012634Y0100089D01*
X0012655Y0100128D01*
X0012683Y0100163D01*
X0012718Y0100191D01*
X0012757Y0100212D01*
X0012800Y0100225D01*
X0012851Y0100230D01*
X0014581Y0100230D01*
X0014632Y0100225D01*
X0014632Y0100225D01*
G37*
G36*
X0018976Y0097585D02*
X0016076Y0097585D01*
X0016076Y0100535D01*
X0018976Y0100535D01*
X0018976Y0097585D01*
X0018976Y0097585D01*
G37*
G36*
X0006276Y0098824D02*
X0003376Y0098824D01*
X0003376Y0101775D01*
X0006276Y0101775D01*
X0006276Y0098824D01*
X0006276Y0098824D01*
G37*
G36*
X0012579Y0103987D02*
X0012581Y0103963D01*
X0012588Y0103939D01*
X0012600Y0103918D01*
X0012615Y0103899D01*
X0012634Y0103883D01*
X0012656Y0103871D01*
X0012679Y0103864D01*
X0012704Y0103862D01*
X0012728Y0103864D01*
X0012751Y0103871D01*
X0012773Y0103883D01*
X0012792Y0103899D01*
X0012794Y0103901D01*
X0012831Y0103931D01*
X0012870Y0103952D01*
X0012913Y0103965D01*
X0012963Y0103970D01*
X0014469Y0103970D01*
X0014519Y0103965D01*
X0014562Y0103952D01*
X0014601Y0103931D01*
X0014636Y0103903D01*
X0014664Y0103868D01*
X0014686Y0103829D01*
X0014699Y0103786D01*
X0014704Y0103735D01*
X0014704Y0102005D01*
X0014699Y0101954D01*
X0014686Y0101911D01*
X0014664Y0101872D01*
X0014636Y0101837D01*
X0014601Y0101809D01*
X0014562Y0101788D01*
X0014519Y0101775D01*
X0014469Y0101770D01*
X0012963Y0101770D01*
X0012913Y0101775D01*
X0012870Y0101788D01*
X0012831Y0101809D01*
X0012791Y0101842D01*
X0012783Y0101850D01*
X0012762Y0101863D01*
X0012740Y0101873D01*
X0012716Y0101877D01*
X0012691Y0101877D01*
X0012667Y0101873D01*
X0012645Y0101863D01*
X0012624Y0101850D01*
X0012607Y0101832D01*
X0012593Y0101812D01*
X0012584Y0101789D01*
X0012579Y0101765D01*
X0012579Y0101753D01*
X0012579Y0101170D01*
X0010679Y0101170D01*
X0010679Y0101753D01*
X0010676Y0101777D01*
X0010669Y0101800D01*
X0010657Y0101822D01*
X0010642Y0101841D01*
X0010623Y0101857D01*
X0010601Y0101868D01*
X0010578Y0101875D01*
X0010554Y0101878D01*
X0010529Y0101875D01*
X0010506Y0101868D01*
X0010484Y0101857D01*
X0010471Y0101845D01*
X0010471Y0101845D01*
X0010427Y0101809D01*
X0010387Y0101788D01*
X0010345Y0101775D01*
X0010294Y0101770D01*
X0008788Y0101770D01*
X0008737Y0101775D01*
X0008695Y0101788D01*
X0008655Y0101809D01*
X0008621Y0101837D01*
X0008592Y0101872D01*
X0008571Y0101911D01*
X0008558Y0101954D01*
X0008554Y0102004D01*
X0008554Y0103736D01*
X0008558Y0103786D01*
X0008571Y0103829D01*
X0008592Y0103868D01*
X0008621Y0103903D01*
X0008655Y0103931D01*
X0008695Y0103952D01*
X0008737Y0103965D01*
X0008788Y0103970D01*
X0010294Y0103970D01*
X0010345Y0103965D01*
X0010387Y0103952D01*
X0010427Y0103931D01*
X0010467Y0103898D01*
X0010474Y0103891D01*
X0010495Y0103877D01*
X0010517Y0103868D01*
X0010541Y0103863D01*
X0010566Y0103863D01*
X0010590Y0103868D01*
X0010612Y0103877D01*
X0010633Y0103891D01*
X0010650Y0103908D01*
X0010664Y0103928D01*
X0010673Y0103951D01*
X0010679Y0103987D01*
X0010679Y0104570D01*
X0012579Y0104570D01*
X0012579Y0103987D01*
X0012579Y0103987D01*
G37*
G36*
X0019812Y0101467D02*
X0015580Y0101467D01*
X0015580Y0106407D01*
X0019812Y0106407D01*
X0019980Y0106407D02*
G37*
G36*
X0005107Y0108480D02*
X0005150Y0108467D01*
X0005189Y0108446D01*
X0005224Y0108418D01*
X0005252Y0108383D01*
X0005273Y0108344D01*
X0005286Y0108301D01*
X0005291Y0108250D01*
X0005291Y0106745D01*
X0005286Y0106694D01*
X0005273Y0106651D01*
X0005252Y0106612D01*
X0005219Y0106572D01*
X0005211Y0106564D01*
X0005198Y0106544D01*
X0005188Y0106521D01*
X0005184Y0106497D01*
X0005184Y0106473D01*
X0005188Y0106449D01*
X0005198Y0106426D01*
X0005211Y0106406D01*
X0005229Y0106388D01*
X0005249Y0106375D01*
X0005272Y0106365D01*
X0005296Y0106361D01*
X0005308Y0106360D01*
X0005891Y0106360D01*
X0005891Y0104460D01*
X0005308Y0104460D01*
X0005284Y0104458D01*
X0005261Y0104450D01*
X0005239Y0104439D01*
X0005220Y0104423D01*
X0005204Y0104404D01*
X0005193Y0104383D01*
X0005186Y0104359D01*
X0005183Y0104335D01*
X0005186Y0104311D01*
X0005193Y0104287D01*
X0005204Y0104266D01*
X0005216Y0104253D01*
X0005216Y0104252D01*
X0005252Y0104208D01*
X0005273Y0104169D01*
X0005286Y0104126D01*
X0005291Y0104076D01*
X0005291Y0102569D01*
X0005286Y0102519D01*
X0005273Y0102476D01*
X0005252Y0102437D01*
X0005224Y0102402D01*
X0005189Y0102374D01*
X0005150Y0102353D01*
X0005107Y0102340D01*
X0005057Y0102335D01*
X0003325Y0102335D01*
X0003275Y0102340D01*
X0003232Y0102353D01*
X0003193Y0102374D01*
X0003158Y0102402D01*
X0003130Y0102437D01*
X0003109Y0102476D01*
X0003096Y0102519D01*
X0003091Y0102569D01*
X0003091Y0104076D01*
X0003096Y0104126D01*
X0003109Y0104169D01*
X0003130Y0104208D01*
X0003163Y0104248D01*
X0003170Y0104256D01*
X0003184Y0104276D01*
X0003193Y0104299D01*
X0003198Y0104323D01*
X0003198Y0104347D01*
X0003193Y0104371D01*
X0003184Y0104394D01*
X0003170Y0104414D01*
X0003153Y0104432D01*
X0003133Y0104445D01*
X0003110Y0104455D01*
X0003074Y0104460D01*
X0002491Y0104460D01*
X0002491Y0106360D01*
X0003074Y0106360D01*
X0003098Y0106362D01*
X0003122Y0106370D01*
X0003143Y0106381D01*
X0003162Y0106397D01*
X0003178Y0106416D01*
X0003190Y0106437D01*
X0003197Y0106461D01*
X0003199Y0106485D01*
X0003197Y0106509D01*
X0003190Y0106533D01*
X0003178Y0106554D01*
X0003162Y0106573D01*
X0003160Y0106576D01*
X0003130Y0106612D01*
X0003109Y0106651D01*
X0003096Y0106694D01*
X0003091Y0106745D01*
X0003091Y0108250D01*
X0003096Y0108301D01*
X0003109Y0108344D01*
X0003130Y0108383D01*
X0003158Y0108418D01*
X0003193Y0108446D01*
X0003232Y0108467D01*
X0003275Y0108480D01*
X0003326Y0108485D01*
X0005056Y0108485D01*
X0005107Y0108480D01*
X0005107Y0108480D01*
G37*
G36*
X0014526Y0105230D02*
X0011575Y0105230D01*
X0011575Y0108130D01*
X0014526Y0108130D01*
X0014526Y0105230D01*
X0014526Y0105230D01*
G37*
G36*
X0009476Y0105230D02*
X0006526Y0105230D01*
X0006526Y0108130D01*
X0009476Y0108130D01*
X0009476Y0105230D01*
X0009476Y0105230D01*
G37*
G36*
X0019812Y0106941D02*
X0015580Y0106941D01*
X0015580Y0111881D01*
X0019812Y0111881D01*
X0019980Y0111881D02*
G37*
G36*
X0012651Y0109040D02*
X0009701Y0109040D01*
X0009701Y0111940D01*
X0012651Y0111940D01*
X0012651Y0109040D01*
X0012651Y0109040D01*
G37*
G36*
X0007602Y0109040D02*
X0004651Y0109040D01*
X0004651Y0111940D01*
X0007602Y0111940D01*
X0007602Y0109040D01*
X0007602Y0109040D01*
G37*
G36*
X0005759Y0118647D02*
X0006342Y0118406D01*
X0006866Y0118056D01*
X0007312Y0117610D01*
X0007662Y0117086D01*
X0007903Y0116503D01*
X0008026Y0115885D01*
X0008026Y0115255D01*
X0007903Y0114637D01*
X0007662Y0114054D01*
X0007312Y0113530D01*
X0006866Y0113084D01*
X0006342Y0112734D01*
X0005759Y0112493D01*
X0005141Y0112370D01*
X0004511Y0112370D01*
X0003893Y0112493D01*
X0003310Y0112734D01*
X0002786Y0113084D01*
X0002340Y0113530D01*
X0001990Y0114054D01*
X0001749Y0114637D01*
X0001626Y0115255D01*
X0001626Y0115885D01*
X0001749Y0116503D01*
X0001990Y0117086D01*
X0002340Y0117610D01*
X0002786Y0118056D01*
X0003310Y0118406D01*
X0003893Y0118647D01*
X0004511Y0118770D01*
X0005141Y0118770D01*
X0005759Y0118647D01*
X0005759Y0118647D01*
G37*
G36*
X0015919Y0118647D02*
X0016502Y0118406D01*
X0017026Y0118056D01*
X0017472Y0117610D01*
X0017822Y0117086D01*
X0018063Y0116503D01*
X0018186Y0115885D01*
X0018186Y0115255D01*
X0018063Y0114637D01*
X0017822Y0114054D01*
X0017472Y0113530D01*
X0017026Y0113084D01*
X0016502Y0112734D01*
X0015919Y0112493D01*
X0015301Y0112370D01*
X0014671Y0112370D01*
X0014053Y0112493D01*
X0013470Y0112734D01*
X0012946Y0113084D01*
X0012500Y0113530D01*
X0012150Y0114054D01*
X0011909Y0114637D01*
X0011786Y0115255D01*
X0011786Y0115885D01*
X0011909Y0116503D01*
X0012150Y0117086D01*
X0012500Y0117610D01*
X0012946Y0118056D01*
X0013470Y0118406D01*
X0014053Y0118647D01*
X0014671Y0118770D01*
X0015301Y0118770D01*
X0015919Y0118647D01*
X0015919Y0118647D01*
G37*
X0019812Y0000000D02*
%LPD*%
G01*
D47*
G36*
X0069415Y0001324D02*
X0067491Y0001324D01*
X0067491Y0003248D01*
X0069415Y0003248D01*
X0069415Y0001324D01*
X0069415Y0001324D01*
G37*
G36*
X0066875Y0001324D02*
X0064951Y0001324D01*
X0064951Y0003248D01*
X0066875Y0003248D01*
X0066875Y0001324D01*
X0066875Y0001324D01*
G37*
G36*
X0025571Y0007903D02*
X0026154Y0007662D01*
X0026678Y0007312D01*
X0027124Y0006866D01*
X0027474Y0006342D01*
X0027715Y0005759D01*
X0027838Y0005141D01*
X0027838Y0004511D01*
X0027715Y0003893D01*
X0027474Y0003310D01*
X0027124Y0002786D01*
X0026678Y0002340D01*
X0026154Y0001990D01*
X0025571Y0001749D01*
X0024953Y0001626D01*
X0024323Y0001626D01*
X0023705Y0001749D01*
X0023122Y0001990D01*
X0022598Y0002340D01*
X0022152Y0002786D01*
X0021802Y0003310D01*
X0021561Y0003893D01*
X0021438Y0004511D01*
X0021438Y0005141D01*
X0021561Y0005759D01*
X0021802Y0006342D01*
X0022152Y0006866D01*
X0022598Y0007312D01*
X0023122Y0007662D01*
X0023705Y0007903D01*
X0024323Y0008026D01*
X0024953Y0008026D01*
X0025571Y0007903D01*
X0025571Y0007903D01*
G37*
G36*
X0076371Y0007903D02*
X0076954Y0007662D01*
X0077478Y0007312D01*
X0077924Y0006866D01*
X0078274Y0006342D01*
X0078515Y0005759D01*
X0078638Y0005141D01*
X0078638Y0004511D01*
X0078515Y0003893D01*
X0078274Y0003310D01*
X0077924Y0002786D01*
X0077478Y0002340D01*
X0076954Y0001990D01*
X0076371Y0001749D01*
X0075753Y0001626D01*
X0075123Y0001626D01*
X0074505Y0001749D01*
X0073922Y0001990D01*
X0073398Y0002340D01*
X0072952Y0002786D01*
X0072602Y0003310D01*
X0072361Y0003893D01*
X0072238Y0004511D01*
X0072238Y0005141D01*
X0072361Y0005759D01*
X0072602Y0006342D01*
X0072952Y0006866D01*
X0073398Y0007312D01*
X0073922Y0007662D01*
X0074505Y0007903D01*
X0075123Y0008026D01*
X0075753Y0008026D01*
X0076371Y0007903D01*
X0076371Y0007903D01*
G37*
G36*
X0066875Y0003864D02*
X0064951Y0003864D01*
X0064951Y0005788D01*
X0066875Y0005788D01*
X0066875Y0003864D01*
X0066875Y0003864D01*
G37*
G36*
X0069415Y0003864D02*
X0067491Y0003864D01*
X0067491Y0005788D01*
X0069415Y0005788D01*
X0069415Y0003864D01*
X0069415Y0003864D01*
G37*
G36*
X0062501Y0008125D02*
X0062765Y0008016D01*
X0063002Y0007857D01*
X0063204Y0007655D01*
X0063363Y0007418D01*
X0063472Y0007154D01*
X0063528Y0006874D01*
X0063528Y0006588D01*
X0063472Y0006308D01*
X0063363Y0006044D01*
X0063204Y0005807D01*
X0063002Y0005605D01*
X0062765Y0005446D01*
X0062501Y0005337D01*
X0062221Y0005281D01*
X0061935Y0005281D01*
X0061655Y0005337D01*
X0061391Y0005446D01*
X0061154Y0005605D01*
X0060952Y0005807D01*
X0060793Y0006044D01*
X0060684Y0006308D01*
X0060628Y0006588D01*
X0060628Y0006874D01*
X0060684Y0007154D01*
X0060793Y0007418D01*
X0060952Y0007655D01*
X0061154Y0007857D01*
X0061391Y0008016D01*
X0061655Y0008125D01*
X0061935Y0008181D01*
X0062221Y0008181D01*
X0062501Y0008125D01*
X0062501Y0008125D01*
G37*
G36*
X0031728Y0005381D02*
X0029028Y0005381D01*
X0029028Y0008081D01*
X0031728Y0008081D01*
X0031728Y0005381D01*
X0031728Y0005381D01*
G37*
G36*
X0068780Y0007736D02*
X0067491Y0007736D01*
X0067491Y0009536D01*
X0068780Y0009536D01*
X0068780Y0007736D01*
X0068780Y0007736D01*
G37*
G36*
X0070690Y0007736D02*
X0069391Y0007736D01*
X0069391Y0009536D01*
X0070690Y0009536D01*
X0070690Y0007736D01*
X0070690Y0007736D01*
G37*
G36*
X0066875Y0008944D02*
X0064951Y0008944D01*
X0064951Y0010868D01*
X0066875Y0010868D01*
X0066875Y0008944D01*
X0066875Y0008944D01*
G37*
G36*
X0075071Y0012061D02*
X0075239Y0011991D01*
X0075389Y0011891D01*
X0075518Y0011762D01*
X0075618Y0011612D01*
X0075688Y0011444D01*
X0075723Y0011267D01*
X0075723Y0011085D01*
X0075688Y0010908D01*
X0075618Y0010740D01*
X0075518Y0010590D01*
X0075389Y0010461D01*
X0075239Y0010361D01*
X0075071Y0010291D01*
X0074894Y0010256D01*
X0074712Y0010256D01*
X0074535Y0010291D01*
X0074367Y0010361D01*
X0074217Y0010461D01*
X0074088Y0010590D01*
X0073988Y0010740D01*
X0073918Y0010908D01*
X0073883Y0011085D01*
X0073883Y0011267D01*
X0073918Y0011444D01*
X0073988Y0011612D01*
X0074088Y0011762D01*
X0074217Y0011891D01*
X0074367Y0011991D01*
X0074535Y0012061D01*
X0074712Y0012096D01*
X0074894Y0012096D01*
X0075071Y0012061D01*
X0075071Y0012061D01*
G37*
G36*
X0077611Y0012061D02*
X0077779Y0011991D01*
X0077929Y0011891D01*
X0078058Y0011762D01*
X0078158Y0011612D01*
X0078228Y0011444D01*
X0078263Y0011267D01*
X0078263Y0011085D01*
X0078228Y0010908D01*
X0078158Y0010740D01*
X0078058Y0010590D01*
X0077929Y0010461D01*
X0077779Y0010361D01*
X0077611Y0010291D01*
X0077434Y0010256D01*
X0077252Y0010256D01*
X0077075Y0010291D01*
X0076907Y0010361D01*
X0076757Y0010461D01*
X0076628Y0010590D01*
X0076528Y0010740D01*
X0076458Y0010908D01*
X0076423Y0011085D01*
X0076423Y0011267D01*
X0076458Y0011444D01*
X0076528Y0011612D01*
X0076628Y0011762D01*
X0076757Y0011891D01*
X0076907Y0011991D01*
X0077075Y0012061D01*
X0077252Y0012096D01*
X0077434Y0012096D01*
X0077611Y0012061D01*
X0077611Y0012061D01*
G37*
G36*
X0072531Y0012061D02*
X0072699Y0011991D01*
X0072849Y0011891D01*
X0072978Y0011762D01*
X0073078Y0011612D01*
X0073148Y0011444D01*
X0073183Y0011267D01*
X0073183Y0011085D01*
X0073148Y0010908D01*
X0073078Y0010740D01*
X0072978Y0010590D01*
X0072849Y0010461D01*
X0072699Y0010361D01*
X0072531Y0010291D01*
X0072354Y0010256D01*
X0072172Y0010256D01*
X0071995Y0010291D01*
X0071827Y0010361D01*
X0071677Y0010461D01*
X0071548Y0010590D01*
X0071448Y0010740D01*
X0071378Y0010908D01*
X0071343Y0011085D01*
X0071343Y0011267D01*
X0071378Y0011444D01*
X0071448Y0011612D01*
X0071548Y0011762D01*
X0071677Y0011891D01*
X0071827Y0011991D01*
X0071995Y0012061D01*
X0072172Y0012096D01*
X0072354Y0012096D01*
X0072531Y0012061D01*
X0072531Y0012061D01*
G37*
G36*
X0068780Y0010276D02*
X0067491Y0010276D01*
X0067491Y0012076D01*
X0068780Y0012076D01*
X0068780Y0010276D01*
X0068780Y0010276D01*
G37*
G36*
X0070690Y0010276D02*
X0069391Y0010276D01*
X0069391Y0012076D01*
X0070690Y0012076D01*
X0070690Y0010276D01*
X0070690Y0010276D01*
G37*
G36*
X0066875Y0011484D02*
X0064951Y0011484D01*
X0064951Y0013408D01*
X0066875Y0013408D01*
X0066875Y0011484D01*
X0066875Y0011484D01*
G37*
G36*
X0076088Y0012816D02*
X0074789Y0012816D01*
X0074789Y0014616D01*
X0076088Y0014616D01*
X0076088Y0012816D01*
X0076088Y0012816D01*
G37*
G36*
X0077988Y0012816D02*
X0076699Y0012816D01*
X0076699Y0014616D01*
X0077988Y0014616D01*
X0077988Y0012816D01*
X0077988Y0012816D01*
G37*
G36*
X0071638Y0013451D02*
X0070349Y0013451D01*
X0070349Y0015251D01*
X0071638Y0015251D01*
X0071638Y0013451D01*
X0071638Y0013451D01*
G37*
G36*
X0073548Y0013451D02*
X0072249Y0013451D01*
X0072249Y0015251D01*
X0073548Y0015251D01*
X0073548Y0013451D01*
X0073548Y0013451D01*
G37*
G36*
X0068734Y0021866D02*
X0068777Y0021853D01*
X0068816Y0021832D01*
X0068851Y0021804D01*
X0068879Y0021769D01*
X0068900Y0021730D01*
X0068913Y0021687D01*
X0068918Y0021636D01*
X0068918Y0020131D01*
X0068913Y0020080D01*
X0068900Y0020037D01*
X0068879Y0019998D01*
X0068846Y0019958D01*
X0068838Y0019950D01*
X0068825Y0019930D01*
X0068815Y0019907D01*
X0068811Y0019883D01*
X0068811Y0019859D01*
X0068815Y0019835D01*
X0068825Y0019812D01*
X0068838Y0019792D01*
X0068856Y0019774D01*
X0068876Y0019761D01*
X0068899Y0019751D01*
X0068923Y0019747D01*
X0068935Y0019746D01*
X0069518Y0019746D01*
X0069518Y0017846D01*
X0068935Y0017846D01*
X0068911Y0017844D01*
X0068888Y0017836D01*
X0068866Y0017825D01*
X0068847Y0017809D01*
X0068831Y0017790D01*
X0068820Y0017769D01*
X0068813Y0017745D01*
X0068810Y0017721D01*
X0068813Y0017697D01*
X0068820Y0017673D01*
X0068831Y0017652D01*
X0068843Y0017639D01*
X0068843Y0017638D01*
X0068879Y0017594D01*
X0068900Y0017555D01*
X0068913Y0017512D01*
X0068918Y0017462D01*
X0068918Y0015955D01*
X0068913Y0015905D01*
X0068900Y0015862D01*
X0068879Y0015823D01*
X0068851Y0015788D01*
X0068816Y0015760D01*
X0068777Y0015739D01*
X0068734Y0015726D01*
X0068684Y0015721D01*
X0066952Y0015721D01*
X0066902Y0015726D01*
X0066859Y0015739D01*
X0066820Y0015760D01*
X0066785Y0015788D01*
X0066757Y0015823D01*
X0066736Y0015862D01*
X0066723Y0015905D01*
X0066718Y0015955D01*
X0066718Y0017462D01*
X0066723Y0017512D01*
X0066736Y0017555D01*
X0066757Y0017594D01*
X0066790Y0017634D01*
X0066797Y0017642D01*
X0066811Y0017662D01*
X0066820Y0017685D01*
X0066825Y0017709D01*
X0066825Y0017733D01*
X0066820Y0017757D01*
X0066811Y0017780D01*
X0066797Y0017800D01*
X0066780Y0017818D01*
X0066760Y0017831D01*
X0066737Y0017841D01*
X0066701Y0017846D01*
X0066118Y0017846D01*
X0066118Y0019746D01*
X0066701Y0019746D01*
X0066725Y0019748D01*
X0066749Y0019756D01*
X0066770Y0019767D01*
X0066789Y0019783D01*
X0066805Y0019802D01*
X0066817Y0019823D01*
X0066824Y0019847D01*
X0066826Y0019871D01*
X0066824Y0019895D01*
X0066817Y0019919D01*
X0066805Y0019940D01*
X0066789Y0019959D01*
X0066787Y0019962D01*
X0066757Y0019998D01*
X0066736Y0020037D01*
X0066723Y0020080D01*
X0066718Y0020131D01*
X0066718Y0021636D01*
X0066723Y0021687D01*
X0066736Y0021730D01*
X0066757Y0021769D01*
X0066785Y0021804D01*
X0066820Y0021832D01*
X0066859Y0021853D01*
X0066902Y0021866D01*
X0066953Y0021871D01*
X0068683Y0021871D01*
X0068734Y0021866D01*
X0068734Y0021866D01*
G37*
G36*
X0077611Y0017776D02*
X0077779Y0017706D01*
X0077929Y0017606D01*
X0078058Y0017477D01*
X0078158Y0017327D01*
X0078228Y0017159D01*
X0078263Y0016982D01*
X0078263Y0016800D01*
X0078228Y0016623D01*
X0078158Y0016455D01*
X0078058Y0016305D01*
X0077929Y0016176D01*
X0077779Y0016076D01*
X0077611Y0016006D01*
X0077434Y0015971D01*
X0077252Y0015971D01*
X0077075Y0016006D01*
X0076907Y0016076D01*
X0076757Y0016176D01*
X0076628Y0016305D01*
X0076528Y0016455D01*
X0076458Y0016623D01*
X0076423Y0016800D01*
X0076423Y0016982D01*
X0076458Y0017159D01*
X0076528Y0017327D01*
X0076628Y0017477D01*
X0076757Y0017606D01*
X0076907Y0017706D01*
X0077075Y0017776D01*
X0077252Y0017811D01*
X0077434Y0017811D01*
X0077611Y0017776D01*
X0077611Y0017776D01*
G37*
G36*
X0075071Y0017776D02*
X0075239Y0017706D01*
X0075389Y0017606D01*
X0075518Y0017477D01*
X0075618Y0017327D01*
X0075688Y0017159D01*
X0075723Y0016982D01*
X0075723Y0016800D01*
X0075688Y0016623D01*
X0075618Y0016455D01*
X0075518Y0016305D01*
X0075389Y0016176D01*
X0075239Y0016076D01*
X0075071Y0016006D01*
X0074894Y0015971D01*
X0074712Y0015971D01*
X0074535Y0016006D01*
X0074367Y0016076D01*
X0074217Y0016176D01*
X0074088Y0016305D01*
X0073988Y0016455D01*
X0073918Y0016623D01*
X0073883Y0016800D01*
X0073883Y0016982D01*
X0073918Y0017159D01*
X0073988Y0017327D01*
X0074088Y0017477D01*
X0074217Y0017606D01*
X0074367Y0017706D01*
X0074535Y0017776D01*
X0074712Y0017811D01*
X0074894Y0017811D01*
X0075071Y0017776D01*
X0075071Y0017776D01*
G37*
G36*
X0072531Y0017776D02*
X0072699Y0017706D01*
X0072849Y0017606D01*
X0072978Y0017477D01*
X0073078Y0017327D01*
X0073148Y0017159D01*
X0073183Y0016982D01*
X0073183Y0016800D01*
X0073148Y0016623D01*
X0073078Y0016455D01*
X0072978Y0016305D01*
X0072849Y0016176D01*
X0072699Y0016076D01*
X0072531Y0016006D01*
X0072354Y0015971D01*
X0072172Y0015971D01*
X0071995Y0016006D01*
X0071827Y0016076D01*
X0071677Y0016176D01*
X0071548Y0016305D01*
X0071448Y0016455D01*
X0071378Y0016623D01*
X0071343Y0016800D01*
X0071343Y0016982D01*
X0071378Y0017159D01*
X0071448Y0017327D01*
X0071548Y0017477D01*
X0071677Y0017606D01*
X0071827Y0017706D01*
X0071995Y0017776D01*
X0072172Y0017811D01*
X0072354Y0017811D01*
X0072531Y0017776D01*
X0072531Y0017776D01*
G37*
G36*
X0059743Y0016051D02*
X0056843Y0016051D01*
X0056843Y0019001D01*
X0059743Y0019001D01*
X0059743Y0016051D01*
X0059743Y0016051D01*
G37*
G36*
X0063003Y0018782D02*
X0062916Y0018782D01*
X0062891Y0018779D01*
X0062868Y0018772D01*
X0062846Y0018760D01*
X0062827Y0018745D01*
X0062812Y0018726D01*
X0062800Y0018704D01*
X0062793Y0018681D01*
X0062791Y0018657D01*
X0062793Y0018632D01*
X0062800Y0018609D01*
X0062812Y0018587D01*
X0062827Y0018568D01*
X0062846Y0018553D01*
X0062868Y0018538D01*
X0062868Y0018538D01*
X0063035Y0018371D01*
X0063166Y0018174D01*
X0063257Y0017956D01*
X0063303Y0017724D01*
X0063303Y0017488D01*
X0063257Y0017256D01*
X0063166Y0017038D01*
X0063035Y0016841D01*
X0062868Y0016674D01*
X0062671Y0016543D01*
X0062453Y0016452D01*
X0062221Y0016406D01*
X0061985Y0016406D01*
X0061753Y0016452D01*
X0061535Y0016543D01*
X0061338Y0016674D01*
X0061171Y0016841D01*
X0061040Y0017038D01*
X0060949Y0017256D01*
X0060903Y0017488D01*
X0060903Y0017724D01*
X0060949Y0017956D01*
X0061040Y0018174D01*
X0061171Y0018371D01*
X0061338Y0018538D01*
X0061338Y0018538D01*
X0061360Y0018553D01*
X0061379Y0018568D01*
X0061394Y0018587D01*
X0061406Y0018609D01*
X0061413Y0018632D01*
X0061415Y0018657D01*
X0061413Y0018681D01*
X0061406Y0018704D01*
X0061394Y0018726D01*
X0061379Y0018745D01*
X0061360Y0018760D01*
X0061338Y0018772D01*
X0061315Y0018779D01*
X0061290Y0018782D01*
X0061203Y0018782D01*
X0061203Y0020081D01*
X0063003Y0020081D01*
X0063003Y0018782D01*
X0063003Y0018782D01*
G37*
G36*
X0071893Y0018147D02*
X0070093Y0018147D01*
X0070093Y0019446D01*
X0071893Y0019446D01*
X0071893Y0018147D01*
X0071893Y0018147D01*
G37*
G36*
X0074433Y0018152D02*
X0072633Y0018152D01*
X0072633Y0019441D01*
X0074433Y0019441D01*
X0074433Y0018152D01*
X0074433Y0018152D01*
G37*
G36*
X0065543Y0018464D02*
X0063743Y0018464D01*
X0063743Y0019763D01*
X0065543Y0019763D01*
X0065543Y0018464D01*
X0065543Y0018464D01*
G37*
G36*
X0077988Y0018531D02*
X0076699Y0018531D01*
X0076699Y0020331D01*
X0077988Y0020331D01*
X0077988Y0018531D01*
X0077988Y0018531D01*
G37*
G36*
X0076088Y0018531D02*
X0074789Y0018531D01*
X0074789Y0020331D01*
X0076088Y0020331D01*
X0076088Y0018531D01*
X0076088Y0018531D01*
G37*
G36*
X0022546Y0021460D02*
X0022810Y0021351D01*
X0023047Y0021192D01*
X0023249Y0020990D01*
X0023408Y0020753D01*
X0023517Y0020489D01*
X0023573Y0020209D01*
X0023573Y0019923D01*
X0023517Y0019643D01*
X0023408Y0019379D01*
X0023249Y0019142D01*
X0023047Y0018940D01*
X0022810Y0018781D01*
X0022546Y0018672D01*
X0022266Y0018616D01*
X0021980Y0018616D01*
X0021700Y0018672D01*
X0021436Y0018781D01*
X0021199Y0018940D01*
X0020997Y0019142D01*
X0020838Y0019379D01*
X0020729Y0019643D01*
X0020673Y0019923D01*
X0020673Y0020209D01*
X0020729Y0020489D01*
X0020838Y0020753D01*
X0020997Y0020990D01*
X0021199Y0021192D01*
X0021436Y0021351D01*
X0021700Y0021460D01*
X0021980Y0021516D01*
X0022266Y0021516D01*
X0022546Y0021460D01*
X0022546Y0021460D01*
G37*
G36*
X0055173Y0018716D02*
X0052473Y0018716D01*
X0052473Y0021416D01*
X0055173Y0021416D01*
X0055173Y0018716D01*
X0055173Y0018716D01*
G37*
G36*
X0074433Y0020052D02*
X0072633Y0020052D01*
X0072633Y0021351D01*
X0074433Y0021351D01*
X0074433Y0020052D01*
X0074433Y0020052D01*
G37*
G36*
X0071893Y0020057D02*
X0070093Y0020057D01*
X0070093Y0021346D01*
X0071893Y0021346D01*
X0071893Y0020057D01*
X0071893Y0020057D01*
G37*
G36*
X0065543Y0020374D02*
X0063743Y0020374D01*
X0063743Y0021663D01*
X0065543Y0021663D01*
X0065543Y0020374D01*
X0065543Y0020374D01*
G37*
G36*
X0063303Y0021406D02*
X0063128Y0021406D01*
X0063104Y0021404D01*
X0063080Y0021396D01*
X0063059Y0021385D01*
X0063040Y0021369D01*
X0063024Y0021350D01*
X0063013Y0021329D01*
X0063005Y0021305D01*
X0063003Y0021281D01*
X0063003Y0020692D01*
X0061203Y0020692D01*
X0061203Y0021281D01*
X0061201Y0021305D01*
X0061193Y0021329D01*
X0061182Y0021350D01*
X0061166Y0021369D01*
X0061147Y0021385D01*
X0061126Y0021396D01*
X0061102Y0021404D01*
X0061078Y0021406D01*
X0060903Y0021406D01*
X0060903Y0023806D01*
X0063303Y0023806D01*
X0063303Y0021406D01*
X0063303Y0021406D01*
G37*
G36*
X0059743Y0021100D02*
X0056843Y0021100D01*
X0056843Y0024051D01*
X0059743Y0024051D01*
X0059743Y0021100D01*
X0059743Y0021100D01*
G37*
G36*
X0075071Y0023491D02*
X0075239Y0023421D01*
X0075389Y0023321D01*
X0075518Y0023192D01*
X0075618Y0023042D01*
X0075688Y0022874D01*
X0075723Y0022697D01*
X0075723Y0022515D01*
X0075688Y0022338D01*
X0075618Y0022170D01*
X0075518Y0022020D01*
X0075389Y0021891D01*
X0075239Y0021791D01*
X0075071Y0021721D01*
X0074894Y0021686D01*
X0074712Y0021686D01*
X0074535Y0021721D01*
X0074367Y0021791D01*
X0074217Y0021891D01*
X0074088Y0022020D01*
X0073988Y0022170D01*
X0073918Y0022338D01*
X0073883Y0022515D01*
X0073883Y0022697D01*
X0073918Y0022874D01*
X0073988Y0023042D01*
X0074088Y0023192D01*
X0074217Y0023321D01*
X0074367Y0023421D01*
X0074535Y0023491D01*
X0074712Y0023526D01*
X0074894Y0023526D01*
X0075071Y0023491D01*
X0075071Y0023491D01*
G37*
G36*
X0077611Y0023491D02*
X0077779Y0023421D01*
X0077929Y0023321D01*
X0078058Y0023192D01*
X0078158Y0023042D01*
X0078228Y0022874D01*
X0078263Y0022697D01*
X0078263Y0022515D01*
X0078228Y0022338D01*
X0078158Y0022170D01*
X0078058Y0022020D01*
X0077929Y0021891D01*
X0077779Y0021791D01*
X0077611Y0021721D01*
X0077434Y0021686D01*
X0077252Y0021686D01*
X0077075Y0021721D01*
X0076907Y0021791D01*
X0076757Y0021891D01*
X0076628Y0022020D01*
X0076528Y0022170D01*
X0076458Y0022338D01*
X0076423Y0022515D01*
X0076423Y0022697D01*
X0076458Y0022874D01*
X0076528Y0023042D01*
X0076628Y0023192D01*
X0076757Y0023321D01*
X0076907Y0023421D01*
X0077075Y0023491D01*
X0077252Y0023526D01*
X0077434Y0023526D01*
X0077611Y0023491D01*
X0077611Y0023491D01*
G37*
G36*
X0072531Y0023491D02*
X0072699Y0023421D01*
X0072849Y0023321D01*
X0072978Y0023192D01*
X0073078Y0023042D01*
X0073148Y0022874D01*
X0073183Y0022697D01*
X0073183Y0022515D01*
X0073148Y0022338D01*
X0073078Y0022170D01*
X0072978Y0022020D01*
X0072849Y0021891D01*
X0072699Y0021791D01*
X0072531Y0021721D01*
X0072354Y0021686D01*
X0072172Y0021686D01*
X0071995Y0021721D01*
X0071827Y0021791D01*
X0071677Y0021891D01*
X0071548Y0022020D01*
X0071448Y0022170D01*
X0071378Y0022338D01*
X0071343Y0022515D01*
X0071343Y0022697D01*
X0071378Y0022874D01*
X0071448Y0023042D01*
X0071548Y0023192D01*
X0071677Y0023321D01*
X0071827Y0023421D01*
X0071995Y0023491D01*
X0072172Y0023526D01*
X0072354Y0023526D01*
X0072531Y0023491D01*
X0072531Y0023491D01*
G37*
G36*
X0068780Y0022341D02*
X0067491Y0022341D01*
X0067491Y0024141D01*
X0068780Y0024141D01*
X0068780Y0022341D01*
X0068780Y0022341D01*
G37*
G36*
X0070690Y0022341D02*
X0069391Y0022341D01*
X0069391Y0024141D01*
X0070690Y0024141D01*
X0070690Y0022341D01*
X0070690Y0022341D01*
G37*
G36*
X0076338Y0023862D02*
X0074538Y0023862D01*
X0074538Y0025161D01*
X0076338Y0025161D01*
X0076338Y0023862D01*
X0076338Y0023862D01*
G37*
G36*
X0078878Y0023867D02*
X0077078Y0023867D01*
X0077078Y0025156D01*
X0078878Y0025156D01*
X0078878Y0023867D01*
X0078878Y0023867D01*
G37*
G36*
X0073548Y0024881D02*
X0072249Y0024881D01*
X0072249Y0026681D01*
X0073548Y0026681D01*
X0073548Y0024881D01*
X0073548Y0024881D01*
G37*
G36*
X0071638Y0024881D02*
X0070349Y0024881D01*
X0070349Y0026681D01*
X0071638Y0026681D01*
X0071638Y0024881D01*
X0071638Y0024881D01*
G37*
G36*
X0078878Y0025767D02*
X0077078Y0025767D01*
X0077078Y0027066D01*
X0078878Y0027066D01*
X0078878Y0025767D01*
X0078878Y0025767D01*
G37*
G36*
X0076338Y0025772D02*
X0074538Y0025772D01*
X0074538Y0027061D01*
X0076338Y0027061D01*
X0076338Y0025772D01*
X0076338Y0025772D01*
G37*
G36*
X0027632Y0027232D02*
X0025708Y0027232D01*
X0025708Y0029156D01*
X0027632Y0029156D01*
X0027632Y0027232D01*
X0027632Y0027232D01*
G37*
G36*
X0025092Y0027232D02*
X0023168Y0027232D01*
X0023168Y0029156D01*
X0025092Y0029156D01*
X0025092Y0027232D01*
X0025092Y0027232D01*
G37*
G36*
X0022552Y0027232D02*
X0020628Y0027232D01*
X0020628Y0029156D01*
X0022552Y0029156D01*
X0022552Y0027232D01*
X0022552Y0027232D01*
G37*
G36*
X0072531Y0029206D02*
X0072699Y0029136D01*
X0072849Y0029036D01*
X0072978Y0028907D01*
X0073078Y0028757D01*
X0073148Y0028589D01*
X0073183Y0028412D01*
X0073183Y0028230D01*
X0073148Y0028053D01*
X0073078Y0027885D01*
X0072978Y0027735D01*
X0072849Y0027606D01*
X0072699Y0027506D01*
X0072531Y0027436D01*
X0072354Y0027401D01*
X0072172Y0027401D01*
X0071995Y0027436D01*
X0071827Y0027506D01*
X0071677Y0027606D01*
X0071548Y0027735D01*
X0071448Y0027885D01*
X0071378Y0028053D01*
X0071343Y0028230D01*
X0071343Y0028412D01*
X0071378Y0028589D01*
X0071448Y0028757D01*
X0071548Y0028907D01*
X0071677Y0029036D01*
X0071827Y0029136D01*
X0071995Y0029206D01*
X0072172Y0029241D01*
X0072354Y0029241D01*
X0072531Y0029206D01*
X0072531Y0029206D01*
G37*
G36*
X0075071Y0029206D02*
X0075239Y0029136D01*
X0075389Y0029036D01*
X0075518Y0028907D01*
X0075618Y0028757D01*
X0075688Y0028589D01*
X0075723Y0028412D01*
X0075723Y0028230D01*
X0075688Y0028053D01*
X0075618Y0027885D01*
X0075518Y0027735D01*
X0075389Y0027606D01*
X0075239Y0027506D01*
X0075071Y0027436D01*
X0074894Y0027401D01*
X0074712Y0027401D01*
X0074535Y0027436D01*
X0074367Y0027506D01*
X0074217Y0027606D01*
X0074088Y0027735D01*
X0073988Y0027885D01*
X0073918Y0028053D01*
X0073883Y0028230D01*
X0073883Y0028412D01*
X0073918Y0028589D01*
X0073988Y0028757D01*
X0074088Y0028907D01*
X0074217Y0029036D01*
X0074367Y0029136D01*
X0074535Y0029206D01*
X0074712Y0029241D01*
X0074894Y0029241D01*
X0075071Y0029206D01*
X0075071Y0029206D01*
G37*
G36*
X0077611Y0029206D02*
X0077779Y0029136D01*
X0077929Y0029036D01*
X0078058Y0028907D01*
X0078158Y0028757D01*
X0078228Y0028589D01*
X0078263Y0028412D01*
X0078263Y0028230D01*
X0078228Y0028053D01*
X0078158Y0027885D01*
X0078058Y0027735D01*
X0077929Y0027606D01*
X0077779Y0027506D01*
X0077611Y0027436D01*
X0077434Y0027401D01*
X0077252Y0027401D01*
X0077075Y0027436D01*
X0076907Y0027506D01*
X0076757Y0027606D01*
X0076628Y0027735D01*
X0076528Y0027885D01*
X0076458Y0028053D01*
X0076423Y0028230D01*
X0076423Y0028412D01*
X0076458Y0028589D01*
X0076528Y0028757D01*
X0076628Y0028907D01*
X0076757Y0029036D01*
X0076907Y0029136D01*
X0077075Y0029206D01*
X0077252Y0029241D01*
X0077434Y0029241D01*
X0077611Y0029206D01*
X0077611Y0029206D01*
G37*
G36*
X0069098Y0027421D02*
X0067809Y0027421D01*
X0067809Y0029221D01*
X0069098Y0029221D01*
X0069098Y0027421D01*
X0069098Y0027421D01*
G37*
G36*
X0071008Y0027421D02*
X0069709Y0027421D01*
X0069709Y0029221D01*
X0071008Y0029221D01*
X0071008Y0027421D01*
X0071008Y0027421D01*
G37*
G36*
X0022552Y0029772D02*
X0020628Y0029772D01*
X0020628Y0031696D01*
X0022552Y0031696D01*
X0022552Y0029772D01*
X0022552Y0029772D01*
G37*
G36*
X0025092Y0029772D02*
X0023168Y0029772D01*
X0023168Y0031696D01*
X0025092Y0031696D01*
X0025092Y0029772D01*
X0025092Y0029772D01*
G37*
G36*
X0027632Y0029772D02*
X0025708Y0029772D01*
X0025708Y0031696D01*
X0027632Y0031696D01*
X0027632Y0029772D01*
X0027632Y0029772D01*
G37*
G36*
X0066875Y0031804D02*
X0064951Y0031804D01*
X0064951Y0033728D01*
X0066875Y0033728D01*
X0066875Y0031804D01*
X0066875Y0031804D01*
G37*
G36*
X0069415Y0031804D02*
X0067491Y0031804D01*
X0067491Y0033728D01*
X0069415Y0033728D01*
X0069415Y0031804D01*
X0069415Y0031804D01*
G37*
G36*
X0030801Y0034795D02*
X0031065Y0034686D01*
X0031302Y0034527D01*
X0031504Y0034325D01*
X0031663Y0034088D01*
X0031772Y0033824D01*
X0031828Y0033544D01*
X0031828Y0033258D01*
X0031772Y0032978D01*
X0031663Y0032714D01*
X0031504Y0032477D01*
X0031302Y0032275D01*
X0031065Y0032116D01*
X0030801Y0032007D01*
X0030521Y0031951D01*
X0030235Y0031951D01*
X0029955Y0032007D01*
X0029691Y0032116D01*
X0029454Y0032275D01*
X0029252Y0032477D01*
X0029093Y0032714D01*
X0028984Y0032978D01*
X0028928Y0033258D01*
X0028928Y0033544D01*
X0028984Y0033824D01*
X0029093Y0034088D01*
X0029252Y0034325D01*
X0029454Y0034527D01*
X0029691Y0034686D01*
X0029955Y0034795D01*
X0030235Y0034851D01*
X0030521Y0034851D01*
X0030801Y0034795D01*
X0030801Y0034795D01*
G37*
G36*
X0063428Y0032051D02*
X0060728Y0032051D01*
X0060728Y0034751D01*
X0063428Y0034751D01*
X0063428Y0032051D01*
X0063428Y0032051D01*
G37*
G36*
X0076371Y0038383D02*
X0076954Y0038142D01*
X0077478Y0037792D01*
X0077924Y0037346D01*
X0078274Y0036822D01*
X0078515Y0036239D01*
X0078638Y0035621D01*
X0078638Y0034991D01*
X0078515Y0034373D01*
X0078274Y0033790D01*
X0077924Y0033266D01*
X0077478Y0032820D01*
X0076954Y0032470D01*
X0076371Y0032229D01*
X0075753Y0032106D01*
X0075123Y0032106D01*
X0074505Y0032229D01*
X0073922Y0032470D01*
X0073398Y0032820D01*
X0072952Y0033266D01*
X0072602Y0033790D01*
X0072361Y0034373D01*
X0072238Y0034991D01*
X0072238Y0035621D01*
X0072361Y0036239D01*
X0072602Y0036822D01*
X0072952Y0037346D01*
X0073398Y0037792D01*
X0073922Y0038142D01*
X0074505Y0038383D01*
X0075123Y0038506D01*
X0075753Y0038506D01*
X0076371Y0038383D01*
X0076371Y0038383D01*
G37*
G36*
X0025571Y0038383D02*
X0026154Y0038142D01*
X0026678Y0037792D01*
X0027124Y0037346D01*
X0027474Y0036822D01*
X0027715Y0036239D01*
X0027838Y0035621D01*
X0027838Y0034991D01*
X0027715Y0034373D01*
X0027474Y0033790D01*
X0027124Y0033266D01*
X0026678Y0032820D01*
X0026154Y0032470D01*
X0025571Y0032229D01*
X0024953Y0032106D01*
X0024323Y0032106D01*
X0023705Y0032229D01*
X0023122Y0032470D01*
X0022598Y0032820D01*
X0022152Y0033266D01*
X0021802Y0033790D01*
X0021561Y0034373D01*
X0021438Y0034991D01*
X0021438Y0035621D01*
X0021561Y0036239D01*
X0021802Y0036822D01*
X0022152Y0037346D01*
X0022598Y0037792D01*
X0023122Y0038142D01*
X0023705Y0038383D01*
X0024323Y0038506D01*
X0024953Y0038506D01*
X0025571Y0038383D01*
X0025571Y0038383D01*
G37*
G36*
X0069415Y0034344D02*
X0067491Y0034344D01*
X0067491Y0036268D01*
X0069415Y0036268D01*
X0069415Y0034344D01*
X0069415Y0034344D01*
G37*
G36*
X0066875Y0034344D02*
X0064951Y0034344D01*
X0064951Y0036268D01*
X0066875Y0036268D01*
X0066875Y0034344D01*
X0066875Y0034344D01*
G37*
G36*
X0069415Y0036884D02*
X0067491Y0036884D01*
X0067491Y0038808D01*
X0069415Y0038808D01*
X0069415Y0036884D01*
X0069415Y0036884D01*
G37*
G36*
X0066875Y0036884D02*
X0064951Y0036884D01*
X0064951Y0038808D01*
X0066875Y0038808D01*
X0066875Y0036884D01*
X0066875Y0036884D01*
G37*
X0019812Y0040132D02*
%LPD*%
G01*
D47*
G36*
X0069415Y0041456D02*
X0067491Y0041456D01*
X0067491Y0043380D01*
X0069415Y0043380D01*
X0069415Y0041456D01*
X0069415Y0041456D01*
G37*
G36*
X0066875Y0041456D02*
X0064951Y0041456D01*
X0064951Y0043380D01*
X0066875Y0043380D01*
X0066875Y0041456D01*
X0066875Y0041456D01*
G37*
G36*
X0025571Y0048035D02*
X0026154Y0047794D01*
X0026678Y0047444D01*
X0027124Y0046998D01*
X0027474Y0046474D01*
X0027715Y0045891D01*
X0027838Y0045273D01*
X0027838Y0044643D01*
X0027715Y0044025D01*
X0027474Y0043442D01*
X0027124Y0042918D01*
X0026678Y0042472D01*
X0026154Y0042122D01*
X0025571Y0041881D01*
X0024953Y0041758D01*
X0024323Y0041758D01*
X0023705Y0041881D01*
X0023122Y0042122D01*
X0022598Y0042472D01*
X0022152Y0042918D01*
X0021802Y0043442D01*
X0021561Y0044025D01*
X0021438Y0044643D01*
X0021438Y0045273D01*
X0021561Y0045891D01*
X0021802Y0046474D01*
X0022152Y0046998D01*
X0022598Y0047444D01*
X0023122Y0047794D01*
X0023705Y0048035D01*
X0024323Y0048158D01*
X0024953Y0048158D01*
X0025571Y0048035D01*
X0025571Y0048035D01*
G37*
G36*
X0076371Y0048035D02*
X0076954Y0047794D01*
X0077478Y0047444D01*
X0077924Y0046998D01*
X0078274Y0046474D01*
X0078515Y0045891D01*
X0078638Y0045273D01*
X0078638Y0044643D01*
X0078515Y0044025D01*
X0078274Y0043442D01*
X0077924Y0042918D01*
X0077478Y0042472D01*
X0076954Y0042122D01*
X0076371Y0041881D01*
X0075753Y0041758D01*
X0075123Y0041758D01*
X0074505Y0041881D01*
X0073922Y0042122D01*
X0073398Y0042472D01*
X0072952Y0042918D01*
X0072602Y0043442D01*
X0072361Y0044025D01*
X0072238Y0044643D01*
X0072238Y0045273D01*
X0072361Y0045891D01*
X0072602Y0046474D01*
X0072952Y0046998D01*
X0073398Y0047444D01*
X0073922Y0047794D01*
X0074505Y0048035D01*
X0075123Y0048158D01*
X0075753Y0048158D01*
X0076371Y0048035D01*
X0076371Y0048035D01*
G37*
G36*
X0066875Y0043996D02*
X0064951Y0043996D01*
X0064951Y0045920D01*
X0066875Y0045920D01*
X0066875Y0043996D01*
X0066875Y0043996D01*
G37*
G36*
X0069415Y0043996D02*
X0067491Y0043996D01*
X0067491Y0045920D01*
X0069415Y0045920D01*
X0069415Y0043996D01*
X0069415Y0043996D01*
G37*
G36*
X0062501Y0048257D02*
X0062765Y0048148D01*
X0063002Y0047989D01*
X0063204Y0047787D01*
X0063363Y0047550D01*
X0063472Y0047286D01*
X0063528Y0047006D01*
X0063528Y0046720D01*
X0063472Y0046440D01*
X0063363Y0046176D01*
X0063204Y0045939D01*
X0063002Y0045737D01*
X0062765Y0045578D01*
X0062501Y0045469D01*
X0062221Y0045413D01*
X0061935Y0045413D01*
X0061655Y0045469D01*
X0061391Y0045578D01*
X0061154Y0045737D01*
X0060952Y0045939D01*
X0060793Y0046176D01*
X0060684Y0046440D01*
X0060628Y0046720D01*
X0060628Y0047006D01*
X0060684Y0047286D01*
X0060793Y0047550D01*
X0060952Y0047787D01*
X0061154Y0047989D01*
X0061391Y0048148D01*
X0061655Y0048257D01*
X0061935Y0048313D01*
X0062221Y0048313D01*
X0062501Y0048257D01*
X0062501Y0048257D01*
G37*
G36*
X0031728Y0045513D02*
X0029028Y0045513D01*
X0029028Y0048213D01*
X0031728Y0048213D01*
X0031728Y0045513D01*
X0031728Y0045513D01*
G37*
G36*
X0068780Y0047868D02*
X0067491Y0047868D01*
X0067491Y0049668D01*
X0068780Y0049668D01*
X0068780Y0047868D01*
X0068780Y0047868D01*
G37*
G36*
X0070690Y0047868D02*
X0069391Y0047868D01*
X0069391Y0049668D01*
X0070690Y0049668D01*
X0070690Y0047868D01*
X0070690Y0047868D01*
G37*
G36*
X0066875Y0049076D02*
X0064951Y0049076D01*
X0064951Y0051000D01*
X0066875Y0051000D01*
X0066875Y0049076D01*
X0066875Y0049076D01*
G37*
G36*
X0075071Y0052193D02*
X0075239Y0052123D01*
X0075389Y0052023D01*
X0075518Y0051894D01*
X0075618Y0051744D01*
X0075688Y0051576D01*
X0075723Y0051399D01*
X0075723Y0051217D01*
X0075688Y0051040D01*
X0075618Y0050872D01*
X0075518Y0050722D01*
X0075389Y0050593D01*
X0075239Y0050493D01*
X0075071Y0050423D01*
X0074894Y0050388D01*
X0074712Y0050388D01*
X0074535Y0050423D01*
X0074367Y0050493D01*
X0074217Y0050593D01*
X0074088Y0050722D01*
X0073988Y0050872D01*
X0073918Y0051040D01*
X0073883Y0051217D01*
X0073883Y0051399D01*
X0073918Y0051576D01*
X0073988Y0051744D01*
X0074088Y0051894D01*
X0074217Y0052023D01*
X0074367Y0052123D01*
X0074535Y0052193D01*
X0074712Y0052228D01*
X0074894Y0052228D01*
X0075071Y0052193D01*
X0075071Y0052193D01*
G37*
G36*
X0077611Y0052193D02*
X0077779Y0052123D01*
X0077929Y0052023D01*
X0078058Y0051894D01*
X0078158Y0051744D01*
X0078228Y0051576D01*
X0078263Y0051399D01*
X0078263Y0051217D01*
X0078228Y0051040D01*
X0078158Y0050872D01*
X0078058Y0050722D01*
X0077929Y0050593D01*
X0077779Y0050493D01*
X0077611Y0050423D01*
X0077434Y0050388D01*
X0077252Y0050388D01*
X0077075Y0050423D01*
X0076907Y0050493D01*
X0076757Y0050593D01*
X0076628Y0050722D01*
X0076528Y0050872D01*
X0076458Y0051040D01*
X0076423Y0051217D01*
X0076423Y0051399D01*
X0076458Y0051576D01*
X0076528Y0051744D01*
X0076628Y0051894D01*
X0076757Y0052023D01*
X0076907Y0052123D01*
X0077075Y0052193D01*
X0077252Y0052228D01*
X0077434Y0052228D01*
X0077611Y0052193D01*
X0077611Y0052193D01*
G37*
G36*
X0072531Y0052193D02*
X0072699Y0052123D01*
X0072849Y0052023D01*
X0072978Y0051894D01*
X0073078Y0051744D01*
X0073148Y0051576D01*
X0073183Y0051399D01*
X0073183Y0051217D01*
X0073148Y0051040D01*
X0073078Y0050872D01*
X0072978Y0050722D01*
X0072849Y0050593D01*
X0072699Y0050493D01*
X0072531Y0050423D01*
X0072354Y0050388D01*
X0072172Y0050388D01*
X0071995Y0050423D01*
X0071827Y0050493D01*
X0071677Y0050593D01*
X0071548Y0050722D01*
X0071448Y0050872D01*
X0071378Y0051040D01*
X0071343Y0051217D01*
X0071343Y0051399D01*
X0071378Y0051576D01*
X0071448Y0051744D01*
X0071548Y0051894D01*
X0071677Y0052023D01*
X0071827Y0052123D01*
X0071995Y0052193D01*
X0072172Y0052228D01*
X0072354Y0052228D01*
X0072531Y0052193D01*
X0072531Y0052193D01*
G37*
G36*
X0068780Y0050408D02*
X0067491Y0050408D01*
X0067491Y0052208D01*
X0068780Y0052208D01*
X0068780Y0050408D01*
X0068780Y0050408D01*
G37*
G36*
X0070690Y0050408D02*
X0069391Y0050408D01*
X0069391Y0052208D01*
X0070690Y0052208D01*
X0070690Y0050408D01*
X0070690Y0050408D01*
G37*
G36*
X0066875Y0051616D02*
X0064951Y0051616D01*
X0064951Y0053540D01*
X0066875Y0053540D01*
X0066875Y0051616D01*
X0066875Y0051616D01*
G37*
G36*
X0076088Y0052948D02*
X0074789Y0052948D01*
X0074789Y0054748D01*
X0076088Y0054748D01*
X0076088Y0052948D01*
X0076088Y0052948D01*
G37*
G36*
X0077988Y0052948D02*
X0076699Y0052948D01*
X0076699Y0054748D01*
X0077988Y0054748D01*
X0077988Y0052948D01*
X0077988Y0052948D01*
G37*
G36*
X0071638Y0053583D02*
X0070349Y0053583D01*
X0070349Y0055383D01*
X0071638Y0055383D01*
X0071638Y0053583D01*
X0071638Y0053583D01*
G37*
G36*
X0073548Y0053583D02*
X0072249Y0053583D01*
X0072249Y0055383D01*
X0073548Y0055383D01*
X0073548Y0053583D01*
X0073548Y0053583D01*
G37*
G36*
X0068734Y0061998D02*
X0068777Y0061985D01*
X0068816Y0061964D01*
X0068851Y0061936D01*
X0068879Y0061901D01*
X0068900Y0061862D01*
X0068913Y0061819D01*
X0068918Y0061768D01*
X0068918Y0060263D01*
X0068913Y0060212D01*
X0068900Y0060169D01*
X0068879Y0060130D01*
X0068846Y0060090D01*
X0068838Y0060082D01*
X0068825Y0060062D01*
X0068815Y0060039D01*
X0068811Y0060015D01*
X0068811Y0059991D01*
X0068815Y0059967D01*
X0068825Y0059944D01*
X0068838Y0059924D01*
X0068856Y0059906D01*
X0068876Y0059893D01*
X0068899Y0059883D01*
X0068923Y0059879D01*
X0068935Y0059878D01*
X0069518Y0059878D01*
X0069518Y0057978D01*
X0068935Y0057978D01*
X0068911Y0057976D01*
X0068888Y0057968D01*
X0068866Y0057957D01*
X0068847Y0057941D01*
X0068831Y0057922D01*
X0068820Y0057901D01*
X0068813Y0057877D01*
X0068810Y0057853D01*
X0068813Y0057829D01*
X0068820Y0057805D01*
X0068831Y0057784D01*
X0068843Y0057771D01*
X0068843Y0057770D01*
X0068879Y0057726D01*
X0068900Y0057687D01*
X0068913Y0057644D01*
X0068918Y0057594D01*
X0068918Y0056087D01*
X0068913Y0056037D01*
X0068900Y0055994D01*
X0068879Y0055955D01*
X0068851Y0055920D01*
X0068816Y0055892D01*
X0068777Y0055871D01*
X0068734Y0055858D01*
X0068684Y0055853D01*
X0066952Y0055853D01*
X0066902Y0055858D01*
X0066859Y0055871D01*
X0066820Y0055892D01*
X0066785Y0055920D01*
X0066757Y0055955D01*
X0066736Y0055994D01*
X0066723Y0056037D01*
X0066718Y0056087D01*
X0066718Y0057594D01*
X0066723Y0057644D01*
X0066736Y0057687D01*
X0066757Y0057726D01*
X0066790Y0057766D01*
X0066797Y0057774D01*
X0066811Y0057794D01*
X0066820Y0057817D01*
X0066825Y0057841D01*
X0066825Y0057865D01*
X0066820Y0057889D01*
X0066811Y0057912D01*
X0066797Y0057932D01*
X0066780Y0057950D01*
X0066760Y0057963D01*
X0066737Y0057973D01*
X0066701Y0057978D01*
X0066118Y0057978D01*
X0066118Y0059878D01*
X0066701Y0059878D01*
X0066725Y0059880D01*
X0066749Y0059888D01*
X0066770Y0059899D01*
X0066789Y0059915D01*
X0066805Y0059934D01*
X0066817Y0059955D01*
X0066824Y0059979D01*
X0066826Y0060003D01*
X0066824Y0060027D01*
X0066817Y0060051D01*
X0066805Y0060072D01*
X0066789Y0060091D01*
X0066787Y0060094D01*
X0066757Y0060130D01*
X0066736Y0060169D01*
X0066723Y0060212D01*
X0066718Y0060263D01*
X0066718Y0061768D01*
X0066723Y0061819D01*
X0066736Y0061862D01*
X0066757Y0061901D01*
X0066785Y0061936D01*
X0066820Y0061964D01*
X0066859Y0061985D01*
X0066902Y0061998D01*
X0066953Y0062003D01*
X0068683Y0062003D01*
X0068734Y0061998D01*
X0068734Y0061998D01*
G37*
G36*
X0077611Y0057908D02*
X0077779Y0057838D01*
X0077929Y0057738D01*
X0078058Y0057609D01*
X0078158Y0057459D01*
X0078228Y0057291D01*
X0078263Y0057114D01*
X0078263Y0056932D01*
X0078228Y0056755D01*
X0078158Y0056587D01*
X0078058Y0056437D01*
X0077929Y0056308D01*
X0077779Y0056208D01*
X0077611Y0056138D01*
X0077434Y0056103D01*
X0077252Y0056103D01*
X0077075Y0056138D01*
X0076907Y0056208D01*
X0076757Y0056308D01*
X0076628Y0056437D01*
X0076528Y0056587D01*
X0076458Y0056755D01*
X0076423Y0056932D01*
X0076423Y0057114D01*
X0076458Y0057291D01*
X0076528Y0057459D01*
X0076628Y0057609D01*
X0076757Y0057738D01*
X0076907Y0057838D01*
X0077075Y0057908D01*
X0077252Y0057943D01*
X0077434Y0057943D01*
X0077611Y0057908D01*
X0077611Y0057908D01*
G37*
G36*
X0075071Y0057908D02*
X0075239Y0057838D01*
X0075389Y0057738D01*
X0075518Y0057609D01*
X0075618Y0057459D01*
X0075688Y0057291D01*
X0075723Y0057114D01*
X0075723Y0056932D01*
X0075688Y0056755D01*
X0075618Y0056587D01*
X0075518Y0056437D01*
X0075389Y0056308D01*
X0075239Y0056208D01*
X0075071Y0056138D01*
X0074894Y0056103D01*
X0074712Y0056103D01*
X0074535Y0056138D01*
X0074367Y0056208D01*
X0074217Y0056308D01*
X0074088Y0056437D01*
X0073988Y0056587D01*
X0073918Y0056755D01*
X0073883Y0056932D01*
X0073883Y0057114D01*
X0073918Y0057291D01*
X0073988Y0057459D01*
X0074088Y0057609D01*
X0074217Y0057738D01*
X0074367Y0057838D01*
X0074535Y0057908D01*
X0074712Y0057943D01*
X0074894Y0057943D01*
X0075071Y0057908D01*
X0075071Y0057908D01*
G37*
G36*
X0072531Y0057908D02*
X0072699Y0057838D01*
X0072849Y0057738D01*
X0072978Y0057609D01*
X0073078Y0057459D01*
X0073148Y0057291D01*
X0073183Y0057114D01*
X0073183Y0056932D01*
X0073148Y0056755D01*
X0073078Y0056587D01*
X0072978Y0056437D01*
X0072849Y0056308D01*
X0072699Y0056208D01*
X0072531Y0056138D01*
X0072354Y0056103D01*
X0072172Y0056103D01*
X0071995Y0056138D01*
X0071827Y0056208D01*
X0071677Y0056308D01*
X0071548Y0056437D01*
X0071448Y0056587D01*
X0071378Y0056755D01*
X0071343Y0056932D01*
X0071343Y0057114D01*
X0071378Y0057291D01*
X0071448Y0057459D01*
X0071548Y0057609D01*
X0071677Y0057738D01*
X0071827Y0057838D01*
X0071995Y0057908D01*
X0072172Y0057943D01*
X0072354Y0057943D01*
X0072531Y0057908D01*
X0072531Y0057908D01*
G37*
G36*
X0059743Y0056183D02*
X0056843Y0056183D01*
X0056843Y0059133D01*
X0059743Y0059133D01*
X0059743Y0056183D01*
X0059743Y0056183D01*
G37*
G36*
X0063003Y0058914D02*
X0062916Y0058914D01*
X0062891Y0058911D01*
X0062868Y0058904D01*
X0062846Y0058892D01*
X0062827Y0058877D01*
X0062812Y0058858D01*
X0062800Y0058836D01*
X0062793Y0058813D01*
X0062791Y0058789D01*
X0062793Y0058764D01*
X0062800Y0058741D01*
X0062812Y0058719D01*
X0062827Y0058700D01*
X0062846Y0058685D01*
X0062868Y0058670D01*
X0062868Y0058670D01*
X0063035Y0058503D01*
X0063166Y0058306D01*
X0063257Y0058088D01*
X0063303Y0057856D01*
X0063303Y0057620D01*
X0063257Y0057388D01*
X0063166Y0057170D01*
X0063035Y0056973D01*
X0062868Y0056806D01*
X0062671Y0056675D01*
X0062453Y0056584D01*
X0062221Y0056538D01*
X0061985Y0056538D01*
X0061753Y0056584D01*
X0061535Y0056675D01*
X0061338Y0056806D01*
X0061171Y0056973D01*
X0061040Y0057170D01*
X0060949Y0057388D01*
X0060903Y0057620D01*
X0060903Y0057856D01*
X0060949Y0058088D01*
X0061040Y0058306D01*
X0061171Y0058503D01*
X0061338Y0058670D01*
X0061338Y0058670D01*
X0061360Y0058685D01*
X0061379Y0058700D01*
X0061394Y0058719D01*
X0061406Y0058741D01*
X0061413Y0058764D01*
X0061415Y0058789D01*
X0061413Y0058813D01*
X0061406Y0058836D01*
X0061394Y0058858D01*
X0061379Y0058877D01*
X0061360Y0058892D01*
X0061338Y0058904D01*
X0061315Y0058911D01*
X0061290Y0058914D01*
X0061203Y0058914D01*
X0061203Y0060213D01*
X0063003Y0060213D01*
X0063003Y0058914D01*
X0063003Y0058914D01*
G37*
G36*
X0071893Y0058279D02*
X0070093Y0058279D01*
X0070093Y0059578D01*
X0071893Y0059578D01*
X0071893Y0058279D01*
X0071893Y0058279D01*
G37*
G36*
X0074433Y0058284D02*
X0072633Y0058284D01*
X0072633Y0059573D01*
X0074433Y0059573D01*
X0074433Y0058284D01*
X0074433Y0058284D01*
G37*
G36*
X0065543Y0058596D02*
X0063743Y0058596D01*
X0063743Y0059895D01*
X0065543Y0059895D01*
X0065543Y0058596D01*
X0065543Y0058596D01*
G37*
G36*
X0077988Y0058663D02*
X0076699Y0058663D01*
X0076699Y0060463D01*
X0077988Y0060463D01*
X0077988Y0058663D01*
X0077988Y0058663D01*
G37*
G36*
X0076088Y0058663D02*
X0074789Y0058663D01*
X0074789Y0060463D01*
X0076088Y0060463D01*
X0076088Y0058663D01*
X0076088Y0058663D01*
G37*
G36*
X0022546Y0061592D02*
X0022810Y0061483D01*
X0023047Y0061324D01*
X0023249Y0061122D01*
X0023408Y0060885D01*
X0023517Y0060621D01*
X0023573Y0060341D01*
X0023573Y0060055D01*
X0023517Y0059775D01*
X0023408Y0059511D01*
X0023249Y0059274D01*
X0023047Y0059072D01*
X0022810Y0058913D01*
X0022546Y0058804D01*
X0022266Y0058748D01*
X0021980Y0058748D01*
X0021700Y0058804D01*
X0021436Y0058913D01*
X0021199Y0059072D01*
X0020997Y0059274D01*
X0020838Y0059511D01*
X0020729Y0059775D01*
X0020673Y0060055D01*
X0020673Y0060341D01*
X0020729Y0060621D01*
X0020838Y0060885D01*
X0020997Y0061122D01*
X0021199Y0061324D01*
X0021436Y0061483D01*
X0021700Y0061592D01*
X0021980Y0061648D01*
X0022266Y0061648D01*
X0022546Y0061592D01*
X0022546Y0061592D01*
G37*
G36*
X0055173Y0058848D02*
X0052473Y0058848D01*
X0052473Y0061548D01*
X0055173Y0061548D01*
X0055173Y0058848D01*
X0055173Y0058848D01*
G37*
G36*
X0074433Y0060184D02*
X0072633Y0060184D01*
X0072633Y0061483D01*
X0074433Y0061483D01*
X0074433Y0060184D01*
X0074433Y0060184D01*
G37*
G36*
X0071893Y0060189D02*
X0070093Y0060189D01*
X0070093Y0061478D01*
X0071893Y0061478D01*
X0071893Y0060189D01*
X0071893Y0060189D01*
G37*
G36*
X0065543Y0060506D02*
X0063743Y0060506D01*
X0063743Y0061795D01*
X0065543Y0061795D01*
X0065543Y0060506D01*
X0065543Y0060506D01*
G37*
G36*
X0063303Y0061538D02*
X0063128Y0061538D01*
X0063104Y0061536D01*
X0063080Y0061528D01*
X0063059Y0061517D01*
X0063040Y0061501D01*
X0063024Y0061482D01*
X0063013Y0061461D01*
X0063005Y0061437D01*
X0063003Y0061413D01*
X0063003Y0060824D01*
X0061203Y0060824D01*
X0061203Y0061413D01*
X0061201Y0061437D01*
X0061193Y0061461D01*
X0061182Y0061482D01*
X0061166Y0061501D01*
X0061147Y0061517D01*
X0061126Y0061528D01*
X0061102Y0061536D01*
X0061078Y0061538D01*
X0060903Y0061538D01*
X0060903Y0063938D01*
X0063303Y0063938D01*
X0063303Y0061538D01*
X0063303Y0061538D01*
G37*
G36*
X0059743Y0061232D02*
X0056843Y0061232D01*
X0056843Y0064183D01*
X0059743Y0064183D01*
X0059743Y0061232D01*
X0059743Y0061232D01*
G37*
G36*
X0075071Y0063623D02*
X0075239Y0063553D01*
X0075389Y0063453D01*
X0075518Y0063324D01*
X0075618Y0063174D01*
X0075688Y0063006D01*
X0075723Y0062829D01*
X0075723Y0062647D01*
X0075688Y0062470D01*
X0075618Y0062302D01*
X0075518Y0062152D01*
X0075389Y0062023D01*
X0075239Y0061923D01*
X0075071Y0061853D01*
X0074894Y0061818D01*
X0074712Y0061818D01*
X0074535Y0061853D01*
X0074367Y0061923D01*
X0074217Y0062023D01*
X0074088Y0062152D01*
X0073988Y0062302D01*
X0073918Y0062470D01*
X0073883Y0062647D01*
X0073883Y0062829D01*
X0073918Y0063006D01*
X0073988Y0063174D01*
X0074088Y0063324D01*
X0074217Y0063453D01*
X0074367Y0063553D01*
X0074535Y0063623D01*
X0074712Y0063658D01*
X0074894Y0063658D01*
X0075071Y0063623D01*
X0075071Y0063623D01*
G37*
G36*
X0077611Y0063623D02*
X0077779Y0063553D01*
X0077929Y0063453D01*
X0078058Y0063324D01*
X0078158Y0063174D01*
X0078228Y0063006D01*
X0078263Y0062829D01*
X0078263Y0062647D01*
X0078228Y0062470D01*
X0078158Y0062302D01*
X0078058Y0062152D01*
X0077929Y0062023D01*
X0077779Y0061923D01*
X0077611Y0061853D01*
X0077434Y0061818D01*
X0077252Y0061818D01*
X0077075Y0061853D01*
X0076907Y0061923D01*
X0076757Y0062023D01*
X0076628Y0062152D01*
X0076528Y0062302D01*
X0076458Y0062470D01*
X0076423Y0062647D01*
X0076423Y0062829D01*
X0076458Y0063006D01*
X0076528Y0063174D01*
X0076628Y0063324D01*
X0076757Y0063453D01*
X0076907Y0063553D01*
X0077075Y0063623D01*
X0077252Y0063658D01*
X0077434Y0063658D01*
X0077611Y0063623D01*
X0077611Y0063623D01*
G37*
G36*
X0072531Y0063623D02*
X0072699Y0063553D01*
X0072849Y0063453D01*
X0072978Y0063324D01*
X0073078Y0063174D01*
X0073148Y0063006D01*
X0073183Y0062829D01*
X0073183Y0062647D01*
X0073148Y0062470D01*
X0073078Y0062302D01*
X0072978Y0062152D01*
X0072849Y0062023D01*
X0072699Y0061923D01*
X0072531Y0061853D01*
X0072354Y0061818D01*
X0072172Y0061818D01*
X0071995Y0061853D01*
X0071827Y0061923D01*
X0071677Y0062023D01*
X0071548Y0062152D01*
X0071448Y0062302D01*
X0071378Y0062470D01*
X0071343Y0062647D01*
X0071343Y0062829D01*
X0071378Y0063006D01*
X0071448Y0063174D01*
X0071548Y0063324D01*
X0071677Y0063453D01*
X0071827Y0063553D01*
X0071995Y0063623D01*
X0072172Y0063658D01*
X0072354Y0063658D01*
X0072531Y0063623D01*
X0072531Y0063623D01*
G37*
G36*
X0068780Y0062473D02*
X0067491Y0062473D01*
X0067491Y0064273D01*
X0068780Y0064273D01*
X0068780Y0062473D01*
X0068780Y0062473D01*
G37*
G36*
X0070690Y0062473D02*
X0069391Y0062473D01*
X0069391Y0064273D01*
X0070690Y0064273D01*
X0070690Y0062473D01*
X0070690Y0062473D01*
G37*
G36*
X0076338Y0063994D02*
X0074538Y0063994D01*
X0074538Y0065293D01*
X0076338Y0065293D01*
X0076338Y0063994D01*
X0076338Y0063994D01*
G37*
G36*
X0078878Y0063999D02*
X0077078Y0063999D01*
X0077078Y0065288D01*
X0078878Y0065288D01*
X0078878Y0063999D01*
X0078878Y0063999D01*
G37*
G36*
X0073548Y0065013D02*
X0072249Y0065013D01*
X0072249Y0066813D01*
X0073548Y0066813D01*
X0073548Y0065013D01*
X0073548Y0065013D01*
G37*
G36*
X0071638Y0065013D02*
X0070349Y0065013D01*
X0070349Y0066813D01*
X0071638Y0066813D01*
X0071638Y0065013D01*
X0071638Y0065013D01*
G37*
G36*
X0078878Y0065899D02*
X0077078Y0065899D01*
X0077078Y0067198D01*
X0078878Y0067198D01*
X0078878Y0065899D01*
X0078878Y0065899D01*
G37*
G36*
X0076338Y0065904D02*
X0074538Y0065904D01*
X0074538Y0067193D01*
X0076338Y0067193D01*
X0076338Y0065904D01*
X0076338Y0065904D01*
G37*
G36*
X0027632Y0067364D02*
X0025708Y0067364D01*
X0025708Y0069288D01*
X0027632Y0069288D01*
X0027632Y0067364D01*
X0027632Y0067364D01*
G37*
G36*
X0025092Y0067364D02*
X0023168Y0067364D01*
X0023168Y0069288D01*
X0025092Y0069288D01*
X0025092Y0067364D01*
X0025092Y0067364D01*
G37*
G36*
X0022552Y0067364D02*
X0020628Y0067364D01*
X0020628Y0069288D01*
X0022552Y0069288D01*
X0022552Y0067364D01*
X0022552Y0067364D01*
G37*
G36*
X0072531Y0069338D02*
X0072699Y0069268D01*
X0072849Y0069168D01*
X0072978Y0069039D01*
X0073078Y0068889D01*
X0073148Y0068721D01*
X0073183Y0068544D01*
X0073183Y0068362D01*
X0073148Y0068185D01*
X0073078Y0068017D01*
X0072978Y0067867D01*
X0072849Y0067738D01*
X0072699Y0067638D01*
X0072531Y0067568D01*
X0072354Y0067533D01*
X0072172Y0067533D01*
X0071995Y0067568D01*
X0071827Y0067638D01*
X0071677Y0067738D01*
X0071548Y0067867D01*
X0071448Y0068017D01*
X0071378Y0068185D01*
X0071343Y0068362D01*
X0071343Y0068544D01*
X0071378Y0068721D01*
X0071448Y0068889D01*
X0071548Y0069039D01*
X0071677Y0069168D01*
X0071827Y0069268D01*
X0071995Y0069338D01*
X0072172Y0069373D01*
X0072354Y0069373D01*
X0072531Y0069338D01*
X0072531Y0069338D01*
G37*
G36*
X0075071Y0069338D02*
X0075239Y0069268D01*
X0075389Y0069168D01*
X0075518Y0069039D01*
X0075618Y0068889D01*
X0075688Y0068721D01*
X0075723Y0068544D01*
X0075723Y0068362D01*
X0075688Y0068185D01*
X0075618Y0068017D01*
X0075518Y0067867D01*
X0075389Y0067738D01*
X0075239Y0067638D01*
X0075071Y0067568D01*
X0074894Y0067533D01*
X0074712Y0067533D01*
X0074535Y0067568D01*
X0074367Y0067638D01*
X0074217Y0067738D01*
X0074088Y0067867D01*
X0073988Y0068017D01*
X0073918Y0068185D01*
X0073883Y0068362D01*
X0073883Y0068544D01*
X0073918Y0068721D01*
X0073988Y0068889D01*
X0074088Y0069039D01*
X0074217Y0069168D01*
X0074367Y0069268D01*
X0074535Y0069338D01*
X0074712Y0069373D01*
X0074894Y0069373D01*
X0075071Y0069338D01*
X0075071Y0069338D01*
G37*
G36*
X0077611Y0069338D02*
X0077779Y0069268D01*
X0077929Y0069168D01*
X0078058Y0069039D01*
X0078158Y0068889D01*
X0078228Y0068721D01*
X0078263Y0068544D01*
X0078263Y0068362D01*
X0078228Y0068185D01*
X0078158Y0068017D01*
X0078058Y0067867D01*
X0077929Y0067738D01*
X0077779Y0067638D01*
X0077611Y0067568D01*
X0077434Y0067533D01*
X0077252Y0067533D01*
X0077075Y0067568D01*
X0076907Y0067638D01*
X0076757Y0067738D01*
X0076628Y0067867D01*
X0076528Y0068017D01*
X0076458Y0068185D01*
X0076423Y0068362D01*
X0076423Y0068544D01*
X0076458Y0068721D01*
X0076528Y0068889D01*
X0076628Y0069039D01*
X0076757Y0069168D01*
X0076907Y0069268D01*
X0077075Y0069338D01*
X0077252Y0069373D01*
X0077434Y0069373D01*
X0077611Y0069338D01*
X0077611Y0069338D01*
G37*
G36*
X0069098Y0067553D02*
X0067809Y0067553D01*
X0067809Y0069353D01*
X0069098Y0069353D01*
X0069098Y0067553D01*
X0069098Y0067553D01*
G37*
G36*
X0071008Y0067553D02*
X0069709Y0067553D01*
X0069709Y0069353D01*
X0071008Y0069353D01*
X0071008Y0067553D01*
X0071008Y0067553D01*
G37*
G36*
X0022552Y0069904D02*
X0020628Y0069904D01*
X0020628Y0071828D01*
X0022552Y0071828D01*
X0022552Y0069904D01*
X0022552Y0069904D01*
G37*
G36*
X0025092Y0069904D02*
X0023168Y0069904D01*
X0023168Y0071828D01*
X0025092Y0071828D01*
X0025092Y0069904D01*
X0025092Y0069904D01*
G37*
G36*
X0027632Y0069904D02*
X0025708Y0069904D01*
X0025708Y0071828D01*
X0027632Y0071828D01*
X0027632Y0069904D01*
X0027632Y0069904D01*
G37*
G36*
X0066875Y0071936D02*
X0064951Y0071936D01*
X0064951Y0073860D01*
X0066875Y0073860D01*
X0066875Y0071936D01*
X0066875Y0071936D01*
G37*
G36*
X0069415Y0071936D02*
X0067491Y0071936D01*
X0067491Y0073860D01*
X0069415Y0073860D01*
X0069415Y0071936D01*
X0069415Y0071936D01*
G37*
G36*
X0030801Y0074927D02*
X0031065Y0074818D01*
X0031302Y0074659D01*
X0031504Y0074457D01*
X0031663Y0074220D01*
X0031772Y0073956D01*
X0031828Y0073676D01*
X0031828Y0073390D01*
X0031772Y0073110D01*
X0031663Y0072846D01*
X0031504Y0072609D01*
X0031302Y0072407D01*
X0031065Y0072248D01*
X0030801Y0072139D01*
X0030521Y0072083D01*
X0030235Y0072083D01*
X0029955Y0072139D01*
X0029691Y0072248D01*
X0029454Y0072407D01*
X0029252Y0072609D01*
X0029093Y0072846D01*
X0028984Y0073110D01*
X0028928Y0073390D01*
X0028928Y0073676D01*
X0028984Y0073956D01*
X0029093Y0074220D01*
X0029252Y0074457D01*
X0029454Y0074659D01*
X0029691Y0074818D01*
X0029955Y0074927D01*
X0030235Y0074983D01*
X0030521Y0074983D01*
X0030801Y0074927D01*
X0030801Y0074927D01*
G37*
G36*
X0063428Y0072183D02*
X0060728Y0072183D01*
X0060728Y0074883D01*
X0063428Y0074883D01*
X0063428Y0072183D01*
X0063428Y0072183D01*
G37*
G36*
X0076371Y0078515D02*
X0076954Y0078274D01*
X0077478Y0077924D01*
X0077924Y0077478D01*
X0078274Y0076954D01*
X0078515Y0076371D01*
X0078638Y0075753D01*
X0078638Y0075123D01*
X0078515Y0074505D01*
X0078274Y0073922D01*
X0077924Y0073398D01*
X0077478Y0072952D01*
X0076954Y0072602D01*
X0076371Y0072361D01*
X0075753Y0072238D01*
X0075123Y0072238D01*
X0074505Y0072361D01*
X0073922Y0072602D01*
X0073398Y0072952D01*
X0072952Y0073398D01*
X0072602Y0073922D01*
X0072361Y0074505D01*
X0072238Y0075123D01*
X0072238Y0075753D01*
X0072361Y0076371D01*
X0072602Y0076954D01*
X0072952Y0077478D01*
X0073398Y0077924D01*
X0073922Y0078274D01*
X0074505Y0078515D01*
X0075123Y0078638D01*
X0075753Y0078638D01*
X0076371Y0078515D01*
X0076371Y0078515D01*
G37*
G36*
X0025571Y0078515D02*
X0026154Y0078274D01*
X0026678Y0077924D01*
X0027124Y0077478D01*
X0027474Y0076954D01*
X0027715Y0076371D01*
X0027838Y0075753D01*
X0027838Y0075123D01*
X0027715Y0074505D01*
X0027474Y0073922D01*
X0027124Y0073398D01*
X0026678Y0072952D01*
X0026154Y0072602D01*
X0025571Y0072361D01*
X0024953Y0072238D01*
X0024323Y0072238D01*
X0023705Y0072361D01*
X0023122Y0072602D01*
X0022598Y0072952D01*
X0022152Y0073398D01*
X0021802Y0073922D01*
X0021561Y0074505D01*
X0021438Y0075123D01*
X0021438Y0075753D01*
X0021561Y0076371D01*
X0021802Y0076954D01*
X0022152Y0077478D01*
X0022598Y0077924D01*
X0023122Y0078274D01*
X0023705Y0078515D01*
X0024323Y0078638D01*
X0024953Y0078638D01*
X0025571Y0078515D01*
X0025571Y0078515D01*
G37*
G36*
X0069415Y0074476D02*
X0067491Y0074476D01*
X0067491Y0076400D01*
X0069415Y0076400D01*
X0069415Y0074476D01*
X0069415Y0074476D01*
G37*
G36*
X0066875Y0074476D02*
X0064951Y0074476D01*
X0064951Y0076400D01*
X0066875Y0076400D01*
X0066875Y0074476D01*
X0066875Y0074476D01*
G37*
G36*
X0069415Y0077016D02*
X0067491Y0077016D01*
X0067491Y0078940D01*
X0069415Y0078940D01*
X0069415Y0077016D01*
X0069415Y0077016D01*
G37*
G36*
X0066875Y0077016D02*
X0064951Y0077016D01*
X0064951Y0078940D01*
X0066875Y0078940D01*
X0066875Y0077016D01*
X0066875Y0077016D01*
G37*
X0019812Y0080264D02*
%LPD*%
G01*
D47*
G36*
X0069415Y0081588D02*
X0067491Y0081588D01*
X0067491Y0083512D01*
X0069415Y0083512D01*
X0069415Y0081588D01*
X0069415Y0081588D01*
G37*
G36*
X0066875Y0081588D02*
X0064951Y0081588D01*
X0064951Y0083512D01*
X0066875Y0083512D01*
X0066875Y0081588D01*
X0066875Y0081588D01*
G37*
G36*
X0025571Y0088167D02*
X0026154Y0087926D01*
X0026678Y0087576D01*
X0027124Y0087130D01*
X0027474Y0086606D01*
X0027715Y0086023D01*
X0027838Y0085405D01*
X0027838Y0084775D01*
X0027715Y0084157D01*
X0027474Y0083574D01*
X0027124Y0083050D01*
X0026678Y0082604D01*
X0026154Y0082254D01*
X0025571Y0082013D01*
X0024953Y0081890D01*
X0024323Y0081890D01*
X0023705Y0082013D01*
X0023122Y0082254D01*
X0022598Y0082604D01*
X0022152Y0083050D01*
X0021802Y0083574D01*
X0021561Y0084157D01*
X0021438Y0084775D01*
X0021438Y0085405D01*
X0021561Y0086023D01*
X0021802Y0086606D01*
X0022152Y0087130D01*
X0022598Y0087576D01*
X0023122Y0087926D01*
X0023705Y0088167D01*
X0024323Y0088290D01*
X0024953Y0088290D01*
X0025571Y0088167D01*
X0025571Y0088167D01*
G37*
G36*
X0076371Y0088167D02*
X0076954Y0087926D01*
X0077478Y0087576D01*
X0077924Y0087130D01*
X0078274Y0086606D01*
X0078515Y0086023D01*
X0078638Y0085405D01*
X0078638Y0084775D01*
X0078515Y0084157D01*
X0078274Y0083574D01*
X0077924Y0083050D01*
X0077478Y0082604D01*
X0076954Y0082254D01*
X0076371Y0082013D01*
X0075753Y0081890D01*
X0075123Y0081890D01*
X0074505Y0082013D01*
X0073922Y0082254D01*
X0073398Y0082604D01*
X0072952Y0083050D01*
X0072602Y0083574D01*
X0072361Y0084157D01*
X0072238Y0084775D01*
X0072238Y0085405D01*
X0072361Y0086023D01*
X0072602Y0086606D01*
X0072952Y0087130D01*
X0073398Y0087576D01*
X0073922Y0087926D01*
X0074505Y0088167D01*
X0075123Y0088290D01*
X0075753Y0088290D01*
X0076371Y0088167D01*
X0076371Y0088167D01*
G37*
G36*
X0066875Y0084128D02*
X0064951Y0084128D01*
X0064951Y0086052D01*
X0066875Y0086052D01*
X0066875Y0084128D01*
X0066875Y0084128D01*
G37*
G36*
X0069415Y0084128D02*
X0067491Y0084128D01*
X0067491Y0086052D01*
X0069415Y0086052D01*
X0069415Y0084128D01*
X0069415Y0084128D01*
G37*
G36*
X0062501Y0088389D02*
X0062765Y0088280D01*
X0063002Y0088121D01*
X0063204Y0087919D01*
X0063363Y0087682D01*
X0063472Y0087418D01*
X0063528Y0087138D01*
X0063528Y0086852D01*
X0063472Y0086572D01*
X0063363Y0086308D01*
X0063204Y0086071D01*
X0063002Y0085869D01*
X0062765Y0085710D01*
X0062501Y0085601D01*
X0062221Y0085545D01*
X0061935Y0085545D01*
X0061655Y0085601D01*
X0061391Y0085710D01*
X0061154Y0085869D01*
X0060952Y0086071D01*
X0060793Y0086308D01*
X0060684Y0086572D01*
X0060628Y0086852D01*
X0060628Y0087138D01*
X0060684Y0087418D01*
X0060793Y0087682D01*
X0060952Y0087919D01*
X0061154Y0088121D01*
X0061391Y0088280D01*
X0061655Y0088389D01*
X0061935Y0088445D01*
X0062221Y0088445D01*
X0062501Y0088389D01*
X0062501Y0088389D01*
G37*
G36*
X0031728Y0085645D02*
X0029028Y0085645D01*
X0029028Y0088345D01*
X0031728Y0088345D01*
X0031728Y0085645D01*
X0031728Y0085645D01*
G37*
G36*
X0068780Y0088000D02*
X0067491Y0088000D01*
X0067491Y0089800D01*
X0068780Y0089800D01*
X0068780Y0088000D01*
X0068780Y0088000D01*
G37*
G36*
X0070690Y0088000D02*
X0069391Y0088000D01*
X0069391Y0089800D01*
X0070690Y0089800D01*
X0070690Y0088000D01*
X0070690Y0088000D01*
G37*
G36*
X0066875Y0089208D02*
X0064951Y0089208D01*
X0064951Y0091132D01*
X0066875Y0091132D01*
X0066875Y0089208D01*
X0066875Y0089208D01*
G37*
G36*
X0075071Y0092325D02*
X0075239Y0092255D01*
X0075389Y0092155D01*
X0075518Y0092026D01*
X0075618Y0091876D01*
X0075688Y0091708D01*
X0075723Y0091531D01*
X0075723Y0091349D01*
X0075688Y0091172D01*
X0075618Y0091004D01*
X0075518Y0090854D01*
X0075389Y0090725D01*
X0075239Y0090625D01*
X0075071Y0090555D01*
X0074894Y0090520D01*
X0074712Y0090520D01*
X0074535Y0090555D01*
X0074367Y0090625D01*
X0074217Y0090725D01*
X0074088Y0090854D01*
X0073988Y0091004D01*
X0073918Y0091172D01*
X0073883Y0091349D01*
X0073883Y0091531D01*
X0073918Y0091708D01*
X0073988Y0091876D01*
X0074088Y0092026D01*
X0074217Y0092155D01*
X0074367Y0092255D01*
X0074535Y0092325D01*
X0074712Y0092360D01*
X0074894Y0092360D01*
X0075071Y0092325D01*
X0075071Y0092325D01*
G37*
G36*
X0077611Y0092325D02*
X0077779Y0092255D01*
X0077929Y0092155D01*
X0078058Y0092026D01*
X0078158Y0091876D01*
X0078228Y0091708D01*
X0078263Y0091531D01*
X0078263Y0091349D01*
X0078228Y0091172D01*
X0078158Y0091004D01*
X0078058Y0090854D01*
X0077929Y0090725D01*
X0077779Y0090625D01*
X0077611Y0090555D01*
X0077434Y0090520D01*
X0077252Y0090520D01*
X0077075Y0090555D01*
X0076907Y0090625D01*
X0076757Y0090725D01*
X0076628Y0090854D01*
X0076528Y0091004D01*
X0076458Y0091172D01*
X0076423Y0091349D01*
X0076423Y0091531D01*
X0076458Y0091708D01*
X0076528Y0091876D01*
X0076628Y0092026D01*
X0076757Y0092155D01*
X0076907Y0092255D01*
X0077075Y0092325D01*
X0077252Y0092360D01*
X0077434Y0092360D01*
X0077611Y0092325D01*
X0077611Y0092325D01*
G37*
G36*
X0072531Y0092325D02*
X0072699Y0092255D01*
X0072849Y0092155D01*
X0072978Y0092026D01*
X0073078Y0091876D01*
X0073148Y0091708D01*
X0073183Y0091531D01*
X0073183Y0091349D01*
X0073148Y0091172D01*
X0073078Y0091004D01*
X0072978Y0090854D01*
X0072849Y0090725D01*
X0072699Y0090625D01*
X0072531Y0090555D01*
X0072354Y0090520D01*
X0072172Y0090520D01*
X0071995Y0090555D01*
X0071827Y0090625D01*
X0071677Y0090725D01*
X0071548Y0090854D01*
X0071448Y0091004D01*
X0071378Y0091172D01*
X0071343Y0091349D01*
X0071343Y0091531D01*
X0071378Y0091708D01*
X0071448Y0091876D01*
X0071548Y0092026D01*
X0071677Y0092155D01*
X0071827Y0092255D01*
X0071995Y0092325D01*
X0072172Y0092360D01*
X0072354Y0092360D01*
X0072531Y0092325D01*
X0072531Y0092325D01*
G37*
G36*
X0068780Y0090540D02*
X0067491Y0090540D01*
X0067491Y0092340D01*
X0068780Y0092340D01*
X0068780Y0090540D01*
X0068780Y0090540D01*
G37*
G36*
X0070690Y0090540D02*
X0069391Y0090540D01*
X0069391Y0092340D01*
X0070690Y0092340D01*
X0070690Y0090540D01*
X0070690Y0090540D01*
G37*
G36*
X0066875Y0091748D02*
X0064951Y0091748D01*
X0064951Y0093672D01*
X0066875Y0093672D01*
X0066875Y0091748D01*
X0066875Y0091748D01*
G37*
G36*
X0076088Y0093080D02*
X0074789Y0093080D01*
X0074789Y0094880D01*
X0076088Y0094880D01*
X0076088Y0093080D01*
X0076088Y0093080D01*
G37*
G36*
X0077988Y0093080D02*
X0076699Y0093080D01*
X0076699Y0094880D01*
X0077988Y0094880D01*
X0077988Y0093080D01*
X0077988Y0093080D01*
G37*
G36*
X0071638Y0093715D02*
X0070349Y0093715D01*
X0070349Y0095515D01*
X0071638Y0095515D01*
X0071638Y0093715D01*
X0071638Y0093715D01*
G37*
G36*
X0073548Y0093715D02*
X0072249Y0093715D01*
X0072249Y0095515D01*
X0073548Y0095515D01*
X0073548Y0093715D01*
X0073548Y0093715D01*
G37*
G36*
X0068734Y0102130D02*
X0068777Y0102117D01*
X0068816Y0102096D01*
X0068851Y0102068D01*
X0068879Y0102033D01*
X0068900Y0101994D01*
X0068913Y0101951D01*
X0068918Y0101900D01*
X0068918Y0100395D01*
X0068913Y0100344D01*
X0068900Y0100301D01*
X0068879Y0100262D01*
X0068846Y0100222D01*
X0068838Y0100214D01*
X0068825Y0100194D01*
X0068815Y0100171D01*
X0068811Y0100147D01*
X0068811Y0100123D01*
X0068815Y0100099D01*
X0068825Y0100076D01*
X0068838Y0100056D01*
X0068856Y0100038D01*
X0068876Y0100025D01*
X0068899Y0100015D01*
X0068923Y0100011D01*
X0068935Y0100010D01*
X0069518Y0100010D01*
X0069518Y0098110D01*
X0068935Y0098110D01*
X0068911Y0098108D01*
X0068888Y0098100D01*
X0068866Y0098089D01*
X0068847Y0098073D01*
X0068831Y0098054D01*
X0068820Y0098033D01*
X0068813Y0098009D01*
X0068810Y0097985D01*
X0068813Y0097961D01*
X0068820Y0097937D01*
X0068831Y0097916D01*
X0068843Y0097903D01*
X0068843Y0097902D01*
X0068879Y0097858D01*
X0068900Y0097819D01*
X0068913Y0097776D01*
X0068918Y0097726D01*
X0068918Y0096219D01*
X0068913Y0096169D01*
X0068900Y0096126D01*
X0068879Y0096087D01*
X0068851Y0096052D01*
X0068816Y0096024D01*
X0068777Y0096003D01*
X0068734Y0095990D01*
X0068684Y0095985D01*
X0066952Y0095985D01*
X0066902Y0095990D01*
X0066859Y0096003D01*
X0066820Y0096024D01*
X0066785Y0096052D01*
X0066757Y0096087D01*
X0066736Y0096126D01*
X0066723Y0096169D01*
X0066718Y0096219D01*
X0066718Y0097726D01*
X0066723Y0097776D01*
X0066736Y0097819D01*
X0066757Y0097858D01*
X0066790Y0097898D01*
X0066797Y0097906D01*
X0066811Y0097926D01*
X0066820Y0097949D01*
X0066825Y0097973D01*
X0066825Y0097997D01*
X0066820Y0098021D01*
X0066811Y0098044D01*
X0066797Y0098064D01*
X0066780Y0098082D01*
X0066760Y0098095D01*
X0066737Y0098105D01*
X0066701Y0098110D01*
X0066118Y0098110D01*
X0066118Y0100010D01*
X0066701Y0100010D01*
X0066725Y0100012D01*
X0066749Y0100020D01*
X0066770Y0100031D01*
X0066789Y0100047D01*
X0066805Y0100066D01*
X0066817Y0100087D01*
X0066824Y0100111D01*
X0066826Y0100135D01*
X0066824Y0100159D01*
X0066817Y0100183D01*
X0066805Y0100204D01*
X0066789Y0100223D01*
X0066787Y0100226D01*
X0066757Y0100262D01*
X0066736Y0100301D01*
X0066723Y0100344D01*
X0066718Y0100395D01*
X0066718Y0101900D01*
X0066723Y0101951D01*
X0066736Y0101994D01*
X0066757Y0102033D01*
X0066785Y0102068D01*
X0066820Y0102096D01*
X0066859Y0102117D01*
X0066902Y0102130D01*
X0066953Y0102135D01*
X0068683Y0102135D01*
X0068734Y0102130D01*
X0068734Y0102130D01*
G37*
G36*
X0077611Y0098040D02*
X0077779Y0097970D01*
X0077929Y0097870D01*
X0078058Y0097741D01*
X0078158Y0097591D01*
X0078228Y0097423D01*
X0078263Y0097246D01*
X0078263Y0097064D01*
X0078228Y0096887D01*
X0078158Y0096719D01*
X0078058Y0096569D01*
X0077929Y0096440D01*
X0077779Y0096340D01*
X0077611Y0096270D01*
X0077434Y0096235D01*
X0077252Y0096235D01*
X0077075Y0096270D01*
X0076907Y0096340D01*
X0076757Y0096440D01*
X0076628Y0096569D01*
X0076528Y0096719D01*
X0076458Y0096887D01*
X0076423Y0097064D01*
X0076423Y0097246D01*
X0076458Y0097423D01*
X0076528Y0097591D01*
X0076628Y0097741D01*
X0076757Y0097870D01*
X0076907Y0097970D01*
X0077075Y0098040D01*
X0077252Y0098075D01*
X0077434Y0098075D01*
X0077611Y0098040D01*
X0077611Y0098040D01*
G37*
G36*
X0075071Y0098040D02*
X0075239Y0097970D01*
X0075389Y0097870D01*
X0075518Y0097741D01*
X0075618Y0097591D01*
X0075688Y0097423D01*
X0075723Y0097246D01*
X0075723Y0097064D01*
X0075688Y0096887D01*
X0075618Y0096719D01*
X0075518Y0096569D01*
X0075389Y0096440D01*
X0075239Y0096340D01*
X0075071Y0096270D01*
X0074894Y0096235D01*
X0074712Y0096235D01*
X0074535Y0096270D01*
X0074367Y0096340D01*
X0074217Y0096440D01*
X0074088Y0096569D01*
X0073988Y0096719D01*
X0073918Y0096887D01*
X0073883Y0097064D01*
X0073883Y0097246D01*
X0073918Y0097423D01*
X0073988Y0097591D01*
X0074088Y0097741D01*
X0074217Y0097870D01*
X0074367Y0097970D01*
X0074535Y0098040D01*
X0074712Y0098075D01*
X0074894Y0098075D01*
X0075071Y0098040D01*
X0075071Y0098040D01*
G37*
G36*
X0072531Y0098040D02*
X0072699Y0097970D01*
X0072849Y0097870D01*
X0072978Y0097741D01*
X0073078Y0097591D01*
X0073148Y0097423D01*
X0073183Y0097246D01*
X0073183Y0097064D01*
X0073148Y0096887D01*
X0073078Y0096719D01*
X0072978Y0096569D01*
X0072849Y0096440D01*
X0072699Y0096340D01*
X0072531Y0096270D01*
X0072354Y0096235D01*
X0072172Y0096235D01*
X0071995Y0096270D01*
X0071827Y0096340D01*
X0071677Y0096440D01*
X0071548Y0096569D01*
X0071448Y0096719D01*
X0071378Y0096887D01*
X0071343Y0097064D01*
X0071343Y0097246D01*
X0071378Y0097423D01*
X0071448Y0097591D01*
X0071548Y0097741D01*
X0071677Y0097870D01*
X0071827Y0097970D01*
X0071995Y0098040D01*
X0072172Y0098075D01*
X0072354Y0098075D01*
X0072531Y0098040D01*
X0072531Y0098040D01*
G37*
G36*
X0059743Y0096315D02*
X0056843Y0096315D01*
X0056843Y0099265D01*
X0059743Y0099265D01*
X0059743Y0096315D01*
X0059743Y0096315D01*
G37*
G36*
X0063003Y0099046D02*
X0062916Y0099046D01*
X0062891Y0099043D01*
X0062868Y0099036D01*
X0062846Y0099024D01*
X0062827Y0099009D01*
X0062812Y0098990D01*
X0062800Y0098968D01*
X0062793Y0098945D01*
X0062791Y0098921D01*
X0062793Y0098896D01*
X0062800Y0098873D01*
X0062812Y0098851D01*
X0062827Y0098832D01*
X0062846Y0098817D01*
X0062868Y0098802D01*
X0062868Y0098802D01*
X0063035Y0098635D01*
X0063166Y0098438D01*
X0063257Y0098220D01*
X0063303Y0097988D01*
X0063303Y0097752D01*
X0063257Y0097520D01*
X0063166Y0097302D01*
X0063035Y0097105D01*
X0062868Y0096938D01*
X0062671Y0096807D01*
X0062453Y0096716D01*
X0062221Y0096670D01*
X0061985Y0096670D01*
X0061753Y0096716D01*
X0061535Y0096807D01*
X0061338Y0096938D01*
X0061171Y0097105D01*
X0061040Y0097302D01*
X0060949Y0097520D01*
X0060903Y0097752D01*
X0060903Y0097988D01*
X0060949Y0098220D01*
X0061040Y0098438D01*
X0061171Y0098635D01*
X0061338Y0098802D01*
X0061338Y0098802D01*
X0061360Y0098817D01*
X0061379Y0098832D01*
X0061394Y0098851D01*
X0061406Y0098873D01*
X0061413Y0098896D01*
X0061415Y0098921D01*
X0061413Y0098945D01*
X0061406Y0098968D01*
X0061394Y0098990D01*
X0061379Y0099009D01*
X0061360Y0099024D01*
X0061338Y0099036D01*
X0061315Y0099043D01*
X0061290Y0099046D01*
X0061203Y0099046D01*
X0061203Y0100345D01*
X0063003Y0100345D01*
X0063003Y0099046D01*
X0063003Y0099046D01*
G37*
G36*
X0071893Y0098411D02*
X0070093Y0098411D01*
X0070093Y0099710D01*
X0071893Y0099710D01*
X0071893Y0098411D01*
X0071893Y0098411D01*
G37*
G36*
X0074433Y0098416D02*
X0072633Y0098416D01*
X0072633Y0099705D01*
X0074433Y0099705D01*
X0074433Y0098416D01*
X0074433Y0098416D01*
G37*
G36*
X0065543Y0098728D02*
X0063743Y0098728D01*
X0063743Y0100027D01*
X0065543Y0100027D01*
X0065543Y0098728D01*
X0065543Y0098728D01*
G37*
G36*
X0077988Y0098795D02*
X0076699Y0098795D01*
X0076699Y0100595D01*
X0077988Y0100595D01*
X0077988Y0098795D01*
X0077988Y0098795D01*
G37*
G36*
X0076088Y0098795D02*
X0074789Y0098795D01*
X0074789Y0100595D01*
X0076088Y0100595D01*
X0076088Y0098795D01*
X0076088Y0098795D01*
G37*
G36*
X0022546Y0101724D02*
X0022810Y0101615D01*
X0023047Y0101456D01*
X0023249Y0101254D01*
X0023408Y0101017D01*
X0023517Y0100753D01*
X0023573Y0100473D01*
X0023573Y0100187D01*
X0023517Y0099907D01*
X0023408Y0099643D01*
X0023249Y0099406D01*
X0023047Y0099204D01*
X0022810Y0099045D01*
X0022546Y0098936D01*
X0022266Y0098880D01*
X0021980Y0098880D01*
X0021700Y0098936D01*
X0021436Y0099045D01*
X0021199Y0099204D01*
X0020997Y0099406D01*
X0020838Y0099643D01*
X0020729Y0099907D01*
X0020673Y0100187D01*
X0020673Y0100473D01*
X0020729Y0100753D01*
X0020838Y0101017D01*
X0020997Y0101254D01*
X0021199Y0101456D01*
X0021436Y0101615D01*
X0021700Y0101724D01*
X0021980Y0101780D01*
X0022266Y0101780D01*
X0022546Y0101724D01*
X0022546Y0101724D01*
G37*
G36*
X0055173Y0098980D02*
X0052473Y0098980D01*
X0052473Y0101680D01*
X0055173Y0101680D01*
X0055173Y0098980D01*
X0055173Y0098980D01*
G37*
G36*
X0074433Y0100316D02*
X0072633Y0100316D01*
X0072633Y0101615D01*
X0074433Y0101615D01*
X0074433Y0100316D01*
X0074433Y0100316D01*
G37*
G36*
X0071893Y0100321D02*
X0070093Y0100321D01*
X0070093Y0101610D01*
X0071893Y0101610D01*
X0071893Y0100321D01*
X0071893Y0100321D01*
G37*
G36*
X0065543Y0100638D02*
X0063743Y0100638D01*
X0063743Y0101927D01*
X0065543Y0101927D01*
X0065543Y0100638D01*
X0065543Y0100638D01*
G37*
G36*
X0063303Y0101670D02*
X0063128Y0101670D01*
X0063104Y0101668D01*
X0063080Y0101660D01*
X0063059Y0101649D01*
X0063040Y0101633D01*
X0063024Y0101614D01*
X0063013Y0101593D01*
X0063005Y0101569D01*
X0063003Y0101545D01*
X0063003Y0100956D01*
X0061203Y0100956D01*
X0061203Y0101545D01*
X0061201Y0101569D01*
X0061193Y0101593D01*
X0061182Y0101614D01*
X0061166Y0101633D01*
X0061147Y0101649D01*
X0061126Y0101660D01*
X0061102Y0101668D01*
X0061078Y0101670D01*
X0060903Y0101670D01*
X0060903Y0104070D01*
X0063303Y0104070D01*
X0063303Y0101670D01*
X0063303Y0101670D01*
G37*
G36*
X0059743Y0101364D02*
X0056843Y0101364D01*
X0056843Y0104315D01*
X0059743Y0104315D01*
X0059743Y0101364D01*
X0059743Y0101364D01*
G37*
G36*
X0075071Y0103755D02*
X0075239Y0103685D01*
X0075389Y0103585D01*
X0075518Y0103456D01*
X0075618Y0103306D01*
X0075688Y0103138D01*
X0075723Y0102961D01*
X0075723Y0102779D01*
X0075688Y0102602D01*
X0075618Y0102434D01*
X0075518Y0102284D01*
X0075389Y0102155D01*
X0075239Y0102055D01*
X0075071Y0101985D01*
X0074894Y0101950D01*
X0074712Y0101950D01*
X0074535Y0101985D01*
X0074367Y0102055D01*
X0074217Y0102155D01*
X0074088Y0102284D01*
X0073988Y0102434D01*
X0073918Y0102602D01*
X0073883Y0102779D01*
X0073883Y0102961D01*
X0073918Y0103138D01*
X0073988Y0103306D01*
X0074088Y0103456D01*
X0074217Y0103585D01*
X0074367Y0103685D01*
X0074535Y0103755D01*
X0074712Y0103790D01*
X0074894Y0103790D01*
X0075071Y0103755D01*
X0075071Y0103755D01*
G37*
G36*
X0077611Y0103755D02*
X0077779Y0103685D01*
X0077929Y0103585D01*
X0078058Y0103456D01*
X0078158Y0103306D01*
X0078228Y0103138D01*
X0078263Y0102961D01*
X0078263Y0102779D01*
X0078228Y0102602D01*
X0078158Y0102434D01*
X0078058Y0102284D01*
X0077929Y0102155D01*
X0077779Y0102055D01*
X0077611Y0101985D01*
X0077434Y0101950D01*
X0077252Y0101950D01*
X0077075Y0101985D01*
X0076907Y0102055D01*
X0076757Y0102155D01*
X0076628Y0102284D01*
X0076528Y0102434D01*
X0076458Y0102602D01*
X0076423Y0102779D01*
X0076423Y0102961D01*
X0076458Y0103138D01*
X0076528Y0103306D01*
X0076628Y0103456D01*
X0076757Y0103585D01*
X0076907Y0103685D01*
X0077075Y0103755D01*
X0077252Y0103790D01*
X0077434Y0103790D01*
X0077611Y0103755D01*
X0077611Y0103755D01*
G37*
G36*
X0072531Y0103755D02*
X0072699Y0103685D01*
X0072849Y0103585D01*
X0072978Y0103456D01*
X0073078Y0103306D01*
X0073148Y0103138D01*
X0073183Y0102961D01*
X0073183Y0102779D01*
X0073148Y0102602D01*
X0073078Y0102434D01*
X0072978Y0102284D01*
X0072849Y0102155D01*
X0072699Y0102055D01*
X0072531Y0101985D01*
X0072354Y0101950D01*
X0072172Y0101950D01*
X0071995Y0101985D01*
X0071827Y0102055D01*
X0071677Y0102155D01*
X0071548Y0102284D01*
X0071448Y0102434D01*
X0071378Y0102602D01*
X0071343Y0102779D01*
X0071343Y0102961D01*
X0071378Y0103138D01*
X0071448Y0103306D01*
X0071548Y0103456D01*
X0071677Y0103585D01*
X0071827Y0103685D01*
X0071995Y0103755D01*
X0072172Y0103790D01*
X0072354Y0103790D01*
X0072531Y0103755D01*
X0072531Y0103755D01*
G37*
G36*
X0068780Y0102605D02*
X0067491Y0102605D01*
X0067491Y0104405D01*
X0068780Y0104405D01*
X0068780Y0102605D01*
X0068780Y0102605D01*
G37*
G36*
X0070690Y0102605D02*
X0069391Y0102605D01*
X0069391Y0104405D01*
X0070690Y0104405D01*
X0070690Y0102605D01*
X0070690Y0102605D01*
G37*
G36*
X0076338Y0104126D02*
X0074538Y0104126D01*
X0074538Y0105425D01*
X0076338Y0105425D01*
X0076338Y0104126D01*
X0076338Y0104126D01*
G37*
G36*
X0078878Y0104131D02*
X0077078Y0104131D01*
X0077078Y0105420D01*
X0078878Y0105420D01*
X0078878Y0104131D01*
X0078878Y0104131D01*
G37*
G36*
X0073548Y0105145D02*
X0072249Y0105145D01*
X0072249Y0106945D01*
X0073548Y0106945D01*
X0073548Y0105145D01*
X0073548Y0105145D01*
G37*
G36*
X0071638Y0105145D02*
X0070349Y0105145D01*
X0070349Y0106945D01*
X0071638Y0106945D01*
X0071638Y0105145D01*
X0071638Y0105145D01*
G37*
G36*
X0078878Y0106031D02*
X0077078Y0106031D01*
X0077078Y0107330D01*
X0078878Y0107330D01*
X0078878Y0106031D01*
X0078878Y0106031D01*
G37*
G36*
X0076338Y0106036D02*
X0074538Y0106036D01*
X0074538Y0107325D01*
X0076338Y0107325D01*
X0076338Y0106036D01*
X0076338Y0106036D01*
G37*
G36*
X0027632Y0107496D02*
X0025708Y0107496D01*
X0025708Y0109420D01*
X0027632Y0109420D01*
X0027632Y0107496D01*
X0027632Y0107496D01*
G37*
G36*
X0025092Y0107496D02*
X0023168Y0107496D01*
X0023168Y0109420D01*
X0025092Y0109420D01*
X0025092Y0107496D01*
X0025092Y0107496D01*
G37*
G36*
X0022552Y0107496D02*
X0020628Y0107496D01*
X0020628Y0109420D01*
X0022552Y0109420D01*
X0022552Y0107496D01*
X0022552Y0107496D01*
G37*
G36*
X0072531Y0109470D02*
X0072699Y0109400D01*
X0072849Y0109300D01*
X0072978Y0109171D01*
X0073078Y0109021D01*
X0073148Y0108853D01*
X0073183Y0108676D01*
X0073183Y0108494D01*
X0073148Y0108317D01*
X0073078Y0108149D01*
X0072978Y0107999D01*
X0072849Y0107870D01*
X0072699Y0107770D01*
X0072531Y0107700D01*
X0072354Y0107665D01*
X0072172Y0107665D01*
X0071995Y0107700D01*
X0071827Y0107770D01*
X0071677Y0107870D01*
X0071548Y0107999D01*
X0071448Y0108149D01*
X0071378Y0108317D01*
X0071343Y0108494D01*
X0071343Y0108676D01*
X0071378Y0108853D01*
X0071448Y0109021D01*
X0071548Y0109171D01*
X0071677Y0109300D01*
X0071827Y0109400D01*
X0071995Y0109470D01*
X0072172Y0109505D01*
X0072354Y0109505D01*
X0072531Y0109470D01*
X0072531Y0109470D01*
G37*
G36*
X0075071Y0109470D02*
X0075239Y0109400D01*
X0075389Y0109300D01*
X0075518Y0109171D01*
X0075618Y0109021D01*
X0075688Y0108853D01*
X0075723Y0108676D01*
X0075723Y0108494D01*
X0075688Y0108317D01*
X0075618Y0108149D01*
X0075518Y0107999D01*
X0075389Y0107870D01*
X0075239Y0107770D01*
X0075071Y0107700D01*
X0074894Y0107665D01*
X0074712Y0107665D01*
X0074535Y0107700D01*
X0074367Y0107770D01*
X0074217Y0107870D01*
X0074088Y0107999D01*
X0073988Y0108149D01*
X0073918Y0108317D01*
X0073883Y0108494D01*
X0073883Y0108676D01*
X0073918Y0108853D01*
X0073988Y0109021D01*
X0074088Y0109171D01*
X0074217Y0109300D01*
X0074367Y0109400D01*
X0074535Y0109470D01*
X0074712Y0109505D01*
X0074894Y0109505D01*
X0075071Y0109470D01*
X0075071Y0109470D01*
G37*
G36*
X0077611Y0109470D02*
X0077779Y0109400D01*
X0077929Y0109300D01*
X0078058Y0109171D01*
X0078158Y0109021D01*
X0078228Y0108853D01*
X0078263Y0108676D01*
X0078263Y0108494D01*
X0078228Y0108317D01*
X0078158Y0108149D01*
X0078058Y0107999D01*
X0077929Y0107870D01*
X0077779Y0107770D01*
X0077611Y0107700D01*
X0077434Y0107665D01*
X0077252Y0107665D01*
X0077075Y0107700D01*
X0076907Y0107770D01*
X0076757Y0107870D01*
X0076628Y0107999D01*
X0076528Y0108149D01*
X0076458Y0108317D01*
X0076423Y0108494D01*
X0076423Y0108676D01*
X0076458Y0108853D01*
X0076528Y0109021D01*
X0076628Y0109171D01*
X0076757Y0109300D01*
X0076907Y0109400D01*
X0077075Y0109470D01*
X0077252Y0109505D01*
X0077434Y0109505D01*
X0077611Y0109470D01*
X0077611Y0109470D01*
G37*
G36*
X0069098Y0107685D02*
X0067809Y0107685D01*
X0067809Y0109485D01*
X0069098Y0109485D01*
X0069098Y0107685D01*
X0069098Y0107685D01*
G37*
G36*
X0071008Y0107685D02*
X0069709Y0107685D01*
X0069709Y0109485D01*
X0071008Y0109485D01*
X0071008Y0107685D01*
X0071008Y0107685D01*
G37*
G36*
X0022552Y0110036D02*
X0020628Y0110036D01*
X0020628Y0111960D01*
X0022552Y0111960D01*
X0022552Y0110036D01*
X0022552Y0110036D01*
G37*
G36*
X0025092Y0110036D02*
X0023168Y0110036D01*
X0023168Y0111960D01*
X0025092Y0111960D01*
X0025092Y0110036D01*
X0025092Y0110036D01*
G37*
G36*
X0027632Y0110036D02*
X0025708Y0110036D01*
X0025708Y0111960D01*
X0027632Y0111960D01*
X0027632Y0110036D01*
X0027632Y0110036D01*
G37*
G36*
X0066875Y0112068D02*
X0064951Y0112068D01*
X0064951Y0113992D01*
X0066875Y0113992D01*
X0066875Y0112068D01*
X0066875Y0112068D01*
G37*
G36*
X0069415Y0112068D02*
X0067491Y0112068D01*
X0067491Y0113992D01*
X0069415Y0113992D01*
X0069415Y0112068D01*
X0069415Y0112068D01*
G37*
G36*
X0030801Y0115059D02*
X0031065Y0114950D01*
X0031302Y0114791D01*
X0031504Y0114589D01*
X0031663Y0114352D01*
X0031772Y0114088D01*
X0031828Y0113808D01*
X0031828Y0113522D01*
X0031772Y0113242D01*
X0031663Y0112978D01*
X0031504Y0112741D01*
X0031302Y0112539D01*
X0031065Y0112380D01*
X0030801Y0112271D01*
X0030521Y0112215D01*
X0030235Y0112215D01*
X0029955Y0112271D01*
X0029691Y0112380D01*
X0029454Y0112539D01*
X0029252Y0112741D01*
X0029093Y0112978D01*
X0028984Y0113242D01*
X0028928Y0113522D01*
X0028928Y0113808D01*
X0028984Y0114088D01*
X0029093Y0114352D01*
X0029252Y0114589D01*
X0029454Y0114791D01*
X0029691Y0114950D01*
X0029955Y0115059D01*
X0030235Y0115115D01*
X0030521Y0115115D01*
X0030801Y0115059D01*
X0030801Y0115059D01*
G37*
G36*
X0063428Y0112315D02*
X0060728Y0112315D01*
X0060728Y0115015D01*
X0063428Y0115015D01*
X0063428Y0112315D01*
X0063428Y0112315D01*
G37*
G36*
X0076371Y0118647D02*
X0076954Y0118406D01*
X0077478Y0118056D01*
X0077924Y0117610D01*
X0078274Y0117086D01*
X0078515Y0116503D01*
X0078638Y0115885D01*
X0078638Y0115255D01*
X0078515Y0114637D01*
X0078274Y0114054D01*
X0077924Y0113530D01*
X0077478Y0113084D01*
X0076954Y0112734D01*
X0076371Y0112493D01*
X0075753Y0112370D01*
X0075123Y0112370D01*
X0074505Y0112493D01*
X0073922Y0112734D01*
X0073398Y0113084D01*
X0072952Y0113530D01*
X0072602Y0114054D01*
X0072361Y0114637D01*
X0072238Y0115255D01*
X0072238Y0115885D01*
X0072361Y0116503D01*
X0072602Y0117086D01*
X0072952Y0117610D01*
X0073398Y0118056D01*
X0073922Y0118406D01*
X0074505Y0118647D01*
X0075123Y0118770D01*
X0075753Y0118770D01*
X0076371Y0118647D01*
X0076371Y0118647D01*
G37*
G36*
X0025571Y0118647D02*
X0026154Y0118406D01*
X0026678Y0118056D01*
X0027124Y0117610D01*
X0027474Y0117086D01*
X0027715Y0116503D01*
X0027838Y0115885D01*
X0027838Y0115255D01*
X0027715Y0114637D01*
X0027474Y0114054D01*
X0027124Y0113530D01*
X0026678Y0113084D01*
X0026154Y0112734D01*
X0025571Y0112493D01*
X0024953Y0112370D01*
X0024323Y0112370D01*
X0023705Y0112493D01*
X0023122Y0112734D01*
X0022598Y0113084D01*
X0022152Y0113530D01*
X0021802Y0114054D01*
X0021561Y0114637D01*
X0021438Y0115255D01*
X0021438Y0115885D01*
X0021561Y0116503D01*
X0021802Y0117086D01*
X0022152Y0117610D01*
X0022598Y0118056D01*
X0023122Y0118406D01*
X0023705Y0118647D01*
X0024323Y0118770D01*
X0024953Y0118770D01*
X0025571Y0118647D01*
X0025571Y0118647D01*
G37*
G36*
X0069415Y0114608D02*
X0067491Y0114608D01*
X0067491Y0116532D01*
X0069415Y0116532D01*
X0069415Y0114608D01*
X0069415Y0114608D01*
G37*
G36*
X0066875Y0114608D02*
X0064951Y0114608D01*
X0064951Y0116532D01*
X0066875Y0116532D01*
X0066875Y0114608D01*
X0066875Y0114608D01*
G37*
G36*
X0069415Y0117148D02*
X0067491Y0117148D01*
X0067491Y0119072D01*
X0069415Y0119072D01*
X0069415Y0117148D01*
X0069415Y0117148D01*
G37*
G36*
X0066875Y0117148D02*
X0064951Y0117148D01*
X0064951Y0119072D01*
X0066875Y0119072D01*
X0066875Y0117148D01*
X0066875Y0117148D01*
G37*
X0080264Y0000000D02*
%LPD*%
G01*
D80*
X0128905Y0019749D03*
X0128905Y0021654D03*
D66*
X0124395Y0036896D03*
X0118395Y0036896D03*
X0112395Y0036896D03*
X0106395Y0036896D03*
X0100395Y0036896D03*
X0094395Y0036896D03*
X0124395Y0006596D03*
X0118395Y0006596D03*
X0112395Y0006596D03*
X0106395Y0006596D03*
X0100395Y0006596D03*
X0094395Y0006596D03*
D11*
X0130145Y0036121D03*
X0088645Y0036121D03*
X0130145Y0007371D03*
X0088645Y0007371D03*
D25*
X0087495Y0012746D03*
X0087495Y0018746D03*
X0087495Y0024746D03*
X0087495Y0030746D03*
X0131295Y0012746D03*
X0131295Y0018746D03*
X0131295Y0024746D03*
X0131295Y0030746D03*
D20*
X0111140Y0012446D03*
X0116190Y0012446D03*
D80*
X0091440Y0027051D03*
X0091440Y0025146D03*
D75*
X0114300Y0009271D03*
X0116205Y0009271D03*
X0090742Y0020066D03*
X0092647Y0020066D03*
D80*
X0105918Y0020955D03*
X0105918Y0019050D03*
X0126238Y0020130D03*
X0126238Y0022035D03*
X0119380Y0030163D03*
X0119380Y0028258D03*
X0126365Y0014034D03*
X0126365Y0012129D03*
D75*
X0095949Y0020066D03*
X0094044Y0020066D03*
D80*
X0103886Y0019050D03*
X0103886Y0020955D03*
X0123952Y0022035D03*
X0123952Y0020130D03*
X0121666Y0028258D03*
X0121666Y0030163D03*
X0128905Y0012129D03*
X0128905Y0014034D03*
X0106426Y0022606D03*
X0106426Y0024511D03*
X0108966Y0024638D03*
X0108966Y0022733D03*
X0113538Y0023559D03*
X0113538Y0025464D03*
X0113284Y0019050D03*
X0113284Y0020955D03*
X0123952Y0023940D03*
X0123952Y0025845D03*
D67*
X0124554Y0009906D03*
X0120556Y0009906D03*
D42*
X0128905Y0004191D03*
X0128905Y0001651D03*
X0126365Y0004191D03*
X0126365Y0001651D03*
X0123825Y0004191D03*
X0123825Y0001651D03*
X0135890Y0021336D03*
X0138430Y0021336D03*
X0138430Y0018796D03*
X0135890Y0018796D03*
X0135890Y0016256D03*
X0138430Y0016256D03*
X0135890Y0026416D03*
X0138430Y0026416D03*
X0138430Y0023876D03*
X0135890Y0023876D03*
X0138430Y0011176D03*
X0135890Y0011176D03*
D39*
X0085090Y0035306D03*
X0135890Y0035306D03*
X0135890Y0004826D03*
X0085090Y0004826D03*
D80*
X0101600Y0020066D03*
X0101600Y0021971D03*
X0121920Y0017844D03*
X0121920Y0015939D03*
X0117094Y0028258D03*
X0117094Y0030163D03*
D75*
X0122238Y0013716D03*
X0124143Y0013716D03*
X0093980Y0017526D03*
X0092075Y0017526D03*
D80*
X0104140Y0024511D03*
X0104140Y0022606D03*
X0110998Y0024638D03*
X0110998Y0022733D03*
X0110998Y0020955D03*
X0110998Y0019050D03*
D75*
X0127699Y0024130D03*
X0125794Y0024130D03*
D49*
X0099220Y0021971D03*
X0099220Y0023241D03*
X0099220Y0024511D03*
X0099220Y0025781D03*
X0093820Y0025781D03*
X0093820Y0024511D03*
X0093820Y0023241D03*
X0093820Y0021971D03*
X0116172Y0019939D03*
X0116172Y0021209D03*
X0116172Y0022479D03*
X0116172Y0023749D03*
X0121572Y0023749D03*
X0121572Y0022479D03*
X0121572Y0021209D03*
X0121572Y0019939D03*
D53*
X0125918Y0028368D03*
X0124968Y0028368D03*
X0124018Y0028368D03*
X0124018Y0031068D03*
X0125918Y0031068D03*
D65*
X0128985Y0015941D03*
X0128985Y0017841D03*
X0126285Y0017841D03*
X0126285Y0016891D03*
X0126285Y0015941D03*
D80*
X0096266Y0016701D03*
X0096266Y0014796D03*
X0098552Y0014732D03*
X0098552Y0016637D03*
D19*
X0102616Y0015748D03*
X0100616Y0016698D03*
X0100616Y0014798D03*
X0094345Y0015301D03*
X0094345Y0013401D03*
X0092345Y0014351D03*
D42*
X0135890Y0013716D03*
X0138430Y0013716D03*
D73*
X0115490Y0003556D03*
D15*
X0116840Y0003556D03*
D73*
X0118190Y0003556D03*
D34*
X0133350Y0012526D03*
D43*
X0133350Y0011176D03*
D34*
X0133350Y0009826D03*
X0104394Y0030560D03*
D43*
X0104394Y0029210D03*
D34*
X0104394Y0027860D03*
D55*
X0128524Y0029782D03*
D22*
X0128524Y0031687D03*
D55*
X0098044Y0020257D03*
D22*
X0098044Y0018352D03*
D60*
X0096560Y0027846D03*
X0096560Y0030386D03*
D28*
X0101560Y0030386D03*
X0080264Y0040132D02*
%LPD*%
G01*
D80*
X0128905Y0059881D03*
X0128905Y0061786D03*
D66*
X0124395Y0077028D03*
X0118395Y0077028D03*
X0112395Y0077028D03*
X0106395Y0077028D03*
X0100395Y0077028D03*
X0094395Y0077028D03*
X0124395Y0046728D03*
X0118395Y0046728D03*
X0112395Y0046728D03*
X0106395Y0046728D03*
X0100395Y0046728D03*
X0094395Y0046728D03*
D11*
X0130145Y0076253D03*
X0088645Y0076253D03*
X0130145Y0047503D03*
X0088645Y0047503D03*
D25*
X0087495Y0052878D03*
X0087495Y0058878D03*
X0087495Y0064878D03*
X0087495Y0070878D03*
X0131295Y0052878D03*
X0131295Y0058878D03*
X0131295Y0064878D03*
X0131295Y0070878D03*
D20*
X0111140Y0052578D03*
X0116190Y0052578D03*
D80*
X0091440Y0067183D03*
X0091440Y0065278D03*
D75*
X0114300Y0049403D03*
X0116205Y0049403D03*
X0090742Y0060198D03*
X0092647Y0060198D03*
D80*
X0105918Y0061087D03*
X0105918Y0059182D03*
X0126238Y0060262D03*
X0126238Y0062167D03*
X0119380Y0070295D03*
X0119380Y0068390D03*
X0126365Y0054166D03*
X0126365Y0052261D03*
D75*
X0095949Y0060198D03*
X0094044Y0060198D03*
D80*
X0103886Y0059182D03*
X0103886Y0061087D03*
X0123952Y0062167D03*
X0123952Y0060262D03*
X0121666Y0068390D03*
X0121666Y0070295D03*
X0128905Y0052261D03*
X0128905Y0054166D03*
X0106426Y0062738D03*
X0106426Y0064643D03*
X0108966Y0064770D03*
X0108966Y0062865D03*
X0113538Y0063691D03*
X0113538Y0065596D03*
X0113284Y0059182D03*
X0113284Y0061087D03*
X0123952Y0064072D03*
X0123952Y0065977D03*
D67*
X0124554Y0050038D03*
X0120556Y0050038D03*
D42*
X0128905Y0044323D03*
X0128905Y0041783D03*
X0126365Y0044323D03*
X0126365Y0041783D03*
X0123825Y0044323D03*
X0123825Y0041783D03*
X0135890Y0061468D03*
X0138430Y0061468D03*
X0138430Y0058928D03*
X0135890Y0058928D03*
X0135890Y0056388D03*
X0138430Y0056388D03*
X0135890Y0066548D03*
X0138430Y0066548D03*
X0138430Y0064008D03*
X0135890Y0064008D03*
X0138430Y0051308D03*
X0135890Y0051308D03*
D39*
X0085090Y0075438D03*
X0135890Y0075438D03*
X0135890Y0044958D03*
X0085090Y0044958D03*
D80*
X0101600Y0060198D03*
X0101600Y0062103D03*
X0121920Y0057976D03*
X0121920Y0056071D03*
X0117094Y0068390D03*
X0117094Y0070295D03*
D75*
X0122238Y0053848D03*
X0124143Y0053848D03*
X0093980Y0057658D03*
X0092075Y0057658D03*
D80*
X0104140Y0064643D03*
X0104140Y0062738D03*
X0110998Y0064770D03*
X0110998Y0062865D03*
X0110998Y0061087D03*
X0110998Y0059182D03*
D75*
X0127699Y0064262D03*
X0125794Y0064262D03*
D49*
X0099220Y0062103D03*
X0099220Y0063373D03*
X0099220Y0064643D03*
X0099220Y0065913D03*
X0093820Y0065913D03*
X0093820Y0064643D03*
X0093820Y0063373D03*
X0093820Y0062103D03*
X0116172Y0060071D03*
X0116172Y0061341D03*
X0116172Y0062611D03*
X0116172Y0063881D03*
X0121572Y0063881D03*
X0121572Y0062611D03*
X0121572Y0061341D03*
X0121572Y0060071D03*
D53*
X0125918Y0068500D03*
X0124968Y0068500D03*
X0124018Y0068500D03*
X0124018Y0071200D03*
X0125918Y0071200D03*
D65*
X0128985Y0056073D03*
X0128985Y0057973D03*
X0126285Y0057973D03*
X0126285Y0057023D03*
X0126285Y0056073D03*
D80*
X0096266Y0056833D03*
X0096266Y0054928D03*
X0098552Y0054864D03*
X0098552Y0056769D03*
D19*
X0102616Y0055880D03*
X0100616Y0056830D03*
X0100616Y0054930D03*
X0094345Y0055433D03*
X0094345Y0053533D03*
X0092345Y0054483D03*
D42*
X0135890Y0053848D03*
X0138430Y0053848D03*
D73*
X0115490Y0043688D03*
D15*
X0116840Y0043688D03*
D73*
X0118190Y0043688D03*
D34*
X0133350Y0052658D03*
D43*
X0133350Y0051308D03*
D34*
X0133350Y0049958D03*
X0104394Y0070692D03*
D43*
X0104394Y0069342D03*
D34*
X0104394Y0067992D03*
D55*
X0128524Y0069914D03*
D22*
X0128524Y0071819D03*
D55*
X0098044Y0060389D03*
D22*
X0098044Y0058484D03*
D60*
X0096560Y0067978D03*
X0096560Y0070518D03*
D28*
X0101560Y0070518D03*
X0080264Y0080264D02*
%LPD*%
G01*
D80*
X0128905Y0100013D03*
X0128905Y0101918D03*
D66*
X0124395Y0117160D03*
X0118395Y0117160D03*
X0112395Y0117160D03*
X0106395Y0117160D03*
X0100395Y0117160D03*
X0094395Y0117160D03*
X0124395Y0086860D03*
X0118395Y0086860D03*
X0112395Y0086860D03*
X0106395Y0086860D03*
X0100395Y0086860D03*
X0094395Y0086860D03*
D11*
X0130145Y0116385D03*
X0088645Y0116385D03*
X0130145Y0087635D03*
X0088645Y0087635D03*
D25*
X0087495Y0093010D03*
X0087495Y0099010D03*
X0087495Y0105010D03*
X0087495Y0111010D03*
X0131295Y0093010D03*
X0131295Y0099010D03*
X0131295Y0105010D03*
X0131295Y0111010D03*
D20*
X0111140Y0092710D03*
X0116190Y0092710D03*
D80*
X0091440Y0107315D03*
X0091440Y0105410D03*
D75*
X0114300Y0089535D03*
X0116205Y0089535D03*
X0090742Y0100330D03*
X0092647Y0100330D03*
D80*
X0105918Y0101219D03*
X0105918Y0099314D03*
X0126238Y0100394D03*
X0126238Y0102299D03*
X0119380Y0110427D03*
X0119380Y0108522D03*
X0126365Y0094298D03*
X0126365Y0092393D03*
D75*
X0095949Y0100330D03*
X0094044Y0100330D03*
D80*
X0103886Y0099314D03*
X0103886Y0101219D03*
X0123952Y0102299D03*
X0123952Y0100394D03*
X0121666Y0108522D03*
X0121666Y0110427D03*
X0128905Y0092393D03*
X0128905Y0094298D03*
X0106426Y0102870D03*
X0106426Y0104775D03*
X0108966Y0104902D03*
X0108966Y0102997D03*
X0113538Y0103823D03*
X0113538Y0105728D03*
X0113284Y0099314D03*
X0113284Y0101219D03*
X0123952Y0104204D03*
X0123952Y0106109D03*
D67*
X0124554Y0090170D03*
X0120556Y0090170D03*
D42*
X0128905Y0084455D03*
X0128905Y0081915D03*
X0126365Y0084455D03*
X0126365Y0081915D03*
X0123825Y0084455D03*
X0123825Y0081915D03*
X0135890Y0101600D03*
X0138430Y0101600D03*
X0138430Y0099060D03*
X0135890Y0099060D03*
X0135890Y0096520D03*
X0138430Y0096520D03*
X0135890Y0106680D03*
X0138430Y0106680D03*
X0138430Y0104140D03*
X0135890Y0104140D03*
X0138430Y0091440D03*
X0135890Y0091440D03*
D39*
X0085090Y0115570D03*
X0135890Y0115570D03*
X0135890Y0085090D03*
X0085090Y0085090D03*
D80*
X0101600Y0100330D03*
X0101600Y0102235D03*
X0121920Y0098108D03*
X0121920Y0096203D03*
X0117094Y0108522D03*
X0117094Y0110427D03*
D75*
X0122238Y0093980D03*
X0124143Y0093980D03*
X0093980Y0097790D03*
X0092075Y0097790D03*
D80*
X0104140Y0104775D03*
X0104140Y0102870D03*
X0110998Y0104902D03*
X0110998Y0102997D03*
X0110998Y0101219D03*
X0110998Y0099314D03*
D75*
X0127699Y0104394D03*
X0125794Y0104394D03*
D49*
X0099220Y0102235D03*
X0099220Y0103505D03*
X0099220Y0104775D03*
X0099220Y0106045D03*
X0093820Y0106045D03*
X0093820Y0104775D03*
X0093820Y0103505D03*
X0093820Y0102235D03*
X0116172Y0100203D03*
X0116172Y0101473D03*
X0116172Y0102743D03*
X0116172Y0104013D03*
X0121572Y0104013D03*
X0121572Y0102743D03*
X0121572Y0101473D03*
X0121572Y0100203D03*
D53*
X0125918Y0108632D03*
X0124968Y0108632D03*
X0124018Y0108632D03*
X0124018Y0111332D03*
X0125918Y0111332D03*
D65*
X0128985Y0096205D03*
X0128985Y0098105D03*
X0126285Y0098105D03*
X0126285Y0097155D03*
X0126285Y0096205D03*
D80*
X0096266Y0096965D03*
X0096266Y0095060D03*
X0098552Y0094996D03*
X0098552Y0096901D03*
D19*
X0102616Y0096012D03*
X0100616Y0096962D03*
X0100616Y0095062D03*
X0094345Y0095565D03*
X0094345Y0093665D03*
X0092345Y0094615D03*
D42*
X0135890Y0093980D03*
X0138430Y0093980D03*
D73*
X0115490Y0083820D03*
D15*
X0116840Y0083820D03*
D73*
X0118190Y0083820D03*
D34*
X0133350Y0092790D03*
D43*
X0133350Y0091440D03*
D34*
X0133350Y0090090D03*
X0104394Y0110824D03*
D43*
X0104394Y0109474D03*
D34*
X0104394Y0108124D03*
D55*
X0128524Y0110046D03*
D22*
X0128524Y0111951D03*
D55*
X0098044Y0100521D03*
D22*
X0098044Y0098616D03*
D60*
X0096560Y0108110D03*
X0096560Y0110650D03*
D28*
X0101560Y0110650D03*
M02*
