M48
METRIC,000.000             
%
T01C0.400000
X4191Y27234
X6096Y22606
X9906Y18979
X13716Y24511
X13716Y18979
X15621Y25781
X17780Y30416
X4191Y67366
X6096Y62738
X9906Y59111
X13716Y64643
X13716Y59111
X15621Y65913
X17780Y70548
X4191Y107498
X6096Y102870
X9906Y99243
X13716Y104775
X13716Y99243
X15621Y106045
X17780Y110680
X47244Y22606
X69088Y21336
X76073Y20701
X47244Y62738
X69088Y61468
X76073Y60833
X47244Y102870
X69088Y101600
X76073Y100965
X88392Y26162
X88900Y24130
X89697Y20536
X91159Y22887
X91440Y12446
X92710Y27051
X93345Y12446
X93980Y31496
X93980Y28956
X93980Y27051
X95250Y18542
X95885Y32131
X95885Y12446
X96012Y17745
X96266Y22098
X97282Y25400
X97790Y32131
X97790Y12446
X99568Y19050
X99695Y32131
X99695Y12446
X100965Y11176
X101863Y17650
X102870Y27940
X103505Y32131
X103505Y11176
X104140Y17526
X104775Y32131
X105410Y17526
X105918Y27178
X105918Y25908
X106045Y11811
X106680Y17526
X107315Y13716
X107950Y27178
X107950Y25908
X108839Y20320
X108839Y19050
X108839Y17780
X109982Y17526
X111125Y28321
X111125Y10541
X111125Y8636
X111252Y17526
X111506Y35052
X111760Y33528
X112395Y28956
X112395Y27051
X112395Y10541
X112395Y8636
X112395Y4826
X112395Y3556
X112395Y1651
X112522Y17526
X113665Y14986
X113665Y13716
X113665Y11811
X113665Y1651
X114300Y33528
X114300Y30988
X114935Y1651
X115062Y28702
X115062Y16256
X116062Y25019
X116078Y33528
X116840Y32258
X116840Y26416
X116840Y18542
X116840Y17653
X116840Y14986
X116840Y1651
X116967Y25019
X117818Y20828
X118110Y26416
X118580Y13716
X118580Y11811
X118745Y32131
X119418Y23876
X119628Y24898
X119634Y20828
X119888Y19304
X120015Y22606
X120396Y14732
X120650Y32131
X120650Y25616
X121920Y32131
X121980Y6096
X121980Y4826
X122555Y34036
X123825Y32766
X123825Y18161
X123825Y11811
X124968Y22098
X125095Y34036
X125095Y26416
X125095Y18161
X125730Y25781
X126365Y34036
X126746Y9652
X130175Y26416
X130175Y4826
X130556Y28956
X130810Y20066
X131445Y22606
X132334Y29210
X132715Y20066
X134366Y28956
X88392Y66294
X88900Y64262
X89697Y60668
X91159Y63019
X91440Y52578
X92710Y67183
X93345Y52578
X93980Y71628
X93980Y69088
X93980Y67183
X95250Y58674
X95885Y72263
X95885Y52578
X96012Y57877
X96266Y62230
X97282Y65532
X97790Y72263
X97790Y52578
X99568Y59182
X99695Y72263
X99695Y52578
X100965Y51308
X101863Y57782
X102870Y68072
X103505Y72263
X103505Y51308
X104140Y57658
X104775Y72263
X105410Y57658
X105918Y67310
X105918Y66040
X106045Y51943
X106680Y57658
X107315Y53848
X107950Y67310
X107950Y66040
X108839Y60452
X108839Y59182
X108839Y57912
X109982Y57658
X111125Y68453
X111125Y50673
X111125Y48768
X111252Y57658
X111506Y75184
X111760Y73660
X112395Y69088
X112395Y67183
X112395Y50673
X112395Y48768
X112395Y44958
X112395Y43688
X112395Y41783
X112522Y57658
X113665Y55118
X113665Y53848
X113665Y51943
X113665Y41783
X114300Y73660
X114300Y71120
X114935Y41783
X115062Y68834
X115062Y56388
X116062Y65151
X116078Y73660
X116840Y72390
X116840Y66548
X116840Y58674
X116840Y57785
X116840Y55118
X116840Y41783
X116967Y65151
X117818Y60960
X118110Y66548
X118580Y53848
X118580Y51943
X118745Y72263
X119418Y64008
X119628Y65030
X119634Y60960
X119888Y59436
X120015Y62738
X120396Y54864
X120650Y72263
X120650Y65748
X121920Y72263
X121980Y46228
X121980Y44958
X122555Y74168
X123825Y72898
X123825Y58293
X123825Y51943
X124968Y62230
X125095Y74168
X125095Y66548
X125095Y58293
X125730Y65913
X126365Y74168
X126746Y49784
X130175Y66548
X130175Y44958
X130556Y69088
X130810Y60198
X131445Y62738
X132334Y69342
X132715Y60198
X134366Y69088
X88392Y106426
X88900Y104394
X89697Y100800
X91159Y103151
X91440Y92710
X92710Y107315
X93345Y92710
X93980Y111760
X93980Y109220
X93980Y107315
X95250Y98806
X95885Y112395
X95885Y92710
X96012Y98009
X96266Y102362
X97282Y105664
X97790Y112395
X97790Y92710
X99568Y99314
X99695Y112395
X99695Y92710
X100965Y91440
X101863Y97914
X102870Y108204
X103505Y112395
X103505Y91440
X104140Y97790
X104775Y112395
X105410Y97790
X105918Y107442
X105918Y106172
X106045Y92075
X106680Y97790
X107315Y93980
X107950Y107442
X107950Y106172
X108839Y100584
X108839Y99314
X108839Y98044
X109982Y97790
X111125Y108585
X111125Y90805
X111125Y88900
X111252Y97790
X111506Y115316
X111760Y113792
X112395Y109220
X112395Y107315
X112395Y90805
X112395Y88900
X112395Y85090
X112395Y83820
X112395Y81915
X112522Y97790
X113665Y95250
X113665Y93980
X113665Y92075
X113665Y81915
X114300Y113792
X114300Y111252
X114935Y81915
X115062Y108966
X115062Y96520
X116062Y105283
X116078Y113792
X116840Y112522
X116840Y106680
X116840Y98806
X116840Y97917
X116840Y95250
X116840Y81915
X116967Y105283
X117818Y101092
X118110Y106680
X118580Y93980
X118580Y92075
X118745Y112395
X119418Y104140
X119628Y105162
X119634Y101092
X119888Y99568
X120015Y102870
X120396Y94996
X120650Y112395
X120650Y105880
X121920Y112395
X121980Y86360
X121980Y85090
X122555Y114300
X123825Y113030
X123825Y98425
X123825Y92075
X124968Y102362
X125095Y114300
X125095Y106680
X125095Y98425
X125730Y106045
X126365Y114300
X126746Y89916
X130175Y106680
X130175Y85090
X130556Y109220
X130810Y100330
X131445Y102870
X132334Y109474
X132715Y100330
X134366Y109220
T02C0.762000
X101560Y30386
X101560Y70518
X101560Y110650
T03C0.800000
X72263Y22606
X74803Y22606
X77343Y22606
X72263Y16891
X74803Y16891
X77343Y16891
X72263Y28321
X74803Y28321
X77343Y28321
X72263Y11176
X74803Y11176
X77343Y11176
X72263Y62738
X74803Y62738
X77343Y62738
X72263Y57023
X74803Y57023
X77343Y57023
X72263Y68453
X74803Y68453
X77343Y68453
X72263Y51308
X74803Y51308
X77343Y51308
X72263Y102870
X74803Y102870
X77343Y102870
X72263Y97155
X74803Y97155
X77343Y97155
X72263Y108585
X74803Y108585
X77343Y108585
X72263Y91440
X74803Y91440
X77343Y91440
T04C0.889000
X9271Y11176
X6731Y11176
X4191Y11176
X11811Y11176
X14351Y11176
X9271Y51308
X6731Y51308
X4191Y51308
X11811Y51308
X14351Y51308
X9271Y91440
X6731Y91440
X4191Y91440
X11811Y91440
X14351Y91440
X24130Y30734
X24130Y28194
X65913Y12446
X65913Y9906
X65913Y2286
X68453Y2286
X65913Y4826
X68453Y4826
X21590Y30734
X21590Y28194
X65913Y32766
X68453Y32766
X26670Y30734
X26670Y28194
X65913Y37846
X68453Y37846
X65913Y35306
X68453Y35306
X24130Y70866
X24130Y68326
X65913Y52578
X65913Y50038
X65913Y42418
X68453Y42418
X65913Y44958
X68453Y44958
X21590Y70866
X21590Y68326
X65913Y72898
X68453Y72898
X26670Y70866
X26670Y68326
X65913Y77978
X68453Y77978
X65913Y75438
X68453Y75438
X24130Y110998
X24130Y108458
X65913Y92710
X65913Y90170
X65913Y82550
X68453Y82550
X65913Y85090
X68453Y85090
X21590Y110998
X21590Y108458
X65913Y113030
X68453Y113030
X26670Y110998
X26670Y108458
X65913Y118110
X68453Y118110
X65913Y115570
X68453Y115570
X135890Y13716
X138430Y13716
X96560Y30386
X96560Y27846
X135890Y21336
X138430Y21336
X135890Y23876
X138430Y23876
X135890Y26416
X138430Y26416
X135890Y16256
X138430Y16256
X135890Y18796
X138430Y18796
X135890Y11176
X138430Y11176
X123825Y4191
X123825Y1651
X126365Y4191
X126365Y1651
X128905Y4191
X128905Y1651
X135890Y53848
X138430Y53848
X96560Y70518
X96560Y67978
X135890Y61468
X138430Y61468
X135890Y64008
X138430Y64008
X135890Y66548
X138430Y66548
X135890Y56388
X138430Y56388
X135890Y58928
X138430Y58928
X135890Y51308
X138430Y51308
X123825Y44323
X123825Y41783
X126365Y44323
X126365Y41783
X128905Y44323
X128905Y41783
X135890Y93980
X138430Y93980
X96560Y110650
X96560Y108110
X135890Y101600
X138430Y101600
X135890Y104140
X138430Y104140
X135890Y106680
X138430Y106680
X135890Y96520
X138430Y96520
X135890Y99060
X138430Y99060
X135890Y91440
X138430Y91440
X123825Y84455
X123825Y81915
X126365Y84455
X126365Y81915
X128905Y84455
X128905Y81915
T05C1.000000
X62103Y22606
X62103Y17606
X62103Y62738
X62103Y57738
X62103Y102870
X62103Y97870
T06C1.200000
X30378Y33401
X62078Y33401
X22123Y20066
X53823Y20066
X30378Y6731
X62078Y6731
X30378Y73533
X62078Y73533
X22123Y60198
X53823Y60198
X30378Y46863
X62078Y46863
X30378Y113665
X62078Y113665
X22123Y100330
X53823Y100330
X30378Y86995
X62078Y86995
T07C3.000000
X4826Y4826
X4826Y35306
X14986Y35306
X14986Y4826
X4826Y44958
X4826Y75438
X14986Y75438
X14986Y44958
X4826Y85090
X4826Y115570
X14986Y115570
X14986Y85090
X24638Y35306
X75438Y35306
X24638Y4826
X75438Y4826
X24638Y75438
X75438Y75438
X24638Y44958
X75438Y44958
X24638Y115570
X75438Y115570
X24638Y85090
X75438Y85090
X135890Y4826
X135890Y35306
X85090Y35306
X85090Y4826
X135890Y44958
X135890Y75438
X85090Y75438
X85090Y44958
X135890Y85090
X135890Y115570
X85090Y115570
X85090Y85090
M30
