G75*
G71*
%MOMM*%
%OFA0B0*%
%FSLAX53Y53*%
%IPPOS*%
%LPD*%
%ADD16C,0.30000*%
%ADD17C,4.00000*%
%ADD25C,0.50000*%
%ADD32R,1.52400X1.52400*%
%ADD33C,6.40000*%
%ADD34R,1.92400X1.92400*%
%ADD37C,0.10000*%
%ADD42C,0.15000*%
%ADD46R,3.81000X3.81000*%
%ADD51C,1.48082*%
%ADD52R,1.65100X1.65100*%
%ADD63C,6.00000*%
%ADD65C,1.90114*%
X0000000Y0000000D02*
G01*
D37*
D17*
X0025144Y0009904D03*
D52*
X0004570Y0011174D03*
X0002030Y0003554D03*
X0002030Y0008634D03*
X0004570Y0003554D03*
X0002030Y0013714D03*
X0002030Y0011174D03*
X0002030Y0006094D03*
X0004570Y0013714D03*
X0004570Y0006094D03*
X0004570Y0008634D03*
X0004570Y0016254D03*
X0002030Y0016254D03*
D63*
X0035304Y0004824D03*
X0035304Y0014984D03*
X0014984Y0014984D03*
X0014984Y0004824D03*
X0000000Y0019810D02*
G01*
D16*
D32*
X0029462Y0024634D03*
X0029462Y0022094D03*
X0026922Y0027174D03*
X0029462Y0027174D03*
D46*
X0034970Y0032000D03*
X0029970Y0032000D03*
X0034970Y0037080D03*
X0029970Y0037080D03*
D32*
X0010666Y0022094D03*
X0010666Y0024634D03*
X0013206Y0022094D03*
X0013206Y0024634D03*
X0015746Y0022094D03*
X0015746Y0024634D03*
X0018286Y0022094D03*
X0018286Y0024634D03*
D46*
X0005158Y0037842D03*
X0010158Y0037842D03*
X0005158Y0032762D03*
X0010158Y0032762D03*
D63*
X0035304Y0044934D03*
X0004824Y0044934D03*
X0004824Y0024634D03*
X0035304Y0024634D03*
D32*
X0026922Y0024634D03*
X0026922Y0022094D03*
X0000000Y0049780D02*
G01*
D16*
D46*
X0005160Y0063242D03*
X0010160Y0063242D03*
X0005160Y0068322D03*
X0010160Y0068322D03*
D63*
X0004826Y0095246D03*
X0035306Y0095246D03*
X0004826Y0054606D03*
X0035306Y0054606D03*
D32*
X0035052Y0077212D03*
X0032512Y0077212D03*
X0032512Y0074672D03*
X0035052Y0074672D03*
X0036576Y0061464D03*
X0034036Y0061464D03*
X0036576Y0064004D03*
X0034036Y0064004D03*
X0009144Y0083816D03*
X0009144Y0086356D03*
X0006604Y0083816D03*
X0006604Y0086356D03*
X0011684Y0083816D03*
X0011684Y0086356D03*
X0035052Y0079752D03*
X0032512Y0079752D03*
X0013208Y0093976D03*
X0013208Y0096516D03*
X0010668Y0093976D03*
X0010668Y0096516D03*
X0014224Y0083816D03*
X0014224Y0086356D03*
X0010414Y0052066D03*
X0010414Y0054606D03*
X0012954Y0052066D03*
X0012954Y0054606D03*
X0015494Y0052066D03*
X0015494Y0054606D03*
D51*
X0009002Y0076196D03*
X0007000Y0076196D03*
D32*
X0004064Y0083816D03*
X0004064Y0086356D03*
D46*
X0022098Y0059860D03*
X0022098Y0054860D03*
X0027098Y0059860D03*
X0027098Y0054860D03*
X0020320Y0089992D03*
X0020320Y0094992D03*
X0025320Y0089992D03*
X0025320Y0094992D03*
D32*
X0035052Y0082292D03*
X0032512Y0082292D03*
X0000000Y0100070D02*
G01*
D16*
D32*
X0006096Y0110738D03*
X0003556Y0110738D03*
X0006096Y0113278D03*
X0003556Y0113278D03*
X0006096Y0115818D03*
X0003556Y0115818D03*
X0036576Y0112516D03*
X0034036Y0112516D03*
X0036576Y0117596D03*
X0034036Y0117596D03*
X0036576Y0115056D03*
X0034036Y0115056D03*
X0036576Y0120136D03*
X0034036Y0120136D03*
X0034036Y0109976D03*
X0036576Y0109976D03*
D46*
X0012954Y0124882D03*
X0012954Y0119882D03*
X0018034Y0124882D03*
X0018034Y0119882D03*
X0023114Y0124882D03*
X0023114Y0119882D03*
X0028194Y0124882D03*
X0028194Y0119882D03*
X0023542Y0102864D03*
X0018542Y0102864D03*
X0023542Y0107944D03*
X0018542Y0107944D03*
D63*
X0004826Y0104896D03*
X0035306Y0125216D03*
X0035306Y0104896D03*
X0004826Y0125216D03*
D25*
X0021782Y0114040D03*
X0020382Y0114040D03*
X0021082Y0114040D03*
D32*
X0008636Y0113278D03*
X0000000Y0130040D02*
G01*
D42*
D34*
X0013780Y0164584D03*
X0013780Y0167124D03*
X0023622Y0134104D03*
X0021082Y0134104D03*
X0023622Y0136644D03*
X0021082Y0136644D03*
X0023622Y0139184D03*
X0021082Y0139184D03*
X0037084Y0155948D03*
X0034544Y0155948D03*
X0037084Y0158488D03*
X0034544Y0158488D03*
X0011240Y0164584D03*
X0011240Y0167124D03*
X0016320Y0164584D03*
X0016320Y0167124D03*
X0018860Y0167124D03*
X0018860Y0164584D03*
X0026495Y0167125D03*
X0026495Y0164585D03*
X0021400Y0167124D03*
X0021400Y0164584D03*
X0016256Y0146550D03*
X0018796Y0146550D03*
X0021336Y0146550D03*
X0006604Y0158234D03*
X0004064Y0158234D03*
X0006604Y0155694D03*
X0004064Y0155694D03*
X0037084Y0148328D03*
X0034544Y0148328D03*
X0037084Y0150868D03*
X0034544Y0150868D03*
X0006604Y0148074D03*
X0004064Y0148074D03*
X0037084Y0143248D03*
X0034544Y0143248D03*
X0037084Y0145788D03*
X0034544Y0145788D03*
X0037084Y0153408D03*
X0034544Y0153408D03*
X0016002Y0139184D03*
X0018542Y0139184D03*
X0016002Y0136644D03*
X0018542Y0136644D03*
X0016002Y0134104D03*
X0018542Y0134104D03*
X0006604Y0150614D03*
X0004064Y0150614D03*
X0006604Y0153154D03*
X0004064Y0153154D03*
D33*
X0035306Y0165346D03*
X0035306Y0134866D03*
X0004826Y0165346D03*
X0004826Y0134866D03*
D65*
X0011049Y0152039D03*
X0011049Y0147157D03*
D34*
X0023955Y0164585D03*
X0023955Y0167125D03*
X0029035Y0164585D03*
X0029035Y0167125D03*
M02*
