G75*
G71*
%MOMM*%
%OFA0B0*%
%FSLAX53Y53*%
%IPPOS*%
%LPD*%
%ADD10C,0.60000*%
%ADD12C,0.25400*%
%ADD15C,0.40000*%
%ADD17C,0.80000*%
%ADD19C,2.00000*%
%ADD20C,0.30000*%
%ADD21C,4.00000*%
%ADD23C,0.15000*%
%ADD24R,1.52400X1.52400*%
%ADD26C,6.00000*%
%ADD28C,0.20000*%
X0000000Y0000000D02*
%LPD*%
G01*
D23*
D26*
X0014986Y0035306D03*
X0004826Y0035306D03*
X0004826Y0004826D03*
X0014986Y0004826D03*
D24*
X0005969Y0029083D03*
X0003429Y0029083D03*
X0005969Y0026543D03*
X0003429Y0026543D03*
X0003429Y0024003D03*
X0005969Y0024003D03*
X0005969Y0021463D03*
X0003429Y0021463D03*
X0003429Y0018923D03*
X0005969Y0018923D03*
X0005969Y0015494D03*
X0003429Y0015494D03*
X0003429Y0012954D03*
X0005969Y0012954D03*
X0005969Y0010414D03*
X0003429Y0010414D03*
X0014630Y0010719D03*
X0017170Y0010719D03*
D17*
X0012954Y0019050D03*
X0011582Y0012040D03*
X0001778Y0018948D03*
X0016307Y0012497D03*
X0017475Y0012446D03*
X0018745Y0012446D03*
X0018999Y0016764D03*
X0018999Y0017678D03*
X0018694Y0018745D03*
X0008077Y0031801D03*
X0011074Y0031750D03*
X0011938Y0008585D03*
X0018186Y0024536D03*
X0017475Y0023825D03*
X0017424Y0024994D03*
X0010363Y0019101D03*
X0008382Y0027940D03*
X0011786Y0017374D03*
X0009970Y0026137D03*
X0014056Y0018898D03*
X0011430Y0021082D03*
X0010770Y0027330D03*
X0015418Y0019136D03*
X0016713Y0015850D03*
X0016871Y0020901D03*
X0016307Y0025756D03*
X0018542Y0023368D03*
X0016662Y0014275D03*
X0017577Y0018136D03*
X0014859Y0015875D03*
X0010719Y0015240D03*
X0012299Y0021836D03*
X0013868Y0028651D03*
D28*
X0003429Y0018923D02*
X0001803Y0018923D01*
X0001803Y0018923D02*
X0001778Y0018948D01*
X0018745Y0012446D02*
X0017475Y0012446D01*
X0018694Y0018745D02*
X0018694Y0017983D01*
X0018694Y0017983D02*
X0018999Y0017678D01*
X0011074Y0031750D02*
X0008128Y0031750D01*
X0008128Y0031750D02*
X0008077Y0031801D01*
D15*
X0017424Y0024994D02*
X0017424Y0023876D01*
X0017424Y0023876D02*
X0017475Y0023825D01*
D17*
X0008382Y0025044D02*
X0008382Y0027940D01*
X0008382Y0024028D02*
X0008382Y0022962D01*
X0008382Y0022962D02*
X0008382Y0020777D01*
X0005969Y0024003D02*
X0007531Y0024003D01*
X0008382Y0023152D02*
X0008382Y0022962D01*
X0007531Y0024003D02*
X0008382Y0023152D01*
X0008382Y0025044D02*
X0008382Y0024028D01*
X0007531Y0024003D02*
X0008382Y0024854D01*
X0008382Y0024854D02*
X0008382Y0025044D01*
X0007531Y0024003D02*
X0007556Y0024028D01*
X0007556Y0024028D02*
X0008382Y0024028D01*
X0003429Y0024003D02*
X0005969Y0024003D01*
X0008382Y0020777D02*
X0008382Y0018732D01*
X0011786Y0017374D02*
X0009740Y0017374D01*
X0009740Y0017374D02*
X0008382Y0018732D01*
X0005131Y0017272D02*
X0006922Y0017272D01*
X0006922Y0017272D02*
X0008382Y0018732D01*
X0003429Y0015570D02*
X0005131Y0017272D01*
X0003429Y0015494D02*
X0003429Y0015570D01*
X0003429Y0012954D02*
X0003429Y0015494D01*
X0003429Y0010414D02*
X0003429Y0012954D01*
D15*
X0013504Y0020015D02*
X0011125Y0020015D01*
X0014056Y0019463D02*
X0013504Y0020015D01*
X0009970Y0025571D02*
X0009970Y0026137D01*
X0014056Y0018898D02*
X0014056Y0019463D01*
X0009970Y0021171D02*
X0009970Y0025571D01*
X0011125Y0020015D02*
X0009970Y0021171D01*
X0010770Y0027330D02*
X0011430Y0026670D01*
X0011430Y0021648D02*
X0011430Y0021082D01*
X0011430Y0026670D02*
X0011430Y0021648D01*
X0005969Y0015494D02*
X0007131Y0015494D01*
X0007131Y0015494D02*
X0008096Y0016459D01*
X0008096Y0016459D02*
X0013307Y0016459D01*
X0013307Y0016459D02*
X0015418Y0018570D01*
X0015418Y0018570D02*
X0015418Y0019136D01*
X0016967Y0020980D02*
X0016764Y0020777D01*
X0016313Y0015450D02*
X0016713Y0015850D01*
X0013818Y0012954D02*
X0016313Y0015450D01*
X0005969Y0012954D02*
X0013818Y0012954D01*
X0016713Y0016415D02*
X0016713Y0015850D01*
X0016764Y0020777D02*
X0016764Y0016466D01*
X0016764Y0016466D02*
X0016713Y0016415D01*
X0016888Y0020901D02*
X0016871Y0020901D01*
X0016967Y0020980D02*
X0016888Y0020901D01*
X0016307Y0025756D02*
X0016307Y0021641D01*
X0016307Y0021641D02*
X0016967Y0020980D01*
X0018142Y0022968D02*
X0018542Y0023368D01*
X0017678Y0022504D02*
X0018142Y0022968D01*
X0017577Y0018701D02*
X0017678Y0018803D01*
X0017577Y0018136D02*
X0017577Y0018701D01*
X0017678Y0018803D02*
X0017678Y0022504D01*
X0017577Y0018136D02*
X0017577Y0015189D01*
X0017577Y0015189D02*
X0017062Y0014675D01*
X0017062Y0014675D02*
X0016662Y0014275D01*
X0016097Y0014275D02*
X0016662Y0014275D01*
X0005969Y0010414D02*
X0012192Y0010414D01*
X0012192Y0010414D02*
X0016053Y0014275D01*
X0016053Y0014275D02*
X0016097Y0014275D01*
D20*
X0014293Y0015875D02*
X0014859Y0015875D01*
X0015259Y0016275D02*
X0014859Y0015875D01*
X0016205Y0020523D02*
X0016205Y0017221D01*
X0011354Y0015875D02*
X0014293Y0015875D01*
X0016205Y0017221D02*
X0015259Y0016275D01*
X0015291Y0021438D02*
X0016205Y0020523D01*
X0010719Y0015240D02*
X0011354Y0015875D01*
X0015291Y0021438D02*
X0014892Y0021836D01*
X0015291Y0021438D02*
X0016053Y0020676D01*
X0014892Y0021836D02*
X0012299Y0021836D01*
D15*
X0013868Y0028651D02*
X0012299Y0027081D01*
X0012299Y0027081D02*
X0012299Y0021836D01*
D12*
G36*
X0019410Y0000402D02*
X0000402Y0000402D01*
X0000402Y0022225D01*
X0002334Y0022225D01*
X0002334Y0020701D01*
X0002359Y0020573D01*
X0002431Y0020465D01*
X0002539Y0020393D01*
X0002667Y0020368D01*
X0004191Y0020368D01*
X0004319Y0020393D01*
X0004427Y0020465D01*
X0004499Y0020573D01*
X0004524Y0020701D01*
X0004524Y0022225D01*
X0004874Y0022225D01*
X0004874Y0020701D01*
X0004899Y0020573D01*
X0004971Y0020465D01*
X0005079Y0020393D01*
X0005207Y0020368D01*
X0006731Y0020368D01*
X0006859Y0020393D01*
X0006967Y0020465D01*
X0007039Y0020573D01*
X0007064Y0020701D01*
X0007064Y0022225D01*
X0007039Y0022353D01*
X0006967Y0022461D01*
X0006859Y0022533D01*
X0006731Y0022558D01*
X0005207Y0022558D01*
X0005079Y0022533D01*
X0004971Y0022461D01*
X0004899Y0022353D01*
X0004874Y0022225D01*
X0004524Y0022225D01*
X0004499Y0022353D01*
X0004427Y0022461D01*
X0004319Y0022533D01*
X0004191Y0022558D01*
X0002667Y0022558D01*
X0002539Y0022533D01*
X0002431Y0022461D01*
X0002359Y0022353D01*
X0002334Y0022225D01*
X0000402Y0022225D01*
X0000402Y0024765D01*
X0002334Y0024765D01*
X0002334Y0023241D01*
X0002359Y0023113D01*
X0002431Y0023005D01*
X0002539Y0022933D01*
X0002667Y0022908D01*
X0004191Y0022908D01*
X0004319Y0022933D01*
X0004427Y0023005D01*
X0004499Y0023113D01*
X0004524Y0023241D01*
X0004524Y0023276D01*
X0004874Y0023276D01*
X0004874Y0023241D01*
X0004899Y0023113D01*
X0004971Y0023005D01*
X0005079Y0022933D01*
X0005207Y0022908D01*
X0006731Y0022908D01*
X0006859Y0022933D01*
X0006967Y0023005D01*
X0007039Y0023113D01*
X0007064Y0023241D01*
X0007064Y0023276D01*
X0007230Y0023276D01*
X0007655Y0022851D01*
X0007655Y0019033D01*
X0006621Y0017999D01*
X0005131Y0017999D01*
X0005131Y0017999D01*
X0004899Y0017953D01*
X0004853Y0017944D01*
X0004617Y0017786D01*
X0004617Y0017786D01*
X0003420Y0016589D01*
X0002667Y0016589D01*
X0002539Y0016564D01*
X0002431Y0016492D01*
X0002359Y0016384D01*
X0002334Y0016256D01*
X0002334Y0014732D01*
X0002359Y0014604D01*
X0002431Y0014496D01*
X0002539Y0014424D01*
X0002667Y0014399D01*
X0002702Y0014399D01*
X0002702Y0014049D01*
X0002667Y0014049D01*
X0002539Y0014024D01*
X0002431Y0013952D01*
X0002359Y0013844D01*
X0002334Y0013716D01*
X0002334Y0012192D01*
X0002359Y0012064D01*
X0002431Y0011956D01*
X0002539Y0011884D01*
X0002667Y0011859D01*
X0002702Y0011859D01*
X0002702Y0011509D01*
X0002667Y0011509D01*
X0002539Y0011484D01*
X0002431Y0011412D01*
X0002359Y0011304D01*
X0002334Y0011176D01*
X0002334Y0009652D01*
X0002359Y0009524D01*
X0002431Y0009416D01*
X0002539Y0009344D01*
X0002667Y0009319D01*
X0004191Y0009319D01*
X0004319Y0009344D01*
X0004427Y0009416D01*
X0004499Y0009524D01*
X0004524Y0009652D01*
X0004524Y0011176D01*
X0004499Y0011304D01*
X0004427Y0011412D01*
X0004319Y0011484D01*
X0004191Y0011509D01*
X0004156Y0011509D01*
X0004156Y0011859D01*
X0004191Y0011859D01*
X0004319Y0011884D01*
X0004427Y0011956D01*
X0004499Y0012064D01*
X0004524Y0012192D01*
X0004524Y0013716D01*
X0004499Y0013844D01*
X0004427Y0013952D01*
X0004319Y0014024D01*
X0004191Y0014049D01*
X0004156Y0014049D01*
X0004156Y0014399D01*
X0004191Y0014399D01*
X0004319Y0014424D01*
X0004427Y0014496D01*
X0004499Y0014604D01*
X0004524Y0014732D01*
X0004524Y0015637D01*
X0004874Y0015987D01*
X0004874Y0014732D01*
X0004899Y0014604D01*
X0004971Y0014496D01*
X0005079Y0014424D01*
X0005207Y0014399D01*
X0006731Y0014399D01*
X0006859Y0014424D01*
X0006967Y0014496D01*
X0007039Y0014604D01*
X0007064Y0014732D01*
X0007064Y0014967D01*
X0007131Y0014967D01*
X0007333Y0015007D01*
X0007504Y0015121D01*
X0008314Y0015932D01*
X0010490Y0015932D01*
X0010308Y0015857D01*
X0010103Y0015652D01*
X0009992Y0015385D01*
X0009992Y0015096D01*
X0010102Y0014829D01*
X0010306Y0014624D01*
X0010574Y0014513D01*
X0010863Y0014513D01*
X0011130Y0014623D01*
X0011335Y0014828D01*
X0011446Y0015095D01*
X0011446Y0015292D01*
X0011551Y0015398D01*
X0014308Y0015398D01*
X0014447Y0015259D01*
X0014714Y0015148D01*
X0015003Y0015148D01*
X0015270Y0015258D01*
X0015475Y0015463D01*
X0015586Y0015730D01*
X0015586Y0015927D01*
X0016214Y0016556D01*
X0016212Y0016545D01*
X0016186Y0016415D01*
X0016186Y0016351D01*
X0016097Y0016262D01*
X0015986Y0015995D01*
X0015986Y0015868D01*
X0013599Y0013481D01*
X0007064Y0013481D01*
X0007064Y0013716D01*
X0007039Y0013844D01*
X0006967Y0013952D01*
X0006859Y0014024D01*
X0006731Y0014049D01*
X0005207Y0014049D01*
X0005079Y0014024D01*
X0004971Y0013952D01*
X0004899Y0013844D01*
X0004874Y0013716D01*
X0004874Y0012192D01*
X0004899Y0012064D01*
X0004971Y0011956D01*
X0005079Y0011884D01*
X0005207Y0011859D01*
X0006731Y0011859D01*
X0006859Y0011884D01*
X0006967Y0011956D01*
X0007039Y0012064D01*
X0007064Y0012192D01*
X0007064Y0012427D01*
X0013460Y0012427D01*
X0011974Y0010941D01*
X0007064Y0010941D01*
X0007064Y0011176D01*
X0007039Y0011304D01*
X0006967Y0011412D01*
X0006859Y0011484D01*
X0006731Y0011509D01*
X0005207Y0011509D01*
X0005079Y0011484D01*
X0004971Y0011412D01*
X0004899Y0011304D01*
X0004874Y0011176D01*
X0004874Y0009652D01*
X0004899Y0009524D01*
X0004971Y0009416D01*
X0005079Y0009344D01*
X0005207Y0009319D01*
X0006731Y0009319D01*
X0006859Y0009344D01*
X0006967Y0009416D01*
X0007039Y0009524D01*
X0007064Y0009652D01*
X0007064Y0009887D01*
X0012192Y0009887D01*
X0012394Y0009927D01*
X0012565Y0010041D01*
X0013535Y0011012D01*
X0013535Y0009957D01*
X0013560Y0009829D01*
X0013633Y0009721D01*
X0013741Y0009649D01*
X0013868Y0009623D01*
X0015392Y0009623D01*
X0015520Y0009649D01*
X0015628Y0009721D01*
X0015700Y0009829D01*
X0015726Y0009957D01*
X0015726Y0011481D01*
X0016075Y0011481D01*
X0016075Y0009957D01*
X0016100Y0009829D01*
X0016173Y0009721D01*
X0016281Y0009649D01*
X0016408Y0009623D01*
X0017932Y0009623D01*
X0018060Y0009649D01*
X0018168Y0009721D01*
X0018240Y0009829D01*
X0018266Y0009957D01*
X0018266Y0011481D01*
X0018240Y0011608D01*
X0018168Y0011717D01*
X0018060Y0011789D01*
X0017932Y0011814D01*
X0016408Y0011814D01*
X0016281Y0011789D01*
X0016173Y0011717D01*
X0016100Y0011608D01*
X0016075Y0011481D01*
X0015726Y0011481D01*
X0015700Y0011608D01*
X0015628Y0011717D01*
X0015520Y0011789D01*
X0015392Y0011814D01*
X0014337Y0011814D01*
X0016216Y0013693D01*
X0016250Y0013659D01*
X0016517Y0013548D01*
X0016806Y0013548D01*
X0017074Y0013658D01*
X0017278Y0013862D01*
X0017389Y0014130D01*
X0017389Y0014256D01*
X0017949Y0014817D01*
X0018064Y0014988D01*
X0018104Y0015189D01*
X0018104Y0017634D01*
X0018193Y0017723D01*
X0018304Y0017990D01*
X0018304Y0018280D01*
X0018193Y0018547D01*
X0018155Y0018586D01*
X0018165Y0018601D01*
X0018205Y0018803D01*
X0018205Y0022286D01*
X0018560Y0022641D01*
X0018686Y0022641D01*
X0018953Y0022751D01*
X0019158Y0022956D01*
X0019269Y0023223D01*
X0019269Y0023512D01*
X0019159Y0023779D01*
X0018954Y0023984D01*
X0018687Y0024095D01*
X0018398Y0024095D01*
X0018131Y0023985D01*
X0017926Y0023780D01*
X0017815Y0023513D01*
X0017815Y0023386D01*
X0017306Y0022877D01*
X0017192Y0022706D01*
X0017192Y0022706D01*
X0017151Y0022504D01*
X0017151Y0021572D01*
X0017099Y0021594D01*
X0016834Y0021859D01*
X0016834Y0025254D01*
X0016923Y0025343D01*
X0017034Y0025610D01*
X0017034Y0025900D01*
X0016923Y0026167D01*
X0016719Y0026372D01*
X0016452Y0026482D01*
X0016163Y0026483D01*
X0015896Y0026372D01*
X0015691Y0026168D01*
X0015580Y0025901D01*
X0015580Y0025612D01*
X0015690Y0025344D01*
X0015780Y0025254D01*
X0015780Y0021641D01*
X0015784Y0021619D01*
X0015230Y0022173D01*
X0015075Y0022277D01*
X0014892Y0022313D01*
X0012850Y0022313D01*
X0012826Y0022337D01*
X0012826Y0026863D01*
X0013887Y0027924D01*
X0014012Y0027924D01*
X0014280Y0028035D01*
X0014484Y0028239D01*
X0014595Y0028506D01*
X0014596Y0028795D01*
X0014485Y0029062D01*
X0014281Y0029267D01*
X0014014Y0029378D01*
X0013724Y0029378D01*
X0013457Y0029268D01*
X0013252Y0029064D01*
X0013142Y0028796D01*
X0013141Y0028670D01*
X0011926Y0027454D01*
X0011812Y0027283D01*
X0011772Y0027081D01*
X0011772Y0027074D01*
X0011497Y0027349D01*
X0011497Y0027474D01*
X0011386Y0027742D01*
X0011182Y0027946D01*
X0010915Y0028057D01*
X0010626Y0028058D01*
X0010358Y0027947D01*
X0010154Y0027743D01*
X0010043Y0027476D01*
X0010042Y0027186D01*
X0010153Y0026919D01*
X0010275Y0026797D01*
X0010115Y0026863D01*
X0009826Y0026864D01*
X0009558Y0026753D01*
X0009354Y0026549D01*
X0009243Y0026282D01*
X0009242Y0025993D01*
X0009353Y0025725D01*
X0009443Y0025635D01*
X0009443Y0021171D01*
X0009483Y0020969D01*
X0009597Y0020798D01*
X0010753Y0019643D01*
X0010867Y0019566D01*
X0010924Y0019528D01*
X0011125Y0019488D01*
X0013286Y0019488D01*
X0013452Y0019322D01*
X0013440Y0019310D01*
X0013329Y0019043D01*
X0013329Y0018754D01*
X0013439Y0018486D01*
X0013644Y0018282D01*
X0013911Y0018171D01*
X0014200Y0018170D01*
X0014324Y0018222D01*
X0013089Y0016986D01*
X0012412Y0016986D01*
X0012512Y0017228D01*
X0012513Y0017518D01*
X0012402Y0017785D01*
X0012198Y0017990D01*
X0011931Y0018100D01*
X0011642Y0018101D01*
X0011641Y0018101D01*
X0010042Y0018101D01*
X0009109Y0019033D01*
X0009109Y0023152D01*
X0009109Y0023152D01*
X0009109Y0023152D01*
X0009109Y0024854D01*
X0009109Y0024854D01*
X0009109Y0024854D01*
X0009109Y0027939D01*
X0009109Y0028084D01*
X0008999Y0028351D01*
X0008794Y0028556D01*
X0008527Y0028667D01*
X0008238Y0028667D01*
X0007971Y0028557D01*
X0007766Y0028352D01*
X0007655Y0028085D01*
X0007655Y0027796D01*
X0007655Y0027796D01*
X0007655Y0025155D01*
X0007230Y0024730D01*
X0007064Y0024730D01*
X0007064Y0024765D01*
X0007039Y0024893D01*
X0006967Y0025001D01*
X0006859Y0025073D01*
X0006731Y0025098D01*
X0005207Y0025098D01*
X0005079Y0025073D01*
X0004971Y0025001D01*
X0004899Y0024893D01*
X0004874Y0024765D01*
X0004874Y0024730D01*
X0004524Y0024730D01*
X0004524Y0024765D01*
X0004499Y0024893D01*
X0004427Y0025001D01*
X0004319Y0025073D01*
X0004191Y0025098D01*
X0002667Y0025098D01*
X0002539Y0025073D01*
X0002431Y0025001D01*
X0002359Y0024893D01*
X0002334Y0024765D01*
X0000402Y0024765D01*
X0000402Y0027305D01*
X0002334Y0027305D01*
X0002334Y0025781D01*
X0002359Y0025653D01*
X0002431Y0025545D01*
X0002539Y0025473D01*
X0002667Y0025448D01*
X0004191Y0025448D01*
X0004319Y0025473D01*
X0004427Y0025545D01*
X0004499Y0025653D01*
X0004524Y0025781D01*
X0004524Y0027305D01*
X0004874Y0027305D01*
X0004874Y0025781D01*
X0004899Y0025653D01*
X0004971Y0025545D01*
X0005079Y0025473D01*
X0005207Y0025448D01*
X0006731Y0025448D01*
X0006859Y0025473D01*
X0006967Y0025545D01*
X0007039Y0025653D01*
X0007064Y0025781D01*
X0007064Y0027305D01*
X0007039Y0027433D01*
X0006967Y0027541D01*
X0006859Y0027613D01*
X0006731Y0027638D01*
X0005207Y0027638D01*
X0005079Y0027613D01*
X0004971Y0027541D01*
X0004899Y0027433D01*
X0004874Y0027305D01*
X0004524Y0027305D01*
X0004499Y0027433D01*
X0004427Y0027541D01*
X0004319Y0027613D01*
X0004191Y0027638D01*
X0002667Y0027638D01*
X0002539Y0027613D01*
X0002431Y0027541D01*
X0002359Y0027433D01*
X0002334Y0027305D01*
X0000402Y0027305D01*
X0000402Y0039730D01*
X0019410Y0039730D01*
X0019410Y0000402D01*
X0019410Y0000402D01*
G37*
X0019410Y0000402D02*
X0000402Y0000402D01*
X0000402Y0022225D01*
X0002334Y0022225D01*
X0002334Y0020701D01*
X0002359Y0020573D01*
X0002431Y0020465D01*
X0002539Y0020393D01*
X0002667Y0020368D01*
X0004191Y0020368D01*
X0004319Y0020393D01*
X0004427Y0020465D01*
X0004499Y0020573D01*
X0004524Y0020701D01*
X0004524Y0022225D01*
X0004874Y0022225D01*
X0004874Y0020701D01*
X0004899Y0020573D01*
X0004971Y0020465D01*
X0005079Y0020393D01*
X0005207Y0020368D01*
X0006731Y0020368D01*
X0006859Y0020393D01*
X0006967Y0020465D01*
X0007039Y0020573D01*
X0007064Y0020701D01*
X0007064Y0022225D01*
X0007039Y0022353D01*
X0006967Y0022461D01*
X0006859Y0022533D01*
X0006731Y0022558D01*
X0005207Y0022558D01*
X0005079Y0022533D01*
X0004971Y0022461D01*
X0004899Y0022353D01*
X0004874Y0022225D01*
X0004524Y0022225D01*
X0004499Y0022353D01*
X0004427Y0022461D01*
X0004319Y0022533D01*
X0004191Y0022558D01*
X0002667Y0022558D01*
X0002539Y0022533D01*
X0002431Y0022461D01*
X0002359Y0022353D01*
X0002334Y0022225D01*
X0000402Y0022225D01*
X0000402Y0024765D01*
X0002334Y0024765D01*
X0002334Y0023241D01*
X0002359Y0023113D01*
X0002431Y0023005D01*
X0002539Y0022933D01*
X0002667Y0022908D01*
X0004191Y0022908D01*
X0004319Y0022933D01*
X0004427Y0023005D01*
X0004499Y0023113D01*
X0004524Y0023241D01*
X0004524Y0023276D01*
X0004874Y0023276D01*
X0004874Y0023241D01*
X0004899Y0023113D01*
X0004971Y0023005D01*
X0005079Y0022933D01*
X0005207Y0022908D01*
X0006731Y0022908D01*
X0006859Y0022933D01*
X0006967Y0023005D01*
X0007039Y0023113D01*
X0007064Y0023241D01*
X0007064Y0023276D01*
X0007230Y0023276D01*
X0007655Y0022851D01*
X0007655Y0019033D01*
X0006621Y0017999D01*
X0005131Y0017999D01*
X0005131Y0017999D01*
X0004899Y0017953D01*
X0004853Y0017944D01*
X0004617Y0017786D01*
X0004617Y0017786D01*
X0003420Y0016589D01*
X0002667Y0016589D01*
X0002539Y0016564D01*
X0002431Y0016492D01*
X0002359Y0016384D01*
X0002334Y0016256D01*
X0002334Y0014732D01*
X0002359Y0014604D01*
X0002431Y0014496D01*
X0002539Y0014424D01*
X0002667Y0014399D01*
X0002702Y0014399D01*
X0002702Y0014049D01*
X0002667Y0014049D01*
X0002539Y0014024D01*
X0002431Y0013952D01*
X0002359Y0013844D01*
X0002334Y0013716D01*
X0002334Y0012192D01*
X0002359Y0012064D01*
X0002431Y0011956D01*
X0002539Y0011884D01*
X0002667Y0011859D01*
X0002702Y0011859D01*
X0002702Y0011509D01*
X0002667Y0011509D01*
X0002539Y0011484D01*
X0002431Y0011412D01*
X0002359Y0011304D01*
X0002334Y0011176D01*
X0002334Y0009652D01*
X0002359Y0009524D01*
X0002431Y0009416D01*
X0002539Y0009344D01*
X0002667Y0009319D01*
X0004191Y0009319D01*
X0004319Y0009344D01*
X0004427Y0009416D01*
X0004499Y0009524D01*
X0004524Y0009652D01*
X0004524Y0011176D01*
X0004499Y0011304D01*
X0004427Y0011412D01*
X0004319Y0011484D01*
X0004191Y0011509D01*
X0004156Y0011509D01*
X0004156Y0011859D01*
X0004191Y0011859D01*
X0004319Y0011884D01*
X0004427Y0011956D01*
X0004499Y0012064D01*
X0004524Y0012192D01*
X0004524Y0013716D01*
X0004499Y0013844D01*
X0004427Y0013952D01*
X0004319Y0014024D01*
X0004191Y0014049D01*
X0004156Y0014049D01*
X0004156Y0014399D01*
X0004191Y0014399D01*
X0004319Y0014424D01*
X0004427Y0014496D01*
X0004499Y0014604D01*
X0004524Y0014732D01*
X0004524Y0015637D01*
X0004874Y0015987D01*
X0004874Y0014732D01*
X0004899Y0014604D01*
X0004971Y0014496D01*
X0005079Y0014424D01*
X0005207Y0014399D01*
X0006731Y0014399D01*
X0006859Y0014424D01*
X0006967Y0014496D01*
X0007039Y0014604D01*
X0007064Y0014732D01*
X0007064Y0014967D01*
X0007131Y0014967D01*
X0007333Y0015007D01*
X0007504Y0015121D01*
X0008314Y0015932D01*
X0010490Y0015932D01*
X0010308Y0015857D01*
X0010103Y0015652D01*
X0009992Y0015385D01*
X0009992Y0015096D01*
X0010102Y0014829D01*
X0010306Y0014624D01*
X0010574Y0014513D01*
X0010863Y0014513D01*
X0011130Y0014623D01*
X0011335Y0014828D01*
X0011446Y0015095D01*
X0011446Y0015292D01*
X0011551Y0015398D01*
X0014308Y0015398D01*
X0014447Y0015259D01*
X0014714Y0015148D01*
X0015003Y0015148D01*
X0015270Y0015258D01*
X0015475Y0015463D01*
X0015586Y0015730D01*
X0015586Y0015927D01*
X0016214Y0016556D01*
X0016212Y0016545D01*
X0016186Y0016415D01*
X0016186Y0016351D01*
X0016097Y0016262D01*
X0015986Y0015995D01*
X0015986Y0015868D01*
X0013599Y0013481D01*
X0007064Y0013481D01*
X0007064Y0013716D01*
X0007039Y0013844D01*
X0006967Y0013952D01*
X0006859Y0014024D01*
X0006731Y0014049D01*
X0005207Y0014049D01*
X0005079Y0014024D01*
X0004971Y0013952D01*
X0004899Y0013844D01*
X0004874Y0013716D01*
X0004874Y0012192D01*
X0004899Y0012064D01*
X0004971Y0011956D01*
X0005079Y0011884D01*
X0005207Y0011859D01*
X0006731Y0011859D01*
X0006859Y0011884D01*
X0006967Y0011956D01*
X0007039Y0012064D01*
X0007064Y0012192D01*
X0007064Y0012427D01*
X0013460Y0012427D01*
X0011974Y0010941D01*
X0007064Y0010941D01*
X0007064Y0011176D01*
X0007039Y0011304D01*
X0006967Y0011412D01*
X0006859Y0011484D01*
X0006731Y0011509D01*
X0005207Y0011509D01*
X0005079Y0011484D01*
X0004971Y0011412D01*
X0004899Y0011304D01*
X0004874Y0011176D01*
X0004874Y0009652D01*
X0004899Y0009524D01*
X0004971Y0009416D01*
X0005079Y0009344D01*
X0005207Y0009319D01*
X0006731Y0009319D01*
X0006859Y0009344D01*
X0006967Y0009416D01*
X0007039Y0009524D01*
X0007064Y0009652D01*
X0007064Y0009887D01*
X0012192Y0009887D01*
X0012394Y0009927D01*
X0012565Y0010041D01*
X0013535Y0011012D01*
X0013535Y0009957D01*
X0013560Y0009829D01*
X0013633Y0009721D01*
X0013741Y0009649D01*
X0013868Y0009623D01*
X0015392Y0009623D01*
X0015520Y0009649D01*
X0015628Y0009721D01*
X0015700Y0009829D01*
X0015726Y0009957D01*
X0015726Y0011481D01*
X0016075Y0011481D01*
X0016075Y0009957D01*
X0016100Y0009829D01*
X0016173Y0009721D01*
X0016281Y0009649D01*
X0016408Y0009623D01*
X0017932Y0009623D01*
X0018060Y0009649D01*
X0018168Y0009721D01*
X0018240Y0009829D01*
X0018266Y0009957D01*
X0018266Y0011481D01*
X0018240Y0011608D01*
X0018168Y0011717D01*
X0018060Y0011789D01*
X0017932Y0011814D01*
X0016408Y0011814D01*
X0016281Y0011789D01*
X0016173Y0011717D01*
X0016100Y0011608D01*
X0016075Y0011481D01*
X0015726Y0011481D01*
X0015700Y0011608D01*
X0015628Y0011717D01*
X0015520Y0011789D01*
X0015392Y0011814D01*
X0014337Y0011814D01*
X0016216Y0013693D01*
X0016250Y0013659D01*
X0016517Y0013548D01*
X0016806Y0013548D01*
X0017074Y0013658D01*
X0017278Y0013862D01*
X0017389Y0014130D01*
X0017389Y0014256D01*
X0017949Y0014817D01*
X0018064Y0014988D01*
X0018104Y0015189D01*
X0018104Y0017634D01*
X0018193Y0017723D01*
X0018304Y0017990D01*
X0018304Y0018280D01*
X0018193Y0018547D01*
X0018155Y0018586D01*
X0018165Y0018601D01*
X0018205Y0018803D01*
X0018205Y0022286D01*
X0018560Y0022641D01*
X0018686Y0022641D01*
X0018953Y0022751D01*
X0019158Y0022956D01*
X0019269Y0023223D01*
X0019269Y0023512D01*
X0019159Y0023779D01*
X0018954Y0023984D01*
X0018687Y0024095D01*
X0018398Y0024095D01*
X0018131Y0023985D01*
X0017926Y0023780D01*
X0017815Y0023513D01*
X0017815Y0023386D01*
X0017306Y0022877D01*
X0017192Y0022706D01*
X0017192Y0022706D01*
X0017151Y0022504D01*
X0017151Y0021572D01*
X0017099Y0021594D01*
X0016834Y0021859D01*
X0016834Y0025254D01*
X0016923Y0025343D01*
X0017034Y0025610D01*
X0017034Y0025900D01*
X0016923Y0026167D01*
X0016719Y0026372D01*
X0016452Y0026482D01*
X0016163Y0026483D01*
X0015896Y0026372D01*
X0015691Y0026168D01*
X0015580Y0025901D01*
X0015580Y0025612D01*
X0015690Y0025344D01*
X0015780Y0025254D01*
X0015780Y0021641D01*
X0015784Y0021619D01*
X0015230Y0022173D01*
X0015075Y0022277D01*
X0014892Y0022313D01*
X0012850Y0022313D01*
X0012826Y0022337D01*
X0012826Y0026863D01*
X0013887Y0027924D01*
X0014012Y0027924D01*
X0014280Y0028035D01*
X0014484Y0028239D01*
X0014595Y0028506D01*
X0014596Y0028795D01*
X0014485Y0029062D01*
X0014281Y0029267D01*
X0014014Y0029378D01*
X0013724Y0029378D01*
X0013457Y0029268D01*
X0013252Y0029064D01*
X0013142Y0028796D01*
X0013141Y0028670D01*
X0011926Y0027454D01*
X0011812Y0027283D01*
X0011772Y0027081D01*
X0011772Y0027074D01*
X0011497Y0027349D01*
X0011497Y0027474D01*
X0011386Y0027742D01*
X0011182Y0027946D01*
X0010915Y0028057D01*
X0010626Y0028058D01*
X0010358Y0027947D01*
X0010154Y0027743D01*
X0010043Y0027476D01*
X0010042Y0027186D01*
X0010153Y0026919D01*
X0010275Y0026797D01*
X0010115Y0026863D01*
X0009826Y0026864D01*
X0009558Y0026753D01*
X0009354Y0026549D01*
X0009243Y0026282D01*
X0009242Y0025993D01*
X0009353Y0025725D01*
X0009443Y0025635D01*
X0009443Y0021171D01*
X0009483Y0020969D01*
X0009597Y0020798D01*
X0010753Y0019643D01*
X0010867Y0019566D01*
X0010924Y0019528D01*
X0011125Y0019488D01*
X0013286Y0019488D01*
X0013452Y0019322D01*
X0013440Y0019310D01*
X0013329Y0019043D01*
X0013329Y0018754D01*
X0013439Y0018486D01*
X0013644Y0018282D01*
X0013911Y0018171D01*
X0014200Y0018170D01*
X0014324Y0018222D01*
X0013089Y0016986D01*
X0012412Y0016986D01*
X0012512Y0017228D01*
X0012513Y0017518D01*
X0012402Y0017785D01*
X0012198Y0017990D01*
X0011931Y0018100D01*
X0011642Y0018101D01*
X0011641Y0018101D01*
X0010042Y0018101D01*
X0009109Y0019033D01*
X0009109Y0023152D01*
X0009109Y0023152D01*
X0009109Y0023152D01*
X0009109Y0024854D01*
X0009109Y0024854D01*
X0009109Y0024854D01*
X0009109Y0027939D01*
X0009109Y0028084D01*
X0008999Y0028351D01*
X0008794Y0028556D01*
X0008527Y0028667D01*
X0008238Y0028667D01*
X0007971Y0028557D01*
X0007766Y0028352D01*
X0007655Y0028085D01*
X0007655Y0027796D01*
X0007655Y0027796D01*
X0007655Y0025155D01*
X0007230Y0024730D01*
X0007064Y0024730D01*
X0007064Y0024765D01*
X0007039Y0024893D01*
X0006967Y0025001D01*
X0006859Y0025073D01*
X0006731Y0025098D01*
X0005207Y0025098D01*
X0005079Y0025073D01*
X0004971Y0025001D01*
X0004899Y0024893D01*
X0004874Y0024765D01*
X0004874Y0024730D01*
X0004524Y0024730D01*
X0004524Y0024765D01*
X0004499Y0024893D01*
X0004427Y0025001D01*
X0004319Y0025073D01*
X0004191Y0025098D01*
X0002667Y0025098D01*
X0002539Y0025073D01*
X0002431Y0025001D01*
X0002359Y0024893D01*
X0002334Y0024765D01*
X0000402Y0024765D01*
X0000402Y0027305D01*
X0002334Y0027305D01*
X0002334Y0025781D01*
X0002359Y0025653D01*
X0002431Y0025545D01*
X0002539Y0025473D01*
X0002667Y0025448D01*
X0004191Y0025448D01*
X0004319Y0025473D01*
X0004427Y0025545D01*
X0004499Y0025653D01*
X0004524Y0025781D01*
X0004524Y0027305D01*
X0004874Y0027305D01*
X0004874Y0025781D01*
X0004899Y0025653D01*
X0004971Y0025545D01*
X0005079Y0025473D01*
X0005207Y0025448D01*
X0006731Y0025448D01*
X0006859Y0025473D01*
X0006967Y0025545D01*
X0007039Y0025653D01*
X0007064Y0025781D01*
X0007064Y0027305D01*
X0007039Y0027433D01*
X0006967Y0027541D01*
X0006859Y0027613D01*
X0006731Y0027638D01*
X0005207Y0027638D01*
X0005079Y0027613D01*
X0004971Y0027541D01*
X0004899Y0027433D01*
X0004874Y0027305D01*
X0004524Y0027305D01*
X0004499Y0027433D01*
X0004427Y0027541D01*
X0004319Y0027613D01*
X0004191Y0027638D01*
X0002667Y0027638D01*
X0002539Y0027613D01*
X0002431Y0027541D01*
X0002359Y0027433D01*
X0002334Y0027305D01*
X0000402Y0027305D01*
X0000402Y0039730D01*
X0019410Y0039730D01*
X0019410Y0000402D01*
X0019810Y0000000D02*
%LPD*%
G01*
D23*
D26*
X0065276Y0025146D03*
X0024636Y0025146D03*
X0024636Y0004826D03*
X0065276Y0004826D03*
D24*
X0033526Y0023876D03*
X0033526Y0026416D03*
X0036066Y0023876D03*
X0036066Y0026416D03*
X0038606Y0026416D03*
X0038606Y0023876D03*
X0041146Y0023876D03*
X0041146Y0026416D03*
X0043686Y0026416D03*
X0043686Y0023876D03*
X0053846Y0023876D03*
X0053846Y0026416D03*
X0056386Y0023876D03*
X0056386Y0026416D03*
X0030986Y0021336D03*
X0033526Y0021336D03*
X0064006Y0018796D03*
X0066546Y0018796D03*
X0064006Y0016256D03*
X0066546Y0016256D03*
D21*
X0047445Y0006033D03*
X0057605Y0006033D03*
D19*
X0053155Y0012393D03*
X0055695Y0012393D03*
X0050615Y0012393D03*
X0049345Y0014933D03*
X0051885Y0014933D03*
X0054425Y0014933D03*
X0039185Y0014933D03*
X0036645Y0014933D03*
X0034105Y0014933D03*
X0035375Y0012393D03*
X0040455Y0012393D03*
X0037915Y0012393D03*
D21*
X0042365Y0006033D03*
X0032205Y0006033D03*
D24*
X0066546Y0013716D03*
X0064006Y0013716D03*
X0064006Y0011176D03*
X0066546Y0011176D03*
X0023366Y0018796D03*
X0025906Y0018796D03*
X0023366Y0016256D03*
X0025906Y0016256D03*
X0023366Y0013716D03*
X0025906Y0013716D03*
X0023366Y0011176D03*
X0025906Y0011176D03*
D17*
X0048766Y0011684D03*
X0047750Y0011684D03*
X0046734Y0011684D03*
X0043686Y0011684D03*
X0042670Y0011684D03*
X0035812Y0010668D03*
X0036320Y0009906D03*
X0035050Y0009906D03*
X0034542Y0010922D03*
X0033272Y0010922D03*
X0034034Y0010160D03*
X0031748Y0009144D03*
X0045464Y0011586D03*
X0033018Y0017018D03*
X0045616Y0015951D03*
X0041908Y0016002D03*
X0043686Y0018019D03*
X0061212Y0016205D03*
X0056386Y0016002D03*
X0050646Y0009855D03*
D28*
X0046734Y0011684D02*
X0047750Y0011684D01*
X0047750Y0011684D02*
X0047750Y0011684D01*
X0043686Y0011684D02*
X0043686Y0011684D01*
X0042670Y0011684D02*
X0043686Y0011684D01*
D10*
X0035666Y0010522D02*
X0035812Y0010668D01*
X0034942Y0010522D02*
X0035666Y0010522D01*
X0034542Y0010922D02*
X0034942Y0010522D01*
X0035050Y0009906D02*
X0036320Y0009906D01*
X0034034Y0010160D02*
X0033272Y0010922D01*
X0024636Y0004826D02*
X0028954Y0009144D01*
X0028954Y0009144D02*
X0031748Y0009144D01*
D17*
X0053084Y0008633D02*
X0053081Y0008636D01*
X0053081Y0008636D02*
X0049023Y0008636D01*
X0049023Y0008636D02*
X0049020Y0008633D01*
X0049020Y0008633D02*
X0049277Y0008633D01*
X0049020Y0008633D02*
X0045464Y0008633D01*
X0045464Y0008633D02*
X0037844Y0008633D01*
D10*
X0045464Y0011586D02*
X0045464Y0011020D01*
X0045464Y0011020D02*
X0045464Y0008633D01*
D17*
X0061463Y0008633D02*
X0053084Y0008633D01*
X0053084Y0008633D02*
X0053155Y0008704D01*
X0053155Y0008704D02*
X0053155Y0012393D01*
X0037844Y0008633D02*
X0034037Y0008633D01*
X0037844Y0008633D02*
X0037915Y0008704D01*
X0037915Y0008704D02*
X0037915Y0012393D01*
X0064006Y0011176D02*
X0061463Y0008633D01*
X0032505Y0016505D02*
X0033018Y0017018D01*
X0034037Y0008633D02*
X0031748Y0010922D01*
X0031748Y0010922D02*
X0031748Y0015748D01*
X0031748Y0015748D02*
X0032505Y0016505D01*
D10*
X0064006Y0013716D02*
X0060004Y0013716D01*
X0056448Y0017272D02*
X0052322Y0017272D01*
X0060004Y0013716D02*
X0056448Y0017272D01*
X0052322Y0017272D02*
X0051885Y0016835D01*
X0051885Y0016835D02*
X0051885Y0014933D01*
X0046016Y0015551D02*
X0045616Y0015951D01*
X0046635Y0014933D02*
X0046016Y0015551D01*
X0049345Y0014933D02*
X0046635Y0014933D01*
X0034105Y0014933D02*
X0034133Y0014933D01*
X0034133Y0014933D02*
X0035964Y0016764D01*
X0035964Y0016764D02*
X0041146Y0016764D01*
X0041146Y0016764D02*
X0041908Y0016002D01*
X0064006Y0018796D02*
X0053846Y0018796D01*
X0053846Y0018796D02*
X0050798Y0018796D01*
X0053846Y0023876D02*
X0053846Y0018796D01*
X0053846Y0026416D02*
X0053846Y0023876D01*
X0049345Y0017343D02*
X0049345Y0014933D01*
X0050798Y0018796D02*
X0049345Y0017343D01*
D17*
X0033526Y0026416D02*
X0033526Y0027635D01*
X0033526Y0027635D02*
X0034288Y0028397D01*
X0034288Y0028397D02*
X0043026Y0028397D01*
X0043026Y0028397D02*
X0043686Y0027737D01*
X0043686Y0027737D02*
X0043686Y0026416D01*
X0043125Y0014933D02*
X0043686Y0015494D01*
X0043686Y0015494D02*
X0043686Y0018019D01*
X0039185Y0014933D02*
X0043125Y0014933D01*
X0033526Y0023876D02*
X0033526Y0026416D01*
X0033526Y0021336D02*
X0033526Y0023876D01*
X0043686Y0026416D02*
X0043686Y0023876D01*
X0043686Y0018019D02*
X0043686Y0022314D01*
X0043686Y0022314D02*
X0043686Y0023876D01*
D10*
X0061612Y0016605D02*
X0061212Y0016205D01*
X0065284Y0017518D02*
X0062525Y0017518D01*
X0066546Y0016256D02*
X0065284Y0017518D01*
X0062525Y0017518D02*
X0061612Y0016605D01*
X0056386Y0016002D02*
X0056386Y0013083D01*
X0056386Y0013083D02*
X0055695Y0012393D01*
X0050615Y0012393D02*
X0050615Y0009886D01*
X0050615Y0009886D02*
X0050646Y0009855D01*
D12*
G36*
X0069700Y0000402D02*
X0020212Y0000402D01*
X0020212Y0005572D01*
X0029878Y0005572D01*
X0030231Y0004716D01*
X0030885Y0004061D01*
X0031740Y0003706D01*
X0032666Y0003705D01*
X0033522Y0004059D01*
X0034177Y0004713D01*
X0034532Y0005568D01*
X0034533Y0006493D01*
X0034179Y0007349D01*
X0033525Y0008004D01*
X0032670Y0008359D01*
X0031744Y0008360D01*
X0030889Y0008006D01*
X0030234Y0007352D01*
X0029879Y0006497D01*
X0029878Y0005572D01*
X0020212Y0005572D01*
X0020212Y0015748D01*
X0031021Y0015748D01*
X0031021Y0015748D01*
X0031021Y0010922D01*
X0031021Y0010922D01*
X0031034Y0010859D01*
X0031076Y0010644D01*
X0031212Y0010441D01*
X0031234Y0010408D01*
X0033523Y0008118D01*
X0033523Y0008118D01*
X0033621Y0008053D01*
X0033759Y0007961D01*
X0034037Y0007906D01*
X0034038Y0007906D01*
X0037844Y0007906D01*
X0037844Y0007906D01*
X0037844Y0007906D01*
X0040948Y0007906D01*
X0040394Y0007352D01*
X0040039Y0006497D01*
X0040038Y0005572D01*
X0040391Y0004716D01*
X0041045Y0004061D01*
X0041900Y0003706D01*
X0042826Y0003705D01*
X0043682Y0004059D01*
X0044337Y0004713D01*
X0044692Y0005568D01*
X0044693Y0006493D01*
X0044339Y0007349D01*
X0043783Y0007906D01*
X0046028Y0007906D01*
X0045474Y0007352D01*
X0045119Y0006497D01*
X0045118Y0005572D01*
X0045471Y0004716D01*
X0046125Y0004061D01*
X0046980Y0003706D01*
X0047906Y0003705D01*
X0048762Y0004059D01*
X0049417Y0004713D01*
X0049772Y0005568D01*
X0049773Y0006493D01*
X0049419Y0007349D01*
X0048863Y0007906D01*
X0049020Y0007906D01*
X0049020Y0007906D01*
X0049020Y0007906D01*
X0049277Y0007906D01*
X0049295Y0007909D01*
X0053066Y0007909D01*
X0053084Y0007906D01*
X0053084Y0007906D01*
X0056188Y0007906D01*
X0055634Y0007352D01*
X0055279Y0006497D01*
X0055278Y0005572D01*
X0055631Y0004716D01*
X0056285Y0004061D01*
X0057140Y0003706D01*
X0058066Y0003705D01*
X0058922Y0004059D01*
X0059577Y0004713D01*
X0059932Y0005568D01*
X0059933Y0006493D01*
X0059579Y0007349D01*
X0059023Y0007906D01*
X0061462Y0007906D01*
X0061463Y0007906D01*
X0061695Y0007952D01*
X0061741Y0007961D01*
X0061977Y0008118D01*
X0061977Y0008118D01*
X0063939Y0010081D01*
X0064768Y0010081D01*
X0064896Y0010106D01*
X0065004Y0010178D01*
X0065076Y0010286D01*
X0065101Y0010414D01*
X0065101Y0011938D01*
X0065451Y0011938D01*
X0065451Y0010414D01*
X0065476Y0010286D01*
X0065548Y0010178D01*
X0065656Y0010106D01*
X0065784Y0010081D01*
X0067308Y0010081D01*
X0067436Y0010106D01*
X0067544Y0010178D01*
X0067616Y0010286D01*
X0067641Y0010414D01*
X0067641Y0011938D01*
X0067616Y0012066D01*
X0067544Y0012174D01*
X0067436Y0012246D01*
X0067308Y0012271D01*
X0065784Y0012271D01*
X0065656Y0012246D01*
X0065548Y0012174D01*
X0065476Y0012066D01*
X0065451Y0011938D01*
X0065101Y0011938D01*
X0065076Y0012066D01*
X0065004Y0012174D01*
X0064896Y0012246D01*
X0064768Y0012271D01*
X0063244Y0012271D01*
X0063116Y0012246D01*
X0063008Y0012174D01*
X0062936Y0012066D01*
X0062911Y0011938D01*
X0062911Y0011109D01*
X0061161Y0009360D01*
X0053882Y0009360D01*
X0053882Y0011257D01*
X0053906Y0011267D01*
X0054280Y0011640D01*
X0054425Y0011991D01*
X0054570Y0011642D01*
X0054943Y0011268D01*
X0055430Y0011066D01*
X0055958Y0011065D01*
X0056446Y0011267D01*
X0056820Y0011640D01*
X0057022Y0012127D01*
X0057022Y0012655D01*
X0056953Y0012824D01*
X0056965Y0012843D01*
X0057013Y0013083D01*
X0057013Y0015616D01*
X0057073Y0015760D01*
X0059561Y0013273D01*
X0059764Y0013137D01*
X0060004Y0013089D01*
X0062911Y0013089D01*
X0062911Y0012954D01*
X0062936Y0012826D01*
X0063008Y0012718D01*
X0063116Y0012646D01*
X0063244Y0012621D01*
X0064768Y0012621D01*
X0064896Y0012646D01*
X0065004Y0012718D01*
X0065076Y0012826D01*
X0065101Y0012954D01*
X0065101Y0014478D01*
X0065451Y0014478D01*
X0065451Y0012954D01*
X0065476Y0012826D01*
X0065548Y0012718D01*
X0065656Y0012646D01*
X0065784Y0012621D01*
X0067308Y0012621D01*
X0067436Y0012646D01*
X0067544Y0012718D01*
X0067616Y0012826D01*
X0067641Y0012954D01*
X0067641Y0014478D01*
X0067616Y0014606D01*
X0067544Y0014714D01*
X0067436Y0014786D01*
X0067308Y0014811D01*
X0065784Y0014811D01*
X0065656Y0014786D01*
X0065548Y0014714D01*
X0065476Y0014606D01*
X0065451Y0014478D01*
X0065101Y0014478D01*
X0065076Y0014606D01*
X0065004Y0014714D01*
X0064896Y0014786D01*
X0064768Y0014811D01*
X0063244Y0014811D01*
X0063116Y0014786D01*
X0063008Y0014714D01*
X0062936Y0014606D01*
X0062911Y0014478D01*
X0062911Y0014343D01*
X0060264Y0014343D01*
X0056891Y0017715D01*
X0056688Y0017851D01*
X0056448Y0017899D01*
X0052322Y0017899D01*
X0052082Y0017851D01*
X0051879Y0017715D01*
X0051442Y0017279D01*
X0051306Y0017075D01*
X0051258Y0016835D01*
X0051258Y0016109D01*
X0051134Y0016058D01*
X0050761Y0015685D01*
X0050615Y0015334D01*
X0050471Y0015683D01*
X0050098Y0016057D01*
X0049972Y0016109D01*
X0049972Y0017083D01*
X0051058Y0018169D01*
X0062911Y0018169D01*
X0062911Y0018145D01*
X0062525Y0018145D01*
X0062285Y0018097D01*
X0062081Y0017961D01*
X0061041Y0016921D01*
X0060801Y0016822D01*
X0060596Y0016618D01*
X0060485Y0016350D01*
X0060485Y0016061D01*
X0060595Y0015794D01*
X0060800Y0015589D01*
X0061067Y0015478D01*
X0061356Y0015478D01*
X0061623Y0015589D01*
X0061828Y0015793D01*
X0061929Y0016035D01*
X0062785Y0016891D01*
X0062911Y0016891D01*
X0062911Y0015494D01*
X0062936Y0015366D01*
X0063008Y0015258D01*
X0063116Y0015186D01*
X0063244Y0015161D01*
X0064768Y0015161D01*
X0064896Y0015186D01*
X0065004Y0015258D01*
X0065076Y0015366D01*
X0065101Y0015494D01*
X0065101Y0016814D01*
X0065451Y0016465D01*
X0065451Y0015494D01*
X0065476Y0015366D01*
X0065548Y0015258D01*
X0065656Y0015186D01*
X0065784Y0015161D01*
X0067308Y0015161D01*
X0067436Y0015186D01*
X0067544Y0015258D01*
X0067616Y0015366D01*
X0067641Y0015494D01*
X0067641Y0017018D01*
X0067616Y0017146D01*
X0067544Y0017254D01*
X0067436Y0017326D01*
X0067308Y0017351D01*
X0066337Y0017351D01*
X0065988Y0017701D01*
X0067308Y0017701D01*
X0067436Y0017726D01*
X0067544Y0017798D01*
X0067616Y0017906D01*
X0067641Y0018034D01*
X0067641Y0019558D01*
X0067616Y0019686D01*
X0067544Y0019794D01*
X0067436Y0019866D01*
X0067308Y0019891D01*
X0065784Y0019891D01*
X0065656Y0019866D01*
X0065548Y0019794D01*
X0065476Y0019686D01*
X0065451Y0019558D01*
X0065451Y0018112D01*
X0065284Y0018145D01*
X0065101Y0018145D01*
X0065101Y0019558D01*
X0065076Y0019686D01*
X0065004Y0019794D01*
X0064896Y0019866D01*
X0064768Y0019891D01*
X0063244Y0019891D01*
X0063116Y0019866D01*
X0063008Y0019794D01*
X0062936Y0019686D01*
X0062911Y0019558D01*
X0062911Y0019423D01*
X0054473Y0019423D01*
X0054473Y0022781D01*
X0054608Y0022781D01*
X0054736Y0022806D01*
X0054844Y0022878D01*
X0054916Y0022986D01*
X0054941Y0023114D01*
X0054941Y0024638D01*
X0055291Y0024638D01*
X0055291Y0023114D01*
X0055316Y0022986D01*
X0055388Y0022878D01*
X0055496Y0022806D01*
X0055624Y0022781D01*
X0057148Y0022781D01*
X0057276Y0022806D01*
X0057384Y0022878D01*
X0057456Y0022986D01*
X0057481Y0023114D01*
X0057481Y0024638D01*
X0057456Y0024766D01*
X0057384Y0024874D01*
X0057276Y0024946D01*
X0057148Y0024971D01*
X0055624Y0024971D01*
X0055496Y0024946D01*
X0055388Y0024874D01*
X0055316Y0024766D01*
X0055291Y0024638D01*
X0054941Y0024638D01*
X0054916Y0024766D01*
X0054844Y0024874D01*
X0054736Y0024946D01*
X0054608Y0024971D01*
X0054473Y0024971D01*
X0054473Y0025321D01*
X0054608Y0025321D01*
X0054736Y0025346D01*
X0054844Y0025418D01*
X0054916Y0025526D01*
X0054941Y0025654D01*
X0054941Y0027178D01*
X0055291Y0027178D01*
X0055291Y0025654D01*
X0055316Y0025526D01*
X0055388Y0025418D01*
X0055496Y0025346D01*
X0055624Y0025321D01*
X0057148Y0025321D01*
X0057276Y0025346D01*
X0057384Y0025418D01*
X0057456Y0025526D01*
X0057481Y0025654D01*
X0057481Y0027178D01*
X0057456Y0027306D01*
X0057384Y0027414D01*
X0057276Y0027486D01*
X0057148Y0027511D01*
X0055624Y0027511D01*
X0055496Y0027486D01*
X0055388Y0027414D01*
X0055316Y0027306D01*
X0055291Y0027178D01*
X0054941Y0027178D01*
X0054916Y0027306D01*
X0054844Y0027414D01*
X0054736Y0027486D01*
X0054608Y0027511D01*
X0053084Y0027511D01*
X0052956Y0027486D01*
X0052848Y0027414D01*
X0052776Y0027306D01*
X0052751Y0027178D01*
X0052751Y0025654D01*
X0052776Y0025526D01*
X0052848Y0025418D01*
X0052956Y0025346D01*
X0053084Y0025321D01*
X0053219Y0025321D01*
X0053219Y0024971D01*
X0053084Y0024971D01*
X0052956Y0024946D01*
X0052848Y0024874D01*
X0052776Y0024766D01*
X0052751Y0024638D01*
X0052751Y0023114D01*
X0052776Y0022986D01*
X0052848Y0022878D01*
X0052956Y0022806D01*
X0053084Y0022781D01*
X0053219Y0022781D01*
X0053219Y0019423D01*
X0050798Y0019423D01*
X0050558Y0019375D01*
X0050355Y0019239D01*
X0048902Y0017787D01*
X0048766Y0017583D01*
X0048718Y0017343D01*
X0048718Y0016109D01*
X0048594Y0016058D01*
X0048221Y0015685D01*
X0048169Y0015560D01*
X0046895Y0015560D01*
X0046333Y0016122D01*
X0046233Y0016362D01*
X0046029Y0016567D01*
X0045762Y0016678D01*
X0045472Y0016678D01*
X0045205Y0016568D01*
X0045000Y0016364D01*
X0044890Y0016096D01*
X0044889Y0015807D01*
X0045000Y0015540D01*
X0045204Y0015335D01*
X0045446Y0015235D01*
X0046192Y0014489D01*
X0046395Y0014353D01*
X0046635Y0014306D01*
X0048168Y0014306D01*
X0048220Y0014182D01*
X0048593Y0013808D01*
X0049080Y0013606D01*
X0049608Y0013605D01*
X0050096Y0013807D01*
X0050470Y0014180D01*
X0050615Y0014531D01*
X0050760Y0014182D01*
X0051133Y0013808D01*
X0051620Y0013606D01*
X0052148Y0013605D01*
X0052636Y0013807D01*
X0053010Y0014180D01*
X0053155Y0014531D01*
X0053300Y0014182D01*
X0053673Y0013808D01*
X0054160Y0013606D01*
X0054688Y0013605D01*
X0055176Y0013807D01*
X0055550Y0014180D01*
X0055752Y0014667D01*
X0055752Y0015195D01*
X0055551Y0015683D01*
X0055178Y0016057D01*
X0054690Y0016259D01*
X0054162Y0016260D01*
X0053674Y0016058D01*
X0053301Y0015685D01*
X0053155Y0015334D01*
X0053011Y0015683D01*
X0052638Y0016057D01*
X0052512Y0016109D01*
X0052512Y0016575D01*
X0052582Y0016645D01*
X0056038Y0016645D01*
X0055975Y0016619D01*
X0055770Y0016414D01*
X0055659Y0016147D01*
X0055659Y0015858D01*
X0055759Y0015616D01*
X0055759Y0013719D01*
X0055432Y0013720D01*
X0054944Y0013518D01*
X0054571Y0013145D01*
X0054425Y0012794D01*
X0054281Y0013143D01*
X0053908Y0013517D01*
X0053420Y0013719D01*
X0052892Y0013720D01*
X0052404Y0013518D01*
X0052031Y0013145D01*
X0051885Y0012794D01*
X0051741Y0013143D01*
X0051368Y0013517D01*
X0050880Y0013719D01*
X0050352Y0013720D01*
X0049864Y0013518D01*
X0049491Y0013145D01*
X0049288Y0012658D01*
X0049288Y0012130D01*
X0049490Y0011642D01*
X0049863Y0011268D01*
X0049988Y0011216D01*
X0049988Y0010168D01*
X0049919Y0010000D01*
X0049918Y0009711D01*
X0050029Y0009444D01*
X0050110Y0009363D01*
X0049023Y0009363D01*
X0049006Y0009360D01*
X0046091Y0009360D01*
X0046091Y0011200D01*
X0046191Y0011440D01*
X0046191Y0011730D01*
X0046081Y0011997D01*
X0045876Y0012202D01*
X0045609Y0012313D01*
X0045320Y0012313D01*
X0045053Y0012202D01*
X0044848Y0011998D01*
X0044737Y0011731D01*
X0044737Y0011442D01*
X0044837Y0011199D01*
X0044837Y0009360D01*
X0038642Y0009360D01*
X0038642Y0011257D01*
X0038666Y0011267D01*
X0039040Y0011640D01*
X0039185Y0011991D01*
X0039330Y0011642D01*
X0039703Y0011268D01*
X0040190Y0011066D01*
X0040718Y0011065D01*
X0041206Y0011267D01*
X0041580Y0011640D01*
X0041782Y0012127D01*
X0041782Y0012655D01*
X0041581Y0013143D01*
X0041208Y0013517D01*
X0040720Y0013719D01*
X0040192Y0013720D01*
X0039704Y0013518D01*
X0039331Y0013145D01*
X0039185Y0012794D01*
X0039041Y0013143D01*
X0038668Y0013517D01*
X0038180Y0013719D01*
X0037652Y0013720D01*
X0037164Y0013518D01*
X0036791Y0013145D01*
X0036645Y0012794D01*
X0036501Y0013143D01*
X0036128Y0013517D01*
X0035640Y0013719D01*
X0035112Y0013720D01*
X0034624Y0013518D01*
X0034251Y0013145D01*
X0034048Y0012658D01*
X0034048Y0012130D01*
X0034250Y0011642D01*
X0034623Y0011268D01*
X0035110Y0011066D01*
X0035638Y0011065D01*
X0036126Y0011267D01*
X0036500Y0011640D01*
X0036645Y0011991D01*
X0036790Y0011642D01*
X0037163Y0011268D01*
X0037188Y0011258D01*
X0037188Y0009360D01*
X0034339Y0009360D01*
X0032475Y0011223D01*
X0032475Y0015447D01*
X0033532Y0016504D01*
X0033532Y0016504D01*
X0033634Y0016606D01*
X0033745Y0016873D01*
X0033745Y0017162D01*
X0033635Y0017429D01*
X0033430Y0017634D01*
X0033163Y0017745D01*
X0032874Y0017745D01*
X0032607Y0017635D01*
X0032402Y0017430D01*
X0032402Y0017430D01*
X0031234Y0016262D01*
X0031076Y0016026D01*
X0031073Y0016008D01*
X0031021Y0015748D01*
X0020212Y0015748D01*
X0020212Y0027178D01*
X0032431Y0027178D01*
X0032431Y0025654D01*
X0032456Y0025526D01*
X0032528Y0025418D01*
X0032636Y0025346D01*
X0032764Y0025321D01*
X0032799Y0025321D01*
X0032799Y0024971D01*
X0032764Y0024971D01*
X0032636Y0024946D01*
X0032528Y0024874D01*
X0032456Y0024766D01*
X0032431Y0024638D01*
X0032431Y0023114D01*
X0032456Y0022986D01*
X0032528Y0022878D01*
X0032636Y0022806D01*
X0032764Y0022781D01*
X0032799Y0022781D01*
X0032799Y0022431D01*
X0032764Y0022431D01*
X0032636Y0022406D01*
X0032528Y0022334D01*
X0032456Y0022226D01*
X0032431Y0022098D01*
X0032431Y0020574D01*
X0032456Y0020446D01*
X0032528Y0020338D01*
X0032636Y0020266D01*
X0032764Y0020241D01*
X0034288Y0020241D01*
X0034416Y0020266D01*
X0034524Y0020338D01*
X0034596Y0020446D01*
X0034621Y0020574D01*
X0034621Y0022098D01*
X0034596Y0022226D01*
X0034524Y0022334D01*
X0034416Y0022406D01*
X0034288Y0022431D01*
X0034253Y0022431D01*
X0034253Y0022781D01*
X0034288Y0022781D01*
X0034416Y0022806D01*
X0034524Y0022878D01*
X0034596Y0022986D01*
X0034621Y0023114D01*
X0034621Y0024638D01*
X0034971Y0024638D01*
X0034971Y0023114D01*
X0034996Y0022986D01*
X0035068Y0022878D01*
X0035176Y0022806D01*
X0035304Y0022781D01*
X0036828Y0022781D01*
X0036956Y0022806D01*
X0037064Y0022878D01*
X0037136Y0022986D01*
X0037161Y0023114D01*
X0037161Y0024638D01*
X0037511Y0024638D01*
X0037511Y0023114D01*
X0037536Y0022986D01*
X0037608Y0022878D01*
X0037716Y0022806D01*
X0037844Y0022781D01*
X0039368Y0022781D01*
X0039496Y0022806D01*
X0039604Y0022878D01*
X0039676Y0022986D01*
X0039701Y0023114D01*
X0039701Y0024638D01*
X0040051Y0024638D01*
X0040051Y0023114D01*
X0040076Y0022986D01*
X0040148Y0022878D01*
X0040256Y0022806D01*
X0040384Y0022781D01*
X0041908Y0022781D01*
X0042036Y0022806D01*
X0042144Y0022878D01*
X0042216Y0022986D01*
X0042241Y0023114D01*
X0042241Y0024638D01*
X0042216Y0024766D01*
X0042144Y0024874D01*
X0042036Y0024946D01*
X0041908Y0024971D01*
X0040384Y0024971D01*
X0040256Y0024946D01*
X0040148Y0024874D01*
X0040076Y0024766D01*
X0040051Y0024638D01*
X0039701Y0024638D01*
X0039676Y0024766D01*
X0039604Y0024874D01*
X0039496Y0024946D01*
X0039368Y0024971D01*
X0037844Y0024971D01*
X0037716Y0024946D01*
X0037608Y0024874D01*
X0037536Y0024766D01*
X0037511Y0024638D01*
X0037161Y0024638D01*
X0037136Y0024766D01*
X0037064Y0024874D01*
X0036956Y0024946D01*
X0036828Y0024971D01*
X0035304Y0024971D01*
X0035176Y0024946D01*
X0035068Y0024874D01*
X0034996Y0024766D01*
X0034971Y0024638D01*
X0034621Y0024638D01*
X0034596Y0024766D01*
X0034524Y0024874D01*
X0034416Y0024946D01*
X0034288Y0024971D01*
X0034253Y0024971D01*
X0034253Y0025321D01*
X0034288Y0025321D01*
X0034416Y0025346D01*
X0034524Y0025418D01*
X0034596Y0025526D01*
X0034621Y0025654D01*
X0034621Y0027178D01*
X0034971Y0027178D01*
X0034971Y0025654D01*
X0034996Y0025526D01*
X0035068Y0025418D01*
X0035176Y0025346D01*
X0035304Y0025321D01*
X0036828Y0025321D01*
X0036956Y0025346D01*
X0037064Y0025418D01*
X0037136Y0025526D01*
X0037161Y0025654D01*
X0037161Y0027178D01*
X0037511Y0027178D01*
X0037511Y0025654D01*
X0037536Y0025526D01*
X0037608Y0025418D01*
X0037716Y0025346D01*
X0037844Y0025321D01*
X0039368Y0025321D01*
X0039496Y0025346D01*
X0039604Y0025418D01*
X0039676Y0025526D01*
X0039701Y0025654D01*
X0039701Y0027178D01*
X0040051Y0027178D01*
X0040051Y0025654D01*
X0040076Y0025526D01*
X0040148Y0025418D01*
X0040256Y0025346D01*
X0040384Y0025321D01*
X0041908Y0025321D01*
X0042036Y0025346D01*
X0042144Y0025418D01*
X0042216Y0025526D01*
X0042241Y0025654D01*
X0042241Y0027178D01*
X0042216Y0027306D01*
X0042144Y0027414D01*
X0042036Y0027486D01*
X0041908Y0027511D01*
X0040384Y0027511D01*
X0040256Y0027486D01*
X0040148Y0027414D01*
X0040076Y0027306D01*
X0040051Y0027178D01*
X0039701Y0027178D01*
X0039676Y0027306D01*
X0039604Y0027414D01*
X0039496Y0027486D01*
X0039368Y0027511D01*
X0037844Y0027511D01*
X0037716Y0027486D01*
X0037608Y0027414D01*
X0037536Y0027306D01*
X0037511Y0027178D01*
X0037161Y0027178D01*
X0037136Y0027306D01*
X0037064Y0027414D01*
X0036956Y0027486D01*
X0036828Y0027511D01*
X0035304Y0027511D01*
X0035176Y0027486D01*
X0035068Y0027414D01*
X0034996Y0027306D01*
X0034971Y0027178D01*
X0034621Y0027178D01*
X0034596Y0027306D01*
X0034524Y0027414D01*
X0034416Y0027486D01*
X0034407Y0027488D01*
X0034589Y0027670D01*
X0042724Y0027670D01*
X0042890Y0027505D01*
X0042796Y0027486D01*
X0042688Y0027414D01*
X0042616Y0027306D01*
X0042591Y0027178D01*
X0042591Y0025654D01*
X0042616Y0025526D01*
X0042688Y0025418D01*
X0042796Y0025346D01*
X0042924Y0025321D01*
X0042959Y0025321D01*
X0042959Y0024971D01*
X0042924Y0024971D01*
X0042796Y0024946D01*
X0042688Y0024874D01*
X0042616Y0024766D01*
X0042591Y0024638D01*
X0042591Y0023114D01*
X0042616Y0022986D01*
X0042688Y0022878D01*
X0042796Y0022806D01*
X0042924Y0022781D01*
X0042959Y0022781D01*
X0042959Y0018020D01*
X0042959Y0017875D01*
X0042959Y0017875D01*
X0042959Y0015795D01*
X0042823Y0015660D01*
X0042553Y0015660D01*
X0042635Y0015857D01*
X0042635Y0016146D01*
X0042525Y0016413D01*
X0042320Y0016618D01*
X0042078Y0016719D01*
X0041589Y0017207D01*
X0041493Y0017272D01*
X0041386Y0017343D01*
X0041146Y0017391D01*
X0035964Y0017391D01*
X0035724Y0017343D01*
X0035618Y0017272D01*
X0035521Y0017207D01*
X0034514Y0016200D01*
X0034370Y0016259D01*
X0033842Y0016260D01*
X0033354Y0016058D01*
X0032981Y0015685D01*
X0032778Y0015198D01*
X0032778Y0014670D01*
X0032980Y0014182D01*
X0033353Y0013808D01*
X0033840Y0013606D01*
X0034368Y0013605D01*
X0034856Y0013807D01*
X0035230Y0014180D01*
X0035375Y0014531D01*
X0035520Y0014182D01*
X0035893Y0013808D01*
X0036380Y0013606D01*
X0036908Y0013605D01*
X0037396Y0013807D01*
X0037770Y0014180D01*
X0037915Y0014531D01*
X0038060Y0014182D01*
X0038433Y0013808D01*
X0038920Y0013606D01*
X0039448Y0013605D01*
X0039936Y0013807D01*
X0040310Y0014180D01*
X0040320Y0014206D01*
X0043124Y0014206D01*
X0043125Y0014205D01*
X0043357Y0014252D01*
X0043403Y0014261D01*
X0043639Y0014418D01*
X0044200Y0014980D01*
X0044228Y0015021D01*
X0044358Y0015216D01*
X0044369Y0015275D01*
X0044413Y0015494D01*
X0044413Y0015494D01*
X0044413Y0018018D01*
X0044413Y0018163D01*
X0044413Y0018163D01*
X0044413Y0022781D01*
X0044448Y0022781D01*
X0044576Y0022806D01*
X0044684Y0022878D01*
X0044756Y0022986D01*
X0044781Y0023114D01*
X0044781Y0024638D01*
X0044756Y0024766D01*
X0044684Y0024874D01*
X0044576Y0024946D01*
X0044448Y0024971D01*
X0044413Y0024971D01*
X0044413Y0025321D01*
X0044448Y0025321D01*
X0044576Y0025346D01*
X0044684Y0025418D01*
X0044756Y0025526D01*
X0044781Y0025654D01*
X0044781Y0027178D01*
X0044756Y0027306D01*
X0044684Y0027414D01*
X0044576Y0027486D01*
X0044448Y0027511D01*
X0044413Y0027511D01*
X0044413Y0027737D01*
X0044413Y0027737D01*
X0044358Y0028015D01*
X0044358Y0028015D01*
X0044200Y0028251D01*
X0044200Y0028251D01*
X0043540Y0028911D01*
X0043304Y0029069D01*
X0043258Y0029078D01*
X0043026Y0029124D01*
X0043026Y0029124D01*
X0034288Y0029124D01*
X0034288Y0029124D01*
X0034056Y0029078D01*
X0034010Y0029069D01*
X0033774Y0028911D01*
X0033774Y0028911D01*
X0033012Y0028149D01*
X0032854Y0027913D01*
X0032848Y0027883D01*
X0032799Y0027635D01*
X0032799Y0027635D01*
X0032799Y0027511D01*
X0032764Y0027511D01*
X0032636Y0027486D01*
X0032528Y0027414D01*
X0032456Y0027306D01*
X0032431Y0027178D01*
X0020212Y0027178D01*
X0020212Y0039730D01*
X0069700Y0039730D01*
X0069700Y0000402D01*
X0069700Y0000402D01*
G37*
X0069700Y0000402D02*
X0020212Y0000402D01*
X0020212Y0005572D01*
X0029878Y0005572D01*
X0030231Y0004716D01*
X0030885Y0004061D01*
X0031740Y0003706D01*
X0032666Y0003705D01*
X0033522Y0004059D01*
X0034177Y0004713D01*
X0034532Y0005568D01*
X0034533Y0006493D01*
X0034179Y0007349D01*
X0033525Y0008004D01*
X0032670Y0008359D01*
X0031744Y0008360D01*
X0030889Y0008006D01*
X0030234Y0007352D01*
X0029879Y0006497D01*
X0029878Y0005572D01*
X0020212Y0005572D01*
X0020212Y0015748D01*
X0031021Y0015748D01*
X0031021Y0015748D01*
X0031021Y0010922D01*
X0031021Y0010922D01*
X0031034Y0010859D01*
X0031076Y0010644D01*
X0031212Y0010441D01*
X0031234Y0010408D01*
X0033523Y0008118D01*
X0033523Y0008118D01*
X0033621Y0008053D01*
X0033759Y0007961D01*
X0034037Y0007906D01*
X0034038Y0007906D01*
X0037844Y0007906D01*
X0037844Y0007906D01*
X0037844Y0007906D01*
X0040948Y0007906D01*
X0040394Y0007352D01*
X0040039Y0006497D01*
X0040038Y0005572D01*
X0040391Y0004716D01*
X0041045Y0004061D01*
X0041900Y0003706D01*
X0042826Y0003705D01*
X0043682Y0004059D01*
X0044337Y0004713D01*
X0044692Y0005568D01*
X0044693Y0006493D01*
X0044339Y0007349D01*
X0043783Y0007906D01*
X0046028Y0007906D01*
X0045474Y0007352D01*
X0045119Y0006497D01*
X0045118Y0005572D01*
X0045471Y0004716D01*
X0046125Y0004061D01*
X0046980Y0003706D01*
X0047906Y0003705D01*
X0048762Y0004059D01*
X0049417Y0004713D01*
X0049772Y0005568D01*
X0049773Y0006493D01*
X0049419Y0007349D01*
X0048863Y0007906D01*
X0049020Y0007906D01*
X0049020Y0007906D01*
X0049020Y0007906D01*
X0049277Y0007906D01*
X0049295Y0007909D01*
X0053066Y0007909D01*
X0053084Y0007906D01*
X0053084Y0007906D01*
X0056188Y0007906D01*
X0055634Y0007352D01*
X0055279Y0006497D01*
X0055278Y0005572D01*
X0055631Y0004716D01*
X0056285Y0004061D01*
X0057140Y0003706D01*
X0058066Y0003705D01*
X0058922Y0004059D01*
X0059577Y0004713D01*
X0059932Y0005568D01*
X0059933Y0006493D01*
X0059579Y0007349D01*
X0059023Y0007906D01*
X0061462Y0007906D01*
X0061463Y0007906D01*
X0061695Y0007952D01*
X0061741Y0007961D01*
X0061977Y0008118D01*
X0061977Y0008118D01*
X0063939Y0010081D01*
X0064768Y0010081D01*
X0064896Y0010106D01*
X0065004Y0010178D01*
X0065076Y0010286D01*
X0065101Y0010414D01*
X0065101Y0011938D01*
X0065451Y0011938D01*
X0065451Y0010414D01*
X0065476Y0010286D01*
X0065548Y0010178D01*
X0065656Y0010106D01*
X0065784Y0010081D01*
X0067308Y0010081D01*
X0067436Y0010106D01*
X0067544Y0010178D01*
X0067616Y0010286D01*
X0067641Y0010414D01*
X0067641Y0011938D01*
X0067616Y0012066D01*
X0067544Y0012174D01*
X0067436Y0012246D01*
X0067308Y0012271D01*
X0065784Y0012271D01*
X0065656Y0012246D01*
X0065548Y0012174D01*
X0065476Y0012066D01*
X0065451Y0011938D01*
X0065101Y0011938D01*
X0065076Y0012066D01*
X0065004Y0012174D01*
X0064896Y0012246D01*
X0064768Y0012271D01*
X0063244Y0012271D01*
X0063116Y0012246D01*
X0063008Y0012174D01*
X0062936Y0012066D01*
X0062911Y0011938D01*
X0062911Y0011109D01*
X0061161Y0009360D01*
X0053882Y0009360D01*
X0053882Y0011257D01*
X0053906Y0011267D01*
X0054280Y0011640D01*
X0054425Y0011991D01*
X0054570Y0011642D01*
X0054943Y0011268D01*
X0055430Y0011066D01*
X0055958Y0011065D01*
X0056446Y0011267D01*
X0056820Y0011640D01*
X0057022Y0012127D01*
X0057022Y0012655D01*
X0056953Y0012824D01*
X0056965Y0012843D01*
X0057013Y0013083D01*
X0057013Y0015616D01*
X0057073Y0015760D01*
X0059561Y0013273D01*
X0059764Y0013137D01*
X0060004Y0013089D01*
X0062911Y0013089D01*
X0062911Y0012954D01*
X0062936Y0012826D01*
X0063008Y0012718D01*
X0063116Y0012646D01*
X0063244Y0012621D01*
X0064768Y0012621D01*
X0064896Y0012646D01*
X0065004Y0012718D01*
X0065076Y0012826D01*
X0065101Y0012954D01*
X0065101Y0014478D01*
X0065451Y0014478D01*
X0065451Y0012954D01*
X0065476Y0012826D01*
X0065548Y0012718D01*
X0065656Y0012646D01*
X0065784Y0012621D01*
X0067308Y0012621D01*
X0067436Y0012646D01*
X0067544Y0012718D01*
X0067616Y0012826D01*
X0067641Y0012954D01*
X0067641Y0014478D01*
X0067616Y0014606D01*
X0067544Y0014714D01*
X0067436Y0014786D01*
X0067308Y0014811D01*
X0065784Y0014811D01*
X0065656Y0014786D01*
X0065548Y0014714D01*
X0065476Y0014606D01*
X0065451Y0014478D01*
X0065101Y0014478D01*
X0065076Y0014606D01*
X0065004Y0014714D01*
X0064896Y0014786D01*
X0064768Y0014811D01*
X0063244Y0014811D01*
X0063116Y0014786D01*
X0063008Y0014714D01*
X0062936Y0014606D01*
X0062911Y0014478D01*
X0062911Y0014343D01*
X0060264Y0014343D01*
X0056891Y0017715D01*
X0056688Y0017851D01*
X0056448Y0017899D01*
X0052322Y0017899D01*
X0052082Y0017851D01*
X0051879Y0017715D01*
X0051442Y0017279D01*
X0051306Y0017075D01*
X0051258Y0016835D01*
X0051258Y0016109D01*
X0051134Y0016058D01*
X0050761Y0015685D01*
X0050615Y0015334D01*
X0050471Y0015683D01*
X0050098Y0016057D01*
X0049972Y0016109D01*
X0049972Y0017083D01*
X0051058Y0018169D01*
X0062911Y0018169D01*
X0062911Y0018145D01*
X0062525Y0018145D01*
X0062285Y0018097D01*
X0062081Y0017961D01*
X0061041Y0016921D01*
X0060801Y0016822D01*
X0060596Y0016618D01*
X0060485Y0016350D01*
X0060485Y0016061D01*
X0060595Y0015794D01*
X0060800Y0015589D01*
X0061067Y0015478D01*
X0061356Y0015478D01*
X0061623Y0015589D01*
X0061828Y0015793D01*
X0061929Y0016035D01*
X0062785Y0016891D01*
X0062911Y0016891D01*
X0062911Y0015494D01*
X0062936Y0015366D01*
X0063008Y0015258D01*
X0063116Y0015186D01*
X0063244Y0015161D01*
X0064768Y0015161D01*
X0064896Y0015186D01*
X0065004Y0015258D01*
X0065076Y0015366D01*
X0065101Y0015494D01*
X0065101Y0016814D01*
X0065451Y0016465D01*
X0065451Y0015494D01*
X0065476Y0015366D01*
X0065548Y0015258D01*
X0065656Y0015186D01*
X0065784Y0015161D01*
X0067308Y0015161D01*
X0067436Y0015186D01*
X0067544Y0015258D01*
X0067616Y0015366D01*
X0067641Y0015494D01*
X0067641Y0017018D01*
X0067616Y0017146D01*
X0067544Y0017254D01*
X0067436Y0017326D01*
X0067308Y0017351D01*
X0066337Y0017351D01*
X0065988Y0017701D01*
X0067308Y0017701D01*
X0067436Y0017726D01*
X0067544Y0017798D01*
X0067616Y0017906D01*
X0067641Y0018034D01*
X0067641Y0019558D01*
X0067616Y0019686D01*
X0067544Y0019794D01*
X0067436Y0019866D01*
X0067308Y0019891D01*
X0065784Y0019891D01*
X0065656Y0019866D01*
X0065548Y0019794D01*
X0065476Y0019686D01*
X0065451Y0019558D01*
X0065451Y0018112D01*
X0065284Y0018145D01*
X0065101Y0018145D01*
X0065101Y0019558D01*
X0065076Y0019686D01*
X0065004Y0019794D01*
X0064896Y0019866D01*
X0064768Y0019891D01*
X0063244Y0019891D01*
X0063116Y0019866D01*
X0063008Y0019794D01*
X0062936Y0019686D01*
X0062911Y0019558D01*
X0062911Y0019423D01*
X0054473Y0019423D01*
X0054473Y0022781D01*
X0054608Y0022781D01*
X0054736Y0022806D01*
X0054844Y0022878D01*
X0054916Y0022986D01*
X0054941Y0023114D01*
X0054941Y0024638D01*
X0055291Y0024638D01*
X0055291Y0023114D01*
X0055316Y0022986D01*
X0055388Y0022878D01*
X0055496Y0022806D01*
X0055624Y0022781D01*
X0057148Y0022781D01*
X0057276Y0022806D01*
X0057384Y0022878D01*
X0057456Y0022986D01*
X0057481Y0023114D01*
X0057481Y0024638D01*
X0057456Y0024766D01*
X0057384Y0024874D01*
X0057276Y0024946D01*
X0057148Y0024971D01*
X0055624Y0024971D01*
X0055496Y0024946D01*
X0055388Y0024874D01*
X0055316Y0024766D01*
X0055291Y0024638D01*
X0054941Y0024638D01*
X0054916Y0024766D01*
X0054844Y0024874D01*
X0054736Y0024946D01*
X0054608Y0024971D01*
X0054473Y0024971D01*
X0054473Y0025321D01*
X0054608Y0025321D01*
X0054736Y0025346D01*
X0054844Y0025418D01*
X0054916Y0025526D01*
X0054941Y0025654D01*
X0054941Y0027178D01*
X0055291Y0027178D01*
X0055291Y0025654D01*
X0055316Y0025526D01*
X0055388Y0025418D01*
X0055496Y0025346D01*
X0055624Y0025321D01*
X0057148Y0025321D01*
X0057276Y0025346D01*
X0057384Y0025418D01*
X0057456Y0025526D01*
X0057481Y0025654D01*
X0057481Y0027178D01*
X0057456Y0027306D01*
X0057384Y0027414D01*
X0057276Y0027486D01*
X0057148Y0027511D01*
X0055624Y0027511D01*
X0055496Y0027486D01*
X0055388Y0027414D01*
X0055316Y0027306D01*
X0055291Y0027178D01*
X0054941Y0027178D01*
X0054916Y0027306D01*
X0054844Y0027414D01*
X0054736Y0027486D01*
X0054608Y0027511D01*
X0053084Y0027511D01*
X0052956Y0027486D01*
X0052848Y0027414D01*
X0052776Y0027306D01*
X0052751Y0027178D01*
X0052751Y0025654D01*
X0052776Y0025526D01*
X0052848Y0025418D01*
X0052956Y0025346D01*
X0053084Y0025321D01*
X0053219Y0025321D01*
X0053219Y0024971D01*
X0053084Y0024971D01*
X0052956Y0024946D01*
X0052848Y0024874D01*
X0052776Y0024766D01*
X0052751Y0024638D01*
X0052751Y0023114D01*
X0052776Y0022986D01*
X0052848Y0022878D01*
X0052956Y0022806D01*
X0053084Y0022781D01*
X0053219Y0022781D01*
X0053219Y0019423D01*
X0050798Y0019423D01*
X0050558Y0019375D01*
X0050355Y0019239D01*
X0048902Y0017787D01*
X0048766Y0017583D01*
X0048718Y0017343D01*
X0048718Y0016109D01*
X0048594Y0016058D01*
X0048221Y0015685D01*
X0048169Y0015560D01*
X0046895Y0015560D01*
X0046333Y0016122D01*
X0046233Y0016362D01*
X0046029Y0016567D01*
X0045762Y0016678D01*
X0045472Y0016678D01*
X0045205Y0016568D01*
X0045000Y0016364D01*
X0044890Y0016096D01*
X0044889Y0015807D01*
X0045000Y0015540D01*
X0045204Y0015335D01*
X0045446Y0015235D01*
X0046192Y0014489D01*
X0046395Y0014353D01*
X0046635Y0014306D01*
X0048168Y0014306D01*
X0048220Y0014182D01*
X0048593Y0013808D01*
X0049080Y0013606D01*
X0049608Y0013605D01*
X0050096Y0013807D01*
X0050470Y0014180D01*
X0050615Y0014531D01*
X0050760Y0014182D01*
X0051133Y0013808D01*
X0051620Y0013606D01*
X0052148Y0013605D01*
X0052636Y0013807D01*
X0053010Y0014180D01*
X0053155Y0014531D01*
X0053300Y0014182D01*
X0053673Y0013808D01*
X0054160Y0013606D01*
X0054688Y0013605D01*
X0055176Y0013807D01*
X0055550Y0014180D01*
X0055752Y0014667D01*
X0055752Y0015195D01*
X0055551Y0015683D01*
X0055178Y0016057D01*
X0054690Y0016259D01*
X0054162Y0016260D01*
X0053674Y0016058D01*
X0053301Y0015685D01*
X0053155Y0015334D01*
X0053011Y0015683D01*
X0052638Y0016057D01*
X0052512Y0016109D01*
X0052512Y0016575D01*
X0052582Y0016645D01*
X0056038Y0016645D01*
X0055975Y0016619D01*
X0055770Y0016414D01*
X0055659Y0016147D01*
X0055659Y0015858D01*
X0055759Y0015616D01*
X0055759Y0013719D01*
X0055432Y0013720D01*
X0054944Y0013518D01*
X0054571Y0013145D01*
X0054425Y0012794D01*
X0054281Y0013143D01*
X0053908Y0013517D01*
X0053420Y0013719D01*
X0052892Y0013720D01*
X0052404Y0013518D01*
X0052031Y0013145D01*
X0051885Y0012794D01*
X0051741Y0013143D01*
X0051368Y0013517D01*
X0050880Y0013719D01*
X0050352Y0013720D01*
X0049864Y0013518D01*
X0049491Y0013145D01*
X0049288Y0012658D01*
X0049288Y0012130D01*
X0049490Y0011642D01*
X0049863Y0011268D01*
X0049988Y0011216D01*
X0049988Y0010168D01*
X0049919Y0010000D01*
X0049918Y0009711D01*
X0050029Y0009444D01*
X0050110Y0009363D01*
X0049023Y0009363D01*
X0049006Y0009360D01*
X0046091Y0009360D01*
X0046091Y0011200D01*
X0046191Y0011440D01*
X0046191Y0011730D01*
X0046081Y0011997D01*
X0045876Y0012202D01*
X0045609Y0012313D01*
X0045320Y0012313D01*
X0045053Y0012202D01*
X0044848Y0011998D01*
X0044737Y0011731D01*
X0044737Y0011442D01*
X0044837Y0011199D01*
X0044837Y0009360D01*
X0038642Y0009360D01*
X0038642Y0011257D01*
X0038666Y0011267D01*
X0039040Y0011640D01*
X0039185Y0011991D01*
X0039330Y0011642D01*
X0039703Y0011268D01*
X0040190Y0011066D01*
X0040718Y0011065D01*
X0041206Y0011267D01*
X0041580Y0011640D01*
X0041782Y0012127D01*
X0041782Y0012655D01*
X0041581Y0013143D01*
X0041208Y0013517D01*
X0040720Y0013719D01*
X0040192Y0013720D01*
X0039704Y0013518D01*
X0039331Y0013145D01*
X0039185Y0012794D01*
X0039041Y0013143D01*
X0038668Y0013517D01*
X0038180Y0013719D01*
X0037652Y0013720D01*
X0037164Y0013518D01*
X0036791Y0013145D01*
X0036645Y0012794D01*
X0036501Y0013143D01*
X0036128Y0013517D01*
X0035640Y0013719D01*
X0035112Y0013720D01*
X0034624Y0013518D01*
X0034251Y0013145D01*
X0034048Y0012658D01*
X0034048Y0012130D01*
X0034250Y0011642D01*
X0034623Y0011268D01*
X0035110Y0011066D01*
X0035638Y0011065D01*
X0036126Y0011267D01*
X0036500Y0011640D01*
X0036645Y0011991D01*
X0036790Y0011642D01*
X0037163Y0011268D01*
X0037188Y0011258D01*
X0037188Y0009360D01*
X0034339Y0009360D01*
X0032475Y0011223D01*
X0032475Y0015447D01*
X0033532Y0016504D01*
X0033532Y0016504D01*
X0033634Y0016606D01*
X0033745Y0016873D01*
X0033745Y0017162D01*
X0033635Y0017429D01*
X0033430Y0017634D01*
X0033163Y0017745D01*
X0032874Y0017745D01*
X0032607Y0017635D01*
X0032402Y0017430D01*
X0032402Y0017430D01*
X0031234Y0016262D01*
X0031076Y0016026D01*
X0031073Y0016008D01*
X0031021Y0015748D01*
X0020212Y0015748D01*
X0020212Y0027178D01*
X0032431Y0027178D01*
X0032431Y0025654D01*
X0032456Y0025526D01*
X0032528Y0025418D01*
X0032636Y0025346D01*
X0032764Y0025321D01*
X0032799Y0025321D01*
X0032799Y0024971D01*
X0032764Y0024971D01*
X0032636Y0024946D01*
X0032528Y0024874D01*
X0032456Y0024766D01*
X0032431Y0024638D01*
X0032431Y0023114D01*
X0032456Y0022986D01*
X0032528Y0022878D01*
X0032636Y0022806D01*
X0032764Y0022781D01*
X0032799Y0022781D01*
X0032799Y0022431D01*
X0032764Y0022431D01*
X0032636Y0022406D01*
X0032528Y0022334D01*
X0032456Y0022226D01*
X0032431Y0022098D01*
X0032431Y0020574D01*
X0032456Y0020446D01*
X0032528Y0020338D01*
X0032636Y0020266D01*
X0032764Y0020241D01*
X0034288Y0020241D01*
X0034416Y0020266D01*
X0034524Y0020338D01*
X0034596Y0020446D01*
X0034621Y0020574D01*
X0034621Y0022098D01*
X0034596Y0022226D01*
X0034524Y0022334D01*
X0034416Y0022406D01*
X0034288Y0022431D01*
X0034253Y0022431D01*
X0034253Y0022781D01*
X0034288Y0022781D01*
X0034416Y0022806D01*
X0034524Y0022878D01*
X0034596Y0022986D01*
X0034621Y0023114D01*
X0034621Y0024638D01*
X0034971Y0024638D01*
X0034971Y0023114D01*
X0034996Y0022986D01*
X0035068Y0022878D01*
X0035176Y0022806D01*
X0035304Y0022781D01*
X0036828Y0022781D01*
X0036956Y0022806D01*
X0037064Y0022878D01*
X0037136Y0022986D01*
X0037161Y0023114D01*
X0037161Y0024638D01*
X0037511Y0024638D01*
X0037511Y0023114D01*
X0037536Y0022986D01*
X0037608Y0022878D01*
X0037716Y0022806D01*
X0037844Y0022781D01*
X0039368Y0022781D01*
X0039496Y0022806D01*
X0039604Y0022878D01*
X0039676Y0022986D01*
X0039701Y0023114D01*
X0039701Y0024638D01*
X0040051Y0024638D01*
X0040051Y0023114D01*
X0040076Y0022986D01*
X0040148Y0022878D01*
X0040256Y0022806D01*
X0040384Y0022781D01*
X0041908Y0022781D01*
X0042036Y0022806D01*
X0042144Y0022878D01*
X0042216Y0022986D01*
X0042241Y0023114D01*
X0042241Y0024638D01*
X0042216Y0024766D01*
X0042144Y0024874D01*
X0042036Y0024946D01*
X0041908Y0024971D01*
X0040384Y0024971D01*
X0040256Y0024946D01*
X0040148Y0024874D01*
X0040076Y0024766D01*
X0040051Y0024638D01*
X0039701Y0024638D01*
X0039676Y0024766D01*
X0039604Y0024874D01*
X0039496Y0024946D01*
X0039368Y0024971D01*
X0037844Y0024971D01*
X0037716Y0024946D01*
X0037608Y0024874D01*
X0037536Y0024766D01*
X0037511Y0024638D01*
X0037161Y0024638D01*
X0037136Y0024766D01*
X0037064Y0024874D01*
X0036956Y0024946D01*
X0036828Y0024971D01*
X0035304Y0024971D01*
X0035176Y0024946D01*
X0035068Y0024874D01*
X0034996Y0024766D01*
X0034971Y0024638D01*
X0034621Y0024638D01*
X0034596Y0024766D01*
X0034524Y0024874D01*
X0034416Y0024946D01*
X0034288Y0024971D01*
X0034253Y0024971D01*
X0034253Y0025321D01*
X0034288Y0025321D01*
X0034416Y0025346D01*
X0034524Y0025418D01*
X0034596Y0025526D01*
X0034621Y0025654D01*
X0034621Y0027178D01*
X0034971Y0027178D01*
X0034971Y0025654D01*
X0034996Y0025526D01*
X0035068Y0025418D01*
X0035176Y0025346D01*
X0035304Y0025321D01*
X0036828Y0025321D01*
X0036956Y0025346D01*
X0037064Y0025418D01*
X0037136Y0025526D01*
X0037161Y0025654D01*
X0037161Y0027178D01*
X0037511Y0027178D01*
X0037511Y0025654D01*
X0037536Y0025526D01*
X0037608Y0025418D01*
X0037716Y0025346D01*
X0037844Y0025321D01*
X0039368Y0025321D01*
X0039496Y0025346D01*
X0039604Y0025418D01*
X0039676Y0025526D01*
X0039701Y0025654D01*
X0039701Y0027178D01*
X0040051Y0027178D01*
X0040051Y0025654D01*
X0040076Y0025526D01*
X0040148Y0025418D01*
X0040256Y0025346D01*
X0040384Y0025321D01*
X0041908Y0025321D01*
X0042036Y0025346D01*
X0042144Y0025418D01*
X0042216Y0025526D01*
X0042241Y0025654D01*
X0042241Y0027178D01*
X0042216Y0027306D01*
X0042144Y0027414D01*
X0042036Y0027486D01*
X0041908Y0027511D01*
X0040384Y0027511D01*
X0040256Y0027486D01*
X0040148Y0027414D01*
X0040076Y0027306D01*
X0040051Y0027178D01*
X0039701Y0027178D01*
X0039676Y0027306D01*
X0039604Y0027414D01*
X0039496Y0027486D01*
X0039368Y0027511D01*
X0037844Y0027511D01*
X0037716Y0027486D01*
X0037608Y0027414D01*
X0037536Y0027306D01*
X0037511Y0027178D01*
X0037161Y0027178D01*
X0037136Y0027306D01*
X0037064Y0027414D01*
X0036956Y0027486D01*
X0036828Y0027511D01*
X0035304Y0027511D01*
X0035176Y0027486D01*
X0035068Y0027414D01*
X0034996Y0027306D01*
X0034971Y0027178D01*
X0034621Y0027178D01*
X0034596Y0027306D01*
X0034524Y0027414D01*
X0034416Y0027486D01*
X0034407Y0027488D01*
X0034589Y0027670D01*
X0042724Y0027670D01*
X0042890Y0027505D01*
X0042796Y0027486D01*
X0042688Y0027414D01*
X0042616Y0027306D01*
X0042591Y0027178D01*
X0042591Y0025654D01*
X0042616Y0025526D01*
X0042688Y0025418D01*
X0042796Y0025346D01*
X0042924Y0025321D01*
X0042959Y0025321D01*
X0042959Y0024971D01*
X0042924Y0024971D01*
X0042796Y0024946D01*
X0042688Y0024874D01*
X0042616Y0024766D01*
X0042591Y0024638D01*
X0042591Y0023114D01*
X0042616Y0022986D01*
X0042688Y0022878D01*
X0042796Y0022806D01*
X0042924Y0022781D01*
X0042959Y0022781D01*
X0042959Y0018020D01*
X0042959Y0017875D01*
X0042959Y0017875D01*
X0042959Y0015795D01*
X0042823Y0015660D01*
X0042553Y0015660D01*
X0042635Y0015857D01*
X0042635Y0016146D01*
X0042525Y0016413D01*
X0042320Y0016618D01*
X0042078Y0016719D01*
X0041589Y0017207D01*
X0041493Y0017272D01*
X0041386Y0017343D01*
X0041146Y0017391D01*
X0035964Y0017391D01*
X0035724Y0017343D01*
X0035618Y0017272D01*
X0035521Y0017207D01*
X0034514Y0016200D01*
X0034370Y0016259D01*
X0033842Y0016260D01*
X0033354Y0016058D01*
X0032981Y0015685D01*
X0032778Y0015198D01*
X0032778Y0014670D01*
X0032980Y0014182D01*
X0033353Y0013808D01*
X0033840Y0013606D01*
X0034368Y0013605D01*
X0034856Y0013807D01*
X0035230Y0014180D01*
X0035375Y0014531D01*
X0035520Y0014182D01*
X0035893Y0013808D01*
X0036380Y0013606D01*
X0036908Y0013605D01*
X0037396Y0013807D01*
X0037770Y0014180D01*
X0037915Y0014531D01*
X0038060Y0014182D01*
X0038433Y0013808D01*
X0038920Y0013606D01*
X0039448Y0013605D01*
X0039936Y0013807D01*
X0040310Y0014180D01*
X0040320Y0014206D01*
X0043124Y0014206D01*
X0043125Y0014205D01*
X0043357Y0014252D01*
X0043403Y0014261D01*
X0043639Y0014418D01*
X0044200Y0014980D01*
X0044228Y0015021D01*
X0044358Y0015216D01*
X0044369Y0015275D01*
X0044413Y0015494D01*
X0044413Y0015494D01*
X0044413Y0018018D01*
X0044413Y0018163D01*
X0044413Y0018163D01*
X0044413Y0022781D01*
X0044448Y0022781D01*
X0044576Y0022806D01*
X0044684Y0022878D01*
X0044756Y0022986D01*
X0044781Y0023114D01*
X0044781Y0024638D01*
X0044756Y0024766D01*
X0044684Y0024874D01*
X0044576Y0024946D01*
X0044448Y0024971D01*
X0044413Y0024971D01*
X0044413Y0025321D01*
X0044448Y0025321D01*
X0044576Y0025346D01*
X0044684Y0025418D01*
X0044756Y0025526D01*
X0044781Y0025654D01*
X0044781Y0027178D01*
X0044756Y0027306D01*
X0044684Y0027414D01*
X0044576Y0027486D01*
X0044448Y0027511D01*
X0044413Y0027511D01*
X0044413Y0027737D01*
X0044413Y0027737D01*
X0044358Y0028015D01*
X0044358Y0028015D01*
X0044200Y0028251D01*
X0044200Y0028251D01*
X0043540Y0028911D01*
X0043304Y0029069D01*
X0043258Y0029078D01*
X0043026Y0029124D01*
X0043026Y0029124D01*
X0034288Y0029124D01*
X0034288Y0029124D01*
X0034056Y0029078D01*
X0034010Y0029069D01*
X0033774Y0028911D01*
X0033774Y0028911D01*
X0033012Y0028149D01*
X0032854Y0027913D01*
X0032848Y0027883D01*
X0032799Y0027635D01*
X0032799Y0027635D01*
X0032799Y0027511D01*
X0032764Y0027511D01*
X0032636Y0027486D01*
X0032528Y0027414D01*
X0032456Y0027306D01*
X0032431Y0027178D01*
X0020212Y0027178D01*
X0020212Y0039730D01*
X0069700Y0039730D01*
X0069700Y0000402D01*
X0000000Y0040130D02*
%LPD*%
G01*
D23*
D26*
X0014986Y0075436D03*
X0004826Y0075436D03*
X0004826Y0044956D03*
X0014986Y0044956D03*
D24*
X0005969Y0069213D03*
X0003429Y0069213D03*
X0005969Y0066673D03*
X0003429Y0066673D03*
X0003429Y0064133D03*
X0005969Y0064133D03*
X0005969Y0061593D03*
X0003429Y0061593D03*
X0003429Y0059053D03*
X0005969Y0059053D03*
X0005969Y0055624D03*
X0003429Y0055624D03*
X0003429Y0053084D03*
X0005969Y0053084D03*
X0005969Y0050544D03*
X0003429Y0050544D03*
X0014630Y0050849D03*
X0017170Y0050849D03*
D17*
X0012954Y0059180D03*
X0011582Y0052170D03*
X0001778Y0059078D03*
X0016307Y0052627D03*
X0017475Y0052576D03*
X0018745Y0052576D03*
X0018999Y0056894D03*
X0018999Y0057808D03*
X0018694Y0058875D03*
X0008077Y0071931D03*
X0011074Y0071880D03*
X0011938Y0048715D03*
X0018186Y0064666D03*
X0017475Y0063955D03*
X0017424Y0065124D03*
X0010363Y0059231D03*
X0008382Y0068070D03*
X0011786Y0057504D03*
X0009970Y0066267D03*
X0014056Y0059028D03*
X0011430Y0061212D03*
X0010770Y0067460D03*
X0015418Y0059266D03*
X0016713Y0055980D03*
X0016871Y0061031D03*
X0016307Y0065886D03*
X0018542Y0063498D03*
X0016662Y0054405D03*
X0017577Y0058266D03*
X0014859Y0056005D03*
X0010719Y0055370D03*
X0012299Y0061966D03*
X0013868Y0068781D03*
D28*
X0003429Y0059053D02*
X0001803Y0059053D01*
X0001803Y0059053D02*
X0001778Y0059078D01*
X0018745Y0052576D02*
X0017475Y0052576D01*
X0018694Y0058875D02*
X0018694Y0058113D01*
X0018694Y0058113D02*
X0018999Y0057808D01*
X0011074Y0071880D02*
X0008128Y0071880D01*
X0008128Y0071880D02*
X0008077Y0071931D01*
D15*
X0017424Y0065124D02*
X0017424Y0064006D01*
X0017424Y0064006D02*
X0017475Y0063955D01*
D17*
X0008382Y0065174D02*
X0008382Y0068070D01*
X0008382Y0064158D02*
X0008382Y0063092D01*
X0008382Y0063092D02*
X0008382Y0060907D01*
X0005969Y0064133D02*
X0007531Y0064133D01*
X0008382Y0063282D02*
X0008382Y0063092D01*
X0007531Y0064133D02*
X0008382Y0063282D01*
X0008382Y0065174D02*
X0008382Y0064158D01*
X0007531Y0064133D02*
X0008382Y0064984D01*
X0008382Y0064984D02*
X0008382Y0065174D01*
X0007531Y0064133D02*
X0007556Y0064158D01*
X0007556Y0064158D02*
X0008382Y0064158D01*
X0003429Y0064133D02*
X0005969Y0064133D01*
X0008382Y0060907D02*
X0008382Y0058862D01*
X0011786Y0057504D02*
X0009740Y0057504D01*
X0009740Y0057504D02*
X0008382Y0058862D01*
X0005131Y0057402D02*
X0006922Y0057402D01*
X0006922Y0057402D02*
X0008382Y0058862D01*
X0003429Y0055700D02*
X0005131Y0057402D01*
X0003429Y0055624D02*
X0003429Y0055700D01*
X0003429Y0053084D02*
X0003429Y0055624D01*
X0003429Y0050544D02*
X0003429Y0053084D01*
D15*
X0013504Y0060145D02*
X0011125Y0060145D01*
X0014056Y0059593D02*
X0013504Y0060145D01*
X0009970Y0065701D02*
X0009970Y0066267D01*
X0014056Y0059028D02*
X0014056Y0059593D01*
X0009970Y0061301D02*
X0009970Y0065701D01*
X0011125Y0060145D02*
X0009970Y0061301D01*
X0010770Y0067460D02*
X0011430Y0066800D01*
X0011430Y0061778D02*
X0011430Y0061212D01*
X0011430Y0066800D02*
X0011430Y0061778D01*
X0005969Y0055624D02*
X0007131Y0055624D01*
X0007131Y0055624D02*
X0008096Y0056589D01*
X0008096Y0056589D02*
X0013307Y0056589D01*
X0013307Y0056589D02*
X0015418Y0058700D01*
X0015418Y0058700D02*
X0015418Y0059266D01*
X0016967Y0061110D02*
X0016764Y0060907D01*
X0016313Y0055580D02*
X0016713Y0055980D01*
X0013818Y0053084D02*
X0016313Y0055580D01*
X0005969Y0053084D02*
X0013818Y0053084D01*
X0016713Y0056545D02*
X0016713Y0055980D01*
X0016764Y0060907D02*
X0016764Y0056596D01*
X0016764Y0056596D02*
X0016713Y0056545D01*
X0016888Y0061031D02*
X0016871Y0061031D01*
X0016967Y0061110D02*
X0016888Y0061031D01*
X0016307Y0065886D02*
X0016307Y0061771D01*
X0016307Y0061771D02*
X0016967Y0061110D01*
X0018142Y0063098D02*
X0018542Y0063498D01*
X0017678Y0062634D02*
X0018142Y0063098D01*
X0017577Y0058831D02*
X0017678Y0058933D01*
X0017577Y0058266D02*
X0017577Y0058831D01*
X0017678Y0058933D02*
X0017678Y0062634D01*
X0017577Y0058266D02*
X0017577Y0055319D01*
X0017577Y0055319D02*
X0017062Y0054805D01*
X0017062Y0054805D02*
X0016662Y0054405D01*
X0016097Y0054405D02*
X0016662Y0054405D01*
X0005969Y0050544D02*
X0012192Y0050544D01*
X0012192Y0050544D02*
X0016053Y0054405D01*
X0016053Y0054405D02*
X0016097Y0054405D01*
D20*
X0014293Y0056005D02*
X0014859Y0056005D01*
X0015259Y0056405D02*
X0014859Y0056005D01*
X0016205Y0060653D02*
X0016205Y0057351D01*
X0011354Y0056005D02*
X0014293Y0056005D01*
X0016205Y0057351D02*
X0015259Y0056405D01*
X0015291Y0061568D02*
X0016205Y0060653D01*
X0010719Y0055370D02*
X0011354Y0056005D01*
X0015291Y0061568D02*
X0014892Y0061966D01*
X0015291Y0061568D02*
X0016053Y0060806D01*
X0014892Y0061966D02*
X0012299Y0061966D01*
D15*
X0013868Y0068781D02*
X0012299Y0067211D01*
X0012299Y0067211D02*
X0012299Y0061966D01*
D12*
G36*
X0019410Y0040532D02*
X0000402Y0040532D01*
X0000402Y0062355D01*
X0002334Y0062355D01*
X0002334Y0060831D01*
X0002359Y0060703D01*
X0002431Y0060595D01*
X0002539Y0060523D01*
X0002667Y0060498D01*
X0004191Y0060498D01*
X0004319Y0060523D01*
X0004427Y0060595D01*
X0004499Y0060703D01*
X0004524Y0060831D01*
X0004524Y0062355D01*
X0004874Y0062355D01*
X0004874Y0060831D01*
X0004899Y0060703D01*
X0004971Y0060595D01*
X0005079Y0060523D01*
X0005207Y0060498D01*
X0006731Y0060498D01*
X0006859Y0060523D01*
X0006967Y0060595D01*
X0007039Y0060703D01*
X0007064Y0060831D01*
X0007064Y0062355D01*
X0007039Y0062483D01*
X0006967Y0062591D01*
X0006859Y0062663D01*
X0006731Y0062688D01*
X0005207Y0062688D01*
X0005079Y0062663D01*
X0004971Y0062591D01*
X0004899Y0062483D01*
X0004874Y0062355D01*
X0004524Y0062355D01*
X0004499Y0062483D01*
X0004427Y0062591D01*
X0004319Y0062663D01*
X0004191Y0062688D01*
X0002667Y0062688D01*
X0002539Y0062663D01*
X0002431Y0062591D01*
X0002359Y0062483D01*
X0002334Y0062355D01*
X0000402Y0062355D01*
X0000402Y0064895D01*
X0002334Y0064895D01*
X0002334Y0063371D01*
X0002359Y0063243D01*
X0002431Y0063135D01*
X0002539Y0063063D01*
X0002667Y0063038D01*
X0004191Y0063038D01*
X0004319Y0063063D01*
X0004427Y0063135D01*
X0004499Y0063243D01*
X0004524Y0063371D01*
X0004524Y0063406D01*
X0004874Y0063406D01*
X0004874Y0063371D01*
X0004899Y0063243D01*
X0004971Y0063135D01*
X0005079Y0063063D01*
X0005207Y0063038D01*
X0006731Y0063038D01*
X0006859Y0063063D01*
X0006967Y0063135D01*
X0007039Y0063243D01*
X0007064Y0063371D01*
X0007064Y0063406D01*
X0007230Y0063406D01*
X0007655Y0062981D01*
X0007655Y0059163D01*
X0006621Y0058129D01*
X0005131Y0058129D01*
X0005131Y0058129D01*
X0004899Y0058083D01*
X0004853Y0058074D01*
X0004617Y0057916D01*
X0004617Y0057916D01*
X0003420Y0056719D01*
X0002667Y0056719D01*
X0002539Y0056694D01*
X0002431Y0056622D01*
X0002359Y0056514D01*
X0002334Y0056386D01*
X0002334Y0054862D01*
X0002359Y0054734D01*
X0002431Y0054626D01*
X0002539Y0054554D01*
X0002667Y0054529D01*
X0002702Y0054529D01*
X0002702Y0054179D01*
X0002667Y0054179D01*
X0002539Y0054154D01*
X0002431Y0054082D01*
X0002359Y0053974D01*
X0002334Y0053846D01*
X0002334Y0052322D01*
X0002359Y0052194D01*
X0002431Y0052086D01*
X0002539Y0052014D01*
X0002667Y0051989D01*
X0002702Y0051989D01*
X0002702Y0051639D01*
X0002667Y0051639D01*
X0002539Y0051614D01*
X0002431Y0051542D01*
X0002359Y0051434D01*
X0002334Y0051306D01*
X0002334Y0049782D01*
X0002359Y0049654D01*
X0002431Y0049546D01*
X0002539Y0049474D01*
X0002667Y0049449D01*
X0004191Y0049449D01*
X0004319Y0049474D01*
X0004427Y0049546D01*
X0004499Y0049654D01*
X0004524Y0049782D01*
X0004524Y0051306D01*
X0004499Y0051434D01*
X0004427Y0051542D01*
X0004319Y0051614D01*
X0004191Y0051639D01*
X0004156Y0051639D01*
X0004156Y0051989D01*
X0004191Y0051989D01*
X0004319Y0052014D01*
X0004427Y0052086D01*
X0004499Y0052194D01*
X0004524Y0052322D01*
X0004524Y0053846D01*
X0004499Y0053974D01*
X0004427Y0054082D01*
X0004319Y0054154D01*
X0004191Y0054179D01*
X0004156Y0054179D01*
X0004156Y0054529D01*
X0004191Y0054529D01*
X0004319Y0054554D01*
X0004427Y0054626D01*
X0004499Y0054734D01*
X0004524Y0054862D01*
X0004524Y0055767D01*
X0004874Y0056117D01*
X0004874Y0054862D01*
X0004899Y0054734D01*
X0004971Y0054626D01*
X0005079Y0054554D01*
X0005207Y0054529D01*
X0006731Y0054529D01*
X0006859Y0054554D01*
X0006967Y0054626D01*
X0007039Y0054734D01*
X0007064Y0054862D01*
X0007064Y0055097D01*
X0007131Y0055097D01*
X0007333Y0055137D01*
X0007504Y0055251D01*
X0008314Y0056062D01*
X0010490Y0056062D01*
X0010308Y0055987D01*
X0010103Y0055782D01*
X0009992Y0055515D01*
X0009992Y0055226D01*
X0010102Y0054959D01*
X0010306Y0054754D01*
X0010574Y0054643D01*
X0010863Y0054643D01*
X0011130Y0054753D01*
X0011335Y0054958D01*
X0011446Y0055225D01*
X0011446Y0055422D01*
X0011551Y0055528D01*
X0014308Y0055528D01*
X0014447Y0055389D01*
X0014714Y0055278D01*
X0015003Y0055278D01*
X0015270Y0055388D01*
X0015475Y0055593D01*
X0015586Y0055860D01*
X0015586Y0056057D01*
X0016214Y0056686D01*
X0016212Y0056675D01*
X0016186Y0056545D01*
X0016186Y0056481D01*
X0016097Y0056392D01*
X0015986Y0056125D01*
X0015986Y0055998D01*
X0013599Y0053611D01*
X0007064Y0053611D01*
X0007064Y0053846D01*
X0007039Y0053974D01*
X0006967Y0054082D01*
X0006859Y0054154D01*
X0006731Y0054179D01*
X0005207Y0054179D01*
X0005079Y0054154D01*
X0004971Y0054082D01*
X0004899Y0053974D01*
X0004874Y0053846D01*
X0004874Y0052322D01*
X0004899Y0052194D01*
X0004971Y0052086D01*
X0005079Y0052014D01*
X0005207Y0051989D01*
X0006731Y0051989D01*
X0006859Y0052014D01*
X0006967Y0052086D01*
X0007039Y0052194D01*
X0007064Y0052322D01*
X0007064Y0052557D01*
X0013460Y0052557D01*
X0011974Y0051071D01*
X0007064Y0051071D01*
X0007064Y0051306D01*
X0007039Y0051434D01*
X0006967Y0051542D01*
X0006859Y0051614D01*
X0006731Y0051639D01*
X0005207Y0051639D01*
X0005079Y0051614D01*
X0004971Y0051542D01*
X0004899Y0051434D01*
X0004874Y0051306D01*
X0004874Y0049782D01*
X0004899Y0049654D01*
X0004971Y0049546D01*
X0005079Y0049474D01*
X0005207Y0049449D01*
X0006731Y0049449D01*
X0006859Y0049474D01*
X0006967Y0049546D01*
X0007039Y0049654D01*
X0007064Y0049782D01*
X0007064Y0050017D01*
X0012192Y0050017D01*
X0012394Y0050057D01*
X0012565Y0050171D01*
X0013535Y0051142D01*
X0013535Y0050087D01*
X0013560Y0049959D01*
X0013633Y0049851D01*
X0013741Y0049779D01*
X0013868Y0049753D01*
X0015392Y0049753D01*
X0015520Y0049779D01*
X0015628Y0049851D01*
X0015700Y0049959D01*
X0015726Y0050087D01*
X0015726Y0051611D01*
X0016075Y0051611D01*
X0016075Y0050087D01*
X0016100Y0049959D01*
X0016173Y0049851D01*
X0016281Y0049779D01*
X0016408Y0049753D01*
X0017932Y0049753D01*
X0018060Y0049779D01*
X0018168Y0049851D01*
X0018240Y0049959D01*
X0018266Y0050087D01*
X0018266Y0051611D01*
X0018240Y0051738D01*
X0018168Y0051847D01*
X0018060Y0051919D01*
X0017932Y0051944D01*
X0016408Y0051944D01*
X0016281Y0051919D01*
X0016173Y0051847D01*
X0016100Y0051738D01*
X0016075Y0051611D01*
X0015726Y0051611D01*
X0015700Y0051738D01*
X0015628Y0051847D01*
X0015520Y0051919D01*
X0015392Y0051944D01*
X0014337Y0051944D01*
X0016216Y0053823D01*
X0016250Y0053789D01*
X0016517Y0053678D01*
X0016806Y0053678D01*
X0017074Y0053788D01*
X0017278Y0053992D01*
X0017389Y0054260D01*
X0017389Y0054386D01*
X0017949Y0054947D01*
X0018064Y0055118D01*
X0018104Y0055319D01*
X0018104Y0057764D01*
X0018193Y0057853D01*
X0018304Y0058120D01*
X0018304Y0058410D01*
X0018193Y0058677D01*
X0018155Y0058716D01*
X0018165Y0058731D01*
X0018205Y0058933D01*
X0018205Y0062416D01*
X0018560Y0062771D01*
X0018686Y0062771D01*
X0018953Y0062881D01*
X0019158Y0063086D01*
X0019269Y0063353D01*
X0019269Y0063642D01*
X0019159Y0063909D01*
X0018954Y0064114D01*
X0018687Y0064225D01*
X0018398Y0064225D01*
X0018131Y0064115D01*
X0017926Y0063910D01*
X0017815Y0063643D01*
X0017815Y0063516D01*
X0017306Y0063007D01*
X0017192Y0062836D01*
X0017192Y0062836D01*
X0017151Y0062634D01*
X0017151Y0061702D01*
X0017099Y0061724D01*
X0016834Y0061989D01*
X0016834Y0065384D01*
X0016923Y0065473D01*
X0017034Y0065740D01*
X0017034Y0066030D01*
X0016923Y0066297D01*
X0016719Y0066502D01*
X0016452Y0066612D01*
X0016163Y0066613D01*
X0015896Y0066502D01*
X0015691Y0066298D01*
X0015580Y0066031D01*
X0015580Y0065742D01*
X0015690Y0065474D01*
X0015780Y0065384D01*
X0015780Y0061771D01*
X0015784Y0061749D01*
X0015230Y0062303D01*
X0015075Y0062407D01*
X0014892Y0062443D01*
X0012850Y0062443D01*
X0012826Y0062467D01*
X0012826Y0066993D01*
X0013887Y0068054D01*
X0014012Y0068054D01*
X0014280Y0068165D01*
X0014484Y0068369D01*
X0014595Y0068636D01*
X0014596Y0068925D01*
X0014485Y0069192D01*
X0014281Y0069397D01*
X0014014Y0069508D01*
X0013724Y0069508D01*
X0013457Y0069398D01*
X0013252Y0069194D01*
X0013142Y0068926D01*
X0013141Y0068800D01*
X0011926Y0067584D01*
X0011812Y0067413D01*
X0011772Y0067211D01*
X0011772Y0067204D01*
X0011497Y0067479D01*
X0011497Y0067604D01*
X0011386Y0067872D01*
X0011182Y0068076D01*
X0010915Y0068187D01*
X0010626Y0068188D01*
X0010358Y0068077D01*
X0010154Y0067873D01*
X0010043Y0067606D01*
X0010042Y0067316D01*
X0010153Y0067049D01*
X0010275Y0066927D01*
X0010115Y0066993D01*
X0009826Y0066994D01*
X0009558Y0066883D01*
X0009354Y0066679D01*
X0009243Y0066412D01*
X0009242Y0066123D01*
X0009353Y0065855D01*
X0009443Y0065765D01*
X0009443Y0061301D01*
X0009483Y0061099D01*
X0009597Y0060928D01*
X0010753Y0059773D01*
X0010867Y0059696D01*
X0010924Y0059658D01*
X0011125Y0059618D01*
X0013286Y0059618D01*
X0013452Y0059452D01*
X0013440Y0059440D01*
X0013329Y0059173D01*
X0013329Y0058884D01*
X0013439Y0058616D01*
X0013644Y0058412D01*
X0013911Y0058301D01*
X0014200Y0058300D01*
X0014324Y0058352D01*
X0013089Y0057116D01*
X0012412Y0057116D01*
X0012512Y0057358D01*
X0012513Y0057648D01*
X0012402Y0057915D01*
X0012198Y0058120D01*
X0011931Y0058230D01*
X0011642Y0058231D01*
X0011641Y0058231D01*
X0010042Y0058231D01*
X0009109Y0059163D01*
X0009109Y0063282D01*
X0009109Y0063282D01*
X0009109Y0063282D01*
X0009109Y0064984D01*
X0009109Y0064984D01*
X0009109Y0064984D01*
X0009109Y0068069D01*
X0009109Y0068214D01*
X0008999Y0068481D01*
X0008794Y0068686D01*
X0008527Y0068797D01*
X0008238Y0068797D01*
X0007971Y0068687D01*
X0007766Y0068482D01*
X0007655Y0068215D01*
X0007655Y0067926D01*
X0007655Y0067926D01*
X0007655Y0065285D01*
X0007230Y0064860D01*
X0007064Y0064860D01*
X0007064Y0064895D01*
X0007039Y0065023D01*
X0006967Y0065131D01*
X0006859Y0065203D01*
X0006731Y0065228D01*
X0005207Y0065228D01*
X0005079Y0065203D01*
X0004971Y0065131D01*
X0004899Y0065023D01*
X0004874Y0064895D01*
X0004874Y0064860D01*
X0004524Y0064860D01*
X0004524Y0064895D01*
X0004499Y0065023D01*
X0004427Y0065131D01*
X0004319Y0065203D01*
X0004191Y0065228D01*
X0002667Y0065228D01*
X0002539Y0065203D01*
X0002431Y0065131D01*
X0002359Y0065023D01*
X0002334Y0064895D01*
X0000402Y0064895D01*
X0000402Y0067435D01*
X0002334Y0067435D01*
X0002334Y0065911D01*
X0002359Y0065783D01*
X0002431Y0065675D01*
X0002539Y0065603D01*
X0002667Y0065578D01*
X0004191Y0065578D01*
X0004319Y0065603D01*
X0004427Y0065675D01*
X0004499Y0065783D01*
X0004524Y0065911D01*
X0004524Y0067435D01*
X0004874Y0067435D01*
X0004874Y0065911D01*
X0004899Y0065783D01*
X0004971Y0065675D01*
X0005079Y0065603D01*
X0005207Y0065578D01*
X0006731Y0065578D01*
X0006859Y0065603D01*
X0006967Y0065675D01*
X0007039Y0065783D01*
X0007064Y0065911D01*
X0007064Y0067435D01*
X0007039Y0067563D01*
X0006967Y0067671D01*
X0006859Y0067743D01*
X0006731Y0067768D01*
X0005207Y0067768D01*
X0005079Y0067743D01*
X0004971Y0067671D01*
X0004899Y0067563D01*
X0004874Y0067435D01*
X0004524Y0067435D01*
X0004499Y0067563D01*
X0004427Y0067671D01*
X0004319Y0067743D01*
X0004191Y0067768D01*
X0002667Y0067768D01*
X0002539Y0067743D01*
X0002431Y0067671D01*
X0002359Y0067563D01*
X0002334Y0067435D01*
X0000402Y0067435D01*
X0000402Y0079860D01*
X0019410Y0079860D01*
X0019410Y0040532D01*
X0019410Y0040532D01*
G37*
X0019410Y0040532D02*
X0000402Y0040532D01*
X0000402Y0062355D01*
X0002334Y0062355D01*
X0002334Y0060831D01*
X0002359Y0060703D01*
X0002431Y0060595D01*
X0002539Y0060523D01*
X0002667Y0060498D01*
X0004191Y0060498D01*
X0004319Y0060523D01*
X0004427Y0060595D01*
X0004499Y0060703D01*
X0004524Y0060831D01*
X0004524Y0062355D01*
X0004874Y0062355D01*
X0004874Y0060831D01*
X0004899Y0060703D01*
X0004971Y0060595D01*
X0005079Y0060523D01*
X0005207Y0060498D01*
X0006731Y0060498D01*
X0006859Y0060523D01*
X0006967Y0060595D01*
X0007039Y0060703D01*
X0007064Y0060831D01*
X0007064Y0062355D01*
X0007039Y0062483D01*
X0006967Y0062591D01*
X0006859Y0062663D01*
X0006731Y0062688D01*
X0005207Y0062688D01*
X0005079Y0062663D01*
X0004971Y0062591D01*
X0004899Y0062483D01*
X0004874Y0062355D01*
X0004524Y0062355D01*
X0004499Y0062483D01*
X0004427Y0062591D01*
X0004319Y0062663D01*
X0004191Y0062688D01*
X0002667Y0062688D01*
X0002539Y0062663D01*
X0002431Y0062591D01*
X0002359Y0062483D01*
X0002334Y0062355D01*
X0000402Y0062355D01*
X0000402Y0064895D01*
X0002334Y0064895D01*
X0002334Y0063371D01*
X0002359Y0063243D01*
X0002431Y0063135D01*
X0002539Y0063063D01*
X0002667Y0063038D01*
X0004191Y0063038D01*
X0004319Y0063063D01*
X0004427Y0063135D01*
X0004499Y0063243D01*
X0004524Y0063371D01*
X0004524Y0063406D01*
X0004874Y0063406D01*
X0004874Y0063371D01*
X0004899Y0063243D01*
X0004971Y0063135D01*
X0005079Y0063063D01*
X0005207Y0063038D01*
X0006731Y0063038D01*
X0006859Y0063063D01*
X0006967Y0063135D01*
X0007039Y0063243D01*
X0007064Y0063371D01*
X0007064Y0063406D01*
X0007230Y0063406D01*
X0007655Y0062981D01*
X0007655Y0059163D01*
X0006621Y0058129D01*
X0005131Y0058129D01*
X0005131Y0058129D01*
X0004899Y0058083D01*
X0004853Y0058074D01*
X0004617Y0057916D01*
X0004617Y0057916D01*
X0003420Y0056719D01*
X0002667Y0056719D01*
X0002539Y0056694D01*
X0002431Y0056622D01*
X0002359Y0056514D01*
X0002334Y0056386D01*
X0002334Y0054862D01*
X0002359Y0054734D01*
X0002431Y0054626D01*
X0002539Y0054554D01*
X0002667Y0054529D01*
X0002702Y0054529D01*
X0002702Y0054179D01*
X0002667Y0054179D01*
X0002539Y0054154D01*
X0002431Y0054082D01*
X0002359Y0053974D01*
X0002334Y0053846D01*
X0002334Y0052322D01*
X0002359Y0052194D01*
X0002431Y0052086D01*
X0002539Y0052014D01*
X0002667Y0051989D01*
X0002702Y0051989D01*
X0002702Y0051639D01*
X0002667Y0051639D01*
X0002539Y0051614D01*
X0002431Y0051542D01*
X0002359Y0051434D01*
X0002334Y0051306D01*
X0002334Y0049782D01*
X0002359Y0049654D01*
X0002431Y0049546D01*
X0002539Y0049474D01*
X0002667Y0049449D01*
X0004191Y0049449D01*
X0004319Y0049474D01*
X0004427Y0049546D01*
X0004499Y0049654D01*
X0004524Y0049782D01*
X0004524Y0051306D01*
X0004499Y0051434D01*
X0004427Y0051542D01*
X0004319Y0051614D01*
X0004191Y0051639D01*
X0004156Y0051639D01*
X0004156Y0051989D01*
X0004191Y0051989D01*
X0004319Y0052014D01*
X0004427Y0052086D01*
X0004499Y0052194D01*
X0004524Y0052322D01*
X0004524Y0053846D01*
X0004499Y0053974D01*
X0004427Y0054082D01*
X0004319Y0054154D01*
X0004191Y0054179D01*
X0004156Y0054179D01*
X0004156Y0054529D01*
X0004191Y0054529D01*
X0004319Y0054554D01*
X0004427Y0054626D01*
X0004499Y0054734D01*
X0004524Y0054862D01*
X0004524Y0055767D01*
X0004874Y0056117D01*
X0004874Y0054862D01*
X0004899Y0054734D01*
X0004971Y0054626D01*
X0005079Y0054554D01*
X0005207Y0054529D01*
X0006731Y0054529D01*
X0006859Y0054554D01*
X0006967Y0054626D01*
X0007039Y0054734D01*
X0007064Y0054862D01*
X0007064Y0055097D01*
X0007131Y0055097D01*
X0007333Y0055137D01*
X0007504Y0055251D01*
X0008314Y0056062D01*
X0010490Y0056062D01*
X0010308Y0055987D01*
X0010103Y0055782D01*
X0009992Y0055515D01*
X0009992Y0055226D01*
X0010102Y0054959D01*
X0010306Y0054754D01*
X0010574Y0054643D01*
X0010863Y0054643D01*
X0011130Y0054753D01*
X0011335Y0054958D01*
X0011446Y0055225D01*
X0011446Y0055422D01*
X0011551Y0055528D01*
X0014308Y0055528D01*
X0014447Y0055389D01*
X0014714Y0055278D01*
X0015003Y0055278D01*
X0015270Y0055388D01*
X0015475Y0055593D01*
X0015586Y0055860D01*
X0015586Y0056057D01*
X0016214Y0056686D01*
X0016212Y0056675D01*
X0016186Y0056545D01*
X0016186Y0056481D01*
X0016097Y0056392D01*
X0015986Y0056125D01*
X0015986Y0055998D01*
X0013599Y0053611D01*
X0007064Y0053611D01*
X0007064Y0053846D01*
X0007039Y0053974D01*
X0006967Y0054082D01*
X0006859Y0054154D01*
X0006731Y0054179D01*
X0005207Y0054179D01*
X0005079Y0054154D01*
X0004971Y0054082D01*
X0004899Y0053974D01*
X0004874Y0053846D01*
X0004874Y0052322D01*
X0004899Y0052194D01*
X0004971Y0052086D01*
X0005079Y0052014D01*
X0005207Y0051989D01*
X0006731Y0051989D01*
X0006859Y0052014D01*
X0006967Y0052086D01*
X0007039Y0052194D01*
X0007064Y0052322D01*
X0007064Y0052557D01*
X0013460Y0052557D01*
X0011974Y0051071D01*
X0007064Y0051071D01*
X0007064Y0051306D01*
X0007039Y0051434D01*
X0006967Y0051542D01*
X0006859Y0051614D01*
X0006731Y0051639D01*
X0005207Y0051639D01*
X0005079Y0051614D01*
X0004971Y0051542D01*
X0004899Y0051434D01*
X0004874Y0051306D01*
X0004874Y0049782D01*
X0004899Y0049654D01*
X0004971Y0049546D01*
X0005079Y0049474D01*
X0005207Y0049449D01*
X0006731Y0049449D01*
X0006859Y0049474D01*
X0006967Y0049546D01*
X0007039Y0049654D01*
X0007064Y0049782D01*
X0007064Y0050017D01*
X0012192Y0050017D01*
X0012394Y0050057D01*
X0012565Y0050171D01*
X0013535Y0051142D01*
X0013535Y0050087D01*
X0013560Y0049959D01*
X0013633Y0049851D01*
X0013741Y0049779D01*
X0013868Y0049753D01*
X0015392Y0049753D01*
X0015520Y0049779D01*
X0015628Y0049851D01*
X0015700Y0049959D01*
X0015726Y0050087D01*
X0015726Y0051611D01*
X0016075Y0051611D01*
X0016075Y0050087D01*
X0016100Y0049959D01*
X0016173Y0049851D01*
X0016281Y0049779D01*
X0016408Y0049753D01*
X0017932Y0049753D01*
X0018060Y0049779D01*
X0018168Y0049851D01*
X0018240Y0049959D01*
X0018266Y0050087D01*
X0018266Y0051611D01*
X0018240Y0051738D01*
X0018168Y0051847D01*
X0018060Y0051919D01*
X0017932Y0051944D01*
X0016408Y0051944D01*
X0016281Y0051919D01*
X0016173Y0051847D01*
X0016100Y0051738D01*
X0016075Y0051611D01*
X0015726Y0051611D01*
X0015700Y0051738D01*
X0015628Y0051847D01*
X0015520Y0051919D01*
X0015392Y0051944D01*
X0014337Y0051944D01*
X0016216Y0053823D01*
X0016250Y0053789D01*
X0016517Y0053678D01*
X0016806Y0053678D01*
X0017074Y0053788D01*
X0017278Y0053992D01*
X0017389Y0054260D01*
X0017389Y0054386D01*
X0017949Y0054947D01*
X0018064Y0055118D01*
X0018104Y0055319D01*
X0018104Y0057764D01*
X0018193Y0057853D01*
X0018304Y0058120D01*
X0018304Y0058410D01*
X0018193Y0058677D01*
X0018155Y0058716D01*
X0018165Y0058731D01*
X0018205Y0058933D01*
X0018205Y0062416D01*
X0018560Y0062771D01*
X0018686Y0062771D01*
X0018953Y0062881D01*
X0019158Y0063086D01*
X0019269Y0063353D01*
X0019269Y0063642D01*
X0019159Y0063909D01*
X0018954Y0064114D01*
X0018687Y0064225D01*
X0018398Y0064225D01*
X0018131Y0064115D01*
X0017926Y0063910D01*
X0017815Y0063643D01*
X0017815Y0063516D01*
X0017306Y0063007D01*
X0017192Y0062836D01*
X0017192Y0062836D01*
X0017151Y0062634D01*
X0017151Y0061702D01*
X0017099Y0061724D01*
X0016834Y0061989D01*
X0016834Y0065384D01*
X0016923Y0065473D01*
X0017034Y0065740D01*
X0017034Y0066030D01*
X0016923Y0066297D01*
X0016719Y0066502D01*
X0016452Y0066612D01*
X0016163Y0066613D01*
X0015896Y0066502D01*
X0015691Y0066298D01*
X0015580Y0066031D01*
X0015580Y0065742D01*
X0015690Y0065474D01*
X0015780Y0065384D01*
X0015780Y0061771D01*
X0015784Y0061749D01*
X0015230Y0062303D01*
X0015075Y0062407D01*
X0014892Y0062443D01*
X0012850Y0062443D01*
X0012826Y0062467D01*
X0012826Y0066993D01*
X0013887Y0068054D01*
X0014012Y0068054D01*
X0014280Y0068165D01*
X0014484Y0068369D01*
X0014595Y0068636D01*
X0014596Y0068925D01*
X0014485Y0069192D01*
X0014281Y0069397D01*
X0014014Y0069508D01*
X0013724Y0069508D01*
X0013457Y0069398D01*
X0013252Y0069194D01*
X0013142Y0068926D01*
X0013141Y0068800D01*
X0011926Y0067584D01*
X0011812Y0067413D01*
X0011772Y0067211D01*
X0011772Y0067204D01*
X0011497Y0067479D01*
X0011497Y0067604D01*
X0011386Y0067872D01*
X0011182Y0068076D01*
X0010915Y0068187D01*
X0010626Y0068188D01*
X0010358Y0068077D01*
X0010154Y0067873D01*
X0010043Y0067606D01*
X0010042Y0067316D01*
X0010153Y0067049D01*
X0010275Y0066927D01*
X0010115Y0066993D01*
X0009826Y0066994D01*
X0009558Y0066883D01*
X0009354Y0066679D01*
X0009243Y0066412D01*
X0009242Y0066123D01*
X0009353Y0065855D01*
X0009443Y0065765D01*
X0009443Y0061301D01*
X0009483Y0061099D01*
X0009597Y0060928D01*
X0010753Y0059773D01*
X0010867Y0059696D01*
X0010924Y0059658D01*
X0011125Y0059618D01*
X0013286Y0059618D01*
X0013452Y0059452D01*
X0013440Y0059440D01*
X0013329Y0059173D01*
X0013329Y0058884D01*
X0013439Y0058616D01*
X0013644Y0058412D01*
X0013911Y0058301D01*
X0014200Y0058300D01*
X0014324Y0058352D01*
X0013089Y0057116D01*
X0012412Y0057116D01*
X0012512Y0057358D01*
X0012513Y0057648D01*
X0012402Y0057915D01*
X0012198Y0058120D01*
X0011931Y0058230D01*
X0011642Y0058231D01*
X0011641Y0058231D01*
X0010042Y0058231D01*
X0009109Y0059163D01*
X0009109Y0063282D01*
X0009109Y0063282D01*
X0009109Y0063282D01*
X0009109Y0064984D01*
X0009109Y0064984D01*
X0009109Y0064984D01*
X0009109Y0068069D01*
X0009109Y0068214D01*
X0008999Y0068481D01*
X0008794Y0068686D01*
X0008527Y0068797D01*
X0008238Y0068797D01*
X0007971Y0068687D01*
X0007766Y0068482D01*
X0007655Y0068215D01*
X0007655Y0067926D01*
X0007655Y0067926D01*
X0007655Y0065285D01*
X0007230Y0064860D01*
X0007064Y0064860D01*
X0007064Y0064895D01*
X0007039Y0065023D01*
X0006967Y0065131D01*
X0006859Y0065203D01*
X0006731Y0065228D01*
X0005207Y0065228D01*
X0005079Y0065203D01*
X0004971Y0065131D01*
X0004899Y0065023D01*
X0004874Y0064895D01*
X0004874Y0064860D01*
X0004524Y0064860D01*
X0004524Y0064895D01*
X0004499Y0065023D01*
X0004427Y0065131D01*
X0004319Y0065203D01*
X0004191Y0065228D01*
X0002667Y0065228D01*
X0002539Y0065203D01*
X0002431Y0065131D01*
X0002359Y0065023D01*
X0002334Y0064895D01*
X0000402Y0064895D01*
X0000402Y0067435D01*
X0002334Y0067435D01*
X0002334Y0065911D01*
X0002359Y0065783D01*
X0002431Y0065675D01*
X0002539Y0065603D01*
X0002667Y0065578D01*
X0004191Y0065578D01*
X0004319Y0065603D01*
X0004427Y0065675D01*
X0004499Y0065783D01*
X0004524Y0065911D01*
X0004524Y0067435D01*
X0004874Y0067435D01*
X0004874Y0065911D01*
X0004899Y0065783D01*
X0004971Y0065675D01*
X0005079Y0065603D01*
X0005207Y0065578D01*
X0006731Y0065578D01*
X0006859Y0065603D01*
X0006967Y0065675D01*
X0007039Y0065783D01*
X0007064Y0065911D01*
X0007064Y0067435D01*
X0007039Y0067563D01*
X0006967Y0067671D01*
X0006859Y0067743D01*
X0006731Y0067768D01*
X0005207Y0067768D01*
X0005079Y0067743D01*
X0004971Y0067671D01*
X0004899Y0067563D01*
X0004874Y0067435D01*
X0004524Y0067435D01*
X0004499Y0067563D01*
X0004427Y0067671D01*
X0004319Y0067743D01*
X0004191Y0067768D01*
X0002667Y0067768D01*
X0002539Y0067743D01*
X0002431Y0067671D01*
X0002359Y0067563D01*
X0002334Y0067435D01*
X0000402Y0067435D01*
X0000402Y0079860D01*
X0019410Y0079860D01*
X0019410Y0040532D01*
X0019810Y0040130D02*
%LPD*%
G01*
D23*
D26*
X0065276Y0065276D03*
X0024636Y0065276D03*
X0024636Y0044956D03*
X0065276Y0044956D03*
D24*
X0033526Y0064006D03*
X0033526Y0066546D03*
X0036066Y0064006D03*
X0036066Y0066546D03*
X0038606Y0066546D03*
X0038606Y0064006D03*
X0041146Y0064006D03*
X0041146Y0066546D03*
X0043686Y0066546D03*
X0043686Y0064006D03*
X0053846Y0064006D03*
X0053846Y0066546D03*
X0056386Y0064006D03*
X0056386Y0066546D03*
X0030986Y0061466D03*
X0033526Y0061466D03*
X0064006Y0058926D03*
X0066546Y0058926D03*
X0064006Y0056386D03*
X0066546Y0056386D03*
D21*
X0047445Y0046163D03*
X0057605Y0046163D03*
D19*
X0053155Y0052523D03*
X0055695Y0052523D03*
X0050615Y0052523D03*
X0049345Y0055063D03*
X0051885Y0055063D03*
X0054425Y0055063D03*
X0039185Y0055063D03*
X0036645Y0055063D03*
X0034105Y0055063D03*
X0035375Y0052523D03*
X0040455Y0052523D03*
X0037915Y0052523D03*
D21*
X0042365Y0046163D03*
X0032205Y0046163D03*
D24*
X0066546Y0053846D03*
X0064006Y0053846D03*
X0064006Y0051306D03*
X0066546Y0051306D03*
X0023366Y0058926D03*
X0025906Y0058926D03*
X0023366Y0056386D03*
X0025906Y0056386D03*
X0023366Y0053846D03*
X0025906Y0053846D03*
X0023366Y0051306D03*
X0025906Y0051306D03*
D17*
X0048766Y0051814D03*
X0047750Y0051814D03*
X0046734Y0051814D03*
X0043686Y0051814D03*
X0042670Y0051814D03*
X0035812Y0050798D03*
X0036320Y0050036D03*
X0035050Y0050036D03*
X0034542Y0051052D03*
X0033272Y0051052D03*
X0034034Y0050290D03*
X0031748Y0049274D03*
X0045464Y0051716D03*
X0033018Y0057148D03*
X0045616Y0056081D03*
X0041908Y0056132D03*
X0043686Y0058149D03*
X0061212Y0056335D03*
X0056386Y0056132D03*
X0050646Y0049985D03*
D28*
X0046734Y0051814D02*
X0047750Y0051814D01*
X0047750Y0051814D02*
X0047750Y0051814D01*
X0043686Y0051814D02*
X0043686Y0051814D01*
X0042670Y0051814D02*
X0043686Y0051814D01*
D10*
X0035666Y0050652D02*
X0035812Y0050798D01*
X0034942Y0050652D02*
X0035666Y0050652D01*
X0034542Y0051052D02*
X0034942Y0050652D01*
X0035050Y0050036D02*
X0036320Y0050036D01*
X0034034Y0050290D02*
X0033272Y0051052D01*
X0024636Y0044956D02*
X0028954Y0049274D01*
X0028954Y0049274D02*
X0031748Y0049274D01*
D17*
X0053084Y0048763D02*
X0053081Y0048766D01*
X0053081Y0048766D02*
X0049023Y0048766D01*
X0049023Y0048766D02*
X0049020Y0048763D01*
X0049020Y0048763D02*
X0049277Y0048763D01*
X0049020Y0048763D02*
X0045464Y0048763D01*
X0045464Y0048763D02*
X0037844Y0048763D01*
D10*
X0045464Y0051716D02*
X0045464Y0051150D01*
X0045464Y0051150D02*
X0045464Y0048763D01*
D17*
X0061463Y0048763D02*
X0053084Y0048763D01*
X0053084Y0048763D02*
X0053155Y0048834D01*
X0053155Y0048834D02*
X0053155Y0052523D01*
X0037844Y0048763D02*
X0034037Y0048763D01*
X0037844Y0048763D02*
X0037915Y0048834D01*
X0037915Y0048834D02*
X0037915Y0052523D01*
X0064006Y0051306D02*
X0061463Y0048763D01*
X0032505Y0056635D02*
X0033018Y0057148D01*
X0034037Y0048763D02*
X0031748Y0051052D01*
X0031748Y0051052D02*
X0031748Y0055878D01*
X0031748Y0055878D02*
X0032505Y0056635D01*
D10*
X0064006Y0053846D02*
X0060004Y0053846D01*
X0056448Y0057402D02*
X0052322Y0057402D01*
X0060004Y0053846D02*
X0056448Y0057402D01*
X0052322Y0057402D02*
X0051885Y0056965D01*
X0051885Y0056965D02*
X0051885Y0055063D01*
X0046016Y0055681D02*
X0045616Y0056081D01*
X0046635Y0055063D02*
X0046016Y0055681D01*
X0049345Y0055063D02*
X0046635Y0055063D01*
X0034105Y0055063D02*
X0034133Y0055063D01*
X0034133Y0055063D02*
X0035964Y0056894D01*
X0035964Y0056894D02*
X0041146Y0056894D01*
X0041146Y0056894D02*
X0041908Y0056132D01*
X0064006Y0058926D02*
X0053846Y0058926D01*
X0053846Y0058926D02*
X0050798Y0058926D01*
X0053846Y0064006D02*
X0053846Y0058926D01*
X0053846Y0066546D02*
X0053846Y0064006D01*
X0049345Y0057473D02*
X0049345Y0055063D01*
X0050798Y0058926D02*
X0049345Y0057473D01*
D17*
X0033526Y0066546D02*
X0033526Y0067765D01*
X0033526Y0067765D02*
X0034288Y0068527D01*
X0034288Y0068527D02*
X0043026Y0068527D01*
X0043026Y0068527D02*
X0043686Y0067867D01*
X0043686Y0067867D02*
X0043686Y0066546D01*
X0043125Y0055063D02*
X0043686Y0055624D01*
X0043686Y0055624D02*
X0043686Y0058149D01*
X0039185Y0055063D02*
X0043125Y0055063D01*
X0033526Y0064006D02*
X0033526Y0066546D01*
X0033526Y0061466D02*
X0033526Y0064006D01*
X0043686Y0066546D02*
X0043686Y0064006D01*
X0043686Y0058149D02*
X0043686Y0062444D01*
X0043686Y0062444D02*
X0043686Y0064006D01*
D10*
X0061612Y0056735D02*
X0061212Y0056335D01*
X0065284Y0057648D02*
X0062525Y0057648D01*
X0066546Y0056386D02*
X0065284Y0057648D01*
X0062525Y0057648D02*
X0061612Y0056735D01*
X0056386Y0056132D02*
X0056386Y0053213D01*
X0056386Y0053213D02*
X0055695Y0052523D01*
X0050615Y0052523D02*
X0050615Y0050016D01*
X0050615Y0050016D02*
X0050646Y0049985D01*
D12*
G36*
X0069700Y0040532D02*
X0020212Y0040532D01*
X0020212Y0045702D01*
X0029878Y0045702D01*
X0030231Y0044846D01*
X0030885Y0044191D01*
X0031740Y0043836D01*
X0032666Y0043835D01*
X0033522Y0044189D01*
X0034177Y0044843D01*
X0034532Y0045698D01*
X0034533Y0046623D01*
X0034179Y0047479D01*
X0033525Y0048134D01*
X0032670Y0048489D01*
X0031744Y0048490D01*
X0030889Y0048136D01*
X0030234Y0047482D01*
X0029879Y0046627D01*
X0029878Y0045702D01*
X0020212Y0045702D01*
X0020212Y0055878D01*
X0031021Y0055878D01*
X0031021Y0055878D01*
X0031021Y0051052D01*
X0031021Y0051052D01*
X0031034Y0050989D01*
X0031076Y0050774D01*
X0031212Y0050571D01*
X0031234Y0050538D01*
X0033523Y0048248D01*
X0033523Y0048248D01*
X0033621Y0048183D01*
X0033759Y0048091D01*
X0034037Y0048036D01*
X0034038Y0048036D01*
X0037844Y0048036D01*
X0037844Y0048036D01*
X0037844Y0048036D01*
X0040948Y0048036D01*
X0040394Y0047482D01*
X0040039Y0046627D01*
X0040038Y0045702D01*
X0040391Y0044846D01*
X0041045Y0044191D01*
X0041900Y0043836D01*
X0042826Y0043835D01*
X0043682Y0044189D01*
X0044337Y0044843D01*
X0044692Y0045698D01*
X0044693Y0046623D01*
X0044339Y0047479D01*
X0043783Y0048036D01*
X0046028Y0048036D01*
X0045474Y0047482D01*
X0045119Y0046627D01*
X0045118Y0045702D01*
X0045471Y0044846D01*
X0046125Y0044191D01*
X0046980Y0043836D01*
X0047906Y0043835D01*
X0048762Y0044189D01*
X0049417Y0044843D01*
X0049772Y0045698D01*
X0049773Y0046623D01*
X0049419Y0047479D01*
X0048863Y0048036D01*
X0049020Y0048036D01*
X0049020Y0048036D01*
X0049020Y0048036D01*
X0049277Y0048036D01*
X0049295Y0048039D01*
X0053066Y0048039D01*
X0053084Y0048036D01*
X0053084Y0048036D01*
X0056188Y0048036D01*
X0055634Y0047482D01*
X0055279Y0046627D01*
X0055278Y0045702D01*
X0055631Y0044846D01*
X0056285Y0044191D01*
X0057140Y0043836D01*
X0058066Y0043835D01*
X0058922Y0044189D01*
X0059577Y0044843D01*
X0059932Y0045698D01*
X0059933Y0046623D01*
X0059579Y0047479D01*
X0059023Y0048036D01*
X0061462Y0048036D01*
X0061463Y0048036D01*
X0061695Y0048082D01*
X0061741Y0048091D01*
X0061977Y0048248D01*
X0061977Y0048248D01*
X0063939Y0050211D01*
X0064768Y0050211D01*
X0064896Y0050236D01*
X0065004Y0050308D01*
X0065076Y0050416D01*
X0065101Y0050544D01*
X0065101Y0052068D01*
X0065451Y0052068D01*
X0065451Y0050544D01*
X0065476Y0050416D01*
X0065548Y0050308D01*
X0065656Y0050236D01*
X0065784Y0050211D01*
X0067308Y0050211D01*
X0067436Y0050236D01*
X0067544Y0050308D01*
X0067616Y0050416D01*
X0067641Y0050544D01*
X0067641Y0052068D01*
X0067616Y0052196D01*
X0067544Y0052304D01*
X0067436Y0052376D01*
X0067308Y0052401D01*
X0065784Y0052401D01*
X0065656Y0052376D01*
X0065548Y0052304D01*
X0065476Y0052196D01*
X0065451Y0052068D01*
X0065101Y0052068D01*
X0065076Y0052196D01*
X0065004Y0052304D01*
X0064896Y0052376D01*
X0064768Y0052401D01*
X0063244Y0052401D01*
X0063116Y0052376D01*
X0063008Y0052304D01*
X0062936Y0052196D01*
X0062911Y0052068D01*
X0062911Y0051239D01*
X0061161Y0049490D01*
X0053882Y0049490D01*
X0053882Y0051387D01*
X0053906Y0051397D01*
X0054280Y0051770D01*
X0054425Y0052121D01*
X0054570Y0051772D01*
X0054943Y0051398D01*
X0055430Y0051196D01*
X0055958Y0051195D01*
X0056446Y0051397D01*
X0056820Y0051770D01*
X0057022Y0052257D01*
X0057022Y0052785D01*
X0056953Y0052954D01*
X0056965Y0052973D01*
X0057013Y0053213D01*
X0057013Y0055746D01*
X0057073Y0055890D01*
X0059561Y0053403D01*
X0059764Y0053267D01*
X0060004Y0053219D01*
X0062911Y0053219D01*
X0062911Y0053084D01*
X0062936Y0052956D01*
X0063008Y0052848D01*
X0063116Y0052776D01*
X0063244Y0052751D01*
X0064768Y0052751D01*
X0064896Y0052776D01*
X0065004Y0052848D01*
X0065076Y0052956D01*
X0065101Y0053084D01*
X0065101Y0054608D01*
X0065451Y0054608D01*
X0065451Y0053084D01*
X0065476Y0052956D01*
X0065548Y0052848D01*
X0065656Y0052776D01*
X0065784Y0052751D01*
X0067308Y0052751D01*
X0067436Y0052776D01*
X0067544Y0052848D01*
X0067616Y0052956D01*
X0067641Y0053084D01*
X0067641Y0054608D01*
X0067616Y0054736D01*
X0067544Y0054844D01*
X0067436Y0054916D01*
X0067308Y0054941D01*
X0065784Y0054941D01*
X0065656Y0054916D01*
X0065548Y0054844D01*
X0065476Y0054736D01*
X0065451Y0054608D01*
X0065101Y0054608D01*
X0065076Y0054736D01*
X0065004Y0054844D01*
X0064896Y0054916D01*
X0064768Y0054941D01*
X0063244Y0054941D01*
X0063116Y0054916D01*
X0063008Y0054844D01*
X0062936Y0054736D01*
X0062911Y0054608D01*
X0062911Y0054473D01*
X0060264Y0054473D01*
X0056891Y0057845D01*
X0056688Y0057981D01*
X0056448Y0058029D01*
X0052322Y0058029D01*
X0052082Y0057981D01*
X0051879Y0057845D01*
X0051442Y0057409D01*
X0051306Y0057205D01*
X0051258Y0056965D01*
X0051258Y0056239D01*
X0051134Y0056188D01*
X0050761Y0055815D01*
X0050615Y0055464D01*
X0050471Y0055813D01*
X0050098Y0056187D01*
X0049972Y0056239D01*
X0049972Y0057213D01*
X0051058Y0058299D01*
X0062911Y0058299D01*
X0062911Y0058275D01*
X0062525Y0058275D01*
X0062285Y0058227D01*
X0062081Y0058091D01*
X0061041Y0057051D01*
X0060801Y0056952D01*
X0060596Y0056748D01*
X0060485Y0056480D01*
X0060485Y0056191D01*
X0060595Y0055924D01*
X0060800Y0055719D01*
X0061067Y0055608D01*
X0061356Y0055608D01*
X0061623Y0055719D01*
X0061828Y0055923D01*
X0061929Y0056165D01*
X0062785Y0057021D01*
X0062911Y0057021D01*
X0062911Y0055624D01*
X0062936Y0055496D01*
X0063008Y0055388D01*
X0063116Y0055316D01*
X0063244Y0055291D01*
X0064768Y0055291D01*
X0064896Y0055316D01*
X0065004Y0055388D01*
X0065076Y0055496D01*
X0065101Y0055624D01*
X0065101Y0056944D01*
X0065451Y0056595D01*
X0065451Y0055624D01*
X0065476Y0055496D01*
X0065548Y0055388D01*
X0065656Y0055316D01*
X0065784Y0055291D01*
X0067308Y0055291D01*
X0067436Y0055316D01*
X0067544Y0055388D01*
X0067616Y0055496D01*
X0067641Y0055624D01*
X0067641Y0057148D01*
X0067616Y0057276D01*
X0067544Y0057384D01*
X0067436Y0057456D01*
X0067308Y0057481D01*
X0066337Y0057481D01*
X0065988Y0057831D01*
X0067308Y0057831D01*
X0067436Y0057856D01*
X0067544Y0057928D01*
X0067616Y0058036D01*
X0067641Y0058164D01*
X0067641Y0059688D01*
X0067616Y0059816D01*
X0067544Y0059924D01*
X0067436Y0059996D01*
X0067308Y0060021D01*
X0065784Y0060021D01*
X0065656Y0059996D01*
X0065548Y0059924D01*
X0065476Y0059816D01*
X0065451Y0059688D01*
X0065451Y0058242D01*
X0065284Y0058275D01*
X0065101Y0058275D01*
X0065101Y0059688D01*
X0065076Y0059816D01*
X0065004Y0059924D01*
X0064896Y0059996D01*
X0064768Y0060021D01*
X0063244Y0060021D01*
X0063116Y0059996D01*
X0063008Y0059924D01*
X0062936Y0059816D01*
X0062911Y0059688D01*
X0062911Y0059553D01*
X0054473Y0059553D01*
X0054473Y0062911D01*
X0054608Y0062911D01*
X0054736Y0062936D01*
X0054844Y0063008D01*
X0054916Y0063116D01*
X0054941Y0063244D01*
X0054941Y0064768D01*
X0055291Y0064768D01*
X0055291Y0063244D01*
X0055316Y0063116D01*
X0055388Y0063008D01*
X0055496Y0062936D01*
X0055624Y0062911D01*
X0057148Y0062911D01*
X0057276Y0062936D01*
X0057384Y0063008D01*
X0057456Y0063116D01*
X0057481Y0063244D01*
X0057481Y0064768D01*
X0057456Y0064896D01*
X0057384Y0065004D01*
X0057276Y0065076D01*
X0057148Y0065101D01*
X0055624Y0065101D01*
X0055496Y0065076D01*
X0055388Y0065004D01*
X0055316Y0064896D01*
X0055291Y0064768D01*
X0054941Y0064768D01*
X0054916Y0064896D01*
X0054844Y0065004D01*
X0054736Y0065076D01*
X0054608Y0065101D01*
X0054473Y0065101D01*
X0054473Y0065451D01*
X0054608Y0065451D01*
X0054736Y0065476D01*
X0054844Y0065548D01*
X0054916Y0065656D01*
X0054941Y0065784D01*
X0054941Y0067308D01*
X0055291Y0067308D01*
X0055291Y0065784D01*
X0055316Y0065656D01*
X0055388Y0065548D01*
X0055496Y0065476D01*
X0055624Y0065451D01*
X0057148Y0065451D01*
X0057276Y0065476D01*
X0057384Y0065548D01*
X0057456Y0065656D01*
X0057481Y0065784D01*
X0057481Y0067308D01*
X0057456Y0067436D01*
X0057384Y0067544D01*
X0057276Y0067616D01*
X0057148Y0067641D01*
X0055624Y0067641D01*
X0055496Y0067616D01*
X0055388Y0067544D01*
X0055316Y0067436D01*
X0055291Y0067308D01*
X0054941Y0067308D01*
X0054916Y0067436D01*
X0054844Y0067544D01*
X0054736Y0067616D01*
X0054608Y0067641D01*
X0053084Y0067641D01*
X0052956Y0067616D01*
X0052848Y0067544D01*
X0052776Y0067436D01*
X0052751Y0067308D01*
X0052751Y0065784D01*
X0052776Y0065656D01*
X0052848Y0065548D01*
X0052956Y0065476D01*
X0053084Y0065451D01*
X0053219Y0065451D01*
X0053219Y0065101D01*
X0053084Y0065101D01*
X0052956Y0065076D01*
X0052848Y0065004D01*
X0052776Y0064896D01*
X0052751Y0064768D01*
X0052751Y0063244D01*
X0052776Y0063116D01*
X0052848Y0063008D01*
X0052956Y0062936D01*
X0053084Y0062911D01*
X0053219Y0062911D01*
X0053219Y0059553D01*
X0050798Y0059553D01*
X0050558Y0059505D01*
X0050355Y0059369D01*
X0048902Y0057917D01*
X0048766Y0057713D01*
X0048718Y0057473D01*
X0048718Y0056239D01*
X0048594Y0056188D01*
X0048221Y0055815D01*
X0048169Y0055690D01*
X0046895Y0055690D01*
X0046333Y0056252D01*
X0046233Y0056492D01*
X0046029Y0056697D01*
X0045762Y0056808D01*
X0045472Y0056808D01*
X0045205Y0056698D01*
X0045000Y0056494D01*
X0044890Y0056226D01*
X0044889Y0055937D01*
X0045000Y0055670D01*
X0045204Y0055465D01*
X0045446Y0055365D01*
X0046192Y0054619D01*
X0046395Y0054483D01*
X0046635Y0054436D01*
X0048168Y0054436D01*
X0048220Y0054312D01*
X0048593Y0053938D01*
X0049080Y0053736D01*
X0049608Y0053735D01*
X0050096Y0053937D01*
X0050470Y0054310D01*
X0050615Y0054661D01*
X0050760Y0054312D01*
X0051133Y0053938D01*
X0051620Y0053736D01*
X0052148Y0053735D01*
X0052636Y0053937D01*
X0053010Y0054310D01*
X0053155Y0054661D01*
X0053300Y0054312D01*
X0053673Y0053938D01*
X0054160Y0053736D01*
X0054688Y0053735D01*
X0055176Y0053937D01*
X0055550Y0054310D01*
X0055752Y0054797D01*
X0055752Y0055325D01*
X0055551Y0055813D01*
X0055178Y0056187D01*
X0054690Y0056389D01*
X0054162Y0056390D01*
X0053674Y0056188D01*
X0053301Y0055815D01*
X0053155Y0055464D01*
X0053011Y0055813D01*
X0052638Y0056187D01*
X0052512Y0056239D01*
X0052512Y0056705D01*
X0052582Y0056775D01*
X0056038Y0056775D01*
X0055975Y0056749D01*
X0055770Y0056544D01*
X0055659Y0056277D01*
X0055659Y0055988D01*
X0055759Y0055746D01*
X0055759Y0053849D01*
X0055432Y0053850D01*
X0054944Y0053648D01*
X0054571Y0053275D01*
X0054425Y0052924D01*
X0054281Y0053273D01*
X0053908Y0053647D01*
X0053420Y0053849D01*
X0052892Y0053850D01*
X0052404Y0053648D01*
X0052031Y0053275D01*
X0051885Y0052924D01*
X0051741Y0053273D01*
X0051368Y0053647D01*
X0050880Y0053849D01*
X0050352Y0053850D01*
X0049864Y0053648D01*
X0049491Y0053275D01*
X0049288Y0052788D01*
X0049288Y0052260D01*
X0049490Y0051772D01*
X0049863Y0051398D01*
X0049988Y0051346D01*
X0049988Y0050298D01*
X0049919Y0050130D01*
X0049918Y0049841D01*
X0050029Y0049574D01*
X0050110Y0049493D01*
X0049023Y0049493D01*
X0049006Y0049490D01*
X0046091Y0049490D01*
X0046091Y0051330D01*
X0046191Y0051570D01*
X0046191Y0051860D01*
X0046081Y0052127D01*
X0045876Y0052332D01*
X0045609Y0052443D01*
X0045320Y0052443D01*
X0045053Y0052332D01*
X0044848Y0052128D01*
X0044737Y0051861D01*
X0044737Y0051572D01*
X0044837Y0051329D01*
X0044837Y0049490D01*
X0038642Y0049490D01*
X0038642Y0051387D01*
X0038666Y0051397D01*
X0039040Y0051770D01*
X0039185Y0052121D01*
X0039330Y0051772D01*
X0039703Y0051398D01*
X0040190Y0051196D01*
X0040718Y0051195D01*
X0041206Y0051397D01*
X0041580Y0051770D01*
X0041782Y0052257D01*
X0041782Y0052785D01*
X0041581Y0053273D01*
X0041208Y0053647D01*
X0040720Y0053849D01*
X0040192Y0053850D01*
X0039704Y0053648D01*
X0039331Y0053275D01*
X0039185Y0052924D01*
X0039041Y0053273D01*
X0038668Y0053647D01*
X0038180Y0053849D01*
X0037652Y0053850D01*
X0037164Y0053648D01*
X0036791Y0053275D01*
X0036645Y0052924D01*
X0036501Y0053273D01*
X0036128Y0053647D01*
X0035640Y0053849D01*
X0035112Y0053850D01*
X0034624Y0053648D01*
X0034251Y0053275D01*
X0034048Y0052788D01*
X0034048Y0052260D01*
X0034250Y0051772D01*
X0034623Y0051398D01*
X0035110Y0051196D01*
X0035638Y0051195D01*
X0036126Y0051397D01*
X0036500Y0051770D01*
X0036645Y0052121D01*
X0036790Y0051772D01*
X0037163Y0051398D01*
X0037188Y0051388D01*
X0037188Y0049490D01*
X0034339Y0049490D01*
X0032475Y0051353D01*
X0032475Y0055577D01*
X0033532Y0056634D01*
X0033532Y0056634D01*
X0033634Y0056736D01*
X0033745Y0057003D01*
X0033745Y0057292D01*
X0033635Y0057559D01*
X0033430Y0057764D01*
X0033163Y0057875D01*
X0032874Y0057875D01*
X0032607Y0057765D01*
X0032402Y0057560D01*
X0032402Y0057560D01*
X0031234Y0056392D01*
X0031076Y0056156D01*
X0031073Y0056138D01*
X0031021Y0055878D01*
X0020212Y0055878D01*
X0020212Y0067308D01*
X0032431Y0067308D01*
X0032431Y0065784D01*
X0032456Y0065656D01*
X0032528Y0065548D01*
X0032636Y0065476D01*
X0032764Y0065451D01*
X0032799Y0065451D01*
X0032799Y0065101D01*
X0032764Y0065101D01*
X0032636Y0065076D01*
X0032528Y0065004D01*
X0032456Y0064896D01*
X0032431Y0064768D01*
X0032431Y0063244D01*
X0032456Y0063116D01*
X0032528Y0063008D01*
X0032636Y0062936D01*
X0032764Y0062911D01*
X0032799Y0062911D01*
X0032799Y0062561D01*
X0032764Y0062561D01*
X0032636Y0062536D01*
X0032528Y0062464D01*
X0032456Y0062356D01*
X0032431Y0062228D01*
X0032431Y0060704D01*
X0032456Y0060576D01*
X0032528Y0060468D01*
X0032636Y0060396D01*
X0032764Y0060371D01*
X0034288Y0060371D01*
X0034416Y0060396D01*
X0034524Y0060468D01*
X0034596Y0060576D01*
X0034621Y0060704D01*
X0034621Y0062228D01*
X0034596Y0062356D01*
X0034524Y0062464D01*
X0034416Y0062536D01*
X0034288Y0062561D01*
X0034253Y0062561D01*
X0034253Y0062911D01*
X0034288Y0062911D01*
X0034416Y0062936D01*
X0034524Y0063008D01*
X0034596Y0063116D01*
X0034621Y0063244D01*
X0034621Y0064768D01*
X0034971Y0064768D01*
X0034971Y0063244D01*
X0034996Y0063116D01*
X0035068Y0063008D01*
X0035176Y0062936D01*
X0035304Y0062911D01*
X0036828Y0062911D01*
X0036956Y0062936D01*
X0037064Y0063008D01*
X0037136Y0063116D01*
X0037161Y0063244D01*
X0037161Y0064768D01*
X0037511Y0064768D01*
X0037511Y0063244D01*
X0037536Y0063116D01*
X0037608Y0063008D01*
X0037716Y0062936D01*
X0037844Y0062911D01*
X0039368Y0062911D01*
X0039496Y0062936D01*
X0039604Y0063008D01*
X0039676Y0063116D01*
X0039701Y0063244D01*
X0039701Y0064768D01*
X0040051Y0064768D01*
X0040051Y0063244D01*
X0040076Y0063116D01*
X0040148Y0063008D01*
X0040256Y0062936D01*
X0040384Y0062911D01*
X0041908Y0062911D01*
X0042036Y0062936D01*
X0042144Y0063008D01*
X0042216Y0063116D01*
X0042241Y0063244D01*
X0042241Y0064768D01*
X0042216Y0064896D01*
X0042144Y0065004D01*
X0042036Y0065076D01*
X0041908Y0065101D01*
X0040384Y0065101D01*
X0040256Y0065076D01*
X0040148Y0065004D01*
X0040076Y0064896D01*
X0040051Y0064768D01*
X0039701Y0064768D01*
X0039676Y0064896D01*
X0039604Y0065004D01*
X0039496Y0065076D01*
X0039368Y0065101D01*
X0037844Y0065101D01*
X0037716Y0065076D01*
X0037608Y0065004D01*
X0037536Y0064896D01*
X0037511Y0064768D01*
X0037161Y0064768D01*
X0037136Y0064896D01*
X0037064Y0065004D01*
X0036956Y0065076D01*
X0036828Y0065101D01*
X0035304Y0065101D01*
X0035176Y0065076D01*
X0035068Y0065004D01*
X0034996Y0064896D01*
X0034971Y0064768D01*
X0034621Y0064768D01*
X0034596Y0064896D01*
X0034524Y0065004D01*
X0034416Y0065076D01*
X0034288Y0065101D01*
X0034253Y0065101D01*
X0034253Y0065451D01*
X0034288Y0065451D01*
X0034416Y0065476D01*
X0034524Y0065548D01*
X0034596Y0065656D01*
X0034621Y0065784D01*
X0034621Y0067308D01*
X0034971Y0067308D01*
X0034971Y0065784D01*
X0034996Y0065656D01*
X0035068Y0065548D01*
X0035176Y0065476D01*
X0035304Y0065451D01*
X0036828Y0065451D01*
X0036956Y0065476D01*
X0037064Y0065548D01*
X0037136Y0065656D01*
X0037161Y0065784D01*
X0037161Y0067308D01*
X0037511Y0067308D01*
X0037511Y0065784D01*
X0037536Y0065656D01*
X0037608Y0065548D01*
X0037716Y0065476D01*
X0037844Y0065451D01*
X0039368Y0065451D01*
X0039496Y0065476D01*
X0039604Y0065548D01*
X0039676Y0065656D01*
X0039701Y0065784D01*
X0039701Y0067308D01*
X0040051Y0067308D01*
X0040051Y0065784D01*
X0040076Y0065656D01*
X0040148Y0065548D01*
X0040256Y0065476D01*
X0040384Y0065451D01*
X0041908Y0065451D01*
X0042036Y0065476D01*
X0042144Y0065548D01*
X0042216Y0065656D01*
X0042241Y0065784D01*
X0042241Y0067308D01*
X0042216Y0067436D01*
X0042144Y0067544D01*
X0042036Y0067616D01*
X0041908Y0067641D01*
X0040384Y0067641D01*
X0040256Y0067616D01*
X0040148Y0067544D01*
X0040076Y0067436D01*
X0040051Y0067308D01*
X0039701Y0067308D01*
X0039676Y0067436D01*
X0039604Y0067544D01*
X0039496Y0067616D01*
X0039368Y0067641D01*
X0037844Y0067641D01*
X0037716Y0067616D01*
X0037608Y0067544D01*
X0037536Y0067436D01*
X0037511Y0067308D01*
X0037161Y0067308D01*
X0037136Y0067436D01*
X0037064Y0067544D01*
X0036956Y0067616D01*
X0036828Y0067641D01*
X0035304Y0067641D01*
X0035176Y0067616D01*
X0035068Y0067544D01*
X0034996Y0067436D01*
X0034971Y0067308D01*
X0034621Y0067308D01*
X0034596Y0067436D01*
X0034524Y0067544D01*
X0034416Y0067616D01*
X0034407Y0067618D01*
X0034589Y0067800D01*
X0042724Y0067800D01*
X0042890Y0067635D01*
X0042796Y0067616D01*
X0042688Y0067544D01*
X0042616Y0067436D01*
X0042591Y0067308D01*
X0042591Y0065784D01*
X0042616Y0065656D01*
X0042688Y0065548D01*
X0042796Y0065476D01*
X0042924Y0065451D01*
X0042959Y0065451D01*
X0042959Y0065101D01*
X0042924Y0065101D01*
X0042796Y0065076D01*
X0042688Y0065004D01*
X0042616Y0064896D01*
X0042591Y0064768D01*
X0042591Y0063244D01*
X0042616Y0063116D01*
X0042688Y0063008D01*
X0042796Y0062936D01*
X0042924Y0062911D01*
X0042959Y0062911D01*
X0042959Y0058150D01*
X0042959Y0058005D01*
X0042959Y0058005D01*
X0042959Y0055925D01*
X0042823Y0055790D01*
X0042553Y0055790D01*
X0042635Y0055987D01*
X0042635Y0056276D01*
X0042525Y0056543D01*
X0042320Y0056748D01*
X0042078Y0056849D01*
X0041589Y0057337D01*
X0041493Y0057402D01*
X0041386Y0057473D01*
X0041146Y0057521D01*
X0035964Y0057521D01*
X0035724Y0057473D01*
X0035618Y0057402D01*
X0035521Y0057337D01*
X0034514Y0056330D01*
X0034370Y0056389D01*
X0033842Y0056390D01*
X0033354Y0056188D01*
X0032981Y0055815D01*
X0032778Y0055328D01*
X0032778Y0054800D01*
X0032980Y0054312D01*
X0033353Y0053938D01*
X0033840Y0053736D01*
X0034368Y0053735D01*
X0034856Y0053937D01*
X0035230Y0054310D01*
X0035375Y0054661D01*
X0035520Y0054312D01*
X0035893Y0053938D01*
X0036380Y0053736D01*
X0036908Y0053735D01*
X0037396Y0053937D01*
X0037770Y0054310D01*
X0037915Y0054661D01*
X0038060Y0054312D01*
X0038433Y0053938D01*
X0038920Y0053736D01*
X0039448Y0053735D01*
X0039936Y0053937D01*
X0040310Y0054310D01*
X0040320Y0054336D01*
X0043124Y0054336D01*
X0043125Y0054335D01*
X0043357Y0054382D01*
X0043403Y0054391D01*
X0043639Y0054548D01*
X0044200Y0055110D01*
X0044228Y0055151D01*
X0044358Y0055346D01*
X0044369Y0055405D01*
X0044413Y0055624D01*
X0044413Y0055624D01*
X0044413Y0058148D01*
X0044413Y0058293D01*
X0044413Y0058293D01*
X0044413Y0062911D01*
X0044448Y0062911D01*
X0044576Y0062936D01*
X0044684Y0063008D01*
X0044756Y0063116D01*
X0044781Y0063244D01*
X0044781Y0064768D01*
X0044756Y0064896D01*
X0044684Y0065004D01*
X0044576Y0065076D01*
X0044448Y0065101D01*
X0044413Y0065101D01*
X0044413Y0065451D01*
X0044448Y0065451D01*
X0044576Y0065476D01*
X0044684Y0065548D01*
X0044756Y0065656D01*
X0044781Y0065784D01*
X0044781Y0067308D01*
X0044756Y0067436D01*
X0044684Y0067544D01*
X0044576Y0067616D01*
X0044448Y0067641D01*
X0044413Y0067641D01*
X0044413Y0067867D01*
X0044413Y0067867D01*
X0044358Y0068145D01*
X0044358Y0068145D01*
X0044200Y0068381D01*
X0044200Y0068381D01*
X0043540Y0069041D01*
X0043304Y0069199D01*
X0043258Y0069208D01*
X0043026Y0069254D01*
X0043026Y0069254D01*
X0034288Y0069254D01*
X0034288Y0069254D01*
X0034056Y0069208D01*
X0034010Y0069199D01*
X0033774Y0069041D01*
X0033774Y0069041D01*
X0033012Y0068279D01*
X0032854Y0068043D01*
X0032848Y0068013D01*
X0032799Y0067765D01*
X0032799Y0067765D01*
X0032799Y0067641D01*
X0032764Y0067641D01*
X0032636Y0067616D01*
X0032528Y0067544D01*
X0032456Y0067436D01*
X0032431Y0067308D01*
X0020212Y0067308D01*
X0020212Y0079860D01*
X0069700Y0079860D01*
X0069700Y0040532D01*
X0069700Y0040532D01*
G37*
X0069700Y0040532D02*
X0020212Y0040532D01*
X0020212Y0045702D01*
X0029878Y0045702D01*
X0030231Y0044846D01*
X0030885Y0044191D01*
X0031740Y0043836D01*
X0032666Y0043835D01*
X0033522Y0044189D01*
X0034177Y0044843D01*
X0034532Y0045698D01*
X0034533Y0046623D01*
X0034179Y0047479D01*
X0033525Y0048134D01*
X0032670Y0048489D01*
X0031744Y0048490D01*
X0030889Y0048136D01*
X0030234Y0047482D01*
X0029879Y0046627D01*
X0029878Y0045702D01*
X0020212Y0045702D01*
X0020212Y0055878D01*
X0031021Y0055878D01*
X0031021Y0055878D01*
X0031021Y0051052D01*
X0031021Y0051052D01*
X0031034Y0050989D01*
X0031076Y0050774D01*
X0031212Y0050571D01*
X0031234Y0050538D01*
X0033523Y0048248D01*
X0033523Y0048248D01*
X0033621Y0048183D01*
X0033759Y0048091D01*
X0034037Y0048036D01*
X0034038Y0048036D01*
X0037844Y0048036D01*
X0037844Y0048036D01*
X0037844Y0048036D01*
X0040948Y0048036D01*
X0040394Y0047482D01*
X0040039Y0046627D01*
X0040038Y0045702D01*
X0040391Y0044846D01*
X0041045Y0044191D01*
X0041900Y0043836D01*
X0042826Y0043835D01*
X0043682Y0044189D01*
X0044337Y0044843D01*
X0044692Y0045698D01*
X0044693Y0046623D01*
X0044339Y0047479D01*
X0043783Y0048036D01*
X0046028Y0048036D01*
X0045474Y0047482D01*
X0045119Y0046627D01*
X0045118Y0045702D01*
X0045471Y0044846D01*
X0046125Y0044191D01*
X0046980Y0043836D01*
X0047906Y0043835D01*
X0048762Y0044189D01*
X0049417Y0044843D01*
X0049772Y0045698D01*
X0049773Y0046623D01*
X0049419Y0047479D01*
X0048863Y0048036D01*
X0049020Y0048036D01*
X0049020Y0048036D01*
X0049020Y0048036D01*
X0049277Y0048036D01*
X0049295Y0048039D01*
X0053066Y0048039D01*
X0053084Y0048036D01*
X0053084Y0048036D01*
X0056188Y0048036D01*
X0055634Y0047482D01*
X0055279Y0046627D01*
X0055278Y0045702D01*
X0055631Y0044846D01*
X0056285Y0044191D01*
X0057140Y0043836D01*
X0058066Y0043835D01*
X0058922Y0044189D01*
X0059577Y0044843D01*
X0059932Y0045698D01*
X0059933Y0046623D01*
X0059579Y0047479D01*
X0059023Y0048036D01*
X0061462Y0048036D01*
X0061463Y0048036D01*
X0061695Y0048082D01*
X0061741Y0048091D01*
X0061977Y0048248D01*
X0061977Y0048248D01*
X0063939Y0050211D01*
X0064768Y0050211D01*
X0064896Y0050236D01*
X0065004Y0050308D01*
X0065076Y0050416D01*
X0065101Y0050544D01*
X0065101Y0052068D01*
X0065451Y0052068D01*
X0065451Y0050544D01*
X0065476Y0050416D01*
X0065548Y0050308D01*
X0065656Y0050236D01*
X0065784Y0050211D01*
X0067308Y0050211D01*
X0067436Y0050236D01*
X0067544Y0050308D01*
X0067616Y0050416D01*
X0067641Y0050544D01*
X0067641Y0052068D01*
X0067616Y0052196D01*
X0067544Y0052304D01*
X0067436Y0052376D01*
X0067308Y0052401D01*
X0065784Y0052401D01*
X0065656Y0052376D01*
X0065548Y0052304D01*
X0065476Y0052196D01*
X0065451Y0052068D01*
X0065101Y0052068D01*
X0065076Y0052196D01*
X0065004Y0052304D01*
X0064896Y0052376D01*
X0064768Y0052401D01*
X0063244Y0052401D01*
X0063116Y0052376D01*
X0063008Y0052304D01*
X0062936Y0052196D01*
X0062911Y0052068D01*
X0062911Y0051239D01*
X0061161Y0049490D01*
X0053882Y0049490D01*
X0053882Y0051387D01*
X0053906Y0051397D01*
X0054280Y0051770D01*
X0054425Y0052121D01*
X0054570Y0051772D01*
X0054943Y0051398D01*
X0055430Y0051196D01*
X0055958Y0051195D01*
X0056446Y0051397D01*
X0056820Y0051770D01*
X0057022Y0052257D01*
X0057022Y0052785D01*
X0056953Y0052954D01*
X0056965Y0052973D01*
X0057013Y0053213D01*
X0057013Y0055746D01*
X0057073Y0055890D01*
X0059561Y0053403D01*
X0059764Y0053267D01*
X0060004Y0053219D01*
X0062911Y0053219D01*
X0062911Y0053084D01*
X0062936Y0052956D01*
X0063008Y0052848D01*
X0063116Y0052776D01*
X0063244Y0052751D01*
X0064768Y0052751D01*
X0064896Y0052776D01*
X0065004Y0052848D01*
X0065076Y0052956D01*
X0065101Y0053084D01*
X0065101Y0054608D01*
X0065451Y0054608D01*
X0065451Y0053084D01*
X0065476Y0052956D01*
X0065548Y0052848D01*
X0065656Y0052776D01*
X0065784Y0052751D01*
X0067308Y0052751D01*
X0067436Y0052776D01*
X0067544Y0052848D01*
X0067616Y0052956D01*
X0067641Y0053084D01*
X0067641Y0054608D01*
X0067616Y0054736D01*
X0067544Y0054844D01*
X0067436Y0054916D01*
X0067308Y0054941D01*
X0065784Y0054941D01*
X0065656Y0054916D01*
X0065548Y0054844D01*
X0065476Y0054736D01*
X0065451Y0054608D01*
X0065101Y0054608D01*
X0065076Y0054736D01*
X0065004Y0054844D01*
X0064896Y0054916D01*
X0064768Y0054941D01*
X0063244Y0054941D01*
X0063116Y0054916D01*
X0063008Y0054844D01*
X0062936Y0054736D01*
X0062911Y0054608D01*
X0062911Y0054473D01*
X0060264Y0054473D01*
X0056891Y0057845D01*
X0056688Y0057981D01*
X0056448Y0058029D01*
X0052322Y0058029D01*
X0052082Y0057981D01*
X0051879Y0057845D01*
X0051442Y0057409D01*
X0051306Y0057205D01*
X0051258Y0056965D01*
X0051258Y0056239D01*
X0051134Y0056188D01*
X0050761Y0055815D01*
X0050615Y0055464D01*
X0050471Y0055813D01*
X0050098Y0056187D01*
X0049972Y0056239D01*
X0049972Y0057213D01*
X0051058Y0058299D01*
X0062911Y0058299D01*
X0062911Y0058275D01*
X0062525Y0058275D01*
X0062285Y0058227D01*
X0062081Y0058091D01*
X0061041Y0057051D01*
X0060801Y0056952D01*
X0060596Y0056748D01*
X0060485Y0056480D01*
X0060485Y0056191D01*
X0060595Y0055924D01*
X0060800Y0055719D01*
X0061067Y0055608D01*
X0061356Y0055608D01*
X0061623Y0055719D01*
X0061828Y0055923D01*
X0061929Y0056165D01*
X0062785Y0057021D01*
X0062911Y0057021D01*
X0062911Y0055624D01*
X0062936Y0055496D01*
X0063008Y0055388D01*
X0063116Y0055316D01*
X0063244Y0055291D01*
X0064768Y0055291D01*
X0064896Y0055316D01*
X0065004Y0055388D01*
X0065076Y0055496D01*
X0065101Y0055624D01*
X0065101Y0056944D01*
X0065451Y0056595D01*
X0065451Y0055624D01*
X0065476Y0055496D01*
X0065548Y0055388D01*
X0065656Y0055316D01*
X0065784Y0055291D01*
X0067308Y0055291D01*
X0067436Y0055316D01*
X0067544Y0055388D01*
X0067616Y0055496D01*
X0067641Y0055624D01*
X0067641Y0057148D01*
X0067616Y0057276D01*
X0067544Y0057384D01*
X0067436Y0057456D01*
X0067308Y0057481D01*
X0066337Y0057481D01*
X0065988Y0057831D01*
X0067308Y0057831D01*
X0067436Y0057856D01*
X0067544Y0057928D01*
X0067616Y0058036D01*
X0067641Y0058164D01*
X0067641Y0059688D01*
X0067616Y0059816D01*
X0067544Y0059924D01*
X0067436Y0059996D01*
X0067308Y0060021D01*
X0065784Y0060021D01*
X0065656Y0059996D01*
X0065548Y0059924D01*
X0065476Y0059816D01*
X0065451Y0059688D01*
X0065451Y0058242D01*
X0065284Y0058275D01*
X0065101Y0058275D01*
X0065101Y0059688D01*
X0065076Y0059816D01*
X0065004Y0059924D01*
X0064896Y0059996D01*
X0064768Y0060021D01*
X0063244Y0060021D01*
X0063116Y0059996D01*
X0063008Y0059924D01*
X0062936Y0059816D01*
X0062911Y0059688D01*
X0062911Y0059553D01*
X0054473Y0059553D01*
X0054473Y0062911D01*
X0054608Y0062911D01*
X0054736Y0062936D01*
X0054844Y0063008D01*
X0054916Y0063116D01*
X0054941Y0063244D01*
X0054941Y0064768D01*
X0055291Y0064768D01*
X0055291Y0063244D01*
X0055316Y0063116D01*
X0055388Y0063008D01*
X0055496Y0062936D01*
X0055624Y0062911D01*
X0057148Y0062911D01*
X0057276Y0062936D01*
X0057384Y0063008D01*
X0057456Y0063116D01*
X0057481Y0063244D01*
X0057481Y0064768D01*
X0057456Y0064896D01*
X0057384Y0065004D01*
X0057276Y0065076D01*
X0057148Y0065101D01*
X0055624Y0065101D01*
X0055496Y0065076D01*
X0055388Y0065004D01*
X0055316Y0064896D01*
X0055291Y0064768D01*
X0054941Y0064768D01*
X0054916Y0064896D01*
X0054844Y0065004D01*
X0054736Y0065076D01*
X0054608Y0065101D01*
X0054473Y0065101D01*
X0054473Y0065451D01*
X0054608Y0065451D01*
X0054736Y0065476D01*
X0054844Y0065548D01*
X0054916Y0065656D01*
X0054941Y0065784D01*
X0054941Y0067308D01*
X0055291Y0067308D01*
X0055291Y0065784D01*
X0055316Y0065656D01*
X0055388Y0065548D01*
X0055496Y0065476D01*
X0055624Y0065451D01*
X0057148Y0065451D01*
X0057276Y0065476D01*
X0057384Y0065548D01*
X0057456Y0065656D01*
X0057481Y0065784D01*
X0057481Y0067308D01*
X0057456Y0067436D01*
X0057384Y0067544D01*
X0057276Y0067616D01*
X0057148Y0067641D01*
X0055624Y0067641D01*
X0055496Y0067616D01*
X0055388Y0067544D01*
X0055316Y0067436D01*
X0055291Y0067308D01*
X0054941Y0067308D01*
X0054916Y0067436D01*
X0054844Y0067544D01*
X0054736Y0067616D01*
X0054608Y0067641D01*
X0053084Y0067641D01*
X0052956Y0067616D01*
X0052848Y0067544D01*
X0052776Y0067436D01*
X0052751Y0067308D01*
X0052751Y0065784D01*
X0052776Y0065656D01*
X0052848Y0065548D01*
X0052956Y0065476D01*
X0053084Y0065451D01*
X0053219Y0065451D01*
X0053219Y0065101D01*
X0053084Y0065101D01*
X0052956Y0065076D01*
X0052848Y0065004D01*
X0052776Y0064896D01*
X0052751Y0064768D01*
X0052751Y0063244D01*
X0052776Y0063116D01*
X0052848Y0063008D01*
X0052956Y0062936D01*
X0053084Y0062911D01*
X0053219Y0062911D01*
X0053219Y0059553D01*
X0050798Y0059553D01*
X0050558Y0059505D01*
X0050355Y0059369D01*
X0048902Y0057917D01*
X0048766Y0057713D01*
X0048718Y0057473D01*
X0048718Y0056239D01*
X0048594Y0056188D01*
X0048221Y0055815D01*
X0048169Y0055690D01*
X0046895Y0055690D01*
X0046333Y0056252D01*
X0046233Y0056492D01*
X0046029Y0056697D01*
X0045762Y0056808D01*
X0045472Y0056808D01*
X0045205Y0056698D01*
X0045000Y0056494D01*
X0044890Y0056226D01*
X0044889Y0055937D01*
X0045000Y0055670D01*
X0045204Y0055465D01*
X0045446Y0055365D01*
X0046192Y0054619D01*
X0046395Y0054483D01*
X0046635Y0054436D01*
X0048168Y0054436D01*
X0048220Y0054312D01*
X0048593Y0053938D01*
X0049080Y0053736D01*
X0049608Y0053735D01*
X0050096Y0053937D01*
X0050470Y0054310D01*
X0050615Y0054661D01*
X0050760Y0054312D01*
X0051133Y0053938D01*
X0051620Y0053736D01*
X0052148Y0053735D01*
X0052636Y0053937D01*
X0053010Y0054310D01*
X0053155Y0054661D01*
X0053300Y0054312D01*
X0053673Y0053938D01*
X0054160Y0053736D01*
X0054688Y0053735D01*
X0055176Y0053937D01*
X0055550Y0054310D01*
X0055752Y0054797D01*
X0055752Y0055325D01*
X0055551Y0055813D01*
X0055178Y0056187D01*
X0054690Y0056389D01*
X0054162Y0056390D01*
X0053674Y0056188D01*
X0053301Y0055815D01*
X0053155Y0055464D01*
X0053011Y0055813D01*
X0052638Y0056187D01*
X0052512Y0056239D01*
X0052512Y0056705D01*
X0052582Y0056775D01*
X0056038Y0056775D01*
X0055975Y0056749D01*
X0055770Y0056544D01*
X0055659Y0056277D01*
X0055659Y0055988D01*
X0055759Y0055746D01*
X0055759Y0053849D01*
X0055432Y0053850D01*
X0054944Y0053648D01*
X0054571Y0053275D01*
X0054425Y0052924D01*
X0054281Y0053273D01*
X0053908Y0053647D01*
X0053420Y0053849D01*
X0052892Y0053850D01*
X0052404Y0053648D01*
X0052031Y0053275D01*
X0051885Y0052924D01*
X0051741Y0053273D01*
X0051368Y0053647D01*
X0050880Y0053849D01*
X0050352Y0053850D01*
X0049864Y0053648D01*
X0049491Y0053275D01*
X0049288Y0052788D01*
X0049288Y0052260D01*
X0049490Y0051772D01*
X0049863Y0051398D01*
X0049988Y0051346D01*
X0049988Y0050298D01*
X0049919Y0050130D01*
X0049918Y0049841D01*
X0050029Y0049574D01*
X0050110Y0049493D01*
X0049023Y0049493D01*
X0049006Y0049490D01*
X0046091Y0049490D01*
X0046091Y0051330D01*
X0046191Y0051570D01*
X0046191Y0051860D01*
X0046081Y0052127D01*
X0045876Y0052332D01*
X0045609Y0052443D01*
X0045320Y0052443D01*
X0045053Y0052332D01*
X0044848Y0052128D01*
X0044737Y0051861D01*
X0044737Y0051572D01*
X0044837Y0051329D01*
X0044837Y0049490D01*
X0038642Y0049490D01*
X0038642Y0051387D01*
X0038666Y0051397D01*
X0039040Y0051770D01*
X0039185Y0052121D01*
X0039330Y0051772D01*
X0039703Y0051398D01*
X0040190Y0051196D01*
X0040718Y0051195D01*
X0041206Y0051397D01*
X0041580Y0051770D01*
X0041782Y0052257D01*
X0041782Y0052785D01*
X0041581Y0053273D01*
X0041208Y0053647D01*
X0040720Y0053849D01*
X0040192Y0053850D01*
X0039704Y0053648D01*
X0039331Y0053275D01*
X0039185Y0052924D01*
X0039041Y0053273D01*
X0038668Y0053647D01*
X0038180Y0053849D01*
X0037652Y0053850D01*
X0037164Y0053648D01*
X0036791Y0053275D01*
X0036645Y0052924D01*
X0036501Y0053273D01*
X0036128Y0053647D01*
X0035640Y0053849D01*
X0035112Y0053850D01*
X0034624Y0053648D01*
X0034251Y0053275D01*
X0034048Y0052788D01*
X0034048Y0052260D01*
X0034250Y0051772D01*
X0034623Y0051398D01*
X0035110Y0051196D01*
X0035638Y0051195D01*
X0036126Y0051397D01*
X0036500Y0051770D01*
X0036645Y0052121D01*
X0036790Y0051772D01*
X0037163Y0051398D01*
X0037188Y0051388D01*
X0037188Y0049490D01*
X0034339Y0049490D01*
X0032475Y0051353D01*
X0032475Y0055577D01*
X0033532Y0056634D01*
X0033532Y0056634D01*
X0033634Y0056736D01*
X0033745Y0057003D01*
X0033745Y0057292D01*
X0033635Y0057559D01*
X0033430Y0057764D01*
X0033163Y0057875D01*
X0032874Y0057875D01*
X0032607Y0057765D01*
X0032402Y0057560D01*
X0032402Y0057560D01*
X0031234Y0056392D01*
X0031076Y0056156D01*
X0031073Y0056138D01*
X0031021Y0055878D01*
X0020212Y0055878D01*
X0020212Y0067308D01*
X0032431Y0067308D01*
X0032431Y0065784D01*
X0032456Y0065656D01*
X0032528Y0065548D01*
X0032636Y0065476D01*
X0032764Y0065451D01*
X0032799Y0065451D01*
X0032799Y0065101D01*
X0032764Y0065101D01*
X0032636Y0065076D01*
X0032528Y0065004D01*
X0032456Y0064896D01*
X0032431Y0064768D01*
X0032431Y0063244D01*
X0032456Y0063116D01*
X0032528Y0063008D01*
X0032636Y0062936D01*
X0032764Y0062911D01*
X0032799Y0062911D01*
X0032799Y0062561D01*
X0032764Y0062561D01*
X0032636Y0062536D01*
X0032528Y0062464D01*
X0032456Y0062356D01*
X0032431Y0062228D01*
X0032431Y0060704D01*
X0032456Y0060576D01*
X0032528Y0060468D01*
X0032636Y0060396D01*
X0032764Y0060371D01*
X0034288Y0060371D01*
X0034416Y0060396D01*
X0034524Y0060468D01*
X0034596Y0060576D01*
X0034621Y0060704D01*
X0034621Y0062228D01*
X0034596Y0062356D01*
X0034524Y0062464D01*
X0034416Y0062536D01*
X0034288Y0062561D01*
X0034253Y0062561D01*
X0034253Y0062911D01*
X0034288Y0062911D01*
X0034416Y0062936D01*
X0034524Y0063008D01*
X0034596Y0063116D01*
X0034621Y0063244D01*
X0034621Y0064768D01*
X0034971Y0064768D01*
X0034971Y0063244D01*
X0034996Y0063116D01*
X0035068Y0063008D01*
X0035176Y0062936D01*
X0035304Y0062911D01*
X0036828Y0062911D01*
X0036956Y0062936D01*
X0037064Y0063008D01*
X0037136Y0063116D01*
X0037161Y0063244D01*
X0037161Y0064768D01*
X0037511Y0064768D01*
X0037511Y0063244D01*
X0037536Y0063116D01*
X0037608Y0063008D01*
X0037716Y0062936D01*
X0037844Y0062911D01*
X0039368Y0062911D01*
X0039496Y0062936D01*
X0039604Y0063008D01*
X0039676Y0063116D01*
X0039701Y0063244D01*
X0039701Y0064768D01*
X0040051Y0064768D01*
X0040051Y0063244D01*
X0040076Y0063116D01*
X0040148Y0063008D01*
X0040256Y0062936D01*
X0040384Y0062911D01*
X0041908Y0062911D01*
X0042036Y0062936D01*
X0042144Y0063008D01*
X0042216Y0063116D01*
X0042241Y0063244D01*
X0042241Y0064768D01*
X0042216Y0064896D01*
X0042144Y0065004D01*
X0042036Y0065076D01*
X0041908Y0065101D01*
X0040384Y0065101D01*
X0040256Y0065076D01*
X0040148Y0065004D01*
X0040076Y0064896D01*
X0040051Y0064768D01*
X0039701Y0064768D01*
X0039676Y0064896D01*
X0039604Y0065004D01*
X0039496Y0065076D01*
X0039368Y0065101D01*
X0037844Y0065101D01*
X0037716Y0065076D01*
X0037608Y0065004D01*
X0037536Y0064896D01*
X0037511Y0064768D01*
X0037161Y0064768D01*
X0037136Y0064896D01*
X0037064Y0065004D01*
X0036956Y0065076D01*
X0036828Y0065101D01*
X0035304Y0065101D01*
X0035176Y0065076D01*
X0035068Y0065004D01*
X0034996Y0064896D01*
X0034971Y0064768D01*
X0034621Y0064768D01*
X0034596Y0064896D01*
X0034524Y0065004D01*
X0034416Y0065076D01*
X0034288Y0065101D01*
X0034253Y0065101D01*
X0034253Y0065451D01*
X0034288Y0065451D01*
X0034416Y0065476D01*
X0034524Y0065548D01*
X0034596Y0065656D01*
X0034621Y0065784D01*
X0034621Y0067308D01*
X0034971Y0067308D01*
X0034971Y0065784D01*
X0034996Y0065656D01*
X0035068Y0065548D01*
X0035176Y0065476D01*
X0035304Y0065451D01*
X0036828Y0065451D01*
X0036956Y0065476D01*
X0037064Y0065548D01*
X0037136Y0065656D01*
X0037161Y0065784D01*
X0037161Y0067308D01*
X0037511Y0067308D01*
X0037511Y0065784D01*
X0037536Y0065656D01*
X0037608Y0065548D01*
X0037716Y0065476D01*
X0037844Y0065451D01*
X0039368Y0065451D01*
X0039496Y0065476D01*
X0039604Y0065548D01*
X0039676Y0065656D01*
X0039701Y0065784D01*
X0039701Y0067308D01*
X0040051Y0067308D01*
X0040051Y0065784D01*
X0040076Y0065656D01*
X0040148Y0065548D01*
X0040256Y0065476D01*
X0040384Y0065451D01*
X0041908Y0065451D01*
X0042036Y0065476D01*
X0042144Y0065548D01*
X0042216Y0065656D01*
X0042241Y0065784D01*
X0042241Y0067308D01*
X0042216Y0067436D01*
X0042144Y0067544D01*
X0042036Y0067616D01*
X0041908Y0067641D01*
X0040384Y0067641D01*
X0040256Y0067616D01*
X0040148Y0067544D01*
X0040076Y0067436D01*
X0040051Y0067308D01*
X0039701Y0067308D01*
X0039676Y0067436D01*
X0039604Y0067544D01*
X0039496Y0067616D01*
X0039368Y0067641D01*
X0037844Y0067641D01*
X0037716Y0067616D01*
X0037608Y0067544D01*
X0037536Y0067436D01*
X0037511Y0067308D01*
X0037161Y0067308D01*
X0037136Y0067436D01*
X0037064Y0067544D01*
X0036956Y0067616D01*
X0036828Y0067641D01*
X0035304Y0067641D01*
X0035176Y0067616D01*
X0035068Y0067544D01*
X0034996Y0067436D01*
X0034971Y0067308D01*
X0034621Y0067308D01*
X0034596Y0067436D01*
X0034524Y0067544D01*
X0034416Y0067616D01*
X0034407Y0067618D01*
X0034589Y0067800D01*
X0042724Y0067800D01*
X0042890Y0067635D01*
X0042796Y0067616D01*
X0042688Y0067544D01*
X0042616Y0067436D01*
X0042591Y0067308D01*
X0042591Y0065784D01*
X0042616Y0065656D01*
X0042688Y0065548D01*
X0042796Y0065476D01*
X0042924Y0065451D01*
X0042959Y0065451D01*
X0042959Y0065101D01*
X0042924Y0065101D01*
X0042796Y0065076D01*
X0042688Y0065004D01*
X0042616Y0064896D01*
X0042591Y0064768D01*
X0042591Y0063244D01*
X0042616Y0063116D01*
X0042688Y0063008D01*
X0042796Y0062936D01*
X0042924Y0062911D01*
X0042959Y0062911D01*
X0042959Y0058150D01*
X0042959Y0058005D01*
X0042959Y0058005D01*
X0042959Y0055925D01*
X0042823Y0055790D01*
X0042553Y0055790D01*
X0042635Y0055987D01*
X0042635Y0056276D01*
X0042525Y0056543D01*
X0042320Y0056748D01*
X0042078Y0056849D01*
X0041589Y0057337D01*
X0041493Y0057402D01*
X0041386Y0057473D01*
X0041146Y0057521D01*
X0035964Y0057521D01*
X0035724Y0057473D01*
X0035618Y0057402D01*
X0035521Y0057337D01*
X0034514Y0056330D01*
X0034370Y0056389D01*
X0033842Y0056390D01*
X0033354Y0056188D01*
X0032981Y0055815D01*
X0032778Y0055328D01*
X0032778Y0054800D01*
X0032980Y0054312D01*
X0033353Y0053938D01*
X0033840Y0053736D01*
X0034368Y0053735D01*
X0034856Y0053937D01*
X0035230Y0054310D01*
X0035375Y0054661D01*
X0035520Y0054312D01*
X0035893Y0053938D01*
X0036380Y0053736D01*
X0036908Y0053735D01*
X0037396Y0053937D01*
X0037770Y0054310D01*
X0037915Y0054661D01*
X0038060Y0054312D01*
X0038433Y0053938D01*
X0038920Y0053736D01*
X0039448Y0053735D01*
X0039936Y0053937D01*
X0040310Y0054310D01*
X0040320Y0054336D01*
X0043124Y0054336D01*
X0043125Y0054335D01*
X0043357Y0054382D01*
X0043403Y0054391D01*
X0043639Y0054548D01*
X0044200Y0055110D01*
X0044228Y0055151D01*
X0044358Y0055346D01*
X0044369Y0055405D01*
X0044413Y0055624D01*
X0044413Y0055624D01*
X0044413Y0058148D01*
X0044413Y0058293D01*
X0044413Y0058293D01*
X0044413Y0062911D01*
X0044448Y0062911D01*
X0044576Y0062936D01*
X0044684Y0063008D01*
X0044756Y0063116D01*
X0044781Y0063244D01*
X0044781Y0064768D01*
X0044756Y0064896D01*
X0044684Y0065004D01*
X0044576Y0065076D01*
X0044448Y0065101D01*
X0044413Y0065101D01*
X0044413Y0065451D01*
X0044448Y0065451D01*
X0044576Y0065476D01*
X0044684Y0065548D01*
X0044756Y0065656D01*
X0044781Y0065784D01*
X0044781Y0067308D01*
X0044756Y0067436D01*
X0044684Y0067544D01*
X0044576Y0067616D01*
X0044448Y0067641D01*
X0044413Y0067641D01*
X0044413Y0067867D01*
X0044413Y0067867D01*
X0044358Y0068145D01*
X0044358Y0068145D01*
X0044200Y0068381D01*
X0044200Y0068381D01*
X0043540Y0069041D01*
X0043304Y0069199D01*
X0043258Y0069208D01*
X0043026Y0069254D01*
X0043026Y0069254D01*
X0034288Y0069254D01*
X0034288Y0069254D01*
X0034056Y0069208D01*
X0034010Y0069199D01*
X0033774Y0069041D01*
X0033774Y0069041D01*
X0033012Y0068279D01*
X0032854Y0068043D01*
X0032848Y0068013D01*
X0032799Y0067765D01*
X0032799Y0067765D01*
X0032799Y0067641D01*
X0032764Y0067641D01*
X0032636Y0067616D01*
X0032528Y0067544D01*
X0032456Y0067436D01*
X0032431Y0067308D01*
X0020212Y0067308D01*
X0020212Y0079860D01*
X0069700Y0079860D01*
X0069700Y0040532D01*
M02*
