M48
METRIC,000.000             
%
T01C0.400000
X11938Y9144
X13208Y17018
X13462Y10922
X14224Y10160
X14732Y10922
X15240Y9906
X16002Y10668
X16510Y9906
X22098Y16002
X22860Y11684
X23876Y18019
X23876Y11684
X25654Y11586
X25806Y15951
X26924Y11684
X27940Y11684
X28956Y11684
X30836Y9855
X36576Y16002
X41402Y16205
X52068Y18948
X58367Y31801
X58672Y27940
X60260Y26137
X60653Y19101
X61009Y15240
X61060Y27330
X61364Y31750
X61720Y21082
X61872Y12040
X62076Y17374
X62228Y8585
X62589Y21836
X63244Y19050
X64158Y28651
X64346Y18898
X65149Y15875
X65708Y19136
X66597Y25756
X66597Y12497
X66952Y14275
X67003Y15850
X67161Y20901
X67714Y24994
X67765Y23825
X67765Y12446
X67867Y18136
X68476Y24536
X68832Y23368
X68984Y18745
X69035Y12446
X69289Y17678
X69289Y16764
X82038Y9144
X83308Y17018
X83562Y10922
X84324Y10160
X84832Y10922
X85340Y9906
X86102Y10668
X86610Y9906
X92198Y16002
X92960Y11684
X93976Y18019
X93976Y11684
X95754Y11586
X95906Y15951
X97024Y11684
X98040Y11684
X99056Y11684
X100936Y9855
X106676Y16002
X111502Y16205
X11938Y49274
X13208Y57148
X13462Y51052
X14224Y50290
X14732Y51052
X15240Y50036
X16002Y50798
X16510Y50036
X22098Y56132
X22860Y51814
X23876Y58149
X23876Y51814
X25654Y51716
X25806Y56081
X26924Y51814
X27940Y51814
X28956Y51814
X30836Y49985
X36576Y56132
X41402Y56335
X52068Y59078
X58367Y71931
X58672Y68070
X60260Y66267
X60653Y59231
X61009Y55370
X61060Y67460
X61364Y71880
X61720Y61212
X61872Y52170
X62076Y57504
X62228Y48715
X62589Y61966
X63244Y59180
X64158Y68781
X64346Y59028
X65149Y56005
X65708Y59266
X66597Y65886
X66597Y52627
X66952Y54405
X67003Y55980
X67161Y61031
X67714Y65124
X67765Y63955
X67765Y52576
X67867Y58266
X68476Y64666
X68832Y63498
X68984Y58875
X69035Y52576
X69289Y57808
X69289Y56894
X82038Y49274
X83308Y57148
X83562Y51052
X84324Y50290
X84832Y51052
X85340Y50036
X86102Y50798
X86610Y50036
X92198Y56132
X92960Y51814
X93976Y58149
X93976Y51814
X95754Y51716
X95906Y56081
X97024Y51814
X98040Y51814
X99056Y51814
X100936Y49985
X106676Y56132
X111502Y56335
T02C0.889000
X3556Y18796
X3556Y16256
X3556Y13716
X3556Y11176
X6096Y18796
X6096Y16256
X6096Y13716
X6096Y11176
X11176Y21336
X13716Y26416
X13716Y23876
X13716Y21336
X16256Y26416
X16256Y23876
X18796Y26416
X18796Y23876
X21336Y26416
X21336Y23876
X23876Y26416
X23876Y23876
X34036Y26416
X34036Y23876
X36576Y26416
X36576Y23876
X44196Y18796
X44196Y16256
X44196Y13716
X44196Y11176
X46736Y18796
X46736Y16256
X46736Y13716
X46736Y11176
X53719Y29083
X53719Y26543
X53719Y24003
X53719Y21463
X53719Y18923
X53719Y15494
X53719Y12954
X53719Y10414
X56259Y29083
X56259Y26543
X56259Y24003
X56259Y21463
X56259Y18923
X56259Y15494
X56259Y12954
X56259Y10414
X64920Y10719
X67460Y10719
X73656Y18796
X73656Y16256
X73656Y13716
X73656Y11176
X76196Y18796
X76196Y16256
X76196Y13716
X76196Y11176
X81276Y21336
X83816Y26416
X83816Y23876
X83816Y21336
X86356Y26416
X86356Y23876
X88896Y26416
X88896Y23876
X91436Y26416
X91436Y23876
X93976Y26416
X93976Y23876
X104136Y26416
X104136Y23876
X106676Y26416
X106676Y23876
X114296Y18796
X114296Y16256
X114296Y13716
X114296Y11176
X116836Y18796
X116836Y16256
X116836Y13716
X116836Y11176
X3556Y58926
X3556Y56386
X3556Y53846
X3556Y51306
X6096Y58926
X6096Y56386
X6096Y53846
X6096Y51306
X11176Y61466
X13716Y66546
X13716Y64006
X13716Y61466
X16256Y66546
X16256Y64006
X18796Y66546
X18796Y64006
X21336Y66546
X21336Y64006
X23876Y66546
X23876Y64006
X34036Y66546
X34036Y64006
X36576Y66546
X36576Y64006
X44196Y58926
X44196Y56386
X44196Y53846
X44196Y51306
X46736Y58926
X46736Y56386
X46736Y53846
X46736Y51306
X53719Y69213
X53719Y66673
X53719Y64133
X53719Y61593
X53719Y59053
X53719Y55624
X53719Y53084
X53719Y50544
X56259Y69213
X56259Y66673
X56259Y64133
X56259Y61593
X56259Y59053
X56259Y55624
X56259Y53084
X56259Y50544
X64920Y50849
X67460Y50849
X73656Y58926
X73656Y56386
X73656Y53846
X73656Y51306
X76196Y58926
X76196Y56386
X76196Y53846
X76196Y51306
X81276Y61466
X83816Y66546
X83816Y64006
X83816Y61466
X86356Y66546
X86356Y64006
X88896Y66546
X88896Y64006
X91436Y66546
X91436Y64006
X93976Y66546
X93976Y64006
X104136Y66546
X104136Y64006
X106676Y66546
X106676Y64006
X114296Y58926
X114296Y56386
X114296Y53846
X114296Y51306
X116836Y58926
X116836Y56386
X116836Y53846
X116836Y51306
T03C1.000000
X14295Y14932
X15565Y12393
X16835Y14932
X18105Y12393
X19375Y14932
X20645Y12393
X29535Y14932
X30805Y12393
X32075Y14932
X33345Y12393
X34615Y14932
X35885Y12393
X84395Y14932
X85665Y12393
X86935Y14932
X88205Y12393
X89475Y14932
X90745Y12393
X99635Y14932
X100905Y12393
X102175Y14932
X103445Y12393
X104715Y14932
X105985Y12393
X14295Y55062
X15565Y52523
X16835Y55062
X18105Y52523
X19375Y55062
X20645Y52523
X29535Y55062
X30805Y52523
X32075Y55062
X33345Y52523
X34615Y55062
X35885Y52523
X84395Y55062
X85665Y52523
X86935Y55062
X88205Y52523
X89475Y55062
X90745Y52523
X99635Y55062
X100905Y52523
X102175Y55062
X103445Y52523
X104715Y55062
X105985Y52523
T04C3.000000
X4826Y25146
X4826Y4826
X45466Y25146
X45466Y4826
X55116Y35306
X55116Y4826
X65276Y35306
X65276Y4826
X74926Y25146
X74926Y4826
X115566Y25146
X115566Y4826
X4826Y65276
X4826Y44956
X45466Y65276
X45466Y44956
X55116Y75436
X55116Y44956
X65276Y75436
X65276Y44956
X74926Y65276
X74926Y44956
X115566Y65276
X115566Y44956
T05C3.250000
X12395Y6033
X22555Y6033
X27635Y6033
X37795Y6033
X82495Y6033
X92655Y6033
X97735Y6033
X107895Y6033
X12395Y46163
X22555Y46163
X27635Y46163
X37795Y46163
X82495Y46163
X92655Y46163
X97735Y46163
X107895Y46163
M30
