G75*
G71*
%MOMM*%
%OFA0B0*%
%FSLAX53Y53*%
%IPPOS*%
%LPD*%
%ADD14R,1.70000X1.10000*%
%ADD16C,0.30000*%
%ADD20R,2.20000X2.63000*%
%ADD25C,0.50000*%
%ADD28R,1.65000X1.40000*%
%ADD32R,1.52400X1.52400*%
%ADD33C,6.40000*%
%ADD34R,1.92400X1.92400*%
%ADD36R,1.39700X0.88900*%
%ADD37C,0.10000*%
%ADD39R,1.95000X1.00000*%
%ADD42C,0.15000*%
%ADD46R,3.81000X3.81000*%
%ADD51C,1.48082*%
%ADD52R,1.65100X1.65100*%
%ADD53R,2.20086X2.89936*%
%ADD54R,1.40000X1.65000*%
%ADD57R,1.80086X2.49936*%
%ADD58R,0.88900X1.39700*%
%ADD59R,2.49936X1.80086*%
%ADD63C,6.00000*%
%ADD64R,1.50000X0.80000*%
%ADD65C,1.90114*%
%ADD66R,1.30048X1.69926*%
%ADD67R,6.19760X9.79932*%
%ADD68R,1.39954X0.39878*%
%ADD69R,1.00076X0.80010*%
%ADD70R,2.89814X3.09880*%
%ADD71R,2.55016X2.49936*%
%ADD72R,2.49936X1.95072*%
%ADD82R,3.00000X5.50000*%
%ADD83R,1.52400X2.03200*%
%ADD84R,0.42000X1.55000*%
%ADD85R,0.94000X0.84000*%
%ADD86R,1.20000X4.00000*%
%ADD87R,0.45000X1.45000*%
%ADD88R,2.70002X2.55016*%
X0000000Y0000000D02*
G01*
D16*
D46*
X0005160Y0013462D03*
X0010160Y0013462D03*
X0005160Y0018542D03*
X0010160Y0018542D03*
D36*
X0037846Y0028004D03*
X0037846Y0029909D03*
X0037846Y0023940D03*
X0037846Y0025845D03*
D58*
X0010223Y0040894D03*
X0012128Y0040894D03*
X0010223Y0038862D03*
X0012128Y0038862D03*
D36*
X0037846Y0033846D03*
X0037846Y0035751D03*
D63*
X0004826Y0045466D03*
X0035306Y0045466D03*
X0004826Y0004826D03*
X0035306Y0004826D03*
D32*
X0035052Y0027432D03*
X0032512Y0027432D03*
X0032512Y0024892D03*
X0035052Y0024892D03*
X0036576Y0011684D03*
X0034036Y0011684D03*
X0036576Y0014224D03*
X0034036Y0014224D03*
X0009144Y0034036D03*
X0009144Y0036576D03*
X0006604Y0034036D03*
X0006604Y0036576D03*
X0011684Y0034036D03*
X0011684Y0036576D03*
X0035052Y0029972D03*
X0032512Y0029972D03*
X0013208Y0044196D03*
X0013208Y0046736D03*
X0010668Y0044196D03*
X0010668Y0046736D03*
X0014224Y0034036D03*
X0014224Y0036576D03*
X0010414Y0002286D03*
X0010414Y0004826D03*
X0012954Y0002286D03*
X0012954Y0004826D03*
X0015494Y0002286D03*
X0015494Y0004826D03*
D66*
X0031778Y0039878D03*
X0035278Y0039878D03*
D59*
X0011209Y0008636D03*
X0015207Y0008636D03*
X0004859Y0023114D03*
X0008857Y0023114D03*
D58*
X0033591Y0037465D03*
X0031686Y0037465D03*
X0034988Y0020320D03*
X0033083Y0020320D03*
D36*
X0031242Y0018352D03*
X0031242Y0020257D03*
D58*
X0013779Y0040894D03*
X0015684Y0040894D03*
X0014287Y0038862D03*
X0016192Y0038862D03*
D36*
X0037846Y0037910D03*
X0037846Y0039815D03*
D71*
X0005603Y0028194D03*
X0010653Y0028194D03*
D36*
X0031242Y0016447D03*
X0031242Y0014542D03*
D72*
X0037592Y0017755D03*
X0037592Y0020853D03*
D58*
X0028511Y0032385D03*
X0030416Y0032385D03*
D36*
X0011684Y0023178D03*
X0011684Y0025083D03*
X0013462Y0018796D03*
X0013462Y0016891D03*
D68*
X0028796Y0029147D03*
X0028796Y0028496D03*
X0028796Y0027846D03*
X0028796Y0027196D03*
X0028796Y0026546D03*
X0028796Y0025895D03*
X0028796Y0025245D03*
X0028796Y0024595D03*
X0028796Y0023945D03*
X0028796Y0023299D03*
X0028796Y0022649D03*
X0028796Y0021999D03*
X0028796Y0021349D03*
X0028796Y0020698D03*
X0028796Y0020048D03*
X0028796Y0019398D03*
X0028796Y0018748D03*
X0028796Y0018098D03*
X0015400Y0018098D03*
X0015400Y0018748D03*
X0015400Y0019398D03*
X0015400Y0020048D03*
X0015400Y0020698D03*
X0015400Y0021349D03*
X0015400Y0021999D03*
X0015400Y0022649D03*
X0015400Y0023299D03*
X0015400Y0023945D03*
X0015400Y0024595D03*
X0015400Y0025245D03*
X0015400Y0025895D03*
X0015400Y0026546D03*
X0015400Y0027196D03*
X0015400Y0027846D03*
X0015400Y0028496D03*
X0015400Y0029147D03*
D67*
X0022098Y0023622D03*
D70*
X0022098Y0030071D03*
X0022098Y0017173D03*
D69*
X0035390Y0017653D03*
X0033190Y0018606D03*
X0033190Y0016701D03*
D51*
X0009002Y0026416D03*
X0007000Y0026416D03*
D32*
X0004064Y0034036D03*
X0004064Y0036576D03*
D46*
X0022098Y0010080D03*
X0022098Y0005080D03*
X0027098Y0010080D03*
X0027098Y0005080D03*
X0020320Y0040212D03*
X0020320Y0045212D03*
X0025320Y0040212D03*
X0025320Y0045212D03*
D36*
X0029210Y0039688D03*
X0029210Y0041593D03*
D32*
X0035052Y0032512D03*
D36*
X0029210Y0035624D03*
X0029210Y0037529D03*
D32*
X0032512Y0032512D03*
D58*
X0032829Y0035179D03*
X0034734Y0035179D03*
X0033083Y0022479D03*
X0034988Y0022479D03*
X0000000Y0050290D02*
G01*
D42*
D34*
X0013780Y0084834D03*
X0013780Y0087374D03*
D20*
X0024828Y0063244D03*
X0021908Y0063244D03*
D28*
X0023876Y0069578D03*
X0023876Y0067578D03*
X0030480Y0080532D03*
X0030480Y0082532D03*
D54*
X0012938Y0077214D03*
X0010938Y0077214D03*
D53*
X0027178Y0058639D03*
X0027178Y0054641D03*
X0012446Y0058639D03*
X0012446Y0054641D03*
D34*
X0023622Y0054354D03*
X0021082Y0054354D03*
X0023622Y0056894D03*
X0021082Y0056894D03*
X0023622Y0059434D03*
X0021082Y0059434D03*
X0037084Y0076198D03*
X0034544Y0076198D03*
X0037084Y0078738D03*
X0034544Y0078738D03*
X0011240Y0084834D03*
X0011240Y0087374D03*
X0016320Y0084834D03*
X0016320Y0087374D03*
X0018860Y0087374D03*
X0018860Y0084834D03*
X0026495Y0087375D03*
X0026495Y0084835D03*
X0021400Y0087374D03*
X0021400Y0084834D03*
X0016256Y0066800D03*
X0018796Y0066800D03*
X0021336Y0066800D03*
X0006604Y0078484D03*
X0004064Y0078484D03*
X0006604Y0075944D03*
X0004064Y0075944D03*
X0037084Y0068578D03*
X0034544Y0068578D03*
X0037084Y0071118D03*
X0034544Y0071118D03*
X0006604Y0068324D03*
X0004064Y0068324D03*
X0037084Y0063498D03*
X0034544Y0063498D03*
X0037084Y0066038D03*
X0034544Y0066038D03*
X0037084Y0073658D03*
X0034544Y0073658D03*
X0016002Y0059434D03*
X0018542Y0059434D03*
X0016002Y0056894D03*
X0018542Y0056894D03*
X0016002Y0054354D03*
X0018542Y0054354D03*
X0006604Y0070864D03*
X0004064Y0070864D03*
X0006604Y0073404D03*
X0004064Y0073404D03*
D54*
X0018891Y0051879D03*
X0020891Y0051879D03*
D28*
X0012700Y0063228D03*
X0012700Y0061228D03*
D33*
X0035306Y0085596D03*
X0035306Y0055116D03*
X0004826Y0085596D03*
X0004826Y0055116D03*
D14*
X0009144Y0080384D03*
X0009144Y0078484D03*
X0001524Y0073724D03*
X0001524Y0075624D03*
X0032004Y0070422D03*
X0032004Y0072322D03*
D39*
X0025875Y0074801D03*
X0025875Y0076071D03*
X0025875Y0077341D03*
X0025875Y0078611D03*
X0031275Y0078611D03*
X0031275Y0077341D03*
X0031275Y0076071D03*
X0031275Y0074801D03*
D64*
X0015631Y0070154D03*
X0015631Y0070804D03*
X0015631Y0071454D03*
X0015631Y0072104D03*
X0015631Y0072754D03*
X0015631Y0073404D03*
X0015631Y0074054D03*
X0015631Y0074704D03*
X0015631Y0075354D03*
X0015631Y0076004D03*
X0015631Y0076654D03*
X0015631Y0077304D03*
X0021331Y0077304D03*
X0021331Y0076654D03*
X0021331Y0076004D03*
X0021331Y0075354D03*
X0021331Y0074704D03*
X0021331Y0074054D03*
X0021331Y0073404D03*
X0021331Y0072754D03*
X0021331Y0072104D03*
X0021331Y0071454D03*
X0021331Y0070804D03*
X0021331Y0070154D03*
D65*
X0011049Y0072289D03*
X0011049Y0067407D03*
D20*
X0025083Y0081532D03*
X0028003Y0081532D03*
X0007430Y0064006D03*
X0010350Y0064006D03*
D54*
X0022415Y0082105D03*
X0020415Y0082105D03*
D34*
X0023955Y0084835D03*
X0023955Y0087375D03*
X0029035Y0084835D03*
X0029035Y0087375D03*
X0000000Y0090420D02*
G01*
D16*
D58*
X0015303Y0104390D03*
X0013398Y0104390D03*
D88*
X0011938Y0099691D03*
X0011938Y0093341D03*
D66*
X0003076Y0109470D03*
X0006576Y0109470D03*
D57*
X0028194Y0097753D03*
X0028194Y0093755D03*
D32*
X0006096Y0101088D03*
X0003556Y0101088D03*
X0006096Y0103628D03*
X0003556Y0103628D03*
X0006096Y0106168D03*
X0003556Y0106168D03*
X0036576Y0102866D03*
X0034036Y0102866D03*
X0036576Y0107946D03*
X0034036Y0107946D03*
X0036576Y0105406D03*
X0034036Y0105406D03*
X0036576Y0110486D03*
X0034036Y0110486D03*
X0034036Y0100326D03*
X0036576Y0100326D03*
D46*
X0012954Y0115232D03*
X0012954Y0110232D03*
X0018034Y0115232D03*
X0018034Y0110232D03*
X0023114Y0115232D03*
X0023114Y0110232D03*
X0028194Y0115232D03*
X0028194Y0110232D03*
X0023542Y0093214D03*
X0018542Y0093214D03*
X0023542Y0098294D03*
X0018542Y0098294D03*
D63*
X0004826Y0095246D03*
X0035306Y0115566D03*
X0035306Y0095246D03*
X0004826Y0115566D03*
D36*
X0008890Y0106994D03*
X0008890Y0108899D03*
D58*
X0032194Y0100453D03*
X0030289Y0100453D03*
D16*
G36*
X0019692Y0105090D02*
X0019692Y0105590D01*
X0019972Y0105590D01*
X0019972Y0105090D01*
X0019692Y0105090D01*
X0019692Y0105090D01*
G37*
G36*
X0020192Y0105090D02*
X0020192Y0105590D01*
X0020472Y0105590D01*
X0020472Y0105090D01*
X0020192Y0105090D01*
X0020192Y0105090D01*
G37*
G36*
X0020692Y0105090D02*
X0020692Y0105590D01*
X0020972Y0105590D01*
X0020972Y0105090D01*
X0020692Y0105090D01*
X0020692Y0105090D01*
G37*
G36*
X0021192Y0105090D02*
X0021192Y0105590D01*
X0021472Y0105590D01*
X0021472Y0105090D01*
X0021192Y0105090D01*
X0021192Y0105090D01*
G37*
G36*
X0021692Y0105090D02*
X0021692Y0105590D01*
X0021972Y0105590D01*
X0021972Y0105090D01*
X0021692Y0105090D01*
X0021692Y0105090D01*
G37*
G36*
X0022192Y0105090D02*
X0022192Y0105590D01*
X0022472Y0105590D01*
X0022472Y0105090D01*
X0022192Y0105090D01*
X0022192Y0105090D01*
G37*
G36*
X0022192Y0103190D02*
X0022192Y0103690D01*
X0022472Y0103690D01*
X0022472Y0103190D01*
X0022192Y0103190D01*
X0022192Y0103190D01*
G37*
G36*
X0021692Y0103190D02*
X0021692Y0103690D01*
X0021972Y0103690D01*
X0021972Y0103190D01*
X0021692Y0103190D01*
X0021692Y0103190D01*
G37*
G36*
X0021192Y0103190D02*
X0021192Y0103690D01*
X0021472Y0103690D01*
X0021472Y0103190D01*
X0021192Y0103190D01*
X0021192Y0103190D01*
G37*
G36*
X0020692Y0103190D02*
X0020692Y0103690D01*
X0020972Y0103690D01*
X0020972Y0103190D01*
X0020692Y0103190D01*
X0020692Y0103190D01*
G37*
G36*
X0020192Y0103190D02*
X0020192Y0103690D01*
X0020472Y0103690D01*
X0020472Y0103190D01*
X0020192Y0103190D01*
X0020192Y0103190D01*
G37*
G36*
X0019692Y0103190D02*
X0019692Y0103690D01*
X0019972Y0103690D01*
X0019972Y0103190D01*
X0019692Y0103190D01*
X0019692Y0103190D01*
G37*
G36*
X0020082Y0103940D02*
X0020082Y0104840D01*
X0022082Y0104840D01*
X0022082Y0103940D01*
X0020082Y0103940D01*
X0020082Y0103940D01*
G37*
G36*
X0022082Y0104515D02*
X0022082Y0104765D01*
X0022782Y0104765D01*
X0022782Y0104515D01*
X0022082Y0104515D01*
X0022082Y0104515D01*
G37*
G36*
X0022082Y0104015D02*
X0022082Y0104265D01*
X0022782Y0104265D01*
X0022782Y0104015D01*
X0022082Y0104015D01*
X0022082Y0104015D01*
G37*
G36*
X0019382Y0104015D02*
X0019382Y0104265D01*
X0020082Y0104265D01*
X0020082Y0104015D01*
X0019382Y0104015D01*
X0019382Y0104015D01*
G37*
G36*
X0019382Y0104515D02*
X0019382Y0104765D01*
X0020082Y0104765D01*
X0020082Y0104515D01*
X0019382Y0104515D01*
X0019382Y0104515D01*
G37*
D25*
X0021782Y0104390D03*
X0020382Y0104390D03*
X0021082Y0104390D03*
D32*
X0008636Y0103628D03*
D58*
X0018986Y0101977D03*
X0017081Y0101977D03*
X0000000Y0120390D02*
G01*
D37*
D87*
X0023194Y0133244D03*
X0023844Y0133244D03*
X0024494Y0133244D03*
X0025144Y0133244D03*
X0025794Y0133244D03*
X0026444Y0133244D03*
X0027094Y0133244D03*
X0027094Y0127344D03*
X0026444Y0127344D03*
X0025794Y0127344D03*
X0025144Y0127344D03*
X0024494Y0127344D03*
X0023844Y0127344D03*
X0023194Y0127344D03*
D58*
X0026224Y0124325D03*
X0024319Y0124325D03*
X0026224Y0122674D03*
X0024319Y0122674D03*
D52*
X0004570Y0131564D03*
X0002030Y0123944D03*
X0002030Y0129024D03*
X0004570Y0123944D03*
X0002030Y0134104D03*
X0002030Y0131564D03*
X0002030Y0126484D03*
X0004570Y0134104D03*
X0004570Y0126484D03*
X0004570Y0129024D03*
X0004570Y0136644D03*
X0002030Y0136644D03*
D63*
X0035304Y0125214D03*
X0035304Y0135374D03*
X0014984Y0135374D03*
X0014984Y0125214D03*
D58*
X0029589Y0123944D03*
X0027684Y0123944D03*
D36*
X0029081Y0130231D03*
X0029081Y0128326D03*
D58*
X0030923Y0132199D03*
X0029018Y0132199D03*
D36*
X0031113Y0130231D03*
X0031113Y0128326D03*
D58*
X0034860Y0130294D03*
X0032955Y0130294D03*
X0020890Y0130294D03*
X0018985Y0130294D03*
X0020890Y0132707D03*
X0018985Y0132707D03*
D86*
X0028890Y0137660D03*
X0026890Y0137660D03*
X0024890Y0137660D03*
X0022890Y0137660D03*
X0020890Y0137660D03*
D72*
X0008380Y0125163D03*
X0008380Y0128262D03*
D57*
X0008380Y0134546D03*
X0008380Y0130548D03*
X0000000Y0140200D02*
G01*
D16*
D32*
X0029462Y0145024D03*
X0029462Y0142484D03*
X0026922Y0147564D03*
X0029462Y0147564D03*
D58*
X0022160Y0152136D03*
X0024065Y0152136D03*
D66*
X0025116Y0154930D03*
X0021616Y0154930D03*
D46*
X0034970Y0152390D03*
X0029970Y0152390D03*
X0034970Y0157470D03*
X0029970Y0157470D03*
D32*
X0010666Y0142484D03*
X0010666Y0145024D03*
X0013206Y0142484D03*
X0013206Y0145024D03*
X0015746Y0142484D03*
X0015746Y0145024D03*
X0018286Y0142484D03*
X0018286Y0145024D03*
D46*
X0005158Y0158232D03*
X0010158Y0158232D03*
X0005158Y0153152D03*
X0010158Y0153152D03*
D82*
X0014556Y0163058D03*
X0024556Y0163058D03*
D63*
X0035304Y0165324D03*
X0004824Y0165324D03*
X0004824Y0145024D03*
X0035304Y0145024D03*
D58*
X0027240Y0147564D03*
X0029145Y0147564D03*
D36*
X0021080Y0143183D03*
X0021080Y0141278D03*
D84*
X0023833Y0145459D03*
X0023183Y0145459D03*
X0022533Y0145459D03*
X0021883Y0145459D03*
X0021883Y0149669D03*
X0022533Y0149669D03*
X0023183Y0149669D03*
X0023833Y0149669D03*
D85*
X0022388Y0147984D03*
X0023328Y0147984D03*
X0022388Y0147144D03*
X0023328Y0147144D03*
D32*
X0026922Y0145024D03*
X0026922Y0142484D03*
D83*
X0014603Y0148199D03*
X0011301Y0148199D03*
X0015238Y0153660D03*
X0018540Y0153660D03*
M02*
