M48
METRIC,000.000             
%
T01C0.400000
X13589Y96008
X11430Y96135
X12319Y97024
X11049Y97786
X13462Y97786
X19304Y101977
X17399Y103882
X18161Y103882
X19050Y103882
X20382Y104390
X21082Y104390
X21782Y104390
X23749Y104644
X25654Y104644
X28194Y104771
X9646Y105412
X7747Y110359
X7620Y118995
X8636Y118995
X9652Y118995
X19556Y141214
X22731Y141214
X24128Y141214
X8634Y142484
X8634Y143754
X22572Y143864
X8634Y145024
X19810Y145024
X8634Y146720
X22388Y147144
X23328Y147144
X20318Y147310
X22388Y147984
X23328Y147984
X25259Y149045
X8634Y149088
X26414Y149342
X22483Y150866
X17270Y156708
X19048Y157216
X20064Y157216
X21080Y157216
X22096Y157216
T02C0.500000
X1793Y63753
X7430Y64006
X8079Y66103
X10033Y76325
X10620Y60817
X10683Y70040
X11633Y63228
X11953Y65532
X12080Y75247
X12446Y54641
X14097Y75563
X15572Y82105
X17477Y69151
X17780Y75436
X18415Y78738
X19177Y72007
X20193Y82167
X25083Y81532
X25288Y68897
X27447Y82232
X29289Y80454
X30178Y82486
X31369Y69975
T03C0.635000
X16764Y10668
X12954Y13462
X15875Y13462
X38354Y19177
X36318Y19180
X27178Y19812
X11684Y21844
X19685Y21971
X20955Y21971
X22606Y21971
X24257Y21971
X13716Y22098
X30480Y22352
X17018Y22606
X22606Y23114
X19685Y23241
X21082Y23241
X13744Y23269
X31496Y23432
X24130Y23622
X22606Y24511
X21336Y24638
X17018Y24765
X19939Y24765
X4064Y25273
X5461Y25273
X13829Y25640
X17018Y25908
X22352Y25908
X20447Y26035
X2921Y26543
X24130Y26670
X27178Y26670
X17529Y26930
X20701Y27813
X23241Y27813
X31256Y28688
X22098Y28829
X22098Y30071
X28321Y30861
X36571Y31628
X36449Y32639
X37846Y33020
X29210Y34290
X29210Y38608
X9017Y38862
X22350Y122928
X26984Y124928
X28931Y125809
X21842Y125976
X28762Y127214
X20908Y129106
X29849Y133479
X20953Y134231
X30605Y134739
X23422Y134861
X24564Y134891
T04C0.800000
X7000Y26416
X9002Y26416
X11049Y72289
X11049Y67407
T05C0.889000
X10414Y2286
X12954Y2286
X15494Y2286
X10414Y4826
X12954Y4826
X15494Y4826
X34036Y11684
X36576Y11684
X34036Y14224
X36576Y14224
X32512Y24892
X35052Y24892
X32512Y27432
X35052Y27432
X32512Y29972
X35052Y29972
X32512Y32512
X35052Y32512
X4064Y34036
X6604Y34036
X9144Y34036
X11684Y34036
X14224Y34036
X4064Y36576
X6604Y36576
X9144Y36576
X11684Y36576
X14224Y36576
X10668Y44196
X13208Y44196
X10668Y46736
X13208Y46736
X4064Y78484
X4064Y75944
X4064Y73404
X4064Y70864
X4064Y68324
X6604Y78484
X6604Y75944
X6604Y73404
X6604Y70864
X6604Y68324
X11240Y87374
X11240Y84834
X13780Y87374
X13780Y84834
X16002Y59434
X16002Y56894
X16002Y54354
X16256Y66800
X16320Y87374
X16320Y84834
X18542Y59434
X18542Y56894
X18542Y54354
X18796Y66800
X18860Y87374
X18860Y84834
X21082Y59434
X21082Y56894
X21082Y54354
X21336Y66800
X21400Y87374
X21400Y84834
X23622Y59434
X23622Y56894
X23622Y54354
X23955Y87375
X23955Y84835
X26495Y87375
X26495Y84835
X29035Y87375
X29035Y84835
X34544Y78738
X34544Y76198
X34544Y73658
X34544Y71118
X34544Y68578
X34544Y66038
X34544Y63498
X37084Y78738
X37084Y76198
X37084Y73658
X37084Y71118
X37084Y68578
X37084Y66038
X37084Y63498
X34036Y100326
X36576Y100326
X3556Y101088
X6096Y101088
X34036Y102866
X36576Y102866
X3556Y103628
X6096Y103628
X8636Y103628
X34036Y105406
X36576Y105406
X3556Y106168
X6096Y106168
X34036Y107946
X36576Y107946
X34036Y110486
X36576Y110486
X10666Y142484
X13206Y142484
X15746Y142484
X18286Y142484
X26922Y142484
X29462Y142484
X10666Y145024
X13206Y145024
X15746Y145024
X18286Y145024
X26922Y145024
X29462Y145024
X26922Y147564
X29462Y147564
T06C0.900000
X2030Y123944
X4570Y123944
X2030Y126484
X4570Y126484
X2030Y129024
X4570Y129024
X2030Y131564
X4570Y131564
X2030Y134104
X4570Y134104
X2030Y136644
X4570Y136644
T07C1.300000
X22098Y5080
X27098Y5080
X22098Y10080
X27098Y10080
X5160Y13462
X10160Y13462
X5160Y18542
X10160Y18542
X20320Y40212
X25320Y40212
X20320Y45212
X25320Y45212
X18542Y93214
X23542Y93214
X18542Y98294
X23542Y98294
X12954Y110232
X18034Y110232
X23114Y110232
X28194Y110232
X12954Y115232
X18034Y115232
X23114Y115232
X28194Y115232
X29970Y152390
X34970Y152390
X5158Y153152
X10158Y153152
X29970Y157470
X34970Y157470
X5158Y158232
X10158Y158232
T08C3.000000
X4826Y4826
X35306Y4826
X4826Y45466
X35306Y45466
X4826Y85596
X4826Y55116
X35306Y85596
X35306Y55116
X4826Y95246
X35306Y95246
X4826Y115566
X35306Y115566
X14984Y125214
X35304Y125214
X14984Y135374
X35304Y135374
X4824Y145024
X35304Y145024
X4824Y165324
X35304Y165324
T09C4.000000
X25144Y130294
M30
