G75*
G71*
%MOMM*%
%OFA0B0*%
%FSLAX53Y53*%
%IPPOS*%
%LPD*%
%ADD10C,0.74930*%
%ADD11R,1.00000X0.25000*%
%ADD13R,0.40640X0.66040*%
%ADD14O,1.72720X2.03200*%
%ADD15C,1.60000*%
%ADD16C,4.00000*%
%ADD17R,1.50114X1.00076*%
%ADD18R,1.20000X1.40000*%
%ADD19R,1.00000X2.10000*%
%ADD20R,0.30000X0.73000*%
%ADD21C,1.40000*%
%ADD22C,0.20000*%
%ADD23R,1.80086X3.50012*%
%ADD24O,0.30000X0.80000*%
%ADD25C,0.60000*%
%ADD26R,1.72720X2.03200*%
%ADD27R,0.60000X1.50000*%
%ADD28R,0.50000X0.90000*%
%ADD29R,1.06000X0.65000*%
%ADD30C,1.00000*%
%ADD31R,0.80000X0.75000*%
%ADD32R,2.40000X7.30000*%
%ADD33R,1.00000X1.50000*%
%ADD34R,0.90000X0.50000*%
%ADD35R,1.00000X3.80000*%
%ADD36O,1.72720X1.72720*%
%ADD37R,0.75000X0.80000*%
%ADD38O,0.80000X0.30000*%
%ADD39R,1.25000X1.25000*%
%ADD40R,2.37000X2.43000*%
%ADD41C,3.00000*%
%ADD42R,0.25000X1.00000*%
%ADD43C,0.10000*%
%ADD44R,1.40000X1.20000*%
%ADD45R,2.43000X2.37000*%
%ADD46C,0.80000*%
%ADD47R,2.55000X3.30000*%
%ADD48R,7.30000X2.40000*%
%ADD49O,2.03200X1.72720*%
%ADD50R,1.25000X1.00000*%
%ADD51C,0.30000*%
%ADD52C,2.60000*%
%ADD53R,0.87500X0.87500*%
%ADD54R,2.99974X1.99898*%
%ADD55C,8.00000*%
%ADD56R,2.03200X1.72720*%
%ADD58R,3.50012X1.80086*%
%ADD59R,0.73000X0.30000*%
%ADD60C,2.00000*%
%ADD61R,1.00000X1.25000*%
%ADD62R,0.50800X1.14300*%
%ADD63C,1.50000*%
%ADD65R,3.80000X1.00000*%
%ADD66R,1.72720X1.72720*%
X0000000Y0000000D02*
%LPD*%
G01*
D43*
D37*
X0029086Y0021796D03*
X0029086Y0020296D03*
D31*
X0047536Y0047946D03*
X0046036Y0047946D03*
X0006436Y0021646D03*
X0004936Y0021646D03*
D45*
X0020986Y0015576D03*
X0020986Y0021816D03*
X0038886Y0012066D03*
X0038886Y0005826D03*
D40*
X0014406Y0010746D03*
X0008166Y0010746D03*
D45*
X0033586Y0012066D03*
X0033586Y0005826D03*
D40*
X0007666Y0034196D03*
X0013906Y0034196D03*
D45*
X0054586Y0005826D03*
X0054586Y0012066D03*
D40*
X0007666Y0039196D03*
X0013906Y0039196D03*
D45*
X0049486Y0005826D03*
X0049486Y0012066D03*
D37*
X0029786Y0012196D03*
X0029786Y0010696D03*
X0058286Y0007496D03*
X0058286Y0005996D03*
D31*
X0032736Y0028046D03*
X0031236Y0028046D03*
X0047136Y0029546D03*
X0048636Y0029546D03*
D37*
X0037686Y0036496D03*
X0037686Y0037996D03*
X0032586Y0033496D03*
X0032586Y0034996D03*
X0041686Y0036496D03*
X0041686Y0037996D03*
D31*
X0030636Y0035846D03*
X0029136Y0035846D03*
X0032736Y0030046D03*
X0031236Y0030046D03*
D37*
X0037686Y0022096D03*
X0037686Y0020596D03*
D31*
X0047136Y0032546D03*
X0048636Y0032546D03*
D37*
X0029186Y0030096D03*
X0029186Y0028596D03*
X0039186Y0036496D03*
X0039186Y0037996D03*
D31*
X0066036Y0027646D03*
X0064536Y0027646D03*
X0066036Y0029146D03*
X0064536Y0029146D03*
X0066036Y0030646D03*
X0064536Y0030646D03*
X0066036Y0032146D03*
X0064536Y0032146D03*
X0066036Y0033646D03*
X0064536Y0033646D03*
D37*
X0071886Y0033996D03*
X0071886Y0035496D03*
D31*
X0062836Y0021446D03*
X0064336Y0021446D03*
X0067736Y0026846D03*
X0069236Y0026846D03*
D37*
X0069186Y0033696D03*
X0069186Y0035196D03*
X0065286Y0036996D03*
X0065286Y0038496D03*
D31*
X0070636Y0022346D03*
X0072136Y0022346D03*
X0070636Y0023846D03*
X0072136Y0023846D03*
X0070636Y0025346D03*
X0072136Y0025346D03*
X0070636Y0026846D03*
X0072136Y0026846D03*
X0076036Y0028046D03*
X0077536Y0028046D03*
X0076036Y0029546D03*
X0077536Y0029546D03*
D37*
X0073386Y0033096D03*
X0073386Y0034596D03*
X0073986Y0026696D03*
X0073986Y0025196D03*
X0076386Y0033096D03*
X0076386Y0034596D03*
X0073986Y0016196D03*
X0073986Y0017696D03*
D31*
X0074036Y0020846D03*
X0072536Y0020846D03*
X0068136Y0018546D03*
X0069636Y0018546D03*
X0068136Y0017046D03*
X0069636Y0017046D03*
X0068136Y0015546D03*
X0069636Y0015546D03*
X0078836Y0038146D03*
X0077336Y0038146D03*
D37*
X0080236Y0039646D03*
X0080236Y0038146D03*
D31*
X0068836Y0013346D03*
X0070336Y0013346D03*
X0076436Y0012546D03*
X0077936Y0012546D03*
X0077936Y0015746D03*
X0076436Y0015746D03*
X0077936Y0017246D03*
X0076436Y0017246D03*
X0077936Y0018746D03*
X0076436Y0018746D03*
X0070336Y0011846D03*
X0068836Y0011846D03*
X0076436Y0011046D03*
X0077936Y0011046D03*
D37*
X0073186Y0007696D03*
X0073186Y0006196D03*
X0068686Y0009296D03*
X0068686Y0007796D03*
X0067186Y0009296D03*
X0067186Y0007796D03*
X0065686Y0009296D03*
X0065686Y0007796D03*
D31*
X0084936Y0027346D03*
X0086436Y0027346D03*
D37*
X0075386Y0007696D03*
X0075386Y0006196D03*
X0080386Y0012296D03*
X0080386Y0010796D03*
X0080386Y0018396D03*
X0080386Y0016896D03*
X0080286Y0030296D03*
X0080286Y0028796D03*
X0078386Y0007696D03*
X0078386Y0006196D03*
X0081886Y0028796D03*
X0081886Y0030296D03*
X0083486Y0028796D03*
X0083486Y0030296D03*
X0080486Y0007696D03*
X0080486Y0006196D03*
X0084786Y0015296D03*
X0084786Y0016796D03*
X0081686Y0012296D03*
X0081686Y0010796D03*
X0087686Y0016746D03*
X0087686Y0018246D03*
X0082586Y0016896D03*
X0082586Y0018396D03*
D31*
X0087636Y0013846D03*
X0089136Y0013846D03*
D23*
X0011436Y0015297D03*
X0011436Y0020295D03*
D58*
X0039887Y0015746D03*
X0044885Y0015746D03*
D13*
X0029526Y0016962D03*
X0030846Y0016962D03*
X0030186Y0016962D03*
X0030846Y0014930D03*
X0029526Y0014930D03*
D62*
X0013731Y0014821D03*
X0015001Y0014821D03*
X0016271Y0014821D03*
X0017541Y0014821D03*
X0017541Y0021171D03*
X0016271Y0021171D03*
X0015001Y0021171D03*
X0013731Y0021171D03*
X0042281Y0005071D03*
X0043551Y0005071D03*
X0044821Y0005071D03*
X0046091Y0005071D03*
X0046091Y0011421D03*
X0044821Y0011421D03*
X0043551Y0011421D03*
X0042281Y0011421D03*
D42*
X0036186Y0034996D03*
X0036686Y0034996D03*
X0037186Y0034996D03*
X0037686Y0034996D03*
X0038186Y0034996D03*
X0038686Y0034996D03*
X0039186Y0034996D03*
X0039686Y0034996D03*
X0040186Y0034996D03*
X0040686Y0034996D03*
X0041186Y0034996D03*
X0041686Y0034996D03*
X0042186Y0034996D03*
X0042686Y0034996D03*
X0043186Y0034996D03*
X0043686Y0034996D03*
D11*
X0045636Y0033046D03*
X0045636Y0032546D03*
X0045636Y0032046D03*
X0045636Y0031546D03*
X0045636Y0031046D03*
X0045636Y0030546D03*
X0045636Y0030046D03*
X0045636Y0029546D03*
X0045636Y0029046D03*
X0045636Y0028546D03*
X0045636Y0028046D03*
X0045636Y0027546D03*
X0045636Y0027046D03*
X0045636Y0026546D03*
X0045636Y0026046D03*
X0045636Y0025546D03*
D42*
X0043686Y0023596D03*
X0043186Y0023596D03*
X0042686Y0023596D03*
X0042186Y0023596D03*
X0041686Y0023596D03*
X0041186Y0023596D03*
X0040686Y0023596D03*
X0040186Y0023596D03*
X0039686Y0023596D03*
X0039186Y0023596D03*
X0038686Y0023596D03*
X0038186Y0023596D03*
X0037686Y0023596D03*
X0037186Y0023596D03*
X0036686Y0023596D03*
X0036186Y0023596D03*
D11*
X0034236Y0025546D03*
X0034236Y0026046D03*
X0034236Y0026546D03*
X0034236Y0027046D03*
X0034236Y0027546D03*
X0034236Y0028046D03*
X0034236Y0028546D03*
X0034236Y0029046D03*
X0034236Y0029546D03*
X0034236Y0030046D03*
X0034236Y0030546D03*
X0034236Y0031046D03*
X0034236Y0031546D03*
X0034236Y0032046D03*
X0034236Y0032546D03*
X0034236Y0033046D03*
D13*
X0085726Y0025262D03*
X0087046Y0025262D03*
X0086386Y0025262D03*
X0087046Y0023230D03*
X0085726Y0023230D03*
D33*
X0081686Y0035646D03*
X0078886Y0035646D03*
X0078886Y0032646D03*
D19*
X0081686Y0032946D03*
D27*
X0080286Y0035646D03*
X0080286Y0032646D03*
D29*
X0080386Y0013696D03*
X0080386Y0014646D03*
X0080386Y0015596D03*
X0082586Y0015596D03*
X0082586Y0013696D03*
X0082586Y0014646D03*
D17*
X0080334Y0022545D03*
X0080334Y0024046D03*
X0080334Y0025547D03*
D54*
X0083286Y0024046D03*
D10*
X0081437Y0024046D03*
D43*
G36*
X0081062Y0024546D02*
X0081811Y0025047D01*
X0081811Y0023045D01*
X0081062Y0023546D01*
X0081062Y0024546D01*
X0081062Y0024546D01*
G37*
D28*
X0004736Y0020046D03*
X0006236Y0020046D03*
D56*
X0002286Y0025146D03*
D49*
X0002286Y0022606D03*
X0002286Y0020066D03*
X0002286Y0017526D03*
X0002286Y0014986D03*
X0002286Y0012446D03*
D26*
X0012446Y0002286D03*
D14*
X0014986Y0002286D03*
X0017526Y0002286D03*
X0020066Y0002286D03*
X0022606Y0002286D03*
X0025146Y0002286D03*
X0027686Y0002286D03*
X0030226Y0002286D03*
X0032766Y0002286D03*
X0035306Y0002286D03*
D26*
X0055626Y0002286D03*
D14*
X0053086Y0002286D03*
X0050546Y0002286D03*
X0048006Y0002286D03*
X0045466Y0002286D03*
X0042926Y0002286D03*
D26*
X0042926Y0045466D03*
D14*
X0045466Y0045466D03*
X0048006Y0045466D03*
X0050546Y0045466D03*
X0053086Y0045466D03*
X0055626Y0045466D03*
D52*
X0096266Y0014986D03*
D41*
X0098806Y0012446D03*
X0098806Y0017526D03*
X0093726Y0017526D03*
X0093726Y0012446D03*
D52*
X0096266Y0037211D03*
D41*
X0093726Y0034671D03*
X0098806Y0034671D03*
X0098806Y0039751D03*
X0093726Y0039751D03*
D66*
X0026956Y0037076D03*
D36*
X0024416Y0037076D03*
X0026956Y0034536D03*
X0024416Y0034536D03*
X0026956Y0031996D03*
X0024416Y0031996D03*
X0026956Y0029456D03*
X0024416Y0029456D03*
X0026956Y0026916D03*
X0024416Y0026916D03*
X0026956Y0024376D03*
X0024416Y0024376D03*
X0026956Y0021836D03*
X0024416Y0021836D03*
X0026956Y0019296D03*
X0024416Y0019296D03*
X0026956Y0016756D03*
X0024416Y0016756D03*
X0026956Y0014216D03*
X0024416Y0014216D03*
D66*
X0035306Y0048006D03*
D36*
X0035306Y0045466D03*
X0032766Y0048006D03*
X0032766Y0045466D03*
X0030226Y0048006D03*
X0030226Y0045466D03*
X0027686Y0048006D03*
X0027686Y0045466D03*
X0025146Y0048006D03*
X0025146Y0045466D03*
X0022606Y0048006D03*
X0022606Y0045466D03*
X0020066Y0048006D03*
X0020066Y0045466D03*
X0017526Y0048006D03*
X0017526Y0045466D03*
X0014986Y0048006D03*
X0014986Y0045466D03*
X0012446Y0048006D03*
X0012446Y0045466D03*
D32*
X0020086Y0027446D03*
X0008486Y0027446D03*
D48*
X0051886Y0015746D03*
X0051886Y0027346D03*
D34*
X0028186Y0004796D03*
X0028186Y0006296D03*
X0053086Y0041796D03*
X0053086Y0043296D03*
X0030086Y0006296D03*
X0030086Y0004796D03*
X0035786Y0041396D03*
X0035786Y0039896D03*
X0037386Y0041396D03*
X0037386Y0039896D03*
D28*
X0020636Y0043146D03*
X0019136Y0043146D03*
X0025236Y0043146D03*
X0026736Y0043146D03*
X0028236Y0043146D03*
X0029736Y0043146D03*
X0033136Y0043146D03*
X0031636Y0043146D03*
X0036036Y0043146D03*
X0034536Y0043146D03*
X0074036Y0019246D03*
X0072536Y0019246D03*
X0065336Y0012646D03*
X0066836Y0012646D03*
D59*
X0071651Y0031246D03*
X0071651Y0030746D03*
X0071651Y0030246D03*
X0071651Y0029746D03*
X0071651Y0029246D03*
D20*
X0070686Y0028281D03*
X0070186Y0028281D03*
X0069686Y0028281D03*
X0069186Y0028281D03*
X0068686Y0028281D03*
D59*
X0067721Y0029246D03*
X0067721Y0029746D03*
X0067721Y0030246D03*
X0067721Y0030746D03*
X0067721Y0031246D03*
D20*
X0068686Y0032211D03*
X0069186Y0032211D03*
X0069686Y0032211D03*
X0070186Y0032211D03*
X0070686Y0032211D03*
D39*
X0069061Y0029621D03*
X0069061Y0030871D03*
X0070311Y0029621D03*
X0070311Y0030871D03*
D24*
X0072656Y0013946D03*
X0073156Y0013946D03*
X0073656Y0013946D03*
X0074156Y0013946D03*
D38*
X0074906Y0013196D03*
X0074906Y0012696D03*
X0074906Y0012196D03*
X0074906Y0011696D03*
D24*
X0074156Y0010946D03*
X0073656Y0010946D03*
X0073156Y0010946D03*
X0072656Y0010946D03*
D38*
X0071906Y0011696D03*
X0071906Y0012196D03*
X0071906Y0012696D03*
X0071906Y0013196D03*
D53*
X0073844Y0012008D03*
X0072969Y0012008D03*
X0073844Y0012883D03*
X0072969Y0012883D03*
D18*
X0030786Y0034246D03*
X0030786Y0032046D03*
X0029186Y0034246D03*
X0029186Y0032046D03*
D44*
X0066986Y0038446D03*
X0069186Y0038446D03*
X0066986Y0036846D03*
X0069186Y0036846D03*
D50*
X0030886Y0019746D03*
X0030886Y0021746D03*
D61*
X0004986Y0016446D03*
X0006986Y0016446D03*
D50*
X0058486Y0012046D03*
X0058486Y0010046D03*
X0033386Y0019246D03*
X0033386Y0017246D03*
D61*
X0032786Y0036946D03*
X0034786Y0036946D03*
D50*
X0064386Y0024046D03*
X0064386Y0026046D03*
X0062386Y0026146D03*
X0062386Y0028146D03*
X0062386Y0031846D03*
X0062386Y0029846D03*
X0062386Y0035546D03*
X0062386Y0033546D03*
X0062586Y0040846D03*
X0062586Y0038846D03*
D61*
X0067786Y0043146D03*
X0069786Y0043146D03*
X0067886Y0021446D03*
X0065886Y0021446D03*
D50*
X0068886Y0025246D03*
X0068886Y0023246D03*
X0065386Y0040146D03*
X0065386Y0042146D03*
X0075986Y0026446D03*
X0075986Y0024446D03*
D31*
X0074636Y0029546D03*
X0073136Y0029546D03*
X0073136Y0031546D03*
X0074636Y0031546D03*
D37*
X0074886Y0033096D03*
X0074886Y0034596D03*
X0073986Y0023796D03*
X0073986Y0022296D03*
D31*
X0072536Y0015546D03*
X0071036Y0015546D03*
X0077936Y0014146D03*
X0076436Y0014146D03*
D61*
X0062086Y0009246D03*
X0064086Y0009246D03*
D31*
X0071736Y0009246D03*
X0070236Y0009246D03*
X0073136Y0009246D03*
X0074636Y0009246D03*
D50*
X0085286Y0028946D03*
X0085286Y0030946D03*
D31*
X0076036Y0009246D03*
X0077536Y0009246D03*
X0081836Y0027146D03*
X0080336Y0027146D03*
X0078936Y0009246D03*
X0080436Y0009246D03*
D37*
X0080386Y0021196D03*
X0080386Y0019696D03*
D31*
X0086186Y0015296D03*
X0087686Y0015296D03*
D37*
X0089086Y0015296D03*
X0089086Y0016796D03*
D16*
X0084686Y0011646D03*
X0018686Y0037646D03*
X0084686Y0037646D03*
X0018686Y0011646D03*
D55*
X0004826Y0004826D03*
X0096266Y0004826D03*
X0096266Y0045466D03*
X0004826Y0045466D03*
D35*
X0090871Y0010606D03*
X0090871Y0016606D03*
X0090871Y0022606D03*
X0090871Y0028606D03*
X0090871Y0034606D03*
X0090871Y0040606D03*
X0060571Y0010606D03*
X0060571Y0016606D03*
X0060571Y0022606D03*
X0060571Y0028606D03*
X0060571Y0034606D03*
X0060571Y0040606D03*
D47*
X0090096Y0004856D03*
X0090096Y0046356D03*
X0061346Y0004856D03*
X0061346Y0046356D03*
D65*
X0066721Y0047506D03*
X0072721Y0047506D03*
X0078721Y0047506D03*
X0084721Y0047506D03*
X0066721Y0003706D03*
X0072721Y0003706D03*
X0078721Y0003706D03*
X0084721Y0003706D03*
D23*
X0003486Y0029747D03*
X0003486Y0034745D03*
D21*
X0011486Y0012746D03*
X0014436Y0012796D03*
X0020986Y0017696D03*
D46*
X0017536Y0015971D03*
X0016286Y0015971D03*
X0015011Y0015971D03*
X0013736Y0015971D03*
X0013736Y0019996D03*
D15*
X0002836Y0037796D03*
X0005186Y0039196D03*
D46*
X0087686Y0019196D03*
D25*
X0081736Y0010096D03*
D46*
X0063686Y0030746D03*
X0063686Y0027546D03*
X0063686Y0032046D03*
X0067886Y0011746D03*
X0037686Y0019746D03*
X0029786Y0009746D03*
X0029086Y0019546D03*
D25*
X0030186Y0017846D03*
X0049486Y0029546D03*
X0049486Y0032546D03*
X0030386Y0028046D03*
X0030386Y0030046D03*
X0029186Y0027746D03*
X0029086Y0036746D03*
X0033386Y0035046D03*
X0041686Y0038846D03*
X0037686Y0038846D03*
X0039186Y0038846D03*
X0044786Y0033446D03*
X0037186Y0024546D03*
X0036686Y0034046D03*
X0035186Y0031046D03*
D21*
X0054486Y0007846D03*
X0049486Y0007846D03*
X0033686Y0009846D03*
X0038886Y0009846D03*
D46*
X0042286Y0006246D03*
X0043586Y0006246D03*
X0044786Y0006246D03*
X0046086Y0006246D03*
X0090886Y0045146D03*
X0090886Y0047546D03*
X0089286Y0047546D03*
X0086186Y0047546D03*
X0083286Y0047546D03*
X0080186Y0047546D03*
X0077286Y0047546D03*
X0074186Y0047546D03*
X0071286Y0047546D03*
X0068186Y0047546D03*
X0065286Y0047546D03*
X0062186Y0047546D03*
X0060586Y0047546D03*
X0060586Y0045146D03*
X0060586Y0042046D03*
X0060586Y0039146D03*
X0060586Y0036046D03*
X0060586Y0033146D03*
X0060586Y0030046D03*
X0060586Y0027146D03*
X0060586Y0024046D03*
X0060586Y0021146D03*
X0060586Y0015146D03*
X0060586Y0018046D03*
X0060586Y0012046D03*
X0060586Y0009146D03*
X0060486Y0006046D03*
X0060486Y0003646D03*
X0062186Y0003646D03*
X0065286Y0003746D03*
X0068186Y0003746D03*
X0071286Y0003746D03*
X0074186Y0003746D03*
X0077286Y0003746D03*
X0080186Y0003746D03*
X0083286Y0003746D03*
X0086186Y0003746D03*
X0089286Y0003646D03*
X0090886Y0003646D03*
X0090886Y0006046D03*
X0090886Y0009146D03*
X0090886Y0012046D03*
X0090886Y0015146D03*
X0090886Y0018046D03*
X0090886Y0021146D03*
X0090886Y0024046D03*
X0090886Y0027146D03*
X0090886Y0030046D03*
X0090886Y0033146D03*
X0090886Y0036046D03*
X0090886Y0039146D03*
X0090886Y0042046D03*
X0063686Y0033646D03*
X0063686Y0029146D03*
X0066986Y0039646D03*
X0069186Y0039646D03*
X0062886Y0020346D03*
X0071886Y0036446D03*
X0069686Y0030246D03*
X0068886Y0031046D03*
X0070486Y0031046D03*
X0070486Y0029446D03*
X0068886Y0029446D03*
X0071786Y0019246D03*
X0071586Y0020846D03*
X0073386Y0035546D03*
X0078386Y0028046D03*
X0078386Y0029546D03*
X0067686Y0026146D03*
X0072886Y0022346D03*
X0072886Y0023846D03*
X0072886Y0025346D03*
X0072886Y0026846D03*
X0058286Y0005146D03*
X0067086Y0018546D03*
X0067086Y0017046D03*
X0067086Y0015546D03*
X0075486Y0015746D03*
X0075486Y0017246D03*
X0075486Y0018746D03*
X0074386Y0014846D03*
X0072969Y0012008D03*
X0072969Y0012883D03*
X0073844Y0012008D03*
X0073844Y0012883D03*
X0078886Y0012546D03*
X0078886Y0011046D03*
X0067886Y0013346D03*
X0065686Y0006946D03*
X0067186Y0006946D03*
X0068686Y0006946D03*
X0073186Y0005346D03*
X0075386Y0005346D03*
X0078386Y0005346D03*
X0080486Y0005346D03*
X0082586Y0019246D03*
X0086686Y0026246D03*
X0084386Y0022646D03*
X0084486Y0025446D03*
X0082086Y0022646D03*
X0082086Y0025446D03*
X0083286Y0022646D03*
X0083286Y0025446D03*
X0079186Y0024046D03*
X0077786Y0035646D03*
X0078886Y0036846D03*
X0081686Y0036846D03*
X0082786Y0035646D03*
X0077786Y0032646D03*
X0078886Y0031446D03*
X0082786Y0032946D03*
X0081886Y0031346D03*
X0083486Y0031246D03*
X0079286Y0014646D03*
X0089086Y0017746D03*
X0084786Y0017746D03*
D15*
X0013986Y0042196D03*
D46*
X0029786Y0013046D03*
D25*
X0029486Y0014146D03*
D46*
X0033386Y0016246D03*
X0064186Y0042146D03*
X0075986Y0023446D03*
X0064386Y0020346D03*
X0085686Y0022446D03*
X0007686Y0019646D03*
X0034786Y0041446D03*
D15*
X0020986Y0019746D03*
D21*
X0033586Y0007946D03*
X0008486Y0016446D03*
D30*
X0077986Y0020146D03*
X0062586Y0011146D03*
X0069686Y0019946D03*
D46*
X0036886Y0022046D03*
D25*
X0020686Y0042246D03*
X0025186Y0042246D03*
X0028186Y0042246D03*
X0033186Y0042246D03*
X0036086Y0042246D03*
X0044686Y0032546D03*
X0039186Y0033946D03*
X0036186Y0035946D03*
X0035186Y0030046D03*
D46*
X0033386Y0020446D03*
D25*
X0082086Y0009046D03*
X0070186Y0033696D03*
D46*
X0070986Y0033146D03*
X0087086Y0022446D03*
D25*
X0021386Y0012896D03*
X0044486Y0026446D03*
X0052236Y0041796D03*
X0038686Y0039746D03*
X0038336Y0033946D03*
X0058986Y0026046D03*
X0057386Y0027646D03*
X0052986Y0030646D03*
X0052986Y0032496D03*
X0044586Y0030246D03*
X0047286Y0033746D03*
X0055886Y0031446D03*
X0046686Y0028046D03*
X0044486Y0028446D03*
X0049286Y0033846D03*
X0036486Y0025746D03*
X0044436Y0025296D03*
X0035586Y0038446D03*
X0043686Y0027146D03*
X0035386Y0015346D03*
X0040686Y0024796D03*
X0029086Y0037996D03*
X0034386Y0014646D03*
X0038586Y0019246D03*
X0036486Y0019246D03*
X0029886Y0038196D03*
X0032286Y0025546D03*
X0031686Y0037996D03*
X0032586Y0026546D03*
X0031786Y0026946D03*
X0030886Y0038346D03*
D51*
X0024416Y0021836D02*
X0025656Y0020596D01*
X0027886Y0020596D02*
X0029086Y0021796D01*
X0025656Y0020596D02*
X0027886Y0020596D01*
D25*
X0029086Y0021796D02*
X0029136Y0021746D01*
X0029136Y0021746D02*
X0030886Y0021746D01*
D63*
X0011436Y0015297D02*
X0011486Y0015247D01*
X0011486Y0015247D02*
X0011486Y0012746D01*
X0014406Y0010746D02*
X0014436Y0010776D01*
X0014436Y0010776D02*
X0014436Y0012796D01*
X0020986Y0015576D02*
X0020986Y0017696D01*
D25*
X0017541Y0014821D02*
X0017536Y0014826D01*
X0017536Y0014826D02*
X0017536Y0015971D01*
X0016271Y0014821D02*
X0016286Y0014836D01*
X0016286Y0014836D02*
X0016286Y0015971D01*
X0015001Y0014821D02*
X0015011Y0014831D01*
X0015011Y0014831D02*
X0015011Y0015971D01*
X0013731Y0014821D02*
X0013736Y0014826D01*
X0013736Y0014826D02*
X0013736Y0015971D01*
X0013731Y0021171D02*
X0013731Y0020001D01*
X0013731Y0020001D02*
X0013736Y0019996D01*
D60*
X0007666Y0034196D02*
X0004035Y0034196D01*
X0004035Y0034196D02*
X0003486Y0034745D01*
X0003486Y0034745D02*
X0003486Y0037146D01*
X0003486Y0037146D02*
X0002836Y0037796D01*
X0007666Y0039196D02*
X0005236Y0039196D01*
X0005236Y0039196D02*
X0005186Y0039196D01*
D25*
X0087686Y0018246D02*
X0087686Y0019196D01*
X0081686Y0010796D02*
X0081736Y0010796D01*
X0081736Y0010796D02*
X0081736Y0010096D01*
X0004936Y0021646D02*
X0003246Y0021646D01*
X0003246Y0021646D02*
X0002286Y0022606D01*
D22*
X0063686Y0030746D02*
X0064436Y0030746D01*
X0064436Y0030746D02*
X0064536Y0030646D01*
X0063686Y0027546D02*
X0064436Y0027546D01*
X0064436Y0027546D02*
X0064536Y0027646D01*
X0063686Y0032046D02*
X0064436Y0032046D01*
X0064436Y0032046D02*
X0064536Y0032146D01*
D25*
X0067886Y0011746D02*
X0068736Y0011746D01*
X0068736Y0011746D02*
X0068836Y0011846D01*
X0081437Y0024046D02*
X0083286Y0024046D01*
X0083286Y0024046D02*
X0080334Y0024046D01*
X0037686Y0020596D02*
X0037686Y0019746D01*
X0029786Y0010696D02*
X0029786Y0009746D01*
X0029086Y0020296D02*
X0029086Y0019546D01*
X0045466Y0045466D02*
X0045466Y0047376D01*
X0045466Y0047376D02*
X0046036Y0047946D01*
D51*
X0030186Y0016962D02*
X0030186Y0017846D01*
D25*
X0048636Y0029546D02*
X0049486Y0029546D01*
X0048636Y0032546D02*
X0049486Y0032546D01*
X0031236Y0028046D02*
X0030386Y0028046D01*
X0031236Y0030046D02*
X0030386Y0030046D01*
X0029186Y0028596D02*
X0029186Y0027746D01*
X0029136Y0035846D02*
X0029086Y0035896D01*
X0029086Y0035896D02*
X0029086Y0036746D01*
X0032586Y0034996D02*
X0032636Y0035046D01*
X0032636Y0035046D02*
X0033386Y0035046D01*
X0041686Y0037996D02*
X0041686Y0038846D01*
D22*
X0037386Y0039896D02*
X0037686Y0039596D01*
D25*
X0037686Y0038846D02*
X0037686Y0037996D01*
D22*
X0037686Y0039596D02*
X0037686Y0038846D01*
D25*
X0039186Y0037996D02*
X0039186Y0038846D01*
D22*
X0044786Y0033446D02*
X0045186Y0033046D01*
X0045186Y0033046D02*
X0045636Y0033046D01*
X0037186Y0023596D02*
X0037186Y0024546D01*
X0036686Y0034996D02*
X0036686Y0034046D01*
X0034236Y0031046D02*
X0035186Y0031046D01*
D63*
X0054586Y0005826D02*
X0054486Y0005926D01*
X0054486Y0005926D02*
X0054486Y0007846D01*
X0049486Y0005826D02*
X0049486Y0007846D01*
X0033586Y0012066D02*
X0033686Y0011966D01*
X0033686Y0011966D02*
X0033686Y0009846D01*
X0039887Y0015746D02*
X0038886Y0014745D01*
X0038886Y0014745D02*
X0038886Y0012066D01*
X0038886Y0012066D02*
X0038886Y0009846D01*
D25*
X0042281Y0005071D02*
X0042286Y0005076D01*
X0042286Y0005076D02*
X0042286Y0006246D01*
X0043551Y0005071D02*
X0043586Y0005106D01*
X0043586Y0005106D02*
X0043586Y0006246D01*
X0044821Y0005071D02*
X0044786Y0005106D01*
X0044786Y0005106D02*
X0044786Y0006246D01*
X0046091Y0005071D02*
X0046086Y0005076D01*
X0046086Y0005076D02*
X0046086Y0006246D01*
D51*
X0064536Y0033646D02*
X0063686Y0033646D01*
X0064536Y0029146D02*
X0063686Y0029146D01*
D25*
X0086436Y0027346D02*
X0086686Y0027096D01*
X0086686Y0027096D02*
X0086686Y0026246D01*
X0066986Y0038446D02*
X0066936Y0038496D01*
X0066936Y0038496D02*
X0065286Y0038496D01*
X0066986Y0038446D02*
X0066986Y0039646D01*
X0069186Y0038446D02*
X0069186Y0039646D01*
X0062836Y0021446D02*
X0062886Y0021396D01*
X0062886Y0021396D02*
X0062886Y0020346D01*
X0071886Y0035496D02*
X0071886Y0036446D01*
D22*
X0069686Y0032211D02*
X0069686Y0031546D01*
X0069686Y0031546D02*
X0069686Y0031496D01*
X0069686Y0031496D02*
X0068886Y0031046D01*
D25*
X0072536Y0019246D02*
X0071786Y0019246D01*
X0072536Y0020846D02*
X0071586Y0020846D01*
X0073386Y0034596D02*
X0073386Y0035546D01*
X0077536Y0028046D02*
X0078386Y0028046D01*
X0077536Y0029546D02*
X0078386Y0029546D01*
X0067736Y0026846D02*
X0067686Y0026796D01*
X0067686Y0026796D02*
X0067686Y0026146D01*
X0072136Y0022346D02*
X0072886Y0022346D01*
X0072136Y0023846D02*
X0072886Y0023846D01*
X0072136Y0025346D02*
X0072886Y0025346D01*
X0072136Y0026846D02*
X0072886Y0026846D01*
X0058286Y0005996D02*
X0058286Y0005146D01*
D30*
X0049486Y0005826D02*
X0049586Y0005926D01*
D25*
X0068136Y0018546D02*
X0067086Y0018546D01*
X0068136Y0017046D02*
X0067086Y0017046D01*
X0068136Y0015546D02*
X0067086Y0015546D01*
X0076436Y0015746D02*
X0075486Y0015746D01*
X0076436Y0017246D02*
X0075486Y0017246D01*
X0076436Y0018746D02*
X0075486Y0018746D01*
D22*
X0074156Y0013946D02*
X0074156Y0014616D01*
X0074156Y0014616D02*
X0074386Y0014846D01*
X0073156Y0013071D02*
X0072969Y0012883D01*
X0074031Y0012196D02*
X0073844Y0012008D01*
X0074156Y0013196D02*
X0073844Y0012883D01*
X0073156Y0013946D02*
X0073156Y0013071D01*
X0074156Y0013946D02*
X0074156Y0013196D01*
X0074906Y0012196D02*
X0074031Y0012196D01*
D25*
X0077936Y0012546D02*
X0078886Y0012546D01*
X0077936Y0011046D02*
X0078886Y0011046D01*
X0068836Y0013346D02*
X0067886Y0013346D01*
X0065686Y0007796D02*
X0065686Y0006946D01*
X0067186Y0007796D02*
X0067186Y0006946D01*
X0068686Y0007796D02*
X0068686Y0006946D01*
X0073186Y0006196D02*
X0073186Y0005346D01*
X0075386Y0006196D02*
X0075386Y0005346D01*
X0078386Y0006196D02*
X0078386Y0005346D01*
X0080486Y0006196D02*
X0080486Y0005346D01*
X0082586Y0018396D02*
X0082586Y0019246D01*
D51*
X0086386Y0025262D02*
X0086386Y0025946D01*
X0086386Y0025946D02*
X0086686Y0026246D01*
D25*
X0083286Y0024046D02*
X0083286Y0024046D01*
X0083286Y0024046D02*
X0084386Y0022946D01*
X0084386Y0022946D02*
X0084386Y0022646D01*
X0083286Y0024046D02*
X0084486Y0025246D01*
X0084486Y0025246D02*
X0084486Y0025446D01*
X0083286Y0024046D02*
X0083186Y0024046D01*
X0083186Y0024046D02*
X0082086Y0022946D01*
X0082086Y0022946D02*
X0082086Y0022646D01*
X0083286Y0024046D02*
X0083286Y0024046D01*
X0083286Y0024046D02*
X0082086Y0025246D01*
X0082086Y0025246D02*
X0082086Y0025446D01*
X0083286Y0024046D02*
X0083286Y0022646D01*
X0083286Y0022646D02*
X0083286Y0022646D01*
X0083286Y0024046D02*
X0083286Y0025446D01*
X0083286Y0025446D02*
X0083286Y0025446D01*
X0080334Y0024046D02*
X0079186Y0024046D01*
X0078886Y0035646D02*
X0077786Y0035646D01*
X0078886Y0035646D02*
X0078886Y0036846D01*
X0081686Y0035646D02*
X0081686Y0036846D01*
X0081686Y0035646D02*
X0082786Y0035646D01*
X0078886Y0032646D02*
X0077786Y0032646D01*
X0078886Y0032646D02*
X0078886Y0031446D01*
X0081686Y0032946D02*
X0082786Y0032946D01*
X0081686Y0032946D02*
X0081686Y0031546D01*
X0081886Y0031346D02*
X0081886Y0030296D01*
X0081686Y0031546D02*
X0081886Y0031346D01*
X0083486Y0030296D02*
X0083486Y0031246D01*
X0080386Y0014646D02*
X0079286Y0014646D01*
X0089086Y0016796D02*
X0089086Y0017746D01*
X0084786Y0016796D02*
X0084786Y0017746D01*
X0083286Y0038146D02*
X0084986Y0036446D01*
D51*
X0017541Y0021171D02*
X0017541Y0024491D01*
X0012136Y0039196D02*
X0013906Y0039196D01*
X0011386Y0038446D02*
X0012136Y0039196D01*
X0011386Y0030646D02*
X0011386Y0038446D01*
X0017541Y0024491D02*
X0011386Y0030646D01*
D60*
X0013906Y0039196D02*
X0013906Y0042116D01*
X0013906Y0042116D02*
X0013986Y0042196D01*
X0020086Y0027446D02*
X0020086Y0028016D01*
X0020086Y0028016D02*
X0013906Y0034196D01*
X0013906Y0034196D02*
X0013906Y0039196D01*
D25*
X0029786Y0012196D02*
X0029786Y0013046D01*
D63*
X0020386Y0029026D02*
X0019886Y0029526D01*
D25*
X0048006Y0045466D02*
X0048006Y0047476D01*
X0048006Y0047476D02*
X0047536Y0047946D01*
D51*
X0029526Y0014930D02*
X0029486Y0014890D01*
X0029486Y0014890D02*
X0029486Y0014146D01*
D25*
X0033386Y0017246D02*
X0033386Y0016246D01*
X0065386Y0042146D02*
X0064186Y0042146D01*
X0075986Y0024446D02*
X0075986Y0023446D01*
X0065886Y0021446D02*
X0064336Y0021446D01*
X0064336Y0021446D02*
X0064336Y0020396D01*
X0064336Y0020396D02*
X0064386Y0020346D01*
D22*
X0085726Y0023230D02*
X0085686Y0023190D01*
X0085686Y0023190D02*
X0085686Y0022446D01*
D46*
X0006436Y0021646D02*
X0006436Y0022696D01*
X0004636Y0028597D02*
X0003486Y0029747D01*
X0004636Y0024696D02*
X0004636Y0028597D01*
X0006436Y0022896D02*
X0004636Y0024696D01*
X0006436Y0022846D02*
X0006436Y0022896D01*
X0006436Y0022696D02*
X0006436Y0022846D01*
D25*
X0006236Y0020046D02*
X0006236Y0021446D01*
X0006236Y0021446D02*
X0006436Y0021646D01*
D22*
X0035786Y0041396D02*
X0034736Y0041396D01*
X0007586Y0019546D02*
X0006336Y0019546D01*
X0007686Y0019646D02*
X0007586Y0019546D01*
X0034736Y0041396D02*
X0034786Y0041446D01*
D25*
X0006336Y0018246D02*
X0006336Y0017796D01*
X0006336Y0017796D02*
X0004986Y0016446D01*
X0006336Y0018246D02*
X0006336Y0019546D01*
X0006336Y0019546D02*
X0006336Y0019946D01*
X0006336Y0019946D02*
X0006236Y0020046D01*
X0015001Y0021171D02*
X0015001Y0019931D01*
D63*
X0018786Y0019746D02*
X0020986Y0019746D01*
X0018236Y0019196D02*
X0018786Y0019746D01*
X0015736Y0019196D02*
X0018236Y0019196D01*
D25*
X0015001Y0019931D02*
X0015736Y0019196D01*
D63*
X0020986Y0021816D02*
X0020986Y0019746D01*
X0021036Y0021746D02*
X0020986Y0021816D01*
X0008166Y0010746D02*
X0008486Y0011066D01*
X0008486Y0011066D02*
X0008486Y0016446D01*
D25*
X0020986Y0021816D02*
X0021261Y0021971D01*
X0015036Y0021136D02*
X0015001Y0021171D01*
D63*
X0033586Y0007946D02*
X0033586Y0005826D01*
X0006986Y0016446D02*
X0008486Y0016446D01*
D60*
X0038886Y0005826D02*
X0033586Y0005826D01*
D25*
X0043551Y0011421D02*
X0043586Y0011386D01*
X0043586Y0011386D02*
X0043586Y0010526D01*
X0043586Y0010526D02*
X0038886Y0005826D01*
D60*
X0051886Y0015746D02*
X0049486Y0013346D01*
X0049486Y0013346D02*
X0049486Y0012066D01*
D25*
X0046091Y0011421D02*
X0046086Y0011416D01*
X0046086Y0011416D02*
X0046086Y0010446D01*
X0046086Y0010446D02*
X0047086Y0009446D01*
X0047086Y0009446D02*
X0053486Y0009446D01*
X0053486Y0009446D02*
X0053686Y0009446D01*
X0053686Y0009446D02*
X0054586Y0010346D01*
X0054586Y0010346D02*
X0054586Y0012066D01*
D30*
X0054586Y0012066D02*
X0049486Y0012066D01*
X0058486Y0012046D02*
X0058466Y0012066D01*
X0058466Y0012066D02*
X0054586Y0012066D01*
X0077936Y0018746D02*
X0077986Y0018796D01*
X0077986Y0018796D02*
X0077986Y0020146D01*
X0058486Y0010046D02*
X0058286Y0009846D01*
X0058286Y0009846D02*
X0058286Y0007496D01*
X0062086Y0010746D02*
X0062086Y0009246D01*
X0062486Y0011146D02*
X0062086Y0010746D01*
X0062586Y0011146D02*
X0062486Y0011146D01*
X0069686Y0019946D02*
X0069686Y0018596D01*
X0069686Y0018596D02*
X0069636Y0018546D01*
D46*
X0062086Y0009246D02*
X0062086Y0007646D01*
X0062086Y0007646D02*
X0058436Y0007646D01*
X0058436Y0007646D02*
X0058286Y0007496D01*
D25*
X0069636Y0017046D02*
X0069636Y0018546D01*
X0069636Y0015546D02*
X0069636Y0017046D01*
X0071036Y0015546D02*
X0069636Y0015546D01*
X0077936Y0017246D02*
X0077936Y0018746D01*
X0077936Y0014146D02*
X0077936Y0015746D01*
X0077936Y0015746D02*
X0077936Y0017246D01*
D22*
X0034236Y0028046D02*
X0035236Y0028046D01*
D25*
X0036236Y0029046D02*
X0036236Y0033096D01*
X0035236Y0028046D02*
X0036236Y0029046D01*
D22*
X0039686Y0034996D02*
X0039686Y0034396D01*
X0039686Y0034396D02*
X0039836Y0034246D01*
X0039836Y0034246D02*
X0039836Y0033046D01*
X0039836Y0033046D02*
X0037686Y0033046D01*
X0037686Y0033046D02*
X0037686Y0034996D01*
X0037686Y0034996D02*
X0037686Y0033046D01*
X0039836Y0034246D02*
X0039836Y0033046D01*
X0039686Y0034396D02*
X0039836Y0034246D01*
X0039836Y0033046D02*
X0039836Y0033096D01*
X0039836Y0033096D02*
X0039836Y0033046D01*
X0041686Y0034996D02*
X0041686Y0033046D01*
X0041686Y0033046D02*
X0041636Y0032996D01*
X0041586Y0032996D02*
X0041586Y0033146D01*
X0041636Y0032996D02*
X0041586Y0032996D01*
X0037686Y0033046D02*
X0037686Y0033146D01*
D25*
X0034786Y0036946D02*
X0034786Y0034546D01*
X0034786Y0034546D02*
X0036236Y0033096D01*
X0036236Y0033096D02*
X0036286Y0033046D01*
X0036286Y0033046D02*
X0039836Y0033046D01*
X0039836Y0033046D02*
X0041686Y0033046D01*
D22*
X0043786Y0029546D02*
X0045636Y0029546D01*
D25*
X0043686Y0029646D02*
X0043786Y0029546D01*
X0043686Y0031046D02*
X0043686Y0029646D01*
X0041686Y0033046D02*
X0041586Y0033146D01*
X0041586Y0033146D02*
X0043686Y0031046D01*
D22*
X0041686Y0034996D02*
X0041686Y0033146D01*
X0047136Y0029546D02*
X0045636Y0029546D01*
X0041686Y0036496D02*
X0041686Y0034996D01*
X0037686Y0033146D02*
X0037686Y0033046D01*
X0037686Y0033046D02*
X0037686Y0033146D01*
X0037686Y0036496D02*
X0037686Y0034996D01*
X0032736Y0028046D02*
X0034236Y0028046D01*
X0032786Y0036946D02*
X0034086Y0035646D01*
X0033136Y0034046D02*
X0032586Y0033496D01*
X0033586Y0034046D02*
X0033136Y0034046D01*
X0034086Y0034546D02*
X0033586Y0034046D01*
X0034086Y0035646D02*
X0034086Y0034546D01*
X0034236Y0033046D02*
X0033186Y0033046D01*
X0033036Y0033046D02*
X0032586Y0033496D01*
X0033186Y0033046D02*
X0033036Y0033046D01*
X0030786Y0034246D02*
X0030636Y0034396D01*
X0030636Y0034396D02*
X0030636Y0035846D01*
X0034236Y0032046D02*
X0032786Y0032046D01*
X0031386Y0033446D02*
X0031286Y0033546D01*
X0032786Y0032046D02*
X0031386Y0033446D01*
X0031286Y0033546D02*
X0031286Y0033746D01*
X0031286Y0033746D02*
X0030786Y0034246D01*
X0037686Y0023596D02*
X0037686Y0022096D01*
D25*
X0037686Y0022096D02*
X0036936Y0022096D01*
X0036936Y0022096D02*
X0036886Y0022046D01*
D22*
X0020636Y0043146D02*
X0020686Y0043096D01*
X0020686Y0043096D02*
X0020686Y0042246D01*
X0025236Y0043146D02*
X0025186Y0043096D01*
X0025186Y0043096D02*
X0025186Y0042246D01*
X0028236Y0043146D02*
X0028186Y0043096D01*
X0028186Y0043096D02*
X0028186Y0042246D01*
X0033136Y0043146D02*
X0033186Y0043096D01*
X0033186Y0043096D02*
X0033186Y0042246D01*
X0036036Y0043146D02*
X0036086Y0043096D01*
X0036086Y0043096D02*
X0036086Y0042246D01*
X0045636Y0032546D02*
X0044686Y0032546D01*
X0045636Y0032546D02*
X0047136Y0032546D01*
X0039186Y0036496D02*
X0039186Y0034996D01*
X0039186Y0034996D02*
X0039186Y0033946D01*
X0036186Y0034996D02*
X0036186Y0035946D01*
X0034236Y0030046D02*
X0035186Y0030046D01*
X0032736Y0030046D02*
X0034236Y0030046D01*
D25*
X0033386Y0019246D02*
X0033386Y0020446D01*
D22*
X0034236Y0031546D02*
X0032586Y0031546D01*
X0029486Y0030946D02*
X0029186Y0030946D01*
X0031986Y0030946D02*
X0029486Y0030946D01*
X0032586Y0031546D02*
X0031986Y0030946D01*
X0029186Y0032046D02*
X0029186Y0030946D01*
X0029186Y0030946D02*
X0029186Y0030096D01*
X0066036Y0027646D02*
X0064436Y0026046D01*
X0064436Y0026046D02*
X0064386Y0026046D01*
X0067721Y0029246D02*
X0067286Y0029246D01*
X0067286Y0028896D02*
X0066036Y0027646D01*
X0067286Y0029246D02*
X0067286Y0028896D01*
X0066036Y0029146D02*
X0065236Y0028346D01*
X0065236Y0028346D02*
X0062586Y0028346D01*
X0062586Y0028346D02*
X0062386Y0028146D01*
X0067721Y0029746D02*
X0066786Y0029746D01*
X0066636Y0029746D02*
X0066036Y0029146D01*
X0066786Y0029746D02*
X0066636Y0029746D01*
X0066036Y0030646D02*
X0065386Y0029996D01*
X0065336Y0029946D02*
X0062486Y0029946D01*
X0065386Y0029996D02*
X0065336Y0029946D01*
X0062486Y0029946D02*
X0062386Y0029846D01*
X0067721Y0030246D02*
X0066986Y0030246D01*
X0066436Y0030246D02*
X0066036Y0030646D01*
X0066986Y0030246D02*
X0066436Y0030246D01*
X0066036Y0032146D02*
X0065336Y0032846D01*
X0063086Y0032846D02*
X0062386Y0033546D01*
X0065336Y0032846D02*
X0063086Y0032846D01*
X0067721Y0030746D02*
X0067186Y0030746D01*
X0066186Y0031746D02*
X0066186Y0031996D01*
X0066386Y0031546D02*
X0066186Y0031746D01*
X0067186Y0030746D02*
X0066386Y0031546D01*
X0066186Y0031996D02*
X0066036Y0032146D01*
X0066036Y0033646D02*
X0065986Y0033696D01*
X0065986Y0033696D02*
X0065986Y0034746D01*
X0062686Y0038046D02*
X0062686Y0038746D01*
X0065986Y0034746D02*
X0062686Y0038046D01*
X0062686Y0038746D02*
X0062586Y0038846D01*
X0067721Y0031246D02*
X0066886Y0032081D01*
X0066886Y0032796D02*
X0066036Y0033646D01*
X0066886Y0032081D02*
X0066886Y0032796D01*
X0071886Y0033996D02*
X0070586Y0035296D01*
X0070586Y0042346D02*
X0069786Y0043146D01*
X0070586Y0035296D02*
X0070586Y0042346D01*
X0071651Y0031246D02*
X0071886Y0031481D01*
X0071886Y0031481D02*
X0071886Y0033996D01*
D25*
X0069236Y0026846D02*
X0069186Y0026796D01*
X0069186Y0026796D02*
X0069186Y0025546D01*
X0069186Y0025546D02*
X0068886Y0025246D01*
D22*
X0069686Y0028281D02*
X0069686Y0027546D01*
X0069686Y0027296D02*
X0069236Y0026846D01*
X0069686Y0027546D02*
X0069686Y0027296D01*
X0069186Y0032211D02*
X0069186Y0033696D01*
X0069186Y0035196D02*
X0069186Y0036846D01*
D25*
X0065286Y0036996D02*
X0064186Y0038096D01*
X0064186Y0038946D02*
X0065386Y0040146D01*
X0064186Y0038096D02*
X0064186Y0038946D01*
X0066986Y0036846D02*
X0066836Y0036996D01*
X0066836Y0036996D02*
X0065286Y0036996D01*
X0068886Y0023246D02*
X0068786Y0023146D01*
X0068786Y0023146D02*
X0068786Y0022346D01*
X0067886Y0021446D02*
X0068786Y0022346D01*
X0068786Y0022346D02*
X0070636Y0022346D01*
X0070636Y0022346D02*
X0070636Y0023846D01*
X0070636Y0025346D02*
X0070636Y0023846D01*
X0070636Y0026846D02*
X0070636Y0025346D01*
D22*
X0070686Y0028281D02*
X0070686Y0027646D01*
X0070686Y0027646D02*
X0070686Y0026896D01*
X0070686Y0026896D02*
X0070636Y0026846D01*
D25*
X0076036Y0028046D02*
X0075986Y0027996D01*
X0075986Y0027996D02*
X0075986Y0026446D01*
X0076036Y0029546D02*
X0076036Y0028046D01*
X0074636Y0029546D02*
X0076036Y0029546D01*
X0073386Y0033096D02*
X0074886Y0033096D01*
X0073136Y0031546D02*
X0073386Y0031796D01*
X0073386Y0031796D02*
X0073386Y0033096D01*
D22*
X0071651Y0030746D02*
X0072186Y0030746D01*
X0072636Y0031046D02*
X0073136Y0031546D01*
X0072486Y0031046D02*
X0072636Y0031046D01*
X0072186Y0030746D02*
X0072486Y0031046D01*
D25*
X0073986Y0026696D02*
X0073986Y0028246D01*
X0073986Y0028696D02*
X0073136Y0029546D01*
X0073986Y0028246D02*
X0073986Y0028696D01*
D22*
X0071651Y0029746D02*
X0072286Y0029746D01*
X0072286Y0029746D02*
X0072936Y0029746D01*
X0072936Y0029746D02*
X0073136Y0029546D01*
D25*
X0073986Y0023796D02*
X0073986Y0025196D01*
X0076386Y0033096D02*
X0074836Y0031546D01*
X0074836Y0031546D02*
X0074636Y0031546D01*
D22*
X0071651Y0030246D02*
X0072286Y0030246D01*
X0073536Y0030446D02*
X0074636Y0031546D01*
X0072486Y0030446D02*
X0073536Y0030446D01*
X0072286Y0030246D02*
X0072486Y0030446D01*
D25*
X0076386Y0034596D02*
X0076386Y0037146D01*
X0076386Y0037196D02*
X0077336Y0038146D01*
X0076386Y0037146D02*
X0076386Y0037196D01*
X0074886Y0034596D02*
X0076386Y0034596D01*
D22*
X0073656Y0013946D02*
X0073656Y0015866D01*
X0073656Y0015866D02*
X0073986Y0016196D01*
D25*
X0074036Y0020846D02*
X0073986Y0020896D01*
X0073986Y0020896D02*
X0073986Y0022296D01*
X0074036Y0019246D02*
X0074036Y0020846D01*
X0073986Y0017696D02*
X0074036Y0017746D01*
X0074036Y0017746D02*
X0074036Y0019246D01*
X0080336Y0038146D02*
X0078836Y0038146D01*
X0080286Y0035646D02*
X0080286Y0038096D01*
X0080286Y0038096D02*
X0080336Y0038146D01*
X0096266Y0037211D02*
X0092871Y0037211D01*
X0081586Y0040996D02*
X0080236Y0039646D01*
X0086336Y0040996D02*
X0081586Y0040996D01*
X0089736Y0037596D02*
X0086336Y0040996D01*
X0092486Y0037596D02*
X0089736Y0037596D01*
X0092871Y0037211D02*
X0092486Y0037596D01*
X0096251Y0037196D02*
X0096266Y0037211D01*
D22*
X0070336Y0013346D02*
X0069536Y0012546D01*
X0069536Y0012546D02*
X0066936Y0012546D01*
X0066936Y0012546D02*
X0066836Y0012646D01*
X0071906Y0013196D02*
X0070486Y0013196D01*
X0070486Y0013196D02*
X0070336Y0013346D01*
X0071906Y0012696D02*
X0070986Y0012696D01*
X0070986Y0012696D02*
X0070336Y0013346D01*
X0074906Y0013196D02*
X0076436Y0013196D01*
X0076386Y0013146D02*
X0076436Y0013146D01*
X0076436Y0013196D02*
X0076386Y0013146D01*
X0074906Y0012696D02*
X0076286Y0012696D01*
X0076286Y0012696D02*
X0076436Y0012546D01*
D25*
X0076436Y0014146D02*
X0076436Y0013146D01*
X0076436Y0013146D02*
X0076436Y0012546D01*
X0070336Y0011846D02*
X0070336Y0011296D01*
X0065686Y0009846D02*
X0065686Y0009296D01*
X0066486Y0010646D02*
X0065686Y0009846D01*
X0069686Y0010646D02*
X0066486Y0010646D01*
X0070336Y0011296D02*
X0069686Y0010646D01*
X0065686Y0009296D02*
X0064136Y0009296D01*
X0064136Y0009296D02*
X0064086Y0009246D01*
X0067186Y0009296D02*
X0065686Y0009296D01*
X0068686Y0009296D02*
X0067186Y0009296D01*
X0070236Y0009246D02*
X0068736Y0009246D01*
X0068736Y0009246D02*
X0068686Y0009296D01*
D22*
X0071906Y0012196D02*
X0070686Y0012196D01*
X0070686Y0012196D02*
X0070336Y0011846D01*
X0074906Y0011696D02*
X0075786Y0011696D01*
X0075786Y0011696D02*
X0076436Y0011046D01*
X0074156Y0010946D02*
X0074156Y0010266D01*
X0074156Y0010266D02*
X0073136Y0009246D01*
X0073656Y0010946D02*
X0073656Y0009766D01*
X0073656Y0009766D02*
X0073136Y0009246D01*
X0073156Y0010946D02*
X0073156Y0009266D01*
X0073156Y0009266D02*
X0073136Y0009246D01*
X0072656Y0010946D02*
X0072656Y0009726D01*
X0072656Y0009726D02*
X0073136Y0009246D01*
D25*
X0073136Y0009246D02*
X0071736Y0009246D01*
X0073186Y0007696D02*
X0073186Y0009196D01*
X0073186Y0009196D02*
X0073136Y0009246D01*
X0084936Y0027346D02*
X0085286Y0027696D01*
X0085286Y0027696D02*
X0085286Y0028946D01*
D22*
X0085726Y0025262D02*
X0085686Y0025302D01*
X0085686Y0025302D02*
X0085686Y0026596D01*
X0085686Y0026596D02*
X0084936Y0027346D01*
D25*
X0075386Y0007696D02*
X0075386Y0009246D01*
X0075386Y0009246D02*
X0074636Y0009246D01*
X0076036Y0009246D02*
X0074636Y0009246D01*
X0080386Y0013696D02*
X0080386Y0012296D01*
X0080436Y0009246D02*
X0080436Y0007746D01*
X0080436Y0007746D02*
X0080486Y0007696D01*
X0080386Y0010796D02*
X0080386Y0009296D01*
X0080386Y0009296D02*
X0080436Y0009246D01*
X0080386Y0018396D02*
X0080386Y0019696D01*
X0080386Y0015596D02*
X0080386Y0016896D01*
X0080286Y0030296D02*
X0080286Y0032646D01*
X0080336Y0027146D02*
X0080336Y0028746D01*
X0080336Y0028746D02*
X0080286Y0028796D01*
X0080334Y0025547D02*
X0080334Y0027144D01*
X0080334Y0027144D02*
X0080336Y0027146D01*
X0078386Y0007696D02*
X0078386Y0009246D01*
X0078386Y0009246D02*
X0078936Y0009246D01*
X0078936Y0009246D02*
X0077536Y0009246D01*
X0078936Y0009246D02*
X0077536Y0009246D01*
D51*
X0083486Y0028796D02*
X0085286Y0030596D01*
X0085286Y0030596D02*
X0085286Y0030946D01*
D25*
X0081886Y0028796D02*
X0083486Y0028796D01*
X0081836Y0027146D02*
X0081836Y0028746D01*
X0081836Y0028746D02*
X0081886Y0028796D01*
X0081936Y0027046D02*
X0081836Y0027146D01*
X0084786Y0015296D02*
X0086186Y0015296D01*
X0082586Y0014646D02*
X0084136Y0014646D01*
X0084136Y0014646D02*
X0084786Y0015296D01*
X0084736Y0015246D02*
X0084786Y0015296D01*
D22*
X0070186Y0032211D02*
X0070186Y0033696D01*
X0082386Y0011346D02*
X0081686Y0012046D01*
X0082386Y0009346D02*
X0082386Y0011346D01*
X0082086Y0009046D02*
X0082386Y0009346D01*
X0081686Y0012046D02*
X0081686Y0012296D01*
D25*
X0081686Y0012296D02*
X0081686Y0012796D01*
X0081686Y0012796D02*
X0082586Y0013696D01*
X0087686Y0015296D02*
X0087686Y0016746D01*
X0087636Y0013846D02*
X0087636Y0015246D01*
X0087636Y0015246D02*
X0087686Y0015296D01*
D22*
X0082586Y0016896D02*
X0087086Y0021396D01*
X0087086Y0021396D02*
X0087086Y0022446D01*
X0070686Y0032211D02*
X0070686Y0032846D01*
X0070686Y0032846D02*
X0070986Y0033146D01*
X0087086Y0022446D02*
X0087086Y0023190D01*
X0087086Y0023190D02*
X0087046Y0023230D01*
D25*
X0082586Y0015596D02*
X0082586Y0016896D01*
X0089136Y0013846D02*
X0089136Y0015246D01*
X0089136Y0015246D02*
X0089086Y0015296D01*
X0096266Y0014986D02*
X0092926Y0014986D01*
X0091786Y0013846D02*
X0089136Y0013846D01*
X0092926Y0014986D02*
X0091786Y0013846D01*
D60*
X0008486Y0027446D02*
X0008486Y0023245D01*
X0008486Y0023245D02*
X0011436Y0020295D01*
D25*
X0016271Y0021171D02*
X0016271Y0023211D01*
X0011436Y0022446D02*
X0011436Y0020295D01*
X0012386Y0023396D02*
X0011436Y0022446D01*
X0016086Y0023396D02*
X0012386Y0023396D01*
X0016271Y0023211D02*
X0016086Y0023396D01*
D60*
X0044885Y0015746D02*
X0044786Y0015845D01*
X0044786Y0015845D02*
X0044786Y0020246D01*
X0044786Y0020246D02*
X0051886Y0027346D01*
D25*
X0044821Y0011421D02*
X0044885Y0011485D01*
X0044885Y0011485D02*
X0044885Y0015746D01*
D51*
X0030886Y0019746D02*
X0029526Y0018386D01*
X0029526Y0018386D02*
X0029526Y0016962D01*
D22*
X0021386Y0012896D02*
X0021386Y0012896D01*
X0044636Y0026546D02*
X0044586Y0026546D01*
X0044586Y0026546D02*
X0044486Y0026446D01*
X0045636Y0026546D02*
X0044636Y0026546D01*
X0028186Y0006296D02*
X0027986Y0006296D01*
X0027986Y0006296D02*
X0021386Y0012896D01*
X0053086Y0041796D02*
X0052236Y0041796D01*
X0042686Y0023596D02*
X0042686Y0019546D01*
X0042386Y0017646D02*
X0042386Y0011526D01*
X0042686Y0017946D02*
X0042386Y0017646D01*
X0042686Y0019546D02*
X0042686Y0017946D01*
X0042386Y0011526D02*
X0042281Y0011421D01*
X0037186Y0034996D02*
X0037186Y0035646D01*
X0036786Y0038896D02*
X0035786Y0039896D01*
X0036786Y0036046D02*
X0036786Y0038896D01*
X0037186Y0035646D02*
X0036786Y0036046D01*
X0035786Y0039896D02*
X0035886Y0039896D01*
X0035886Y0039896D02*
X0037386Y0041396D01*
X0038186Y0035646D02*
X0038186Y0034996D01*
X0038386Y0035846D02*
X0038186Y0035646D01*
X0038386Y0039446D02*
X0038386Y0035846D01*
X0038686Y0039746D02*
X0038386Y0039446D01*
X0038686Y0034996D02*
X0038686Y0034346D01*
X0038686Y0034346D02*
X0038336Y0033946D01*
X0045636Y0032046D02*
X0046286Y0032046D01*
X0063186Y0025246D02*
X0064386Y0024046D01*
X0058886Y0025246D02*
X0063186Y0025246D01*
X0058686Y0025446D02*
X0058886Y0025246D01*
X0058086Y0026046D02*
X0058686Y0025446D01*
X0058086Y0028046D02*
X0058086Y0026046D01*
X0054386Y0031746D02*
X0058086Y0028046D01*
X0046586Y0031746D02*
X0054386Y0031746D01*
X0046286Y0032046D02*
X0046586Y0031746D01*
X0062286Y0026046D02*
X0058986Y0026046D01*
X0057386Y0027646D02*
X0054086Y0030946D01*
X0053736Y0031296D02*
X0054086Y0030946D01*
X0046536Y0031296D02*
X0053736Y0031296D01*
X0046286Y0031046D02*
X0046536Y0031296D01*
X0046286Y0031046D02*
X0045636Y0031046D01*
X0062286Y0026046D02*
X0062386Y0026146D01*
X0062386Y0026146D02*
X0062086Y0025846D01*
X0058186Y0037646D02*
X0058136Y0037646D01*
X0046186Y0030546D02*
X0046386Y0030546D01*
X0046386Y0030546D02*
X0046586Y0030746D01*
X0046586Y0030746D02*
X0052886Y0030746D01*
X0052886Y0030746D02*
X0052986Y0030646D01*
X0058186Y0037646D02*
X0061686Y0037646D01*
X0061686Y0037646D02*
X0062386Y0036946D01*
X0062386Y0035546D02*
X0062386Y0036946D01*
X0046186Y0030546D02*
X0045636Y0030546D01*
X0058136Y0037646D02*
X0052986Y0032496D01*
X0045636Y0030046D02*
X0044786Y0030046D01*
X0044786Y0030046D02*
X0044586Y0030246D01*
X0047286Y0033746D02*
X0057486Y0043946D01*
X0044686Y0030146D02*
X0044586Y0030246D01*
X0067786Y0043146D02*
X0066986Y0043946D01*
X0066986Y0043946D02*
X0058986Y0043946D01*
X0057486Y0043946D02*
X0058986Y0043946D01*
X0045636Y0028046D02*
X0046686Y0028046D01*
X0055886Y0031546D02*
X0062086Y0031546D01*
X0055886Y0031446D02*
X0055886Y0031546D01*
X0062086Y0031546D02*
X0062386Y0031846D01*
X0044786Y0027748D02*
X0044988Y0027546D01*
X0044786Y0028146D02*
X0044786Y0027748D01*
X0044988Y0027546D02*
X0045636Y0027546D01*
X0044486Y0028446D02*
X0044786Y0028146D01*
X0058686Y0043246D02*
X0049286Y0033846D01*
X0062586Y0042846D02*
X0062186Y0043246D01*
X0062186Y0043246D02*
X0058686Y0043246D01*
X0062586Y0040846D02*
X0062586Y0042846D01*
X0045636Y0025546D02*
X0044686Y0025546D01*
X0035886Y0025096D02*
X0035886Y0025146D01*
X0035861Y0025121D02*
X0035886Y0025096D01*
X0036486Y0025746D02*
X0035861Y0025121D01*
X0044686Y0025546D02*
X0044436Y0025296D01*
X0032186Y0021446D02*
X0032186Y0016270D01*
X0030846Y0014930D02*
X0032186Y0016270D01*
X0035886Y0025146D02*
X0032186Y0021446D01*
X0031636Y0042396D02*
X0035586Y0038446D01*
X0031636Y0042396D02*
X0031636Y0043146D01*
X0043686Y0023596D02*
X0043686Y0027146D01*
X0043686Y0027146D02*
X0043586Y0027046D01*
X0030226Y0048006D02*
X0031486Y0046746D01*
X0031486Y0046746D02*
X0031486Y0043296D01*
X0031486Y0043296D02*
X0031636Y0043146D01*
X0035386Y0015346D02*
X0037886Y0017846D01*
X0042186Y0023596D02*
X0042186Y0020746D01*
X0039286Y0017846D02*
X0037886Y0017846D01*
X0042186Y0020746D02*
X0039286Y0017846D01*
X0040686Y0023596D02*
X0040686Y0024796D01*
X0019136Y0043146D02*
X0019136Y0041946D01*
X0029036Y0037996D02*
X0029086Y0037996D01*
X0028186Y0038846D02*
X0029036Y0037996D01*
X0022236Y0038846D02*
X0028186Y0038846D01*
X0019136Y0041946D02*
X0022236Y0038846D01*
X0017526Y0048006D02*
X0018786Y0046746D01*
X0018786Y0043496D02*
X0019136Y0043146D01*
X0018786Y0046746D02*
X0018786Y0043496D01*
X0035986Y0016846D02*
X0034386Y0015246D01*
X0038686Y0023046D02*
X0039386Y0022346D01*
X0039386Y0022346D02*
X0039386Y0019046D01*
X0039386Y0019046D02*
X0038686Y0018346D01*
X0038686Y0018346D02*
X0037486Y0018346D01*
X0037486Y0018346D02*
X0035986Y0016846D01*
X0038686Y0023596D02*
X0038686Y0023046D01*
X0034386Y0015246D02*
X0034386Y0014646D01*
X0038186Y0023596D02*
X0038186Y0022846D01*
X0038586Y0022446D02*
X0038586Y0019246D01*
X0038186Y0022846D02*
X0038586Y0022446D01*
X0036486Y0019246D02*
X0036086Y0019646D01*
X0036086Y0019646D02*
X0036086Y0022346D01*
X0036086Y0022346D02*
X0036686Y0022946D01*
X0036686Y0022946D02*
X0036686Y0023596D01*
X0036186Y0023596D02*
X0036186Y0023246D01*
X0036186Y0023246D02*
X0035386Y0022446D01*
X0035386Y0022446D02*
X0035386Y0017046D01*
X0035386Y0017046D02*
X0032786Y0014446D01*
X0032786Y0014446D02*
X0032086Y0014446D01*
X0032086Y0014446D02*
X0031086Y0013446D01*
X0031086Y0013446D02*
X0031086Y0004846D01*
X0031086Y0004846D02*
X0032086Y0003846D01*
X0032086Y0003846D02*
X0036186Y0003846D01*
X0036186Y0003846D02*
X0036986Y0003046D01*
X0036986Y0003046D02*
X0036986Y0001746D01*
X0036986Y0001746D02*
X0035986Y0000746D01*
X0035986Y0000746D02*
X0024146Y0000746D01*
X0024146Y0000746D02*
X0022606Y0002286D01*
X0034236Y0025546D02*
X0032236Y0025546D01*
X0021336Y0046736D02*
X0020066Y0048006D01*
X0021336Y0044596D02*
X0021336Y0046736D01*
X0026336Y0039596D02*
X0021336Y0044596D01*
X0028486Y0039596D02*
X0026336Y0039596D01*
X0029886Y0038196D02*
X0028486Y0039596D01*
X0032236Y0025546D02*
X0032286Y0025546D01*
X0031686Y0037996D02*
X0031686Y0041196D01*
X0031686Y0041196D02*
X0031186Y0041696D01*
X0029736Y0043146D02*
X0031186Y0041696D01*
X0034236Y0026546D02*
X0032586Y0026546D01*
X0027686Y0048006D02*
X0028986Y0046706D01*
X0028986Y0043896D02*
X0029736Y0043146D01*
X0028986Y0046706D02*
X0028986Y0043896D01*
X0026736Y0043146D02*
X0026736Y0042096D01*
X0033586Y0027546D02*
X0034236Y0027546D01*
X0033336Y0027296D02*
X0033586Y0027546D01*
X0032136Y0027296D02*
X0033336Y0027296D01*
X0031786Y0026946D02*
X0032136Y0027296D01*
X0028736Y0040496D02*
X0030886Y0038346D01*
X0028336Y0040496D02*
X0028736Y0040496D01*
X0026736Y0042096D02*
X0028336Y0040496D01*
X0022606Y0048006D02*
X0025146Y0048006D01*
X0025146Y0048006D02*
X0025146Y0047986D01*
X0025146Y0047986D02*
X0026386Y0046746D01*
X0026386Y0046746D02*
X0026386Y0043496D01*
X0026386Y0043496D02*
X0026736Y0043146D01*
X0066886Y0022546D02*
X0066886Y0020046D01*
X0067486Y0028246D02*
X0066886Y0027646D01*
X0066886Y0027646D02*
X0066886Y0023146D01*
X0066886Y0023146D02*
X0066886Y0022546D01*
X0068651Y0028246D02*
X0067486Y0028246D01*
X0065286Y0018446D02*
X0065286Y0012696D01*
X0065686Y0018846D02*
X0065286Y0018446D01*
X0066886Y0020046D02*
X0065686Y0018846D01*
X0065286Y0012696D02*
X0065336Y0012646D01*
X0068686Y0028281D02*
X0068651Y0028246D01*
X0069186Y0028281D02*
X0068686Y0028281D01*
X0072656Y0013946D02*
X0072656Y0015526D01*
X0072656Y0015526D02*
X0072636Y0015546D01*
D25*
X0080386Y0021196D02*
X0080386Y0022493D01*
X0080386Y0022493D02*
X0080334Y0022545D01*
D46*
X0002286Y0017526D02*
X0002286Y0020066D01*
D25*
X0002286Y0020066D02*
X0002306Y0020046D01*
X0002306Y0020046D02*
X0004736Y0020046D01*
D22*
X0030226Y0002286D02*
X0030226Y0002756D01*
X0030226Y0002756D02*
X0028186Y0004796D01*
X0032766Y0002286D02*
X0032596Y0002286D01*
X0032596Y0002286D02*
X0030086Y0004796D01*
X0053086Y0045466D02*
X0053086Y0043296D01*
X0024416Y0031996D02*
X0024416Y0031976D01*
X0024416Y0031976D02*
X0022786Y0030346D01*
X0022786Y0030346D02*
X0022786Y0013646D01*
X0022786Y0013646D02*
X0030086Y0006346D01*
X0030086Y0006346D02*
X0030086Y0006296D01*
X0032766Y0048006D02*
X0034086Y0046686D01*
X0034086Y0043596D02*
X0034536Y0043146D01*
X0034086Y0046686D02*
X0034086Y0043596D01*
X0025686Y0026246D02*
X0025686Y0035806D01*
X0025686Y0035806D02*
X0024416Y0037076D01*
X0026286Y0025646D02*
X0025686Y0026246D01*
X0028536Y0025646D02*
X0026286Y0025646D01*
X0029686Y0024496D02*
X0028536Y0025646D01*
X0034333Y0024496D02*
X0029686Y0024496D01*
X0044136Y0027846D02*
X0037683Y0027846D01*
X0037683Y0027846D02*
X0034333Y0024496D01*
X0045636Y0027046D02*
X0044936Y0027046D01*
X0044936Y0027046D02*
X0044136Y0027846D01*
D25*
X0026956Y0021836D02*
X0026996Y0021796D01*
D22*
G36*
X0083086Y0031246D02*
X0081286Y0031246D01*
X0081286Y0037146D01*
X0083086Y0037146D01*
X0083086Y0031246D01*
X0083086Y0031246D01*
G37*
X0083086Y0031246D02*
X0081286Y0031246D01*
X0081286Y0037146D01*
X0083086Y0037146D01*
X0083086Y0031246D01*
G36*
X0079286Y0031246D02*
X0077486Y0031246D01*
X0077486Y0037146D01*
X0079286Y0037146D01*
X0079286Y0031246D01*
X0079286Y0031246D01*
G37*
X0079286Y0031246D02*
X0077486Y0031246D01*
X0077486Y0037146D01*
X0079286Y0037146D01*
X0079286Y0031246D01*
X0000000Y0050290D02*
%LPD*%
G01*
D43*
D37*
X0029086Y0072086D03*
X0029086Y0070586D03*
D31*
X0047536Y0098236D03*
X0046036Y0098236D03*
X0006436Y0071936D03*
X0004936Y0071936D03*
D45*
X0020986Y0065866D03*
X0020986Y0072106D03*
X0038886Y0062356D03*
X0038886Y0056116D03*
D40*
X0014406Y0061036D03*
X0008166Y0061036D03*
D45*
X0033586Y0062356D03*
X0033586Y0056116D03*
D40*
X0007666Y0084486D03*
X0013906Y0084486D03*
D45*
X0054586Y0056116D03*
X0054586Y0062356D03*
D40*
X0007666Y0089486D03*
X0013906Y0089486D03*
D45*
X0049486Y0056116D03*
X0049486Y0062356D03*
D37*
X0029786Y0062486D03*
X0029786Y0060986D03*
X0058286Y0057786D03*
X0058286Y0056286D03*
D31*
X0032736Y0078336D03*
X0031236Y0078336D03*
X0047136Y0079836D03*
X0048636Y0079836D03*
D37*
X0037686Y0086786D03*
X0037686Y0088286D03*
X0032586Y0083786D03*
X0032586Y0085286D03*
X0041686Y0086786D03*
X0041686Y0088286D03*
D31*
X0030636Y0086136D03*
X0029136Y0086136D03*
X0032736Y0080336D03*
X0031236Y0080336D03*
D37*
X0037686Y0072386D03*
X0037686Y0070886D03*
D31*
X0047136Y0082836D03*
X0048636Y0082836D03*
D37*
X0029186Y0080386D03*
X0029186Y0078886D03*
X0039186Y0086786D03*
X0039186Y0088286D03*
D31*
X0066036Y0077936D03*
X0064536Y0077936D03*
X0066036Y0079436D03*
X0064536Y0079436D03*
X0066036Y0080936D03*
X0064536Y0080936D03*
X0066036Y0082436D03*
X0064536Y0082436D03*
X0066036Y0083936D03*
X0064536Y0083936D03*
D37*
X0071886Y0084286D03*
X0071886Y0085786D03*
D31*
X0062836Y0071736D03*
X0064336Y0071736D03*
X0067736Y0077136D03*
X0069236Y0077136D03*
D37*
X0069186Y0083986D03*
X0069186Y0085486D03*
X0065286Y0087286D03*
X0065286Y0088786D03*
D31*
X0070636Y0072636D03*
X0072136Y0072636D03*
X0070636Y0074136D03*
X0072136Y0074136D03*
X0070636Y0075636D03*
X0072136Y0075636D03*
X0070636Y0077136D03*
X0072136Y0077136D03*
X0076036Y0078336D03*
X0077536Y0078336D03*
X0076036Y0079836D03*
X0077536Y0079836D03*
D37*
X0073386Y0083386D03*
X0073386Y0084886D03*
X0073986Y0076986D03*
X0073986Y0075486D03*
X0076386Y0083386D03*
X0076386Y0084886D03*
X0073986Y0066486D03*
X0073986Y0067986D03*
D31*
X0074036Y0071136D03*
X0072536Y0071136D03*
X0068136Y0068836D03*
X0069636Y0068836D03*
X0068136Y0067336D03*
X0069636Y0067336D03*
X0068136Y0065836D03*
X0069636Y0065836D03*
X0078836Y0088436D03*
X0077336Y0088436D03*
D37*
X0080236Y0089936D03*
X0080236Y0088436D03*
D31*
X0068836Y0063636D03*
X0070336Y0063636D03*
X0076436Y0062836D03*
X0077936Y0062836D03*
X0077936Y0066036D03*
X0076436Y0066036D03*
X0077936Y0067536D03*
X0076436Y0067536D03*
X0077936Y0069036D03*
X0076436Y0069036D03*
X0070336Y0062136D03*
X0068836Y0062136D03*
X0076436Y0061336D03*
X0077936Y0061336D03*
D37*
X0073186Y0057986D03*
X0073186Y0056486D03*
X0068686Y0059586D03*
X0068686Y0058086D03*
X0067186Y0059586D03*
X0067186Y0058086D03*
X0065686Y0059586D03*
X0065686Y0058086D03*
D31*
X0084936Y0077636D03*
X0086436Y0077636D03*
D37*
X0075386Y0057986D03*
X0075386Y0056486D03*
X0080386Y0062586D03*
X0080386Y0061086D03*
X0080386Y0068686D03*
X0080386Y0067186D03*
X0080286Y0080586D03*
X0080286Y0079086D03*
X0078386Y0057986D03*
X0078386Y0056486D03*
X0081886Y0079086D03*
X0081886Y0080586D03*
X0083486Y0079086D03*
X0083486Y0080586D03*
X0080486Y0057986D03*
X0080486Y0056486D03*
X0084786Y0065586D03*
X0084786Y0067086D03*
X0081686Y0062586D03*
X0081686Y0061086D03*
X0087686Y0067036D03*
X0087686Y0068536D03*
X0082586Y0067186D03*
X0082586Y0068686D03*
D31*
X0087636Y0064136D03*
X0089136Y0064136D03*
D23*
X0011436Y0065587D03*
X0011436Y0070585D03*
D58*
X0039887Y0066036D03*
X0044885Y0066036D03*
D13*
X0029526Y0067252D03*
X0030846Y0067252D03*
X0030186Y0067252D03*
X0030846Y0065220D03*
X0029526Y0065220D03*
D62*
X0013731Y0065111D03*
X0015001Y0065111D03*
X0016271Y0065111D03*
X0017541Y0065111D03*
X0017541Y0071461D03*
X0016271Y0071461D03*
X0015001Y0071461D03*
X0013731Y0071461D03*
X0042281Y0055361D03*
X0043551Y0055361D03*
X0044821Y0055361D03*
X0046091Y0055361D03*
X0046091Y0061711D03*
X0044821Y0061711D03*
X0043551Y0061711D03*
X0042281Y0061711D03*
D42*
X0036186Y0085286D03*
X0036686Y0085286D03*
X0037186Y0085286D03*
X0037686Y0085286D03*
X0038186Y0085286D03*
X0038686Y0085286D03*
X0039186Y0085286D03*
X0039686Y0085286D03*
X0040186Y0085286D03*
X0040686Y0085286D03*
X0041186Y0085286D03*
X0041686Y0085286D03*
X0042186Y0085286D03*
X0042686Y0085286D03*
X0043186Y0085286D03*
X0043686Y0085286D03*
D11*
X0045636Y0083336D03*
X0045636Y0082836D03*
X0045636Y0082336D03*
X0045636Y0081836D03*
X0045636Y0081336D03*
X0045636Y0080836D03*
X0045636Y0080336D03*
X0045636Y0079836D03*
X0045636Y0079336D03*
X0045636Y0078836D03*
X0045636Y0078336D03*
X0045636Y0077836D03*
X0045636Y0077336D03*
X0045636Y0076836D03*
X0045636Y0076336D03*
X0045636Y0075836D03*
D42*
X0043686Y0073886D03*
X0043186Y0073886D03*
X0042686Y0073886D03*
X0042186Y0073886D03*
X0041686Y0073886D03*
X0041186Y0073886D03*
X0040686Y0073886D03*
X0040186Y0073886D03*
X0039686Y0073886D03*
X0039186Y0073886D03*
X0038686Y0073886D03*
X0038186Y0073886D03*
X0037686Y0073886D03*
X0037186Y0073886D03*
X0036686Y0073886D03*
X0036186Y0073886D03*
D11*
X0034236Y0075836D03*
X0034236Y0076336D03*
X0034236Y0076836D03*
X0034236Y0077336D03*
X0034236Y0077836D03*
X0034236Y0078336D03*
X0034236Y0078836D03*
X0034236Y0079336D03*
X0034236Y0079836D03*
X0034236Y0080336D03*
X0034236Y0080836D03*
X0034236Y0081336D03*
X0034236Y0081836D03*
X0034236Y0082336D03*
X0034236Y0082836D03*
X0034236Y0083336D03*
D13*
X0085726Y0075552D03*
X0087046Y0075552D03*
X0086386Y0075552D03*
X0087046Y0073520D03*
X0085726Y0073520D03*
D33*
X0081686Y0085936D03*
X0078886Y0085936D03*
X0078886Y0082936D03*
D19*
X0081686Y0083236D03*
D27*
X0080286Y0085936D03*
X0080286Y0082936D03*
D29*
X0080386Y0063986D03*
X0080386Y0064936D03*
X0080386Y0065886D03*
X0082586Y0065886D03*
X0082586Y0063986D03*
X0082586Y0064936D03*
D17*
X0080334Y0072835D03*
X0080334Y0074336D03*
X0080334Y0075837D03*
D54*
X0083286Y0074336D03*
D10*
X0081437Y0074336D03*
D43*
G36*
X0081062Y0074836D02*
X0081811Y0075337D01*
X0081811Y0073335D01*
X0081062Y0073836D01*
X0081062Y0074836D01*
X0081062Y0074836D01*
G37*
D28*
X0004736Y0070336D03*
X0006236Y0070336D03*
D56*
X0002286Y0075436D03*
D49*
X0002286Y0072896D03*
X0002286Y0070356D03*
X0002286Y0067816D03*
X0002286Y0065276D03*
X0002286Y0062736D03*
D26*
X0012446Y0052576D03*
D14*
X0014986Y0052576D03*
X0017526Y0052576D03*
X0020066Y0052576D03*
X0022606Y0052576D03*
X0025146Y0052576D03*
X0027686Y0052576D03*
X0030226Y0052576D03*
X0032766Y0052576D03*
X0035306Y0052576D03*
D26*
X0055626Y0052576D03*
D14*
X0053086Y0052576D03*
X0050546Y0052576D03*
X0048006Y0052576D03*
X0045466Y0052576D03*
X0042926Y0052576D03*
D26*
X0042926Y0095756D03*
D14*
X0045466Y0095756D03*
X0048006Y0095756D03*
X0050546Y0095756D03*
X0053086Y0095756D03*
X0055626Y0095756D03*
D52*
X0096266Y0065276D03*
D41*
X0098806Y0062736D03*
X0098806Y0067816D03*
X0093726Y0067816D03*
X0093726Y0062736D03*
D52*
X0096266Y0087501D03*
D41*
X0093726Y0084961D03*
X0098806Y0084961D03*
X0098806Y0090041D03*
X0093726Y0090041D03*
D66*
X0026956Y0087366D03*
D36*
X0024416Y0087366D03*
X0026956Y0084826D03*
X0024416Y0084826D03*
X0026956Y0082286D03*
X0024416Y0082286D03*
X0026956Y0079746D03*
X0024416Y0079746D03*
X0026956Y0077206D03*
X0024416Y0077206D03*
X0026956Y0074666D03*
X0024416Y0074666D03*
X0026956Y0072126D03*
X0024416Y0072126D03*
X0026956Y0069586D03*
X0024416Y0069586D03*
X0026956Y0067046D03*
X0024416Y0067046D03*
X0026956Y0064506D03*
X0024416Y0064506D03*
D66*
X0035306Y0098296D03*
D36*
X0035306Y0095756D03*
X0032766Y0098296D03*
X0032766Y0095756D03*
X0030226Y0098296D03*
X0030226Y0095756D03*
X0027686Y0098296D03*
X0027686Y0095756D03*
X0025146Y0098296D03*
X0025146Y0095756D03*
X0022606Y0098296D03*
X0022606Y0095756D03*
X0020066Y0098296D03*
X0020066Y0095756D03*
X0017526Y0098296D03*
X0017526Y0095756D03*
X0014986Y0098296D03*
X0014986Y0095756D03*
X0012446Y0098296D03*
X0012446Y0095756D03*
D32*
X0020086Y0077736D03*
X0008486Y0077736D03*
D48*
X0051886Y0066036D03*
X0051886Y0077636D03*
D34*
X0028186Y0055086D03*
X0028186Y0056586D03*
X0053086Y0092086D03*
X0053086Y0093586D03*
X0030086Y0056586D03*
X0030086Y0055086D03*
X0035786Y0091686D03*
X0035786Y0090186D03*
X0037386Y0091686D03*
X0037386Y0090186D03*
D28*
X0020636Y0093436D03*
X0019136Y0093436D03*
X0025236Y0093436D03*
X0026736Y0093436D03*
X0028236Y0093436D03*
X0029736Y0093436D03*
X0033136Y0093436D03*
X0031636Y0093436D03*
X0036036Y0093436D03*
X0034536Y0093436D03*
X0074036Y0069536D03*
X0072536Y0069536D03*
X0065336Y0062936D03*
X0066836Y0062936D03*
D59*
X0071651Y0081536D03*
X0071651Y0081036D03*
X0071651Y0080536D03*
X0071651Y0080036D03*
X0071651Y0079536D03*
D20*
X0070686Y0078571D03*
X0070186Y0078571D03*
X0069686Y0078571D03*
X0069186Y0078571D03*
X0068686Y0078571D03*
D59*
X0067721Y0079536D03*
X0067721Y0080036D03*
X0067721Y0080536D03*
X0067721Y0081036D03*
X0067721Y0081536D03*
D20*
X0068686Y0082501D03*
X0069186Y0082501D03*
X0069686Y0082501D03*
X0070186Y0082501D03*
X0070686Y0082501D03*
D39*
X0069061Y0079911D03*
X0069061Y0081161D03*
X0070311Y0079911D03*
X0070311Y0081161D03*
D24*
X0072656Y0064236D03*
X0073156Y0064236D03*
X0073656Y0064236D03*
X0074156Y0064236D03*
D38*
X0074906Y0063486D03*
X0074906Y0062986D03*
X0074906Y0062486D03*
X0074906Y0061986D03*
D24*
X0074156Y0061236D03*
X0073656Y0061236D03*
X0073156Y0061236D03*
X0072656Y0061236D03*
D38*
X0071906Y0061986D03*
X0071906Y0062486D03*
X0071906Y0062986D03*
X0071906Y0063486D03*
D53*
X0073844Y0062298D03*
X0072969Y0062298D03*
X0073844Y0063173D03*
X0072969Y0063173D03*
D18*
X0030786Y0084536D03*
X0030786Y0082336D03*
X0029186Y0084536D03*
X0029186Y0082336D03*
D44*
X0066986Y0088736D03*
X0069186Y0088736D03*
X0066986Y0087136D03*
X0069186Y0087136D03*
D50*
X0030886Y0070036D03*
X0030886Y0072036D03*
D61*
X0004986Y0066736D03*
X0006986Y0066736D03*
D50*
X0058486Y0062336D03*
X0058486Y0060336D03*
X0033386Y0069536D03*
X0033386Y0067536D03*
D61*
X0032786Y0087236D03*
X0034786Y0087236D03*
D50*
X0064386Y0074336D03*
X0064386Y0076336D03*
X0062386Y0076436D03*
X0062386Y0078436D03*
X0062386Y0082136D03*
X0062386Y0080136D03*
X0062386Y0085836D03*
X0062386Y0083836D03*
X0062586Y0091136D03*
X0062586Y0089136D03*
D61*
X0067786Y0093436D03*
X0069786Y0093436D03*
X0067886Y0071736D03*
X0065886Y0071736D03*
D50*
X0068886Y0075536D03*
X0068886Y0073536D03*
X0065386Y0090436D03*
X0065386Y0092436D03*
X0075986Y0076736D03*
X0075986Y0074736D03*
D31*
X0074636Y0079836D03*
X0073136Y0079836D03*
X0073136Y0081836D03*
X0074636Y0081836D03*
D37*
X0074886Y0083386D03*
X0074886Y0084886D03*
X0073986Y0074086D03*
X0073986Y0072586D03*
D31*
X0072536Y0065836D03*
X0071036Y0065836D03*
X0077936Y0064436D03*
X0076436Y0064436D03*
D61*
X0062086Y0059536D03*
X0064086Y0059536D03*
D31*
X0071736Y0059536D03*
X0070236Y0059536D03*
X0073136Y0059536D03*
X0074636Y0059536D03*
D50*
X0085286Y0079236D03*
X0085286Y0081236D03*
D31*
X0076036Y0059536D03*
X0077536Y0059536D03*
X0081836Y0077436D03*
X0080336Y0077436D03*
X0078936Y0059536D03*
X0080436Y0059536D03*
D37*
X0080386Y0071486D03*
X0080386Y0069986D03*
D31*
X0086186Y0065586D03*
X0087686Y0065586D03*
D37*
X0089086Y0065586D03*
X0089086Y0067086D03*
D16*
X0084686Y0061936D03*
X0018686Y0087936D03*
X0084686Y0087936D03*
X0018686Y0061936D03*
D55*
X0004826Y0055116D03*
X0096266Y0055116D03*
X0096266Y0095756D03*
X0004826Y0095756D03*
D35*
X0090871Y0060896D03*
X0090871Y0066896D03*
X0090871Y0072896D03*
X0090871Y0078896D03*
X0090871Y0084896D03*
X0090871Y0090896D03*
X0060571Y0060896D03*
X0060571Y0066896D03*
X0060571Y0072896D03*
X0060571Y0078896D03*
X0060571Y0084896D03*
X0060571Y0090896D03*
D47*
X0090096Y0055146D03*
X0090096Y0096646D03*
X0061346Y0055146D03*
X0061346Y0096646D03*
D65*
X0066721Y0097796D03*
X0072721Y0097796D03*
X0078721Y0097796D03*
X0084721Y0097796D03*
X0066721Y0053996D03*
X0072721Y0053996D03*
X0078721Y0053996D03*
X0084721Y0053996D03*
D23*
X0003486Y0080037D03*
X0003486Y0085035D03*
D21*
X0011486Y0063036D03*
X0014436Y0063086D03*
X0020986Y0067986D03*
D46*
X0017536Y0066261D03*
X0016286Y0066261D03*
X0015011Y0066261D03*
X0013736Y0066261D03*
X0013736Y0070286D03*
D15*
X0002836Y0088086D03*
X0005186Y0089486D03*
D46*
X0087686Y0069486D03*
D25*
X0081736Y0060386D03*
D46*
X0063686Y0081036D03*
X0063686Y0077836D03*
X0063686Y0082336D03*
X0067886Y0062036D03*
X0037686Y0070036D03*
X0029786Y0060036D03*
X0029086Y0069836D03*
D25*
X0030186Y0068136D03*
X0049486Y0079836D03*
X0049486Y0082836D03*
X0030386Y0078336D03*
X0030386Y0080336D03*
X0029186Y0078036D03*
X0029086Y0087036D03*
X0033386Y0085336D03*
X0041686Y0089136D03*
X0037686Y0089136D03*
X0039186Y0089136D03*
X0044786Y0083736D03*
X0037186Y0074836D03*
X0036686Y0084336D03*
X0035186Y0081336D03*
D21*
X0054486Y0058136D03*
X0049486Y0058136D03*
X0033686Y0060136D03*
X0038886Y0060136D03*
D46*
X0042286Y0056536D03*
X0043586Y0056536D03*
X0044786Y0056536D03*
X0046086Y0056536D03*
X0090886Y0095436D03*
X0090886Y0097836D03*
X0089286Y0097836D03*
X0086186Y0097836D03*
X0083286Y0097836D03*
X0080186Y0097836D03*
X0077286Y0097836D03*
X0074186Y0097836D03*
X0071286Y0097836D03*
X0068186Y0097836D03*
X0065286Y0097836D03*
X0062186Y0097836D03*
X0060586Y0097836D03*
X0060586Y0095436D03*
X0060586Y0092336D03*
X0060586Y0089436D03*
X0060586Y0086336D03*
X0060586Y0083436D03*
X0060586Y0080336D03*
X0060586Y0077436D03*
X0060586Y0074336D03*
X0060586Y0071436D03*
X0060586Y0065436D03*
X0060586Y0068336D03*
X0060586Y0062336D03*
X0060586Y0059436D03*
X0060486Y0056336D03*
X0060486Y0053936D03*
X0062186Y0053936D03*
X0065286Y0054036D03*
X0068186Y0054036D03*
X0071286Y0054036D03*
X0074186Y0054036D03*
X0077286Y0054036D03*
X0080186Y0054036D03*
X0083286Y0054036D03*
X0086186Y0054036D03*
X0089286Y0053936D03*
X0090886Y0053936D03*
X0090886Y0056336D03*
X0090886Y0059436D03*
X0090886Y0062336D03*
X0090886Y0065436D03*
X0090886Y0068336D03*
X0090886Y0071436D03*
X0090886Y0074336D03*
X0090886Y0077436D03*
X0090886Y0080336D03*
X0090886Y0083436D03*
X0090886Y0086336D03*
X0090886Y0089436D03*
X0090886Y0092336D03*
X0063686Y0083936D03*
X0063686Y0079436D03*
X0066986Y0089936D03*
X0069186Y0089936D03*
X0062886Y0070636D03*
X0071886Y0086736D03*
X0069686Y0080536D03*
X0068886Y0081336D03*
X0070486Y0081336D03*
X0070486Y0079736D03*
X0068886Y0079736D03*
X0071786Y0069536D03*
X0071586Y0071136D03*
X0073386Y0085836D03*
X0078386Y0078336D03*
X0078386Y0079836D03*
X0067686Y0076436D03*
X0072886Y0072636D03*
X0072886Y0074136D03*
X0072886Y0075636D03*
X0072886Y0077136D03*
X0058286Y0055436D03*
X0067086Y0068836D03*
X0067086Y0067336D03*
X0067086Y0065836D03*
X0075486Y0066036D03*
X0075486Y0067536D03*
X0075486Y0069036D03*
X0074386Y0065136D03*
X0072969Y0062298D03*
X0072969Y0063173D03*
X0073844Y0062298D03*
X0073844Y0063173D03*
X0078886Y0062836D03*
X0078886Y0061336D03*
X0067886Y0063636D03*
X0065686Y0057236D03*
X0067186Y0057236D03*
X0068686Y0057236D03*
X0073186Y0055636D03*
X0075386Y0055636D03*
X0078386Y0055636D03*
X0080486Y0055636D03*
X0082586Y0069536D03*
X0086686Y0076536D03*
X0084386Y0072936D03*
X0084486Y0075736D03*
X0082086Y0072936D03*
X0082086Y0075736D03*
X0083286Y0072936D03*
X0083286Y0075736D03*
X0079186Y0074336D03*
X0077786Y0085936D03*
X0078886Y0087136D03*
X0081686Y0087136D03*
X0082786Y0085936D03*
X0077786Y0082936D03*
X0078886Y0081736D03*
X0082786Y0083236D03*
X0081886Y0081636D03*
X0083486Y0081536D03*
X0079286Y0064936D03*
X0089086Y0068036D03*
X0084786Y0068036D03*
D15*
X0013986Y0092486D03*
D46*
X0029786Y0063336D03*
D25*
X0029486Y0064436D03*
D46*
X0033386Y0066536D03*
X0064186Y0092436D03*
X0075986Y0073736D03*
X0064386Y0070636D03*
X0085686Y0072736D03*
X0007686Y0069936D03*
X0034786Y0091736D03*
D15*
X0020986Y0070036D03*
D21*
X0033586Y0058236D03*
X0008486Y0066736D03*
D30*
X0077986Y0070436D03*
X0062586Y0061436D03*
X0069686Y0070236D03*
D46*
X0036886Y0072336D03*
D25*
X0020686Y0092536D03*
X0025186Y0092536D03*
X0028186Y0092536D03*
X0033186Y0092536D03*
X0036086Y0092536D03*
X0044686Y0082836D03*
X0039186Y0084236D03*
X0036186Y0086236D03*
X0035186Y0080336D03*
D46*
X0033386Y0070736D03*
D25*
X0082086Y0059336D03*
X0070186Y0083986D03*
D46*
X0070986Y0083436D03*
X0087086Y0072736D03*
D25*
X0021386Y0063186D03*
X0044486Y0076736D03*
X0052236Y0092086D03*
X0038686Y0090036D03*
X0038336Y0084236D03*
X0058986Y0076336D03*
X0057386Y0077936D03*
X0052986Y0080936D03*
X0052986Y0082786D03*
X0044586Y0080536D03*
X0047286Y0084036D03*
X0055886Y0081736D03*
X0046686Y0078336D03*
X0044486Y0078736D03*
X0049286Y0084136D03*
X0036486Y0076036D03*
X0044436Y0075586D03*
X0035586Y0088736D03*
X0043686Y0077436D03*
X0035386Y0065636D03*
X0040686Y0075086D03*
X0029086Y0088286D03*
X0034386Y0064936D03*
X0038586Y0069536D03*
X0036486Y0069536D03*
X0029886Y0088486D03*
X0032286Y0075836D03*
X0031686Y0088286D03*
X0032586Y0076836D03*
X0031786Y0077236D03*
X0030886Y0088636D03*
D51*
X0024416Y0072126D02*
X0025656Y0070886D01*
X0027886Y0070886D02*
X0029086Y0072086D01*
X0025656Y0070886D02*
X0027886Y0070886D01*
D25*
X0029086Y0072086D02*
X0029136Y0072036D01*
X0029136Y0072036D02*
X0030886Y0072036D01*
D63*
X0011436Y0065587D02*
X0011486Y0065537D01*
X0011486Y0065537D02*
X0011486Y0063036D01*
X0014406Y0061036D02*
X0014436Y0061066D01*
X0014436Y0061066D02*
X0014436Y0063086D01*
X0020986Y0065866D02*
X0020986Y0067986D01*
D25*
X0017541Y0065111D02*
X0017536Y0065116D01*
X0017536Y0065116D02*
X0017536Y0066261D01*
X0016271Y0065111D02*
X0016286Y0065126D01*
X0016286Y0065126D02*
X0016286Y0066261D01*
X0015001Y0065111D02*
X0015011Y0065121D01*
X0015011Y0065121D02*
X0015011Y0066261D01*
X0013731Y0065111D02*
X0013736Y0065116D01*
X0013736Y0065116D02*
X0013736Y0066261D01*
X0013731Y0071461D02*
X0013731Y0070291D01*
X0013731Y0070291D02*
X0013736Y0070286D01*
D60*
X0007666Y0084486D02*
X0004035Y0084486D01*
X0004035Y0084486D02*
X0003486Y0085035D01*
X0003486Y0085035D02*
X0003486Y0087436D01*
X0003486Y0087436D02*
X0002836Y0088086D01*
X0007666Y0089486D02*
X0005236Y0089486D01*
X0005236Y0089486D02*
X0005186Y0089486D01*
D25*
X0087686Y0068536D02*
X0087686Y0069486D01*
X0081686Y0061086D02*
X0081736Y0061086D01*
X0081736Y0061086D02*
X0081736Y0060386D01*
X0004936Y0071936D02*
X0003246Y0071936D01*
X0003246Y0071936D02*
X0002286Y0072896D01*
D22*
X0063686Y0081036D02*
X0064436Y0081036D01*
X0064436Y0081036D02*
X0064536Y0080936D01*
X0063686Y0077836D02*
X0064436Y0077836D01*
X0064436Y0077836D02*
X0064536Y0077936D01*
X0063686Y0082336D02*
X0064436Y0082336D01*
X0064436Y0082336D02*
X0064536Y0082436D01*
D25*
X0067886Y0062036D02*
X0068736Y0062036D01*
X0068736Y0062036D02*
X0068836Y0062136D01*
X0081437Y0074336D02*
X0083286Y0074336D01*
X0083286Y0074336D02*
X0080334Y0074336D01*
X0037686Y0070886D02*
X0037686Y0070036D01*
X0029786Y0060986D02*
X0029786Y0060036D01*
X0029086Y0070586D02*
X0029086Y0069836D01*
X0045466Y0095756D02*
X0045466Y0097666D01*
X0045466Y0097666D02*
X0046036Y0098236D01*
D51*
X0030186Y0067252D02*
X0030186Y0068136D01*
D25*
X0048636Y0079836D02*
X0049486Y0079836D01*
X0048636Y0082836D02*
X0049486Y0082836D01*
X0031236Y0078336D02*
X0030386Y0078336D01*
X0031236Y0080336D02*
X0030386Y0080336D01*
X0029186Y0078886D02*
X0029186Y0078036D01*
X0029136Y0086136D02*
X0029086Y0086186D01*
X0029086Y0086186D02*
X0029086Y0087036D01*
X0032586Y0085286D02*
X0032636Y0085336D01*
X0032636Y0085336D02*
X0033386Y0085336D01*
X0041686Y0088286D02*
X0041686Y0089136D01*
D22*
X0037386Y0090186D02*
X0037686Y0089886D01*
D25*
X0037686Y0089136D02*
X0037686Y0088286D01*
D22*
X0037686Y0089886D02*
X0037686Y0089136D01*
D25*
X0039186Y0088286D02*
X0039186Y0089136D01*
D22*
X0044786Y0083736D02*
X0045186Y0083336D01*
X0045186Y0083336D02*
X0045636Y0083336D01*
X0037186Y0073886D02*
X0037186Y0074836D01*
X0036686Y0085286D02*
X0036686Y0084336D01*
X0034236Y0081336D02*
X0035186Y0081336D01*
D63*
X0054586Y0056116D02*
X0054486Y0056216D01*
X0054486Y0056216D02*
X0054486Y0058136D01*
X0049486Y0056116D02*
X0049486Y0058136D01*
X0033586Y0062356D02*
X0033686Y0062256D01*
X0033686Y0062256D02*
X0033686Y0060136D01*
X0039887Y0066036D02*
X0038886Y0065035D01*
X0038886Y0065035D02*
X0038886Y0062356D01*
X0038886Y0062356D02*
X0038886Y0060136D01*
D25*
X0042281Y0055361D02*
X0042286Y0055366D01*
X0042286Y0055366D02*
X0042286Y0056536D01*
X0043551Y0055361D02*
X0043586Y0055396D01*
X0043586Y0055396D02*
X0043586Y0056536D01*
X0044821Y0055361D02*
X0044786Y0055396D01*
X0044786Y0055396D02*
X0044786Y0056536D01*
X0046091Y0055361D02*
X0046086Y0055366D01*
X0046086Y0055366D02*
X0046086Y0056536D01*
D51*
X0064536Y0083936D02*
X0063686Y0083936D01*
X0064536Y0079436D02*
X0063686Y0079436D01*
D25*
X0086436Y0077636D02*
X0086686Y0077386D01*
X0086686Y0077386D02*
X0086686Y0076536D01*
X0066986Y0088736D02*
X0066936Y0088786D01*
X0066936Y0088786D02*
X0065286Y0088786D01*
X0066986Y0088736D02*
X0066986Y0089936D01*
X0069186Y0088736D02*
X0069186Y0089936D01*
X0062836Y0071736D02*
X0062886Y0071686D01*
X0062886Y0071686D02*
X0062886Y0070636D01*
X0071886Y0085786D02*
X0071886Y0086736D01*
D22*
X0069686Y0082501D02*
X0069686Y0081836D01*
X0069686Y0081836D02*
X0069686Y0081786D01*
X0069686Y0081786D02*
X0068886Y0081336D01*
D25*
X0072536Y0069536D02*
X0071786Y0069536D01*
X0072536Y0071136D02*
X0071586Y0071136D01*
X0073386Y0084886D02*
X0073386Y0085836D01*
X0077536Y0078336D02*
X0078386Y0078336D01*
X0077536Y0079836D02*
X0078386Y0079836D01*
X0067736Y0077136D02*
X0067686Y0077086D01*
X0067686Y0077086D02*
X0067686Y0076436D01*
X0072136Y0072636D02*
X0072886Y0072636D01*
X0072136Y0074136D02*
X0072886Y0074136D01*
X0072136Y0075636D02*
X0072886Y0075636D01*
X0072136Y0077136D02*
X0072886Y0077136D01*
X0058286Y0056286D02*
X0058286Y0055436D01*
D30*
X0049486Y0056116D02*
X0049586Y0056216D01*
D25*
X0068136Y0068836D02*
X0067086Y0068836D01*
X0068136Y0067336D02*
X0067086Y0067336D01*
X0068136Y0065836D02*
X0067086Y0065836D01*
X0076436Y0066036D02*
X0075486Y0066036D01*
X0076436Y0067536D02*
X0075486Y0067536D01*
X0076436Y0069036D02*
X0075486Y0069036D01*
D22*
X0074156Y0064236D02*
X0074156Y0064906D01*
X0074156Y0064906D02*
X0074386Y0065136D01*
X0073156Y0063361D02*
X0072969Y0063173D01*
X0074031Y0062486D02*
X0073844Y0062298D01*
X0074156Y0063486D02*
X0073844Y0063173D01*
X0073156Y0064236D02*
X0073156Y0063361D01*
X0074156Y0064236D02*
X0074156Y0063486D01*
X0074906Y0062486D02*
X0074031Y0062486D01*
D25*
X0077936Y0062836D02*
X0078886Y0062836D01*
X0077936Y0061336D02*
X0078886Y0061336D01*
X0068836Y0063636D02*
X0067886Y0063636D01*
X0065686Y0058086D02*
X0065686Y0057236D01*
X0067186Y0058086D02*
X0067186Y0057236D01*
X0068686Y0058086D02*
X0068686Y0057236D01*
X0073186Y0056486D02*
X0073186Y0055636D01*
X0075386Y0056486D02*
X0075386Y0055636D01*
X0078386Y0056486D02*
X0078386Y0055636D01*
X0080486Y0056486D02*
X0080486Y0055636D01*
X0082586Y0068686D02*
X0082586Y0069536D01*
D51*
X0086386Y0075552D02*
X0086386Y0076236D01*
X0086386Y0076236D02*
X0086686Y0076536D01*
D25*
X0083286Y0074336D02*
X0083286Y0074336D01*
X0083286Y0074336D02*
X0084386Y0073236D01*
X0084386Y0073236D02*
X0084386Y0072936D01*
X0083286Y0074336D02*
X0084486Y0075536D01*
X0084486Y0075536D02*
X0084486Y0075736D01*
X0083286Y0074336D02*
X0083186Y0074336D01*
X0083186Y0074336D02*
X0082086Y0073236D01*
X0082086Y0073236D02*
X0082086Y0072936D01*
X0083286Y0074336D02*
X0083286Y0074336D01*
X0083286Y0074336D02*
X0082086Y0075536D01*
X0082086Y0075536D02*
X0082086Y0075736D01*
X0083286Y0074336D02*
X0083286Y0072936D01*
X0083286Y0072936D02*
X0083286Y0072936D01*
X0083286Y0074336D02*
X0083286Y0075736D01*
X0083286Y0075736D02*
X0083286Y0075736D01*
X0080334Y0074336D02*
X0079186Y0074336D01*
X0078886Y0085936D02*
X0077786Y0085936D01*
X0078886Y0085936D02*
X0078886Y0087136D01*
X0081686Y0085936D02*
X0081686Y0087136D01*
X0081686Y0085936D02*
X0082786Y0085936D01*
X0078886Y0082936D02*
X0077786Y0082936D01*
X0078886Y0082936D02*
X0078886Y0081736D01*
X0081686Y0083236D02*
X0082786Y0083236D01*
X0081686Y0083236D02*
X0081686Y0081836D01*
X0081886Y0081636D02*
X0081886Y0080586D01*
X0081686Y0081836D02*
X0081886Y0081636D01*
X0083486Y0080586D02*
X0083486Y0081536D01*
X0080386Y0064936D02*
X0079286Y0064936D01*
X0089086Y0067086D02*
X0089086Y0068036D01*
X0084786Y0067086D02*
X0084786Y0068036D01*
X0083286Y0088436D02*
X0084986Y0086736D01*
D51*
X0017541Y0071461D02*
X0017541Y0074781D01*
X0012136Y0089486D02*
X0013906Y0089486D01*
X0011386Y0088736D02*
X0012136Y0089486D01*
X0011386Y0080936D02*
X0011386Y0088736D01*
X0017541Y0074781D02*
X0011386Y0080936D01*
D60*
X0013906Y0089486D02*
X0013906Y0092406D01*
X0013906Y0092406D02*
X0013986Y0092486D01*
X0020086Y0077736D02*
X0020086Y0078306D01*
X0020086Y0078306D02*
X0013906Y0084486D01*
X0013906Y0084486D02*
X0013906Y0089486D01*
D25*
X0029786Y0062486D02*
X0029786Y0063336D01*
D63*
X0020386Y0079316D02*
X0019886Y0079816D01*
D25*
X0048006Y0095756D02*
X0048006Y0097766D01*
X0048006Y0097766D02*
X0047536Y0098236D01*
D51*
X0029526Y0065220D02*
X0029486Y0065180D01*
X0029486Y0065180D02*
X0029486Y0064436D01*
D25*
X0033386Y0067536D02*
X0033386Y0066536D01*
X0065386Y0092436D02*
X0064186Y0092436D01*
X0075986Y0074736D02*
X0075986Y0073736D01*
X0065886Y0071736D02*
X0064336Y0071736D01*
X0064336Y0071736D02*
X0064336Y0070686D01*
X0064336Y0070686D02*
X0064386Y0070636D01*
D22*
X0085726Y0073520D02*
X0085686Y0073480D01*
X0085686Y0073480D02*
X0085686Y0072736D01*
D46*
X0006436Y0071936D02*
X0006436Y0072986D01*
X0004636Y0078887D02*
X0003486Y0080037D01*
X0004636Y0074986D02*
X0004636Y0078887D01*
X0006436Y0073186D02*
X0004636Y0074986D01*
X0006436Y0073136D02*
X0006436Y0073186D01*
X0006436Y0072986D02*
X0006436Y0073136D01*
D25*
X0006236Y0070336D02*
X0006236Y0071736D01*
X0006236Y0071736D02*
X0006436Y0071936D01*
D22*
X0035786Y0091686D02*
X0034736Y0091686D01*
X0007586Y0069836D02*
X0006336Y0069836D01*
X0007686Y0069936D02*
X0007586Y0069836D01*
X0034736Y0091686D02*
X0034786Y0091736D01*
D25*
X0006336Y0068536D02*
X0006336Y0068086D01*
X0006336Y0068086D02*
X0004986Y0066736D01*
X0006336Y0068536D02*
X0006336Y0069836D01*
X0006336Y0069836D02*
X0006336Y0070236D01*
X0006336Y0070236D02*
X0006236Y0070336D01*
X0015001Y0071461D02*
X0015001Y0070221D01*
D63*
X0018786Y0070036D02*
X0020986Y0070036D01*
X0018236Y0069486D02*
X0018786Y0070036D01*
X0015736Y0069486D02*
X0018236Y0069486D01*
D25*
X0015001Y0070221D02*
X0015736Y0069486D01*
D63*
X0020986Y0072106D02*
X0020986Y0070036D01*
X0021036Y0072036D02*
X0020986Y0072106D01*
X0008166Y0061036D02*
X0008486Y0061356D01*
X0008486Y0061356D02*
X0008486Y0066736D01*
D25*
X0020986Y0072106D02*
X0021261Y0072261D01*
X0015036Y0071426D02*
X0015001Y0071461D01*
D63*
X0033586Y0058236D02*
X0033586Y0056116D01*
X0006986Y0066736D02*
X0008486Y0066736D01*
D60*
X0038886Y0056116D02*
X0033586Y0056116D01*
D25*
X0043551Y0061711D02*
X0043586Y0061676D01*
X0043586Y0061676D02*
X0043586Y0060816D01*
X0043586Y0060816D02*
X0038886Y0056116D01*
D60*
X0051886Y0066036D02*
X0049486Y0063636D01*
X0049486Y0063636D02*
X0049486Y0062356D01*
D25*
X0046091Y0061711D02*
X0046086Y0061706D01*
X0046086Y0061706D02*
X0046086Y0060736D01*
X0046086Y0060736D02*
X0047086Y0059736D01*
X0047086Y0059736D02*
X0053486Y0059736D01*
X0053486Y0059736D02*
X0053686Y0059736D01*
X0053686Y0059736D02*
X0054586Y0060636D01*
X0054586Y0060636D02*
X0054586Y0062356D01*
D30*
X0054586Y0062356D02*
X0049486Y0062356D01*
X0058486Y0062336D02*
X0058466Y0062356D01*
X0058466Y0062356D02*
X0054586Y0062356D01*
X0077936Y0069036D02*
X0077986Y0069086D01*
X0077986Y0069086D02*
X0077986Y0070436D01*
X0058486Y0060336D02*
X0058286Y0060136D01*
X0058286Y0060136D02*
X0058286Y0057786D01*
X0062086Y0061036D02*
X0062086Y0059536D01*
X0062486Y0061436D02*
X0062086Y0061036D01*
X0062586Y0061436D02*
X0062486Y0061436D01*
X0069686Y0070236D02*
X0069686Y0068886D01*
X0069686Y0068886D02*
X0069636Y0068836D01*
D46*
X0062086Y0059536D02*
X0062086Y0057936D01*
X0062086Y0057936D02*
X0058436Y0057936D01*
X0058436Y0057936D02*
X0058286Y0057786D01*
D25*
X0069636Y0067336D02*
X0069636Y0068836D01*
X0069636Y0065836D02*
X0069636Y0067336D01*
X0071036Y0065836D02*
X0069636Y0065836D01*
X0077936Y0067536D02*
X0077936Y0069036D01*
X0077936Y0064436D02*
X0077936Y0066036D01*
X0077936Y0066036D02*
X0077936Y0067536D01*
D22*
X0034236Y0078336D02*
X0035236Y0078336D01*
D25*
X0036236Y0079336D02*
X0036236Y0083386D01*
X0035236Y0078336D02*
X0036236Y0079336D01*
D22*
X0039686Y0085286D02*
X0039686Y0084686D01*
X0039686Y0084686D02*
X0039836Y0084536D01*
X0039836Y0084536D02*
X0039836Y0083336D01*
X0039836Y0083336D02*
X0037686Y0083336D01*
X0037686Y0083336D02*
X0037686Y0085286D01*
X0037686Y0085286D02*
X0037686Y0083336D01*
X0039836Y0084536D02*
X0039836Y0083336D01*
X0039686Y0084686D02*
X0039836Y0084536D01*
X0039836Y0083336D02*
X0039836Y0083386D01*
X0039836Y0083386D02*
X0039836Y0083336D01*
X0041686Y0085286D02*
X0041686Y0083336D01*
X0041686Y0083336D02*
X0041636Y0083286D01*
X0041586Y0083286D02*
X0041586Y0083436D01*
X0041636Y0083286D02*
X0041586Y0083286D01*
X0037686Y0083336D02*
X0037686Y0083436D01*
D25*
X0034786Y0087236D02*
X0034786Y0084836D01*
X0034786Y0084836D02*
X0036236Y0083386D01*
X0036236Y0083386D02*
X0036286Y0083336D01*
X0036286Y0083336D02*
X0039836Y0083336D01*
X0039836Y0083336D02*
X0041686Y0083336D01*
D22*
X0043786Y0079836D02*
X0045636Y0079836D01*
D25*
X0043686Y0079936D02*
X0043786Y0079836D01*
X0043686Y0081336D02*
X0043686Y0079936D01*
X0041686Y0083336D02*
X0041586Y0083436D01*
X0041586Y0083436D02*
X0043686Y0081336D01*
D22*
X0041686Y0085286D02*
X0041686Y0083436D01*
X0047136Y0079836D02*
X0045636Y0079836D01*
X0041686Y0086786D02*
X0041686Y0085286D01*
X0037686Y0083436D02*
X0037686Y0083336D01*
X0037686Y0083336D02*
X0037686Y0083436D01*
X0037686Y0086786D02*
X0037686Y0085286D01*
X0032736Y0078336D02*
X0034236Y0078336D01*
X0032786Y0087236D02*
X0034086Y0085936D01*
X0033136Y0084336D02*
X0032586Y0083786D01*
X0033586Y0084336D02*
X0033136Y0084336D01*
X0034086Y0084836D02*
X0033586Y0084336D01*
X0034086Y0085936D02*
X0034086Y0084836D01*
X0034236Y0083336D02*
X0033186Y0083336D01*
X0033036Y0083336D02*
X0032586Y0083786D01*
X0033186Y0083336D02*
X0033036Y0083336D01*
X0030786Y0084536D02*
X0030636Y0084686D01*
X0030636Y0084686D02*
X0030636Y0086136D01*
X0034236Y0082336D02*
X0032786Y0082336D01*
X0031386Y0083736D02*
X0031286Y0083836D01*
X0032786Y0082336D02*
X0031386Y0083736D01*
X0031286Y0083836D02*
X0031286Y0084036D01*
X0031286Y0084036D02*
X0030786Y0084536D01*
X0037686Y0073886D02*
X0037686Y0072386D01*
D25*
X0037686Y0072386D02*
X0036936Y0072386D01*
X0036936Y0072386D02*
X0036886Y0072336D01*
D22*
X0020636Y0093436D02*
X0020686Y0093386D01*
X0020686Y0093386D02*
X0020686Y0092536D01*
X0025236Y0093436D02*
X0025186Y0093386D01*
X0025186Y0093386D02*
X0025186Y0092536D01*
X0028236Y0093436D02*
X0028186Y0093386D01*
X0028186Y0093386D02*
X0028186Y0092536D01*
X0033136Y0093436D02*
X0033186Y0093386D01*
X0033186Y0093386D02*
X0033186Y0092536D01*
X0036036Y0093436D02*
X0036086Y0093386D01*
X0036086Y0093386D02*
X0036086Y0092536D01*
X0045636Y0082836D02*
X0044686Y0082836D01*
X0045636Y0082836D02*
X0047136Y0082836D01*
X0039186Y0086786D02*
X0039186Y0085286D01*
X0039186Y0085286D02*
X0039186Y0084236D01*
X0036186Y0085286D02*
X0036186Y0086236D01*
X0034236Y0080336D02*
X0035186Y0080336D01*
X0032736Y0080336D02*
X0034236Y0080336D01*
D25*
X0033386Y0069536D02*
X0033386Y0070736D01*
D22*
X0034236Y0081836D02*
X0032586Y0081836D01*
X0029486Y0081236D02*
X0029186Y0081236D01*
X0031986Y0081236D02*
X0029486Y0081236D01*
X0032586Y0081836D02*
X0031986Y0081236D01*
X0029186Y0082336D02*
X0029186Y0081236D01*
X0029186Y0081236D02*
X0029186Y0080386D01*
X0066036Y0077936D02*
X0064436Y0076336D01*
X0064436Y0076336D02*
X0064386Y0076336D01*
X0067721Y0079536D02*
X0067286Y0079536D01*
X0067286Y0079186D02*
X0066036Y0077936D01*
X0067286Y0079536D02*
X0067286Y0079186D01*
X0066036Y0079436D02*
X0065236Y0078636D01*
X0065236Y0078636D02*
X0062586Y0078636D01*
X0062586Y0078636D02*
X0062386Y0078436D01*
X0067721Y0080036D02*
X0066786Y0080036D01*
X0066636Y0080036D02*
X0066036Y0079436D01*
X0066786Y0080036D02*
X0066636Y0080036D01*
X0066036Y0080936D02*
X0065386Y0080286D01*
X0065336Y0080236D02*
X0062486Y0080236D01*
X0065386Y0080286D02*
X0065336Y0080236D01*
X0062486Y0080236D02*
X0062386Y0080136D01*
X0067721Y0080536D02*
X0066986Y0080536D01*
X0066436Y0080536D02*
X0066036Y0080936D01*
X0066986Y0080536D02*
X0066436Y0080536D01*
X0066036Y0082436D02*
X0065336Y0083136D01*
X0063086Y0083136D02*
X0062386Y0083836D01*
X0065336Y0083136D02*
X0063086Y0083136D01*
X0067721Y0081036D02*
X0067186Y0081036D01*
X0066186Y0082036D02*
X0066186Y0082286D01*
X0066386Y0081836D02*
X0066186Y0082036D01*
X0067186Y0081036D02*
X0066386Y0081836D01*
X0066186Y0082286D02*
X0066036Y0082436D01*
X0066036Y0083936D02*
X0065986Y0083986D01*
X0065986Y0083986D02*
X0065986Y0085036D01*
X0062686Y0088336D02*
X0062686Y0089036D01*
X0065986Y0085036D02*
X0062686Y0088336D01*
X0062686Y0089036D02*
X0062586Y0089136D01*
X0067721Y0081536D02*
X0066886Y0082371D01*
X0066886Y0083086D02*
X0066036Y0083936D01*
X0066886Y0082371D02*
X0066886Y0083086D01*
X0071886Y0084286D02*
X0070586Y0085586D01*
X0070586Y0092636D02*
X0069786Y0093436D01*
X0070586Y0085586D02*
X0070586Y0092636D01*
X0071651Y0081536D02*
X0071886Y0081771D01*
X0071886Y0081771D02*
X0071886Y0084286D01*
D25*
X0069236Y0077136D02*
X0069186Y0077086D01*
X0069186Y0077086D02*
X0069186Y0075836D01*
X0069186Y0075836D02*
X0068886Y0075536D01*
D22*
X0069686Y0078571D02*
X0069686Y0077836D01*
X0069686Y0077586D02*
X0069236Y0077136D01*
X0069686Y0077836D02*
X0069686Y0077586D01*
X0069186Y0082501D02*
X0069186Y0083986D01*
X0069186Y0085486D02*
X0069186Y0087136D01*
D25*
X0065286Y0087286D02*
X0064186Y0088386D01*
X0064186Y0089236D02*
X0065386Y0090436D01*
X0064186Y0088386D02*
X0064186Y0089236D01*
X0066986Y0087136D02*
X0066836Y0087286D01*
X0066836Y0087286D02*
X0065286Y0087286D01*
X0068886Y0073536D02*
X0068786Y0073436D01*
X0068786Y0073436D02*
X0068786Y0072636D01*
X0067886Y0071736D02*
X0068786Y0072636D01*
X0068786Y0072636D02*
X0070636Y0072636D01*
X0070636Y0072636D02*
X0070636Y0074136D01*
X0070636Y0075636D02*
X0070636Y0074136D01*
X0070636Y0077136D02*
X0070636Y0075636D01*
D22*
X0070686Y0078571D02*
X0070686Y0077936D01*
X0070686Y0077936D02*
X0070686Y0077186D01*
X0070686Y0077186D02*
X0070636Y0077136D01*
D25*
X0076036Y0078336D02*
X0075986Y0078286D01*
X0075986Y0078286D02*
X0075986Y0076736D01*
X0076036Y0079836D02*
X0076036Y0078336D01*
X0074636Y0079836D02*
X0076036Y0079836D01*
X0073386Y0083386D02*
X0074886Y0083386D01*
X0073136Y0081836D02*
X0073386Y0082086D01*
X0073386Y0082086D02*
X0073386Y0083386D01*
D22*
X0071651Y0081036D02*
X0072186Y0081036D01*
X0072636Y0081336D02*
X0073136Y0081836D01*
X0072486Y0081336D02*
X0072636Y0081336D01*
X0072186Y0081036D02*
X0072486Y0081336D01*
D25*
X0073986Y0076986D02*
X0073986Y0078536D01*
X0073986Y0078986D02*
X0073136Y0079836D01*
X0073986Y0078536D02*
X0073986Y0078986D01*
D22*
X0071651Y0080036D02*
X0072286Y0080036D01*
X0072286Y0080036D02*
X0072936Y0080036D01*
X0072936Y0080036D02*
X0073136Y0079836D01*
D25*
X0073986Y0074086D02*
X0073986Y0075486D01*
X0076386Y0083386D02*
X0074836Y0081836D01*
X0074836Y0081836D02*
X0074636Y0081836D01*
D22*
X0071651Y0080536D02*
X0072286Y0080536D01*
X0073536Y0080736D02*
X0074636Y0081836D01*
X0072486Y0080736D02*
X0073536Y0080736D01*
X0072286Y0080536D02*
X0072486Y0080736D01*
D25*
X0076386Y0084886D02*
X0076386Y0087436D01*
X0076386Y0087486D02*
X0077336Y0088436D01*
X0076386Y0087436D02*
X0076386Y0087486D01*
X0074886Y0084886D02*
X0076386Y0084886D01*
D22*
X0073656Y0064236D02*
X0073656Y0066156D01*
X0073656Y0066156D02*
X0073986Y0066486D01*
D25*
X0074036Y0071136D02*
X0073986Y0071186D01*
X0073986Y0071186D02*
X0073986Y0072586D01*
X0074036Y0069536D02*
X0074036Y0071136D01*
X0073986Y0067986D02*
X0074036Y0068036D01*
X0074036Y0068036D02*
X0074036Y0069536D01*
X0080336Y0088436D02*
X0078836Y0088436D01*
X0080286Y0085936D02*
X0080286Y0088386D01*
X0080286Y0088386D02*
X0080336Y0088436D01*
X0096266Y0087501D02*
X0092871Y0087501D01*
X0081586Y0091286D02*
X0080236Y0089936D01*
X0086336Y0091286D02*
X0081586Y0091286D01*
X0089736Y0087886D02*
X0086336Y0091286D01*
X0092486Y0087886D02*
X0089736Y0087886D01*
X0092871Y0087501D02*
X0092486Y0087886D01*
X0096251Y0087486D02*
X0096266Y0087501D01*
D22*
X0070336Y0063636D02*
X0069536Y0062836D01*
X0069536Y0062836D02*
X0066936Y0062836D01*
X0066936Y0062836D02*
X0066836Y0062936D01*
X0071906Y0063486D02*
X0070486Y0063486D01*
X0070486Y0063486D02*
X0070336Y0063636D01*
X0071906Y0062986D02*
X0070986Y0062986D01*
X0070986Y0062986D02*
X0070336Y0063636D01*
X0074906Y0063486D02*
X0076436Y0063486D01*
X0076386Y0063436D02*
X0076436Y0063436D01*
X0076436Y0063486D02*
X0076386Y0063436D01*
X0074906Y0062986D02*
X0076286Y0062986D01*
X0076286Y0062986D02*
X0076436Y0062836D01*
D25*
X0076436Y0064436D02*
X0076436Y0063436D01*
X0076436Y0063436D02*
X0076436Y0062836D01*
X0070336Y0062136D02*
X0070336Y0061586D01*
X0065686Y0060136D02*
X0065686Y0059586D01*
X0066486Y0060936D02*
X0065686Y0060136D01*
X0069686Y0060936D02*
X0066486Y0060936D01*
X0070336Y0061586D02*
X0069686Y0060936D01*
X0065686Y0059586D02*
X0064136Y0059586D01*
X0064136Y0059586D02*
X0064086Y0059536D01*
X0067186Y0059586D02*
X0065686Y0059586D01*
X0068686Y0059586D02*
X0067186Y0059586D01*
X0070236Y0059536D02*
X0068736Y0059536D01*
X0068736Y0059536D02*
X0068686Y0059586D01*
D22*
X0071906Y0062486D02*
X0070686Y0062486D01*
X0070686Y0062486D02*
X0070336Y0062136D01*
X0074906Y0061986D02*
X0075786Y0061986D01*
X0075786Y0061986D02*
X0076436Y0061336D01*
X0074156Y0061236D02*
X0074156Y0060556D01*
X0074156Y0060556D02*
X0073136Y0059536D01*
X0073656Y0061236D02*
X0073656Y0060056D01*
X0073656Y0060056D02*
X0073136Y0059536D01*
X0073156Y0061236D02*
X0073156Y0059556D01*
X0073156Y0059556D02*
X0073136Y0059536D01*
X0072656Y0061236D02*
X0072656Y0060016D01*
X0072656Y0060016D02*
X0073136Y0059536D01*
D25*
X0073136Y0059536D02*
X0071736Y0059536D01*
X0073186Y0057986D02*
X0073186Y0059486D01*
X0073186Y0059486D02*
X0073136Y0059536D01*
X0084936Y0077636D02*
X0085286Y0077986D01*
X0085286Y0077986D02*
X0085286Y0079236D01*
D22*
X0085726Y0075552D02*
X0085686Y0075592D01*
X0085686Y0075592D02*
X0085686Y0076886D01*
X0085686Y0076886D02*
X0084936Y0077636D01*
D25*
X0075386Y0057986D02*
X0075386Y0059536D01*
X0075386Y0059536D02*
X0074636Y0059536D01*
X0076036Y0059536D02*
X0074636Y0059536D01*
X0080386Y0063986D02*
X0080386Y0062586D01*
X0080436Y0059536D02*
X0080436Y0058036D01*
X0080436Y0058036D02*
X0080486Y0057986D01*
X0080386Y0061086D02*
X0080386Y0059586D01*
X0080386Y0059586D02*
X0080436Y0059536D01*
X0080386Y0068686D02*
X0080386Y0069986D01*
X0080386Y0065886D02*
X0080386Y0067186D01*
X0080286Y0080586D02*
X0080286Y0082936D01*
X0080336Y0077436D02*
X0080336Y0079036D01*
X0080336Y0079036D02*
X0080286Y0079086D01*
X0080334Y0075837D02*
X0080334Y0077434D01*
X0080334Y0077434D02*
X0080336Y0077436D01*
X0078386Y0057986D02*
X0078386Y0059536D01*
X0078386Y0059536D02*
X0078936Y0059536D01*
X0078936Y0059536D02*
X0077536Y0059536D01*
X0078936Y0059536D02*
X0077536Y0059536D01*
D51*
X0083486Y0079086D02*
X0085286Y0080886D01*
X0085286Y0080886D02*
X0085286Y0081236D01*
D25*
X0081886Y0079086D02*
X0083486Y0079086D01*
X0081836Y0077436D02*
X0081836Y0079036D01*
X0081836Y0079036D02*
X0081886Y0079086D01*
X0081936Y0077336D02*
X0081836Y0077436D01*
X0084786Y0065586D02*
X0086186Y0065586D01*
X0082586Y0064936D02*
X0084136Y0064936D01*
X0084136Y0064936D02*
X0084786Y0065586D01*
X0084736Y0065536D02*
X0084786Y0065586D01*
D22*
X0070186Y0082501D02*
X0070186Y0083986D01*
X0082386Y0061636D02*
X0081686Y0062336D01*
X0082386Y0059636D02*
X0082386Y0061636D01*
X0082086Y0059336D02*
X0082386Y0059636D01*
X0081686Y0062336D02*
X0081686Y0062586D01*
D25*
X0081686Y0062586D02*
X0081686Y0063086D01*
X0081686Y0063086D02*
X0082586Y0063986D01*
X0087686Y0065586D02*
X0087686Y0067036D01*
X0087636Y0064136D02*
X0087636Y0065536D01*
X0087636Y0065536D02*
X0087686Y0065586D01*
D22*
X0082586Y0067186D02*
X0087086Y0071686D01*
X0087086Y0071686D02*
X0087086Y0072736D01*
X0070686Y0082501D02*
X0070686Y0083136D01*
X0070686Y0083136D02*
X0070986Y0083436D01*
X0087086Y0072736D02*
X0087086Y0073480D01*
X0087086Y0073480D02*
X0087046Y0073520D01*
D25*
X0082586Y0065886D02*
X0082586Y0067186D01*
X0089136Y0064136D02*
X0089136Y0065536D01*
X0089136Y0065536D02*
X0089086Y0065586D01*
X0096266Y0065276D02*
X0092926Y0065276D01*
X0091786Y0064136D02*
X0089136Y0064136D01*
X0092926Y0065276D02*
X0091786Y0064136D01*
D60*
X0008486Y0077736D02*
X0008486Y0073535D01*
X0008486Y0073535D02*
X0011436Y0070585D01*
D25*
X0016271Y0071461D02*
X0016271Y0073501D01*
X0011436Y0072736D02*
X0011436Y0070585D01*
X0012386Y0073686D02*
X0011436Y0072736D01*
X0016086Y0073686D02*
X0012386Y0073686D01*
X0016271Y0073501D02*
X0016086Y0073686D01*
D60*
X0044885Y0066036D02*
X0044786Y0066135D01*
X0044786Y0066135D02*
X0044786Y0070536D01*
X0044786Y0070536D02*
X0051886Y0077636D01*
D25*
X0044821Y0061711D02*
X0044885Y0061775D01*
X0044885Y0061775D02*
X0044885Y0066036D01*
D51*
X0030886Y0070036D02*
X0029526Y0068676D01*
X0029526Y0068676D02*
X0029526Y0067252D01*
D22*
X0021386Y0063186D02*
X0021386Y0063186D01*
X0044636Y0076836D02*
X0044586Y0076836D01*
X0044586Y0076836D02*
X0044486Y0076736D01*
X0045636Y0076836D02*
X0044636Y0076836D01*
X0028186Y0056586D02*
X0027986Y0056586D01*
X0027986Y0056586D02*
X0021386Y0063186D01*
X0053086Y0092086D02*
X0052236Y0092086D01*
X0042686Y0073886D02*
X0042686Y0069836D01*
X0042386Y0067936D02*
X0042386Y0061816D01*
X0042686Y0068236D02*
X0042386Y0067936D01*
X0042686Y0069836D02*
X0042686Y0068236D01*
X0042386Y0061816D02*
X0042281Y0061711D01*
X0037186Y0085286D02*
X0037186Y0085936D01*
X0036786Y0089186D02*
X0035786Y0090186D01*
X0036786Y0086336D02*
X0036786Y0089186D01*
X0037186Y0085936D02*
X0036786Y0086336D01*
X0035786Y0090186D02*
X0035886Y0090186D01*
X0035886Y0090186D02*
X0037386Y0091686D01*
X0038186Y0085936D02*
X0038186Y0085286D01*
X0038386Y0086136D02*
X0038186Y0085936D01*
X0038386Y0089736D02*
X0038386Y0086136D01*
X0038686Y0090036D02*
X0038386Y0089736D01*
X0038686Y0085286D02*
X0038686Y0084636D01*
X0038686Y0084636D02*
X0038336Y0084236D01*
X0045636Y0082336D02*
X0046286Y0082336D01*
X0063186Y0075536D02*
X0064386Y0074336D01*
X0058886Y0075536D02*
X0063186Y0075536D01*
X0058686Y0075736D02*
X0058886Y0075536D01*
X0058086Y0076336D02*
X0058686Y0075736D01*
X0058086Y0078336D02*
X0058086Y0076336D01*
X0054386Y0082036D02*
X0058086Y0078336D01*
X0046586Y0082036D02*
X0054386Y0082036D01*
X0046286Y0082336D02*
X0046586Y0082036D01*
X0062286Y0076336D02*
X0058986Y0076336D01*
X0057386Y0077936D02*
X0054086Y0081236D01*
X0053736Y0081586D02*
X0054086Y0081236D01*
X0046536Y0081586D02*
X0053736Y0081586D01*
X0046286Y0081336D02*
X0046536Y0081586D01*
X0046286Y0081336D02*
X0045636Y0081336D01*
X0062286Y0076336D02*
X0062386Y0076436D01*
X0062386Y0076436D02*
X0062086Y0076136D01*
X0058186Y0087936D02*
X0058136Y0087936D01*
X0046186Y0080836D02*
X0046386Y0080836D01*
X0046386Y0080836D02*
X0046586Y0081036D01*
X0046586Y0081036D02*
X0052886Y0081036D01*
X0052886Y0081036D02*
X0052986Y0080936D01*
X0058186Y0087936D02*
X0061686Y0087936D01*
X0061686Y0087936D02*
X0062386Y0087236D01*
X0062386Y0085836D02*
X0062386Y0087236D01*
X0046186Y0080836D02*
X0045636Y0080836D01*
X0058136Y0087936D02*
X0052986Y0082786D01*
X0045636Y0080336D02*
X0044786Y0080336D01*
X0044786Y0080336D02*
X0044586Y0080536D01*
X0047286Y0084036D02*
X0057486Y0094236D01*
X0044686Y0080436D02*
X0044586Y0080536D01*
X0067786Y0093436D02*
X0066986Y0094236D01*
X0066986Y0094236D02*
X0058986Y0094236D01*
X0057486Y0094236D02*
X0058986Y0094236D01*
X0045636Y0078336D02*
X0046686Y0078336D01*
X0055886Y0081836D02*
X0062086Y0081836D01*
X0055886Y0081736D02*
X0055886Y0081836D01*
X0062086Y0081836D02*
X0062386Y0082136D01*
X0044786Y0078038D02*
X0044988Y0077836D01*
X0044786Y0078436D02*
X0044786Y0078038D01*
X0044988Y0077836D02*
X0045636Y0077836D01*
X0044486Y0078736D02*
X0044786Y0078436D01*
X0058686Y0093536D02*
X0049286Y0084136D01*
X0062586Y0093136D02*
X0062186Y0093536D01*
X0062186Y0093536D02*
X0058686Y0093536D01*
X0062586Y0091136D02*
X0062586Y0093136D01*
X0045636Y0075836D02*
X0044686Y0075836D01*
X0035886Y0075386D02*
X0035886Y0075436D01*
X0035861Y0075411D02*
X0035886Y0075386D01*
X0036486Y0076036D02*
X0035861Y0075411D01*
X0044686Y0075836D02*
X0044436Y0075586D01*
X0032186Y0071736D02*
X0032186Y0066560D01*
X0030846Y0065220D02*
X0032186Y0066560D01*
X0035886Y0075436D02*
X0032186Y0071736D01*
X0031636Y0092686D02*
X0035586Y0088736D01*
X0031636Y0092686D02*
X0031636Y0093436D01*
X0043686Y0073886D02*
X0043686Y0077436D01*
X0043686Y0077436D02*
X0043586Y0077336D01*
X0030226Y0098296D02*
X0031486Y0097036D01*
X0031486Y0097036D02*
X0031486Y0093586D01*
X0031486Y0093586D02*
X0031636Y0093436D01*
X0035386Y0065636D02*
X0037886Y0068136D01*
X0042186Y0073886D02*
X0042186Y0071036D01*
X0039286Y0068136D02*
X0037886Y0068136D01*
X0042186Y0071036D02*
X0039286Y0068136D01*
X0040686Y0073886D02*
X0040686Y0075086D01*
X0019136Y0093436D02*
X0019136Y0092236D01*
X0029036Y0088286D02*
X0029086Y0088286D01*
X0028186Y0089136D02*
X0029036Y0088286D01*
X0022236Y0089136D02*
X0028186Y0089136D01*
X0019136Y0092236D02*
X0022236Y0089136D01*
X0017526Y0098296D02*
X0018786Y0097036D01*
X0018786Y0093786D02*
X0019136Y0093436D01*
X0018786Y0097036D02*
X0018786Y0093786D01*
X0035986Y0067136D02*
X0034386Y0065536D01*
X0038686Y0073336D02*
X0039386Y0072636D01*
X0039386Y0072636D02*
X0039386Y0069336D01*
X0039386Y0069336D02*
X0038686Y0068636D01*
X0038686Y0068636D02*
X0037486Y0068636D01*
X0037486Y0068636D02*
X0035986Y0067136D01*
X0038686Y0073886D02*
X0038686Y0073336D01*
X0034386Y0065536D02*
X0034386Y0064936D01*
X0038186Y0073886D02*
X0038186Y0073136D01*
X0038586Y0072736D02*
X0038586Y0069536D01*
X0038186Y0073136D02*
X0038586Y0072736D01*
X0036486Y0069536D02*
X0036086Y0069936D01*
X0036086Y0069936D02*
X0036086Y0072636D01*
X0036086Y0072636D02*
X0036686Y0073236D01*
X0036686Y0073236D02*
X0036686Y0073886D01*
X0036186Y0073886D02*
X0036186Y0073536D01*
X0036186Y0073536D02*
X0035386Y0072736D01*
X0035386Y0072736D02*
X0035386Y0067336D01*
X0035386Y0067336D02*
X0032786Y0064736D01*
X0032786Y0064736D02*
X0032086Y0064736D01*
X0032086Y0064736D02*
X0031086Y0063736D01*
X0031086Y0063736D02*
X0031086Y0055136D01*
X0031086Y0055136D02*
X0032086Y0054136D01*
X0032086Y0054136D02*
X0036186Y0054136D01*
X0036186Y0054136D02*
X0036986Y0053336D01*
X0036986Y0053336D02*
X0036986Y0052036D01*
X0036986Y0052036D02*
X0035986Y0051036D01*
X0035986Y0051036D02*
X0024146Y0051036D01*
X0024146Y0051036D02*
X0022606Y0052576D01*
X0034236Y0075836D02*
X0032236Y0075836D01*
X0021336Y0097026D02*
X0020066Y0098296D01*
X0021336Y0094886D02*
X0021336Y0097026D01*
X0026336Y0089886D02*
X0021336Y0094886D01*
X0028486Y0089886D02*
X0026336Y0089886D01*
X0029886Y0088486D02*
X0028486Y0089886D01*
X0032236Y0075836D02*
X0032286Y0075836D01*
X0031686Y0088286D02*
X0031686Y0091486D01*
X0031686Y0091486D02*
X0031186Y0091986D01*
X0029736Y0093436D02*
X0031186Y0091986D01*
X0034236Y0076836D02*
X0032586Y0076836D01*
X0027686Y0098296D02*
X0028986Y0096996D01*
X0028986Y0094186D02*
X0029736Y0093436D01*
X0028986Y0096996D02*
X0028986Y0094186D01*
X0026736Y0093436D02*
X0026736Y0092386D01*
X0033586Y0077836D02*
X0034236Y0077836D01*
X0033336Y0077586D02*
X0033586Y0077836D01*
X0032136Y0077586D02*
X0033336Y0077586D01*
X0031786Y0077236D02*
X0032136Y0077586D01*
X0028736Y0090786D02*
X0030886Y0088636D01*
X0028336Y0090786D02*
X0028736Y0090786D01*
X0026736Y0092386D02*
X0028336Y0090786D01*
X0022606Y0098296D02*
X0025146Y0098296D01*
X0025146Y0098296D02*
X0025146Y0098276D01*
X0025146Y0098276D02*
X0026386Y0097036D01*
X0026386Y0097036D02*
X0026386Y0093786D01*
X0026386Y0093786D02*
X0026736Y0093436D01*
X0066886Y0072836D02*
X0066886Y0070336D01*
X0067486Y0078536D02*
X0066886Y0077936D01*
X0066886Y0077936D02*
X0066886Y0073436D01*
X0066886Y0073436D02*
X0066886Y0072836D01*
X0068651Y0078536D02*
X0067486Y0078536D01*
X0065286Y0068736D02*
X0065286Y0062986D01*
X0065686Y0069136D02*
X0065286Y0068736D01*
X0066886Y0070336D02*
X0065686Y0069136D01*
X0065286Y0062986D02*
X0065336Y0062936D01*
X0068686Y0078571D02*
X0068651Y0078536D01*
X0069186Y0078571D02*
X0068686Y0078571D01*
X0072656Y0064236D02*
X0072656Y0065816D01*
X0072656Y0065816D02*
X0072636Y0065836D01*
D25*
X0080386Y0071486D02*
X0080386Y0072783D01*
X0080386Y0072783D02*
X0080334Y0072835D01*
D46*
X0002286Y0067816D02*
X0002286Y0070356D01*
D25*
X0002286Y0070356D02*
X0002306Y0070336D01*
X0002306Y0070336D02*
X0004736Y0070336D01*
D22*
X0030226Y0052576D02*
X0030226Y0053046D01*
X0030226Y0053046D02*
X0028186Y0055086D01*
X0032766Y0052576D02*
X0032596Y0052576D01*
X0032596Y0052576D02*
X0030086Y0055086D01*
X0053086Y0095756D02*
X0053086Y0093586D01*
X0024416Y0082286D02*
X0024416Y0082266D01*
X0024416Y0082266D02*
X0022786Y0080636D01*
X0022786Y0080636D02*
X0022786Y0063936D01*
X0022786Y0063936D02*
X0030086Y0056636D01*
X0030086Y0056636D02*
X0030086Y0056586D01*
X0032766Y0098296D02*
X0034086Y0096976D01*
X0034086Y0093886D02*
X0034536Y0093436D01*
X0034086Y0096976D02*
X0034086Y0093886D01*
X0025686Y0076536D02*
X0025686Y0086096D01*
X0025686Y0086096D02*
X0024416Y0087366D01*
X0026286Y0075936D02*
X0025686Y0076536D01*
X0028536Y0075936D02*
X0026286Y0075936D01*
X0029686Y0074786D02*
X0028536Y0075936D01*
X0034333Y0074786D02*
X0029686Y0074786D01*
X0044136Y0078136D02*
X0037683Y0078136D01*
X0037683Y0078136D02*
X0034333Y0074786D01*
X0045636Y0077336D02*
X0044936Y0077336D01*
X0044936Y0077336D02*
X0044136Y0078136D01*
D25*
X0026956Y0072126D02*
X0026996Y0072086D01*
D22*
G36*
X0083086Y0081536D02*
X0081286Y0081536D01*
X0081286Y0087436D01*
X0083086Y0087436D01*
X0083086Y0081536D01*
X0083086Y0081536D01*
G37*
X0083086Y0081536D02*
X0081286Y0081536D01*
X0081286Y0087436D01*
X0083086Y0087436D01*
X0083086Y0081536D01*
G36*
X0079286Y0081536D02*
X0077486Y0081536D01*
X0077486Y0087436D01*
X0079286Y0087436D01*
X0079286Y0081536D01*
X0079286Y0081536D01*
G37*
X0079286Y0081536D02*
X0077486Y0081536D01*
X0077486Y0087436D01*
X0079286Y0087436D01*
X0079286Y0081536D01*
M02*
