M48
METRIC,000.000             
%
T07C1.300000
X24890Y18034
X24890Y13034
X29890Y18034
X29890Y13034
X33272Y34972
X33272Y29972
X38352Y34972
X38352Y29972
X60022Y19812
X60022Y14812
X65022Y19812
X65022Y14812
X24890Y58164
X24890Y53164
X29890Y58164
X29890Y53164
X33272Y75102
X33272Y70102
X38352Y75102
X38352Y70102
X60022Y59942
X60022Y54942
X65022Y59942
X65022Y54942
X24890Y98294
X24890Y93294
X29890Y98294
X29890Y93294
X33272Y115232
X33272Y110232
X38352Y115232
X38352Y110232
X60022Y100072
X60022Y95072
X65022Y100072
X65022Y95072
T06C0.900000
X73654Y38098
X73654Y35558
X76194Y38098
X76194Y35558
X78734Y38098
X78734Y35558
X81274Y38098
X81274Y35558
X83814Y38098
X83814Y35558
X86354Y38098
X86354Y35558
X73654Y78228
X73654Y75688
X76194Y78228
X76194Y75688
X78734Y78228
X78734Y75688
X81274Y78228
X81274Y75688
X83814Y78228
X83814Y75688
X86354Y78228
X86354Y75688
X73654Y118358
X73654Y115818
X76194Y118358
X76194Y115818
X78734Y118358
X78734Y115818
X81274Y118358
X81274Y115818
X83814Y118358
X83814Y115818
X86354Y118358
X86354Y115818
T05C0.889000
X3429Y29083
X3429Y26543
X3429Y24003
X3429Y21463
X3429Y18923
X3429Y15494
X3429Y12954
X3429Y10414
X5969Y29083
X5969Y26543
X5969Y24003
X5969Y21463
X5969Y18923
X5969Y15494
X5969Y12954
X5969Y10414
X12954Y10922
X15494Y10922
X18034Y10922
X3429Y69213
X3429Y66673
X3429Y64133
X3429Y61593
X3429Y59053
X3429Y55624
X3429Y53084
X3429Y50544
X5969Y69213
X5969Y66673
X5969Y64133
X5969Y61593
X5969Y59053
X5969Y55624
X5969Y53084
X5969Y50544
X12954Y51052
X15494Y51052
X18034Y51052
X3429Y109343
X3429Y106803
X3429Y104263
X3429Y101723
X3429Y99183
X3429Y95754
X3429Y93214
X3429Y90674
X5969Y109343
X5969Y106803
X5969Y104263
X5969Y101723
X5969Y99183
X5969Y95754
X5969Y93214
X5969Y90674
X12954Y91182
X15494Y91182
X18034Y91182
X22096Y29718
X22096Y27178
X22096Y24638
X24636Y29718
X24636Y27178
X24636Y24638
X31494Y6096
X31494Y3556
X34034Y6096
X34034Y3556
X44702Y7620
X44702Y5080
X47242Y7620
X47242Y5080
X49782Y7620
X49782Y5080
X52322Y7620
X52322Y5080
X53846Y36068
X53846Y33528
X53846Y30988
X53846Y28448
X53846Y25908
X56386Y36068
X56386Y33528
X56386Y30988
X56386Y28448
X56386Y25908
X64006Y29464
X64006Y26924
X66546Y29464
X66546Y26924
X22096Y69848
X22096Y67308
X22096Y64768
X24636Y69848
X24636Y67308
X24636Y64768
X31494Y46226
X31494Y43686
X34034Y46226
X34034Y43686
X44702Y47750
X44702Y45210
X47242Y47750
X47242Y45210
X49782Y47750
X49782Y45210
X52322Y47750
X52322Y45210
X53846Y76198
X53846Y73658
X53846Y71118
X53846Y68578
X53846Y66038
X56386Y76198
X56386Y73658
X56386Y71118
X56386Y68578
X56386Y66038
X64006Y69594
X64006Y67054
X66546Y69594
X66546Y67054
X22096Y109978
X22096Y107438
X22096Y104898
X24636Y109978
X24636Y107438
X24636Y104898
X31494Y86356
X31494Y83816
X34034Y86356
X34034Y83816
X44702Y87880
X44702Y85340
X47242Y87880
X47242Y85340
X49782Y87880
X49782Y85340
X52322Y87880
X52322Y85340
X53846Y116328
X53846Y113788
X53846Y111248
X53846Y108708
X53846Y106168
X56386Y116328
X56386Y113788
X56386Y111248
X56386Y108708
X56386Y106168
X64006Y109724
X64006Y107184
X66546Y109724
X66546Y107184
X91307Y9525
X93847Y9525
X91307Y12065
X93847Y12065
X91307Y14605
X93847Y14605
X91307Y17145
X93847Y17145
X91307Y19685
X93847Y19685
X92577Y29845
X91307Y38227
X91307Y49655
X93847Y49655
X91307Y52195
X93847Y52195
X91307Y54735
X93847Y54735
X91307Y57275
X93847Y57275
X91307Y59815
X93847Y59815
X92577Y69975
X91307Y78357
X91307Y89785
X93847Y89785
X91307Y92325
X93847Y92325
X91307Y94865
X93847Y94865
X91307Y97405
X93847Y97405
X91307Y99945
X93847Y99945
X92577Y110105
X91307Y118487
X102862Y18796
X102862Y16256
X102862Y13716
X102862Y11176
X105402Y18796
X105402Y16256
X105402Y13716
X105402Y11176
X123944Y18542
X123944Y16002
X123944Y13462
X123944Y10922
X126484Y18542
X126484Y16002
X126484Y13462
X126484Y10922
X102862Y58926
X102862Y56386
X102862Y53846
X102862Y51306
X105402Y58926
X105402Y56386
X105402Y53846
X105402Y51306
X123944Y58672
X123944Y56132
X123944Y53592
X123944Y51052
X126484Y58672
X126484Y56132
X126484Y53592
X126484Y51052
X102862Y99056
X102862Y96516
X102862Y93976
X102862Y91436
X105402Y99056
X105402Y96516
X105402Y93976
X105402Y91436
X123944Y98802
X123944Y96262
X123944Y93722
X123944Y91182
X126484Y98802
X126484Y96262
X126484Y93722
X126484Y91182
X133086Y28448
X133086Y25908
X133086Y23368
X135626Y28448
X135626Y25908
X135626Y23368
X139436Y10922
X139436Y8382
X141976Y36576
X141976Y34036
X141976Y10922
X141976Y8382
X144516Y36576
X144516Y34036
X144516Y10922
X144516Y8382
X147056Y36576
X147056Y34036
X147056Y10922
X147056Y8382
X149596Y10922
X149596Y8382
X133086Y68578
X133086Y66038
X133086Y63498
X135626Y68578
X135626Y66038
X135626Y63498
X139436Y51052
X139436Y48512
X141976Y76706
X141976Y74166
X141976Y51052
X141976Y48512
X144516Y76706
X144516Y74166
X144516Y51052
X144516Y48512
X147056Y76706
X147056Y74166
X147056Y51052
X147056Y48512
X149596Y51052
X149596Y48512
X133086Y108708
X133086Y106168
X133086Y103628
X135626Y108708
X135626Y106168
X135626Y103628
X139436Y91182
X139436Y88642
X141976Y116836
X141976Y114296
X141976Y91182
X141976Y88642
X144516Y116836
X144516Y114296
X144516Y91182
X144516Y88642
X147056Y116836
X147056Y114296
X147056Y91182
X147056Y88642
X149596Y91182
X149596Y88642
T04C0.800000
X46226Y33132
X46226Y31130
X46226Y73262
X46226Y71260
X46226Y113392
X46226Y111390
T03C0.635000
X30478Y23368
X33272Y27178
X33272Y24257
X38987Y1778
X38990Y3814
X39622Y12954
X41654Y28448
X41781Y20447
X41781Y19177
X41781Y17526
X41781Y15875
X41908Y26416
X42162Y9652
X42416Y23114
X42924Y17526
X43051Y20447
X43051Y19050
X43079Y26388
X43242Y8636
X43432Y16002
X44321Y17526
X44448Y18796
X44575Y23114
X44575Y20193
X45083Y36068
X45083Y34671
X45450Y26303
X45718Y23114
X45718Y17780
X45845Y19685
X46353Y37211
X46480Y16002
X46480Y12954
X46740Y22603
X47623Y19431
X47623Y16891
X48498Y8876
X48639Y18034
X49881Y18034
X50671Y11811
X51438Y3561
X52449Y3683
X52830Y2286
X54100Y10922
X58418Y10922
X58672Y31115
X30478Y63498
X33272Y67308
X33272Y64387
X38987Y41908
X38990Y43944
X39622Y53084
X41654Y68578
X41781Y60577
X41781Y59307
X41781Y57656
X41781Y56005
X41908Y66546
X42162Y49782
X42416Y63244
X42924Y57656
X43051Y60577
X43051Y59180
X43079Y66518
X43242Y48766
X43432Y56132
X44321Y57656
X44448Y58926
X44575Y63244
X44575Y60323
X45083Y76198
X45083Y74801
X45450Y66433
X45718Y63244
X45718Y57910
X45845Y59815
X46353Y77341
X46480Y56132
X46480Y53084
X46740Y62733
X47623Y59561
X47623Y57021
X48498Y49006
X48639Y58164
X49881Y58164
X50671Y51941
X51438Y43691
X52449Y43813
X52830Y42416
X54100Y51052
X58418Y51052
X58672Y71245
X30478Y103628
X33272Y107438
X33272Y104517
X38987Y82038
X38990Y84074
X39622Y93214
X41654Y108708
X41781Y100707
X41781Y99437
X41781Y97786
X41781Y96135
X41908Y106676
X42162Y89912
X42416Y103374
X42924Y97786
X43051Y100707
X43051Y99310
X43079Y106648
X43242Y88896
X43432Y96262
X44321Y97786
X44448Y99056
X44575Y103374
X44575Y100453
X45083Y116328
X45083Y114931
X45450Y106563
X45718Y103374
X45718Y98040
X45845Y99945
X46353Y117471
X46480Y96262
X46480Y93214
X46740Y102863
X47623Y99691
X47623Y97151
X48498Y89136
X48639Y98294
X49881Y98294
X50671Y92071
X51438Y83821
X52449Y83943
X52830Y82546
X54100Y91182
X58418Y91182
X58672Y111375
X72638Y17778
X74638Y13144
X75519Y11197
X75686Y18286
X76924Y11366
X78816Y19220
X83189Y10279
X83941Y19175
X84449Y9523
X84571Y16706
X84601Y15564
X72638Y57908
X74638Y53274
X75519Y51327
X75686Y58416
X76924Y51496
X78816Y59350
X83189Y50409
X83941Y59305
X84449Y49653
X84571Y56836
X84601Y55694
X72638Y98038
X74638Y93404
X75519Y91457
X75686Y98546
X76924Y91626
X78816Y99480
X83189Y90539
X83941Y99435
X84449Y89783
X84571Y96966
X84601Y95824
T02C0.500000
X96768Y16129
X97784Y16256
X91948Y32639
X94736Y33909
X96641Y33909
X97241Y36872
X93085Y38354
X96006Y39243
X97911Y39243
X96768Y56259
X97784Y56386
X91948Y72769
X94736Y74039
X96641Y74039
X97241Y77002
X93085Y78484
X96006Y79373
X97911Y79373
X96768Y96389
X97784Y96516
X91948Y112899
X94736Y114169
X96641Y114169
X97241Y117132
X93085Y118614
X96006Y119503
X97911Y119503
T01C0.400000
X1778Y18948
X8077Y31801
X8382Y27940
X9398Y13716
X9970Y26137
X10363Y19101
X10719Y15240
X10770Y27330
X11074Y31750
X11430Y21082
X11786Y17374
X11938Y8585
X12299Y21836
X12954Y19050
X13868Y28651
X14056Y18898
X14859Y15875
X14986Y9144
X15418Y19136
X16307Y25756
X16307Y12497
X16662Y14275
X16713Y15850
X16871Y20901
X17424Y24994
X17475Y23825
X17475Y12446
X17577Y18136
X18186Y24536
X18542Y23368
X18694Y18745
X18745Y12446
X18999Y17678
X18999Y16764
X1778Y59078
X8077Y71931
X8382Y68070
X9398Y53846
X9970Y66267
X10363Y59231
X10719Y55370
X10770Y67460
X11074Y71880
X11430Y61212
X11786Y57504
X11938Y48715
X12299Y61966
X12954Y59180
X13868Y68781
X14056Y59028
X14859Y56005
X14986Y49274
X15418Y59266
X16307Y65886
X16307Y52627
X16662Y54405
X16713Y55980
X16871Y61031
X17424Y65124
X17475Y63955
X17475Y52576
X17577Y58266
X18186Y64666
X18542Y63498
X18694Y58875
X18745Y52576
X18999Y57808
X18999Y56894
X1778Y99208
X8077Y112061
X8382Y108200
X9398Y93976
X9970Y106397
X10363Y99361
X10719Y95500
X10770Y107590
X11074Y112010
X11430Y101342
X11786Y97634
X11938Y88845
X12299Y102096
X12954Y99310
X13868Y108911
X14056Y99158
X14859Y96135
X14986Y89404
X15418Y99396
X16307Y106016
X16307Y92757
X16662Y94535
X16713Y96110
X16871Y101161
X17424Y105254
X17475Y104085
X17475Y92706
X17577Y98396
X18186Y104796
X18542Y103628
X18694Y99005
X18745Y92706
X18999Y97938
X18999Y97024
X101084Y31496
X102354Y26162
X102354Y24638
X102354Y20574
X102862Y9398
X104132Y9398
X105402Y9398
X106418Y9398
X107434Y10160
X109720Y37338
X109720Y36322
X109720Y35306
X109720Y34290
X109720Y33274
X109720Y32258
X109720Y31242
X109720Y30226
X109720Y29210
X109720Y9398
X109720Y8382
X109720Y7366
X109720Y6350
X109720Y5334
X109720Y4318
X109720Y3302
X109720Y2286
X109720Y1270
X110228Y10668
X110736Y37338
X110736Y36322
X110736Y35306
X110736Y34290
X110736Y33274
X110736Y32258
X110736Y31242
X110736Y30226
X110736Y29210
X110736Y9398
X110736Y8382
X110736Y7366
X110736Y6350
X110736Y5334
X110736Y4318
X110736Y3302
X110736Y2286
X110736Y1270
X111752Y37338
X111752Y36322
X111752Y35306
X111752Y34290
X111752Y33274
X111752Y32258
X111752Y31242
X111752Y30226
X111752Y29210
X111752Y9398
X111752Y8382
X111752Y7366
X111752Y6350
X111752Y5334
X111752Y4318
X111752Y3302
X111752Y2286
X111752Y1270
X112768Y37338
X112768Y36322
X112768Y35306
X112768Y34290
X112768Y33274
X112768Y32258
X112768Y31242
X112768Y30226
X112768Y29210
X112768Y9398
X112768Y8382
X112768Y7366
X112768Y6350
X112768Y5334
X112768Y4318
X112768Y3302
X112768Y2286
X112768Y1270
X113784Y37338
X113784Y36322
X113784Y35306
X113784Y34290
X113784Y33274
X113784Y32258
X113784Y31242
X113784Y30226
X113784Y29210
X113784Y9398
X113784Y8382
X113784Y7366
X113784Y6350
X113784Y5334
X113784Y4318
X113784Y3302
X113784Y2286
X113784Y1270
X114800Y37338
X114800Y36322
X114800Y35306
X114800Y34290
X114800Y33274
X114800Y32258
X114800Y31242
X114800Y30226
X114800Y29210
X114800Y9398
X114800Y8382
X114800Y7366
X114800Y6350
X114800Y5334
X114800Y4318
X114800Y3302
X114800Y2286
X114800Y1270
X115816Y37338
X115816Y36322
X115816Y35306
X115816Y34290
X115816Y33274
X115816Y32258
X115816Y31242
X115816Y30226
X115816Y29210
X115816Y9398
X115816Y8382
X115816Y7366
X115816Y6350
X115816Y5334
X115816Y4318
X115816Y3302
X115816Y2286
X115816Y1270
X116832Y37338
X116832Y36322
X116832Y35306
X116832Y34290
X116832Y33274
X116832Y32258
X116832Y31242
X116832Y30226
X116832Y29210
X116832Y9398
X116832Y8382
X116832Y7366
X116832Y6350
X116832Y5334
X116832Y4318
X116832Y3302
X116832Y2286
X116832Y1270
X117848Y37338
X117848Y36322
X117848Y35306
X117848Y34290
X117848Y33274
X117848Y32258
X117848Y31242
X117848Y30226
X117848Y29210
X117848Y9398
X117848Y8382
X117848Y7366
X117848Y6350
X117848Y5334
X117848Y4318
X117848Y3302
X117848Y2286
X117848Y1270
X118864Y37338
X118864Y36322
X118864Y35306
X118864Y34290
X118864Y33274
X118864Y32258
X118864Y31242
X118864Y30226
X118864Y29210
X118864Y9398
X118864Y8382
X118864Y7366
X118864Y6350
X118864Y5334
X118864Y4318
X118864Y3302
X118864Y2286
X118864Y1270
X119118Y27178
X119118Y26162
X119118Y25400
X119118Y24384
X119880Y27178
X119880Y9398
X119880Y8382
X119880Y7366
X119880Y6350
X119880Y5334
X119880Y4318
X119880Y3302
X119880Y2286
X119880Y1270
X120134Y26162
X120134Y25400
X120134Y24638
X121150Y23876
X121150Y23114
X123944Y9398
X125214Y9398
X125722Y20574
X125976Y29972
X125976Y28956
X126484Y9398
X126992Y20574
X127246Y29972
X127246Y28956
X128262Y24130
X128262Y22352
X128262Y20574
X101084Y71626
X102354Y66292
X102354Y64768
X102354Y60704
X102862Y49528
X104132Y49528
X105402Y49528
X106418Y49528
X107434Y50290
X109720Y77468
X109720Y76452
X109720Y75436
X109720Y74420
X109720Y73404
X109720Y72388
X109720Y71372
X109720Y70356
X109720Y69340
X109720Y49528
X109720Y48512
X109720Y47496
X109720Y46480
X109720Y45464
X109720Y44448
X109720Y43432
X109720Y42416
X109720Y41400
X110228Y50798
X110736Y77468
X110736Y76452
X110736Y75436
X110736Y74420
X110736Y73404
X110736Y72388
X110736Y71372
X110736Y70356
X110736Y69340
X110736Y49528
X110736Y48512
X110736Y47496
X110736Y46480
X110736Y45464
X110736Y44448
X110736Y43432
X110736Y42416
X110736Y41400
X111752Y77468
X111752Y76452
X111752Y75436
X111752Y74420
X111752Y73404
X111752Y72388
X111752Y71372
X111752Y70356
X111752Y69340
X111752Y49528
X111752Y48512
X111752Y47496
X111752Y46480
X111752Y45464
X111752Y44448
X111752Y43432
X111752Y42416
X111752Y41400
X112768Y77468
X112768Y76452
X112768Y75436
X112768Y74420
X112768Y73404
X112768Y72388
X112768Y71372
X112768Y70356
X112768Y69340
X112768Y49528
X112768Y48512
X112768Y47496
X112768Y46480
X112768Y45464
X112768Y44448
X112768Y43432
X112768Y42416
X112768Y41400
X113784Y77468
X113784Y76452
X113784Y75436
X113784Y74420
X113784Y73404
X113784Y72388
X113784Y71372
X113784Y70356
X113784Y69340
X113784Y49528
X113784Y48512
X113784Y47496
X113784Y46480
X113784Y45464
X113784Y44448
X113784Y43432
X113784Y42416
X113784Y41400
X114800Y77468
X114800Y76452
X114800Y75436
X114800Y74420
X114800Y73404
X114800Y72388
X114800Y71372
X114800Y70356
X114800Y69340
X114800Y49528
X114800Y48512
X114800Y47496
X114800Y46480
X114800Y45464
X114800Y44448
X114800Y43432
X114800Y42416
X114800Y41400
X115816Y77468
X115816Y76452
X115816Y75436
X115816Y74420
X115816Y73404
X115816Y72388
X115816Y71372
X115816Y70356
X115816Y69340
X115816Y49528
X115816Y48512
X115816Y47496
X115816Y46480
X115816Y45464
X115816Y44448
X115816Y43432
X115816Y42416
X115816Y41400
X116832Y77468
X116832Y76452
X116832Y75436
X116832Y74420
X116832Y73404
X116832Y72388
X116832Y71372
X116832Y70356
X116832Y69340
X116832Y49528
X116832Y48512
X116832Y47496
X116832Y46480
X116832Y45464
X116832Y44448
X116832Y43432
X116832Y42416
X116832Y41400
X117848Y77468
X117848Y76452
X117848Y75436
X117848Y74420
X117848Y73404
X117848Y72388
X117848Y71372
X117848Y70356
X117848Y69340
X117848Y49528
X117848Y48512
X117848Y47496
X117848Y46480
X117848Y45464
X117848Y44448
X117848Y43432
X117848Y42416
X117848Y41400
X118864Y77468
X118864Y76452
X118864Y75436
X118864Y74420
X118864Y73404
X118864Y72388
X118864Y71372
X118864Y70356
X118864Y69340
X118864Y49528
X118864Y48512
X118864Y47496
X118864Y46480
X118864Y45464
X118864Y44448
X118864Y43432
X118864Y42416
X118864Y41400
X119118Y67308
X119118Y66292
X119118Y65530
X119118Y64514
X119880Y67308
X119880Y49528
X119880Y48512
X119880Y47496
X119880Y46480
X119880Y45464
X119880Y44448
X119880Y43432
X119880Y42416
X119880Y41400
X120134Y66292
X120134Y65530
X120134Y64768
X121150Y64006
X121150Y63244
X123944Y49528
X125214Y49528
X125722Y60704
X125976Y70102
X125976Y69086
X126484Y49528
X126992Y60704
X127246Y70102
X127246Y69086
X128262Y64260
X128262Y62482
X128262Y60704
X101084Y111756
X102354Y106422
X102354Y104898
X102354Y100834
X102862Y89658
X104132Y89658
X105402Y89658
X106418Y89658
X107434Y90420
X109720Y117598
X109720Y116582
X109720Y115566
X109720Y114550
X109720Y113534
X109720Y112518
X109720Y111502
X109720Y110486
X109720Y109470
X109720Y89658
X109720Y88642
X109720Y87626
X109720Y86610
X109720Y85594
X109720Y84578
X109720Y83562
X109720Y82546
X109720Y81530
X110228Y90928
X110736Y117598
X110736Y116582
X110736Y115566
X110736Y114550
X110736Y113534
X110736Y112518
X110736Y111502
X110736Y110486
X110736Y109470
X110736Y89658
X110736Y88642
X110736Y87626
X110736Y86610
X110736Y85594
X110736Y84578
X110736Y83562
X110736Y82546
X110736Y81530
X111752Y117598
X111752Y116582
X111752Y115566
X111752Y114550
X111752Y113534
X111752Y112518
X111752Y111502
X111752Y110486
X111752Y109470
X111752Y89658
X111752Y88642
X111752Y87626
X111752Y86610
X111752Y85594
X111752Y84578
X111752Y83562
X111752Y82546
X111752Y81530
X112768Y117598
X112768Y116582
X112768Y115566
X112768Y114550
X112768Y113534
X112768Y112518
X112768Y111502
X112768Y110486
X112768Y109470
X112768Y89658
X112768Y88642
X112768Y87626
X112768Y86610
X112768Y85594
X112768Y84578
X112768Y83562
X112768Y82546
X112768Y81530
X113784Y117598
X113784Y116582
X113784Y115566
X113784Y114550
X113784Y113534
X113784Y112518
X113784Y111502
X113784Y110486
X113784Y109470
X113784Y89658
X113784Y88642
X113784Y87626
X113784Y86610
X113784Y85594
X113784Y84578
X113784Y83562
X113784Y82546
X113784Y81530
X114800Y117598
X114800Y116582
X114800Y115566
X114800Y114550
X114800Y113534
X114800Y112518
X114800Y111502
X114800Y110486
X114800Y109470
X114800Y89658
X114800Y88642
X114800Y87626
X114800Y86610
X114800Y85594
X114800Y84578
X114800Y83562
X114800Y82546
X114800Y81530
X115816Y117598
X115816Y116582
X115816Y115566
X115816Y114550
X115816Y113534
X115816Y112518
X115816Y111502
X115816Y110486
X115816Y109470
X115816Y89658
X115816Y88642
X115816Y87626
X115816Y86610
X115816Y85594
X115816Y84578
X115816Y83562
X115816Y82546
X115816Y81530
X116832Y117598
X116832Y116582
X116832Y115566
X116832Y114550
X116832Y113534
X116832Y112518
X116832Y111502
X116832Y110486
X116832Y109470
X116832Y89658
X116832Y88642
X116832Y87626
X116832Y86610
X116832Y85594
X116832Y84578
X116832Y83562
X116832Y82546
X116832Y81530
X117848Y117598
X117848Y116582
X117848Y115566
X117848Y114550
X117848Y113534
X117848Y112518
X117848Y111502
X117848Y110486
X117848Y109470
X117848Y89658
X117848Y88642
X117848Y87626
X117848Y86610
X117848Y85594
X117848Y84578
X117848Y83562
X117848Y82546
X117848Y81530
X118864Y117598
X118864Y116582
X118864Y115566
X118864Y114550
X118864Y113534
X118864Y112518
X118864Y111502
X118864Y110486
X118864Y109470
X118864Y89658
X118864Y88642
X118864Y87626
X118864Y86610
X118864Y85594
X118864Y84578
X118864Y83562
X118864Y82546
X118864Y81530
X119118Y107438
X119118Y106422
X119118Y105660
X119118Y104644
X119880Y107438
X119880Y89658
X119880Y88642
X119880Y87626
X119880Y86610
X119880Y85594
X119880Y84578
X119880Y83562
X119880Y82546
X119880Y81530
X120134Y106422
X120134Y105660
X120134Y104898
X121150Y104136
X121150Y103374
X123944Y89658
X125214Y89658
X125722Y100834
X125976Y110232
X125976Y109216
X126484Y89658
X126992Y100834
X127246Y110232
X127246Y109216
X128262Y104390
X128262Y102612
X128262Y100834
X133086Y14605
X133111Y19990
X133137Y21488
X133340Y30480
X134483Y14478
X135931Y16180
X136134Y9144
X136388Y30480
X137658Y11684
X137658Y9906
X137658Y8382
X138166Y30480
X139182Y12421
X139182Y31242
X139538Y20218
X139563Y21209
X139690Y36830
X139690Y35306
X139690Y33528
X139817Y5994
X140452Y32512
X140554Y21158
X140579Y20117
X141976Y20625
X142052Y14326
X142128Y19202
X144832Y19812
X145024Y28956
X145278Y26416
X145532Y24384
X145532Y19812
X146040Y28194
X146232Y19812
X146294Y27178
X147564Y27432
X147873Y17602
X148224Y14707
X148301Y13437
X148834Y27432
X149088Y36830
X149088Y35306
X149088Y33782
X149113Y6020
X149850Y18542
X150866Y32004
X151628Y18288
X152771Y18288
X155387Y9779
X133086Y54735
X133111Y60120
X133137Y61618
X133340Y70610
X134483Y54608
X135931Y56310
X136134Y49274
X136388Y70610
X137658Y51814
X137658Y50036
X137658Y48512
X138166Y70610
X139182Y52551
X139182Y71372
X139538Y60348
X139563Y61339
X139690Y76960
X139690Y75436
X139690Y73658
X139817Y46124
X140452Y72642
X140554Y61288
X140579Y60247
X141976Y60755
X142052Y54456
X142128Y59332
X144832Y59942
X145024Y69086
X145278Y66546
X145532Y64514
X145532Y59942
X146040Y68324
X146232Y59942
X146294Y67308
X147564Y67562
X147873Y57732
X148224Y54837
X148301Y53567
X148834Y67562
X149088Y76960
X149088Y75436
X149088Y73912
X149113Y46150
X149850Y58672
X150866Y72134
X151628Y58418
X152771Y58418
X155387Y49909
X133086Y94865
X133111Y100250
X133137Y101748
X133340Y110740
X134483Y94738
X135931Y96440
X136134Y89404
X136388Y110740
X137658Y91944
X137658Y90166
X137658Y88642
X138166Y110740
X139182Y92681
X139182Y111502
X139538Y100478
X139563Y101469
X139690Y117090
X139690Y115566
X139690Y113788
X139817Y86254
X140452Y112772
X140554Y101418
X140579Y100377
X141976Y100885
X142052Y94586
X142128Y99462
X144832Y100072
X145024Y109216
X145278Y106676
X145532Y104644
X145532Y100072
X146040Y108454
X146232Y100072
X146294Y107438
X147564Y107692
X147873Y97862
X148224Y94967
X148301Y93697
X148834Y107692
X149088Y117090
X149088Y115566
X149088Y114042
X149113Y86280
X149850Y98802
X150866Y112264
X151628Y98548
X152771Y98548
X155387Y90039
T08C3.000000
X4826Y35306
X4826Y4826
X14986Y35306
X14986Y4826
X4826Y75436
X4826Y44956
X14986Y75436
X14986Y44956
X4826Y115566
X4826Y85086
X14986Y115566
X14986Y85086
X24636Y35306
X24636Y4826
X65276Y35306
X65276Y4826
X24636Y75436
X24636Y44956
X65276Y75436
X65276Y44956
X24636Y115566
X24636Y85086
X65276Y115566
X65276Y85086
X74924Y25144
X74924Y4824
X85084Y25144
X85084Y4824
X74924Y65274
X74924Y44954
X85084Y65274
X85084Y44954
X74924Y105404
X74924Y85084
X85084Y105404
X85084Y85084
X94736Y4826
X94736Y25146
X94736Y44956
X94736Y65276
X94736Y85086
X94736Y105406
X104386Y35306
X104386Y4826
X124706Y35306
X124706Y4826
X104386Y75436
X104386Y44956
X124706Y75436
X124706Y44956
X104386Y115566
X104386Y85086
X124706Y115566
X124706Y85086
X134356Y35306
X134356Y4826
X154676Y35306
X154676Y4826
X134356Y75436
X134356Y44956
X154676Y75436
X154676Y44956
X134356Y115566
X134356Y85086
X154676Y115566
X154676Y85086
M30
