G75*
G71*
%MOMM*%
%OFA0B0*%
%FSLAX53Y53*%
%IPPOS*%
%LPD*%
%ADD19R,3.40000X5.90000*%
%ADD24C,3.10000*%
%ADD30C,6.40000*%
%ADD31R,4.21000X4.21000*%
%ADD32R,1.92400X1.92400*%
%ADD34R,1.45000X1.90000*%
%ADD41R,1.46000X1.05000*%
%ADD44C,0.15000*%
%ADD46R,2.89936X2.95016*%
%ADD47R,3.73000X4.21000*%
%ADD53R,2.20000X2.90000*%
%ADD54R,1.28900X1.79700*%
%ADD56R,1.79700X1.28900*%
X0000000Y0000000D02*
%LPD*%
G01*
D56*
X0018606Y0013018D03*
X0018606Y0014923D03*
D32*
X0018796Y0036830D03*
X0018796Y0034290D03*
X0016256Y0036830D03*
X0016256Y0034290D03*
X0013716Y0036830D03*
X0013716Y0034290D03*
X0011176Y0036830D03*
X0011176Y0034290D03*
D56*
X0013462Y0014605D03*
X0013462Y0016510D03*
X0016510Y0011303D03*
X0016510Y0009398D03*
D54*
X0003747Y0018098D03*
X0001842Y0018098D03*
D56*
X0006858Y0013462D03*
X0006858Y0011557D03*
D54*
X0001842Y0015939D03*
X0003747Y0015939D03*
D56*
X0009398Y0011557D03*
X0009398Y0013462D03*
X0036322Y0028194D03*
X0036322Y0030099D03*
X0036322Y0014986D03*
X0036322Y0016891D03*
X0036830Y0003302D03*
X0036830Y0001397D03*
X0039370Y0030099D03*
X0039370Y0028194D03*
X0039370Y0016891D03*
X0039370Y0014986D03*
X0039878Y0001397D03*
X0039878Y0003302D03*
X0038354Y0036386D03*
X0038354Y0038291D03*
X0039370Y0025083D03*
X0039370Y0023178D03*
X0038418Y0011875D03*
X0038418Y0009970D03*
X0056642Y0030353D03*
X0056642Y0032258D03*
X0056642Y0017145D03*
X0056642Y0019050D03*
X0056642Y0005715D03*
X0056642Y0003810D03*
X0056642Y0034417D03*
X0056642Y0036322D03*
X0056642Y0021209D03*
X0056642Y0023114D03*
X0056642Y0009779D03*
X0056642Y0007874D03*
D46*
X0066802Y0027716D03*
X0066802Y0032766D03*
X0066802Y0017526D03*
X0066802Y0022576D03*
X0066802Y0012416D03*
X0066802Y0007366D03*
D53*
X0021114Y0025622D03*
X0021114Y0021622D03*
D32*
X0016002Y0007366D03*
X0016002Y0004826D03*
X0016002Y0002286D03*
X0018542Y0007366D03*
X0021082Y0007366D03*
X0018542Y0004826D03*
X0021082Y0004826D03*
X0018542Y0002286D03*
X0021082Y0002286D03*
X0059436Y0035814D03*
X0061976Y0035814D03*
X0059436Y0033274D03*
X0061976Y0033274D03*
X0059436Y0030734D03*
X0061976Y0030734D03*
X0061976Y0017526D03*
X0059436Y0017526D03*
X0061976Y0020066D03*
X0059436Y0020066D03*
X0061976Y0022606D03*
X0059436Y0022606D03*
X0059436Y0009398D03*
X0061976Y0009398D03*
X0059436Y0006858D03*
X0061976Y0006858D03*
X0059436Y0004318D03*
X0061976Y0004318D03*
D30*
X0004826Y0035306D03*
X0086106Y0035306D03*
X0004826Y0004826D03*
X0086106Y0004826D03*
D31*
X0005414Y0027686D03*
X0010414Y0027686D03*
X0010414Y0022606D03*
X0005414Y0022606D03*
X0076374Y0032766D03*
X0071374Y0032766D03*
X0071374Y0027686D03*
X0076374Y0027686D03*
X0076374Y0022606D03*
X0071374Y0022606D03*
X0071374Y0017526D03*
X0076374Y0017526D03*
X0076374Y0012446D03*
X0071374Y0012446D03*
X0071374Y0007366D03*
X0076374Y0007366D03*
D56*
X0018542Y0016637D03*
X0018542Y0018542D03*
X0005842Y0018923D03*
X0005842Y0017018D03*
X0021082Y0018542D03*
X0021082Y0016637D03*
D54*
X0009335Y0009462D03*
X0007430Y0009462D03*
X0022987Y0013907D03*
X0021082Y0013907D03*
X0021082Y0010414D03*
X0022987Y0010414D03*
D56*
X0016002Y0014605D03*
X0016002Y0016510D03*
D54*
X0015875Y0018606D03*
X0013970Y0018606D03*
D56*
X0019050Y0011303D03*
X0019050Y0009398D03*
X0012954Y0004318D03*
X0012954Y0002413D03*
X0026670Y0030798D03*
X0026670Y0032703D03*
X0031687Y0024575D03*
X0031687Y0022670D03*
X0032195Y0011875D03*
X0032195Y0009970D03*
X0029210Y0030734D03*
X0029210Y0032639D03*
X0029210Y0036322D03*
X0029210Y0034417D03*
X0029210Y0017145D03*
X0029210Y0019050D03*
X0029210Y0022987D03*
X0029210Y0021082D03*
X0029718Y0005842D03*
X0029718Y0003937D03*
X0029782Y0007938D03*
X0029782Y0009843D03*
X0031750Y0034290D03*
X0031750Y0032385D03*
X0032195Y0021082D03*
X0032195Y0019177D03*
X0032258Y0005969D03*
X0032258Y0007874D03*
X0035814Y0036386D03*
X0035814Y0038291D03*
X0036830Y0025083D03*
X0036830Y0023178D03*
X0035814Y0011875D03*
X0035814Y0009970D03*
X0034290Y0032322D03*
X0034290Y0034227D03*
X0034798Y0019114D03*
X0034798Y0021019D03*
X0034798Y0007874D03*
X0034798Y0005969D03*
D41*
X0008806Y0016576D03*
X0008806Y0017526D03*
X0008806Y0018476D03*
X0011006Y0018476D03*
X0011006Y0016576D03*
X0014054Y0010480D03*
X0014054Y0012380D03*
X0011854Y0012380D03*
X0011854Y0011430D03*
X0011854Y0010480D03*
X0039454Y0034224D03*
X0039454Y0033274D03*
X0039454Y0032324D03*
X0037254Y0032324D03*
X0037254Y0034224D03*
X0037254Y0033274D03*
X0037170Y0020000D03*
X0037170Y0020950D03*
X0037170Y0019050D03*
X0039370Y0019050D03*
X0039370Y0020000D03*
X0039370Y0020950D03*
X0039370Y0007808D03*
X0039370Y0006858D03*
X0039370Y0005908D03*
X0037170Y0005908D03*
X0037170Y0007808D03*
X0037170Y0006858D03*
D19*
X0053594Y0033274D03*
X0043594Y0033274D03*
X0043594Y0020066D03*
X0053594Y0020066D03*
X0043594Y0006858D03*
X0053594Y0006858D03*
D24*
X0023622Y0035814D03*
D34*
X0021622Y0035814D03*
X0025622Y0035814D03*
D24*
X0086106Y0027686D03*
D34*
X0088106Y0027686D03*
X0084106Y0027686D03*
X0084074Y0022606D03*
X0088074Y0022606D03*
D24*
X0086074Y0022606D03*
D34*
X0084106Y0017526D03*
X0088106Y0017526D03*
D24*
X0086106Y0017526D03*
D56*
X0024130Y0030798D03*
X0024130Y0032703D03*
D54*
X0080010Y0027686D03*
X0081915Y0027686D03*
X0081979Y0022606D03*
X0080074Y0022606D03*
X0082042Y0017526D03*
X0080137Y0017526D03*
D47*
X0021082Y0029718D03*
X0015262Y0029718D03*
X0000000Y0040130D02*
%LPD*%
G01*
D56*
X0018606Y0053148D03*
X0018606Y0055053D03*
D32*
X0018796Y0076960D03*
X0018796Y0074420D03*
X0016256Y0076960D03*
X0016256Y0074420D03*
X0013716Y0076960D03*
X0013716Y0074420D03*
X0011176Y0076960D03*
X0011176Y0074420D03*
D56*
X0013462Y0054735D03*
X0013462Y0056640D03*
X0016510Y0051433D03*
X0016510Y0049528D03*
D54*
X0003747Y0058228D03*
X0001842Y0058228D03*
D56*
X0006858Y0053592D03*
X0006858Y0051687D03*
D54*
X0001842Y0056069D03*
X0003747Y0056069D03*
D56*
X0009398Y0051687D03*
X0009398Y0053592D03*
X0036322Y0068324D03*
X0036322Y0070229D03*
X0036322Y0055116D03*
X0036322Y0057021D03*
X0036830Y0043432D03*
X0036830Y0041527D03*
X0039370Y0070229D03*
X0039370Y0068324D03*
X0039370Y0057021D03*
X0039370Y0055116D03*
X0039878Y0041527D03*
X0039878Y0043432D03*
X0038354Y0076516D03*
X0038354Y0078421D03*
X0039370Y0065213D03*
X0039370Y0063308D03*
X0038418Y0052005D03*
X0038418Y0050100D03*
X0056642Y0070483D03*
X0056642Y0072388D03*
X0056642Y0057275D03*
X0056642Y0059180D03*
X0056642Y0045845D03*
X0056642Y0043940D03*
X0056642Y0074547D03*
X0056642Y0076452D03*
X0056642Y0061339D03*
X0056642Y0063244D03*
X0056642Y0049909D03*
X0056642Y0048004D03*
D46*
X0066802Y0067846D03*
X0066802Y0072896D03*
X0066802Y0057656D03*
X0066802Y0062706D03*
X0066802Y0052546D03*
X0066802Y0047496D03*
D53*
X0021114Y0065752D03*
X0021114Y0061752D03*
D32*
X0016002Y0047496D03*
X0016002Y0044956D03*
X0016002Y0042416D03*
X0018542Y0047496D03*
X0021082Y0047496D03*
X0018542Y0044956D03*
X0021082Y0044956D03*
X0018542Y0042416D03*
X0021082Y0042416D03*
X0059436Y0075944D03*
X0061976Y0075944D03*
X0059436Y0073404D03*
X0061976Y0073404D03*
X0059436Y0070864D03*
X0061976Y0070864D03*
X0061976Y0057656D03*
X0059436Y0057656D03*
X0061976Y0060196D03*
X0059436Y0060196D03*
X0061976Y0062736D03*
X0059436Y0062736D03*
X0059436Y0049528D03*
X0061976Y0049528D03*
X0059436Y0046988D03*
X0061976Y0046988D03*
X0059436Y0044448D03*
X0061976Y0044448D03*
D30*
X0004826Y0075436D03*
X0086106Y0075436D03*
X0004826Y0044956D03*
X0086106Y0044956D03*
D31*
X0005414Y0067816D03*
X0010414Y0067816D03*
X0010414Y0062736D03*
X0005414Y0062736D03*
X0076374Y0072896D03*
X0071374Y0072896D03*
X0071374Y0067816D03*
X0076374Y0067816D03*
X0076374Y0062736D03*
X0071374Y0062736D03*
X0071374Y0057656D03*
X0076374Y0057656D03*
X0076374Y0052576D03*
X0071374Y0052576D03*
X0071374Y0047496D03*
X0076374Y0047496D03*
D56*
X0018542Y0056767D03*
X0018542Y0058672D03*
X0005842Y0059053D03*
X0005842Y0057148D03*
X0021082Y0058672D03*
X0021082Y0056767D03*
D54*
X0009335Y0049592D03*
X0007430Y0049592D03*
X0022987Y0054037D03*
X0021082Y0054037D03*
X0021082Y0050544D03*
X0022987Y0050544D03*
D56*
X0016002Y0054735D03*
X0016002Y0056640D03*
D54*
X0015875Y0058736D03*
X0013970Y0058736D03*
D56*
X0019050Y0051433D03*
X0019050Y0049528D03*
X0012954Y0044448D03*
X0012954Y0042543D03*
X0026670Y0070928D03*
X0026670Y0072833D03*
X0031687Y0064705D03*
X0031687Y0062800D03*
X0032195Y0052005D03*
X0032195Y0050100D03*
X0029210Y0070864D03*
X0029210Y0072769D03*
X0029210Y0076452D03*
X0029210Y0074547D03*
X0029210Y0057275D03*
X0029210Y0059180D03*
X0029210Y0063117D03*
X0029210Y0061212D03*
X0029718Y0045972D03*
X0029718Y0044067D03*
X0029782Y0048068D03*
X0029782Y0049973D03*
X0031750Y0074420D03*
X0031750Y0072515D03*
X0032195Y0061212D03*
X0032195Y0059307D03*
X0032258Y0046099D03*
X0032258Y0048004D03*
X0035814Y0076516D03*
X0035814Y0078421D03*
X0036830Y0065213D03*
X0036830Y0063308D03*
X0035814Y0052005D03*
X0035814Y0050100D03*
X0034290Y0072452D03*
X0034290Y0074357D03*
X0034798Y0059244D03*
X0034798Y0061149D03*
X0034798Y0048004D03*
X0034798Y0046099D03*
D41*
X0008806Y0056706D03*
X0008806Y0057656D03*
X0008806Y0058606D03*
X0011006Y0058606D03*
X0011006Y0056706D03*
X0014054Y0050610D03*
X0014054Y0052510D03*
X0011854Y0052510D03*
X0011854Y0051560D03*
X0011854Y0050610D03*
X0039454Y0074354D03*
X0039454Y0073404D03*
X0039454Y0072454D03*
X0037254Y0072454D03*
X0037254Y0074354D03*
X0037254Y0073404D03*
X0037170Y0060130D03*
X0037170Y0061080D03*
X0037170Y0059180D03*
X0039370Y0059180D03*
X0039370Y0060130D03*
X0039370Y0061080D03*
X0039370Y0047938D03*
X0039370Y0046988D03*
X0039370Y0046038D03*
X0037170Y0046038D03*
X0037170Y0047938D03*
X0037170Y0046988D03*
D19*
X0053594Y0073404D03*
X0043594Y0073404D03*
X0043594Y0060196D03*
X0053594Y0060196D03*
X0043594Y0046988D03*
X0053594Y0046988D03*
D24*
X0023622Y0075944D03*
D34*
X0021622Y0075944D03*
X0025622Y0075944D03*
D24*
X0086106Y0067816D03*
D34*
X0088106Y0067816D03*
X0084106Y0067816D03*
X0084074Y0062736D03*
X0088074Y0062736D03*
D24*
X0086074Y0062736D03*
D34*
X0084106Y0057656D03*
X0088106Y0057656D03*
D24*
X0086106Y0057656D03*
D56*
X0024130Y0070928D03*
X0024130Y0072833D03*
D54*
X0080010Y0067816D03*
X0081915Y0067816D03*
X0081979Y0062736D03*
X0080074Y0062736D03*
X0082042Y0057656D03*
X0080137Y0057656D03*
D47*
X0021082Y0069848D03*
X0015262Y0069848D03*
X0090930Y0000000D02*
%LPD*%
G01*
D44*
G36*
X0096092Y0008024D02*
X0096707Y0007898D01*
X0097285Y0007655D01*
X0097806Y0007304D01*
X0098248Y0006858D01*
X0098595Y0006336D01*
X0098834Y0005755D01*
X0098956Y0005140D01*
X0098956Y0005140D01*
X0098956Y0005140D01*
X0098946Y0004423D01*
X0098946Y0004422D01*
X0098946Y0004422D01*
X0098807Y0003811D01*
X0098552Y0003238D01*
X0098190Y0002725D01*
X0097736Y0002292D01*
X0097206Y0001956D01*
X0096621Y0001729D01*
X0096003Y0001620D01*
X0095375Y0001633D01*
X0094762Y0001768D01*
X0094187Y0002019D01*
X0093672Y0002377D01*
X0093236Y0002829D01*
X0092896Y0003356D01*
X0092665Y0003940D01*
X0092552Y0004557D01*
X0092561Y0005184D01*
X0092691Y0005798D01*
X0092938Y0006375D01*
X0093293Y0006893D01*
X0093741Y0007332D01*
X0094266Y0007676D01*
X0094848Y0007911D01*
X0095465Y0008028D01*
X0096092Y0008024D01*
X0096092Y0008024D01*
G37*
G36*
X0157052Y0008024D02*
X0157667Y0007898D01*
X0158245Y0007655D01*
X0158766Y0007304D01*
X0159208Y0006858D01*
X0159555Y0006336D01*
X0159794Y0005755D01*
X0159916Y0005140D01*
X0159916Y0005140D01*
X0159916Y0005140D01*
X0159906Y0004423D01*
X0159906Y0004422D01*
X0159906Y0004422D01*
X0159767Y0003811D01*
X0159512Y0003238D01*
X0159150Y0002725D01*
X0158696Y0002292D01*
X0158166Y0001956D01*
X0157581Y0001729D01*
X0156963Y0001620D01*
X0156335Y0001633D01*
X0155722Y0001768D01*
X0155147Y0002019D01*
X0154632Y0002377D01*
X0154196Y0002829D01*
X0153856Y0003356D01*
X0153625Y0003940D01*
X0153512Y0004557D01*
X0153521Y0005184D01*
X0153651Y0005798D01*
X0153898Y0006375D01*
X0154253Y0006893D01*
X0154701Y0007332D01*
X0155226Y0007676D01*
X0155808Y0007911D01*
X0156425Y0008028D01*
X0157052Y0008024D01*
X0157052Y0008024D01*
G37*
G36*
X0145867Y0001705D02*
X0143943Y0001705D01*
X0143943Y0003629D01*
X0145867Y0003629D01*
X0145867Y0001705D01*
X0145867Y0001705D01*
G37*
G36*
X0136406Y0001769D02*
X0134482Y0001769D01*
X0134482Y0003693D01*
X0136406Y0003693D01*
X0136406Y0001769D01*
X0136406Y0001769D01*
G37*
G36*
X0128786Y0001769D02*
X0126862Y0001769D01*
X0126862Y0003693D01*
X0128786Y0003693D01*
X0128786Y0001769D01*
X0128786Y0001769D01*
G37*
G36*
X0126246Y0001769D02*
X0124322Y0001769D01*
X0124322Y0003693D01*
X0126246Y0003693D01*
X0126246Y0001769D01*
X0126246Y0001769D01*
G37*
G36*
X0123706Y0001769D02*
X0121782Y0001769D01*
X0121782Y0003693D01*
X0123706Y0003693D01*
X0123706Y0001769D01*
X0123706Y0001769D01*
G37*
G36*
X0131326Y0001769D02*
X0129402Y0001769D01*
X0129402Y0003693D01*
X0131326Y0003693D01*
X0131326Y0001769D01*
X0131326Y0001769D01*
G37*
G36*
X0133866Y0001769D02*
X0131942Y0001769D01*
X0131942Y0003693D01*
X0133866Y0003693D01*
X0133866Y0001769D01*
X0133866Y0001769D01*
G37*
G36*
X0138946Y0001769D02*
X0137022Y0001769D01*
X0137022Y0003693D01*
X0138946Y0003693D01*
X0138946Y0001769D01*
X0138946Y0001769D01*
G37*
G36*
X0141486Y0001769D02*
X0139562Y0001769D01*
X0139562Y0003693D01*
X0141486Y0003693D01*
X0141486Y0001769D01*
X0141486Y0001769D01*
G37*
G36*
X0110699Y0002139D02*
X0108499Y0002139D01*
X0108499Y0005039D01*
X0110699Y0005039D01*
X0110699Y0002139D01*
X0110699Y0002139D01*
G37*
G36*
X0106370Y0002467D02*
X0104446Y0002467D01*
X0104446Y0004391D01*
X0106370Y0004391D01*
X0106370Y0002467D01*
X0106370Y0002467D01*
G37*
G36*
X0103830Y0002467D02*
X0101906Y0002467D01*
X0101906Y0004391D01*
X0103830Y0004391D01*
X0103830Y0002467D01*
X0103830Y0002467D01*
G37*
G36*
X0114244Y0003864D02*
X0111812Y0003864D01*
X0111812Y0005280D01*
X0114244Y0005280D01*
X0114244Y0003864D01*
X0114244Y0003864D01*
G37*
G36*
X0145867Y0004245D02*
X0143943Y0004245D01*
X0143943Y0006169D01*
X0145867Y0006169D01*
X0145867Y0004245D01*
X0145867Y0004245D01*
G37*
G36*
X0136406Y0004309D02*
X0134482Y0004309D01*
X0134482Y0006233D01*
X0136406Y0006233D01*
X0136406Y0004309D01*
X0136406Y0004309D01*
G37*
G36*
X0138946Y0004309D02*
X0137022Y0004309D01*
X0137022Y0006233D01*
X0138946Y0006233D01*
X0138946Y0004309D01*
X0138946Y0004309D01*
G37*
G36*
X0133866Y0004309D02*
X0131942Y0004309D01*
X0131942Y0006233D01*
X0133866Y0006233D01*
X0133866Y0004309D01*
X0133866Y0004309D01*
G37*
G36*
X0141486Y0004309D02*
X0139562Y0004309D01*
X0139562Y0006233D01*
X0141486Y0006233D01*
X0141486Y0004309D01*
X0141486Y0004309D01*
G37*
G36*
X0126246Y0004309D02*
X0124322Y0004309D01*
X0124322Y0006233D01*
X0126246Y0006233D01*
X0126246Y0004309D01*
X0126246Y0004309D01*
G37*
G36*
X0131326Y0004309D02*
X0129402Y0004309D01*
X0129402Y0006233D01*
X0131326Y0006233D01*
X0131326Y0004309D01*
X0131326Y0004309D01*
G37*
G36*
X0128786Y0004309D02*
X0126862Y0004309D01*
X0126862Y0006233D01*
X0128786Y0006233D01*
X0128786Y0004309D01*
X0128786Y0004309D01*
G37*
G36*
X0123706Y0004309D02*
X0121782Y0004309D01*
X0121782Y0006233D01*
X0123706Y0006233D01*
X0123706Y0004309D01*
X0123706Y0004309D01*
G37*
G36*
X0120848Y0004829D02*
X0118416Y0004829D01*
X0118416Y0008887D01*
X0120848Y0008887D01*
X0120848Y0004829D01*
X0120848Y0004829D01*
G37*
G36*
X0106370Y0005007D02*
X0104446Y0005007D01*
X0104446Y0006931D01*
X0106370Y0006931D01*
X0106370Y0005007D01*
X0106370Y0005007D01*
G37*
G36*
X0103830Y0005007D02*
X0101906Y0005007D01*
X0101906Y0006931D01*
X0103830Y0006931D01*
X0103830Y0005007D01*
X0103830Y0005007D01*
G37*
G36*
X0110699Y0006137D02*
X0108499Y0006137D01*
X0108499Y0009037D01*
X0110699Y0009037D01*
X0110699Y0006137D01*
X0110699Y0006137D01*
G37*
G36*
X0114244Y0006150D02*
X0111812Y0006150D01*
X0111812Y0007566D01*
X0114244Y0007566D01*
X0114244Y0006150D01*
X0114244Y0006150D01*
G37*
G36*
X0106370Y0007547D02*
X0104446Y0007547D01*
X0104446Y0009471D01*
X0106370Y0009471D01*
X0106370Y0007547D01*
X0106370Y0007547D01*
G37*
G36*
X0103830Y0007547D02*
X0101906Y0007547D01*
X0101906Y0009471D01*
X0103830Y0009471D01*
X0103830Y0007547D01*
X0103830Y0007547D01*
G37*
G36*
X0114244Y0008436D02*
X0111812Y0008436D01*
X0111812Y0009852D01*
X0114244Y0009852D01*
X0114244Y0008436D01*
X0114244Y0008436D01*
G37*
G36*
X0126246Y0008881D02*
X0124322Y0008881D01*
X0124322Y0010805D01*
X0126246Y0010805D01*
X0126246Y0008881D01*
X0126246Y0008881D01*
G37*
G36*
X0123706Y0008881D02*
X0121782Y0008881D01*
X0121782Y0010805D01*
X0123706Y0010805D01*
X0123706Y0008881D01*
X0123706Y0008881D01*
G37*
G36*
X0128786Y0008881D02*
X0126862Y0008881D01*
X0126862Y0010805D01*
X0128786Y0010805D01*
X0128786Y0008881D01*
X0128786Y0008881D01*
G37*
G36*
X0131326Y0008881D02*
X0129402Y0008881D01*
X0129402Y0010805D01*
X0131326Y0010805D01*
X0131326Y0008881D01*
X0131326Y0008881D01*
G37*
G36*
X0133866Y0008881D02*
X0131942Y0008881D01*
X0131942Y0010805D01*
X0133866Y0010805D01*
X0133866Y0008881D01*
X0133866Y0008881D01*
G37*
G36*
X0141486Y0008881D02*
X0139562Y0008881D01*
X0139562Y0010805D01*
X0141486Y0010805D01*
X0141486Y0008881D01*
X0141486Y0008881D01*
G37*
G36*
X0138946Y0008881D02*
X0137022Y0008881D01*
X0137022Y0010805D01*
X0138946Y0010805D01*
X0138946Y0008881D01*
X0138946Y0008881D01*
G37*
G36*
X0136406Y0008881D02*
X0134482Y0008881D01*
X0134482Y0010805D01*
X0136406Y0010805D01*
X0136406Y0008881D01*
X0136406Y0008881D01*
G37*
G36*
X0159202Y0010087D02*
X0157278Y0010087D01*
X0157278Y0012011D01*
X0159202Y0012011D01*
X0159202Y0010087D01*
X0159202Y0010087D01*
G37*
G36*
X0151963Y0010087D02*
X0150039Y0010087D01*
X0150039Y0012011D01*
X0151963Y0012011D01*
X0151963Y0010087D01*
X0151963Y0010087D01*
G37*
G36*
X0149423Y0010087D02*
X0147499Y0010087D01*
X0147499Y0012011D01*
X0149423Y0012011D01*
X0149423Y0010087D01*
X0149423Y0010087D01*
G37*
G36*
X0156662Y0010087D02*
X0154738Y0010087D01*
X0154738Y0012011D01*
X0156662Y0012011D01*
X0156662Y0010087D01*
X0156662Y0010087D01*
G37*
G36*
X0109721Y0010870D02*
X0105921Y0010870D01*
X0105921Y0013170D01*
X0109721Y0013170D01*
X0109721Y0010870D01*
X0109721Y0010870D01*
G37*
G36*
X0120213Y0010913D02*
X0118924Y0010913D01*
X0118924Y0012710D01*
X0120213Y0012710D01*
X0120213Y0010913D01*
X0120213Y0010913D01*
G37*
G36*
X0118308Y0010913D02*
X0117019Y0010913D01*
X0117019Y0012710D01*
X0118308Y0012710D01*
X0118308Y0010913D01*
X0118308Y0010913D01*
G37*
G36*
X0128786Y0011421D02*
X0126862Y0011421D01*
X0126862Y0013345D01*
X0128786Y0013345D01*
X0128786Y0011421D01*
X0128786Y0011421D01*
G37*
G36*
X0123706Y0011421D02*
X0121782Y0011421D01*
X0121782Y0013345D01*
X0123706Y0013345D01*
X0123706Y0011421D01*
X0123706Y0011421D01*
G37*
G36*
X0141486Y0011421D02*
X0139562Y0011421D01*
X0139562Y0013345D01*
X0141486Y0013345D01*
X0141486Y0011421D01*
X0141486Y0011421D01*
G37*
G36*
X0126246Y0011421D02*
X0124322Y0011421D01*
X0124322Y0013345D01*
X0126246Y0013345D01*
X0126246Y0011421D01*
X0126246Y0011421D01*
G37*
G36*
X0138946Y0011421D02*
X0137022Y0011421D01*
X0137022Y0013345D01*
X0138946Y0013345D01*
X0138946Y0011421D01*
X0138946Y0011421D01*
G37*
G36*
X0133866Y0011421D02*
X0131942Y0011421D01*
X0131942Y0013345D01*
X0133866Y0013345D01*
X0133866Y0011421D01*
X0133866Y0011421D01*
G37*
G36*
X0131326Y0011421D02*
X0129402Y0011421D01*
X0129402Y0013345D01*
X0131326Y0013345D01*
X0131326Y0011421D01*
X0131326Y0011421D01*
G37*
G36*
X0136406Y0011421D02*
X0134482Y0011421D01*
X0134482Y0013345D01*
X0136406Y0013345D01*
X0136406Y0011421D01*
X0136406Y0011421D01*
G37*
G36*
X0116467Y0011484D02*
X0114670Y0011484D01*
X0114670Y0012773D01*
X0116467Y0012773D01*
X0116467Y0011484D01*
X0116467Y0011484D01*
G37*
G36*
X0112276Y0011484D02*
X0110479Y0011484D01*
X0110479Y0012773D01*
X0112276Y0012773D01*
X0112276Y0011484D01*
X0112276Y0011484D01*
G37*
G36*
X0114435Y0011484D02*
X0112638Y0011484D01*
X0112638Y0012773D01*
X0114435Y0012773D01*
X0114435Y0011484D01*
X0114435Y0011484D01*
G37*
G36*
X0159202Y0012627D02*
X0157278Y0012627D01*
X0157278Y0014551D01*
X0159202Y0014551D01*
X0159202Y0012627D01*
X0159202Y0012627D01*
G37*
G36*
X0149423Y0012627D02*
X0147499Y0012627D01*
X0147499Y0014551D01*
X0149423Y0014551D01*
X0149423Y0012627D01*
X0149423Y0012627D01*
G37*
G36*
X0156662Y0012627D02*
X0154738Y0012627D01*
X0154738Y0014551D01*
X0156662Y0014551D01*
X0156662Y0012627D01*
X0156662Y0012627D01*
G37*
G36*
X0151963Y0012627D02*
X0150039Y0012627D01*
X0150039Y0014551D01*
X0151963Y0014551D01*
X0151963Y0012627D01*
X0151963Y0012627D01*
G37*
G36*
X0101380Y0015997D02*
X0101678Y0015935D01*
X0101958Y0015818D01*
X0102210Y0015648D01*
X0102424Y0015432D01*
X0102592Y0015179D01*
X0102708Y0014898D01*
X0102767Y0014600D01*
X0102767Y0014600D01*
X0102767Y0014600D01*
X0102762Y0014252D01*
X0102762Y0014252D01*
X0102762Y0014252D01*
X0102695Y0013956D01*
X0102571Y0013678D01*
X0102396Y0013430D01*
X0102176Y0013220D01*
X0101919Y0013057D01*
X0101636Y0012947D01*
X0101336Y0012895D01*
X0101033Y0012901D01*
X0100736Y0012966D01*
X0100457Y0013088D01*
X0100208Y0013261D01*
X0099996Y0013480D01*
X0099832Y0013736D01*
X0099720Y0014018D01*
X0099665Y0014317D01*
X0099669Y0014621D01*
X0099732Y0014918D01*
X0099852Y0015198D01*
X0100024Y0015449D01*
X0100241Y0015661D01*
X0100495Y0015828D01*
X0100777Y0015942D01*
X0101076Y0015999D01*
X0101380Y0015997D01*
X0101380Y0015997D01*
G37*
G36*
X0120213Y0012945D02*
X0118924Y0012945D01*
X0118924Y0014742D01*
X0120213Y0014742D01*
X0120213Y0012945D01*
X0120213Y0012945D01*
G37*
G36*
X0118308Y0012945D02*
X0117019Y0012945D01*
X0117019Y0014742D01*
X0118308Y0014742D01*
X0118308Y0012945D01*
X0118308Y0012945D01*
G37*
G36*
X0114435Y0013389D02*
X0112638Y0013389D01*
X0112638Y0014678D01*
X0114435Y0014678D01*
X0114435Y0013389D01*
X0114435Y0013389D01*
G37*
G36*
X0116467Y0013389D02*
X0114670Y0013389D01*
X0114670Y0014678D01*
X0116467Y0014678D01*
X0116467Y0013389D01*
X0116467Y0013389D01*
G37*
G36*
X0112276Y0013389D02*
X0110479Y0013389D01*
X0110479Y0014678D01*
X0112276Y0014678D01*
X0112276Y0013389D01*
X0112276Y0013389D01*
G37*
G36*
X0134120Y0014596D02*
X0132831Y0014596D01*
X0132831Y0016393D01*
X0134120Y0016393D01*
X0134120Y0014596D01*
X0134120Y0014596D01*
G37*
G36*
X0132215Y0014596D02*
X0130926Y0014596D01*
X0130926Y0016393D01*
X0132215Y0016393D01*
X0132215Y0014596D01*
X0132215Y0014596D01*
G37*
G36*
X0109721Y0014770D02*
X0105921Y0014770D01*
X0105921Y0017070D01*
X0109721Y0017070D01*
X0109721Y0014770D01*
X0109721Y0014770D01*
G37*
G36*
X0156662Y0015167D02*
X0154738Y0015167D01*
X0154738Y0017091D01*
X0156662Y0017091D01*
X0156662Y0015167D01*
X0156662Y0015167D01*
G37*
G36*
X0159202Y0015167D02*
X0157278Y0015167D01*
X0157278Y0017091D01*
X0159202Y0017091D01*
X0159202Y0015167D01*
X0159202Y0015167D01*
G37*
G36*
X0149423Y0015167D02*
X0147499Y0015167D01*
X0147499Y0017091D01*
X0149423Y0017091D01*
X0149423Y0015167D01*
X0149423Y0015167D01*
G37*
G36*
X0151963Y0015167D02*
X0150039Y0015167D01*
X0150039Y0017091D01*
X0151963Y0017091D01*
X0151963Y0015167D01*
X0151963Y0015167D01*
G37*
G36*
X0140089Y0015866D02*
X0138800Y0015866D01*
X0138800Y0017663D01*
X0140089Y0017663D01*
X0140089Y0015866D01*
X0140089Y0015866D01*
G37*
G36*
X0138184Y0015866D02*
X0136895Y0015866D01*
X0136895Y0017663D01*
X0138184Y0017663D01*
X0138184Y0015866D01*
X0138184Y0015866D01*
G37*
G36*
X0119705Y0016056D02*
X0117781Y0016056D01*
X0117781Y0017980D01*
X0119705Y0017980D01*
X0119705Y0016056D01*
X0119705Y0016056D01*
G37*
G36*
X0117165Y0016056D02*
X0115241Y0016056D01*
X0115241Y0017980D01*
X0117165Y0017980D01*
X0117165Y0016056D01*
X0117165Y0016056D01*
G37*
G36*
X0114625Y0016056D02*
X0112701Y0016056D01*
X0112701Y0017980D01*
X0114625Y0017980D01*
X0114625Y0016056D01*
X0114625Y0016056D01*
G37*
G36*
X0143518Y0016882D02*
X0141721Y0016882D01*
X0141721Y0018171D01*
X0143518Y0018171D01*
X0143518Y0016882D01*
X0143518Y0016882D01*
G37*
G36*
X0110244Y0017517D02*
X0108447Y0017517D01*
X0108447Y0018806D01*
X0110244Y0018806D01*
X0110244Y0017517D01*
X0110244Y0017517D01*
G37*
G36*
X0112276Y0017517D02*
X0110479Y0017517D01*
X0110479Y0018806D01*
X0112276Y0018806D01*
X0112276Y0017517D01*
X0112276Y0017517D01*
G37*
G36*
X0149423Y0017707D02*
X0147499Y0017707D01*
X0147499Y0019631D01*
X0149423Y0019631D01*
X0149423Y0017707D01*
X0149423Y0017707D01*
G37*
G36*
X0151963Y0017707D02*
X0150039Y0017707D01*
X0150039Y0019631D01*
X0151963Y0019631D01*
X0151963Y0017707D01*
X0151963Y0017707D01*
G37*
G36*
X0156662Y0017707D02*
X0154738Y0017707D01*
X0154738Y0019631D01*
X0156662Y0019631D01*
X0156662Y0017707D01*
X0156662Y0017707D01*
G37*
G36*
X0159202Y0017707D02*
X0157278Y0017707D01*
X0157278Y0019631D01*
X0159202Y0019631D01*
X0159202Y0017707D01*
X0159202Y0017707D01*
G37*
G36*
X0106017Y0020138D02*
X0106202Y0020100D01*
X0106376Y0020027D01*
X0106532Y0019922D01*
X0106665Y0019788D01*
X0106770Y0019631D01*
X0106841Y0019456D01*
X0106878Y0019272D01*
X0106878Y0019272D01*
X0106878Y0019271D01*
X0106875Y0019056D01*
X0106875Y0019055D01*
X0106875Y0019055D01*
X0106833Y0018872D01*
X0106757Y0018700D01*
X0106648Y0018545D01*
X0106511Y0018415D01*
X0106352Y0018314D01*
X0106176Y0018246D01*
X0105990Y0018213D01*
X0105802Y0018217D01*
X0105617Y0018258D01*
X0105444Y0018333D01*
X0105289Y0018441D01*
X0105158Y0018577D01*
X0105056Y0018735D01*
X0105011Y0018850D01*
X0105002Y0018868D01*
X0104990Y0018883D01*
X0104975Y0018896D01*
X0104957Y0018905D01*
X0104939Y0018911D01*
X0104919Y0018913D01*
X0104900Y0018912D01*
X0104881Y0018906D01*
X0104863Y0018897D01*
X0104848Y0018885D01*
X0104835Y0018870D01*
X0104826Y0018854D01*
X0104758Y0018700D01*
X0104649Y0018545D01*
X0104512Y0018415D01*
X0104353Y0018314D01*
X0104177Y0018246D01*
X0103991Y0018213D01*
X0103803Y0018217D01*
X0103618Y0018258D01*
X0103445Y0018333D01*
X0103291Y0018441D01*
X0103159Y0018577D01*
X0103057Y0018735D01*
X0102988Y0018911D01*
X0102954Y0019096D01*
X0102956Y0019285D01*
X0102996Y0019469D01*
X0103070Y0019643D01*
X0103177Y0019798D01*
X0103311Y0019930D01*
X0103469Y0020034D01*
X0103644Y0020104D01*
X0103829Y0020140D01*
X0104018Y0020138D01*
X0104203Y0020100D01*
X0104377Y0020027D01*
X0104533Y0019922D01*
X0104666Y0019788D01*
X0104771Y0019631D01*
X0104824Y0019502D01*
X0104833Y0019485D01*
X0104845Y0019469D01*
X0104860Y0019457D01*
X0104878Y0019448D01*
X0104896Y0019442D01*
X0104916Y0019440D01*
X0104935Y0019442D01*
X0104954Y0019448D01*
X0104972Y0019457D01*
X0104987Y0019469D01*
X0104999Y0019484D01*
X0105008Y0019501D01*
X0105069Y0019643D01*
X0105175Y0019798D01*
X0105310Y0019930D01*
X0105468Y0020034D01*
X0105643Y0020104D01*
X0105828Y0020140D01*
X0106017Y0020138D01*
X0106017Y0020138D01*
G37*
G36*
X0138820Y0018492D02*
X0130670Y0018492D01*
X0130670Y0019892D01*
X0138820Y0019892D01*
X0138820Y0018492D01*
X0138820Y0018492D01*
G37*
G36*
X0127706Y0018533D02*
X0126417Y0018533D01*
X0126417Y0022235D01*
X0127706Y0022235D01*
X0127706Y0018533D01*
X0127706Y0018533D01*
G37*
G36*
X0125801Y0018533D02*
X0124512Y0018533D01*
X0124512Y0022235D01*
X0125801Y0022235D01*
X0125801Y0018533D01*
X0125801Y0018533D01*
G37*
G36*
X0114625Y0018596D02*
X0112701Y0018596D01*
X0112701Y0020520D01*
X0114625Y0020520D01*
X0114625Y0018596D01*
X0114625Y0018596D01*
G37*
G36*
X0117165Y0018596D02*
X0115241Y0018596D01*
X0115241Y0020520D01*
X0117165Y0020520D01*
X0117165Y0018596D01*
X0117165Y0018596D01*
G37*
G36*
X0119705Y0018596D02*
X0117781Y0018596D01*
X0117781Y0020520D01*
X0119705Y0020520D01*
X0119705Y0018596D01*
X0119705Y0018596D01*
G37*
G36*
X0122690Y0018660D02*
X0120893Y0018660D01*
X0120893Y0019949D01*
X0122690Y0019949D01*
X0122690Y0018660D01*
X0122690Y0018660D01*
G37*
G36*
X0143518Y0018787D02*
X0141721Y0018787D01*
X0141721Y0020076D01*
X0143518Y0020076D01*
X0143518Y0018787D01*
X0143518Y0018787D01*
G37*
G36*
X0112276Y0019422D02*
X0110479Y0019422D01*
X0110479Y0020711D01*
X0112276Y0020711D01*
X0112276Y0019422D01*
X0112276Y0019422D01*
G37*
G36*
X0110244Y0019422D02*
X0108447Y0019422D01*
X0108447Y0020711D01*
X0110244Y0020711D01*
X0110244Y0019422D01*
X0110244Y0019422D01*
G37*
G36*
X0149423Y0020247D02*
X0147499Y0020247D01*
X0147499Y0022171D01*
X0149423Y0022171D01*
X0149423Y0020247D01*
X0149423Y0020247D01*
G37*
G36*
X0151963Y0020247D02*
X0150039Y0020247D01*
X0150039Y0022171D01*
X0151963Y0022171D01*
X0151963Y0020247D01*
X0151963Y0020247D01*
G37*
G36*
X0156662Y0020247D02*
X0154738Y0020247D01*
X0154738Y0022171D01*
X0156662Y0022171D01*
X0156662Y0020247D01*
X0156662Y0020247D01*
G37*
G36*
X0159202Y0020247D02*
X0157278Y0020247D01*
X0157278Y0022171D01*
X0159202Y0022171D01*
X0159202Y0020247D01*
X0159202Y0020247D01*
G37*
G36*
X0123829Y0022033D02*
X0122790Y0022033D01*
X0122770Y0022031D01*
X0122751Y0022025D01*
X0122734Y0022016D01*
X0122719Y0022003D01*
X0122706Y0021988D01*
X0122697Y0021971D01*
X0122691Y0021952D01*
X0122690Y0021933D01*
X0122690Y0020565D01*
X0120893Y0020565D01*
X0120893Y0021854D01*
X0120924Y0021854D01*
X0120943Y0021855D01*
X0120962Y0021861D01*
X0120979Y0021870D01*
X0120994Y0021883D01*
X0121007Y0021898D01*
X0121016Y0021915D01*
X0121022Y0021934D01*
X0121024Y0021954D01*
X0121024Y0023433D01*
X0123829Y0023433D01*
X0123829Y0022033D01*
X0123829Y0022033D01*
G37*
G36*
X0106017Y0022678D02*
X0106202Y0022640D01*
X0106376Y0022567D01*
X0106532Y0022462D01*
X0106665Y0022328D01*
X0106770Y0022171D01*
X0106841Y0021996D01*
X0106878Y0021812D01*
X0106878Y0021812D01*
X0106878Y0021811D01*
X0106875Y0021596D01*
X0106875Y0021595D01*
X0106875Y0021595D01*
X0106833Y0021412D01*
X0106757Y0021240D01*
X0106648Y0021085D01*
X0106511Y0020955D01*
X0106352Y0020854D01*
X0106176Y0020786D01*
X0105990Y0020753D01*
X0105802Y0020757D01*
X0105617Y0020798D01*
X0105444Y0020873D01*
X0105289Y0020981D01*
X0105158Y0021117D01*
X0105056Y0021275D01*
X0105011Y0021390D01*
X0105002Y0021408D01*
X0104990Y0021423D01*
X0104975Y0021436D01*
X0104957Y0021445D01*
X0104939Y0021451D01*
X0104919Y0021453D01*
X0104900Y0021452D01*
X0104881Y0021446D01*
X0104863Y0021437D01*
X0104848Y0021425D01*
X0104835Y0021410D01*
X0104826Y0021394D01*
X0104758Y0021240D01*
X0104649Y0021085D01*
X0104512Y0020955D01*
X0104353Y0020854D01*
X0104177Y0020786D01*
X0103991Y0020753D01*
X0103803Y0020757D01*
X0103618Y0020798D01*
X0103445Y0020873D01*
X0103291Y0020981D01*
X0103159Y0021117D01*
X0103057Y0021275D01*
X0102988Y0021451D01*
X0102954Y0021636D01*
X0102956Y0021825D01*
X0102996Y0022009D01*
X0103070Y0022183D01*
X0103177Y0022338D01*
X0103311Y0022470D01*
X0103469Y0022574D01*
X0103644Y0022644D01*
X0103829Y0022680D01*
X0104018Y0022678D01*
X0104203Y0022640D01*
X0104377Y0022567D01*
X0104533Y0022462D01*
X0104666Y0022328D01*
X0104771Y0022171D01*
X0104824Y0022042D01*
X0104833Y0022025D01*
X0104845Y0022009D01*
X0104860Y0021997D01*
X0104878Y0021988D01*
X0104896Y0021982D01*
X0104916Y0021980D01*
X0104935Y0021982D01*
X0104954Y0021988D01*
X0104972Y0021997D01*
X0104987Y0022009D01*
X0104999Y0022024D01*
X0105008Y0022041D01*
X0105069Y0022183D01*
X0105175Y0022338D01*
X0105310Y0022470D01*
X0105468Y0022574D01*
X0105643Y0022644D01*
X0105828Y0022680D01*
X0106017Y0022678D01*
X0106017Y0022678D01*
G37*
G36*
X0129745Y0020817D02*
X0128345Y0020817D01*
X0128345Y0028967D01*
X0129745Y0028967D01*
X0129745Y0020817D01*
X0129745Y0020817D01*
G37*
G36*
X0141145Y0020817D02*
X0139745Y0020817D01*
X0139745Y0028967D01*
X0141145Y0028967D01*
X0141145Y0020817D01*
X0141145Y0020817D01*
G37*
G36*
X0110180Y0021454D02*
X0109272Y0021454D01*
X0109272Y0022997D01*
X0110180Y0022997D01*
X0110180Y0021454D01*
X0110180Y0021454D01*
G37*
G36*
X0112720Y0021454D02*
X0111812Y0021454D01*
X0111812Y0022997D01*
X0112720Y0022997D01*
X0112720Y0021454D01*
X0112720Y0021454D01*
G37*
G36*
X0113990Y0021454D02*
X0113082Y0021454D01*
X0113082Y0022997D01*
X0113990Y0022997D01*
X0113990Y0021454D01*
X0113990Y0021454D01*
G37*
G36*
X0115260Y0021454D02*
X0114352Y0021454D01*
X0114352Y0022997D01*
X0115260Y0022997D01*
X0115260Y0021454D01*
X0115260Y0021454D01*
G37*
G36*
X0117800Y0021454D02*
X0116892Y0021454D01*
X0116892Y0022997D01*
X0117800Y0022997D01*
X0117800Y0021454D01*
X0117800Y0021454D01*
G37*
G36*
X0116530Y0021454D02*
X0115622Y0021454D01*
X0115622Y0022997D01*
X0116530Y0022997D01*
X0116530Y0021454D01*
X0116530Y0021454D01*
G37*
G36*
X0111450Y0021454D02*
X0110542Y0021454D01*
X0110542Y0022997D01*
X0111450Y0022997D01*
X0111450Y0021454D01*
X0111450Y0021454D01*
G37*
G36*
X0119070Y0021454D02*
X0118162Y0021454D01*
X0118162Y0022997D01*
X0119070Y0022997D01*
X0119070Y0021454D01*
X0119070Y0021454D01*
G37*
G36*
X0127706Y0022597D02*
X0126417Y0022597D01*
X0126417Y0024394D01*
X0127706Y0024394D01*
X0127706Y0022597D01*
X0127706Y0022597D01*
G37*
G36*
X0125801Y0022597D02*
X0124512Y0022597D01*
X0124512Y0024394D01*
X0125801Y0024394D01*
X0125801Y0022597D01*
X0125801Y0022597D01*
G37*
G36*
X0151963Y0022787D02*
X0150039Y0022787D01*
X0150039Y0024711D01*
X0151963Y0024711D01*
X0151963Y0022787D01*
X0151963Y0022787D01*
G37*
G36*
X0156662Y0022787D02*
X0154738Y0022787D01*
X0154738Y0024711D01*
X0156662Y0024711D01*
X0156662Y0022787D01*
X0156662Y0022787D01*
G37*
G36*
X0149423Y0022787D02*
X0147499Y0022787D01*
X0147499Y0024711D01*
X0149423Y0024711D01*
X0149423Y0022787D01*
X0149423Y0022787D01*
G37*
G36*
X0159202Y0022787D02*
X0157278Y0022787D01*
X0157278Y0024711D01*
X0159202Y0024711D01*
X0159202Y0022787D01*
X0159202Y0022787D01*
G37*
G36*
X0145804Y0023867D02*
X0144007Y0023867D01*
X0144007Y0025156D01*
X0145804Y0025156D01*
X0145804Y0023867D01*
X0145804Y0023867D01*
G37*
G36*
X0123829Y0024573D02*
X0121024Y0024573D01*
X0121024Y0025973D01*
X0123829Y0025973D01*
X0123829Y0024573D01*
X0123829Y0024573D01*
G37*
G36*
X0125801Y0024629D02*
X0124512Y0024629D01*
X0124512Y0026426D01*
X0125801Y0026426D01*
X0125801Y0024629D01*
X0125801Y0024629D01*
G37*
G36*
X0127706Y0024629D02*
X0126417Y0024629D01*
X0126417Y0026426D01*
X0127706Y0026426D01*
X0127706Y0024629D01*
X0127706Y0024629D01*
G37*
G36*
X0101380Y0027995D02*
X0101678Y0027934D01*
X0101958Y0027817D01*
X0102210Y0027647D01*
X0102424Y0027431D01*
X0102592Y0027178D01*
X0102708Y0026897D01*
X0102767Y0026599D01*
X0102767Y0026599D01*
X0102767Y0026598D01*
X0102762Y0026251D01*
X0102762Y0026251D01*
X0102762Y0026251D01*
X0102695Y0025955D01*
X0102571Y0025677D01*
X0102396Y0025429D01*
X0102176Y0025219D01*
X0101919Y0025056D01*
X0101636Y0024946D01*
X0101336Y0024894D01*
X0101033Y0024900D01*
X0100736Y0024965D01*
X0100457Y0025087D01*
X0100208Y0025260D01*
X0099996Y0025479D01*
X0099832Y0025735D01*
X0099720Y0026017D01*
X0099665Y0026316D01*
X0099669Y0026620D01*
X0099732Y0026917D01*
X0099852Y0027197D01*
X0100024Y0027448D01*
X0100241Y0027660D01*
X0100495Y0027827D01*
X0100777Y0027941D01*
X0101076Y0027998D01*
X0101380Y0027995D01*
X0101380Y0027995D01*
G37*
G36*
X0156662Y0025327D02*
X0154738Y0025327D01*
X0154738Y0027251D01*
X0156662Y0027251D01*
X0156662Y0025327D01*
X0156662Y0025327D01*
G37*
G36*
X0159202Y0025327D02*
X0157278Y0025327D01*
X0157278Y0027251D01*
X0159202Y0027251D01*
X0159202Y0025327D01*
X0159202Y0025327D01*
G37*
G36*
X0149423Y0025327D02*
X0147499Y0025327D01*
X0147499Y0027251D01*
X0149423Y0027251D01*
X0149423Y0025327D01*
X0149423Y0025327D01*
G37*
G36*
X0151963Y0025327D02*
X0150039Y0025327D01*
X0150039Y0027251D01*
X0151963Y0027251D01*
X0151963Y0025327D01*
X0151963Y0025327D01*
G37*
G36*
X0145804Y0025772D02*
X0144007Y0025772D01*
X0144007Y0027061D01*
X0145804Y0027061D01*
X0145804Y0025772D01*
X0145804Y0025772D01*
G37*
G36*
X0124023Y0026407D02*
X0122734Y0026407D01*
X0122734Y0030109D01*
X0124023Y0030109D01*
X0124023Y0026407D01*
X0124023Y0026407D01*
G37*
G36*
X0122118Y0026407D02*
X0120829Y0026407D01*
X0120829Y0030109D01*
X0122118Y0030109D01*
X0122118Y0026407D01*
X0122118Y0026407D01*
G37*
G36*
X0119070Y0027804D02*
X0118162Y0027804D01*
X0118162Y0029347D01*
X0119070Y0029347D01*
X0119070Y0027804D01*
X0119070Y0027804D01*
G37*
G36*
X0116530Y0027804D02*
X0115622Y0027804D01*
X0115622Y0029347D01*
X0116530Y0029347D01*
X0116530Y0027804D01*
X0116530Y0027804D01*
G37*
G36*
X0115260Y0027804D02*
X0114352Y0027804D01*
X0114352Y0029347D01*
X0115260Y0029347D01*
X0115260Y0027804D01*
X0115260Y0027804D01*
G37*
G36*
X0113990Y0027804D02*
X0113082Y0027804D01*
X0113082Y0029347D01*
X0113990Y0029347D01*
X0113990Y0027804D01*
X0113990Y0027804D01*
G37*
G36*
X0112720Y0027804D02*
X0111812Y0027804D01*
X0111812Y0029347D01*
X0112720Y0029347D01*
X0112720Y0027804D01*
X0112720Y0027804D01*
G37*
G36*
X0111450Y0027804D02*
X0110542Y0027804D01*
X0110542Y0029347D01*
X0111450Y0029347D01*
X0111450Y0027804D01*
X0111450Y0027804D01*
G37*
G36*
X0110180Y0027804D02*
X0109272Y0027804D01*
X0109272Y0029347D01*
X0110180Y0029347D01*
X0110180Y0027804D01*
X0110180Y0027804D01*
G37*
G36*
X0117800Y0027804D02*
X0116892Y0027804D01*
X0116892Y0029347D01*
X0117800Y0029347D01*
X0117800Y0027804D01*
X0117800Y0027804D01*
G37*
G36*
X0149423Y0027867D02*
X0147499Y0027867D01*
X0147499Y0029791D01*
X0149423Y0029791D01*
X0149423Y0027867D01*
X0149423Y0027867D01*
G37*
G36*
X0151963Y0027867D02*
X0150039Y0027867D01*
X0150039Y0029791D01*
X0151963Y0029791D01*
X0151963Y0027867D01*
X0151963Y0027867D01*
G37*
G36*
X0156662Y0027867D02*
X0154738Y0027867D01*
X0154738Y0029791D01*
X0156662Y0029791D01*
X0156662Y0027867D01*
X0156662Y0027867D01*
G37*
G36*
X0159202Y0027867D02*
X0157278Y0027867D01*
X0157278Y0029791D01*
X0159202Y0029791D01*
X0159202Y0027867D01*
X0159202Y0027867D01*
G37*
G36*
X0127008Y0028629D02*
X0125211Y0028629D01*
X0125211Y0029918D01*
X0127008Y0029918D01*
X0127008Y0028629D01*
X0127008Y0028629D01*
G37*
G36*
X0138820Y0029892D02*
X0130670Y0029892D01*
X0130670Y0031292D01*
X0138820Y0031292D01*
X0138820Y0029892D01*
X0138820Y0029892D01*
G37*
G36*
X0105672Y0030534D02*
X0103875Y0030534D01*
X0103875Y0031823D01*
X0105672Y0031823D01*
X0105672Y0030534D01*
X0105672Y0030534D01*
G37*
G36*
X0102624Y0030534D02*
X0100827Y0030534D01*
X0100827Y0031823D01*
X0102624Y0031823D01*
X0102624Y0030534D01*
X0102624Y0030534D01*
G37*
G36*
X0127008Y0030534D02*
X0125211Y0030534D01*
X0125211Y0031823D01*
X0127008Y0031823D01*
X0127008Y0030534D01*
X0127008Y0030534D01*
G37*
G36*
X0124722Y0030534D02*
X0122925Y0030534D01*
X0122925Y0031823D01*
X0124722Y0031823D01*
X0124722Y0030534D01*
X0124722Y0030534D01*
G37*
G36*
X0121547Y0030534D02*
X0119750Y0030534D01*
X0119750Y0031823D01*
X0121547Y0031823D01*
X0121547Y0030534D01*
X0121547Y0030534D01*
G37*
G36*
X0115197Y0030534D02*
X0113400Y0030534D01*
X0113400Y0031823D01*
X0115197Y0031823D01*
X0115197Y0030534D01*
X0115197Y0030534D01*
G37*
G36*
X0112022Y0030534D02*
X0110225Y0030534D01*
X0110225Y0031823D01*
X0112022Y0031823D01*
X0112022Y0030534D01*
X0112022Y0030534D01*
G37*
G36*
X0108847Y0030534D02*
X0107050Y0030534D01*
X0107050Y0031823D01*
X0108847Y0031823D01*
X0108847Y0030534D01*
X0108847Y0030534D01*
G37*
G36*
X0118245Y0030534D02*
X0116448Y0030534D01*
X0116448Y0031823D01*
X0118245Y0031823D01*
X0118245Y0030534D01*
X0118245Y0030534D01*
G37*
G36*
X0144026Y0032876D02*
X0144027Y0032856D01*
X0144033Y0032837D01*
X0144042Y0032820D01*
X0144055Y0032805D01*
X0144070Y0032792D01*
X0144087Y0032783D01*
X0144106Y0032777D01*
X0144126Y0032776D01*
X0145296Y0032776D01*
X0145296Y0030979D01*
X0144007Y0030979D01*
X0144007Y0032784D01*
X0144005Y0032803D01*
X0143999Y0032822D01*
X0143990Y0032839D01*
X0143977Y0032854D01*
X0143962Y0032867D01*
X0143945Y0032876D01*
X0143926Y0032882D01*
X0143907Y0032884D01*
X0143491Y0032884D01*
X0143471Y0032882D01*
X0143452Y0032876D01*
X0143435Y0032867D01*
X0143420Y0032854D01*
X0143407Y0032839D01*
X0143398Y0032822D01*
X0143392Y0032803D01*
X0143391Y0032784D01*
X0143391Y0030979D01*
X0142102Y0030979D01*
X0142102Y0032776D01*
X0142129Y0032776D01*
X0142148Y0032777D01*
X0142167Y0032783D01*
X0142184Y0032792D01*
X0142199Y0032805D01*
X0142212Y0032820D01*
X0142221Y0032837D01*
X0142227Y0032856D01*
X0142229Y0032876D01*
X0142229Y0034173D01*
X0144026Y0034173D01*
X0144026Y0032876D01*
X0144026Y0032876D01*
G37*
G36*
X0096092Y0038504D02*
X0096707Y0038378D01*
X0097285Y0038135D01*
X0097806Y0037784D01*
X0098248Y0037338D01*
X0098595Y0036816D01*
X0098834Y0036235D01*
X0098956Y0035620D01*
X0098956Y0035620D01*
X0098956Y0035620D01*
X0098946Y0034903D01*
X0098946Y0034902D01*
X0098946Y0034902D01*
X0098807Y0034291D01*
X0098552Y0033718D01*
X0098190Y0033205D01*
X0097736Y0032772D01*
X0097206Y0032436D01*
X0096621Y0032209D01*
X0096003Y0032100D01*
X0095375Y0032113D01*
X0094762Y0032248D01*
X0094187Y0032499D01*
X0093672Y0032857D01*
X0093236Y0033309D01*
X0092896Y0033836D01*
X0092665Y0034420D01*
X0092552Y0035037D01*
X0092561Y0035664D01*
X0092691Y0036278D01*
X0092938Y0036855D01*
X0093293Y0037373D01*
X0093741Y0037812D01*
X0094266Y0038156D01*
X0094848Y0038391D01*
X0095465Y0038508D01*
X0096092Y0038504D01*
X0096092Y0038504D01*
G37*
G36*
X0157052Y0038504D02*
X0157667Y0038378D01*
X0158245Y0038135D01*
X0158766Y0037784D01*
X0159208Y0037338D01*
X0159555Y0036816D01*
X0159794Y0036235D01*
X0159916Y0035620D01*
X0159916Y0035620D01*
X0159916Y0035620D01*
X0159906Y0034903D01*
X0159906Y0034902D01*
X0159906Y0034902D01*
X0159767Y0034291D01*
X0159512Y0033718D01*
X0159150Y0033205D01*
X0158696Y0032772D01*
X0158166Y0032436D01*
X0157581Y0032209D01*
X0156963Y0032100D01*
X0156335Y0032113D01*
X0155722Y0032248D01*
X0155147Y0032499D01*
X0154632Y0032857D01*
X0154196Y0033309D01*
X0153856Y0033836D01*
X0153625Y0034420D01*
X0153512Y0035037D01*
X0153521Y0035664D01*
X0153651Y0036278D01*
X0153898Y0036855D01*
X0154253Y0037373D01*
X0154701Y0037812D01*
X0155226Y0038156D01*
X0155808Y0038391D01*
X0156425Y0038508D01*
X0157052Y0038504D01*
X0157052Y0038504D01*
G37*
G36*
X0118245Y0032439D02*
X0116448Y0032439D01*
X0116448Y0033728D01*
X0118245Y0033728D01*
X0118245Y0032439D01*
X0118245Y0032439D01*
G37*
G36*
X0124722Y0032439D02*
X0122925Y0032439D01*
X0122925Y0033728D01*
X0124722Y0033728D01*
X0124722Y0032439D01*
X0124722Y0032439D01*
G37*
G36*
X0121547Y0032439D02*
X0119750Y0032439D01*
X0119750Y0033728D01*
X0121547Y0033728D01*
X0121547Y0032439D01*
X0121547Y0032439D01*
G37*
G36*
X0115197Y0032439D02*
X0113400Y0032439D01*
X0113400Y0033728D01*
X0115197Y0033728D01*
X0115197Y0032439D01*
X0115197Y0032439D01*
G37*
G36*
X0108898Y0037985D02*
X0108900Y0037966D01*
X0108906Y0037947D01*
X0108915Y0037930D01*
X0108927Y0037914D01*
X0108940Y0037904D01*
X0109155Y0037687D01*
X0109323Y0037434D01*
X0109440Y0037150D01*
X0109444Y0037137D01*
X0109453Y0037120D01*
X0109466Y0037105D01*
X0109481Y0037093D01*
X0109498Y0037083D01*
X0109517Y0037078D01*
X0109536Y0037076D01*
X0109556Y0037078D01*
X0109575Y0037083D01*
X0109592Y0037092D01*
X0109607Y0037105D01*
X0109620Y0037120D01*
X0109629Y0037137D01*
X0109634Y0037155D01*
X0109638Y0037174D01*
X0109758Y0037453D01*
X0109930Y0037704D01*
X0110143Y0037913D01*
X0110156Y0037928D01*
X0110165Y0037945D01*
X0110171Y0037964D01*
X0110173Y0037984D01*
X0110173Y0039428D01*
X0112073Y0039428D01*
X0112073Y0037985D01*
X0112075Y0037966D01*
X0112081Y0037947D01*
X0112090Y0037930D01*
X0112102Y0037914D01*
X0112115Y0037904D01*
X0112330Y0037687D01*
X0112498Y0037434D01*
X0112615Y0037150D01*
X0112619Y0037137D01*
X0112628Y0037120D01*
X0112641Y0037105D01*
X0112656Y0037093D01*
X0112673Y0037083D01*
X0112692Y0037078D01*
X0112711Y0037076D01*
X0112731Y0037078D01*
X0112750Y0037083D01*
X0112767Y0037092D01*
X0112782Y0037105D01*
X0112795Y0037120D01*
X0112804Y0037137D01*
X0112809Y0037155D01*
X0112813Y0037174D01*
X0112933Y0037453D01*
X0113105Y0037704D01*
X0113318Y0037913D01*
X0113331Y0037928D01*
X0113340Y0037945D01*
X0113346Y0037964D01*
X0113348Y0037984D01*
X0113348Y0039428D01*
X0115248Y0039428D01*
X0115248Y0037985D01*
X0115250Y0037966D01*
X0115256Y0037947D01*
X0115265Y0037930D01*
X0115277Y0037914D01*
X0115290Y0037904D01*
X0115505Y0037687D01*
X0115673Y0037434D01*
X0115790Y0037150D01*
X0115794Y0037137D01*
X0115803Y0037120D01*
X0115816Y0037105D01*
X0115831Y0037093D01*
X0115848Y0037083D01*
X0115867Y0037078D01*
X0115886Y0037076D01*
X0115906Y0037078D01*
X0115925Y0037083D01*
X0115942Y0037092D01*
X0115957Y0037105D01*
X0115970Y0037120D01*
X0115979Y0037137D01*
X0115984Y0037155D01*
X0115988Y0037174D01*
X0116108Y0037453D01*
X0116280Y0037704D01*
X0116493Y0037913D01*
X0116506Y0037928D01*
X0116515Y0037945D01*
X0116521Y0037964D01*
X0116523Y0037984D01*
X0116523Y0039428D01*
X0118423Y0039428D01*
X0118423Y0037985D01*
X0118425Y0037966D01*
X0118431Y0037947D01*
X0118440Y0037930D01*
X0118452Y0037914D01*
X0118465Y0037904D01*
X0118680Y0037687D01*
X0118848Y0037434D01*
X0118965Y0037150D01*
X0118969Y0037137D01*
X0118978Y0037120D01*
X0118991Y0037105D01*
X0119006Y0037093D01*
X0119023Y0037083D01*
X0119042Y0037078D01*
X0119061Y0037076D01*
X0119081Y0037078D01*
X0119100Y0037083D01*
X0119117Y0037092D01*
X0119132Y0037105D01*
X0119145Y0037120D01*
X0119154Y0037137D01*
X0119159Y0037155D01*
X0119163Y0037174D01*
X0119283Y0037453D01*
X0119455Y0037704D01*
X0119668Y0037913D01*
X0119681Y0037928D01*
X0119690Y0037945D01*
X0119696Y0037964D01*
X0119698Y0037984D01*
X0119698Y0039428D01*
X0121598Y0039428D01*
X0121598Y0037985D01*
X0121600Y0037966D01*
X0121606Y0037947D01*
X0121615Y0037930D01*
X0121627Y0037914D01*
X0121640Y0037904D01*
X0121855Y0037687D01*
X0122023Y0037434D01*
X0122140Y0037150D01*
X0122144Y0037137D01*
X0122153Y0037120D01*
X0122166Y0037105D01*
X0122181Y0037093D01*
X0122198Y0037083D01*
X0122217Y0037078D01*
X0122236Y0037076D01*
X0122256Y0037078D01*
X0122275Y0037083D01*
X0122292Y0037092D01*
X0122307Y0037105D01*
X0122320Y0037120D01*
X0122329Y0037137D01*
X0122334Y0037155D01*
X0122338Y0037174D01*
X0122458Y0037453D01*
X0122630Y0037704D01*
X0122843Y0037913D01*
X0122856Y0037928D01*
X0122865Y0037945D01*
X0122871Y0037964D01*
X0122873Y0037984D01*
X0122873Y0039428D01*
X0124773Y0039428D01*
X0124773Y0037985D01*
X0124775Y0037966D01*
X0124781Y0037947D01*
X0124790Y0037930D01*
X0124802Y0037914D01*
X0124815Y0037904D01*
X0125030Y0037687D01*
X0125198Y0037434D01*
X0125314Y0037153D01*
X0125373Y0036856D01*
X0125373Y0036856D01*
X0125373Y0036855D01*
X0125368Y0036508D01*
X0125368Y0036507D01*
X0125368Y0036507D01*
X0125301Y0036211D01*
X0125177Y0035934D01*
X0125002Y0035685D01*
X0124804Y0035497D01*
X0124791Y0035482D01*
X0124782Y0035465D01*
X0124775Y0035446D01*
X0124773Y0035424D01*
X0124773Y0033978D01*
X0122873Y0033978D01*
X0122873Y0035423D01*
X0122871Y0035443D01*
X0122865Y0035462D01*
X0122856Y0035479D01*
X0122844Y0035494D01*
X0122830Y0035505D01*
X0122814Y0035517D01*
X0122602Y0035736D01*
X0122438Y0035991D01*
X0122327Y0036271D01*
X0122318Y0036289D01*
X0122306Y0036304D01*
X0122291Y0036317D01*
X0122273Y0036326D01*
X0122255Y0036332D01*
X0122235Y0036335D01*
X0122216Y0036333D01*
X0122197Y0036328D01*
X0122179Y0036319D01*
X0122164Y0036306D01*
X0122151Y0036292D01*
X0122142Y0036274D01*
X0122136Y0036257D01*
X0122126Y0036211D01*
X0122002Y0035934D01*
X0121827Y0035685D01*
X0121629Y0035497D01*
X0121616Y0035482D01*
X0121607Y0035465D01*
X0121600Y0035446D01*
X0121598Y0035424D01*
X0121598Y0033978D01*
X0119698Y0033978D01*
X0119698Y0035423D01*
X0119696Y0035443D01*
X0119690Y0035462D01*
X0119681Y0035479D01*
X0119669Y0035494D01*
X0119655Y0035505D01*
X0119639Y0035517D01*
X0119427Y0035736D01*
X0119263Y0035991D01*
X0119152Y0036271D01*
X0119143Y0036289D01*
X0119131Y0036304D01*
X0119116Y0036317D01*
X0119098Y0036326D01*
X0119080Y0036332D01*
X0119060Y0036335D01*
X0119041Y0036333D01*
X0119022Y0036328D01*
X0119004Y0036319D01*
X0118989Y0036306D01*
X0118976Y0036292D01*
X0118967Y0036274D01*
X0118961Y0036257D01*
X0118951Y0036211D01*
X0118827Y0035934D01*
X0118652Y0035685D01*
X0118454Y0035497D01*
X0118441Y0035482D01*
X0118432Y0035465D01*
X0118425Y0035446D01*
X0118423Y0035424D01*
X0118423Y0033978D01*
X0116523Y0033978D01*
X0116523Y0035423D01*
X0116521Y0035443D01*
X0116515Y0035462D01*
X0116506Y0035479D01*
X0116494Y0035494D01*
X0116480Y0035505D01*
X0116464Y0035517D01*
X0116252Y0035736D01*
X0116088Y0035991D01*
X0115977Y0036271D01*
X0115968Y0036289D01*
X0115956Y0036304D01*
X0115941Y0036317D01*
X0115923Y0036326D01*
X0115905Y0036332D01*
X0115885Y0036335D01*
X0115866Y0036333D01*
X0115847Y0036328D01*
X0115829Y0036319D01*
X0115814Y0036306D01*
X0115801Y0036292D01*
X0115792Y0036274D01*
X0115786Y0036257D01*
X0115776Y0036211D01*
X0115652Y0035934D01*
X0115477Y0035685D01*
X0115279Y0035497D01*
X0115266Y0035482D01*
X0115257Y0035465D01*
X0115250Y0035446D01*
X0115248Y0035424D01*
X0115248Y0033978D01*
X0113348Y0033978D01*
X0113348Y0035423D01*
X0113346Y0035443D01*
X0113340Y0035462D01*
X0113331Y0035479D01*
X0113319Y0035494D01*
X0113305Y0035505D01*
X0113289Y0035517D01*
X0113077Y0035736D01*
X0112913Y0035991D01*
X0112802Y0036271D01*
X0112793Y0036289D01*
X0112781Y0036304D01*
X0112766Y0036317D01*
X0112748Y0036326D01*
X0112730Y0036332D01*
X0112710Y0036335D01*
X0112691Y0036333D01*
X0112672Y0036328D01*
X0112654Y0036319D01*
X0112639Y0036306D01*
X0112626Y0036292D01*
X0112617Y0036274D01*
X0112611Y0036257D01*
X0112601Y0036211D01*
X0112477Y0035934D01*
X0112302Y0035685D01*
X0112104Y0035497D01*
X0112091Y0035482D01*
X0112082Y0035465D01*
X0112075Y0035446D01*
X0112073Y0035424D01*
X0112073Y0033978D01*
X0110173Y0033978D01*
X0110173Y0035423D01*
X0110171Y0035443D01*
X0110165Y0035462D01*
X0110156Y0035479D01*
X0110144Y0035494D01*
X0110130Y0035505D01*
X0110114Y0035517D01*
X0109902Y0035736D01*
X0109738Y0035991D01*
X0109627Y0036271D01*
X0109618Y0036289D01*
X0109606Y0036304D01*
X0109591Y0036317D01*
X0109573Y0036326D01*
X0109555Y0036332D01*
X0109535Y0036335D01*
X0109516Y0036333D01*
X0109497Y0036328D01*
X0109479Y0036319D01*
X0109464Y0036306D01*
X0109451Y0036292D01*
X0109442Y0036274D01*
X0109436Y0036257D01*
X0109426Y0036211D01*
X0109302Y0035934D01*
X0109127Y0035685D01*
X0108929Y0035497D01*
X0108916Y0035482D01*
X0108907Y0035465D01*
X0108900Y0035446D01*
X0108898Y0035424D01*
X0108898Y0033978D01*
X0106998Y0033978D01*
X0106998Y0035423D01*
X0106996Y0035443D01*
X0106990Y0035462D01*
X0106981Y0035479D01*
X0106969Y0035494D01*
X0106955Y0035505D01*
X0106939Y0035517D01*
X0106727Y0035736D01*
X0106563Y0035991D01*
X0106501Y0036148D01*
X0106492Y0036166D01*
X0106479Y0036181D01*
X0106464Y0036194D01*
X0106447Y0036203D01*
X0106429Y0036209D01*
X0106409Y0036211D01*
X0106390Y0036210D01*
X0106371Y0036204D01*
X0106353Y0036195D01*
X0106338Y0036183D01*
X0106325Y0036168D01*
X0106316Y0036152D01*
X0106191Y0035870D01*
X0106016Y0035622D01*
X0105818Y0035433D01*
X0105805Y0035418D01*
X0105795Y0035401D01*
X0105789Y0035383D01*
X0105787Y0035361D01*
X0105787Y0033915D01*
X0105772Y0033915D01*
X0105752Y0033913D01*
X0105733Y0033907D01*
X0105716Y0033898D01*
X0105701Y0033885D01*
X0105688Y0033870D01*
X0105679Y0033853D01*
X0105673Y0033834D01*
X0105672Y0033815D01*
X0105672Y0032439D01*
X0103875Y0032439D01*
X0103875Y0033782D01*
X0103879Y0033790D01*
X0103885Y0033808D01*
X0103887Y0033828D01*
X0103887Y0035360D01*
X0103885Y0035379D01*
X0103879Y0035398D01*
X0103870Y0035415D01*
X0103857Y0035431D01*
X0103844Y0035442D01*
X0103827Y0035453D01*
X0103616Y0035672D01*
X0103451Y0035928D01*
X0103340Y0036208D01*
X0103331Y0036225D01*
X0103319Y0036241D01*
X0103304Y0036253D01*
X0103287Y0036263D01*
X0103268Y0036269D01*
X0103249Y0036271D01*
X0103229Y0036270D01*
X0103210Y0036264D01*
X0103193Y0036255D01*
X0103178Y0036243D01*
X0103165Y0036228D01*
X0103155Y0036211D01*
X0103150Y0036193D01*
X0103139Y0036148D01*
X0103016Y0035870D01*
X0102841Y0035622D01*
X0102643Y0035433D01*
X0102630Y0035418D01*
X0102620Y0035401D01*
X0102614Y0035383D01*
X0102612Y0035361D01*
X0102612Y0033828D01*
X0102613Y0033808D01*
X0102619Y0033790D01*
X0102624Y0033782D01*
X0102624Y0032439D01*
X0100827Y0032439D01*
X0100827Y0033815D01*
X0100825Y0033834D01*
X0100819Y0033853D01*
X0100810Y0033870D01*
X0100797Y0033885D01*
X0100782Y0033898D01*
X0100765Y0033907D01*
X0100746Y0033913D01*
X0100727Y0033915D01*
X0100712Y0033915D01*
X0100712Y0035360D01*
X0100710Y0035379D01*
X0100704Y0035398D01*
X0100695Y0035415D01*
X0100682Y0035431D01*
X0100669Y0035442D01*
X0100652Y0035453D01*
X0100441Y0035672D01*
X0100276Y0035928D01*
X0100164Y0036210D01*
X0100109Y0036509D01*
X0100114Y0036813D01*
X0100177Y0037110D01*
X0100297Y0037390D01*
X0100468Y0037641D01*
X0100681Y0037849D01*
X0100694Y0037864D01*
X0100703Y0037882D01*
X0100709Y0037900D01*
X0100712Y0037921D01*
X0100712Y0039365D01*
X0102612Y0039365D01*
X0102612Y0037922D01*
X0102613Y0037902D01*
X0102619Y0037883D01*
X0102628Y0037866D01*
X0102641Y0037851D01*
X0102653Y0037841D01*
X0102868Y0037624D01*
X0103037Y0037371D01*
X0103154Y0037087D01*
X0103158Y0037074D01*
X0103167Y0037057D01*
X0103179Y0037041D01*
X0103194Y0037029D01*
X0103212Y0037020D01*
X0103230Y0037014D01*
X0103250Y0037012D01*
X0103269Y0037014D01*
X0103288Y0037020D01*
X0103306Y0037029D01*
X0103321Y0037041D01*
X0103333Y0037056D01*
X0103342Y0037074D01*
X0103348Y0037091D01*
X0103352Y0037110D01*
X0103472Y0037390D01*
X0103643Y0037641D01*
X0103856Y0037849D01*
X0103869Y0037864D01*
X0103878Y0037882D01*
X0103884Y0037900D01*
X0103887Y0037921D01*
X0103887Y0039365D01*
X0105787Y0039365D01*
X0105787Y0037922D01*
X0105788Y0037902D01*
X0105794Y0037883D01*
X0105803Y0037866D01*
X0105816Y0037851D01*
X0105828Y0037841D01*
X0106043Y0037624D01*
X0106212Y0037371D01*
X0106286Y0037191D01*
X0106295Y0037174D01*
X0106307Y0037158D01*
X0106323Y0037146D01*
X0106340Y0037137D01*
X0106359Y0037131D01*
X0106378Y0037129D01*
X0106398Y0037131D01*
X0106416Y0037137D01*
X0106434Y0037146D01*
X0106449Y0037158D01*
X0106461Y0037173D01*
X0106470Y0037190D01*
X0106583Y0037453D01*
X0106755Y0037704D01*
X0106968Y0037913D01*
X0106981Y0037928D01*
X0106990Y0037945D01*
X0106996Y0037964D01*
X0106998Y0037984D01*
X0106998Y0039428D01*
X0108898Y0039428D01*
X0108898Y0037985D01*
X0108898Y0037985D01*
G37*
G36*
X0112022Y0032439D02*
X0110225Y0032439D01*
X0110225Y0033728D01*
X0112022Y0033728D01*
X0112022Y0032439D01*
X0112022Y0032439D01*
G37*
G36*
X0108847Y0032439D02*
X0107050Y0032439D01*
X0107050Y0033728D01*
X0108847Y0033728D01*
X0108847Y0032439D01*
X0108847Y0032439D01*
G37*
G36*
X0141994Y0032884D02*
X0140197Y0032884D01*
X0140197Y0034173D01*
X0141994Y0034173D01*
X0141994Y0032884D01*
X0141994Y0032884D01*
G37*
G36*
X0139581Y0032884D02*
X0137784Y0032884D01*
X0137784Y0034173D01*
X0139581Y0034173D01*
X0139581Y0032884D01*
X0139581Y0032884D01*
G37*
G36*
X0137295Y0032884D02*
X0135498Y0032884D01*
X0135498Y0034173D01*
X0137295Y0034173D01*
X0137295Y0032884D01*
X0137295Y0032884D01*
G37*
G36*
X0150820Y0032947D02*
X0148896Y0032947D01*
X0148896Y0034871D01*
X0150820Y0034871D01*
X0150820Y0032947D01*
X0150820Y0032947D01*
G37*
G36*
X0133349Y0035113D02*
X0133531Y0035075D01*
X0133703Y0035003D01*
X0133858Y0034899D01*
X0133989Y0034767D01*
X0134092Y0034611D01*
X0134163Y0034439D01*
X0134199Y0034257D01*
X0134199Y0034257D01*
X0134200Y0034256D01*
X0134197Y0034043D01*
X0134196Y0034043D01*
X0134196Y0034043D01*
X0134155Y0033861D01*
X0134079Y0033691D01*
X0133972Y0033539D01*
X0133837Y0033410D01*
X0133680Y0033310D01*
X0133506Y0033243D01*
X0133322Y0033211D01*
X0133136Y0033215D01*
X0132954Y0033255D01*
X0132783Y0033329D01*
X0132630Y0033436D01*
X0132500Y0033570D01*
X0132399Y0033726D01*
X0132331Y0033900D01*
X0132297Y0034083D01*
X0132300Y0034269D01*
X0132338Y0034452D01*
X0132412Y0034623D01*
X0132517Y0034777D01*
X0132650Y0034907D01*
X0132806Y0035009D01*
X0132979Y0035079D01*
X0133162Y0035114D01*
X0133349Y0035113D01*
X0133349Y0035113D01*
G37*
G36*
X0128467Y0035113D02*
X0128650Y0035075D01*
X0128821Y0035003D01*
X0128976Y0034899D01*
X0129107Y0034767D01*
X0129210Y0034611D01*
X0129281Y0034439D01*
X0129318Y0034257D01*
X0129318Y0034257D01*
X0129318Y0034256D01*
X0129315Y0034043D01*
X0129315Y0034043D01*
X0129315Y0034043D01*
X0129273Y0033861D01*
X0129198Y0033691D01*
X0129090Y0033539D01*
X0128955Y0033410D01*
X0128798Y0033310D01*
X0128624Y0033243D01*
X0128440Y0033211D01*
X0128254Y0033215D01*
X0128072Y0033255D01*
X0127901Y0033329D01*
X0127748Y0033436D01*
X0127618Y0033570D01*
X0127518Y0033726D01*
X0127449Y0033900D01*
X0127415Y0034083D01*
X0127418Y0034269D01*
X0127457Y0034452D01*
X0127530Y0034623D01*
X0127635Y0034777D01*
X0127769Y0034907D01*
X0127925Y0035009D01*
X0128097Y0035079D01*
X0128280Y0035114D01*
X0128467Y0035113D01*
X0128467Y0035113D01*
G37*
G36*
X0137295Y0034789D02*
X0135498Y0034789D01*
X0135498Y0036078D01*
X0137295Y0036078D01*
X0137295Y0034789D01*
X0137295Y0034789D01*
G37*
G36*
X0144026Y0034789D02*
X0142229Y0034789D01*
X0142229Y0036078D01*
X0144026Y0036078D01*
X0144026Y0034789D01*
X0144026Y0034789D01*
G37*
G36*
X0141994Y0034789D02*
X0140197Y0034789D01*
X0140197Y0036078D01*
X0141994Y0036078D01*
X0141994Y0034789D01*
X0141994Y0034789D01*
G37*
G36*
X0139581Y0034789D02*
X0137784Y0034789D01*
X0137784Y0036078D01*
X0139581Y0036078D01*
X0139581Y0034789D01*
X0139581Y0034789D01*
G37*
G36*
X0147455Y0035043D02*
X0145658Y0035043D01*
X0145658Y0036332D01*
X0147455Y0036332D01*
X0147455Y0035043D01*
X0147455Y0035043D01*
G37*
G36*
X0150820Y0035487D02*
X0148896Y0035487D01*
X0148896Y0037411D01*
X0150820Y0037411D01*
X0150820Y0035487D01*
X0150820Y0035487D01*
G37*
G36*
X0133294Y0035932D02*
X0132005Y0035932D01*
X0132005Y0037729D01*
X0133294Y0037729D01*
X0133294Y0035932D01*
X0133294Y0035932D01*
G37*
G36*
X0131389Y0035932D02*
X0130100Y0035932D01*
X0130100Y0037729D01*
X0131389Y0037729D01*
X0131389Y0035932D01*
X0131389Y0035932D01*
G37*
G36*
X0129865Y0035932D02*
X0128576Y0035932D01*
X0128576Y0037729D01*
X0129865Y0037729D01*
X0129865Y0035932D01*
X0129865Y0035932D01*
G37*
G36*
X0127960Y0035932D02*
X0126671Y0035932D01*
X0126671Y0037729D01*
X0127960Y0037729D01*
X0127960Y0035932D01*
X0127960Y0035932D01*
G37*
G36*
X0136723Y0036567D02*
X0135434Y0036567D01*
X0135434Y0038364D01*
X0136723Y0038364D01*
X0136723Y0036567D01*
X0136723Y0036567D01*
G37*
G36*
X0144026Y0036567D02*
X0142737Y0036567D01*
X0142737Y0038364D01*
X0144026Y0038364D01*
X0144026Y0036567D01*
X0144026Y0036567D01*
G37*
G36*
X0142121Y0036567D02*
X0140832Y0036567D01*
X0140832Y0038364D01*
X0142121Y0038364D01*
X0142121Y0036567D01*
X0142121Y0036567D01*
G37*
G36*
X0138438Y0036567D02*
X0137149Y0036567D01*
X0137149Y0038364D01*
X0138438Y0038364D01*
X0138438Y0036567D01*
X0138438Y0036567D01*
G37*
G36*
X0140343Y0036567D02*
X0139054Y0036567D01*
X0139054Y0038364D01*
X0140343Y0038364D01*
X0140343Y0036567D01*
X0140343Y0036567D01*
G37*
G36*
X0134818Y0036567D02*
X0133529Y0036567D01*
X0133529Y0038364D01*
X0134818Y0038364D01*
X0134818Y0036567D01*
X0134818Y0036567D01*
G37*
G36*
X0147455Y0036948D02*
X0145658Y0036948D01*
X0145658Y0038237D01*
X0147455Y0038237D01*
X0147455Y0036948D01*
X0147455Y0036948D01*
G37*
X0090930Y0040130D02*
%LPD*%
G01*
D44*
G36*
X0096092Y0048154D02*
X0096707Y0048028D01*
X0097285Y0047785D01*
X0097806Y0047434D01*
X0098248Y0046988D01*
X0098595Y0046466D01*
X0098834Y0045885D01*
X0098956Y0045270D01*
X0098956Y0045270D01*
X0098956Y0045270D01*
X0098946Y0044553D01*
X0098946Y0044552D01*
X0098946Y0044552D01*
X0098807Y0043941D01*
X0098552Y0043368D01*
X0098190Y0042855D01*
X0097736Y0042422D01*
X0097206Y0042086D01*
X0096621Y0041859D01*
X0096003Y0041750D01*
X0095375Y0041763D01*
X0094762Y0041898D01*
X0094187Y0042149D01*
X0093672Y0042507D01*
X0093236Y0042959D01*
X0092896Y0043486D01*
X0092665Y0044070D01*
X0092552Y0044687D01*
X0092561Y0045314D01*
X0092691Y0045928D01*
X0092938Y0046505D01*
X0093293Y0047023D01*
X0093741Y0047462D01*
X0094266Y0047806D01*
X0094848Y0048041D01*
X0095465Y0048158D01*
X0096092Y0048154D01*
X0096092Y0048154D01*
G37*
G36*
X0157052Y0048154D02*
X0157667Y0048028D01*
X0158245Y0047785D01*
X0158766Y0047434D01*
X0159208Y0046988D01*
X0159555Y0046466D01*
X0159794Y0045885D01*
X0159916Y0045270D01*
X0159916Y0045270D01*
X0159916Y0045270D01*
X0159906Y0044553D01*
X0159906Y0044552D01*
X0159906Y0044552D01*
X0159767Y0043941D01*
X0159512Y0043368D01*
X0159150Y0042855D01*
X0158696Y0042422D01*
X0158166Y0042086D01*
X0157581Y0041859D01*
X0156963Y0041750D01*
X0156335Y0041763D01*
X0155722Y0041898D01*
X0155147Y0042149D01*
X0154632Y0042507D01*
X0154196Y0042959D01*
X0153856Y0043486D01*
X0153625Y0044070D01*
X0153512Y0044687D01*
X0153521Y0045314D01*
X0153651Y0045928D01*
X0153898Y0046505D01*
X0154253Y0047023D01*
X0154701Y0047462D01*
X0155226Y0047806D01*
X0155808Y0048041D01*
X0156425Y0048158D01*
X0157052Y0048154D01*
X0157052Y0048154D01*
G37*
G36*
X0145867Y0041835D02*
X0143943Y0041835D01*
X0143943Y0043759D01*
X0145867Y0043759D01*
X0145867Y0041835D01*
X0145867Y0041835D01*
G37*
G36*
X0136406Y0041899D02*
X0134482Y0041899D01*
X0134482Y0043823D01*
X0136406Y0043823D01*
X0136406Y0041899D01*
X0136406Y0041899D01*
G37*
G36*
X0128786Y0041899D02*
X0126862Y0041899D01*
X0126862Y0043823D01*
X0128786Y0043823D01*
X0128786Y0041899D01*
X0128786Y0041899D01*
G37*
G36*
X0126246Y0041899D02*
X0124322Y0041899D01*
X0124322Y0043823D01*
X0126246Y0043823D01*
X0126246Y0041899D01*
X0126246Y0041899D01*
G37*
G36*
X0123706Y0041899D02*
X0121782Y0041899D01*
X0121782Y0043823D01*
X0123706Y0043823D01*
X0123706Y0041899D01*
X0123706Y0041899D01*
G37*
G36*
X0131326Y0041899D02*
X0129402Y0041899D01*
X0129402Y0043823D01*
X0131326Y0043823D01*
X0131326Y0041899D01*
X0131326Y0041899D01*
G37*
G36*
X0133866Y0041899D02*
X0131942Y0041899D01*
X0131942Y0043823D01*
X0133866Y0043823D01*
X0133866Y0041899D01*
X0133866Y0041899D01*
G37*
G36*
X0138946Y0041899D02*
X0137022Y0041899D01*
X0137022Y0043823D01*
X0138946Y0043823D01*
X0138946Y0041899D01*
X0138946Y0041899D01*
G37*
G36*
X0141486Y0041899D02*
X0139562Y0041899D01*
X0139562Y0043823D01*
X0141486Y0043823D01*
X0141486Y0041899D01*
X0141486Y0041899D01*
G37*
G36*
X0110699Y0042269D02*
X0108499Y0042269D01*
X0108499Y0045169D01*
X0110699Y0045169D01*
X0110699Y0042269D01*
X0110699Y0042269D01*
G37*
G36*
X0106370Y0042597D02*
X0104446Y0042597D01*
X0104446Y0044521D01*
X0106370Y0044521D01*
X0106370Y0042597D01*
X0106370Y0042597D01*
G37*
G36*
X0103830Y0042597D02*
X0101906Y0042597D01*
X0101906Y0044521D01*
X0103830Y0044521D01*
X0103830Y0042597D01*
X0103830Y0042597D01*
G37*
G36*
X0114244Y0043994D02*
X0111812Y0043994D01*
X0111812Y0045410D01*
X0114244Y0045410D01*
X0114244Y0043994D01*
X0114244Y0043994D01*
G37*
G36*
X0145867Y0044375D02*
X0143943Y0044375D01*
X0143943Y0046299D01*
X0145867Y0046299D01*
X0145867Y0044375D01*
X0145867Y0044375D01*
G37*
G36*
X0136406Y0044439D02*
X0134482Y0044439D01*
X0134482Y0046363D01*
X0136406Y0046363D01*
X0136406Y0044439D01*
X0136406Y0044439D01*
G37*
G36*
X0138946Y0044439D02*
X0137022Y0044439D01*
X0137022Y0046363D01*
X0138946Y0046363D01*
X0138946Y0044439D01*
X0138946Y0044439D01*
G37*
G36*
X0133866Y0044439D02*
X0131942Y0044439D01*
X0131942Y0046363D01*
X0133866Y0046363D01*
X0133866Y0044439D01*
X0133866Y0044439D01*
G37*
G36*
X0141486Y0044439D02*
X0139562Y0044439D01*
X0139562Y0046363D01*
X0141486Y0046363D01*
X0141486Y0044439D01*
X0141486Y0044439D01*
G37*
G36*
X0126246Y0044439D02*
X0124322Y0044439D01*
X0124322Y0046363D01*
X0126246Y0046363D01*
X0126246Y0044439D01*
X0126246Y0044439D01*
G37*
G36*
X0131326Y0044439D02*
X0129402Y0044439D01*
X0129402Y0046363D01*
X0131326Y0046363D01*
X0131326Y0044439D01*
X0131326Y0044439D01*
G37*
G36*
X0128786Y0044439D02*
X0126862Y0044439D01*
X0126862Y0046363D01*
X0128786Y0046363D01*
X0128786Y0044439D01*
X0128786Y0044439D01*
G37*
G36*
X0123706Y0044439D02*
X0121782Y0044439D01*
X0121782Y0046363D01*
X0123706Y0046363D01*
X0123706Y0044439D01*
X0123706Y0044439D01*
G37*
G36*
X0120848Y0044959D02*
X0118416Y0044959D01*
X0118416Y0049017D01*
X0120848Y0049017D01*
X0120848Y0044959D01*
X0120848Y0044959D01*
G37*
G36*
X0106370Y0045137D02*
X0104446Y0045137D01*
X0104446Y0047061D01*
X0106370Y0047061D01*
X0106370Y0045137D01*
X0106370Y0045137D01*
G37*
G36*
X0103830Y0045137D02*
X0101906Y0045137D01*
X0101906Y0047061D01*
X0103830Y0047061D01*
X0103830Y0045137D01*
X0103830Y0045137D01*
G37*
G36*
X0110699Y0046267D02*
X0108499Y0046267D01*
X0108499Y0049167D01*
X0110699Y0049167D01*
X0110699Y0046267D01*
X0110699Y0046267D01*
G37*
G36*
X0114244Y0046280D02*
X0111812Y0046280D01*
X0111812Y0047696D01*
X0114244Y0047696D01*
X0114244Y0046280D01*
X0114244Y0046280D01*
G37*
G36*
X0106370Y0047677D02*
X0104446Y0047677D01*
X0104446Y0049601D01*
X0106370Y0049601D01*
X0106370Y0047677D01*
X0106370Y0047677D01*
G37*
G36*
X0103830Y0047677D02*
X0101906Y0047677D01*
X0101906Y0049601D01*
X0103830Y0049601D01*
X0103830Y0047677D01*
X0103830Y0047677D01*
G37*
G36*
X0114244Y0048566D02*
X0111812Y0048566D01*
X0111812Y0049982D01*
X0114244Y0049982D01*
X0114244Y0048566D01*
X0114244Y0048566D01*
G37*
G36*
X0126246Y0049011D02*
X0124322Y0049011D01*
X0124322Y0050935D01*
X0126246Y0050935D01*
X0126246Y0049011D01*
X0126246Y0049011D01*
G37*
G36*
X0123706Y0049011D02*
X0121782Y0049011D01*
X0121782Y0050935D01*
X0123706Y0050935D01*
X0123706Y0049011D01*
X0123706Y0049011D01*
G37*
G36*
X0128786Y0049011D02*
X0126862Y0049011D01*
X0126862Y0050935D01*
X0128786Y0050935D01*
X0128786Y0049011D01*
X0128786Y0049011D01*
G37*
G36*
X0131326Y0049011D02*
X0129402Y0049011D01*
X0129402Y0050935D01*
X0131326Y0050935D01*
X0131326Y0049011D01*
X0131326Y0049011D01*
G37*
G36*
X0133866Y0049011D02*
X0131942Y0049011D01*
X0131942Y0050935D01*
X0133866Y0050935D01*
X0133866Y0049011D01*
X0133866Y0049011D01*
G37*
G36*
X0141486Y0049011D02*
X0139562Y0049011D01*
X0139562Y0050935D01*
X0141486Y0050935D01*
X0141486Y0049011D01*
X0141486Y0049011D01*
G37*
G36*
X0138946Y0049011D02*
X0137022Y0049011D01*
X0137022Y0050935D01*
X0138946Y0050935D01*
X0138946Y0049011D01*
X0138946Y0049011D01*
G37*
G36*
X0136406Y0049011D02*
X0134482Y0049011D01*
X0134482Y0050935D01*
X0136406Y0050935D01*
X0136406Y0049011D01*
X0136406Y0049011D01*
G37*
G36*
X0159202Y0050217D02*
X0157278Y0050217D01*
X0157278Y0052141D01*
X0159202Y0052141D01*
X0159202Y0050217D01*
X0159202Y0050217D01*
G37*
G36*
X0151963Y0050217D02*
X0150039Y0050217D01*
X0150039Y0052141D01*
X0151963Y0052141D01*
X0151963Y0050217D01*
X0151963Y0050217D01*
G37*
G36*
X0149423Y0050217D02*
X0147499Y0050217D01*
X0147499Y0052141D01*
X0149423Y0052141D01*
X0149423Y0050217D01*
X0149423Y0050217D01*
G37*
G36*
X0156662Y0050217D02*
X0154738Y0050217D01*
X0154738Y0052141D01*
X0156662Y0052141D01*
X0156662Y0050217D01*
X0156662Y0050217D01*
G37*
G36*
X0109721Y0051000D02*
X0105921Y0051000D01*
X0105921Y0053300D01*
X0109721Y0053300D01*
X0109721Y0051000D01*
X0109721Y0051000D01*
G37*
G36*
X0120213Y0051043D02*
X0118924Y0051043D01*
X0118924Y0052840D01*
X0120213Y0052840D01*
X0120213Y0051043D01*
X0120213Y0051043D01*
G37*
G36*
X0118308Y0051043D02*
X0117019Y0051043D01*
X0117019Y0052840D01*
X0118308Y0052840D01*
X0118308Y0051043D01*
X0118308Y0051043D01*
G37*
G36*
X0128786Y0051551D02*
X0126862Y0051551D01*
X0126862Y0053475D01*
X0128786Y0053475D01*
X0128786Y0051551D01*
X0128786Y0051551D01*
G37*
G36*
X0123706Y0051551D02*
X0121782Y0051551D01*
X0121782Y0053475D01*
X0123706Y0053475D01*
X0123706Y0051551D01*
X0123706Y0051551D01*
G37*
G36*
X0141486Y0051551D02*
X0139562Y0051551D01*
X0139562Y0053475D01*
X0141486Y0053475D01*
X0141486Y0051551D01*
X0141486Y0051551D01*
G37*
G36*
X0126246Y0051551D02*
X0124322Y0051551D01*
X0124322Y0053475D01*
X0126246Y0053475D01*
X0126246Y0051551D01*
X0126246Y0051551D01*
G37*
G36*
X0138946Y0051551D02*
X0137022Y0051551D01*
X0137022Y0053475D01*
X0138946Y0053475D01*
X0138946Y0051551D01*
X0138946Y0051551D01*
G37*
G36*
X0133866Y0051551D02*
X0131942Y0051551D01*
X0131942Y0053475D01*
X0133866Y0053475D01*
X0133866Y0051551D01*
X0133866Y0051551D01*
G37*
G36*
X0131326Y0051551D02*
X0129402Y0051551D01*
X0129402Y0053475D01*
X0131326Y0053475D01*
X0131326Y0051551D01*
X0131326Y0051551D01*
G37*
G36*
X0136406Y0051551D02*
X0134482Y0051551D01*
X0134482Y0053475D01*
X0136406Y0053475D01*
X0136406Y0051551D01*
X0136406Y0051551D01*
G37*
G36*
X0116467Y0051614D02*
X0114670Y0051614D01*
X0114670Y0052903D01*
X0116467Y0052903D01*
X0116467Y0051614D01*
X0116467Y0051614D01*
G37*
G36*
X0112276Y0051614D02*
X0110479Y0051614D01*
X0110479Y0052903D01*
X0112276Y0052903D01*
X0112276Y0051614D01*
X0112276Y0051614D01*
G37*
G36*
X0114435Y0051614D02*
X0112638Y0051614D01*
X0112638Y0052903D01*
X0114435Y0052903D01*
X0114435Y0051614D01*
X0114435Y0051614D01*
G37*
G36*
X0159202Y0052757D02*
X0157278Y0052757D01*
X0157278Y0054681D01*
X0159202Y0054681D01*
X0159202Y0052757D01*
X0159202Y0052757D01*
G37*
G36*
X0149423Y0052757D02*
X0147499Y0052757D01*
X0147499Y0054681D01*
X0149423Y0054681D01*
X0149423Y0052757D01*
X0149423Y0052757D01*
G37*
G36*
X0156662Y0052757D02*
X0154738Y0052757D01*
X0154738Y0054681D01*
X0156662Y0054681D01*
X0156662Y0052757D01*
X0156662Y0052757D01*
G37*
G36*
X0151963Y0052757D02*
X0150039Y0052757D01*
X0150039Y0054681D01*
X0151963Y0054681D01*
X0151963Y0052757D01*
X0151963Y0052757D01*
G37*
G36*
X0101380Y0056127D02*
X0101678Y0056065D01*
X0101958Y0055948D01*
X0102210Y0055778D01*
X0102424Y0055562D01*
X0102592Y0055309D01*
X0102708Y0055028D01*
X0102767Y0054730D01*
X0102767Y0054730D01*
X0102767Y0054730D01*
X0102762Y0054382D01*
X0102762Y0054382D01*
X0102762Y0054382D01*
X0102695Y0054086D01*
X0102571Y0053808D01*
X0102396Y0053560D01*
X0102176Y0053350D01*
X0101919Y0053187D01*
X0101636Y0053077D01*
X0101336Y0053025D01*
X0101033Y0053031D01*
X0100736Y0053096D01*
X0100457Y0053218D01*
X0100208Y0053391D01*
X0099996Y0053610D01*
X0099832Y0053866D01*
X0099720Y0054148D01*
X0099665Y0054447D01*
X0099669Y0054751D01*
X0099732Y0055048D01*
X0099852Y0055328D01*
X0100024Y0055579D01*
X0100241Y0055791D01*
X0100495Y0055958D01*
X0100777Y0056072D01*
X0101076Y0056129D01*
X0101380Y0056127D01*
X0101380Y0056127D01*
G37*
G36*
X0120213Y0053075D02*
X0118924Y0053075D01*
X0118924Y0054872D01*
X0120213Y0054872D01*
X0120213Y0053075D01*
X0120213Y0053075D01*
G37*
G36*
X0118308Y0053075D02*
X0117019Y0053075D01*
X0117019Y0054872D01*
X0118308Y0054872D01*
X0118308Y0053075D01*
X0118308Y0053075D01*
G37*
G36*
X0114435Y0053519D02*
X0112638Y0053519D01*
X0112638Y0054808D01*
X0114435Y0054808D01*
X0114435Y0053519D01*
X0114435Y0053519D01*
G37*
G36*
X0116467Y0053519D02*
X0114670Y0053519D01*
X0114670Y0054808D01*
X0116467Y0054808D01*
X0116467Y0053519D01*
X0116467Y0053519D01*
G37*
G36*
X0112276Y0053519D02*
X0110479Y0053519D01*
X0110479Y0054808D01*
X0112276Y0054808D01*
X0112276Y0053519D01*
X0112276Y0053519D01*
G37*
G36*
X0134120Y0054726D02*
X0132831Y0054726D01*
X0132831Y0056523D01*
X0134120Y0056523D01*
X0134120Y0054726D01*
X0134120Y0054726D01*
G37*
G36*
X0132215Y0054726D02*
X0130926Y0054726D01*
X0130926Y0056523D01*
X0132215Y0056523D01*
X0132215Y0054726D01*
X0132215Y0054726D01*
G37*
G36*
X0109721Y0054900D02*
X0105921Y0054900D01*
X0105921Y0057200D01*
X0109721Y0057200D01*
X0109721Y0054900D01*
X0109721Y0054900D01*
G37*
G36*
X0156662Y0055297D02*
X0154738Y0055297D01*
X0154738Y0057221D01*
X0156662Y0057221D01*
X0156662Y0055297D01*
X0156662Y0055297D01*
G37*
G36*
X0159202Y0055297D02*
X0157278Y0055297D01*
X0157278Y0057221D01*
X0159202Y0057221D01*
X0159202Y0055297D01*
X0159202Y0055297D01*
G37*
G36*
X0149423Y0055297D02*
X0147499Y0055297D01*
X0147499Y0057221D01*
X0149423Y0057221D01*
X0149423Y0055297D01*
X0149423Y0055297D01*
G37*
G36*
X0151963Y0055297D02*
X0150039Y0055297D01*
X0150039Y0057221D01*
X0151963Y0057221D01*
X0151963Y0055297D01*
X0151963Y0055297D01*
G37*
G36*
X0140089Y0055996D02*
X0138800Y0055996D01*
X0138800Y0057793D01*
X0140089Y0057793D01*
X0140089Y0055996D01*
X0140089Y0055996D01*
G37*
G36*
X0138184Y0055996D02*
X0136895Y0055996D01*
X0136895Y0057793D01*
X0138184Y0057793D01*
X0138184Y0055996D01*
X0138184Y0055996D01*
G37*
G36*
X0119705Y0056186D02*
X0117781Y0056186D01*
X0117781Y0058110D01*
X0119705Y0058110D01*
X0119705Y0056186D01*
X0119705Y0056186D01*
G37*
G36*
X0117165Y0056186D02*
X0115241Y0056186D01*
X0115241Y0058110D01*
X0117165Y0058110D01*
X0117165Y0056186D01*
X0117165Y0056186D01*
G37*
G36*
X0114625Y0056186D02*
X0112701Y0056186D01*
X0112701Y0058110D01*
X0114625Y0058110D01*
X0114625Y0056186D01*
X0114625Y0056186D01*
G37*
G36*
X0143518Y0057012D02*
X0141721Y0057012D01*
X0141721Y0058301D01*
X0143518Y0058301D01*
X0143518Y0057012D01*
X0143518Y0057012D01*
G37*
G36*
X0110244Y0057647D02*
X0108447Y0057647D01*
X0108447Y0058936D01*
X0110244Y0058936D01*
X0110244Y0057647D01*
X0110244Y0057647D01*
G37*
G36*
X0112276Y0057647D02*
X0110479Y0057647D01*
X0110479Y0058936D01*
X0112276Y0058936D01*
X0112276Y0057647D01*
X0112276Y0057647D01*
G37*
G36*
X0149423Y0057837D02*
X0147499Y0057837D01*
X0147499Y0059761D01*
X0149423Y0059761D01*
X0149423Y0057837D01*
X0149423Y0057837D01*
G37*
G36*
X0151963Y0057837D02*
X0150039Y0057837D01*
X0150039Y0059761D01*
X0151963Y0059761D01*
X0151963Y0057837D01*
X0151963Y0057837D01*
G37*
G36*
X0156662Y0057837D02*
X0154738Y0057837D01*
X0154738Y0059761D01*
X0156662Y0059761D01*
X0156662Y0057837D01*
X0156662Y0057837D01*
G37*
G36*
X0159202Y0057837D02*
X0157278Y0057837D01*
X0157278Y0059761D01*
X0159202Y0059761D01*
X0159202Y0057837D01*
X0159202Y0057837D01*
G37*
G36*
X0106017Y0060268D02*
X0106202Y0060230D01*
X0106376Y0060157D01*
X0106532Y0060052D01*
X0106665Y0059918D01*
X0106770Y0059761D01*
X0106841Y0059586D01*
X0106878Y0059402D01*
X0106878Y0059402D01*
X0106878Y0059401D01*
X0106875Y0059186D01*
X0106875Y0059185D01*
X0106875Y0059185D01*
X0106833Y0059002D01*
X0106757Y0058830D01*
X0106648Y0058675D01*
X0106511Y0058545D01*
X0106352Y0058444D01*
X0106176Y0058376D01*
X0105990Y0058343D01*
X0105802Y0058347D01*
X0105617Y0058388D01*
X0105444Y0058463D01*
X0105289Y0058571D01*
X0105158Y0058707D01*
X0105056Y0058865D01*
X0105011Y0058980D01*
X0105002Y0058998D01*
X0104990Y0059013D01*
X0104975Y0059026D01*
X0104957Y0059035D01*
X0104939Y0059041D01*
X0104919Y0059043D01*
X0104900Y0059042D01*
X0104881Y0059036D01*
X0104863Y0059027D01*
X0104848Y0059015D01*
X0104835Y0059000D01*
X0104826Y0058984D01*
X0104758Y0058830D01*
X0104649Y0058675D01*
X0104512Y0058545D01*
X0104353Y0058444D01*
X0104177Y0058376D01*
X0103991Y0058343D01*
X0103803Y0058347D01*
X0103618Y0058388D01*
X0103445Y0058463D01*
X0103291Y0058571D01*
X0103159Y0058707D01*
X0103057Y0058865D01*
X0102988Y0059041D01*
X0102954Y0059226D01*
X0102956Y0059415D01*
X0102996Y0059599D01*
X0103070Y0059773D01*
X0103177Y0059928D01*
X0103311Y0060060D01*
X0103469Y0060164D01*
X0103644Y0060234D01*
X0103829Y0060270D01*
X0104018Y0060268D01*
X0104203Y0060230D01*
X0104377Y0060157D01*
X0104533Y0060052D01*
X0104666Y0059918D01*
X0104771Y0059761D01*
X0104824Y0059632D01*
X0104833Y0059615D01*
X0104845Y0059599D01*
X0104860Y0059587D01*
X0104878Y0059578D01*
X0104896Y0059572D01*
X0104916Y0059570D01*
X0104935Y0059572D01*
X0104954Y0059578D01*
X0104972Y0059587D01*
X0104987Y0059599D01*
X0104999Y0059614D01*
X0105008Y0059631D01*
X0105069Y0059773D01*
X0105175Y0059928D01*
X0105310Y0060060D01*
X0105468Y0060164D01*
X0105643Y0060234D01*
X0105828Y0060270D01*
X0106017Y0060268D01*
X0106017Y0060268D01*
G37*
G36*
X0138820Y0058622D02*
X0130670Y0058622D01*
X0130670Y0060022D01*
X0138820Y0060022D01*
X0138820Y0058622D01*
X0138820Y0058622D01*
G37*
G36*
X0127706Y0058663D02*
X0126417Y0058663D01*
X0126417Y0062365D01*
X0127706Y0062365D01*
X0127706Y0058663D01*
X0127706Y0058663D01*
G37*
G36*
X0125801Y0058663D02*
X0124512Y0058663D01*
X0124512Y0062365D01*
X0125801Y0062365D01*
X0125801Y0058663D01*
X0125801Y0058663D01*
G37*
G36*
X0114625Y0058726D02*
X0112701Y0058726D01*
X0112701Y0060650D01*
X0114625Y0060650D01*
X0114625Y0058726D01*
X0114625Y0058726D01*
G37*
G36*
X0117165Y0058726D02*
X0115241Y0058726D01*
X0115241Y0060650D01*
X0117165Y0060650D01*
X0117165Y0058726D01*
X0117165Y0058726D01*
G37*
G36*
X0119705Y0058726D02*
X0117781Y0058726D01*
X0117781Y0060650D01*
X0119705Y0060650D01*
X0119705Y0058726D01*
X0119705Y0058726D01*
G37*
G36*
X0122690Y0058790D02*
X0120893Y0058790D01*
X0120893Y0060079D01*
X0122690Y0060079D01*
X0122690Y0058790D01*
X0122690Y0058790D01*
G37*
G36*
X0143518Y0058917D02*
X0141721Y0058917D01*
X0141721Y0060206D01*
X0143518Y0060206D01*
X0143518Y0058917D01*
X0143518Y0058917D01*
G37*
G36*
X0112276Y0059552D02*
X0110479Y0059552D01*
X0110479Y0060841D01*
X0112276Y0060841D01*
X0112276Y0059552D01*
X0112276Y0059552D01*
G37*
G36*
X0110244Y0059552D02*
X0108447Y0059552D01*
X0108447Y0060841D01*
X0110244Y0060841D01*
X0110244Y0059552D01*
X0110244Y0059552D01*
G37*
G36*
X0149423Y0060377D02*
X0147499Y0060377D01*
X0147499Y0062301D01*
X0149423Y0062301D01*
X0149423Y0060377D01*
X0149423Y0060377D01*
G37*
G36*
X0151963Y0060377D02*
X0150039Y0060377D01*
X0150039Y0062301D01*
X0151963Y0062301D01*
X0151963Y0060377D01*
X0151963Y0060377D01*
G37*
G36*
X0156662Y0060377D02*
X0154738Y0060377D01*
X0154738Y0062301D01*
X0156662Y0062301D01*
X0156662Y0060377D01*
X0156662Y0060377D01*
G37*
G36*
X0159202Y0060377D02*
X0157278Y0060377D01*
X0157278Y0062301D01*
X0159202Y0062301D01*
X0159202Y0060377D01*
X0159202Y0060377D01*
G37*
G36*
X0123829Y0062163D02*
X0122790Y0062163D01*
X0122770Y0062161D01*
X0122751Y0062155D01*
X0122734Y0062146D01*
X0122719Y0062133D01*
X0122706Y0062118D01*
X0122697Y0062101D01*
X0122691Y0062082D01*
X0122690Y0062063D01*
X0122690Y0060695D01*
X0120893Y0060695D01*
X0120893Y0061984D01*
X0120924Y0061984D01*
X0120943Y0061985D01*
X0120962Y0061991D01*
X0120979Y0062000D01*
X0120994Y0062013D01*
X0121007Y0062028D01*
X0121016Y0062045D01*
X0121022Y0062064D01*
X0121024Y0062084D01*
X0121024Y0063563D01*
X0123829Y0063563D01*
X0123829Y0062163D01*
X0123829Y0062163D01*
G37*
G36*
X0106017Y0062808D02*
X0106202Y0062770D01*
X0106376Y0062697D01*
X0106532Y0062592D01*
X0106665Y0062458D01*
X0106770Y0062301D01*
X0106841Y0062126D01*
X0106878Y0061942D01*
X0106878Y0061942D01*
X0106878Y0061941D01*
X0106875Y0061726D01*
X0106875Y0061725D01*
X0106875Y0061725D01*
X0106833Y0061542D01*
X0106757Y0061370D01*
X0106648Y0061215D01*
X0106511Y0061085D01*
X0106352Y0060984D01*
X0106176Y0060916D01*
X0105990Y0060883D01*
X0105802Y0060887D01*
X0105617Y0060928D01*
X0105444Y0061003D01*
X0105289Y0061111D01*
X0105158Y0061247D01*
X0105056Y0061405D01*
X0105011Y0061520D01*
X0105002Y0061538D01*
X0104990Y0061553D01*
X0104975Y0061566D01*
X0104957Y0061575D01*
X0104939Y0061581D01*
X0104919Y0061583D01*
X0104900Y0061582D01*
X0104881Y0061576D01*
X0104863Y0061567D01*
X0104848Y0061555D01*
X0104835Y0061540D01*
X0104826Y0061524D01*
X0104758Y0061370D01*
X0104649Y0061215D01*
X0104512Y0061085D01*
X0104353Y0060984D01*
X0104177Y0060916D01*
X0103991Y0060883D01*
X0103803Y0060887D01*
X0103618Y0060928D01*
X0103445Y0061003D01*
X0103291Y0061111D01*
X0103159Y0061247D01*
X0103057Y0061405D01*
X0102988Y0061581D01*
X0102954Y0061766D01*
X0102956Y0061955D01*
X0102996Y0062139D01*
X0103070Y0062313D01*
X0103177Y0062468D01*
X0103311Y0062600D01*
X0103469Y0062704D01*
X0103644Y0062774D01*
X0103829Y0062810D01*
X0104018Y0062808D01*
X0104203Y0062770D01*
X0104377Y0062697D01*
X0104533Y0062592D01*
X0104666Y0062458D01*
X0104771Y0062301D01*
X0104824Y0062172D01*
X0104833Y0062155D01*
X0104845Y0062139D01*
X0104860Y0062127D01*
X0104878Y0062118D01*
X0104896Y0062112D01*
X0104916Y0062110D01*
X0104935Y0062112D01*
X0104954Y0062118D01*
X0104972Y0062127D01*
X0104987Y0062139D01*
X0104999Y0062154D01*
X0105008Y0062171D01*
X0105069Y0062313D01*
X0105175Y0062468D01*
X0105310Y0062600D01*
X0105468Y0062704D01*
X0105643Y0062774D01*
X0105828Y0062810D01*
X0106017Y0062808D01*
X0106017Y0062808D01*
G37*
G36*
X0129745Y0060947D02*
X0128345Y0060947D01*
X0128345Y0069097D01*
X0129745Y0069097D01*
X0129745Y0060947D01*
X0129745Y0060947D01*
G37*
G36*
X0141145Y0060947D02*
X0139745Y0060947D01*
X0139745Y0069097D01*
X0141145Y0069097D01*
X0141145Y0060947D01*
X0141145Y0060947D01*
G37*
G36*
X0110180Y0061584D02*
X0109272Y0061584D01*
X0109272Y0063127D01*
X0110180Y0063127D01*
X0110180Y0061584D01*
X0110180Y0061584D01*
G37*
G36*
X0112720Y0061584D02*
X0111812Y0061584D01*
X0111812Y0063127D01*
X0112720Y0063127D01*
X0112720Y0061584D01*
X0112720Y0061584D01*
G37*
G36*
X0113990Y0061584D02*
X0113082Y0061584D01*
X0113082Y0063127D01*
X0113990Y0063127D01*
X0113990Y0061584D01*
X0113990Y0061584D01*
G37*
G36*
X0115260Y0061584D02*
X0114352Y0061584D01*
X0114352Y0063127D01*
X0115260Y0063127D01*
X0115260Y0061584D01*
X0115260Y0061584D01*
G37*
G36*
X0117800Y0061584D02*
X0116892Y0061584D01*
X0116892Y0063127D01*
X0117800Y0063127D01*
X0117800Y0061584D01*
X0117800Y0061584D01*
G37*
G36*
X0116530Y0061584D02*
X0115622Y0061584D01*
X0115622Y0063127D01*
X0116530Y0063127D01*
X0116530Y0061584D01*
X0116530Y0061584D01*
G37*
G36*
X0111450Y0061584D02*
X0110542Y0061584D01*
X0110542Y0063127D01*
X0111450Y0063127D01*
X0111450Y0061584D01*
X0111450Y0061584D01*
G37*
G36*
X0119070Y0061584D02*
X0118162Y0061584D01*
X0118162Y0063127D01*
X0119070Y0063127D01*
X0119070Y0061584D01*
X0119070Y0061584D01*
G37*
G36*
X0127706Y0062727D02*
X0126417Y0062727D01*
X0126417Y0064524D01*
X0127706Y0064524D01*
X0127706Y0062727D01*
X0127706Y0062727D01*
G37*
G36*
X0125801Y0062727D02*
X0124512Y0062727D01*
X0124512Y0064524D01*
X0125801Y0064524D01*
X0125801Y0062727D01*
X0125801Y0062727D01*
G37*
G36*
X0151963Y0062917D02*
X0150039Y0062917D01*
X0150039Y0064841D01*
X0151963Y0064841D01*
X0151963Y0062917D01*
X0151963Y0062917D01*
G37*
G36*
X0156662Y0062917D02*
X0154738Y0062917D01*
X0154738Y0064841D01*
X0156662Y0064841D01*
X0156662Y0062917D01*
X0156662Y0062917D01*
G37*
G36*
X0149423Y0062917D02*
X0147499Y0062917D01*
X0147499Y0064841D01*
X0149423Y0064841D01*
X0149423Y0062917D01*
X0149423Y0062917D01*
G37*
G36*
X0159202Y0062917D02*
X0157278Y0062917D01*
X0157278Y0064841D01*
X0159202Y0064841D01*
X0159202Y0062917D01*
X0159202Y0062917D01*
G37*
G36*
X0145804Y0063997D02*
X0144007Y0063997D01*
X0144007Y0065286D01*
X0145804Y0065286D01*
X0145804Y0063997D01*
X0145804Y0063997D01*
G37*
G36*
X0123829Y0064703D02*
X0121024Y0064703D01*
X0121024Y0066103D01*
X0123829Y0066103D01*
X0123829Y0064703D01*
X0123829Y0064703D01*
G37*
G36*
X0125801Y0064759D02*
X0124512Y0064759D01*
X0124512Y0066556D01*
X0125801Y0066556D01*
X0125801Y0064759D01*
X0125801Y0064759D01*
G37*
G36*
X0127706Y0064759D02*
X0126417Y0064759D01*
X0126417Y0066556D01*
X0127706Y0066556D01*
X0127706Y0064759D01*
X0127706Y0064759D01*
G37*
G36*
X0101380Y0068125D02*
X0101678Y0068064D01*
X0101958Y0067947D01*
X0102210Y0067777D01*
X0102424Y0067561D01*
X0102592Y0067308D01*
X0102708Y0067027D01*
X0102767Y0066729D01*
X0102767Y0066729D01*
X0102767Y0066728D01*
X0102762Y0066381D01*
X0102762Y0066381D01*
X0102762Y0066381D01*
X0102695Y0066085D01*
X0102571Y0065807D01*
X0102396Y0065559D01*
X0102176Y0065349D01*
X0101919Y0065186D01*
X0101636Y0065076D01*
X0101336Y0065024D01*
X0101033Y0065030D01*
X0100736Y0065095D01*
X0100457Y0065217D01*
X0100208Y0065390D01*
X0099996Y0065609D01*
X0099832Y0065865D01*
X0099720Y0066147D01*
X0099665Y0066446D01*
X0099669Y0066750D01*
X0099732Y0067047D01*
X0099852Y0067327D01*
X0100024Y0067578D01*
X0100241Y0067790D01*
X0100495Y0067957D01*
X0100777Y0068071D01*
X0101076Y0068128D01*
X0101380Y0068125D01*
X0101380Y0068125D01*
G37*
G36*
X0156662Y0065457D02*
X0154738Y0065457D01*
X0154738Y0067381D01*
X0156662Y0067381D01*
X0156662Y0065457D01*
X0156662Y0065457D01*
G37*
G36*
X0159202Y0065457D02*
X0157278Y0065457D01*
X0157278Y0067381D01*
X0159202Y0067381D01*
X0159202Y0065457D01*
X0159202Y0065457D01*
G37*
G36*
X0149423Y0065457D02*
X0147499Y0065457D01*
X0147499Y0067381D01*
X0149423Y0067381D01*
X0149423Y0065457D01*
X0149423Y0065457D01*
G37*
G36*
X0151963Y0065457D02*
X0150039Y0065457D01*
X0150039Y0067381D01*
X0151963Y0067381D01*
X0151963Y0065457D01*
X0151963Y0065457D01*
G37*
G36*
X0145804Y0065902D02*
X0144007Y0065902D01*
X0144007Y0067191D01*
X0145804Y0067191D01*
X0145804Y0065902D01*
X0145804Y0065902D01*
G37*
G36*
X0124023Y0066537D02*
X0122734Y0066537D01*
X0122734Y0070239D01*
X0124023Y0070239D01*
X0124023Y0066537D01*
X0124023Y0066537D01*
G37*
G36*
X0122118Y0066537D02*
X0120829Y0066537D01*
X0120829Y0070239D01*
X0122118Y0070239D01*
X0122118Y0066537D01*
X0122118Y0066537D01*
G37*
G36*
X0119070Y0067934D02*
X0118162Y0067934D01*
X0118162Y0069477D01*
X0119070Y0069477D01*
X0119070Y0067934D01*
X0119070Y0067934D01*
G37*
G36*
X0116530Y0067934D02*
X0115622Y0067934D01*
X0115622Y0069477D01*
X0116530Y0069477D01*
X0116530Y0067934D01*
X0116530Y0067934D01*
G37*
G36*
X0115260Y0067934D02*
X0114352Y0067934D01*
X0114352Y0069477D01*
X0115260Y0069477D01*
X0115260Y0067934D01*
X0115260Y0067934D01*
G37*
G36*
X0113990Y0067934D02*
X0113082Y0067934D01*
X0113082Y0069477D01*
X0113990Y0069477D01*
X0113990Y0067934D01*
X0113990Y0067934D01*
G37*
G36*
X0112720Y0067934D02*
X0111812Y0067934D01*
X0111812Y0069477D01*
X0112720Y0069477D01*
X0112720Y0067934D01*
X0112720Y0067934D01*
G37*
G36*
X0111450Y0067934D02*
X0110542Y0067934D01*
X0110542Y0069477D01*
X0111450Y0069477D01*
X0111450Y0067934D01*
X0111450Y0067934D01*
G37*
G36*
X0110180Y0067934D02*
X0109272Y0067934D01*
X0109272Y0069477D01*
X0110180Y0069477D01*
X0110180Y0067934D01*
X0110180Y0067934D01*
G37*
G36*
X0117800Y0067934D02*
X0116892Y0067934D01*
X0116892Y0069477D01*
X0117800Y0069477D01*
X0117800Y0067934D01*
X0117800Y0067934D01*
G37*
G36*
X0149423Y0067997D02*
X0147499Y0067997D01*
X0147499Y0069921D01*
X0149423Y0069921D01*
X0149423Y0067997D01*
X0149423Y0067997D01*
G37*
G36*
X0151963Y0067997D02*
X0150039Y0067997D01*
X0150039Y0069921D01*
X0151963Y0069921D01*
X0151963Y0067997D01*
X0151963Y0067997D01*
G37*
G36*
X0156662Y0067997D02*
X0154738Y0067997D01*
X0154738Y0069921D01*
X0156662Y0069921D01*
X0156662Y0067997D01*
X0156662Y0067997D01*
G37*
G36*
X0159202Y0067997D02*
X0157278Y0067997D01*
X0157278Y0069921D01*
X0159202Y0069921D01*
X0159202Y0067997D01*
X0159202Y0067997D01*
G37*
G36*
X0127008Y0068759D02*
X0125211Y0068759D01*
X0125211Y0070048D01*
X0127008Y0070048D01*
X0127008Y0068759D01*
X0127008Y0068759D01*
G37*
G36*
X0138820Y0070022D02*
X0130670Y0070022D01*
X0130670Y0071422D01*
X0138820Y0071422D01*
X0138820Y0070022D01*
X0138820Y0070022D01*
G37*
G36*
X0105672Y0070664D02*
X0103875Y0070664D01*
X0103875Y0071953D01*
X0105672Y0071953D01*
X0105672Y0070664D01*
X0105672Y0070664D01*
G37*
G36*
X0102624Y0070664D02*
X0100827Y0070664D01*
X0100827Y0071953D01*
X0102624Y0071953D01*
X0102624Y0070664D01*
X0102624Y0070664D01*
G37*
G36*
X0127008Y0070664D02*
X0125211Y0070664D01*
X0125211Y0071953D01*
X0127008Y0071953D01*
X0127008Y0070664D01*
X0127008Y0070664D01*
G37*
G36*
X0124722Y0070664D02*
X0122925Y0070664D01*
X0122925Y0071953D01*
X0124722Y0071953D01*
X0124722Y0070664D01*
X0124722Y0070664D01*
G37*
G36*
X0121547Y0070664D02*
X0119750Y0070664D01*
X0119750Y0071953D01*
X0121547Y0071953D01*
X0121547Y0070664D01*
X0121547Y0070664D01*
G37*
G36*
X0115197Y0070664D02*
X0113400Y0070664D01*
X0113400Y0071953D01*
X0115197Y0071953D01*
X0115197Y0070664D01*
X0115197Y0070664D01*
G37*
G36*
X0112022Y0070664D02*
X0110225Y0070664D01*
X0110225Y0071953D01*
X0112022Y0071953D01*
X0112022Y0070664D01*
X0112022Y0070664D01*
G37*
G36*
X0108847Y0070664D02*
X0107050Y0070664D01*
X0107050Y0071953D01*
X0108847Y0071953D01*
X0108847Y0070664D01*
X0108847Y0070664D01*
G37*
G36*
X0118245Y0070664D02*
X0116448Y0070664D01*
X0116448Y0071953D01*
X0118245Y0071953D01*
X0118245Y0070664D01*
X0118245Y0070664D01*
G37*
G36*
X0144026Y0073006D02*
X0144027Y0072986D01*
X0144033Y0072967D01*
X0144042Y0072950D01*
X0144055Y0072935D01*
X0144070Y0072922D01*
X0144087Y0072913D01*
X0144106Y0072907D01*
X0144126Y0072906D01*
X0145296Y0072906D01*
X0145296Y0071109D01*
X0144007Y0071109D01*
X0144007Y0072914D01*
X0144005Y0072933D01*
X0143999Y0072952D01*
X0143990Y0072969D01*
X0143977Y0072984D01*
X0143962Y0072997D01*
X0143945Y0073006D01*
X0143926Y0073012D01*
X0143907Y0073014D01*
X0143491Y0073014D01*
X0143471Y0073012D01*
X0143452Y0073006D01*
X0143435Y0072997D01*
X0143420Y0072984D01*
X0143407Y0072969D01*
X0143398Y0072952D01*
X0143392Y0072933D01*
X0143391Y0072914D01*
X0143391Y0071109D01*
X0142102Y0071109D01*
X0142102Y0072906D01*
X0142129Y0072906D01*
X0142148Y0072907D01*
X0142167Y0072913D01*
X0142184Y0072922D01*
X0142199Y0072935D01*
X0142212Y0072950D01*
X0142221Y0072967D01*
X0142227Y0072986D01*
X0142229Y0073006D01*
X0142229Y0074303D01*
X0144026Y0074303D01*
X0144026Y0073006D01*
X0144026Y0073006D01*
G37*
G36*
X0096092Y0078634D02*
X0096707Y0078508D01*
X0097285Y0078265D01*
X0097806Y0077914D01*
X0098248Y0077468D01*
X0098595Y0076946D01*
X0098834Y0076365D01*
X0098956Y0075750D01*
X0098956Y0075750D01*
X0098956Y0075750D01*
X0098946Y0075033D01*
X0098946Y0075032D01*
X0098946Y0075032D01*
X0098807Y0074421D01*
X0098552Y0073848D01*
X0098190Y0073335D01*
X0097736Y0072902D01*
X0097206Y0072566D01*
X0096621Y0072339D01*
X0096003Y0072230D01*
X0095375Y0072243D01*
X0094762Y0072378D01*
X0094187Y0072629D01*
X0093672Y0072987D01*
X0093236Y0073439D01*
X0092896Y0073966D01*
X0092665Y0074550D01*
X0092552Y0075167D01*
X0092561Y0075794D01*
X0092691Y0076408D01*
X0092938Y0076985D01*
X0093293Y0077503D01*
X0093741Y0077942D01*
X0094266Y0078286D01*
X0094848Y0078521D01*
X0095465Y0078638D01*
X0096092Y0078634D01*
X0096092Y0078634D01*
G37*
G36*
X0157052Y0078634D02*
X0157667Y0078508D01*
X0158245Y0078265D01*
X0158766Y0077914D01*
X0159208Y0077468D01*
X0159555Y0076946D01*
X0159794Y0076365D01*
X0159916Y0075750D01*
X0159916Y0075750D01*
X0159916Y0075750D01*
X0159906Y0075033D01*
X0159906Y0075032D01*
X0159906Y0075032D01*
X0159767Y0074421D01*
X0159512Y0073848D01*
X0159150Y0073335D01*
X0158696Y0072902D01*
X0158166Y0072566D01*
X0157581Y0072339D01*
X0156963Y0072230D01*
X0156335Y0072243D01*
X0155722Y0072378D01*
X0155147Y0072629D01*
X0154632Y0072987D01*
X0154196Y0073439D01*
X0153856Y0073966D01*
X0153625Y0074550D01*
X0153512Y0075167D01*
X0153521Y0075794D01*
X0153651Y0076408D01*
X0153898Y0076985D01*
X0154253Y0077503D01*
X0154701Y0077942D01*
X0155226Y0078286D01*
X0155808Y0078521D01*
X0156425Y0078638D01*
X0157052Y0078634D01*
X0157052Y0078634D01*
G37*
G36*
X0118245Y0072569D02*
X0116448Y0072569D01*
X0116448Y0073858D01*
X0118245Y0073858D01*
X0118245Y0072569D01*
X0118245Y0072569D01*
G37*
G36*
X0124722Y0072569D02*
X0122925Y0072569D01*
X0122925Y0073858D01*
X0124722Y0073858D01*
X0124722Y0072569D01*
X0124722Y0072569D01*
G37*
G36*
X0121547Y0072569D02*
X0119750Y0072569D01*
X0119750Y0073858D01*
X0121547Y0073858D01*
X0121547Y0072569D01*
X0121547Y0072569D01*
G37*
G36*
X0115197Y0072569D02*
X0113400Y0072569D01*
X0113400Y0073858D01*
X0115197Y0073858D01*
X0115197Y0072569D01*
X0115197Y0072569D01*
G37*
G36*
X0108898Y0078115D02*
X0108900Y0078096D01*
X0108906Y0078077D01*
X0108915Y0078060D01*
X0108927Y0078044D01*
X0108940Y0078034D01*
X0109155Y0077817D01*
X0109323Y0077564D01*
X0109440Y0077280D01*
X0109444Y0077267D01*
X0109453Y0077250D01*
X0109466Y0077235D01*
X0109481Y0077223D01*
X0109498Y0077213D01*
X0109517Y0077208D01*
X0109536Y0077206D01*
X0109556Y0077208D01*
X0109575Y0077213D01*
X0109592Y0077222D01*
X0109607Y0077235D01*
X0109620Y0077250D01*
X0109629Y0077267D01*
X0109634Y0077285D01*
X0109638Y0077304D01*
X0109758Y0077583D01*
X0109930Y0077834D01*
X0110143Y0078043D01*
X0110156Y0078058D01*
X0110165Y0078075D01*
X0110171Y0078094D01*
X0110173Y0078114D01*
X0110173Y0079558D01*
X0112073Y0079558D01*
X0112073Y0078115D01*
X0112075Y0078096D01*
X0112081Y0078077D01*
X0112090Y0078060D01*
X0112102Y0078044D01*
X0112115Y0078034D01*
X0112330Y0077817D01*
X0112498Y0077564D01*
X0112615Y0077280D01*
X0112619Y0077267D01*
X0112628Y0077250D01*
X0112641Y0077235D01*
X0112656Y0077223D01*
X0112673Y0077213D01*
X0112692Y0077208D01*
X0112711Y0077206D01*
X0112731Y0077208D01*
X0112750Y0077213D01*
X0112767Y0077222D01*
X0112782Y0077235D01*
X0112795Y0077250D01*
X0112804Y0077267D01*
X0112809Y0077285D01*
X0112813Y0077304D01*
X0112933Y0077583D01*
X0113105Y0077834D01*
X0113318Y0078043D01*
X0113331Y0078058D01*
X0113340Y0078075D01*
X0113346Y0078094D01*
X0113348Y0078114D01*
X0113348Y0079558D01*
X0115248Y0079558D01*
X0115248Y0078115D01*
X0115250Y0078096D01*
X0115256Y0078077D01*
X0115265Y0078060D01*
X0115277Y0078044D01*
X0115290Y0078034D01*
X0115505Y0077817D01*
X0115673Y0077564D01*
X0115790Y0077280D01*
X0115794Y0077267D01*
X0115803Y0077250D01*
X0115816Y0077235D01*
X0115831Y0077223D01*
X0115848Y0077213D01*
X0115867Y0077208D01*
X0115886Y0077206D01*
X0115906Y0077208D01*
X0115925Y0077213D01*
X0115942Y0077222D01*
X0115957Y0077235D01*
X0115970Y0077250D01*
X0115979Y0077267D01*
X0115984Y0077285D01*
X0115988Y0077304D01*
X0116108Y0077583D01*
X0116280Y0077834D01*
X0116493Y0078043D01*
X0116506Y0078058D01*
X0116515Y0078075D01*
X0116521Y0078094D01*
X0116523Y0078114D01*
X0116523Y0079558D01*
X0118423Y0079558D01*
X0118423Y0078115D01*
X0118425Y0078096D01*
X0118431Y0078077D01*
X0118440Y0078060D01*
X0118452Y0078044D01*
X0118465Y0078034D01*
X0118680Y0077817D01*
X0118848Y0077564D01*
X0118965Y0077280D01*
X0118969Y0077267D01*
X0118978Y0077250D01*
X0118991Y0077235D01*
X0119006Y0077223D01*
X0119023Y0077213D01*
X0119042Y0077208D01*
X0119061Y0077206D01*
X0119081Y0077208D01*
X0119100Y0077213D01*
X0119117Y0077222D01*
X0119132Y0077235D01*
X0119145Y0077250D01*
X0119154Y0077267D01*
X0119159Y0077285D01*
X0119163Y0077304D01*
X0119283Y0077583D01*
X0119455Y0077834D01*
X0119668Y0078043D01*
X0119681Y0078058D01*
X0119690Y0078075D01*
X0119696Y0078094D01*
X0119698Y0078114D01*
X0119698Y0079558D01*
X0121598Y0079558D01*
X0121598Y0078115D01*
X0121600Y0078096D01*
X0121606Y0078077D01*
X0121615Y0078060D01*
X0121627Y0078044D01*
X0121640Y0078034D01*
X0121855Y0077817D01*
X0122023Y0077564D01*
X0122140Y0077280D01*
X0122144Y0077267D01*
X0122153Y0077250D01*
X0122166Y0077235D01*
X0122181Y0077223D01*
X0122198Y0077213D01*
X0122217Y0077208D01*
X0122236Y0077206D01*
X0122256Y0077208D01*
X0122275Y0077213D01*
X0122292Y0077222D01*
X0122307Y0077235D01*
X0122320Y0077250D01*
X0122329Y0077267D01*
X0122334Y0077285D01*
X0122338Y0077304D01*
X0122458Y0077583D01*
X0122630Y0077834D01*
X0122843Y0078043D01*
X0122856Y0078058D01*
X0122865Y0078075D01*
X0122871Y0078094D01*
X0122873Y0078114D01*
X0122873Y0079558D01*
X0124773Y0079558D01*
X0124773Y0078115D01*
X0124775Y0078096D01*
X0124781Y0078077D01*
X0124790Y0078060D01*
X0124802Y0078044D01*
X0124815Y0078034D01*
X0125030Y0077817D01*
X0125198Y0077564D01*
X0125314Y0077283D01*
X0125373Y0076986D01*
X0125373Y0076986D01*
X0125373Y0076985D01*
X0125368Y0076638D01*
X0125368Y0076637D01*
X0125368Y0076637D01*
X0125301Y0076341D01*
X0125177Y0076064D01*
X0125002Y0075815D01*
X0124804Y0075627D01*
X0124791Y0075612D01*
X0124782Y0075595D01*
X0124775Y0075576D01*
X0124773Y0075554D01*
X0124773Y0074108D01*
X0122873Y0074108D01*
X0122873Y0075553D01*
X0122871Y0075573D01*
X0122865Y0075592D01*
X0122856Y0075609D01*
X0122844Y0075624D01*
X0122830Y0075635D01*
X0122814Y0075647D01*
X0122602Y0075866D01*
X0122438Y0076121D01*
X0122327Y0076401D01*
X0122318Y0076419D01*
X0122306Y0076434D01*
X0122291Y0076447D01*
X0122273Y0076456D01*
X0122255Y0076462D01*
X0122235Y0076465D01*
X0122216Y0076463D01*
X0122197Y0076458D01*
X0122179Y0076449D01*
X0122164Y0076436D01*
X0122151Y0076422D01*
X0122142Y0076404D01*
X0122136Y0076387D01*
X0122126Y0076341D01*
X0122002Y0076064D01*
X0121827Y0075815D01*
X0121629Y0075627D01*
X0121616Y0075612D01*
X0121607Y0075595D01*
X0121600Y0075576D01*
X0121598Y0075554D01*
X0121598Y0074108D01*
X0119698Y0074108D01*
X0119698Y0075553D01*
X0119696Y0075573D01*
X0119690Y0075592D01*
X0119681Y0075609D01*
X0119669Y0075624D01*
X0119655Y0075635D01*
X0119639Y0075647D01*
X0119427Y0075866D01*
X0119263Y0076121D01*
X0119152Y0076401D01*
X0119143Y0076419D01*
X0119131Y0076434D01*
X0119116Y0076447D01*
X0119098Y0076456D01*
X0119080Y0076462D01*
X0119060Y0076465D01*
X0119041Y0076463D01*
X0119022Y0076458D01*
X0119004Y0076449D01*
X0118989Y0076436D01*
X0118976Y0076422D01*
X0118967Y0076404D01*
X0118961Y0076387D01*
X0118951Y0076341D01*
X0118827Y0076064D01*
X0118652Y0075815D01*
X0118454Y0075627D01*
X0118441Y0075612D01*
X0118432Y0075595D01*
X0118425Y0075576D01*
X0118423Y0075554D01*
X0118423Y0074108D01*
X0116523Y0074108D01*
X0116523Y0075553D01*
X0116521Y0075573D01*
X0116515Y0075592D01*
X0116506Y0075609D01*
X0116494Y0075624D01*
X0116480Y0075635D01*
X0116464Y0075647D01*
X0116252Y0075866D01*
X0116088Y0076121D01*
X0115977Y0076401D01*
X0115968Y0076419D01*
X0115956Y0076434D01*
X0115941Y0076447D01*
X0115923Y0076456D01*
X0115905Y0076462D01*
X0115885Y0076465D01*
X0115866Y0076463D01*
X0115847Y0076458D01*
X0115829Y0076449D01*
X0115814Y0076436D01*
X0115801Y0076422D01*
X0115792Y0076404D01*
X0115786Y0076387D01*
X0115776Y0076341D01*
X0115652Y0076064D01*
X0115477Y0075815D01*
X0115279Y0075627D01*
X0115266Y0075612D01*
X0115257Y0075595D01*
X0115250Y0075576D01*
X0115248Y0075554D01*
X0115248Y0074108D01*
X0113348Y0074108D01*
X0113348Y0075553D01*
X0113346Y0075573D01*
X0113340Y0075592D01*
X0113331Y0075609D01*
X0113319Y0075624D01*
X0113305Y0075635D01*
X0113289Y0075647D01*
X0113077Y0075866D01*
X0112913Y0076121D01*
X0112802Y0076401D01*
X0112793Y0076419D01*
X0112781Y0076434D01*
X0112766Y0076447D01*
X0112748Y0076456D01*
X0112730Y0076462D01*
X0112710Y0076465D01*
X0112691Y0076463D01*
X0112672Y0076458D01*
X0112654Y0076449D01*
X0112639Y0076436D01*
X0112626Y0076422D01*
X0112617Y0076404D01*
X0112611Y0076387D01*
X0112601Y0076341D01*
X0112477Y0076064D01*
X0112302Y0075815D01*
X0112104Y0075627D01*
X0112091Y0075612D01*
X0112082Y0075595D01*
X0112075Y0075576D01*
X0112073Y0075554D01*
X0112073Y0074108D01*
X0110173Y0074108D01*
X0110173Y0075553D01*
X0110171Y0075573D01*
X0110165Y0075592D01*
X0110156Y0075609D01*
X0110144Y0075624D01*
X0110130Y0075635D01*
X0110114Y0075647D01*
X0109902Y0075866D01*
X0109738Y0076121D01*
X0109627Y0076401D01*
X0109618Y0076419D01*
X0109606Y0076434D01*
X0109591Y0076447D01*
X0109573Y0076456D01*
X0109555Y0076462D01*
X0109535Y0076465D01*
X0109516Y0076463D01*
X0109497Y0076458D01*
X0109479Y0076449D01*
X0109464Y0076436D01*
X0109451Y0076422D01*
X0109442Y0076404D01*
X0109436Y0076387D01*
X0109426Y0076341D01*
X0109302Y0076064D01*
X0109127Y0075815D01*
X0108929Y0075627D01*
X0108916Y0075612D01*
X0108907Y0075595D01*
X0108900Y0075576D01*
X0108898Y0075554D01*
X0108898Y0074108D01*
X0106998Y0074108D01*
X0106998Y0075553D01*
X0106996Y0075573D01*
X0106990Y0075592D01*
X0106981Y0075609D01*
X0106969Y0075624D01*
X0106955Y0075635D01*
X0106939Y0075647D01*
X0106727Y0075866D01*
X0106563Y0076121D01*
X0106501Y0076278D01*
X0106492Y0076296D01*
X0106479Y0076311D01*
X0106464Y0076324D01*
X0106447Y0076333D01*
X0106429Y0076339D01*
X0106409Y0076341D01*
X0106390Y0076340D01*
X0106371Y0076334D01*
X0106353Y0076325D01*
X0106338Y0076313D01*
X0106325Y0076298D01*
X0106316Y0076282D01*
X0106191Y0076000D01*
X0106016Y0075752D01*
X0105818Y0075563D01*
X0105805Y0075548D01*
X0105795Y0075531D01*
X0105789Y0075513D01*
X0105787Y0075491D01*
X0105787Y0074045D01*
X0105772Y0074045D01*
X0105752Y0074043D01*
X0105733Y0074037D01*
X0105716Y0074028D01*
X0105701Y0074015D01*
X0105688Y0074000D01*
X0105679Y0073983D01*
X0105673Y0073964D01*
X0105672Y0073945D01*
X0105672Y0072569D01*
X0103875Y0072569D01*
X0103875Y0073912D01*
X0103879Y0073920D01*
X0103885Y0073938D01*
X0103887Y0073958D01*
X0103887Y0075490D01*
X0103885Y0075509D01*
X0103879Y0075528D01*
X0103870Y0075545D01*
X0103857Y0075561D01*
X0103844Y0075572D01*
X0103827Y0075583D01*
X0103616Y0075802D01*
X0103451Y0076058D01*
X0103340Y0076338D01*
X0103331Y0076355D01*
X0103319Y0076371D01*
X0103304Y0076383D01*
X0103287Y0076393D01*
X0103268Y0076399D01*
X0103249Y0076401D01*
X0103229Y0076400D01*
X0103210Y0076394D01*
X0103193Y0076385D01*
X0103178Y0076373D01*
X0103165Y0076358D01*
X0103155Y0076341D01*
X0103150Y0076323D01*
X0103139Y0076278D01*
X0103016Y0076000D01*
X0102841Y0075752D01*
X0102643Y0075563D01*
X0102630Y0075548D01*
X0102620Y0075531D01*
X0102614Y0075513D01*
X0102612Y0075491D01*
X0102612Y0073958D01*
X0102613Y0073938D01*
X0102619Y0073920D01*
X0102624Y0073912D01*
X0102624Y0072569D01*
X0100827Y0072569D01*
X0100827Y0073945D01*
X0100825Y0073964D01*
X0100819Y0073983D01*
X0100810Y0074000D01*
X0100797Y0074015D01*
X0100782Y0074028D01*
X0100765Y0074037D01*
X0100746Y0074043D01*
X0100727Y0074045D01*
X0100712Y0074045D01*
X0100712Y0075490D01*
X0100710Y0075509D01*
X0100704Y0075528D01*
X0100695Y0075545D01*
X0100682Y0075561D01*
X0100669Y0075572D01*
X0100652Y0075583D01*
X0100441Y0075802D01*
X0100276Y0076058D01*
X0100164Y0076340D01*
X0100109Y0076639D01*
X0100114Y0076943D01*
X0100177Y0077240D01*
X0100297Y0077520D01*
X0100468Y0077771D01*
X0100681Y0077979D01*
X0100694Y0077994D01*
X0100703Y0078012D01*
X0100709Y0078030D01*
X0100712Y0078051D01*
X0100712Y0079495D01*
X0102612Y0079495D01*
X0102612Y0078052D01*
X0102613Y0078032D01*
X0102619Y0078013D01*
X0102628Y0077996D01*
X0102641Y0077981D01*
X0102653Y0077971D01*
X0102868Y0077754D01*
X0103037Y0077501D01*
X0103154Y0077217D01*
X0103158Y0077204D01*
X0103167Y0077187D01*
X0103179Y0077171D01*
X0103194Y0077159D01*
X0103212Y0077150D01*
X0103230Y0077144D01*
X0103250Y0077142D01*
X0103269Y0077144D01*
X0103288Y0077150D01*
X0103306Y0077159D01*
X0103321Y0077171D01*
X0103333Y0077186D01*
X0103342Y0077204D01*
X0103348Y0077221D01*
X0103352Y0077240D01*
X0103472Y0077520D01*
X0103643Y0077771D01*
X0103856Y0077979D01*
X0103869Y0077994D01*
X0103878Y0078012D01*
X0103884Y0078030D01*
X0103887Y0078051D01*
X0103887Y0079495D01*
X0105787Y0079495D01*
X0105787Y0078052D01*
X0105788Y0078032D01*
X0105794Y0078013D01*
X0105803Y0077996D01*
X0105816Y0077981D01*
X0105828Y0077971D01*
X0106043Y0077754D01*
X0106212Y0077501D01*
X0106286Y0077321D01*
X0106295Y0077304D01*
X0106307Y0077288D01*
X0106323Y0077276D01*
X0106340Y0077267D01*
X0106359Y0077261D01*
X0106378Y0077259D01*
X0106398Y0077261D01*
X0106416Y0077267D01*
X0106434Y0077276D01*
X0106449Y0077288D01*
X0106461Y0077303D01*
X0106470Y0077320D01*
X0106583Y0077583D01*
X0106755Y0077834D01*
X0106968Y0078043D01*
X0106981Y0078058D01*
X0106990Y0078075D01*
X0106996Y0078094D01*
X0106998Y0078114D01*
X0106998Y0079558D01*
X0108898Y0079558D01*
X0108898Y0078115D01*
X0108898Y0078115D01*
G37*
G36*
X0112022Y0072569D02*
X0110225Y0072569D01*
X0110225Y0073858D01*
X0112022Y0073858D01*
X0112022Y0072569D01*
X0112022Y0072569D01*
G37*
G36*
X0108847Y0072569D02*
X0107050Y0072569D01*
X0107050Y0073858D01*
X0108847Y0073858D01*
X0108847Y0072569D01*
X0108847Y0072569D01*
G37*
G36*
X0141994Y0073014D02*
X0140197Y0073014D01*
X0140197Y0074303D01*
X0141994Y0074303D01*
X0141994Y0073014D01*
X0141994Y0073014D01*
G37*
G36*
X0139581Y0073014D02*
X0137784Y0073014D01*
X0137784Y0074303D01*
X0139581Y0074303D01*
X0139581Y0073014D01*
X0139581Y0073014D01*
G37*
G36*
X0137295Y0073014D02*
X0135498Y0073014D01*
X0135498Y0074303D01*
X0137295Y0074303D01*
X0137295Y0073014D01*
X0137295Y0073014D01*
G37*
G36*
X0150820Y0073077D02*
X0148896Y0073077D01*
X0148896Y0075001D01*
X0150820Y0075001D01*
X0150820Y0073077D01*
X0150820Y0073077D01*
G37*
G36*
X0133349Y0075243D02*
X0133531Y0075205D01*
X0133703Y0075133D01*
X0133858Y0075029D01*
X0133989Y0074897D01*
X0134092Y0074741D01*
X0134163Y0074569D01*
X0134199Y0074387D01*
X0134199Y0074387D01*
X0134200Y0074386D01*
X0134197Y0074173D01*
X0134196Y0074173D01*
X0134196Y0074173D01*
X0134155Y0073991D01*
X0134079Y0073821D01*
X0133972Y0073669D01*
X0133837Y0073540D01*
X0133680Y0073440D01*
X0133506Y0073373D01*
X0133322Y0073341D01*
X0133136Y0073345D01*
X0132954Y0073385D01*
X0132783Y0073459D01*
X0132630Y0073566D01*
X0132500Y0073700D01*
X0132399Y0073856D01*
X0132331Y0074030D01*
X0132297Y0074213D01*
X0132300Y0074399D01*
X0132338Y0074582D01*
X0132412Y0074753D01*
X0132517Y0074907D01*
X0132650Y0075037D01*
X0132806Y0075139D01*
X0132979Y0075209D01*
X0133162Y0075244D01*
X0133349Y0075243D01*
X0133349Y0075243D01*
G37*
G36*
X0128467Y0075243D02*
X0128650Y0075205D01*
X0128821Y0075133D01*
X0128976Y0075029D01*
X0129107Y0074897D01*
X0129210Y0074741D01*
X0129281Y0074569D01*
X0129318Y0074387D01*
X0129318Y0074387D01*
X0129318Y0074386D01*
X0129315Y0074173D01*
X0129315Y0074173D01*
X0129315Y0074173D01*
X0129273Y0073991D01*
X0129198Y0073821D01*
X0129090Y0073669D01*
X0128955Y0073540D01*
X0128798Y0073440D01*
X0128624Y0073373D01*
X0128440Y0073341D01*
X0128254Y0073345D01*
X0128072Y0073385D01*
X0127901Y0073459D01*
X0127748Y0073566D01*
X0127618Y0073700D01*
X0127518Y0073856D01*
X0127449Y0074030D01*
X0127415Y0074213D01*
X0127418Y0074399D01*
X0127457Y0074582D01*
X0127530Y0074753D01*
X0127635Y0074907D01*
X0127769Y0075037D01*
X0127925Y0075139D01*
X0128097Y0075209D01*
X0128280Y0075244D01*
X0128467Y0075243D01*
X0128467Y0075243D01*
G37*
G36*
X0137295Y0074919D02*
X0135498Y0074919D01*
X0135498Y0076208D01*
X0137295Y0076208D01*
X0137295Y0074919D01*
X0137295Y0074919D01*
G37*
G36*
X0144026Y0074919D02*
X0142229Y0074919D01*
X0142229Y0076208D01*
X0144026Y0076208D01*
X0144026Y0074919D01*
X0144026Y0074919D01*
G37*
G36*
X0141994Y0074919D02*
X0140197Y0074919D01*
X0140197Y0076208D01*
X0141994Y0076208D01*
X0141994Y0074919D01*
X0141994Y0074919D01*
G37*
G36*
X0139581Y0074919D02*
X0137784Y0074919D01*
X0137784Y0076208D01*
X0139581Y0076208D01*
X0139581Y0074919D01*
X0139581Y0074919D01*
G37*
G36*
X0147455Y0075173D02*
X0145658Y0075173D01*
X0145658Y0076462D01*
X0147455Y0076462D01*
X0147455Y0075173D01*
X0147455Y0075173D01*
G37*
G36*
X0150820Y0075617D02*
X0148896Y0075617D01*
X0148896Y0077541D01*
X0150820Y0077541D01*
X0150820Y0075617D01*
X0150820Y0075617D01*
G37*
G36*
X0133294Y0076062D02*
X0132005Y0076062D01*
X0132005Y0077859D01*
X0133294Y0077859D01*
X0133294Y0076062D01*
X0133294Y0076062D01*
G37*
G36*
X0131389Y0076062D02*
X0130100Y0076062D01*
X0130100Y0077859D01*
X0131389Y0077859D01*
X0131389Y0076062D01*
X0131389Y0076062D01*
G37*
G36*
X0129865Y0076062D02*
X0128576Y0076062D01*
X0128576Y0077859D01*
X0129865Y0077859D01*
X0129865Y0076062D01*
X0129865Y0076062D01*
G37*
G36*
X0127960Y0076062D02*
X0126671Y0076062D01*
X0126671Y0077859D01*
X0127960Y0077859D01*
X0127960Y0076062D01*
X0127960Y0076062D01*
G37*
G36*
X0136723Y0076697D02*
X0135434Y0076697D01*
X0135434Y0078494D01*
X0136723Y0078494D01*
X0136723Y0076697D01*
X0136723Y0076697D01*
G37*
G36*
X0144026Y0076697D02*
X0142737Y0076697D01*
X0142737Y0078494D01*
X0144026Y0078494D01*
X0144026Y0076697D01*
X0144026Y0076697D01*
G37*
G36*
X0142121Y0076697D02*
X0140832Y0076697D01*
X0140832Y0078494D01*
X0142121Y0078494D01*
X0142121Y0076697D01*
X0142121Y0076697D01*
G37*
G36*
X0138438Y0076697D02*
X0137149Y0076697D01*
X0137149Y0078494D01*
X0138438Y0078494D01*
X0138438Y0076697D01*
X0138438Y0076697D01*
G37*
G36*
X0140343Y0076697D02*
X0139054Y0076697D01*
X0139054Y0078494D01*
X0140343Y0078494D01*
X0140343Y0076697D01*
X0140343Y0076697D01*
G37*
G36*
X0134818Y0076697D02*
X0133529Y0076697D01*
X0133529Y0078494D01*
X0134818Y0078494D01*
X0134818Y0076697D01*
X0134818Y0076697D01*
G37*
G36*
X0147455Y0077078D02*
X0145658Y0077078D01*
X0145658Y0078367D01*
X0147455Y0078367D01*
X0147455Y0077078D01*
X0147455Y0077078D01*
G37*
M02*
