M48
METRIC,000.000             
%
T01C0.200000
X95355Y22251
X95355Y20701
X95355Y19151
X96555Y22251
X96555Y20701
X96555Y19151
X97755Y22251
X97755Y20701
X97755Y19151
X98955Y22251
X98955Y20701
X98955Y19151
X95355Y62383
X95355Y60833
X95355Y59283
X96555Y62383
X96555Y60833
X96555Y59283
X97755Y62383
X97755Y60833
X97755Y59283
X98955Y62383
X98955Y60833
X98955Y59283
X95355Y102515
X95355Y100965
X95355Y99415
X96555Y102515
X96555Y100965
X96555Y99415
X97755Y102515
X97755Y100965
X97755Y99415
X98955Y102515
X98955Y100965
X98955Y99415
X95355Y142647
X95355Y141097
X95355Y139547
X96555Y142647
X96555Y141097
X96555Y139547
X97755Y142647
X97755Y141097
X97755Y139547
X98955Y142647
X98955Y141097
X98955Y139547
T02C0.400000
X5348Y9906
X6872Y30734
X6872Y29210
X6872Y27178
X6872Y25654
X6872Y9906
X7380Y15494
X7888Y24638
X8396Y12954
X8396Y9906
X8904Y32766
X9920Y12954
X9920Y9906
X10428Y32766
X10936Y28702
X11444Y9906
X12460Y24638
X12460Y11430
X12968Y9906
X13984Y18034
X14492Y25146
X14492Y22606
X14492Y20574
X16016Y23114
X16016Y16002
X17032Y16031
X17540Y20066
X17540Y13970
X18048Y23114
X19064Y37846
X19064Y35814
X19064Y34290
X19064Y32258
X19572Y23114
X20080Y19558
X20588Y37846
X22620Y37846
X22620Y16002
X22620Y14478
X22620Y12954
X24144Y12954
X25668Y30734
X25668Y29210
X25668Y27178
X25668Y25654
X25668Y12954
X27192Y12954
X27700Y30734
X27700Y29210
X27700Y27178
X27700Y25654
X5348Y50038
X6872Y70866
X6872Y69342
X6872Y67310
X6872Y65786
X6872Y50038
X7380Y55626
X7888Y64770
X8396Y53086
X8396Y50038
X8904Y72898
X9920Y53086
X9920Y50038
X10428Y72898
X10936Y68834
X11444Y50038
X12460Y64770
X12460Y51562
X12968Y50038
X13984Y58166
X14492Y65278
X14492Y62738
X14492Y60706
X16016Y63246
X16016Y56134
X17032Y56163
X17540Y60198
X17540Y54102
X18048Y63246
X19064Y77978
X19064Y75946
X19064Y74422
X19064Y72390
X19572Y63246
X20080Y59690
X20588Y77978
X22620Y77978
X22620Y56134
X22620Y54610
X22620Y53086
X24144Y53086
X25668Y70866
X25668Y69342
X25668Y67310
X25668Y65786
X25668Y53086
X27192Y53086
X27700Y70866
X27700Y69342
X27700Y67310
X27700Y65786
X5348Y90170
X6872Y110998
X6872Y109474
X6872Y107442
X6872Y105918
X6872Y90170
X7380Y95758
X7888Y104902
X8396Y93218
X8396Y90170
X8904Y113030
X9920Y93218
X9920Y90170
X10428Y113030
X10936Y108966
X11444Y90170
X12460Y104902
X12460Y91694
X12968Y90170
X13984Y98298
X14492Y105410
X14492Y102870
X14492Y100838
X16016Y103378
X16016Y96266
X17032Y96295
X17540Y100330
X17540Y94234
X18048Y103378
X19064Y118110
X19064Y116078
X19064Y114554
X19064Y112522
X19572Y103378
X20080Y99822
X20588Y118110
X22620Y118110
X22620Y96266
X22620Y94742
X22620Y93218
X24144Y93218
X25668Y110998
X25668Y109474
X25668Y107442
X25668Y105918
X25668Y93218
X27192Y93218
X27700Y110998
X27700Y109474
X27700Y107442
X27700Y105918
X5348Y130302
X6872Y151130
X6872Y149606
X6872Y147574
X6872Y146050
X6872Y130302
X7380Y135890
X7888Y145034
X8396Y133350
X8396Y130302
X8904Y153162
X9920Y133350
X9920Y130302
X10428Y153162
X10936Y149098
X11444Y130302
X12460Y145034
X12460Y131826
X12968Y130302
X13984Y138430
X14492Y145542
X14492Y143002
X14492Y140970
X16016Y143510
X16016Y136398
X17032Y136427
X17540Y140462
X17540Y134366
X18048Y143510
X19064Y158242
X19064Y156210
X19064Y154686
X19064Y152654
X19572Y143510
X20080Y139954
X20588Y158242
X22620Y158242
X22620Y136398
X22620Y134874
X22620Y133350
X24144Y133350
X25668Y151130
X25668Y149606
X25668Y147574
X25668Y146050
X25668Y133350
X27192Y133350
X27700Y151130
X27700Y149606
X27700Y147574
X27700Y146050
X37338Y13970
X37338Y12446
X37338Y11176
X37338Y9906
X38354Y12446
X38354Y11176
X38354Y9906
X39370Y12446
X39370Y11176
X39370Y9906
X44704Y23876
X44704Y22606
X44704Y21336
X44704Y20066
X44704Y18796
X45212Y27686
X45212Y26670
X45212Y25654
X45720Y16510
X46228Y27686
X46228Y26670
X46228Y25654
X46736Y38608
X46990Y16510
X47244Y27686
X47244Y26670
X47244Y25654
X48260Y16510
X50292Y26670
X52070Y23876
X52070Y22860
X53086Y23876
X53086Y22860
X55626Y28448
X55753Y37846
X56642Y27178
X56642Y26162
X56896Y12954
X57404Y18796
X57404Y17526
X57404Y16256
X57658Y27178
X57658Y26162
X58166Y12954
X58674Y18796
X58674Y17526
X58674Y16256
X58928Y38608
X58928Y37592
X58928Y36576
X58928Y34544
X58928Y33528
X58928Y32258
X58928Y28448
X58928Y27432
X58928Y26162
X59436Y12954
X59944Y18796
X59944Y17526
X59944Y16256
X60452Y11176
X60452Y9652
X60452Y8128
X61214Y18796
X61214Y17526
X61214Y16256
X61468Y14732
X61468Y13462
X61468Y12192
X61468Y11176
X37338Y54102
X37338Y52578
X37338Y51308
X37338Y50038
X38354Y52578
X38354Y51308
X38354Y50038
X39370Y52578
X39370Y51308
X39370Y50038
X44704Y64008
X44704Y62738
X44704Y61468
X44704Y60198
X44704Y58928
X45212Y67818
X45212Y66802
X45212Y65786
X45720Y56642
X46228Y67818
X46228Y66802
X46228Y65786
X46736Y78740
X46990Y56642
X47244Y67818
X47244Y66802
X47244Y65786
X48260Y56642
X50292Y66802
X52070Y64008
X52070Y62992
X53086Y64008
X53086Y62992
X55626Y68580
X55753Y77978
X56642Y67310
X56642Y66294
X56896Y53086
X57404Y58928
X57404Y57658
X57404Y56388
X57658Y67310
X57658Y66294
X58166Y53086
X58674Y58928
X58674Y57658
X58674Y56388
X58928Y78740
X58928Y77724
X58928Y76708
X58928Y74676
X58928Y73660
X58928Y72390
X58928Y68580
X58928Y67564
X58928Y66294
X59436Y53086
X59944Y58928
X59944Y57658
X59944Y56388
X60452Y51308
X60452Y49784
X60452Y48260
X61214Y58928
X61214Y57658
X61214Y56388
X61468Y54864
X61468Y53594
X61468Y52324
X61468Y51308
X37338Y94234
X37338Y92710
X37338Y91440
X37338Y90170
X38354Y92710
X38354Y91440
X38354Y90170
X39370Y92710
X39370Y91440
X39370Y90170
X44704Y104140
X44704Y102870
X44704Y101600
X44704Y100330
X44704Y99060
X45212Y107950
X45212Y106934
X45212Y105918
X45720Y96774
X46228Y107950
X46228Y106934
X46228Y105918
X46736Y118872
X46990Y96774
X47244Y107950
X47244Y106934
X47244Y105918
X48260Y96774
X50292Y106934
X52070Y104140
X52070Y103124
X53086Y104140
X53086Y103124
X55626Y108712
X55753Y118110
X56642Y107442
X56642Y106426
X56896Y93218
X57404Y99060
X57404Y97790
X57404Y96520
X57658Y107442
X57658Y106426
X58166Y93218
X58674Y99060
X58674Y97790
X58674Y96520
X58928Y118872
X58928Y117856
X58928Y116840
X58928Y114808
X58928Y113792
X58928Y112522
X58928Y108712
X58928Y107696
X58928Y106426
X59436Y93218
X59944Y99060
X59944Y97790
X59944Y96520
X60452Y91440
X60452Y89916
X60452Y88392
X61214Y99060
X61214Y97790
X61214Y96520
X61468Y94996
X61468Y93726
X61468Y92456
X61468Y91440
X37338Y134366
X37338Y132842
X37338Y131572
X37338Y130302
X38354Y132842
X38354Y131572
X38354Y130302
X39370Y132842
X39370Y131572
X39370Y130302
X44704Y144272
X44704Y143002
X44704Y141732
X44704Y140462
X44704Y139192
X45212Y148082
X45212Y147066
X45212Y146050
X45720Y136906
X46228Y148082
X46228Y147066
X46228Y146050
X46736Y159004
X46990Y136906
X47244Y148082
X47244Y147066
X47244Y146050
X48260Y136906
X50292Y147066
X52070Y144272
X52070Y143256
X53086Y144272
X53086Y143256
X55626Y148844
X55753Y158242
X56642Y147574
X56642Y146558
X56896Y133350
X57404Y139192
X57404Y137922
X57404Y136652
X57658Y147574
X57658Y146558
X58166Y133350
X58674Y139192
X58674Y137922
X58674Y136652
X58928Y159004
X58928Y157988
X58928Y156972
X58928Y154940
X58928Y153924
X58928Y152654
X58928Y148844
X58928Y147828
X58928Y146558
X59436Y133350
X59944Y139192
X59944Y137922
X59944Y136652
X60452Y131572
X60452Y130048
X60452Y128524
X61214Y139192
X61214Y137922
X61214Y136652
X61468Y135128
X61468Y133858
X61468Y132588
X61468Y131572
X72390Y21082
X72390Y19050
X77724Y11938
X77978Y30988
X79502Y11938
X79502Y10160
X79502Y8382
X79756Y17018
X79756Y6350
X80264Y4318
X81026Y28448
X81280Y29972
X81649Y15609
X81788Y14224
X81788Y4064
X82296Y21590
X82804Y28956
X83312Y18542
X83820Y30226
X84074Y24384
X84087Y25667
X84328Y4064
X84836Y16764
X85090Y29718
X85090Y2032
X86360Y30226
X87122Y16764
X87630Y21844
X88138Y27940
X88900Y29718
X89154Y16764
X90424Y28448
X90678Y16764
X90678Y1778
X91542Y29845
X91948Y23876
X91948Y22876
X91948Y3302
X92710Y28448
X92710Y13462
X92964Y19812
X92964Y18796
X93726Y3302
X93980Y14732
X94031Y29769
X95651Y25223
X95758Y3302
X96545Y32039
X96840Y25037
X97536Y3302
X97839Y24981
X98425Y30226
X99252Y15350
X99568Y14478
X99605Y17018
X99695Y24511
X100330Y30226
X101600Y24130
X101854Y19251
X101854Y18288
X102093Y21859
X102870Y29972
X103124Y21082
X103378Y18796
X103632Y13462
X104140Y32258
X104140Y31242
X104394Y38608
X104394Y33528
X104648Y3810
X104648Y2032
X105014Y24780
X105410Y19304
X105410Y18288
X105918Y13970
X106348Y10512
X106426Y38608
X106426Y36830
X106426Y35052
X106553Y24765
X106680Y8128
X106680Y6350
X106680Y4064
X107950Y24765
X108204Y35052
X108458Y33528
X108458Y32258
X109474Y24638
X109982Y32258
X110998Y24638
X111252Y15748
X111506Y32258
X111584Y10590
X111671Y18707
X111760Y20320
X112776Y24638
X113284Y32258
X113284Y2032
X114046Y16256
X114554Y24638
X115062Y32258
X115570Y16256
X116332Y24638
X116840Y32258
X117094Y16256
X117856Y24638
X118618Y16256
X118872Y32258
X118872Y30734
X118872Y29210
X118872Y28194
X119380Y24638
X120396Y24638
X120396Y19558
X120396Y18288
X120396Y16510
X120396Y14986
X120396Y12700
X120650Y30226
X120650Y10668
X120904Y28194
X121158Y8636
X121920Y31750
X122682Y10160
X124968Y10160
X127254Y21082
X127254Y10160
X129032Y10160
X129286Y21082
X72390Y61214
X72390Y59182
X77724Y52070
X77978Y71120
X79502Y52070
X79502Y50292
X79502Y48514
X79756Y57150
X79756Y46482
X80264Y44450
X81026Y68580
X81280Y70104
X81649Y55741
X81788Y54356
X81788Y44196
X82296Y61722
X82804Y69088
X83312Y58674
X83820Y70358
X84074Y64516
X84087Y65799
X84328Y44196
X84836Y56896
X85090Y69850
X85090Y42164
X86360Y70358
X87122Y56896
X87630Y61976
X88138Y68072
X88900Y69850
X89154Y56896
X90424Y68580
X90678Y56896
X90678Y41910
X91542Y69977
X91948Y64008
X91948Y63008
X91948Y43434
X92710Y68580
X92710Y53594
X92964Y59944
X92964Y58928
X93726Y43434
X93980Y54864
X94031Y69901
X95651Y65355
X95758Y43434
X96545Y72171
X96840Y65169
X97536Y43434
X97839Y65113
X98425Y70358
X99252Y55482
X99568Y54610
X99605Y57150
X99695Y64643
X100330Y70358
X101600Y64262
X101854Y59383
X101854Y58420
X102093Y61991
X102870Y70104
X103124Y61214
X103378Y58928
X103632Y53594
X104140Y72390
X104140Y71374
X104394Y78740
X104394Y73660
X104648Y43942
X104648Y42164
X105014Y64912
X105410Y59436
X105410Y58420
X105918Y54102
X106348Y50644
X106426Y78740
X106426Y76962
X106426Y75184
X106553Y64897
X106680Y48260
X106680Y46482
X106680Y44196
X107950Y64897
X108204Y75184
X108458Y73660
X108458Y72390
X109474Y64770
X109982Y72390
X110998Y64770
X111252Y55880
X111506Y72390
X111584Y50722
X111671Y58839
X111760Y60452
X112776Y64770
X113284Y72390
X113284Y42164
X114046Y56388
X114554Y64770
X115062Y72390
X115570Y56388
X116332Y64770
X116840Y72390
X117094Y56388
X117856Y64770
X118618Y56388
X118872Y72390
X118872Y70866
X118872Y69342
X118872Y68326
X119380Y64770
X120396Y64770
X120396Y59690
X120396Y58420
X120396Y56642
X120396Y55118
X120396Y52832
X120650Y70358
X120650Y50800
X120904Y68326
X121158Y48768
X121920Y71882
X122682Y50292
X124968Y50292
X127254Y61214
X127254Y50292
X129032Y50292
X129286Y61214
X72390Y101346
X72390Y99314
X77724Y92202
X77978Y111252
X79502Y92202
X79502Y90424
X79502Y88646
X79756Y97282
X79756Y86614
X80264Y84582
X81026Y108712
X81280Y110236
X81649Y95873
X81788Y94488
X81788Y84328
X82296Y101854
X82804Y109220
X83312Y98806
X83820Y110490
X84074Y104648
X84087Y105931
X84328Y84328
X84836Y97028
X85090Y109982
X85090Y82296
X86360Y110490
X87122Y97028
X87630Y102108
X88138Y108204
X88900Y109982
X89154Y97028
X90424Y108712
X90678Y97028
X90678Y82042
X91542Y110109
X91948Y104140
X91948Y103140
X91948Y83566
X92710Y108712
X92710Y93726
X92964Y100076
X92964Y99060
X93726Y83566
X93980Y94996
X94031Y110033
X95651Y105487
X95758Y83566
X96545Y112303
X96840Y105301
X97536Y83566
X97839Y105245
X98425Y110490
X99252Y95614
X99568Y94742
X99605Y97282
X99695Y104775
X100330Y110490
X101600Y104394
X101854Y99515
X101854Y98552
X102093Y102123
X102870Y110236
X103124Y101346
X103378Y99060
X103632Y93726
X104140Y112522
X104140Y111506
X104394Y118872
X104394Y113792
X104648Y84074
X104648Y82296
X105014Y105044
X105410Y99568
X105410Y98552
X105918Y94234
X106348Y90776
X106426Y118872
X106426Y117094
X106426Y115316
X106553Y105029
X106680Y88392
X106680Y86614
X106680Y84328
X107950Y105029
X108204Y115316
X108458Y113792
X108458Y112522
X109474Y104902
X109982Y112522
X110998Y104902
X111252Y96012
X111506Y112522
X111584Y90854
X111671Y98971
X111760Y100584
X112776Y104902
X113284Y112522
X113284Y82296
X114046Y96520
X114554Y104902
X115062Y112522
X115570Y96520
X116332Y104902
X116840Y112522
X117094Y96520
X117856Y104902
X118618Y96520
X118872Y112522
X118872Y110998
X118872Y109474
X118872Y108458
X119380Y104902
X120396Y104902
X120396Y99822
X120396Y98552
X120396Y96774
X120396Y95250
X120396Y92964
X120650Y110490
X120650Y90932
X120904Y108458
X121158Y88900
X121920Y112014
X122682Y90424
X124968Y90424
X127254Y101346
X127254Y90424
X129032Y90424
X129286Y101346
X72390Y141478
X72390Y139446
X77724Y132334
X77978Y151384
X79502Y132334
X79502Y130556
X79502Y128778
X79756Y137414
X79756Y126746
X80264Y124714
X81026Y148844
X81280Y150368
X81649Y136005
X81788Y134620
X81788Y124460
X82296Y141986
X82804Y149352
X83312Y138938
X83820Y150622
X84074Y144780
X84087Y146063
X84328Y124460
X84836Y137160
X85090Y150114
X85090Y122428
X86360Y150622
X87122Y137160
X87630Y142240
X88138Y148336
X88900Y150114
X89154Y137160
X90424Y148844
X90678Y137160
X90678Y122174
X91542Y150241
X91948Y144272
X91948Y143272
X91948Y123698
X92710Y148844
X92710Y133858
X92964Y140208
X92964Y139192
X93726Y123698
X93980Y135128
X94031Y150165
X95651Y145619
X95758Y123698
X96545Y152435
X96840Y145433
X97536Y123698
X97839Y145377
X98425Y150622
X99252Y135746
X99568Y134874
X99605Y137414
X99695Y144907
X100330Y150622
X101600Y144526
X101854Y139647
X101854Y138684
X102093Y142255
X102870Y150368
X103124Y141478
X103378Y139192
X103632Y133858
X104140Y152654
X104140Y151638
X104394Y159004
X104394Y153924
X104648Y124206
X104648Y122428
X105014Y145176
X105410Y139700
X105410Y138684
X105918Y134366
X106348Y130908
X106426Y159004
X106426Y157226
X106426Y155448
X106553Y145161
X106680Y128524
X106680Y126746
X106680Y124460
X107950Y145161
X108204Y155448
X108458Y153924
X108458Y152654
X109474Y145034
X109982Y152654
X110998Y145034
X111252Y136144
X111506Y152654
X111584Y130986
X111671Y139103
X111760Y140716
X112776Y145034
X113284Y152654
X113284Y122428
X114046Y136652
X114554Y145034
X115062Y152654
X115570Y136652
X116332Y145034
X116840Y152654
X117094Y136652
X117856Y145034
X118618Y136652
X118872Y152654
X118872Y151130
X118872Y149606
X118872Y148590
X119380Y145034
X120396Y145034
X120396Y139954
X120396Y138684
X120396Y136906
X120396Y135382
X120396Y133096
X120650Y150622
X120650Y131064
X120904Y148590
X121158Y129032
X121920Y152146
X122682Y130556
X124968Y130556
X127254Y141478
X127254Y130556
X129032Y130556
X129286Y141478
X137541Y15367
X138557Y15367
X139573Y15367
X147066Y20066
X147066Y21209
X137414Y21971
X138430Y21971
X139446Y21971
X147066Y22225
X137541Y55499
X138557Y55499
X139573Y55499
X147066Y60198
X147066Y61341
X137414Y62103
X138430Y62103
X139446Y62103
X147066Y62357
X137541Y95631
X138557Y95631
X139573Y95631
X147066Y100330
X147066Y101473
X137414Y102235
X138430Y102235
X139446Y102235
X147066Y102489
X137541Y135763
X138557Y135763
X139573Y135763
X147066Y140462
X147066Y141605
X137414Y142367
X138430Y142367
X139446Y142367
X147066Y142621
T03C0.740000
X137439Y26391
X141249Y26391
X145059Y26391
X138709Y27891
X139979Y27891
X142519Y27891
X143789Y27891
X137439Y66523
X141249Y66523
X145059Y66523
X138709Y68023
X139979Y68023
X142519Y68023
X143789Y68023
X137439Y106655
X141249Y106655
X145059Y106655
X138709Y108155
X139979Y108155
X142519Y108155
X143789Y108155
X137439Y146787
X141249Y146787
X145059Y146787
X138709Y148287
X139979Y148287
X142519Y148287
X143789Y148287
T04C0.889000
X24906Y15494
X27446Y15494
X24906Y32766
X27446Y32766
X24906Y37846
X27446Y37846
X24906Y23114
X27446Y23114
X24906Y18034
X27446Y18034
X24906Y2286
X27446Y2286
X24906Y20574
X27446Y20574
X24906Y7366
X27446Y7366
X24906Y35306
X27446Y35306
X24906Y4826
X27446Y4826
X24906Y55626
X27446Y55626
X24906Y72898
X27446Y72898
X24906Y77978
X27446Y77978
X24906Y63246
X27446Y63246
X24906Y58166
X27446Y58166
X24906Y42418
X27446Y42418
X24906Y60706
X27446Y60706
X24906Y47498
X27446Y47498
X24906Y75438
X27446Y75438
X24906Y44958
X27446Y44958
X24906Y95758
X27446Y95758
X24906Y113030
X27446Y113030
X24906Y118110
X27446Y118110
X24906Y103378
X27446Y103378
X24906Y98298
X27446Y98298
X24906Y82550
X27446Y82550
X24906Y100838
X27446Y100838
X24906Y87630
X27446Y87630
X24906Y115570
X27446Y115570
X24906Y85090
X27446Y85090
X24906Y135890
X27446Y135890
X24906Y153162
X27446Y153162
X24906Y158242
X27446Y158242
X24906Y143510
X27446Y143510
X24906Y138430
X27446Y138430
X24906Y122682
X27446Y122682
X24906Y140970
X27446Y140970
X24906Y127762
X27446Y127762
X24906Y155702
X27446Y155702
X24906Y125222
X27446Y125222
X42418Y37211
X42418Y34671
X44958Y37211
X44958Y34671
X42418Y77343
X42418Y74803
X44958Y77343
X44958Y74803
X42418Y117475
X42418Y114935
X44958Y117475
X44958Y114935
X42418Y157607
X42418Y155067
X44958Y157607
X44958Y155067
X72390Y28956
X72390Y26416
X72390Y23876
X74930Y28956
X74930Y26416
X74930Y23876
X88900Y37846
X88900Y35306
X72390Y15875
X72390Y13335
X72390Y10795
X74930Y15875
X74930Y13335
X74930Y10795
X92075Y8636
X92075Y6096
X110998Y6350
X110998Y3810
X108458Y6350
X108458Y3810
X101600Y37846
X101600Y35306
X86360Y37846
X86360Y35306
X86995Y8636
X86995Y6096
X94615Y8636
X94615Y6096
X89535Y8636
X89535Y6096
X91440Y37846
X91440Y35306
X96520Y37846
X96520Y35306
X97155Y8636
X97155Y6096
X83820Y37846
X83820Y35306
X102235Y8636
X102235Y6096
X104775Y8636
X104775Y6096
X93980Y37846
X93980Y35306
X81280Y37846
X81280Y35306
X99695Y8636
X99695Y6096
X99060Y37846
X99060Y35306
X84455Y8636
X84455Y6096
X81915Y8636
X81915Y6096
X72390Y69088
X72390Y66548
X72390Y64008
X74930Y69088
X74930Y66548
X74930Y64008
X88900Y77978
X88900Y75438
X72390Y56007
X72390Y53467
X72390Y50927
X74930Y56007
X74930Y53467
X74930Y50927
X92075Y48768
X92075Y46228
X110998Y46482
X110998Y43942
X108458Y46482
X108458Y43942
X101600Y77978
X101600Y75438
X86360Y77978
X86360Y75438
X86995Y48768
X86995Y46228
X94615Y48768
X94615Y46228
X89535Y48768
X89535Y46228
X91440Y77978
X91440Y75438
X96520Y77978
X96520Y75438
X97155Y48768
X97155Y46228
X83820Y77978
X83820Y75438
X102235Y48768
X102235Y46228
X104775Y48768
X104775Y46228
X93980Y77978
X93980Y75438
X81280Y77978
X81280Y75438
X99695Y48768
X99695Y46228
X99060Y77978
X99060Y75438
X84455Y48768
X84455Y46228
X81915Y48768
X81915Y46228
X72390Y109220
X72390Y106680
X72390Y104140
X74930Y109220
X74930Y106680
X74930Y104140
X88900Y118110
X88900Y115570
X72390Y96139
X72390Y93599
X72390Y91059
X74930Y96139
X74930Y93599
X74930Y91059
X92075Y88900
X92075Y86360
X110998Y86614
X110998Y84074
X108458Y86614
X108458Y84074
X101600Y118110
X101600Y115570
X86360Y118110
X86360Y115570
X86995Y88900
X86995Y86360
X94615Y88900
X94615Y86360
X89535Y88900
X89535Y86360
X91440Y118110
X91440Y115570
X96520Y118110
X96520Y115570
X97155Y88900
X97155Y86360
X83820Y118110
X83820Y115570
X102235Y88900
X102235Y86360
X104775Y88900
X104775Y86360
X93980Y118110
X93980Y115570
X81280Y118110
X81280Y115570
X99695Y88900
X99695Y86360
X99060Y118110
X99060Y115570
X84455Y88900
X84455Y86360
X81915Y88900
X81915Y86360
X72390Y149352
X72390Y146812
X72390Y144272
X74930Y149352
X74930Y146812
X74930Y144272
X88900Y158242
X88900Y155702
X72390Y136271
X72390Y133731
X72390Y131191
X74930Y136271
X74930Y133731
X74930Y131191
X92075Y129032
X92075Y126492
X110998Y126746
X110998Y124206
X108458Y126746
X108458Y124206
X101600Y158242
X101600Y155702
X86360Y158242
X86360Y155702
X86995Y129032
X86995Y126492
X94615Y129032
X94615Y126492
X89535Y129032
X89535Y126492
X91440Y158242
X91440Y155702
X96520Y158242
X96520Y155702
X97155Y129032
X97155Y126492
X83820Y158242
X83820Y155702
X102235Y129032
X102235Y126492
X104775Y129032
X104775Y126492
X93980Y158242
X93980Y155702
X81280Y158242
X81280Y155702
X99695Y129032
X99695Y126492
X99060Y158242
X99060Y155702
X84455Y129032
X84455Y126492
X81915Y129032
X81915Y126492
X132588Y22098
X135128Y22098
X132588Y19558
X135128Y19558
X132588Y17018
X135128Y17018
X132588Y14478
X135128Y14478
X142494Y10668
X145034Y10668
X147574Y10668
X142494Y13208
X145034Y13208
X147574Y13208
X132588Y62230
X135128Y62230
X132588Y59690
X135128Y59690
X132588Y57150
X135128Y57150
X132588Y54610
X135128Y54610
X142494Y50800
X145034Y50800
X147574Y50800
X142494Y53340
X145034Y53340
X147574Y53340
X132588Y102362
X135128Y102362
X132588Y99822
X135128Y99822
X132588Y97282
X135128Y97282
X132588Y94742
X135128Y94742
X142494Y90932
X145034Y90932
X147574Y90932
X142494Y93472
X145034Y93472
X147574Y93472
X132588Y142494
X135128Y142494
X132588Y139954
X135128Y139954
X132588Y137414
X135128Y137414
X132588Y134874
X135128Y134874
X142494Y131064
X145034Y131064
X147574Y131064
X142494Y133604
X145034Y133604
X147574Y133604
T05C1.200000
X37973Y25781
X42973Y25781
X37973Y65913
X42973Y65913
X37973Y106045
X42973Y106045
X37973Y146177
X42973Y146177
T06C1.300000
X52578Y9906
X52578Y4906
X57658Y9906
X57658Y4906
X47498Y9906
X47498Y4906
X42418Y9906
X42418Y4906
X52578Y50038
X52578Y45038
X57658Y50038
X57658Y45038
X47498Y50038
X47498Y45038
X42418Y50038
X42418Y45038
X52578Y90170
X52578Y85170
X57658Y90170
X57658Y85170
X47498Y90170
X47498Y85170
X42418Y90170
X42418Y85170
X52578Y130302
X52578Y125302
X57658Y130302
X57658Y125302
X47498Y130302
X47498Y125302
X42418Y130302
X42418Y125302
T07C1.350000
X147519Y27891
X134689Y28891
X147519Y68023
X134689Y69023
X147519Y108155
X134689Y109155
X147519Y148287
X134689Y149287
T08C1.500000
X125730Y15621
X125730Y26416
X125730Y55753
X125730Y66548
X125730Y95885
X125730Y106680
X125730Y136017
X125730Y146812
T09C1.700000
X123190Y18161
X123190Y13081
X128270Y18161
X128270Y13081
X123190Y28956
X123190Y23876
X128270Y28956
X128270Y23876
X123190Y58293
X123190Y53213
X128270Y58293
X128270Y53213
X123190Y69088
X123190Y64008
X128270Y69088
X128270Y64008
X123190Y98425
X123190Y93345
X128270Y98425
X128270Y93345
X123190Y109220
X123190Y104140
X128270Y109220
X128270Y104140
X123190Y138557
X123190Y133477
X128270Y138557
X128270Y133477
X123190Y149352
X123190Y144272
X128270Y149352
X128270Y144272
T10C2.700000
X114808Y4064
X118364Y4064
X114808Y44196
X118364Y44196
X114808Y84328
X118364Y84328
X114808Y124460
X118364Y124460
T11C3.000000
X4840Y35306
X15000Y4826
X15000Y35306
X4840Y4826
X4840Y75438
X15000Y44958
X15000Y75438
X4840Y44958
X4840Y115570
X15000Y85090
X15000Y115570
X4840Y85090
X4840Y155702
X15000Y125222
X15000Y155702
X4840Y125222
X34798Y35306
X65278Y4826
X65278Y35306
X34798Y4826
X34798Y75438
X65278Y44958
X65278Y75438
X34798Y44958
X34798Y115570
X65278Y85090
X65278Y115570
X34798Y85090
X34798Y155702
X65278Y125222
X65278Y155702
X34798Y125222
X74930Y35306
X125730Y35306
X74930Y4826
X125730Y4826
X74930Y75438
X125730Y75438
X74930Y44958
X125730Y44958
X74930Y115570
X125730Y115570
X74930Y85090
X125730Y85090
X74930Y155702
X125730Y155702
X74930Y125222
X125730Y125222
X145542Y35306
X135382Y35306
X145542Y4826
X135382Y4826
X145542Y75438
X135382Y75438
X145542Y44958
X135382Y44958
X145542Y115570
X135382Y115570
X145542Y85090
X135382Y85090
X145542Y155702
X135382Y155702
X145542Y125222
X135382Y125222
M30
