G75*
G71*
%MOMM*%
%OFA0B0*%
%FSLAX53Y53*%
%IPPOS*%
%LPD*%
%ADD11R,2.49936X2.55016*%
%ADD14C,0.40000*%
%ADD15R,3.81000X3.81000*%
%ADD16R,0.29972X0.44958*%
%ADD17C,0.30000*%
%ADD20R,3.29946X2.49936*%
%ADD21C,0.80000*%
%ADD23C,2.30000*%
%ADD27R,1.50000X0.45000*%
%ADD28R,2.49936X1.80086*%
%ADD30R,3.00000X2.00000*%
%ADD31C,1.30000*%
%ADD32R,1.70000X1.00000*%
%ADD33C,0.25400*%
%ADD34R,1.30000X1.50000*%
%ADD35C,0.50000*%
%ADD36R,3.65760X2.03200*%
%ADD40C,0.89000*%
%ADD41R,1.52400X1.52400*%
%ADD42R,1.30048X1.69926*%
%ADD44R,1.01600X2.03200*%
%ADD46R,2.03200X3.65760*%
%ADD48R,0.70000X3.00000*%
%ADD50R,1.39700X0.88900*%
%ADD54C,0.60000*%
%ADD64R,0.30000X0.60000*%
%ADD67C,0.90000*%
%ADD68R,2.55016X2.49936*%
%ADD74C,0.25000*%
%ADD77R,0.88900X1.39700*%
%ADD78R,3.40000X3.40000*%
%ADD79R,3.81000X3.33000*%
%ADD80R,2.03200X1.01600*%
%ADD81C,0.70000*%
%ADD82C,1.50000*%
%ADD83R,0.44958X0.29972*%
%ADD85C,6.00000*%
X0000000Y0000000D02*
G01*
D17*
X0038298Y0009381D02*
X0038298Y0010681D01*
X0037865Y0009753D01*
X0037432Y0010681D01*
X0037432Y0009381D01*
X0036193Y0009381D02*
X0036812Y0009381D01*
X0036812Y0010681D01*
X0035822Y0009753D02*
X0035203Y0009753D01*
X0035946Y0009381D02*
X0035512Y0010681D01*
X0035079Y0009381D01*
X0034212Y0010062D02*
X0034027Y0010000D01*
X0033965Y0009939D01*
X0033903Y0009815D01*
X0033903Y0009629D01*
X0033965Y0009505D01*
X0034027Y0009443D01*
X0034151Y0009381D01*
X0034646Y0009381D01*
X0034646Y0010681D01*
X0034212Y0010681D01*
X0034089Y0010620D01*
X0034027Y0010558D01*
X0033965Y0010434D01*
X0033965Y0010310D01*
X0034027Y0010186D01*
X0034089Y0010124D01*
X0034212Y0010062D01*
X0034646Y0010062D01*
X0019487Y0018619D02*
X0019487Y0017567D01*
X0019425Y0017443D01*
X0019363Y0017381D01*
X0019239Y0017319D01*
X0018991Y0017319D01*
X0018868Y0017381D01*
X0018806Y0017443D01*
X0018744Y0017567D01*
X0018744Y0018619D01*
X0018125Y0017319D02*
X0018125Y0018619D01*
X0017382Y0017319D01*
X0017382Y0018619D01*
X0016763Y0017319D02*
X0016763Y0018619D01*
X0016144Y0017319D02*
X0016144Y0018619D01*
X0015648Y0018619D01*
X0015525Y0018557D01*
X0015463Y0018495D01*
X0015401Y0018371D01*
X0015401Y0018186D01*
X0015463Y0018062D01*
X0015525Y0018000D01*
X0015648Y0017938D01*
X0016144Y0017938D01*
X0014596Y0018619D02*
X0014348Y0018619D01*
X0014225Y0018557D01*
X0014101Y0018433D01*
X0014039Y0018186D01*
X0014039Y0017752D01*
X0014101Y0017505D01*
X0014225Y0017381D01*
X0014348Y0017319D01*
X0014596Y0017319D01*
X0014720Y0017381D01*
X0014844Y0017505D01*
X0014906Y0017752D01*
X0014906Y0018186D01*
X0014844Y0018433D01*
X0014720Y0018557D01*
X0014596Y0018619D01*
X0013606Y0018619D02*
X0013296Y0017319D01*
X0013048Y0018247D01*
X0012801Y0017319D01*
X0012491Y0018619D01*
X0011996Y0018000D02*
X0011563Y0018000D01*
X0011377Y0017319D02*
X0011996Y0017319D01*
X0011996Y0018619D01*
X0011377Y0018619D01*
X0010077Y0017319D02*
X0010510Y0017938D01*
X0010820Y0017319D02*
X0010820Y0018619D01*
X0010325Y0018619D01*
X0010201Y0018557D01*
X0010139Y0018495D01*
X0010077Y0018371D01*
X0010077Y0018186D01*
X0010139Y0018062D01*
X0010201Y0018000D01*
X0010325Y0017938D01*
X0010820Y0017938D01*
X0009272Y0018619D02*
X0009148Y0018619D01*
X0009025Y0018557D01*
X0008963Y0018495D01*
X0008901Y0018371D01*
X0008839Y0018124D01*
X0008839Y0017814D01*
X0008901Y0017567D01*
X0008963Y0017443D01*
X0009025Y0017381D01*
X0009148Y0017319D01*
X0009272Y0017319D01*
X0009396Y0017381D01*
X0009458Y0017443D01*
X0009520Y0017567D01*
X0009582Y0017814D01*
X0009582Y0018124D01*
X0009520Y0018371D01*
X0009458Y0018495D01*
X0009396Y0018557D01*
X0009272Y0018619D01*
X0008406Y0018619D02*
X0007601Y0018619D01*
X0008034Y0018124D01*
X0007848Y0018124D01*
X0007725Y0018062D01*
X0007663Y0018000D01*
X0007601Y0017876D01*
X0007601Y0017567D01*
X0007663Y0017443D01*
X0007725Y0017381D01*
X0007848Y0017319D01*
X0008220Y0017319D01*
X0008344Y0017381D01*
X0008406Y0017443D01*
X0007106Y0017690D02*
X0006487Y0017690D01*
X0007229Y0017319D02*
X0006796Y0018619D01*
X0006363Y0017319D01*
D85*
X0035306Y0014986D03*
D41*
X0029718Y0001842D03*
X0027178Y0001842D03*
X0029718Y0004382D03*
X0027178Y0004382D03*
X0029718Y0006922D03*
X0027178Y0006922D03*
X0029718Y0009462D03*
X0027178Y0009462D03*
D15*
X0014097Y0013058D03*
X0014097Y0006858D03*
X0009097Y0009958D03*
D34*
X0022209Y0004445D03*
D48*
X0023559Y0004445D03*
D34*
X0024909Y0004445D03*
D41*
X0022098Y0013907D03*
X0022098Y0016447D03*
X0022098Y0021082D03*
X0022098Y0023622D03*
X0024638Y0021082D03*
X0024638Y0023622D03*
X0024638Y0013907D03*
X0024638Y0016447D03*
X0038100Y0034798D03*
X0038100Y0029718D03*
D78*
X0023368Y0028066D03*
X0023368Y0032766D03*
X0023368Y0037466D03*
D85*
X0004826Y0014986D03*
X0035306Y0004826D03*
X0004826Y0004826D03*
X0004826Y0025146D03*
X0004826Y0035306D03*
D41*
X0038100Y0032258D03*
D28*
X0010765Y0002286D03*
X0014762Y0002286D03*
D41*
X0029718Y0013907D03*
X0029718Y0016447D03*
X0029718Y0021082D03*
X0029718Y0023622D03*
X0027178Y0021082D03*
X0027178Y0023622D03*
X0027178Y0013907D03*
X0027178Y0016447D03*
D79*
X0019114Y0010149D03*
X0019114Y0004329D03*
D41*
X0001715Y0010033D03*
D40*
X0012827Y0023876D03*
X0035751Y0024257D03*
D31*
X0001715Y0010033D02*
X0009022Y0010033D01*
X0009022Y0010033D02*
X0009097Y0009958D01*
D21*
X0035306Y0024702D02*
X0032360Y0024702D01*
X0032360Y0024702D02*
X0031280Y0023622D01*
X0031280Y0023622D02*
X0029718Y0023622D01*
X0035751Y0024257D02*
X0035306Y0024702D01*
D31*
X0020193Y0034521D02*
X0020193Y0025527D01*
X0023368Y0037466D02*
X0023138Y0037466D01*
X0023138Y0037466D02*
X0020193Y0034521D01*
X0022098Y0023622D02*
X0020193Y0025527D01*
X0022098Y0021082D02*
X0022098Y0023622D01*
X0026289Y0031941D02*
X0025464Y0032766D01*
X0025464Y0032766D02*
X0023368Y0032766D01*
X0026289Y0026057D02*
X0026289Y0031941D01*
X0024638Y0023622D02*
X0024638Y0024406D01*
X0024638Y0024406D02*
X0026289Y0026057D01*
X0024638Y0021082D02*
X0024638Y0023622D01*
D33*
G36*
X0022561Y0005945D02*
X0022561Y0002945D01*
X0022605Y0002710D01*
X0022606Y0002709D01*
X0022606Y0001270D01*
X0013462Y0001270D01*
X0013462Y0003366D01*
X0015812Y0003366D01*
X0015861Y0003376D01*
X0015901Y0003403D01*
X0017044Y0004546D01*
X0017072Y0004588D01*
X0017082Y0004636D01*
X0017082Y0006096D01*
X0022592Y0006096D01*
X0022561Y0005945D01*
X0022561Y0005945D01*
G37*
X0022561Y0005945D02*
X0022561Y0002945D01*
X0022605Y0002710D01*
X0022606Y0002709D01*
X0022606Y0001270D01*
X0013462Y0001270D01*
X0013462Y0003366D01*
X0015812Y0003366D01*
X0015861Y0003376D01*
X0015901Y0003403D01*
X0017044Y0004546D01*
X0017072Y0004588D01*
X0017082Y0004636D01*
X0017082Y0006096D01*
X0022592Y0006096D01*
X0022561Y0005945D01*
G36*
X0030544Y0003810D02*
X0024556Y0003810D01*
X0024556Y0005207D01*
X0030544Y0005207D01*
X0030544Y0003810D01*
X0030544Y0003810D01*
G37*
X0030544Y0003810D02*
X0024556Y0003810D01*
X0024556Y0005207D01*
X0030544Y0005207D01*
X0030544Y0003810D01*
G36*
X0030861Y0013399D02*
X0030871Y0013349D01*
X0030898Y0013309D01*
X0032512Y0011695D01*
X0032512Y0007868D01*
X0031809Y0007167D01*
X0031309Y0005961D01*
X0030617Y0005270D01*
X0026353Y0005209D01*
X0026353Y0007874D01*
X0030734Y0007874D01*
X0030783Y0007884D01*
X0030824Y0007911D01*
X0031141Y0008229D01*
X0031169Y0008271D01*
X0031179Y0008319D01*
X0031179Y0010795D01*
X0031168Y0010844D01*
X0031141Y0010885D01*
X0030760Y0011266D01*
X0030718Y0011294D01*
X0030671Y0011303D01*
X0029326Y0011303D01*
X0028766Y0011864D01*
X0028766Y0017590D01*
X0030861Y0017590D01*
X0030861Y0013399D01*
X0030861Y0013399D01*
G37*
X0030861Y0013399D02*
X0030871Y0013349D01*
X0030898Y0013309D01*
X0032512Y0011695D01*
X0032512Y0007868D01*
X0031809Y0007167D01*
X0031309Y0005961D01*
X0030617Y0005270D01*
X0026353Y0005209D01*
X0026353Y0007874D01*
X0030734Y0007874D01*
X0030783Y0007884D01*
X0030824Y0007911D01*
X0031141Y0008229D01*
X0031169Y0008271D01*
X0031179Y0008319D01*
X0031179Y0010795D01*
X0031168Y0010844D01*
X0031141Y0010885D01*
X0030760Y0011266D01*
X0030718Y0011294D01*
X0030671Y0011303D01*
X0029326Y0011303D01*
X0028766Y0011864D01*
X0028766Y0017590D01*
X0030861Y0017590D01*
X0030861Y0013399D01*
G36*
X0025464Y0011229D02*
X0022617Y0008382D01*
X0017145Y0008382D01*
X0017145Y0011938D01*
X0022987Y0011938D01*
X0023036Y0011948D01*
X0023077Y0011975D01*
X0023775Y0012674D01*
X0023803Y0012716D01*
X0023813Y0012764D01*
X0023813Y0017272D01*
X0025464Y0017272D01*
X0025464Y0011229D01*
X0025464Y0011229D01*
G37*
X0025464Y0011229D02*
X0022617Y0008382D01*
X0017145Y0008382D01*
X0017145Y0011938D01*
X0022987Y0011938D01*
X0023036Y0011948D01*
X0023077Y0011975D01*
X0023775Y0012674D01*
X0023803Y0012716D01*
X0023813Y0012764D01*
X0023813Y0017272D01*
X0025464Y0017272D01*
X0025464Y0011229D01*
G36*
X0005662Y0019108D02*
X0005651Y0019112D01*
X0004009Y0019114D01*
X0002491Y0018487D01*
X0001329Y0017327D01*
X0000700Y0015811D01*
X0000698Y0014169D01*
X0001325Y0012651D01*
X0002485Y0011489D01*
X0003399Y0011110D01*
X0002772Y0011110D01*
X0002646Y0011196D01*
X0002477Y0011230D01*
X0000953Y0011230D01*
X0000794Y0011201D01*
X0000649Y0011107D01*
X0000551Y0010964D01*
X0000517Y0010795D01*
X0000517Y0009271D01*
X0000547Y0009113D01*
X0000640Y0008967D01*
X0000783Y0008870D01*
X0000953Y0008836D01*
X0002477Y0008836D01*
X0002635Y0008865D01*
X0002776Y0008956D01*
X0006757Y0008956D01*
X0006757Y0008493D01*
X0005651Y0008952D01*
X0004009Y0008954D01*
X0002491Y0008327D01*
X0001329Y0007167D01*
X0000700Y0005651D01*
X0000698Y0004009D01*
X0001325Y0002491D01*
X0002485Y0001329D01*
X0004001Y0000700D01*
X0005643Y0000698D01*
X0007161Y0001325D01*
X0008323Y0002485D01*
X0008952Y0004001D01*
X0008954Y0005643D01*
X0008327Y0007161D01*
X0007871Y0007618D01*
X0011002Y0007618D01*
X0011160Y0007647D01*
X0011306Y0007741D01*
X0011403Y0007884D01*
X0011437Y0008053D01*
X0011437Y0008763D01*
X0011757Y0008763D01*
X0011757Y0004953D01*
X0011786Y0004795D01*
X0011880Y0004649D01*
X0012023Y0004552D01*
X0012192Y0004518D01*
X0015939Y0004518D01*
X0015548Y0004128D01*
X0013335Y0004128D01*
X0013104Y0004084D01*
X0012892Y0003948D01*
X0012750Y0003740D01*
X0012700Y0003493D01*
X0012700Y0001143D01*
X0012743Y0000912D01*
X0012880Y0000700D01*
X0013088Y0000558D01*
X0013335Y0000508D01*
X0022733Y0000508D01*
X0022964Y0000551D01*
X0023176Y0000688D01*
X0023318Y0000896D01*
X0023368Y0001143D01*
X0023368Y0005334D01*
X0023622Y0005334D01*
X0023622Y0003683D01*
X0023665Y0003452D01*
X0023802Y0003240D01*
X0024010Y0003098D01*
X0024257Y0003048D01*
X0030671Y0003048D01*
X0030901Y0003091D01*
X0031113Y0003228D01*
X0031255Y0003436D01*
X0031306Y0003683D01*
X0031306Y0003701D01*
X0031805Y0002491D01*
X0032965Y0001329D01*
X0034481Y0000700D01*
X0036123Y0000698D01*
X0037641Y0001325D01*
X0038803Y0002485D01*
X0039432Y0004001D01*
X0039434Y0005643D01*
X0038807Y0007161D01*
X0037647Y0008323D01*
X0037262Y0008483D01*
X0039185Y0008483D01*
X0039185Y0011757D01*
X0037912Y0011757D01*
X0038803Y0012645D01*
X0039432Y0014161D01*
X0039434Y0015803D01*
X0038807Y0017321D01*
X0037647Y0018483D01*
X0036131Y0019112D01*
X0034489Y0019114D01*
X0032971Y0018487D01*
X0031809Y0017327D01*
X0031623Y0016878D01*
X0031623Y0017717D01*
X0031580Y0017947D01*
X0031443Y0018159D01*
X0031235Y0018301D01*
X0030988Y0018352D01*
X0028639Y0018352D01*
X0028408Y0018308D01*
X0028196Y0018172D01*
X0028054Y0017964D01*
X0028004Y0017717D01*
X0028004Y0011811D01*
X0028050Y0011572D01*
X0028189Y0011362D01*
X0028824Y0010727D01*
X0029026Y0010591D01*
X0029274Y0010541D01*
X0030407Y0010541D01*
X0030417Y0010532D01*
X0030417Y0008636D01*
X0026226Y0008636D01*
X0025995Y0008593D01*
X0025783Y0008456D01*
X0025641Y0008248D01*
X0025591Y0008001D01*
X0025591Y0005969D01*
X0024257Y0005969D01*
X0024026Y0005926D01*
X0023814Y0005789D01*
X0023672Y0005581D01*
X0023622Y0005334D01*
X0023368Y0005334D01*
X0023368Y0006223D01*
X0023325Y0006454D01*
X0023188Y0006666D01*
X0022980Y0006808D01*
X0022733Y0006858D01*
X0016955Y0006858D01*
X0016724Y0006815D01*
X0016512Y0006678D01*
X0016437Y0006569D01*
X0016437Y0008007D01*
X0016563Y0007812D01*
X0016771Y0007670D01*
X0017018Y0007620D01*
X0022670Y0007620D01*
X0022908Y0007667D01*
X0023119Y0007806D01*
X0026040Y0010727D01*
X0026175Y0010929D01*
X0026226Y0011176D01*
X0026226Y0017399D01*
X0026182Y0017630D01*
X0026046Y0017842D01*
X0025838Y0017984D01*
X0025591Y0018034D01*
X0023686Y0018034D01*
X0023455Y0017991D01*
X0023243Y0017854D01*
X0023101Y0017646D01*
X0023085Y0017571D01*
X0023029Y0017610D01*
X0022860Y0017644D01*
X0021336Y0017644D01*
X0021178Y0017614D01*
X0021032Y0017521D01*
X0020935Y0017378D01*
X0020901Y0017209D01*
X0020901Y0015685D01*
X0020930Y0015526D01*
X0021024Y0015381D01*
X0021167Y0015283D01*
X0021336Y0015249D01*
X0022860Y0015249D01*
X0023018Y0015279D01*
X0023051Y0015300D01*
X0023051Y0015055D01*
X0023029Y0015070D01*
X0022860Y0015104D01*
X0021336Y0015104D01*
X0021178Y0015074D01*
X0021032Y0014981D01*
X0020935Y0014838D01*
X0020901Y0014669D01*
X0020901Y0013145D01*
X0020930Y0012986D01*
X0021024Y0012841D01*
X0021167Y0012743D01*
X0021336Y0012709D01*
X0022733Y0012709D01*
X0022724Y0012700D01*
X0017018Y0012700D01*
X0016787Y0012657D01*
X0016575Y0012520D01*
X0016433Y0012312D01*
X0016383Y0012065D01*
X0016383Y0008959D01*
X0016314Y0009067D01*
X0016171Y0009164D01*
X0016002Y0009198D01*
X0012192Y0009198D01*
X0012034Y0009169D01*
X0011888Y0009075D01*
X0011791Y0008932D01*
X0011757Y0008763D01*
X0011437Y0008763D01*
X0011437Y0011863D01*
X0011408Y0012021D01*
X0011314Y0012167D01*
X0011171Y0012264D01*
X0011002Y0012298D01*
X0007975Y0012298D01*
X0008323Y0012645D01*
X0008952Y0014161D01*
X0008954Y0015803D01*
X0008699Y0016420D01*
X0020373Y0016420D01*
X0020373Y0019310D01*
X0039630Y0019310D01*
X0039630Y0000502D01*
X0000502Y0000502D01*
X0000502Y0019310D01*
X0005662Y0019310D01*
X0005662Y0019108D01*
X0005662Y0019108D01*
G37*
X0005662Y0019108D02*
X0005651Y0019112D01*
X0004009Y0019114D01*
X0002491Y0018487D01*
X0001329Y0017327D01*
X0000700Y0015811D01*
X0000698Y0014169D01*
X0001325Y0012651D01*
X0002485Y0011489D01*
X0003399Y0011110D01*
X0002772Y0011110D01*
X0002646Y0011196D01*
X0002477Y0011230D01*
X0000953Y0011230D01*
X0000794Y0011201D01*
X0000649Y0011107D01*
X0000551Y0010964D01*
X0000517Y0010795D01*
X0000517Y0009271D01*
X0000547Y0009113D01*
X0000640Y0008967D01*
X0000783Y0008870D01*
X0000953Y0008836D01*
X0002477Y0008836D01*
X0002635Y0008865D01*
X0002776Y0008956D01*
X0006757Y0008956D01*
X0006757Y0008493D01*
X0005651Y0008952D01*
X0004009Y0008954D01*
X0002491Y0008327D01*
X0001329Y0007167D01*
X0000700Y0005651D01*
X0000698Y0004009D01*
X0001325Y0002491D01*
X0002485Y0001329D01*
X0004001Y0000700D01*
X0005643Y0000698D01*
X0007161Y0001325D01*
X0008323Y0002485D01*
X0008952Y0004001D01*
X0008954Y0005643D01*
X0008327Y0007161D01*
X0007871Y0007618D01*
X0011002Y0007618D01*
X0011160Y0007647D01*
X0011306Y0007741D01*
X0011403Y0007884D01*
X0011437Y0008053D01*
X0011437Y0008763D01*
X0011757Y0008763D01*
X0011757Y0004953D01*
X0011786Y0004795D01*
X0011880Y0004649D01*
X0012023Y0004552D01*
X0012192Y0004518D01*
X0015939Y0004518D01*
X0015548Y0004128D01*
X0013335Y0004128D01*
X0013104Y0004084D01*
X0012892Y0003948D01*
X0012750Y0003740D01*
X0012700Y0003493D01*
X0012700Y0001143D01*
X0012743Y0000912D01*
X0012880Y0000700D01*
X0013088Y0000558D01*
X0013335Y0000508D01*
X0022733Y0000508D01*
X0022964Y0000551D01*
X0023176Y0000688D01*
X0023318Y0000896D01*
X0023368Y0001143D01*
X0023368Y0005334D01*
X0023622Y0005334D01*
X0023622Y0003683D01*
X0023665Y0003452D01*
X0023802Y0003240D01*
X0024010Y0003098D01*
X0024257Y0003048D01*
X0030671Y0003048D01*
X0030901Y0003091D01*
X0031113Y0003228D01*
X0031255Y0003436D01*
X0031306Y0003683D01*
X0031306Y0003701D01*
X0031805Y0002491D01*
X0032965Y0001329D01*
X0034481Y0000700D01*
X0036123Y0000698D01*
X0037641Y0001325D01*
X0038803Y0002485D01*
X0039432Y0004001D01*
X0039434Y0005643D01*
X0038807Y0007161D01*
X0037647Y0008323D01*
X0037262Y0008483D01*
X0039185Y0008483D01*
X0039185Y0011757D01*
X0037912Y0011757D01*
X0038803Y0012645D01*
X0039432Y0014161D01*
X0039434Y0015803D01*
X0038807Y0017321D01*
X0037647Y0018483D01*
X0036131Y0019112D01*
X0034489Y0019114D01*
X0032971Y0018487D01*
X0031809Y0017327D01*
X0031623Y0016878D01*
X0031623Y0017717D01*
X0031580Y0017947D01*
X0031443Y0018159D01*
X0031235Y0018301D01*
X0030988Y0018352D01*
X0028639Y0018352D01*
X0028408Y0018308D01*
X0028196Y0018172D01*
X0028054Y0017964D01*
X0028004Y0017717D01*
X0028004Y0011811D01*
X0028050Y0011572D01*
X0028189Y0011362D01*
X0028824Y0010727D01*
X0029026Y0010591D01*
X0029274Y0010541D01*
X0030407Y0010541D01*
X0030417Y0010532D01*
X0030417Y0008636D01*
X0026226Y0008636D01*
X0025995Y0008593D01*
X0025783Y0008456D01*
X0025641Y0008248D01*
X0025591Y0008001D01*
X0025591Y0005969D01*
X0024257Y0005969D01*
X0024026Y0005926D01*
X0023814Y0005789D01*
X0023672Y0005581D01*
X0023622Y0005334D01*
X0023368Y0005334D01*
X0023368Y0006223D01*
X0023325Y0006454D01*
X0023188Y0006666D01*
X0022980Y0006808D01*
X0022733Y0006858D01*
X0016955Y0006858D01*
X0016724Y0006815D01*
X0016512Y0006678D01*
X0016437Y0006569D01*
X0016437Y0008007D01*
X0016563Y0007812D01*
X0016771Y0007670D01*
X0017018Y0007620D01*
X0022670Y0007620D01*
X0022908Y0007667D01*
X0023119Y0007806D01*
X0026040Y0010727D01*
X0026175Y0010929D01*
X0026226Y0011176D01*
X0026226Y0017399D01*
X0026182Y0017630D01*
X0026046Y0017842D01*
X0025838Y0017984D01*
X0025591Y0018034D01*
X0023686Y0018034D01*
X0023455Y0017991D01*
X0023243Y0017854D01*
X0023101Y0017646D01*
X0023085Y0017571D01*
X0023029Y0017610D01*
X0022860Y0017644D01*
X0021336Y0017644D01*
X0021178Y0017614D01*
X0021032Y0017521D01*
X0020935Y0017378D01*
X0020901Y0017209D01*
X0020901Y0015685D01*
X0020930Y0015526D01*
X0021024Y0015381D01*
X0021167Y0015283D01*
X0021336Y0015249D01*
X0022860Y0015249D01*
X0023018Y0015279D01*
X0023051Y0015300D01*
X0023051Y0015055D01*
X0023029Y0015070D01*
X0022860Y0015104D01*
X0021336Y0015104D01*
X0021178Y0015074D01*
X0021032Y0014981D01*
X0020935Y0014838D01*
X0020901Y0014669D01*
X0020901Y0013145D01*
X0020930Y0012986D01*
X0021024Y0012841D01*
X0021167Y0012743D01*
X0021336Y0012709D01*
X0022733Y0012709D01*
X0022724Y0012700D01*
X0017018Y0012700D01*
X0016787Y0012657D01*
X0016575Y0012520D01*
X0016433Y0012312D01*
X0016383Y0012065D01*
X0016383Y0008959D01*
X0016314Y0009067D01*
X0016171Y0009164D01*
X0016002Y0009198D01*
X0012192Y0009198D01*
X0012034Y0009169D01*
X0011888Y0009075D01*
X0011791Y0008932D01*
X0011757Y0008763D01*
X0011437Y0008763D01*
X0011437Y0011863D01*
X0011408Y0012021D01*
X0011314Y0012167D01*
X0011171Y0012264D01*
X0011002Y0012298D01*
X0007975Y0012298D01*
X0008323Y0012645D01*
X0008952Y0014161D01*
X0008954Y0015803D01*
X0008699Y0016420D01*
X0020373Y0016420D01*
X0020373Y0019310D01*
X0039630Y0019310D01*
X0039630Y0000502D01*
X0000502Y0000502D01*
X0000502Y0019310D01*
X0005662Y0019310D01*
X0005662Y0019108D01*
G36*
X0039630Y0020314D02*
X0030914Y0020314D01*
X0030915Y0020320D01*
X0030915Y0021844D01*
X0030886Y0022002D01*
X0030792Y0022148D01*
X0030649Y0022245D01*
X0030480Y0022279D01*
X0028956Y0022279D01*
X0028798Y0022250D01*
X0028652Y0022156D01*
X0028555Y0022013D01*
X0028521Y0021844D01*
X0028521Y0020320D01*
X0028522Y0020314D01*
X0025834Y0020314D01*
X0025835Y0020320D01*
X0025835Y0021844D01*
X0025806Y0022002D01*
X0025715Y0022143D01*
X0025715Y0022565D01*
X0025801Y0022691D01*
X0025835Y0022860D01*
X0025835Y0024080D01*
X0026139Y0024384D01*
X0028521Y0024384D01*
X0028521Y0022860D01*
X0028550Y0022702D01*
X0028644Y0022556D01*
X0028787Y0022459D01*
X0028956Y0022425D01*
X0030480Y0022425D01*
X0030638Y0022454D01*
X0030784Y0022548D01*
X0030881Y0022691D01*
X0030902Y0022795D01*
X0031280Y0022795D01*
X0031596Y0022858D01*
X0031865Y0023037D01*
X0032703Y0023875D01*
X0033008Y0023875D01*
X0032713Y0023753D01*
X0032213Y0023254D01*
X0031942Y0022601D01*
X0031941Y0021894D01*
X0032211Y0021241D01*
X0032711Y0020740D01*
X0033363Y0020469D01*
X0034070Y0020469D01*
X0034724Y0020739D01*
X0035224Y0021238D01*
X0035495Y0021891D01*
X0035496Y0022598D01*
X0035226Y0023251D01*
X0034726Y0023752D01*
X0034429Y0023875D01*
X0034963Y0023875D01*
X0034966Y0023872D01*
X0035011Y0023764D01*
X0035256Y0023518D01*
X0035576Y0023385D01*
X0035923Y0023385D01*
X0036244Y0023517D01*
X0036489Y0023762D01*
X0036622Y0024083D01*
X0036623Y0024430D01*
X0036490Y0024750D01*
X0036245Y0024996D01*
X0036136Y0025041D01*
X0035890Y0025287D01*
X0035622Y0025466D01*
X0035306Y0025529D01*
X0034227Y0025529D01*
X0034724Y0025734D01*
X0035224Y0026234D01*
X0035495Y0026886D01*
X0035496Y0027593D01*
X0035226Y0028247D01*
X0034726Y0028747D01*
X0034074Y0029018D01*
X0033367Y0029019D01*
X0032713Y0028749D01*
X0032213Y0028249D01*
X0031942Y0027597D01*
X0031941Y0026890D01*
X0032211Y0026236D01*
X0032711Y0025736D01*
X0033209Y0025529D01*
X0032360Y0025529D01*
X0032044Y0025466D01*
X0031775Y0025287D01*
X0030937Y0024449D01*
X0030903Y0024449D01*
X0030886Y0024542D01*
X0030792Y0024688D01*
X0030649Y0024785D01*
X0030480Y0024819D01*
X0028956Y0024819D01*
X0028798Y0024790D01*
X0028652Y0024696D01*
X0028555Y0024553D01*
X0028521Y0024384D01*
X0026139Y0024384D01*
X0027051Y0025295D01*
X0027284Y0025645D01*
X0027366Y0026057D01*
X0027366Y0031894D01*
X0031941Y0031894D01*
X0032211Y0031241D01*
X0032711Y0030740D01*
X0033363Y0030469D01*
X0034070Y0030469D01*
X0034098Y0030480D01*
X0036903Y0030480D01*
X0036903Y0028956D01*
X0036932Y0028798D01*
X0037026Y0028652D01*
X0037169Y0028555D01*
X0037338Y0028521D01*
X0038862Y0028521D01*
X0039020Y0028550D01*
X0039166Y0028644D01*
X0039263Y0028787D01*
X0039297Y0028956D01*
X0039297Y0030480D01*
X0039268Y0030638D01*
X0039174Y0030784D01*
X0039031Y0030881D01*
X0038862Y0030915D01*
X0037338Y0030915D01*
X0037180Y0030886D01*
X0037034Y0030792D01*
X0036937Y0030649D01*
X0036903Y0030480D01*
X0034098Y0030480D01*
X0034724Y0030739D01*
X0035224Y0031238D01*
X0035495Y0031891D01*
X0035496Y0032598D01*
X0035321Y0033020D01*
X0036903Y0033020D01*
X0036903Y0031496D01*
X0036932Y0031338D01*
X0037026Y0031192D01*
X0037169Y0031095D01*
X0037338Y0031061D01*
X0038862Y0031061D01*
X0039020Y0031090D01*
X0039166Y0031184D01*
X0039263Y0031327D01*
X0039297Y0031496D01*
X0039297Y0033020D01*
X0039268Y0033178D01*
X0039174Y0033324D01*
X0039031Y0033421D01*
X0038862Y0033455D01*
X0037338Y0033455D01*
X0037180Y0033426D01*
X0037034Y0033332D01*
X0036937Y0033189D01*
X0036903Y0033020D01*
X0035321Y0033020D01*
X0035226Y0033251D01*
X0034726Y0033752D01*
X0034074Y0034023D01*
X0033367Y0034023D01*
X0032713Y0033753D01*
X0032213Y0033254D01*
X0031942Y0032601D01*
X0031941Y0031894D01*
X0027366Y0031894D01*
X0027366Y0031941D01*
X0027284Y0032353D01*
X0027051Y0032702D01*
X0026225Y0033528D01*
X0025876Y0033761D01*
X0025503Y0033835D01*
X0025503Y0034466D01*
X0025474Y0034624D01*
X0025380Y0034770D01*
X0025237Y0034867D01*
X0025068Y0034901D01*
X0022096Y0034901D01*
X0022526Y0035331D01*
X0025068Y0035331D01*
X0025226Y0035360D01*
X0025372Y0035454D01*
X0025469Y0035597D01*
X0025503Y0035766D01*
X0025503Y0036894D01*
X0031941Y0036894D01*
X0032211Y0036241D01*
X0032711Y0035740D01*
X0033363Y0035469D01*
X0034070Y0035469D01*
X0034291Y0035560D01*
X0036903Y0035560D01*
X0036903Y0034036D01*
X0036932Y0033878D01*
X0037026Y0033732D01*
X0037169Y0033635D01*
X0037338Y0033601D01*
X0038862Y0033601D01*
X0039020Y0033630D01*
X0039166Y0033724D01*
X0039263Y0033867D01*
X0039297Y0034036D01*
X0039297Y0035560D01*
X0039268Y0035718D01*
X0039174Y0035864D01*
X0039031Y0035961D01*
X0038862Y0035995D01*
X0037338Y0035995D01*
X0037180Y0035966D01*
X0037034Y0035872D01*
X0036937Y0035729D01*
X0036903Y0035560D01*
X0034291Y0035560D01*
X0034724Y0035739D01*
X0035224Y0036238D01*
X0035495Y0036891D01*
X0035496Y0037598D01*
X0035226Y0038251D01*
X0034726Y0038752D01*
X0034074Y0039023D01*
X0033367Y0039023D01*
X0032713Y0038753D01*
X0032213Y0038254D01*
X0031942Y0037601D01*
X0031941Y0036894D01*
X0025503Y0036894D01*
X0025503Y0039166D01*
X0025474Y0039324D01*
X0025380Y0039470D01*
X0025237Y0039567D01*
X0025068Y0039601D01*
X0021668Y0039601D01*
X0021510Y0039572D01*
X0021364Y0039478D01*
X0021267Y0039335D01*
X0021233Y0039166D01*
X0021233Y0037084D01*
X0019431Y0035283D01*
X0019198Y0034933D01*
X0019116Y0034521D01*
X0019116Y0025527D01*
X0019198Y0025115D01*
X0019431Y0024765D01*
X0020901Y0023296D01*
X0020901Y0022860D01*
X0020930Y0022702D01*
X0021021Y0022561D01*
X0021021Y0022139D01*
X0020935Y0022013D01*
X0020901Y0021844D01*
X0020901Y0020320D01*
X0020902Y0020314D01*
X0000502Y0020314D01*
X0000502Y0024329D01*
X0000698Y0024329D01*
X0001325Y0022811D01*
X0002485Y0021649D01*
X0004001Y0021020D01*
X0005643Y0021018D01*
X0007161Y0021645D01*
X0008323Y0022805D01*
X0008952Y0024321D01*
X0008954Y0025963D01*
X0008327Y0027481D01*
X0007167Y0028643D01*
X0005651Y0029272D01*
X0004009Y0029274D01*
X0002491Y0028647D01*
X0001329Y0027487D01*
X0000700Y0025971D01*
X0000698Y0024329D01*
X0000502Y0024329D01*
X0000502Y0034489D01*
X0000698Y0034489D01*
X0001325Y0032971D01*
X0002485Y0031809D01*
X0004001Y0031180D01*
X0005643Y0031178D01*
X0007161Y0031805D01*
X0008323Y0032965D01*
X0008952Y0034481D01*
X0008954Y0036123D01*
X0008327Y0037641D01*
X0007167Y0038803D01*
X0005651Y0039432D01*
X0004009Y0039434D01*
X0002491Y0038807D01*
X0001329Y0037647D01*
X0000700Y0036131D01*
X0000698Y0034489D01*
X0000502Y0034489D01*
X0000502Y0039630D01*
X0039630Y0039630D01*
X0039630Y0020314D01*
X0039630Y0020314D01*
G37*
X0039630Y0020314D02*
X0030914Y0020314D01*
X0030915Y0020320D01*
X0030915Y0021844D01*
X0030886Y0022002D01*
X0030792Y0022148D01*
X0030649Y0022245D01*
X0030480Y0022279D01*
X0028956Y0022279D01*
X0028798Y0022250D01*
X0028652Y0022156D01*
X0028555Y0022013D01*
X0028521Y0021844D01*
X0028521Y0020320D01*
X0028522Y0020314D01*
X0025834Y0020314D01*
X0025835Y0020320D01*
X0025835Y0021844D01*
X0025806Y0022002D01*
X0025715Y0022143D01*
X0025715Y0022565D01*
X0025801Y0022691D01*
X0025835Y0022860D01*
X0025835Y0024080D01*
X0026139Y0024384D01*
X0028521Y0024384D01*
X0028521Y0022860D01*
X0028550Y0022702D01*
X0028644Y0022556D01*
X0028787Y0022459D01*
X0028956Y0022425D01*
X0030480Y0022425D01*
X0030638Y0022454D01*
X0030784Y0022548D01*
X0030881Y0022691D01*
X0030902Y0022795D01*
X0031280Y0022795D01*
X0031596Y0022858D01*
X0031865Y0023037D01*
X0032703Y0023875D01*
X0033008Y0023875D01*
X0032713Y0023753D01*
X0032213Y0023254D01*
X0031942Y0022601D01*
X0031941Y0021894D01*
X0032211Y0021241D01*
X0032711Y0020740D01*
X0033363Y0020469D01*
X0034070Y0020469D01*
X0034724Y0020739D01*
X0035224Y0021238D01*
X0035495Y0021891D01*
X0035496Y0022598D01*
X0035226Y0023251D01*
X0034726Y0023752D01*
X0034429Y0023875D01*
X0034963Y0023875D01*
X0034966Y0023872D01*
X0035011Y0023764D01*
X0035256Y0023518D01*
X0035576Y0023385D01*
X0035923Y0023385D01*
X0036244Y0023517D01*
X0036489Y0023762D01*
X0036622Y0024083D01*
X0036623Y0024430D01*
X0036490Y0024750D01*
X0036245Y0024996D01*
X0036136Y0025041D01*
X0035890Y0025287D01*
X0035622Y0025466D01*
X0035306Y0025529D01*
X0034227Y0025529D01*
X0034724Y0025734D01*
X0035224Y0026234D01*
X0035495Y0026886D01*
X0035496Y0027593D01*
X0035226Y0028247D01*
X0034726Y0028747D01*
X0034074Y0029018D01*
X0033367Y0029019D01*
X0032713Y0028749D01*
X0032213Y0028249D01*
X0031942Y0027597D01*
X0031941Y0026890D01*
X0032211Y0026236D01*
X0032711Y0025736D01*
X0033209Y0025529D01*
X0032360Y0025529D01*
X0032044Y0025466D01*
X0031775Y0025287D01*
X0030937Y0024449D01*
X0030903Y0024449D01*
X0030886Y0024542D01*
X0030792Y0024688D01*
X0030649Y0024785D01*
X0030480Y0024819D01*
X0028956Y0024819D01*
X0028798Y0024790D01*
X0028652Y0024696D01*
X0028555Y0024553D01*
X0028521Y0024384D01*
X0026139Y0024384D01*
X0027051Y0025295D01*
X0027284Y0025645D01*
X0027366Y0026057D01*
X0027366Y0031894D01*
X0031941Y0031894D01*
X0032211Y0031241D01*
X0032711Y0030740D01*
X0033363Y0030469D01*
X0034070Y0030469D01*
X0034098Y0030480D01*
X0036903Y0030480D01*
X0036903Y0028956D01*
X0036932Y0028798D01*
X0037026Y0028652D01*
X0037169Y0028555D01*
X0037338Y0028521D01*
X0038862Y0028521D01*
X0039020Y0028550D01*
X0039166Y0028644D01*
X0039263Y0028787D01*
X0039297Y0028956D01*
X0039297Y0030480D01*
X0039268Y0030638D01*
X0039174Y0030784D01*
X0039031Y0030881D01*
X0038862Y0030915D01*
X0037338Y0030915D01*
X0037180Y0030886D01*
X0037034Y0030792D01*
X0036937Y0030649D01*
X0036903Y0030480D01*
X0034098Y0030480D01*
X0034724Y0030739D01*
X0035224Y0031238D01*
X0035495Y0031891D01*
X0035496Y0032598D01*
X0035321Y0033020D01*
X0036903Y0033020D01*
X0036903Y0031496D01*
X0036932Y0031338D01*
X0037026Y0031192D01*
X0037169Y0031095D01*
X0037338Y0031061D01*
X0038862Y0031061D01*
X0039020Y0031090D01*
X0039166Y0031184D01*
X0039263Y0031327D01*
X0039297Y0031496D01*
X0039297Y0033020D01*
X0039268Y0033178D01*
X0039174Y0033324D01*
X0039031Y0033421D01*
X0038862Y0033455D01*
X0037338Y0033455D01*
X0037180Y0033426D01*
X0037034Y0033332D01*
X0036937Y0033189D01*
X0036903Y0033020D01*
X0035321Y0033020D01*
X0035226Y0033251D01*
X0034726Y0033752D01*
X0034074Y0034023D01*
X0033367Y0034023D01*
X0032713Y0033753D01*
X0032213Y0033254D01*
X0031942Y0032601D01*
X0031941Y0031894D01*
X0027366Y0031894D01*
X0027366Y0031941D01*
X0027284Y0032353D01*
X0027051Y0032702D01*
X0026225Y0033528D01*
X0025876Y0033761D01*
X0025503Y0033835D01*
X0025503Y0034466D01*
X0025474Y0034624D01*
X0025380Y0034770D01*
X0025237Y0034867D01*
X0025068Y0034901D01*
X0022096Y0034901D01*
X0022526Y0035331D01*
X0025068Y0035331D01*
X0025226Y0035360D01*
X0025372Y0035454D01*
X0025469Y0035597D01*
X0025503Y0035766D01*
X0025503Y0036894D01*
X0031941Y0036894D01*
X0032211Y0036241D01*
X0032711Y0035740D01*
X0033363Y0035469D01*
X0034070Y0035469D01*
X0034291Y0035560D01*
X0036903Y0035560D01*
X0036903Y0034036D01*
X0036932Y0033878D01*
X0037026Y0033732D01*
X0037169Y0033635D01*
X0037338Y0033601D01*
X0038862Y0033601D01*
X0039020Y0033630D01*
X0039166Y0033724D01*
X0039263Y0033867D01*
X0039297Y0034036D01*
X0039297Y0035560D01*
X0039268Y0035718D01*
X0039174Y0035864D01*
X0039031Y0035961D01*
X0038862Y0035995D01*
X0037338Y0035995D01*
X0037180Y0035966D01*
X0037034Y0035872D01*
X0036937Y0035729D01*
X0036903Y0035560D01*
X0034291Y0035560D01*
X0034724Y0035739D01*
X0035224Y0036238D01*
X0035495Y0036891D01*
X0035496Y0037598D01*
X0035226Y0038251D01*
X0034726Y0038752D01*
X0034074Y0039023D01*
X0033367Y0039023D01*
X0032713Y0038753D01*
X0032213Y0038254D01*
X0031942Y0037601D01*
X0031941Y0036894D01*
X0025503Y0036894D01*
X0025503Y0039166D01*
X0025474Y0039324D01*
X0025380Y0039470D01*
X0025237Y0039567D01*
X0025068Y0039601D01*
X0021668Y0039601D01*
X0021510Y0039572D01*
X0021364Y0039478D01*
X0021267Y0039335D01*
X0021233Y0039166D01*
X0021233Y0037084D01*
X0019431Y0035283D01*
X0019198Y0034933D01*
X0019116Y0034521D01*
X0019116Y0025527D01*
X0019198Y0025115D01*
X0019431Y0024765D01*
X0020901Y0023296D01*
X0020901Y0022860D01*
X0020930Y0022702D01*
X0021021Y0022561D01*
X0021021Y0022139D01*
X0020935Y0022013D01*
X0020901Y0021844D01*
X0020901Y0020320D01*
X0020902Y0020314D01*
X0000502Y0020314D01*
X0000502Y0024329D01*
X0000698Y0024329D01*
X0001325Y0022811D01*
X0002485Y0021649D01*
X0004001Y0021020D01*
X0005643Y0021018D01*
X0007161Y0021645D01*
X0008323Y0022805D01*
X0008952Y0024321D01*
X0008954Y0025963D01*
X0008327Y0027481D01*
X0007167Y0028643D01*
X0005651Y0029272D01*
X0004009Y0029274D01*
X0002491Y0028647D01*
X0001329Y0027487D01*
X0000700Y0025971D01*
X0000698Y0024329D01*
X0000502Y0024329D01*
X0000502Y0034489D01*
X0000698Y0034489D01*
X0001325Y0032971D01*
X0002485Y0031809D01*
X0004001Y0031180D01*
X0005643Y0031178D01*
X0007161Y0031805D01*
X0008323Y0032965D01*
X0008952Y0034481D01*
X0008954Y0036123D01*
X0008327Y0037641D01*
X0007167Y0038803D01*
X0005651Y0039432D01*
X0004009Y0039434D01*
X0002491Y0038807D01*
X0001329Y0037647D01*
X0000700Y0036131D01*
X0000698Y0034489D01*
X0000502Y0034489D01*
X0000502Y0039630D01*
X0039630Y0039630D01*
X0039630Y0020314D01*
X0000000Y0040130D02*
G01*
D17*
D41*
X0029845Y0047115D03*
X0038227Y0048385D03*
X0014605Y0045845D03*
X0014605Y0048385D03*
X0012065Y0045845D03*
X0012065Y0048385D03*
X0017145Y0045845D03*
X0017145Y0048385D03*
X0009525Y0045845D03*
X0009525Y0048385D03*
X0019685Y0045845D03*
X0019685Y0048385D03*
D85*
X0025146Y0044956D03*
X0004826Y0044956D03*
D77*
X0032004Y0044829D03*
X0030099Y0044829D03*
X0034163Y0048639D03*
X0036068Y0048639D03*
D50*
X0039243Y0041083D03*
X0039243Y0042988D03*
X0039243Y0044385D03*
X0039243Y0046290D03*
X0032004Y0042924D03*
X0032004Y0041019D03*
X0033909Y0044956D03*
X0033909Y0043051D03*
D77*
X0033782Y0046607D03*
X0031877Y0046607D03*
D64*
X0037453Y0043756D03*
X0036953Y0043756D03*
X0036453Y0043756D03*
X0035953Y0043756D03*
X0035953Y0046156D03*
X0036453Y0046156D03*
X0036953Y0046156D03*
X0037453Y0046156D03*
D32*
X0036703Y0044956D03*
D42*
X0010696Y0042924D03*
X0014196Y0042924D03*
D40*
X0033909Y0044956D03*
X0039243Y0041781D03*
X0033909Y0043051D03*
X0016256Y0041908D03*
X0016129Y0042924D03*
X0038354Y0046607D03*
X0032639Y0047744D03*
X0039243Y0043686D03*
X0036872Y0042451D03*
D35*
X0030099Y0044829D02*
X0030099Y0042876D01*
X0030099Y0042876D02*
X0031061Y0041914D01*
X0035211Y0041914D02*
X0035967Y0042670D01*
X0031061Y0041914D02*
X0035211Y0041914D01*
X0029845Y0047115D02*
X0029845Y0045083D01*
X0029845Y0045083D02*
X0030099Y0044829D01*
D17*
X0036453Y0043756D02*
X0036453Y0043156D01*
X0036453Y0043156D02*
X0035967Y0042670D01*
D35*
X0036068Y0048639D02*
X0037973Y0048639D01*
X0037973Y0048639D02*
X0038227Y0048385D01*
D17*
X0036453Y0046156D02*
X0036453Y0048254D01*
X0036453Y0048254D02*
X0036068Y0048639D01*
D31*
X0014605Y0045845D02*
X0014605Y0043333D01*
X0014605Y0043333D02*
X0014196Y0042924D01*
D35*
X0039243Y0041083D02*
X0039243Y0041781D01*
X0015141Y0045309D02*
X0014605Y0045845D01*
X0032004Y0042924D02*
X0032004Y0044829D01*
D17*
X0035953Y0046156D02*
X0034233Y0046156D01*
X0034233Y0046156D02*
X0033782Y0046607D01*
D35*
X0034163Y0048639D02*
X0034163Y0046988D01*
X0034163Y0046988D02*
X0033782Y0046607D01*
X0033909Y0044956D02*
X0033909Y0046480D01*
X0033909Y0046480D02*
X0033782Y0046607D01*
X0032004Y0044829D02*
X0033782Y0044829D01*
X0033782Y0044829D02*
X0033909Y0044956D01*
X0014605Y0045845D02*
X0014605Y0047242D01*
X0014605Y0047242D02*
X0014605Y0048385D01*
X0034163Y0048639D02*
X0027753Y0048639D01*
X0027753Y0048639D02*
X0027186Y0049206D01*
X0027186Y0049206D02*
X0022840Y0049206D01*
X0022840Y0049206D02*
X0020807Y0047173D01*
X0020807Y0047173D02*
X0014674Y0047173D01*
X0014674Y0047173D02*
X0014605Y0047242D01*
X0032004Y0041019D02*
X0030806Y0041019D01*
X0030806Y0041019D02*
X0030492Y0040706D01*
X0030492Y0040706D02*
X0014104Y0040706D01*
X0014104Y0040706D02*
X0012065Y0042745D01*
X0012065Y0042745D02*
X0012065Y0044583D01*
X0012065Y0044583D02*
X0012065Y0045845D01*
X0012065Y0048385D02*
X0012065Y0045845D01*
X0037846Y0041654D02*
X0037211Y0041019D01*
X0037211Y0041019D02*
X0032004Y0041019D01*
D17*
X0037846Y0042763D02*
X0037846Y0041654D01*
X0037453Y0043756D02*
X0037453Y0043156D01*
X0037453Y0043156D02*
X0037846Y0042763D01*
X0035953Y0043756D02*
X0034614Y0043756D01*
X0034614Y0043756D02*
X0033909Y0043051D01*
X0016129Y0042924D02*
X0016256Y0041908D01*
X0036953Y0046156D02*
X0037453Y0046156D01*
D35*
X0039243Y0046290D02*
X0038672Y0046290D01*
X0038672Y0046290D02*
X0038354Y0046607D01*
X0031877Y0046607D02*
X0031877Y0046982D01*
X0031877Y0046982D02*
X0032639Y0047744D01*
X0039243Y0042988D02*
X0039243Y0043686D01*
X0039243Y0043686D02*
X0039243Y0044385D01*
D17*
X0036953Y0043756D02*
X0036953Y0042532D01*
X0036953Y0042532D02*
X0036872Y0042451D01*
D33*
G36*
X0010656Y0047623D02*
X0010700Y0047388D01*
X0010839Y0047172D01*
X0010921Y0047116D01*
X0010852Y0047071D01*
X0010707Y0046859D01*
X0010656Y0046607D01*
X0010656Y0045083D01*
X0010700Y0044848D01*
X0010839Y0044632D01*
X0011051Y0044487D01*
X0011180Y0044460D01*
X0011180Y0042745D01*
X0011180Y0042745D01*
X0011233Y0042480D01*
X0011247Y0042407D01*
X0011380Y0042208D01*
X0011439Y0042119D01*
X0012719Y0040840D01*
X0000710Y0040840D01*
X0000710Y0049072D01*
X0010656Y0049072D01*
X0010656Y0047623D01*
X0010656Y0047623D01*
G37*
X0010656Y0047623D02*
X0010700Y0047388D01*
X0010839Y0047172D01*
X0010921Y0047116D01*
X0010852Y0047071D01*
X0010707Y0046859D01*
X0010656Y0046607D01*
X0010656Y0045083D01*
X0010700Y0044848D01*
X0010839Y0044632D01*
X0011051Y0044487D01*
X0011180Y0044460D01*
X0011180Y0042745D01*
X0011180Y0042745D01*
X0011233Y0042480D01*
X0011247Y0042407D01*
X0011380Y0042208D01*
X0011439Y0042119D01*
X0012719Y0040840D01*
X0000710Y0040840D01*
X0000710Y0049072D01*
X0010656Y0049072D01*
X0010656Y0047623D01*
G36*
X0027127Y0048013D02*
X0027127Y0048013D01*
X0027217Y0047953D01*
X0027414Y0047821D01*
X0027753Y0047754D01*
X0027753Y0047754D01*
X0028436Y0047754D01*
X0028436Y0046353D01*
X0028480Y0046118D01*
X0028619Y0045902D01*
X0028831Y0045757D01*
X0028960Y0045730D01*
X0028960Y0045083D01*
X0028960Y0045083D01*
X0029007Y0044848D01*
X0029007Y0044846D01*
X0029007Y0044131D01*
X0029051Y0043895D01*
X0029190Y0043679D01*
X0029214Y0043663D01*
X0029214Y0042876D01*
X0029214Y0042876D01*
X0029269Y0042599D01*
X0029281Y0042537D01*
X0029435Y0042308D01*
X0029473Y0042250D01*
X0030129Y0041594D01*
X0030126Y0041591D01*
X0015268Y0041591D01*
X0015298Y0041610D01*
X0015443Y0041822D01*
X0015494Y0042074D01*
X0015494Y0042404D01*
X0015514Y0042424D01*
X0015792Y0042841D01*
X0015809Y0042924D01*
X0015890Y0043333D01*
X0015890Y0044676D01*
X0015919Y0044632D01*
X0016131Y0044487D01*
X0016383Y0044436D01*
X0017907Y0044436D01*
X0018142Y0044480D01*
X0018358Y0044619D01*
X0018503Y0044831D01*
X0018554Y0045083D01*
X0018554Y0046288D01*
X0020807Y0046288D01*
X0020807Y0046288D01*
X0021134Y0046353D01*
X0021146Y0046355D01*
X0021433Y0046547D01*
X0023207Y0048321D01*
X0026819Y0048321D01*
X0027127Y0048013D01*
X0027127Y0048013D01*
G37*
X0027127Y0048013D02*
X0027127Y0048013D01*
X0027217Y0047953D01*
X0027414Y0047821D01*
X0027753Y0047754D01*
X0027753Y0047754D01*
X0028436Y0047754D01*
X0028436Y0046353D01*
X0028480Y0046118D01*
X0028619Y0045902D01*
X0028831Y0045757D01*
X0028960Y0045730D01*
X0028960Y0045083D01*
X0028960Y0045083D01*
X0029007Y0044848D01*
X0029007Y0044846D01*
X0029007Y0044131D01*
X0029051Y0043895D01*
X0029190Y0043679D01*
X0029214Y0043663D01*
X0029214Y0042876D01*
X0029214Y0042876D01*
X0029269Y0042599D01*
X0029281Y0042537D01*
X0029435Y0042308D01*
X0029473Y0042250D01*
X0030129Y0041594D01*
X0030126Y0041591D01*
X0015268Y0041591D01*
X0015298Y0041610D01*
X0015443Y0041822D01*
X0015494Y0042074D01*
X0015494Y0042404D01*
X0015514Y0042424D01*
X0015792Y0042841D01*
X0015809Y0042924D01*
X0015890Y0043333D01*
X0015890Y0044676D01*
X0015919Y0044632D01*
X0016131Y0044487D01*
X0016383Y0044436D01*
X0017907Y0044436D01*
X0018142Y0044480D01*
X0018358Y0044619D01*
X0018503Y0044831D01*
X0018554Y0045083D01*
X0018554Y0046288D01*
X0020807Y0046288D01*
X0020807Y0046288D01*
X0021134Y0046353D01*
X0021146Y0046355D01*
X0021433Y0046547D01*
X0023207Y0048321D01*
X0026819Y0048321D01*
X0027127Y0048013D01*
G36*
X0039422Y0045476D02*
X0038545Y0045476D01*
X0038309Y0045432D01*
X0038093Y0045293D01*
X0037948Y0045081D01*
X0037897Y0044829D01*
X0037897Y0044624D01*
X0037855Y0044652D01*
X0037603Y0044703D01*
X0037303Y0044703D01*
X0037199Y0044684D01*
X0037103Y0044703D01*
X0036803Y0044703D01*
X0036699Y0044684D01*
X0036603Y0044703D01*
X0036303Y0044703D01*
X0036199Y0044684D01*
X0036103Y0044703D01*
X0035803Y0044703D01*
X0035568Y0044659D01*
X0035384Y0044541D01*
X0035255Y0044541D01*
X0035255Y0045371D01*
X0035388Y0045371D01*
X0035551Y0045260D01*
X0035803Y0045209D01*
X0036103Y0045209D01*
X0036207Y0045228D01*
X0036303Y0045209D01*
X0036603Y0045209D01*
X0036838Y0045253D01*
X0037054Y0045392D01*
X0037199Y0045604D01*
X0037250Y0045856D01*
X0037250Y0046456D01*
X0037238Y0046522D01*
X0037238Y0047022D01*
X0037465Y0046976D01*
X0038989Y0046976D01*
X0039224Y0047020D01*
X0039422Y0047147D01*
X0039422Y0045476D01*
X0039422Y0045476D01*
G37*
X0039422Y0045476D02*
X0038545Y0045476D01*
X0038309Y0045432D01*
X0038093Y0045293D01*
X0037948Y0045081D01*
X0037897Y0044829D01*
X0037897Y0044624D01*
X0037855Y0044652D01*
X0037603Y0044703D01*
X0037303Y0044703D01*
X0037199Y0044684D01*
X0037103Y0044703D01*
X0036803Y0044703D01*
X0036699Y0044684D01*
X0036603Y0044703D01*
X0036303Y0044703D01*
X0036199Y0044684D01*
X0036103Y0044703D01*
X0035803Y0044703D01*
X0035568Y0044659D01*
X0035384Y0044541D01*
X0035255Y0044541D01*
X0035255Y0045371D01*
X0035388Y0045371D01*
X0035551Y0045260D01*
X0035803Y0045209D01*
X0036103Y0045209D01*
X0036207Y0045228D01*
X0036303Y0045209D01*
X0036603Y0045209D01*
X0036838Y0045253D01*
X0037054Y0045392D01*
X0037199Y0045604D01*
X0037250Y0045856D01*
X0037250Y0046456D01*
X0037238Y0046522D01*
X0037238Y0047022D01*
X0037465Y0046976D01*
X0038989Y0046976D01*
X0039224Y0047020D01*
X0039422Y0047147D01*
X0039422Y0045476D01*
G36*
X0032741Y0047557D02*
X0032690Y0047306D01*
X0032690Y0046126D01*
X0032449Y0046175D01*
X0031560Y0046175D01*
X0031324Y0046131D01*
X0031145Y0046015D01*
X0031203Y0046101D01*
X0031254Y0046353D01*
X0031254Y0047754D01*
X0032875Y0047754D01*
X0032741Y0047557D01*
X0032741Y0047557D01*
G37*
X0032741Y0047557D02*
X0032690Y0047306D01*
X0032690Y0046126D01*
X0032449Y0046175D01*
X0031560Y0046175D01*
X0031324Y0046131D01*
X0031145Y0046015D01*
X0031203Y0046101D01*
X0031254Y0046353D01*
X0031254Y0047754D01*
X0032875Y0047754D01*
X0032741Y0047557D01*
G36*
X0020440Y0048058D02*
X0018554Y0048058D01*
X0018554Y0049072D01*
X0021454Y0049072D01*
X0020440Y0048058D01*
X0020440Y0048058D01*
G37*
X0020440Y0048058D02*
X0018554Y0048058D01*
X0018554Y0049072D01*
X0021454Y0049072D01*
X0020440Y0048058D01*
X0000000Y0049780D02*
G01*
D17*
X0011619Y0077914D02*
X0010219Y0077914D01*
X0011219Y0077414D01*
X0010219Y0076914D01*
X0011619Y0076914D01*
X0011619Y0075485D02*
X0011619Y0076200D01*
X0010219Y0076200D01*
X0011219Y0075057D02*
X0011219Y0074342D01*
X0011619Y0075200D02*
X0010219Y0074700D01*
X0011619Y0074200D01*
X0010886Y0073200D02*
X0010952Y0072985D01*
X0011019Y0072914D01*
X0011152Y0072842D01*
X0011352Y0072842D01*
X0011486Y0072914D01*
X0011552Y0072985D01*
X0011619Y0073128D01*
X0011619Y0073700D01*
X0010219Y0073700D01*
X0010219Y0073200D01*
X0010286Y0073057D01*
X0010352Y0072985D01*
X0010486Y0072914D01*
X0010619Y0072914D01*
X0010752Y0072985D01*
X0010819Y0073057D01*
X0010886Y0073200D01*
X0010886Y0073700D01*
X0011486Y0072200D02*
X0011552Y0072128D01*
X0011619Y0072200D01*
X0011552Y0072271D01*
X0011486Y0072200D01*
X0011619Y0072200D01*
X0011486Y0070628D02*
X0011552Y0070700D01*
X0011619Y0070914D01*
X0011619Y0071057D01*
X0011552Y0071271D01*
X0011419Y0071414D01*
X0011286Y0071485D01*
X0011019Y0071557D01*
X0010819Y0071557D01*
X0010552Y0071485D01*
X0010419Y0071414D01*
X0010286Y0071271D01*
X0010219Y0071057D01*
X0010219Y0070914D01*
X0010286Y0070700D01*
X0010352Y0070628D01*
X0010219Y0070128D02*
X0010219Y0069128D01*
X0011619Y0070128D01*
X0011619Y0069128D01*
D16*
X0024836Y0075500D03*
X0025837Y0075500D03*
X0024836Y0074098D03*
X0025337Y0075500D03*
X0025837Y0074098D03*
D23*
X0028196Y0058798D03*
X0011936Y0058798D03*
D31*
X0017526Y0057908D03*
X0019556Y0057908D03*
X0021586Y0057908D03*
X0023616Y0057908D03*
X0016506Y0059688D03*
X0018536Y0059688D03*
X0020566Y0059688D03*
X0022596Y0059688D03*
D82*
X0026926Y0064508D03*
X0024636Y0064508D03*
X0015496Y0064508D03*
X0013206Y0064508D03*
D41*
X0035306Y0069021D03*
X0037846Y0069021D03*
X0035306Y0066481D03*
X0037846Y0066481D03*
X0035306Y0063941D03*
X0037846Y0063941D03*
X0035306Y0061401D03*
X0037846Y0061401D03*
D50*
X0010414Y0055432D03*
X0010414Y0053527D03*
D41*
X0005906Y0061909D03*
X0003366Y0061909D03*
X0005906Y0064449D03*
X0003366Y0064449D03*
X0005906Y0066989D03*
X0003366Y0066989D03*
X0013970Y0067560D03*
X0013970Y0070100D03*
X0016510Y0067560D03*
X0016510Y0070100D03*
D85*
X0004826Y0074926D03*
X0035306Y0054606D03*
X0004826Y0054606D03*
X0035306Y0074926D03*
D77*
X0008446Y0064449D03*
X0010351Y0064449D03*
X0008446Y0067052D03*
X0010351Y0067052D03*
D50*
X0008827Y0060258D03*
X0008827Y0058353D03*
D41*
X0005906Y0069529D03*
X0003366Y0069529D03*
D11*
X0030290Y0074657D03*
X0030290Y0069607D03*
D41*
X0019050Y0067560D03*
X0019050Y0070100D03*
X0021590Y0067560D03*
X0021590Y0070100D03*
X0026670Y0067560D03*
X0026670Y0070100D03*
X0024130Y0067560D03*
X0024130Y0070100D03*
D83*
X0017079Y0074680D03*
X0017079Y0075680D03*
X0018481Y0074680D03*
X0017079Y0075180D03*
X0018481Y0075680D03*
D30*
X0031496Y0059290D03*
X0031496Y0065290D03*
D40*
X0010478Y0063179D03*
D67*
X0031496Y0065290D02*
X0031496Y0068401D01*
X0031496Y0068401D02*
X0030290Y0069607D01*
X0035306Y0063941D02*
X0032845Y0063941D01*
X0032845Y0063941D02*
X0031496Y0065290D01*
D81*
X0013970Y0070100D02*
X0013970Y0073275D01*
X0013970Y0073275D02*
X0016383Y0075688D01*
D17*
X0016547Y0075688D02*
X0016383Y0075688D01*
X0017079Y0075680D02*
X0016554Y0075680D01*
X0016554Y0075680D02*
X0016547Y0075688D01*
X0013970Y0067560D02*
X0013970Y0070100D01*
X0016506Y0059688D02*
X0016976Y0060158D01*
X0015922Y0065608D02*
X0013970Y0067560D01*
X0016976Y0060158D02*
X0016976Y0064656D01*
X0016976Y0064656D02*
X0016024Y0065608D01*
X0016024Y0065608D02*
X0015922Y0065608D01*
D81*
X0016510Y0070100D02*
X0016510Y0071562D01*
X0017079Y0072131D02*
X0017079Y0074230D01*
X0016510Y0071562D02*
X0017079Y0072131D01*
D17*
X0017079Y0074680D02*
X0017079Y0074230D01*
X0017079Y0074230D02*
X0017082Y0074227D01*
X0017079Y0070669D02*
X0016510Y0070100D01*
X0016510Y0067560D02*
X0016510Y0070100D01*
X0017526Y0064884D02*
X0016510Y0065900D01*
X0016510Y0065900D02*
X0016510Y0067560D01*
X0017526Y0057908D02*
X0017526Y0064884D01*
D81*
X0021590Y0070100D02*
X0021590Y0073096D01*
X0021590Y0073096D02*
X0019006Y0075680D01*
D17*
X0018481Y0075680D02*
X0019006Y0075680D01*
X0019006Y0075680D02*
X0019013Y0075688D01*
X0021590Y0067560D02*
X0021590Y0070100D01*
D74*
X0019536Y0060168D02*
X0019536Y0059144D01*
X0019536Y0059144D02*
X0019780Y0058901D01*
X0019780Y0058901D02*
X0019983Y0058901D01*
X0021586Y0057908D02*
X0020936Y0058558D01*
X0020936Y0058558D02*
X0020325Y0058558D01*
X0020325Y0058558D02*
X0019983Y0058901D01*
D17*
X0019086Y0060618D02*
X0019536Y0060168D01*
X0019086Y0065056D02*
X0019086Y0060618D01*
X0019086Y0065056D02*
X0019439Y0065409D01*
X0019439Y0065409D02*
X0021590Y0067560D01*
D81*
X0019050Y0070100D02*
X0019050Y0071562D01*
X0019050Y0071562D02*
X0018481Y0072131D01*
X0018481Y0072131D02*
X0018481Y0074294D01*
D17*
X0018481Y0074680D02*
X0018481Y0074294D01*
X0019050Y0067560D02*
X0019050Y0070100D01*
X0018536Y0065284D02*
X0019050Y0065798D01*
X0018536Y0059688D02*
X0018536Y0065284D01*
X0019050Y0065798D02*
X0019050Y0067560D01*
X0024130Y0067560D02*
X0024130Y0066989D01*
X0022986Y0063752D02*
X0023066Y0063672D01*
X0024130Y0066989D02*
X0024321Y0066798D01*
X0023066Y0065361D02*
X0023066Y0065344D01*
X0024321Y0066798D02*
X0024321Y0066615D01*
X0024321Y0066615D02*
X0023066Y0065361D01*
X0023066Y0065344D02*
X0022986Y0065264D01*
X0022986Y0065264D02*
X0022986Y0063752D01*
X0023066Y0063672D02*
X0023066Y0060158D01*
X0023066Y0060158D02*
X0022596Y0059688D01*
D81*
X0024130Y0070100D02*
X0024130Y0071562D01*
X0024130Y0071562D02*
X0024836Y0072268D01*
X0024836Y0072268D02*
X0024836Y0073573D01*
D17*
X0024836Y0074098D02*
X0024836Y0073573D01*
X0024836Y0073573D02*
X0024829Y0073566D01*
X0022598Y0059686D02*
X0022596Y0059688D01*
X0024130Y0067560D02*
X0024130Y0070100D01*
X0026670Y0067560D02*
X0025908Y0066798D01*
X0025908Y0066798D02*
X0025522Y0066798D01*
X0023616Y0065133D02*
X0023616Y0065116D01*
X0025522Y0066798D02*
X0025172Y0066448D01*
X0025172Y0066448D02*
X0024931Y0066448D01*
X0023616Y0065116D02*
X0023536Y0065036D01*
X0024931Y0066448D02*
X0023616Y0065133D01*
X0023536Y0065036D02*
X0023536Y0063980D01*
X0023536Y0063980D02*
X0023616Y0063900D01*
X0023616Y0063900D02*
X0023616Y0060158D01*
X0023616Y0060158D02*
X0023616Y0057908D01*
D81*
X0026670Y0070100D02*
X0026670Y0072704D01*
X0026670Y0072704D02*
X0025837Y0073537D01*
D17*
X0025837Y0074098D02*
X0025837Y0073537D01*
X0026670Y0067560D02*
X0026670Y0070100D01*
D81*
X0009078Y0057276D02*
X0008827Y0057527D01*
X0008827Y0057527D02*
X0008827Y0058353D01*
X0010414Y0057276D02*
X0009078Y0057276D01*
X0010414Y0055432D02*
X0010414Y0057276D01*
X0010414Y0057276D02*
X0011936Y0058798D01*
X0011491Y0058353D02*
X0011936Y0058798D01*
X0003366Y0069529D02*
X0005906Y0069529D01*
X0003366Y0061909D02*
X0005906Y0061909D01*
X0003366Y0064449D02*
X0005906Y0064449D01*
D35*
X0008446Y0064449D02*
X0005906Y0064449D01*
D81*
X0003366Y0066989D02*
X0005906Y0066989D01*
D35*
X0008446Y0067052D02*
X0005969Y0067052D01*
X0005969Y0067052D02*
X0005906Y0066989D01*
X0010478Y0063179D02*
X0010478Y0064322D01*
X0010478Y0064322D02*
X0010351Y0064449D01*
X0013206Y0064508D02*
X0012895Y0064508D01*
X0012895Y0064508D02*
X0010351Y0067052D01*
D33*
G36*
X0039755Y0050157D02*
X0000377Y0050157D01*
X0000377Y0058797D01*
X0007795Y0058797D01*
X0007795Y0057908D01*
X0007817Y0057787D01*
X0007889Y0057676D01*
X0007998Y0057601D01*
X0008128Y0057575D01*
X0008150Y0057575D01*
X0008150Y0057527D01*
X0008201Y0057268D01*
X0008348Y0057048D01*
X0008599Y0056797D01*
X0008818Y0056651D01*
X0009078Y0056599D01*
X0009737Y0056599D01*
X0009737Y0056209D01*
X0009716Y0056209D01*
X0009594Y0056187D01*
X0009483Y0056115D01*
X0009408Y0056006D01*
X0009382Y0055876D01*
X0009382Y0054987D01*
X0009405Y0054866D01*
X0009477Y0054755D01*
X0009586Y0054680D01*
X0009716Y0054654D01*
X0011113Y0054654D01*
X0011234Y0054676D01*
X0011345Y0054748D01*
X0011420Y0054857D01*
X0011444Y0054976D01*
X0011739Y0054976D01*
X0012039Y0054250D01*
X0012595Y0053693D01*
X0013321Y0053391D01*
X0014108Y0053391D01*
X0014834Y0053691D01*
X0015391Y0054247D01*
X0015693Y0054973D01*
X0015693Y0054976D01*
X0024439Y0054976D01*
X0024739Y0054250D01*
X0025295Y0053693D01*
X0026021Y0053391D01*
X0026808Y0053391D01*
X0027534Y0053691D01*
X0028091Y0054247D01*
X0028393Y0054973D01*
X0028393Y0055760D01*
X0028093Y0056486D01*
X0027537Y0057043D01*
X0026811Y0057345D01*
X0026024Y0057345D01*
X0025298Y0057045D01*
X0024741Y0056489D01*
X0024439Y0055763D01*
X0024439Y0054976D01*
X0015693Y0054976D01*
X0015693Y0055760D01*
X0015393Y0056486D01*
X0014837Y0057043D01*
X0014111Y0057345D01*
X0013324Y0057345D01*
X0012598Y0057045D01*
X0012041Y0056489D01*
X0011739Y0055763D01*
X0011739Y0054976D01*
X0011444Y0054976D01*
X0011446Y0054987D01*
X0011446Y0055876D01*
X0011423Y0055997D01*
X0011351Y0056108D01*
X0011242Y0056183D01*
X0011113Y0056209D01*
X0011091Y0056209D01*
X0011091Y0056996D01*
X0011482Y0057387D01*
X0011641Y0057321D01*
X0012229Y0057321D01*
X0012772Y0057545D01*
X0013187Y0057960D01*
X0013413Y0058503D01*
X0013413Y0059091D01*
X0013189Y0059634D01*
X0012774Y0060049D01*
X0012231Y0060275D01*
X0011643Y0060275D01*
X0011100Y0060051D01*
X0010685Y0059636D01*
X0010459Y0059093D01*
X0010459Y0058505D01*
X0010525Y0058345D01*
X0010134Y0057953D01*
X0009858Y0057953D01*
X0009858Y0058797D01*
X0009836Y0058918D01*
X0009764Y0059029D01*
X0009655Y0059104D01*
X0009525Y0059130D01*
X0008128Y0059130D01*
X0008007Y0059108D01*
X0007896Y0059036D01*
X0007821Y0058927D01*
X0007795Y0058797D01*
X0000377Y0058797D01*
X0000377Y0062671D01*
X0002270Y0062671D01*
X0002270Y0061147D01*
X0002293Y0061025D01*
X0002365Y0060914D01*
X0002474Y0060839D01*
X0002604Y0060813D01*
X0004128Y0060813D01*
X0004249Y0060836D01*
X0004360Y0060908D01*
X0004435Y0061017D01*
X0004461Y0061147D01*
X0004461Y0061232D01*
X0004810Y0061232D01*
X0004810Y0061147D01*
X0004833Y0061025D01*
X0004905Y0060914D01*
X0005014Y0060839D01*
X0005144Y0060813D01*
X0006668Y0060813D01*
X0006789Y0060836D01*
X0006900Y0060908D01*
X0006975Y0061017D01*
X0007001Y0061147D01*
X0007001Y0062671D01*
X0006978Y0062792D01*
X0006906Y0062903D01*
X0006797Y0062978D01*
X0006668Y0063004D01*
X0005144Y0063004D01*
X0005022Y0062981D01*
X0004911Y0062909D01*
X0004836Y0062800D01*
X0004810Y0062671D01*
X0004810Y0062586D01*
X0004461Y0062586D01*
X0004461Y0062671D01*
X0004438Y0062792D01*
X0004366Y0062903D01*
X0004257Y0062978D01*
X0004128Y0063004D01*
X0002604Y0063004D01*
X0002482Y0062981D01*
X0002371Y0062909D01*
X0002296Y0062800D01*
X0002270Y0062671D01*
X0000377Y0062671D01*
X0000377Y0065211D01*
X0002270Y0065211D01*
X0002270Y0063687D01*
X0002293Y0063565D01*
X0002365Y0063454D01*
X0002474Y0063379D01*
X0002604Y0063353D01*
X0004128Y0063353D01*
X0004249Y0063376D01*
X0004360Y0063448D01*
X0004435Y0063557D01*
X0004461Y0063687D01*
X0004461Y0063772D01*
X0004810Y0063772D01*
X0004810Y0063687D01*
X0004833Y0063565D01*
X0004905Y0063454D01*
X0005014Y0063379D01*
X0005144Y0063353D01*
X0006668Y0063353D01*
X0006789Y0063376D01*
X0006900Y0063448D01*
X0006975Y0063557D01*
X0007001Y0063687D01*
X0007001Y0063872D01*
X0007668Y0063872D01*
X0007668Y0063750D01*
X0007690Y0063629D01*
X0007762Y0063518D01*
X0007871Y0063443D01*
X0008001Y0063417D01*
X0008890Y0063417D01*
X0009011Y0063439D01*
X0009122Y0063511D01*
X0009197Y0063620D01*
X0009223Y0063750D01*
X0009223Y0065147D01*
X0009573Y0065147D01*
X0009573Y0063750D01*
X0009595Y0063629D01*
X0009667Y0063518D01*
X0009757Y0063456D01*
X0009706Y0063333D01*
X0009705Y0063026D01*
X0009823Y0062742D01*
X0010040Y0062524D01*
X0010323Y0062407D01*
X0010630Y0062406D01*
X0010914Y0062524D01*
X0011132Y0062741D01*
X0011249Y0063024D01*
X0011250Y0063331D01*
X0011132Y0063615D01*
X0011106Y0063641D01*
X0011128Y0063750D01*
X0011128Y0065147D01*
X0011106Y0065268D01*
X0011034Y0065379D01*
X0010925Y0065454D01*
X0010795Y0065480D01*
X0009906Y0065480D01*
X0009785Y0065458D01*
X0009674Y0065386D01*
X0009599Y0065277D01*
X0009573Y0065147D01*
X0009223Y0065147D01*
X0009201Y0065268D01*
X0009129Y0065379D01*
X0009020Y0065454D01*
X0008890Y0065480D01*
X0008001Y0065480D01*
X0007880Y0065458D01*
X0007769Y0065386D01*
X0007694Y0065277D01*
X0007668Y0065147D01*
X0007668Y0065026D01*
X0007001Y0065026D01*
X0007001Y0065211D01*
X0006978Y0065332D01*
X0006906Y0065443D01*
X0006797Y0065518D01*
X0006668Y0065544D01*
X0005144Y0065544D01*
X0005022Y0065521D01*
X0004911Y0065449D01*
X0004836Y0065340D01*
X0004810Y0065211D01*
X0004810Y0065126D01*
X0004461Y0065126D01*
X0004461Y0065211D01*
X0004438Y0065332D01*
X0004366Y0065443D01*
X0004257Y0065518D01*
X0004128Y0065544D01*
X0002604Y0065544D01*
X0002482Y0065521D01*
X0002371Y0065449D01*
X0002296Y0065340D01*
X0002270Y0065211D01*
X0000377Y0065211D01*
X0000377Y0067751D01*
X0002270Y0067751D01*
X0002270Y0066227D01*
X0002293Y0066105D01*
X0002365Y0065994D01*
X0002474Y0065919D01*
X0002604Y0065893D01*
X0004128Y0065893D01*
X0004249Y0065916D01*
X0004360Y0065988D01*
X0004435Y0066097D01*
X0004461Y0066227D01*
X0004461Y0066312D01*
X0004810Y0066312D01*
X0004810Y0066227D01*
X0004833Y0066105D01*
X0004905Y0065994D01*
X0005014Y0065919D01*
X0005144Y0065893D01*
X0006668Y0065893D01*
X0006789Y0065916D01*
X0006900Y0065988D01*
X0006975Y0066097D01*
X0007001Y0066227D01*
X0007001Y0066475D01*
X0007668Y0066475D01*
X0007668Y0066354D01*
X0007690Y0066232D01*
X0007762Y0066121D01*
X0007871Y0066046D01*
X0008001Y0066020D01*
X0008890Y0066020D01*
X0009011Y0066043D01*
X0009122Y0066115D01*
X0009197Y0066224D01*
X0009223Y0066354D01*
X0009223Y0067751D01*
X0009573Y0067751D01*
X0009573Y0066354D01*
X0009595Y0066232D01*
X0009667Y0066121D01*
X0009776Y0066046D01*
X0009906Y0066020D01*
X0010566Y0066020D01*
X0012129Y0064458D01*
X0012129Y0064295D01*
X0012292Y0063899D01*
X0012595Y0063595D01*
X0012991Y0063431D01*
X0013419Y0063431D01*
X0013815Y0063594D01*
X0014119Y0063897D01*
X0014283Y0064293D01*
X0014283Y0064721D01*
X0014120Y0065117D01*
X0013817Y0065421D01*
X0013421Y0065585D01*
X0012993Y0065585D01*
X0012738Y0065480D01*
X0011128Y0067090D01*
X0011128Y0067751D01*
X0011106Y0067872D01*
X0011034Y0067983D01*
X0010925Y0068058D01*
X0010795Y0068084D01*
X0009906Y0068084D01*
X0009785Y0068061D01*
X0009674Y0067989D01*
X0009599Y0067880D01*
X0009573Y0067751D01*
X0009223Y0067751D01*
X0009201Y0067872D01*
X0009129Y0067983D01*
X0009020Y0068058D01*
X0008890Y0068084D01*
X0008001Y0068084D01*
X0007880Y0068061D01*
X0007769Y0067989D01*
X0007694Y0067880D01*
X0007668Y0067751D01*
X0007668Y0067629D01*
X0007001Y0067629D01*
X0007001Y0067751D01*
X0006978Y0067872D01*
X0006906Y0067983D01*
X0006797Y0068058D01*
X0006668Y0068084D01*
X0005144Y0068084D01*
X0005022Y0068061D01*
X0004911Y0067989D01*
X0004836Y0067880D01*
X0004810Y0067751D01*
X0004810Y0067666D01*
X0004461Y0067666D01*
X0004461Y0067751D01*
X0004438Y0067872D01*
X0004366Y0067983D01*
X0004257Y0068058D01*
X0004128Y0068084D01*
X0002604Y0068084D01*
X0002482Y0068061D01*
X0002371Y0067989D01*
X0002296Y0067880D01*
X0002270Y0067751D01*
X0000377Y0067751D01*
X0000377Y0070291D01*
X0002270Y0070291D01*
X0002270Y0068767D01*
X0002293Y0068645D01*
X0002365Y0068534D01*
X0002474Y0068459D01*
X0002604Y0068433D01*
X0004128Y0068433D01*
X0004249Y0068456D01*
X0004360Y0068528D01*
X0004435Y0068637D01*
X0004461Y0068767D01*
X0004461Y0068852D01*
X0004810Y0068852D01*
X0004810Y0068767D01*
X0004833Y0068645D01*
X0004905Y0068534D01*
X0005014Y0068459D01*
X0005144Y0068433D01*
X0006668Y0068433D01*
X0006789Y0068456D01*
X0006900Y0068528D01*
X0006975Y0068637D01*
X0007001Y0068767D01*
X0007001Y0070291D01*
X0006978Y0070412D01*
X0006906Y0070523D01*
X0006797Y0070598D01*
X0006668Y0070624D01*
X0005144Y0070624D01*
X0005022Y0070601D01*
X0004911Y0070529D01*
X0004836Y0070420D01*
X0004810Y0070291D01*
X0004810Y0070206D01*
X0004461Y0070206D01*
X0004461Y0070291D01*
X0004438Y0070412D01*
X0004366Y0070523D01*
X0004257Y0070598D01*
X0004128Y0070624D01*
X0002604Y0070624D01*
X0002482Y0070601D01*
X0002371Y0070529D01*
X0002296Y0070420D01*
X0002270Y0070291D01*
X0000377Y0070291D01*
X0000377Y0078748D01*
X0009229Y0078748D01*
X0009229Y0068437D01*
X0012443Y0068437D01*
X0012443Y0070862D01*
X0012875Y0070862D01*
X0012875Y0069338D01*
X0012897Y0069217D01*
X0012969Y0069106D01*
X0013078Y0069031D01*
X0013208Y0069005D01*
X0013493Y0069005D01*
X0013493Y0068655D01*
X0013208Y0068655D01*
X0013087Y0068633D01*
X0012976Y0068561D01*
X0012901Y0068452D01*
X0012875Y0068322D01*
X0012875Y0066798D01*
X0012897Y0066677D01*
X0012969Y0066566D01*
X0013078Y0066491D01*
X0013208Y0066465D01*
X0014391Y0066465D01*
X0015274Y0065582D01*
X0014887Y0065422D01*
X0014583Y0065119D01*
X0014419Y0064723D01*
X0014419Y0064295D01*
X0014582Y0063899D01*
X0014885Y0063595D01*
X0015281Y0063431D01*
X0015709Y0063431D01*
X0016105Y0063594D01*
X0016409Y0063897D01*
X0016499Y0064115D01*
X0016499Y0060665D01*
X0016313Y0060665D01*
X0015953Y0060517D01*
X0015678Y0060242D01*
X0015529Y0059883D01*
X0015529Y0059495D01*
X0015677Y0059135D01*
X0015952Y0058860D01*
X0016311Y0058711D01*
X0016699Y0058711D01*
X0017049Y0058855D01*
X0017049Y0058768D01*
X0016973Y0058737D01*
X0016698Y0058462D01*
X0016549Y0058103D01*
X0016549Y0057715D01*
X0016697Y0057355D01*
X0016972Y0057080D01*
X0017331Y0056931D01*
X0017719Y0056931D01*
X0018079Y0057079D01*
X0018354Y0057354D01*
X0018503Y0057713D01*
X0018503Y0058101D01*
X0018355Y0058461D01*
X0018080Y0058736D01*
X0018003Y0058768D01*
X0018003Y0058851D01*
X0018341Y0058711D01*
X0018729Y0058711D01*
X0019089Y0058859D01*
X0019151Y0058922D01*
X0019216Y0058825D01*
X0019460Y0058581D01*
X0019607Y0058483D01*
X0019780Y0058449D01*
X0019796Y0058449D01*
X0020006Y0058238D01*
X0020152Y0058140D01*
X0020325Y0058106D01*
X0020610Y0058106D01*
X0020609Y0058103D01*
X0020609Y0057715D01*
X0020757Y0057355D01*
X0021032Y0057080D01*
X0021391Y0056931D01*
X0021779Y0056931D01*
X0022139Y0057079D01*
X0022414Y0057354D01*
X0022563Y0057713D01*
X0022563Y0058101D01*
X0022415Y0058461D01*
X0022140Y0058736D01*
X0021781Y0058885D01*
X0021393Y0058885D01*
X0021290Y0058843D01*
X0021256Y0058878D01*
X0021185Y0058925D01*
X0021394Y0059134D01*
X0021543Y0059493D01*
X0021543Y0059495D01*
X0021619Y0059495D01*
X0021767Y0059135D01*
X0022042Y0058860D01*
X0022401Y0058711D01*
X0022789Y0058711D01*
X0023139Y0058855D01*
X0023139Y0058768D01*
X0023063Y0058737D01*
X0022788Y0058462D01*
X0022639Y0058103D01*
X0022639Y0057715D01*
X0022787Y0057355D01*
X0023062Y0057080D01*
X0023421Y0056931D01*
X0023809Y0056931D01*
X0024169Y0057079D01*
X0024444Y0057354D01*
X0024593Y0057713D01*
X0024593Y0058101D01*
X0024445Y0058461D01*
X0024400Y0058505D01*
X0026719Y0058505D01*
X0026943Y0057962D01*
X0027358Y0057547D01*
X0027901Y0057321D01*
X0028489Y0057321D01*
X0029032Y0057545D01*
X0029447Y0057960D01*
X0029673Y0058503D01*
X0029673Y0059091D01*
X0029449Y0059634D01*
X0029034Y0060049D01*
X0028491Y0060275D01*
X0027903Y0060275D01*
X0027360Y0060051D01*
X0026945Y0059636D01*
X0026719Y0059093D01*
X0026719Y0058505D01*
X0024400Y0058505D01*
X0024170Y0058736D01*
X0024093Y0058768D01*
X0024093Y0063567D01*
X0024421Y0063431D01*
X0024849Y0063431D01*
X0025245Y0063594D01*
X0025549Y0063897D01*
X0025713Y0064293D01*
X0025713Y0064295D01*
X0025849Y0064295D01*
X0026012Y0063899D01*
X0026315Y0063595D01*
X0026711Y0063431D01*
X0027139Y0063431D01*
X0027535Y0063594D01*
X0027839Y0063897D01*
X0028003Y0064293D01*
X0028003Y0064721D01*
X0027840Y0065117D01*
X0027537Y0065421D01*
X0027141Y0065585D01*
X0026713Y0065585D01*
X0026317Y0065422D01*
X0026013Y0065119D01*
X0025849Y0064723D01*
X0025849Y0064295D01*
X0025713Y0064295D01*
X0025713Y0064721D01*
X0025550Y0065117D01*
X0025247Y0065421D01*
X0024851Y0065585D01*
X0024742Y0065585D01*
X0025128Y0065971D01*
X0025172Y0065971D01*
X0025355Y0066007D01*
X0025509Y0066111D01*
X0025720Y0066321D01*
X0025908Y0066321D01*
X0026091Y0066357D01*
X0026245Y0066461D01*
X0026249Y0066465D01*
X0027432Y0066465D01*
X0027553Y0066487D01*
X0027664Y0066559D01*
X0027739Y0066668D01*
X0027765Y0066798D01*
X0027765Y0068322D01*
X0027743Y0068443D01*
X0027671Y0068554D01*
X0027562Y0068629D01*
X0027432Y0068655D01*
X0027147Y0068655D01*
X0027147Y0069005D01*
X0027432Y0069005D01*
X0027553Y0069027D01*
X0027664Y0069099D01*
X0027739Y0069208D01*
X0027765Y0069338D01*
X0027765Y0070862D01*
X0027762Y0070882D01*
X0028706Y0070882D01*
X0028706Y0068332D01*
X0028729Y0068211D01*
X0028801Y0068100D01*
X0028910Y0068025D01*
X0029040Y0067999D01*
X0030719Y0067999D01*
X0030719Y0066623D01*
X0029996Y0066623D01*
X0029875Y0066600D01*
X0029764Y0066528D01*
X0029689Y0066419D01*
X0029663Y0066290D01*
X0029663Y0064290D01*
X0029685Y0064168D01*
X0029757Y0064057D01*
X0029866Y0063982D01*
X0029996Y0063956D01*
X0031731Y0063956D01*
X0032296Y0063391D01*
X0032548Y0063223D01*
X0032845Y0063164D01*
X0034213Y0063164D01*
X0034233Y0063057D01*
X0034305Y0062946D01*
X0034414Y0062871D01*
X0034544Y0062845D01*
X0036068Y0062845D01*
X0036189Y0062868D01*
X0036300Y0062940D01*
X0036375Y0063049D01*
X0036401Y0063179D01*
X0036401Y0064703D01*
X0036751Y0064703D01*
X0036751Y0063179D01*
X0036773Y0063057D01*
X0036845Y0062946D01*
X0036954Y0062871D01*
X0037084Y0062845D01*
X0038608Y0062845D01*
X0038729Y0062868D01*
X0038840Y0062940D01*
X0038915Y0063049D01*
X0038941Y0063179D01*
X0038941Y0064703D01*
X0038919Y0064824D01*
X0038847Y0064935D01*
X0038738Y0065010D01*
X0038608Y0065036D01*
X0037084Y0065036D01*
X0036963Y0065013D01*
X0036852Y0064941D01*
X0036777Y0064832D01*
X0036751Y0064703D01*
X0036401Y0064703D01*
X0036379Y0064824D01*
X0036307Y0064935D01*
X0036198Y0065010D01*
X0036068Y0065036D01*
X0034544Y0065036D01*
X0034423Y0065013D01*
X0034312Y0064941D01*
X0034237Y0064832D01*
X0034214Y0064718D01*
X0033329Y0064718D01*
X0033329Y0066290D01*
X0033307Y0066411D01*
X0033235Y0066522D01*
X0033126Y0066597D01*
X0032996Y0066623D01*
X0032273Y0066623D01*
X0032273Y0067243D01*
X0034211Y0067243D01*
X0034211Y0065719D01*
X0034233Y0065597D01*
X0034305Y0065486D01*
X0034414Y0065411D01*
X0034544Y0065385D01*
X0036068Y0065385D01*
X0036189Y0065408D01*
X0036300Y0065480D01*
X0036375Y0065589D01*
X0036401Y0065719D01*
X0036401Y0067243D01*
X0036751Y0067243D01*
X0036751Y0065719D01*
X0036773Y0065597D01*
X0036845Y0065486D01*
X0036954Y0065411D01*
X0037084Y0065385D01*
X0038608Y0065385D01*
X0038729Y0065408D01*
X0038840Y0065480D01*
X0038915Y0065589D01*
X0038941Y0065719D01*
X0038941Y0067243D01*
X0038919Y0067364D01*
X0038847Y0067475D01*
X0038738Y0067550D01*
X0038608Y0067576D01*
X0037084Y0067576D01*
X0036963Y0067553D01*
X0036852Y0067481D01*
X0036777Y0067372D01*
X0036751Y0067243D01*
X0036401Y0067243D01*
X0036379Y0067364D01*
X0036307Y0067475D01*
X0036198Y0067550D01*
X0036068Y0067576D01*
X0034544Y0067576D01*
X0034423Y0067553D01*
X0034312Y0067481D01*
X0034237Y0067372D01*
X0034211Y0067243D01*
X0032273Y0067243D01*
X0032273Y0068401D01*
X0032214Y0068698D01*
X0032045Y0068950D01*
X0031873Y0069123D01*
X0031873Y0070882D01*
X0031850Y0071003D01*
X0031778Y0071115D01*
X0031669Y0071189D01*
X0031539Y0071216D01*
X0029040Y0071216D01*
X0028919Y0071193D01*
X0028807Y0071121D01*
X0028733Y0071012D01*
X0028706Y0070882D01*
X0027762Y0070882D01*
X0027743Y0070983D01*
X0027671Y0071094D01*
X0027562Y0071169D01*
X0027432Y0071195D01*
X0027347Y0071195D01*
X0027347Y0072704D01*
X0027329Y0072796D01*
X0027295Y0072963D01*
X0027149Y0073182D01*
X0026320Y0074011D01*
X0026320Y0074323D01*
X0026297Y0074444D01*
X0026226Y0074555D01*
X0026116Y0074630D01*
X0025987Y0074656D01*
X0025687Y0074656D01*
X0025566Y0074633D01*
X0025455Y0074562D01*
X0025380Y0074452D01*
X0025354Y0074323D01*
X0025354Y0074009D01*
X0025349Y0074001D01*
X0025319Y0074045D01*
X0025319Y0074323D01*
X0025297Y0074444D01*
X0025225Y0074555D01*
X0025116Y0074630D01*
X0024986Y0074656D01*
X0024686Y0074656D01*
X0024565Y0074633D01*
X0024454Y0074562D01*
X0024379Y0074452D01*
X0024353Y0074323D01*
X0024353Y0074045D01*
X0024211Y0073832D01*
X0024159Y0073573D01*
X0024159Y0072549D01*
X0023651Y0072041D01*
X0023505Y0071821D01*
X0023453Y0071562D01*
X0023453Y0071195D01*
X0023368Y0071195D01*
X0023247Y0071173D01*
X0023136Y0071101D01*
X0023061Y0070992D01*
X0023035Y0070862D01*
X0023035Y0069338D01*
X0023057Y0069217D01*
X0023129Y0069106D01*
X0023238Y0069031D01*
X0023368Y0069005D01*
X0023653Y0069005D01*
X0023653Y0068655D01*
X0023368Y0068655D01*
X0023247Y0068633D01*
X0023136Y0068561D01*
X0023061Y0068452D01*
X0023035Y0068322D01*
X0023035Y0066798D01*
X0023057Y0066677D01*
X0023129Y0066566D01*
X0023238Y0066491D01*
X0023368Y0066465D01*
X0023495Y0066465D01*
X0022729Y0065698D01*
X0022694Y0065647D01*
X0022649Y0065601D01*
X0022545Y0065446D01*
X0022509Y0065264D01*
X0022509Y0063752D01*
X0022545Y0063570D01*
X0022589Y0063504D01*
X0022589Y0060665D01*
X0022403Y0060665D01*
X0022043Y0060517D01*
X0021768Y0060242D01*
X0021619Y0059883D01*
X0021619Y0059495D01*
X0021543Y0059495D01*
X0021543Y0059881D01*
X0021395Y0060241D01*
X0021120Y0060516D01*
X0020761Y0060665D01*
X0020373Y0060665D01*
X0020013Y0060517D01*
X0019925Y0060428D01*
X0019873Y0060505D01*
X0019563Y0060816D01*
X0019563Y0064858D01*
X0021169Y0066465D01*
X0022352Y0066465D01*
X0022473Y0066487D01*
X0022584Y0066559D01*
X0022659Y0066668D01*
X0022685Y0066798D01*
X0022685Y0068322D01*
X0022663Y0068443D01*
X0022591Y0068554D01*
X0022482Y0068629D01*
X0022352Y0068655D01*
X0022067Y0068655D01*
X0022067Y0069005D01*
X0022352Y0069005D01*
X0022473Y0069027D01*
X0022584Y0069099D01*
X0022659Y0069208D01*
X0022685Y0069338D01*
X0022685Y0070862D01*
X0022663Y0070983D01*
X0022591Y0071094D01*
X0022482Y0071169D01*
X0022352Y0071195D01*
X0022267Y0071195D01*
X0022267Y0073096D01*
X0022215Y0073355D01*
X0022069Y0073575D01*
X0019919Y0075725D01*
X0024353Y0075725D01*
X0024353Y0075275D01*
X0024376Y0075154D01*
X0024447Y0075043D01*
X0024557Y0074968D01*
X0024686Y0074942D01*
X0024986Y0074942D01*
X0025107Y0074965D01*
X0025218Y0075036D01*
X0025293Y0075146D01*
X0025319Y0075275D01*
X0025319Y0075725D01*
X0025354Y0075725D01*
X0025354Y0075275D01*
X0025376Y0075154D01*
X0025448Y0075043D01*
X0025557Y0074968D01*
X0025687Y0074942D01*
X0025987Y0074942D01*
X0026108Y0074965D01*
X0026219Y0075036D01*
X0026294Y0075146D01*
X0026320Y0075275D01*
X0026320Y0075725D01*
X0026297Y0075846D01*
X0026226Y0075957D01*
X0026116Y0076032D01*
X0025987Y0076058D01*
X0025687Y0076058D01*
X0025566Y0076035D01*
X0025455Y0075964D01*
X0025380Y0075855D01*
X0025354Y0075725D01*
X0025319Y0075725D01*
X0025297Y0075846D01*
X0025225Y0075957D01*
X0025116Y0076032D01*
X0024986Y0076058D01*
X0024686Y0076058D01*
X0024565Y0076035D01*
X0024454Y0075964D01*
X0024379Y0075855D01*
X0024353Y0075725D01*
X0019919Y0075725D01*
X0019485Y0076159D01*
X0019265Y0076306D01*
X0019006Y0076357D01*
X0018747Y0076306D01*
X0018534Y0076164D01*
X0018256Y0076164D01*
X0018135Y0076141D01*
X0018024Y0076069D01*
X0017949Y0075960D01*
X0017923Y0075830D01*
X0017923Y0075531D01*
X0017946Y0075409D01*
X0018017Y0075298D01*
X0018127Y0075223D01*
X0018256Y0075197D01*
X0018532Y0075197D01*
X0018566Y0075163D01*
X0018256Y0075163D01*
X0018135Y0075140D01*
X0018024Y0075068D01*
X0017949Y0074959D01*
X0017923Y0074829D01*
X0017923Y0074653D01*
X0017856Y0074553D01*
X0017804Y0074294D01*
X0017804Y0072131D01*
X0017856Y0071872D01*
X0018002Y0071652D01*
X0018373Y0071282D01*
X0018373Y0071195D01*
X0018288Y0071195D01*
X0018167Y0071173D01*
X0018056Y0071101D01*
X0017981Y0070992D01*
X0017955Y0070862D01*
X0017955Y0069338D01*
X0017977Y0069217D01*
X0018049Y0069106D01*
X0018158Y0069031D01*
X0018288Y0069005D01*
X0018573Y0069005D01*
X0018573Y0068655D01*
X0018288Y0068655D01*
X0018167Y0068633D01*
X0018056Y0068561D01*
X0017981Y0068452D01*
X0017955Y0068322D01*
X0017955Y0066798D01*
X0017977Y0066677D01*
X0018049Y0066566D01*
X0018158Y0066491D01*
X0018288Y0066465D01*
X0018573Y0066465D01*
X0018573Y0065995D01*
X0018199Y0065621D01*
X0018095Y0065466D01*
X0018059Y0065284D01*
X0018059Y0060548D01*
X0018003Y0060525D01*
X0018003Y0064884D01*
X0017967Y0065066D01*
X0017863Y0065221D01*
X0016987Y0066097D01*
X0016987Y0066465D01*
X0017272Y0066465D01*
X0017393Y0066487D01*
X0017504Y0066559D01*
X0017579Y0066668D01*
X0017605Y0066798D01*
X0017605Y0068322D01*
X0017583Y0068443D01*
X0017511Y0068554D01*
X0017402Y0068629D01*
X0017272Y0068655D01*
X0016987Y0068655D01*
X0016987Y0069005D01*
X0017272Y0069005D01*
X0017393Y0069027D01*
X0017504Y0069099D01*
X0017579Y0069208D01*
X0017605Y0069338D01*
X0017605Y0070862D01*
X0017583Y0070983D01*
X0017511Y0071094D01*
X0017402Y0071169D01*
X0017272Y0071195D01*
X0017187Y0071195D01*
X0017187Y0071282D01*
X0017558Y0071652D01*
X0017704Y0071872D01*
X0017756Y0072131D01*
X0017756Y0074230D01*
X0017704Y0074489D01*
X0017637Y0074590D01*
X0017637Y0074829D01*
X0017614Y0074951D01*
X0017543Y0075062D01*
X0017433Y0075137D01*
X0017304Y0075163D01*
X0016854Y0075163D01*
X0016806Y0075154D01*
X0016850Y0075198D01*
X0016854Y0075197D01*
X0017304Y0075197D01*
X0017425Y0075220D01*
X0017536Y0075292D01*
X0017611Y0075401D01*
X0017637Y0075531D01*
X0017637Y0075830D01*
X0017614Y0075951D01*
X0017543Y0076063D01*
X0017433Y0076137D01*
X0017304Y0076164D01*
X0016864Y0076164D01*
X0016862Y0076167D01*
X0016642Y0076313D01*
X0016383Y0076365D01*
X0016124Y0076313D01*
X0015904Y0076167D01*
X0013491Y0073754D01*
X0013345Y0073534D01*
X0013293Y0073275D01*
X0013293Y0071195D01*
X0013208Y0071195D01*
X0013087Y0071173D01*
X0012976Y0071101D01*
X0012901Y0070992D01*
X0012875Y0070862D01*
X0012443Y0070862D01*
X0012443Y0078748D01*
X0009229Y0078748D01*
X0000377Y0078748D01*
X0000377Y0079373D01*
X0039755Y0079373D01*
X0039755Y0050157D01*
X0039755Y0050157D01*
G37*
X0039755Y0050157D02*
X0000377Y0050157D01*
X0000377Y0058797D01*
X0007795Y0058797D01*
X0007795Y0057908D01*
X0007817Y0057787D01*
X0007889Y0057676D01*
X0007998Y0057601D01*
X0008128Y0057575D01*
X0008150Y0057575D01*
X0008150Y0057527D01*
X0008201Y0057268D01*
X0008348Y0057048D01*
X0008599Y0056797D01*
X0008818Y0056651D01*
X0009078Y0056599D01*
X0009737Y0056599D01*
X0009737Y0056209D01*
X0009716Y0056209D01*
X0009594Y0056187D01*
X0009483Y0056115D01*
X0009408Y0056006D01*
X0009382Y0055876D01*
X0009382Y0054987D01*
X0009405Y0054866D01*
X0009477Y0054755D01*
X0009586Y0054680D01*
X0009716Y0054654D01*
X0011113Y0054654D01*
X0011234Y0054676D01*
X0011345Y0054748D01*
X0011420Y0054857D01*
X0011444Y0054976D01*
X0011739Y0054976D01*
X0012039Y0054250D01*
X0012595Y0053693D01*
X0013321Y0053391D01*
X0014108Y0053391D01*
X0014834Y0053691D01*
X0015391Y0054247D01*
X0015693Y0054973D01*
X0015693Y0054976D01*
X0024439Y0054976D01*
X0024739Y0054250D01*
X0025295Y0053693D01*
X0026021Y0053391D01*
X0026808Y0053391D01*
X0027534Y0053691D01*
X0028091Y0054247D01*
X0028393Y0054973D01*
X0028393Y0055760D01*
X0028093Y0056486D01*
X0027537Y0057043D01*
X0026811Y0057345D01*
X0026024Y0057345D01*
X0025298Y0057045D01*
X0024741Y0056489D01*
X0024439Y0055763D01*
X0024439Y0054976D01*
X0015693Y0054976D01*
X0015693Y0055760D01*
X0015393Y0056486D01*
X0014837Y0057043D01*
X0014111Y0057345D01*
X0013324Y0057345D01*
X0012598Y0057045D01*
X0012041Y0056489D01*
X0011739Y0055763D01*
X0011739Y0054976D01*
X0011444Y0054976D01*
X0011446Y0054987D01*
X0011446Y0055876D01*
X0011423Y0055997D01*
X0011351Y0056108D01*
X0011242Y0056183D01*
X0011113Y0056209D01*
X0011091Y0056209D01*
X0011091Y0056996D01*
X0011482Y0057387D01*
X0011641Y0057321D01*
X0012229Y0057321D01*
X0012772Y0057545D01*
X0013187Y0057960D01*
X0013413Y0058503D01*
X0013413Y0059091D01*
X0013189Y0059634D01*
X0012774Y0060049D01*
X0012231Y0060275D01*
X0011643Y0060275D01*
X0011100Y0060051D01*
X0010685Y0059636D01*
X0010459Y0059093D01*
X0010459Y0058505D01*
X0010525Y0058345D01*
X0010134Y0057953D01*
X0009858Y0057953D01*
X0009858Y0058797D01*
X0009836Y0058918D01*
X0009764Y0059029D01*
X0009655Y0059104D01*
X0009525Y0059130D01*
X0008128Y0059130D01*
X0008007Y0059108D01*
X0007896Y0059036D01*
X0007821Y0058927D01*
X0007795Y0058797D01*
X0000377Y0058797D01*
X0000377Y0062671D01*
X0002270Y0062671D01*
X0002270Y0061147D01*
X0002293Y0061025D01*
X0002365Y0060914D01*
X0002474Y0060839D01*
X0002604Y0060813D01*
X0004128Y0060813D01*
X0004249Y0060836D01*
X0004360Y0060908D01*
X0004435Y0061017D01*
X0004461Y0061147D01*
X0004461Y0061232D01*
X0004810Y0061232D01*
X0004810Y0061147D01*
X0004833Y0061025D01*
X0004905Y0060914D01*
X0005014Y0060839D01*
X0005144Y0060813D01*
X0006668Y0060813D01*
X0006789Y0060836D01*
X0006900Y0060908D01*
X0006975Y0061017D01*
X0007001Y0061147D01*
X0007001Y0062671D01*
X0006978Y0062792D01*
X0006906Y0062903D01*
X0006797Y0062978D01*
X0006668Y0063004D01*
X0005144Y0063004D01*
X0005022Y0062981D01*
X0004911Y0062909D01*
X0004836Y0062800D01*
X0004810Y0062671D01*
X0004810Y0062586D01*
X0004461Y0062586D01*
X0004461Y0062671D01*
X0004438Y0062792D01*
X0004366Y0062903D01*
X0004257Y0062978D01*
X0004128Y0063004D01*
X0002604Y0063004D01*
X0002482Y0062981D01*
X0002371Y0062909D01*
X0002296Y0062800D01*
X0002270Y0062671D01*
X0000377Y0062671D01*
X0000377Y0065211D01*
X0002270Y0065211D01*
X0002270Y0063687D01*
X0002293Y0063565D01*
X0002365Y0063454D01*
X0002474Y0063379D01*
X0002604Y0063353D01*
X0004128Y0063353D01*
X0004249Y0063376D01*
X0004360Y0063448D01*
X0004435Y0063557D01*
X0004461Y0063687D01*
X0004461Y0063772D01*
X0004810Y0063772D01*
X0004810Y0063687D01*
X0004833Y0063565D01*
X0004905Y0063454D01*
X0005014Y0063379D01*
X0005144Y0063353D01*
X0006668Y0063353D01*
X0006789Y0063376D01*
X0006900Y0063448D01*
X0006975Y0063557D01*
X0007001Y0063687D01*
X0007001Y0063872D01*
X0007668Y0063872D01*
X0007668Y0063750D01*
X0007690Y0063629D01*
X0007762Y0063518D01*
X0007871Y0063443D01*
X0008001Y0063417D01*
X0008890Y0063417D01*
X0009011Y0063439D01*
X0009122Y0063511D01*
X0009197Y0063620D01*
X0009223Y0063750D01*
X0009223Y0065147D01*
X0009573Y0065147D01*
X0009573Y0063750D01*
X0009595Y0063629D01*
X0009667Y0063518D01*
X0009757Y0063456D01*
X0009706Y0063333D01*
X0009705Y0063026D01*
X0009823Y0062742D01*
X0010040Y0062524D01*
X0010323Y0062407D01*
X0010630Y0062406D01*
X0010914Y0062524D01*
X0011132Y0062741D01*
X0011249Y0063024D01*
X0011250Y0063331D01*
X0011132Y0063615D01*
X0011106Y0063641D01*
X0011128Y0063750D01*
X0011128Y0065147D01*
X0011106Y0065268D01*
X0011034Y0065379D01*
X0010925Y0065454D01*
X0010795Y0065480D01*
X0009906Y0065480D01*
X0009785Y0065458D01*
X0009674Y0065386D01*
X0009599Y0065277D01*
X0009573Y0065147D01*
X0009223Y0065147D01*
X0009201Y0065268D01*
X0009129Y0065379D01*
X0009020Y0065454D01*
X0008890Y0065480D01*
X0008001Y0065480D01*
X0007880Y0065458D01*
X0007769Y0065386D01*
X0007694Y0065277D01*
X0007668Y0065147D01*
X0007668Y0065026D01*
X0007001Y0065026D01*
X0007001Y0065211D01*
X0006978Y0065332D01*
X0006906Y0065443D01*
X0006797Y0065518D01*
X0006668Y0065544D01*
X0005144Y0065544D01*
X0005022Y0065521D01*
X0004911Y0065449D01*
X0004836Y0065340D01*
X0004810Y0065211D01*
X0004810Y0065126D01*
X0004461Y0065126D01*
X0004461Y0065211D01*
X0004438Y0065332D01*
X0004366Y0065443D01*
X0004257Y0065518D01*
X0004128Y0065544D01*
X0002604Y0065544D01*
X0002482Y0065521D01*
X0002371Y0065449D01*
X0002296Y0065340D01*
X0002270Y0065211D01*
X0000377Y0065211D01*
X0000377Y0067751D01*
X0002270Y0067751D01*
X0002270Y0066227D01*
X0002293Y0066105D01*
X0002365Y0065994D01*
X0002474Y0065919D01*
X0002604Y0065893D01*
X0004128Y0065893D01*
X0004249Y0065916D01*
X0004360Y0065988D01*
X0004435Y0066097D01*
X0004461Y0066227D01*
X0004461Y0066312D01*
X0004810Y0066312D01*
X0004810Y0066227D01*
X0004833Y0066105D01*
X0004905Y0065994D01*
X0005014Y0065919D01*
X0005144Y0065893D01*
X0006668Y0065893D01*
X0006789Y0065916D01*
X0006900Y0065988D01*
X0006975Y0066097D01*
X0007001Y0066227D01*
X0007001Y0066475D01*
X0007668Y0066475D01*
X0007668Y0066354D01*
X0007690Y0066232D01*
X0007762Y0066121D01*
X0007871Y0066046D01*
X0008001Y0066020D01*
X0008890Y0066020D01*
X0009011Y0066043D01*
X0009122Y0066115D01*
X0009197Y0066224D01*
X0009223Y0066354D01*
X0009223Y0067751D01*
X0009573Y0067751D01*
X0009573Y0066354D01*
X0009595Y0066232D01*
X0009667Y0066121D01*
X0009776Y0066046D01*
X0009906Y0066020D01*
X0010566Y0066020D01*
X0012129Y0064458D01*
X0012129Y0064295D01*
X0012292Y0063899D01*
X0012595Y0063595D01*
X0012991Y0063431D01*
X0013419Y0063431D01*
X0013815Y0063594D01*
X0014119Y0063897D01*
X0014283Y0064293D01*
X0014283Y0064721D01*
X0014120Y0065117D01*
X0013817Y0065421D01*
X0013421Y0065585D01*
X0012993Y0065585D01*
X0012738Y0065480D01*
X0011128Y0067090D01*
X0011128Y0067751D01*
X0011106Y0067872D01*
X0011034Y0067983D01*
X0010925Y0068058D01*
X0010795Y0068084D01*
X0009906Y0068084D01*
X0009785Y0068061D01*
X0009674Y0067989D01*
X0009599Y0067880D01*
X0009573Y0067751D01*
X0009223Y0067751D01*
X0009201Y0067872D01*
X0009129Y0067983D01*
X0009020Y0068058D01*
X0008890Y0068084D01*
X0008001Y0068084D01*
X0007880Y0068061D01*
X0007769Y0067989D01*
X0007694Y0067880D01*
X0007668Y0067751D01*
X0007668Y0067629D01*
X0007001Y0067629D01*
X0007001Y0067751D01*
X0006978Y0067872D01*
X0006906Y0067983D01*
X0006797Y0068058D01*
X0006668Y0068084D01*
X0005144Y0068084D01*
X0005022Y0068061D01*
X0004911Y0067989D01*
X0004836Y0067880D01*
X0004810Y0067751D01*
X0004810Y0067666D01*
X0004461Y0067666D01*
X0004461Y0067751D01*
X0004438Y0067872D01*
X0004366Y0067983D01*
X0004257Y0068058D01*
X0004128Y0068084D01*
X0002604Y0068084D01*
X0002482Y0068061D01*
X0002371Y0067989D01*
X0002296Y0067880D01*
X0002270Y0067751D01*
X0000377Y0067751D01*
X0000377Y0070291D01*
X0002270Y0070291D01*
X0002270Y0068767D01*
X0002293Y0068645D01*
X0002365Y0068534D01*
X0002474Y0068459D01*
X0002604Y0068433D01*
X0004128Y0068433D01*
X0004249Y0068456D01*
X0004360Y0068528D01*
X0004435Y0068637D01*
X0004461Y0068767D01*
X0004461Y0068852D01*
X0004810Y0068852D01*
X0004810Y0068767D01*
X0004833Y0068645D01*
X0004905Y0068534D01*
X0005014Y0068459D01*
X0005144Y0068433D01*
X0006668Y0068433D01*
X0006789Y0068456D01*
X0006900Y0068528D01*
X0006975Y0068637D01*
X0007001Y0068767D01*
X0007001Y0070291D01*
X0006978Y0070412D01*
X0006906Y0070523D01*
X0006797Y0070598D01*
X0006668Y0070624D01*
X0005144Y0070624D01*
X0005022Y0070601D01*
X0004911Y0070529D01*
X0004836Y0070420D01*
X0004810Y0070291D01*
X0004810Y0070206D01*
X0004461Y0070206D01*
X0004461Y0070291D01*
X0004438Y0070412D01*
X0004366Y0070523D01*
X0004257Y0070598D01*
X0004128Y0070624D01*
X0002604Y0070624D01*
X0002482Y0070601D01*
X0002371Y0070529D01*
X0002296Y0070420D01*
X0002270Y0070291D01*
X0000377Y0070291D01*
X0000377Y0078748D01*
X0009229Y0078748D01*
X0009229Y0068437D01*
X0012443Y0068437D01*
X0012443Y0070862D01*
X0012875Y0070862D01*
X0012875Y0069338D01*
X0012897Y0069217D01*
X0012969Y0069106D01*
X0013078Y0069031D01*
X0013208Y0069005D01*
X0013493Y0069005D01*
X0013493Y0068655D01*
X0013208Y0068655D01*
X0013087Y0068633D01*
X0012976Y0068561D01*
X0012901Y0068452D01*
X0012875Y0068322D01*
X0012875Y0066798D01*
X0012897Y0066677D01*
X0012969Y0066566D01*
X0013078Y0066491D01*
X0013208Y0066465D01*
X0014391Y0066465D01*
X0015274Y0065582D01*
X0014887Y0065422D01*
X0014583Y0065119D01*
X0014419Y0064723D01*
X0014419Y0064295D01*
X0014582Y0063899D01*
X0014885Y0063595D01*
X0015281Y0063431D01*
X0015709Y0063431D01*
X0016105Y0063594D01*
X0016409Y0063897D01*
X0016499Y0064115D01*
X0016499Y0060665D01*
X0016313Y0060665D01*
X0015953Y0060517D01*
X0015678Y0060242D01*
X0015529Y0059883D01*
X0015529Y0059495D01*
X0015677Y0059135D01*
X0015952Y0058860D01*
X0016311Y0058711D01*
X0016699Y0058711D01*
X0017049Y0058855D01*
X0017049Y0058768D01*
X0016973Y0058737D01*
X0016698Y0058462D01*
X0016549Y0058103D01*
X0016549Y0057715D01*
X0016697Y0057355D01*
X0016972Y0057080D01*
X0017331Y0056931D01*
X0017719Y0056931D01*
X0018079Y0057079D01*
X0018354Y0057354D01*
X0018503Y0057713D01*
X0018503Y0058101D01*
X0018355Y0058461D01*
X0018080Y0058736D01*
X0018003Y0058768D01*
X0018003Y0058851D01*
X0018341Y0058711D01*
X0018729Y0058711D01*
X0019089Y0058859D01*
X0019151Y0058922D01*
X0019216Y0058825D01*
X0019460Y0058581D01*
X0019607Y0058483D01*
X0019780Y0058449D01*
X0019796Y0058449D01*
X0020006Y0058238D01*
X0020152Y0058140D01*
X0020325Y0058106D01*
X0020610Y0058106D01*
X0020609Y0058103D01*
X0020609Y0057715D01*
X0020757Y0057355D01*
X0021032Y0057080D01*
X0021391Y0056931D01*
X0021779Y0056931D01*
X0022139Y0057079D01*
X0022414Y0057354D01*
X0022563Y0057713D01*
X0022563Y0058101D01*
X0022415Y0058461D01*
X0022140Y0058736D01*
X0021781Y0058885D01*
X0021393Y0058885D01*
X0021290Y0058843D01*
X0021256Y0058878D01*
X0021185Y0058925D01*
X0021394Y0059134D01*
X0021543Y0059493D01*
X0021543Y0059495D01*
X0021619Y0059495D01*
X0021767Y0059135D01*
X0022042Y0058860D01*
X0022401Y0058711D01*
X0022789Y0058711D01*
X0023139Y0058855D01*
X0023139Y0058768D01*
X0023063Y0058737D01*
X0022788Y0058462D01*
X0022639Y0058103D01*
X0022639Y0057715D01*
X0022787Y0057355D01*
X0023062Y0057080D01*
X0023421Y0056931D01*
X0023809Y0056931D01*
X0024169Y0057079D01*
X0024444Y0057354D01*
X0024593Y0057713D01*
X0024593Y0058101D01*
X0024445Y0058461D01*
X0024400Y0058505D01*
X0026719Y0058505D01*
X0026943Y0057962D01*
X0027358Y0057547D01*
X0027901Y0057321D01*
X0028489Y0057321D01*
X0029032Y0057545D01*
X0029447Y0057960D01*
X0029673Y0058503D01*
X0029673Y0059091D01*
X0029449Y0059634D01*
X0029034Y0060049D01*
X0028491Y0060275D01*
X0027903Y0060275D01*
X0027360Y0060051D01*
X0026945Y0059636D01*
X0026719Y0059093D01*
X0026719Y0058505D01*
X0024400Y0058505D01*
X0024170Y0058736D01*
X0024093Y0058768D01*
X0024093Y0063567D01*
X0024421Y0063431D01*
X0024849Y0063431D01*
X0025245Y0063594D01*
X0025549Y0063897D01*
X0025713Y0064293D01*
X0025713Y0064295D01*
X0025849Y0064295D01*
X0026012Y0063899D01*
X0026315Y0063595D01*
X0026711Y0063431D01*
X0027139Y0063431D01*
X0027535Y0063594D01*
X0027839Y0063897D01*
X0028003Y0064293D01*
X0028003Y0064721D01*
X0027840Y0065117D01*
X0027537Y0065421D01*
X0027141Y0065585D01*
X0026713Y0065585D01*
X0026317Y0065422D01*
X0026013Y0065119D01*
X0025849Y0064723D01*
X0025849Y0064295D01*
X0025713Y0064295D01*
X0025713Y0064721D01*
X0025550Y0065117D01*
X0025247Y0065421D01*
X0024851Y0065585D01*
X0024742Y0065585D01*
X0025128Y0065971D01*
X0025172Y0065971D01*
X0025355Y0066007D01*
X0025509Y0066111D01*
X0025720Y0066321D01*
X0025908Y0066321D01*
X0026091Y0066357D01*
X0026245Y0066461D01*
X0026249Y0066465D01*
X0027432Y0066465D01*
X0027553Y0066487D01*
X0027664Y0066559D01*
X0027739Y0066668D01*
X0027765Y0066798D01*
X0027765Y0068322D01*
X0027743Y0068443D01*
X0027671Y0068554D01*
X0027562Y0068629D01*
X0027432Y0068655D01*
X0027147Y0068655D01*
X0027147Y0069005D01*
X0027432Y0069005D01*
X0027553Y0069027D01*
X0027664Y0069099D01*
X0027739Y0069208D01*
X0027765Y0069338D01*
X0027765Y0070862D01*
X0027762Y0070882D01*
X0028706Y0070882D01*
X0028706Y0068332D01*
X0028729Y0068211D01*
X0028801Y0068100D01*
X0028910Y0068025D01*
X0029040Y0067999D01*
X0030719Y0067999D01*
X0030719Y0066623D01*
X0029996Y0066623D01*
X0029875Y0066600D01*
X0029764Y0066528D01*
X0029689Y0066419D01*
X0029663Y0066290D01*
X0029663Y0064290D01*
X0029685Y0064168D01*
X0029757Y0064057D01*
X0029866Y0063982D01*
X0029996Y0063956D01*
X0031731Y0063956D01*
X0032296Y0063391D01*
X0032548Y0063223D01*
X0032845Y0063164D01*
X0034213Y0063164D01*
X0034233Y0063057D01*
X0034305Y0062946D01*
X0034414Y0062871D01*
X0034544Y0062845D01*
X0036068Y0062845D01*
X0036189Y0062868D01*
X0036300Y0062940D01*
X0036375Y0063049D01*
X0036401Y0063179D01*
X0036401Y0064703D01*
X0036751Y0064703D01*
X0036751Y0063179D01*
X0036773Y0063057D01*
X0036845Y0062946D01*
X0036954Y0062871D01*
X0037084Y0062845D01*
X0038608Y0062845D01*
X0038729Y0062868D01*
X0038840Y0062940D01*
X0038915Y0063049D01*
X0038941Y0063179D01*
X0038941Y0064703D01*
X0038919Y0064824D01*
X0038847Y0064935D01*
X0038738Y0065010D01*
X0038608Y0065036D01*
X0037084Y0065036D01*
X0036963Y0065013D01*
X0036852Y0064941D01*
X0036777Y0064832D01*
X0036751Y0064703D01*
X0036401Y0064703D01*
X0036379Y0064824D01*
X0036307Y0064935D01*
X0036198Y0065010D01*
X0036068Y0065036D01*
X0034544Y0065036D01*
X0034423Y0065013D01*
X0034312Y0064941D01*
X0034237Y0064832D01*
X0034214Y0064718D01*
X0033329Y0064718D01*
X0033329Y0066290D01*
X0033307Y0066411D01*
X0033235Y0066522D01*
X0033126Y0066597D01*
X0032996Y0066623D01*
X0032273Y0066623D01*
X0032273Y0067243D01*
X0034211Y0067243D01*
X0034211Y0065719D01*
X0034233Y0065597D01*
X0034305Y0065486D01*
X0034414Y0065411D01*
X0034544Y0065385D01*
X0036068Y0065385D01*
X0036189Y0065408D01*
X0036300Y0065480D01*
X0036375Y0065589D01*
X0036401Y0065719D01*
X0036401Y0067243D01*
X0036751Y0067243D01*
X0036751Y0065719D01*
X0036773Y0065597D01*
X0036845Y0065486D01*
X0036954Y0065411D01*
X0037084Y0065385D01*
X0038608Y0065385D01*
X0038729Y0065408D01*
X0038840Y0065480D01*
X0038915Y0065589D01*
X0038941Y0065719D01*
X0038941Y0067243D01*
X0038919Y0067364D01*
X0038847Y0067475D01*
X0038738Y0067550D01*
X0038608Y0067576D01*
X0037084Y0067576D01*
X0036963Y0067553D01*
X0036852Y0067481D01*
X0036777Y0067372D01*
X0036751Y0067243D01*
X0036401Y0067243D01*
X0036379Y0067364D01*
X0036307Y0067475D01*
X0036198Y0067550D01*
X0036068Y0067576D01*
X0034544Y0067576D01*
X0034423Y0067553D01*
X0034312Y0067481D01*
X0034237Y0067372D01*
X0034211Y0067243D01*
X0032273Y0067243D01*
X0032273Y0068401D01*
X0032214Y0068698D01*
X0032045Y0068950D01*
X0031873Y0069123D01*
X0031873Y0070882D01*
X0031850Y0071003D01*
X0031778Y0071115D01*
X0031669Y0071189D01*
X0031539Y0071216D01*
X0029040Y0071216D01*
X0028919Y0071193D01*
X0028807Y0071121D01*
X0028733Y0071012D01*
X0028706Y0070882D01*
X0027762Y0070882D01*
X0027743Y0070983D01*
X0027671Y0071094D01*
X0027562Y0071169D01*
X0027432Y0071195D01*
X0027347Y0071195D01*
X0027347Y0072704D01*
X0027329Y0072796D01*
X0027295Y0072963D01*
X0027149Y0073182D01*
X0026320Y0074011D01*
X0026320Y0074323D01*
X0026297Y0074444D01*
X0026226Y0074555D01*
X0026116Y0074630D01*
X0025987Y0074656D01*
X0025687Y0074656D01*
X0025566Y0074633D01*
X0025455Y0074562D01*
X0025380Y0074452D01*
X0025354Y0074323D01*
X0025354Y0074009D01*
X0025349Y0074001D01*
X0025319Y0074045D01*
X0025319Y0074323D01*
X0025297Y0074444D01*
X0025225Y0074555D01*
X0025116Y0074630D01*
X0024986Y0074656D01*
X0024686Y0074656D01*
X0024565Y0074633D01*
X0024454Y0074562D01*
X0024379Y0074452D01*
X0024353Y0074323D01*
X0024353Y0074045D01*
X0024211Y0073832D01*
X0024159Y0073573D01*
X0024159Y0072549D01*
X0023651Y0072041D01*
X0023505Y0071821D01*
X0023453Y0071562D01*
X0023453Y0071195D01*
X0023368Y0071195D01*
X0023247Y0071173D01*
X0023136Y0071101D01*
X0023061Y0070992D01*
X0023035Y0070862D01*
X0023035Y0069338D01*
X0023057Y0069217D01*
X0023129Y0069106D01*
X0023238Y0069031D01*
X0023368Y0069005D01*
X0023653Y0069005D01*
X0023653Y0068655D01*
X0023368Y0068655D01*
X0023247Y0068633D01*
X0023136Y0068561D01*
X0023061Y0068452D01*
X0023035Y0068322D01*
X0023035Y0066798D01*
X0023057Y0066677D01*
X0023129Y0066566D01*
X0023238Y0066491D01*
X0023368Y0066465D01*
X0023495Y0066465D01*
X0022729Y0065698D01*
X0022694Y0065647D01*
X0022649Y0065601D01*
X0022545Y0065446D01*
X0022509Y0065264D01*
X0022509Y0063752D01*
X0022545Y0063570D01*
X0022589Y0063504D01*
X0022589Y0060665D01*
X0022403Y0060665D01*
X0022043Y0060517D01*
X0021768Y0060242D01*
X0021619Y0059883D01*
X0021619Y0059495D01*
X0021543Y0059495D01*
X0021543Y0059881D01*
X0021395Y0060241D01*
X0021120Y0060516D01*
X0020761Y0060665D01*
X0020373Y0060665D01*
X0020013Y0060517D01*
X0019925Y0060428D01*
X0019873Y0060505D01*
X0019563Y0060816D01*
X0019563Y0064858D01*
X0021169Y0066465D01*
X0022352Y0066465D01*
X0022473Y0066487D01*
X0022584Y0066559D01*
X0022659Y0066668D01*
X0022685Y0066798D01*
X0022685Y0068322D01*
X0022663Y0068443D01*
X0022591Y0068554D01*
X0022482Y0068629D01*
X0022352Y0068655D01*
X0022067Y0068655D01*
X0022067Y0069005D01*
X0022352Y0069005D01*
X0022473Y0069027D01*
X0022584Y0069099D01*
X0022659Y0069208D01*
X0022685Y0069338D01*
X0022685Y0070862D01*
X0022663Y0070983D01*
X0022591Y0071094D01*
X0022482Y0071169D01*
X0022352Y0071195D01*
X0022267Y0071195D01*
X0022267Y0073096D01*
X0022215Y0073355D01*
X0022069Y0073575D01*
X0019919Y0075725D01*
X0024353Y0075725D01*
X0024353Y0075275D01*
X0024376Y0075154D01*
X0024447Y0075043D01*
X0024557Y0074968D01*
X0024686Y0074942D01*
X0024986Y0074942D01*
X0025107Y0074965D01*
X0025218Y0075036D01*
X0025293Y0075146D01*
X0025319Y0075275D01*
X0025319Y0075725D01*
X0025354Y0075725D01*
X0025354Y0075275D01*
X0025376Y0075154D01*
X0025448Y0075043D01*
X0025557Y0074968D01*
X0025687Y0074942D01*
X0025987Y0074942D01*
X0026108Y0074965D01*
X0026219Y0075036D01*
X0026294Y0075146D01*
X0026320Y0075275D01*
X0026320Y0075725D01*
X0026297Y0075846D01*
X0026226Y0075957D01*
X0026116Y0076032D01*
X0025987Y0076058D01*
X0025687Y0076058D01*
X0025566Y0076035D01*
X0025455Y0075964D01*
X0025380Y0075855D01*
X0025354Y0075725D01*
X0025319Y0075725D01*
X0025297Y0075846D01*
X0025225Y0075957D01*
X0025116Y0076032D01*
X0024986Y0076058D01*
X0024686Y0076058D01*
X0024565Y0076035D01*
X0024454Y0075964D01*
X0024379Y0075855D01*
X0024353Y0075725D01*
X0019919Y0075725D01*
X0019485Y0076159D01*
X0019265Y0076306D01*
X0019006Y0076357D01*
X0018747Y0076306D01*
X0018534Y0076164D01*
X0018256Y0076164D01*
X0018135Y0076141D01*
X0018024Y0076069D01*
X0017949Y0075960D01*
X0017923Y0075830D01*
X0017923Y0075531D01*
X0017946Y0075409D01*
X0018017Y0075298D01*
X0018127Y0075223D01*
X0018256Y0075197D01*
X0018532Y0075197D01*
X0018566Y0075163D01*
X0018256Y0075163D01*
X0018135Y0075140D01*
X0018024Y0075068D01*
X0017949Y0074959D01*
X0017923Y0074829D01*
X0017923Y0074653D01*
X0017856Y0074553D01*
X0017804Y0074294D01*
X0017804Y0072131D01*
X0017856Y0071872D01*
X0018002Y0071652D01*
X0018373Y0071282D01*
X0018373Y0071195D01*
X0018288Y0071195D01*
X0018167Y0071173D01*
X0018056Y0071101D01*
X0017981Y0070992D01*
X0017955Y0070862D01*
X0017955Y0069338D01*
X0017977Y0069217D01*
X0018049Y0069106D01*
X0018158Y0069031D01*
X0018288Y0069005D01*
X0018573Y0069005D01*
X0018573Y0068655D01*
X0018288Y0068655D01*
X0018167Y0068633D01*
X0018056Y0068561D01*
X0017981Y0068452D01*
X0017955Y0068322D01*
X0017955Y0066798D01*
X0017977Y0066677D01*
X0018049Y0066566D01*
X0018158Y0066491D01*
X0018288Y0066465D01*
X0018573Y0066465D01*
X0018573Y0065995D01*
X0018199Y0065621D01*
X0018095Y0065466D01*
X0018059Y0065284D01*
X0018059Y0060548D01*
X0018003Y0060525D01*
X0018003Y0064884D01*
X0017967Y0065066D01*
X0017863Y0065221D01*
X0016987Y0066097D01*
X0016987Y0066465D01*
X0017272Y0066465D01*
X0017393Y0066487D01*
X0017504Y0066559D01*
X0017579Y0066668D01*
X0017605Y0066798D01*
X0017605Y0068322D01*
X0017583Y0068443D01*
X0017511Y0068554D01*
X0017402Y0068629D01*
X0017272Y0068655D01*
X0016987Y0068655D01*
X0016987Y0069005D01*
X0017272Y0069005D01*
X0017393Y0069027D01*
X0017504Y0069099D01*
X0017579Y0069208D01*
X0017605Y0069338D01*
X0017605Y0070862D01*
X0017583Y0070983D01*
X0017511Y0071094D01*
X0017402Y0071169D01*
X0017272Y0071195D01*
X0017187Y0071195D01*
X0017187Y0071282D01*
X0017558Y0071652D01*
X0017704Y0071872D01*
X0017756Y0072131D01*
X0017756Y0074230D01*
X0017704Y0074489D01*
X0017637Y0074590D01*
X0017637Y0074829D01*
X0017614Y0074951D01*
X0017543Y0075062D01*
X0017433Y0075137D01*
X0017304Y0075163D01*
X0016854Y0075163D01*
X0016806Y0075154D01*
X0016850Y0075198D01*
X0016854Y0075197D01*
X0017304Y0075197D01*
X0017425Y0075220D01*
X0017536Y0075292D01*
X0017611Y0075401D01*
X0017637Y0075531D01*
X0017637Y0075830D01*
X0017614Y0075951D01*
X0017543Y0076063D01*
X0017433Y0076137D01*
X0017304Y0076164D01*
X0016864Y0076164D01*
X0016862Y0076167D01*
X0016642Y0076313D01*
X0016383Y0076365D01*
X0016124Y0076313D01*
X0015904Y0076167D01*
X0013491Y0073754D01*
X0013345Y0073534D01*
X0013293Y0073275D01*
X0013293Y0071195D01*
X0013208Y0071195D01*
X0013087Y0071173D01*
X0012976Y0071101D01*
X0012901Y0070992D01*
X0012875Y0070862D01*
X0012443Y0070862D01*
X0012443Y0078748D01*
X0009229Y0078748D01*
X0000377Y0078748D01*
X0000377Y0079373D01*
X0039755Y0079373D01*
X0039755Y0050157D01*
X0000000Y0079750D02*
G01*
D17*
X0017085Y0126823D02*
X0017085Y0128323D01*
X0016585Y0127252D01*
X0016085Y0128323D01*
X0016085Y0126823D01*
X0014656Y0126823D02*
X0015371Y0126823D01*
X0015371Y0128323D01*
X0014228Y0127252D02*
X0013513Y0127252D01*
X0014371Y0126823D02*
X0013871Y0128323D01*
X0013371Y0126823D01*
X0012371Y0127609D02*
X0012156Y0127538D01*
X0012085Y0127466D01*
X0012013Y0127323D01*
X0012013Y0127109D01*
X0012085Y0126966D01*
X0012156Y0126895D01*
X0012299Y0126823D01*
X0012871Y0126823D01*
X0012871Y0128323D01*
X0012371Y0128323D01*
X0012228Y0128252D01*
X0012156Y0128181D01*
X0012085Y0128038D01*
X0012085Y0127895D01*
X0012156Y0127752D01*
X0012228Y0127681D01*
X0012371Y0127609D01*
X0012871Y0127609D01*
X0011371Y0126966D02*
X0011299Y0126895D01*
X0011371Y0126823D01*
X0011442Y0126895D01*
X0011371Y0126966D01*
X0011371Y0126823D01*
X0009799Y0126966D02*
X0009871Y0126895D01*
X0010085Y0126823D01*
X0010228Y0126823D01*
X0010442Y0126895D01*
X0010585Y0127038D01*
X0010656Y0127181D01*
X0010728Y0127466D01*
X0010728Y0127681D01*
X0010656Y0127966D01*
X0010585Y0128109D01*
X0010442Y0128252D01*
X0010228Y0128323D01*
X0010085Y0128323D01*
X0009871Y0128252D01*
X0009799Y0128181D01*
X0009299Y0128323D02*
X0008299Y0128323D01*
X0009299Y0126823D01*
X0008299Y0126823D01*
D23*
X0028196Y0088768D03*
X0011936Y0088768D03*
D31*
X0017526Y0087878D03*
X0019556Y0087878D03*
X0021586Y0087878D03*
X0023616Y0087878D03*
X0016506Y0089658D03*
X0018536Y0089658D03*
X0020566Y0089658D03*
X0022596Y0089658D03*
D82*
X0026926Y0094478D03*
X0024636Y0094478D03*
X0015496Y0094478D03*
X0013206Y0094478D03*
D41*
X0035306Y0097022D03*
X0037846Y0097022D03*
X0035306Y0094482D03*
X0037846Y0094482D03*
X0035306Y0091942D03*
X0037846Y0091942D03*
X0035306Y0089402D03*
X0037846Y0089402D03*
D50*
X0030607Y0104833D03*
X0030607Y0102928D03*
X0031623Y0114866D03*
X0031623Y0116771D03*
D77*
X0025591Y0114421D03*
X0023686Y0114421D03*
D50*
X0028448Y0120581D03*
X0028448Y0122486D03*
D77*
X0003493Y0103626D03*
X0001588Y0103626D03*
D41*
X0013970Y0097530D03*
X0013970Y0100070D03*
X0016510Y0097530D03*
X0016510Y0100070D03*
X0019050Y0097530D03*
X0019050Y0100070D03*
X0021590Y0097530D03*
X0021590Y0100070D03*
X0024130Y0097530D03*
X0024130Y0100070D03*
X0026670Y0097530D03*
X0026670Y0100070D03*
X0034925Y0119755D03*
X0037465Y0119755D03*
X0034925Y0117215D03*
X0037465Y0117215D03*
X0034925Y0114675D03*
X0037465Y0114675D03*
X0028448Y0118485D03*
X0028448Y0115945D03*
X0014732Y0116580D03*
X0014732Y0119120D03*
X0014732Y0121660D03*
X0020574Y0125089D03*
X0020574Y0127629D03*
X0023114Y0125089D03*
X0023114Y0127629D03*
X0025654Y0125089D03*
X0025654Y0127629D03*
X0003493Y0117406D03*
X0006033Y0117406D03*
X0006033Y0119946D03*
X0003493Y0119946D03*
X0005969Y0100705D03*
X0003429Y0100705D03*
X0005969Y0093085D03*
X0003429Y0093085D03*
X0005969Y0095625D03*
X0003429Y0095625D03*
X0005969Y0098165D03*
X0003429Y0098165D03*
X0005969Y0090545D03*
X0003429Y0090545D03*
D85*
X0004826Y0125216D03*
X0035306Y0084576D03*
X0004826Y0084576D03*
X0035306Y0125216D03*
D77*
X0024575Y0092069D03*
X0026480Y0092069D03*
X0014415Y0092323D03*
X0012510Y0092323D03*
D50*
X0017704Y0112453D03*
X0017704Y0110548D03*
X0017691Y0108909D03*
X0017691Y0107004D03*
X0017717Y0105595D03*
X0017717Y0103690D03*
X0023012Y0112224D03*
X0023012Y0110319D03*
X0023012Y0108795D03*
X0023012Y0106890D03*
X0023012Y0105061D03*
X0023012Y0103156D03*
X0028448Y0112097D03*
X0028448Y0110192D03*
X0028448Y0108668D03*
X0028448Y0106763D03*
X0028448Y0104934D03*
X0028448Y0103029D03*
D77*
X0009335Y0112453D03*
X0011240Y0112453D03*
D50*
X0009622Y0096484D03*
X0009622Y0098389D03*
D36*
X0035179Y0111881D03*
D44*
X0035179Y0105277D03*
X0032893Y0105277D03*
X0037465Y0105277D03*
D46*
X0018796Y0119247D03*
D80*
X0025400Y0119247D03*
X0025400Y0116961D03*
X0025400Y0121533D03*
D27*
X0003552Y0105415D03*
X0003552Y0106065D03*
X0003552Y0106715D03*
X0003552Y0107365D03*
X0003552Y0108015D03*
X0003552Y0108665D03*
X0003552Y0109315D03*
X0003552Y0109965D03*
X0009452Y0109965D03*
X0009452Y0109315D03*
X0009452Y0108665D03*
X0009452Y0108015D03*
X0009452Y0107365D03*
X0009452Y0106715D03*
X0009452Y0106065D03*
X0009452Y0105415D03*
D68*
X0037831Y0099435D03*
X0032781Y0099435D03*
D50*
X0009398Y0103817D03*
X0009398Y0101912D03*
D16*
X0013073Y0102163D03*
X0012073Y0102163D03*
X0013073Y0103565D03*
X0012573Y0102163D03*
X0012073Y0103565D03*
X0013470Y0110296D03*
X0014470Y0110296D03*
X0013470Y0108894D03*
X0013970Y0110296D03*
X0014470Y0108894D03*
D41*
X0012192Y0116580D03*
X0012192Y0119120D03*
X0012192Y0121660D03*
X0032957Y0102674D03*
X0035497Y0102674D03*
D50*
X0009589Y0094990D03*
X0009589Y0093085D03*
D41*
X0006033Y0114866D03*
X0003493Y0114866D03*
D77*
X0010097Y0088767D03*
X0008192Y0088767D03*
X0008192Y0090482D03*
X0010097Y0090482D03*
D20*
X0031496Y0089239D03*
X0031496Y0096042D03*
D40*
X0022860Y0101340D03*
X0022860Y0102229D03*
X0012192Y0100959D03*
X0012446Y0099689D03*
X0016510Y0101531D03*
X0018225Y0101531D03*
X0012446Y0098292D03*
X0024638Y0092006D03*
X0015240Y0091752D03*
X0010419Y0103799D03*
X0011019Y0096829D03*
X0014759Y0113913D03*
X0005959Y0103606D03*
X0009119Y0114121D03*
X0002159Y0107944D03*
X0016383Y0108960D03*
X0011557Y0109468D03*
X0015671Y0108004D03*
X0012521Y0108933D03*
X0021190Y0106039D03*
X0012517Y0107656D03*
X0011938Y0106674D03*
X0020316Y0105371D03*
X0025523Y0107313D03*
X0013068Y0104363D03*
X0026416Y0106420D03*
X0011938Y0104388D03*
X0001971Y0105348D03*
D14*
X0023012Y0103156D02*
X0022631Y0102458D01*
X0022631Y0102458D02*
X0022860Y0102229D01*
D17*
X0012052Y0101099D02*
X0012192Y0100959D01*
X0009398Y0101912D02*
X0012052Y0101099D01*
X0012692Y0099443D02*
X0012446Y0099689D01*
X0012446Y0098292D02*
X0012692Y0099443D01*
X0023012Y0103156D02*
X0023012Y0102953D01*
X0023012Y0102953D02*
X0022433Y0101350D01*
X0017717Y0103690D02*
X0017717Y0102039D01*
X0017717Y0102039D02*
X0018225Y0101531D01*
D67*
X0031623Y0114866D02*
X0031623Y0112708D01*
X0031623Y0112708D02*
X0032450Y0111881D01*
X0032450Y0111881D02*
X0035179Y0111881D01*
X0035179Y0105277D02*
X0035179Y0111881D01*
X0014732Y0116580D02*
X0025019Y0116580D01*
X0025019Y0116580D02*
X0025400Y0116961D01*
X0012192Y0116580D02*
X0014732Y0116580D01*
X0032576Y0114866D02*
X0031623Y0114866D01*
X0034925Y0117215D02*
X0032576Y0114866D01*
X0029528Y0114866D02*
X0028448Y0115945D01*
X0031623Y0114866D02*
X0029528Y0114866D01*
X0027432Y0116961D02*
X0028448Y0115945D01*
X0025400Y0116961D02*
X0027432Y0116961D01*
X0025591Y0116771D02*
X0025400Y0116961D01*
X0025591Y0114421D02*
X0025591Y0116771D01*
X0034925Y0117215D02*
X0037465Y0117215D01*
X0025400Y0119247D02*
X0023114Y0119247D01*
X0023114Y0119247D02*
X0018796Y0119247D01*
X0023114Y0125089D02*
X0023114Y0123427D01*
X0023114Y0123427D02*
X0023114Y0119247D01*
X0018796Y0120073D02*
X0017209Y0121660D01*
X0017209Y0121660D02*
X0014732Y0121660D01*
X0018796Y0119247D02*
X0018796Y0120073D01*
X0025400Y0119247D02*
X0028434Y0119247D01*
X0028434Y0119247D02*
X0028448Y0119261D01*
X0028448Y0119261D02*
X0028448Y0118485D01*
X0028448Y0120581D02*
X0028448Y0119261D01*
X0023114Y0127629D02*
X0023114Y0125089D01*
X0012192Y0121660D02*
X0014732Y0121660D01*
D35*
X0024575Y0092069D02*
X0024638Y0092006D01*
X0014732Y0091752D02*
X0014816Y0091752D01*
X0014415Y0092069D02*
X0014732Y0091752D01*
X0014816Y0091752D02*
X0015240Y0091752D01*
X0014415Y0092323D02*
X0014415Y0092069D01*
D67*
X0009398Y0103817D02*
X0009416Y0103799D01*
X0009995Y0103799D02*
X0010419Y0103799D01*
X0009416Y0103799D02*
X0009995Y0103799D01*
D35*
X0011019Y0096405D02*
X0011019Y0096829D01*
X0011019Y0092021D02*
X0011019Y0096405D01*
X0013470Y0091125D02*
X0011915Y0091125D01*
X0014415Y0092069D02*
X0013470Y0091125D01*
X0011915Y0091125D02*
X0011019Y0092021D01*
D74*
X0009452Y0105415D02*
X0009452Y0103871D01*
X0009452Y0103871D02*
X0009398Y0103817D01*
D35*
X0028448Y0112097D02*
X0023139Y0112097D01*
X0023139Y0112097D02*
X0023012Y0112224D01*
X0017704Y0112453D02*
X0022784Y0112453D01*
X0022784Y0112453D02*
X0023012Y0112224D01*
X0017704Y0112453D02*
X0016220Y0112453D01*
X0016220Y0112453D02*
X0014759Y0113913D01*
D67*
X0009398Y0103817D02*
X0009398Y0105161D01*
X0009398Y0105161D02*
X0009427Y0105190D01*
X0009427Y0105190D02*
X0009452Y0105190D01*
X0005939Y0103626D02*
X0005959Y0103606D01*
X0003493Y0103626D02*
X0005939Y0103626D01*
D35*
X0009543Y0114121D02*
X0009119Y0114121D01*
X0009825Y0114121D02*
X0009543Y0114121D01*
X0011240Y0112707D02*
X0009825Y0114121D01*
X0011240Y0112453D02*
X0011240Y0112707D01*
D54*
X0008448Y0095625D02*
X0008763Y0095625D01*
X0005969Y0095625D02*
X0008448Y0095625D01*
X0008448Y0095625D02*
X0008954Y0095625D01*
X0008954Y0095625D02*
X0009589Y0094990D01*
X0008763Y0095625D02*
X0009622Y0096484D01*
X0003493Y0103626D02*
X0003493Y0105280D01*
X0003493Y0105280D02*
X0003552Y0105340D01*
X0003620Y0103753D02*
X0003493Y0103626D01*
X0005969Y0095625D02*
X0003429Y0095625D01*
D35*
X0012510Y0092323D02*
X0012510Y0093782D01*
X0012510Y0093782D02*
X0013206Y0094478D01*
D14*
X0006033Y0114866D02*
X0003493Y0114866D01*
X0005341Y0108719D02*
X0006033Y0109411D01*
X0006033Y0109411D02*
X0006033Y0114866D01*
X0013672Y0095584D02*
X0014390Y0095584D01*
X0005341Y0108719D02*
X0008255Y0105805D01*
X0008255Y0105805D02*
X0008255Y0101191D01*
X0011557Y0097699D02*
X0013672Y0095584D01*
X0004622Y0108690D02*
X0004652Y0108719D01*
X0008255Y0101191D02*
X0009294Y0100153D01*
X0014746Y0095228D02*
X0015496Y0094478D01*
X0014390Y0095584D02*
X0014746Y0095228D01*
X0011557Y0099203D02*
X0011557Y0097699D01*
X0009294Y0100153D02*
X0010607Y0100153D01*
X0004652Y0108719D02*
X0005341Y0108719D01*
X0003577Y0108690D02*
X0004622Y0108690D01*
X0003552Y0108665D02*
X0003577Y0108690D01*
X0010607Y0100153D02*
X0011557Y0099203D01*
D35*
X0026480Y0092069D02*
X0026480Y0092635D01*
X0026480Y0092635D02*
X0024636Y0094478D01*
D17*
X0003552Y0108015D02*
X0002230Y0108015D01*
X0002230Y0108015D02*
X0002159Y0107944D01*
X0016383Y0108960D02*
X0015450Y0108960D01*
X0015450Y0108960D02*
X0014523Y0108032D01*
X0014523Y0108032D02*
X0014523Y0107563D01*
X0014523Y0107563D02*
X0013970Y0107010D01*
X0013970Y0107010D02*
X0013970Y0100070D01*
X0017691Y0108909D02*
X0016434Y0108909D01*
X0016434Y0108909D02*
X0016383Y0108960D01*
X0011557Y0109468D02*
X0012385Y0110296D01*
X0012385Y0110296D02*
X0013470Y0110296D01*
X0009452Y0109315D02*
X0011404Y0109315D01*
X0011404Y0109315D02*
X0011557Y0109468D01*
X0012760Y0110296D02*
X0012970Y0110296D01*
X0012970Y0110296D02*
X0013470Y0110296D01*
X0017691Y0108909D02*
X0017437Y0108909D01*
X0017437Y0108909D02*
X0017368Y0108840D01*
X0013970Y0097530D02*
X0013970Y0100070D01*
X0017945Y0108909D02*
X0017691Y0108909D01*
X0016506Y0089658D02*
X0016976Y0090128D01*
X0015922Y0095578D02*
X0013970Y0097530D01*
X0016976Y0090128D02*
X0016976Y0094626D01*
X0016976Y0094626D02*
X0016024Y0095578D01*
X0016024Y0095578D02*
X0015922Y0095578D01*
D35*
X0017691Y0108909D02*
X0017691Y0110535D01*
X0017691Y0110535D02*
X0017704Y0110548D01*
D17*
X0016510Y0100070D02*
X0014470Y0102110D01*
X0014470Y0102110D02*
X0014470Y0106803D01*
X0014470Y0106803D02*
X0015226Y0107559D01*
X0015226Y0107559D02*
X0015671Y0108004D01*
X0015226Y0107559D02*
X0015226Y0107559D01*
X0017437Y0107004D02*
X0016438Y0108004D01*
X0016438Y0108004D02*
X0015671Y0108004D01*
X0017691Y0107004D02*
X0017437Y0107004D01*
X0014470Y0110296D02*
X0014470Y0109771D01*
X0013057Y0109469D02*
X0012966Y0109378D01*
X0014470Y0109771D02*
X0014168Y0109469D01*
X0014168Y0109469D02*
X0013057Y0109469D01*
X0012966Y0109378D02*
X0012521Y0108933D01*
X0009452Y0108665D02*
X0011931Y0108665D01*
X0011931Y0108665D02*
X0012199Y0108933D01*
X0012199Y0108933D02*
X0012521Y0108933D01*
D35*
X0017717Y0105595D02*
X0017717Y0106979D01*
D17*
X0017437Y0107004D02*
X0017348Y0107004D01*
X0016510Y0100070D02*
X0015854Y0100726D01*
X0016510Y0097530D02*
X0016510Y0100070D01*
X0017945Y0107004D02*
X0017691Y0107004D01*
D35*
X0017717Y0106979D02*
X0017691Y0107004D01*
D17*
X0017526Y0094854D02*
X0016510Y0095870D01*
X0016510Y0095870D02*
X0016510Y0097530D01*
X0017526Y0087878D02*
X0017526Y0094854D01*
D35*
X0017704Y0106992D02*
X0017691Y0107004D01*
D17*
X0009452Y0108015D02*
X0012158Y0108015D01*
X0012158Y0108015D02*
X0012517Y0107656D01*
X0013470Y0108894D02*
X0013470Y0108609D01*
X0013470Y0108609D02*
X0012517Y0107656D01*
X0012517Y0107656D02*
X0012517Y0107656D01*
X0021590Y0100070D02*
X0021146Y0100515D01*
X0021146Y0100515D02*
X0021146Y0105994D01*
X0021146Y0105994D02*
X0021190Y0106039D01*
X0023012Y0106890D02*
X0021996Y0106890D01*
X0021996Y0106890D02*
X0021145Y0106039D01*
X0021145Y0106039D02*
X0021190Y0106039D01*
X0023012Y0106890D02*
X0022708Y0106890D01*
D35*
X0023012Y0105061D02*
X0023012Y0106890D01*
D74*
X0019536Y0090138D02*
X0019536Y0089114D01*
X0019536Y0089114D02*
X0019780Y0088871D01*
X0019780Y0088871D02*
X0019983Y0088871D01*
X0021586Y0087878D02*
X0020936Y0088528D01*
X0020936Y0088528D02*
X0020325Y0088528D01*
X0020325Y0088528D02*
X0019983Y0088871D01*
D17*
X0019086Y0090588D02*
X0019536Y0090138D01*
X0019086Y0095026D02*
X0019086Y0090588D01*
X0021590Y0097530D02*
X0021590Y0100070D01*
X0019086Y0095026D02*
X0019439Y0095379D01*
X0019439Y0095379D02*
X0021590Y0097530D01*
X0011267Y0107365D02*
X0011267Y0107345D01*
X0011267Y0107345D02*
X0011938Y0106674D01*
X0014470Y0108894D02*
X0014220Y0108894D01*
X0014220Y0108894D02*
X0014220Y0108653D01*
X0014220Y0108653D02*
X0013312Y0107744D01*
X0013312Y0107744D02*
X0013312Y0107275D01*
X0013312Y0107275D02*
X0012711Y0106674D01*
X0012711Y0106674D02*
X0011938Y0106674D01*
X0009452Y0107365D02*
X0011267Y0107365D01*
X0019050Y0100070D02*
X0020257Y0101277D01*
X0020257Y0101277D02*
X0020257Y0105312D01*
X0020257Y0105312D02*
X0020316Y0105371D01*
X0020316Y0105371D02*
X0020316Y0105736D01*
X0020316Y0105736D02*
X0020291Y0105760D01*
X0020291Y0105760D02*
X0020291Y0106264D01*
X0020291Y0106264D02*
X0022479Y0108452D01*
X0022479Y0108452D02*
X0023012Y0108452D01*
X0023012Y0108452D02*
X0023012Y0108795D01*
X0023012Y0108795D02*
X0022758Y0108795D01*
X0019050Y0097530D02*
X0019050Y0100070D01*
X0018536Y0095254D02*
X0019050Y0095768D01*
X0018536Y0089658D02*
X0018536Y0095254D01*
X0019050Y0095768D02*
X0019050Y0097530D01*
X0009452Y0107365D02*
X0009527Y0107440D01*
D35*
X0023012Y0108795D02*
X0023012Y0110319D01*
D17*
X0025273Y0102356D02*
X0025273Y0105150D01*
X0025273Y0105150D02*
X0025078Y0105345D01*
X0025078Y0105345D02*
X0025078Y0106868D01*
X0025078Y0106868D02*
X0025523Y0107313D01*
X0025523Y0107313D02*
X0025888Y0107313D01*
X0025888Y0107313D02*
X0025912Y0107338D01*
X0025912Y0107338D02*
X0026864Y0107338D01*
X0026864Y0107338D02*
X0028194Y0108668D01*
X0028194Y0108668D02*
X0028448Y0108668D01*
X0013068Y0104363D02*
X0013068Y0104538D01*
X0013068Y0104538D02*
X0012449Y0105158D01*
X0012449Y0105158D02*
X0012273Y0105158D01*
X0013073Y0103565D02*
X0013073Y0104358D01*
X0013073Y0104358D02*
X0013068Y0104363D01*
X0009452Y0106715D02*
X0010716Y0106715D01*
X0010716Y0106715D02*
X0012273Y0105158D01*
X0024130Y0100070D02*
X0024130Y0101213D01*
X0024130Y0101213D02*
X0025273Y0102356D01*
X0024130Y0097530D02*
X0024130Y0096395D01*
X0023066Y0095331D02*
X0023066Y0095314D01*
X0024130Y0096395D02*
X0023066Y0095331D01*
X0022986Y0093722D02*
X0023066Y0093642D01*
X0023066Y0090128D02*
X0022596Y0089658D01*
X0023066Y0095314D02*
X0022986Y0095234D01*
X0022986Y0095234D02*
X0022986Y0093722D01*
X0023066Y0093642D02*
X0023066Y0090128D01*
X0024130Y0100070D02*
X0024130Y0100134D01*
X0028219Y0108668D02*
X0028448Y0108668D01*
X0024130Y0097530D02*
X0024130Y0100070D01*
X0022598Y0089656D02*
X0022596Y0089658D01*
D35*
X0028448Y0108668D02*
X0028448Y0110192D01*
D17*
X0009452Y0106065D02*
X0010502Y0106065D01*
X0010502Y0106065D02*
X0011938Y0104629D01*
X0011938Y0104629D02*
X0011938Y0104388D01*
X0026670Y0100070D02*
X0025845Y0100896D01*
X0025845Y0100896D02*
X0025845Y0105849D01*
X0025845Y0105849D02*
X0026416Y0106420D01*
X0028448Y0106763D02*
X0026759Y0106763D01*
X0026759Y0106763D02*
X0026416Y0106420D01*
X0012073Y0103565D02*
X0011943Y0104383D01*
X0011943Y0104383D02*
X0011938Y0104388D01*
X0026670Y0097530D02*
X0025558Y0096418D01*
X0023536Y0093950D02*
X0023616Y0093870D01*
X0025558Y0096418D02*
X0024931Y0096418D01*
X0024931Y0096418D02*
X0023616Y0095103D01*
X0023616Y0095103D02*
X0023616Y0095086D01*
X0023616Y0095086D02*
X0023536Y0095006D01*
X0023536Y0095006D02*
X0023536Y0093950D01*
X0023616Y0093870D02*
X0023616Y0090128D01*
X0023616Y0090128D02*
X0023616Y0087878D01*
X0026670Y0100070D02*
X0026670Y0100134D01*
X0028232Y0106763D02*
X0028448Y0106763D01*
X0026670Y0097530D02*
X0026670Y0100070D01*
D35*
X0028448Y0104934D02*
X0028448Y0106763D01*
X0008065Y0112770D02*
X0008065Y0116636D01*
X0008065Y0116636D02*
X0007295Y0117406D01*
X0007295Y0117406D02*
X0006033Y0117406D01*
X0008073Y0112770D02*
X0008065Y0112770D01*
X0009335Y0112453D02*
X0008390Y0112453D01*
X0008390Y0112453D02*
X0008073Y0112770D01*
D14*
X0009452Y0109965D02*
X0009452Y0112335D01*
X0009452Y0112335D02*
X0009335Y0112453D01*
X0001971Y0105634D02*
X0001971Y0105348D01*
X0002402Y0106065D02*
X0001971Y0105634D01*
X0003552Y0106065D02*
X0002402Y0106065D01*
D67*
X0009589Y0093085D02*
X0005969Y0093085D01*
X0005969Y0093085D02*
X0003429Y0093085D01*
D14*
X0007561Y0098595D02*
X0007557Y0098591D01*
X0007561Y0104507D02*
X0007561Y0098595D01*
X0004702Y0107365D02*
X0007561Y0104507D01*
X0003552Y0107365D02*
X0004702Y0107365D01*
X0009622Y0098389D02*
X0008523Y0098389D01*
X0008523Y0098389D02*
X0008321Y0098591D01*
X0008321Y0098591D02*
X0007557Y0098591D01*
X0005969Y0098165D02*
X0007131Y0098165D01*
X0007131Y0098165D02*
X0007557Y0098591D01*
D67*
X0005969Y0098165D02*
X0003429Y0098165D01*
D35*
X0001976Y0106715D02*
X0001016Y0107675D01*
X0001597Y0119312D02*
X0001597Y0110357D01*
X0001016Y0107675D02*
X0001016Y0109776D01*
X0001016Y0109776D02*
X0001597Y0110357D01*
X0002050Y0106715D02*
X0001976Y0106715D01*
D14*
X0003552Y0106715D02*
X0002050Y0106715D01*
X0002050Y0106715D02*
X0001016Y0107749D01*
D35*
X0003493Y0119946D02*
X0002231Y0119946D01*
X0002231Y0119946D02*
X0001597Y0119312D01*
X0002114Y0106715D02*
X0002417Y0106715D01*
D14*
X0003552Y0106715D02*
X0002417Y0106715D01*
X0002417Y0106715D02*
X0002417Y0106715D01*
D35*
X0006033Y0119946D02*
X0003493Y0119946D01*
D67*
X0031496Y0096042D02*
X0031496Y0098150D01*
X0031496Y0098150D02*
X0032781Y0099435D01*
X0032449Y0104833D02*
X0032893Y0105277D01*
X0030607Y0104833D02*
X0032449Y0104833D01*
X0032781Y0102498D02*
X0032957Y0102674D01*
X0032781Y0099435D02*
X0032781Y0102498D01*
X0032893Y0102737D02*
X0032957Y0102674D01*
X0032893Y0105277D02*
X0032893Y0102737D01*
X0010097Y0088767D02*
X0011935Y0088767D01*
X0011935Y0088767D02*
X0011936Y0088768D01*
X0010097Y0090482D02*
X0010097Y0088767D01*
D33*
G36*
X0039755Y0080127D02*
X0000377Y0080127D01*
X0000377Y0084946D01*
X0011739Y0084946D01*
X0012039Y0084220D01*
X0012595Y0083663D01*
X0013321Y0083361D01*
X0014108Y0083361D01*
X0014834Y0083661D01*
X0015391Y0084217D01*
X0015693Y0084943D01*
X0015693Y0084946D01*
X0024439Y0084946D01*
X0024739Y0084220D01*
X0025295Y0083663D01*
X0026021Y0083361D01*
X0026808Y0083361D01*
X0027534Y0083661D01*
X0028091Y0084217D01*
X0028393Y0084943D01*
X0028393Y0085730D01*
X0028093Y0086456D01*
X0027537Y0087013D01*
X0026811Y0087315D01*
X0026024Y0087315D01*
X0025298Y0087015D01*
X0024741Y0086459D01*
X0024439Y0085733D01*
X0024439Y0084946D01*
X0015693Y0084946D01*
X0015693Y0085730D01*
X0015393Y0086456D01*
X0014837Y0087013D01*
X0014111Y0087315D01*
X0013324Y0087315D01*
X0012598Y0087015D01*
X0012041Y0086459D01*
X0011739Y0085733D01*
X0011739Y0084946D01*
X0000377Y0084946D01*
X0000377Y0091180D01*
X0009319Y0091180D01*
X0009319Y0089783D01*
X0009320Y0089778D01*
X0009320Y0089470D01*
X0009319Y0089466D01*
X0009319Y0088069D01*
X0009341Y0087947D01*
X0009413Y0087836D01*
X0009522Y0087761D01*
X0009652Y0087735D01*
X0010541Y0087735D01*
X0010662Y0087758D01*
X0010773Y0087830D01*
X0010779Y0087837D01*
X0011098Y0087517D01*
X0011641Y0087291D01*
X0012229Y0087291D01*
X0012772Y0087515D01*
X0013187Y0087930D01*
X0013413Y0088473D01*
X0013413Y0089061D01*
X0013189Y0089604D01*
X0012774Y0090019D01*
X0012231Y0090245D01*
X0011643Y0090245D01*
X0011100Y0090021D01*
X0010874Y0089795D01*
X0010874Y0091180D01*
X0010852Y0091301D01*
X0010780Y0091412D01*
X0010671Y0091487D01*
X0010541Y0091513D01*
X0009652Y0091513D01*
X0009531Y0091491D01*
X0009420Y0091419D01*
X0009345Y0091310D01*
X0009319Y0091180D01*
X0000377Y0091180D01*
X0000377Y0109776D01*
X0000439Y0109776D01*
X0000439Y0109776D01*
X0000439Y0107675D01*
X0000439Y0107675D01*
X0000483Y0107455D01*
X0000608Y0107267D01*
X0001568Y0106307D01*
X0001568Y0106307D01*
X0001756Y0106182D01*
X0001771Y0106179D01*
X0001638Y0106046D01*
X0001534Y0106003D01*
X0001317Y0105786D01*
X0001199Y0105502D01*
X0001199Y0105195D01*
X0001316Y0104911D01*
X0001533Y0104694D01*
X0001817Y0104576D01*
X0002124Y0104576D01*
X0002408Y0104693D01*
X0002625Y0104910D01*
X0002627Y0104914D01*
X0002673Y0104883D01*
X0002802Y0104857D01*
X0002866Y0104857D01*
X0002866Y0104596D01*
X0002816Y0104563D01*
X0002741Y0104454D01*
X0002715Y0104325D01*
X0002715Y0102928D01*
X0002737Y0102806D01*
X0002809Y0102695D01*
X0002918Y0102620D01*
X0003048Y0102594D01*
X0003937Y0102594D01*
X0004058Y0102617D01*
X0004169Y0102689D01*
X0004244Y0102798D01*
X0004255Y0102849D01*
X0005768Y0102849D01*
X0005805Y0102834D01*
X0005934Y0102834D01*
X0005959Y0102829D01*
X0005984Y0102834D01*
X0006112Y0102834D01*
X0006231Y0102883D01*
X0006256Y0102888D01*
X0006277Y0102902D01*
X0006396Y0102951D01*
X0006487Y0103042D01*
X0006508Y0103056D01*
X0006522Y0103077D01*
X0006613Y0103168D01*
X0006662Y0103287D01*
X0006677Y0103308D01*
X0006682Y0103333D01*
X0006731Y0103451D01*
X0006731Y0103580D01*
X0006736Y0103606D01*
X0006731Y0103631D01*
X0006731Y0103759D01*
X0006682Y0103878D01*
X0006677Y0103903D01*
X0006663Y0103924D01*
X0006614Y0104042D01*
X0006523Y0104134D01*
X0006508Y0104155D01*
X0006488Y0104175D01*
X0006467Y0104190D01*
X0006397Y0104260D01*
X0006304Y0104298D01*
X0006236Y0104344D01*
X0006156Y0104360D01*
X0006113Y0104378D01*
X0006066Y0104378D01*
X0005939Y0104403D01*
X0004256Y0104403D01*
X0004248Y0104446D01*
X0004176Y0104557D01*
X0004120Y0104596D01*
X0004120Y0104857D01*
X0004302Y0104857D01*
X0004424Y0104879D01*
X0004535Y0104951D01*
X0004610Y0105060D01*
X0004636Y0105190D01*
X0004636Y0105640D01*
X0004616Y0105744D01*
X0004636Y0105840D01*
X0004636Y0106290D01*
X0004616Y0106394D01*
X0004636Y0106490D01*
X0004636Y0106686D01*
X0007034Y0104288D01*
X0007034Y0099060D01*
X0006970Y0099159D01*
X0006861Y0099234D01*
X0006731Y0099260D01*
X0005207Y0099260D01*
X0005086Y0099238D01*
X0004975Y0099166D01*
X0004900Y0099057D01*
X0004877Y0098942D01*
X0004522Y0098942D01*
X0004502Y0099048D01*
X0004430Y0099159D01*
X0004321Y0099234D01*
X0004191Y0099260D01*
X0002667Y0099260D01*
X0002546Y0099238D01*
X0002435Y0099166D01*
X0002360Y0099057D01*
X0002334Y0098927D01*
X0002334Y0097403D01*
X0002356Y0097282D01*
X0002428Y0097171D01*
X0002537Y0097096D01*
X0002667Y0097070D01*
X0004191Y0097070D01*
X0004312Y0097092D01*
X0004423Y0097164D01*
X0004498Y0097273D01*
X0004521Y0097388D01*
X0004876Y0097388D01*
X0004896Y0097282D01*
X0004968Y0097171D01*
X0005077Y0097096D01*
X0005207Y0097070D01*
X0006731Y0097070D01*
X0006852Y0097092D01*
X0006963Y0097164D01*
X0007038Y0097273D01*
X0007064Y0097403D01*
X0007064Y0097638D01*
X0007131Y0097638D01*
X0007333Y0097678D01*
X0007504Y0097792D01*
X0007775Y0098064D01*
X0008103Y0098064D01*
X0008150Y0098016D01*
X0008321Y0097902D01*
X0008523Y0097862D01*
X0008605Y0097862D01*
X0008612Y0097823D01*
X0008684Y0097712D01*
X0008793Y0097637D01*
X0008923Y0097611D01*
X0010320Y0097611D01*
X0010441Y0097633D01*
X0010552Y0097705D01*
X0010627Y0097814D01*
X0010653Y0097944D01*
X0010653Y0098833D01*
X0010631Y0098954D01*
X0010559Y0099065D01*
X0010450Y0099140D01*
X0010320Y0099166D01*
X0008923Y0099166D01*
X0008802Y0099144D01*
X0008691Y0099072D01*
X0008640Y0098999D01*
X0008523Y0099077D01*
X0008321Y0099118D01*
X0008088Y0099118D01*
X0008088Y0100614D01*
X0008921Y0099780D01*
X0009092Y0099666D01*
X0009294Y0099626D01*
X0010389Y0099626D01*
X0011030Y0098984D01*
X0011030Y0097699D01*
X0011050Y0097601D01*
X0010866Y0097601D01*
X0010582Y0097484D01*
X0010364Y0097267D01*
X0010359Y0097254D01*
X0010320Y0097261D01*
X0008923Y0097261D01*
X0008802Y0097239D01*
X0008691Y0097167D01*
X0008616Y0097058D01*
X0008590Y0096928D01*
X0008590Y0096338D01*
X0008503Y0096252D01*
X0007064Y0096252D01*
X0007064Y0096387D01*
X0007042Y0096508D01*
X0006970Y0096619D01*
X0006861Y0096694D01*
X0006731Y0096720D01*
X0005207Y0096720D01*
X0005086Y0096698D01*
X0004975Y0096626D01*
X0004900Y0096517D01*
X0004874Y0096387D01*
X0004874Y0096252D01*
X0004524Y0096252D01*
X0004524Y0096387D01*
X0004502Y0096508D01*
X0004430Y0096619D01*
X0004321Y0096694D01*
X0004191Y0096720D01*
X0002667Y0096720D01*
X0002546Y0096698D01*
X0002435Y0096626D01*
X0002360Y0096517D01*
X0002334Y0096387D01*
X0002334Y0094863D01*
X0002356Y0094742D01*
X0002428Y0094631D01*
X0002537Y0094556D01*
X0002667Y0094530D01*
X0004191Y0094530D01*
X0004312Y0094552D01*
X0004423Y0094624D01*
X0004498Y0094733D01*
X0004524Y0094863D01*
X0004524Y0094998D01*
X0004874Y0094998D01*
X0004874Y0094863D01*
X0004896Y0094742D01*
X0004968Y0094631D01*
X0005077Y0094556D01*
X0005207Y0094530D01*
X0006731Y0094530D01*
X0006852Y0094552D01*
X0006963Y0094624D01*
X0007038Y0094733D01*
X0007064Y0094863D01*
X0007064Y0094998D01*
X0008557Y0094998D01*
X0008557Y0094546D01*
X0008579Y0094424D01*
X0008651Y0094313D01*
X0008760Y0094238D01*
X0008890Y0094212D01*
X0010287Y0094212D01*
X0010408Y0094235D01*
X0010442Y0094256D01*
X0010442Y0093820D01*
X0010417Y0093837D01*
X0010287Y0093863D01*
X0008890Y0093863D01*
X0008885Y0093862D01*
X0007062Y0093862D01*
X0007042Y0093968D01*
X0006970Y0094079D01*
X0006861Y0094154D01*
X0006731Y0094180D01*
X0005207Y0094180D01*
X0005086Y0094158D01*
X0004975Y0094086D01*
X0004900Y0093977D01*
X0004877Y0093862D01*
X0004522Y0093862D01*
X0004502Y0093968D01*
X0004430Y0094079D01*
X0004321Y0094154D01*
X0004191Y0094180D01*
X0002667Y0094180D01*
X0002546Y0094158D01*
X0002435Y0094086D01*
X0002360Y0093977D01*
X0002334Y0093847D01*
X0002334Y0092323D01*
X0002356Y0092202D01*
X0002428Y0092091D01*
X0002537Y0092016D01*
X0002667Y0091990D01*
X0004191Y0091990D01*
X0004312Y0092012D01*
X0004423Y0092084D01*
X0004498Y0092193D01*
X0004521Y0092308D01*
X0004876Y0092308D01*
X0004896Y0092202D01*
X0004968Y0092091D01*
X0005077Y0092016D01*
X0005207Y0091990D01*
X0006731Y0091990D01*
X0006852Y0092012D01*
X0006963Y0092084D01*
X0007038Y0092193D01*
X0007061Y0092308D01*
X0008886Y0092308D01*
X0008890Y0092307D01*
X0010287Y0092307D01*
X0010408Y0092330D01*
X0010442Y0092351D01*
X0010442Y0092021D01*
X0010442Y0092021D01*
X0010485Y0091800D01*
X0010611Y0091613D01*
X0011507Y0090716D01*
X0011694Y0090591D01*
X0011915Y0090547D01*
X0011915Y0090548D01*
X0013470Y0090548D01*
X0013470Y0090547D01*
X0013691Y0090591D01*
X0013878Y0090716D01*
X0014433Y0091271D01*
X0014465Y0091249D01*
X0014511Y0091218D01*
X0014723Y0091176D01*
X0014802Y0091097D01*
X0015086Y0090980D01*
X0015393Y0090979D01*
X0015677Y0091097D01*
X0015894Y0091314D01*
X0016012Y0091597D01*
X0016012Y0091904D01*
X0015895Y0092188D01*
X0015678Y0092406D01*
X0015394Y0092523D01*
X0015192Y0092524D01*
X0015192Y0093022D01*
X0015170Y0093143D01*
X0015098Y0093254D01*
X0014989Y0093329D01*
X0014859Y0093355D01*
X0013970Y0093355D01*
X0013849Y0093332D01*
X0013738Y0093260D01*
X0013663Y0093151D01*
X0013637Y0093022D01*
X0013637Y0092107D01*
X0013287Y0091758D01*
X0013287Y0093022D01*
X0013265Y0093143D01*
X0013193Y0093254D01*
X0013087Y0093327D01*
X0013087Y0093401D01*
X0013419Y0093401D01*
X0013815Y0093564D01*
X0014119Y0093867D01*
X0014283Y0094263D01*
X0014283Y0094691D01*
X0014132Y0095057D01*
X0014171Y0095057D01*
X0014373Y0094855D01*
X0014373Y0094855D01*
X0014453Y0094775D01*
X0014419Y0094693D01*
X0014419Y0094265D01*
X0014582Y0093869D01*
X0014885Y0093565D01*
X0015281Y0093401D01*
X0015709Y0093401D01*
X0016105Y0093564D01*
X0016409Y0093867D01*
X0016499Y0094085D01*
X0016499Y0090635D01*
X0016313Y0090635D01*
X0015953Y0090487D01*
X0015678Y0090212D01*
X0015529Y0089853D01*
X0015529Y0089465D01*
X0015677Y0089105D01*
X0015952Y0088830D01*
X0016311Y0088681D01*
X0016699Y0088681D01*
X0017049Y0088825D01*
X0017049Y0088738D01*
X0016973Y0088707D01*
X0016698Y0088432D01*
X0016549Y0088073D01*
X0016549Y0087685D01*
X0016697Y0087325D01*
X0016972Y0087050D01*
X0017331Y0086901D01*
X0017719Y0086901D01*
X0018079Y0087049D01*
X0018354Y0087324D01*
X0018503Y0087683D01*
X0018503Y0088071D01*
X0018355Y0088431D01*
X0018080Y0088706D01*
X0018003Y0088738D01*
X0018003Y0088821D01*
X0018341Y0088681D01*
X0018729Y0088681D01*
X0019089Y0088829D01*
X0019151Y0088892D01*
X0019216Y0088795D01*
X0019460Y0088551D01*
X0019607Y0088453D01*
X0019780Y0088419D01*
X0019796Y0088419D01*
X0020006Y0088208D01*
X0020152Y0088110D01*
X0020325Y0088076D01*
X0020610Y0088076D01*
X0020609Y0088073D01*
X0020609Y0087685D01*
X0020757Y0087325D01*
X0021032Y0087050D01*
X0021391Y0086901D01*
X0021779Y0086901D01*
X0022139Y0087049D01*
X0022414Y0087324D01*
X0022563Y0087683D01*
X0022563Y0088071D01*
X0022415Y0088431D01*
X0022140Y0088706D01*
X0021781Y0088855D01*
X0021393Y0088855D01*
X0021290Y0088813D01*
X0021256Y0088848D01*
X0021185Y0088895D01*
X0021394Y0089104D01*
X0021543Y0089463D01*
X0021543Y0089465D01*
X0021619Y0089465D01*
X0021767Y0089105D01*
X0022042Y0088830D01*
X0022401Y0088681D01*
X0022789Y0088681D01*
X0023139Y0088825D01*
X0023139Y0088738D01*
X0023063Y0088707D01*
X0022788Y0088432D01*
X0022639Y0088073D01*
X0022639Y0087685D01*
X0022787Y0087325D01*
X0023062Y0087050D01*
X0023421Y0086901D01*
X0023809Y0086901D01*
X0024169Y0087049D01*
X0024444Y0087324D01*
X0024593Y0087683D01*
X0024593Y0088071D01*
X0024445Y0088431D01*
X0024400Y0088475D01*
X0026719Y0088475D01*
X0026943Y0087932D01*
X0027358Y0087517D01*
X0027901Y0087291D01*
X0028489Y0087291D01*
X0029032Y0087515D01*
X0029447Y0087930D01*
X0029673Y0088473D01*
X0029673Y0089061D01*
X0029449Y0089604D01*
X0029034Y0090019D01*
X0028491Y0090245D01*
X0027903Y0090245D01*
X0027360Y0090021D01*
X0026945Y0089606D01*
X0026719Y0089063D01*
X0026719Y0088475D01*
X0024400Y0088475D01*
X0024170Y0088706D01*
X0024093Y0088738D01*
X0024093Y0091045D01*
X0024130Y0091037D01*
X0025019Y0091037D01*
X0025140Y0091060D01*
X0025251Y0091132D01*
X0025326Y0091241D01*
X0025352Y0091371D01*
X0025352Y0091713D01*
X0025410Y0091851D01*
X0025410Y0092158D01*
X0025352Y0092298D01*
X0025352Y0092768D01*
X0025330Y0092889D01*
X0025258Y0093000D01*
X0025149Y0093075D01*
X0025019Y0093101D01*
X0024130Y0093101D01*
X0024093Y0093094D01*
X0024093Y0093537D01*
X0024421Y0093401D01*
X0024849Y0093401D01*
X0024883Y0093415D01*
X0025702Y0092596D01*
X0025702Y0091371D01*
X0025724Y0091249D01*
X0025796Y0091138D01*
X0025905Y0091063D01*
X0026035Y0091037D01*
X0026924Y0091037D01*
X0027045Y0091060D01*
X0027156Y0091132D01*
X0027231Y0091241D01*
X0027257Y0091371D01*
X0027257Y0092704D01*
X0034211Y0092704D01*
X0034211Y0091180D01*
X0034233Y0091059D01*
X0034305Y0090948D01*
X0034414Y0090873D01*
X0034544Y0090847D01*
X0036068Y0090847D01*
X0036189Y0090869D01*
X0036300Y0090941D01*
X0036375Y0091050D01*
X0036401Y0091180D01*
X0036401Y0092704D01*
X0036751Y0092704D01*
X0036751Y0091180D01*
X0036773Y0091059D01*
X0036845Y0090948D01*
X0036954Y0090873D01*
X0037084Y0090847D01*
X0038608Y0090847D01*
X0038729Y0090869D01*
X0038840Y0090941D01*
X0038915Y0091050D01*
X0038941Y0091180D01*
X0038941Y0092704D01*
X0038919Y0092825D01*
X0038847Y0092936D01*
X0038738Y0093011D01*
X0038608Y0093037D01*
X0037084Y0093037D01*
X0036963Y0093015D01*
X0036852Y0092943D01*
X0036777Y0092834D01*
X0036751Y0092704D01*
X0036401Y0092704D01*
X0036379Y0092825D01*
X0036307Y0092936D01*
X0036198Y0093011D01*
X0036068Y0093037D01*
X0034544Y0093037D01*
X0034423Y0093015D01*
X0034312Y0092943D01*
X0034237Y0092834D01*
X0034211Y0092704D01*
X0027257Y0092704D01*
X0027257Y0092768D01*
X0027235Y0092889D01*
X0027163Y0093000D01*
X0027054Y0093075D01*
X0026924Y0093101D01*
X0026829Y0093101D01*
X0026400Y0093530D01*
X0026711Y0093401D01*
X0027139Y0093401D01*
X0027535Y0093564D01*
X0027839Y0093867D01*
X0028003Y0094263D01*
X0028003Y0094691D01*
X0027840Y0095087D01*
X0027537Y0095391D01*
X0027141Y0095555D01*
X0026713Y0095555D01*
X0026317Y0095392D01*
X0026013Y0095089D01*
X0025849Y0094693D01*
X0025849Y0094265D01*
X0025978Y0093952D01*
X0025699Y0094231D01*
X0025713Y0094263D01*
X0025713Y0094691D01*
X0025550Y0095087D01*
X0025247Y0095391D01*
X0024851Y0095555D01*
X0024742Y0095555D01*
X0025128Y0095941D01*
X0025558Y0095941D01*
X0025741Y0095977D01*
X0025895Y0096081D01*
X0026249Y0096435D01*
X0027432Y0096435D01*
X0027553Y0096457D01*
X0027664Y0096529D01*
X0027739Y0096638D01*
X0027765Y0096768D01*
X0027765Y0097291D01*
X0029513Y0097291D01*
X0029513Y0094792D01*
X0029536Y0094671D01*
X0029607Y0094559D01*
X0029717Y0094485D01*
X0029846Y0094458D01*
X0033146Y0094458D01*
X0033267Y0094481D01*
X0033378Y0094553D01*
X0033453Y0094662D01*
X0033479Y0094792D01*
X0033479Y0095244D01*
X0034211Y0095244D01*
X0034211Y0093720D01*
X0034233Y0093599D01*
X0034305Y0093488D01*
X0034414Y0093413D01*
X0034544Y0093387D01*
X0036068Y0093387D01*
X0036189Y0093409D01*
X0036300Y0093481D01*
X0036375Y0093590D01*
X0036401Y0093720D01*
X0036401Y0095244D01*
X0036751Y0095244D01*
X0036751Y0093720D01*
X0036773Y0093599D01*
X0036845Y0093488D01*
X0036954Y0093413D01*
X0037084Y0093387D01*
X0038608Y0093387D01*
X0038729Y0093409D01*
X0038840Y0093481D01*
X0038915Y0093590D01*
X0038941Y0093720D01*
X0038941Y0095244D01*
X0038919Y0095365D01*
X0038847Y0095476D01*
X0038738Y0095551D01*
X0038608Y0095577D01*
X0037084Y0095577D01*
X0036963Y0095555D01*
X0036852Y0095483D01*
X0036777Y0095374D01*
X0036751Y0095244D01*
X0036401Y0095244D01*
X0036379Y0095365D01*
X0036307Y0095476D01*
X0036198Y0095551D01*
X0036068Y0095577D01*
X0034544Y0095577D01*
X0034423Y0095555D01*
X0034312Y0095483D01*
X0034237Y0095374D01*
X0034211Y0095244D01*
X0033479Y0095244D01*
X0033479Y0097291D01*
X0033456Y0097412D01*
X0033385Y0097524D01*
X0033275Y0097598D01*
X0033146Y0097625D01*
X0032273Y0097625D01*
X0032273Y0097828D01*
X0032297Y0097852D01*
X0034056Y0097852D01*
X0034177Y0097875D01*
X0034289Y0097946D01*
X0034363Y0098056D01*
X0034390Y0098185D01*
X0034390Y0100685D01*
X0034367Y0100806D01*
X0034295Y0100917D01*
X0034186Y0100992D01*
X0034056Y0101018D01*
X0033558Y0101018D01*
X0033558Y0101578D01*
X0033719Y0101578D01*
X0033840Y0101601D01*
X0033951Y0101673D01*
X0034026Y0101782D01*
X0034052Y0101912D01*
X0034052Y0103436D01*
X0034401Y0103436D01*
X0034401Y0101912D01*
X0034424Y0101790D01*
X0034496Y0101679D01*
X0034605Y0101604D01*
X0034735Y0101578D01*
X0036259Y0101578D01*
X0036380Y0101601D01*
X0036491Y0101673D01*
X0036566Y0101782D01*
X0036592Y0101912D01*
X0036592Y0103436D01*
X0036569Y0103557D01*
X0036497Y0103668D01*
X0036388Y0103743D01*
X0036259Y0103769D01*
X0034735Y0103769D01*
X0034613Y0103746D01*
X0034502Y0103674D01*
X0034427Y0103565D01*
X0034401Y0103436D01*
X0034052Y0103436D01*
X0034029Y0103557D01*
X0033957Y0103668D01*
X0033848Y0103743D01*
X0033719Y0103769D01*
X0033670Y0103769D01*
X0033670Y0104075D01*
X0033708Y0104131D01*
X0033734Y0104261D01*
X0033734Y0106293D01*
X0033712Y0106414D01*
X0033640Y0106525D01*
X0033531Y0106600D01*
X0033401Y0106626D01*
X0032385Y0106626D01*
X0032264Y0106604D01*
X0032153Y0106532D01*
X0032078Y0106423D01*
X0032052Y0106293D01*
X0032052Y0105610D01*
X0031310Y0105610D01*
X0031306Y0105610D01*
X0029909Y0105610D01*
X0029787Y0105588D01*
X0029676Y0105516D01*
X0029601Y0105407D01*
X0029575Y0105277D01*
X0029575Y0104388D01*
X0029598Y0104267D01*
X0029670Y0104156D01*
X0029779Y0104081D01*
X0029909Y0104055D01*
X0031306Y0104055D01*
X0031310Y0104056D01*
X0032116Y0104056D01*
X0032116Y0103754D01*
X0032073Y0103746D01*
X0031962Y0103674D01*
X0031887Y0103565D01*
X0031861Y0103436D01*
X0031861Y0101912D01*
X0031884Y0101790D01*
X0031956Y0101679D01*
X0032004Y0101646D01*
X0032004Y0101018D01*
X0031506Y0101018D01*
X0031385Y0100995D01*
X0031274Y0100924D01*
X0031199Y0100814D01*
X0031173Y0100685D01*
X0031173Y0098925D01*
X0030947Y0098699D01*
X0030778Y0098447D01*
X0030719Y0098150D01*
X0030719Y0097625D01*
X0029846Y0097625D01*
X0029725Y0097602D01*
X0029614Y0097530D01*
X0029539Y0097421D01*
X0029513Y0097291D01*
X0027765Y0097291D01*
X0027765Y0098292D01*
X0027743Y0098413D01*
X0027671Y0098524D01*
X0027562Y0098599D01*
X0027432Y0098625D01*
X0027147Y0098625D01*
X0027147Y0098975D01*
X0027432Y0098975D01*
X0027553Y0098997D01*
X0027664Y0099069D01*
X0027739Y0099178D01*
X0027765Y0099308D01*
X0027765Y0100832D01*
X0027743Y0100953D01*
X0027671Y0101064D01*
X0027562Y0101139D01*
X0027432Y0101165D01*
X0026322Y0101165D01*
X0026322Y0105648D01*
X0026569Y0105648D01*
X0026853Y0105765D01*
X0027070Y0105982D01*
X0027188Y0106266D01*
X0027188Y0106286D01*
X0027422Y0106286D01*
X0027439Y0106197D01*
X0027511Y0106086D01*
X0027620Y0106011D01*
X0027750Y0105985D01*
X0027871Y0105985D01*
X0027871Y0105712D01*
X0027750Y0105712D01*
X0027628Y0105689D01*
X0027517Y0105618D01*
X0027442Y0105508D01*
X0027416Y0105379D01*
X0027416Y0104490D01*
X0027439Y0104368D01*
X0027511Y0104257D01*
X0027620Y0104182D01*
X0027750Y0104156D01*
X0029147Y0104156D01*
X0029268Y0104179D01*
X0029379Y0104251D01*
X0029454Y0104360D01*
X0029480Y0104490D01*
X0029480Y0105379D01*
X0029457Y0105500D01*
X0029385Y0105611D01*
X0029276Y0105686D01*
X0029147Y0105712D01*
X0029025Y0105712D01*
X0029025Y0105985D01*
X0029147Y0105985D01*
X0029268Y0106008D01*
X0029379Y0106079D01*
X0029454Y0106189D01*
X0029480Y0106318D01*
X0029480Y0107207D01*
X0029457Y0107329D01*
X0029385Y0107440D01*
X0029276Y0107515D01*
X0029147Y0107541D01*
X0027750Y0107541D01*
X0027740Y0107539D01*
X0028091Y0107890D01*
X0029147Y0107890D01*
X0029268Y0107913D01*
X0029379Y0107984D01*
X0029454Y0108094D01*
X0029480Y0108223D01*
X0029480Y0109112D01*
X0029457Y0109234D01*
X0029385Y0109345D01*
X0029276Y0109420D01*
X0029228Y0109429D01*
X0029268Y0109437D01*
X0029379Y0109508D01*
X0029454Y0109618D01*
X0029480Y0109747D01*
X0029480Y0110636D01*
X0029457Y0110758D01*
X0029385Y0110869D01*
X0029276Y0110944D01*
X0029147Y0110970D01*
X0027750Y0110970D01*
X0027628Y0110947D01*
X0027517Y0110875D01*
X0027442Y0110766D01*
X0027416Y0110636D01*
X0027416Y0109747D01*
X0027439Y0109626D01*
X0027511Y0109515D01*
X0027620Y0109440D01*
X0027668Y0109430D01*
X0027628Y0109423D01*
X0027517Y0109351D01*
X0027442Y0109242D01*
X0027416Y0109112D01*
X0027416Y0108565D01*
X0026666Y0107815D01*
X0026113Y0107815D01*
X0025961Y0107967D01*
X0025677Y0108085D01*
X0025370Y0108086D01*
X0025086Y0107968D01*
X0024869Y0107751D01*
X0024751Y0107468D01*
X0024751Y0107216D01*
X0024740Y0107206D01*
X0024637Y0107051D01*
X0024601Y0106868D01*
X0024601Y0105345D01*
X0024637Y0105163D01*
X0024740Y0105008D01*
X0024796Y0104952D01*
X0024796Y0102554D01*
X0023793Y0101550D01*
X0023689Y0101396D01*
X0023653Y0101213D01*
X0023653Y0101165D01*
X0023368Y0101165D01*
X0023247Y0101143D01*
X0023136Y0101071D01*
X0023061Y0100962D01*
X0023035Y0100832D01*
X0023035Y0099308D01*
X0023057Y0099187D01*
X0023129Y0099076D01*
X0023238Y0099001D01*
X0023368Y0098975D01*
X0023653Y0098975D01*
X0023653Y0098625D01*
X0023368Y0098625D01*
X0023247Y0098603D01*
X0023136Y0098531D01*
X0023061Y0098422D01*
X0023035Y0098292D01*
X0023035Y0096768D01*
X0023057Y0096647D01*
X0023129Y0096536D01*
X0023238Y0096461D01*
X0023368Y0096435D01*
X0023495Y0096435D01*
X0022729Y0095668D01*
X0022694Y0095617D01*
X0022649Y0095571D01*
X0022545Y0095416D01*
X0022509Y0095234D01*
X0022509Y0093722D01*
X0022545Y0093540D01*
X0022589Y0093474D01*
X0022589Y0090635D01*
X0022403Y0090635D01*
X0022043Y0090487D01*
X0021768Y0090212D01*
X0021619Y0089853D01*
X0021619Y0089465D01*
X0021543Y0089465D01*
X0021543Y0089851D01*
X0021395Y0090211D01*
X0021120Y0090486D01*
X0020761Y0090635D01*
X0020373Y0090635D01*
X0020013Y0090487D01*
X0019925Y0090398D01*
X0019873Y0090475D01*
X0019563Y0090786D01*
X0019563Y0094828D01*
X0021169Y0096435D01*
X0022352Y0096435D01*
X0022473Y0096457D01*
X0022584Y0096529D01*
X0022659Y0096638D01*
X0022685Y0096768D01*
X0022685Y0098292D01*
X0022663Y0098413D01*
X0022591Y0098524D01*
X0022482Y0098599D01*
X0022352Y0098625D01*
X0022067Y0098625D01*
X0022067Y0098975D01*
X0022352Y0098975D01*
X0022473Y0098997D01*
X0022584Y0099069D01*
X0022659Y0099178D01*
X0022685Y0099308D01*
X0022685Y0100832D01*
X0022663Y0100953D01*
X0022591Y0101064D01*
X0022482Y0101139D01*
X0022352Y0101165D01*
X0021623Y0101165D01*
X0021623Y0105382D01*
X0021627Y0105384D01*
X0021844Y0105601D01*
X0021962Y0105884D01*
X0021962Y0106181D01*
X0022043Y0106262D01*
X0022075Y0106213D01*
X0022184Y0106138D01*
X0022314Y0106112D01*
X0022435Y0106112D01*
X0022435Y0105839D01*
X0022314Y0105839D01*
X0022193Y0105816D01*
X0022081Y0105745D01*
X0022007Y0105635D01*
X0021980Y0105506D01*
X0021980Y0104617D01*
X0022003Y0104495D01*
X0022075Y0104384D01*
X0022184Y0104309D01*
X0022314Y0104283D01*
X0023711Y0104283D01*
X0023832Y0104306D01*
X0023943Y0104378D01*
X0024018Y0104487D01*
X0024044Y0104617D01*
X0024044Y0105506D01*
X0024022Y0105627D01*
X0023950Y0105738D01*
X0023841Y0105813D01*
X0023711Y0105839D01*
X0023589Y0105839D01*
X0023589Y0106112D01*
X0023711Y0106112D01*
X0023832Y0106135D01*
X0023943Y0106206D01*
X0024018Y0106316D01*
X0024044Y0106445D01*
X0024044Y0107334D01*
X0024022Y0107456D01*
X0023950Y0107567D01*
X0023841Y0107642D01*
X0023711Y0107668D01*
X0022369Y0107668D01*
X0022677Y0107975D01*
X0023012Y0107975D01*
X0023195Y0108011D01*
X0023203Y0108017D01*
X0023711Y0108017D01*
X0023832Y0108040D01*
X0023943Y0108111D01*
X0024018Y0108221D01*
X0024044Y0108350D01*
X0024044Y0109239D01*
X0024022Y0109361D01*
X0023950Y0109472D01*
X0023841Y0109547D01*
X0023792Y0109556D01*
X0023832Y0109564D01*
X0023943Y0109635D01*
X0024018Y0109745D01*
X0024044Y0109874D01*
X0024044Y0110763D01*
X0024022Y0110885D01*
X0023950Y0110996D01*
X0023841Y0111071D01*
X0023711Y0111097D01*
X0022314Y0111097D01*
X0022193Y0111074D01*
X0022081Y0111002D01*
X0022007Y0110893D01*
X0021980Y0110763D01*
X0021980Y0109874D01*
X0022003Y0109753D01*
X0022075Y0109642D01*
X0022184Y0109567D01*
X0022232Y0109557D01*
X0022193Y0109550D01*
X0022081Y0109478D01*
X0022007Y0109369D01*
X0021980Y0109239D01*
X0021980Y0108628D01*
X0019954Y0106602D01*
X0019851Y0106447D01*
X0019814Y0106264D01*
X0019814Y0105962D01*
X0019662Y0105809D01*
X0019544Y0105525D01*
X0019543Y0105218D01*
X0019661Y0104935D01*
X0019780Y0104816D01*
X0019780Y0101474D01*
X0019471Y0101165D01*
X0018288Y0101165D01*
X0018167Y0101143D01*
X0018056Y0101071D01*
X0017981Y0100962D01*
X0017955Y0100832D01*
X0017955Y0099308D01*
X0017977Y0099187D01*
X0018049Y0099076D01*
X0018158Y0099001D01*
X0018288Y0098975D01*
X0018573Y0098975D01*
X0018573Y0098625D01*
X0018288Y0098625D01*
X0018167Y0098603D01*
X0018056Y0098531D01*
X0017981Y0098422D01*
X0017955Y0098292D01*
X0017955Y0096768D01*
X0017977Y0096647D01*
X0018049Y0096536D01*
X0018158Y0096461D01*
X0018288Y0096435D01*
X0018573Y0096435D01*
X0018573Y0095965D01*
X0018199Y0095591D01*
X0018095Y0095436D01*
X0018059Y0095254D01*
X0018059Y0090518D01*
X0018003Y0090495D01*
X0018003Y0094854D01*
X0017967Y0095036D01*
X0017863Y0095191D01*
X0016987Y0096067D01*
X0016987Y0096435D01*
X0017272Y0096435D01*
X0017393Y0096457D01*
X0017504Y0096529D01*
X0017579Y0096638D01*
X0017605Y0096768D01*
X0017605Y0098292D01*
X0017583Y0098413D01*
X0017511Y0098524D01*
X0017402Y0098599D01*
X0017272Y0098625D01*
X0016987Y0098625D01*
X0016987Y0098975D01*
X0017272Y0098975D01*
X0017393Y0098997D01*
X0017504Y0099069D01*
X0017579Y0099178D01*
X0017605Y0099308D01*
X0017605Y0100832D01*
X0017583Y0100953D01*
X0017511Y0101064D01*
X0017402Y0101139D01*
X0017272Y0101165D01*
X0016089Y0101165D01*
X0014947Y0102308D01*
X0014947Y0106605D01*
X0015563Y0107221D01*
X0015563Y0107222D01*
X0015573Y0107232D01*
X0015824Y0107232D01*
X0016107Y0107349D01*
X0016263Y0107504D01*
X0016659Y0107108D01*
X0016659Y0106560D01*
X0016682Y0106439D01*
X0016754Y0106327D01*
X0016806Y0106291D01*
X0016786Y0106278D01*
X0016711Y0106169D01*
X0016685Y0106039D01*
X0016685Y0105150D01*
X0016707Y0105029D01*
X0016779Y0104918D01*
X0016888Y0104843D01*
X0017018Y0104817D01*
X0018415Y0104817D01*
X0018536Y0104839D01*
X0018647Y0104911D01*
X0018722Y0105020D01*
X0018748Y0105150D01*
X0018748Y0106039D01*
X0018726Y0106160D01*
X0018654Y0106271D01*
X0018601Y0106307D01*
X0018622Y0106321D01*
X0018697Y0106430D01*
X0018723Y0106560D01*
X0018723Y0107449D01*
X0018700Y0107570D01*
X0018629Y0107681D01*
X0018519Y0107756D01*
X0018390Y0107782D01*
X0017334Y0107782D01*
X0016983Y0108133D01*
X0016993Y0108131D01*
X0018390Y0108131D01*
X0018511Y0108154D01*
X0018622Y0108226D01*
X0018697Y0108335D01*
X0018723Y0108465D01*
X0018723Y0109354D01*
X0018700Y0109475D01*
X0018629Y0109586D01*
X0018519Y0109661D01*
X0018390Y0109687D01*
X0018268Y0109687D01*
X0018268Y0109770D01*
X0018402Y0109770D01*
X0018523Y0109792D01*
X0018635Y0109864D01*
X0018709Y0109973D01*
X0018736Y0110103D01*
X0018736Y0110992D01*
X0018713Y0111113D01*
X0018641Y0111224D01*
X0018532Y0111299D01*
X0018402Y0111325D01*
X0017005Y0111325D01*
X0016884Y0111303D01*
X0016773Y0111231D01*
X0016698Y0111122D01*
X0016672Y0110992D01*
X0016672Y0110103D01*
X0016695Y0109982D01*
X0016766Y0109871D01*
X0016876Y0109796D01*
X0017005Y0109770D01*
X0017114Y0109770D01*
X0017114Y0109687D01*
X0016993Y0109687D01*
X0016871Y0109664D01*
X0016804Y0109621D01*
X0016537Y0109732D01*
X0016230Y0109732D01*
X0015946Y0109615D01*
X0015768Y0109437D01*
X0015450Y0109437D01*
X0015268Y0109401D01*
X0015113Y0109297D01*
X0014951Y0109135D01*
X0014931Y0109240D01*
X0014859Y0109351D01*
X0014779Y0109406D01*
X0014808Y0109434D01*
X0014911Y0109589D01*
X0014947Y0109771D01*
X0014947Y0110040D01*
X0014954Y0110071D01*
X0014954Y0110521D01*
X0014931Y0110642D01*
X0014859Y0110753D01*
X0014750Y0110828D01*
X0014620Y0110854D01*
X0014321Y0110854D01*
X0014199Y0110831D01*
X0014088Y0110760D01*
X0014013Y0110651D01*
X0013987Y0110521D01*
X0013987Y0110071D01*
X0013993Y0110038D01*
X0013993Y0109969D01*
X0013970Y0109946D01*
X0013927Y0109946D01*
X0013953Y0110071D01*
X0013953Y0110521D01*
X0013930Y0110642D01*
X0013858Y0110753D01*
X0013749Y0110828D01*
X0013619Y0110854D01*
X0013320Y0110854D01*
X0013199Y0110831D01*
X0013108Y0110773D01*
X0012385Y0110773D01*
X0012202Y0110737D01*
X0012048Y0110633D01*
X0011654Y0110240D01*
X0011404Y0110240D01*
X0011120Y0110123D01*
X0010903Y0109906D01*
X0010856Y0109792D01*
X0010536Y0109792D01*
X0010536Y0110190D01*
X0010513Y0110311D01*
X0010441Y0110422D01*
X0010332Y0110497D01*
X0010202Y0110523D01*
X0009979Y0110523D01*
X0009979Y0111494D01*
X0010011Y0111515D01*
X0010086Y0111624D01*
X0010112Y0111754D01*
X0010112Y0113018D01*
X0010462Y0112668D01*
X0010462Y0111754D01*
X0010484Y0111633D01*
X0010556Y0111522D01*
X0010665Y0111447D01*
X0010795Y0111421D01*
X0011684Y0111421D01*
X0011805Y0111443D01*
X0011916Y0111515D01*
X0011991Y0111624D01*
X0012017Y0111754D01*
X0012017Y0113151D01*
X0011995Y0113272D01*
X0011923Y0113383D01*
X0011814Y0113458D01*
X0011684Y0113484D01*
X0011278Y0113484D01*
X0011002Y0113760D01*
X0013987Y0113760D01*
X0014104Y0113476D01*
X0014321Y0113259D01*
X0014605Y0113141D01*
X0014715Y0113141D01*
X0015812Y0112044D01*
X0015999Y0111919D01*
X0016220Y0111875D01*
X0016220Y0111876D01*
X0016702Y0111876D01*
X0016766Y0111776D01*
X0016876Y0111701D01*
X0017005Y0111675D01*
X0018402Y0111675D01*
X0018523Y0111697D01*
X0018635Y0111769D01*
X0018708Y0111876D01*
X0021980Y0111876D01*
X0021980Y0111779D01*
X0022003Y0111658D01*
X0022075Y0111547D01*
X0022184Y0111472D01*
X0022314Y0111446D01*
X0023711Y0111446D01*
X0023832Y0111469D01*
X0023911Y0111520D01*
X0027446Y0111520D01*
X0027511Y0111420D01*
X0027620Y0111345D01*
X0027750Y0111319D01*
X0029147Y0111319D01*
X0029268Y0111342D01*
X0029379Y0111413D01*
X0029454Y0111523D01*
X0029480Y0111652D01*
X0029480Y0112541D01*
X0029457Y0112663D01*
X0029385Y0112774D01*
X0029276Y0112849D01*
X0029147Y0112875D01*
X0027750Y0112875D01*
X0027628Y0112852D01*
X0027517Y0112780D01*
X0027444Y0112674D01*
X0024043Y0112674D01*
X0024022Y0112790D01*
X0023950Y0112901D01*
X0023841Y0112976D01*
X0023711Y0113002D01*
X0022923Y0113002D01*
X0022784Y0113030D01*
X0022784Y0113030D01*
X0018706Y0113030D01*
X0018641Y0113129D01*
X0018532Y0113204D01*
X0018402Y0113230D01*
X0017005Y0113230D01*
X0016884Y0113208D01*
X0016773Y0113136D01*
X0016700Y0113030D01*
X0016459Y0113030D01*
X0015531Y0113957D01*
X0015531Y0114066D01*
X0015414Y0114350D01*
X0015197Y0114567D01*
X0014913Y0114685D01*
X0014606Y0114685D01*
X0014322Y0114568D01*
X0014105Y0114351D01*
X0013987Y0114067D01*
X0013987Y0113760D01*
X0011002Y0113760D01*
X0010233Y0114529D01*
X0010046Y0114654D01*
X0009825Y0114698D01*
X0009825Y0114698D01*
X0009633Y0114698D01*
X0009556Y0114775D01*
X0009273Y0114893D01*
X0008966Y0114893D01*
X0008682Y0114776D01*
X0008642Y0114736D01*
X0008642Y0116636D01*
X0008624Y0116722D01*
X0008598Y0116856D01*
X0008503Y0116997D01*
X0008473Y0117044D01*
X0008472Y0117044D01*
X0007703Y0117814D01*
X0007515Y0117939D01*
X0007295Y0117983D01*
X0007294Y0117983D01*
X0007128Y0117983D01*
X0007128Y0118168D01*
X0007105Y0118289D01*
X0007033Y0118400D01*
X0006924Y0118475D01*
X0006795Y0118501D01*
X0005271Y0118501D01*
X0005149Y0118478D01*
X0005038Y0118406D01*
X0004963Y0118297D01*
X0004937Y0118168D01*
X0004937Y0116644D01*
X0004960Y0116522D01*
X0005032Y0116411D01*
X0005141Y0116336D01*
X0005271Y0116310D01*
X0006795Y0116310D01*
X0006916Y0116333D01*
X0007027Y0116405D01*
X0007102Y0116514D01*
X0007128Y0116644D01*
X0007128Y0116756D01*
X0007488Y0116396D01*
X0007488Y0112770D01*
X0007531Y0112549D01*
X0007656Y0112362D01*
X0007681Y0112346D01*
X0007982Y0112045D01*
X0007982Y0112044D01*
X0008152Y0111931D01*
X0008169Y0111919D01*
X0008390Y0111875D01*
X0008390Y0111876D01*
X0008557Y0111876D01*
X0008557Y0111754D01*
X0008579Y0111633D01*
X0008651Y0111522D01*
X0008760Y0111447D01*
X0008890Y0111421D01*
X0008925Y0111421D01*
X0008925Y0110523D01*
X0008702Y0110523D01*
X0008581Y0110501D01*
X0008470Y0110429D01*
X0008395Y0110320D01*
X0008369Y0110190D01*
X0008369Y0109740D01*
X0008389Y0109636D01*
X0008369Y0109540D01*
X0008369Y0109090D01*
X0008389Y0108986D01*
X0008369Y0108890D01*
X0008369Y0108440D01*
X0008389Y0108336D01*
X0008369Y0108240D01*
X0008369Y0107790D01*
X0008389Y0107686D01*
X0008369Y0107590D01*
X0008369Y0107140D01*
X0008389Y0107036D01*
X0008369Y0106940D01*
X0008369Y0106490D01*
X0008381Y0106424D01*
X0006086Y0108719D01*
X0006405Y0109038D01*
X0006519Y0109209D01*
X0006560Y0109411D01*
X0006560Y0113770D01*
X0006795Y0113770D01*
X0006916Y0113793D01*
X0007027Y0113865D01*
X0007102Y0113974D01*
X0007128Y0114104D01*
X0007128Y0115628D01*
X0007105Y0115749D01*
X0007033Y0115860D01*
X0006924Y0115935D01*
X0006795Y0115961D01*
X0005271Y0115961D01*
X0005149Y0115938D01*
X0005038Y0115866D01*
X0004963Y0115757D01*
X0004937Y0115628D01*
X0004937Y0115393D01*
X0004588Y0115393D01*
X0004588Y0115628D01*
X0004565Y0115749D01*
X0004493Y0115860D01*
X0004384Y0115935D01*
X0004255Y0115961D01*
X0002731Y0115961D01*
X0002609Y0115938D01*
X0002498Y0115866D01*
X0002423Y0115757D01*
X0002397Y0115628D01*
X0002397Y0114104D01*
X0002420Y0113982D01*
X0002492Y0113871D01*
X0002601Y0113796D01*
X0002731Y0113770D01*
X0004255Y0113770D01*
X0004376Y0113793D01*
X0004487Y0113865D01*
X0004562Y0113974D01*
X0004588Y0114104D01*
X0004588Y0114339D01*
X0004937Y0114339D01*
X0004937Y0114104D01*
X0004960Y0113982D01*
X0005032Y0113871D01*
X0005141Y0113796D01*
X0005271Y0113770D01*
X0005506Y0113770D01*
X0005506Y0109629D01*
X0005122Y0109246D01*
X0004652Y0109246D01*
X0004636Y0109243D01*
X0004636Y0109540D01*
X0004613Y0109661D01*
X0004541Y0109772D01*
X0004432Y0109847D01*
X0004302Y0109873D01*
X0002802Y0109873D01*
X0002681Y0109851D01*
X0002570Y0109779D01*
X0002495Y0109670D01*
X0002469Y0109540D01*
X0002469Y0109090D01*
X0002489Y0108986D01*
X0002469Y0108890D01*
X0002469Y0108651D01*
X0002313Y0108716D01*
X0002006Y0108716D01*
X0001722Y0108599D01*
X0001593Y0108470D01*
X0001593Y0109537D01*
X0002005Y0109949D01*
X0002130Y0110136D01*
X0002174Y0110357D01*
X0002174Y0119073D01*
X0002397Y0119296D01*
X0002397Y0119184D01*
X0002420Y0119062D01*
X0002492Y0118951D01*
X0002601Y0118876D01*
X0002731Y0118850D01*
X0004255Y0118850D01*
X0004376Y0118873D01*
X0004487Y0118945D01*
X0004562Y0119054D01*
X0004588Y0119184D01*
X0004588Y0119369D01*
X0004937Y0119369D01*
X0004937Y0119184D01*
X0004960Y0119062D01*
X0005032Y0118951D01*
X0005141Y0118876D01*
X0005271Y0118850D01*
X0006795Y0118850D01*
X0006916Y0118873D01*
X0007027Y0118945D01*
X0007102Y0119054D01*
X0007128Y0119184D01*
X0007128Y0119882D01*
X0011097Y0119882D01*
X0011097Y0118358D01*
X0011119Y0118237D01*
X0011191Y0118126D01*
X0011300Y0118051D01*
X0011430Y0118025D01*
X0012954Y0118025D01*
X0013075Y0118047D01*
X0013186Y0118119D01*
X0013261Y0118228D01*
X0013287Y0118358D01*
X0013287Y0119882D01*
X0013637Y0119882D01*
X0013637Y0118358D01*
X0013659Y0118237D01*
X0013731Y0118126D01*
X0013840Y0118051D01*
X0013970Y0118025D01*
X0015494Y0118025D01*
X0015615Y0118047D01*
X0015726Y0118119D01*
X0015801Y0118228D01*
X0015827Y0118358D01*
X0015827Y0119882D01*
X0015805Y0120003D01*
X0015733Y0120114D01*
X0015624Y0120189D01*
X0015494Y0120215D01*
X0013970Y0120215D01*
X0013849Y0120193D01*
X0013738Y0120121D01*
X0013663Y0120012D01*
X0013637Y0119882D01*
X0013287Y0119882D01*
X0013265Y0120003D01*
X0013193Y0120114D01*
X0013084Y0120189D01*
X0012954Y0120215D01*
X0011430Y0120215D01*
X0011309Y0120193D01*
X0011198Y0120121D01*
X0011123Y0120012D01*
X0011097Y0119882D01*
X0007128Y0119882D01*
X0007128Y0120708D01*
X0007105Y0120829D01*
X0007033Y0120940D01*
X0006924Y0121015D01*
X0006795Y0121041D01*
X0005271Y0121041D01*
X0005149Y0121018D01*
X0005038Y0120946D01*
X0004963Y0120837D01*
X0004937Y0120708D01*
X0004937Y0120523D01*
X0004588Y0120523D01*
X0004588Y0120708D01*
X0004565Y0120829D01*
X0004493Y0120940D01*
X0004384Y0121015D01*
X0004255Y0121041D01*
X0002731Y0121041D01*
X0002609Y0121018D01*
X0002498Y0120946D01*
X0002423Y0120837D01*
X0002397Y0120708D01*
X0002397Y0120523D01*
X0002231Y0120523D01*
X0002010Y0120479D01*
X0001822Y0120354D01*
X0001822Y0120353D01*
X0001189Y0119720D01*
X0001064Y0119533D01*
X0001020Y0119312D01*
X0001020Y0119312D01*
X0001020Y0110596D01*
X0000608Y0110184D01*
X0000483Y0109997D01*
X0000439Y0109776D01*
X0000377Y0109776D01*
X0000377Y0122422D01*
X0011097Y0122422D01*
X0011097Y0120898D01*
X0011119Y0120777D01*
X0011191Y0120666D01*
X0011300Y0120591D01*
X0011430Y0120565D01*
X0012954Y0120565D01*
X0013075Y0120587D01*
X0013186Y0120659D01*
X0013261Y0120768D01*
X0013284Y0120883D01*
X0013639Y0120883D01*
X0013659Y0120777D01*
X0013731Y0120666D01*
X0013840Y0120591D01*
X0013970Y0120565D01*
X0015494Y0120565D01*
X0015615Y0120587D01*
X0015726Y0120659D01*
X0015801Y0120768D01*
X0015824Y0120883D01*
X0016887Y0120883D01*
X0017447Y0120323D01*
X0017447Y0117418D01*
X0017458Y0117357D01*
X0015825Y0117357D01*
X0015805Y0117463D01*
X0015733Y0117574D01*
X0015624Y0117649D01*
X0015494Y0117675D01*
X0013970Y0117675D01*
X0013849Y0117653D01*
X0013738Y0117581D01*
X0013663Y0117472D01*
X0013640Y0117357D01*
X0013285Y0117357D01*
X0013265Y0117463D01*
X0013193Y0117574D01*
X0013084Y0117649D01*
X0012954Y0117675D01*
X0011430Y0117675D01*
X0011309Y0117653D01*
X0011198Y0117581D01*
X0011123Y0117472D01*
X0011097Y0117342D01*
X0011097Y0115818D01*
X0011119Y0115697D01*
X0011191Y0115586D01*
X0011300Y0115511D01*
X0011430Y0115485D01*
X0012954Y0115485D01*
X0013075Y0115507D01*
X0013186Y0115579D01*
X0013261Y0115688D01*
X0013284Y0115803D01*
X0013639Y0115803D01*
X0013659Y0115697D01*
X0013731Y0115586D01*
X0013840Y0115511D01*
X0013970Y0115485D01*
X0015494Y0115485D01*
X0015615Y0115507D01*
X0015726Y0115579D01*
X0015801Y0115688D01*
X0015824Y0115803D01*
X0024814Y0115803D01*
X0024814Y0115124D01*
X0024813Y0115120D01*
X0024813Y0113723D01*
X0024835Y0113601D01*
X0024907Y0113490D01*
X0025016Y0113415D01*
X0025146Y0113389D01*
X0026035Y0113389D01*
X0026156Y0113412D01*
X0026267Y0113484D01*
X0026342Y0113593D01*
X0026368Y0113723D01*
X0026368Y0115120D01*
X0026368Y0115124D01*
X0026368Y0116120D01*
X0026416Y0116120D01*
X0026537Y0116142D01*
X0026602Y0116184D01*
X0027110Y0116184D01*
X0027353Y0115942D01*
X0027353Y0115183D01*
X0027375Y0115062D01*
X0027447Y0114951D01*
X0027556Y0114876D01*
X0027686Y0114850D01*
X0028445Y0114850D01*
X0028978Y0114316D01*
X0029230Y0114148D01*
X0029528Y0114089D01*
X0030846Y0114089D01*
X0030846Y0112708D01*
X0030905Y0112411D01*
X0031074Y0112159D01*
X0031901Y0111332D01*
X0032153Y0111163D01*
X0032450Y0111104D01*
X0033017Y0111104D01*
X0033017Y0110865D01*
X0033040Y0110744D01*
X0033111Y0110633D01*
X0033220Y0110558D01*
X0033350Y0110532D01*
X0034402Y0110532D01*
X0034402Y0106479D01*
X0034364Y0106423D01*
X0034338Y0106293D01*
X0034338Y0104261D01*
X0034360Y0104140D01*
X0034432Y0104029D01*
X0034541Y0103954D01*
X0034671Y0103928D01*
X0035687Y0103928D01*
X0035808Y0103950D01*
X0035919Y0104022D01*
X0035994Y0104131D01*
X0036020Y0104261D01*
X0036020Y0106293D01*
X0035998Y0106414D01*
X0035956Y0106479D01*
X0035956Y0110532D01*
X0037008Y0110532D01*
X0037129Y0110554D01*
X0037240Y0110626D01*
X0037315Y0110735D01*
X0037341Y0110865D01*
X0037341Y0112897D01*
X0037318Y0113018D01*
X0037247Y0113129D01*
X0037138Y0113204D01*
X0037008Y0113230D01*
X0033350Y0113230D01*
X0033229Y0113208D01*
X0033118Y0113136D01*
X0033043Y0113027D01*
X0033017Y0112897D01*
X0033017Y0112658D01*
X0032772Y0112658D01*
X0032400Y0113030D01*
X0032400Y0114089D01*
X0032576Y0114089D01*
X0032873Y0114148D01*
X0033125Y0114316D01*
X0034928Y0116120D01*
X0035687Y0116120D01*
X0035808Y0116142D01*
X0035919Y0116214D01*
X0035994Y0116323D01*
X0036017Y0116438D01*
X0036372Y0116438D01*
X0036392Y0116332D01*
X0036464Y0116221D01*
X0036573Y0116146D01*
X0036703Y0116120D01*
X0038227Y0116120D01*
X0038348Y0116142D01*
X0038459Y0116214D01*
X0038534Y0116323D01*
X0038560Y0116453D01*
X0038560Y0117977D01*
X0038538Y0118098D01*
X0038466Y0118209D01*
X0038357Y0118284D01*
X0038227Y0118310D01*
X0036703Y0118310D01*
X0036582Y0118288D01*
X0036471Y0118216D01*
X0036396Y0118107D01*
X0036373Y0117992D01*
X0036018Y0117992D01*
X0035998Y0118098D01*
X0035926Y0118209D01*
X0035817Y0118284D01*
X0035687Y0118310D01*
X0034163Y0118310D01*
X0034042Y0118288D01*
X0033931Y0118216D01*
X0033856Y0118107D01*
X0033830Y0117977D01*
X0033830Y0117218D01*
X0032255Y0115643D01*
X0030925Y0115643D01*
X0030920Y0115643D01*
X0029849Y0115643D01*
X0029543Y0115948D01*
X0029543Y0116707D01*
X0029521Y0116828D01*
X0029449Y0116939D01*
X0029340Y0117014D01*
X0029210Y0117040D01*
X0028451Y0117040D01*
X0028102Y0117390D01*
X0029210Y0117390D01*
X0029331Y0117412D01*
X0029442Y0117484D01*
X0029517Y0117593D01*
X0029543Y0117723D01*
X0029543Y0119247D01*
X0029521Y0119368D01*
X0029449Y0119479D01*
X0029340Y0119554D01*
X0029225Y0119577D01*
X0029225Y0119817D01*
X0029268Y0119825D01*
X0029379Y0119897D01*
X0029454Y0120006D01*
X0029480Y0120136D01*
X0029480Y0121025D01*
X0029457Y0121146D01*
X0029385Y0121257D01*
X0029276Y0121332D01*
X0029147Y0121358D01*
X0027750Y0121358D01*
X0027628Y0121336D01*
X0027517Y0121264D01*
X0027442Y0121155D01*
X0027416Y0121025D01*
X0027416Y0120136D01*
X0027437Y0120024D01*
X0026602Y0120024D01*
X0026546Y0120062D01*
X0026416Y0120088D01*
X0024384Y0120088D01*
X0024263Y0120066D01*
X0024198Y0120024D01*
X0023891Y0120024D01*
X0023891Y0123996D01*
X0023997Y0124016D01*
X0024108Y0124088D01*
X0024183Y0124197D01*
X0024209Y0124327D01*
X0024209Y0125851D01*
X0024187Y0125972D01*
X0024115Y0126083D01*
X0024006Y0126158D01*
X0023891Y0126181D01*
X0023891Y0126536D01*
X0023997Y0126556D01*
X0024108Y0126628D01*
X0024183Y0126737D01*
X0024209Y0126867D01*
X0024209Y0128391D01*
X0024187Y0128512D01*
X0024115Y0128623D01*
X0024006Y0128698D01*
X0023876Y0128724D01*
X0022352Y0128724D01*
X0022231Y0128702D01*
X0022120Y0128630D01*
X0022045Y0128521D01*
X0022019Y0128391D01*
X0022019Y0126867D01*
X0022041Y0126746D01*
X0022113Y0126635D01*
X0022222Y0126560D01*
X0022337Y0126537D01*
X0022337Y0126182D01*
X0022231Y0126162D01*
X0022120Y0126090D01*
X0022045Y0125981D01*
X0022019Y0125851D01*
X0022019Y0124327D01*
X0022041Y0124206D01*
X0022113Y0124095D01*
X0022222Y0124020D01*
X0022337Y0123997D01*
X0022337Y0120024D01*
X0020145Y0120024D01*
X0020145Y0121076D01*
X0020123Y0121197D01*
X0020051Y0121308D01*
X0019942Y0121383D01*
X0019812Y0121409D01*
X0018558Y0121409D01*
X0017758Y0122209D01*
X0017506Y0122378D01*
X0017209Y0122437D01*
X0015825Y0122437D01*
X0015805Y0122543D01*
X0015733Y0122654D01*
X0015624Y0122729D01*
X0015494Y0122755D01*
X0013970Y0122755D01*
X0013849Y0122733D01*
X0013738Y0122661D01*
X0013663Y0122552D01*
X0013640Y0122437D01*
X0013285Y0122437D01*
X0013265Y0122543D01*
X0013193Y0122654D01*
X0013084Y0122729D01*
X0012954Y0122755D01*
X0011430Y0122755D01*
X0011309Y0122733D01*
X0011198Y0122661D01*
X0011123Y0122552D01*
X0011097Y0122422D01*
X0000377Y0122422D01*
X0000377Y0129329D01*
X0007608Y0129329D01*
X0007608Y0125975D01*
X0017919Y0125975D01*
X0017919Y0129329D01*
X0007608Y0129329D01*
X0000377Y0129329D01*
X0000377Y0129665D01*
X0039755Y0129665D01*
X0039755Y0080127D01*
X0039755Y0080127D01*
G37*
X0039755Y0080127D02*
X0000377Y0080127D01*
X0000377Y0084946D01*
X0011739Y0084946D01*
X0012039Y0084220D01*
X0012595Y0083663D01*
X0013321Y0083361D01*
X0014108Y0083361D01*
X0014834Y0083661D01*
X0015391Y0084217D01*
X0015693Y0084943D01*
X0015693Y0084946D01*
X0024439Y0084946D01*
X0024739Y0084220D01*
X0025295Y0083663D01*
X0026021Y0083361D01*
X0026808Y0083361D01*
X0027534Y0083661D01*
X0028091Y0084217D01*
X0028393Y0084943D01*
X0028393Y0085730D01*
X0028093Y0086456D01*
X0027537Y0087013D01*
X0026811Y0087315D01*
X0026024Y0087315D01*
X0025298Y0087015D01*
X0024741Y0086459D01*
X0024439Y0085733D01*
X0024439Y0084946D01*
X0015693Y0084946D01*
X0015693Y0085730D01*
X0015393Y0086456D01*
X0014837Y0087013D01*
X0014111Y0087315D01*
X0013324Y0087315D01*
X0012598Y0087015D01*
X0012041Y0086459D01*
X0011739Y0085733D01*
X0011739Y0084946D01*
X0000377Y0084946D01*
X0000377Y0091180D01*
X0009319Y0091180D01*
X0009319Y0089783D01*
X0009320Y0089778D01*
X0009320Y0089470D01*
X0009319Y0089466D01*
X0009319Y0088069D01*
X0009341Y0087947D01*
X0009413Y0087836D01*
X0009522Y0087761D01*
X0009652Y0087735D01*
X0010541Y0087735D01*
X0010662Y0087758D01*
X0010773Y0087830D01*
X0010779Y0087837D01*
X0011098Y0087517D01*
X0011641Y0087291D01*
X0012229Y0087291D01*
X0012772Y0087515D01*
X0013187Y0087930D01*
X0013413Y0088473D01*
X0013413Y0089061D01*
X0013189Y0089604D01*
X0012774Y0090019D01*
X0012231Y0090245D01*
X0011643Y0090245D01*
X0011100Y0090021D01*
X0010874Y0089795D01*
X0010874Y0091180D01*
X0010852Y0091301D01*
X0010780Y0091412D01*
X0010671Y0091487D01*
X0010541Y0091513D01*
X0009652Y0091513D01*
X0009531Y0091491D01*
X0009420Y0091419D01*
X0009345Y0091310D01*
X0009319Y0091180D01*
X0000377Y0091180D01*
X0000377Y0109776D01*
X0000439Y0109776D01*
X0000439Y0109776D01*
X0000439Y0107675D01*
X0000439Y0107675D01*
X0000483Y0107455D01*
X0000608Y0107267D01*
X0001568Y0106307D01*
X0001568Y0106307D01*
X0001756Y0106182D01*
X0001771Y0106179D01*
X0001638Y0106046D01*
X0001534Y0106003D01*
X0001317Y0105786D01*
X0001199Y0105502D01*
X0001199Y0105195D01*
X0001316Y0104911D01*
X0001533Y0104694D01*
X0001817Y0104576D01*
X0002124Y0104576D01*
X0002408Y0104693D01*
X0002625Y0104910D01*
X0002627Y0104914D01*
X0002673Y0104883D01*
X0002802Y0104857D01*
X0002866Y0104857D01*
X0002866Y0104596D01*
X0002816Y0104563D01*
X0002741Y0104454D01*
X0002715Y0104325D01*
X0002715Y0102928D01*
X0002737Y0102806D01*
X0002809Y0102695D01*
X0002918Y0102620D01*
X0003048Y0102594D01*
X0003937Y0102594D01*
X0004058Y0102617D01*
X0004169Y0102689D01*
X0004244Y0102798D01*
X0004255Y0102849D01*
X0005768Y0102849D01*
X0005805Y0102834D01*
X0005934Y0102834D01*
X0005959Y0102829D01*
X0005984Y0102834D01*
X0006112Y0102834D01*
X0006231Y0102883D01*
X0006256Y0102888D01*
X0006277Y0102902D01*
X0006396Y0102951D01*
X0006487Y0103042D01*
X0006508Y0103056D01*
X0006522Y0103077D01*
X0006613Y0103168D01*
X0006662Y0103287D01*
X0006677Y0103308D01*
X0006682Y0103333D01*
X0006731Y0103451D01*
X0006731Y0103580D01*
X0006736Y0103606D01*
X0006731Y0103631D01*
X0006731Y0103759D01*
X0006682Y0103878D01*
X0006677Y0103903D01*
X0006663Y0103924D01*
X0006614Y0104042D01*
X0006523Y0104134D01*
X0006508Y0104155D01*
X0006488Y0104175D01*
X0006467Y0104190D01*
X0006397Y0104260D01*
X0006304Y0104298D01*
X0006236Y0104344D01*
X0006156Y0104360D01*
X0006113Y0104378D01*
X0006066Y0104378D01*
X0005939Y0104403D01*
X0004256Y0104403D01*
X0004248Y0104446D01*
X0004176Y0104557D01*
X0004120Y0104596D01*
X0004120Y0104857D01*
X0004302Y0104857D01*
X0004424Y0104879D01*
X0004535Y0104951D01*
X0004610Y0105060D01*
X0004636Y0105190D01*
X0004636Y0105640D01*
X0004616Y0105744D01*
X0004636Y0105840D01*
X0004636Y0106290D01*
X0004616Y0106394D01*
X0004636Y0106490D01*
X0004636Y0106686D01*
X0007034Y0104288D01*
X0007034Y0099060D01*
X0006970Y0099159D01*
X0006861Y0099234D01*
X0006731Y0099260D01*
X0005207Y0099260D01*
X0005086Y0099238D01*
X0004975Y0099166D01*
X0004900Y0099057D01*
X0004877Y0098942D01*
X0004522Y0098942D01*
X0004502Y0099048D01*
X0004430Y0099159D01*
X0004321Y0099234D01*
X0004191Y0099260D01*
X0002667Y0099260D01*
X0002546Y0099238D01*
X0002435Y0099166D01*
X0002360Y0099057D01*
X0002334Y0098927D01*
X0002334Y0097403D01*
X0002356Y0097282D01*
X0002428Y0097171D01*
X0002537Y0097096D01*
X0002667Y0097070D01*
X0004191Y0097070D01*
X0004312Y0097092D01*
X0004423Y0097164D01*
X0004498Y0097273D01*
X0004521Y0097388D01*
X0004876Y0097388D01*
X0004896Y0097282D01*
X0004968Y0097171D01*
X0005077Y0097096D01*
X0005207Y0097070D01*
X0006731Y0097070D01*
X0006852Y0097092D01*
X0006963Y0097164D01*
X0007038Y0097273D01*
X0007064Y0097403D01*
X0007064Y0097638D01*
X0007131Y0097638D01*
X0007333Y0097678D01*
X0007504Y0097792D01*
X0007775Y0098064D01*
X0008103Y0098064D01*
X0008150Y0098016D01*
X0008321Y0097902D01*
X0008523Y0097862D01*
X0008605Y0097862D01*
X0008612Y0097823D01*
X0008684Y0097712D01*
X0008793Y0097637D01*
X0008923Y0097611D01*
X0010320Y0097611D01*
X0010441Y0097633D01*
X0010552Y0097705D01*
X0010627Y0097814D01*
X0010653Y0097944D01*
X0010653Y0098833D01*
X0010631Y0098954D01*
X0010559Y0099065D01*
X0010450Y0099140D01*
X0010320Y0099166D01*
X0008923Y0099166D01*
X0008802Y0099144D01*
X0008691Y0099072D01*
X0008640Y0098999D01*
X0008523Y0099077D01*
X0008321Y0099118D01*
X0008088Y0099118D01*
X0008088Y0100614D01*
X0008921Y0099780D01*
X0009092Y0099666D01*
X0009294Y0099626D01*
X0010389Y0099626D01*
X0011030Y0098984D01*
X0011030Y0097699D01*
X0011050Y0097601D01*
X0010866Y0097601D01*
X0010582Y0097484D01*
X0010364Y0097267D01*
X0010359Y0097254D01*
X0010320Y0097261D01*
X0008923Y0097261D01*
X0008802Y0097239D01*
X0008691Y0097167D01*
X0008616Y0097058D01*
X0008590Y0096928D01*
X0008590Y0096338D01*
X0008503Y0096252D01*
X0007064Y0096252D01*
X0007064Y0096387D01*
X0007042Y0096508D01*
X0006970Y0096619D01*
X0006861Y0096694D01*
X0006731Y0096720D01*
X0005207Y0096720D01*
X0005086Y0096698D01*
X0004975Y0096626D01*
X0004900Y0096517D01*
X0004874Y0096387D01*
X0004874Y0096252D01*
X0004524Y0096252D01*
X0004524Y0096387D01*
X0004502Y0096508D01*
X0004430Y0096619D01*
X0004321Y0096694D01*
X0004191Y0096720D01*
X0002667Y0096720D01*
X0002546Y0096698D01*
X0002435Y0096626D01*
X0002360Y0096517D01*
X0002334Y0096387D01*
X0002334Y0094863D01*
X0002356Y0094742D01*
X0002428Y0094631D01*
X0002537Y0094556D01*
X0002667Y0094530D01*
X0004191Y0094530D01*
X0004312Y0094552D01*
X0004423Y0094624D01*
X0004498Y0094733D01*
X0004524Y0094863D01*
X0004524Y0094998D01*
X0004874Y0094998D01*
X0004874Y0094863D01*
X0004896Y0094742D01*
X0004968Y0094631D01*
X0005077Y0094556D01*
X0005207Y0094530D01*
X0006731Y0094530D01*
X0006852Y0094552D01*
X0006963Y0094624D01*
X0007038Y0094733D01*
X0007064Y0094863D01*
X0007064Y0094998D01*
X0008557Y0094998D01*
X0008557Y0094546D01*
X0008579Y0094424D01*
X0008651Y0094313D01*
X0008760Y0094238D01*
X0008890Y0094212D01*
X0010287Y0094212D01*
X0010408Y0094235D01*
X0010442Y0094256D01*
X0010442Y0093820D01*
X0010417Y0093837D01*
X0010287Y0093863D01*
X0008890Y0093863D01*
X0008885Y0093862D01*
X0007062Y0093862D01*
X0007042Y0093968D01*
X0006970Y0094079D01*
X0006861Y0094154D01*
X0006731Y0094180D01*
X0005207Y0094180D01*
X0005086Y0094158D01*
X0004975Y0094086D01*
X0004900Y0093977D01*
X0004877Y0093862D01*
X0004522Y0093862D01*
X0004502Y0093968D01*
X0004430Y0094079D01*
X0004321Y0094154D01*
X0004191Y0094180D01*
X0002667Y0094180D01*
X0002546Y0094158D01*
X0002435Y0094086D01*
X0002360Y0093977D01*
X0002334Y0093847D01*
X0002334Y0092323D01*
X0002356Y0092202D01*
X0002428Y0092091D01*
X0002537Y0092016D01*
X0002667Y0091990D01*
X0004191Y0091990D01*
X0004312Y0092012D01*
X0004423Y0092084D01*
X0004498Y0092193D01*
X0004521Y0092308D01*
X0004876Y0092308D01*
X0004896Y0092202D01*
X0004968Y0092091D01*
X0005077Y0092016D01*
X0005207Y0091990D01*
X0006731Y0091990D01*
X0006852Y0092012D01*
X0006963Y0092084D01*
X0007038Y0092193D01*
X0007061Y0092308D01*
X0008886Y0092308D01*
X0008890Y0092307D01*
X0010287Y0092307D01*
X0010408Y0092330D01*
X0010442Y0092351D01*
X0010442Y0092021D01*
X0010442Y0092021D01*
X0010485Y0091800D01*
X0010611Y0091613D01*
X0011507Y0090716D01*
X0011694Y0090591D01*
X0011915Y0090547D01*
X0011915Y0090548D01*
X0013470Y0090548D01*
X0013470Y0090547D01*
X0013691Y0090591D01*
X0013878Y0090716D01*
X0014433Y0091271D01*
X0014465Y0091249D01*
X0014511Y0091218D01*
X0014723Y0091176D01*
X0014802Y0091097D01*
X0015086Y0090980D01*
X0015393Y0090979D01*
X0015677Y0091097D01*
X0015894Y0091314D01*
X0016012Y0091597D01*
X0016012Y0091904D01*
X0015895Y0092188D01*
X0015678Y0092406D01*
X0015394Y0092523D01*
X0015192Y0092524D01*
X0015192Y0093022D01*
X0015170Y0093143D01*
X0015098Y0093254D01*
X0014989Y0093329D01*
X0014859Y0093355D01*
X0013970Y0093355D01*
X0013849Y0093332D01*
X0013738Y0093260D01*
X0013663Y0093151D01*
X0013637Y0093022D01*
X0013637Y0092107D01*
X0013287Y0091758D01*
X0013287Y0093022D01*
X0013265Y0093143D01*
X0013193Y0093254D01*
X0013087Y0093327D01*
X0013087Y0093401D01*
X0013419Y0093401D01*
X0013815Y0093564D01*
X0014119Y0093867D01*
X0014283Y0094263D01*
X0014283Y0094691D01*
X0014132Y0095057D01*
X0014171Y0095057D01*
X0014373Y0094855D01*
X0014373Y0094855D01*
X0014453Y0094775D01*
X0014419Y0094693D01*
X0014419Y0094265D01*
X0014582Y0093869D01*
X0014885Y0093565D01*
X0015281Y0093401D01*
X0015709Y0093401D01*
X0016105Y0093564D01*
X0016409Y0093867D01*
X0016499Y0094085D01*
X0016499Y0090635D01*
X0016313Y0090635D01*
X0015953Y0090487D01*
X0015678Y0090212D01*
X0015529Y0089853D01*
X0015529Y0089465D01*
X0015677Y0089105D01*
X0015952Y0088830D01*
X0016311Y0088681D01*
X0016699Y0088681D01*
X0017049Y0088825D01*
X0017049Y0088738D01*
X0016973Y0088707D01*
X0016698Y0088432D01*
X0016549Y0088073D01*
X0016549Y0087685D01*
X0016697Y0087325D01*
X0016972Y0087050D01*
X0017331Y0086901D01*
X0017719Y0086901D01*
X0018079Y0087049D01*
X0018354Y0087324D01*
X0018503Y0087683D01*
X0018503Y0088071D01*
X0018355Y0088431D01*
X0018080Y0088706D01*
X0018003Y0088738D01*
X0018003Y0088821D01*
X0018341Y0088681D01*
X0018729Y0088681D01*
X0019089Y0088829D01*
X0019151Y0088892D01*
X0019216Y0088795D01*
X0019460Y0088551D01*
X0019607Y0088453D01*
X0019780Y0088419D01*
X0019796Y0088419D01*
X0020006Y0088208D01*
X0020152Y0088110D01*
X0020325Y0088076D01*
X0020610Y0088076D01*
X0020609Y0088073D01*
X0020609Y0087685D01*
X0020757Y0087325D01*
X0021032Y0087050D01*
X0021391Y0086901D01*
X0021779Y0086901D01*
X0022139Y0087049D01*
X0022414Y0087324D01*
X0022563Y0087683D01*
X0022563Y0088071D01*
X0022415Y0088431D01*
X0022140Y0088706D01*
X0021781Y0088855D01*
X0021393Y0088855D01*
X0021290Y0088813D01*
X0021256Y0088848D01*
X0021185Y0088895D01*
X0021394Y0089104D01*
X0021543Y0089463D01*
X0021543Y0089465D01*
X0021619Y0089465D01*
X0021767Y0089105D01*
X0022042Y0088830D01*
X0022401Y0088681D01*
X0022789Y0088681D01*
X0023139Y0088825D01*
X0023139Y0088738D01*
X0023063Y0088707D01*
X0022788Y0088432D01*
X0022639Y0088073D01*
X0022639Y0087685D01*
X0022787Y0087325D01*
X0023062Y0087050D01*
X0023421Y0086901D01*
X0023809Y0086901D01*
X0024169Y0087049D01*
X0024444Y0087324D01*
X0024593Y0087683D01*
X0024593Y0088071D01*
X0024445Y0088431D01*
X0024400Y0088475D01*
X0026719Y0088475D01*
X0026943Y0087932D01*
X0027358Y0087517D01*
X0027901Y0087291D01*
X0028489Y0087291D01*
X0029032Y0087515D01*
X0029447Y0087930D01*
X0029673Y0088473D01*
X0029673Y0089061D01*
X0029449Y0089604D01*
X0029034Y0090019D01*
X0028491Y0090245D01*
X0027903Y0090245D01*
X0027360Y0090021D01*
X0026945Y0089606D01*
X0026719Y0089063D01*
X0026719Y0088475D01*
X0024400Y0088475D01*
X0024170Y0088706D01*
X0024093Y0088738D01*
X0024093Y0091045D01*
X0024130Y0091037D01*
X0025019Y0091037D01*
X0025140Y0091060D01*
X0025251Y0091132D01*
X0025326Y0091241D01*
X0025352Y0091371D01*
X0025352Y0091713D01*
X0025410Y0091851D01*
X0025410Y0092158D01*
X0025352Y0092298D01*
X0025352Y0092768D01*
X0025330Y0092889D01*
X0025258Y0093000D01*
X0025149Y0093075D01*
X0025019Y0093101D01*
X0024130Y0093101D01*
X0024093Y0093094D01*
X0024093Y0093537D01*
X0024421Y0093401D01*
X0024849Y0093401D01*
X0024883Y0093415D01*
X0025702Y0092596D01*
X0025702Y0091371D01*
X0025724Y0091249D01*
X0025796Y0091138D01*
X0025905Y0091063D01*
X0026035Y0091037D01*
X0026924Y0091037D01*
X0027045Y0091060D01*
X0027156Y0091132D01*
X0027231Y0091241D01*
X0027257Y0091371D01*
X0027257Y0092704D01*
X0034211Y0092704D01*
X0034211Y0091180D01*
X0034233Y0091059D01*
X0034305Y0090948D01*
X0034414Y0090873D01*
X0034544Y0090847D01*
X0036068Y0090847D01*
X0036189Y0090869D01*
X0036300Y0090941D01*
X0036375Y0091050D01*
X0036401Y0091180D01*
X0036401Y0092704D01*
X0036751Y0092704D01*
X0036751Y0091180D01*
X0036773Y0091059D01*
X0036845Y0090948D01*
X0036954Y0090873D01*
X0037084Y0090847D01*
X0038608Y0090847D01*
X0038729Y0090869D01*
X0038840Y0090941D01*
X0038915Y0091050D01*
X0038941Y0091180D01*
X0038941Y0092704D01*
X0038919Y0092825D01*
X0038847Y0092936D01*
X0038738Y0093011D01*
X0038608Y0093037D01*
X0037084Y0093037D01*
X0036963Y0093015D01*
X0036852Y0092943D01*
X0036777Y0092834D01*
X0036751Y0092704D01*
X0036401Y0092704D01*
X0036379Y0092825D01*
X0036307Y0092936D01*
X0036198Y0093011D01*
X0036068Y0093037D01*
X0034544Y0093037D01*
X0034423Y0093015D01*
X0034312Y0092943D01*
X0034237Y0092834D01*
X0034211Y0092704D01*
X0027257Y0092704D01*
X0027257Y0092768D01*
X0027235Y0092889D01*
X0027163Y0093000D01*
X0027054Y0093075D01*
X0026924Y0093101D01*
X0026829Y0093101D01*
X0026400Y0093530D01*
X0026711Y0093401D01*
X0027139Y0093401D01*
X0027535Y0093564D01*
X0027839Y0093867D01*
X0028003Y0094263D01*
X0028003Y0094691D01*
X0027840Y0095087D01*
X0027537Y0095391D01*
X0027141Y0095555D01*
X0026713Y0095555D01*
X0026317Y0095392D01*
X0026013Y0095089D01*
X0025849Y0094693D01*
X0025849Y0094265D01*
X0025978Y0093952D01*
X0025699Y0094231D01*
X0025713Y0094263D01*
X0025713Y0094691D01*
X0025550Y0095087D01*
X0025247Y0095391D01*
X0024851Y0095555D01*
X0024742Y0095555D01*
X0025128Y0095941D01*
X0025558Y0095941D01*
X0025741Y0095977D01*
X0025895Y0096081D01*
X0026249Y0096435D01*
X0027432Y0096435D01*
X0027553Y0096457D01*
X0027664Y0096529D01*
X0027739Y0096638D01*
X0027765Y0096768D01*
X0027765Y0097291D01*
X0029513Y0097291D01*
X0029513Y0094792D01*
X0029536Y0094671D01*
X0029607Y0094559D01*
X0029717Y0094485D01*
X0029846Y0094458D01*
X0033146Y0094458D01*
X0033267Y0094481D01*
X0033378Y0094553D01*
X0033453Y0094662D01*
X0033479Y0094792D01*
X0033479Y0095244D01*
X0034211Y0095244D01*
X0034211Y0093720D01*
X0034233Y0093599D01*
X0034305Y0093488D01*
X0034414Y0093413D01*
X0034544Y0093387D01*
X0036068Y0093387D01*
X0036189Y0093409D01*
X0036300Y0093481D01*
X0036375Y0093590D01*
X0036401Y0093720D01*
X0036401Y0095244D01*
X0036751Y0095244D01*
X0036751Y0093720D01*
X0036773Y0093599D01*
X0036845Y0093488D01*
X0036954Y0093413D01*
X0037084Y0093387D01*
X0038608Y0093387D01*
X0038729Y0093409D01*
X0038840Y0093481D01*
X0038915Y0093590D01*
X0038941Y0093720D01*
X0038941Y0095244D01*
X0038919Y0095365D01*
X0038847Y0095476D01*
X0038738Y0095551D01*
X0038608Y0095577D01*
X0037084Y0095577D01*
X0036963Y0095555D01*
X0036852Y0095483D01*
X0036777Y0095374D01*
X0036751Y0095244D01*
X0036401Y0095244D01*
X0036379Y0095365D01*
X0036307Y0095476D01*
X0036198Y0095551D01*
X0036068Y0095577D01*
X0034544Y0095577D01*
X0034423Y0095555D01*
X0034312Y0095483D01*
X0034237Y0095374D01*
X0034211Y0095244D01*
X0033479Y0095244D01*
X0033479Y0097291D01*
X0033456Y0097412D01*
X0033385Y0097524D01*
X0033275Y0097598D01*
X0033146Y0097625D01*
X0032273Y0097625D01*
X0032273Y0097828D01*
X0032297Y0097852D01*
X0034056Y0097852D01*
X0034177Y0097875D01*
X0034289Y0097946D01*
X0034363Y0098056D01*
X0034390Y0098185D01*
X0034390Y0100685D01*
X0034367Y0100806D01*
X0034295Y0100917D01*
X0034186Y0100992D01*
X0034056Y0101018D01*
X0033558Y0101018D01*
X0033558Y0101578D01*
X0033719Y0101578D01*
X0033840Y0101601D01*
X0033951Y0101673D01*
X0034026Y0101782D01*
X0034052Y0101912D01*
X0034052Y0103436D01*
X0034401Y0103436D01*
X0034401Y0101912D01*
X0034424Y0101790D01*
X0034496Y0101679D01*
X0034605Y0101604D01*
X0034735Y0101578D01*
X0036259Y0101578D01*
X0036380Y0101601D01*
X0036491Y0101673D01*
X0036566Y0101782D01*
X0036592Y0101912D01*
X0036592Y0103436D01*
X0036569Y0103557D01*
X0036497Y0103668D01*
X0036388Y0103743D01*
X0036259Y0103769D01*
X0034735Y0103769D01*
X0034613Y0103746D01*
X0034502Y0103674D01*
X0034427Y0103565D01*
X0034401Y0103436D01*
X0034052Y0103436D01*
X0034029Y0103557D01*
X0033957Y0103668D01*
X0033848Y0103743D01*
X0033719Y0103769D01*
X0033670Y0103769D01*
X0033670Y0104075D01*
X0033708Y0104131D01*
X0033734Y0104261D01*
X0033734Y0106293D01*
X0033712Y0106414D01*
X0033640Y0106525D01*
X0033531Y0106600D01*
X0033401Y0106626D01*
X0032385Y0106626D01*
X0032264Y0106604D01*
X0032153Y0106532D01*
X0032078Y0106423D01*
X0032052Y0106293D01*
X0032052Y0105610D01*
X0031310Y0105610D01*
X0031306Y0105610D01*
X0029909Y0105610D01*
X0029787Y0105588D01*
X0029676Y0105516D01*
X0029601Y0105407D01*
X0029575Y0105277D01*
X0029575Y0104388D01*
X0029598Y0104267D01*
X0029670Y0104156D01*
X0029779Y0104081D01*
X0029909Y0104055D01*
X0031306Y0104055D01*
X0031310Y0104056D01*
X0032116Y0104056D01*
X0032116Y0103754D01*
X0032073Y0103746D01*
X0031962Y0103674D01*
X0031887Y0103565D01*
X0031861Y0103436D01*
X0031861Y0101912D01*
X0031884Y0101790D01*
X0031956Y0101679D01*
X0032004Y0101646D01*
X0032004Y0101018D01*
X0031506Y0101018D01*
X0031385Y0100995D01*
X0031274Y0100924D01*
X0031199Y0100814D01*
X0031173Y0100685D01*
X0031173Y0098925D01*
X0030947Y0098699D01*
X0030778Y0098447D01*
X0030719Y0098150D01*
X0030719Y0097625D01*
X0029846Y0097625D01*
X0029725Y0097602D01*
X0029614Y0097530D01*
X0029539Y0097421D01*
X0029513Y0097291D01*
X0027765Y0097291D01*
X0027765Y0098292D01*
X0027743Y0098413D01*
X0027671Y0098524D01*
X0027562Y0098599D01*
X0027432Y0098625D01*
X0027147Y0098625D01*
X0027147Y0098975D01*
X0027432Y0098975D01*
X0027553Y0098997D01*
X0027664Y0099069D01*
X0027739Y0099178D01*
X0027765Y0099308D01*
X0027765Y0100832D01*
X0027743Y0100953D01*
X0027671Y0101064D01*
X0027562Y0101139D01*
X0027432Y0101165D01*
X0026322Y0101165D01*
X0026322Y0105648D01*
X0026569Y0105648D01*
X0026853Y0105765D01*
X0027070Y0105982D01*
X0027188Y0106266D01*
X0027188Y0106286D01*
X0027422Y0106286D01*
X0027439Y0106197D01*
X0027511Y0106086D01*
X0027620Y0106011D01*
X0027750Y0105985D01*
X0027871Y0105985D01*
X0027871Y0105712D01*
X0027750Y0105712D01*
X0027628Y0105689D01*
X0027517Y0105618D01*
X0027442Y0105508D01*
X0027416Y0105379D01*
X0027416Y0104490D01*
X0027439Y0104368D01*
X0027511Y0104257D01*
X0027620Y0104182D01*
X0027750Y0104156D01*
X0029147Y0104156D01*
X0029268Y0104179D01*
X0029379Y0104251D01*
X0029454Y0104360D01*
X0029480Y0104490D01*
X0029480Y0105379D01*
X0029457Y0105500D01*
X0029385Y0105611D01*
X0029276Y0105686D01*
X0029147Y0105712D01*
X0029025Y0105712D01*
X0029025Y0105985D01*
X0029147Y0105985D01*
X0029268Y0106008D01*
X0029379Y0106079D01*
X0029454Y0106189D01*
X0029480Y0106318D01*
X0029480Y0107207D01*
X0029457Y0107329D01*
X0029385Y0107440D01*
X0029276Y0107515D01*
X0029147Y0107541D01*
X0027750Y0107541D01*
X0027740Y0107539D01*
X0028091Y0107890D01*
X0029147Y0107890D01*
X0029268Y0107913D01*
X0029379Y0107984D01*
X0029454Y0108094D01*
X0029480Y0108223D01*
X0029480Y0109112D01*
X0029457Y0109234D01*
X0029385Y0109345D01*
X0029276Y0109420D01*
X0029228Y0109429D01*
X0029268Y0109437D01*
X0029379Y0109508D01*
X0029454Y0109618D01*
X0029480Y0109747D01*
X0029480Y0110636D01*
X0029457Y0110758D01*
X0029385Y0110869D01*
X0029276Y0110944D01*
X0029147Y0110970D01*
X0027750Y0110970D01*
X0027628Y0110947D01*
X0027517Y0110875D01*
X0027442Y0110766D01*
X0027416Y0110636D01*
X0027416Y0109747D01*
X0027439Y0109626D01*
X0027511Y0109515D01*
X0027620Y0109440D01*
X0027668Y0109430D01*
X0027628Y0109423D01*
X0027517Y0109351D01*
X0027442Y0109242D01*
X0027416Y0109112D01*
X0027416Y0108565D01*
X0026666Y0107815D01*
X0026113Y0107815D01*
X0025961Y0107967D01*
X0025677Y0108085D01*
X0025370Y0108086D01*
X0025086Y0107968D01*
X0024869Y0107751D01*
X0024751Y0107468D01*
X0024751Y0107216D01*
X0024740Y0107206D01*
X0024637Y0107051D01*
X0024601Y0106868D01*
X0024601Y0105345D01*
X0024637Y0105163D01*
X0024740Y0105008D01*
X0024796Y0104952D01*
X0024796Y0102554D01*
X0023793Y0101550D01*
X0023689Y0101396D01*
X0023653Y0101213D01*
X0023653Y0101165D01*
X0023368Y0101165D01*
X0023247Y0101143D01*
X0023136Y0101071D01*
X0023061Y0100962D01*
X0023035Y0100832D01*
X0023035Y0099308D01*
X0023057Y0099187D01*
X0023129Y0099076D01*
X0023238Y0099001D01*
X0023368Y0098975D01*
X0023653Y0098975D01*
X0023653Y0098625D01*
X0023368Y0098625D01*
X0023247Y0098603D01*
X0023136Y0098531D01*
X0023061Y0098422D01*
X0023035Y0098292D01*
X0023035Y0096768D01*
X0023057Y0096647D01*
X0023129Y0096536D01*
X0023238Y0096461D01*
X0023368Y0096435D01*
X0023495Y0096435D01*
X0022729Y0095668D01*
X0022694Y0095617D01*
X0022649Y0095571D01*
X0022545Y0095416D01*
X0022509Y0095234D01*
X0022509Y0093722D01*
X0022545Y0093540D01*
X0022589Y0093474D01*
X0022589Y0090635D01*
X0022403Y0090635D01*
X0022043Y0090487D01*
X0021768Y0090212D01*
X0021619Y0089853D01*
X0021619Y0089465D01*
X0021543Y0089465D01*
X0021543Y0089851D01*
X0021395Y0090211D01*
X0021120Y0090486D01*
X0020761Y0090635D01*
X0020373Y0090635D01*
X0020013Y0090487D01*
X0019925Y0090398D01*
X0019873Y0090475D01*
X0019563Y0090786D01*
X0019563Y0094828D01*
X0021169Y0096435D01*
X0022352Y0096435D01*
X0022473Y0096457D01*
X0022584Y0096529D01*
X0022659Y0096638D01*
X0022685Y0096768D01*
X0022685Y0098292D01*
X0022663Y0098413D01*
X0022591Y0098524D01*
X0022482Y0098599D01*
X0022352Y0098625D01*
X0022067Y0098625D01*
X0022067Y0098975D01*
X0022352Y0098975D01*
X0022473Y0098997D01*
X0022584Y0099069D01*
X0022659Y0099178D01*
X0022685Y0099308D01*
X0022685Y0100832D01*
X0022663Y0100953D01*
X0022591Y0101064D01*
X0022482Y0101139D01*
X0022352Y0101165D01*
X0021623Y0101165D01*
X0021623Y0105382D01*
X0021627Y0105384D01*
X0021844Y0105601D01*
X0021962Y0105884D01*
X0021962Y0106181D01*
X0022043Y0106262D01*
X0022075Y0106213D01*
X0022184Y0106138D01*
X0022314Y0106112D01*
X0022435Y0106112D01*
X0022435Y0105839D01*
X0022314Y0105839D01*
X0022193Y0105816D01*
X0022081Y0105745D01*
X0022007Y0105635D01*
X0021980Y0105506D01*
X0021980Y0104617D01*
X0022003Y0104495D01*
X0022075Y0104384D01*
X0022184Y0104309D01*
X0022314Y0104283D01*
X0023711Y0104283D01*
X0023832Y0104306D01*
X0023943Y0104378D01*
X0024018Y0104487D01*
X0024044Y0104617D01*
X0024044Y0105506D01*
X0024022Y0105627D01*
X0023950Y0105738D01*
X0023841Y0105813D01*
X0023711Y0105839D01*
X0023589Y0105839D01*
X0023589Y0106112D01*
X0023711Y0106112D01*
X0023832Y0106135D01*
X0023943Y0106206D01*
X0024018Y0106316D01*
X0024044Y0106445D01*
X0024044Y0107334D01*
X0024022Y0107456D01*
X0023950Y0107567D01*
X0023841Y0107642D01*
X0023711Y0107668D01*
X0022369Y0107668D01*
X0022677Y0107975D01*
X0023012Y0107975D01*
X0023195Y0108011D01*
X0023203Y0108017D01*
X0023711Y0108017D01*
X0023832Y0108040D01*
X0023943Y0108111D01*
X0024018Y0108221D01*
X0024044Y0108350D01*
X0024044Y0109239D01*
X0024022Y0109361D01*
X0023950Y0109472D01*
X0023841Y0109547D01*
X0023792Y0109556D01*
X0023832Y0109564D01*
X0023943Y0109635D01*
X0024018Y0109745D01*
X0024044Y0109874D01*
X0024044Y0110763D01*
X0024022Y0110885D01*
X0023950Y0110996D01*
X0023841Y0111071D01*
X0023711Y0111097D01*
X0022314Y0111097D01*
X0022193Y0111074D01*
X0022081Y0111002D01*
X0022007Y0110893D01*
X0021980Y0110763D01*
X0021980Y0109874D01*
X0022003Y0109753D01*
X0022075Y0109642D01*
X0022184Y0109567D01*
X0022232Y0109557D01*
X0022193Y0109550D01*
X0022081Y0109478D01*
X0022007Y0109369D01*
X0021980Y0109239D01*
X0021980Y0108628D01*
X0019954Y0106602D01*
X0019851Y0106447D01*
X0019814Y0106264D01*
X0019814Y0105962D01*
X0019662Y0105809D01*
X0019544Y0105525D01*
X0019543Y0105218D01*
X0019661Y0104935D01*
X0019780Y0104816D01*
X0019780Y0101474D01*
X0019471Y0101165D01*
X0018288Y0101165D01*
X0018167Y0101143D01*
X0018056Y0101071D01*
X0017981Y0100962D01*
X0017955Y0100832D01*
X0017955Y0099308D01*
X0017977Y0099187D01*
X0018049Y0099076D01*
X0018158Y0099001D01*
X0018288Y0098975D01*
X0018573Y0098975D01*
X0018573Y0098625D01*
X0018288Y0098625D01*
X0018167Y0098603D01*
X0018056Y0098531D01*
X0017981Y0098422D01*
X0017955Y0098292D01*
X0017955Y0096768D01*
X0017977Y0096647D01*
X0018049Y0096536D01*
X0018158Y0096461D01*
X0018288Y0096435D01*
X0018573Y0096435D01*
X0018573Y0095965D01*
X0018199Y0095591D01*
X0018095Y0095436D01*
X0018059Y0095254D01*
X0018059Y0090518D01*
X0018003Y0090495D01*
X0018003Y0094854D01*
X0017967Y0095036D01*
X0017863Y0095191D01*
X0016987Y0096067D01*
X0016987Y0096435D01*
X0017272Y0096435D01*
X0017393Y0096457D01*
X0017504Y0096529D01*
X0017579Y0096638D01*
X0017605Y0096768D01*
X0017605Y0098292D01*
X0017583Y0098413D01*
X0017511Y0098524D01*
X0017402Y0098599D01*
X0017272Y0098625D01*
X0016987Y0098625D01*
X0016987Y0098975D01*
X0017272Y0098975D01*
X0017393Y0098997D01*
X0017504Y0099069D01*
X0017579Y0099178D01*
X0017605Y0099308D01*
X0017605Y0100832D01*
X0017583Y0100953D01*
X0017511Y0101064D01*
X0017402Y0101139D01*
X0017272Y0101165D01*
X0016089Y0101165D01*
X0014947Y0102308D01*
X0014947Y0106605D01*
X0015563Y0107221D01*
X0015563Y0107222D01*
X0015573Y0107232D01*
X0015824Y0107232D01*
X0016107Y0107349D01*
X0016263Y0107504D01*
X0016659Y0107108D01*
X0016659Y0106560D01*
X0016682Y0106439D01*
X0016754Y0106327D01*
X0016806Y0106291D01*
X0016786Y0106278D01*
X0016711Y0106169D01*
X0016685Y0106039D01*
X0016685Y0105150D01*
X0016707Y0105029D01*
X0016779Y0104918D01*
X0016888Y0104843D01*
X0017018Y0104817D01*
X0018415Y0104817D01*
X0018536Y0104839D01*
X0018647Y0104911D01*
X0018722Y0105020D01*
X0018748Y0105150D01*
X0018748Y0106039D01*
X0018726Y0106160D01*
X0018654Y0106271D01*
X0018601Y0106307D01*
X0018622Y0106321D01*
X0018697Y0106430D01*
X0018723Y0106560D01*
X0018723Y0107449D01*
X0018700Y0107570D01*
X0018629Y0107681D01*
X0018519Y0107756D01*
X0018390Y0107782D01*
X0017334Y0107782D01*
X0016983Y0108133D01*
X0016993Y0108131D01*
X0018390Y0108131D01*
X0018511Y0108154D01*
X0018622Y0108226D01*
X0018697Y0108335D01*
X0018723Y0108465D01*
X0018723Y0109354D01*
X0018700Y0109475D01*
X0018629Y0109586D01*
X0018519Y0109661D01*
X0018390Y0109687D01*
X0018268Y0109687D01*
X0018268Y0109770D01*
X0018402Y0109770D01*
X0018523Y0109792D01*
X0018635Y0109864D01*
X0018709Y0109973D01*
X0018736Y0110103D01*
X0018736Y0110992D01*
X0018713Y0111113D01*
X0018641Y0111224D01*
X0018532Y0111299D01*
X0018402Y0111325D01*
X0017005Y0111325D01*
X0016884Y0111303D01*
X0016773Y0111231D01*
X0016698Y0111122D01*
X0016672Y0110992D01*
X0016672Y0110103D01*
X0016695Y0109982D01*
X0016766Y0109871D01*
X0016876Y0109796D01*
X0017005Y0109770D01*
X0017114Y0109770D01*
X0017114Y0109687D01*
X0016993Y0109687D01*
X0016871Y0109664D01*
X0016804Y0109621D01*
X0016537Y0109732D01*
X0016230Y0109732D01*
X0015946Y0109615D01*
X0015768Y0109437D01*
X0015450Y0109437D01*
X0015268Y0109401D01*
X0015113Y0109297D01*
X0014951Y0109135D01*
X0014931Y0109240D01*
X0014859Y0109351D01*
X0014779Y0109406D01*
X0014808Y0109434D01*
X0014911Y0109589D01*
X0014947Y0109771D01*
X0014947Y0110040D01*
X0014954Y0110071D01*
X0014954Y0110521D01*
X0014931Y0110642D01*
X0014859Y0110753D01*
X0014750Y0110828D01*
X0014620Y0110854D01*
X0014321Y0110854D01*
X0014199Y0110831D01*
X0014088Y0110760D01*
X0014013Y0110651D01*
X0013987Y0110521D01*
X0013987Y0110071D01*
X0013993Y0110038D01*
X0013993Y0109969D01*
X0013970Y0109946D01*
X0013927Y0109946D01*
X0013953Y0110071D01*
X0013953Y0110521D01*
X0013930Y0110642D01*
X0013858Y0110753D01*
X0013749Y0110828D01*
X0013619Y0110854D01*
X0013320Y0110854D01*
X0013199Y0110831D01*
X0013108Y0110773D01*
X0012385Y0110773D01*
X0012202Y0110737D01*
X0012048Y0110633D01*
X0011654Y0110240D01*
X0011404Y0110240D01*
X0011120Y0110123D01*
X0010903Y0109906D01*
X0010856Y0109792D01*
X0010536Y0109792D01*
X0010536Y0110190D01*
X0010513Y0110311D01*
X0010441Y0110422D01*
X0010332Y0110497D01*
X0010202Y0110523D01*
X0009979Y0110523D01*
X0009979Y0111494D01*
X0010011Y0111515D01*
X0010086Y0111624D01*
X0010112Y0111754D01*
X0010112Y0113018D01*
X0010462Y0112668D01*
X0010462Y0111754D01*
X0010484Y0111633D01*
X0010556Y0111522D01*
X0010665Y0111447D01*
X0010795Y0111421D01*
X0011684Y0111421D01*
X0011805Y0111443D01*
X0011916Y0111515D01*
X0011991Y0111624D01*
X0012017Y0111754D01*
X0012017Y0113151D01*
X0011995Y0113272D01*
X0011923Y0113383D01*
X0011814Y0113458D01*
X0011684Y0113484D01*
X0011278Y0113484D01*
X0011002Y0113760D01*
X0013987Y0113760D01*
X0014104Y0113476D01*
X0014321Y0113259D01*
X0014605Y0113141D01*
X0014715Y0113141D01*
X0015812Y0112044D01*
X0015999Y0111919D01*
X0016220Y0111875D01*
X0016220Y0111876D01*
X0016702Y0111876D01*
X0016766Y0111776D01*
X0016876Y0111701D01*
X0017005Y0111675D01*
X0018402Y0111675D01*
X0018523Y0111697D01*
X0018635Y0111769D01*
X0018708Y0111876D01*
X0021980Y0111876D01*
X0021980Y0111779D01*
X0022003Y0111658D01*
X0022075Y0111547D01*
X0022184Y0111472D01*
X0022314Y0111446D01*
X0023711Y0111446D01*
X0023832Y0111469D01*
X0023911Y0111520D01*
X0027446Y0111520D01*
X0027511Y0111420D01*
X0027620Y0111345D01*
X0027750Y0111319D01*
X0029147Y0111319D01*
X0029268Y0111342D01*
X0029379Y0111413D01*
X0029454Y0111523D01*
X0029480Y0111652D01*
X0029480Y0112541D01*
X0029457Y0112663D01*
X0029385Y0112774D01*
X0029276Y0112849D01*
X0029147Y0112875D01*
X0027750Y0112875D01*
X0027628Y0112852D01*
X0027517Y0112780D01*
X0027444Y0112674D01*
X0024043Y0112674D01*
X0024022Y0112790D01*
X0023950Y0112901D01*
X0023841Y0112976D01*
X0023711Y0113002D01*
X0022923Y0113002D01*
X0022784Y0113030D01*
X0022784Y0113030D01*
X0018706Y0113030D01*
X0018641Y0113129D01*
X0018532Y0113204D01*
X0018402Y0113230D01*
X0017005Y0113230D01*
X0016884Y0113208D01*
X0016773Y0113136D01*
X0016700Y0113030D01*
X0016459Y0113030D01*
X0015531Y0113957D01*
X0015531Y0114066D01*
X0015414Y0114350D01*
X0015197Y0114567D01*
X0014913Y0114685D01*
X0014606Y0114685D01*
X0014322Y0114568D01*
X0014105Y0114351D01*
X0013987Y0114067D01*
X0013987Y0113760D01*
X0011002Y0113760D01*
X0010233Y0114529D01*
X0010046Y0114654D01*
X0009825Y0114698D01*
X0009825Y0114698D01*
X0009633Y0114698D01*
X0009556Y0114775D01*
X0009273Y0114893D01*
X0008966Y0114893D01*
X0008682Y0114776D01*
X0008642Y0114736D01*
X0008642Y0116636D01*
X0008624Y0116722D01*
X0008598Y0116856D01*
X0008503Y0116997D01*
X0008473Y0117044D01*
X0008472Y0117044D01*
X0007703Y0117814D01*
X0007515Y0117939D01*
X0007295Y0117983D01*
X0007294Y0117983D01*
X0007128Y0117983D01*
X0007128Y0118168D01*
X0007105Y0118289D01*
X0007033Y0118400D01*
X0006924Y0118475D01*
X0006795Y0118501D01*
X0005271Y0118501D01*
X0005149Y0118478D01*
X0005038Y0118406D01*
X0004963Y0118297D01*
X0004937Y0118168D01*
X0004937Y0116644D01*
X0004960Y0116522D01*
X0005032Y0116411D01*
X0005141Y0116336D01*
X0005271Y0116310D01*
X0006795Y0116310D01*
X0006916Y0116333D01*
X0007027Y0116405D01*
X0007102Y0116514D01*
X0007128Y0116644D01*
X0007128Y0116756D01*
X0007488Y0116396D01*
X0007488Y0112770D01*
X0007531Y0112549D01*
X0007656Y0112362D01*
X0007681Y0112346D01*
X0007982Y0112045D01*
X0007982Y0112044D01*
X0008152Y0111931D01*
X0008169Y0111919D01*
X0008390Y0111875D01*
X0008390Y0111876D01*
X0008557Y0111876D01*
X0008557Y0111754D01*
X0008579Y0111633D01*
X0008651Y0111522D01*
X0008760Y0111447D01*
X0008890Y0111421D01*
X0008925Y0111421D01*
X0008925Y0110523D01*
X0008702Y0110523D01*
X0008581Y0110501D01*
X0008470Y0110429D01*
X0008395Y0110320D01*
X0008369Y0110190D01*
X0008369Y0109740D01*
X0008389Y0109636D01*
X0008369Y0109540D01*
X0008369Y0109090D01*
X0008389Y0108986D01*
X0008369Y0108890D01*
X0008369Y0108440D01*
X0008389Y0108336D01*
X0008369Y0108240D01*
X0008369Y0107790D01*
X0008389Y0107686D01*
X0008369Y0107590D01*
X0008369Y0107140D01*
X0008389Y0107036D01*
X0008369Y0106940D01*
X0008369Y0106490D01*
X0008381Y0106424D01*
X0006086Y0108719D01*
X0006405Y0109038D01*
X0006519Y0109209D01*
X0006560Y0109411D01*
X0006560Y0113770D01*
X0006795Y0113770D01*
X0006916Y0113793D01*
X0007027Y0113865D01*
X0007102Y0113974D01*
X0007128Y0114104D01*
X0007128Y0115628D01*
X0007105Y0115749D01*
X0007033Y0115860D01*
X0006924Y0115935D01*
X0006795Y0115961D01*
X0005271Y0115961D01*
X0005149Y0115938D01*
X0005038Y0115866D01*
X0004963Y0115757D01*
X0004937Y0115628D01*
X0004937Y0115393D01*
X0004588Y0115393D01*
X0004588Y0115628D01*
X0004565Y0115749D01*
X0004493Y0115860D01*
X0004384Y0115935D01*
X0004255Y0115961D01*
X0002731Y0115961D01*
X0002609Y0115938D01*
X0002498Y0115866D01*
X0002423Y0115757D01*
X0002397Y0115628D01*
X0002397Y0114104D01*
X0002420Y0113982D01*
X0002492Y0113871D01*
X0002601Y0113796D01*
X0002731Y0113770D01*
X0004255Y0113770D01*
X0004376Y0113793D01*
X0004487Y0113865D01*
X0004562Y0113974D01*
X0004588Y0114104D01*
X0004588Y0114339D01*
X0004937Y0114339D01*
X0004937Y0114104D01*
X0004960Y0113982D01*
X0005032Y0113871D01*
X0005141Y0113796D01*
X0005271Y0113770D01*
X0005506Y0113770D01*
X0005506Y0109629D01*
X0005122Y0109246D01*
X0004652Y0109246D01*
X0004636Y0109243D01*
X0004636Y0109540D01*
X0004613Y0109661D01*
X0004541Y0109772D01*
X0004432Y0109847D01*
X0004302Y0109873D01*
X0002802Y0109873D01*
X0002681Y0109851D01*
X0002570Y0109779D01*
X0002495Y0109670D01*
X0002469Y0109540D01*
X0002469Y0109090D01*
X0002489Y0108986D01*
X0002469Y0108890D01*
X0002469Y0108651D01*
X0002313Y0108716D01*
X0002006Y0108716D01*
X0001722Y0108599D01*
X0001593Y0108470D01*
X0001593Y0109537D01*
X0002005Y0109949D01*
X0002130Y0110136D01*
X0002174Y0110357D01*
X0002174Y0119073D01*
X0002397Y0119296D01*
X0002397Y0119184D01*
X0002420Y0119062D01*
X0002492Y0118951D01*
X0002601Y0118876D01*
X0002731Y0118850D01*
X0004255Y0118850D01*
X0004376Y0118873D01*
X0004487Y0118945D01*
X0004562Y0119054D01*
X0004588Y0119184D01*
X0004588Y0119369D01*
X0004937Y0119369D01*
X0004937Y0119184D01*
X0004960Y0119062D01*
X0005032Y0118951D01*
X0005141Y0118876D01*
X0005271Y0118850D01*
X0006795Y0118850D01*
X0006916Y0118873D01*
X0007027Y0118945D01*
X0007102Y0119054D01*
X0007128Y0119184D01*
X0007128Y0119882D01*
X0011097Y0119882D01*
X0011097Y0118358D01*
X0011119Y0118237D01*
X0011191Y0118126D01*
X0011300Y0118051D01*
X0011430Y0118025D01*
X0012954Y0118025D01*
X0013075Y0118047D01*
X0013186Y0118119D01*
X0013261Y0118228D01*
X0013287Y0118358D01*
X0013287Y0119882D01*
X0013637Y0119882D01*
X0013637Y0118358D01*
X0013659Y0118237D01*
X0013731Y0118126D01*
X0013840Y0118051D01*
X0013970Y0118025D01*
X0015494Y0118025D01*
X0015615Y0118047D01*
X0015726Y0118119D01*
X0015801Y0118228D01*
X0015827Y0118358D01*
X0015827Y0119882D01*
X0015805Y0120003D01*
X0015733Y0120114D01*
X0015624Y0120189D01*
X0015494Y0120215D01*
X0013970Y0120215D01*
X0013849Y0120193D01*
X0013738Y0120121D01*
X0013663Y0120012D01*
X0013637Y0119882D01*
X0013287Y0119882D01*
X0013265Y0120003D01*
X0013193Y0120114D01*
X0013084Y0120189D01*
X0012954Y0120215D01*
X0011430Y0120215D01*
X0011309Y0120193D01*
X0011198Y0120121D01*
X0011123Y0120012D01*
X0011097Y0119882D01*
X0007128Y0119882D01*
X0007128Y0120708D01*
X0007105Y0120829D01*
X0007033Y0120940D01*
X0006924Y0121015D01*
X0006795Y0121041D01*
X0005271Y0121041D01*
X0005149Y0121018D01*
X0005038Y0120946D01*
X0004963Y0120837D01*
X0004937Y0120708D01*
X0004937Y0120523D01*
X0004588Y0120523D01*
X0004588Y0120708D01*
X0004565Y0120829D01*
X0004493Y0120940D01*
X0004384Y0121015D01*
X0004255Y0121041D01*
X0002731Y0121041D01*
X0002609Y0121018D01*
X0002498Y0120946D01*
X0002423Y0120837D01*
X0002397Y0120708D01*
X0002397Y0120523D01*
X0002231Y0120523D01*
X0002010Y0120479D01*
X0001822Y0120354D01*
X0001822Y0120353D01*
X0001189Y0119720D01*
X0001064Y0119533D01*
X0001020Y0119312D01*
X0001020Y0119312D01*
X0001020Y0110596D01*
X0000608Y0110184D01*
X0000483Y0109997D01*
X0000439Y0109776D01*
X0000377Y0109776D01*
X0000377Y0122422D01*
X0011097Y0122422D01*
X0011097Y0120898D01*
X0011119Y0120777D01*
X0011191Y0120666D01*
X0011300Y0120591D01*
X0011430Y0120565D01*
X0012954Y0120565D01*
X0013075Y0120587D01*
X0013186Y0120659D01*
X0013261Y0120768D01*
X0013284Y0120883D01*
X0013639Y0120883D01*
X0013659Y0120777D01*
X0013731Y0120666D01*
X0013840Y0120591D01*
X0013970Y0120565D01*
X0015494Y0120565D01*
X0015615Y0120587D01*
X0015726Y0120659D01*
X0015801Y0120768D01*
X0015824Y0120883D01*
X0016887Y0120883D01*
X0017447Y0120323D01*
X0017447Y0117418D01*
X0017458Y0117357D01*
X0015825Y0117357D01*
X0015805Y0117463D01*
X0015733Y0117574D01*
X0015624Y0117649D01*
X0015494Y0117675D01*
X0013970Y0117675D01*
X0013849Y0117653D01*
X0013738Y0117581D01*
X0013663Y0117472D01*
X0013640Y0117357D01*
X0013285Y0117357D01*
X0013265Y0117463D01*
X0013193Y0117574D01*
X0013084Y0117649D01*
X0012954Y0117675D01*
X0011430Y0117675D01*
X0011309Y0117653D01*
X0011198Y0117581D01*
X0011123Y0117472D01*
X0011097Y0117342D01*
X0011097Y0115818D01*
X0011119Y0115697D01*
X0011191Y0115586D01*
X0011300Y0115511D01*
X0011430Y0115485D01*
X0012954Y0115485D01*
X0013075Y0115507D01*
X0013186Y0115579D01*
X0013261Y0115688D01*
X0013284Y0115803D01*
X0013639Y0115803D01*
X0013659Y0115697D01*
X0013731Y0115586D01*
X0013840Y0115511D01*
X0013970Y0115485D01*
X0015494Y0115485D01*
X0015615Y0115507D01*
X0015726Y0115579D01*
X0015801Y0115688D01*
X0015824Y0115803D01*
X0024814Y0115803D01*
X0024814Y0115124D01*
X0024813Y0115120D01*
X0024813Y0113723D01*
X0024835Y0113601D01*
X0024907Y0113490D01*
X0025016Y0113415D01*
X0025146Y0113389D01*
X0026035Y0113389D01*
X0026156Y0113412D01*
X0026267Y0113484D01*
X0026342Y0113593D01*
X0026368Y0113723D01*
X0026368Y0115120D01*
X0026368Y0115124D01*
X0026368Y0116120D01*
X0026416Y0116120D01*
X0026537Y0116142D01*
X0026602Y0116184D01*
X0027110Y0116184D01*
X0027353Y0115942D01*
X0027353Y0115183D01*
X0027375Y0115062D01*
X0027447Y0114951D01*
X0027556Y0114876D01*
X0027686Y0114850D01*
X0028445Y0114850D01*
X0028978Y0114316D01*
X0029230Y0114148D01*
X0029528Y0114089D01*
X0030846Y0114089D01*
X0030846Y0112708D01*
X0030905Y0112411D01*
X0031074Y0112159D01*
X0031901Y0111332D01*
X0032153Y0111163D01*
X0032450Y0111104D01*
X0033017Y0111104D01*
X0033017Y0110865D01*
X0033040Y0110744D01*
X0033111Y0110633D01*
X0033220Y0110558D01*
X0033350Y0110532D01*
X0034402Y0110532D01*
X0034402Y0106479D01*
X0034364Y0106423D01*
X0034338Y0106293D01*
X0034338Y0104261D01*
X0034360Y0104140D01*
X0034432Y0104029D01*
X0034541Y0103954D01*
X0034671Y0103928D01*
X0035687Y0103928D01*
X0035808Y0103950D01*
X0035919Y0104022D01*
X0035994Y0104131D01*
X0036020Y0104261D01*
X0036020Y0106293D01*
X0035998Y0106414D01*
X0035956Y0106479D01*
X0035956Y0110532D01*
X0037008Y0110532D01*
X0037129Y0110554D01*
X0037240Y0110626D01*
X0037315Y0110735D01*
X0037341Y0110865D01*
X0037341Y0112897D01*
X0037318Y0113018D01*
X0037247Y0113129D01*
X0037138Y0113204D01*
X0037008Y0113230D01*
X0033350Y0113230D01*
X0033229Y0113208D01*
X0033118Y0113136D01*
X0033043Y0113027D01*
X0033017Y0112897D01*
X0033017Y0112658D01*
X0032772Y0112658D01*
X0032400Y0113030D01*
X0032400Y0114089D01*
X0032576Y0114089D01*
X0032873Y0114148D01*
X0033125Y0114316D01*
X0034928Y0116120D01*
X0035687Y0116120D01*
X0035808Y0116142D01*
X0035919Y0116214D01*
X0035994Y0116323D01*
X0036017Y0116438D01*
X0036372Y0116438D01*
X0036392Y0116332D01*
X0036464Y0116221D01*
X0036573Y0116146D01*
X0036703Y0116120D01*
X0038227Y0116120D01*
X0038348Y0116142D01*
X0038459Y0116214D01*
X0038534Y0116323D01*
X0038560Y0116453D01*
X0038560Y0117977D01*
X0038538Y0118098D01*
X0038466Y0118209D01*
X0038357Y0118284D01*
X0038227Y0118310D01*
X0036703Y0118310D01*
X0036582Y0118288D01*
X0036471Y0118216D01*
X0036396Y0118107D01*
X0036373Y0117992D01*
X0036018Y0117992D01*
X0035998Y0118098D01*
X0035926Y0118209D01*
X0035817Y0118284D01*
X0035687Y0118310D01*
X0034163Y0118310D01*
X0034042Y0118288D01*
X0033931Y0118216D01*
X0033856Y0118107D01*
X0033830Y0117977D01*
X0033830Y0117218D01*
X0032255Y0115643D01*
X0030925Y0115643D01*
X0030920Y0115643D01*
X0029849Y0115643D01*
X0029543Y0115948D01*
X0029543Y0116707D01*
X0029521Y0116828D01*
X0029449Y0116939D01*
X0029340Y0117014D01*
X0029210Y0117040D01*
X0028451Y0117040D01*
X0028102Y0117390D01*
X0029210Y0117390D01*
X0029331Y0117412D01*
X0029442Y0117484D01*
X0029517Y0117593D01*
X0029543Y0117723D01*
X0029543Y0119247D01*
X0029521Y0119368D01*
X0029449Y0119479D01*
X0029340Y0119554D01*
X0029225Y0119577D01*
X0029225Y0119817D01*
X0029268Y0119825D01*
X0029379Y0119897D01*
X0029454Y0120006D01*
X0029480Y0120136D01*
X0029480Y0121025D01*
X0029457Y0121146D01*
X0029385Y0121257D01*
X0029276Y0121332D01*
X0029147Y0121358D01*
X0027750Y0121358D01*
X0027628Y0121336D01*
X0027517Y0121264D01*
X0027442Y0121155D01*
X0027416Y0121025D01*
X0027416Y0120136D01*
X0027437Y0120024D01*
X0026602Y0120024D01*
X0026546Y0120062D01*
X0026416Y0120088D01*
X0024384Y0120088D01*
X0024263Y0120066D01*
X0024198Y0120024D01*
X0023891Y0120024D01*
X0023891Y0123996D01*
X0023997Y0124016D01*
X0024108Y0124088D01*
X0024183Y0124197D01*
X0024209Y0124327D01*
X0024209Y0125851D01*
X0024187Y0125972D01*
X0024115Y0126083D01*
X0024006Y0126158D01*
X0023891Y0126181D01*
X0023891Y0126536D01*
X0023997Y0126556D01*
X0024108Y0126628D01*
X0024183Y0126737D01*
X0024209Y0126867D01*
X0024209Y0128391D01*
X0024187Y0128512D01*
X0024115Y0128623D01*
X0024006Y0128698D01*
X0023876Y0128724D01*
X0022352Y0128724D01*
X0022231Y0128702D01*
X0022120Y0128630D01*
X0022045Y0128521D01*
X0022019Y0128391D01*
X0022019Y0126867D01*
X0022041Y0126746D01*
X0022113Y0126635D01*
X0022222Y0126560D01*
X0022337Y0126537D01*
X0022337Y0126182D01*
X0022231Y0126162D01*
X0022120Y0126090D01*
X0022045Y0125981D01*
X0022019Y0125851D01*
X0022019Y0124327D01*
X0022041Y0124206D01*
X0022113Y0124095D01*
X0022222Y0124020D01*
X0022337Y0123997D01*
X0022337Y0120024D01*
X0020145Y0120024D01*
X0020145Y0121076D01*
X0020123Y0121197D01*
X0020051Y0121308D01*
X0019942Y0121383D01*
X0019812Y0121409D01*
X0018558Y0121409D01*
X0017758Y0122209D01*
X0017506Y0122378D01*
X0017209Y0122437D01*
X0015825Y0122437D01*
X0015805Y0122543D01*
X0015733Y0122654D01*
X0015624Y0122729D01*
X0015494Y0122755D01*
X0013970Y0122755D01*
X0013849Y0122733D01*
X0013738Y0122661D01*
X0013663Y0122552D01*
X0013640Y0122437D01*
X0013285Y0122437D01*
X0013265Y0122543D01*
X0013193Y0122654D01*
X0013084Y0122729D01*
X0012954Y0122755D01*
X0011430Y0122755D01*
X0011309Y0122733D01*
X0011198Y0122661D01*
X0011123Y0122552D01*
X0011097Y0122422D01*
X0000377Y0122422D01*
X0000377Y0129329D01*
X0007608Y0129329D01*
X0007608Y0125975D01*
X0017919Y0125975D01*
X0017919Y0129329D01*
X0007608Y0129329D01*
X0000377Y0129329D01*
X0000377Y0129665D01*
X0039755Y0129665D01*
X0039755Y0080127D01*
G36*
X0011220Y0104673D02*
X0011166Y0104542D01*
X0011166Y0104235D01*
X0011283Y0103951D01*
X0011500Y0103734D01*
X0011567Y0103706D01*
X0011589Y0103567D01*
X0011589Y0103340D01*
X0011612Y0103219D01*
X0011684Y0103108D01*
X0011793Y0103033D01*
X0011923Y0103007D01*
X0012222Y0103007D01*
X0012344Y0103030D01*
X0012455Y0103101D01*
X0012530Y0103211D01*
X0012556Y0103340D01*
X0012556Y0103783D01*
X0012590Y0103749D01*
X0012590Y0103340D01*
X0012613Y0103219D01*
X0012685Y0103108D01*
X0012794Y0103033D01*
X0012924Y0103007D01*
X0013223Y0103007D01*
X0013344Y0103030D01*
X0013456Y0103101D01*
X0013493Y0103156D01*
X0013493Y0102572D01*
X0013462Y0102620D01*
X0013353Y0102695D01*
X0013223Y0102721D01*
X0012924Y0102721D01*
X0012802Y0102698D01*
X0012691Y0102627D01*
X0012616Y0102517D01*
X0012590Y0102388D01*
X0012590Y0101938D01*
X0012613Y0101817D01*
X0012685Y0101706D01*
X0012794Y0101631D01*
X0012924Y0101605D01*
X0013223Y0101605D01*
X0013344Y0101628D01*
X0013456Y0101699D01*
X0013493Y0101754D01*
X0013493Y0101165D01*
X0013208Y0101165D01*
X0013087Y0101143D01*
X0012976Y0101071D01*
X0012901Y0100962D01*
X0012875Y0100832D01*
X0012875Y0099308D01*
X0012897Y0099187D01*
X0012969Y0099076D01*
X0013078Y0099001D01*
X0013208Y0098975D01*
X0013493Y0098975D01*
X0013493Y0098625D01*
X0013208Y0098625D01*
X0013087Y0098603D01*
X0012976Y0098531D01*
X0012901Y0098422D01*
X0012875Y0098292D01*
X0012875Y0097127D01*
X0012084Y0097917D01*
X0012084Y0099203D01*
X0012044Y0099404D01*
X0012006Y0099461D01*
X0011930Y0099575D01*
X0010980Y0100525D01*
X0010809Y0100639D01*
X0010607Y0100680D01*
X0009512Y0100680D01*
X0008782Y0101410D01*
X0008782Y0102388D01*
X0011589Y0102388D01*
X0011589Y0101938D01*
X0011612Y0101817D01*
X0011684Y0101706D01*
X0011793Y0101631D01*
X0011923Y0101605D01*
X0012222Y0101605D01*
X0012344Y0101628D01*
X0012455Y0101699D01*
X0012530Y0101808D01*
X0012556Y0101938D01*
X0012556Y0102388D01*
X0012533Y0102509D01*
X0012461Y0102620D01*
X0012352Y0102695D01*
X0012222Y0102721D01*
X0011923Y0102721D01*
X0011802Y0102698D01*
X0011690Y0102627D01*
X0011616Y0102517D01*
X0011589Y0102388D01*
X0008782Y0102388D01*
X0008782Y0103039D01*
X0009331Y0103039D01*
X0009416Y0103022D01*
X0010419Y0103022D01*
X0010444Y0103027D01*
X0010572Y0103027D01*
X0010691Y0103076D01*
X0010716Y0103081D01*
X0010738Y0103095D01*
X0010856Y0103144D01*
X0010947Y0103235D01*
X0010969Y0103249D01*
X0010983Y0103271D01*
X0011073Y0103361D01*
X0011123Y0103480D01*
X0011137Y0103501D01*
X0011142Y0103526D01*
X0011191Y0103644D01*
X0011191Y0103773D01*
X0011196Y0103799D01*
X0011191Y0103824D01*
X0011191Y0103952D01*
X0011142Y0104071D01*
X0011137Y0104096D01*
X0011123Y0104117D01*
X0011074Y0104235D01*
X0010983Y0104327D01*
X0010969Y0104348D01*
X0010947Y0104362D01*
X0010857Y0104453D01*
X0010738Y0104502D01*
X0010716Y0104517D01*
X0010691Y0104522D01*
X0010573Y0104571D01*
X0010444Y0104571D01*
X0010419Y0104576D01*
X0010189Y0104576D01*
X0010175Y0104579D01*
X0010175Y0104857D01*
X0010202Y0104857D01*
X0010324Y0104879D01*
X0010435Y0104951D01*
X0010510Y0105060D01*
X0010536Y0105190D01*
X0010536Y0105357D01*
X0011220Y0104673D01*
X0011220Y0104673D01*
G37*
X0011220Y0104673D02*
X0011166Y0104542D01*
X0011166Y0104235D01*
X0011283Y0103951D01*
X0011500Y0103734D01*
X0011567Y0103706D01*
X0011589Y0103567D01*
X0011589Y0103340D01*
X0011612Y0103219D01*
X0011684Y0103108D01*
X0011793Y0103033D01*
X0011923Y0103007D01*
X0012222Y0103007D01*
X0012344Y0103030D01*
X0012455Y0103101D01*
X0012530Y0103211D01*
X0012556Y0103340D01*
X0012556Y0103783D01*
X0012590Y0103749D01*
X0012590Y0103340D01*
X0012613Y0103219D01*
X0012685Y0103108D01*
X0012794Y0103033D01*
X0012924Y0103007D01*
X0013223Y0103007D01*
X0013344Y0103030D01*
X0013456Y0103101D01*
X0013493Y0103156D01*
X0013493Y0102572D01*
X0013462Y0102620D01*
X0013353Y0102695D01*
X0013223Y0102721D01*
X0012924Y0102721D01*
X0012802Y0102698D01*
X0012691Y0102627D01*
X0012616Y0102517D01*
X0012590Y0102388D01*
X0012590Y0101938D01*
X0012613Y0101817D01*
X0012685Y0101706D01*
X0012794Y0101631D01*
X0012924Y0101605D01*
X0013223Y0101605D01*
X0013344Y0101628D01*
X0013456Y0101699D01*
X0013493Y0101754D01*
X0013493Y0101165D01*
X0013208Y0101165D01*
X0013087Y0101143D01*
X0012976Y0101071D01*
X0012901Y0100962D01*
X0012875Y0100832D01*
X0012875Y0099308D01*
X0012897Y0099187D01*
X0012969Y0099076D01*
X0013078Y0099001D01*
X0013208Y0098975D01*
X0013493Y0098975D01*
X0013493Y0098625D01*
X0013208Y0098625D01*
X0013087Y0098603D01*
X0012976Y0098531D01*
X0012901Y0098422D01*
X0012875Y0098292D01*
X0012875Y0097127D01*
X0012084Y0097917D01*
X0012084Y0099203D01*
X0012044Y0099404D01*
X0012006Y0099461D01*
X0011930Y0099575D01*
X0010980Y0100525D01*
X0010809Y0100639D01*
X0010607Y0100680D01*
X0009512Y0100680D01*
X0008782Y0101410D01*
X0008782Y0102388D01*
X0011589Y0102388D01*
X0011589Y0101938D01*
X0011612Y0101817D01*
X0011684Y0101706D01*
X0011793Y0101631D01*
X0011923Y0101605D01*
X0012222Y0101605D01*
X0012344Y0101628D01*
X0012455Y0101699D01*
X0012530Y0101808D01*
X0012556Y0101938D01*
X0012556Y0102388D01*
X0012533Y0102509D01*
X0012461Y0102620D01*
X0012352Y0102695D01*
X0012222Y0102721D01*
X0011923Y0102721D01*
X0011802Y0102698D01*
X0011690Y0102627D01*
X0011616Y0102517D01*
X0011589Y0102388D01*
X0008782Y0102388D01*
X0008782Y0103039D01*
X0009331Y0103039D01*
X0009416Y0103022D01*
X0010419Y0103022D01*
X0010444Y0103027D01*
X0010572Y0103027D01*
X0010691Y0103076D01*
X0010716Y0103081D01*
X0010738Y0103095D01*
X0010856Y0103144D01*
X0010947Y0103235D01*
X0010969Y0103249D01*
X0010983Y0103271D01*
X0011073Y0103361D01*
X0011123Y0103480D01*
X0011137Y0103501D01*
X0011142Y0103526D01*
X0011191Y0103644D01*
X0011191Y0103773D01*
X0011196Y0103799D01*
X0011191Y0103824D01*
X0011191Y0103952D01*
X0011142Y0104071D01*
X0011137Y0104096D01*
X0011123Y0104117D01*
X0011074Y0104235D01*
X0010983Y0104327D01*
X0010969Y0104348D01*
X0010947Y0104362D01*
X0010857Y0104453D01*
X0010738Y0104502D01*
X0010716Y0104517D01*
X0010691Y0104522D01*
X0010573Y0104571D01*
X0010444Y0104571D01*
X0010419Y0104576D01*
X0010189Y0104576D01*
X0010175Y0104579D01*
X0010175Y0104857D01*
X0010202Y0104857D01*
X0010324Y0104879D01*
X0010435Y0104951D01*
X0010510Y0105060D01*
X0010536Y0105190D01*
X0010536Y0105357D01*
X0011220Y0104673D01*
M02*
