G75*
G71*
%MOMM*%
%OFA0B0*%
%FSLAX53Y53*%
%IPPOS*%
%LPD*%
%ADD13R,1.12900X1.63700*%
%ADD17C,0.30000*%
%ADD38R,4.05000X4.05000*%
%ADD49R,1.29000X1.74000*%
%ADD51R,1.76400X1.76400*%
%ADD57C,1.54000*%
%ADD61C,2.94000*%
%ADD65C,1.74000*%
%ADD66C,6.24000*%
%ADD72C,2.54000*%
%ADD76R,3.64000X3.64000*%
%ADD84C,3.54000*%
X0000000Y0000000D02*
G01*
D17*
D66*
X0035306Y0014986D03*
D51*
X0029718Y0001842D03*
X0027178Y0001842D03*
X0029718Y0004382D03*
X0027178Y0004382D03*
X0029718Y0006922D03*
X0027178Y0006922D03*
X0029718Y0009462D03*
X0027178Y0009462D03*
D38*
X0014097Y0013058D03*
X0014097Y0006858D03*
X0009097Y0009958D03*
D51*
X0022098Y0013907D03*
X0022098Y0016447D03*
X0022098Y0021082D03*
X0022098Y0023622D03*
X0024638Y0021082D03*
X0024638Y0023622D03*
X0024638Y0013907D03*
X0024638Y0016447D03*
X0038100Y0034798D03*
X0038100Y0029718D03*
D13*
X0029782Y0027242D03*
X0027877Y0027242D03*
X0029718Y0037211D03*
X0027813Y0037211D03*
X0029782Y0029464D03*
X0027877Y0029464D03*
D76*
X0023368Y0028066D03*
X0023368Y0032766D03*
X0023368Y0037466D03*
D66*
X0004826Y0014986D03*
X0035306Y0004826D03*
X0004826Y0004826D03*
X0004826Y0025146D03*
X0004826Y0035306D03*
D51*
X0038100Y0032258D03*
D13*
X0029718Y0032258D03*
X0027813Y0032258D03*
D49*
X0035719Y0022246D03*
X0031719Y0022246D03*
D61*
X0033719Y0022246D03*
D49*
X0035719Y0037246D03*
X0031719Y0037246D03*
D61*
X0033719Y0037246D03*
D49*
X0035719Y0027242D03*
X0031719Y0027242D03*
D61*
X0033719Y0027242D03*
D49*
X0035719Y0032246D03*
X0031719Y0032246D03*
D61*
X0033719Y0032246D03*
D51*
X0029718Y0013907D03*
X0029718Y0016447D03*
X0029718Y0021082D03*
X0029718Y0023622D03*
X0027178Y0021082D03*
X0027178Y0023622D03*
X0027178Y0013907D03*
X0027178Y0016447D03*
X0001715Y0010033D03*
X0000000Y0040130D02*
G01*
D17*
D51*
X0029845Y0047115D03*
X0038227Y0048385D03*
X0014605Y0045845D03*
X0014605Y0048385D03*
X0012065Y0045845D03*
X0012065Y0048385D03*
X0017145Y0045845D03*
X0017145Y0048385D03*
X0009525Y0045845D03*
X0009525Y0048385D03*
X0019685Y0045845D03*
X0019685Y0048385D03*
D66*
X0025146Y0044956D03*
X0004826Y0044956D03*
X0000000Y0049780D02*
G01*
D17*
D84*
X0013716Y0055368D03*
X0026416Y0055368D03*
D72*
X0028196Y0058798D03*
X0011936Y0058798D03*
D57*
X0017526Y0057908D03*
X0019556Y0057908D03*
X0021586Y0057908D03*
X0023616Y0057908D03*
X0016506Y0059688D03*
X0018536Y0059688D03*
X0020566Y0059688D03*
X0022596Y0059688D03*
D65*
X0026926Y0064508D03*
X0024636Y0064508D03*
X0015496Y0064508D03*
X0013206Y0064508D03*
D51*
X0035306Y0069021D03*
X0037846Y0069021D03*
X0035306Y0066481D03*
X0037846Y0066481D03*
X0035306Y0063941D03*
X0037846Y0063941D03*
X0035306Y0061401D03*
X0037846Y0061401D03*
X0005906Y0061909D03*
X0003366Y0061909D03*
X0005906Y0064449D03*
X0003366Y0064449D03*
X0005906Y0066989D03*
X0003366Y0066989D03*
X0013970Y0067560D03*
X0013970Y0070100D03*
X0016510Y0067560D03*
X0016510Y0070100D03*
D66*
X0004826Y0074926D03*
X0035306Y0054606D03*
X0004826Y0054606D03*
X0035306Y0074926D03*
D51*
X0005906Y0069529D03*
X0003366Y0069529D03*
X0019050Y0067560D03*
X0019050Y0070100D03*
X0021590Y0067560D03*
X0021590Y0070100D03*
X0026670Y0067560D03*
X0026670Y0070100D03*
X0024130Y0067560D03*
X0024130Y0070100D03*
X0000000Y0079750D02*
G01*
D17*
D84*
X0013716Y0085338D03*
X0026416Y0085338D03*
D72*
X0028196Y0088768D03*
X0011936Y0088768D03*
D57*
X0017526Y0087878D03*
X0019556Y0087878D03*
X0021586Y0087878D03*
X0023616Y0087878D03*
X0016506Y0089658D03*
X0018536Y0089658D03*
X0020566Y0089658D03*
X0022596Y0089658D03*
D65*
X0026926Y0094478D03*
X0024636Y0094478D03*
X0015496Y0094478D03*
X0013206Y0094478D03*
D51*
X0035306Y0097022D03*
X0037846Y0097022D03*
X0035306Y0094482D03*
X0037846Y0094482D03*
X0035306Y0091942D03*
X0037846Y0091942D03*
X0035306Y0089402D03*
X0037846Y0089402D03*
X0013970Y0097530D03*
X0013970Y0100070D03*
X0016510Y0097530D03*
X0016510Y0100070D03*
X0019050Y0097530D03*
X0019050Y0100070D03*
X0021590Y0097530D03*
X0021590Y0100070D03*
X0024130Y0097530D03*
X0024130Y0100070D03*
X0026670Y0097530D03*
X0026670Y0100070D03*
X0034925Y0119755D03*
X0037465Y0119755D03*
X0034925Y0117215D03*
X0037465Y0117215D03*
X0034925Y0114675D03*
X0037465Y0114675D03*
X0028448Y0118485D03*
X0028448Y0115945D03*
X0014732Y0116580D03*
X0014732Y0119120D03*
X0014732Y0121660D03*
X0020574Y0125089D03*
X0020574Y0127629D03*
X0023114Y0125089D03*
X0023114Y0127629D03*
X0025654Y0125089D03*
X0025654Y0127629D03*
X0003493Y0117406D03*
X0006033Y0117406D03*
X0006033Y0119946D03*
X0003493Y0119946D03*
X0005969Y0100705D03*
X0003429Y0100705D03*
X0005969Y0093085D03*
X0003429Y0093085D03*
X0005969Y0095625D03*
X0003429Y0095625D03*
X0005969Y0098165D03*
X0003429Y0098165D03*
X0005969Y0090545D03*
X0003429Y0090545D03*
D66*
X0004826Y0125216D03*
X0035306Y0084576D03*
X0004826Y0084576D03*
X0035306Y0125216D03*
D51*
X0012192Y0116580D03*
X0012192Y0119120D03*
X0012192Y0121660D03*
X0032957Y0102674D03*
X0035497Y0102674D03*
X0006033Y0114866D03*
X0003493Y0114866D03*
M02*
