G75*
G71*
%MOMM*%
%OFA0B0*%
%FSLAX53Y53*%
%IPPOS*%
%LPD*%
%ADD23C,0.15000*%
X0000000Y0000000D02*
%LPD*%
G01*
D23*
G36*
X0005162Y0008024D02*
X0005777Y0007898D01*
X0006355Y0007655D01*
X0006876Y0007304D01*
X0007318Y0006858D01*
X0007665Y0006336D01*
X0007904Y0005755D01*
X0008026Y0005140D01*
X0008026Y0005140D01*
X0008026Y0005140D01*
X0008016Y0004423D01*
X0008016Y0004422D01*
X0008016Y0004422D01*
X0007877Y0003811D01*
X0007622Y0003238D01*
X0007260Y0002725D01*
X0006806Y0002292D01*
X0006276Y0001956D01*
X0005691Y0001729D01*
X0005073Y0001620D01*
X0004445Y0001633D01*
X0003832Y0001768D01*
X0003257Y0002019D01*
X0002742Y0002377D01*
X0002306Y0002829D01*
X0001966Y0003356D01*
X0001735Y0003940D01*
X0001622Y0004557D01*
X0001631Y0005184D01*
X0001761Y0005798D01*
X0002008Y0006375D01*
X0002363Y0006893D01*
X0002811Y0007332D01*
X0003336Y0007676D01*
X0003918Y0007911D01*
X0004535Y0008028D01*
X0005162Y0008024D01*
X0005162Y0008024D01*
G37*
G36*
X0045802Y0008024D02*
X0046417Y0007898D01*
X0046995Y0007655D01*
X0047516Y0007304D01*
X0047958Y0006858D01*
X0048305Y0006336D01*
X0048544Y0005755D01*
X0048666Y0005140D01*
X0048666Y0005140D01*
X0048666Y0005140D01*
X0048656Y0004423D01*
X0048656Y0004422D01*
X0048656Y0004422D01*
X0048517Y0003811D01*
X0048262Y0003238D01*
X0047900Y0002725D01*
X0047446Y0002292D01*
X0046916Y0001956D01*
X0046331Y0001729D01*
X0045713Y0001620D01*
X0045085Y0001633D01*
X0044472Y0001768D01*
X0043897Y0002019D01*
X0043382Y0002377D01*
X0042946Y0002829D01*
X0042606Y0003356D01*
X0042375Y0003940D01*
X0042262Y0004557D01*
X0042271Y0005184D01*
X0042401Y0005798D01*
X0042648Y0006375D01*
X0043003Y0006893D01*
X0043451Y0007332D01*
X0043976Y0007676D01*
X0044558Y0007911D01*
X0045175Y0008028D01*
X0045802Y0008024D01*
X0045802Y0008024D01*
G37*
G36*
X0012626Y0008231D02*
X0013049Y0008144D01*
X0013447Y0007977D01*
X0013804Y0007736D01*
X0014108Y0007430D01*
X0014347Y0007070D01*
X0014511Y0006671D01*
X0014595Y0006249D01*
X0014595Y0006249D01*
X0014595Y0006248D01*
X0014588Y0005755D01*
X0014588Y0005755D01*
X0014588Y0005755D01*
X0014493Y0005335D01*
X0014317Y0004941D01*
X0014069Y0004588D01*
X0013756Y0004290D01*
X0013392Y0004059D01*
X0012990Y0003903D01*
X0012565Y0003828D01*
X0012133Y0003837D01*
X0011712Y0003930D01*
X0011317Y0004103D01*
X0010962Y0004349D01*
X0010663Y0004659D01*
X0010429Y0005022D01*
X0010270Y0005423D01*
X0010192Y0005848D01*
X0010198Y0006279D01*
X0010288Y0006701D01*
X0010458Y0007097D01*
X0010702Y0007453D01*
X0011010Y0007755D01*
X0011371Y0007992D01*
X0011771Y0008153D01*
X0012195Y0008234D01*
X0012626Y0008231D01*
X0012626Y0008231D01*
G37*
G36*
X0022786Y0008231D02*
X0023209Y0008144D01*
X0023607Y0007977D01*
X0023964Y0007736D01*
X0024268Y0007430D01*
X0024507Y0007070D01*
X0024671Y0006671D01*
X0024755Y0006249D01*
X0024755Y0006249D01*
X0024755Y0006248D01*
X0024748Y0005755D01*
X0024748Y0005755D01*
X0024748Y0005755D01*
X0024653Y0005335D01*
X0024477Y0004941D01*
X0024229Y0004588D01*
X0023916Y0004290D01*
X0023552Y0004059D01*
X0023150Y0003903D01*
X0022725Y0003828D01*
X0022293Y0003837D01*
X0021872Y0003930D01*
X0021477Y0004103D01*
X0021122Y0004349D01*
X0020823Y0004659D01*
X0020589Y0005022D01*
X0020430Y0005423D01*
X0020352Y0005848D01*
X0020358Y0006279D01*
X0020448Y0006701D01*
X0020618Y0007097D01*
X0020862Y0007453D01*
X0021170Y0007755D01*
X0021531Y0007992D01*
X0021931Y0008153D01*
X0022355Y0008234D01*
X0022786Y0008231D01*
X0022786Y0008231D01*
G37*
G36*
X0027866Y0008231D02*
X0028289Y0008144D01*
X0028687Y0007977D01*
X0029044Y0007736D01*
X0029348Y0007430D01*
X0029587Y0007070D01*
X0029751Y0006671D01*
X0029835Y0006249D01*
X0029835Y0006249D01*
X0029835Y0006248D01*
X0029828Y0005755D01*
X0029828Y0005755D01*
X0029828Y0005755D01*
X0029733Y0005335D01*
X0029557Y0004941D01*
X0029309Y0004588D01*
X0028996Y0004290D01*
X0028632Y0004059D01*
X0028230Y0003903D01*
X0027805Y0003828D01*
X0027373Y0003837D01*
X0026952Y0003930D01*
X0026557Y0004103D01*
X0026202Y0004349D01*
X0025903Y0004659D01*
X0025669Y0005022D01*
X0025510Y0005423D01*
X0025432Y0005848D01*
X0025438Y0006279D01*
X0025528Y0006701D01*
X0025698Y0007097D01*
X0025942Y0007453D01*
X0026250Y0007755D01*
X0026611Y0007992D01*
X0027011Y0008153D01*
X0027435Y0008234D01*
X0027866Y0008231D01*
X0027866Y0008231D01*
G37*
G36*
X0038026Y0008231D02*
X0038449Y0008144D01*
X0038847Y0007977D01*
X0039204Y0007736D01*
X0039508Y0007430D01*
X0039747Y0007070D01*
X0039911Y0006671D01*
X0039995Y0006249D01*
X0039995Y0006249D01*
X0039995Y0006248D01*
X0039988Y0005755D01*
X0039988Y0005755D01*
X0039988Y0005755D01*
X0039893Y0005335D01*
X0039717Y0004941D01*
X0039469Y0004588D01*
X0039156Y0004290D01*
X0038792Y0004059D01*
X0038390Y0003903D01*
X0037965Y0003828D01*
X0037533Y0003837D01*
X0037112Y0003930D01*
X0036717Y0004103D01*
X0036362Y0004349D01*
X0036063Y0004659D01*
X0035829Y0005022D01*
X0035670Y0005423D01*
X0035592Y0005848D01*
X0035598Y0006279D01*
X0035688Y0006701D01*
X0035858Y0007097D01*
X0036102Y0007453D01*
X0036410Y0007755D01*
X0036771Y0007992D01*
X0037171Y0008153D01*
X0037595Y0008234D01*
X0038026Y0008231D01*
X0038026Y0008231D01*
G37*
G36*
X0045158Y0010214D02*
X0043234Y0010214D01*
X0043234Y0012138D01*
X0045158Y0012138D01*
X0045158Y0010214D01*
X0045158Y0010214D01*
G37*
G36*
X0047698Y0010214D02*
X0045774Y0010214D01*
X0045774Y0012138D01*
X0047698Y0012138D01*
X0047698Y0010214D01*
X0047698Y0010214D01*
G37*
G36*
X0004518Y0010214D02*
X0002594Y0010214D01*
X0002594Y0012138D01*
X0004518Y0012138D01*
X0004518Y0010214D01*
X0004518Y0010214D01*
G37*
G36*
X0007058Y0010214D02*
X0005134Y0010214D01*
X0005134Y0012138D01*
X0007058Y0012138D01*
X0007058Y0010214D01*
X0007058Y0010214D01*
G37*
G36*
X0036011Y0013592D02*
X0036242Y0013544D01*
X0036459Y0013453D01*
X0036654Y0013322D01*
X0036820Y0013155D01*
X0036950Y0012959D01*
X0037040Y0012741D01*
X0037085Y0012511D01*
X0037085Y0012511D01*
X0037085Y0012510D01*
X0037081Y0012241D01*
X0037081Y0012241D01*
X0037081Y0012241D01*
X0037029Y0012012D01*
X0036934Y0011797D01*
X0036798Y0011605D01*
X0036628Y0011442D01*
X0036429Y0011316D01*
X0036209Y0011231D01*
X0035978Y0011190D01*
X0035742Y0011195D01*
X0035513Y0011246D01*
X0035297Y0011340D01*
X0035104Y0011474D01*
X0034940Y0011644D01*
X0034813Y0011841D01*
X0034726Y0012060D01*
X0034713Y0012131D01*
X0034708Y0012150D01*
X0034699Y0012167D01*
X0034687Y0012182D01*
X0034672Y0012195D01*
X0034654Y0012204D01*
X0034636Y0012210D01*
X0034616Y0012213D01*
X0034597Y0012211D01*
X0034578Y0012206D01*
X0034560Y0012197D01*
X0034545Y0012184D01*
X0034532Y0012169D01*
X0034523Y0012152D01*
X0034517Y0012135D01*
X0034489Y0012012D01*
X0034394Y0011797D01*
X0034258Y0011605D01*
X0034088Y0011442D01*
X0033889Y0011316D01*
X0033669Y0011231D01*
X0033438Y0011190D01*
X0033202Y0011195D01*
X0032973Y0011246D01*
X0032757Y0011340D01*
X0032564Y0011474D01*
X0032400Y0011644D01*
X0032273Y0011841D01*
X0032186Y0012060D01*
X0032173Y0012131D01*
X0032168Y0012150D01*
X0032159Y0012167D01*
X0032147Y0012182D01*
X0032132Y0012195D01*
X0032114Y0012204D01*
X0032096Y0012210D01*
X0032076Y0012213D01*
X0032057Y0012211D01*
X0032038Y0012206D01*
X0032020Y0012197D01*
X0032005Y0012184D01*
X0031992Y0012169D01*
X0031983Y0012152D01*
X0031977Y0012135D01*
X0031949Y0012012D01*
X0031854Y0011797D01*
X0031718Y0011605D01*
X0031548Y0011442D01*
X0031349Y0011316D01*
X0031129Y0011231D01*
X0030898Y0011190D01*
X0030662Y0011195D01*
X0030433Y0011246D01*
X0030217Y0011340D01*
X0030024Y0011474D01*
X0029860Y0011644D01*
X0029733Y0011841D01*
X0029646Y0012060D01*
X0029604Y0012292D01*
X0029607Y0012527D01*
X0029656Y0012757D01*
X0029749Y0012973D01*
X0029881Y0013168D01*
X0030050Y0013332D01*
X0030247Y0013461D01*
X0030465Y0013549D01*
X0030696Y0013593D01*
X0030931Y0013592D01*
X0031162Y0013544D01*
X0031379Y0013453D01*
X0031574Y0013322D01*
X0031740Y0013155D01*
X0031870Y0012959D01*
X0031960Y0012741D01*
X0031977Y0012652D01*
X0031983Y0012633D01*
X0031992Y0012616D01*
X0032005Y0012600D01*
X0032020Y0012588D01*
X0032037Y0012579D01*
X0032056Y0012573D01*
X0032075Y0012571D01*
X0032095Y0012573D01*
X0032114Y0012579D01*
X0032131Y0012588D01*
X0032146Y0012600D01*
X0032158Y0012616D01*
X0032168Y0012633D01*
X0032173Y0012650D01*
X0032196Y0012757D01*
X0032289Y0012973D01*
X0032421Y0013168D01*
X0032590Y0013332D01*
X0032787Y0013461D01*
X0033005Y0013549D01*
X0033236Y0013593D01*
X0033471Y0013592D01*
X0033702Y0013544D01*
X0033919Y0013453D01*
X0034114Y0013322D01*
X0034280Y0013155D01*
X0034410Y0012959D01*
X0034500Y0012741D01*
X0034517Y0012652D01*
X0034523Y0012633D01*
X0034532Y0012616D01*
X0034545Y0012600D01*
X0034560Y0012588D01*
X0034577Y0012579D01*
X0034596Y0012573D01*
X0034615Y0012571D01*
X0034635Y0012573D01*
X0034654Y0012579D01*
X0034671Y0012588D01*
X0034686Y0012600D01*
X0034698Y0012616D01*
X0034708Y0012633D01*
X0034713Y0012650D01*
X0034736Y0012757D01*
X0034829Y0012973D01*
X0034961Y0013168D01*
X0035130Y0013332D01*
X0035327Y0013461D01*
X0035545Y0013549D01*
X0035776Y0013593D01*
X0036011Y0013592D01*
X0036011Y0013592D01*
G37*
G36*
X0020771Y0013592D02*
X0021002Y0013544D01*
X0021219Y0013453D01*
X0021414Y0013322D01*
X0021580Y0013155D01*
X0021710Y0012959D01*
X0021800Y0012741D01*
X0021845Y0012511D01*
X0021845Y0012511D01*
X0021845Y0012510D01*
X0021841Y0012241D01*
X0021841Y0012241D01*
X0021841Y0012241D01*
X0021789Y0012012D01*
X0021694Y0011797D01*
X0021558Y0011605D01*
X0021388Y0011442D01*
X0021189Y0011316D01*
X0020969Y0011231D01*
X0020738Y0011190D01*
X0020502Y0011195D01*
X0020273Y0011246D01*
X0020057Y0011340D01*
X0019864Y0011474D01*
X0019700Y0011644D01*
X0019573Y0011841D01*
X0019486Y0012060D01*
X0019473Y0012131D01*
X0019468Y0012150D01*
X0019459Y0012167D01*
X0019447Y0012182D01*
X0019432Y0012195D01*
X0019414Y0012204D01*
X0019396Y0012210D01*
X0019376Y0012213D01*
X0019357Y0012211D01*
X0019338Y0012206D01*
X0019320Y0012197D01*
X0019305Y0012184D01*
X0019292Y0012169D01*
X0019283Y0012152D01*
X0019277Y0012135D01*
X0019249Y0012012D01*
X0019154Y0011797D01*
X0019018Y0011605D01*
X0018848Y0011442D01*
X0018649Y0011316D01*
X0018429Y0011231D01*
X0018198Y0011190D01*
X0017962Y0011195D01*
X0017733Y0011246D01*
X0017517Y0011340D01*
X0017324Y0011474D01*
X0017160Y0011644D01*
X0017033Y0011841D01*
X0016946Y0012060D01*
X0016933Y0012131D01*
X0016928Y0012150D01*
X0016919Y0012167D01*
X0016907Y0012182D01*
X0016892Y0012195D01*
X0016874Y0012204D01*
X0016856Y0012210D01*
X0016836Y0012213D01*
X0016817Y0012211D01*
X0016798Y0012206D01*
X0016780Y0012197D01*
X0016765Y0012184D01*
X0016752Y0012169D01*
X0016743Y0012152D01*
X0016737Y0012135D01*
X0016709Y0012012D01*
X0016614Y0011797D01*
X0016478Y0011605D01*
X0016308Y0011442D01*
X0016109Y0011316D01*
X0015889Y0011231D01*
X0015658Y0011190D01*
X0015422Y0011195D01*
X0015193Y0011246D01*
X0014977Y0011340D01*
X0014784Y0011474D01*
X0014620Y0011644D01*
X0014493Y0011841D01*
X0014406Y0012060D01*
X0014364Y0012292D01*
X0014367Y0012527D01*
X0014416Y0012757D01*
X0014509Y0012973D01*
X0014641Y0013168D01*
X0014810Y0013332D01*
X0015007Y0013461D01*
X0015225Y0013549D01*
X0015456Y0013593D01*
X0015691Y0013592D01*
X0015922Y0013544D01*
X0016139Y0013453D01*
X0016334Y0013322D01*
X0016500Y0013155D01*
X0016630Y0012959D01*
X0016720Y0012741D01*
X0016737Y0012652D01*
X0016743Y0012633D01*
X0016752Y0012616D01*
X0016765Y0012600D01*
X0016780Y0012588D01*
X0016797Y0012579D01*
X0016816Y0012573D01*
X0016835Y0012571D01*
X0016855Y0012573D01*
X0016874Y0012579D01*
X0016891Y0012588D01*
X0016906Y0012600D01*
X0016918Y0012616D01*
X0016928Y0012633D01*
X0016933Y0012650D01*
X0016956Y0012757D01*
X0017049Y0012973D01*
X0017181Y0013168D01*
X0017350Y0013332D01*
X0017547Y0013461D01*
X0017765Y0013549D01*
X0017996Y0013593D01*
X0018231Y0013592D01*
X0018462Y0013544D01*
X0018679Y0013453D01*
X0018874Y0013322D01*
X0019040Y0013155D01*
X0019170Y0012959D01*
X0019260Y0012741D01*
X0019277Y0012652D01*
X0019283Y0012633D01*
X0019292Y0012616D01*
X0019305Y0012600D01*
X0019320Y0012588D01*
X0019337Y0012579D01*
X0019356Y0012573D01*
X0019375Y0012571D01*
X0019395Y0012573D01*
X0019414Y0012579D01*
X0019431Y0012588D01*
X0019446Y0012600D01*
X0019458Y0012616D01*
X0019468Y0012633D01*
X0019473Y0012650D01*
X0019496Y0012757D01*
X0019589Y0012973D01*
X0019721Y0013168D01*
X0019890Y0013332D01*
X0020087Y0013461D01*
X0020305Y0013549D01*
X0020536Y0013593D01*
X0020771Y0013592D01*
X0020771Y0013592D01*
G37*
G36*
X0007058Y0012754D02*
X0005134Y0012754D01*
X0005134Y0014678D01*
X0007058Y0014678D01*
X0007058Y0012754D01*
X0007058Y0012754D01*
G37*
G36*
X0004518Y0012754D02*
X0002594Y0012754D01*
X0002594Y0014678D01*
X0004518Y0014678D01*
X0004518Y0012754D01*
X0004518Y0012754D01*
G37*
G36*
X0045158Y0012754D02*
X0043234Y0012754D01*
X0043234Y0014678D01*
X0045158Y0014678D01*
X0045158Y0012754D01*
X0045158Y0012754D01*
G37*
G36*
X0047698Y0012754D02*
X0045774Y0012754D01*
X0045774Y0014678D01*
X0047698Y0014678D01*
X0047698Y0012754D01*
X0047698Y0012754D01*
G37*
G36*
X0034741Y0016132D02*
X0034972Y0016084D01*
X0035189Y0015993D01*
X0035384Y0015862D01*
X0035550Y0015695D01*
X0035680Y0015499D01*
X0035770Y0015281D01*
X0035815Y0015051D01*
X0035815Y0015051D01*
X0035815Y0015050D01*
X0035811Y0014781D01*
X0035811Y0014781D01*
X0035811Y0014781D01*
X0035759Y0014552D01*
X0035664Y0014337D01*
X0035528Y0014145D01*
X0035358Y0013982D01*
X0035159Y0013856D01*
X0034939Y0013771D01*
X0034708Y0013730D01*
X0034472Y0013735D01*
X0034243Y0013786D01*
X0034027Y0013880D01*
X0033834Y0014014D01*
X0033670Y0014184D01*
X0033543Y0014381D01*
X0033456Y0014600D01*
X0033443Y0014671D01*
X0033438Y0014690D01*
X0033429Y0014707D01*
X0033417Y0014722D01*
X0033402Y0014735D01*
X0033384Y0014744D01*
X0033366Y0014750D01*
X0033346Y0014753D01*
X0033327Y0014751D01*
X0033308Y0014746D01*
X0033290Y0014737D01*
X0033275Y0014724D01*
X0033262Y0014709D01*
X0033253Y0014692D01*
X0033247Y0014675D01*
X0033219Y0014552D01*
X0033124Y0014337D01*
X0032988Y0014145D01*
X0032818Y0013982D01*
X0032619Y0013856D01*
X0032399Y0013771D01*
X0032168Y0013730D01*
X0031932Y0013735D01*
X0031703Y0013786D01*
X0031487Y0013880D01*
X0031294Y0014014D01*
X0031130Y0014184D01*
X0031003Y0014381D01*
X0030916Y0014600D01*
X0030903Y0014671D01*
X0030898Y0014690D01*
X0030889Y0014707D01*
X0030877Y0014722D01*
X0030862Y0014735D01*
X0030844Y0014744D01*
X0030826Y0014750D01*
X0030806Y0014753D01*
X0030787Y0014751D01*
X0030768Y0014746D01*
X0030750Y0014737D01*
X0030735Y0014724D01*
X0030722Y0014709D01*
X0030713Y0014692D01*
X0030707Y0014675D01*
X0030679Y0014552D01*
X0030584Y0014337D01*
X0030448Y0014145D01*
X0030278Y0013982D01*
X0030079Y0013856D01*
X0029859Y0013771D01*
X0029628Y0013730D01*
X0029392Y0013735D01*
X0029163Y0013786D01*
X0028947Y0013880D01*
X0028754Y0014014D01*
X0028590Y0014184D01*
X0028463Y0014381D01*
X0028376Y0014600D01*
X0028334Y0014832D01*
X0028337Y0015067D01*
X0028386Y0015297D01*
X0028479Y0015513D01*
X0028611Y0015708D01*
X0028780Y0015872D01*
X0028977Y0016001D01*
X0029195Y0016089D01*
X0029426Y0016133D01*
X0029661Y0016132D01*
X0029892Y0016084D01*
X0030109Y0015993D01*
X0030304Y0015862D01*
X0030470Y0015695D01*
X0030600Y0015499D01*
X0030690Y0015281D01*
X0030707Y0015192D01*
X0030713Y0015173D01*
X0030722Y0015156D01*
X0030735Y0015140D01*
X0030750Y0015128D01*
X0030767Y0015119D01*
X0030786Y0015113D01*
X0030805Y0015111D01*
X0030825Y0015113D01*
X0030844Y0015119D01*
X0030861Y0015128D01*
X0030876Y0015140D01*
X0030888Y0015156D01*
X0030898Y0015173D01*
X0030903Y0015190D01*
X0030926Y0015297D01*
X0031019Y0015513D01*
X0031151Y0015708D01*
X0031320Y0015872D01*
X0031517Y0016001D01*
X0031735Y0016089D01*
X0031966Y0016133D01*
X0032201Y0016132D01*
X0032432Y0016084D01*
X0032649Y0015993D01*
X0032844Y0015862D01*
X0033010Y0015695D01*
X0033140Y0015499D01*
X0033230Y0015281D01*
X0033247Y0015192D01*
X0033253Y0015173D01*
X0033262Y0015156D01*
X0033275Y0015140D01*
X0033290Y0015128D01*
X0033307Y0015119D01*
X0033326Y0015113D01*
X0033345Y0015111D01*
X0033365Y0015113D01*
X0033384Y0015119D01*
X0033401Y0015128D01*
X0033416Y0015140D01*
X0033428Y0015156D01*
X0033438Y0015173D01*
X0033443Y0015190D01*
X0033466Y0015297D01*
X0033559Y0015513D01*
X0033691Y0015708D01*
X0033860Y0015872D01*
X0034057Y0016001D01*
X0034275Y0016089D01*
X0034506Y0016133D01*
X0034741Y0016132D01*
X0034741Y0016132D01*
G37*
G36*
X0019501Y0016132D02*
X0019732Y0016084D01*
X0019949Y0015993D01*
X0020144Y0015862D01*
X0020310Y0015695D01*
X0020440Y0015499D01*
X0020530Y0015281D01*
X0020575Y0015051D01*
X0020575Y0015051D01*
X0020575Y0015050D01*
X0020571Y0014781D01*
X0020571Y0014781D01*
X0020571Y0014781D01*
X0020519Y0014552D01*
X0020424Y0014337D01*
X0020288Y0014145D01*
X0020118Y0013982D01*
X0019919Y0013856D01*
X0019699Y0013771D01*
X0019468Y0013730D01*
X0019232Y0013735D01*
X0019003Y0013786D01*
X0018787Y0013880D01*
X0018594Y0014014D01*
X0018430Y0014184D01*
X0018303Y0014381D01*
X0018216Y0014600D01*
X0018203Y0014671D01*
X0018198Y0014690D01*
X0018189Y0014707D01*
X0018177Y0014722D01*
X0018162Y0014735D01*
X0018144Y0014744D01*
X0018126Y0014750D01*
X0018106Y0014753D01*
X0018087Y0014751D01*
X0018068Y0014746D01*
X0018050Y0014737D01*
X0018035Y0014724D01*
X0018022Y0014709D01*
X0018013Y0014692D01*
X0018007Y0014675D01*
X0017979Y0014552D01*
X0017884Y0014337D01*
X0017748Y0014145D01*
X0017578Y0013982D01*
X0017379Y0013856D01*
X0017159Y0013771D01*
X0016928Y0013730D01*
X0016692Y0013735D01*
X0016463Y0013786D01*
X0016247Y0013880D01*
X0016054Y0014014D01*
X0015890Y0014184D01*
X0015763Y0014381D01*
X0015676Y0014600D01*
X0015663Y0014671D01*
X0015658Y0014690D01*
X0015649Y0014707D01*
X0015637Y0014722D01*
X0015622Y0014735D01*
X0015604Y0014744D01*
X0015586Y0014750D01*
X0015566Y0014753D01*
X0015547Y0014751D01*
X0015528Y0014746D01*
X0015510Y0014737D01*
X0015495Y0014724D01*
X0015482Y0014709D01*
X0015473Y0014692D01*
X0015467Y0014675D01*
X0015439Y0014552D01*
X0015344Y0014337D01*
X0015208Y0014145D01*
X0015038Y0013982D01*
X0014839Y0013856D01*
X0014619Y0013771D01*
X0014388Y0013730D01*
X0014152Y0013735D01*
X0013923Y0013786D01*
X0013707Y0013880D01*
X0013514Y0014014D01*
X0013350Y0014184D01*
X0013223Y0014381D01*
X0013136Y0014600D01*
X0013094Y0014832D01*
X0013097Y0015067D01*
X0013146Y0015297D01*
X0013239Y0015513D01*
X0013371Y0015708D01*
X0013540Y0015872D01*
X0013737Y0016001D01*
X0013955Y0016089D01*
X0014186Y0016133D01*
X0014421Y0016132D01*
X0014652Y0016084D01*
X0014869Y0015993D01*
X0015064Y0015862D01*
X0015230Y0015695D01*
X0015360Y0015499D01*
X0015450Y0015281D01*
X0015467Y0015192D01*
X0015473Y0015173D01*
X0015482Y0015156D01*
X0015495Y0015140D01*
X0015510Y0015128D01*
X0015527Y0015119D01*
X0015546Y0015113D01*
X0015565Y0015111D01*
X0015585Y0015113D01*
X0015604Y0015119D01*
X0015621Y0015128D01*
X0015636Y0015140D01*
X0015648Y0015156D01*
X0015658Y0015173D01*
X0015663Y0015190D01*
X0015686Y0015297D01*
X0015779Y0015513D01*
X0015911Y0015708D01*
X0016080Y0015872D01*
X0016277Y0016001D01*
X0016495Y0016089D01*
X0016726Y0016133D01*
X0016961Y0016132D01*
X0017192Y0016084D01*
X0017409Y0015993D01*
X0017604Y0015862D01*
X0017770Y0015695D01*
X0017900Y0015499D01*
X0017990Y0015281D01*
X0018007Y0015192D01*
X0018013Y0015173D01*
X0018022Y0015156D01*
X0018035Y0015140D01*
X0018050Y0015128D01*
X0018067Y0015119D01*
X0018086Y0015113D01*
X0018105Y0015111D01*
X0018125Y0015113D01*
X0018144Y0015119D01*
X0018161Y0015128D01*
X0018176Y0015140D01*
X0018188Y0015156D01*
X0018198Y0015173D01*
X0018203Y0015190D01*
X0018226Y0015297D01*
X0018319Y0015513D01*
X0018451Y0015708D01*
X0018620Y0015872D01*
X0018817Y0016001D01*
X0019035Y0016089D01*
X0019266Y0016133D01*
X0019501Y0016132D01*
X0019501Y0016132D01*
G37*
G36*
X0047698Y0015294D02*
X0045774Y0015294D01*
X0045774Y0017218D01*
X0047698Y0017218D01*
X0047698Y0015294D01*
X0047698Y0015294D01*
G37*
G36*
X0045158Y0015294D02*
X0043234Y0015294D01*
X0043234Y0017218D01*
X0045158Y0017218D01*
X0045158Y0015294D01*
X0045158Y0015294D01*
G37*
G36*
X0004518Y0015294D02*
X0002594Y0015294D01*
X0002594Y0017218D01*
X0004518Y0017218D01*
X0004518Y0015294D01*
X0004518Y0015294D01*
G37*
G36*
X0007058Y0015294D02*
X0005134Y0015294D01*
X0005134Y0017218D01*
X0007058Y0017218D01*
X0007058Y0015294D01*
X0007058Y0015294D01*
G37*
G36*
X0047698Y0017834D02*
X0045774Y0017834D01*
X0045774Y0019758D01*
X0047698Y0019758D01*
X0047698Y0017834D01*
X0047698Y0017834D01*
G37*
G36*
X0004518Y0017834D02*
X0002594Y0017834D01*
X0002594Y0019758D01*
X0004518Y0019758D01*
X0004518Y0017834D01*
X0004518Y0017834D01*
G37*
G36*
X0007058Y0017834D02*
X0005134Y0017834D01*
X0005134Y0019758D01*
X0007058Y0019758D01*
X0007058Y0017834D01*
X0007058Y0017834D01*
G37*
G36*
X0045158Y0017834D02*
X0043234Y0017834D01*
X0043234Y0019758D01*
X0045158Y0019758D01*
X0045158Y0017834D01*
X0045158Y0017834D01*
G37*
G36*
X0012138Y0020374D02*
X0010214Y0020374D01*
X0010214Y0022298D01*
X0012138Y0022298D01*
X0012138Y0020374D01*
X0012138Y0020374D01*
G37*
G36*
X0014678Y0020374D02*
X0012754Y0020374D01*
X0012754Y0022298D01*
X0014678Y0022298D01*
X0014678Y0020374D01*
X0014678Y0020374D01*
G37*
G36*
X0005162Y0028344D02*
X0005777Y0028218D01*
X0006355Y0027975D01*
X0006876Y0027624D01*
X0007318Y0027178D01*
X0007665Y0026656D01*
X0007904Y0026075D01*
X0008026Y0025460D01*
X0008026Y0025460D01*
X0008026Y0025460D01*
X0008016Y0024743D01*
X0008016Y0024742D01*
X0008016Y0024742D01*
X0007877Y0024131D01*
X0007622Y0023558D01*
X0007260Y0023045D01*
X0006806Y0022612D01*
X0006276Y0022276D01*
X0005691Y0022049D01*
X0005073Y0021940D01*
X0004445Y0021953D01*
X0003832Y0022088D01*
X0003257Y0022339D01*
X0002742Y0022697D01*
X0002306Y0023149D01*
X0001966Y0023676D01*
X0001735Y0024260D01*
X0001622Y0024877D01*
X0001631Y0025504D01*
X0001761Y0026118D01*
X0002008Y0026695D01*
X0002363Y0027213D01*
X0002811Y0027652D01*
X0003336Y0027996D01*
X0003918Y0028231D01*
X0004535Y0028348D01*
X0005162Y0028344D01*
X0005162Y0028344D01*
G37*
G36*
X0045802Y0028344D02*
X0046417Y0028218D01*
X0046995Y0027975D01*
X0047516Y0027624D01*
X0047958Y0027178D01*
X0048305Y0026656D01*
X0048544Y0026075D01*
X0048666Y0025460D01*
X0048666Y0025460D01*
X0048666Y0025460D01*
X0048656Y0024743D01*
X0048656Y0024742D01*
X0048656Y0024742D01*
X0048517Y0024131D01*
X0048262Y0023558D01*
X0047900Y0023045D01*
X0047446Y0022612D01*
X0046916Y0022276D01*
X0046331Y0022049D01*
X0045713Y0021940D01*
X0045085Y0021953D01*
X0044472Y0022088D01*
X0043897Y0022339D01*
X0043382Y0022697D01*
X0042946Y0023149D01*
X0042606Y0023676D01*
X0042375Y0024260D01*
X0042262Y0024877D01*
X0042271Y0025504D01*
X0042401Y0026118D01*
X0042648Y0026695D01*
X0043003Y0027213D01*
X0043451Y0027652D01*
X0043976Y0027996D01*
X0044558Y0028231D01*
X0045175Y0028348D01*
X0045802Y0028344D01*
X0045802Y0028344D01*
G37*
G36*
X0017218Y0022914D02*
X0015294Y0022914D01*
X0015294Y0024838D01*
X0017218Y0024838D01*
X0017218Y0022914D01*
X0017218Y0022914D01*
G37*
G36*
X0014678Y0022914D02*
X0012754Y0022914D01*
X0012754Y0024838D01*
X0014678Y0024838D01*
X0014678Y0022914D01*
X0014678Y0022914D01*
G37*
G36*
X0019758Y0022914D02*
X0017834Y0022914D01*
X0017834Y0024838D01*
X0019758Y0024838D01*
X0019758Y0022914D01*
X0019758Y0022914D01*
G37*
G36*
X0022298Y0022914D02*
X0020374Y0022914D01*
X0020374Y0024838D01*
X0022298Y0024838D01*
X0022298Y0022914D01*
X0022298Y0022914D01*
G37*
G36*
X0024838Y0022914D02*
X0022914Y0022914D01*
X0022914Y0024838D01*
X0024838Y0024838D01*
X0024838Y0022914D01*
X0024838Y0022914D01*
G37*
G36*
X0037538Y0022914D02*
X0035614Y0022914D01*
X0035614Y0024838D01*
X0037538Y0024838D01*
X0037538Y0022914D01*
X0037538Y0022914D01*
G37*
G36*
X0034998Y0022914D02*
X0033074Y0022914D01*
X0033074Y0024838D01*
X0034998Y0024838D01*
X0034998Y0022914D01*
X0034998Y0022914D01*
G37*
G36*
X0034998Y0025454D02*
X0033074Y0025454D01*
X0033074Y0027378D01*
X0034998Y0027378D01*
X0034998Y0025454D01*
X0034998Y0025454D01*
G37*
G36*
X0014678Y0025454D02*
X0012754Y0025454D01*
X0012754Y0027378D01*
X0014678Y0027378D01*
X0014678Y0025454D01*
X0014678Y0025454D01*
G37*
G36*
X0024838Y0025454D02*
X0022914Y0025454D01*
X0022914Y0027378D01*
X0024838Y0027378D01*
X0024838Y0025454D01*
X0024838Y0025454D01*
G37*
G36*
X0022298Y0025454D02*
X0020374Y0025454D01*
X0020374Y0027378D01*
X0022298Y0027378D01*
X0022298Y0025454D01*
X0022298Y0025454D01*
G37*
G36*
X0037538Y0025454D02*
X0035614Y0025454D01*
X0035614Y0027378D01*
X0037538Y0027378D01*
X0037538Y0025454D01*
X0037538Y0025454D01*
G37*
G36*
X0019758Y0025454D02*
X0017834Y0025454D01*
X0017834Y0027378D01*
X0019758Y0027378D01*
X0019758Y0025454D01*
X0019758Y0025454D01*
G37*
G36*
X0017218Y0025454D02*
X0015294Y0025454D01*
X0015294Y0027378D01*
X0017218Y0027378D01*
X0017218Y0025454D01*
X0017218Y0025454D01*
G37*
X0050290Y0000000D02*
%LPD*%
G01*
D23*
G36*
X0055452Y0008024D02*
X0056067Y0007898D01*
X0056645Y0007655D01*
X0057166Y0007304D01*
X0057608Y0006858D01*
X0057955Y0006336D01*
X0058194Y0005755D01*
X0058316Y0005140D01*
X0058316Y0005140D01*
X0058316Y0005140D01*
X0058306Y0004423D01*
X0058306Y0004422D01*
X0058306Y0004422D01*
X0058167Y0003811D01*
X0057912Y0003238D01*
X0057550Y0002725D01*
X0057096Y0002292D01*
X0056566Y0001956D01*
X0055981Y0001729D01*
X0055363Y0001620D01*
X0054735Y0001633D01*
X0054122Y0001768D01*
X0053547Y0002019D01*
X0053032Y0002377D01*
X0052596Y0002829D01*
X0052256Y0003356D01*
X0052025Y0003940D01*
X0051912Y0004557D01*
X0051921Y0005184D01*
X0052051Y0005798D01*
X0052298Y0006375D01*
X0052653Y0006893D01*
X0053101Y0007332D01*
X0053626Y0007676D01*
X0054208Y0007911D01*
X0054825Y0008028D01*
X0055452Y0008024D01*
X0055452Y0008024D01*
G37*
G36*
X0065612Y0008024D02*
X0066227Y0007898D01*
X0066805Y0007655D01*
X0067326Y0007304D01*
X0067768Y0006858D01*
X0068115Y0006336D01*
X0068354Y0005755D01*
X0068476Y0005140D01*
X0068476Y0005140D01*
X0068476Y0005140D01*
X0068466Y0004423D01*
X0068466Y0004422D01*
X0068466Y0004422D01*
X0068327Y0003811D01*
X0068072Y0003238D01*
X0067710Y0002725D01*
X0067256Y0002292D01*
X0066726Y0001956D01*
X0066141Y0001729D01*
X0065523Y0001620D01*
X0064895Y0001633D01*
X0064282Y0001768D01*
X0063707Y0002019D01*
X0063192Y0002377D01*
X0062756Y0002829D01*
X0062416Y0003356D01*
X0062185Y0003940D01*
X0062072Y0004557D01*
X0062081Y0005184D01*
X0062211Y0005798D01*
X0062458Y0006375D01*
X0062813Y0006893D01*
X0063261Y0007332D01*
X0063786Y0007676D01*
X0064368Y0007911D01*
X0064985Y0008028D01*
X0065612Y0008024D01*
X0065612Y0008024D01*
G37*
G36*
X0057221Y0009452D02*
X0055297Y0009452D01*
X0055297Y0011376D01*
X0057221Y0011376D01*
X0057221Y0009452D01*
X0057221Y0009452D01*
G37*
G36*
X0054681Y0009452D02*
X0052757Y0009452D01*
X0052757Y0011376D01*
X0054681Y0011376D01*
X0054681Y0009452D01*
X0054681Y0009452D01*
G37*
G36*
X0068422Y0009757D02*
X0066498Y0009757D01*
X0066498Y0011681D01*
X0068422Y0011681D01*
X0068422Y0009757D01*
X0068422Y0009757D01*
G37*
G36*
X0065882Y0009757D02*
X0063958Y0009757D01*
X0063958Y0011681D01*
X0065882Y0011681D01*
X0065882Y0009757D01*
X0065882Y0009757D01*
G37*
G36*
X0057221Y0011992D02*
X0055297Y0011992D01*
X0055297Y0013916D01*
X0057221Y0013916D01*
X0057221Y0011992D01*
X0057221Y0011992D01*
G37*
G36*
X0054681Y0011992D02*
X0052757Y0011992D01*
X0052757Y0013916D01*
X0054681Y0013916D01*
X0054681Y0011992D01*
X0054681Y0011992D01*
G37*
G36*
X0054681Y0014532D02*
X0052757Y0014532D01*
X0052757Y0016456D01*
X0054681Y0016456D01*
X0054681Y0014532D01*
X0054681Y0014532D01*
G37*
G36*
X0057221Y0014532D02*
X0055297Y0014532D01*
X0055297Y0016456D01*
X0057221Y0016456D01*
X0057221Y0014532D01*
X0057221Y0014532D01*
G37*
G36*
X0057221Y0017961D02*
X0055297Y0017961D01*
X0055297Y0019885D01*
X0057221Y0019885D01*
X0057221Y0017961D01*
X0057221Y0017961D01*
G37*
G36*
X0054681Y0017961D02*
X0052757Y0017961D01*
X0052757Y0019885D01*
X0054681Y0019885D01*
X0054681Y0017961D01*
X0054681Y0017961D01*
G37*
G36*
X0054681Y0020501D02*
X0052757Y0020501D01*
X0052757Y0022425D01*
X0054681Y0022425D01*
X0054681Y0020501D01*
X0054681Y0020501D01*
G37*
G36*
X0057221Y0020501D02*
X0055297Y0020501D01*
X0055297Y0022425D01*
X0057221Y0022425D01*
X0057221Y0020501D01*
X0057221Y0020501D01*
G37*
G36*
X0054681Y0023041D02*
X0052757Y0023041D01*
X0052757Y0024965D01*
X0054681Y0024965D01*
X0054681Y0023041D01*
X0054681Y0023041D01*
G37*
G36*
X0057221Y0023041D02*
X0055297Y0023041D01*
X0055297Y0024965D01*
X0057221Y0024965D01*
X0057221Y0023041D01*
X0057221Y0023041D01*
G37*
G36*
X0057221Y0025581D02*
X0055297Y0025581D01*
X0055297Y0027505D01*
X0057221Y0027505D01*
X0057221Y0025581D01*
X0057221Y0025581D01*
G37*
G36*
X0054681Y0025581D02*
X0052757Y0025581D01*
X0052757Y0027505D01*
X0054681Y0027505D01*
X0054681Y0025581D01*
X0054681Y0025581D01*
G37*
G36*
X0054681Y0028121D02*
X0052757Y0028121D01*
X0052757Y0030045D01*
X0054681Y0030045D01*
X0054681Y0028121D01*
X0054681Y0028121D01*
G37*
G36*
X0057221Y0028121D02*
X0055297Y0028121D01*
X0055297Y0030045D01*
X0057221Y0030045D01*
X0057221Y0028121D01*
X0057221Y0028121D01*
G37*
G36*
X0055452Y0038504D02*
X0056067Y0038378D01*
X0056645Y0038135D01*
X0057166Y0037784D01*
X0057608Y0037338D01*
X0057955Y0036816D01*
X0058194Y0036235D01*
X0058316Y0035620D01*
X0058316Y0035620D01*
X0058316Y0035620D01*
X0058306Y0034903D01*
X0058306Y0034902D01*
X0058306Y0034902D01*
X0058167Y0034291D01*
X0057912Y0033718D01*
X0057550Y0033205D01*
X0057096Y0032772D01*
X0056566Y0032436D01*
X0055981Y0032209D01*
X0055363Y0032100D01*
X0054735Y0032113D01*
X0054122Y0032248D01*
X0053547Y0032499D01*
X0053032Y0032857D01*
X0052596Y0033309D01*
X0052256Y0033836D01*
X0052025Y0034420D01*
X0051912Y0035037D01*
X0051921Y0035664D01*
X0052051Y0036278D01*
X0052298Y0036855D01*
X0052653Y0037373D01*
X0053101Y0037812D01*
X0053626Y0038156D01*
X0054208Y0038391D01*
X0054825Y0038508D01*
X0055452Y0038504D01*
X0055452Y0038504D01*
G37*
G36*
X0065612Y0038504D02*
X0066227Y0038378D01*
X0066805Y0038135D01*
X0067326Y0037784D01*
X0067768Y0037338D01*
X0068115Y0036816D01*
X0068354Y0036235D01*
X0068476Y0035620D01*
X0068476Y0035620D01*
X0068476Y0035620D01*
X0068466Y0034903D01*
X0068466Y0034902D01*
X0068466Y0034902D01*
X0068327Y0034291D01*
X0068072Y0033718D01*
X0067710Y0033205D01*
X0067256Y0032772D01*
X0066726Y0032436D01*
X0066141Y0032209D01*
X0065523Y0032100D01*
X0064895Y0032113D01*
X0064282Y0032248D01*
X0063707Y0032499D01*
X0063192Y0032857D01*
X0062756Y0033309D01*
X0062416Y0033836D01*
X0062185Y0034420D01*
X0062072Y0035037D01*
X0062081Y0035664D01*
X0062211Y0036278D01*
X0062458Y0036855D01*
X0062813Y0037373D01*
X0063261Y0037812D01*
X0063786Y0038156D01*
X0064368Y0038391D01*
X0064985Y0038508D01*
X0065612Y0038504D01*
X0065612Y0038504D01*
G37*
X0070100Y0000000D02*
%LPD*%
G01*
D23*
G36*
X0075262Y0008024D02*
X0075877Y0007898D01*
X0076455Y0007655D01*
X0076976Y0007304D01*
X0077418Y0006858D01*
X0077765Y0006336D01*
X0078004Y0005755D01*
X0078126Y0005140D01*
X0078126Y0005140D01*
X0078126Y0005140D01*
X0078116Y0004423D01*
X0078116Y0004422D01*
X0078116Y0004422D01*
X0077977Y0003811D01*
X0077722Y0003238D01*
X0077360Y0002725D01*
X0076906Y0002292D01*
X0076376Y0001956D01*
X0075791Y0001729D01*
X0075173Y0001620D01*
X0074545Y0001633D01*
X0073932Y0001768D01*
X0073357Y0002019D01*
X0072842Y0002377D01*
X0072406Y0002829D01*
X0072066Y0003356D01*
X0071835Y0003940D01*
X0071722Y0004557D01*
X0071731Y0005184D01*
X0071861Y0005798D01*
X0072108Y0006375D01*
X0072463Y0006893D01*
X0072911Y0007332D01*
X0073436Y0007676D01*
X0074018Y0007911D01*
X0074635Y0008028D01*
X0075262Y0008024D01*
X0075262Y0008024D01*
G37*
G36*
X0115902Y0008024D02*
X0116517Y0007898D01*
X0117095Y0007655D01*
X0117616Y0007304D01*
X0118058Y0006858D01*
X0118405Y0006336D01*
X0118644Y0005755D01*
X0118766Y0005140D01*
X0118766Y0005140D01*
X0118766Y0005140D01*
X0118756Y0004423D01*
X0118756Y0004422D01*
X0118756Y0004422D01*
X0118617Y0003811D01*
X0118362Y0003238D01*
X0118000Y0002725D01*
X0117546Y0002292D01*
X0117016Y0001956D01*
X0116431Y0001729D01*
X0115813Y0001620D01*
X0115185Y0001633D01*
X0114572Y0001768D01*
X0113997Y0002019D01*
X0113482Y0002377D01*
X0113046Y0002829D01*
X0112706Y0003356D01*
X0112475Y0003940D01*
X0112362Y0004557D01*
X0112371Y0005184D01*
X0112501Y0005798D01*
X0112748Y0006375D01*
X0113103Y0006893D01*
X0113551Y0007332D01*
X0114076Y0007676D01*
X0114658Y0007911D01*
X0115275Y0008028D01*
X0115902Y0008024D01*
X0115902Y0008024D01*
G37*
G36*
X0082726Y0008231D02*
X0083149Y0008144D01*
X0083547Y0007977D01*
X0083904Y0007736D01*
X0084208Y0007430D01*
X0084447Y0007070D01*
X0084611Y0006671D01*
X0084695Y0006249D01*
X0084695Y0006249D01*
X0084695Y0006248D01*
X0084688Y0005755D01*
X0084688Y0005755D01*
X0084688Y0005755D01*
X0084593Y0005335D01*
X0084417Y0004941D01*
X0084169Y0004588D01*
X0083856Y0004290D01*
X0083492Y0004059D01*
X0083090Y0003903D01*
X0082665Y0003828D01*
X0082233Y0003837D01*
X0081812Y0003930D01*
X0081417Y0004103D01*
X0081062Y0004349D01*
X0080763Y0004659D01*
X0080529Y0005022D01*
X0080370Y0005423D01*
X0080292Y0005848D01*
X0080298Y0006279D01*
X0080388Y0006701D01*
X0080558Y0007097D01*
X0080802Y0007453D01*
X0081110Y0007755D01*
X0081471Y0007992D01*
X0081871Y0008153D01*
X0082295Y0008234D01*
X0082726Y0008231D01*
X0082726Y0008231D01*
G37*
G36*
X0092886Y0008231D02*
X0093309Y0008144D01*
X0093707Y0007977D01*
X0094064Y0007736D01*
X0094368Y0007430D01*
X0094607Y0007070D01*
X0094771Y0006671D01*
X0094855Y0006249D01*
X0094855Y0006249D01*
X0094855Y0006248D01*
X0094848Y0005755D01*
X0094848Y0005755D01*
X0094848Y0005755D01*
X0094753Y0005335D01*
X0094577Y0004941D01*
X0094329Y0004588D01*
X0094016Y0004290D01*
X0093652Y0004059D01*
X0093250Y0003903D01*
X0092825Y0003828D01*
X0092393Y0003837D01*
X0091972Y0003930D01*
X0091577Y0004103D01*
X0091222Y0004349D01*
X0090923Y0004659D01*
X0090689Y0005022D01*
X0090530Y0005423D01*
X0090452Y0005848D01*
X0090458Y0006279D01*
X0090548Y0006701D01*
X0090718Y0007097D01*
X0090962Y0007453D01*
X0091270Y0007755D01*
X0091631Y0007992D01*
X0092031Y0008153D01*
X0092455Y0008234D01*
X0092886Y0008231D01*
X0092886Y0008231D01*
G37*
G36*
X0097966Y0008231D02*
X0098389Y0008144D01*
X0098787Y0007977D01*
X0099144Y0007736D01*
X0099448Y0007430D01*
X0099687Y0007070D01*
X0099851Y0006671D01*
X0099935Y0006249D01*
X0099935Y0006249D01*
X0099935Y0006248D01*
X0099928Y0005755D01*
X0099928Y0005755D01*
X0099928Y0005755D01*
X0099833Y0005335D01*
X0099657Y0004941D01*
X0099409Y0004588D01*
X0099096Y0004290D01*
X0098732Y0004059D01*
X0098330Y0003903D01*
X0097905Y0003828D01*
X0097473Y0003837D01*
X0097052Y0003930D01*
X0096657Y0004103D01*
X0096302Y0004349D01*
X0096003Y0004659D01*
X0095769Y0005022D01*
X0095610Y0005423D01*
X0095532Y0005848D01*
X0095538Y0006279D01*
X0095628Y0006701D01*
X0095798Y0007097D01*
X0096042Y0007453D01*
X0096350Y0007755D01*
X0096711Y0007992D01*
X0097111Y0008153D01*
X0097535Y0008234D01*
X0097966Y0008231D01*
X0097966Y0008231D01*
G37*
G36*
X0108126Y0008231D02*
X0108549Y0008144D01*
X0108947Y0007977D01*
X0109304Y0007736D01*
X0109608Y0007430D01*
X0109847Y0007070D01*
X0110011Y0006671D01*
X0110095Y0006249D01*
X0110095Y0006249D01*
X0110095Y0006248D01*
X0110088Y0005755D01*
X0110088Y0005755D01*
X0110088Y0005755D01*
X0109993Y0005335D01*
X0109817Y0004941D01*
X0109569Y0004588D01*
X0109256Y0004290D01*
X0108892Y0004059D01*
X0108490Y0003903D01*
X0108065Y0003828D01*
X0107633Y0003837D01*
X0107212Y0003930D01*
X0106817Y0004103D01*
X0106462Y0004349D01*
X0106163Y0004659D01*
X0105929Y0005022D01*
X0105770Y0005423D01*
X0105692Y0005848D01*
X0105698Y0006279D01*
X0105788Y0006701D01*
X0105958Y0007097D01*
X0106202Y0007453D01*
X0106510Y0007755D01*
X0106871Y0007992D01*
X0107271Y0008153D01*
X0107695Y0008234D01*
X0108126Y0008231D01*
X0108126Y0008231D01*
G37*
G36*
X0115258Y0010214D02*
X0113334Y0010214D01*
X0113334Y0012138D01*
X0115258Y0012138D01*
X0115258Y0010214D01*
X0115258Y0010214D01*
G37*
G36*
X0117798Y0010214D02*
X0115874Y0010214D01*
X0115874Y0012138D01*
X0117798Y0012138D01*
X0117798Y0010214D01*
X0117798Y0010214D01*
G37*
G36*
X0074618Y0010214D02*
X0072694Y0010214D01*
X0072694Y0012138D01*
X0074618Y0012138D01*
X0074618Y0010214D01*
X0074618Y0010214D01*
G37*
G36*
X0077158Y0010214D02*
X0075234Y0010214D01*
X0075234Y0012138D01*
X0077158Y0012138D01*
X0077158Y0010214D01*
X0077158Y0010214D01*
G37*
G36*
X0106111Y0013592D02*
X0106342Y0013544D01*
X0106559Y0013453D01*
X0106754Y0013322D01*
X0106920Y0013155D01*
X0107050Y0012959D01*
X0107140Y0012741D01*
X0107185Y0012511D01*
X0107185Y0012511D01*
X0107185Y0012510D01*
X0107181Y0012241D01*
X0107181Y0012241D01*
X0107181Y0012241D01*
X0107129Y0012012D01*
X0107034Y0011797D01*
X0106898Y0011605D01*
X0106728Y0011442D01*
X0106529Y0011316D01*
X0106309Y0011231D01*
X0106078Y0011190D01*
X0105842Y0011195D01*
X0105613Y0011246D01*
X0105397Y0011340D01*
X0105204Y0011474D01*
X0105040Y0011644D01*
X0104913Y0011841D01*
X0104826Y0012060D01*
X0104813Y0012131D01*
X0104808Y0012150D01*
X0104799Y0012167D01*
X0104787Y0012182D01*
X0104772Y0012195D01*
X0104754Y0012204D01*
X0104736Y0012210D01*
X0104716Y0012213D01*
X0104697Y0012211D01*
X0104678Y0012206D01*
X0104660Y0012197D01*
X0104645Y0012184D01*
X0104632Y0012169D01*
X0104623Y0012152D01*
X0104617Y0012135D01*
X0104589Y0012012D01*
X0104494Y0011797D01*
X0104358Y0011605D01*
X0104188Y0011442D01*
X0103989Y0011316D01*
X0103769Y0011231D01*
X0103538Y0011190D01*
X0103302Y0011195D01*
X0103073Y0011246D01*
X0102857Y0011340D01*
X0102664Y0011474D01*
X0102500Y0011644D01*
X0102373Y0011841D01*
X0102286Y0012060D01*
X0102273Y0012131D01*
X0102268Y0012150D01*
X0102259Y0012167D01*
X0102247Y0012182D01*
X0102232Y0012195D01*
X0102214Y0012204D01*
X0102196Y0012210D01*
X0102176Y0012213D01*
X0102157Y0012211D01*
X0102138Y0012206D01*
X0102120Y0012197D01*
X0102105Y0012184D01*
X0102092Y0012169D01*
X0102083Y0012152D01*
X0102077Y0012135D01*
X0102049Y0012012D01*
X0101954Y0011797D01*
X0101818Y0011605D01*
X0101648Y0011442D01*
X0101449Y0011316D01*
X0101229Y0011231D01*
X0100998Y0011190D01*
X0100762Y0011195D01*
X0100533Y0011246D01*
X0100317Y0011340D01*
X0100124Y0011474D01*
X0099960Y0011644D01*
X0099833Y0011841D01*
X0099746Y0012060D01*
X0099704Y0012292D01*
X0099707Y0012527D01*
X0099756Y0012757D01*
X0099849Y0012973D01*
X0099981Y0013168D01*
X0100150Y0013332D01*
X0100347Y0013461D01*
X0100565Y0013549D01*
X0100796Y0013593D01*
X0101031Y0013592D01*
X0101262Y0013544D01*
X0101479Y0013453D01*
X0101674Y0013322D01*
X0101840Y0013155D01*
X0101970Y0012959D01*
X0102060Y0012741D01*
X0102077Y0012652D01*
X0102083Y0012633D01*
X0102092Y0012616D01*
X0102105Y0012600D01*
X0102120Y0012588D01*
X0102137Y0012579D01*
X0102156Y0012573D01*
X0102175Y0012571D01*
X0102195Y0012573D01*
X0102214Y0012579D01*
X0102231Y0012588D01*
X0102246Y0012600D01*
X0102258Y0012616D01*
X0102268Y0012633D01*
X0102273Y0012650D01*
X0102296Y0012757D01*
X0102389Y0012973D01*
X0102521Y0013168D01*
X0102690Y0013332D01*
X0102887Y0013461D01*
X0103105Y0013549D01*
X0103336Y0013593D01*
X0103571Y0013592D01*
X0103802Y0013544D01*
X0104019Y0013453D01*
X0104214Y0013322D01*
X0104380Y0013155D01*
X0104510Y0012959D01*
X0104600Y0012741D01*
X0104617Y0012652D01*
X0104623Y0012633D01*
X0104632Y0012616D01*
X0104645Y0012600D01*
X0104660Y0012588D01*
X0104677Y0012579D01*
X0104696Y0012573D01*
X0104715Y0012571D01*
X0104735Y0012573D01*
X0104754Y0012579D01*
X0104771Y0012588D01*
X0104786Y0012600D01*
X0104798Y0012616D01*
X0104808Y0012633D01*
X0104813Y0012650D01*
X0104836Y0012757D01*
X0104929Y0012973D01*
X0105061Y0013168D01*
X0105230Y0013332D01*
X0105427Y0013461D01*
X0105645Y0013549D01*
X0105876Y0013593D01*
X0106111Y0013592D01*
X0106111Y0013592D01*
G37*
G36*
X0090871Y0013592D02*
X0091102Y0013544D01*
X0091319Y0013453D01*
X0091514Y0013322D01*
X0091680Y0013155D01*
X0091810Y0012959D01*
X0091900Y0012741D01*
X0091945Y0012511D01*
X0091945Y0012511D01*
X0091945Y0012510D01*
X0091941Y0012241D01*
X0091941Y0012241D01*
X0091941Y0012241D01*
X0091889Y0012012D01*
X0091794Y0011797D01*
X0091658Y0011605D01*
X0091488Y0011442D01*
X0091289Y0011316D01*
X0091069Y0011231D01*
X0090838Y0011190D01*
X0090602Y0011195D01*
X0090373Y0011246D01*
X0090157Y0011340D01*
X0089964Y0011474D01*
X0089800Y0011644D01*
X0089673Y0011841D01*
X0089586Y0012060D01*
X0089573Y0012131D01*
X0089568Y0012150D01*
X0089559Y0012167D01*
X0089547Y0012182D01*
X0089532Y0012195D01*
X0089514Y0012204D01*
X0089496Y0012210D01*
X0089476Y0012213D01*
X0089457Y0012211D01*
X0089438Y0012206D01*
X0089420Y0012197D01*
X0089405Y0012184D01*
X0089392Y0012169D01*
X0089383Y0012152D01*
X0089377Y0012135D01*
X0089349Y0012012D01*
X0089254Y0011797D01*
X0089118Y0011605D01*
X0088948Y0011442D01*
X0088749Y0011316D01*
X0088529Y0011231D01*
X0088298Y0011190D01*
X0088062Y0011195D01*
X0087833Y0011246D01*
X0087617Y0011340D01*
X0087424Y0011474D01*
X0087260Y0011644D01*
X0087133Y0011841D01*
X0087046Y0012060D01*
X0087033Y0012131D01*
X0087028Y0012150D01*
X0087019Y0012167D01*
X0087007Y0012182D01*
X0086992Y0012195D01*
X0086974Y0012204D01*
X0086956Y0012210D01*
X0086936Y0012213D01*
X0086917Y0012211D01*
X0086898Y0012206D01*
X0086880Y0012197D01*
X0086865Y0012184D01*
X0086852Y0012169D01*
X0086843Y0012152D01*
X0086837Y0012135D01*
X0086809Y0012012D01*
X0086714Y0011797D01*
X0086578Y0011605D01*
X0086408Y0011442D01*
X0086209Y0011316D01*
X0085989Y0011231D01*
X0085758Y0011190D01*
X0085522Y0011195D01*
X0085293Y0011246D01*
X0085077Y0011340D01*
X0084884Y0011474D01*
X0084720Y0011644D01*
X0084593Y0011841D01*
X0084506Y0012060D01*
X0084464Y0012292D01*
X0084467Y0012527D01*
X0084516Y0012757D01*
X0084609Y0012973D01*
X0084741Y0013168D01*
X0084910Y0013332D01*
X0085107Y0013461D01*
X0085325Y0013549D01*
X0085556Y0013593D01*
X0085791Y0013592D01*
X0086022Y0013544D01*
X0086239Y0013453D01*
X0086434Y0013322D01*
X0086600Y0013155D01*
X0086730Y0012959D01*
X0086820Y0012741D01*
X0086837Y0012652D01*
X0086843Y0012633D01*
X0086852Y0012616D01*
X0086865Y0012600D01*
X0086880Y0012588D01*
X0086897Y0012579D01*
X0086916Y0012573D01*
X0086935Y0012571D01*
X0086955Y0012573D01*
X0086974Y0012579D01*
X0086991Y0012588D01*
X0087006Y0012600D01*
X0087018Y0012616D01*
X0087028Y0012633D01*
X0087033Y0012650D01*
X0087056Y0012757D01*
X0087149Y0012973D01*
X0087281Y0013168D01*
X0087450Y0013332D01*
X0087647Y0013461D01*
X0087865Y0013549D01*
X0088096Y0013593D01*
X0088331Y0013592D01*
X0088562Y0013544D01*
X0088779Y0013453D01*
X0088974Y0013322D01*
X0089140Y0013155D01*
X0089270Y0012959D01*
X0089360Y0012741D01*
X0089377Y0012652D01*
X0089383Y0012633D01*
X0089392Y0012616D01*
X0089405Y0012600D01*
X0089420Y0012588D01*
X0089437Y0012579D01*
X0089456Y0012573D01*
X0089475Y0012571D01*
X0089495Y0012573D01*
X0089514Y0012579D01*
X0089531Y0012588D01*
X0089546Y0012600D01*
X0089558Y0012616D01*
X0089568Y0012633D01*
X0089573Y0012650D01*
X0089596Y0012757D01*
X0089689Y0012973D01*
X0089821Y0013168D01*
X0089990Y0013332D01*
X0090187Y0013461D01*
X0090405Y0013549D01*
X0090636Y0013593D01*
X0090871Y0013592D01*
X0090871Y0013592D01*
G37*
G36*
X0077158Y0012754D02*
X0075234Y0012754D01*
X0075234Y0014678D01*
X0077158Y0014678D01*
X0077158Y0012754D01*
X0077158Y0012754D01*
G37*
G36*
X0074618Y0012754D02*
X0072694Y0012754D01*
X0072694Y0014678D01*
X0074618Y0014678D01*
X0074618Y0012754D01*
X0074618Y0012754D01*
G37*
G36*
X0115258Y0012754D02*
X0113334Y0012754D01*
X0113334Y0014678D01*
X0115258Y0014678D01*
X0115258Y0012754D01*
X0115258Y0012754D01*
G37*
G36*
X0117798Y0012754D02*
X0115874Y0012754D01*
X0115874Y0014678D01*
X0117798Y0014678D01*
X0117798Y0012754D01*
X0117798Y0012754D01*
G37*
G36*
X0104841Y0016132D02*
X0105072Y0016084D01*
X0105289Y0015993D01*
X0105484Y0015862D01*
X0105650Y0015695D01*
X0105780Y0015499D01*
X0105870Y0015281D01*
X0105915Y0015051D01*
X0105915Y0015051D01*
X0105915Y0015050D01*
X0105911Y0014781D01*
X0105911Y0014781D01*
X0105911Y0014781D01*
X0105859Y0014552D01*
X0105764Y0014337D01*
X0105628Y0014145D01*
X0105458Y0013982D01*
X0105259Y0013856D01*
X0105039Y0013771D01*
X0104808Y0013730D01*
X0104572Y0013735D01*
X0104343Y0013786D01*
X0104127Y0013880D01*
X0103934Y0014014D01*
X0103770Y0014184D01*
X0103643Y0014381D01*
X0103556Y0014600D01*
X0103543Y0014671D01*
X0103538Y0014690D01*
X0103529Y0014707D01*
X0103517Y0014722D01*
X0103502Y0014735D01*
X0103484Y0014744D01*
X0103466Y0014750D01*
X0103446Y0014753D01*
X0103427Y0014751D01*
X0103408Y0014746D01*
X0103390Y0014737D01*
X0103375Y0014724D01*
X0103362Y0014709D01*
X0103353Y0014692D01*
X0103347Y0014675D01*
X0103319Y0014552D01*
X0103224Y0014337D01*
X0103088Y0014145D01*
X0102918Y0013982D01*
X0102719Y0013856D01*
X0102499Y0013771D01*
X0102268Y0013730D01*
X0102032Y0013735D01*
X0101803Y0013786D01*
X0101587Y0013880D01*
X0101394Y0014014D01*
X0101230Y0014184D01*
X0101103Y0014381D01*
X0101016Y0014600D01*
X0101003Y0014671D01*
X0100998Y0014690D01*
X0100989Y0014707D01*
X0100977Y0014722D01*
X0100962Y0014735D01*
X0100944Y0014744D01*
X0100926Y0014750D01*
X0100906Y0014753D01*
X0100887Y0014751D01*
X0100868Y0014746D01*
X0100850Y0014737D01*
X0100835Y0014724D01*
X0100822Y0014709D01*
X0100813Y0014692D01*
X0100807Y0014675D01*
X0100779Y0014552D01*
X0100684Y0014337D01*
X0100548Y0014145D01*
X0100378Y0013982D01*
X0100179Y0013856D01*
X0099959Y0013771D01*
X0099728Y0013730D01*
X0099492Y0013735D01*
X0099263Y0013786D01*
X0099047Y0013880D01*
X0098854Y0014014D01*
X0098690Y0014184D01*
X0098563Y0014381D01*
X0098476Y0014600D01*
X0098434Y0014832D01*
X0098437Y0015067D01*
X0098486Y0015297D01*
X0098579Y0015513D01*
X0098711Y0015708D01*
X0098880Y0015872D01*
X0099077Y0016001D01*
X0099295Y0016089D01*
X0099526Y0016133D01*
X0099761Y0016132D01*
X0099992Y0016084D01*
X0100209Y0015993D01*
X0100404Y0015862D01*
X0100570Y0015695D01*
X0100700Y0015499D01*
X0100790Y0015281D01*
X0100807Y0015192D01*
X0100813Y0015173D01*
X0100822Y0015156D01*
X0100835Y0015140D01*
X0100850Y0015128D01*
X0100867Y0015119D01*
X0100886Y0015113D01*
X0100905Y0015111D01*
X0100925Y0015113D01*
X0100944Y0015119D01*
X0100961Y0015128D01*
X0100976Y0015140D01*
X0100988Y0015156D01*
X0100998Y0015173D01*
X0101003Y0015190D01*
X0101026Y0015297D01*
X0101119Y0015513D01*
X0101251Y0015708D01*
X0101420Y0015872D01*
X0101617Y0016001D01*
X0101835Y0016089D01*
X0102066Y0016133D01*
X0102301Y0016132D01*
X0102532Y0016084D01*
X0102749Y0015993D01*
X0102944Y0015862D01*
X0103110Y0015695D01*
X0103240Y0015499D01*
X0103330Y0015281D01*
X0103347Y0015192D01*
X0103353Y0015173D01*
X0103362Y0015156D01*
X0103375Y0015140D01*
X0103390Y0015128D01*
X0103407Y0015119D01*
X0103426Y0015113D01*
X0103445Y0015111D01*
X0103465Y0015113D01*
X0103484Y0015119D01*
X0103501Y0015128D01*
X0103516Y0015140D01*
X0103528Y0015156D01*
X0103538Y0015173D01*
X0103543Y0015190D01*
X0103566Y0015297D01*
X0103659Y0015513D01*
X0103791Y0015708D01*
X0103960Y0015872D01*
X0104157Y0016001D01*
X0104375Y0016089D01*
X0104606Y0016133D01*
X0104841Y0016132D01*
X0104841Y0016132D01*
G37*
G36*
X0089601Y0016132D02*
X0089832Y0016084D01*
X0090049Y0015993D01*
X0090244Y0015862D01*
X0090410Y0015695D01*
X0090540Y0015499D01*
X0090630Y0015281D01*
X0090675Y0015051D01*
X0090675Y0015051D01*
X0090675Y0015050D01*
X0090671Y0014781D01*
X0090671Y0014781D01*
X0090671Y0014781D01*
X0090619Y0014552D01*
X0090524Y0014337D01*
X0090388Y0014145D01*
X0090218Y0013982D01*
X0090019Y0013856D01*
X0089799Y0013771D01*
X0089568Y0013730D01*
X0089332Y0013735D01*
X0089103Y0013786D01*
X0088887Y0013880D01*
X0088694Y0014014D01*
X0088530Y0014184D01*
X0088403Y0014381D01*
X0088316Y0014600D01*
X0088303Y0014671D01*
X0088298Y0014690D01*
X0088289Y0014707D01*
X0088277Y0014722D01*
X0088262Y0014735D01*
X0088244Y0014744D01*
X0088226Y0014750D01*
X0088206Y0014753D01*
X0088187Y0014751D01*
X0088168Y0014746D01*
X0088150Y0014737D01*
X0088135Y0014724D01*
X0088122Y0014709D01*
X0088113Y0014692D01*
X0088107Y0014675D01*
X0088079Y0014552D01*
X0087984Y0014337D01*
X0087848Y0014145D01*
X0087678Y0013982D01*
X0087479Y0013856D01*
X0087259Y0013771D01*
X0087028Y0013730D01*
X0086792Y0013735D01*
X0086563Y0013786D01*
X0086347Y0013880D01*
X0086154Y0014014D01*
X0085990Y0014184D01*
X0085863Y0014381D01*
X0085776Y0014600D01*
X0085763Y0014671D01*
X0085758Y0014690D01*
X0085749Y0014707D01*
X0085737Y0014722D01*
X0085722Y0014735D01*
X0085704Y0014744D01*
X0085686Y0014750D01*
X0085666Y0014753D01*
X0085647Y0014751D01*
X0085628Y0014746D01*
X0085610Y0014737D01*
X0085595Y0014724D01*
X0085582Y0014709D01*
X0085573Y0014692D01*
X0085567Y0014675D01*
X0085539Y0014552D01*
X0085444Y0014337D01*
X0085308Y0014145D01*
X0085138Y0013982D01*
X0084939Y0013856D01*
X0084719Y0013771D01*
X0084488Y0013730D01*
X0084252Y0013735D01*
X0084023Y0013786D01*
X0083807Y0013880D01*
X0083614Y0014014D01*
X0083450Y0014184D01*
X0083323Y0014381D01*
X0083236Y0014600D01*
X0083194Y0014832D01*
X0083197Y0015067D01*
X0083246Y0015297D01*
X0083339Y0015513D01*
X0083471Y0015708D01*
X0083640Y0015872D01*
X0083837Y0016001D01*
X0084055Y0016089D01*
X0084286Y0016133D01*
X0084521Y0016132D01*
X0084752Y0016084D01*
X0084969Y0015993D01*
X0085164Y0015862D01*
X0085330Y0015695D01*
X0085460Y0015499D01*
X0085550Y0015281D01*
X0085567Y0015192D01*
X0085573Y0015173D01*
X0085582Y0015156D01*
X0085595Y0015140D01*
X0085610Y0015128D01*
X0085627Y0015119D01*
X0085646Y0015113D01*
X0085665Y0015111D01*
X0085685Y0015113D01*
X0085704Y0015119D01*
X0085721Y0015128D01*
X0085736Y0015140D01*
X0085748Y0015156D01*
X0085758Y0015173D01*
X0085763Y0015190D01*
X0085786Y0015297D01*
X0085879Y0015513D01*
X0086011Y0015708D01*
X0086180Y0015872D01*
X0086377Y0016001D01*
X0086595Y0016089D01*
X0086826Y0016133D01*
X0087061Y0016132D01*
X0087292Y0016084D01*
X0087509Y0015993D01*
X0087704Y0015862D01*
X0087870Y0015695D01*
X0088000Y0015499D01*
X0088090Y0015281D01*
X0088107Y0015192D01*
X0088113Y0015173D01*
X0088122Y0015156D01*
X0088135Y0015140D01*
X0088150Y0015128D01*
X0088167Y0015119D01*
X0088186Y0015113D01*
X0088205Y0015111D01*
X0088225Y0015113D01*
X0088244Y0015119D01*
X0088261Y0015128D01*
X0088276Y0015140D01*
X0088288Y0015156D01*
X0088298Y0015173D01*
X0088303Y0015190D01*
X0088326Y0015297D01*
X0088419Y0015513D01*
X0088551Y0015708D01*
X0088720Y0015872D01*
X0088917Y0016001D01*
X0089135Y0016089D01*
X0089366Y0016133D01*
X0089601Y0016132D01*
X0089601Y0016132D01*
G37*
G36*
X0117798Y0015294D02*
X0115874Y0015294D01*
X0115874Y0017218D01*
X0117798Y0017218D01*
X0117798Y0015294D01*
X0117798Y0015294D01*
G37*
G36*
X0115258Y0015294D02*
X0113334Y0015294D01*
X0113334Y0017218D01*
X0115258Y0017218D01*
X0115258Y0015294D01*
X0115258Y0015294D01*
G37*
G36*
X0074618Y0015294D02*
X0072694Y0015294D01*
X0072694Y0017218D01*
X0074618Y0017218D01*
X0074618Y0015294D01*
X0074618Y0015294D01*
G37*
G36*
X0077158Y0015294D02*
X0075234Y0015294D01*
X0075234Y0017218D01*
X0077158Y0017218D01*
X0077158Y0015294D01*
X0077158Y0015294D01*
G37*
G36*
X0117798Y0017834D02*
X0115874Y0017834D01*
X0115874Y0019758D01*
X0117798Y0019758D01*
X0117798Y0017834D01*
X0117798Y0017834D01*
G37*
G36*
X0074618Y0017834D02*
X0072694Y0017834D01*
X0072694Y0019758D01*
X0074618Y0019758D01*
X0074618Y0017834D01*
X0074618Y0017834D01*
G37*
G36*
X0077158Y0017834D02*
X0075234Y0017834D01*
X0075234Y0019758D01*
X0077158Y0019758D01*
X0077158Y0017834D01*
X0077158Y0017834D01*
G37*
G36*
X0115258Y0017834D02*
X0113334Y0017834D01*
X0113334Y0019758D01*
X0115258Y0019758D01*
X0115258Y0017834D01*
X0115258Y0017834D01*
G37*
G36*
X0082238Y0020374D02*
X0080314Y0020374D01*
X0080314Y0022298D01*
X0082238Y0022298D01*
X0082238Y0020374D01*
X0082238Y0020374D01*
G37*
G36*
X0084778Y0020374D02*
X0082854Y0020374D01*
X0082854Y0022298D01*
X0084778Y0022298D01*
X0084778Y0020374D01*
X0084778Y0020374D01*
G37*
G36*
X0075262Y0028344D02*
X0075877Y0028218D01*
X0076455Y0027975D01*
X0076976Y0027624D01*
X0077418Y0027178D01*
X0077765Y0026656D01*
X0078004Y0026075D01*
X0078126Y0025460D01*
X0078126Y0025460D01*
X0078126Y0025460D01*
X0078116Y0024743D01*
X0078116Y0024742D01*
X0078116Y0024742D01*
X0077977Y0024131D01*
X0077722Y0023558D01*
X0077360Y0023045D01*
X0076906Y0022612D01*
X0076376Y0022276D01*
X0075791Y0022049D01*
X0075173Y0021940D01*
X0074545Y0021953D01*
X0073932Y0022088D01*
X0073357Y0022339D01*
X0072842Y0022697D01*
X0072406Y0023149D01*
X0072066Y0023676D01*
X0071835Y0024260D01*
X0071722Y0024877D01*
X0071731Y0025504D01*
X0071861Y0026118D01*
X0072108Y0026695D01*
X0072463Y0027213D01*
X0072911Y0027652D01*
X0073436Y0027996D01*
X0074018Y0028231D01*
X0074635Y0028348D01*
X0075262Y0028344D01*
X0075262Y0028344D01*
G37*
G36*
X0115902Y0028344D02*
X0116517Y0028218D01*
X0117095Y0027975D01*
X0117616Y0027624D01*
X0118058Y0027178D01*
X0118405Y0026656D01*
X0118644Y0026075D01*
X0118766Y0025460D01*
X0118766Y0025460D01*
X0118766Y0025460D01*
X0118756Y0024743D01*
X0118756Y0024742D01*
X0118756Y0024742D01*
X0118617Y0024131D01*
X0118362Y0023558D01*
X0118000Y0023045D01*
X0117546Y0022612D01*
X0117016Y0022276D01*
X0116431Y0022049D01*
X0115813Y0021940D01*
X0115185Y0021953D01*
X0114572Y0022088D01*
X0113997Y0022339D01*
X0113482Y0022697D01*
X0113046Y0023149D01*
X0112706Y0023676D01*
X0112475Y0024260D01*
X0112362Y0024877D01*
X0112371Y0025504D01*
X0112501Y0026118D01*
X0112748Y0026695D01*
X0113103Y0027213D01*
X0113551Y0027652D01*
X0114076Y0027996D01*
X0114658Y0028231D01*
X0115275Y0028348D01*
X0115902Y0028344D01*
X0115902Y0028344D01*
G37*
G36*
X0087318Y0022914D02*
X0085394Y0022914D01*
X0085394Y0024838D01*
X0087318Y0024838D01*
X0087318Y0022914D01*
X0087318Y0022914D01*
G37*
G36*
X0084778Y0022914D02*
X0082854Y0022914D01*
X0082854Y0024838D01*
X0084778Y0024838D01*
X0084778Y0022914D01*
X0084778Y0022914D01*
G37*
G36*
X0089858Y0022914D02*
X0087934Y0022914D01*
X0087934Y0024838D01*
X0089858Y0024838D01*
X0089858Y0022914D01*
X0089858Y0022914D01*
G37*
G36*
X0092398Y0022914D02*
X0090474Y0022914D01*
X0090474Y0024838D01*
X0092398Y0024838D01*
X0092398Y0022914D01*
X0092398Y0022914D01*
G37*
G36*
X0094938Y0022914D02*
X0093014Y0022914D01*
X0093014Y0024838D01*
X0094938Y0024838D01*
X0094938Y0022914D01*
X0094938Y0022914D01*
G37*
G36*
X0107638Y0022914D02*
X0105714Y0022914D01*
X0105714Y0024838D01*
X0107638Y0024838D01*
X0107638Y0022914D01*
X0107638Y0022914D01*
G37*
G36*
X0105098Y0022914D02*
X0103174Y0022914D01*
X0103174Y0024838D01*
X0105098Y0024838D01*
X0105098Y0022914D01*
X0105098Y0022914D01*
G37*
G36*
X0105098Y0025454D02*
X0103174Y0025454D01*
X0103174Y0027378D01*
X0105098Y0027378D01*
X0105098Y0025454D01*
X0105098Y0025454D01*
G37*
G36*
X0084778Y0025454D02*
X0082854Y0025454D01*
X0082854Y0027378D01*
X0084778Y0027378D01*
X0084778Y0025454D01*
X0084778Y0025454D01*
G37*
G36*
X0094938Y0025454D02*
X0093014Y0025454D01*
X0093014Y0027378D01*
X0094938Y0027378D01*
X0094938Y0025454D01*
X0094938Y0025454D01*
G37*
G36*
X0092398Y0025454D02*
X0090474Y0025454D01*
X0090474Y0027378D01*
X0092398Y0027378D01*
X0092398Y0025454D01*
X0092398Y0025454D01*
G37*
G36*
X0107638Y0025454D02*
X0105714Y0025454D01*
X0105714Y0027378D01*
X0107638Y0027378D01*
X0107638Y0025454D01*
X0107638Y0025454D01*
G37*
G36*
X0089858Y0025454D02*
X0087934Y0025454D01*
X0087934Y0027378D01*
X0089858Y0027378D01*
X0089858Y0025454D01*
X0089858Y0025454D01*
G37*
G36*
X0087318Y0025454D02*
X0085394Y0025454D01*
X0085394Y0027378D01*
X0087318Y0027378D01*
X0087318Y0025454D01*
X0087318Y0025454D01*
G37*
X0000000Y0040130D02*
%LPD*%
G01*
D23*
G36*
X0005162Y0048154D02*
X0005777Y0048028D01*
X0006355Y0047785D01*
X0006876Y0047434D01*
X0007318Y0046988D01*
X0007665Y0046466D01*
X0007904Y0045885D01*
X0008026Y0045270D01*
X0008026Y0045270D01*
X0008026Y0045270D01*
X0008016Y0044553D01*
X0008016Y0044552D01*
X0008016Y0044552D01*
X0007877Y0043941D01*
X0007622Y0043368D01*
X0007260Y0042855D01*
X0006806Y0042422D01*
X0006276Y0042086D01*
X0005691Y0041859D01*
X0005073Y0041750D01*
X0004445Y0041763D01*
X0003832Y0041898D01*
X0003257Y0042149D01*
X0002742Y0042507D01*
X0002306Y0042959D01*
X0001966Y0043486D01*
X0001735Y0044070D01*
X0001622Y0044687D01*
X0001631Y0045314D01*
X0001761Y0045928D01*
X0002008Y0046505D01*
X0002363Y0047023D01*
X0002811Y0047462D01*
X0003336Y0047806D01*
X0003918Y0048041D01*
X0004535Y0048158D01*
X0005162Y0048154D01*
X0005162Y0048154D01*
G37*
G36*
X0045802Y0048154D02*
X0046417Y0048028D01*
X0046995Y0047785D01*
X0047516Y0047434D01*
X0047958Y0046988D01*
X0048305Y0046466D01*
X0048544Y0045885D01*
X0048666Y0045270D01*
X0048666Y0045270D01*
X0048666Y0045270D01*
X0048656Y0044553D01*
X0048656Y0044552D01*
X0048656Y0044552D01*
X0048517Y0043941D01*
X0048262Y0043368D01*
X0047900Y0042855D01*
X0047446Y0042422D01*
X0046916Y0042086D01*
X0046331Y0041859D01*
X0045713Y0041750D01*
X0045085Y0041763D01*
X0044472Y0041898D01*
X0043897Y0042149D01*
X0043382Y0042507D01*
X0042946Y0042959D01*
X0042606Y0043486D01*
X0042375Y0044070D01*
X0042262Y0044687D01*
X0042271Y0045314D01*
X0042401Y0045928D01*
X0042648Y0046505D01*
X0043003Y0047023D01*
X0043451Y0047462D01*
X0043976Y0047806D01*
X0044558Y0048041D01*
X0045175Y0048158D01*
X0045802Y0048154D01*
X0045802Y0048154D01*
G37*
G36*
X0012626Y0048361D02*
X0013049Y0048274D01*
X0013447Y0048107D01*
X0013804Y0047866D01*
X0014108Y0047560D01*
X0014347Y0047200D01*
X0014511Y0046801D01*
X0014595Y0046379D01*
X0014595Y0046379D01*
X0014595Y0046378D01*
X0014588Y0045885D01*
X0014588Y0045885D01*
X0014588Y0045885D01*
X0014493Y0045465D01*
X0014317Y0045071D01*
X0014069Y0044718D01*
X0013756Y0044420D01*
X0013392Y0044189D01*
X0012990Y0044033D01*
X0012565Y0043958D01*
X0012133Y0043967D01*
X0011712Y0044060D01*
X0011317Y0044233D01*
X0010962Y0044479D01*
X0010663Y0044789D01*
X0010429Y0045152D01*
X0010270Y0045553D01*
X0010192Y0045978D01*
X0010198Y0046409D01*
X0010288Y0046831D01*
X0010458Y0047227D01*
X0010702Y0047583D01*
X0011010Y0047885D01*
X0011371Y0048122D01*
X0011771Y0048283D01*
X0012195Y0048364D01*
X0012626Y0048361D01*
X0012626Y0048361D01*
G37*
G36*
X0022786Y0048361D02*
X0023209Y0048274D01*
X0023607Y0048107D01*
X0023964Y0047866D01*
X0024268Y0047560D01*
X0024507Y0047200D01*
X0024671Y0046801D01*
X0024755Y0046379D01*
X0024755Y0046379D01*
X0024755Y0046378D01*
X0024748Y0045885D01*
X0024748Y0045885D01*
X0024748Y0045885D01*
X0024653Y0045465D01*
X0024477Y0045071D01*
X0024229Y0044718D01*
X0023916Y0044420D01*
X0023552Y0044189D01*
X0023150Y0044033D01*
X0022725Y0043958D01*
X0022293Y0043967D01*
X0021872Y0044060D01*
X0021477Y0044233D01*
X0021122Y0044479D01*
X0020823Y0044789D01*
X0020589Y0045152D01*
X0020430Y0045553D01*
X0020352Y0045978D01*
X0020358Y0046409D01*
X0020448Y0046831D01*
X0020618Y0047227D01*
X0020862Y0047583D01*
X0021170Y0047885D01*
X0021531Y0048122D01*
X0021931Y0048283D01*
X0022355Y0048364D01*
X0022786Y0048361D01*
X0022786Y0048361D01*
G37*
G36*
X0027866Y0048361D02*
X0028289Y0048274D01*
X0028687Y0048107D01*
X0029044Y0047866D01*
X0029348Y0047560D01*
X0029587Y0047200D01*
X0029751Y0046801D01*
X0029835Y0046379D01*
X0029835Y0046379D01*
X0029835Y0046378D01*
X0029828Y0045885D01*
X0029828Y0045885D01*
X0029828Y0045885D01*
X0029733Y0045465D01*
X0029557Y0045071D01*
X0029309Y0044718D01*
X0028996Y0044420D01*
X0028632Y0044189D01*
X0028230Y0044033D01*
X0027805Y0043958D01*
X0027373Y0043967D01*
X0026952Y0044060D01*
X0026557Y0044233D01*
X0026202Y0044479D01*
X0025903Y0044789D01*
X0025669Y0045152D01*
X0025510Y0045553D01*
X0025432Y0045978D01*
X0025438Y0046409D01*
X0025528Y0046831D01*
X0025698Y0047227D01*
X0025942Y0047583D01*
X0026250Y0047885D01*
X0026611Y0048122D01*
X0027011Y0048283D01*
X0027435Y0048364D01*
X0027866Y0048361D01*
X0027866Y0048361D01*
G37*
G36*
X0038026Y0048361D02*
X0038449Y0048274D01*
X0038847Y0048107D01*
X0039204Y0047866D01*
X0039508Y0047560D01*
X0039747Y0047200D01*
X0039911Y0046801D01*
X0039995Y0046379D01*
X0039995Y0046379D01*
X0039995Y0046378D01*
X0039988Y0045885D01*
X0039988Y0045885D01*
X0039988Y0045885D01*
X0039893Y0045465D01*
X0039717Y0045071D01*
X0039469Y0044718D01*
X0039156Y0044420D01*
X0038792Y0044189D01*
X0038390Y0044033D01*
X0037965Y0043958D01*
X0037533Y0043967D01*
X0037112Y0044060D01*
X0036717Y0044233D01*
X0036362Y0044479D01*
X0036063Y0044789D01*
X0035829Y0045152D01*
X0035670Y0045553D01*
X0035592Y0045978D01*
X0035598Y0046409D01*
X0035688Y0046831D01*
X0035858Y0047227D01*
X0036102Y0047583D01*
X0036410Y0047885D01*
X0036771Y0048122D01*
X0037171Y0048283D01*
X0037595Y0048364D01*
X0038026Y0048361D01*
X0038026Y0048361D01*
G37*
G36*
X0045158Y0050344D02*
X0043234Y0050344D01*
X0043234Y0052268D01*
X0045158Y0052268D01*
X0045158Y0050344D01*
X0045158Y0050344D01*
G37*
G36*
X0047698Y0050344D02*
X0045774Y0050344D01*
X0045774Y0052268D01*
X0047698Y0052268D01*
X0047698Y0050344D01*
X0047698Y0050344D01*
G37*
G36*
X0004518Y0050344D02*
X0002594Y0050344D01*
X0002594Y0052268D01*
X0004518Y0052268D01*
X0004518Y0050344D01*
X0004518Y0050344D01*
G37*
G36*
X0007058Y0050344D02*
X0005134Y0050344D01*
X0005134Y0052268D01*
X0007058Y0052268D01*
X0007058Y0050344D01*
X0007058Y0050344D01*
G37*
G36*
X0036011Y0053722D02*
X0036242Y0053674D01*
X0036459Y0053583D01*
X0036654Y0053452D01*
X0036820Y0053285D01*
X0036950Y0053089D01*
X0037040Y0052871D01*
X0037085Y0052641D01*
X0037085Y0052641D01*
X0037085Y0052640D01*
X0037081Y0052371D01*
X0037081Y0052371D01*
X0037081Y0052371D01*
X0037029Y0052142D01*
X0036934Y0051927D01*
X0036798Y0051735D01*
X0036628Y0051572D01*
X0036429Y0051446D01*
X0036209Y0051361D01*
X0035978Y0051320D01*
X0035742Y0051325D01*
X0035513Y0051376D01*
X0035297Y0051470D01*
X0035104Y0051604D01*
X0034940Y0051774D01*
X0034813Y0051971D01*
X0034726Y0052190D01*
X0034713Y0052261D01*
X0034708Y0052280D01*
X0034699Y0052297D01*
X0034687Y0052312D01*
X0034672Y0052325D01*
X0034654Y0052334D01*
X0034636Y0052340D01*
X0034616Y0052343D01*
X0034597Y0052341D01*
X0034578Y0052336D01*
X0034560Y0052327D01*
X0034545Y0052314D01*
X0034532Y0052299D01*
X0034523Y0052282D01*
X0034517Y0052265D01*
X0034489Y0052142D01*
X0034394Y0051927D01*
X0034258Y0051735D01*
X0034088Y0051572D01*
X0033889Y0051446D01*
X0033669Y0051361D01*
X0033438Y0051320D01*
X0033202Y0051325D01*
X0032973Y0051376D01*
X0032757Y0051470D01*
X0032564Y0051604D01*
X0032400Y0051774D01*
X0032273Y0051971D01*
X0032186Y0052190D01*
X0032173Y0052261D01*
X0032168Y0052280D01*
X0032159Y0052297D01*
X0032147Y0052312D01*
X0032132Y0052325D01*
X0032114Y0052334D01*
X0032096Y0052340D01*
X0032076Y0052343D01*
X0032057Y0052341D01*
X0032038Y0052336D01*
X0032020Y0052327D01*
X0032005Y0052314D01*
X0031992Y0052299D01*
X0031983Y0052282D01*
X0031977Y0052265D01*
X0031949Y0052142D01*
X0031854Y0051927D01*
X0031718Y0051735D01*
X0031548Y0051572D01*
X0031349Y0051446D01*
X0031129Y0051361D01*
X0030898Y0051320D01*
X0030662Y0051325D01*
X0030433Y0051376D01*
X0030217Y0051470D01*
X0030024Y0051604D01*
X0029860Y0051774D01*
X0029733Y0051971D01*
X0029646Y0052190D01*
X0029604Y0052422D01*
X0029607Y0052657D01*
X0029656Y0052887D01*
X0029749Y0053103D01*
X0029881Y0053298D01*
X0030050Y0053462D01*
X0030247Y0053591D01*
X0030465Y0053679D01*
X0030696Y0053723D01*
X0030931Y0053722D01*
X0031162Y0053674D01*
X0031379Y0053583D01*
X0031574Y0053452D01*
X0031740Y0053285D01*
X0031870Y0053089D01*
X0031960Y0052871D01*
X0031977Y0052782D01*
X0031983Y0052763D01*
X0031992Y0052746D01*
X0032005Y0052730D01*
X0032020Y0052718D01*
X0032037Y0052709D01*
X0032056Y0052703D01*
X0032075Y0052701D01*
X0032095Y0052703D01*
X0032114Y0052709D01*
X0032131Y0052718D01*
X0032146Y0052730D01*
X0032158Y0052746D01*
X0032168Y0052763D01*
X0032173Y0052780D01*
X0032196Y0052887D01*
X0032289Y0053103D01*
X0032421Y0053298D01*
X0032590Y0053462D01*
X0032787Y0053591D01*
X0033005Y0053679D01*
X0033236Y0053723D01*
X0033471Y0053722D01*
X0033702Y0053674D01*
X0033919Y0053583D01*
X0034114Y0053452D01*
X0034280Y0053285D01*
X0034410Y0053089D01*
X0034500Y0052871D01*
X0034517Y0052782D01*
X0034523Y0052763D01*
X0034532Y0052746D01*
X0034545Y0052730D01*
X0034560Y0052718D01*
X0034577Y0052709D01*
X0034596Y0052703D01*
X0034615Y0052701D01*
X0034635Y0052703D01*
X0034654Y0052709D01*
X0034671Y0052718D01*
X0034686Y0052730D01*
X0034698Y0052746D01*
X0034708Y0052763D01*
X0034713Y0052780D01*
X0034736Y0052887D01*
X0034829Y0053103D01*
X0034961Y0053298D01*
X0035130Y0053462D01*
X0035327Y0053591D01*
X0035545Y0053679D01*
X0035776Y0053723D01*
X0036011Y0053722D01*
X0036011Y0053722D01*
G37*
G36*
X0020771Y0053722D02*
X0021002Y0053674D01*
X0021219Y0053583D01*
X0021414Y0053452D01*
X0021580Y0053285D01*
X0021710Y0053089D01*
X0021800Y0052871D01*
X0021845Y0052641D01*
X0021845Y0052641D01*
X0021845Y0052640D01*
X0021841Y0052371D01*
X0021841Y0052371D01*
X0021841Y0052371D01*
X0021789Y0052142D01*
X0021694Y0051927D01*
X0021558Y0051735D01*
X0021388Y0051572D01*
X0021189Y0051446D01*
X0020969Y0051361D01*
X0020738Y0051320D01*
X0020502Y0051325D01*
X0020273Y0051376D01*
X0020057Y0051470D01*
X0019864Y0051604D01*
X0019700Y0051774D01*
X0019573Y0051971D01*
X0019486Y0052190D01*
X0019473Y0052261D01*
X0019468Y0052280D01*
X0019459Y0052297D01*
X0019447Y0052312D01*
X0019432Y0052325D01*
X0019414Y0052334D01*
X0019396Y0052340D01*
X0019376Y0052343D01*
X0019357Y0052341D01*
X0019338Y0052336D01*
X0019320Y0052327D01*
X0019305Y0052314D01*
X0019292Y0052299D01*
X0019283Y0052282D01*
X0019277Y0052265D01*
X0019249Y0052142D01*
X0019154Y0051927D01*
X0019018Y0051735D01*
X0018848Y0051572D01*
X0018649Y0051446D01*
X0018429Y0051361D01*
X0018198Y0051320D01*
X0017962Y0051325D01*
X0017733Y0051376D01*
X0017517Y0051470D01*
X0017324Y0051604D01*
X0017160Y0051774D01*
X0017033Y0051971D01*
X0016946Y0052190D01*
X0016933Y0052261D01*
X0016928Y0052280D01*
X0016919Y0052297D01*
X0016907Y0052312D01*
X0016892Y0052325D01*
X0016874Y0052334D01*
X0016856Y0052340D01*
X0016836Y0052343D01*
X0016817Y0052341D01*
X0016798Y0052336D01*
X0016780Y0052327D01*
X0016765Y0052314D01*
X0016752Y0052299D01*
X0016743Y0052282D01*
X0016737Y0052265D01*
X0016709Y0052142D01*
X0016614Y0051927D01*
X0016478Y0051735D01*
X0016308Y0051572D01*
X0016109Y0051446D01*
X0015889Y0051361D01*
X0015658Y0051320D01*
X0015422Y0051325D01*
X0015193Y0051376D01*
X0014977Y0051470D01*
X0014784Y0051604D01*
X0014620Y0051774D01*
X0014493Y0051971D01*
X0014406Y0052190D01*
X0014364Y0052422D01*
X0014367Y0052657D01*
X0014416Y0052887D01*
X0014509Y0053103D01*
X0014641Y0053298D01*
X0014810Y0053462D01*
X0015007Y0053591D01*
X0015225Y0053679D01*
X0015456Y0053723D01*
X0015691Y0053722D01*
X0015922Y0053674D01*
X0016139Y0053583D01*
X0016334Y0053452D01*
X0016500Y0053285D01*
X0016630Y0053089D01*
X0016720Y0052871D01*
X0016737Y0052782D01*
X0016743Y0052763D01*
X0016752Y0052746D01*
X0016765Y0052730D01*
X0016780Y0052718D01*
X0016797Y0052709D01*
X0016816Y0052703D01*
X0016835Y0052701D01*
X0016855Y0052703D01*
X0016874Y0052709D01*
X0016891Y0052718D01*
X0016906Y0052730D01*
X0016918Y0052746D01*
X0016928Y0052763D01*
X0016933Y0052780D01*
X0016956Y0052887D01*
X0017049Y0053103D01*
X0017181Y0053298D01*
X0017350Y0053462D01*
X0017547Y0053591D01*
X0017765Y0053679D01*
X0017996Y0053723D01*
X0018231Y0053722D01*
X0018462Y0053674D01*
X0018679Y0053583D01*
X0018874Y0053452D01*
X0019040Y0053285D01*
X0019170Y0053089D01*
X0019260Y0052871D01*
X0019277Y0052782D01*
X0019283Y0052763D01*
X0019292Y0052746D01*
X0019305Y0052730D01*
X0019320Y0052718D01*
X0019337Y0052709D01*
X0019356Y0052703D01*
X0019375Y0052701D01*
X0019395Y0052703D01*
X0019414Y0052709D01*
X0019431Y0052718D01*
X0019446Y0052730D01*
X0019458Y0052746D01*
X0019468Y0052763D01*
X0019473Y0052780D01*
X0019496Y0052887D01*
X0019589Y0053103D01*
X0019721Y0053298D01*
X0019890Y0053462D01*
X0020087Y0053591D01*
X0020305Y0053679D01*
X0020536Y0053723D01*
X0020771Y0053722D01*
X0020771Y0053722D01*
G37*
G36*
X0007058Y0052884D02*
X0005134Y0052884D01*
X0005134Y0054808D01*
X0007058Y0054808D01*
X0007058Y0052884D01*
X0007058Y0052884D01*
G37*
G36*
X0004518Y0052884D02*
X0002594Y0052884D01*
X0002594Y0054808D01*
X0004518Y0054808D01*
X0004518Y0052884D01*
X0004518Y0052884D01*
G37*
G36*
X0045158Y0052884D02*
X0043234Y0052884D01*
X0043234Y0054808D01*
X0045158Y0054808D01*
X0045158Y0052884D01*
X0045158Y0052884D01*
G37*
G36*
X0047698Y0052884D02*
X0045774Y0052884D01*
X0045774Y0054808D01*
X0047698Y0054808D01*
X0047698Y0052884D01*
X0047698Y0052884D01*
G37*
G36*
X0034741Y0056262D02*
X0034972Y0056214D01*
X0035189Y0056123D01*
X0035384Y0055992D01*
X0035550Y0055825D01*
X0035680Y0055629D01*
X0035770Y0055411D01*
X0035815Y0055181D01*
X0035815Y0055181D01*
X0035815Y0055180D01*
X0035811Y0054911D01*
X0035811Y0054911D01*
X0035811Y0054911D01*
X0035759Y0054682D01*
X0035664Y0054467D01*
X0035528Y0054275D01*
X0035358Y0054112D01*
X0035159Y0053986D01*
X0034939Y0053901D01*
X0034708Y0053860D01*
X0034472Y0053865D01*
X0034243Y0053916D01*
X0034027Y0054010D01*
X0033834Y0054144D01*
X0033670Y0054314D01*
X0033543Y0054511D01*
X0033456Y0054730D01*
X0033443Y0054801D01*
X0033438Y0054820D01*
X0033429Y0054837D01*
X0033417Y0054852D01*
X0033402Y0054865D01*
X0033384Y0054874D01*
X0033366Y0054880D01*
X0033346Y0054883D01*
X0033327Y0054881D01*
X0033308Y0054876D01*
X0033290Y0054867D01*
X0033275Y0054854D01*
X0033262Y0054839D01*
X0033253Y0054822D01*
X0033247Y0054805D01*
X0033219Y0054682D01*
X0033124Y0054467D01*
X0032988Y0054275D01*
X0032818Y0054112D01*
X0032619Y0053986D01*
X0032399Y0053901D01*
X0032168Y0053860D01*
X0031932Y0053865D01*
X0031703Y0053916D01*
X0031487Y0054010D01*
X0031294Y0054144D01*
X0031130Y0054314D01*
X0031003Y0054511D01*
X0030916Y0054730D01*
X0030903Y0054801D01*
X0030898Y0054820D01*
X0030889Y0054837D01*
X0030877Y0054852D01*
X0030862Y0054865D01*
X0030844Y0054874D01*
X0030826Y0054880D01*
X0030806Y0054883D01*
X0030787Y0054881D01*
X0030768Y0054876D01*
X0030750Y0054867D01*
X0030735Y0054854D01*
X0030722Y0054839D01*
X0030713Y0054822D01*
X0030707Y0054805D01*
X0030679Y0054682D01*
X0030584Y0054467D01*
X0030448Y0054275D01*
X0030278Y0054112D01*
X0030079Y0053986D01*
X0029859Y0053901D01*
X0029628Y0053860D01*
X0029392Y0053865D01*
X0029163Y0053916D01*
X0028947Y0054010D01*
X0028754Y0054144D01*
X0028590Y0054314D01*
X0028463Y0054511D01*
X0028376Y0054730D01*
X0028334Y0054962D01*
X0028337Y0055197D01*
X0028386Y0055427D01*
X0028479Y0055643D01*
X0028611Y0055838D01*
X0028780Y0056002D01*
X0028977Y0056131D01*
X0029195Y0056219D01*
X0029426Y0056263D01*
X0029661Y0056262D01*
X0029892Y0056214D01*
X0030109Y0056123D01*
X0030304Y0055992D01*
X0030470Y0055825D01*
X0030600Y0055629D01*
X0030690Y0055411D01*
X0030707Y0055322D01*
X0030713Y0055303D01*
X0030722Y0055286D01*
X0030735Y0055270D01*
X0030750Y0055258D01*
X0030767Y0055249D01*
X0030786Y0055243D01*
X0030805Y0055241D01*
X0030825Y0055243D01*
X0030844Y0055249D01*
X0030861Y0055258D01*
X0030876Y0055270D01*
X0030888Y0055286D01*
X0030898Y0055303D01*
X0030903Y0055320D01*
X0030926Y0055427D01*
X0031019Y0055643D01*
X0031151Y0055838D01*
X0031320Y0056002D01*
X0031517Y0056131D01*
X0031735Y0056219D01*
X0031966Y0056263D01*
X0032201Y0056262D01*
X0032432Y0056214D01*
X0032649Y0056123D01*
X0032844Y0055992D01*
X0033010Y0055825D01*
X0033140Y0055629D01*
X0033230Y0055411D01*
X0033247Y0055322D01*
X0033253Y0055303D01*
X0033262Y0055286D01*
X0033275Y0055270D01*
X0033290Y0055258D01*
X0033307Y0055249D01*
X0033326Y0055243D01*
X0033345Y0055241D01*
X0033365Y0055243D01*
X0033384Y0055249D01*
X0033401Y0055258D01*
X0033416Y0055270D01*
X0033428Y0055286D01*
X0033438Y0055303D01*
X0033443Y0055320D01*
X0033466Y0055427D01*
X0033559Y0055643D01*
X0033691Y0055838D01*
X0033860Y0056002D01*
X0034057Y0056131D01*
X0034275Y0056219D01*
X0034506Y0056263D01*
X0034741Y0056262D01*
X0034741Y0056262D01*
G37*
G36*
X0019501Y0056262D02*
X0019732Y0056214D01*
X0019949Y0056123D01*
X0020144Y0055992D01*
X0020310Y0055825D01*
X0020440Y0055629D01*
X0020530Y0055411D01*
X0020575Y0055181D01*
X0020575Y0055181D01*
X0020575Y0055180D01*
X0020571Y0054911D01*
X0020571Y0054911D01*
X0020571Y0054911D01*
X0020519Y0054682D01*
X0020424Y0054467D01*
X0020288Y0054275D01*
X0020118Y0054112D01*
X0019919Y0053986D01*
X0019699Y0053901D01*
X0019468Y0053860D01*
X0019232Y0053865D01*
X0019003Y0053916D01*
X0018787Y0054010D01*
X0018594Y0054144D01*
X0018430Y0054314D01*
X0018303Y0054511D01*
X0018216Y0054730D01*
X0018203Y0054801D01*
X0018198Y0054820D01*
X0018189Y0054837D01*
X0018177Y0054852D01*
X0018162Y0054865D01*
X0018144Y0054874D01*
X0018126Y0054880D01*
X0018106Y0054883D01*
X0018087Y0054881D01*
X0018068Y0054876D01*
X0018050Y0054867D01*
X0018035Y0054854D01*
X0018022Y0054839D01*
X0018013Y0054822D01*
X0018007Y0054805D01*
X0017979Y0054682D01*
X0017884Y0054467D01*
X0017748Y0054275D01*
X0017578Y0054112D01*
X0017379Y0053986D01*
X0017159Y0053901D01*
X0016928Y0053860D01*
X0016692Y0053865D01*
X0016463Y0053916D01*
X0016247Y0054010D01*
X0016054Y0054144D01*
X0015890Y0054314D01*
X0015763Y0054511D01*
X0015676Y0054730D01*
X0015663Y0054801D01*
X0015658Y0054820D01*
X0015649Y0054837D01*
X0015637Y0054852D01*
X0015622Y0054865D01*
X0015604Y0054874D01*
X0015586Y0054880D01*
X0015566Y0054883D01*
X0015547Y0054881D01*
X0015528Y0054876D01*
X0015510Y0054867D01*
X0015495Y0054854D01*
X0015482Y0054839D01*
X0015473Y0054822D01*
X0015467Y0054805D01*
X0015439Y0054682D01*
X0015344Y0054467D01*
X0015208Y0054275D01*
X0015038Y0054112D01*
X0014839Y0053986D01*
X0014619Y0053901D01*
X0014388Y0053860D01*
X0014152Y0053865D01*
X0013923Y0053916D01*
X0013707Y0054010D01*
X0013514Y0054144D01*
X0013350Y0054314D01*
X0013223Y0054511D01*
X0013136Y0054730D01*
X0013094Y0054962D01*
X0013097Y0055197D01*
X0013146Y0055427D01*
X0013239Y0055643D01*
X0013371Y0055838D01*
X0013540Y0056002D01*
X0013737Y0056131D01*
X0013955Y0056219D01*
X0014186Y0056263D01*
X0014421Y0056262D01*
X0014652Y0056214D01*
X0014869Y0056123D01*
X0015064Y0055992D01*
X0015230Y0055825D01*
X0015360Y0055629D01*
X0015450Y0055411D01*
X0015467Y0055322D01*
X0015473Y0055303D01*
X0015482Y0055286D01*
X0015495Y0055270D01*
X0015510Y0055258D01*
X0015527Y0055249D01*
X0015546Y0055243D01*
X0015565Y0055241D01*
X0015585Y0055243D01*
X0015604Y0055249D01*
X0015621Y0055258D01*
X0015636Y0055270D01*
X0015648Y0055286D01*
X0015658Y0055303D01*
X0015663Y0055320D01*
X0015686Y0055427D01*
X0015779Y0055643D01*
X0015911Y0055838D01*
X0016080Y0056002D01*
X0016277Y0056131D01*
X0016495Y0056219D01*
X0016726Y0056263D01*
X0016961Y0056262D01*
X0017192Y0056214D01*
X0017409Y0056123D01*
X0017604Y0055992D01*
X0017770Y0055825D01*
X0017900Y0055629D01*
X0017990Y0055411D01*
X0018007Y0055322D01*
X0018013Y0055303D01*
X0018022Y0055286D01*
X0018035Y0055270D01*
X0018050Y0055258D01*
X0018067Y0055249D01*
X0018086Y0055243D01*
X0018105Y0055241D01*
X0018125Y0055243D01*
X0018144Y0055249D01*
X0018161Y0055258D01*
X0018176Y0055270D01*
X0018188Y0055286D01*
X0018198Y0055303D01*
X0018203Y0055320D01*
X0018226Y0055427D01*
X0018319Y0055643D01*
X0018451Y0055838D01*
X0018620Y0056002D01*
X0018817Y0056131D01*
X0019035Y0056219D01*
X0019266Y0056263D01*
X0019501Y0056262D01*
X0019501Y0056262D01*
G37*
G36*
X0047698Y0055424D02*
X0045774Y0055424D01*
X0045774Y0057348D01*
X0047698Y0057348D01*
X0047698Y0055424D01*
X0047698Y0055424D01*
G37*
G36*
X0045158Y0055424D02*
X0043234Y0055424D01*
X0043234Y0057348D01*
X0045158Y0057348D01*
X0045158Y0055424D01*
X0045158Y0055424D01*
G37*
G36*
X0004518Y0055424D02*
X0002594Y0055424D01*
X0002594Y0057348D01*
X0004518Y0057348D01*
X0004518Y0055424D01*
X0004518Y0055424D01*
G37*
G36*
X0007058Y0055424D02*
X0005134Y0055424D01*
X0005134Y0057348D01*
X0007058Y0057348D01*
X0007058Y0055424D01*
X0007058Y0055424D01*
G37*
G36*
X0047698Y0057964D02*
X0045774Y0057964D01*
X0045774Y0059888D01*
X0047698Y0059888D01*
X0047698Y0057964D01*
X0047698Y0057964D01*
G37*
G36*
X0004518Y0057964D02*
X0002594Y0057964D01*
X0002594Y0059888D01*
X0004518Y0059888D01*
X0004518Y0057964D01*
X0004518Y0057964D01*
G37*
G36*
X0007058Y0057964D02*
X0005134Y0057964D01*
X0005134Y0059888D01*
X0007058Y0059888D01*
X0007058Y0057964D01*
X0007058Y0057964D01*
G37*
G36*
X0045158Y0057964D02*
X0043234Y0057964D01*
X0043234Y0059888D01*
X0045158Y0059888D01*
X0045158Y0057964D01*
X0045158Y0057964D01*
G37*
G36*
X0012138Y0060504D02*
X0010214Y0060504D01*
X0010214Y0062428D01*
X0012138Y0062428D01*
X0012138Y0060504D01*
X0012138Y0060504D01*
G37*
G36*
X0014678Y0060504D02*
X0012754Y0060504D01*
X0012754Y0062428D01*
X0014678Y0062428D01*
X0014678Y0060504D01*
X0014678Y0060504D01*
G37*
G36*
X0005162Y0068474D02*
X0005777Y0068348D01*
X0006355Y0068105D01*
X0006876Y0067754D01*
X0007318Y0067308D01*
X0007665Y0066786D01*
X0007904Y0066205D01*
X0008026Y0065590D01*
X0008026Y0065590D01*
X0008026Y0065590D01*
X0008016Y0064873D01*
X0008016Y0064872D01*
X0008016Y0064872D01*
X0007877Y0064261D01*
X0007622Y0063688D01*
X0007260Y0063175D01*
X0006806Y0062742D01*
X0006276Y0062406D01*
X0005691Y0062179D01*
X0005073Y0062070D01*
X0004445Y0062083D01*
X0003832Y0062218D01*
X0003257Y0062469D01*
X0002742Y0062827D01*
X0002306Y0063279D01*
X0001966Y0063806D01*
X0001735Y0064390D01*
X0001622Y0065007D01*
X0001631Y0065634D01*
X0001761Y0066248D01*
X0002008Y0066825D01*
X0002363Y0067343D01*
X0002811Y0067782D01*
X0003336Y0068126D01*
X0003918Y0068361D01*
X0004535Y0068478D01*
X0005162Y0068474D01*
X0005162Y0068474D01*
G37*
G36*
X0045802Y0068474D02*
X0046417Y0068348D01*
X0046995Y0068105D01*
X0047516Y0067754D01*
X0047958Y0067308D01*
X0048305Y0066786D01*
X0048544Y0066205D01*
X0048666Y0065590D01*
X0048666Y0065590D01*
X0048666Y0065590D01*
X0048656Y0064873D01*
X0048656Y0064872D01*
X0048656Y0064872D01*
X0048517Y0064261D01*
X0048262Y0063688D01*
X0047900Y0063175D01*
X0047446Y0062742D01*
X0046916Y0062406D01*
X0046331Y0062179D01*
X0045713Y0062070D01*
X0045085Y0062083D01*
X0044472Y0062218D01*
X0043897Y0062469D01*
X0043382Y0062827D01*
X0042946Y0063279D01*
X0042606Y0063806D01*
X0042375Y0064390D01*
X0042262Y0065007D01*
X0042271Y0065634D01*
X0042401Y0066248D01*
X0042648Y0066825D01*
X0043003Y0067343D01*
X0043451Y0067782D01*
X0043976Y0068126D01*
X0044558Y0068361D01*
X0045175Y0068478D01*
X0045802Y0068474D01*
X0045802Y0068474D01*
G37*
G36*
X0017218Y0063044D02*
X0015294Y0063044D01*
X0015294Y0064968D01*
X0017218Y0064968D01*
X0017218Y0063044D01*
X0017218Y0063044D01*
G37*
G36*
X0014678Y0063044D02*
X0012754Y0063044D01*
X0012754Y0064968D01*
X0014678Y0064968D01*
X0014678Y0063044D01*
X0014678Y0063044D01*
G37*
G36*
X0019758Y0063044D02*
X0017834Y0063044D01*
X0017834Y0064968D01*
X0019758Y0064968D01*
X0019758Y0063044D01*
X0019758Y0063044D01*
G37*
G36*
X0022298Y0063044D02*
X0020374Y0063044D01*
X0020374Y0064968D01*
X0022298Y0064968D01*
X0022298Y0063044D01*
X0022298Y0063044D01*
G37*
G36*
X0024838Y0063044D02*
X0022914Y0063044D01*
X0022914Y0064968D01*
X0024838Y0064968D01*
X0024838Y0063044D01*
X0024838Y0063044D01*
G37*
G36*
X0037538Y0063044D02*
X0035614Y0063044D01*
X0035614Y0064968D01*
X0037538Y0064968D01*
X0037538Y0063044D01*
X0037538Y0063044D01*
G37*
G36*
X0034998Y0063044D02*
X0033074Y0063044D01*
X0033074Y0064968D01*
X0034998Y0064968D01*
X0034998Y0063044D01*
X0034998Y0063044D01*
G37*
G36*
X0034998Y0065584D02*
X0033074Y0065584D01*
X0033074Y0067508D01*
X0034998Y0067508D01*
X0034998Y0065584D01*
X0034998Y0065584D01*
G37*
G36*
X0014678Y0065584D02*
X0012754Y0065584D01*
X0012754Y0067508D01*
X0014678Y0067508D01*
X0014678Y0065584D01*
X0014678Y0065584D01*
G37*
G36*
X0024838Y0065584D02*
X0022914Y0065584D01*
X0022914Y0067508D01*
X0024838Y0067508D01*
X0024838Y0065584D01*
X0024838Y0065584D01*
G37*
G36*
X0022298Y0065584D02*
X0020374Y0065584D01*
X0020374Y0067508D01*
X0022298Y0067508D01*
X0022298Y0065584D01*
X0022298Y0065584D01*
G37*
G36*
X0037538Y0065584D02*
X0035614Y0065584D01*
X0035614Y0067508D01*
X0037538Y0067508D01*
X0037538Y0065584D01*
X0037538Y0065584D01*
G37*
G36*
X0019758Y0065584D02*
X0017834Y0065584D01*
X0017834Y0067508D01*
X0019758Y0067508D01*
X0019758Y0065584D01*
X0019758Y0065584D01*
G37*
G36*
X0017218Y0065584D02*
X0015294Y0065584D01*
X0015294Y0067508D01*
X0017218Y0067508D01*
X0017218Y0065584D01*
X0017218Y0065584D01*
G37*
X0050290Y0040130D02*
%LPD*%
G01*
D23*
G36*
X0055452Y0048154D02*
X0056067Y0048028D01*
X0056645Y0047785D01*
X0057166Y0047434D01*
X0057608Y0046988D01*
X0057955Y0046466D01*
X0058194Y0045885D01*
X0058316Y0045270D01*
X0058316Y0045270D01*
X0058316Y0045270D01*
X0058306Y0044553D01*
X0058306Y0044552D01*
X0058306Y0044552D01*
X0058167Y0043941D01*
X0057912Y0043368D01*
X0057550Y0042855D01*
X0057096Y0042422D01*
X0056566Y0042086D01*
X0055981Y0041859D01*
X0055363Y0041750D01*
X0054735Y0041763D01*
X0054122Y0041898D01*
X0053547Y0042149D01*
X0053032Y0042507D01*
X0052596Y0042959D01*
X0052256Y0043486D01*
X0052025Y0044070D01*
X0051912Y0044687D01*
X0051921Y0045314D01*
X0052051Y0045928D01*
X0052298Y0046505D01*
X0052653Y0047023D01*
X0053101Y0047462D01*
X0053626Y0047806D01*
X0054208Y0048041D01*
X0054825Y0048158D01*
X0055452Y0048154D01*
X0055452Y0048154D01*
G37*
G36*
X0065612Y0048154D02*
X0066227Y0048028D01*
X0066805Y0047785D01*
X0067326Y0047434D01*
X0067768Y0046988D01*
X0068115Y0046466D01*
X0068354Y0045885D01*
X0068476Y0045270D01*
X0068476Y0045270D01*
X0068476Y0045270D01*
X0068466Y0044553D01*
X0068466Y0044552D01*
X0068466Y0044552D01*
X0068327Y0043941D01*
X0068072Y0043368D01*
X0067710Y0042855D01*
X0067256Y0042422D01*
X0066726Y0042086D01*
X0066141Y0041859D01*
X0065523Y0041750D01*
X0064895Y0041763D01*
X0064282Y0041898D01*
X0063707Y0042149D01*
X0063192Y0042507D01*
X0062756Y0042959D01*
X0062416Y0043486D01*
X0062185Y0044070D01*
X0062072Y0044687D01*
X0062081Y0045314D01*
X0062211Y0045928D01*
X0062458Y0046505D01*
X0062813Y0047023D01*
X0063261Y0047462D01*
X0063786Y0047806D01*
X0064368Y0048041D01*
X0064985Y0048158D01*
X0065612Y0048154D01*
X0065612Y0048154D01*
G37*
G36*
X0057221Y0049582D02*
X0055297Y0049582D01*
X0055297Y0051506D01*
X0057221Y0051506D01*
X0057221Y0049582D01*
X0057221Y0049582D01*
G37*
G36*
X0054681Y0049582D02*
X0052757Y0049582D01*
X0052757Y0051506D01*
X0054681Y0051506D01*
X0054681Y0049582D01*
X0054681Y0049582D01*
G37*
G36*
X0068422Y0049887D02*
X0066498Y0049887D01*
X0066498Y0051811D01*
X0068422Y0051811D01*
X0068422Y0049887D01*
X0068422Y0049887D01*
G37*
G36*
X0065882Y0049887D02*
X0063958Y0049887D01*
X0063958Y0051811D01*
X0065882Y0051811D01*
X0065882Y0049887D01*
X0065882Y0049887D01*
G37*
G36*
X0057221Y0052122D02*
X0055297Y0052122D01*
X0055297Y0054046D01*
X0057221Y0054046D01*
X0057221Y0052122D01*
X0057221Y0052122D01*
G37*
G36*
X0054681Y0052122D02*
X0052757Y0052122D01*
X0052757Y0054046D01*
X0054681Y0054046D01*
X0054681Y0052122D01*
X0054681Y0052122D01*
G37*
G36*
X0054681Y0054662D02*
X0052757Y0054662D01*
X0052757Y0056586D01*
X0054681Y0056586D01*
X0054681Y0054662D01*
X0054681Y0054662D01*
G37*
G36*
X0057221Y0054662D02*
X0055297Y0054662D01*
X0055297Y0056586D01*
X0057221Y0056586D01*
X0057221Y0054662D01*
X0057221Y0054662D01*
G37*
G36*
X0057221Y0058091D02*
X0055297Y0058091D01*
X0055297Y0060015D01*
X0057221Y0060015D01*
X0057221Y0058091D01*
X0057221Y0058091D01*
G37*
G36*
X0054681Y0058091D02*
X0052757Y0058091D01*
X0052757Y0060015D01*
X0054681Y0060015D01*
X0054681Y0058091D01*
X0054681Y0058091D01*
G37*
G36*
X0054681Y0060631D02*
X0052757Y0060631D01*
X0052757Y0062555D01*
X0054681Y0062555D01*
X0054681Y0060631D01*
X0054681Y0060631D01*
G37*
G36*
X0057221Y0060631D02*
X0055297Y0060631D01*
X0055297Y0062555D01*
X0057221Y0062555D01*
X0057221Y0060631D01*
X0057221Y0060631D01*
G37*
G36*
X0054681Y0063171D02*
X0052757Y0063171D01*
X0052757Y0065095D01*
X0054681Y0065095D01*
X0054681Y0063171D01*
X0054681Y0063171D01*
G37*
G36*
X0057221Y0063171D02*
X0055297Y0063171D01*
X0055297Y0065095D01*
X0057221Y0065095D01*
X0057221Y0063171D01*
X0057221Y0063171D01*
G37*
G36*
X0057221Y0065711D02*
X0055297Y0065711D01*
X0055297Y0067635D01*
X0057221Y0067635D01*
X0057221Y0065711D01*
X0057221Y0065711D01*
G37*
G36*
X0054681Y0065711D02*
X0052757Y0065711D01*
X0052757Y0067635D01*
X0054681Y0067635D01*
X0054681Y0065711D01*
X0054681Y0065711D01*
G37*
G36*
X0054681Y0068251D02*
X0052757Y0068251D01*
X0052757Y0070175D01*
X0054681Y0070175D01*
X0054681Y0068251D01*
X0054681Y0068251D01*
G37*
G36*
X0057221Y0068251D02*
X0055297Y0068251D01*
X0055297Y0070175D01*
X0057221Y0070175D01*
X0057221Y0068251D01*
X0057221Y0068251D01*
G37*
G36*
X0055452Y0078634D02*
X0056067Y0078508D01*
X0056645Y0078265D01*
X0057166Y0077914D01*
X0057608Y0077468D01*
X0057955Y0076946D01*
X0058194Y0076365D01*
X0058316Y0075750D01*
X0058316Y0075750D01*
X0058316Y0075750D01*
X0058306Y0075033D01*
X0058306Y0075032D01*
X0058306Y0075032D01*
X0058167Y0074421D01*
X0057912Y0073848D01*
X0057550Y0073335D01*
X0057096Y0072902D01*
X0056566Y0072566D01*
X0055981Y0072339D01*
X0055363Y0072230D01*
X0054735Y0072243D01*
X0054122Y0072378D01*
X0053547Y0072629D01*
X0053032Y0072987D01*
X0052596Y0073439D01*
X0052256Y0073966D01*
X0052025Y0074550D01*
X0051912Y0075167D01*
X0051921Y0075794D01*
X0052051Y0076408D01*
X0052298Y0076985D01*
X0052653Y0077503D01*
X0053101Y0077942D01*
X0053626Y0078286D01*
X0054208Y0078521D01*
X0054825Y0078638D01*
X0055452Y0078634D01*
X0055452Y0078634D01*
G37*
G36*
X0065612Y0078634D02*
X0066227Y0078508D01*
X0066805Y0078265D01*
X0067326Y0077914D01*
X0067768Y0077468D01*
X0068115Y0076946D01*
X0068354Y0076365D01*
X0068476Y0075750D01*
X0068476Y0075750D01*
X0068476Y0075750D01*
X0068466Y0075033D01*
X0068466Y0075032D01*
X0068466Y0075032D01*
X0068327Y0074421D01*
X0068072Y0073848D01*
X0067710Y0073335D01*
X0067256Y0072902D01*
X0066726Y0072566D01*
X0066141Y0072339D01*
X0065523Y0072230D01*
X0064895Y0072243D01*
X0064282Y0072378D01*
X0063707Y0072629D01*
X0063192Y0072987D01*
X0062756Y0073439D01*
X0062416Y0073966D01*
X0062185Y0074550D01*
X0062072Y0075167D01*
X0062081Y0075794D01*
X0062211Y0076408D01*
X0062458Y0076985D01*
X0062813Y0077503D01*
X0063261Y0077942D01*
X0063786Y0078286D01*
X0064368Y0078521D01*
X0064985Y0078638D01*
X0065612Y0078634D01*
X0065612Y0078634D01*
G37*
X0070100Y0040130D02*
%LPD*%
G01*
D23*
G36*
X0075262Y0048154D02*
X0075877Y0048028D01*
X0076455Y0047785D01*
X0076976Y0047434D01*
X0077418Y0046988D01*
X0077765Y0046466D01*
X0078004Y0045885D01*
X0078126Y0045270D01*
X0078126Y0045270D01*
X0078126Y0045270D01*
X0078116Y0044553D01*
X0078116Y0044552D01*
X0078116Y0044552D01*
X0077977Y0043941D01*
X0077722Y0043368D01*
X0077360Y0042855D01*
X0076906Y0042422D01*
X0076376Y0042086D01*
X0075791Y0041859D01*
X0075173Y0041750D01*
X0074545Y0041763D01*
X0073932Y0041898D01*
X0073357Y0042149D01*
X0072842Y0042507D01*
X0072406Y0042959D01*
X0072066Y0043486D01*
X0071835Y0044070D01*
X0071722Y0044687D01*
X0071731Y0045314D01*
X0071861Y0045928D01*
X0072108Y0046505D01*
X0072463Y0047023D01*
X0072911Y0047462D01*
X0073436Y0047806D01*
X0074018Y0048041D01*
X0074635Y0048158D01*
X0075262Y0048154D01*
X0075262Y0048154D01*
G37*
G36*
X0115902Y0048154D02*
X0116517Y0048028D01*
X0117095Y0047785D01*
X0117616Y0047434D01*
X0118058Y0046988D01*
X0118405Y0046466D01*
X0118644Y0045885D01*
X0118766Y0045270D01*
X0118766Y0045270D01*
X0118766Y0045270D01*
X0118756Y0044553D01*
X0118756Y0044552D01*
X0118756Y0044552D01*
X0118617Y0043941D01*
X0118362Y0043368D01*
X0118000Y0042855D01*
X0117546Y0042422D01*
X0117016Y0042086D01*
X0116431Y0041859D01*
X0115813Y0041750D01*
X0115185Y0041763D01*
X0114572Y0041898D01*
X0113997Y0042149D01*
X0113482Y0042507D01*
X0113046Y0042959D01*
X0112706Y0043486D01*
X0112475Y0044070D01*
X0112362Y0044687D01*
X0112371Y0045314D01*
X0112501Y0045928D01*
X0112748Y0046505D01*
X0113103Y0047023D01*
X0113551Y0047462D01*
X0114076Y0047806D01*
X0114658Y0048041D01*
X0115275Y0048158D01*
X0115902Y0048154D01*
X0115902Y0048154D01*
G37*
G36*
X0082726Y0048361D02*
X0083149Y0048274D01*
X0083547Y0048107D01*
X0083904Y0047866D01*
X0084208Y0047560D01*
X0084447Y0047200D01*
X0084611Y0046801D01*
X0084695Y0046379D01*
X0084695Y0046379D01*
X0084695Y0046378D01*
X0084688Y0045885D01*
X0084688Y0045885D01*
X0084688Y0045885D01*
X0084593Y0045465D01*
X0084417Y0045071D01*
X0084169Y0044718D01*
X0083856Y0044420D01*
X0083492Y0044189D01*
X0083090Y0044033D01*
X0082665Y0043958D01*
X0082233Y0043967D01*
X0081812Y0044060D01*
X0081417Y0044233D01*
X0081062Y0044479D01*
X0080763Y0044789D01*
X0080529Y0045152D01*
X0080370Y0045553D01*
X0080292Y0045978D01*
X0080298Y0046409D01*
X0080388Y0046831D01*
X0080558Y0047227D01*
X0080802Y0047583D01*
X0081110Y0047885D01*
X0081471Y0048122D01*
X0081871Y0048283D01*
X0082295Y0048364D01*
X0082726Y0048361D01*
X0082726Y0048361D01*
G37*
G36*
X0092886Y0048361D02*
X0093309Y0048274D01*
X0093707Y0048107D01*
X0094064Y0047866D01*
X0094368Y0047560D01*
X0094607Y0047200D01*
X0094771Y0046801D01*
X0094855Y0046379D01*
X0094855Y0046379D01*
X0094855Y0046378D01*
X0094848Y0045885D01*
X0094848Y0045885D01*
X0094848Y0045885D01*
X0094753Y0045465D01*
X0094577Y0045071D01*
X0094329Y0044718D01*
X0094016Y0044420D01*
X0093652Y0044189D01*
X0093250Y0044033D01*
X0092825Y0043958D01*
X0092393Y0043967D01*
X0091972Y0044060D01*
X0091577Y0044233D01*
X0091222Y0044479D01*
X0090923Y0044789D01*
X0090689Y0045152D01*
X0090530Y0045553D01*
X0090452Y0045978D01*
X0090458Y0046409D01*
X0090548Y0046831D01*
X0090718Y0047227D01*
X0090962Y0047583D01*
X0091270Y0047885D01*
X0091631Y0048122D01*
X0092031Y0048283D01*
X0092455Y0048364D01*
X0092886Y0048361D01*
X0092886Y0048361D01*
G37*
G36*
X0097966Y0048361D02*
X0098389Y0048274D01*
X0098787Y0048107D01*
X0099144Y0047866D01*
X0099448Y0047560D01*
X0099687Y0047200D01*
X0099851Y0046801D01*
X0099935Y0046379D01*
X0099935Y0046379D01*
X0099935Y0046378D01*
X0099928Y0045885D01*
X0099928Y0045885D01*
X0099928Y0045885D01*
X0099833Y0045465D01*
X0099657Y0045071D01*
X0099409Y0044718D01*
X0099096Y0044420D01*
X0098732Y0044189D01*
X0098330Y0044033D01*
X0097905Y0043958D01*
X0097473Y0043967D01*
X0097052Y0044060D01*
X0096657Y0044233D01*
X0096302Y0044479D01*
X0096003Y0044789D01*
X0095769Y0045152D01*
X0095610Y0045553D01*
X0095532Y0045978D01*
X0095538Y0046409D01*
X0095628Y0046831D01*
X0095798Y0047227D01*
X0096042Y0047583D01*
X0096350Y0047885D01*
X0096711Y0048122D01*
X0097111Y0048283D01*
X0097535Y0048364D01*
X0097966Y0048361D01*
X0097966Y0048361D01*
G37*
G36*
X0108126Y0048361D02*
X0108549Y0048274D01*
X0108947Y0048107D01*
X0109304Y0047866D01*
X0109608Y0047560D01*
X0109847Y0047200D01*
X0110011Y0046801D01*
X0110095Y0046379D01*
X0110095Y0046379D01*
X0110095Y0046378D01*
X0110088Y0045885D01*
X0110088Y0045885D01*
X0110088Y0045885D01*
X0109993Y0045465D01*
X0109817Y0045071D01*
X0109569Y0044718D01*
X0109256Y0044420D01*
X0108892Y0044189D01*
X0108490Y0044033D01*
X0108065Y0043958D01*
X0107633Y0043967D01*
X0107212Y0044060D01*
X0106817Y0044233D01*
X0106462Y0044479D01*
X0106163Y0044789D01*
X0105929Y0045152D01*
X0105770Y0045553D01*
X0105692Y0045978D01*
X0105698Y0046409D01*
X0105788Y0046831D01*
X0105958Y0047227D01*
X0106202Y0047583D01*
X0106510Y0047885D01*
X0106871Y0048122D01*
X0107271Y0048283D01*
X0107695Y0048364D01*
X0108126Y0048361D01*
X0108126Y0048361D01*
G37*
G36*
X0115258Y0050344D02*
X0113334Y0050344D01*
X0113334Y0052268D01*
X0115258Y0052268D01*
X0115258Y0050344D01*
X0115258Y0050344D01*
G37*
G36*
X0117798Y0050344D02*
X0115874Y0050344D01*
X0115874Y0052268D01*
X0117798Y0052268D01*
X0117798Y0050344D01*
X0117798Y0050344D01*
G37*
G36*
X0074618Y0050344D02*
X0072694Y0050344D01*
X0072694Y0052268D01*
X0074618Y0052268D01*
X0074618Y0050344D01*
X0074618Y0050344D01*
G37*
G36*
X0077158Y0050344D02*
X0075234Y0050344D01*
X0075234Y0052268D01*
X0077158Y0052268D01*
X0077158Y0050344D01*
X0077158Y0050344D01*
G37*
G36*
X0106111Y0053722D02*
X0106342Y0053674D01*
X0106559Y0053583D01*
X0106754Y0053452D01*
X0106920Y0053285D01*
X0107050Y0053089D01*
X0107140Y0052871D01*
X0107185Y0052641D01*
X0107185Y0052641D01*
X0107185Y0052640D01*
X0107181Y0052371D01*
X0107181Y0052371D01*
X0107181Y0052371D01*
X0107129Y0052142D01*
X0107034Y0051927D01*
X0106898Y0051735D01*
X0106728Y0051572D01*
X0106529Y0051446D01*
X0106309Y0051361D01*
X0106078Y0051320D01*
X0105842Y0051325D01*
X0105613Y0051376D01*
X0105397Y0051470D01*
X0105204Y0051604D01*
X0105040Y0051774D01*
X0104913Y0051971D01*
X0104826Y0052190D01*
X0104813Y0052261D01*
X0104808Y0052280D01*
X0104799Y0052297D01*
X0104787Y0052312D01*
X0104772Y0052325D01*
X0104754Y0052334D01*
X0104736Y0052340D01*
X0104716Y0052343D01*
X0104697Y0052341D01*
X0104678Y0052336D01*
X0104660Y0052327D01*
X0104645Y0052314D01*
X0104632Y0052299D01*
X0104623Y0052282D01*
X0104617Y0052265D01*
X0104589Y0052142D01*
X0104494Y0051927D01*
X0104358Y0051735D01*
X0104188Y0051572D01*
X0103989Y0051446D01*
X0103769Y0051361D01*
X0103538Y0051320D01*
X0103302Y0051325D01*
X0103073Y0051376D01*
X0102857Y0051470D01*
X0102664Y0051604D01*
X0102500Y0051774D01*
X0102373Y0051971D01*
X0102286Y0052190D01*
X0102273Y0052261D01*
X0102268Y0052280D01*
X0102259Y0052297D01*
X0102247Y0052312D01*
X0102232Y0052325D01*
X0102214Y0052334D01*
X0102196Y0052340D01*
X0102176Y0052343D01*
X0102157Y0052341D01*
X0102138Y0052336D01*
X0102120Y0052327D01*
X0102105Y0052314D01*
X0102092Y0052299D01*
X0102083Y0052282D01*
X0102077Y0052265D01*
X0102049Y0052142D01*
X0101954Y0051927D01*
X0101818Y0051735D01*
X0101648Y0051572D01*
X0101449Y0051446D01*
X0101229Y0051361D01*
X0100998Y0051320D01*
X0100762Y0051325D01*
X0100533Y0051376D01*
X0100317Y0051470D01*
X0100124Y0051604D01*
X0099960Y0051774D01*
X0099833Y0051971D01*
X0099746Y0052190D01*
X0099704Y0052422D01*
X0099707Y0052657D01*
X0099756Y0052887D01*
X0099849Y0053103D01*
X0099981Y0053298D01*
X0100150Y0053462D01*
X0100347Y0053591D01*
X0100565Y0053679D01*
X0100796Y0053723D01*
X0101031Y0053722D01*
X0101262Y0053674D01*
X0101479Y0053583D01*
X0101674Y0053452D01*
X0101840Y0053285D01*
X0101970Y0053089D01*
X0102060Y0052871D01*
X0102077Y0052782D01*
X0102083Y0052763D01*
X0102092Y0052746D01*
X0102105Y0052730D01*
X0102120Y0052718D01*
X0102137Y0052709D01*
X0102156Y0052703D01*
X0102175Y0052701D01*
X0102195Y0052703D01*
X0102214Y0052709D01*
X0102231Y0052718D01*
X0102246Y0052730D01*
X0102258Y0052746D01*
X0102268Y0052763D01*
X0102273Y0052780D01*
X0102296Y0052887D01*
X0102389Y0053103D01*
X0102521Y0053298D01*
X0102690Y0053462D01*
X0102887Y0053591D01*
X0103105Y0053679D01*
X0103336Y0053723D01*
X0103571Y0053722D01*
X0103802Y0053674D01*
X0104019Y0053583D01*
X0104214Y0053452D01*
X0104380Y0053285D01*
X0104510Y0053089D01*
X0104600Y0052871D01*
X0104617Y0052782D01*
X0104623Y0052763D01*
X0104632Y0052746D01*
X0104645Y0052730D01*
X0104660Y0052718D01*
X0104677Y0052709D01*
X0104696Y0052703D01*
X0104715Y0052701D01*
X0104735Y0052703D01*
X0104754Y0052709D01*
X0104771Y0052718D01*
X0104786Y0052730D01*
X0104798Y0052746D01*
X0104808Y0052763D01*
X0104813Y0052780D01*
X0104836Y0052887D01*
X0104929Y0053103D01*
X0105061Y0053298D01*
X0105230Y0053462D01*
X0105427Y0053591D01*
X0105645Y0053679D01*
X0105876Y0053723D01*
X0106111Y0053722D01*
X0106111Y0053722D01*
G37*
G36*
X0090871Y0053722D02*
X0091102Y0053674D01*
X0091319Y0053583D01*
X0091514Y0053452D01*
X0091680Y0053285D01*
X0091810Y0053089D01*
X0091900Y0052871D01*
X0091945Y0052641D01*
X0091945Y0052641D01*
X0091945Y0052640D01*
X0091941Y0052371D01*
X0091941Y0052371D01*
X0091941Y0052371D01*
X0091889Y0052142D01*
X0091794Y0051927D01*
X0091658Y0051735D01*
X0091488Y0051572D01*
X0091289Y0051446D01*
X0091069Y0051361D01*
X0090838Y0051320D01*
X0090602Y0051325D01*
X0090373Y0051376D01*
X0090157Y0051470D01*
X0089964Y0051604D01*
X0089800Y0051774D01*
X0089673Y0051971D01*
X0089586Y0052190D01*
X0089573Y0052261D01*
X0089568Y0052280D01*
X0089559Y0052297D01*
X0089547Y0052312D01*
X0089532Y0052325D01*
X0089514Y0052334D01*
X0089496Y0052340D01*
X0089476Y0052343D01*
X0089457Y0052341D01*
X0089438Y0052336D01*
X0089420Y0052327D01*
X0089405Y0052314D01*
X0089392Y0052299D01*
X0089383Y0052282D01*
X0089377Y0052265D01*
X0089349Y0052142D01*
X0089254Y0051927D01*
X0089118Y0051735D01*
X0088948Y0051572D01*
X0088749Y0051446D01*
X0088529Y0051361D01*
X0088298Y0051320D01*
X0088062Y0051325D01*
X0087833Y0051376D01*
X0087617Y0051470D01*
X0087424Y0051604D01*
X0087260Y0051774D01*
X0087133Y0051971D01*
X0087046Y0052190D01*
X0087033Y0052261D01*
X0087028Y0052280D01*
X0087019Y0052297D01*
X0087007Y0052312D01*
X0086992Y0052325D01*
X0086974Y0052334D01*
X0086956Y0052340D01*
X0086936Y0052343D01*
X0086917Y0052341D01*
X0086898Y0052336D01*
X0086880Y0052327D01*
X0086865Y0052314D01*
X0086852Y0052299D01*
X0086843Y0052282D01*
X0086837Y0052265D01*
X0086809Y0052142D01*
X0086714Y0051927D01*
X0086578Y0051735D01*
X0086408Y0051572D01*
X0086209Y0051446D01*
X0085989Y0051361D01*
X0085758Y0051320D01*
X0085522Y0051325D01*
X0085293Y0051376D01*
X0085077Y0051470D01*
X0084884Y0051604D01*
X0084720Y0051774D01*
X0084593Y0051971D01*
X0084506Y0052190D01*
X0084464Y0052422D01*
X0084467Y0052657D01*
X0084516Y0052887D01*
X0084609Y0053103D01*
X0084741Y0053298D01*
X0084910Y0053462D01*
X0085107Y0053591D01*
X0085325Y0053679D01*
X0085556Y0053723D01*
X0085791Y0053722D01*
X0086022Y0053674D01*
X0086239Y0053583D01*
X0086434Y0053452D01*
X0086600Y0053285D01*
X0086730Y0053089D01*
X0086820Y0052871D01*
X0086837Y0052782D01*
X0086843Y0052763D01*
X0086852Y0052746D01*
X0086865Y0052730D01*
X0086880Y0052718D01*
X0086897Y0052709D01*
X0086916Y0052703D01*
X0086935Y0052701D01*
X0086955Y0052703D01*
X0086974Y0052709D01*
X0086991Y0052718D01*
X0087006Y0052730D01*
X0087018Y0052746D01*
X0087028Y0052763D01*
X0087033Y0052780D01*
X0087056Y0052887D01*
X0087149Y0053103D01*
X0087281Y0053298D01*
X0087450Y0053462D01*
X0087647Y0053591D01*
X0087865Y0053679D01*
X0088096Y0053723D01*
X0088331Y0053722D01*
X0088562Y0053674D01*
X0088779Y0053583D01*
X0088974Y0053452D01*
X0089140Y0053285D01*
X0089270Y0053089D01*
X0089360Y0052871D01*
X0089377Y0052782D01*
X0089383Y0052763D01*
X0089392Y0052746D01*
X0089405Y0052730D01*
X0089420Y0052718D01*
X0089437Y0052709D01*
X0089456Y0052703D01*
X0089475Y0052701D01*
X0089495Y0052703D01*
X0089514Y0052709D01*
X0089531Y0052718D01*
X0089546Y0052730D01*
X0089558Y0052746D01*
X0089568Y0052763D01*
X0089573Y0052780D01*
X0089596Y0052887D01*
X0089689Y0053103D01*
X0089821Y0053298D01*
X0089990Y0053462D01*
X0090187Y0053591D01*
X0090405Y0053679D01*
X0090636Y0053723D01*
X0090871Y0053722D01*
X0090871Y0053722D01*
G37*
G36*
X0077158Y0052884D02*
X0075234Y0052884D01*
X0075234Y0054808D01*
X0077158Y0054808D01*
X0077158Y0052884D01*
X0077158Y0052884D01*
G37*
G36*
X0074618Y0052884D02*
X0072694Y0052884D01*
X0072694Y0054808D01*
X0074618Y0054808D01*
X0074618Y0052884D01*
X0074618Y0052884D01*
G37*
G36*
X0115258Y0052884D02*
X0113334Y0052884D01*
X0113334Y0054808D01*
X0115258Y0054808D01*
X0115258Y0052884D01*
X0115258Y0052884D01*
G37*
G36*
X0117798Y0052884D02*
X0115874Y0052884D01*
X0115874Y0054808D01*
X0117798Y0054808D01*
X0117798Y0052884D01*
X0117798Y0052884D01*
G37*
G36*
X0104841Y0056262D02*
X0105072Y0056214D01*
X0105289Y0056123D01*
X0105484Y0055992D01*
X0105650Y0055825D01*
X0105780Y0055629D01*
X0105870Y0055411D01*
X0105915Y0055181D01*
X0105915Y0055181D01*
X0105915Y0055180D01*
X0105911Y0054911D01*
X0105911Y0054911D01*
X0105911Y0054911D01*
X0105859Y0054682D01*
X0105764Y0054467D01*
X0105628Y0054275D01*
X0105458Y0054112D01*
X0105259Y0053986D01*
X0105039Y0053901D01*
X0104808Y0053860D01*
X0104572Y0053865D01*
X0104343Y0053916D01*
X0104127Y0054010D01*
X0103934Y0054144D01*
X0103770Y0054314D01*
X0103643Y0054511D01*
X0103556Y0054730D01*
X0103543Y0054801D01*
X0103538Y0054820D01*
X0103529Y0054837D01*
X0103517Y0054852D01*
X0103502Y0054865D01*
X0103484Y0054874D01*
X0103466Y0054880D01*
X0103446Y0054883D01*
X0103427Y0054881D01*
X0103408Y0054876D01*
X0103390Y0054867D01*
X0103375Y0054854D01*
X0103362Y0054839D01*
X0103353Y0054822D01*
X0103347Y0054805D01*
X0103319Y0054682D01*
X0103224Y0054467D01*
X0103088Y0054275D01*
X0102918Y0054112D01*
X0102719Y0053986D01*
X0102499Y0053901D01*
X0102268Y0053860D01*
X0102032Y0053865D01*
X0101803Y0053916D01*
X0101587Y0054010D01*
X0101394Y0054144D01*
X0101230Y0054314D01*
X0101103Y0054511D01*
X0101016Y0054730D01*
X0101003Y0054801D01*
X0100998Y0054820D01*
X0100989Y0054837D01*
X0100977Y0054852D01*
X0100962Y0054865D01*
X0100944Y0054874D01*
X0100926Y0054880D01*
X0100906Y0054883D01*
X0100887Y0054881D01*
X0100868Y0054876D01*
X0100850Y0054867D01*
X0100835Y0054854D01*
X0100822Y0054839D01*
X0100813Y0054822D01*
X0100807Y0054805D01*
X0100779Y0054682D01*
X0100684Y0054467D01*
X0100548Y0054275D01*
X0100378Y0054112D01*
X0100179Y0053986D01*
X0099959Y0053901D01*
X0099728Y0053860D01*
X0099492Y0053865D01*
X0099263Y0053916D01*
X0099047Y0054010D01*
X0098854Y0054144D01*
X0098690Y0054314D01*
X0098563Y0054511D01*
X0098476Y0054730D01*
X0098434Y0054962D01*
X0098437Y0055197D01*
X0098486Y0055427D01*
X0098579Y0055643D01*
X0098711Y0055838D01*
X0098880Y0056002D01*
X0099077Y0056131D01*
X0099295Y0056219D01*
X0099526Y0056263D01*
X0099761Y0056262D01*
X0099992Y0056214D01*
X0100209Y0056123D01*
X0100404Y0055992D01*
X0100570Y0055825D01*
X0100700Y0055629D01*
X0100790Y0055411D01*
X0100807Y0055322D01*
X0100813Y0055303D01*
X0100822Y0055286D01*
X0100835Y0055270D01*
X0100850Y0055258D01*
X0100867Y0055249D01*
X0100886Y0055243D01*
X0100905Y0055241D01*
X0100925Y0055243D01*
X0100944Y0055249D01*
X0100961Y0055258D01*
X0100976Y0055270D01*
X0100988Y0055286D01*
X0100998Y0055303D01*
X0101003Y0055320D01*
X0101026Y0055427D01*
X0101119Y0055643D01*
X0101251Y0055838D01*
X0101420Y0056002D01*
X0101617Y0056131D01*
X0101835Y0056219D01*
X0102066Y0056263D01*
X0102301Y0056262D01*
X0102532Y0056214D01*
X0102749Y0056123D01*
X0102944Y0055992D01*
X0103110Y0055825D01*
X0103240Y0055629D01*
X0103330Y0055411D01*
X0103347Y0055322D01*
X0103353Y0055303D01*
X0103362Y0055286D01*
X0103375Y0055270D01*
X0103390Y0055258D01*
X0103407Y0055249D01*
X0103426Y0055243D01*
X0103445Y0055241D01*
X0103465Y0055243D01*
X0103484Y0055249D01*
X0103501Y0055258D01*
X0103516Y0055270D01*
X0103528Y0055286D01*
X0103538Y0055303D01*
X0103543Y0055320D01*
X0103566Y0055427D01*
X0103659Y0055643D01*
X0103791Y0055838D01*
X0103960Y0056002D01*
X0104157Y0056131D01*
X0104375Y0056219D01*
X0104606Y0056263D01*
X0104841Y0056262D01*
X0104841Y0056262D01*
G37*
G36*
X0089601Y0056262D02*
X0089832Y0056214D01*
X0090049Y0056123D01*
X0090244Y0055992D01*
X0090410Y0055825D01*
X0090540Y0055629D01*
X0090630Y0055411D01*
X0090675Y0055181D01*
X0090675Y0055181D01*
X0090675Y0055180D01*
X0090671Y0054911D01*
X0090671Y0054911D01*
X0090671Y0054911D01*
X0090619Y0054682D01*
X0090524Y0054467D01*
X0090388Y0054275D01*
X0090218Y0054112D01*
X0090019Y0053986D01*
X0089799Y0053901D01*
X0089568Y0053860D01*
X0089332Y0053865D01*
X0089103Y0053916D01*
X0088887Y0054010D01*
X0088694Y0054144D01*
X0088530Y0054314D01*
X0088403Y0054511D01*
X0088316Y0054730D01*
X0088303Y0054801D01*
X0088298Y0054820D01*
X0088289Y0054837D01*
X0088277Y0054852D01*
X0088262Y0054865D01*
X0088244Y0054874D01*
X0088226Y0054880D01*
X0088206Y0054883D01*
X0088187Y0054881D01*
X0088168Y0054876D01*
X0088150Y0054867D01*
X0088135Y0054854D01*
X0088122Y0054839D01*
X0088113Y0054822D01*
X0088107Y0054805D01*
X0088079Y0054682D01*
X0087984Y0054467D01*
X0087848Y0054275D01*
X0087678Y0054112D01*
X0087479Y0053986D01*
X0087259Y0053901D01*
X0087028Y0053860D01*
X0086792Y0053865D01*
X0086563Y0053916D01*
X0086347Y0054010D01*
X0086154Y0054144D01*
X0085990Y0054314D01*
X0085863Y0054511D01*
X0085776Y0054730D01*
X0085763Y0054801D01*
X0085758Y0054820D01*
X0085749Y0054837D01*
X0085737Y0054852D01*
X0085722Y0054865D01*
X0085704Y0054874D01*
X0085686Y0054880D01*
X0085666Y0054883D01*
X0085647Y0054881D01*
X0085628Y0054876D01*
X0085610Y0054867D01*
X0085595Y0054854D01*
X0085582Y0054839D01*
X0085573Y0054822D01*
X0085567Y0054805D01*
X0085539Y0054682D01*
X0085444Y0054467D01*
X0085308Y0054275D01*
X0085138Y0054112D01*
X0084939Y0053986D01*
X0084719Y0053901D01*
X0084488Y0053860D01*
X0084252Y0053865D01*
X0084023Y0053916D01*
X0083807Y0054010D01*
X0083614Y0054144D01*
X0083450Y0054314D01*
X0083323Y0054511D01*
X0083236Y0054730D01*
X0083194Y0054962D01*
X0083197Y0055197D01*
X0083246Y0055427D01*
X0083339Y0055643D01*
X0083471Y0055838D01*
X0083640Y0056002D01*
X0083837Y0056131D01*
X0084055Y0056219D01*
X0084286Y0056263D01*
X0084521Y0056262D01*
X0084752Y0056214D01*
X0084969Y0056123D01*
X0085164Y0055992D01*
X0085330Y0055825D01*
X0085460Y0055629D01*
X0085550Y0055411D01*
X0085567Y0055322D01*
X0085573Y0055303D01*
X0085582Y0055286D01*
X0085595Y0055270D01*
X0085610Y0055258D01*
X0085627Y0055249D01*
X0085646Y0055243D01*
X0085665Y0055241D01*
X0085685Y0055243D01*
X0085704Y0055249D01*
X0085721Y0055258D01*
X0085736Y0055270D01*
X0085748Y0055286D01*
X0085758Y0055303D01*
X0085763Y0055320D01*
X0085786Y0055427D01*
X0085879Y0055643D01*
X0086011Y0055838D01*
X0086180Y0056002D01*
X0086377Y0056131D01*
X0086595Y0056219D01*
X0086826Y0056263D01*
X0087061Y0056262D01*
X0087292Y0056214D01*
X0087509Y0056123D01*
X0087704Y0055992D01*
X0087870Y0055825D01*
X0088000Y0055629D01*
X0088090Y0055411D01*
X0088107Y0055322D01*
X0088113Y0055303D01*
X0088122Y0055286D01*
X0088135Y0055270D01*
X0088150Y0055258D01*
X0088167Y0055249D01*
X0088186Y0055243D01*
X0088205Y0055241D01*
X0088225Y0055243D01*
X0088244Y0055249D01*
X0088261Y0055258D01*
X0088276Y0055270D01*
X0088288Y0055286D01*
X0088298Y0055303D01*
X0088303Y0055320D01*
X0088326Y0055427D01*
X0088419Y0055643D01*
X0088551Y0055838D01*
X0088720Y0056002D01*
X0088917Y0056131D01*
X0089135Y0056219D01*
X0089366Y0056263D01*
X0089601Y0056262D01*
X0089601Y0056262D01*
G37*
G36*
X0117798Y0055424D02*
X0115874Y0055424D01*
X0115874Y0057348D01*
X0117798Y0057348D01*
X0117798Y0055424D01*
X0117798Y0055424D01*
G37*
G36*
X0115258Y0055424D02*
X0113334Y0055424D01*
X0113334Y0057348D01*
X0115258Y0057348D01*
X0115258Y0055424D01*
X0115258Y0055424D01*
G37*
G36*
X0074618Y0055424D02*
X0072694Y0055424D01*
X0072694Y0057348D01*
X0074618Y0057348D01*
X0074618Y0055424D01*
X0074618Y0055424D01*
G37*
G36*
X0077158Y0055424D02*
X0075234Y0055424D01*
X0075234Y0057348D01*
X0077158Y0057348D01*
X0077158Y0055424D01*
X0077158Y0055424D01*
G37*
G36*
X0117798Y0057964D02*
X0115874Y0057964D01*
X0115874Y0059888D01*
X0117798Y0059888D01*
X0117798Y0057964D01*
X0117798Y0057964D01*
G37*
G36*
X0074618Y0057964D02*
X0072694Y0057964D01*
X0072694Y0059888D01*
X0074618Y0059888D01*
X0074618Y0057964D01*
X0074618Y0057964D01*
G37*
G36*
X0077158Y0057964D02*
X0075234Y0057964D01*
X0075234Y0059888D01*
X0077158Y0059888D01*
X0077158Y0057964D01*
X0077158Y0057964D01*
G37*
G36*
X0115258Y0057964D02*
X0113334Y0057964D01*
X0113334Y0059888D01*
X0115258Y0059888D01*
X0115258Y0057964D01*
X0115258Y0057964D01*
G37*
G36*
X0082238Y0060504D02*
X0080314Y0060504D01*
X0080314Y0062428D01*
X0082238Y0062428D01*
X0082238Y0060504D01*
X0082238Y0060504D01*
G37*
G36*
X0084778Y0060504D02*
X0082854Y0060504D01*
X0082854Y0062428D01*
X0084778Y0062428D01*
X0084778Y0060504D01*
X0084778Y0060504D01*
G37*
G36*
X0075262Y0068474D02*
X0075877Y0068348D01*
X0076455Y0068105D01*
X0076976Y0067754D01*
X0077418Y0067308D01*
X0077765Y0066786D01*
X0078004Y0066205D01*
X0078126Y0065590D01*
X0078126Y0065590D01*
X0078126Y0065590D01*
X0078116Y0064873D01*
X0078116Y0064872D01*
X0078116Y0064872D01*
X0077977Y0064261D01*
X0077722Y0063688D01*
X0077360Y0063175D01*
X0076906Y0062742D01*
X0076376Y0062406D01*
X0075791Y0062179D01*
X0075173Y0062070D01*
X0074545Y0062083D01*
X0073932Y0062218D01*
X0073357Y0062469D01*
X0072842Y0062827D01*
X0072406Y0063279D01*
X0072066Y0063806D01*
X0071835Y0064390D01*
X0071722Y0065007D01*
X0071731Y0065634D01*
X0071861Y0066248D01*
X0072108Y0066825D01*
X0072463Y0067343D01*
X0072911Y0067782D01*
X0073436Y0068126D01*
X0074018Y0068361D01*
X0074635Y0068478D01*
X0075262Y0068474D01*
X0075262Y0068474D01*
G37*
G36*
X0115902Y0068474D02*
X0116517Y0068348D01*
X0117095Y0068105D01*
X0117616Y0067754D01*
X0118058Y0067308D01*
X0118405Y0066786D01*
X0118644Y0066205D01*
X0118766Y0065590D01*
X0118766Y0065590D01*
X0118766Y0065590D01*
X0118756Y0064873D01*
X0118756Y0064872D01*
X0118756Y0064872D01*
X0118617Y0064261D01*
X0118362Y0063688D01*
X0118000Y0063175D01*
X0117546Y0062742D01*
X0117016Y0062406D01*
X0116431Y0062179D01*
X0115813Y0062070D01*
X0115185Y0062083D01*
X0114572Y0062218D01*
X0113997Y0062469D01*
X0113482Y0062827D01*
X0113046Y0063279D01*
X0112706Y0063806D01*
X0112475Y0064390D01*
X0112362Y0065007D01*
X0112371Y0065634D01*
X0112501Y0066248D01*
X0112748Y0066825D01*
X0113103Y0067343D01*
X0113551Y0067782D01*
X0114076Y0068126D01*
X0114658Y0068361D01*
X0115275Y0068478D01*
X0115902Y0068474D01*
X0115902Y0068474D01*
G37*
G36*
X0087318Y0063044D02*
X0085394Y0063044D01*
X0085394Y0064968D01*
X0087318Y0064968D01*
X0087318Y0063044D01*
X0087318Y0063044D01*
G37*
G36*
X0084778Y0063044D02*
X0082854Y0063044D01*
X0082854Y0064968D01*
X0084778Y0064968D01*
X0084778Y0063044D01*
X0084778Y0063044D01*
G37*
G36*
X0089858Y0063044D02*
X0087934Y0063044D01*
X0087934Y0064968D01*
X0089858Y0064968D01*
X0089858Y0063044D01*
X0089858Y0063044D01*
G37*
G36*
X0092398Y0063044D02*
X0090474Y0063044D01*
X0090474Y0064968D01*
X0092398Y0064968D01*
X0092398Y0063044D01*
X0092398Y0063044D01*
G37*
G36*
X0094938Y0063044D02*
X0093014Y0063044D01*
X0093014Y0064968D01*
X0094938Y0064968D01*
X0094938Y0063044D01*
X0094938Y0063044D01*
G37*
G36*
X0107638Y0063044D02*
X0105714Y0063044D01*
X0105714Y0064968D01*
X0107638Y0064968D01*
X0107638Y0063044D01*
X0107638Y0063044D01*
G37*
G36*
X0105098Y0063044D02*
X0103174Y0063044D01*
X0103174Y0064968D01*
X0105098Y0064968D01*
X0105098Y0063044D01*
X0105098Y0063044D01*
G37*
G36*
X0105098Y0065584D02*
X0103174Y0065584D01*
X0103174Y0067508D01*
X0105098Y0067508D01*
X0105098Y0065584D01*
X0105098Y0065584D01*
G37*
G36*
X0084778Y0065584D02*
X0082854Y0065584D01*
X0082854Y0067508D01*
X0084778Y0067508D01*
X0084778Y0065584D01*
X0084778Y0065584D01*
G37*
G36*
X0094938Y0065584D02*
X0093014Y0065584D01*
X0093014Y0067508D01*
X0094938Y0067508D01*
X0094938Y0065584D01*
X0094938Y0065584D01*
G37*
G36*
X0092398Y0065584D02*
X0090474Y0065584D01*
X0090474Y0067508D01*
X0092398Y0067508D01*
X0092398Y0065584D01*
X0092398Y0065584D01*
G37*
G36*
X0107638Y0065584D02*
X0105714Y0065584D01*
X0105714Y0067508D01*
X0107638Y0067508D01*
X0107638Y0065584D01*
X0107638Y0065584D01*
G37*
G36*
X0089858Y0065584D02*
X0087934Y0065584D01*
X0087934Y0067508D01*
X0089858Y0067508D01*
X0089858Y0065584D01*
X0089858Y0065584D01*
G37*
G36*
X0087318Y0065584D02*
X0085394Y0065584D01*
X0085394Y0067508D01*
X0087318Y0067508D01*
X0087318Y0065584D01*
X0087318Y0065584D01*
G37*
M02*
