G04 This is an RS-274x file exported by *
G04 gerbv version 2.6.1 *
G04 More information is available about gerbv at *
G04 http://gerbv.geda-project.org/ *
G04 --End of header info--*
%MOIN*%
%FSLAX34Y34*%
%IPPOS*%
G04 --Define apertures--*
%ADD10R,0.0512X0.0512*%
%ADD11C,0.0157*%
%ADD12C,0.0118*%
%ADD13R,0.1181X0.1181*%
%ADD14C,0.0079*%
%ADD15C,0.0236*%
%ADD16C,0.0100*%
%ADD17C,0.0197*%
%ADD18R,0.0325X0.0335*%
%ADD19R,0.0571X0.0177*%
%ADD20R,0.0600X0.0600*%
%ADD21R,0.0591X0.0413*%
%ADD22R,0.0550X0.0350*%
%ADD23R,0.2165X0.0906*%
%ADD24C,0.0512*%
%ADD25C,0.0315*%
%ADD26C,0.0571*%
%ADD27R,0.1500X0.1500*%
%ADD28C,0.0748*%
%ADD29C,0.0059*%
%ADD30C,0.0098*%
%ADD31R,0.0709X0.0984*%
%ADD32R,0.0350X0.0550*%
%ADD33C,0.0276*%
%ADD34C,0.2362*%
%ADD35R,0.0098X0.0276*%
%ADD36R,0.0669X0.0512*%
G04 --Start main section--*
G54D29*
G01X0009907Y0004809D02*
G01X0009787Y0004935D01*
G01X0009901Y0004824D02*
G01X0010008Y0004932D01*
G01X0010008Y0004812D02*
G01X0009784Y0004810D01*
G54D32*
G01X0006425Y0004050D03*
G01X0007175Y0004050D03*
G54D22*
G01X0009175Y0002125D03*
G01X0009175Y0001375D03*
G54D21*
G01X0010500Y0003150D03*
G01X0010500Y0004724D03*
G54D20*
G01X0003325Y0005700D03*
G01X0003325Y0006700D03*
G01X0004325Y0005700D03*
G01X0004325Y0006700D03*
G01X0005325Y0005700D03*
G01X0005325Y0006700D03*
G01X0007900Y0006700D03*
G01X0006900Y0006700D03*
G54D23*
G01X0004200Y0003433D03*
G01X0004200Y0001917D03*
G54D26*
G01X0001913Y0002953D03*
G01X0001913Y0004921D03*
G54D17*
G36*
G01X0002179Y0003858D02*
G01X0001647Y0003858D01*
G01X0001647Y0004016D01*
G01X0002179Y0004016D01*
G01X0002179Y0003858D01*
G01X0002179Y0003858D01*
G37*
G36*
G01X0002179Y0003602D02*
G01X0001647Y0003602D01*
G01X0001647Y0003760D01*
G01X0002179Y0003760D01*
G01X0002179Y0003602D01*
G01X0002179Y0003602D01*
G37*
G36*
G01X0002179Y0003346D02*
G01X0001647Y0003346D01*
G01X0001647Y0003504D01*
G01X0002179Y0003504D01*
G01X0002179Y0003346D01*
G01X0002179Y0003346D01*
G37*
G36*
G01X0002179Y0004114D02*
G01X0001647Y0004114D01*
G01X0001647Y0004272D01*
G01X0002179Y0004272D01*
G01X0002179Y0004114D01*
G01X0002179Y0004114D01*
G37*
G36*
G01X0002179Y0004370D02*
G01X0001647Y0004370D01*
G01X0001647Y0004528D01*
G01X0002179Y0004528D01*
G01X0002179Y0004370D01*
G01X0002179Y0004370D01*
G37*
G36*
G01X0001224Y0003248D02*
G01X0000476Y0003248D01*
G01X0000476Y0003839D01*
G01X0001224Y0003839D01*
G01X0001224Y0003248D01*
G01X0001224Y0003248D01*
G37*
G36*
G01X0001224Y0004035D02*
G01X0000476Y0004035D01*
G01X0000476Y0004626D01*
G01X0001224Y0004626D01*
G01X0001224Y0004035D01*
G01X0001224Y0004035D01*
G37*
G54D28*
G01X0000850Y0005315D03*
G01X0000850Y0002559D03*
G54D32*
G01X0006975Y0005300D03*
G01X0007725Y0005300D03*
G54D22*
G01X0008925Y0004550D03*
G01X0008925Y0005300D03*
G54D19*
G01X0007916Y0002834D03*
G01X0007916Y0002578D03*
G01X0007916Y0002322D03*
G01X0007916Y0002066D03*
G01X0006184Y0002066D03*
G01X0006184Y0002322D03*
G01X0006184Y0002578D03*
G01X0006184Y0002834D03*
G54D25*
G01X0009950Y0002450D03*
G01X0009825Y0004725D03*
G54D33*
G01X0006425Y0004050D02*
G01X0006425Y0003500D01*
G01X0006425Y0003500D02*
G01X0006184Y0003258D01*
G01X0006184Y0003258D02*
G01X0006184Y0002883D01*
G01X0006425Y0004050D02*
G01X0006425Y0004750D01*
G01X0006425Y0004750D02*
G01X0006975Y0005300D01*
G54D12*
G01X0006184Y0002322D02*
G01X0006184Y0002578D01*
G54D33*
G01X0007175Y0004050D02*
G01X0007175Y0003061D01*
G01X0006485Y0002371D02*
G01X0006184Y0002371D01*
G01X0007175Y0003061D02*
G01X0006485Y0002371D01*
G01X0010375Y0003150D02*
G01X0009950Y0002725D01*
G01X0009950Y0002725D02*
G01X0009950Y0002450D01*
G01X0010500Y0003150D02*
G01X0010375Y0003150D01*
G01X0009950Y0002450D02*
G01X0009500Y0002450D01*
G01X0009500Y0002450D02*
G01X0009175Y0002125D01*
G01X0008359Y0002066D02*
G01X0008418Y0002125D01*
G01X0008418Y0002125D02*
G01X0009175Y0002125D01*
G54D11*
G01X0007916Y0002066D02*
G01X0008359Y0002066D01*
G01X0008359Y0002066D02*
G01X0008368Y0002075D01*
G54D33*
G01X0010500Y0004724D02*
G01X0009826Y0004724D01*
G01X0009826Y0004724D02*
G01X0009825Y0004725D01*
G01X0008925Y0004550D02*
G01X0009650Y0004550D01*
G01X0009650Y0004550D02*
G01X0009825Y0004725D01*
G01X0008600Y0002819D02*
G01X0008925Y0003144D01*
G01X0008925Y0003144D02*
G01X0008925Y0004550D01*
G54D11*
G01X0007916Y0002578D02*
G01X0008359Y0002578D01*
G01X0008359Y0002578D02*
G01X0008600Y0002819D01*
G54D33*
G01X0007916Y0003309D02*
G01X0007725Y0003500D01*
G01X0007725Y0003500D02*
G01X0007725Y0005300D01*
G54D11*
G01X0007916Y0002834D02*
G01X0007916Y0003309D01*
G54D33*
G01X0007725Y0005300D02*
G01X0007725Y0006525D01*
G01X0007725Y0006525D02*
G01X0007900Y0006700D01*
G54D17*
G01X0004200Y0001917D02*
G01X0005480Y0001917D01*
G01X0005619Y0002056D02*
G01X0005757Y0002056D01*
G01X0005480Y0001917D02*
G01X0005619Y0002056D01*
G01X0005757Y0002056D02*
G01X0006184Y0002056D01*
G54D30*
G36*
G01X0004676Y0004650D02*
G01X0004680Y0004631D01*
G01X0004690Y0004615D01*
G01X0004939Y0004366D01*
G01X0004956Y0004355D01*
G01X0004974Y0004352D01*
G01X0005725Y0004351D01*
G01X0006626Y0004351D01*
G01X0006626Y0003170D01*
G01X0006515Y0003060D01*
G01X0006504Y0003044D01*
G01X0006501Y0003025D01*
G01X0006501Y0002831D01*
G01X0006469Y0002837D01*
G01X0005898Y0002837D01*
G01X0005837Y0002826D01*
G01X0005796Y0002799D01*
G01X0005495Y0002799D01*
G01X0005335Y0002960D01*
G01X0005319Y0002970D01*
G01X0005300Y0002974D01*
G01X0003070Y0002974D01*
G01X0002660Y0003385D01*
G01X0002644Y0003396D01*
G01X0002625Y0003399D01*
G01X0002019Y0003399D01*
G01X0002004Y0003406D01*
G01X0001823Y0003406D01*
G01X0001808Y0003399D01*
G01X0001699Y0003399D01*
G01X0001699Y0003432D01*
G01X0002179Y0003432D01*
G01X0002241Y0003443D01*
G01X0002252Y0003451D01*
G01X0002500Y0003451D01*
G01X0002519Y0003455D01*
G01X0002535Y0003465D01*
G01X0003960Y0004890D01*
G01X0003970Y0004906D01*
G01X0003974Y0004925D01*
G01X0003974Y0007051D01*
G01X0004676Y0007051D01*
G01X0004676Y0004650D01*
G01X0004676Y0004650D01*
G37*
G01X0004676Y0004650D02*
G01X0004680Y0004631D01*
G01X0004680Y0004631D02*
G01X0004690Y0004615D01*
G01X0004690Y0004615D02*
G01X0004939Y0004366D01*
G01X0004939Y0004366D02*
G01X0004956Y0004355D01*
G01X0004956Y0004355D02*
G01X0004974Y0004352D01*
G01X0004974Y0004352D02*
G01X0005725Y0004351D01*
G01X0005725Y0004351D02*
G01X0006626Y0004351D01*
G01X0006626Y0004351D02*
G01X0006626Y0003170D01*
G01X0006626Y0003170D02*
G01X0006515Y0003060D01*
G01X0006515Y0003060D02*
G01X0006504Y0003044D01*
G01X0006504Y0003044D02*
G01X0006501Y0003025D01*
G01X0006501Y0003025D02*
G01X0006501Y0002831D01*
G01X0006501Y0002831D02*
G01X0006469Y0002837D01*
G01X0006469Y0002837D02*
G01X0005898Y0002837D01*
G01X0005898Y0002837D02*
G01X0005837Y0002826D01*
G01X0005837Y0002826D02*
G01X0005796Y0002799D01*
G01X0005796Y0002799D02*
G01X0005495Y0002799D01*
G01X0005495Y0002799D02*
G01X0005335Y0002960D01*
G01X0005335Y0002960D02*
G01X0005319Y0002970D01*
G01X0005319Y0002970D02*
G01X0005300Y0002974D01*
G01X0005300Y0002974D02*
G01X0003070Y0002974D01*
G01X0003070Y0002974D02*
G01X0002660Y0003385D01*
G01X0002660Y0003385D02*
G01X0002644Y0003396D01*
G01X0002644Y0003396D02*
G01X0002625Y0003399D01*
G01X0002625Y0003399D02*
G01X0002019Y0003399D01*
G01X0002019Y0003399D02*
G01X0002004Y0003406D01*
G01X0002004Y0003406D02*
G01X0001823Y0003406D01*
G01X0001823Y0003406D02*
G01X0001808Y0003399D01*
G01X0001808Y0003399D02*
G01X0001699Y0003399D01*
G01X0001699Y0003399D02*
G01X0001699Y0003432D01*
G01X0001699Y0003432D02*
G01X0002179Y0003432D01*
G01X0002179Y0003432D02*
G01X0002241Y0003443D01*
G01X0002241Y0003443D02*
G01X0002252Y0003451D01*
G01X0002252Y0003451D02*
G01X0002500Y0003451D01*
G01X0002500Y0003451D02*
G01X0002519Y0003455D01*
G01X0002519Y0003455D02*
G01X0002535Y0003465D01*
G01X0002535Y0003465D02*
G01X0003960Y0004890D01*
G01X0003960Y0004890D02*
G01X0003970Y0004906D01*
G01X0003970Y0004906D02*
G01X0003974Y0004925D01*
G01X0003974Y0004925D02*
G01X0003974Y0007051D01*
G01X0003974Y0007051D02*
G01X0004676Y0007051D01*
G01X0004676Y0007051D02*
G01X0004676Y0004650D01*
G36*
G01X0005750Y0002156D02*
G01X0005776Y0002115D01*
G01X0005832Y0002076D01*
G01X0005898Y0002063D01*
G01X0006426Y0002063D01*
G01X0006426Y0001999D01*
G01X0006175Y0001999D01*
G01X0006156Y0001995D01*
G01X0006140Y0001985D01*
G01X0005630Y0001474D01*
G01X0003149Y0001474D01*
G01X0003149Y0002326D01*
G01X0005580Y0002326D01*
G01X0005750Y0002156D01*
G01X0005750Y0002156D01*
G37*
G01X0005750Y0002156D02*
G01X0005776Y0002115D01*
G01X0005776Y0002115D02*
G01X0005832Y0002076D01*
G01X0005832Y0002076D02*
G01X0005898Y0002063D01*
G01X0005898Y0002063D02*
G01X0006426Y0002063D01*
G01X0006426Y0002063D02*
G01X0006426Y0001999D01*
G01X0006426Y0001999D02*
G01X0006175Y0001999D01*
G01X0006175Y0001999D02*
G01X0006156Y0001995D01*
G01X0006156Y0001995D02*
G01X0006140Y0001985D01*
G01X0006140Y0001985D02*
G01X0005630Y0001474D01*
G01X0005630Y0001474D02*
G01X0003149Y0001474D01*
G01X0003149Y0001474D02*
G01X0003149Y0002326D01*
G01X0003149Y0002326D02*
G01X0005580Y0002326D01*
G01X0005580Y0002326D02*
G01X0005750Y0002156D01*
G36*
G01X0011604Y0000207D02*
G01X0000207Y0000207D01*
G01X0000207Y0002375D01*
G01X0002933Y0002375D01*
G01X0002933Y0001425D01*
G01X0002944Y0001364D01*
G01X0002980Y0001308D01*
G01X0003035Y0001271D01*
G01X0003100Y0001258D01*
G01X0005650Y0001258D01*
G01X0005713Y0001270D01*
G01X0005769Y0001307D01*
G01X0006244Y0001783D01*
G01X0006475Y0001783D01*
G01X0006536Y0001794D01*
G01X0006592Y0001830D01*
G01X0006629Y0001885D01*
G01X0006643Y0001950D01*
G01X0006643Y0002150D01*
G01X0006631Y0002211D01*
G01X0006629Y0002214D01*
G01X0006628Y0002217D01*
G01X0006592Y0002274D01*
G01X0006536Y0002312D01*
G01X0006469Y0002325D01*
G01X0005898Y0002325D01*
G01X0005888Y0002323D01*
G01X0005719Y0002493D01*
G01X0005665Y0002529D01*
G01X0005600Y0002543D01*
G01X0003100Y0002543D01*
G01X0003039Y0002531D01*
G01X0002983Y0002495D01*
G01X0002946Y0002440D01*
G01X0002933Y0002375D01*
G01X0000207Y0002375D01*
G01X0000207Y0004016D01*
G01X0001477Y0004016D01*
G01X0001477Y0003858D01*
G01X0001486Y0003807D01*
G01X0001477Y0003760D01*
G01X0001477Y0003602D01*
G01X0001486Y0003551D01*
G01X0001477Y0003504D01*
G01X0001477Y0003346D01*
G01X0001488Y0003285D01*
G01X0001525Y0003228D01*
G01X0001581Y0003189D01*
G01X0001647Y0003176D01*
G01X0002179Y0003176D01*
G01X0002215Y0003183D01*
G01X0002556Y0003183D01*
G01X0002931Y0002807D01*
G01X0002985Y0002771D01*
G01X0003050Y0002758D01*
G01X0005231Y0002758D01*
G01X0005357Y0002631D01*
G01X0005410Y0002596D01*
G01X0005475Y0002583D01*
G01X0005859Y0002583D01*
G01X0005898Y0002575D01*
G01X0006469Y0002575D01*
G01X0006512Y0002583D01*
G01X0006550Y0002583D01*
G01X0006611Y0002594D01*
G01X0006667Y0002630D01*
G01X0006704Y0002685D01*
G01X0006717Y0002750D01*
G01X0006717Y0002956D01*
G01X0006793Y0003031D01*
G01X0006829Y0003085D01*
G01X0006843Y0003150D01*
G01X0006843Y0004400D01*
G01X0006831Y0004461D01*
G01X0006795Y0004517D01*
G01X0006740Y0004554D01*
G01X0006730Y0004556D01*
G01X0006730Y0004624D01*
G01X0006961Y0004854D01*
G01X0007150Y0004854D01*
G01X0007212Y0004866D01*
G01X0007269Y0004903D01*
G01X0007307Y0004959D01*
G01X0007320Y0005025D01*
G01X0007320Y0005575D01*
G01X0007380Y0005575D01*
G01X0007380Y0005025D01*
G01X0007391Y0004963D01*
G01X0007420Y0004918D01*
G01X0007420Y0003500D01*
G01X0007443Y0003383D01*
G01X0007509Y0003284D01*
G01X0007670Y0003123D01*
G01X0007670Y0003093D01*
G01X0007631Y0003093D01*
G01X0007569Y0003081D01*
G01X0007512Y0003045D01*
G01X0007474Y0002989D01*
G01X0007460Y0002922D01*
G01X0007460Y0002745D01*
G01X0007468Y0002704D01*
G01X0007460Y0002667D01*
G01X0007460Y0002489D01*
G01X0007468Y0002448D01*
G01X0007460Y0002411D01*
G01X0007460Y0002233D01*
G01X0007468Y0002193D01*
G01X0007460Y0002155D01*
G01X0007460Y0001978D01*
G01X0007472Y0001916D01*
G01X0007508Y0001859D01*
G01X0007564Y0001820D01*
G01X0007631Y0001807D01*
G01X0008202Y0001807D01*
G01X0008207Y0001808D01*
G01X0008242Y0001784D01*
G01X0008359Y0001761D01*
G01X0008476Y0001784D01*
G01X0008529Y0001820D01*
G01X0008794Y0001820D01*
G01X0008833Y0001793D01*
G01X0008900Y0001780D01*
G01X0009450Y0001780D01*
G01X0009512Y0001791D01*
G01X0009569Y0001828D01*
G01X0009607Y0001883D01*
G01X0009620Y0001950D01*
G01X0009620Y0002139D01*
G01X0009626Y0002145D01*
G01X0009838Y0002145D01*
G01X0009885Y0002125D01*
G01X0010014Y0002125D01*
G01X0010134Y0002174D01*
G01X0010225Y0002266D01*
G01X0010275Y0002385D01*
G01X0010275Y0002514D01*
G01X0010255Y0002562D01*
G01X0010255Y0002598D01*
G01X0010429Y0002772D01*
G01X0010795Y0002772D01*
G01X0010857Y0002784D01*
G01X0010914Y0002820D01*
G01X0010952Y0002876D01*
G01X0010966Y0002943D01*
G01X0010966Y0003356D01*
G01X0010957Y0003406D01*
G01X0011092Y0003541D01*
G01X0011199Y0003797D01*
G01X0011199Y0004076D01*
G01X0011093Y0004332D01*
G01X0010956Y0004469D01*
G01X0010966Y0004518D01*
G01X0010966Y0004931D01*
G01X0010954Y0004993D01*
G01X0010918Y0005050D01*
G01X0010862Y0005088D01*
G01X0010795Y0005102D01*
G01X0010205Y0005102D01*
G01X0010143Y0005090D01*
G01X0010131Y0005082D01*
G01X0010083Y0005114D01*
G01X0010007Y0005129D01*
G01X0009932Y0005113D01*
G01X0009900Y0005092D01*
G01X0009867Y0005115D01*
G01X0009792Y0005132D01*
G01X0009716Y0005119D01*
G01X0009651Y0005078D01*
G01X0009607Y0005015D01*
G01X0009593Y0004952D01*
G01X0009550Y0004909D01*
G01X0009530Y0004861D01*
G01X0009524Y0004855D01*
G01X0009306Y0004855D01*
G01X0009267Y0004882D01*
G01X0009200Y0004896D01*
G01X0008650Y0004896D01*
G01X0008588Y0004884D01*
G01X0008531Y0004847D01*
G01X0008493Y0004791D01*
G01X0008480Y0004725D01*
G01X0008480Y0004375D01*
G01X0008491Y0004313D01*
G01X0008528Y0004256D01*
G01X0008583Y0004218D01*
G01X0008620Y0004211D01*
G01X0008620Y0003270D01*
G01X0008384Y0003035D01*
G01X0008356Y0002992D01*
G01X0008324Y0003041D01*
G01X0008268Y0003080D01*
G01X0008202Y0003093D01*
G01X0008162Y0003093D01*
G01X0008162Y0003139D01*
G01X0008198Y0003192D01*
G01X0008221Y0003309D01*
G01X0008198Y0003426D01*
G01X0008132Y0003525D01*
G01X0008030Y0003626D01*
G01X0008030Y0004919D01*
G01X0008057Y0004959D01*
G01X0008070Y0005025D01*
G01X0008070Y0005575D01*
G01X0008059Y0005637D01*
G01X0008030Y0005682D01*
G01X0008030Y0006230D01*
G01X0008200Y0006230D01*
G01X0008262Y0006241D01*
G01X0008319Y0006278D01*
G01X0008357Y0006333D01*
G01X0008370Y0006400D01*
G01X0008370Y0007000D01*
G01X0008359Y0007062D01*
G01X0008322Y0007119D01*
G01X0008267Y0007157D01*
G01X0008200Y0007170D01*
G01X0007600Y0007170D01*
G01X0007538Y0007159D01*
G01X0007481Y0007122D01*
G01X0007443Y0007067D01*
G01X0007430Y0007000D01*
G01X0007430Y0006573D01*
G01X0007420Y0006525D01*
G01X0007420Y0005681D01*
G01X0007393Y0005641D01*
G01X0007380Y0005575D01*
G01X0007320Y0005575D01*
G01X0007309Y0005637D01*
G01X0007272Y0005694D01*
G01X0007217Y0005732D01*
G01X0007150Y0005746D01*
G01X0006800Y0005746D01*
G01X0006738Y0005734D01*
G01X0006681Y0005697D01*
G01X0006643Y0005641D01*
G01X0006630Y0005575D01*
G01X0006630Y0005386D01*
G01X0006209Y0004966D01*
G01X0006143Y0004867D01*
G01X0006120Y0004750D01*
G01X0006120Y0004567D01*
G01X0005725Y0004567D01*
G01X0005044Y0004568D01*
G01X0004893Y0004719D01*
G01X0004893Y0007100D01*
G01X0004881Y0007161D01*
G01X0004845Y0007217D01*
G01X0004790Y0007254D01*
G01X0004725Y0007267D01*
G01X0003925Y0007267D01*
G01X0003864Y0007256D01*
G01X0003808Y0007220D01*
G01X0003771Y0007165D01*
G01X0003758Y0007100D01*
G01X0003758Y0004994D01*
G01X0002431Y0003667D01*
G01X0002349Y0003667D01*
G01X0002349Y0003760D01*
G01X0002340Y0003811D01*
G01X0002349Y0003858D01*
G01X0002349Y0004016D01*
G01X0002338Y0004078D01*
G01X0002301Y0004135D01*
G01X0002245Y0004173D01*
G01X0002179Y0004186D01*
G01X0001647Y0004186D01*
G01X0001585Y0004175D01*
G01X0001528Y0004138D01*
G01X0001490Y0004082D01*
G01X0001477Y0004016D01*
G01X0000207Y0004016D01*
G01X0000207Y0007667D01*
G01X0011604Y0007667D01*
G01X0011604Y0000207D01*
G01X0011604Y0000207D01*
G37*
G01X0011604Y0000207D02*
G01X0000207Y0000207D01*
G01X0000207Y0000207D02*
G01X0000207Y0002375D01*
G01X0000207Y0002375D02*
G01X0002933Y0002375D01*
G01X0002933Y0002375D02*
G01X0002933Y0001425D01*
G01X0002933Y0001425D02*
G01X0002944Y0001364D01*
G01X0002944Y0001364D02*
G01X0002980Y0001308D01*
G01X0002980Y0001308D02*
G01X0003035Y0001271D01*
G01X0003035Y0001271D02*
G01X0003100Y0001258D01*
G01X0003100Y0001258D02*
G01X0005650Y0001258D01*
G01X0005650Y0001258D02*
G01X0005713Y0001270D01*
G01X0005713Y0001270D02*
G01X0005769Y0001307D01*
G01X0005769Y0001307D02*
G01X0006244Y0001783D01*
G01X0006244Y0001783D02*
G01X0006475Y0001783D01*
G01X0006475Y0001783D02*
G01X0006536Y0001794D01*
G01X0006536Y0001794D02*
G01X0006592Y0001830D01*
G01X0006592Y0001830D02*
G01X0006629Y0001885D01*
G01X0006629Y0001885D02*
G01X0006643Y0001950D01*
G01X0006643Y0001950D02*
G01X0006643Y0002150D01*
G01X0006643Y0002150D02*
G01X0006631Y0002211D01*
G01X0006631Y0002211D02*
G01X0006629Y0002214D01*
G01X0006629Y0002214D02*
G01X0006628Y0002217D01*
G01X0006628Y0002217D02*
G01X0006592Y0002274D01*
G01X0006592Y0002274D02*
G01X0006536Y0002312D01*
G01X0006536Y0002312D02*
G01X0006469Y0002325D01*
G01X0006469Y0002325D02*
G01X0005898Y0002325D01*
G01X0005898Y0002325D02*
G01X0005888Y0002323D01*
G01X0005888Y0002323D02*
G01X0005719Y0002493D01*
G01X0005719Y0002493D02*
G01X0005665Y0002529D01*
G01X0005665Y0002529D02*
G01X0005600Y0002543D01*
G01X0005600Y0002543D02*
G01X0003100Y0002543D01*
G01X0003100Y0002543D02*
G01X0003039Y0002531D01*
G01X0003039Y0002531D02*
G01X0002983Y0002495D01*
G01X0002983Y0002495D02*
G01X0002946Y0002440D01*
G01X0002946Y0002440D02*
G01X0002933Y0002375D01*
G01X0002933Y0002375D02*
G01X0000207Y0002375D01*
G01X0000207Y0002375D02*
G01X0000207Y0004016D01*
G01X0000207Y0004016D02*
G01X0001477Y0004016D01*
G01X0001477Y0004016D02*
G01X0001477Y0003858D01*
G01X0001477Y0003858D02*
G01X0001486Y0003807D01*
G01X0001486Y0003807D02*
G01X0001477Y0003760D01*
G01X0001477Y0003760D02*
G01X0001477Y0003602D01*
G01X0001477Y0003602D02*
G01X0001486Y0003551D01*
G01X0001486Y0003551D02*
G01X0001477Y0003504D01*
G01X0001477Y0003504D02*
G01X0001477Y0003346D01*
G01X0001477Y0003346D02*
G01X0001488Y0003285D01*
G01X0001488Y0003285D02*
G01X0001525Y0003228D01*
G01X0001525Y0003228D02*
G01X0001581Y0003189D01*
G01X0001581Y0003189D02*
G01X0001647Y0003176D01*
G01X0001647Y0003176D02*
G01X0002179Y0003176D01*
G01X0002179Y0003176D02*
G01X0002215Y0003183D01*
G01X0002215Y0003183D02*
G01X0002556Y0003183D01*
G01X0002556Y0003183D02*
G01X0002931Y0002807D01*
G01X0002931Y0002807D02*
G01X0002985Y0002771D01*
G01X0002985Y0002771D02*
G01X0003050Y0002758D01*
G01X0003050Y0002758D02*
G01X0005231Y0002758D01*
G01X0005231Y0002758D02*
G01X0005357Y0002631D01*
G01X0005357Y0002631D02*
G01X0005410Y0002596D01*
G01X0005410Y0002596D02*
G01X0005475Y0002583D01*
G01X0005475Y0002583D02*
G01X0005859Y0002583D01*
G01X0005859Y0002583D02*
G01X0005898Y0002575D01*
G01X0005898Y0002575D02*
G01X0006469Y0002575D01*
G01X0006469Y0002575D02*
G01X0006512Y0002583D01*
G01X0006512Y0002583D02*
G01X0006550Y0002583D01*
G01X0006550Y0002583D02*
G01X0006611Y0002594D01*
G01X0006611Y0002594D02*
G01X0006667Y0002630D01*
G01X0006667Y0002630D02*
G01X0006704Y0002685D01*
G01X0006704Y0002685D02*
G01X0006717Y0002750D01*
G01X0006717Y0002750D02*
G01X0006717Y0002956D01*
G01X0006717Y0002956D02*
G01X0006793Y0003031D01*
G01X0006793Y0003031D02*
G01X0006829Y0003085D01*
G01X0006829Y0003085D02*
G01X0006843Y0003150D01*
G01X0006843Y0003150D02*
G01X0006843Y0004400D01*
G01X0006843Y0004400D02*
G01X0006831Y0004461D01*
G01X0006831Y0004461D02*
G01X0006795Y0004517D01*
G01X0006795Y0004517D02*
G01X0006740Y0004554D01*
G01X0006740Y0004554D02*
G01X0006730Y0004556D01*
G01X0006730Y0004556D02*
G01X0006730Y0004624D01*
G01X0006730Y0004624D02*
G01X0006961Y0004854D01*
G01X0006961Y0004854D02*
G01X0007150Y0004854D01*
G01X0007150Y0004854D02*
G01X0007212Y0004866D01*
G01X0007212Y0004866D02*
G01X0007269Y0004903D01*
G01X0007269Y0004903D02*
G01X0007307Y0004959D01*
G01X0007307Y0004959D02*
G01X0007320Y0005025D01*
G01X0007320Y0005025D02*
G01X0007320Y0005575D01*
G01X0007320Y0005575D02*
G01X0007380Y0005575D01*
G01X0007380Y0005575D02*
G01X0007380Y0005025D01*
G01X0007380Y0005025D02*
G01X0007391Y0004963D01*
G01X0007391Y0004963D02*
G01X0007420Y0004918D01*
G01X0007420Y0004918D02*
G01X0007420Y0003500D01*
G01X0007420Y0003500D02*
G01X0007443Y0003383D01*
G01X0007443Y0003383D02*
G01X0007509Y0003284D01*
G01X0007509Y0003284D02*
G01X0007670Y0003123D01*
G01X0007670Y0003123D02*
G01X0007670Y0003093D01*
G01X0007670Y0003093D02*
G01X0007631Y0003093D01*
G01X0007631Y0003093D02*
G01X0007569Y0003081D01*
G01X0007569Y0003081D02*
G01X0007512Y0003045D01*
G01X0007512Y0003045D02*
G01X0007474Y0002989D01*
G01X0007474Y0002989D02*
G01X0007460Y0002922D01*
G01X0007460Y0002922D02*
G01X0007460Y0002745D01*
G01X0007460Y0002745D02*
G01X0007468Y0002704D01*
G01X0007468Y0002704D02*
G01X0007460Y0002667D01*
G01X0007460Y0002667D02*
G01X0007460Y0002489D01*
G01X0007460Y0002489D02*
G01X0007468Y0002448D01*
G01X0007468Y0002448D02*
G01X0007460Y0002411D01*
G01X0007460Y0002411D02*
G01X0007460Y0002233D01*
G01X0007460Y0002233D02*
G01X0007468Y0002193D01*
G01X0007468Y0002193D02*
G01X0007460Y0002155D01*
G01X0007460Y0002155D02*
G01X0007460Y0001978D01*
G01X0007460Y0001978D02*
G01X0007472Y0001916D01*
G01X0007472Y0001916D02*
G01X0007508Y0001859D01*
G01X0007508Y0001859D02*
G01X0007564Y0001820D01*
G01X0007564Y0001820D02*
G01X0007631Y0001807D01*
G01X0007631Y0001807D02*
G01X0008202Y0001807D01*
G01X0008202Y0001807D02*
G01X0008207Y0001808D01*
G01X0008207Y0001808D02*
G01X0008242Y0001784D01*
G01X0008242Y0001784D02*
G01X0008359Y0001761D01*
G01X0008359Y0001761D02*
G01X0008476Y0001784D01*
G01X0008476Y0001784D02*
G01X0008529Y0001820D01*
G01X0008529Y0001820D02*
G01X0008794Y0001820D01*
G01X0008794Y0001820D02*
G01X0008833Y0001793D01*
G01X0008833Y0001793D02*
G01X0008900Y0001780D01*
G01X0008900Y0001780D02*
G01X0009450Y0001780D01*
G01X0009450Y0001780D02*
G01X0009512Y0001791D01*
G01X0009512Y0001791D02*
G01X0009569Y0001828D01*
G01X0009569Y0001828D02*
G01X0009607Y0001883D01*
G01X0009607Y0001883D02*
G01X0009620Y0001950D01*
G01X0009620Y0001950D02*
G01X0009620Y0002139D01*
G01X0009620Y0002139D02*
G01X0009626Y0002145D01*
G01X0009626Y0002145D02*
G01X0009838Y0002145D01*
G01X0009838Y0002145D02*
G01X0009885Y0002125D01*
G01X0009885Y0002125D02*
G01X0010014Y0002125D01*
G01X0010014Y0002125D02*
G01X0010134Y0002174D01*
G01X0010134Y0002174D02*
G01X0010225Y0002266D01*
G01X0010225Y0002266D02*
G01X0010275Y0002385D01*
G01X0010275Y0002385D02*
G01X0010275Y0002514D01*
G01X0010275Y0002514D02*
G01X0010255Y0002562D01*
G01X0010255Y0002562D02*
G01X0010255Y0002598D01*
G01X0010255Y0002598D02*
G01X0010429Y0002772D01*
G01X0010429Y0002772D02*
G01X0010795Y0002772D01*
G01X0010795Y0002772D02*
G01X0010857Y0002784D01*
G01X0010857Y0002784D02*
G01X0010914Y0002820D01*
G01X0010914Y0002820D02*
G01X0010952Y0002876D01*
G01X0010952Y0002876D02*
G01X0010966Y0002943D01*
G01X0010966Y0002943D02*
G01X0010966Y0003356D01*
G01X0010966Y0003356D02*
G01X0010957Y0003406D01*
G01X0010957Y0003406D02*
G01X0011092Y0003541D01*
G01X0011092Y0003541D02*
G01X0011199Y0003797D01*
G01X0011199Y0003797D02*
G01X0011199Y0004076D01*
G01X0011199Y0004076D02*
G01X0011093Y0004332D01*
G01X0011093Y0004332D02*
G01X0010956Y0004469D01*
G01X0010956Y0004469D02*
G01X0010966Y0004518D01*
G01X0010966Y0004518D02*
G01X0010966Y0004931D01*
G01X0010966Y0004931D02*
G01X0010954Y0004993D01*
G01X0010954Y0004993D02*
G01X0010918Y0005050D01*
G01X0010918Y0005050D02*
G01X0010862Y0005088D01*
G01X0010862Y0005088D02*
G01X0010795Y0005102D01*
G01X0010795Y0005102D02*
G01X0010205Y0005102D01*
G01X0010205Y0005102D02*
G01X0010143Y0005090D01*
G01X0010143Y0005090D02*
G01X0010131Y0005082D01*
G01X0010131Y0005082D02*
G01X0010083Y0005114D01*
G01X0010083Y0005114D02*
G01X0010007Y0005129D01*
G01X0010007Y0005129D02*
G01X0009932Y0005113D01*
G01X0009932Y0005113D02*
G01X0009900Y0005092D01*
G01X0009900Y0005092D02*
G01X0009867Y0005115D01*
G01X0009867Y0005115D02*
G01X0009792Y0005132D01*
G01X0009792Y0005132D02*
G01X0009716Y0005119D01*
G01X0009716Y0005119D02*
G01X0009651Y0005078D01*
G01X0009651Y0005078D02*
G01X0009607Y0005015D01*
G01X0009607Y0005015D02*
G01X0009593Y0004952D01*
G01X0009593Y0004952D02*
G01X0009550Y0004909D01*
G01X0009550Y0004909D02*
G01X0009530Y0004861D01*
G01X0009530Y0004861D02*
G01X0009524Y0004855D01*
G01X0009524Y0004855D02*
G01X0009306Y0004855D01*
G01X0009306Y0004855D02*
G01X0009267Y0004882D01*
G01X0009267Y0004882D02*
G01X0009200Y0004896D01*
G01X0009200Y0004896D02*
G01X0008650Y0004896D01*
G01X0008650Y0004896D02*
G01X0008588Y0004884D01*
G01X0008588Y0004884D02*
G01X0008531Y0004847D01*
G01X0008531Y0004847D02*
G01X0008493Y0004791D01*
G01X0008493Y0004791D02*
G01X0008480Y0004725D01*
G01X0008480Y0004725D02*
G01X0008480Y0004375D01*
G01X0008480Y0004375D02*
G01X0008491Y0004313D01*
G01X0008491Y0004313D02*
G01X0008528Y0004256D01*
G01X0008528Y0004256D02*
G01X0008583Y0004218D01*
G01X0008583Y0004218D02*
G01X0008620Y0004211D01*
G01X0008620Y0004211D02*
G01X0008620Y0003270D01*
G01X0008620Y0003270D02*
G01X0008384Y0003035D01*
G01X0008384Y0003035D02*
G01X0008356Y0002992D01*
G01X0008356Y0002992D02*
G01X0008324Y0003041D01*
G01X0008324Y0003041D02*
G01X0008268Y0003080D01*
G01X0008268Y0003080D02*
G01X0008202Y0003093D01*
G01X0008202Y0003093D02*
G01X0008162Y0003093D01*
G01X0008162Y0003093D02*
G01X0008162Y0003139D01*
G01X0008162Y0003139D02*
G01X0008198Y0003192D01*
G01X0008198Y0003192D02*
G01X0008221Y0003309D01*
G01X0008221Y0003309D02*
G01X0008198Y0003426D01*
G01X0008198Y0003426D02*
G01X0008132Y0003525D01*
G01X0008132Y0003525D02*
G01X0008030Y0003626D01*
G01X0008030Y0003626D02*
G01X0008030Y0004919D01*
G01X0008030Y0004919D02*
G01X0008057Y0004959D01*
G01X0008057Y0004959D02*
G01X0008070Y0005025D01*
G01X0008070Y0005025D02*
G01X0008070Y0005575D01*
G01X0008070Y0005575D02*
G01X0008059Y0005637D01*
G01X0008059Y0005637D02*
G01X0008030Y0005682D01*
G01X0008030Y0005682D02*
G01X0008030Y0006230D01*
G01X0008030Y0006230D02*
G01X0008200Y0006230D01*
G01X0008200Y0006230D02*
G01X0008262Y0006241D01*
G01X0008262Y0006241D02*
G01X0008319Y0006278D01*
G01X0008319Y0006278D02*
G01X0008357Y0006333D01*
G01X0008357Y0006333D02*
G01X0008370Y0006400D01*
G01X0008370Y0006400D02*
G01X0008370Y0007000D01*
G01X0008370Y0007000D02*
G01X0008359Y0007062D01*
G01X0008359Y0007062D02*
G01X0008322Y0007119D01*
G01X0008322Y0007119D02*
G01X0008267Y0007157D01*
G01X0008267Y0007157D02*
G01X0008200Y0007170D01*
G01X0008200Y0007170D02*
G01X0007600Y0007170D01*
G01X0007600Y0007170D02*
G01X0007538Y0007159D01*
G01X0007538Y0007159D02*
G01X0007481Y0007122D01*
G01X0007481Y0007122D02*
G01X0007443Y0007067D01*
G01X0007443Y0007067D02*
G01X0007430Y0007000D01*
G01X0007430Y0007000D02*
G01X0007430Y0006573D01*
G01X0007430Y0006573D02*
G01X0007420Y0006525D01*
G01X0007420Y0006525D02*
G01X0007420Y0005681D01*
G01X0007420Y0005681D02*
G01X0007393Y0005641D01*
G01X0007393Y0005641D02*
G01X0007380Y0005575D01*
G01X0007380Y0005575D02*
G01X0007320Y0005575D01*
G01X0007320Y0005575D02*
G01X0007309Y0005637D01*
G01X0007309Y0005637D02*
G01X0007272Y0005694D01*
G01X0007272Y0005694D02*
G01X0007217Y0005732D01*
G01X0007217Y0005732D02*
G01X0007150Y0005746D01*
G01X0007150Y0005746D02*
G01X0006800Y0005746D01*
G01X0006800Y0005746D02*
G01X0006738Y0005734D01*
G01X0006738Y0005734D02*
G01X0006681Y0005697D01*
G01X0006681Y0005697D02*
G01X0006643Y0005641D01*
G01X0006643Y0005641D02*
G01X0006630Y0005575D01*
G01X0006630Y0005575D02*
G01X0006630Y0005386D01*
G01X0006630Y0005386D02*
G01X0006209Y0004966D01*
G01X0006209Y0004966D02*
G01X0006143Y0004867D01*
G01X0006143Y0004867D02*
G01X0006120Y0004750D01*
G01X0006120Y0004750D02*
G01X0006120Y0004567D01*
G01X0006120Y0004567D02*
G01X0005725Y0004567D01*
G01X0005725Y0004567D02*
G01X0005044Y0004568D01*
G01X0005044Y0004568D02*
G01X0004893Y0004719D01*
G01X0004893Y0004719D02*
G01X0004893Y0007100D01*
G01X0004893Y0007100D02*
G01X0004881Y0007161D01*
G01X0004881Y0007161D02*
G01X0004845Y0007217D01*
G01X0004845Y0007217D02*
G01X0004790Y0007254D01*
G01X0004790Y0007254D02*
G01X0004725Y0007267D01*
G01X0004725Y0007267D02*
G01X0003925Y0007267D01*
G01X0003925Y0007267D02*
G01X0003864Y0007256D01*
G01X0003864Y0007256D02*
G01X0003808Y0007220D01*
G01X0003808Y0007220D02*
G01X0003771Y0007165D01*
G01X0003771Y0007165D02*
G01X0003758Y0007100D01*
G01X0003758Y0007100D02*
G01X0003758Y0004994D01*
G01X0003758Y0004994D02*
G01X0002431Y0003667D01*
G01X0002431Y0003667D02*
G01X0002349Y0003667D01*
G01X0002349Y0003667D02*
G01X0002349Y0003760D01*
G01X0002349Y0003760D02*
G01X0002340Y0003811D01*
G01X0002340Y0003811D02*
G01X0002349Y0003858D01*
G01X0002349Y0003858D02*
G01X0002349Y0004016D01*
G01X0002349Y0004016D02*
G01X0002338Y0004078D01*
G01X0002338Y0004078D02*
G01X0002301Y0004135D01*
G01X0002301Y0004135D02*
G01X0002245Y0004173D01*
G01X0002245Y0004173D02*
G01X0002179Y0004186D01*
G01X0002179Y0004186D02*
G01X0001647Y0004186D01*
G01X0001647Y0004186D02*
G01X0001585Y0004175D01*
G01X0001585Y0004175D02*
G01X0001528Y0004138D01*
G01X0001528Y0004138D02*
G01X0001490Y0004082D01*
G01X0001490Y0004082D02*
G01X0001477Y0004016D01*
G01X0001477Y0004016D02*
G01X0000207Y0004016D01*
G01X0000207Y0004016D02*
G01X0000207Y0007667D01*
G01X0000207Y0007667D02*
G01X0011604Y0007667D01*
G01X0011604Y0007667D02*
G01X0011604Y0000207D01*
G54D22*
G01X0006325Y0010799D03*
G01X0006325Y0011549D03*
G01X0009450Y0014499D03*
G01X0009450Y0015249D03*
G54D36*
G01X0006300Y0008635D03*
G01X0006300Y0010013D03*
G54D20*
G01X0005225Y0008899D03*
G01X0004225Y0008899D03*
G01X0005225Y0009899D03*
G01X0004225Y0009899D03*
G01X0005225Y0010899D03*
G01X0004225Y0010899D03*
G01X0007425Y0012574D03*
G01X0007425Y0013574D03*
G01X0008425Y0012574D03*
G01X0008425Y0013574D03*
G01X0009425Y0012574D03*
G01X0009425Y0013574D03*
G01X0010425Y0012574D03*
G01X0010425Y0013574D03*
G01X0011425Y0012574D03*
G01X0011425Y0013574D03*
G01X0007425Y0010574D03*
G01X0007425Y0011574D03*
G01X0008425Y0010574D03*
G01X0008425Y0011574D03*
G01X0009425Y0010574D03*
G01X0009425Y0011574D03*
G01X0010425Y0010574D03*
G01X0010425Y0011574D03*
G01X0011425Y0010574D03*
G01X0011425Y0011574D03*
G01X0007425Y0008574D03*
G01X0007425Y0009574D03*
G01X0008425Y0008574D03*
G01X0008425Y0009574D03*
G01X0009425Y0008574D03*
G01X0009425Y0009574D03*
G01X0010425Y0008574D03*
G01X0010425Y0009574D03*
G01X0011425Y0008574D03*
G01X0011425Y0009574D03*
G01X0004825Y0014849D03*
G01X0004825Y0013849D03*
G01X0005825Y0014849D03*
G01X0005825Y0013849D03*
G54D22*
G01X0004800Y0012149D03*
G01X0004800Y0012899D03*
G01X0005725Y0012149D03*
G01X0005725Y0012899D03*
G54D34*
G01X0001900Y0009774D03*
G01X0001900Y0013774D03*
G01X0013900Y0013774D03*
G01X0013900Y0009774D03*
G54D25*
G01X0008900Y0014449D03*
G01X0006575Y0012299D03*
G01X0006575Y0012299D03*
G01X0007875Y0014874D03*
G54D15*
G01X0008900Y0014449D02*
G01X0009400Y0014449D01*
G01X0009400Y0014449D02*
G01X0009450Y0014499D01*
G01X0009375Y0014424D02*
G01X0009450Y0014499D01*
G01X0005725Y0012149D02*
G01X0006425Y0012149D01*
G01X0006425Y0012149D02*
G01X0006575Y0012299D01*
G01X0009425Y0013574D02*
G01X0009425Y0014474D01*
G01X0009425Y0014474D02*
G01X0009450Y0014499D01*
G01X0009425Y0010574D02*
G01X0009425Y0013574D01*
G54D17*
G01X0009425Y0010574D02*
G01X0009425Y0010924D01*
G01X0009425Y0010924D02*
G01X0009425Y0011574D01*
G54D15*
G01X0009425Y0009574D02*
G01X0009425Y0010924D01*
G01X0009425Y0008574D02*
G01X0009425Y0009574D01*
G01X0004625Y0012124D02*
G01X0005575Y0012124D01*
G01X0004600Y0012099D02*
G01X0004625Y0012124D01*
G01X0006300Y0010013D02*
G01X0006300Y0010774D01*
G01X0006300Y0010774D02*
G01X0006325Y0010799D01*
G01X0005225Y0009899D02*
G01X0006186Y0009899D01*
G01X0006186Y0009899D02*
G01X0006300Y0010013D01*
G01X0004225Y0009899D02*
G01X0005225Y0009899D01*
G54D17*
G01X0009425Y0012574D02*
G01X0009425Y0013574D01*
G01X0009425Y0011574D02*
G01X0009425Y0012574D01*
G01X0009425Y0009574D02*
G01X0009425Y0010574D01*
G54D15*
G01X0008425Y0013574D02*
G01X0008425Y0014324D01*
G01X0008425Y0014324D02*
G01X0007875Y0014874D01*
G01X0008425Y0011574D02*
G01X0008425Y0012574D01*
G01X0008425Y0010574D02*
G01X0008425Y0011574D01*
G01X0008425Y0009574D02*
G01X0008425Y0010574D01*
G01X0008425Y0008574D02*
G01X0008425Y0009574D01*
G54D17*
G01X0008425Y0009224D02*
G01X0008425Y0009574D01*
G54D15*
G01X0008425Y0008574D02*
G01X0008425Y0009224D01*
G01X0008425Y0013574D02*
G01X0008425Y0012574D01*
G01X0010425Y0008574D02*
G01X0010425Y0013574D01*
G54D17*
G01X0010425Y0012574D02*
G01X0010425Y0013574D01*
G01X0010425Y0011574D02*
G01X0010425Y0012574D01*
G01X0010425Y0010574D02*
G01X0010425Y0011574D01*
G01X0010425Y0009574D02*
G01X0010425Y0010574D01*
G01X0010425Y0008574D02*
G01X0010425Y0009574D01*
G54D15*
G01X0004800Y0012899D02*
G01X0004800Y0013824D01*
G01X0004800Y0013824D02*
G01X0004825Y0013849D01*
G01X0005725Y0012899D02*
G01X0005725Y0013749D01*
G01X0005725Y0013749D02*
G01X0005825Y0013849D01*
G54D16*
G36*
G01X0004475Y0015394D02*
G01X0004432Y0015387D01*
G01X0004347Y0015332D01*
G01X0004290Y0015248D01*
G01X0004270Y0015149D01*
G01X0004270Y0014549D01*
G01X0004287Y0014456D01*
G01X0004342Y0014371D01*
G01X0004374Y0014349D01*
G01X0004347Y0014332D01*
G01X0004290Y0014248D01*
G01X0004270Y0014149D01*
G01X0004270Y0013549D01*
G01X0004287Y0013456D01*
G01X0004342Y0013371D01*
G01X0004426Y0013314D01*
G01X0004432Y0013313D01*
G01X0004432Y0013311D01*
G01X0004347Y0013257D01*
G01X0004290Y0013173D01*
G01X0004270Y0013074D01*
G01X0004270Y0012724D01*
G01X0004287Y0012631D01*
G01X0004342Y0012546D01*
G01X0004374Y0012524D01*
G01X0004347Y0012507D01*
G01X0004290Y0012423D01*
G01X0004270Y0012324D01*
G01X0004270Y0012255D01*
G01X0004260Y0012240D01*
G01X0004232Y0012099D01*
G01X0004260Y0011958D01*
G01X0004278Y0011931D01*
G01X0004287Y0011881D01*
G01X0004342Y0011796D01*
G01X0004426Y0011739D01*
G01X0004525Y0011719D01*
G01X0005075Y0011719D01*
G01X0005168Y0011737D01*
G01X0005198Y0011756D01*
G01X0005326Y0011756D01*
G01X0005351Y0011739D01*
G01X0005450Y0011719D01*
G01X0006000Y0011719D01*
G01X0006093Y0011737D01*
G01X0006161Y0011781D01*
G01X0006425Y0011781D01*
G01X0006566Y0011809D01*
G01X0006685Y0011889D01*
G01X0006711Y0011914D01*
G01X0006806Y0011954D01*
G01X0006920Y0012068D01*
G01X0006982Y0012218D01*
G01X0006983Y0012380D01*
G01X0006920Y0012530D01*
G01X0006806Y0012644D01*
G01X0006656Y0012706D01*
G01X0006494Y0012707D01*
G01X0006344Y0012644D01*
G01X0006230Y0012530D01*
G01X0006224Y0012517D01*
G01X0006160Y0012517D01*
G01X0006150Y0012524D01*
G01X0006178Y0012541D01*
G01X0006235Y0012625D01*
G01X0006255Y0012724D01*
G01X0006255Y0013074D01*
G01X0006237Y0013167D01*
G01X0006183Y0013252D01*
G01X0006121Y0013294D01*
G01X0006125Y0013294D01*
G01X0006218Y0013311D01*
G01X0006303Y0013366D01*
G01X0006360Y0013450D01*
G01X0006380Y0013549D01*
G01X0006380Y0014149D01*
G01X0006363Y0014242D01*
G01X0006308Y0014327D01*
G01X0006276Y0014349D01*
G01X0006303Y0014366D01*
G01X0006360Y0014450D01*
G01X0006380Y0014549D01*
G01X0006380Y0015149D01*
G01X0006363Y0015242D01*
G01X0006308Y0015327D01*
G01X0006224Y0015384D01*
G01X0006172Y0015394D01*
G01X0015520Y0015394D01*
G01X0015520Y0008154D01*
G01X0010945Y0008154D01*
G01X0010960Y0008175D01*
G01X0010980Y0008274D01*
G01X0010980Y0008874D01*
G01X0010963Y0008967D01*
G01X0010908Y0009052D01*
G01X0010876Y0009074D01*
G01X0010903Y0009091D01*
G01X0010960Y0009175D01*
G01X0010980Y0009274D01*
G01X0010980Y0009874D01*
G01X0010963Y0009967D01*
G01X0010908Y0010052D01*
G01X0010876Y0010074D01*
G01X0010903Y0010091D01*
G01X0010960Y0010175D01*
G01X0010980Y0010274D01*
G01X0010980Y0010874D01*
G01X0010963Y0010967D01*
G01X0010908Y0011052D01*
G01X0010876Y0011074D01*
G01X0010903Y0011091D01*
G01X0010960Y0011175D01*
G01X0010980Y0011274D01*
G01X0010980Y0011874D01*
G01X0010963Y0011967D01*
G01X0010908Y0012052D01*
G01X0010876Y0012074D01*
G01X0010903Y0012091D01*
G01X0010960Y0012175D01*
G01X0010980Y0012274D01*
G01X0010980Y0012874D01*
G01X0010963Y0012967D01*
G01X0010908Y0013052D01*
G01X0010876Y0013074D01*
G01X0010903Y0013091D01*
G01X0010960Y0013175D01*
G01X0010980Y0013274D01*
G01X0010980Y0013874D01*
G01X0010963Y0013967D01*
G01X0010908Y0014052D01*
G01X0010824Y0014109D01*
G01X0010725Y0014129D01*
G01X0010125Y0014129D01*
G01X0010032Y0014111D01*
G01X0009947Y0014057D01*
G01X0009925Y0014024D01*
G01X0009908Y0014052D01*
G01X0009838Y0014100D01*
G01X0009903Y0014141D01*
G01X0009960Y0014225D01*
G01X0009980Y0014324D01*
G01X0009980Y0014674D01*
G01X0009963Y0014767D01*
G01X0009908Y0014852D01*
G01X0009824Y0014909D01*
G01X0009725Y0014929D01*
G01X0009175Y0014929D01*
G01X0009082Y0014911D01*
G01X0008997Y0014857D01*
G01X0008994Y0014851D01*
G01X0008981Y0014856D01*
G01X0008819Y0014857D01*
G01X0008669Y0014794D01*
G01X0008572Y0014698D01*
G01X0008260Y0015010D01*
G01X0008220Y0015105D01*
G01X0008106Y0015219D01*
G01X0007956Y0015281D01*
G01X0007794Y0015281D01*
G01X0007644Y0015220D01*
G01X0007530Y0015105D01*
G01X0007468Y0014956D01*
G01X0007467Y0014793D01*
G01X0007530Y0014643D01*
G01X0007644Y0014529D01*
G01X0007739Y0014489D01*
G01X0008057Y0014172D01*
G01X0008057Y0014116D01*
G01X0008032Y0014111D01*
G01X0007947Y0014057D01*
G01X0007890Y0013973D01*
G01X0007870Y0013874D01*
G01X0007870Y0013274D01*
G01X0007887Y0013181D01*
G01X0007942Y0013096D01*
G01X0007974Y0013074D01*
G01X0007947Y0013057D01*
G01X0007890Y0012973D01*
G01X0007870Y0012874D01*
G01X0007870Y0012274D01*
G01X0007887Y0012181D01*
G01X0007942Y0012096D01*
G01X0007974Y0012074D01*
G01X0007947Y0012057D01*
G01X0007890Y0011973D01*
G01X0007870Y0011874D01*
G01X0007870Y0011274D01*
G01X0007887Y0011181D01*
G01X0007942Y0011096D01*
G01X0007974Y0011074D01*
G01X0007947Y0011057D01*
G01X0007890Y0010973D01*
G01X0007870Y0010874D01*
G01X0007870Y0010274D01*
G01X0007887Y0010181D01*
G01X0007942Y0010096D01*
G01X0007974Y0010074D01*
G01X0007947Y0010057D01*
G01X0007890Y0009973D01*
G01X0007870Y0009874D01*
G01X0007870Y0009274D01*
G01X0007887Y0009181D01*
G01X0007942Y0009096D01*
G01X0007974Y0009074D01*
G01X0007947Y0009057D01*
G01X0007890Y0008973D01*
G01X0007870Y0008874D01*
G01X0007870Y0008274D01*
G01X0007887Y0008181D01*
G01X0007906Y0008154D01*
G01X0003925Y0008154D01*
G01X0003925Y0009344D01*
G01X0004525Y0009344D01*
G01X0004618Y0009361D01*
G01X0004703Y0009416D01*
G01X0004725Y0009448D01*
G01X0004742Y0009421D01*
G01X0004826Y0009364D01*
G01X0004925Y0009344D01*
G01X0005525Y0009344D01*
G01X0005618Y0009361D01*
G01X0005703Y0009416D01*
G01X0005760Y0009500D01*
G01X0005766Y0009531D01*
G01X0005854Y0009531D01*
G01X0005866Y0009522D01*
G01X0005965Y0009502D01*
G01X0006635Y0009502D01*
G01X0006727Y0009520D01*
G01X0006812Y0009574D01*
G01X0006869Y0009658D01*
G01X0006889Y0009757D01*
G01X0006889Y0010269D01*
G01X0006872Y0010362D01*
G01X0006817Y0010447D01*
G01X0006793Y0010463D01*
G01X0006835Y0010525D01*
G01X0006855Y0010624D01*
G01X0006855Y0010974D01*
G01X0006837Y0011067D01*
G01X0006783Y0011152D01*
G01X0006699Y0011209D01*
G01X0006600Y0011229D01*
G01X0006050Y0011229D01*
G01X0005957Y0011211D01*
G01X0005872Y0011157D01*
G01X0005815Y0011073D01*
G01X0005795Y0010974D01*
G01X0005795Y0010624D01*
G01X0005813Y0010531D01*
G01X0005841Y0010486D01*
G01X0005788Y0010452D01*
G01X0005731Y0010368D01*
G01X0005726Y0010348D01*
G01X0005708Y0010377D01*
G01X0005624Y0010434D01*
G01X0005525Y0010454D01*
G01X0004925Y0010454D01*
G01X0004832Y0010437D01*
G01X0004747Y0010382D01*
G01X0004725Y0010350D01*
G01X0004708Y0010377D01*
G01X0004624Y0010434D01*
G01X0004525Y0010454D01*
G01X0003925Y0010454D01*
G01X0003832Y0010437D01*
G01X0003747Y0010382D01*
G01X0003690Y0010298D01*
G01X0003670Y0010199D01*
G01X0003670Y0009599D01*
G01X0003687Y0009506D01*
G01X0003742Y0009421D01*
G01X0003826Y0009364D01*
G01X0003925Y0009344D01*
G01X0003925Y0008154D01*
G01X0000280Y0008154D01*
G01X0000280Y0015394D01*
G01X0004475Y0015394D01*
G01X0004475Y0015394D01*
G37*
G01X0004475Y0015394D02*
G01X0004432Y0015387D01*
G01X0004432Y0015387D02*
G01X0004347Y0015332D01*
G01X0004347Y0015332D02*
G01X0004290Y0015248D01*
G01X0004290Y0015248D02*
G01X0004270Y0015149D01*
G01X0004270Y0015149D02*
G01X0004270Y0014549D01*
G01X0004270Y0014549D02*
G01X0004287Y0014456D01*
G01X0004287Y0014456D02*
G01X0004342Y0014371D01*
G01X0004342Y0014371D02*
G01X0004374Y0014349D01*
G01X0004374Y0014349D02*
G01X0004347Y0014332D01*
G01X0004347Y0014332D02*
G01X0004290Y0014248D01*
G01X0004290Y0014248D02*
G01X0004270Y0014149D01*
G01X0004270Y0014149D02*
G01X0004270Y0013549D01*
G01X0004270Y0013549D02*
G01X0004287Y0013456D01*
G01X0004287Y0013456D02*
G01X0004342Y0013371D01*
G01X0004342Y0013371D02*
G01X0004426Y0013314D01*
G01X0004426Y0013314D02*
G01X0004432Y0013313D01*
G01X0004432Y0013313D02*
G01X0004432Y0013311D01*
G01X0004432Y0013311D02*
G01X0004347Y0013257D01*
G01X0004347Y0013257D02*
G01X0004290Y0013173D01*
G01X0004290Y0013173D02*
G01X0004270Y0013074D01*
G01X0004270Y0013074D02*
G01X0004270Y0012724D01*
G01X0004270Y0012724D02*
G01X0004287Y0012631D01*
G01X0004287Y0012631D02*
G01X0004342Y0012546D01*
G01X0004342Y0012546D02*
G01X0004374Y0012524D01*
G01X0004374Y0012524D02*
G01X0004347Y0012507D01*
G01X0004347Y0012507D02*
G01X0004290Y0012423D01*
G01X0004290Y0012423D02*
G01X0004270Y0012324D01*
G01X0004270Y0012324D02*
G01X0004270Y0012255D01*
G01X0004270Y0012255D02*
G01X0004260Y0012240D01*
G01X0004260Y0012240D02*
G01X0004232Y0012099D01*
G01X0004232Y0012099D02*
G01X0004260Y0011958D01*
G01X0004260Y0011958D02*
G01X0004278Y0011931D01*
G01X0004278Y0011931D02*
G01X0004287Y0011881D01*
G01X0004287Y0011881D02*
G01X0004342Y0011796D01*
G01X0004342Y0011796D02*
G01X0004426Y0011739D01*
G01X0004426Y0011739D02*
G01X0004525Y0011719D01*
G01X0004525Y0011719D02*
G01X0005075Y0011719D01*
G01X0005075Y0011719D02*
G01X0005168Y0011737D01*
G01X0005168Y0011737D02*
G01X0005198Y0011756D01*
G01X0005198Y0011756D02*
G01X0005326Y0011756D01*
G01X0005326Y0011756D02*
G01X0005351Y0011739D01*
G01X0005351Y0011739D02*
G01X0005450Y0011719D01*
G01X0005450Y0011719D02*
G01X0006000Y0011719D01*
G01X0006000Y0011719D02*
G01X0006093Y0011737D01*
G01X0006093Y0011737D02*
G01X0006161Y0011781D01*
G01X0006161Y0011781D02*
G01X0006425Y0011781D01*
G01X0006425Y0011781D02*
G01X0006566Y0011809D01*
G01X0006566Y0011809D02*
G01X0006685Y0011889D01*
G01X0006685Y0011889D02*
G01X0006711Y0011914D01*
G01X0006711Y0011914D02*
G01X0006806Y0011954D01*
G01X0006806Y0011954D02*
G01X0006920Y0012068D01*
G01X0006920Y0012068D02*
G01X0006982Y0012218D01*
G01X0006982Y0012218D02*
G01X0006983Y0012380D01*
G01X0006983Y0012380D02*
G01X0006920Y0012530D01*
G01X0006920Y0012530D02*
G01X0006806Y0012644D01*
G01X0006806Y0012644D02*
G01X0006656Y0012706D01*
G01X0006656Y0012706D02*
G01X0006494Y0012707D01*
G01X0006494Y0012707D02*
G01X0006344Y0012644D01*
G01X0006344Y0012644D02*
G01X0006230Y0012530D01*
G01X0006230Y0012530D02*
G01X0006224Y0012517D01*
G01X0006224Y0012517D02*
G01X0006160Y0012517D01*
G01X0006160Y0012517D02*
G01X0006150Y0012524D01*
G01X0006150Y0012524D02*
G01X0006178Y0012541D01*
G01X0006178Y0012541D02*
G01X0006235Y0012625D01*
G01X0006235Y0012625D02*
G01X0006255Y0012724D01*
G01X0006255Y0012724D02*
G01X0006255Y0013074D01*
G01X0006255Y0013074D02*
G01X0006237Y0013167D01*
G01X0006237Y0013167D02*
G01X0006183Y0013252D01*
G01X0006183Y0013252D02*
G01X0006121Y0013294D01*
G01X0006121Y0013294D02*
G01X0006125Y0013294D01*
G01X0006125Y0013294D02*
G01X0006218Y0013311D01*
G01X0006218Y0013311D02*
G01X0006303Y0013366D01*
G01X0006303Y0013366D02*
G01X0006360Y0013450D01*
G01X0006360Y0013450D02*
G01X0006380Y0013549D01*
G01X0006380Y0013549D02*
G01X0006380Y0014149D01*
G01X0006380Y0014149D02*
G01X0006363Y0014242D01*
G01X0006363Y0014242D02*
G01X0006308Y0014327D01*
G01X0006308Y0014327D02*
G01X0006276Y0014349D01*
G01X0006276Y0014349D02*
G01X0006303Y0014366D01*
G01X0006303Y0014366D02*
G01X0006360Y0014450D01*
G01X0006360Y0014450D02*
G01X0006380Y0014549D01*
G01X0006380Y0014549D02*
G01X0006380Y0015149D01*
G01X0006380Y0015149D02*
G01X0006363Y0015242D01*
G01X0006363Y0015242D02*
G01X0006308Y0015327D01*
G01X0006308Y0015327D02*
G01X0006224Y0015384D01*
G01X0006224Y0015384D02*
G01X0006172Y0015394D01*
G01X0006172Y0015394D02*
G01X0015520Y0015394D01*
G01X0015520Y0015394D02*
G01X0015520Y0008154D01*
G01X0015520Y0008154D02*
G01X0010945Y0008154D01*
G01X0010945Y0008154D02*
G01X0010960Y0008175D01*
G01X0010960Y0008175D02*
G01X0010980Y0008274D01*
G01X0010980Y0008274D02*
G01X0010980Y0008874D01*
G01X0010980Y0008874D02*
G01X0010963Y0008967D01*
G01X0010963Y0008967D02*
G01X0010908Y0009052D01*
G01X0010908Y0009052D02*
G01X0010876Y0009074D01*
G01X0010876Y0009074D02*
G01X0010903Y0009091D01*
G01X0010903Y0009091D02*
G01X0010960Y0009175D01*
G01X0010960Y0009175D02*
G01X0010980Y0009274D01*
G01X0010980Y0009274D02*
G01X0010980Y0009874D01*
G01X0010980Y0009874D02*
G01X0010963Y0009967D01*
G01X0010963Y0009967D02*
G01X0010908Y0010052D01*
G01X0010908Y0010052D02*
G01X0010876Y0010074D01*
G01X0010876Y0010074D02*
G01X0010903Y0010091D01*
G01X0010903Y0010091D02*
G01X0010960Y0010175D01*
G01X0010960Y0010175D02*
G01X0010980Y0010274D01*
G01X0010980Y0010274D02*
G01X0010980Y0010874D01*
G01X0010980Y0010874D02*
G01X0010963Y0010967D01*
G01X0010963Y0010967D02*
G01X0010908Y0011052D01*
G01X0010908Y0011052D02*
G01X0010876Y0011074D01*
G01X0010876Y0011074D02*
G01X0010903Y0011091D01*
G01X0010903Y0011091D02*
G01X0010960Y0011175D01*
G01X0010960Y0011175D02*
G01X0010980Y0011274D01*
G01X0010980Y0011274D02*
G01X0010980Y0011874D01*
G01X0010980Y0011874D02*
G01X0010963Y0011967D01*
G01X0010963Y0011967D02*
G01X0010908Y0012052D01*
G01X0010908Y0012052D02*
G01X0010876Y0012074D01*
G01X0010876Y0012074D02*
G01X0010903Y0012091D01*
G01X0010903Y0012091D02*
G01X0010960Y0012175D01*
G01X0010960Y0012175D02*
G01X0010980Y0012274D01*
G01X0010980Y0012274D02*
G01X0010980Y0012874D01*
G01X0010980Y0012874D02*
G01X0010963Y0012967D01*
G01X0010963Y0012967D02*
G01X0010908Y0013052D01*
G01X0010908Y0013052D02*
G01X0010876Y0013074D01*
G01X0010876Y0013074D02*
G01X0010903Y0013091D01*
G01X0010903Y0013091D02*
G01X0010960Y0013175D01*
G01X0010960Y0013175D02*
G01X0010980Y0013274D01*
G01X0010980Y0013274D02*
G01X0010980Y0013874D01*
G01X0010980Y0013874D02*
G01X0010963Y0013967D01*
G01X0010963Y0013967D02*
G01X0010908Y0014052D01*
G01X0010908Y0014052D02*
G01X0010824Y0014109D01*
G01X0010824Y0014109D02*
G01X0010725Y0014129D01*
G01X0010725Y0014129D02*
G01X0010125Y0014129D01*
G01X0010125Y0014129D02*
G01X0010032Y0014111D01*
G01X0010032Y0014111D02*
G01X0009947Y0014057D01*
G01X0009947Y0014057D02*
G01X0009925Y0014024D01*
G01X0009925Y0014024D02*
G01X0009908Y0014052D01*
G01X0009908Y0014052D02*
G01X0009838Y0014100D01*
G01X0009838Y0014100D02*
G01X0009903Y0014141D01*
G01X0009903Y0014141D02*
G01X0009960Y0014225D01*
G01X0009960Y0014225D02*
G01X0009980Y0014324D01*
G01X0009980Y0014324D02*
G01X0009980Y0014674D01*
G01X0009980Y0014674D02*
G01X0009963Y0014767D01*
G01X0009963Y0014767D02*
G01X0009908Y0014852D01*
G01X0009908Y0014852D02*
G01X0009824Y0014909D01*
G01X0009824Y0014909D02*
G01X0009725Y0014929D01*
G01X0009725Y0014929D02*
G01X0009175Y0014929D01*
G01X0009175Y0014929D02*
G01X0009082Y0014911D01*
G01X0009082Y0014911D02*
G01X0008997Y0014857D01*
G01X0008997Y0014857D02*
G01X0008994Y0014851D01*
G01X0008994Y0014851D02*
G01X0008981Y0014856D01*
G01X0008981Y0014856D02*
G01X0008819Y0014857D01*
G01X0008819Y0014857D02*
G01X0008669Y0014794D01*
G01X0008669Y0014794D02*
G01X0008572Y0014698D01*
G01X0008572Y0014698D02*
G01X0008260Y0015010D01*
G01X0008260Y0015010D02*
G01X0008220Y0015105D01*
G01X0008220Y0015105D02*
G01X0008106Y0015219D01*
G01X0008106Y0015219D02*
G01X0007956Y0015281D01*
G01X0007956Y0015281D02*
G01X0007794Y0015281D01*
G01X0007794Y0015281D02*
G01X0007644Y0015220D01*
G01X0007644Y0015220D02*
G01X0007530Y0015105D01*
G01X0007530Y0015105D02*
G01X0007468Y0014956D01*
G01X0007468Y0014956D02*
G01X0007467Y0014793D01*
G01X0007467Y0014793D02*
G01X0007530Y0014643D01*
G01X0007530Y0014643D02*
G01X0007644Y0014529D01*
G01X0007644Y0014529D02*
G01X0007739Y0014489D01*
G01X0007739Y0014489D02*
G01X0008057Y0014172D01*
G01X0008057Y0014172D02*
G01X0008057Y0014116D01*
G01X0008057Y0014116D02*
G01X0008032Y0014111D01*
G01X0008032Y0014111D02*
G01X0007947Y0014057D01*
G01X0007947Y0014057D02*
G01X0007890Y0013973D01*
G01X0007890Y0013973D02*
G01X0007870Y0013874D01*
G01X0007870Y0013874D02*
G01X0007870Y0013274D01*
G01X0007870Y0013274D02*
G01X0007887Y0013181D01*
G01X0007887Y0013181D02*
G01X0007942Y0013096D01*
G01X0007942Y0013096D02*
G01X0007974Y0013074D01*
G01X0007974Y0013074D02*
G01X0007947Y0013057D01*
G01X0007947Y0013057D02*
G01X0007890Y0012973D01*
G01X0007890Y0012973D02*
G01X0007870Y0012874D01*
G01X0007870Y0012874D02*
G01X0007870Y0012274D01*
G01X0007870Y0012274D02*
G01X0007887Y0012181D01*
G01X0007887Y0012181D02*
G01X0007942Y0012096D01*
G01X0007942Y0012096D02*
G01X0007974Y0012074D01*
G01X0007974Y0012074D02*
G01X0007947Y0012057D01*
G01X0007947Y0012057D02*
G01X0007890Y0011973D01*
G01X0007890Y0011973D02*
G01X0007870Y0011874D01*
G01X0007870Y0011874D02*
G01X0007870Y0011274D01*
G01X0007870Y0011274D02*
G01X0007887Y0011181D01*
G01X0007887Y0011181D02*
G01X0007942Y0011096D01*
G01X0007942Y0011096D02*
G01X0007974Y0011074D01*
G01X0007974Y0011074D02*
G01X0007947Y0011057D01*
G01X0007947Y0011057D02*
G01X0007890Y0010973D01*
G01X0007890Y0010973D02*
G01X0007870Y0010874D01*
G01X0007870Y0010874D02*
G01X0007870Y0010274D01*
G01X0007870Y0010274D02*
G01X0007887Y0010181D01*
G01X0007887Y0010181D02*
G01X0007942Y0010096D01*
G01X0007942Y0010096D02*
G01X0007974Y0010074D01*
G01X0007974Y0010074D02*
G01X0007947Y0010057D01*
G01X0007947Y0010057D02*
G01X0007890Y0009973D01*
G01X0007890Y0009973D02*
G01X0007870Y0009874D01*
G01X0007870Y0009874D02*
G01X0007870Y0009274D01*
G01X0007870Y0009274D02*
G01X0007887Y0009181D01*
G01X0007887Y0009181D02*
G01X0007942Y0009096D01*
G01X0007942Y0009096D02*
G01X0007974Y0009074D01*
G01X0007974Y0009074D02*
G01X0007947Y0009057D01*
G01X0007947Y0009057D02*
G01X0007890Y0008973D01*
G01X0007890Y0008973D02*
G01X0007870Y0008874D01*
G01X0007870Y0008874D02*
G01X0007870Y0008274D01*
G01X0007870Y0008274D02*
G01X0007887Y0008181D01*
G01X0007887Y0008181D02*
G01X0007906Y0008154D01*
G01X0007906Y0008154D02*
G01X0003925Y0008154D01*
G01X0003925Y0008154D02*
G01X0003925Y0009344D01*
G01X0003925Y0009344D02*
G01X0004525Y0009344D01*
G01X0004525Y0009344D02*
G01X0004618Y0009361D01*
G01X0004618Y0009361D02*
G01X0004703Y0009416D01*
G01X0004703Y0009416D02*
G01X0004725Y0009448D01*
G01X0004725Y0009448D02*
G01X0004742Y0009421D01*
G01X0004742Y0009421D02*
G01X0004826Y0009364D01*
G01X0004826Y0009364D02*
G01X0004925Y0009344D01*
G01X0004925Y0009344D02*
G01X0005525Y0009344D01*
G01X0005525Y0009344D02*
G01X0005618Y0009361D01*
G01X0005618Y0009361D02*
G01X0005703Y0009416D01*
G01X0005703Y0009416D02*
G01X0005760Y0009500D01*
G01X0005760Y0009500D02*
G01X0005766Y0009531D01*
G01X0005766Y0009531D02*
G01X0005854Y0009531D01*
G01X0005854Y0009531D02*
G01X0005866Y0009522D01*
G01X0005866Y0009522D02*
G01X0005965Y0009502D01*
G01X0005965Y0009502D02*
G01X0006635Y0009502D01*
G01X0006635Y0009502D02*
G01X0006727Y0009520D01*
G01X0006727Y0009520D02*
G01X0006812Y0009574D01*
G01X0006812Y0009574D02*
G01X0006869Y0009658D01*
G01X0006869Y0009658D02*
G01X0006889Y0009757D01*
G01X0006889Y0009757D02*
G01X0006889Y0010269D01*
G01X0006889Y0010269D02*
G01X0006872Y0010362D01*
G01X0006872Y0010362D02*
G01X0006817Y0010447D01*
G01X0006817Y0010447D02*
G01X0006793Y0010463D01*
G01X0006793Y0010463D02*
G01X0006835Y0010525D01*
G01X0006835Y0010525D02*
G01X0006855Y0010624D01*
G01X0006855Y0010624D02*
G01X0006855Y0010974D01*
G01X0006855Y0010974D02*
G01X0006837Y0011067D01*
G01X0006837Y0011067D02*
G01X0006783Y0011152D01*
G01X0006783Y0011152D02*
G01X0006699Y0011209D01*
G01X0006699Y0011209D02*
G01X0006600Y0011229D01*
G01X0006600Y0011229D02*
G01X0006050Y0011229D01*
G01X0006050Y0011229D02*
G01X0005957Y0011211D01*
G01X0005957Y0011211D02*
G01X0005872Y0011157D01*
G01X0005872Y0011157D02*
G01X0005815Y0011073D01*
G01X0005815Y0011073D02*
G01X0005795Y0010974D01*
G01X0005795Y0010974D02*
G01X0005795Y0010624D01*
G01X0005795Y0010624D02*
G01X0005813Y0010531D01*
G01X0005813Y0010531D02*
G01X0005841Y0010486D01*
G01X0005841Y0010486D02*
G01X0005788Y0010452D01*
G01X0005788Y0010452D02*
G01X0005731Y0010368D01*
G01X0005731Y0010368D02*
G01X0005726Y0010348D01*
G01X0005726Y0010348D02*
G01X0005708Y0010377D01*
G01X0005708Y0010377D02*
G01X0005624Y0010434D01*
G01X0005624Y0010434D02*
G01X0005525Y0010454D01*
G01X0005525Y0010454D02*
G01X0004925Y0010454D01*
G01X0004925Y0010454D02*
G01X0004832Y0010437D01*
G01X0004832Y0010437D02*
G01X0004747Y0010382D01*
G01X0004747Y0010382D02*
G01X0004725Y0010350D01*
G01X0004725Y0010350D02*
G01X0004708Y0010377D01*
G01X0004708Y0010377D02*
G01X0004624Y0010434D01*
G01X0004624Y0010434D02*
G01X0004525Y0010454D01*
G01X0004525Y0010454D02*
G01X0003925Y0010454D01*
G01X0003925Y0010454D02*
G01X0003832Y0010437D01*
G01X0003832Y0010437D02*
G01X0003747Y0010382D01*
G01X0003747Y0010382D02*
G01X0003690Y0010298D01*
G01X0003690Y0010298D02*
G01X0003670Y0010199D01*
G01X0003670Y0010199D02*
G01X0003670Y0009599D01*
G01X0003670Y0009599D02*
G01X0003687Y0009506D01*
G01X0003687Y0009506D02*
G01X0003742Y0009421D01*
G01X0003742Y0009421D02*
G01X0003826Y0009364D01*
G01X0003826Y0009364D02*
G01X0003925Y0009344D01*
G01X0003925Y0009344D02*
G01X0003925Y0008154D01*
G01X0003925Y0008154D02*
G01X0000280Y0008154D01*
G01X0000280Y0008154D02*
G01X0000280Y0015394D01*
G01X0000280Y0015394D02*
G01X0004475Y0015394D01*
G54D12*
G01X0003622Y0030692D02*
G01X0003647Y0030667D01*
G01X0003647Y0030667D02*
G01X0003696Y0030643D01*
G01X0003696Y0030643D02*
G01X0003818Y0030643D01*
G01X0003818Y0030643D02*
G01X0003866Y0030667D01*
G01X0003866Y0030667D02*
G01X0003891Y0030692D01*
G01X0003891Y0030692D02*
G01X0003915Y0030741D01*
G01X0003915Y0030741D02*
G01X0003915Y0030789D01*
G01X0003915Y0030789D02*
G01X0003891Y0030862D01*
G01X0003891Y0030862D02*
G01X0003598Y0031155D01*
G01X0003598Y0031155D02*
G01X0003915Y0031155D01*
G01X0004232Y0030643D02*
G01X0004281Y0030643D01*
G01X0004281Y0030643D02*
G01X0004330Y0030667D01*
G01X0004330Y0030667D02*
G01X0004354Y0030692D01*
G01X0004354Y0030692D02*
G01X0004378Y0030741D01*
G01X0004378Y0030741D02*
G01X0004402Y0030838D01*
G01X0004402Y0030838D02*
G01X0004402Y0030960D01*
G01X0004402Y0030960D02*
G01X0004378Y0031057D01*
G01X0004378Y0031057D02*
G01X0004354Y0031106D01*
G01X0004354Y0031106D02*
G01X0004330Y0031130D01*
G01X0004330Y0031130D02*
G01X0004281Y0031155D01*
G01X0004281Y0031155D02*
G01X0004232Y0031155D01*
G01X0004232Y0031155D02*
G01X0004183Y0031130D01*
G01X0004183Y0031130D02*
G01X0004159Y0031106D01*
G01X0004159Y0031106D02*
G01X0004134Y0031057D01*
G01X0004134Y0031057D02*
G01X0004110Y0030960D01*
G01X0004110Y0030960D02*
G01X0004110Y0030838D01*
G01X0004110Y0030838D02*
G01X0004134Y0030741D01*
G01X0004134Y0030741D02*
G01X0004159Y0030692D01*
G01X0004159Y0030692D02*
G01X0004183Y0030667D01*
G01X0004183Y0030667D02*
G01X0004232Y0030643D01*
G01X0004890Y0031155D02*
G01X0004598Y0031155D01*
G01X0004744Y0031155D02*
G01X0004744Y0030643D01*
G01X0004744Y0030643D02*
G01X0004695Y0030716D01*
G01X0004695Y0030716D02*
G01X0004646Y0030765D01*
G01X0004646Y0030765D02*
G01X0004598Y0030789D01*
G01X0005329Y0030643D02*
G01X0005231Y0030643D01*
G01X0005231Y0030643D02*
G01X0005182Y0030667D01*
G01X0005182Y0030667D02*
G01X0005158Y0030692D01*
G01X0005158Y0030692D02*
G01X0005109Y0030765D01*
G01X0005109Y0030765D02*
G01X0005085Y0030862D01*
G01X0005085Y0030862D02*
G01X0005085Y0031057D01*
G01X0005085Y0031057D02*
G01X0005109Y0031106D01*
G01X0005109Y0031106D02*
G01X0005134Y0031130D01*
G01X0005134Y0031130D02*
G01X0005182Y0031155D01*
G01X0005182Y0031155D02*
G01X0005280Y0031155D01*
G01X0005280Y0031155D02*
G01X0005329Y0031130D01*
G01X0005329Y0031130D02*
G01X0005353Y0031106D01*
G01X0005353Y0031106D02*
G01X0005378Y0031057D01*
G01X0005378Y0031057D02*
G01X0005378Y0030935D01*
G01X0005378Y0030935D02*
G01X0005353Y0030887D01*
G01X0005353Y0030887D02*
G01X0005329Y0030862D01*
G01X0005329Y0030862D02*
G01X0005280Y0030838D01*
G01X0005280Y0030838D02*
G01X0005182Y0030838D01*
G01X0005182Y0030838D02*
G01X0005134Y0030862D01*
G01X0005134Y0030862D02*
G01X0005109Y0030887D01*
G01X0005109Y0030887D02*
G01X0005085Y0030935D01*
G01X0009326Y0031030D02*
G01X0009326Y0030518D01*
G01X0009326Y0030518D02*
G01X0009496Y0030883D01*
G01X0009496Y0030883D02*
G01X0009667Y0030518D01*
G01X0009667Y0030518D02*
G01X0009667Y0031030D01*
G01X0010154Y0031030D02*
G01X0009910Y0031030D01*
G01X0009910Y0031030D02*
G01X0009910Y0030518D01*
G01X0010300Y0030883D02*
G01X0010544Y0030883D01*
G01X0010252Y0031030D02*
G01X0010422Y0030518D01*
G01X0010422Y0030518D02*
G01X0010593Y0031030D01*
G01X0010934Y0030762D02*
G01X0011007Y0030786D01*
G01X0011007Y0030786D02*
G01X0011031Y0030810D01*
G01X0011031Y0030810D02*
G01X0011056Y0030859D01*
G01X0011056Y0030859D02*
G01X0011056Y0030932D01*
G01X0011056Y0030932D02*
G01X0011031Y0030981D01*
G01X0011031Y0030981D02*
G01X0011007Y0031006D01*
G01X0011007Y0031006D02*
G01X0010958Y0031030D01*
G01X0010958Y0031030D02*
G01X0010763Y0031030D01*
G01X0010763Y0031030D02*
G01X0010763Y0030518D01*
G01X0010763Y0030518D02*
G01X0010934Y0030518D01*
G01X0010934Y0030518D02*
G01X0010983Y0030543D01*
G01X0010983Y0030543D02*
G01X0011007Y0030567D01*
G01X0011007Y0030567D02*
G01X0011031Y0030615D01*
G01X0011031Y0030615D02*
G01X0011031Y0030664D01*
G01X0011031Y0030664D02*
G01X0011007Y0030713D01*
G01X0011007Y0030713D02*
G01X0010983Y0030737D01*
G01X0010983Y0030737D02*
G01X0010934Y0030762D01*
G01X0010934Y0030762D02*
G01X0010763Y0030762D01*
G01X0011275Y0030981D02*
G01X0011300Y0031006D01*
G01X0011300Y0031006D02*
G01X0011275Y0031030D01*
G01X0011275Y0031030D02*
G01X0011251Y0031006D01*
G01X0011251Y0031006D02*
G01X0011275Y0030981D01*
G01X0011275Y0030981D02*
G01X0011275Y0031030D01*
G01X0011811Y0030981D02*
G01X0011787Y0031006D01*
G01X0011787Y0031006D02*
G01X0011714Y0031030D01*
G01X0011714Y0031030D02*
G01X0011665Y0031030D01*
G01X0011665Y0031030D02*
G01X0011592Y0031006D01*
G01X0011592Y0031006D02*
G01X0011543Y0030957D01*
G01X0011543Y0030957D02*
G01X0011519Y0030908D01*
G01X0011519Y0030908D02*
G01X0011494Y0030810D01*
G01X0011494Y0030810D02*
G01X0011494Y0030737D01*
G01X0011494Y0030737D02*
G01X0011519Y0030640D01*
G01X0011519Y0030640D02*
G01X0011543Y0030591D01*
G01X0011543Y0030591D02*
G01X0011592Y0030543D01*
G01X0011592Y0030543D02*
G01X0011665Y0030518D01*
G01X0011665Y0030518D02*
G01X0011714Y0030518D01*
G01X0011714Y0030518D02*
G01X0011787Y0030543D01*
G01X0011787Y0030543D02*
G01X0011811Y0030567D01*
G01X0011982Y0030518D02*
G01X0012323Y0030518D01*
G01X0012323Y0030518D02*
G01X0011982Y0031030D01*
G01X0011982Y0031030D02*
G01X0012323Y0031030D01*
G54D31*
G01X0013100Y0021610D03*
G01X0013100Y0020036D03*
G54D27*
G01X0001931Y0020723D03*
G01X0003900Y0020723D03*
G54D13*
G01X0008469Y0026323D03*
G01X0010831Y0026323D03*
G01X0008519Y0022073D03*
G01X0010881Y0022073D03*
G54D34*
G01X0001900Y0029573D03*
G01X0013900Y0029573D03*
G01X0013900Y0017573D03*
G01X0001900Y0017573D03*
G54D35*
G01X0006942Y0022302D03*
G01X0006745Y0022302D03*
G01X0006548Y0022302D03*
G01X0006352Y0022302D03*
G01X0006155Y0022302D03*
G01X0005958Y0022302D03*
G01X0005958Y0023444D03*
G01X0006155Y0023444D03*
G01X0006352Y0023444D03*
G01X0006548Y0023444D03*
G01X0006745Y0023444D03*
G01X0006942Y0023444D03*
G54D18*
G01X0005963Y0023041D03*
G01X0006288Y0023041D03*
G01X0006613Y0023041D03*
G01X0006937Y0023041D03*
G01X0005963Y0022706D03*
G01X0006288Y0022706D03*
G01X0006613Y0022706D03*
G01X0006937Y0022706D03*
G54D22*
G01X0007150Y0021248D03*
G01X0007150Y0020498D03*
G54D32*
G01X0007525Y0019673D03*
G01X0006775Y0019673D03*
G01X0006025Y0019673D03*
G01X0005275Y0019673D03*
G01X0006025Y0020823D03*
G01X0005275Y0020823D03*
G54D22*
G01X0008100Y0024398D03*
G01X0008100Y0023648D03*
G54D20*
G01X0005850Y0017373D03*
G01X0005850Y0018373D03*
G01X0004850Y0017373D03*
G01X0004850Y0018373D03*
G54D27*
G01X0001931Y0022673D03*
G01X0003900Y0022673D03*
G54D20*
G01X0006850Y0017373D03*
G01X0008850Y0018373D03*
G01X0008850Y0017373D03*
G01X0008850Y0016373D03*
G01X0006850Y0018373D03*
G01X0007850Y0018373D03*
G01X0007850Y0017373D03*
G01X0011400Y0018173D03*
G01X0010400Y0018173D03*
G01X0011400Y0019173D03*
G01X0010400Y0019173D03*
G01X0011400Y0020173D03*
G01X0010400Y0020173D03*
G01X0002350Y0025073D03*
G01X0001350Y0025073D03*
G01X0002350Y0026073D03*
G01X0001350Y0026073D03*
G01X0002350Y0027073D03*
G01X0001350Y0027073D03*
G54D10*
G01X0005175Y0027848D03*
G54D24*
G01X0008128Y0027848D03*
G54D10*
G01X0011000Y0024498D03*
G54D24*
G01X0013953Y0024498D03*
G54D25*
G01X0013625Y0022398D03*
G01X0013050Y0022423D03*
G01X0012500Y0022448D03*
G01X0013175Y0024548D03*
G01X0013550Y0025248D03*
G01X0014225Y0025248D03*
G01X0014650Y0024848D03*
G01X0014625Y0024198D03*
G01X0014150Y0023823D03*
G01X0013500Y0023873D03*
G01X0004936Y0024478D03*
G01X0011900Y0021373D03*
G01X0009100Y0021073D03*
G01X0009850Y0020023D03*
G01X0009400Y0020023D03*
G01X0009050Y0020373D03*
G01X0008700Y0020723D03*
G01X0008350Y0021073D03*
G01X0009750Y0024723D03*
G01X0008850Y0024723D03*
G01X0009550Y0026873D03*
G01X0007100Y0026573D03*
G01X0007500Y0026523D03*
G01X0007500Y0025723D03*
G01X0007100Y0025373D03*
G01X0007515Y0020388D03*
G01X0002350Y0027723D03*
G01X0001350Y0027723D03*
G01X0001350Y0024373D03*
G01X0002350Y0024373D03*
G01X0007450Y0022873D03*
G01X0007550Y0023273D03*
G01X0006125Y0024298D03*
G01X0006632Y0020825D03*
G01X0005976Y0021628D03*
G01X0006317Y0021303D03*
G01X0005400Y0023873D03*
G01X0005400Y0024273D03*
G01X0006450Y0019673D03*
G01X0005500Y0023423D03*
G54D11*
G01X0013050Y0022423D02*
G01X0013600Y0022423D01*
G01X0013600Y0022423D02*
G01X0013625Y0022398D01*
G01X0014150Y0023823D02*
G01X0013875Y0023823D01*
G01X0013875Y0023823D02*
G01X0012500Y0022448D01*
G01X0014225Y0025248D02*
G01X0013550Y0025248D01*
G01X0014625Y0024198D02*
G01X0014625Y0024823D01*
G01X0014625Y0024823D02*
G01X0014650Y0024848D01*
G01X0013500Y0023873D02*
G01X0014100Y0023873D01*
G01X0014100Y0023873D02*
G01X0014150Y0023823D01*
G01X0005399Y0023023D02*
G01X0004936Y0023486D01*
G01X0004936Y0023486D02*
G01X0004936Y0024478D01*
G01X0005963Y0023041D02*
G01X0005417Y0023041D01*
G01X0005417Y0023041D02*
G01X0005399Y0023023D01*
G01X0008350Y0021073D02*
G01X0009100Y0021073D01*
G01X0009050Y0020373D02*
G01X0009400Y0020023D01*
G01X0008350Y0021073D02*
G01X0008700Y0020723D01*
G01X0008850Y0024723D02*
G01X0009750Y0024723D01*
G01X0010400Y0020173D02*
G01X0010400Y0020631D01*
G01X0010400Y0020631D02*
G01X0009550Y0021481D01*
G01X0009550Y0021481D02*
G01X0009550Y0026873D01*
G01X0007500Y0026523D02*
G01X0007500Y0027173D01*
G01X0007500Y0026523D02*
G01X0007150Y0026523D01*
G01X0007150Y0026523D02*
G01X0007100Y0026573D01*
G01X0007100Y0025373D02*
G01X0007150Y0025373D01*
G01X0007150Y0025373D02*
G01X0007500Y0025723D01*
G01X0007150Y0020498D02*
G01X0007405Y0020498D01*
G01X0007405Y0020498D02*
G01X0007515Y0020388D01*
G01X0001350Y0027073D02*
G01X0001350Y0027723D01*
G01X0013100Y0021610D02*
G01X0013100Y0021873D01*
G01X0002350Y0025073D02*
G01X0002350Y0024373D01*
G01X0006937Y0023041D02*
G01X0007317Y0023041D01*
G01X0007317Y0023041D02*
G01X0007550Y0023273D01*
G54D12*
G01X0003900Y0023541D02*
G01X0003900Y0022673D01*
G01X0006745Y0023444D02*
G01X0006745Y0026693D01*
G01X0006745Y0026693D02*
G01X0005615Y0027823D01*
G01X0003900Y0026108D02*
G01X0003900Y0023541D01*
G01X0005300Y0027823D02*
G01X0005300Y0027508D01*
G01X0005300Y0027508D02*
G01X0003900Y0026108D01*
G01X0005615Y0027823D02*
G01X0005300Y0027823D01*
G54D14*
G01X0006548Y0023444D02*
G01X0006548Y0023875D01*
G01X0006548Y0023875D02*
G01X0006125Y0024298D01*
G01X0006548Y0022302D02*
G01X0006548Y0021480D01*
G01X0006548Y0021480D02*
G01X0006632Y0021396D01*
G01X0006632Y0021396D02*
G01X0006632Y0020825D01*
G01X0006155Y0022302D02*
G01X0006155Y0021807D01*
G01X0006155Y0021807D02*
G01X0005976Y0021628D01*
G01X0006352Y0022302D02*
G01X0006352Y0021338D01*
G01X0006352Y0021338D02*
G01X0006317Y0021303D01*
G54D11*
G01X0005850Y0017373D02*
G01X0005850Y0018373D01*
G54D14*
G01X0006155Y0023444D02*
G01X0006155Y0023647D01*
G01X0006155Y0023647D02*
G01X0005928Y0023873D01*
G01X0005928Y0023873D02*
G01X0005623Y0023873D01*
G01X0005623Y0023873D02*
G01X0005400Y0023873D01*
G54D11*
G01X0004850Y0017373D02*
G01X0004850Y0018373D01*
G54D14*
G01X0006352Y0023444D02*
G01X0006352Y0023673D01*
G01X0006352Y0023673D02*
G01X0005751Y0024273D01*
G01X0005751Y0024273D02*
G01X0005400Y0024273D01*
G01X0007350Y0023773D02*
G01X0007375Y0023773D01*
G01X0007375Y0023773D02*
G01X0008000Y0024398D01*
G01X0008000Y0024398D02*
G01X0008100Y0024398D01*
G01X0007350Y0023648D02*
G01X0007350Y0023773D01*
G01X0006942Y0023444D02*
G01X0007146Y0023444D01*
G01X0007146Y0023444D02*
G01X0007350Y0023648D01*
G01X0006942Y0022302D02*
G01X0008290Y0022302D01*
G01X0008290Y0022302D02*
G01X0008519Y0022073D01*
G01X0005958Y0023444D02*
G01X0005521Y0023444D01*
G01X0005521Y0023444D02*
G01X0005500Y0023423D01*
G54D11*
G01X0006450Y0019673D02*
G01X0006025Y0019673D01*
G01X0006450Y0019673D02*
G01X0006775Y0019673D01*
G54D14*
G01X0005958Y0022302D02*
G01X0005958Y0022031D01*
G01X0005958Y0022031D02*
G01X0005700Y0021773D01*
G01X0005700Y0021773D02*
G01X0005700Y0021248D01*
G01X0005700Y0021248D02*
G01X0006025Y0020923D01*
G01X0006025Y0020923D02*
G01X0006025Y0020823D01*
G54D16*
G36*
G01X0009100Y0025544D02*
G01X0008465Y0024909D01*
G01X0008454Y0024892D01*
G01X0008450Y0024873D01*
G01X0008450Y0024123D01*
G01X0007650Y0024123D01*
G01X0007631Y0024119D01*
G01X0007614Y0024108D01*
G01X0007604Y0024091D01*
G01X0007600Y0024073D01*
G01X0007600Y0023794D01*
G01X0007179Y0023373D01*
G01X0007130Y0023373D01*
G01X0007100Y0023379D01*
G01X0006968Y0023379D01*
G01X0006968Y0023422D01*
G01X0006972Y0023444D01*
G01X0006972Y0024575D01*
G01X0007835Y0025438D01*
G01X0007846Y0025454D01*
G01X0007850Y0025473D01*
G01X0007850Y0026973D01*
G01X0009100Y0026973D01*
G01X0009100Y0025544D01*
G01X0009100Y0025544D01*
G37*
G01X0009100Y0025544D02*
G01X0008465Y0024909D01*
G01X0008465Y0024909D02*
G01X0008454Y0024892D01*
G01X0008454Y0024892D02*
G01X0008450Y0024873D01*
G01X0008450Y0024873D02*
G01X0008450Y0024123D01*
G01X0008450Y0024123D02*
G01X0007650Y0024123D01*
G01X0007650Y0024123D02*
G01X0007631Y0024119D01*
G01X0007631Y0024119D02*
G01X0007614Y0024108D01*
G01X0007614Y0024108D02*
G01X0007604Y0024091D01*
G01X0007604Y0024091D02*
G01X0007600Y0024073D01*
G01X0007600Y0024073D02*
G01X0007600Y0023794D01*
G01X0007600Y0023794D02*
G01X0007179Y0023373D01*
G01X0007179Y0023373D02*
G01X0007130Y0023373D01*
G01X0007130Y0023373D02*
G01X0007100Y0023379D01*
G01X0007100Y0023379D02*
G01X0006968Y0023379D01*
G01X0006968Y0023379D02*
G01X0006968Y0023422D01*
G01X0006968Y0023422D02*
G01X0006972Y0023444D01*
G01X0006972Y0023444D02*
G01X0006972Y0024575D01*
G01X0006972Y0024575D02*
G01X0007835Y0025438D01*
G01X0007835Y0025438D02*
G01X0007846Y0025454D01*
G01X0007846Y0025454D02*
G01X0007850Y0025473D01*
G01X0007850Y0025473D02*
G01X0007850Y0026973D01*
G01X0007850Y0026973D02*
G01X0009100Y0026973D01*
G01X0009100Y0026973D02*
G01X0009100Y0025544D01*
G36*
G01X0009250Y0021423D02*
G01X0007871Y0021423D01*
G01X0007085Y0022209D01*
G01X0007069Y0022220D01*
G01X0007050Y0022223D01*
G01X0006968Y0022223D01*
G01X0006968Y0022367D01*
G01X0007100Y0022367D01*
G01X0007132Y0022373D01*
G01X0007350Y0022373D01*
G01X0007369Y0022377D01*
G01X0007385Y0022388D01*
G01X0007567Y0022569D01*
G01X0007634Y0022597D01*
G01X0007726Y0022689D01*
G01X0007754Y0022757D01*
G01X0007835Y0022838D01*
G01X0007846Y0022854D01*
G01X0007850Y0022873D01*
G01X0007850Y0023147D01*
G01X0007876Y0023208D01*
G01X0007876Y0023338D01*
G01X0007850Y0023400D01*
G01X0007850Y0023773D01*
G01X0009250Y0023773D01*
G01X0009250Y0021423D01*
G01X0009250Y0021423D01*
G37*
G01X0009250Y0021423D02*
G01X0007871Y0021423D01*
G01X0007871Y0021423D02*
G01X0007085Y0022209D01*
G01X0007085Y0022209D02*
G01X0007069Y0022220D01*
G01X0007069Y0022220D02*
G01X0007050Y0022223D01*
G01X0007050Y0022223D02*
G01X0006968Y0022223D01*
G01X0006968Y0022223D02*
G01X0006968Y0022367D01*
G01X0006968Y0022367D02*
G01X0007100Y0022367D01*
G01X0007100Y0022367D02*
G01X0007132Y0022373D01*
G01X0007132Y0022373D02*
G01X0007350Y0022373D01*
G01X0007350Y0022373D02*
G01X0007369Y0022377D01*
G01X0007369Y0022377D02*
G01X0007385Y0022388D01*
G01X0007385Y0022388D02*
G01X0007567Y0022569D01*
G01X0007567Y0022569D02*
G01X0007634Y0022597D01*
G01X0007634Y0022597D02*
G01X0007726Y0022689D01*
G01X0007726Y0022689D02*
G01X0007754Y0022757D01*
G01X0007754Y0022757D02*
G01X0007835Y0022838D01*
G01X0007835Y0022838D02*
G01X0007846Y0022854D01*
G01X0007846Y0022854D02*
G01X0007850Y0022873D01*
G01X0007850Y0022873D02*
G01X0007850Y0023147D01*
G01X0007850Y0023147D02*
G01X0007876Y0023208D01*
G01X0007876Y0023208D02*
G01X0007876Y0023338D01*
G01X0007876Y0023338D02*
G01X0007850Y0023400D01*
G01X0007850Y0023400D02*
G01X0007850Y0023773D01*
G01X0007850Y0023773D02*
G01X0009250Y0023773D01*
G01X0009250Y0023773D02*
G01X0009250Y0021423D01*
G36*
G01X0011500Y0027052D02*
G01X0011500Y0021473D01*
G01X0010100Y0021473D01*
G01X0010100Y0026873D01*
G01X0010096Y0026893D01*
G01X0010085Y0026909D01*
G01X0009585Y0027409D01*
G01X0009569Y0027420D01*
G01X0009550Y0027423D01*
G01X0007550Y0027423D01*
G01X0007550Y0028473D01*
G01X0010079Y0028473D01*
G01X0011500Y0027052D01*
G01X0011500Y0027052D01*
G37*
G01X0011500Y0027052D02*
G01X0011500Y0021473D01*
G01X0011500Y0021473D02*
G01X0010100Y0021473D01*
G01X0010100Y0021473D02*
G01X0010100Y0026873D01*
G01X0010100Y0026873D02*
G01X0010096Y0026893D01*
G01X0010096Y0026893D02*
G01X0010085Y0026909D01*
G01X0010085Y0026909D02*
G01X0009585Y0027409D01*
G01X0009585Y0027409D02*
G01X0009569Y0027420D01*
G01X0009569Y0027420D02*
G01X0009550Y0027423D01*
G01X0009550Y0027423D02*
G01X0007550Y0027423D01*
G01X0007550Y0027423D02*
G01X0007550Y0028473D01*
G01X0007550Y0028473D02*
G01X0010079Y0028473D01*
G01X0010079Y0028473D02*
G01X0011500Y0027052D01*
G54D14*
G36*
G01X0006761Y0022073D02*
G01X0006764Y0022058D01*
G01X0006772Y0022045D01*
G01X0006822Y0021995D01*
G01X0006835Y0021987D01*
G01X0006850Y0021984D01*
G01X0006934Y0021984D01*
G01X0009272Y0019645D01*
G01X0009285Y0019637D01*
G01X0009300Y0019634D01*
G01X0011950Y0019634D01*
G01X0011965Y0019637D01*
G01X0011978Y0019645D01*
G01X0012716Y0020384D01*
G01X0013461Y0020384D01*
G01X0013461Y0019539D01*
G01X0012684Y0018763D01*
G01X0009400Y0018763D01*
G01X0009385Y0018759D01*
G01X0009372Y0018751D01*
G01X0009222Y0018601D01*
G01X0009213Y0018588D01*
G01X0009211Y0018573D01*
G01X0009211Y0018089D01*
G01X0009134Y0018013D01*
G01X0006516Y0018013D01*
G01X0006489Y0018039D01*
G01X0006489Y0018757D01*
G01X0006816Y0019084D01*
G01X0007100Y0019084D01*
G01X0007115Y0019087D01*
G01X0007128Y0019095D01*
G01X0007278Y0019245D01*
G01X0007287Y0019258D01*
G01X0007289Y0019273D01*
G01X0007289Y0020007D01*
G01X0007414Y0020131D01*
G01X0007460Y0020113D01*
G01X0007569Y0020112D01*
G01X0007621Y0020134D01*
G01X0007650Y0020134D01*
G01X0007665Y0020137D01*
G01X0007678Y0020145D01*
G01X0007778Y0020245D01*
G01X0007787Y0020258D01*
G01X0007789Y0020273D01*
G01X0007789Y0020331D01*
G01X0007790Y0020333D01*
G01X0007791Y0020443D01*
G01X0007789Y0020445D01*
G01X0007789Y0020473D01*
G01X0007786Y0020489D01*
G01X0007778Y0020501D01*
G01X0007758Y0020521D01*
G01X0007748Y0020544D01*
G01X0007671Y0020622D01*
G01X0007648Y0020631D01*
G01X0007428Y0020851D01*
G01X0007415Y0020860D01*
G01X0007400Y0020863D01*
G01X0006908Y0020863D01*
G01X0006908Y0020880D01*
G01X0006866Y0020981D01*
G01X0006790Y0021057D01*
G01X0006790Y0021396D01*
G01X0006790Y0021396D01*
G01X0006778Y0021457D01*
G01X0006744Y0021507D01*
G01X0006706Y0021545D01*
G01X0006706Y0022114D01*
G01X0006709Y0022118D01*
G01X0006718Y0022165D01*
G01X0006718Y0022384D01*
G01X0006761Y0022384D01*
G01X0006761Y0022073D01*
G01X0006761Y0022073D01*
G37*
G01X0006761Y0022073D02*
G01X0006764Y0022058D01*
G01X0006764Y0022058D02*
G01X0006772Y0022045D01*
G01X0006772Y0022045D02*
G01X0006822Y0021995D01*
G01X0006822Y0021995D02*
G01X0006835Y0021987D01*
G01X0006835Y0021987D02*
G01X0006850Y0021984D01*
G01X0006850Y0021984D02*
G01X0006934Y0021984D01*
G01X0006934Y0021984D02*
G01X0009272Y0019645D01*
G01X0009272Y0019645D02*
G01X0009285Y0019637D01*
G01X0009285Y0019637D02*
G01X0009300Y0019634D01*
G01X0009300Y0019634D02*
G01X0011950Y0019634D01*
G01X0011950Y0019634D02*
G01X0011965Y0019637D01*
G01X0011965Y0019637D02*
G01X0011978Y0019645D01*
G01X0011978Y0019645D02*
G01X0012716Y0020384D01*
G01X0012716Y0020384D02*
G01X0013461Y0020384D01*
G01X0013461Y0020384D02*
G01X0013461Y0019539D01*
G01X0013461Y0019539D02*
G01X0012684Y0018763D01*
G01X0012684Y0018763D02*
G01X0009400Y0018763D01*
G01X0009400Y0018763D02*
G01X0009385Y0018759D01*
G01X0009385Y0018759D02*
G01X0009372Y0018751D01*
G01X0009372Y0018751D02*
G01X0009222Y0018601D01*
G01X0009222Y0018601D02*
G01X0009213Y0018588D01*
G01X0009213Y0018588D02*
G01X0009211Y0018573D01*
G01X0009211Y0018573D02*
G01X0009211Y0018089D01*
G01X0009211Y0018089D02*
G01X0009134Y0018013D01*
G01X0009134Y0018013D02*
G01X0006516Y0018013D01*
G01X0006516Y0018013D02*
G01X0006489Y0018039D01*
G01X0006489Y0018039D02*
G01X0006489Y0018757D01*
G01X0006489Y0018757D02*
G01X0006816Y0019084D01*
G01X0006816Y0019084D02*
G01X0007100Y0019084D01*
G01X0007100Y0019084D02*
G01X0007115Y0019087D01*
G01X0007115Y0019087D02*
G01X0007128Y0019095D01*
G01X0007128Y0019095D02*
G01X0007278Y0019245D01*
G01X0007278Y0019245D02*
G01X0007287Y0019258D01*
G01X0007287Y0019258D02*
G01X0007289Y0019273D01*
G01X0007289Y0019273D02*
G01X0007289Y0020007D01*
G01X0007289Y0020007D02*
G01X0007414Y0020131D01*
G01X0007414Y0020131D02*
G01X0007460Y0020113D01*
G01X0007460Y0020113D02*
G01X0007569Y0020112D01*
G01X0007569Y0020112D02*
G01X0007621Y0020134D01*
G01X0007621Y0020134D02*
G01X0007650Y0020134D01*
G01X0007650Y0020134D02*
G01X0007665Y0020137D01*
G01X0007665Y0020137D02*
G01X0007678Y0020145D01*
G01X0007678Y0020145D02*
G01X0007778Y0020245D01*
G01X0007778Y0020245D02*
G01X0007787Y0020258D01*
G01X0007787Y0020258D02*
G01X0007789Y0020273D01*
G01X0007789Y0020273D02*
G01X0007789Y0020331D01*
G01X0007789Y0020331D02*
G01X0007790Y0020333D01*
G01X0007790Y0020333D02*
G01X0007791Y0020443D01*
G01X0007791Y0020443D02*
G01X0007789Y0020445D01*
G01X0007789Y0020445D02*
G01X0007789Y0020473D01*
G01X0007789Y0020473D02*
G01X0007786Y0020489D01*
G01X0007786Y0020489D02*
G01X0007778Y0020501D01*
G01X0007778Y0020501D02*
G01X0007758Y0020521D01*
G01X0007758Y0020521D02*
G01X0007748Y0020544D01*
G01X0007748Y0020544D02*
G01X0007671Y0020622D01*
G01X0007671Y0020622D02*
G01X0007648Y0020631D01*
G01X0007648Y0020631D02*
G01X0007428Y0020851D01*
G01X0007428Y0020851D02*
G01X0007415Y0020860D01*
G01X0007415Y0020860D02*
G01X0007400Y0020863D01*
G01X0007400Y0020863D02*
G01X0006908Y0020863D01*
G01X0006908Y0020863D02*
G01X0006908Y0020880D01*
G01X0006908Y0020880D02*
G01X0006866Y0020981D01*
G01X0006866Y0020981D02*
G01X0006790Y0021057D01*
G01X0006790Y0021057D02*
G01X0006790Y0021396D01*
G01X0006790Y0021396D02*
G01X0006790Y0021396D01*
G01X0006790Y0021396D02*
G01X0006778Y0021457D01*
G01X0006778Y0021457D02*
G01X0006744Y0021507D01*
G01X0006744Y0021507D02*
G01X0006706Y0021545D01*
G01X0006706Y0021545D02*
G01X0006706Y0022114D01*
G01X0006706Y0022114D02*
G01X0006709Y0022118D01*
G01X0006709Y0022118D02*
G01X0006718Y0022165D01*
G01X0006718Y0022165D02*
G01X0006718Y0022384D01*
G01X0006718Y0022384D02*
G01X0006761Y0022384D01*
G01X0006761Y0022384D02*
G01X0006761Y0022073D01*
G36*
G01X0003309Y0030391D02*
G01X0003269Y0030486D01*
G01X0002815Y0030941D01*
G01X0002222Y0031187D01*
G01X0001580Y0031188D01*
G01X0000987Y0030943D01*
G01X0000532Y0030489D01*
G01X0000286Y0029896D01*
G01X0000285Y0029254D01*
G01X0000531Y0028660D01*
G01X0000985Y0028206D01*
G01X0001578Y0027959D01*
G01X0002220Y0027959D01*
G01X0002813Y0028204D01*
G01X0003133Y0028523D01*
G01X0007343Y0028523D01*
G01X0007343Y0027373D01*
G01X0007353Y0027316D01*
G01X0007387Y0027263D01*
G01X0007439Y0027228D01*
G01X0007500Y0027216D01*
G01X0009485Y0027216D01*
G01X0009893Y0026808D01*
G01X0009893Y0021423D01*
G01X0009903Y0021366D01*
G01X0009937Y0021313D01*
G01X0009989Y0021278D01*
G01X0010050Y0021266D01*
G01X0011550Y0021266D01*
G01X0011607Y0021276D01*
G01X0011660Y0021310D01*
G01X0011695Y0021362D01*
G01X0011707Y0021423D01*
G01X0011707Y0027073D01*
G01X0011696Y0027133D01*
G01X0011661Y0027185D01*
G01X0010211Y0028635D01*
G01X0010161Y0028668D01*
G01X0010100Y0028681D01*
G01X0007500Y0028681D01*
G01X0007443Y0028670D01*
G01X0007390Y0028636D01*
G01X0007355Y0028585D01*
G01X0007343Y0028523D01*
G01X0003133Y0028523D01*
G01X0003268Y0028658D01*
G01X0003514Y0029251D01*
G01X0003515Y0029893D01*
G01X0003375Y0030230D01*
G01X0005691Y0030230D01*
G01X0005691Y0031296D01*
G01X0008987Y0031296D01*
G01X0008987Y0030106D01*
G01X0012373Y0030106D01*
G01X0012286Y0029896D01*
G01X0012285Y0029254D01*
G01X0012531Y0028660D01*
G01X0012985Y0028206D01*
G01X0013578Y0027959D01*
G01X0014220Y0027959D01*
G01X0014813Y0028204D01*
G01X0015268Y0028658D01*
G01X0015514Y0029251D01*
G01X0015515Y0029893D01*
G01X0015269Y0030486D01*
G01X0014815Y0030941D01*
G01X0014222Y0031187D01*
G01X0013580Y0031188D01*
G01X0012987Y0030943D01*
G01X0012613Y0030569D01*
G01X0012613Y0031296D01*
G01X0015623Y0031296D01*
G01X0015623Y0015850D01*
G01X0000177Y0015850D01*
G01X0000177Y0017254D01*
G01X0000285Y0017254D01*
G01X0000531Y0016660D01*
G01X0000985Y0016206D01*
G01X0001578Y0015959D01*
G01X0002220Y0015959D01*
G01X0002813Y0016204D01*
G01X0003268Y0016658D01*
G01X0003514Y0017251D01*
G01X0003515Y0017893D01*
G01X0003269Y0018486D01*
G01X0003083Y0018673D01*
G01X0004389Y0018673D01*
G01X0004389Y0018073D01*
G01X0004400Y0018015D01*
G01X0004435Y0017961D01*
G01X0004487Y0017925D01*
G01X0004550Y0017913D01*
G01X0004614Y0017913D01*
G01X0004614Y0017834D01*
G01X0004550Y0017834D01*
G01X0004492Y0017823D01*
G01X0004438Y0017788D01*
G01X0004402Y0017736D01*
G01X0004389Y0017673D01*
G01X0004389Y0017073D01*
G01X0004400Y0017015D01*
G01X0004435Y0016961D01*
G01X0004487Y0016925D01*
G01X0004550Y0016913D01*
G01X0005150Y0016913D01*
G01X0005208Y0016924D01*
G01X0005262Y0016958D01*
G01X0005298Y0017011D01*
G01X0005311Y0017073D01*
G01X0005311Y0017673D01*
G01X0005300Y0017731D01*
G01X0005265Y0017785D01*
G01X0005213Y0017821D01*
G01X0005150Y0017834D01*
G01X0005086Y0017834D01*
G01X0005086Y0017913D01*
G01X0005150Y0017913D01*
G01X0005208Y0017924D01*
G01X0005262Y0017958D01*
G01X0005298Y0018011D01*
G01X0005311Y0018073D01*
G01X0005311Y0018673D01*
G01X0005300Y0018731D01*
G01X0005265Y0018785D01*
G01X0005213Y0018821D01*
G01X0005150Y0018834D01*
G01X0004550Y0018834D01*
G01X0004492Y0018823D01*
G01X0004438Y0018788D01*
G01X0004402Y0018736D01*
G01X0004389Y0018673D01*
G01X0003083Y0018673D01*
G01X0002815Y0018941D01*
G01X0002222Y0019187D01*
G01X0001580Y0019188D01*
G01X0000987Y0018943D01*
G01X0000532Y0018489D01*
G01X0000286Y0017896D01*
G01X0000285Y0017254D01*
G01X0000177Y0017254D01*
G01X0000177Y0026623D01*
G01X0000843Y0026623D01*
G01X0000843Y0025623D01*
G01X0000853Y0025566D01*
G01X0000887Y0025513D01*
G01X0000939Y0025478D01*
G01X0001000Y0025466D01*
G01X0002985Y0025466D01*
G01X0003452Y0024998D01*
G01X0002989Y0024535D01*
G01X0002955Y0024485D01*
G01X0002943Y0024423D01*
G01X0002943Y0023995D01*
G01X0002641Y0023731D01*
G01X0001200Y0023731D01*
G01X0001143Y0023720D01*
G01X0001090Y0023686D01*
G01X0001055Y0023635D01*
G01X0001043Y0023573D01*
G01X0001043Y0023499D01*
G01X0001033Y0023486D01*
G01X0001021Y0023423D01*
G01X0001021Y0021923D01*
G01X0001032Y0021865D01*
G01X0001050Y0021837D01*
G01X0001054Y0021814D01*
G01X0001089Y0021762D01*
G01X0001141Y0021727D01*
G01X0001202Y0021716D01*
G01X0004532Y0021763D01*
G01X0004650Y0021763D01*
G01X0004659Y0021765D01*
G01X0004752Y0021766D01*
G01X0004807Y0021776D01*
G01X0004860Y0021810D01*
G01X0004895Y0021862D01*
G01X0004907Y0021923D01*
G01X0004907Y0024516D01*
G01X0005197Y0024516D01*
G01X0005133Y0024452D01*
G01X0005085Y0024336D01*
G01X0005085Y0024211D01*
G01X0005133Y0024095D01*
G01X0005155Y0024073D01*
G01X0005133Y0024052D01*
G01X0005085Y0023936D01*
G01X0005085Y0023811D01*
G01X0005133Y0023695D01*
G01X0005221Y0023606D01*
G01X0005233Y0023602D01*
G01X0005185Y0023486D01*
G01X0005185Y0023361D01*
G01X0005233Y0023245D01*
G01X0005321Y0023156D01*
G01X0005437Y0023108D01*
G01X0005562Y0023108D01*
G01X0005678Y0023156D01*
G01X0005763Y0023241D01*
G01X0005794Y0023194D01*
G01X0005846Y0023158D01*
G01X0005909Y0023146D01*
G01X0006007Y0023146D01*
G01X0006058Y0023156D01*
G01X0006106Y0023146D01*
G01X0006204Y0023146D01*
G01X0006255Y0023156D01*
G01X0006302Y0023146D01*
G01X0006401Y0023146D01*
G01X0006452Y0023156D01*
G01X0006499Y0023146D01*
G01X0006598Y0023146D01*
G01X0006649Y0023156D01*
G01X0006696Y0023146D01*
G01X0006794Y0023146D01*
G01X0006846Y0023156D01*
G01X0006893Y0023146D01*
G01X0006991Y0023146D01*
G01X0007050Y0023157D01*
G01X0007064Y0023166D01*
G01X0007200Y0023166D01*
G01X0007259Y0023177D01*
G01X0007311Y0023212D01*
G01X0007643Y0023543D01*
G01X0007643Y0022939D01*
G01X0007285Y0022581D01*
G01X0007065Y0022581D01*
G01X0007054Y0022588D01*
G01X0006991Y0022601D01*
G01X0006893Y0022601D01*
G01X0006842Y0022591D01*
G01X0006794Y0022601D01*
G01X0006696Y0022601D01*
G01X0006645Y0022591D01*
G01X0006598Y0022601D01*
G01X0006499Y0022601D01*
G01X0006448Y0022591D01*
G01X0006401Y0022601D01*
G01X0006302Y0022601D01*
G01X0006251Y0022591D01*
G01X0006204Y0022601D01*
G01X0006106Y0022601D01*
G01X0006054Y0022591D01*
G01X0006007Y0022601D01*
G01X0005909Y0022601D01*
G01X0005850Y0022590D01*
G01X0005797Y0022555D01*
G01X0005761Y0022503D01*
G01X0005748Y0022440D01*
G01X0005748Y0022165D01*
G01X0005758Y0022110D01*
G01X0005561Y0021913D01*
G01X0005518Y0021848D01*
G01X0005503Y0021773D01*
G01X0005503Y0021248D01*
G01X0005513Y0021198D01*
G01X0005518Y0021173D01*
G01X0005561Y0021109D01*
G01X0005689Y0020980D01*
G01X0005689Y0020548D01*
G01X0005700Y0020490D01*
G01X0005735Y0020436D01*
G01X0005787Y0020400D01*
G01X0005850Y0020388D01*
G01X0006200Y0020388D01*
G01X0006258Y0020399D01*
G01X0006312Y0020433D01*
G01X0006348Y0020486D01*
G01X0006361Y0020548D01*
G01X0006361Y0020658D01*
G01X0006365Y0020647D01*
G01X0006454Y0020558D01*
G01X0006569Y0020510D01*
G01X0006694Y0020510D01*
G01X0006810Y0020558D01*
G01X0006899Y0020646D01*
G01X0006907Y0020666D01*
G01X0007335Y0020666D01*
G01X0007593Y0020408D01*
G01X0007593Y0020339D01*
G01X0007585Y0020331D01*
G01X0007400Y0020331D01*
G01X0007341Y0020319D01*
G01X0007289Y0020285D01*
G01X0007139Y0020135D01*
G01X0007105Y0020085D01*
G01X0007093Y0020023D01*
G01X0007093Y0020018D01*
G01X0007065Y0020060D01*
G01X0007013Y0020096D01*
G01X0006950Y0020109D01*
G01X0006600Y0020109D01*
G01X0006542Y0020098D01*
G01X0006488Y0020063D01*
G01X0006452Y0020011D01*
G01X0006448Y0019988D01*
G01X0006388Y0019988D01*
G01X0006356Y0019975D01*
G01X0006350Y0020007D01*
G01X0006315Y0020060D01*
G01X0006263Y0020096D01*
G01X0006200Y0020109D01*
G01X0005850Y0020109D01*
G01X0005792Y0020098D01*
G01X0005738Y0020063D01*
G01X0005702Y0020011D01*
G01X0005689Y0019948D01*
G01X0005689Y0019398D01*
G01X0005700Y0019340D01*
G01X0005735Y0019286D01*
G01X0005787Y0019250D01*
G01X0005850Y0019238D01*
G01X0006200Y0019238D01*
G01X0006258Y0019249D01*
G01X0006312Y0019283D01*
G01X0006348Y0019336D01*
G01X0006355Y0019372D01*
G01X0006387Y0019358D01*
G01X0006447Y0019358D01*
G01X0006450Y0019340D01*
G01X0006485Y0019286D01*
G01X0006537Y0019250D01*
G01X0006600Y0019238D01*
G01X0006693Y0019238D01*
G01X0006689Y0019235D01*
G01X0006339Y0018885D01*
G01X0006305Y0018835D01*
G01X0006293Y0018773D01*
G01X0006293Y0018743D01*
G01X0006265Y0018785D01*
G01X0006213Y0018821D01*
G01X0006150Y0018834D01*
G01X0005550Y0018834D01*
G01X0005492Y0018823D01*
G01X0005438Y0018788D01*
G01X0005402Y0018736D01*
G01X0005389Y0018673D01*
G01X0005389Y0018073D01*
G01X0005400Y0018015D01*
G01X0005435Y0017961D01*
G01X0005487Y0017925D01*
G01X0005550Y0017913D01*
G01X0005614Y0017913D01*
G01X0005614Y0017834D01*
G01X0005550Y0017834D01*
G01X0005492Y0017823D01*
G01X0005438Y0017788D01*
G01X0005402Y0017736D01*
G01X0005389Y0017673D01*
G01X0005389Y0017073D01*
G01X0005400Y0017015D01*
G01X0005435Y0016961D01*
G01X0005487Y0016925D01*
G01X0005550Y0016913D01*
G01X0006150Y0016913D01*
G01X0006208Y0016924D01*
G01X0006262Y0016958D01*
G01X0006298Y0017011D01*
G01X0006311Y0017073D01*
G01X0006311Y0017673D01*
G01X0006300Y0017731D01*
G01X0006265Y0017785D01*
G01X0006213Y0017821D01*
G01X0006150Y0017834D01*
G01X0006086Y0017834D01*
G01X0006086Y0017913D01*
G01X0006150Y0017913D01*
G01X0006208Y0017924D01*
G01X0006262Y0017958D01*
G01X0006296Y0018007D01*
G01X0006304Y0017964D01*
G01X0006339Y0017912D01*
G01X0006389Y0017862D01*
G01X0006439Y0017828D01*
G01X0006485Y0017819D01*
G01X0006438Y0017788D01*
G01X0006402Y0017736D01*
G01X0006389Y0017673D01*
G01X0006389Y0017073D01*
G01X0006400Y0017015D01*
G01X0006435Y0016961D01*
G01X0006487Y0016925D01*
G01X0006550Y0016913D01*
G01X0007150Y0016913D01*
G01X0007208Y0016924D01*
G01X0007262Y0016958D01*
G01X0007298Y0017011D01*
G01X0007311Y0017073D01*
G01X0007311Y0017673D01*
G01X0007300Y0017731D01*
G01X0007265Y0017785D01*
G01X0007220Y0017816D01*
G01X0007481Y0017816D01*
G01X0007438Y0017788D01*
G01X0007402Y0017736D01*
G01X0007389Y0017673D01*
G01X0007389Y0017073D01*
G01X0007400Y0017015D01*
G01X0007435Y0016961D01*
G01X0007487Y0016925D01*
G01X0007550Y0016913D01*
G01X0008150Y0016913D01*
G01X0008208Y0016924D01*
G01X0008262Y0016958D01*
G01X0008298Y0017011D01*
G01X0008311Y0017073D01*
G01X0008311Y0017673D01*
G01X0008300Y0017731D01*
G01X0008265Y0017785D01*
G01X0008220Y0017816D01*
G01X0008481Y0017816D01*
G01X0008438Y0017788D01*
G01X0008402Y0017736D01*
G01X0008389Y0017673D01*
G01X0008389Y0017073D01*
G01X0008400Y0017015D01*
G01X0008435Y0016961D01*
G01X0008487Y0016925D01*
G01X0008550Y0016913D01*
G01X0009150Y0016913D01*
G01X0009208Y0016924D01*
G01X0009262Y0016958D01*
G01X0009298Y0017011D01*
G01X0009311Y0017073D01*
G01X0009311Y0017673D01*
G01X0009300Y0017731D01*
G01X0009265Y0017785D01*
G01X0009213Y0017821D01*
G01X0009195Y0017825D01*
G01X0009209Y0017827D01*
G01X0009261Y0017862D01*
G01X0009361Y0017962D01*
G01X0009395Y0018012D01*
G01X0009407Y0018073D01*
G01X0009407Y0018508D01*
G01X0009465Y0018566D01*
G01X0012609Y0018566D01*
G01X0012532Y0018489D01*
G01X0012286Y0017896D01*
G01X0012285Y0017254D01*
G01X0012531Y0016660D01*
G01X0012985Y0016206D01*
G01X0013578Y0015959D01*
G01X0014220Y0015959D01*
G01X0014813Y0016204D01*
G01X0015268Y0016658D01*
G01X0015514Y0017251D01*
G01X0015515Y0017893D01*
G01X0015269Y0018486D01*
G01X0014815Y0018941D01*
G01X0014222Y0019187D01*
G01X0013580Y0019188D01*
G01X0013251Y0019052D01*
G01X0013611Y0019412D01*
G01X0013645Y0019462D01*
G01X0013657Y0019523D01*
G01X0013657Y0020423D01*
G01X0013647Y0020480D01*
G01X0013615Y0020530D01*
G01X0013604Y0020587D01*
G01X0013570Y0020640D01*
G01X0013517Y0020676D01*
G01X0013454Y0020689D01*
G01X0012746Y0020689D01*
G01X0012687Y0020678D01*
G01X0012633Y0020643D01*
G01X0012598Y0020591D01*
G01X0012585Y0020531D01*
G01X0011885Y0019831D01*
G01X0009365Y0019831D01*
G01X0007980Y0021216D01*
G01X0009300Y0021216D01*
G01X0009357Y0021226D01*
G01X0009410Y0021260D01*
G01X0009445Y0021312D01*
G01X0009457Y0021373D01*
G01X0009457Y0023823D01*
G01X0009447Y0023880D01*
G01X0009413Y0023933D01*
G01X0009361Y0023968D01*
G01X0009300Y0023981D01*
G01X0008624Y0023981D01*
G01X0008645Y0024012D01*
G01X0008657Y0024073D01*
G01X0008657Y0024808D01*
G01X0009261Y0025412D01*
G01X0009295Y0025462D01*
G01X0009307Y0025523D01*
G01X0009307Y0027023D01*
G01X0009297Y0027080D01*
G01X0009263Y0027133D01*
G01X0009211Y0027168D01*
G01X0009150Y0027181D01*
G01X0007800Y0027181D01*
G01X0007743Y0027170D01*
G01X0007690Y0027136D01*
G01X0007655Y0027085D01*
G01X0007643Y0027023D01*
G01X0007643Y0025539D01*
G01X0006962Y0024858D01*
G01X0006962Y0026693D01*
G01X0006957Y0026715D01*
G01X0006957Y0027173D01*
G01X0006946Y0027233D01*
G01X0006911Y0027285D01*
G01X0005911Y0028285D01*
G01X0005861Y0028318D01*
G01X0005800Y0028331D01*
G01X0004550Y0028331D01*
G01X0004491Y0028319D01*
G01X0004439Y0028285D01*
G01X0002935Y0026781D01*
G01X0001000Y0026781D01*
G01X0000943Y0026770D01*
G01X0000890Y0026736D01*
G01X0000855Y0026685D01*
G01X0000843Y0026623D01*
G01X0000177Y0026623D01*
G01X0000177Y0031296D01*
G01X0003309Y0031296D01*
G01X0003309Y0030391D01*
G01X0003309Y0030391D01*
G37*
G01X0003309Y0030391D02*
G01X0003269Y0030486D01*
G01X0003269Y0030486D02*
G01X0002815Y0030941D01*
G01X0002815Y0030941D02*
G01X0002222Y0031187D01*
G01X0002222Y0031187D02*
G01X0001580Y0031188D01*
G01X0001580Y0031188D02*
G01X0000987Y0030943D01*
G01X0000987Y0030943D02*
G01X0000532Y0030489D01*
G01X0000532Y0030489D02*
G01X0000286Y0029896D01*
G01X0000286Y0029896D02*
G01X0000285Y0029254D01*
G01X0000285Y0029254D02*
G01X0000531Y0028660D01*
G01X0000531Y0028660D02*
G01X0000985Y0028206D01*
G01X0000985Y0028206D02*
G01X0001578Y0027959D01*
G01X0001578Y0027959D02*
G01X0002220Y0027959D01*
G01X0002220Y0027959D02*
G01X0002813Y0028204D01*
G01X0002813Y0028204D02*
G01X0003133Y0028523D01*
G01X0003133Y0028523D02*
G01X0007343Y0028523D01*
G01X0007343Y0028523D02*
G01X0007343Y0027373D01*
G01X0007343Y0027373D02*
G01X0007353Y0027316D01*
G01X0007353Y0027316D02*
G01X0007387Y0027263D01*
G01X0007387Y0027263D02*
G01X0007439Y0027228D01*
G01X0007439Y0027228D02*
G01X0007500Y0027216D01*
G01X0007500Y0027216D02*
G01X0009485Y0027216D01*
G01X0009485Y0027216D02*
G01X0009893Y0026808D01*
G01X0009893Y0026808D02*
G01X0009893Y0021423D01*
G01X0009893Y0021423D02*
G01X0009903Y0021366D01*
G01X0009903Y0021366D02*
G01X0009937Y0021313D01*
G01X0009937Y0021313D02*
G01X0009989Y0021278D01*
G01X0009989Y0021278D02*
G01X0010050Y0021266D01*
G01X0010050Y0021266D02*
G01X0011550Y0021266D01*
G01X0011550Y0021266D02*
G01X0011607Y0021276D01*
G01X0011607Y0021276D02*
G01X0011660Y0021310D01*
G01X0011660Y0021310D02*
G01X0011695Y0021362D01*
G01X0011695Y0021362D02*
G01X0011707Y0021423D01*
G01X0011707Y0021423D02*
G01X0011707Y0027073D01*
G01X0011707Y0027073D02*
G01X0011696Y0027133D01*
G01X0011696Y0027133D02*
G01X0011661Y0027185D01*
G01X0011661Y0027185D02*
G01X0010211Y0028635D01*
G01X0010211Y0028635D02*
G01X0010161Y0028668D01*
G01X0010161Y0028668D02*
G01X0010100Y0028681D01*
G01X0010100Y0028681D02*
G01X0007500Y0028681D01*
G01X0007500Y0028681D02*
G01X0007443Y0028670D01*
G01X0007443Y0028670D02*
G01X0007390Y0028636D01*
G01X0007390Y0028636D02*
G01X0007355Y0028585D01*
G01X0007355Y0028585D02*
G01X0007343Y0028523D01*
G01X0007343Y0028523D02*
G01X0003133Y0028523D01*
G01X0003133Y0028523D02*
G01X0003268Y0028658D01*
G01X0003268Y0028658D02*
G01X0003514Y0029251D01*
G01X0003514Y0029251D02*
G01X0003515Y0029893D01*
G01X0003515Y0029893D02*
G01X0003375Y0030230D01*
G01X0003375Y0030230D02*
G01X0005691Y0030230D01*
G01X0005691Y0030230D02*
G01X0005691Y0031296D01*
G01X0005691Y0031296D02*
G01X0008987Y0031296D01*
G01X0008987Y0031296D02*
G01X0008987Y0030106D01*
G01X0008987Y0030106D02*
G01X0012373Y0030106D01*
G01X0012373Y0030106D02*
G01X0012286Y0029896D01*
G01X0012286Y0029896D02*
G01X0012285Y0029254D01*
G01X0012285Y0029254D02*
G01X0012531Y0028660D01*
G01X0012531Y0028660D02*
G01X0012985Y0028206D01*
G01X0012985Y0028206D02*
G01X0013578Y0027959D01*
G01X0013578Y0027959D02*
G01X0014220Y0027959D01*
G01X0014220Y0027959D02*
G01X0014813Y0028204D01*
G01X0014813Y0028204D02*
G01X0015268Y0028658D01*
G01X0015268Y0028658D02*
G01X0015514Y0029251D01*
G01X0015514Y0029251D02*
G01X0015515Y0029893D01*
G01X0015515Y0029893D02*
G01X0015269Y0030486D01*
G01X0015269Y0030486D02*
G01X0014815Y0030941D01*
G01X0014815Y0030941D02*
G01X0014222Y0031187D01*
G01X0014222Y0031187D02*
G01X0013580Y0031188D01*
G01X0013580Y0031188D02*
G01X0012987Y0030943D01*
G01X0012987Y0030943D02*
G01X0012613Y0030569D01*
G01X0012613Y0030569D02*
G01X0012613Y0031296D01*
G01X0012613Y0031296D02*
G01X0015623Y0031296D01*
G01X0015623Y0031296D02*
G01X0015623Y0015850D01*
G01X0015623Y0015850D02*
G01X0000177Y0015850D01*
G01X0000177Y0015850D02*
G01X0000177Y0017254D01*
G01X0000177Y0017254D02*
G01X0000285Y0017254D01*
G01X0000285Y0017254D02*
G01X0000531Y0016660D01*
G01X0000531Y0016660D02*
G01X0000985Y0016206D01*
G01X0000985Y0016206D02*
G01X0001578Y0015959D01*
G01X0001578Y0015959D02*
G01X0002220Y0015959D01*
G01X0002220Y0015959D02*
G01X0002813Y0016204D01*
G01X0002813Y0016204D02*
G01X0003268Y0016658D01*
G01X0003268Y0016658D02*
G01X0003514Y0017251D01*
G01X0003514Y0017251D02*
G01X0003515Y0017893D01*
G01X0003515Y0017893D02*
G01X0003269Y0018486D01*
G01X0003269Y0018486D02*
G01X0003083Y0018673D01*
G01X0003083Y0018673D02*
G01X0004389Y0018673D01*
G01X0004389Y0018673D02*
G01X0004389Y0018073D01*
G01X0004389Y0018073D02*
G01X0004400Y0018015D01*
G01X0004400Y0018015D02*
G01X0004435Y0017961D01*
G01X0004435Y0017961D02*
G01X0004487Y0017925D01*
G01X0004487Y0017925D02*
G01X0004550Y0017913D01*
G01X0004550Y0017913D02*
G01X0004614Y0017913D01*
G01X0004614Y0017913D02*
G01X0004614Y0017834D01*
G01X0004614Y0017834D02*
G01X0004550Y0017834D01*
G01X0004550Y0017834D02*
G01X0004492Y0017823D01*
G01X0004492Y0017823D02*
G01X0004438Y0017788D01*
G01X0004438Y0017788D02*
G01X0004402Y0017736D01*
G01X0004402Y0017736D02*
G01X0004389Y0017673D01*
G01X0004389Y0017673D02*
G01X0004389Y0017073D01*
G01X0004389Y0017073D02*
G01X0004400Y0017015D01*
G01X0004400Y0017015D02*
G01X0004435Y0016961D01*
G01X0004435Y0016961D02*
G01X0004487Y0016925D01*
G01X0004487Y0016925D02*
G01X0004550Y0016913D01*
G01X0004550Y0016913D02*
G01X0005150Y0016913D01*
G01X0005150Y0016913D02*
G01X0005208Y0016924D01*
G01X0005208Y0016924D02*
G01X0005262Y0016958D01*
G01X0005262Y0016958D02*
G01X0005298Y0017011D01*
G01X0005298Y0017011D02*
G01X0005311Y0017073D01*
G01X0005311Y0017073D02*
G01X0005311Y0017673D01*
G01X0005311Y0017673D02*
G01X0005300Y0017731D01*
G01X0005300Y0017731D02*
G01X0005265Y0017785D01*
G01X0005265Y0017785D02*
G01X0005213Y0017821D01*
G01X0005213Y0017821D02*
G01X0005150Y0017834D01*
G01X0005150Y0017834D02*
G01X0005086Y0017834D01*
G01X0005086Y0017834D02*
G01X0005086Y0017913D01*
G01X0005086Y0017913D02*
G01X0005150Y0017913D01*
G01X0005150Y0017913D02*
G01X0005208Y0017924D01*
G01X0005208Y0017924D02*
G01X0005262Y0017958D01*
G01X0005262Y0017958D02*
G01X0005298Y0018011D01*
G01X0005298Y0018011D02*
G01X0005311Y0018073D01*
G01X0005311Y0018073D02*
G01X0005311Y0018673D01*
G01X0005311Y0018673D02*
G01X0005300Y0018731D01*
G01X0005300Y0018731D02*
G01X0005265Y0018785D01*
G01X0005265Y0018785D02*
G01X0005213Y0018821D01*
G01X0005213Y0018821D02*
G01X0005150Y0018834D01*
G01X0005150Y0018834D02*
G01X0004550Y0018834D01*
G01X0004550Y0018834D02*
G01X0004492Y0018823D01*
G01X0004492Y0018823D02*
G01X0004438Y0018788D01*
G01X0004438Y0018788D02*
G01X0004402Y0018736D01*
G01X0004402Y0018736D02*
G01X0004389Y0018673D01*
G01X0004389Y0018673D02*
G01X0003083Y0018673D01*
G01X0003083Y0018673D02*
G01X0002815Y0018941D01*
G01X0002815Y0018941D02*
G01X0002222Y0019187D01*
G01X0002222Y0019187D02*
G01X0001580Y0019188D01*
G01X0001580Y0019188D02*
G01X0000987Y0018943D01*
G01X0000987Y0018943D02*
G01X0000532Y0018489D01*
G01X0000532Y0018489D02*
G01X0000286Y0017896D01*
G01X0000286Y0017896D02*
G01X0000285Y0017254D01*
G01X0000285Y0017254D02*
G01X0000177Y0017254D01*
G01X0000177Y0017254D02*
G01X0000177Y0026623D01*
G01X0000177Y0026623D02*
G01X0000843Y0026623D01*
G01X0000843Y0026623D02*
G01X0000843Y0025623D01*
G01X0000843Y0025623D02*
G01X0000853Y0025566D01*
G01X0000853Y0025566D02*
G01X0000887Y0025513D01*
G01X0000887Y0025513D02*
G01X0000939Y0025478D01*
G01X0000939Y0025478D02*
G01X0001000Y0025466D01*
G01X0001000Y0025466D02*
G01X0002985Y0025466D01*
G01X0002985Y0025466D02*
G01X0003452Y0024998D01*
G01X0003452Y0024998D02*
G01X0002989Y0024535D01*
G01X0002989Y0024535D02*
G01X0002955Y0024485D01*
G01X0002955Y0024485D02*
G01X0002943Y0024423D01*
G01X0002943Y0024423D02*
G01X0002943Y0023995D01*
G01X0002943Y0023995D02*
G01X0002641Y0023731D01*
G01X0002641Y0023731D02*
G01X0001200Y0023731D01*
G01X0001200Y0023731D02*
G01X0001143Y0023720D01*
G01X0001143Y0023720D02*
G01X0001090Y0023686D01*
G01X0001090Y0023686D02*
G01X0001055Y0023635D01*
G01X0001055Y0023635D02*
G01X0001043Y0023573D01*
G01X0001043Y0023573D02*
G01X0001043Y0023499D01*
G01X0001043Y0023499D02*
G01X0001033Y0023486D01*
G01X0001033Y0023486D02*
G01X0001021Y0023423D01*
G01X0001021Y0023423D02*
G01X0001021Y0021923D01*
G01X0001021Y0021923D02*
G01X0001032Y0021865D01*
G01X0001032Y0021865D02*
G01X0001050Y0021837D01*
G01X0001050Y0021837D02*
G01X0001054Y0021814D01*
G01X0001054Y0021814D02*
G01X0001089Y0021762D01*
G01X0001089Y0021762D02*
G01X0001141Y0021727D01*
G01X0001141Y0021727D02*
G01X0001202Y0021716D01*
G01X0001202Y0021716D02*
G01X0004532Y0021763D01*
G01X0004532Y0021763D02*
G01X0004650Y0021763D01*
G01X0004650Y0021763D02*
G01X0004659Y0021765D01*
G01X0004659Y0021765D02*
G01X0004752Y0021766D01*
G01X0004752Y0021766D02*
G01X0004807Y0021776D01*
G01X0004807Y0021776D02*
G01X0004860Y0021810D01*
G01X0004860Y0021810D02*
G01X0004895Y0021862D01*
G01X0004895Y0021862D02*
G01X0004907Y0021923D01*
G01X0004907Y0021923D02*
G01X0004907Y0024516D01*
G01X0004907Y0024516D02*
G01X0005197Y0024516D01*
G01X0005197Y0024516D02*
G01X0005133Y0024452D01*
G01X0005133Y0024452D02*
G01X0005085Y0024336D01*
G01X0005085Y0024336D02*
G01X0005085Y0024211D01*
G01X0005085Y0024211D02*
G01X0005133Y0024095D01*
G01X0005133Y0024095D02*
G01X0005155Y0024073D01*
G01X0005155Y0024073D02*
G01X0005133Y0024052D01*
G01X0005133Y0024052D02*
G01X0005085Y0023936D01*
G01X0005085Y0023936D02*
G01X0005085Y0023811D01*
G01X0005085Y0023811D02*
G01X0005133Y0023695D01*
G01X0005133Y0023695D02*
G01X0005221Y0023606D01*
G01X0005221Y0023606D02*
G01X0005233Y0023602D01*
G01X0005233Y0023602D02*
G01X0005185Y0023486D01*
G01X0005185Y0023486D02*
G01X0005185Y0023361D01*
G01X0005185Y0023361D02*
G01X0005233Y0023245D01*
G01X0005233Y0023245D02*
G01X0005321Y0023156D01*
G01X0005321Y0023156D02*
G01X0005437Y0023108D01*
G01X0005437Y0023108D02*
G01X0005562Y0023108D01*
G01X0005562Y0023108D02*
G01X0005678Y0023156D01*
G01X0005678Y0023156D02*
G01X0005763Y0023241D01*
G01X0005763Y0023241D02*
G01X0005794Y0023194D01*
G01X0005794Y0023194D02*
G01X0005846Y0023158D01*
G01X0005846Y0023158D02*
G01X0005909Y0023146D01*
G01X0005909Y0023146D02*
G01X0006007Y0023146D01*
G01X0006007Y0023146D02*
G01X0006058Y0023156D01*
G01X0006058Y0023156D02*
G01X0006106Y0023146D01*
G01X0006106Y0023146D02*
G01X0006204Y0023146D01*
G01X0006204Y0023146D02*
G01X0006255Y0023156D01*
G01X0006255Y0023156D02*
G01X0006302Y0023146D01*
G01X0006302Y0023146D02*
G01X0006401Y0023146D01*
G01X0006401Y0023146D02*
G01X0006452Y0023156D01*
G01X0006452Y0023156D02*
G01X0006499Y0023146D01*
G01X0006499Y0023146D02*
G01X0006598Y0023146D01*
G01X0006598Y0023146D02*
G01X0006649Y0023156D01*
G01X0006649Y0023156D02*
G01X0006696Y0023146D01*
G01X0006696Y0023146D02*
G01X0006794Y0023146D01*
G01X0006794Y0023146D02*
G01X0006846Y0023156D01*
G01X0006846Y0023156D02*
G01X0006893Y0023146D01*
G01X0006893Y0023146D02*
G01X0006991Y0023146D01*
G01X0006991Y0023146D02*
G01X0007050Y0023157D01*
G01X0007050Y0023157D02*
G01X0007064Y0023166D01*
G01X0007064Y0023166D02*
G01X0007200Y0023166D01*
G01X0007200Y0023166D02*
G01X0007259Y0023177D01*
G01X0007259Y0023177D02*
G01X0007311Y0023212D01*
G01X0007311Y0023212D02*
G01X0007643Y0023543D01*
G01X0007643Y0023543D02*
G01X0007643Y0022939D01*
G01X0007643Y0022939D02*
G01X0007285Y0022581D01*
G01X0007285Y0022581D02*
G01X0007065Y0022581D01*
G01X0007065Y0022581D02*
G01X0007054Y0022588D01*
G01X0007054Y0022588D02*
G01X0006991Y0022601D01*
G01X0006991Y0022601D02*
G01X0006893Y0022601D01*
G01X0006893Y0022601D02*
G01X0006842Y0022591D01*
G01X0006842Y0022591D02*
G01X0006794Y0022601D01*
G01X0006794Y0022601D02*
G01X0006696Y0022601D01*
G01X0006696Y0022601D02*
G01X0006645Y0022591D01*
G01X0006645Y0022591D02*
G01X0006598Y0022601D01*
G01X0006598Y0022601D02*
G01X0006499Y0022601D01*
G01X0006499Y0022601D02*
G01X0006448Y0022591D01*
G01X0006448Y0022591D02*
G01X0006401Y0022601D01*
G01X0006401Y0022601D02*
G01X0006302Y0022601D01*
G01X0006302Y0022601D02*
G01X0006251Y0022591D01*
G01X0006251Y0022591D02*
G01X0006204Y0022601D01*
G01X0006204Y0022601D02*
G01X0006106Y0022601D01*
G01X0006106Y0022601D02*
G01X0006054Y0022591D01*
G01X0006054Y0022591D02*
G01X0006007Y0022601D01*
G01X0006007Y0022601D02*
G01X0005909Y0022601D01*
G01X0005909Y0022601D02*
G01X0005850Y0022590D01*
G01X0005850Y0022590D02*
G01X0005797Y0022555D01*
G01X0005797Y0022555D02*
G01X0005761Y0022503D01*
G01X0005761Y0022503D02*
G01X0005748Y0022440D01*
G01X0005748Y0022440D02*
G01X0005748Y0022165D01*
G01X0005748Y0022165D02*
G01X0005758Y0022110D01*
G01X0005758Y0022110D02*
G01X0005561Y0021913D01*
G01X0005561Y0021913D02*
G01X0005518Y0021848D01*
G01X0005518Y0021848D02*
G01X0005503Y0021773D01*
G01X0005503Y0021773D02*
G01X0005503Y0021248D01*
G01X0005503Y0021248D02*
G01X0005513Y0021198D01*
G01X0005513Y0021198D02*
G01X0005518Y0021173D01*
G01X0005518Y0021173D02*
G01X0005561Y0021109D01*
G01X0005561Y0021109D02*
G01X0005689Y0020980D01*
G01X0005689Y0020980D02*
G01X0005689Y0020548D01*
G01X0005689Y0020548D02*
G01X0005700Y0020490D01*
G01X0005700Y0020490D02*
G01X0005735Y0020436D01*
G01X0005735Y0020436D02*
G01X0005787Y0020400D01*
G01X0005787Y0020400D02*
G01X0005850Y0020388D01*
G01X0005850Y0020388D02*
G01X0006200Y0020388D01*
G01X0006200Y0020388D02*
G01X0006258Y0020399D01*
G01X0006258Y0020399D02*
G01X0006312Y0020433D01*
G01X0006312Y0020433D02*
G01X0006348Y0020486D01*
G01X0006348Y0020486D02*
G01X0006361Y0020548D01*
G01X0006361Y0020548D02*
G01X0006361Y0020658D01*
G01X0006361Y0020658D02*
G01X0006365Y0020647D01*
G01X0006365Y0020647D02*
G01X0006454Y0020558D01*
G01X0006454Y0020558D02*
G01X0006569Y0020510D01*
G01X0006569Y0020510D02*
G01X0006694Y0020510D01*
G01X0006694Y0020510D02*
G01X0006810Y0020558D01*
G01X0006810Y0020558D02*
G01X0006899Y0020646D01*
G01X0006899Y0020646D02*
G01X0006907Y0020666D01*
G01X0006907Y0020666D02*
G01X0007335Y0020666D01*
G01X0007335Y0020666D02*
G01X0007593Y0020408D01*
G01X0007593Y0020408D02*
G01X0007593Y0020339D01*
G01X0007593Y0020339D02*
G01X0007585Y0020331D01*
G01X0007585Y0020331D02*
G01X0007400Y0020331D01*
G01X0007400Y0020331D02*
G01X0007341Y0020319D01*
G01X0007341Y0020319D02*
G01X0007289Y0020285D01*
G01X0007289Y0020285D02*
G01X0007139Y0020135D01*
G01X0007139Y0020135D02*
G01X0007105Y0020085D01*
G01X0007105Y0020085D02*
G01X0007093Y0020023D01*
G01X0007093Y0020023D02*
G01X0007093Y0020018D01*
G01X0007093Y0020018D02*
G01X0007065Y0020060D01*
G01X0007065Y0020060D02*
G01X0007013Y0020096D01*
G01X0007013Y0020096D02*
G01X0006950Y0020109D01*
G01X0006950Y0020109D02*
G01X0006600Y0020109D01*
G01X0006600Y0020109D02*
G01X0006542Y0020098D01*
G01X0006542Y0020098D02*
G01X0006488Y0020063D01*
G01X0006488Y0020063D02*
G01X0006452Y0020011D01*
G01X0006452Y0020011D02*
G01X0006448Y0019988D01*
G01X0006448Y0019988D02*
G01X0006388Y0019988D01*
G01X0006388Y0019988D02*
G01X0006356Y0019975D01*
G01X0006356Y0019975D02*
G01X0006350Y0020007D01*
G01X0006350Y0020007D02*
G01X0006315Y0020060D01*
G01X0006315Y0020060D02*
G01X0006263Y0020096D01*
G01X0006263Y0020096D02*
G01X0006200Y0020109D01*
G01X0006200Y0020109D02*
G01X0005850Y0020109D01*
G01X0005850Y0020109D02*
G01X0005792Y0020098D01*
G01X0005792Y0020098D02*
G01X0005738Y0020063D01*
G01X0005738Y0020063D02*
G01X0005702Y0020011D01*
G01X0005702Y0020011D02*
G01X0005689Y0019948D01*
G01X0005689Y0019948D02*
G01X0005689Y0019398D01*
G01X0005689Y0019398D02*
G01X0005700Y0019340D01*
G01X0005700Y0019340D02*
G01X0005735Y0019286D01*
G01X0005735Y0019286D02*
G01X0005787Y0019250D01*
G01X0005787Y0019250D02*
G01X0005850Y0019238D01*
G01X0005850Y0019238D02*
G01X0006200Y0019238D01*
G01X0006200Y0019238D02*
G01X0006258Y0019249D01*
G01X0006258Y0019249D02*
G01X0006312Y0019283D01*
G01X0006312Y0019283D02*
G01X0006348Y0019336D01*
G01X0006348Y0019336D02*
G01X0006355Y0019372D01*
G01X0006355Y0019372D02*
G01X0006387Y0019358D01*
G01X0006387Y0019358D02*
G01X0006447Y0019358D01*
G01X0006447Y0019358D02*
G01X0006450Y0019340D01*
G01X0006450Y0019340D02*
G01X0006485Y0019286D01*
G01X0006485Y0019286D02*
G01X0006537Y0019250D01*
G01X0006537Y0019250D02*
G01X0006600Y0019238D01*
G01X0006600Y0019238D02*
G01X0006693Y0019238D01*
G01X0006693Y0019238D02*
G01X0006689Y0019235D01*
G01X0006689Y0019235D02*
G01X0006339Y0018885D01*
G01X0006339Y0018885D02*
G01X0006305Y0018835D01*
G01X0006305Y0018835D02*
G01X0006293Y0018773D01*
G01X0006293Y0018773D02*
G01X0006293Y0018743D01*
G01X0006293Y0018743D02*
G01X0006265Y0018785D01*
G01X0006265Y0018785D02*
G01X0006213Y0018821D01*
G01X0006213Y0018821D02*
G01X0006150Y0018834D01*
G01X0006150Y0018834D02*
G01X0005550Y0018834D01*
G01X0005550Y0018834D02*
G01X0005492Y0018823D01*
G01X0005492Y0018823D02*
G01X0005438Y0018788D01*
G01X0005438Y0018788D02*
G01X0005402Y0018736D01*
G01X0005402Y0018736D02*
G01X0005389Y0018673D01*
G01X0005389Y0018673D02*
G01X0005389Y0018073D01*
G01X0005389Y0018073D02*
G01X0005400Y0018015D01*
G01X0005400Y0018015D02*
G01X0005435Y0017961D01*
G01X0005435Y0017961D02*
G01X0005487Y0017925D01*
G01X0005487Y0017925D02*
G01X0005550Y0017913D01*
G01X0005550Y0017913D02*
G01X0005614Y0017913D01*
G01X0005614Y0017913D02*
G01X0005614Y0017834D01*
G01X0005614Y0017834D02*
G01X0005550Y0017834D01*
G01X0005550Y0017834D02*
G01X0005492Y0017823D01*
G01X0005492Y0017823D02*
G01X0005438Y0017788D01*
G01X0005438Y0017788D02*
G01X0005402Y0017736D01*
G01X0005402Y0017736D02*
G01X0005389Y0017673D01*
G01X0005389Y0017673D02*
G01X0005389Y0017073D01*
G01X0005389Y0017073D02*
G01X0005400Y0017015D01*
G01X0005400Y0017015D02*
G01X0005435Y0016961D01*
G01X0005435Y0016961D02*
G01X0005487Y0016925D01*
G01X0005487Y0016925D02*
G01X0005550Y0016913D01*
G01X0005550Y0016913D02*
G01X0006150Y0016913D01*
G01X0006150Y0016913D02*
G01X0006208Y0016924D01*
G01X0006208Y0016924D02*
G01X0006262Y0016958D01*
G01X0006262Y0016958D02*
G01X0006298Y0017011D01*
G01X0006298Y0017011D02*
G01X0006311Y0017073D01*
G01X0006311Y0017073D02*
G01X0006311Y0017673D01*
G01X0006311Y0017673D02*
G01X0006300Y0017731D01*
G01X0006300Y0017731D02*
G01X0006265Y0017785D01*
G01X0006265Y0017785D02*
G01X0006213Y0017821D01*
G01X0006213Y0017821D02*
G01X0006150Y0017834D01*
G01X0006150Y0017834D02*
G01X0006086Y0017834D01*
G01X0006086Y0017834D02*
G01X0006086Y0017913D01*
G01X0006086Y0017913D02*
G01X0006150Y0017913D01*
G01X0006150Y0017913D02*
G01X0006208Y0017924D01*
G01X0006208Y0017924D02*
G01X0006262Y0017958D01*
G01X0006262Y0017958D02*
G01X0006296Y0018007D01*
G01X0006296Y0018007D02*
G01X0006304Y0017964D01*
G01X0006304Y0017964D02*
G01X0006339Y0017912D01*
G01X0006339Y0017912D02*
G01X0006389Y0017862D01*
G01X0006389Y0017862D02*
G01X0006439Y0017828D01*
G01X0006439Y0017828D02*
G01X0006485Y0017819D01*
G01X0006485Y0017819D02*
G01X0006438Y0017788D01*
G01X0006438Y0017788D02*
G01X0006402Y0017736D01*
G01X0006402Y0017736D02*
G01X0006389Y0017673D01*
G01X0006389Y0017673D02*
G01X0006389Y0017073D01*
G01X0006389Y0017073D02*
G01X0006400Y0017015D01*
G01X0006400Y0017015D02*
G01X0006435Y0016961D01*
G01X0006435Y0016961D02*
G01X0006487Y0016925D01*
G01X0006487Y0016925D02*
G01X0006550Y0016913D01*
G01X0006550Y0016913D02*
G01X0007150Y0016913D01*
G01X0007150Y0016913D02*
G01X0007208Y0016924D01*
G01X0007208Y0016924D02*
G01X0007262Y0016958D01*
G01X0007262Y0016958D02*
G01X0007298Y0017011D01*
G01X0007298Y0017011D02*
G01X0007311Y0017073D01*
G01X0007311Y0017073D02*
G01X0007311Y0017673D01*
G01X0007311Y0017673D02*
G01X0007300Y0017731D01*
G01X0007300Y0017731D02*
G01X0007265Y0017785D01*
G01X0007265Y0017785D02*
G01X0007220Y0017816D01*
G01X0007220Y0017816D02*
G01X0007481Y0017816D01*
G01X0007481Y0017816D02*
G01X0007438Y0017788D01*
G01X0007438Y0017788D02*
G01X0007402Y0017736D01*
G01X0007402Y0017736D02*
G01X0007389Y0017673D01*
G01X0007389Y0017673D02*
G01X0007389Y0017073D01*
G01X0007389Y0017073D02*
G01X0007400Y0017015D01*
G01X0007400Y0017015D02*
G01X0007435Y0016961D01*
G01X0007435Y0016961D02*
G01X0007487Y0016925D01*
G01X0007487Y0016925D02*
G01X0007550Y0016913D01*
G01X0007550Y0016913D02*
G01X0008150Y0016913D01*
G01X0008150Y0016913D02*
G01X0008208Y0016924D01*
G01X0008208Y0016924D02*
G01X0008262Y0016958D01*
G01X0008262Y0016958D02*
G01X0008298Y0017011D01*
G01X0008298Y0017011D02*
G01X0008311Y0017073D01*
G01X0008311Y0017073D02*
G01X0008311Y0017673D01*
G01X0008311Y0017673D02*
G01X0008300Y0017731D01*
G01X0008300Y0017731D02*
G01X0008265Y0017785D01*
G01X0008265Y0017785D02*
G01X0008220Y0017816D01*
G01X0008220Y0017816D02*
G01X0008481Y0017816D01*
G01X0008481Y0017816D02*
G01X0008438Y0017788D01*
G01X0008438Y0017788D02*
G01X0008402Y0017736D01*
G01X0008402Y0017736D02*
G01X0008389Y0017673D01*
G01X0008389Y0017673D02*
G01X0008389Y0017073D01*
G01X0008389Y0017073D02*
G01X0008400Y0017015D01*
G01X0008400Y0017015D02*
G01X0008435Y0016961D01*
G01X0008435Y0016961D02*
G01X0008487Y0016925D01*
G01X0008487Y0016925D02*
G01X0008550Y0016913D01*
G01X0008550Y0016913D02*
G01X0009150Y0016913D01*
G01X0009150Y0016913D02*
G01X0009208Y0016924D01*
G01X0009208Y0016924D02*
G01X0009262Y0016958D01*
G01X0009262Y0016958D02*
G01X0009298Y0017011D01*
G01X0009298Y0017011D02*
G01X0009311Y0017073D01*
G01X0009311Y0017073D02*
G01X0009311Y0017673D01*
G01X0009311Y0017673D02*
G01X0009300Y0017731D01*
G01X0009300Y0017731D02*
G01X0009265Y0017785D01*
G01X0009265Y0017785D02*
G01X0009213Y0017821D01*
G01X0009213Y0017821D02*
G01X0009195Y0017825D01*
G01X0009195Y0017825D02*
G01X0009209Y0017827D01*
G01X0009209Y0017827D02*
G01X0009261Y0017862D01*
G01X0009261Y0017862D02*
G01X0009361Y0017962D01*
G01X0009361Y0017962D02*
G01X0009395Y0018012D01*
G01X0009395Y0018012D02*
G01X0009407Y0018073D01*
G01X0009407Y0018073D02*
G01X0009407Y0018508D01*
G01X0009407Y0018508D02*
G01X0009465Y0018566D01*
G01X0009465Y0018566D02*
G01X0012609Y0018566D01*
G01X0012609Y0018566D02*
G01X0012532Y0018489D01*
G01X0012532Y0018489D02*
G01X0012286Y0017896D01*
G01X0012286Y0017896D02*
G01X0012285Y0017254D01*
G01X0012285Y0017254D02*
G01X0012531Y0016660D01*
G01X0012531Y0016660D02*
G01X0012985Y0016206D01*
G01X0012985Y0016206D02*
G01X0013578Y0015959D01*
G01X0013578Y0015959D02*
G01X0014220Y0015959D01*
G01X0014220Y0015959D02*
G01X0014813Y0016204D01*
G01X0014813Y0016204D02*
G01X0015268Y0016658D01*
G01X0015268Y0016658D02*
G01X0015514Y0017251D01*
G01X0015514Y0017251D02*
G01X0015515Y0017893D01*
G01X0015515Y0017893D02*
G01X0015269Y0018486D01*
G01X0015269Y0018486D02*
G01X0014815Y0018941D01*
G01X0014815Y0018941D02*
G01X0014222Y0019187D01*
G01X0014222Y0019187D02*
G01X0013580Y0019188D01*
G01X0013580Y0019188D02*
G01X0013251Y0019052D01*
G01X0013251Y0019052D02*
G01X0013611Y0019412D01*
G01X0013611Y0019412D02*
G01X0013645Y0019462D01*
G01X0013645Y0019462D02*
G01X0013657Y0019523D01*
G01X0013657Y0019523D02*
G01X0013657Y0020423D01*
G01X0013657Y0020423D02*
G01X0013647Y0020480D01*
G01X0013647Y0020480D02*
G01X0013615Y0020530D01*
G01X0013615Y0020530D02*
G01X0013604Y0020587D01*
G01X0013604Y0020587D02*
G01X0013570Y0020640D01*
G01X0013570Y0020640D02*
G01X0013517Y0020676D01*
G01X0013517Y0020676D02*
G01X0013454Y0020689D01*
G01X0013454Y0020689D02*
G01X0012746Y0020689D01*
G01X0012746Y0020689D02*
G01X0012687Y0020678D01*
G01X0012687Y0020678D02*
G01X0012633Y0020643D01*
G01X0012633Y0020643D02*
G01X0012598Y0020591D01*
G01X0012598Y0020591D02*
G01X0012585Y0020531D01*
G01X0012585Y0020531D02*
G01X0011885Y0019831D01*
G01X0011885Y0019831D02*
G01X0009365Y0019831D01*
G01X0009365Y0019831D02*
G01X0007980Y0021216D01*
G01X0007980Y0021216D02*
G01X0009300Y0021216D01*
G01X0009300Y0021216D02*
G01X0009357Y0021226D01*
G01X0009357Y0021226D02*
G01X0009410Y0021260D01*
G01X0009410Y0021260D02*
G01X0009445Y0021312D01*
G01X0009445Y0021312D02*
G01X0009457Y0021373D01*
G01X0009457Y0021373D02*
G01X0009457Y0023823D01*
G01X0009457Y0023823D02*
G01X0009447Y0023880D01*
G01X0009447Y0023880D02*
G01X0009413Y0023933D01*
G01X0009413Y0023933D02*
G01X0009361Y0023968D01*
G01X0009361Y0023968D02*
G01X0009300Y0023981D01*
G01X0009300Y0023981D02*
G01X0008624Y0023981D01*
G01X0008624Y0023981D02*
G01X0008645Y0024012D01*
G01X0008645Y0024012D02*
G01X0008657Y0024073D01*
G01X0008657Y0024073D02*
G01X0008657Y0024808D01*
G01X0008657Y0024808D02*
G01X0009261Y0025412D01*
G01X0009261Y0025412D02*
G01X0009295Y0025462D01*
G01X0009295Y0025462D02*
G01X0009307Y0025523D01*
G01X0009307Y0025523D02*
G01X0009307Y0027023D01*
G01X0009307Y0027023D02*
G01X0009297Y0027080D01*
G01X0009297Y0027080D02*
G01X0009263Y0027133D01*
G01X0009263Y0027133D02*
G01X0009211Y0027168D01*
G01X0009211Y0027168D02*
G01X0009150Y0027181D01*
G01X0009150Y0027181D02*
G01X0007800Y0027181D01*
G01X0007800Y0027181D02*
G01X0007743Y0027170D01*
G01X0007743Y0027170D02*
G01X0007690Y0027136D01*
G01X0007690Y0027136D02*
G01X0007655Y0027085D01*
G01X0007655Y0027085D02*
G01X0007643Y0027023D01*
G01X0007643Y0027023D02*
G01X0007643Y0025539D01*
G01X0007643Y0025539D02*
G01X0006962Y0024858D01*
G01X0006962Y0024858D02*
G01X0006962Y0026693D01*
G01X0006962Y0026693D02*
G01X0006957Y0026715D01*
G01X0006957Y0026715D02*
G01X0006957Y0027173D01*
G01X0006957Y0027173D02*
G01X0006946Y0027233D01*
G01X0006946Y0027233D02*
G01X0006911Y0027285D01*
G01X0006911Y0027285D02*
G01X0005911Y0028285D01*
G01X0005911Y0028285D02*
G01X0005861Y0028318D01*
G01X0005861Y0028318D02*
G01X0005800Y0028331D01*
G01X0005800Y0028331D02*
G01X0004550Y0028331D01*
G01X0004550Y0028331D02*
G01X0004491Y0028319D01*
G01X0004491Y0028319D02*
G01X0004439Y0028285D01*
G01X0004439Y0028285D02*
G01X0002935Y0026781D01*
G01X0002935Y0026781D02*
G01X0001000Y0026781D01*
G01X0001000Y0026781D02*
G01X0000943Y0026770D01*
G01X0000943Y0026770D02*
G01X0000890Y0026736D01*
G01X0000890Y0026736D02*
G01X0000855Y0026685D01*
G01X0000855Y0026685D02*
G01X0000843Y0026623D01*
G01X0000843Y0026623D02*
G01X0000177Y0026623D01*
G01X0000177Y0026623D02*
G01X0000177Y0031296D01*
G01X0000177Y0031296D02*
G01X0003309Y0031296D01*
G01X0003309Y0031296D02*
G01X0003309Y0030391D01*
G36*
G01X0006761Y0027157D02*
G01X0006761Y0023363D01*
G01X0006739Y0023363D01*
G01X0006739Y0023923D01*
G01X0006736Y0023939D01*
G01X0006728Y0023951D01*
G01X0006400Y0024278D01*
G01X0006401Y0024353D01*
G01X0006359Y0024454D01*
G01X0006281Y0024532D01*
G01X0006180Y0024574D01*
G01X0006105Y0024574D01*
G01X0005978Y0024701D01*
G01X0005965Y0024710D01*
G01X0005950Y0024713D01*
G01X0005088Y0024713D01*
G01X0004991Y0024753D01*
G01X0004881Y0024753D01*
G01X0004783Y0024713D01*
G01X0004750Y0024713D01*
G01X0004735Y0024709D01*
G01X0004722Y0024701D01*
G01X0004713Y0024687D01*
G01X0004711Y0024673D01*
G01X0004711Y0024642D01*
G01X0004703Y0024634D01*
G01X0004661Y0024533D01*
G01X0004660Y0024423D01*
G01X0004702Y0024322D01*
G01X0004711Y0024313D01*
G01X0004711Y0021962D01*
G01X0001239Y0021913D01*
G01X0001239Y0023534D01*
G01X0002700Y0023534D01*
G01X0002715Y0023537D01*
G01X0002726Y0023544D01*
G01X0003126Y0023894D01*
G01X0003135Y0023906D01*
G01X0003139Y0023923D01*
G01X0003139Y0024407D01*
G01X0003703Y0024970D01*
G01X0003711Y0024983D01*
G01X0003714Y0024999D01*
G01X0003711Y0025014D01*
G01X0003703Y0025026D01*
G01X0003078Y0025651D01*
G01X0003065Y0025660D01*
G01X0003050Y0025663D01*
G01X0001039Y0025663D01*
G01X0001039Y0026584D01*
G01X0003000Y0026584D01*
G01X0003015Y0026587D01*
G01X0003028Y0026595D01*
G01X0004566Y0028134D01*
G01X0005784Y0028134D01*
G01X0006761Y0027157D01*
G01X0006761Y0027157D01*
G37*
G01X0006761Y0027157D02*
G01X0006761Y0023363D01*
G01X0006761Y0023363D02*
G01X0006739Y0023363D01*
G01X0006739Y0023363D02*
G01X0006739Y0023923D01*
G01X0006739Y0023923D02*
G01X0006736Y0023939D01*
G01X0006736Y0023939D02*
G01X0006728Y0023951D01*
G01X0006728Y0023951D02*
G01X0006400Y0024278D01*
G01X0006400Y0024278D02*
G01X0006401Y0024353D01*
G01X0006401Y0024353D02*
G01X0006359Y0024454D01*
G01X0006359Y0024454D02*
G01X0006281Y0024532D01*
G01X0006281Y0024532D02*
G01X0006180Y0024574D01*
G01X0006180Y0024574D02*
G01X0006105Y0024574D01*
G01X0006105Y0024574D02*
G01X0005978Y0024701D01*
G01X0005978Y0024701D02*
G01X0005965Y0024710D01*
G01X0005965Y0024710D02*
G01X0005950Y0024713D01*
G01X0005950Y0024713D02*
G01X0005088Y0024713D01*
G01X0005088Y0024713D02*
G01X0004991Y0024753D01*
G01X0004991Y0024753D02*
G01X0004881Y0024753D01*
G01X0004881Y0024753D02*
G01X0004783Y0024713D01*
G01X0004783Y0024713D02*
G01X0004750Y0024713D01*
G01X0004750Y0024713D02*
G01X0004735Y0024709D01*
G01X0004735Y0024709D02*
G01X0004722Y0024701D01*
G01X0004722Y0024701D02*
G01X0004713Y0024687D01*
G01X0004713Y0024687D02*
G01X0004711Y0024673D01*
G01X0004711Y0024673D02*
G01X0004711Y0024642D01*
G01X0004711Y0024642D02*
G01X0004703Y0024634D01*
G01X0004703Y0024634D02*
G01X0004661Y0024533D01*
G01X0004661Y0024533D02*
G01X0004660Y0024423D01*
G01X0004660Y0024423D02*
G01X0004702Y0024322D01*
G01X0004702Y0024322D02*
G01X0004711Y0024313D01*
G01X0004711Y0024313D02*
G01X0004711Y0021962D01*
G01X0004711Y0021962D02*
G01X0001239Y0021913D01*
G01X0001239Y0021913D02*
G01X0001239Y0023534D01*
G01X0001239Y0023534D02*
G01X0002700Y0023534D01*
G01X0002700Y0023534D02*
G01X0002715Y0023537D01*
G01X0002715Y0023537D02*
G01X0002726Y0023544D01*
G01X0002726Y0023544D02*
G01X0003126Y0023894D01*
G01X0003126Y0023894D02*
G01X0003135Y0023906D01*
G01X0003135Y0023906D02*
G01X0003139Y0023923D01*
G01X0003139Y0023923D02*
G01X0003139Y0024407D01*
G01X0003139Y0024407D02*
G01X0003703Y0024970D01*
G01X0003703Y0024970D02*
G01X0003711Y0024983D01*
G01X0003711Y0024983D02*
G01X0003714Y0024999D01*
G01X0003714Y0024999D02*
G01X0003711Y0025014D01*
G01X0003711Y0025014D02*
G01X0003703Y0025026D01*
G01X0003703Y0025026D02*
G01X0003078Y0025651D01*
G01X0003078Y0025651D02*
G01X0003065Y0025660D01*
G01X0003065Y0025660D02*
G01X0003050Y0025663D01*
G01X0003050Y0025663D02*
G01X0001039Y0025663D01*
G01X0001039Y0025663D02*
G01X0001039Y0026584D01*
G01X0001039Y0026584D02*
G01X0003000Y0026584D01*
G01X0003000Y0026584D02*
G01X0003015Y0026587D01*
G01X0003015Y0026587D02*
G01X0003028Y0026595D01*
G01X0003028Y0026595D02*
G01X0004566Y0028134D01*
G01X0004566Y0028134D02*
G01X0005784Y0028134D01*
G01X0005784Y0028134D02*
G01X0006761Y0027157D01*
M02*
