G75*
G71*
%MOMM*%
%OFA0B0*%
%FSLAX53Y53*%
%IPPOS*%
%LPD*%
%ADD10R,1.30000X1.30000*%
%ADD11C,0.40000*%
%ADD13C,0.30000*%
%ADD14R,3.00000X3.00000*%
%ADD16C,0.20000*%
%ADD17C,0.60000*%
%ADD18C,0.25400*%
%ADD19C,0.50000*%
%ADD21R,0.82500X0.85000*%
%ADD22R,1.45000X0.45000*%
%ADD23R,1.52400X1.52400*%
%ADD27R,1.50000X1.05000*%
%ADD28R,1.39700X0.88900*%
%ADD29R,5.50000X2.30000*%
%ADD31C,1.30000*%
%ADD32C,0.80000*%
%ADD33C,1.45000*%
%ADD35R,3.81000X3.81000*%
%ADD38C,1.90000*%
%ADD39C,0.15000*%
%ADD40C,0.25000*%
%ADD41R,1.80086X2.49936*%
%ADD42R,0.88900X1.39700*%
%ADD44C,0.70000*%
%ADD47C,6.00000*%
%ADD49R,0.25000X0.70000*%
%ADD53R,1.69926X1.30048*%
X0000000Y0000000D02*
G01*
D19*
D39*
X0025164Y0012215D02*
X0024859Y0012535D01*
X0025149Y0012253D02*
X0025420Y0012527D01*
X0025420Y0012223D02*
X0024851Y0012217D01*
D42*
X0016320Y0010287D03*
X0018225Y0010287D03*
D28*
X0023305Y0005398D03*
X0023305Y0003493D03*
D27*
X0026670Y0008000D03*
X0026670Y0012000D03*
D23*
X0008446Y0014478D03*
X0008446Y0017018D03*
X0010986Y0014478D03*
X0010986Y0017018D03*
X0013526Y0014478D03*
X0013526Y0017018D03*
X0020066Y0017018D03*
X0017526Y0017018D03*
D29*
X0010668Y0008720D03*
X0010668Y0004870D03*
D33*
X0004859Y0007500D03*
X0004859Y0012500D03*
D19*
G36*
X0005534Y0009800D02*
X0004184Y0009800D01*
X0004184Y0010200D01*
X0005534Y0010200D01*
X0005534Y0009800D01*
X0005534Y0009800D01*
G37*
G36*
X0005534Y0009150D02*
X0004184Y0009150D01*
X0004184Y0009550D01*
X0005534Y0009550D01*
X0005534Y0009150D01*
X0005534Y0009150D01*
G37*
G36*
X0005534Y0008500D02*
X0004184Y0008500D01*
X0004184Y0008900D01*
X0005534Y0008900D01*
X0005534Y0008500D01*
X0005534Y0008500D01*
G37*
G36*
X0005534Y0010450D02*
X0004184Y0010450D01*
X0004184Y0010850D01*
X0005534Y0010850D01*
X0005534Y0010450D01*
X0005534Y0010450D01*
G37*
G36*
X0005534Y0011100D02*
X0004184Y0011100D01*
X0004184Y0011500D01*
X0005534Y0011500D01*
X0005534Y0011100D01*
X0005534Y0011100D01*
G37*
G36*
X0003109Y0008250D02*
X0001209Y0008250D01*
X0001209Y0009750D01*
X0003109Y0009750D01*
X0003109Y0008250D01*
X0003109Y0008250D01*
G37*
G36*
X0003109Y0010250D02*
X0001209Y0010250D01*
X0001209Y0011750D01*
X0003109Y0011750D01*
X0003109Y0010250D01*
X0003109Y0010250D01*
G37*
D38*
X0002159Y0013500D03*
X0002159Y0006500D03*
D42*
X0017717Y0013462D03*
X0019622Y0013462D03*
D28*
X0022670Y0011557D03*
X0022670Y0013462D03*
D22*
X0020107Y0007198D03*
X0020107Y0006548D03*
X0020107Y0005898D03*
X0020107Y0005248D03*
X0015707Y0005248D03*
X0015707Y0005898D03*
X0015707Y0006548D03*
X0015707Y0007198D03*
D32*
X0025273Y0006223D03*
X0024956Y0012002D03*
D44*
X0016320Y0010287D02*
X0016320Y0008889D01*
X0016320Y0008889D02*
X0015707Y0008276D01*
X0015707Y0008276D02*
X0015707Y0007323D01*
X0016320Y0010287D02*
X0016320Y0012065D01*
X0016320Y0012065D02*
X0017717Y0013462D01*
D13*
X0015707Y0005898D02*
X0015707Y0006548D01*
D44*
X0018225Y0010287D02*
X0018225Y0007775D01*
X0016472Y0006023D02*
X0015707Y0006023D01*
X0018225Y0007775D02*
X0016472Y0006023D01*
X0026352Y0008000D02*
X0025273Y0006922D01*
X0025273Y0006922D02*
X0025273Y0006223D01*
X0026670Y0008000D02*
X0026352Y0008000D01*
X0025273Y0006223D02*
X0024130Y0006223D01*
X0024130Y0006223D02*
X0023305Y0005398D01*
X0021232Y0005248D02*
X0021382Y0005398D01*
X0021382Y0005398D02*
X0023305Y0005398D01*
D11*
X0020107Y0005248D02*
X0021232Y0005248D01*
X0021232Y0005248D02*
X0021255Y0005271D01*
D44*
X0026670Y0012000D02*
X0024957Y0012000D01*
X0024957Y0012000D02*
X0024956Y0012002D01*
X0022670Y0011557D02*
X0024511Y0011557D01*
X0024511Y0011557D02*
X0024956Y0012002D01*
X0021844Y0007160D02*
X0022670Y0007986D01*
X0022670Y0007986D02*
X0022670Y0011557D01*
D11*
X0020107Y0006548D02*
X0021232Y0006548D01*
X0021232Y0006548D02*
X0021844Y0007160D01*
D44*
X0020107Y0008405D02*
X0019622Y0008890D01*
X0019622Y0008890D02*
X0019622Y0013462D01*
D11*
X0020107Y0007198D02*
X0020107Y0008405D01*
D44*
X0019622Y0013462D02*
X0019622Y0016574D01*
X0019622Y0016574D02*
X0020066Y0017018D01*
D19*
X0010668Y0004870D02*
X0013918Y0004870D01*
X0014271Y0005223D02*
X0014622Y0005223D01*
X0013918Y0004870D02*
X0014271Y0005223D01*
X0014622Y0005223D02*
X0015707Y0005223D01*
D40*
G36*
X0011877Y0011811D02*
X0011886Y0011762D01*
X0011913Y0011723D01*
X0012546Y0011090D01*
X0012587Y0011062D01*
X0012634Y0011053D01*
X0014541Y0011051D01*
X0016830Y0011051D01*
X0016830Y0008053D01*
X0016549Y0007772D01*
X0016521Y0007731D01*
X0016512Y0007684D01*
X0016512Y0007190D01*
X0016432Y0007206D01*
X0014982Y0007206D01*
X0014825Y0007177D01*
X0014721Y0007110D01*
X0013958Y0007110D01*
X0013550Y0007518D01*
X0013509Y0007545D01*
X0013462Y0007555D01*
X0007799Y0007555D01*
X0006756Y0008597D01*
X0006715Y0008625D01*
X0006668Y0008634D01*
X0005127Y0008634D01*
X0005089Y0008650D01*
X0004631Y0008650D01*
X0004592Y0008634D01*
X0004316Y0008634D01*
X0004316Y0008717D01*
X0005534Y0008717D01*
X0005691Y0008746D01*
X0005721Y0008765D01*
X0006350Y0008765D01*
X0006399Y0008775D01*
X0006438Y0008802D01*
X0010058Y0012421D01*
X0010085Y0012462D01*
X0010095Y0012510D01*
X0010095Y0017909D01*
X0011877Y0017909D01*
X0011877Y0011811D01*
X0011877Y0011811D01*
G37*
X0011877Y0011811D02*
X0011886Y0011762D01*
X0011913Y0011723D01*
X0012546Y0011090D01*
X0012587Y0011062D01*
X0012634Y0011053D01*
X0014541Y0011051D01*
X0016830Y0011051D01*
X0016830Y0008053D01*
X0016549Y0007772D01*
X0016521Y0007731D01*
X0016512Y0007684D01*
X0016512Y0007190D01*
X0016432Y0007206D01*
X0014982Y0007206D01*
X0014825Y0007177D01*
X0014721Y0007110D01*
X0013958Y0007110D01*
X0013550Y0007518D01*
X0013509Y0007545D01*
X0013462Y0007555D01*
X0007799Y0007555D01*
X0006756Y0008597D01*
X0006715Y0008625D01*
X0006668Y0008634D01*
X0005127Y0008634D01*
X0005089Y0008650D01*
X0004631Y0008650D01*
X0004592Y0008634D01*
X0004316Y0008634D01*
X0004316Y0008717D01*
X0005534Y0008717D01*
X0005691Y0008746D01*
X0005721Y0008765D01*
X0006350Y0008765D01*
X0006399Y0008775D01*
X0006438Y0008802D01*
X0010058Y0012421D01*
X0010085Y0012462D01*
X0010095Y0012510D01*
X0010095Y0017909D01*
X0011877Y0017909D01*
X0011877Y0011811D01*
G36*
X0014604Y0005476D02*
X0014671Y0005371D01*
X0014813Y0005274D01*
X0014982Y0005240D01*
X0016322Y0005240D01*
X0016322Y0005078D01*
X0015685Y0005078D01*
X0015636Y0005068D01*
X0015596Y0005041D01*
X0014299Y0003745D01*
X0007999Y0003745D01*
X0007999Y0005908D01*
X0014172Y0005908D01*
X0014604Y0005476D01*
X0014604Y0005476D01*
G37*
X0014604Y0005476D02*
X0014671Y0005371D01*
X0014813Y0005274D01*
X0014982Y0005240D01*
X0016322Y0005240D01*
X0016322Y0005078D01*
X0015685Y0005078D01*
X0015636Y0005068D01*
X0015596Y0005041D01*
X0014299Y0003745D01*
X0007999Y0003745D01*
X0007999Y0005908D01*
X0014172Y0005908D01*
X0014604Y0005476D01*
G36*
X0029475Y0000525D02*
X0000525Y0000525D01*
X0000525Y0006033D01*
X0007449Y0006033D01*
X0007449Y0003620D01*
X0007478Y0003465D01*
X0007569Y0003323D01*
X0007709Y0003228D01*
X0007874Y0003195D01*
X0014351Y0003195D01*
X0014511Y0003226D01*
X0014652Y0003319D01*
X0015861Y0004528D01*
X0016447Y0004528D01*
X0016601Y0004557D01*
X0016743Y0004648D01*
X0016838Y0004788D01*
X0016872Y0004953D01*
X0016872Y0005461D01*
X0016842Y0005615D01*
X0016837Y0005624D01*
X0016836Y0005630D01*
X0016743Y0005775D01*
X0016601Y0005872D01*
X0016432Y0005906D01*
X0014982Y0005906D01*
X0014956Y0005901D01*
X0014525Y0006333D01*
X0014389Y0006424D01*
X0014224Y0006458D01*
X0007874Y0006458D01*
X0007720Y0006428D01*
X0007578Y0006337D01*
X0007482Y0006198D01*
X0007449Y0006033D01*
X0000525Y0006033D01*
X0000525Y0010200D01*
X0003751Y0010200D01*
X0003751Y0009800D01*
X0003775Y0009670D01*
X0003751Y0009550D01*
X0003751Y0009150D01*
X0003775Y0009020D01*
X0003751Y0008900D01*
X0003751Y0008500D01*
X0003780Y0008343D01*
X0003873Y0008198D01*
X0004015Y0008101D01*
X0004184Y0008067D01*
X0005534Y0008067D01*
X0005626Y0008084D01*
X0006491Y0008084D01*
X0007446Y0007129D01*
X0007582Y0007038D01*
X0007747Y0007005D01*
X0013286Y0007005D01*
X0013606Y0006684D01*
X0013741Y0006593D01*
X0013907Y0006560D01*
X0014882Y0006560D01*
X0014982Y0006540D01*
X0016432Y0006540D01*
X0016540Y0006560D01*
X0016637Y0006560D01*
X0016791Y0006589D01*
X0016933Y0006680D01*
X0017029Y0006820D01*
X0017062Y0006985D01*
X0017062Y0007507D01*
X0017255Y0007700D01*
X0017346Y0007836D01*
X0017380Y0008001D01*
X0017380Y0011176D01*
X0017350Y0011330D01*
X0017259Y0011472D01*
X0017120Y0011568D01*
X0017095Y0011573D01*
X0017095Y0011744D01*
X0017681Y0012330D01*
X0018161Y0012330D01*
X0018318Y0012360D01*
X0018463Y0012453D01*
X0018560Y0012595D01*
X0018594Y0012764D01*
X0018594Y0014161D01*
X0018744Y0014161D01*
X0018744Y0012764D01*
X0018773Y0012606D01*
X0018847Y0012492D01*
X0018847Y0008890D01*
X0018905Y0008593D01*
X0019073Y0008342D01*
X0019482Y0007933D01*
X0019482Y0007856D01*
X0019382Y0007856D01*
X0019225Y0007827D01*
X0019080Y0007734D01*
X0018983Y0007592D01*
X0018949Y0007423D01*
X0018949Y0006973D01*
X0018968Y0006869D01*
X0018949Y0006773D01*
X0018949Y0006323D01*
X0018968Y0006219D01*
X0018949Y0006123D01*
X0018949Y0005673D01*
X0018968Y0005569D01*
X0018949Y0005473D01*
X0018949Y0005023D01*
X0018978Y0004866D01*
X0019071Y0004721D01*
X0019213Y0004624D01*
X0019382Y0004590D01*
X0020832Y0004590D01*
X0020845Y0004592D01*
X0020935Y0004532D01*
X0021232Y0004473D01*
X0021529Y0004532D01*
X0021664Y0004623D01*
X0022337Y0004623D01*
X0022437Y0004554D01*
X0022606Y0004520D01*
X0024003Y0004520D01*
X0024160Y0004549D01*
X0024305Y0004642D01*
X0024402Y0004784D01*
X0024436Y0004953D01*
X0024436Y0005433D01*
X0024451Y0005448D01*
X0024988Y0005448D01*
X0025108Y0005398D01*
X0025436Y0005398D01*
X0025740Y0005523D01*
X0025972Y0005755D01*
X0026098Y0006058D01*
X0026098Y0006386D01*
X0026048Y0006508D01*
X0026048Y0006600D01*
X0026489Y0007042D01*
X0027420Y0007042D01*
X0027577Y0007071D01*
X0027722Y0007164D01*
X0027819Y0007306D01*
X0027853Y0007475D01*
X0027853Y0008525D01*
X0027830Y0008650D01*
X0028174Y0008993D01*
X0028445Y0009645D01*
X0028445Y0010352D01*
X0028176Y0011004D01*
X0027828Y0011352D01*
X0027853Y0011475D01*
X0027853Y0012525D01*
X0027824Y0012682D01*
X0027731Y0012827D01*
X0027589Y0012924D01*
X0027420Y0012958D01*
X0025920Y0012958D01*
X0025763Y0012929D01*
X0025732Y0012909D01*
X0025610Y0012990D01*
X0025418Y0013027D01*
X0025227Y0012988D01*
X0025145Y0012933D01*
X0025062Y0012992D01*
X0024871Y0013035D01*
X0024679Y0013001D01*
X0024514Y0012897D01*
X0024402Y0012737D01*
X0024366Y0012579D01*
X0024257Y0012469D01*
X0024206Y0012348D01*
X0024190Y0012332D01*
X0023637Y0012332D01*
X0023537Y0012401D01*
X0023368Y0012435D01*
X0021971Y0012435D01*
X0021814Y0012405D01*
X0021669Y0012312D01*
X0021572Y0012170D01*
X0021538Y0012002D01*
X0021538Y0011113D01*
X0021567Y0010955D01*
X0021660Y0010810D01*
X0021802Y0010713D01*
X0021895Y0010695D01*
X0021895Y0008307D01*
X0021296Y0007708D01*
X0021223Y0007599D01*
X0021143Y0007725D01*
X0021001Y0007822D01*
X0020832Y0007856D01*
X0020732Y0007856D01*
X0020732Y0007972D01*
X0020823Y0008108D01*
X0020882Y0008405D01*
X0020823Y0008701D01*
X0020655Y0008953D01*
X0020397Y0009211D01*
X0020397Y0012494D01*
X0020465Y0012595D01*
X0020499Y0012764D01*
X0020499Y0014161D01*
X0020470Y0014318D01*
X0020397Y0014432D01*
X0020397Y0015823D01*
X0020828Y0015823D01*
X0020985Y0015852D01*
X0021130Y0015945D01*
X0021227Y0016087D01*
X0021261Y0016256D01*
X0021261Y0017780D01*
X0021232Y0017937D01*
X0021139Y0018082D01*
X0020997Y0018179D01*
X0020828Y0018213D01*
X0019304Y0018213D01*
X0019147Y0018184D01*
X0019002Y0018091D01*
X0018905Y0017949D01*
X0018871Y0017780D01*
X0018871Y0016695D01*
X0018847Y0016574D01*
X0018847Y0014430D01*
X0018778Y0014329D01*
X0018744Y0014161D01*
X0018594Y0014161D01*
X0018565Y0014318D01*
X0018472Y0014463D01*
X0018330Y0014560D01*
X0018161Y0014594D01*
X0017272Y0014594D01*
X0017115Y0014564D01*
X0016970Y0014471D01*
X0016873Y0014329D01*
X0016839Y0014161D01*
X0016839Y0013680D01*
X0015771Y0012613D01*
X0015603Y0012362D01*
X0015545Y0012065D01*
X0015545Y0011601D01*
X0014542Y0011601D01*
X0012811Y0011603D01*
X0012427Y0011987D01*
X0012427Y0018034D01*
X0012397Y0018188D01*
X0012306Y0018330D01*
X0012167Y0018426D01*
X0012002Y0018459D01*
X0009970Y0018459D01*
X0009815Y0018430D01*
X0009673Y0018339D01*
X0009578Y0018199D01*
X0009545Y0018034D01*
X0009545Y0012686D01*
X0006174Y0009315D01*
X0005967Y0009315D01*
X0005967Y0009550D01*
X0005943Y0009680D01*
X0005967Y0009800D01*
X0005967Y0010200D01*
X0005938Y0010357D01*
X0005845Y0010502D01*
X0005703Y0010599D01*
X0005534Y0010633D01*
X0004184Y0010633D01*
X0004027Y0010604D01*
X0003882Y0010511D01*
X0003785Y0010369D01*
X0003751Y0010200D01*
X0000525Y0010200D01*
X0000525Y0019475D01*
X0029475Y0019475D01*
X0029475Y0000525D01*
X0029475Y0000525D01*
G37*
X0029475Y0000525D02*
X0000525Y0000525D01*
X0000525Y0006033D01*
X0007449Y0006033D01*
X0007449Y0003620D01*
X0007478Y0003465D01*
X0007569Y0003323D01*
X0007709Y0003228D01*
X0007874Y0003195D01*
X0014351Y0003195D01*
X0014511Y0003226D01*
X0014652Y0003319D01*
X0015861Y0004528D01*
X0016447Y0004528D01*
X0016601Y0004557D01*
X0016743Y0004648D01*
X0016838Y0004788D01*
X0016872Y0004953D01*
X0016872Y0005461D01*
X0016842Y0005615D01*
X0016837Y0005624D01*
X0016836Y0005630D01*
X0016743Y0005775D01*
X0016601Y0005872D01*
X0016432Y0005906D01*
X0014982Y0005906D01*
X0014956Y0005901D01*
X0014525Y0006333D01*
X0014389Y0006424D01*
X0014224Y0006458D01*
X0007874Y0006458D01*
X0007720Y0006428D01*
X0007578Y0006337D01*
X0007482Y0006198D01*
X0007449Y0006033D01*
X0000525Y0006033D01*
X0000525Y0010200D01*
X0003751Y0010200D01*
X0003751Y0009800D01*
X0003775Y0009670D01*
X0003751Y0009550D01*
X0003751Y0009150D01*
X0003775Y0009020D01*
X0003751Y0008900D01*
X0003751Y0008500D01*
X0003780Y0008343D01*
X0003873Y0008198D01*
X0004015Y0008101D01*
X0004184Y0008067D01*
X0005534Y0008067D01*
X0005626Y0008084D01*
X0006491Y0008084D01*
X0007446Y0007129D01*
X0007582Y0007038D01*
X0007747Y0007005D01*
X0013286Y0007005D01*
X0013606Y0006684D01*
X0013741Y0006593D01*
X0013907Y0006560D01*
X0014882Y0006560D01*
X0014982Y0006540D01*
X0016432Y0006540D01*
X0016540Y0006560D01*
X0016637Y0006560D01*
X0016791Y0006589D01*
X0016933Y0006680D01*
X0017029Y0006820D01*
X0017062Y0006985D01*
X0017062Y0007507D01*
X0017255Y0007700D01*
X0017346Y0007836D01*
X0017380Y0008001D01*
X0017380Y0011176D01*
X0017350Y0011330D01*
X0017259Y0011472D01*
X0017120Y0011568D01*
X0017095Y0011573D01*
X0017095Y0011744D01*
X0017681Y0012330D01*
X0018161Y0012330D01*
X0018318Y0012360D01*
X0018463Y0012453D01*
X0018560Y0012595D01*
X0018594Y0012764D01*
X0018594Y0014161D01*
X0018744Y0014161D01*
X0018744Y0012764D01*
X0018773Y0012606D01*
X0018847Y0012492D01*
X0018847Y0008890D01*
X0018905Y0008593D01*
X0019073Y0008342D01*
X0019482Y0007933D01*
X0019482Y0007856D01*
X0019382Y0007856D01*
X0019225Y0007827D01*
X0019080Y0007734D01*
X0018983Y0007592D01*
X0018949Y0007423D01*
X0018949Y0006973D01*
X0018968Y0006869D01*
X0018949Y0006773D01*
X0018949Y0006323D01*
X0018968Y0006219D01*
X0018949Y0006123D01*
X0018949Y0005673D01*
X0018968Y0005569D01*
X0018949Y0005473D01*
X0018949Y0005023D01*
X0018978Y0004866D01*
X0019071Y0004721D01*
X0019213Y0004624D01*
X0019382Y0004590D01*
X0020832Y0004590D01*
X0020845Y0004592D01*
X0020935Y0004532D01*
X0021232Y0004473D01*
X0021529Y0004532D01*
X0021664Y0004623D01*
X0022337Y0004623D01*
X0022437Y0004554D01*
X0022606Y0004520D01*
X0024003Y0004520D01*
X0024160Y0004549D01*
X0024305Y0004642D01*
X0024402Y0004784D01*
X0024436Y0004953D01*
X0024436Y0005433D01*
X0024451Y0005448D01*
X0024988Y0005448D01*
X0025108Y0005398D01*
X0025436Y0005398D01*
X0025740Y0005523D01*
X0025972Y0005755D01*
X0026098Y0006058D01*
X0026098Y0006386D01*
X0026048Y0006508D01*
X0026048Y0006600D01*
X0026489Y0007042D01*
X0027420Y0007042D01*
X0027577Y0007071D01*
X0027722Y0007164D01*
X0027819Y0007306D01*
X0027853Y0007475D01*
X0027853Y0008525D01*
X0027830Y0008650D01*
X0028174Y0008993D01*
X0028445Y0009645D01*
X0028445Y0010352D01*
X0028176Y0011004D01*
X0027828Y0011352D01*
X0027853Y0011475D01*
X0027853Y0012525D01*
X0027824Y0012682D01*
X0027731Y0012827D01*
X0027589Y0012924D01*
X0027420Y0012958D01*
X0025920Y0012958D01*
X0025763Y0012929D01*
X0025732Y0012909D01*
X0025610Y0012990D01*
X0025418Y0013027D01*
X0025227Y0012988D01*
X0025145Y0012933D01*
X0025062Y0012992D01*
X0024871Y0013035D01*
X0024679Y0013001D01*
X0024514Y0012897D01*
X0024402Y0012737D01*
X0024366Y0012579D01*
X0024257Y0012469D01*
X0024206Y0012348D01*
X0024190Y0012332D01*
X0023637Y0012332D01*
X0023537Y0012401D01*
X0023368Y0012435D01*
X0021971Y0012435D01*
X0021814Y0012405D01*
X0021669Y0012312D01*
X0021572Y0012170D01*
X0021538Y0012002D01*
X0021538Y0011113D01*
X0021567Y0010955D01*
X0021660Y0010810D01*
X0021802Y0010713D01*
X0021895Y0010695D01*
X0021895Y0008307D01*
X0021296Y0007708D01*
X0021223Y0007599D01*
X0021143Y0007725D01*
X0021001Y0007822D01*
X0020832Y0007856D01*
X0020732Y0007856D01*
X0020732Y0007972D01*
X0020823Y0008108D01*
X0020882Y0008405D01*
X0020823Y0008701D01*
X0020655Y0008953D01*
X0020397Y0009211D01*
X0020397Y0012494D01*
X0020465Y0012595D01*
X0020499Y0012764D01*
X0020499Y0014161D01*
X0020470Y0014318D01*
X0020397Y0014432D01*
X0020397Y0015823D01*
X0020828Y0015823D01*
X0020985Y0015852D01*
X0021130Y0015945D01*
X0021227Y0016087D01*
X0021261Y0016256D01*
X0021261Y0017780D01*
X0021232Y0017937D01*
X0021139Y0018082D01*
X0020997Y0018179D01*
X0020828Y0018213D01*
X0019304Y0018213D01*
X0019147Y0018184D01*
X0019002Y0018091D01*
X0018905Y0017949D01*
X0018871Y0017780D01*
X0018871Y0016695D01*
X0018847Y0016574D01*
X0018847Y0014430D01*
X0018778Y0014329D01*
X0018744Y0014161D01*
X0018594Y0014161D01*
X0018565Y0014318D01*
X0018472Y0014463D01*
X0018330Y0014560D01*
X0018161Y0014594D01*
X0017272Y0014594D01*
X0017115Y0014564D01*
X0016970Y0014471D01*
X0016873Y0014329D01*
X0016839Y0014161D01*
X0016839Y0013680D01*
X0015771Y0012613D01*
X0015603Y0012362D01*
X0015545Y0012065D01*
X0015545Y0011601D01*
X0014542Y0011601D01*
X0012811Y0011603D01*
X0012427Y0011987D01*
X0012427Y0018034D01*
X0012397Y0018188D01*
X0012306Y0018330D01*
X0012167Y0018426D01*
X0012002Y0018459D01*
X0009970Y0018459D01*
X0009815Y0018430D01*
X0009673Y0018339D01*
X0009578Y0018199D01*
X0009545Y0018034D01*
X0009545Y0012686D01*
X0006174Y0009315D01*
X0005967Y0009315D01*
X0005967Y0009550D01*
X0005943Y0009680D01*
X0005967Y0009800D01*
X0005967Y0010200D01*
X0005938Y0010357D01*
X0005845Y0010502D01*
X0005703Y0010599D01*
X0005534Y0010633D01*
X0004184Y0010633D01*
X0004027Y0010604D01*
X0003882Y0010511D01*
X0003785Y0010369D01*
X0003751Y0010200D01*
X0000525Y0010200D01*
X0000525Y0019475D01*
X0029475Y0019475D01*
X0029475Y0000525D01*
X0000000Y0020000D02*
G01*
D19*
D28*
X0016065Y0027430D03*
X0016065Y0029335D03*
X0024003Y0036828D03*
X0024003Y0038733D03*
D53*
X0016002Y0021933D03*
X0016002Y0025433D03*
D23*
X0013271Y0022604D03*
X0010731Y0022604D03*
X0013271Y0025144D03*
X0010731Y0025144D03*
X0013271Y0027684D03*
X0010731Y0027684D03*
X0018859Y0031938D03*
X0018859Y0034478D03*
X0021399Y0031938D03*
X0021399Y0034478D03*
X0023939Y0031938D03*
X0023939Y0034478D03*
X0026479Y0031938D03*
X0026479Y0034478D03*
X0029019Y0031938D03*
X0029019Y0034478D03*
X0018859Y0026858D03*
X0018859Y0029398D03*
X0021399Y0026858D03*
X0021399Y0029398D03*
X0023939Y0026858D03*
X0023939Y0029398D03*
X0026479Y0026858D03*
X0026479Y0029398D03*
X0029019Y0026858D03*
X0029019Y0029398D03*
X0018859Y0021778D03*
X0018859Y0024318D03*
X0021399Y0021778D03*
X0021399Y0024318D03*
X0023939Y0021778D03*
X0023939Y0024318D03*
X0026479Y0021778D03*
X0026479Y0024318D03*
X0029019Y0021778D03*
X0029019Y0024318D03*
X0012255Y0037717D03*
X0012255Y0035177D03*
X0014795Y0037717D03*
X0014795Y0035177D03*
D28*
X0012192Y0030859D03*
X0012192Y0032764D03*
X0014541Y0030859D03*
X0014541Y0032764D03*
D47*
X0004826Y0024826D03*
X0004826Y0034986D03*
X0035306Y0034986D03*
X0035306Y0024826D03*
D32*
X0022606Y0036701D03*
X0016700Y0031240D03*
X0016700Y0031240D03*
X0020002Y0037780D03*
D17*
X0022606Y0036701D02*
X0023876Y0036701D01*
X0023876Y0036701D02*
X0024003Y0036828D01*
X0023812Y0036637D02*
X0024003Y0036828D01*
X0014541Y0030859D02*
X0016319Y0030859D01*
X0016319Y0030859D02*
X0016700Y0031240D01*
X0023939Y0034478D02*
X0023939Y0036764D01*
X0023939Y0036764D02*
X0024003Y0036828D01*
X0023939Y0026858D02*
X0023939Y0034478D01*
D19*
X0023939Y0026858D02*
X0023939Y0027747D01*
X0023939Y0027747D02*
X0023939Y0029398D01*
D17*
X0023939Y0024318D02*
X0023939Y0027747D01*
X0023939Y0021778D02*
X0023939Y0024318D01*
X0011747Y0030795D02*
X0014160Y0030795D01*
X0011684Y0030732D02*
X0011747Y0030795D01*
X0016002Y0025433D02*
X0016002Y0027366D01*
X0016002Y0027366D02*
X0016065Y0027430D01*
X0013271Y0025144D02*
X0015712Y0025144D01*
X0015712Y0025144D02*
X0016002Y0025433D01*
X0010731Y0025144D02*
X0013271Y0025144D01*
D19*
X0023939Y0031938D02*
X0023939Y0034478D01*
X0023939Y0029398D02*
X0023939Y0031938D01*
X0023939Y0024318D02*
X0023939Y0026858D01*
D17*
X0021399Y0034478D02*
X0021399Y0036383D01*
X0021399Y0036383D02*
X0020002Y0037780D01*
X0021399Y0029398D02*
X0021399Y0031938D01*
X0021399Y0026858D02*
X0021399Y0029398D01*
X0021399Y0024318D02*
X0021399Y0026858D01*
X0021399Y0021778D02*
X0021399Y0024318D01*
D19*
X0021399Y0023429D02*
X0021399Y0024318D01*
D17*
X0021399Y0021778D02*
X0021399Y0023429D01*
X0021399Y0034478D02*
X0021399Y0031938D01*
X0026479Y0021778D02*
X0026479Y0034478D01*
D19*
X0026479Y0031938D02*
X0026479Y0034478D01*
X0026479Y0029398D02*
X0026479Y0031938D01*
X0026479Y0026858D02*
X0026479Y0029398D01*
X0026479Y0024318D02*
X0026479Y0026858D01*
X0026479Y0021778D02*
X0026479Y0024318D01*
D17*
X0012192Y0032764D02*
X0012192Y0035113D01*
X0012192Y0035113D02*
X0012255Y0035177D01*
X0014541Y0032764D02*
X0014541Y0034923D01*
X0014541Y0034923D02*
X0014795Y0035177D01*
D18*
G36*
X0011366Y0039102D02*
X0011258Y0039082D01*
X0011042Y0038943D01*
X0010897Y0038730D01*
X0010846Y0038479D01*
X0010846Y0036955D01*
X0010890Y0036719D01*
X0011029Y0036503D01*
X0011111Y0036447D01*
X0011042Y0036403D01*
X0010897Y0036190D01*
X0010846Y0035939D01*
X0010846Y0034415D01*
X0010890Y0034179D01*
X0011029Y0033963D01*
X0011242Y0033818D01*
X0011257Y0033815D01*
X0011257Y0033810D01*
X0011042Y0033672D01*
X0010897Y0033460D01*
X0010846Y0033208D01*
X0010846Y0032319D01*
X0010890Y0032084D01*
X0011029Y0031868D01*
X0011111Y0031812D01*
X0011042Y0031767D01*
X0010897Y0031555D01*
X0010846Y0031303D01*
X0010846Y0031128D01*
X0010820Y0031089D01*
X0010749Y0030732D01*
X0010820Y0030374D01*
X0010867Y0030304D01*
X0010890Y0030179D01*
X0011029Y0029963D01*
X0011242Y0029818D01*
X0011493Y0029767D01*
X0012890Y0029767D01*
X0013126Y0029811D01*
X0013202Y0029860D01*
X0013529Y0029860D01*
X0013591Y0029818D01*
X0013843Y0029767D01*
X0015240Y0029767D01*
X0015475Y0029811D01*
X0015650Y0029924D01*
X0016319Y0029924D01*
X0016677Y0029995D01*
X0016981Y0030197D01*
X0017045Y0030262D01*
X0017286Y0030362D01*
X0017577Y0030652D01*
X0017735Y0031033D01*
X0017736Y0031444D01*
X0017578Y0031825D01*
X0017288Y0032116D01*
X0016907Y0032274D01*
X0016496Y0032275D01*
X0016115Y0032117D01*
X0015824Y0031827D01*
X0015810Y0031794D01*
X0015647Y0031794D01*
X0015622Y0031810D01*
X0015691Y0031855D01*
X0015836Y0032067D01*
X0015887Y0032319D01*
X0015887Y0033208D01*
X0015843Y0033443D01*
X0015704Y0033659D01*
X0015547Y0033767D01*
X0015557Y0033767D01*
X0015793Y0033811D01*
X0016009Y0033950D01*
X0016154Y0034163D01*
X0016205Y0034415D01*
X0016205Y0035939D01*
X0016161Y0036174D01*
X0016022Y0036390D01*
X0015940Y0036446D01*
X0016009Y0036490D01*
X0016154Y0036703D01*
X0016205Y0036955D01*
X0016205Y0038479D01*
X0016161Y0038714D01*
X0016022Y0038930D01*
X0015809Y0039075D01*
X0015676Y0039102D01*
X0039422Y0039102D01*
X0039422Y0020710D01*
X0027801Y0020710D01*
X0027838Y0020764D01*
X0027889Y0021016D01*
X0027889Y0022540D01*
X0027845Y0022775D01*
X0027706Y0022991D01*
X0027624Y0023047D01*
X0027693Y0023092D01*
X0027838Y0023304D01*
X0027889Y0023556D01*
X0027889Y0025080D01*
X0027845Y0025315D01*
X0027706Y0025531D01*
X0027624Y0025587D01*
X0027693Y0025632D01*
X0027838Y0025844D01*
X0027889Y0026096D01*
X0027889Y0027620D01*
X0027845Y0027855D01*
X0027706Y0028071D01*
X0027624Y0028127D01*
X0027693Y0028172D01*
X0027838Y0028384D01*
X0027889Y0028636D01*
X0027889Y0030160D01*
X0027845Y0030395D01*
X0027706Y0030611D01*
X0027624Y0030667D01*
X0027693Y0030712D01*
X0027838Y0030924D01*
X0027889Y0031176D01*
X0027889Y0032700D01*
X0027845Y0032935D01*
X0027706Y0033151D01*
X0027624Y0033207D01*
X0027693Y0033252D01*
X0027838Y0033464D01*
X0027889Y0033716D01*
X0027889Y0035240D01*
X0027845Y0035475D01*
X0027706Y0035691D01*
X0027493Y0035836D01*
X0027241Y0035887D01*
X0025717Y0035887D01*
X0025482Y0035843D01*
X0025266Y0035704D01*
X0025210Y0035622D01*
X0025166Y0035691D01*
X0024988Y0035813D01*
X0025153Y0035919D01*
X0025298Y0036131D01*
X0025349Y0036383D01*
X0025349Y0037272D01*
X0025305Y0037507D01*
X0025166Y0037723D01*
X0024953Y0037868D01*
X0024701Y0037919D01*
X0023304Y0037919D01*
X0023069Y0037875D01*
X0022853Y0037736D01*
X0022844Y0037722D01*
X0022813Y0037735D01*
X0022401Y0037736D01*
X0022020Y0037578D01*
X0021773Y0037332D01*
X0020980Y0038125D01*
X0020880Y0038366D01*
X0020590Y0038657D01*
X0020209Y0038815D01*
X0019798Y0038815D01*
X0019417Y0038658D01*
X0019126Y0038367D01*
X0018968Y0037987D01*
X0018967Y0037575D01*
X0019125Y0037194D01*
X0019415Y0036903D01*
X0019658Y0036802D01*
X0020464Y0035996D01*
X0020464Y0035855D01*
X0020402Y0035843D01*
X0020186Y0035704D01*
X0020041Y0035492D01*
X0019990Y0035240D01*
X0019990Y0033716D01*
X0020034Y0033481D01*
X0020173Y0033265D01*
X0020255Y0033209D01*
X0020186Y0033164D01*
X0020041Y0032952D01*
X0019990Y0032700D01*
X0019990Y0031176D01*
X0020034Y0030941D01*
X0020173Y0030725D01*
X0020255Y0030669D01*
X0020186Y0030624D01*
X0020041Y0030412D01*
X0019990Y0030160D01*
X0019990Y0028636D01*
X0020034Y0028401D01*
X0020173Y0028185D01*
X0020255Y0028129D01*
X0020186Y0028084D01*
X0020041Y0027872D01*
X0019990Y0027620D01*
X0019990Y0026096D01*
X0020034Y0025861D01*
X0020173Y0025645D01*
X0020255Y0025589D01*
X0020186Y0025544D01*
X0020041Y0025332D01*
X0019990Y0025080D01*
X0019990Y0023556D01*
X0020034Y0023321D01*
X0020173Y0023105D01*
X0020255Y0023049D01*
X0020186Y0023004D01*
X0020041Y0022792D01*
X0019990Y0022540D01*
X0019990Y0021016D01*
X0020034Y0020781D01*
X0020080Y0020710D01*
X0009969Y0020710D01*
X0009969Y0023734D01*
X0011493Y0023734D01*
X0011729Y0023778D01*
X0011945Y0023917D01*
X0012001Y0023999D01*
X0012045Y0023930D01*
X0012258Y0023785D01*
X0012509Y0023734D01*
X0014033Y0023734D01*
X0014269Y0023778D01*
X0014485Y0023917D01*
X0014630Y0024130D01*
X0014646Y0024209D01*
X0014868Y0024209D01*
X0014900Y0024186D01*
X0015152Y0024135D01*
X0016852Y0024135D01*
X0017087Y0024180D01*
X0017303Y0024319D01*
X0017448Y0024531D01*
X0017499Y0024783D01*
X0017499Y0026083D01*
X0017455Y0026319D01*
X0017316Y0026535D01*
X0017254Y0026577D01*
X0017360Y0026733D01*
X0017411Y0026985D01*
X0017411Y0027874D01*
X0017367Y0028109D01*
X0017228Y0028325D01*
X0017016Y0028470D01*
X0016764Y0028521D01*
X0015367Y0028521D01*
X0015132Y0028477D01*
X0014916Y0028338D01*
X0014771Y0028126D01*
X0014720Y0027874D01*
X0014720Y0026985D01*
X0014764Y0026750D01*
X0014837Y0026635D01*
X0014701Y0026547D01*
X0014556Y0026335D01*
X0014545Y0026283D01*
X0014498Y0026357D01*
X0014285Y0026502D01*
X0014033Y0026553D01*
X0012509Y0026553D01*
X0012274Y0026509D01*
X0012058Y0026370D01*
X0012002Y0026288D01*
X0011958Y0026357D01*
X0011745Y0026502D01*
X0011493Y0026553D01*
X0009969Y0026553D01*
X0009734Y0026509D01*
X0009518Y0026370D01*
X0009373Y0026157D01*
X0009322Y0025906D01*
X0009322Y0024382D01*
X0009366Y0024146D01*
X0009505Y0023930D01*
X0009718Y0023785D01*
X0009969Y0023734D01*
X0009969Y0020710D01*
X0000710Y0020710D01*
X0000710Y0039102D01*
X0011366Y0039102D01*
X0011366Y0039102D01*
G37*
X0011366Y0039102D02*
X0011258Y0039082D01*
X0011042Y0038943D01*
X0010897Y0038730D01*
X0010846Y0038479D01*
X0010846Y0036955D01*
X0010890Y0036719D01*
X0011029Y0036503D01*
X0011111Y0036447D01*
X0011042Y0036403D01*
X0010897Y0036190D01*
X0010846Y0035939D01*
X0010846Y0034415D01*
X0010890Y0034179D01*
X0011029Y0033963D01*
X0011242Y0033818D01*
X0011257Y0033815D01*
X0011257Y0033810D01*
X0011042Y0033672D01*
X0010897Y0033460D01*
X0010846Y0033208D01*
X0010846Y0032319D01*
X0010890Y0032084D01*
X0011029Y0031868D01*
X0011111Y0031812D01*
X0011042Y0031767D01*
X0010897Y0031555D01*
X0010846Y0031303D01*
X0010846Y0031128D01*
X0010820Y0031089D01*
X0010749Y0030732D01*
X0010820Y0030374D01*
X0010867Y0030304D01*
X0010890Y0030179D01*
X0011029Y0029963D01*
X0011242Y0029818D01*
X0011493Y0029767D01*
X0012890Y0029767D01*
X0013126Y0029811D01*
X0013202Y0029860D01*
X0013529Y0029860D01*
X0013591Y0029818D01*
X0013843Y0029767D01*
X0015240Y0029767D01*
X0015475Y0029811D01*
X0015650Y0029924D01*
X0016319Y0029924D01*
X0016677Y0029995D01*
X0016981Y0030197D01*
X0017045Y0030262D01*
X0017286Y0030362D01*
X0017577Y0030652D01*
X0017735Y0031033D01*
X0017736Y0031444D01*
X0017578Y0031825D01*
X0017288Y0032116D01*
X0016907Y0032274D01*
X0016496Y0032275D01*
X0016115Y0032117D01*
X0015824Y0031827D01*
X0015810Y0031794D01*
X0015647Y0031794D01*
X0015622Y0031810D01*
X0015691Y0031855D01*
X0015836Y0032067D01*
X0015887Y0032319D01*
X0015887Y0033208D01*
X0015843Y0033443D01*
X0015704Y0033659D01*
X0015547Y0033767D01*
X0015557Y0033767D01*
X0015793Y0033811D01*
X0016009Y0033950D01*
X0016154Y0034163D01*
X0016205Y0034415D01*
X0016205Y0035939D01*
X0016161Y0036174D01*
X0016022Y0036390D01*
X0015940Y0036446D01*
X0016009Y0036490D01*
X0016154Y0036703D01*
X0016205Y0036955D01*
X0016205Y0038479D01*
X0016161Y0038714D01*
X0016022Y0038930D01*
X0015809Y0039075D01*
X0015676Y0039102D01*
X0039422Y0039102D01*
X0039422Y0020710D01*
X0027801Y0020710D01*
X0027838Y0020764D01*
X0027889Y0021016D01*
X0027889Y0022540D01*
X0027845Y0022775D01*
X0027706Y0022991D01*
X0027624Y0023047D01*
X0027693Y0023092D01*
X0027838Y0023304D01*
X0027889Y0023556D01*
X0027889Y0025080D01*
X0027845Y0025315D01*
X0027706Y0025531D01*
X0027624Y0025587D01*
X0027693Y0025632D01*
X0027838Y0025844D01*
X0027889Y0026096D01*
X0027889Y0027620D01*
X0027845Y0027855D01*
X0027706Y0028071D01*
X0027624Y0028127D01*
X0027693Y0028172D01*
X0027838Y0028384D01*
X0027889Y0028636D01*
X0027889Y0030160D01*
X0027845Y0030395D01*
X0027706Y0030611D01*
X0027624Y0030667D01*
X0027693Y0030712D01*
X0027838Y0030924D01*
X0027889Y0031176D01*
X0027889Y0032700D01*
X0027845Y0032935D01*
X0027706Y0033151D01*
X0027624Y0033207D01*
X0027693Y0033252D01*
X0027838Y0033464D01*
X0027889Y0033716D01*
X0027889Y0035240D01*
X0027845Y0035475D01*
X0027706Y0035691D01*
X0027493Y0035836D01*
X0027241Y0035887D01*
X0025717Y0035887D01*
X0025482Y0035843D01*
X0025266Y0035704D01*
X0025210Y0035622D01*
X0025166Y0035691D01*
X0024988Y0035813D01*
X0025153Y0035919D01*
X0025298Y0036131D01*
X0025349Y0036383D01*
X0025349Y0037272D01*
X0025305Y0037507D01*
X0025166Y0037723D01*
X0024953Y0037868D01*
X0024701Y0037919D01*
X0023304Y0037919D01*
X0023069Y0037875D01*
X0022853Y0037736D01*
X0022844Y0037722D01*
X0022813Y0037735D01*
X0022401Y0037736D01*
X0022020Y0037578D01*
X0021773Y0037332D01*
X0020980Y0038125D01*
X0020880Y0038366D01*
X0020590Y0038657D01*
X0020209Y0038815D01*
X0019798Y0038815D01*
X0019417Y0038658D01*
X0019126Y0038367D01*
X0018968Y0037987D01*
X0018967Y0037575D01*
X0019125Y0037194D01*
X0019415Y0036903D01*
X0019658Y0036802D01*
X0020464Y0035996D01*
X0020464Y0035855D01*
X0020402Y0035843D01*
X0020186Y0035704D01*
X0020041Y0035492D01*
X0019990Y0035240D01*
X0019990Y0033716D01*
X0020034Y0033481D01*
X0020173Y0033265D01*
X0020255Y0033209D01*
X0020186Y0033164D01*
X0020041Y0032952D01*
X0019990Y0032700D01*
X0019990Y0031176D01*
X0020034Y0030941D01*
X0020173Y0030725D01*
X0020255Y0030669D01*
X0020186Y0030624D01*
X0020041Y0030412D01*
X0019990Y0030160D01*
X0019990Y0028636D01*
X0020034Y0028401D01*
X0020173Y0028185D01*
X0020255Y0028129D01*
X0020186Y0028084D01*
X0020041Y0027872D01*
X0019990Y0027620D01*
X0019990Y0026096D01*
X0020034Y0025861D01*
X0020173Y0025645D01*
X0020255Y0025589D01*
X0020186Y0025544D01*
X0020041Y0025332D01*
X0019990Y0025080D01*
X0019990Y0023556D01*
X0020034Y0023321D01*
X0020173Y0023105D01*
X0020255Y0023049D01*
X0020186Y0023004D01*
X0020041Y0022792D01*
X0019990Y0022540D01*
X0019990Y0021016D01*
X0020034Y0020781D01*
X0020080Y0020710D01*
X0009969Y0020710D01*
X0009969Y0023734D01*
X0011493Y0023734D01*
X0011729Y0023778D01*
X0011945Y0023917D01*
X0012001Y0023999D01*
X0012045Y0023930D01*
X0012258Y0023785D01*
X0012509Y0023734D01*
X0014033Y0023734D01*
X0014269Y0023778D01*
X0014485Y0023917D01*
X0014630Y0024130D01*
X0014646Y0024209D01*
X0014868Y0024209D01*
X0014900Y0024186D01*
X0015152Y0024135D01*
X0016852Y0024135D01*
X0017087Y0024180D01*
X0017303Y0024319D01*
X0017448Y0024531D01*
X0017499Y0024783D01*
X0017499Y0026083D01*
X0017455Y0026319D01*
X0017316Y0026535D01*
X0017254Y0026577D01*
X0017360Y0026733D01*
X0017411Y0026985D01*
X0017411Y0027874D01*
X0017367Y0028109D01*
X0017228Y0028325D01*
X0017016Y0028470D01*
X0016764Y0028521D01*
X0015367Y0028521D01*
X0015132Y0028477D01*
X0014916Y0028338D01*
X0014771Y0028126D01*
X0014720Y0027874D01*
X0014720Y0026985D01*
X0014764Y0026750D01*
X0014837Y0026635D01*
X0014701Y0026547D01*
X0014556Y0026335D01*
X0014545Y0026283D01*
X0014498Y0026357D01*
X0014285Y0026502D01*
X0014033Y0026553D01*
X0012509Y0026553D01*
X0012274Y0026509D01*
X0012058Y0026370D01*
X0012002Y0026288D01*
X0011958Y0026357D01*
X0011745Y0026502D01*
X0011493Y0026553D01*
X0009969Y0026553D01*
X0009734Y0026509D01*
X0009518Y0026370D01*
X0009373Y0026157D01*
X0009322Y0025906D01*
X0009322Y0024382D01*
X0009366Y0024146D01*
X0009505Y0023930D01*
X0009718Y0023785D01*
X0009969Y0023734D01*
X0009969Y0020710D01*
X0000710Y0020710D01*
X0000710Y0039102D01*
X0011366Y0039102D01*
X0000000Y0039810D02*
G01*
D19*
D13*
X0009201Y0077957D02*
X0009263Y0077895D01*
X0009387Y0077833D01*
X0009697Y0077833D01*
X0009820Y0077895D01*
X0009882Y0077957D01*
X0009944Y0078081D01*
X0009944Y0078205D01*
X0009882Y0078390D01*
X0009140Y0079133D01*
X0009944Y0079133D01*
X0010749Y0077833D02*
X0010873Y0077833D01*
X0010997Y0077895D01*
X0011059Y0077957D01*
X0011120Y0078081D01*
X0011182Y0078328D01*
X0011182Y0078638D01*
X0011120Y0078885D01*
X0011059Y0079009D01*
X0010997Y0079071D01*
X0010873Y0079133D01*
X0010749Y0079133D01*
X0010625Y0079071D01*
X0010563Y0079009D01*
X0010501Y0078885D01*
X0010440Y0078638D01*
X0010440Y0078328D01*
X0010501Y0078081D01*
X0010563Y0077957D01*
X0010625Y0077895D01*
X0010749Y0077833D01*
X0012420Y0079133D02*
X0011678Y0079133D01*
X0012049Y0079133D02*
X0012049Y0077833D01*
X0011925Y0078019D01*
X0011801Y0078143D01*
X0011678Y0078205D01*
X0013535Y0077833D02*
X0013287Y0077833D01*
X0013163Y0077895D01*
X0013101Y0077957D01*
X0012978Y0078143D01*
X0012916Y0078390D01*
X0012916Y0078885D01*
X0012978Y0079009D01*
X0013040Y0079071D01*
X0013163Y0079133D01*
X0013411Y0079133D01*
X0013535Y0079071D01*
X0013597Y0079009D01*
X0013659Y0078885D01*
X0013659Y0078576D01*
X0013597Y0078452D01*
X0013535Y0078390D01*
X0013411Y0078328D01*
X0013163Y0078328D01*
X0013040Y0078390D01*
X0012978Y0078452D01*
X0012916Y0078576D01*
X0023687Y0078816D02*
X0023687Y0077516D01*
X0024120Y0078444D01*
X0024553Y0077516D01*
X0024553Y0078816D01*
X0025792Y0078816D02*
X0025172Y0078816D01*
X0025172Y0077516D01*
X0026163Y0078444D02*
X0026782Y0078444D01*
X0026039Y0078816D02*
X0026472Y0077516D01*
X0026906Y0078816D01*
X0027772Y0078135D02*
X0027958Y0078197D01*
X0028020Y0078258D01*
X0028082Y0078382D01*
X0028082Y0078568D01*
X0028020Y0078692D01*
X0027958Y0078754D01*
X0027834Y0078816D01*
X0027339Y0078816D01*
X0027339Y0077516D01*
X0027772Y0077516D01*
X0027896Y0077578D01*
X0027958Y0077639D01*
X0028020Y0077763D01*
X0028020Y0077887D01*
X0027958Y0078011D01*
X0027896Y0078073D01*
X0027772Y0078135D01*
X0027339Y0078135D01*
X0028639Y0078692D02*
X0028701Y0078754D01*
X0028639Y0078816D01*
X0028577Y0078754D01*
X0028639Y0078692D01*
X0028639Y0078816D01*
X0030001Y0078692D02*
X0029939Y0078754D01*
X0029753Y0078816D01*
X0029630Y0078816D01*
X0029444Y0078754D01*
X0029320Y0078630D01*
X0029258Y0078506D01*
X0029196Y0078258D01*
X0029196Y0078073D01*
X0029258Y0077825D01*
X0029320Y0077701D01*
X0029444Y0077578D01*
X0029630Y0077516D01*
X0029753Y0077516D01*
X0029939Y0077578D01*
X0030001Y0077639D01*
X0030434Y0077516D02*
X0031301Y0077516D01*
X0030434Y0078816D01*
X0031301Y0078816D01*
D41*
X0033274Y0054890D03*
X0033274Y0050892D03*
D35*
X0004906Y0052637D03*
X0009906Y0052637D03*
D14*
X0021511Y0066861D03*
X0027511Y0066861D03*
X0021638Y0056066D03*
X0027638Y0056066D03*
D47*
X0004826Y0075116D03*
X0035306Y0075116D03*
X0035306Y0044636D03*
X0004826Y0044636D03*
D49*
X0017633Y0056648D03*
X0017133Y0056648D03*
X0016633Y0056648D03*
X0016133Y0056648D03*
X0015633Y0056648D03*
X0015133Y0056648D03*
X0015133Y0059548D03*
X0015633Y0059548D03*
X0016133Y0059548D03*
X0016633Y0059548D03*
X0017133Y0059548D03*
X0017633Y0059548D03*
D21*
X0015146Y0058523D03*
X0015971Y0058523D03*
X0016796Y0058523D03*
X0017621Y0058523D03*
X0015146Y0057673D03*
X0015971Y0057673D03*
X0016796Y0057673D03*
X0017621Y0057673D03*
D28*
X0018161Y0053971D03*
X0018161Y0052066D03*
D42*
X0019114Y0049970D03*
X0017209Y0049970D03*
X0015304Y0049970D03*
X0013399Y0049970D03*
X0015304Y0052891D03*
X0013399Y0052891D03*
D28*
X0020574Y0061972D03*
X0020574Y0060067D03*
D23*
X0014859Y0044128D03*
X0014859Y0046668D03*
X0012319Y0044128D03*
X0012319Y0046668D03*
D35*
X0004906Y0057590D03*
X0009906Y0057590D03*
D23*
X0017399Y0044128D03*
X0022479Y0046668D03*
X0022479Y0044128D03*
X0022479Y0041588D03*
X0017399Y0046668D03*
X0019939Y0046668D03*
X0019939Y0044128D03*
X0028956Y0046160D03*
X0026416Y0046160D03*
X0028956Y0048700D03*
X0026416Y0048700D03*
X0028956Y0051240D03*
X0026416Y0051240D03*
X0005969Y0063686D03*
X0003429Y0063686D03*
X0005969Y0066226D03*
X0003429Y0066226D03*
X0005969Y0068766D03*
X0003429Y0068766D03*
D10*
X0013145Y0070735D03*
D31*
X0020645Y0070735D03*
D10*
X0027940Y0062226D03*
D31*
X0035440Y0062226D03*
D32*
X0034608Y0056892D03*
X0033147Y0056955D03*
X0031750Y0057019D03*
X0033465Y0062353D03*
X0034417Y0064131D03*
X0036132Y0064131D03*
X0037211Y0063115D03*
X0037148Y0061464D03*
X0035941Y0060511D03*
X0034290Y0060638D03*
X0012538Y0062173D03*
X0030226Y0054288D03*
X0023114Y0053526D03*
X0025019Y0050859D03*
X0023876Y0050859D03*
X0022987Y0051748D03*
X0022098Y0052637D03*
X0021209Y0053526D03*
X0024765Y0062797D03*
X0022479Y0062797D03*
X0024257Y0068258D03*
X0018034Y0067496D03*
X0019050Y0067369D03*
X0019050Y0065337D03*
X0018034Y0064448D03*
X0019088Y0051786D03*
X0005969Y0070417D03*
X0003429Y0070417D03*
X0003429Y0061908D03*
X0005969Y0061908D03*
X0018923Y0058098D03*
X0019177Y0059114D03*
X0015558Y0061718D03*
X0016846Y0052896D03*
X0015178Y0054936D03*
X0016046Y0054110D03*
X0013716Y0060638D03*
X0013716Y0061654D03*
X0016383Y0049970D03*
X0013970Y0059495D03*
D11*
X0033147Y0056955D02*
X0034544Y0056955D01*
X0034544Y0056955D02*
X0034608Y0056892D01*
X0035941Y0060511D02*
X0035243Y0060511D01*
X0035243Y0060511D02*
X0031750Y0057019D01*
X0036132Y0064131D02*
X0034417Y0064131D01*
X0037148Y0061464D02*
X0037148Y0063051D01*
X0037148Y0063051D02*
X0037211Y0063115D01*
X0034290Y0060638D02*
X0035814Y0060638D01*
X0035814Y0060638D02*
X0035941Y0060511D01*
X0013714Y0058479D02*
X0012538Y0059655D01*
X0012538Y0059655D02*
X0012538Y0062173D01*
X0015146Y0058523D02*
X0013758Y0058523D01*
X0013758Y0058523D02*
X0013714Y0058479D01*
X0021209Y0053526D02*
X0023114Y0053526D01*
X0022987Y0051748D02*
X0023876Y0050859D01*
X0021209Y0053526D02*
X0022098Y0052637D01*
X0022479Y0062797D02*
X0024765Y0062797D01*
X0026416Y0051240D02*
X0026416Y0052402D01*
X0026416Y0052402D02*
X0024257Y0054561D01*
X0024257Y0054561D02*
X0024257Y0068258D01*
X0019050Y0067369D02*
X0019050Y0069020D01*
X0019050Y0067369D02*
X0018161Y0067369D01*
X0018161Y0067369D02*
X0018034Y0067496D01*
X0018034Y0064448D02*
X0018161Y0064448D01*
X0018161Y0064448D02*
X0019050Y0065337D01*
X0018161Y0052066D02*
X0018808Y0052066D01*
X0018808Y0052066D02*
X0019088Y0051786D01*
X0003429Y0068766D02*
X0003429Y0070417D01*
X0033274Y0054890D02*
X0033274Y0055558D01*
X0005969Y0063686D02*
X0005969Y0061908D01*
X0017621Y0058523D02*
X0018586Y0058523D01*
X0018586Y0058523D02*
X0019177Y0059114D01*
D13*
X0009906Y0059795D02*
X0009906Y0057590D01*
X0017133Y0059548D02*
X0017133Y0067800D01*
X0017133Y0067800D02*
X0014262Y0070671D01*
X0009906Y0066315D02*
X0009906Y0059795D01*
X0013462Y0070671D02*
X0013462Y0069871D01*
X0013462Y0069871D02*
X0009906Y0066315D01*
X0014262Y0070671D02*
X0013462Y0070671D01*
D16*
X0016633Y0059548D02*
X0016633Y0060642D01*
X0016633Y0060642D02*
X0015558Y0061718D01*
X0016633Y0056648D02*
X0016633Y0054559D01*
X0016633Y0054559D02*
X0016846Y0054346D01*
X0016846Y0054346D02*
X0016846Y0052896D01*
X0015633Y0056648D02*
X0015633Y0055391D01*
X0015633Y0055391D02*
X0015178Y0054936D01*
X0016133Y0056648D02*
X0016133Y0054198D01*
X0016133Y0054198D02*
X0016046Y0054110D01*
D11*
X0014859Y0044128D02*
X0014859Y0046668D01*
D16*
X0015633Y0059548D02*
X0015633Y0060063D01*
X0015633Y0060063D02*
X0015058Y0060638D01*
X0015058Y0060638D02*
X0014282Y0060638D01*
X0014282Y0060638D02*
X0013716Y0060638D01*
D11*
X0012319Y0044128D02*
X0012319Y0046668D01*
D16*
X0016133Y0059548D02*
X0016133Y0060129D01*
X0016133Y0060129D02*
X0014608Y0061654D01*
X0014608Y0061654D02*
X0013716Y0061654D01*
X0018669Y0060384D02*
X0018733Y0060384D01*
X0018733Y0060384D02*
X0020320Y0061972D01*
X0020320Y0061972D02*
X0020574Y0061972D01*
X0018669Y0060067D02*
X0018669Y0060384D01*
X0017633Y0059548D02*
X0018151Y0059548D01*
X0018151Y0059548D02*
X0018669Y0060067D01*
X0017633Y0056648D02*
X0021056Y0056648D01*
X0021056Y0056648D02*
X0021638Y0056066D01*
X0015133Y0059548D02*
X0014023Y0059548D01*
X0014023Y0059548D02*
X0013970Y0059495D01*
D11*
X0016383Y0049970D02*
X0015304Y0049970D01*
X0016383Y0049970D02*
X0017209Y0049970D01*
D16*
X0015133Y0056648D02*
X0015133Y0055959D01*
X0015133Y0055959D02*
X0014478Y0055304D01*
X0014478Y0055304D02*
X0014478Y0053971D01*
X0014478Y0053971D02*
X0015304Y0053145D01*
X0015304Y0053145D02*
X0015304Y0052891D01*
D18*
G36*
X0023114Y0064882D02*
X0021500Y0063268D01*
X0021472Y0063226D01*
X0021463Y0063178D01*
X0021463Y0061273D01*
X0019431Y0061273D01*
X0019382Y0061263D01*
X0019340Y0061235D01*
X0019313Y0061192D01*
X0019304Y0061146D01*
X0019304Y0060437D01*
X0018235Y0059368D01*
X0018109Y0059368D01*
X0018033Y0059383D01*
X0017699Y0059383D01*
X0017699Y0059493D01*
X0017710Y0059548D01*
X0017710Y0062420D01*
X0019902Y0064612D01*
X0019930Y0064654D01*
X0019939Y0064702D01*
X0019939Y0068512D01*
X0023114Y0068512D01*
X0023114Y0064882D01*
X0023114Y0064882D01*
G37*
X0023114Y0064882D02*
X0021500Y0063268D01*
X0021472Y0063226D01*
X0021463Y0063178D01*
X0021463Y0061273D01*
X0019431Y0061273D01*
X0019382Y0061263D01*
X0019340Y0061235D01*
X0019313Y0061192D01*
X0019304Y0061146D01*
X0019304Y0060437D01*
X0018235Y0059368D01*
X0018109Y0059368D01*
X0018033Y0059383D01*
X0017699Y0059383D01*
X0017699Y0059493D01*
X0017710Y0059548D01*
X0017710Y0062420D01*
X0019902Y0064612D01*
X0019930Y0064654D01*
X0019939Y0064702D01*
X0019939Y0068512D01*
X0023114Y0068512D01*
X0023114Y0064882D01*
G36*
X0023495Y0054415D02*
X0019992Y0054415D01*
X0017997Y0056410D01*
X0017955Y0056438D01*
X0017907Y0056447D01*
X0017699Y0056447D01*
X0017699Y0056813D01*
X0018033Y0056813D01*
X0018115Y0056828D01*
X0018669Y0056828D01*
X0018718Y0056838D01*
X0018759Y0056865D01*
X0019219Y0057326D01*
X0019391Y0057396D01*
X0019624Y0057629D01*
X0019696Y0057802D01*
X0019902Y0058008D01*
X0019930Y0058050D01*
X0019939Y0058098D01*
X0019939Y0058793D01*
X0020004Y0058949D01*
X0020004Y0059278D01*
X0019939Y0059435D01*
X0019939Y0060384D01*
X0023495Y0060384D01*
X0023495Y0054415D01*
X0023495Y0054415D01*
G37*
X0023495Y0054415D02*
X0019992Y0054415D01*
X0017997Y0056410D01*
X0017955Y0056438D01*
X0017907Y0056447D01*
X0017699Y0056447D01*
X0017699Y0056813D01*
X0018033Y0056813D01*
X0018115Y0056828D01*
X0018669Y0056828D01*
X0018718Y0056838D01*
X0018759Y0056865D01*
X0019219Y0057326D01*
X0019391Y0057396D01*
X0019624Y0057629D01*
X0019696Y0057802D01*
X0019902Y0058008D01*
X0019930Y0058050D01*
X0019939Y0058098D01*
X0019939Y0058793D01*
X0020004Y0058949D01*
X0020004Y0059278D01*
X0019939Y0059435D01*
X0019939Y0060384D01*
X0023495Y0060384D01*
X0023495Y0054415D01*
G36*
X0029210Y0068713D02*
X0029210Y0054542D01*
X0025654Y0054542D01*
X0025654Y0068258D01*
X0025644Y0068307D01*
X0025617Y0068348D01*
X0024347Y0069618D01*
X0024305Y0069646D01*
X0024257Y0069655D01*
X0019177Y0069655D01*
X0019177Y0072322D01*
X0025601Y0072322D01*
X0029210Y0068713D01*
X0029210Y0068713D01*
G37*
X0029210Y0068713D02*
X0029210Y0054542D01*
X0025654Y0054542D01*
X0025654Y0068258D01*
X0025644Y0068307D01*
X0025617Y0068348D01*
X0024347Y0069618D01*
X0024305Y0069646D01*
X0024257Y0069655D01*
X0019177Y0069655D01*
X0019177Y0072322D01*
X0025601Y0072322D01*
X0029210Y0068713D01*
D16*
G36*
X0017172Y0056066D02*
X0017180Y0056027D01*
X0017201Y0055995D01*
X0017328Y0055868D01*
X0017361Y0055846D01*
X0017399Y0055839D01*
X0017612Y0055839D01*
X0023551Y0049899D01*
X0023584Y0049877D01*
X0023622Y0049870D01*
X0030353Y0049870D01*
X0030392Y0049878D01*
X0030424Y0049899D01*
X0032299Y0051775D01*
X0034190Y0051775D01*
X0034190Y0049630D01*
X0032217Y0047657D01*
X0023876Y0047657D01*
X0023837Y0047649D01*
X0023805Y0047628D01*
X0023424Y0047247D01*
X0023402Y0047214D01*
X0023395Y0047176D01*
X0023395Y0045947D01*
X0023200Y0045752D01*
X0016551Y0045752D01*
X0016483Y0045820D01*
X0016483Y0047643D01*
X0017313Y0048473D01*
X0018034Y0048473D01*
X0018073Y0048481D01*
X0018105Y0048502D01*
X0018486Y0048883D01*
X0018508Y0048916D01*
X0018515Y0048954D01*
X0018515Y0050818D01*
X0018831Y0051134D01*
X0018948Y0051086D01*
X0019226Y0051085D01*
X0019358Y0051140D01*
X0019431Y0051140D01*
X0019470Y0051148D01*
X0019502Y0051169D01*
X0019756Y0051423D01*
X0019778Y0051456D01*
X0019785Y0051494D01*
X0019785Y0051640D01*
X0019787Y0051646D01*
X0019788Y0051924D01*
X0019785Y0051931D01*
X0019785Y0052002D01*
X0019777Y0052041D01*
X0019756Y0052073D01*
X0019706Y0052123D01*
X0019681Y0052182D01*
X0019485Y0052379D01*
X0019425Y0052404D01*
X0018867Y0052962D01*
X0018834Y0052984D01*
X0018796Y0052991D01*
X0017546Y0052991D01*
X0017546Y0053035D01*
X0017439Y0053292D01*
X0017246Y0053486D01*
X0017246Y0054346D01*
X0017246Y0054346D01*
X0017215Y0054500D01*
X0017129Y0054629D01*
X0017033Y0054725D01*
X0017033Y0056169D01*
X0017040Y0056179D01*
X0017064Y0056298D01*
X0017064Y0056855D01*
X0017172Y0056855D01*
X0017172Y0056066D01*
X0017172Y0056066D01*
G37*
X0017172Y0056066D02*
X0017180Y0056027D01*
X0017201Y0055995D01*
X0017328Y0055868D01*
X0017361Y0055846D01*
X0017399Y0055839D01*
X0017612Y0055839D01*
X0023551Y0049899D01*
X0023584Y0049877D01*
X0023622Y0049870D01*
X0030353Y0049870D01*
X0030392Y0049878D01*
X0030424Y0049899D01*
X0032299Y0051775D01*
X0034190Y0051775D01*
X0034190Y0049630D01*
X0032217Y0047657D01*
X0023876Y0047657D01*
X0023837Y0047649D01*
X0023805Y0047628D01*
X0023424Y0047247D01*
X0023402Y0047214D01*
X0023395Y0047176D01*
X0023395Y0045947D01*
X0023200Y0045752D01*
X0016551Y0045752D01*
X0016483Y0045820D01*
X0016483Y0047643D01*
X0017313Y0048473D01*
X0018034Y0048473D01*
X0018073Y0048481D01*
X0018105Y0048502D01*
X0018486Y0048883D01*
X0018508Y0048916D01*
X0018515Y0048954D01*
X0018515Y0050818D01*
X0018831Y0051134D01*
X0018948Y0051086D01*
X0019226Y0051085D01*
X0019358Y0051140D01*
X0019431Y0051140D01*
X0019470Y0051148D01*
X0019502Y0051169D01*
X0019756Y0051423D01*
X0019778Y0051456D01*
X0019785Y0051494D01*
X0019785Y0051640D01*
X0019787Y0051646D01*
X0019788Y0051924D01*
X0019785Y0051931D01*
X0019785Y0052002D01*
X0019777Y0052041D01*
X0019756Y0052073D01*
X0019706Y0052123D01*
X0019681Y0052182D01*
X0019485Y0052379D01*
X0019425Y0052404D01*
X0018867Y0052962D01*
X0018834Y0052984D01*
X0018796Y0052991D01*
X0017546Y0052991D01*
X0017546Y0053035D01*
X0017439Y0053292D01*
X0017246Y0053486D01*
X0017246Y0054346D01*
X0017246Y0054346D01*
X0017215Y0054500D01*
X0017129Y0054629D01*
X0017033Y0054725D01*
X0017033Y0056169D01*
X0017040Y0056179D01*
X0017064Y0056298D01*
X0017064Y0056855D01*
X0017172Y0056855D01*
X0017172Y0056066D01*
G36*
X0008404Y0077193D02*
X0008304Y0077435D01*
X0007151Y0078590D01*
X0005645Y0079215D01*
X0004014Y0079217D01*
X0002507Y0078594D01*
X0001352Y0077441D01*
X0000727Y0075935D01*
X0000725Y0074304D01*
X0001348Y0072797D01*
X0002501Y0071642D01*
X0004007Y0071017D01*
X0005638Y0071015D01*
X0007145Y0071638D01*
X0007958Y0072449D01*
X0018650Y0072449D01*
X0018650Y0069528D01*
X0018677Y0069383D01*
X0018763Y0069249D01*
X0018894Y0069160D01*
X0019050Y0069128D01*
X0024091Y0069128D01*
X0025127Y0068092D01*
X0025127Y0054415D01*
X0025154Y0054270D01*
X0025240Y0054136D01*
X0025371Y0054047D01*
X0025527Y0054015D01*
X0029337Y0054015D01*
X0029482Y0054042D01*
X0029616Y0054128D01*
X0029705Y0054259D01*
X0029737Y0054415D01*
X0029737Y0068766D01*
X0029708Y0068917D01*
X0029620Y0069049D01*
X0025937Y0072732D01*
X0025810Y0072817D01*
X0025654Y0072849D01*
X0019050Y0072849D01*
X0018905Y0072822D01*
X0018771Y0072736D01*
X0018682Y0072605D01*
X0018650Y0072449D01*
X0007958Y0072449D01*
X0008300Y0072791D01*
X0008925Y0074297D01*
X0008927Y0075928D01*
X0008573Y0076785D01*
X0014456Y0076785D01*
X0014456Y0079492D01*
X0022827Y0079492D01*
X0022827Y0076468D01*
X0031428Y0076468D01*
X0031207Y0075935D01*
X0031205Y0074304D01*
X0031828Y0072797D01*
X0032981Y0071642D01*
X0034487Y0071017D01*
X0036118Y0071015D01*
X0037625Y0071638D01*
X0038780Y0072791D01*
X0039405Y0074297D01*
X0039407Y0075928D01*
X0038784Y0077435D01*
X0037631Y0078590D01*
X0036125Y0079215D01*
X0034494Y0079217D01*
X0032987Y0078594D01*
X0032037Y0077646D01*
X0032037Y0079492D01*
X0039682Y0079492D01*
X0039682Y0040260D01*
X0000450Y0040260D01*
X0000450Y0043824D01*
X0000725Y0043824D01*
X0001348Y0042317D01*
X0002501Y0041162D01*
X0004007Y0040537D01*
X0005638Y0040535D01*
X0007145Y0041158D01*
X0008300Y0042311D01*
X0008925Y0043817D01*
X0008927Y0045448D01*
X0008304Y0046955D01*
X0007830Y0047430D01*
X0011149Y0047430D01*
X0011149Y0045906D01*
X0011177Y0045758D01*
X0011265Y0045622D01*
X0011398Y0045530D01*
X0011557Y0045498D01*
X0011719Y0045498D01*
X0011719Y0045298D01*
X0011557Y0045298D01*
X0011409Y0045270D01*
X0011273Y0045182D01*
X0011181Y0045049D01*
X0011149Y0044890D01*
X0011149Y0043366D01*
X0011177Y0043218D01*
X0011265Y0043082D01*
X0011398Y0042990D01*
X0011557Y0042958D01*
X0013081Y0042958D01*
X0013229Y0042986D01*
X0013365Y0043074D01*
X0013457Y0043207D01*
X0013489Y0043366D01*
X0013489Y0044890D01*
X0013461Y0045038D01*
X0013373Y0045174D01*
X0013240Y0045266D01*
X0013081Y0045298D01*
X0012919Y0045298D01*
X0012919Y0045498D01*
X0013081Y0045498D01*
X0013229Y0045526D01*
X0013365Y0045614D01*
X0013457Y0045747D01*
X0013489Y0045906D01*
X0013489Y0047430D01*
X0013461Y0047578D01*
X0013373Y0047714D01*
X0013240Y0047806D01*
X0013081Y0047838D01*
X0011557Y0047838D01*
X0011409Y0047810D01*
X0011273Y0047722D01*
X0011181Y0047589D01*
X0011149Y0047430D01*
X0007830Y0047430D01*
X0007151Y0048110D01*
X0005645Y0048735D01*
X0004014Y0048737D01*
X0002507Y0048114D01*
X0001352Y0046961D01*
X0000727Y0045455D01*
X0000725Y0043824D01*
X0000450Y0043824D01*
X0000450Y0067623D01*
X0002140Y0067623D01*
X0002140Y0065083D01*
X0002167Y0064938D01*
X0002253Y0064804D01*
X0002384Y0064715D01*
X0002540Y0064683D01*
X0007581Y0064683D01*
X0008769Y0063496D01*
X0007591Y0062318D01*
X0007506Y0062191D01*
X0007474Y0062035D01*
X0007474Y0060947D01*
X0006708Y0060276D01*
X0003048Y0060276D01*
X0002903Y0060249D01*
X0002769Y0060163D01*
X0002680Y0060032D01*
X0002648Y0059876D01*
X0002648Y0059687D01*
X0002625Y0059654D01*
X0002593Y0059495D01*
X0002593Y0055685D01*
X0002621Y0055537D01*
X0002666Y0055467D01*
X0002677Y0055407D01*
X0002765Y0055275D01*
X0002898Y0055187D01*
X0003054Y0055158D01*
X0011511Y0055277D01*
X0011811Y0055277D01*
X0011835Y0055282D01*
X0012071Y0055285D01*
X0012210Y0055312D01*
X0012344Y0055398D01*
X0012433Y0055529D01*
X0012465Y0055685D01*
X0012465Y0062270D01*
X0013201Y0062270D01*
X0013038Y0062108D01*
X0012916Y0061814D01*
X0012916Y0061496D01*
X0013037Y0061201D01*
X0013093Y0061146D01*
X0013038Y0061092D01*
X0012916Y0060798D01*
X0012916Y0060480D01*
X0013037Y0060185D01*
X0013262Y0059960D01*
X0013292Y0059948D01*
X0013170Y0059655D01*
X0013170Y0059337D01*
X0013291Y0059042D01*
X0013516Y0058817D01*
X0013810Y0058695D01*
X0014128Y0058695D01*
X0014423Y0058816D01*
X0014639Y0059033D01*
X0014716Y0058914D01*
X0014849Y0058822D01*
X0015008Y0058790D01*
X0015258Y0058790D01*
X0015388Y0058815D01*
X0015508Y0058790D01*
X0015758Y0058790D01*
X0015888Y0058815D01*
X0016008Y0058790D01*
X0016258Y0058790D01*
X0016388Y0058815D01*
X0016508Y0058790D01*
X0016758Y0058790D01*
X0016888Y0058815D01*
X0017008Y0058790D01*
X0017258Y0058790D01*
X0017388Y0058815D01*
X0017508Y0058790D01*
X0017758Y0058790D01*
X0017906Y0058818D01*
X0017942Y0058841D01*
X0018288Y0058841D01*
X0018439Y0058870D01*
X0018571Y0058958D01*
X0019412Y0059799D01*
X0019412Y0058264D01*
X0018503Y0057355D01*
X0017944Y0057355D01*
X0017917Y0057374D01*
X0017758Y0057406D01*
X0017508Y0057406D01*
X0017378Y0057381D01*
X0017258Y0057406D01*
X0017008Y0057406D01*
X0016878Y0057381D01*
X0016758Y0057406D01*
X0016508Y0057406D01*
X0016378Y0057381D01*
X0016258Y0057406D01*
X0016008Y0057406D01*
X0015878Y0057381D01*
X0015758Y0057406D01*
X0015508Y0057406D01*
X0015378Y0057381D01*
X0015258Y0057406D01*
X0015008Y0057406D01*
X0014860Y0057378D01*
X0014724Y0057290D01*
X0014632Y0057157D01*
X0014600Y0056998D01*
X0014600Y0056298D01*
X0014626Y0056159D01*
X0014124Y0055658D01*
X0014016Y0055495D01*
X0013978Y0055304D01*
X0013978Y0053971D01*
X0014003Y0053844D01*
X0014016Y0053779D01*
X0014124Y0053617D01*
X0014451Y0053290D01*
X0014451Y0052193D01*
X0014479Y0052044D01*
X0014567Y0051908D01*
X0014700Y0051817D01*
X0014859Y0051785D01*
X0015748Y0051785D01*
X0015896Y0051813D01*
X0016032Y0051900D01*
X0016124Y0052034D01*
X0016156Y0052193D01*
X0016156Y0052471D01*
X0016167Y0052444D01*
X0016392Y0052218D01*
X0016686Y0052096D01*
X0017004Y0052096D01*
X0017298Y0052218D01*
X0017524Y0052442D01*
X0017544Y0052491D01*
X0018630Y0052491D01*
X0019285Y0051836D01*
X0019285Y0051660D01*
X0019265Y0051640D01*
X0018796Y0051640D01*
X0018645Y0051611D01*
X0018513Y0051523D01*
X0018132Y0051142D01*
X0018047Y0051015D01*
X0018015Y0050859D01*
X0018015Y0050845D01*
X0017945Y0050953D01*
X0017812Y0051044D01*
X0017653Y0051076D01*
X0016764Y0051076D01*
X0016616Y0051048D01*
X0016480Y0050961D01*
X0016388Y0050827D01*
X0016377Y0050770D01*
X0016225Y0050770D01*
X0016143Y0050736D01*
X0016128Y0050817D01*
X0016040Y0050953D01*
X0015907Y0051044D01*
X0015748Y0051076D01*
X0014859Y0051076D01*
X0014711Y0051048D01*
X0014575Y0050961D01*
X0014483Y0050827D01*
X0014451Y0050669D01*
X0014451Y0049272D01*
X0014479Y0049123D01*
X0014567Y0048987D01*
X0014700Y0048896D01*
X0014859Y0048864D01*
X0015748Y0048864D01*
X0015896Y0048892D01*
X0016032Y0048979D01*
X0016124Y0049113D01*
X0016142Y0049204D01*
X0016223Y0049170D01*
X0016375Y0049170D01*
X0016384Y0049123D01*
X0016472Y0048987D01*
X0016605Y0048896D01*
X0016764Y0048864D01*
X0017001Y0048864D01*
X0016989Y0048856D01*
X0016100Y0047967D01*
X0016015Y0047840D01*
X0015983Y0047684D01*
X0015983Y0047606D01*
X0015913Y0047714D01*
X0015780Y0047806D01*
X0015621Y0047838D01*
X0014097Y0047838D01*
X0013949Y0047810D01*
X0013813Y0047722D01*
X0013721Y0047589D01*
X0013689Y0047430D01*
X0013689Y0045906D01*
X0013717Y0045758D01*
X0013805Y0045622D01*
X0013938Y0045530D01*
X0014097Y0045498D01*
X0014259Y0045498D01*
X0014259Y0045298D01*
X0014097Y0045298D01*
X0013949Y0045270D01*
X0013813Y0045182D01*
X0013721Y0045049D01*
X0013689Y0044890D01*
X0013689Y0043366D01*
X0013717Y0043218D01*
X0013805Y0043082D01*
X0013938Y0042990D01*
X0014097Y0042958D01*
X0015621Y0042958D01*
X0015769Y0042986D01*
X0015905Y0043074D01*
X0015997Y0043207D01*
X0016029Y0043366D01*
X0016029Y0044890D01*
X0016001Y0045038D01*
X0015913Y0045174D01*
X0015780Y0045266D01*
X0015621Y0045298D01*
X0015459Y0045298D01*
X0015459Y0045498D01*
X0015621Y0045498D01*
X0015769Y0045526D01*
X0015905Y0045614D01*
X0015991Y0045739D01*
X0016012Y0045628D01*
X0016100Y0045496D01*
X0016227Y0045369D01*
X0016354Y0045284D01*
X0016473Y0045260D01*
X0016353Y0045182D01*
X0016261Y0045049D01*
X0016229Y0044890D01*
X0016229Y0043366D01*
X0016257Y0043218D01*
X0016345Y0043082D01*
X0016478Y0042990D01*
X0016637Y0042958D01*
X0018161Y0042958D01*
X0018309Y0042986D01*
X0018445Y0043074D01*
X0018537Y0043207D01*
X0018569Y0043366D01*
X0018569Y0044890D01*
X0018541Y0045038D01*
X0018453Y0045174D01*
X0018340Y0045252D01*
X0019001Y0045252D01*
X0018893Y0045182D01*
X0018801Y0045049D01*
X0018769Y0044890D01*
X0018769Y0043366D01*
X0018797Y0043218D01*
X0018885Y0043082D01*
X0019018Y0042990D01*
X0019177Y0042958D01*
X0020701Y0042958D01*
X0020849Y0042986D01*
X0020985Y0043074D01*
X0021077Y0043207D01*
X0021109Y0043366D01*
X0021109Y0044890D01*
X0021081Y0045038D01*
X0020993Y0045174D01*
X0020880Y0045252D01*
X0021541Y0045252D01*
X0021433Y0045182D01*
X0021341Y0045049D01*
X0021309Y0044890D01*
X0021309Y0043366D01*
X0021337Y0043218D01*
X0021425Y0043082D01*
X0021558Y0042990D01*
X0021717Y0042958D01*
X0023241Y0042958D01*
X0023389Y0042986D01*
X0023525Y0043074D01*
X0023617Y0043207D01*
X0023649Y0043366D01*
X0023649Y0044890D01*
X0023621Y0045038D01*
X0023533Y0045174D01*
X0023400Y0045266D01*
X0023356Y0045275D01*
X0023392Y0045281D01*
X0023524Y0045369D01*
X0023778Y0045623D01*
X0023863Y0045750D01*
X0023895Y0045906D01*
X0023895Y0047010D01*
X0024042Y0047157D01*
X0032028Y0047157D01*
X0031832Y0046961D01*
X0031207Y0045455D01*
X0031205Y0043824D01*
X0031828Y0042317D01*
X0032981Y0041162D01*
X0034487Y0040537D01*
X0036118Y0040535D01*
X0037625Y0041158D01*
X0038780Y0042311D01*
X0039405Y0043817D01*
X0039407Y0045448D01*
X0038784Y0046955D01*
X0037631Y0048110D01*
X0036125Y0048735D01*
X0034494Y0048737D01*
X0033658Y0048391D01*
X0034573Y0049306D01*
X0034658Y0049433D01*
X0034690Y0049589D01*
X0034690Y0051875D01*
X0034663Y0052020D01*
X0034581Y0052147D01*
X0034554Y0052290D01*
X0034467Y0052426D01*
X0034333Y0052517D01*
X0034174Y0052550D01*
X0032374Y0052550D01*
X0032225Y0052522D01*
X0032089Y0052434D01*
X0031998Y0052300D01*
X0031967Y0052150D01*
X0030187Y0050370D01*
X0023788Y0050370D01*
X0020270Y0053888D01*
X0023622Y0053888D01*
X0023767Y0053915D01*
X0023901Y0054001D01*
X0023990Y0054132D01*
X0024022Y0054288D01*
X0024022Y0060511D01*
X0023995Y0060656D01*
X0023909Y0060790D01*
X0023778Y0060879D01*
X0023622Y0060911D01*
X0021904Y0060911D01*
X0021958Y0060990D01*
X0021990Y0061146D01*
X0021990Y0063012D01*
X0023524Y0064546D01*
X0023609Y0064673D01*
X0023641Y0064829D01*
X0023641Y0068639D01*
X0023614Y0068784D01*
X0023528Y0068918D01*
X0023397Y0069007D01*
X0023241Y0069039D01*
X0019812Y0069039D01*
X0019667Y0069012D01*
X0019533Y0068926D01*
X0019444Y0068795D01*
X0019412Y0068639D01*
X0019412Y0064868D01*
X0017683Y0063139D01*
X0017683Y0067800D01*
X0017672Y0067855D01*
X0017672Y0069020D01*
X0017643Y0069171D01*
X0017555Y0069303D01*
X0015015Y0071843D01*
X0014888Y0071928D01*
X0014732Y0071960D01*
X0011557Y0071960D01*
X0011406Y0071931D01*
X0011274Y0071843D01*
X0007454Y0068023D01*
X0002540Y0068023D01*
X0002395Y0067996D01*
X0002261Y0067910D01*
X0002172Y0067779D01*
X0002140Y0067623D01*
X0000450Y0067623D01*
X0000450Y0079492D01*
X0008404Y0079492D01*
X0008404Y0077193D01*
X0008404Y0077193D01*
G37*
X0008404Y0077193D02*
X0008304Y0077435D01*
X0007151Y0078590D01*
X0005645Y0079215D01*
X0004014Y0079217D01*
X0002507Y0078594D01*
X0001352Y0077441D01*
X0000727Y0075935D01*
X0000725Y0074304D01*
X0001348Y0072797D01*
X0002501Y0071642D01*
X0004007Y0071017D01*
X0005638Y0071015D01*
X0007145Y0071638D01*
X0007958Y0072449D01*
X0018650Y0072449D01*
X0018650Y0069528D01*
X0018677Y0069383D01*
X0018763Y0069249D01*
X0018894Y0069160D01*
X0019050Y0069128D01*
X0024091Y0069128D01*
X0025127Y0068092D01*
X0025127Y0054415D01*
X0025154Y0054270D01*
X0025240Y0054136D01*
X0025371Y0054047D01*
X0025527Y0054015D01*
X0029337Y0054015D01*
X0029482Y0054042D01*
X0029616Y0054128D01*
X0029705Y0054259D01*
X0029737Y0054415D01*
X0029737Y0068766D01*
X0029708Y0068917D01*
X0029620Y0069049D01*
X0025937Y0072732D01*
X0025810Y0072817D01*
X0025654Y0072849D01*
X0019050Y0072849D01*
X0018905Y0072822D01*
X0018771Y0072736D01*
X0018682Y0072605D01*
X0018650Y0072449D01*
X0007958Y0072449D01*
X0008300Y0072791D01*
X0008925Y0074297D01*
X0008927Y0075928D01*
X0008573Y0076785D01*
X0014456Y0076785D01*
X0014456Y0079492D01*
X0022827Y0079492D01*
X0022827Y0076468D01*
X0031428Y0076468D01*
X0031207Y0075935D01*
X0031205Y0074304D01*
X0031828Y0072797D01*
X0032981Y0071642D01*
X0034487Y0071017D01*
X0036118Y0071015D01*
X0037625Y0071638D01*
X0038780Y0072791D01*
X0039405Y0074297D01*
X0039407Y0075928D01*
X0038784Y0077435D01*
X0037631Y0078590D01*
X0036125Y0079215D01*
X0034494Y0079217D01*
X0032987Y0078594D01*
X0032037Y0077646D01*
X0032037Y0079492D01*
X0039682Y0079492D01*
X0039682Y0040260D01*
X0000450Y0040260D01*
X0000450Y0043824D01*
X0000725Y0043824D01*
X0001348Y0042317D01*
X0002501Y0041162D01*
X0004007Y0040537D01*
X0005638Y0040535D01*
X0007145Y0041158D01*
X0008300Y0042311D01*
X0008925Y0043817D01*
X0008927Y0045448D01*
X0008304Y0046955D01*
X0007830Y0047430D01*
X0011149Y0047430D01*
X0011149Y0045906D01*
X0011177Y0045758D01*
X0011265Y0045622D01*
X0011398Y0045530D01*
X0011557Y0045498D01*
X0011719Y0045498D01*
X0011719Y0045298D01*
X0011557Y0045298D01*
X0011409Y0045270D01*
X0011273Y0045182D01*
X0011181Y0045049D01*
X0011149Y0044890D01*
X0011149Y0043366D01*
X0011177Y0043218D01*
X0011265Y0043082D01*
X0011398Y0042990D01*
X0011557Y0042958D01*
X0013081Y0042958D01*
X0013229Y0042986D01*
X0013365Y0043074D01*
X0013457Y0043207D01*
X0013489Y0043366D01*
X0013489Y0044890D01*
X0013461Y0045038D01*
X0013373Y0045174D01*
X0013240Y0045266D01*
X0013081Y0045298D01*
X0012919Y0045298D01*
X0012919Y0045498D01*
X0013081Y0045498D01*
X0013229Y0045526D01*
X0013365Y0045614D01*
X0013457Y0045747D01*
X0013489Y0045906D01*
X0013489Y0047430D01*
X0013461Y0047578D01*
X0013373Y0047714D01*
X0013240Y0047806D01*
X0013081Y0047838D01*
X0011557Y0047838D01*
X0011409Y0047810D01*
X0011273Y0047722D01*
X0011181Y0047589D01*
X0011149Y0047430D01*
X0007830Y0047430D01*
X0007151Y0048110D01*
X0005645Y0048735D01*
X0004014Y0048737D01*
X0002507Y0048114D01*
X0001352Y0046961D01*
X0000727Y0045455D01*
X0000725Y0043824D01*
X0000450Y0043824D01*
X0000450Y0067623D01*
X0002140Y0067623D01*
X0002140Y0065083D01*
X0002167Y0064938D01*
X0002253Y0064804D01*
X0002384Y0064715D01*
X0002540Y0064683D01*
X0007581Y0064683D01*
X0008769Y0063496D01*
X0007591Y0062318D01*
X0007506Y0062191D01*
X0007474Y0062035D01*
X0007474Y0060947D01*
X0006708Y0060276D01*
X0003048Y0060276D01*
X0002903Y0060249D01*
X0002769Y0060163D01*
X0002680Y0060032D01*
X0002648Y0059876D01*
X0002648Y0059687D01*
X0002625Y0059654D01*
X0002593Y0059495D01*
X0002593Y0055685D01*
X0002621Y0055537D01*
X0002666Y0055467D01*
X0002677Y0055407D01*
X0002765Y0055275D01*
X0002898Y0055187D01*
X0003054Y0055158D01*
X0011511Y0055277D01*
X0011811Y0055277D01*
X0011835Y0055282D01*
X0012071Y0055285D01*
X0012210Y0055312D01*
X0012344Y0055398D01*
X0012433Y0055529D01*
X0012465Y0055685D01*
X0012465Y0062270D01*
X0013201Y0062270D01*
X0013038Y0062108D01*
X0012916Y0061814D01*
X0012916Y0061496D01*
X0013037Y0061201D01*
X0013093Y0061146D01*
X0013038Y0061092D01*
X0012916Y0060798D01*
X0012916Y0060480D01*
X0013037Y0060185D01*
X0013262Y0059960D01*
X0013292Y0059948D01*
X0013170Y0059655D01*
X0013170Y0059337D01*
X0013291Y0059042D01*
X0013516Y0058817D01*
X0013810Y0058695D01*
X0014128Y0058695D01*
X0014423Y0058816D01*
X0014639Y0059033D01*
X0014716Y0058914D01*
X0014849Y0058822D01*
X0015008Y0058790D01*
X0015258Y0058790D01*
X0015388Y0058815D01*
X0015508Y0058790D01*
X0015758Y0058790D01*
X0015888Y0058815D01*
X0016008Y0058790D01*
X0016258Y0058790D01*
X0016388Y0058815D01*
X0016508Y0058790D01*
X0016758Y0058790D01*
X0016888Y0058815D01*
X0017008Y0058790D01*
X0017258Y0058790D01*
X0017388Y0058815D01*
X0017508Y0058790D01*
X0017758Y0058790D01*
X0017906Y0058818D01*
X0017942Y0058841D01*
X0018288Y0058841D01*
X0018439Y0058870D01*
X0018571Y0058958D01*
X0019412Y0059799D01*
X0019412Y0058264D01*
X0018503Y0057355D01*
X0017944Y0057355D01*
X0017917Y0057374D01*
X0017758Y0057406D01*
X0017508Y0057406D01*
X0017378Y0057381D01*
X0017258Y0057406D01*
X0017008Y0057406D01*
X0016878Y0057381D01*
X0016758Y0057406D01*
X0016508Y0057406D01*
X0016378Y0057381D01*
X0016258Y0057406D01*
X0016008Y0057406D01*
X0015878Y0057381D01*
X0015758Y0057406D01*
X0015508Y0057406D01*
X0015378Y0057381D01*
X0015258Y0057406D01*
X0015008Y0057406D01*
X0014860Y0057378D01*
X0014724Y0057290D01*
X0014632Y0057157D01*
X0014600Y0056998D01*
X0014600Y0056298D01*
X0014626Y0056159D01*
X0014124Y0055658D01*
X0014016Y0055495D01*
X0013978Y0055304D01*
X0013978Y0053971D01*
X0014003Y0053844D01*
X0014016Y0053779D01*
X0014124Y0053617D01*
X0014451Y0053290D01*
X0014451Y0052193D01*
X0014479Y0052044D01*
X0014567Y0051908D01*
X0014700Y0051817D01*
X0014859Y0051785D01*
X0015748Y0051785D01*
X0015896Y0051813D01*
X0016032Y0051900D01*
X0016124Y0052034D01*
X0016156Y0052193D01*
X0016156Y0052471D01*
X0016167Y0052444D01*
X0016392Y0052218D01*
X0016686Y0052096D01*
X0017004Y0052096D01*
X0017298Y0052218D01*
X0017524Y0052442D01*
X0017544Y0052491D01*
X0018630Y0052491D01*
X0019285Y0051836D01*
X0019285Y0051660D01*
X0019265Y0051640D01*
X0018796Y0051640D01*
X0018645Y0051611D01*
X0018513Y0051523D01*
X0018132Y0051142D01*
X0018047Y0051015D01*
X0018015Y0050859D01*
X0018015Y0050845D01*
X0017945Y0050953D01*
X0017812Y0051044D01*
X0017653Y0051076D01*
X0016764Y0051076D01*
X0016616Y0051048D01*
X0016480Y0050961D01*
X0016388Y0050827D01*
X0016377Y0050770D01*
X0016225Y0050770D01*
X0016143Y0050736D01*
X0016128Y0050817D01*
X0016040Y0050953D01*
X0015907Y0051044D01*
X0015748Y0051076D01*
X0014859Y0051076D01*
X0014711Y0051048D01*
X0014575Y0050961D01*
X0014483Y0050827D01*
X0014451Y0050669D01*
X0014451Y0049272D01*
X0014479Y0049123D01*
X0014567Y0048987D01*
X0014700Y0048896D01*
X0014859Y0048864D01*
X0015748Y0048864D01*
X0015896Y0048892D01*
X0016032Y0048979D01*
X0016124Y0049113D01*
X0016142Y0049204D01*
X0016223Y0049170D01*
X0016375Y0049170D01*
X0016384Y0049123D01*
X0016472Y0048987D01*
X0016605Y0048896D01*
X0016764Y0048864D01*
X0017001Y0048864D01*
X0016989Y0048856D01*
X0016100Y0047967D01*
X0016015Y0047840D01*
X0015983Y0047684D01*
X0015983Y0047606D01*
X0015913Y0047714D01*
X0015780Y0047806D01*
X0015621Y0047838D01*
X0014097Y0047838D01*
X0013949Y0047810D01*
X0013813Y0047722D01*
X0013721Y0047589D01*
X0013689Y0047430D01*
X0013689Y0045906D01*
X0013717Y0045758D01*
X0013805Y0045622D01*
X0013938Y0045530D01*
X0014097Y0045498D01*
X0014259Y0045498D01*
X0014259Y0045298D01*
X0014097Y0045298D01*
X0013949Y0045270D01*
X0013813Y0045182D01*
X0013721Y0045049D01*
X0013689Y0044890D01*
X0013689Y0043366D01*
X0013717Y0043218D01*
X0013805Y0043082D01*
X0013938Y0042990D01*
X0014097Y0042958D01*
X0015621Y0042958D01*
X0015769Y0042986D01*
X0015905Y0043074D01*
X0015997Y0043207D01*
X0016029Y0043366D01*
X0016029Y0044890D01*
X0016001Y0045038D01*
X0015913Y0045174D01*
X0015780Y0045266D01*
X0015621Y0045298D01*
X0015459Y0045298D01*
X0015459Y0045498D01*
X0015621Y0045498D01*
X0015769Y0045526D01*
X0015905Y0045614D01*
X0015991Y0045739D01*
X0016012Y0045628D01*
X0016100Y0045496D01*
X0016227Y0045369D01*
X0016354Y0045284D01*
X0016473Y0045260D01*
X0016353Y0045182D01*
X0016261Y0045049D01*
X0016229Y0044890D01*
X0016229Y0043366D01*
X0016257Y0043218D01*
X0016345Y0043082D01*
X0016478Y0042990D01*
X0016637Y0042958D01*
X0018161Y0042958D01*
X0018309Y0042986D01*
X0018445Y0043074D01*
X0018537Y0043207D01*
X0018569Y0043366D01*
X0018569Y0044890D01*
X0018541Y0045038D01*
X0018453Y0045174D01*
X0018340Y0045252D01*
X0019001Y0045252D01*
X0018893Y0045182D01*
X0018801Y0045049D01*
X0018769Y0044890D01*
X0018769Y0043366D01*
X0018797Y0043218D01*
X0018885Y0043082D01*
X0019018Y0042990D01*
X0019177Y0042958D01*
X0020701Y0042958D01*
X0020849Y0042986D01*
X0020985Y0043074D01*
X0021077Y0043207D01*
X0021109Y0043366D01*
X0021109Y0044890D01*
X0021081Y0045038D01*
X0020993Y0045174D01*
X0020880Y0045252D01*
X0021541Y0045252D01*
X0021433Y0045182D01*
X0021341Y0045049D01*
X0021309Y0044890D01*
X0021309Y0043366D01*
X0021337Y0043218D01*
X0021425Y0043082D01*
X0021558Y0042990D01*
X0021717Y0042958D01*
X0023241Y0042958D01*
X0023389Y0042986D01*
X0023525Y0043074D01*
X0023617Y0043207D01*
X0023649Y0043366D01*
X0023649Y0044890D01*
X0023621Y0045038D01*
X0023533Y0045174D01*
X0023400Y0045266D01*
X0023356Y0045275D01*
X0023392Y0045281D01*
X0023524Y0045369D01*
X0023778Y0045623D01*
X0023863Y0045750D01*
X0023895Y0045906D01*
X0023895Y0047010D01*
X0024042Y0047157D01*
X0032028Y0047157D01*
X0031832Y0046961D01*
X0031207Y0045455D01*
X0031205Y0043824D01*
X0031828Y0042317D01*
X0032981Y0041162D01*
X0034487Y0040537D01*
X0036118Y0040535D01*
X0037625Y0041158D01*
X0038780Y0042311D01*
X0039405Y0043817D01*
X0039407Y0045448D01*
X0038784Y0046955D01*
X0037631Y0048110D01*
X0036125Y0048735D01*
X0034494Y0048737D01*
X0033658Y0048391D01*
X0034573Y0049306D01*
X0034658Y0049433D01*
X0034690Y0049589D01*
X0034690Y0051875D01*
X0034663Y0052020D01*
X0034581Y0052147D01*
X0034554Y0052290D01*
X0034467Y0052426D01*
X0034333Y0052517D01*
X0034174Y0052550D01*
X0032374Y0052550D01*
X0032225Y0052522D01*
X0032089Y0052434D01*
X0031998Y0052300D01*
X0031967Y0052150D01*
X0030187Y0050370D01*
X0023788Y0050370D01*
X0020270Y0053888D01*
X0023622Y0053888D01*
X0023767Y0053915D01*
X0023901Y0054001D01*
X0023990Y0054132D01*
X0024022Y0054288D01*
X0024022Y0060511D01*
X0023995Y0060656D01*
X0023909Y0060790D01*
X0023778Y0060879D01*
X0023622Y0060911D01*
X0021904Y0060911D01*
X0021958Y0060990D01*
X0021990Y0061146D01*
X0021990Y0063012D01*
X0023524Y0064546D01*
X0023609Y0064673D01*
X0023641Y0064829D01*
X0023641Y0068639D01*
X0023614Y0068784D01*
X0023528Y0068918D01*
X0023397Y0069007D01*
X0023241Y0069039D01*
X0019812Y0069039D01*
X0019667Y0069012D01*
X0019533Y0068926D01*
X0019444Y0068795D01*
X0019412Y0068639D01*
X0019412Y0064868D01*
X0017683Y0063139D01*
X0017683Y0067800D01*
X0017672Y0067855D01*
X0017672Y0069020D01*
X0017643Y0069171D01*
X0017555Y0069303D01*
X0015015Y0071843D01*
X0014888Y0071928D01*
X0014732Y0071960D01*
X0011557Y0071960D01*
X0011406Y0071931D01*
X0011274Y0071843D01*
X0007454Y0068023D01*
X0002540Y0068023D01*
X0002395Y0067996D01*
X0002261Y0067910D01*
X0002172Y0067779D01*
X0002140Y0067623D01*
X0000450Y0067623D01*
X0000450Y0079492D01*
X0008404Y0079492D01*
X0008404Y0077193D01*
G36*
X0017172Y0068979D02*
X0017172Y0059341D01*
X0017118Y0059341D01*
X0017118Y0060765D01*
X0017110Y0060804D01*
X0017089Y0060836D01*
X0016257Y0061667D01*
X0016258Y0061856D01*
X0016151Y0062114D01*
X0015955Y0062311D01*
X0015697Y0062417D01*
X0015507Y0062418D01*
X0015184Y0062741D01*
X0015151Y0062763D01*
X0015113Y0062770D01*
X0012924Y0062770D01*
X0012677Y0062873D01*
X0012399Y0062873D01*
X0012150Y0062770D01*
X0012065Y0062770D01*
X0012026Y0062762D01*
X0011993Y0062740D01*
X0011972Y0062706D01*
X0011965Y0062670D01*
X0011965Y0062590D01*
X0011945Y0062570D01*
X0011838Y0062313D01*
X0011837Y0062034D01*
X0011944Y0061777D01*
X0011965Y0061755D01*
X0011965Y0055784D01*
X0003148Y0055659D01*
X0003148Y0059776D01*
X0006858Y0059776D01*
X0006897Y0059784D01*
X0006924Y0059801D01*
X0007940Y0060690D01*
X0007964Y0060721D01*
X0007974Y0060765D01*
X0007974Y0061994D01*
X0009405Y0063425D01*
X0009427Y0063458D01*
X0009434Y0063497D01*
X0009426Y0063536D01*
X0009405Y0063566D01*
X0007818Y0065154D01*
X0007785Y0065176D01*
X0007747Y0065183D01*
X0002640Y0065183D01*
X0002640Y0067523D01*
X0007620Y0067523D01*
X0007659Y0067531D01*
X0007691Y0067552D01*
X0011598Y0071460D01*
X0014691Y0071460D01*
X0017172Y0068979D01*
X0017172Y0068979D01*
G37*
X0017172Y0068979D02*
X0017172Y0059341D01*
X0017118Y0059341D01*
X0017118Y0060765D01*
X0017110Y0060804D01*
X0017089Y0060836D01*
X0016257Y0061667D01*
X0016258Y0061856D01*
X0016151Y0062114D01*
X0015955Y0062311D01*
X0015697Y0062417D01*
X0015507Y0062418D01*
X0015184Y0062741D01*
X0015151Y0062763D01*
X0015113Y0062770D01*
X0012924Y0062770D01*
X0012677Y0062873D01*
X0012399Y0062873D01*
X0012150Y0062770D01*
X0012065Y0062770D01*
X0012026Y0062762D01*
X0011993Y0062740D01*
X0011972Y0062706D01*
X0011965Y0062670D01*
X0011965Y0062590D01*
X0011945Y0062570D01*
X0011838Y0062313D01*
X0011837Y0062034D01*
X0011944Y0061777D01*
X0011965Y0061755D01*
X0011965Y0055784D01*
X0003148Y0055659D01*
X0003148Y0059776D01*
X0006858Y0059776D01*
X0006897Y0059784D01*
X0006924Y0059801D01*
X0007940Y0060690D01*
X0007964Y0060721D01*
X0007974Y0060765D01*
X0007974Y0061994D01*
X0009405Y0063425D01*
X0009427Y0063458D01*
X0009434Y0063497D01*
X0009426Y0063536D01*
X0009405Y0063566D01*
X0007818Y0065154D01*
X0007785Y0065176D01*
X0007747Y0065183D01*
X0002640Y0065183D01*
X0002640Y0067523D01*
X0007620Y0067523D01*
X0007659Y0067531D01*
X0007691Y0067552D01*
X0011598Y0071460D01*
X0014691Y0071460D01*
X0017172Y0068979D01*
M02*
