M48
METRIC,000.000             
%
T01C0.400000
X24955Y12002
X25273Y6223
X16701Y31240
X16701Y31240
X22606Y36701
X20002Y37780
X3429Y70417
X3429Y61908
X5969Y70417
X5969Y61908
X12538Y62173
X13716Y61654
X13716Y60638
X13970Y59495
X15178Y54936
X15557Y61718
X16046Y54110
X16383Y49970
X16846Y52896
X18034Y67496
X18034Y64448
X18923Y58098
X19050Y67369
X19050Y65337
X19088Y51786
X19177Y59114
X21209Y53526
X22098Y52637
X22479Y62797
X22987Y51748
X23114Y53526
X23876Y50859
X24257Y68258
X24765Y62797
X25019Y50859
X30226Y54288
X31750Y57019
X33147Y56955
X33465Y62352
X34290Y60638
X34417Y64131
X34608Y56892
X35941Y60511
X36132Y64131
X37148Y61464
X37211Y63115
T02C0.800000
X13145Y70734
X20645Y70734
X27940Y62226
X35440Y62226
T03C0.850000
X4859Y12500
X4859Y7500
T04C0.889000
X8445Y17018
X8445Y14478
X10986Y17018
X10986Y14478
X13526Y17018
X13526Y14478
X17526Y17018
X20066Y17018
X18860Y21778
X21399Y21778
X23939Y21778
X26479Y21778
X29019Y21778
X10731Y22604
X13271Y22604
X18860Y24318
X21399Y24318
X23939Y24318
X26479Y24318
X29019Y24318
X10731Y25144
X13271Y25144
X18860Y26858
X21399Y26858
X23939Y26858
X26479Y26858
X29019Y26858
X10731Y27684
X13271Y27684
X18860Y29398
X21399Y29398
X23939Y29398
X26479Y29398
X29019Y29398
X18860Y31938
X21399Y31938
X23939Y31938
X26479Y31938
X29019Y31938
X18860Y34478
X21399Y34478
X23939Y34478
X26479Y34478
X29019Y34478
X12256Y35176
X14796Y35176
X12256Y37716
X14796Y37716
X3429Y68766
X3429Y66226
X3429Y63686
X5969Y68766
X5969Y66226
X5969Y63686
X12319Y46668
X12319Y44128
X14859Y46668
X14859Y44128
X17399Y46668
X17399Y44128
X19939Y46668
X19939Y44128
X22479Y46668
X22479Y44128
X22479Y41588
X26416Y51240
X26416Y48700
X26416Y46160
X28956Y51240
X28956Y48700
X28956Y46160
T05C1.300000
X2159Y13500
X2159Y6500
X4906Y57590
X4906Y52637
X9906Y57590
X9906Y52637
T06C2.700000
X26670Y10000
X26670Y10000
T07C3.000000
X4826Y24826
X35306Y24826
X4826Y34986
X35306Y34986
X4826Y75116
X4826Y44636
X35306Y75116
X35306Y44636
M30
