M48
METRIC,000.000             
%
T01C0.400000
X8128Y26162
X8636Y24130
X10922Y23114
X10922Y21844
X11176Y12446
X12446Y27051
X13081Y12446
X13716Y31496
X13716Y28956
X13716Y27051
X15240Y18288
X15621Y32131
X15621Y12446
X16255Y26397
X16256Y25146
X16256Y23876
X16256Y21971
X16256Y18161
X17526Y32131
X17526Y12446
X18161Y27686
X18161Y18161
X18796Y20066
X19431Y32131
X19431Y28956
X19431Y27686
X19431Y12446
X20066Y18161
X20701Y11176
X21599Y17650
X22606Y27940
X23241Y32131
X23241Y11176
X23876Y17526
X24511Y32131
X25146Y17526
X25654Y27178
X25654Y25908
X25781Y11811
X26416Y17526
X27051Y13716
X27686Y27178
X27686Y25908
X28575Y20320
X28575Y19050
X28575Y17780
X29718Y17526
X30861Y28321
X30861Y10541
X30861Y8636
X30988Y17526
X31242Y35052
X31496Y33528
X32131Y28956
X32131Y27051
X32131Y10541
X32131Y8636
X32131Y4826
X32131Y3556
X32131Y1651
X32258Y17526
X33020Y35306
X33401Y14986
X33401Y13716
X33401Y11811
X33401Y1651
X34036Y33528
X34036Y30988
X34671Y1651
X34798Y28702
X34798Y16256
X35798Y25019
X35814Y33528
X36576Y32258
X36576Y26416
X36576Y18542
X36576Y17653
X36576Y14986
X36576Y1651
X36703Y25019
X37554Y20828
X37846Y26416
X38316Y13716
X38316Y11811
X38481Y32131
X39154Y23876
X39364Y24898
X39370Y20828
X39624Y19304
X39751Y22606
X40132Y14732
X40386Y32131
X40386Y25616
X41656Y32131
X41716Y6096
X41716Y4826
X42291Y34036
X43561Y32766
X43561Y18161
X43561Y11811
X44704Y22098
X44831Y34036
X44831Y26416
X44831Y18161
X45466Y25781
X46101Y34036
X46482Y9652
X49911Y26416
X49911Y4826
X50292Y28956
X50546Y20066
X51181Y22606
X52070Y29210
X52451Y20066
X54102Y28956
X8128Y66294
X8636Y64262
X10922Y63246
X10922Y61976
X11176Y52578
X12446Y67183
X13081Y52578
X13716Y71628
X13716Y69088
X13716Y67183
X15240Y58420
X15621Y72263
X15621Y52578
X16255Y66529
X16256Y65278
X16256Y64008
X16256Y62103
X16256Y58293
X17526Y72263
X17526Y52578
X18161Y67818
X18161Y58293
X18796Y60198
X19431Y72263
X19431Y69088
X19431Y67818
X19431Y52578
X20066Y58293
X20701Y51308
X21599Y57782
X22606Y68072
X23241Y72263
X23241Y51308
X23876Y57658
X24511Y72263
X25146Y57658
X25654Y67310
X25654Y66040
X25781Y51943
X26416Y57658
X27051Y53848
X27686Y67310
X27686Y66040
X28575Y60452
X28575Y59182
X28575Y57912
X29718Y57658
X30861Y68453
X30861Y50673
X30861Y48768
X30988Y57658
X31242Y75184
X31496Y73660
X32131Y69088
X32131Y67183
X32131Y50673
X32131Y48768
X32131Y44958
X32131Y43688
X32131Y41783
X32258Y57658
X33020Y75438
X33401Y55118
X33401Y53848
X33401Y51943
X33401Y41783
X34036Y73660
X34036Y71120
X34671Y41783
X34798Y68834
X34798Y56388
X35798Y65151
X35814Y73660
X36576Y72390
X36576Y66548
X36576Y58674
X36576Y57785
X36576Y55118
X36576Y41783
X36703Y65151
X37554Y60960
X37846Y66548
X38316Y53848
X38316Y51943
X38481Y72263
X39154Y64008
X39364Y65030
X39370Y60960
X39624Y59436
X39751Y62738
X40132Y54864
X40386Y72263
X40386Y65748
X41656Y72263
X41716Y46228
X41716Y44958
X42291Y74168
X43561Y72898
X43561Y58293
X43561Y51943
X44704Y62230
X44831Y74168
X44831Y66548
X44831Y58293
X45466Y65913
X46101Y74168
X46482Y49784
X49911Y66548
X49911Y44958
X50292Y69088
X50546Y60198
X51181Y62738
X52070Y69342
X52451Y60198
X54102Y69088
X68580Y26162
X69088Y24130
X71374Y23114
X71374Y21844
X71628Y12446
X72898Y27051
X73533Y12446
X74168Y31496
X74168Y28956
X74168Y27051
X75692Y18288
X76073Y32131
X76073Y12446
X76707Y26397
X76708Y25146
X76708Y23876
X76708Y21971
X76708Y18161
X77978Y32131
X77978Y12446
X78613Y27686
X78613Y18161
X79248Y20066
X79883Y32131
X79883Y28956
X79883Y27686
X79883Y12446
X80518Y18161
X81153Y11176
X82051Y17650
X83058Y27940
X83693Y32131
X83693Y11176
X84328Y17526
X84963Y32131
X85598Y17526
X86106Y27178
X86106Y25908
X86233Y11811
X86868Y17526
X87503Y13716
X88138Y27178
X88138Y25908
X89027Y20320
X89027Y19050
X89027Y17780
X90170Y17526
X91313Y28321
X91313Y10541
X91313Y8636
X91440Y17526
X91694Y35052
X91948Y33528
X92583Y28956
X92583Y27051
X92583Y10541
X92583Y8636
X92583Y4826
X92583Y3556
X92583Y1651
X92710Y17526
X93472Y35306
X93853Y14986
X93853Y13716
X93853Y11811
X93853Y1651
X94488Y33528
X94488Y30988
X95123Y1651
X95250Y28702
X95250Y16256
X96250Y25019
X96266Y33528
X97028Y32258
X97028Y26416
X97028Y18542
X97028Y17653
X97028Y14986
X97028Y1651
X97155Y25019
X98006Y20828
X98298Y26416
X98768Y13716
X98768Y11811
X98933Y32131
X99606Y23876
X99816Y24898
X99822Y20828
X100076Y19304
X100203Y22606
X100584Y14732
X100838Y32131
X100838Y25616
X102108Y32131
X102168Y6096
X102168Y4826
X102743Y34036
X104013Y32766
X104013Y18161
X104013Y11811
X105156Y22098
X105283Y34036
X105283Y26416
X105283Y18161
X105918Y25781
X106553Y34036
X106934Y9652
X110363Y26416
X110363Y4826
X110744Y28956
X110998Y20066
X111633Y22606
X112522Y29210
X112903Y20066
X114554Y28956
X68580Y66294
X69088Y64262
X71374Y63246
X71374Y61976
X71628Y52578
X72898Y67183
X73533Y52578
X74168Y71628
X74168Y69088
X74168Y67183
X75692Y58420
X76073Y72263
X76073Y52578
X76707Y66529
X76708Y65278
X76708Y64008
X76708Y62103
X76708Y58293
X77978Y72263
X77978Y52578
X78613Y67818
X78613Y58293
X79248Y60198
X79883Y72263
X79883Y69088
X79883Y67818
X79883Y52578
X80518Y58293
X81153Y51308
X82051Y57782
X83058Y68072
X83693Y72263
X83693Y51308
X84328Y57658
X84963Y72263
X85598Y57658
X86106Y67310
X86106Y66040
X86233Y51943
X86868Y57658
X87503Y53848
X88138Y67310
X88138Y66040
X89027Y60452
X89027Y59182
X89027Y57912
X90170Y57658
X91313Y68453
X91313Y50673
X91313Y48768
X91440Y57658
X91694Y75184
X91948Y73660
X92583Y69088
X92583Y67183
X92583Y50673
X92583Y48768
X92583Y44958
X92583Y43688
X92583Y41783
X92710Y57658
X93472Y75438
X93853Y55118
X93853Y53848
X93853Y51943
X93853Y41783
X94488Y73660
X94488Y71120
X95123Y41783
X95250Y68834
X95250Y56388
X96250Y65151
X96266Y73660
X97028Y72390
X97028Y66548
X97028Y58674
X97028Y57785
X97028Y55118
X97028Y41783
X97155Y65151
X98006Y60960
X98298Y66548
X98768Y53848
X98768Y51943
X98933Y72263
X99606Y64008
X99816Y65030
X99822Y60960
X100076Y59436
X100203Y62738
X100584Y54864
X100838Y72263
X100838Y65748
X102108Y72263
X102168Y46228
X102168Y44958
X102743Y74168
X104013Y72898
X104013Y58293
X104013Y51943
X105156Y62230
X105283Y74168
X105283Y66548
X105283Y58293
X105918Y65913
X106553Y74168
X106934Y49784
X110363Y66548
X110363Y44958
X110744Y69088
X110998Y60198
X111633Y62738
X112522Y69342
X112903Y60198
X114554Y69088
T02C0.762000
X21296Y30386
X21296Y70518
X81748Y30386
X81748Y70518
T03C0.889000
X55626Y18796
X58166Y18796
X16296Y30386
X16296Y27846
X43561Y4191
X43561Y1651
X46101Y4191
X46101Y1651
X48641Y4191
X48641Y1651
X55626Y16256
X58166Y16256
X55626Y11176
X58166Y11176
X55626Y23876
X58166Y23876
X55626Y21336
X58166Y21336
X55626Y26416
X58166Y26416
X55626Y13716
X58166Y13716
X55626Y58928
X58166Y58928
X16296Y70518
X16296Y67978
X43561Y44323
X43561Y41783
X46101Y44323
X46101Y41783
X48641Y44323
X48641Y41783
X55626Y56388
X58166Y56388
X55626Y51308
X58166Y51308
X55626Y64008
X58166Y64008
X55626Y61468
X58166Y61468
X55626Y66548
X58166Y66548
X55626Y53848
X58166Y53848
X116078Y18796
X118618Y18796
X76748Y30386
X76748Y27846
X104013Y4191
X104013Y1651
X106553Y4191
X106553Y1651
X109093Y4191
X109093Y1651
X116078Y16256
X118618Y16256
X116078Y11176
X118618Y11176
X116078Y23876
X118618Y23876
X116078Y21336
X118618Y21336
X116078Y26416
X118618Y26416
X116078Y13716
X118618Y13716
X116078Y58928
X118618Y58928
X76748Y70518
X76748Y67978
X104013Y44323
X104013Y41783
X106553Y44323
X106553Y41783
X109093Y44323
X109093Y41783
X116078Y56388
X118618Y56388
X116078Y51308
X118618Y51308
X116078Y64008
X118618Y64008
X116078Y61468
X118618Y61468
X116078Y66548
X118618Y66548
X116078Y53848
X118618Y53848
T04C3.000000
X55626Y4826
X55626Y35306
X4826Y35306
X4826Y4826
X55626Y44958
X55626Y75438
X4826Y75438
X4826Y44958
X116078Y4826
X116078Y35306
X65278Y35306
X65278Y4826
X116078Y44958
X116078Y75438
X65278Y75438
X65278Y44958
M30
