M48
METRIC,000.000             
%
T01C0.400000
X1778Y18948
X8077Y31801
X8382Y27940
X9398Y13716
X9970Y26137
X10363Y19101
X10719Y15240
X10770Y27330
X11074Y31750
X11430Y21082
X11786Y17374
X11938Y8585
X12299Y21836
X12954Y19050
X13868Y28651
X14056Y18898
X14859Y15875
X14986Y9144
X15418Y19136
X16307Y25756
X16307Y12497
X16662Y14275
X16713Y15850
X16871Y20901
X17424Y24994
X17475Y23825
X17475Y12446
X17577Y18136
X18186Y24536
X18542Y23368
X18694Y18745
X18745Y12446
X18999Y17678
X18999Y16764
X101092Y31496
X102362Y26162
X102362Y24638
X102362Y20574
X102870Y9398
X104140Y9398
X105410Y9398
X106426Y9398
X107442Y10160
X109728Y37338
X109728Y36322
X109728Y35306
X109728Y34290
X109728Y33274
X109728Y32258
X109728Y31242
X109728Y30226
X109728Y29210
X109728Y9398
X109728Y8382
X109728Y7366
X109728Y6350
X109728Y5334
X109728Y4318
X109728Y3302
X109728Y2286
X109728Y1270
X110236Y10668
X110744Y37338
X110744Y36322
X110744Y35306
X110744Y34290
X110744Y33274
X110744Y32258
X110744Y31242
X110744Y30226
X110744Y29210
X110744Y9398
X110744Y8382
X110744Y7366
X110744Y6350
X110744Y5334
X110744Y4318
X110744Y3302
X110744Y2286
X110744Y1270
X111760Y37338
X111760Y36322
X111760Y35306
X111760Y34290
X111760Y33274
X111760Y32258
X111760Y31242
X111760Y30226
X111760Y29210
X111760Y9398
X111760Y8382
X111760Y7366
X111760Y6350
X111760Y5334
X111760Y4318
X111760Y3302
X111760Y2286
X111760Y1270
X112776Y37338
X112776Y36322
X112776Y35306
X112776Y34290
X112776Y33274
X112776Y32258
X112776Y31242
X112776Y30226
X112776Y29210
X112776Y9398
X112776Y8382
X112776Y7366
X112776Y6350
X112776Y5334
X112776Y4318
X112776Y3302
X112776Y2286
X112776Y1270
X113792Y37338
X113792Y36322
X113792Y35306
X113792Y34290
X113792Y33274
X113792Y32258
X113792Y31242
X113792Y30226
X113792Y29210
X113792Y9398
X113792Y8382
X113792Y7366
X113792Y6350
X113792Y5334
X113792Y4318
X113792Y3302
X113792Y2286
X113792Y1270
X114808Y37338
X114808Y36322
X114808Y35306
X114808Y34290
X114808Y33274
X114808Y32258
X114808Y31242
X114808Y30226
X114808Y29210
X114808Y9398
X114808Y8382
X114808Y7366
X114808Y6350
X114808Y5334
X114808Y4318
X114808Y3302
X114808Y2286
X114808Y1270
X115824Y37338
X115824Y36322
X115824Y35306
X115824Y34290
X115824Y33274
X115824Y32258
X115824Y31242
X115824Y30226
X115824Y29210
X115824Y9398
X115824Y8382
X115824Y7366
X115824Y6350
X115824Y5334
X115824Y4318
X115824Y3302
X115824Y2286
X115824Y1270
X116840Y37338
X116840Y36322
X116840Y35306
X116840Y34290
X116840Y33274
X116840Y32258
X116840Y31242
X116840Y30226
X116840Y29210
X116840Y9398
X116840Y8382
X116840Y7366
X116840Y6350
X116840Y5334
X116840Y4318
X116840Y3302
X116840Y2286
X116840Y1270
X117856Y37338
X117856Y36322
X117856Y35306
X117856Y34290
X117856Y33274
X117856Y32258
X117856Y31242
X117856Y30226
X117856Y29210
X117856Y9398
X117856Y8382
X117856Y7366
X117856Y6350
X117856Y5334
X117856Y4318
X117856Y3302
X117856Y2286
X117856Y1270
X118872Y37338
X118872Y36322
X118872Y35306
X118872Y34290
X118872Y33274
X118872Y32258
X118872Y31242
X118872Y30226
X118872Y29210
X118872Y9398
X118872Y8382
X118872Y7366
X118872Y6350
X118872Y5334
X118872Y4318
X118872Y3302
X118872Y2286
X118872Y1270
X119126Y27178
X119126Y26162
X119126Y25400
X119126Y24384
X119888Y27178
X119888Y9398
X119888Y8382
X119888Y7366
X119888Y6350
X119888Y5334
X119888Y4318
X119888Y3302
X119888Y2286
X119888Y1270
X120142Y26162
X120142Y25400
X120142Y24638
X121158Y23876
X121158Y23114
X123952Y9398
X125222Y9398
X125730Y20574
X125984Y29972
X125984Y28956
X126492Y9398
X127000Y20574
X127254Y29972
X127254Y28956
X128270Y24130
X128270Y22352
X128270Y20574
X133096Y14605
X133121Y19990
X133147Y21488
X133350Y30480
X134493Y14478
X135941Y16180
X136144Y9144
X136398Y30480
X137668Y11684
X137668Y9906
X137668Y8382
X138176Y30480
X139192Y12421
X139192Y31242
X139548Y20218
X139573Y21209
X139700Y36830
X139700Y35306
X139700Y33528
X139827Y5994
X140462Y32512
X140564Y21158
X140589Y20117
X141986Y20625
X142062Y14326
X142138Y19202
X144842Y19812
X145034Y28956
X145288Y26416
X145542Y24384
X145542Y19812
X146050Y28194
X146242Y19812
X146304Y27178
X147574Y27432
X147883Y17602
X148234Y14707
X148311Y13437
X148844Y27432
X149098Y36830
X149098Y35306
X149098Y33782
X149123Y6020
X149860Y18542
X150876Y32004
X151638Y18288
X152781Y18288
X155397Y9779
T02C0.500000
X96774Y16129
X97790Y16256
X91954Y32639
X94742Y33909
X96647Y33909
X97247Y36872
X93091Y38354
X96012Y39243
X97917Y39243
T03C0.635000
X30480Y23368
X33274Y27178
X33274Y24257
X38989Y1778
X38992Y3814
X39624Y12954
X41656Y28448
X41783Y20447
X41783Y19177
X41783Y17526
X41783Y15875
X41910Y26416
X42164Y9652
X42418Y23114
X42926Y17526
X43053Y20447
X43053Y19050
X43081Y26388
X43244Y8636
X43434Y16002
X44323Y17526
X44450Y18796
X44577Y23114
X44577Y20193
X45085Y36068
X45085Y34671
X45452Y26303
X45720Y23114
X45720Y17780
X45847Y19685
X46355Y37211
X46482Y16002
X46482Y12954
X46742Y22603
X47625Y19431
X47625Y16891
X48500Y8876
X48641Y18034
X49883Y18034
X50673Y11811
X51440Y3561
X52451Y3683
X52832Y2286
X54102Y10922
X58420Y10922
X58674Y31115
X72642Y17778
X74642Y13144
X75523Y11197
X75690Y18286
X76928Y11366
X78820Y19220
X83193Y10279
X83945Y19175
X84453Y9523
X84575Y16706
X84605Y15564
T04C0.800000
X46228Y33132
X46228Y31130
T05C0.889000
X3429Y29083
X3429Y26543
X3429Y24003
X3429Y21463
X3429Y18923
X3429Y15494
X3429Y12954
X3429Y10414
X5969Y29083
X5969Y26543
X5969Y24003
X5969Y21463
X5969Y18923
X5969Y15494
X5969Y12954
X5969Y10414
X12954Y10922
X15494Y10922
X18034Y10922
X22098Y29718
X22098Y27178
X22098Y24638
X24638Y29718
X24638Y27178
X24638Y24638
X31496Y6096
X31496Y3556
X34036Y6096
X34036Y3556
X44704Y7620
X44704Y5080
X47244Y7620
X47244Y5080
X49784Y7620
X49784Y5080
X52324Y7620
X52324Y5080
X53848Y36068
X53848Y33528
X53848Y30988
X53848Y28448
X53848Y25908
X56388Y36068
X56388Y33528
X56388Y30988
X56388Y28448
X56388Y25908
X64008Y29464
X64008Y26924
X66548Y29464
X66548Y26924
X91313Y9525
X93853Y9525
X91313Y12065
X93853Y12065
X91313Y14605
X93853Y14605
X91313Y17145
X93853Y17145
X91313Y19685
X93853Y19685
X92583Y29845
X91313Y38227
X102870Y18796
X102870Y16256
X102870Y13716
X102870Y11176
X105410Y18796
X105410Y16256
X105410Y13716
X105410Y11176
X123952Y18542
X123952Y16002
X123952Y13462
X123952Y10922
X126492Y18542
X126492Y16002
X126492Y13462
X126492Y10922
X133096Y28448
X133096Y25908
X133096Y23368
X135636Y28448
X135636Y25908
X135636Y23368
X139446Y10922
X139446Y8382
X141986Y36576
X141986Y34036
X141986Y10922
X141986Y8382
X144526Y36576
X144526Y34036
X144526Y10922
X144526Y8382
X147066Y36576
X147066Y34036
X147066Y10922
X147066Y8382
X149606Y10922
X149606Y8382
T06C0.900000
X73658Y38098
X73658Y35558
X76198Y38098
X76198Y35558
X78738Y38098
X78738Y35558
X81278Y38098
X81278Y35558
X83818Y38098
X83818Y35558
X86358Y38098
X86358Y35558
T07C1.300000
X24892Y18034
X24892Y13034
X29892Y18034
X29892Y13034
X33274Y34972
X33274Y29972
X38354Y34972
X38354Y29972
X60024Y19812
X60024Y14812
X65024Y19812
X65024Y14812
T08C3.000000
X4826Y35306
X4826Y4826
X14986Y35306
X14986Y4826
X24638Y35306
X24638Y4826
X65278Y35306
X65278Y4826
X74928Y25144
X74928Y4824
X85088Y25144
X85088Y4824
X94742Y4826
X94742Y25146
X104394Y35306
X104394Y4826
X124714Y35306
X124714Y4826
X134366Y35306
X134366Y4826
X154686Y35306
X154686Y4826
M30
