G75*
G71*
%MOMM*%
%OFA0B0*%
%FSLAX53Y53*%
%IPPOS*%
%LPD*%
%ADD15C,0.30000*%
%ADD20C,1.30000*%
%ADD24C,0.50000*%
%ADD35C,0.10000*%
%ADD39C,0.15000*%
X0000000Y0000000D02*
%LPD*%
G01*
D39*
G36*
X0005162Y0008024D02*
X0005777Y0007898D01*
X0006355Y0007655D01*
X0006876Y0007304D01*
X0007318Y0006858D01*
X0007665Y0006336D01*
X0007904Y0005755D01*
X0008026Y0005140D01*
X0008026Y0005140D01*
X0008026Y0005140D01*
X0008016Y0004423D01*
X0008016Y0004422D01*
X0008016Y0004422D01*
X0007877Y0003811D01*
X0007622Y0003238D01*
X0007260Y0002725D01*
X0006806Y0002292D01*
X0006276Y0001956D01*
X0005691Y0001729D01*
X0005073Y0001620D01*
X0004445Y0001633D01*
X0003832Y0001768D01*
X0003257Y0002019D01*
X0002742Y0002377D01*
X0002306Y0002829D01*
X0001966Y0003356D01*
X0001735Y0003940D01*
X0001622Y0004557D01*
X0001631Y0005184D01*
X0001761Y0005798D01*
X0002008Y0006375D01*
X0002363Y0006893D01*
X0002811Y0007332D01*
X0003336Y0007676D01*
X0003918Y0007911D01*
X0004535Y0008028D01*
X0005162Y0008024D01*
X0005162Y0008024D01*
G37*
G36*
X0015322Y0008024D02*
X0015937Y0007898D01*
X0016515Y0007655D01*
X0017036Y0007304D01*
X0017478Y0006858D01*
X0017825Y0006336D01*
X0018064Y0005755D01*
X0018186Y0005140D01*
X0018186Y0005140D01*
X0018186Y0005140D01*
X0018176Y0004423D01*
X0018176Y0004422D01*
X0018176Y0004422D01*
X0018037Y0003811D01*
X0017782Y0003238D01*
X0017420Y0002725D01*
X0016966Y0002292D01*
X0016436Y0001956D01*
X0015851Y0001729D01*
X0015233Y0001620D01*
X0014605Y0001633D01*
X0013992Y0001768D01*
X0013417Y0002019D01*
X0012902Y0002377D01*
X0012466Y0002829D01*
X0012126Y0003356D01*
X0011895Y0003940D01*
X0011782Y0004557D01*
X0011791Y0005184D01*
X0011921Y0005798D01*
X0012168Y0006375D01*
X0012523Y0006893D01*
X0012971Y0007332D01*
X0013496Y0007676D01*
X0014078Y0007911D01*
X0014695Y0008028D01*
X0015322Y0008024D01*
X0015322Y0008024D01*
G37*
G36*
X0004391Y0009452D02*
X0002467Y0009452D01*
X0002467Y0011376D01*
X0004391Y0011376D01*
X0004391Y0009452D01*
X0004391Y0009452D01*
G37*
G36*
X0006931Y0009452D02*
X0005007Y0009452D01*
X0005007Y0011376D01*
X0006931Y0011376D01*
X0006931Y0009452D01*
X0006931Y0009452D01*
G37*
G36*
X0013916Y0009960D02*
X0011992Y0009960D01*
X0011992Y0011884D01*
X0013916Y0011884D01*
X0013916Y0009960D01*
X0013916Y0009960D01*
G37*
G36*
X0018996Y0009960D02*
X0017072Y0009960D01*
X0017072Y0011884D01*
X0018996Y0011884D01*
X0018996Y0009960D01*
X0018996Y0009960D01*
G37*
G36*
X0016456Y0009960D02*
X0014532Y0009960D01*
X0014532Y0011884D01*
X0016456Y0011884D01*
X0016456Y0009960D01*
X0016456Y0009960D01*
G37*
G36*
X0006931Y0011992D02*
X0005007Y0011992D01*
X0005007Y0013916D01*
X0006931Y0013916D01*
X0006931Y0011992D01*
X0006931Y0011992D01*
G37*
G36*
X0004391Y0011992D02*
X0002467Y0011992D01*
X0002467Y0013916D01*
X0004391Y0013916D01*
X0004391Y0011992D01*
X0004391Y0011992D01*
G37*
G36*
X0006931Y0014532D02*
X0005007Y0014532D01*
X0005007Y0016456D01*
X0006931Y0016456D01*
X0006931Y0014532D01*
X0006931Y0014532D01*
G37*
G36*
X0004391Y0014532D02*
X0002467Y0014532D01*
X0002467Y0016456D01*
X0004391Y0016456D01*
X0004391Y0014532D01*
X0004391Y0014532D01*
G37*
G36*
X0006931Y0017961D02*
X0005007Y0017961D01*
X0005007Y0019885D01*
X0006931Y0019885D01*
X0006931Y0017961D01*
X0006931Y0017961D01*
G37*
G36*
X0004391Y0017961D02*
X0002467Y0017961D01*
X0002467Y0019885D01*
X0004391Y0019885D01*
X0004391Y0017961D01*
X0004391Y0017961D01*
G37*
G36*
X0004391Y0020501D02*
X0002467Y0020501D01*
X0002467Y0022425D01*
X0004391Y0022425D01*
X0004391Y0020501D01*
X0004391Y0020501D01*
G37*
G36*
X0006931Y0020501D02*
X0005007Y0020501D01*
X0005007Y0022425D01*
X0006931Y0022425D01*
X0006931Y0020501D01*
X0006931Y0020501D01*
G37*
G36*
X0004391Y0023041D02*
X0002467Y0023041D01*
X0002467Y0024965D01*
X0004391Y0024965D01*
X0004391Y0023041D01*
X0004391Y0023041D01*
G37*
G36*
X0006931Y0023041D02*
X0005007Y0023041D01*
X0005007Y0024965D01*
X0006931Y0024965D01*
X0006931Y0023041D01*
X0006931Y0023041D01*
G37*
G36*
X0004391Y0025581D02*
X0002467Y0025581D01*
X0002467Y0027505D01*
X0004391Y0027505D01*
X0004391Y0025581D01*
X0004391Y0025581D01*
G37*
G36*
X0006931Y0025581D02*
X0005007Y0025581D01*
X0005007Y0027505D01*
X0006931Y0027505D01*
X0006931Y0025581D01*
X0006931Y0025581D01*
G37*
G36*
X0004391Y0028121D02*
X0002467Y0028121D01*
X0002467Y0030045D01*
X0004391Y0030045D01*
X0004391Y0028121D01*
X0004391Y0028121D01*
G37*
G36*
X0006931Y0028121D02*
X0005007Y0028121D01*
X0005007Y0030045D01*
X0006931Y0030045D01*
X0006931Y0028121D01*
X0006931Y0028121D01*
G37*
G36*
X0015322Y0038504D02*
X0015937Y0038378D01*
X0016515Y0038135D01*
X0017036Y0037784D01*
X0017478Y0037338D01*
X0017825Y0036816D01*
X0018064Y0036235D01*
X0018186Y0035620D01*
X0018186Y0035620D01*
X0018186Y0035620D01*
X0018176Y0034903D01*
X0018176Y0034902D01*
X0018176Y0034902D01*
X0018037Y0034291D01*
X0017782Y0033718D01*
X0017420Y0033205D01*
X0016966Y0032772D01*
X0016436Y0032436D01*
X0015851Y0032209D01*
X0015233Y0032100D01*
X0014605Y0032113D01*
X0013992Y0032248D01*
X0013417Y0032499D01*
X0012902Y0032857D01*
X0012466Y0033309D01*
X0012126Y0033836D01*
X0011895Y0034420D01*
X0011782Y0035037D01*
X0011791Y0035664D01*
X0011921Y0036278D01*
X0012168Y0036855D01*
X0012523Y0037373D01*
X0012971Y0037812D01*
X0013496Y0038156D01*
X0014078Y0038391D01*
X0014695Y0038508D01*
X0015322Y0038504D01*
X0015322Y0038504D01*
G37*
G36*
X0005162Y0038504D02*
X0005777Y0038378D01*
X0006355Y0038135D01*
X0006876Y0037784D01*
X0007318Y0037338D01*
X0007665Y0036816D01*
X0007904Y0036235D01*
X0008026Y0035620D01*
X0008026Y0035620D01*
X0008026Y0035620D01*
X0008016Y0034903D01*
X0008016Y0034902D01*
X0008016Y0034902D01*
X0007877Y0034291D01*
X0007622Y0033718D01*
X0007260Y0033205D01*
X0006806Y0032772D01*
X0006276Y0032436D01*
X0005691Y0032209D01*
X0005073Y0032100D01*
X0004445Y0032113D01*
X0003832Y0032248D01*
X0003257Y0032499D01*
X0002742Y0032857D01*
X0002306Y0033309D01*
X0001966Y0033836D01*
X0001735Y0034420D01*
X0001622Y0035037D01*
X0001631Y0035664D01*
X0001761Y0036278D01*
X0002008Y0036855D01*
X0002363Y0037373D01*
X0002811Y0037812D01*
X0003336Y0038156D01*
X0003918Y0038391D01*
X0004535Y0038508D01*
X0005162Y0038504D01*
X0005162Y0038504D01*
G37*
X0019812Y0000000D02*
%LPD*%
G01*
D15*
G36*
X0024974Y0008024D02*
X0025589Y0007898D01*
X0026167Y0007655D01*
X0026688Y0007304D01*
X0027130Y0006858D01*
X0027477Y0006336D01*
X0027716Y0005755D01*
X0027838Y0005140D01*
X0027838Y0005140D01*
X0027838Y0005140D01*
X0027828Y0004423D01*
X0027828Y0004422D01*
X0027828Y0004422D01*
X0027689Y0003811D01*
X0027434Y0003238D01*
X0027072Y0002725D01*
X0026618Y0002292D01*
X0026088Y0001956D01*
X0025503Y0001729D01*
X0024885Y0001620D01*
X0024257Y0001633D01*
X0023644Y0001768D01*
X0023069Y0002019D01*
X0022554Y0002377D01*
X0022118Y0002829D01*
X0021778Y0003356D01*
X0021547Y0003940D01*
X0021434Y0004557D01*
X0021443Y0005184D01*
X0021573Y0005798D01*
X0021820Y0006375D01*
X0022175Y0006893D01*
X0022623Y0007332D01*
X0023148Y0007676D01*
X0023730Y0007911D01*
X0024347Y0008028D01*
X0024974Y0008024D01*
X0024974Y0008024D01*
G37*
G36*
X0065614Y0008024D02*
X0066229Y0007898D01*
X0066807Y0007655D01*
X0067328Y0007304D01*
X0067770Y0006858D01*
X0068117Y0006336D01*
X0068356Y0005755D01*
X0068478Y0005140D01*
X0068478Y0005140D01*
X0068478Y0005140D01*
X0068468Y0004423D01*
X0068468Y0004422D01*
X0068468Y0004422D01*
X0068329Y0003811D01*
X0068074Y0003238D01*
X0067712Y0002725D01*
X0067258Y0002292D01*
X0066728Y0001956D01*
X0066143Y0001729D01*
X0065525Y0001620D01*
X0064897Y0001633D01*
X0064284Y0001768D01*
X0063709Y0002019D01*
X0063194Y0002377D01*
X0062758Y0002829D01*
X0062418Y0003356D01*
X0062187Y0003940D01*
X0062074Y0004557D01*
X0062083Y0005184D01*
X0062213Y0005798D01*
X0062460Y0006375D01*
X0062815Y0006893D01*
X0063263Y0007332D01*
X0063788Y0007676D01*
X0064370Y0007911D01*
X0064987Y0008028D01*
X0065614Y0008024D01*
X0065614Y0008024D01*
G37*
G36*
X0032458Y0002594D02*
X0030534Y0002594D01*
X0030534Y0004518D01*
X0032458Y0004518D01*
X0032458Y0002594D01*
X0032458Y0002594D01*
G37*
G36*
X0034998Y0002594D02*
X0033074Y0002594D01*
X0033074Y0004518D01*
X0034998Y0004518D01*
X0034998Y0002594D01*
X0034998Y0002594D01*
G37*
G36*
X0050746Y0004118D02*
X0048822Y0004118D01*
X0048822Y0006042D01*
X0050746Y0006042D01*
X0050746Y0004118D01*
X0050746Y0004118D01*
G37*
G36*
X0048206Y0004118D02*
X0046282Y0004118D01*
X0046282Y0006042D01*
X0048206Y0006042D01*
X0048206Y0004118D01*
X0048206Y0004118D01*
G37*
G36*
X0045666Y0004118D02*
X0043742Y0004118D01*
X0043742Y0006042D01*
X0045666Y0006042D01*
X0045666Y0004118D01*
X0045666Y0004118D01*
G37*
G36*
X0053286Y0004118D02*
X0051362Y0004118D01*
X0051362Y0006042D01*
X0053286Y0006042D01*
X0053286Y0004118D01*
X0053286Y0004118D01*
G37*
G36*
X0034998Y0005134D02*
X0033074Y0005134D01*
X0033074Y0007058D01*
X0034998Y0007058D01*
X0034998Y0005134D01*
X0034998Y0005134D01*
G37*
G36*
X0032458Y0005134D02*
X0030534Y0005134D01*
X0030534Y0007058D01*
X0032458Y0007058D01*
X0032458Y0005134D01*
X0032458Y0005134D01*
G37*
G36*
X0053286Y0006658D02*
X0051362Y0006658D01*
X0051362Y0008582D01*
X0053286Y0008582D01*
X0053286Y0006658D01*
X0053286Y0006658D01*
G37*
G36*
X0048206Y0006658D02*
X0046282Y0006658D01*
X0046282Y0008582D01*
X0048206Y0008582D01*
X0048206Y0006658D01*
X0048206Y0006658D01*
G37*
G36*
X0045666Y0006658D02*
X0043742Y0006658D01*
X0043742Y0008582D01*
X0045666Y0008582D01*
X0045666Y0006658D01*
X0045666Y0006658D01*
G37*
G36*
X0050746Y0006658D02*
X0048822Y0006658D01*
X0048822Y0008582D01*
X0050746Y0008582D01*
X0050746Y0006658D01*
X0050746Y0006658D01*
G37*
G36*
X0026997Y0010929D02*
X0022787Y0010929D01*
X0022787Y0015139D01*
X0026997Y0015139D01*
X0026997Y0010929D01*
X0026997Y0010929D01*
G37*
G36*
X0031997Y0010929D02*
X0027787Y0010929D01*
X0027787Y0015139D01*
X0031997Y0015139D01*
X0031997Y0010929D01*
X0031997Y0010929D01*
G37*
G36*
X0062129Y0012707D02*
X0057919Y0012707D01*
X0057919Y0016917D01*
X0062129Y0016917D01*
X0062129Y0012707D01*
X0062129Y0012707D01*
G37*
G36*
X0067129Y0012707D02*
X0062919Y0012707D01*
X0062919Y0016917D01*
X0067129Y0016917D01*
X0067129Y0012707D01*
X0067129Y0012707D01*
G37*
G36*
X0026997Y0015929D02*
X0022787Y0015929D01*
X0022787Y0020139D01*
X0026997Y0020139D01*
X0026997Y0015929D01*
X0026997Y0015929D01*
G37*
G36*
X0031997Y0015929D02*
X0027787Y0015929D01*
X0027787Y0020139D01*
X0031997Y0020139D01*
X0031997Y0015929D01*
X0031997Y0015929D01*
G37*
G36*
X0062129Y0017707D02*
X0057919Y0017707D01*
X0057919Y0021917D01*
X0062129Y0021917D01*
X0062129Y0017707D01*
X0062129Y0017707D01*
G37*
G36*
X0067129Y0017707D02*
X0062919Y0017707D01*
X0062919Y0021917D01*
X0067129Y0021917D01*
X0067129Y0017707D01*
X0067129Y0017707D01*
G37*
G36*
X0023060Y0023676D02*
X0021136Y0023676D01*
X0021136Y0025600D01*
X0023060Y0025600D01*
X0023060Y0023676D01*
X0023060Y0023676D01*
G37*
G36*
X0025600Y0023676D02*
X0023676Y0023676D01*
X0023676Y0025600D01*
X0025600Y0025600D01*
X0025600Y0023676D01*
X0025600Y0023676D01*
G37*
G36*
X0057350Y0024946D02*
X0055426Y0024946D01*
X0055426Y0026870D01*
X0057350Y0026870D01*
X0057350Y0024946D01*
X0057350Y0024946D01*
G37*
G36*
X0054810Y0024946D02*
X0052886Y0024946D01*
X0052886Y0026870D01*
X0054810Y0026870D01*
X0054810Y0024946D01*
X0054810Y0024946D01*
G37*
G36*
X0064970Y0025962D02*
X0063046Y0025962D01*
X0063046Y0027886D01*
X0064970Y0027886D01*
X0064970Y0025962D01*
X0064970Y0025962D01*
G37*
G36*
X0067510Y0025962D02*
X0065586Y0025962D01*
X0065586Y0027886D01*
X0067510Y0027886D01*
X0067510Y0025962D01*
X0067510Y0025962D01*
G37*
G36*
X0023060Y0026216D02*
X0021136Y0026216D01*
X0021136Y0028140D01*
X0023060Y0028140D01*
X0023060Y0026216D01*
X0023060Y0026216D01*
G37*
G36*
X0025600Y0026216D02*
X0023676Y0026216D01*
X0023676Y0028140D01*
X0025600Y0028140D01*
X0025600Y0026216D01*
X0025600Y0026216D01*
G37*
G36*
X0054810Y0027486D02*
X0052886Y0027486D01*
X0052886Y0029410D01*
X0054810Y0029410D01*
X0054810Y0027486D01*
X0054810Y0027486D01*
G37*
G36*
X0057350Y0027486D02*
X0055426Y0027486D01*
X0055426Y0029410D01*
X0057350Y0029410D01*
X0057350Y0027486D01*
X0057350Y0027486D01*
G37*
G36*
X0035379Y0027867D02*
X0031169Y0027867D01*
X0031169Y0032077D01*
X0035379Y0032077D01*
X0035379Y0027867D01*
X0035379Y0027867D01*
G37*
G36*
X0040459Y0027867D02*
X0036249Y0027867D01*
X0036249Y0032077D01*
X0040459Y0032077D01*
X0040459Y0027867D01*
X0040459Y0027867D01*
G37*
G36*
X0067510Y0028502D02*
X0065586Y0028502D01*
X0065586Y0030426D01*
X0067510Y0030426D01*
X0067510Y0028502D01*
X0067510Y0028502D01*
G37*
G36*
X0064970Y0028502D02*
X0063046Y0028502D01*
X0063046Y0030426D01*
X0064970Y0030426D01*
X0064970Y0028502D01*
X0064970Y0028502D01*
G37*
G36*
X0025600Y0028756D02*
X0023676Y0028756D01*
X0023676Y0030680D01*
X0025600Y0030680D01*
X0025600Y0028756D01*
X0025600Y0028756D01*
G37*
G36*
X0023060Y0028756D02*
X0021136Y0028756D01*
X0021136Y0030680D01*
X0023060Y0030680D01*
X0023060Y0028756D01*
X0023060Y0028756D01*
G37*
G36*
X0057350Y0030026D02*
X0055426Y0030026D01*
X0055426Y0031950D01*
X0057350Y0031950D01*
X0057350Y0030026D01*
X0057350Y0030026D01*
G37*
G36*
X0054810Y0030026D02*
X0052886Y0030026D01*
X0052886Y0031950D01*
X0054810Y0031950D01*
X0054810Y0030026D01*
X0054810Y0030026D01*
G37*
G36*
X0046327Y0034072D02*
X0046507Y0034034D01*
X0046677Y0033963D01*
X0046830Y0033860D01*
X0046960Y0033729D01*
X0047062Y0033575D01*
X0047133Y0033405D01*
X0047168Y0033225D01*
X0047168Y0033225D01*
X0047168Y0033224D01*
X0047166Y0033013D01*
X0047165Y0033013D01*
X0047165Y0033013D01*
X0047125Y0032833D01*
X0047050Y0032665D01*
X0046943Y0032514D01*
X0046810Y0032387D01*
X0046654Y0032288D01*
X0046490Y0032225D01*
X0046472Y0032216D01*
X0046457Y0032204D01*
X0046444Y0032189D01*
X0046434Y0032172D01*
X0046428Y0032153D01*
X0046426Y0032134D01*
X0046427Y0032114D01*
X0046433Y0032095D01*
X0046441Y0032078D01*
X0046453Y0032062D01*
X0046468Y0032049D01*
X0046485Y0032040D01*
X0046506Y0032033D01*
X0046507Y0032033D01*
X0046677Y0031961D01*
X0046830Y0031858D01*
X0046960Y0031727D01*
X0047062Y0031574D01*
X0047133Y0031403D01*
X0047168Y0031223D01*
X0047168Y0031223D01*
X0047168Y0031222D01*
X0047166Y0031012D01*
X0047165Y0031011D01*
X0047165Y0031011D01*
X0047125Y0030832D01*
X0047050Y0030663D01*
X0046943Y0030513D01*
X0046810Y0030386D01*
X0046654Y0030287D01*
X0046482Y0030220D01*
X0046300Y0030188D01*
X0046116Y0030192D01*
X0045936Y0030232D01*
X0045767Y0030305D01*
X0045616Y0030411D01*
X0045487Y0030543D01*
X0045388Y0030698D01*
X0045320Y0030870D01*
X0045286Y0031051D01*
X0045289Y0031236D01*
X0045327Y0031416D01*
X0045400Y0031585D01*
X0045504Y0031738D01*
X0045636Y0031867D01*
X0045790Y0031968D01*
X0045967Y0032039D01*
X0045985Y0032048D01*
X0046000Y0032061D01*
X0046013Y0032076D01*
X0046022Y0032093D01*
X0046028Y0032112D01*
X0046030Y0032131D01*
X0046028Y0032151D01*
X0046023Y0032169D01*
X0046014Y0032187D01*
X0046001Y0032202D01*
X0045986Y0032215D01*
X0045969Y0032224D01*
X0045951Y0032230D01*
X0045936Y0032233D01*
X0045767Y0032307D01*
X0045616Y0032412D01*
X0045487Y0032545D01*
X0045388Y0032700D01*
X0045320Y0032871D01*
X0045286Y0033053D01*
X0045289Y0033237D01*
X0045327Y0033417D01*
X0045400Y0033587D01*
X0045504Y0033739D01*
X0045636Y0033868D01*
X0045790Y0033969D01*
X0045961Y0034038D01*
X0046142Y0034073D01*
X0046327Y0034072D01*
X0046327Y0034072D01*
G37*
G36*
X0024974Y0038504D02*
X0025589Y0038378D01*
X0026167Y0038135D01*
X0026688Y0037784D01*
X0027130Y0037338D01*
X0027477Y0036816D01*
X0027716Y0036235D01*
X0027838Y0035620D01*
X0027838Y0035620D01*
X0027838Y0035620D01*
X0027828Y0034903D01*
X0027828Y0034902D01*
X0027828Y0034902D01*
X0027689Y0034291D01*
X0027434Y0033718D01*
X0027072Y0033205D01*
X0026618Y0032772D01*
X0026088Y0032436D01*
X0025503Y0032209D01*
X0024885Y0032100D01*
X0024257Y0032113D01*
X0023644Y0032248D01*
X0023069Y0032499D01*
X0022554Y0032857D01*
X0022118Y0033309D01*
X0021778Y0033836D01*
X0021547Y0034420D01*
X0021434Y0035037D01*
X0021443Y0035664D01*
X0021573Y0036278D01*
X0021820Y0036855D01*
X0022175Y0037373D01*
X0022623Y0037812D01*
X0023148Y0038156D01*
X0023730Y0038391D01*
X0024347Y0038508D01*
X0024974Y0038504D01*
X0024974Y0038504D01*
G37*
G36*
X0065614Y0038504D02*
X0066229Y0038378D01*
X0066807Y0038135D01*
X0067328Y0037784D01*
X0067770Y0037338D01*
X0068117Y0036816D01*
X0068356Y0036235D01*
X0068478Y0035620D01*
X0068478Y0035620D01*
X0068478Y0035620D01*
X0068468Y0034903D01*
X0068468Y0034902D01*
X0068468Y0034902D01*
X0068329Y0034291D01*
X0068074Y0033718D01*
X0067712Y0033205D01*
X0067258Y0032772D01*
X0066728Y0032436D01*
X0066143Y0032209D01*
X0065525Y0032100D01*
X0064897Y0032113D01*
X0064284Y0032248D01*
X0063709Y0032499D01*
X0063194Y0032857D01*
X0062758Y0033309D01*
X0062418Y0033836D01*
X0062187Y0034420D01*
X0062074Y0035037D01*
X0062083Y0035664D01*
X0062213Y0036278D01*
X0062460Y0036855D01*
X0062815Y0037373D01*
X0063263Y0037812D01*
X0063788Y0038156D01*
X0064370Y0038391D01*
X0064987Y0038508D01*
X0065614Y0038504D01*
X0065614Y0038504D01*
G37*
G36*
X0054810Y0032566D02*
X0052886Y0032566D01*
X0052886Y0034490D01*
X0054810Y0034490D01*
X0054810Y0032566D01*
X0054810Y0032566D01*
G37*
G36*
X0057350Y0032566D02*
X0055426Y0032566D01*
X0055426Y0034490D01*
X0057350Y0034490D01*
X0057350Y0032566D01*
X0057350Y0032566D01*
G37*
G36*
X0040459Y0032867D02*
X0036249Y0032867D01*
X0036249Y0037077D01*
X0040459Y0037077D01*
X0040459Y0032867D01*
X0040459Y0032867D01*
G37*
G36*
X0035379Y0032867D02*
X0031169Y0032867D01*
X0031169Y0037077D01*
X0035379Y0037077D01*
X0035379Y0032867D01*
X0035379Y0032867D01*
G37*
G36*
X0057350Y0035106D02*
X0055426Y0035106D01*
X0055426Y0037030D01*
X0057350Y0037030D01*
X0057350Y0035106D01*
X0057350Y0035106D01*
G37*
G36*
X0054810Y0035106D02*
X0052886Y0035106D01*
X0052886Y0037030D01*
X0054810Y0037030D01*
X0054810Y0035106D01*
X0054810Y0035106D01*
G37*
X0070104Y0000000D02*
%LPD*%
G01*
D35*
G36*
X0075264Y0008022D02*
X0075879Y0007896D01*
X0076457Y0007652D01*
X0076978Y0007302D01*
X0077420Y0006856D01*
X0077767Y0006334D01*
X0078006Y0005753D01*
X0078128Y0005138D01*
X0078128Y0005138D01*
X0078128Y0005138D01*
X0078118Y0004421D01*
X0078118Y0004420D01*
X0078118Y0004420D01*
X0077979Y0003809D01*
X0077724Y0003236D01*
X0077362Y0002723D01*
X0076908Y0002290D01*
X0076378Y0001954D01*
X0075793Y0001727D01*
X0075175Y0001618D01*
X0074547Y0001631D01*
X0073934Y0001766D01*
X0073359Y0002017D01*
X0072844Y0002375D01*
X0072408Y0002827D01*
X0072068Y0003354D01*
X0071837Y0003938D01*
X0071724Y0004555D01*
X0071733Y0005182D01*
X0071863Y0005796D01*
X0072110Y0006373D01*
X0072465Y0006891D01*
X0072913Y0007330D01*
X0073438Y0007674D01*
X0074020Y0007909D01*
X0074637Y0008026D01*
X0075264Y0008022D01*
X0075264Y0008022D01*
G37*
G36*
X0085424Y0008022D02*
X0086039Y0007896D01*
X0086617Y0007652D01*
X0087138Y0007302D01*
X0087580Y0006856D01*
X0087927Y0006334D01*
X0088166Y0005753D01*
X0088288Y0005138D01*
X0088288Y0005138D01*
X0088288Y0005138D01*
X0088278Y0004421D01*
X0088278Y0004420D01*
X0088278Y0004420D01*
X0088139Y0003809D01*
X0087884Y0003236D01*
X0087522Y0002723D01*
X0087068Y0002290D01*
X0086538Y0001954D01*
X0085953Y0001727D01*
X0085335Y0001618D01*
X0084707Y0001631D01*
X0084094Y0001766D01*
X0083519Y0002017D01*
X0083004Y0002375D01*
X0082568Y0002827D01*
X0082228Y0003354D01*
X0081997Y0003938D01*
X0081884Y0004555D01*
X0081893Y0005182D01*
X0082023Y0005796D01*
X0082270Y0006373D01*
X0082625Y0006891D01*
X0083073Y0007330D01*
X0083598Y0007674D01*
X0084180Y0007909D01*
X0084797Y0008026D01*
X0085424Y0008022D01*
X0085424Y0008022D01*
G37*
G36*
X0080239Y0017183D02*
X0080662Y0017096D01*
X0081059Y0016929D01*
X0081417Y0016687D01*
X0081721Y0016381D01*
X0081960Y0016022D01*
X0082124Y0015623D01*
X0082208Y0015200D01*
X0082208Y0015200D01*
X0082208Y0015200D01*
X0082201Y0014707D01*
X0082201Y0014706D01*
X0082201Y0014706D01*
X0082106Y0014286D01*
X0081930Y0013892D01*
X0081681Y0013540D01*
X0081369Y0013242D01*
X0081005Y0013011D01*
X0080602Y0012855D01*
X0080178Y0012780D01*
X0079746Y0012789D01*
X0079325Y0012882D01*
X0078930Y0013054D01*
X0078575Y0013301D01*
X0078276Y0013611D01*
X0078042Y0013974D01*
X0077883Y0014375D01*
X0077805Y0014799D01*
X0077811Y0015230D01*
X0077901Y0015652D01*
X0078071Y0016049D01*
X0078315Y0016405D01*
X0078623Y0016707D01*
X0078984Y0016943D01*
X0079384Y0017105D01*
X0079808Y0017186D01*
X0080239Y0017183D01*
X0080239Y0017183D01*
G37*
G36*
X0075264Y0028342D02*
X0075879Y0028216D01*
X0076457Y0027972D01*
X0076978Y0027622D01*
X0077420Y0027176D01*
X0077767Y0026654D01*
X0078006Y0026073D01*
X0078128Y0025458D01*
X0078128Y0025458D01*
X0078128Y0025458D01*
X0078118Y0024741D01*
X0078118Y0024740D01*
X0078118Y0024740D01*
X0077979Y0024129D01*
X0077724Y0023556D01*
X0077362Y0023043D01*
X0076908Y0022610D01*
X0076378Y0022274D01*
X0075793Y0022047D01*
X0075175Y0021938D01*
X0074547Y0021951D01*
X0073934Y0022086D01*
X0073359Y0022337D01*
X0072844Y0022695D01*
X0072408Y0023147D01*
X0072068Y0023674D01*
X0071837Y0024258D01*
X0071724Y0024875D01*
X0071733Y0025502D01*
X0071863Y0026116D01*
X0072110Y0026693D01*
X0072465Y0027211D01*
X0072913Y0027650D01*
X0073438Y0027994D01*
X0074020Y0028229D01*
X0074637Y0028346D01*
X0075264Y0028342D01*
X0075264Y0028342D01*
G37*
G36*
X0085424Y0028342D02*
X0086039Y0028216D01*
X0086617Y0027972D01*
X0087138Y0027622D01*
X0087580Y0027176D01*
X0087927Y0026654D01*
X0088166Y0026073D01*
X0088288Y0025458D01*
X0088288Y0025458D01*
X0088288Y0025458D01*
X0088278Y0024741D01*
X0088278Y0024740D01*
X0088278Y0024740D01*
X0088139Y0024129D01*
X0087884Y0023556D01*
X0087522Y0023043D01*
X0087068Y0022610D01*
X0086538Y0022274D01*
X0085953Y0022047D01*
X0085335Y0021938D01*
X0084707Y0021951D01*
X0084094Y0022086D01*
X0083519Y0022337D01*
X0083004Y0022695D01*
X0082568Y0023147D01*
X0082228Y0023674D01*
X0081997Y0024258D01*
X0081884Y0024875D01*
X0081893Y0025502D01*
X0082023Y0026116D01*
X0082270Y0026693D01*
X0082625Y0027211D01*
X0083073Y0027650D01*
X0083598Y0027994D01*
X0084180Y0028229D01*
X0084797Y0028346D01*
X0085424Y0028342D01*
X0085424Y0028342D01*
G37*
G36*
X0077224Y0034532D02*
X0075173Y0034532D01*
X0075173Y0036583D01*
X0077224Y0036583D01*
X0077224Y0034532D01*
X0077224Y0034532D01*
G37*
G36*
X0074684Y0034532D02*
X0072633Y0034532D01*
X0072633Y0036583D01*
X0074684Y0036583D01*
X0074684Y0034532D01*
X0074684Y0034532D01*
G37*
G36*
X0084844Y0034532D02*
X0082793Y0034532D01*
X0082793Y0036583D01*
X0084844Y0036583D01*
X0084844Y0034532D01*
X0084844Y0034532D01*
G37*
G36*
X0079764Y0034532D02*
X0077713Y0034532D01*
X0077713Y0036583D01*
X0079764Y0036583D01*
X0079764Y0034532D01*
X0079764Y0034532D01*
G37*
G36*
X0087384Y0034532D02*
X0085333Y0034532D01*
X0085333Y0036583D01*
X0087384Y0036583D01*
X0087384Y0034532D01*
X0087384Y0034532D01*
G37*
G36*
X0082304Y0034532D02*
X0080253Y0034532D01*
X0080253Y0036583D01*
X0082304Y0036583D01*
X0082304Y0034532D01*
X0082304Y0034532D01*
G37*
G36*
X0079764Y0037072D02*
X0077713Y0037072D01*
X0077713Y0039123D01*
X0079764Y0039123D01*
X0079764Y0037072D01*
X0079764Y0037072D01*
G37*
G36*
X0087384Y0037072D02*
X0085333Y0037072D01*
X0085333Y0039123D01*
X0087384Y0039123D01*
X0087384Y0037072D01*
X0087384Y0037072D01*
G37*
G36*
X0084844Y0037072D02*
X0082793Y0037072D01*
X0082793Y0039123D01*
X0084844Y0039123D01*
X0084844Y0037072D01*
X0084844Y0037072D01*
G37*
G36*
X0082304Y0037072D02*
X0080253Y0037072D01*
X0080253Y0039123D01*
X0082304Y0039123D01*
X0082304Y0037072D01*
X0082304Y0037072D01*
G37*
G36*
X0077224Y0037072D02*
X0075173Y0037072D01*
X0075173Y0039123D01*
X0077224Y0039123D01*
X0077224Y0037072D01*
X0077224Y0037072D01*
G37*
G36*
X0074684Y0037072D02*
X0072633Y0037072D01*
X0072633Y0039123D01*
X0074684Y0039123D01*
X0074684Y0037072D01*
X0074684Y0037072D01*
G37*
X0089916Y0000000D02*
%LPD*%
G01*
D15*
G36*
X0091544Y0025482D02*
X0091670Y0026097D01*
X0091914Y0026675D01*
X0092264Y0027196D01*
X0092710Y0027638D01*
X0093232Y0027985D01*
X0093813Y0028224D01*
X0094428Y0028346D01*
X0094428Y0028346D01*
X0094428Y0028346D01*
X0095145Y0028336D01*
X0095146Y0028336D01*
X0095146Y0028336D01*
X0095757Y0028197D01*
X0096330Y0027942D01*
X0096843Y0027580D01*
X0097276Y0027126D01*
X0097612Y0026596D01*
X0097839Y0026011D01*
X0097948Y0025393D01*
X0097935Y0024765D01*
X0097800Y0024152D01*
X0097549Y0023577D01*
X0097191Y0023062D01*
X0096739Y0022626D01*
X0096212Y0022286D01*
X0095628Y0022055D01*
X0095011Y0021942D01*
X0094384Y0021951D01*
X0093770Y0022081D01*
X0093193Y0022328D01*
X0092675Y0022683D01*
X0092236Y0023131D01*
X0091892Y0023656D01*
X0091657Y0024238D01*
X0091540Y0024855D01*
X0091544Y0025482D01*
X0091544Y0025482D01*
G37*
G36*
X0091544Y0005162D02*
X0091670Y0005777D01*
X0091914Y0006355D01*
X0092264Y0006876D01*
X0092710Y0007318D01*
X0093232Y0007665D01*
X0093813Y0007904D01*
X0094428Y0008026D01*
X0094428Y0008026D01*
X0094428Y0008026D01*
X0095145Y0008016D01*
X0095146Y0008016D01*
X0095146Y0008016D01*
X0095757Y0007877D01*
X0096330Y0007622D01*
X0096843Y0007260D01*
X0097276Y0006806D01*
X0097612Y0006276D01*
X0097839Y0005691D01*
X0097948Y0005073D01*
X0097935Y0004445D01*
X0097800Y0003832D01*
X0097549Y0003257D01*
X0097191Y0002742D01*
X0096739Y0002306D01*
X0096212Y0001966D01*
X0095628Y0001735D01*
X0095011Y0001622D01*
X0094384Y0001631D01*
X0093770Y0001761D01*
X0093193Y0002008D01*
X0092675Y0002363D01*
X0092236Y0002811D01*
X0091892Y0003336D01*
X0091657Y0003918D01*
X0091540Y0004535D01*
X0091544Y0005162D01*
X0091544Y0005162D01*
G37*
G36*
X0094815Y0015567D02*
X0094815Y0013643D01*
X0092891Y0013643D01*
X0092891Y0015567D01*
X0094815Y0015567D01*
X0094815Y0015567D01*
G37*
G36*
X0094815Y0020647D02*
X0094815Y0018723D01*
X0092891Y0018723D01*
X0092891Y0020647D01*
X0094815Y0020647D01*
X0094815Y0020647D01*
G37*
G36*
X0094815Y0018107D02*
X0094815Y0016183D01*
X0092891Y0016183D01*
X0092891Y0018107D01*
X0094815Y0018107D01*
X0094815Y0018107D01*
G37*
G36*
X0094815Y0010487D02*
X0094815Y0008563D01*
X0092891Y0008563D01*
X0092891Y0010487D01*
X0094815Y0010487D01*
X0094815Y0010487D01*
G37*
G36*
X0094815Y0013027D02*
X0094815Y0011103D01*
X0092891Y0011103D01*
X0092891Y0013027D01*
X0094815Y0013027D01*
X0094815Y0013027D01*
G37*
G36*
X0093545Y0030807D02*
X0093545Y0028883D01*
X0091621Y0028883D01*
X0091621Y0030807D01*
X0093545Y0030807D01*
X0093545Y0030807D01*
G37*
G36*
X0092275Y0013027D02*
X0092275Y0011103D01*
X0090351Y0011103D01*
X0090351Y0013027D01*
X0092275Y0013027D01*
X0092275Y0013027D01*
G37*
G36*
X0092275Y0010487D02*
X0092275Y0008563D01*
X0090351Y0008563D01*
X0090351Y0010487D01*
X0092275Y0010487D01*
X0092275Y0010487D01*
G37*
G36*
X0092275Y0039189D02*
X0092275Y0037265D01*
X0090351Y0037265D01*
X0090351Y0039189D01*
X0092275Y0039189D01*
X0092275Y0039189D01*
G37*
G36*
X0092275Y0015567D02*
X0092275Y0013643D01*
X0090351Y0013643D01*
X0090351Y0015567D01*
X0092275Y0015567D01*
X0092275Y0015567D01*
G37*
G36*
X0092275Y0018107D02*
X0092275Y0016183D01*
X0090351Y0016183D01*
X0090351Y0018107D01*
X0092275Y0018107D01*
X0092275Y0018107D01*
G37*
G36*
X0092275Y0020647D02*
X0092275Y0018723D01*
X0090351Y0018723D01*
X0090351Y0020647D01*
X0092275Y0020647D01*
X0092275Y0020647D01*
G37*
X0099568Y0000000D02*
%LPD*%
G01*
D24*
G36*
X0120396Y0000762D02*
X0109220Y0000762D01*
X0109220Y0009906D01*
X0120396Y0009906D01*
X0120396Y0000762D01*
X0120396Y0000762D01*
G37*
G36*
X0104730Y0008024D02*
X0105345Y0007898D01*
X0105923Y0007655D01*
X0106444Y0007304D01*
X0106886Y0006858D01*
X0107233Y0006336D01*
X0107472Y0005755D01*
X0107594Y0005140D01*
X0107594Y0005140D01*
X0107594Y0005140D01*
X0107584Y0004423D01*
X0107584Y0004422D01*
X0107584Y0004422D01*
X0107445Y0003811D01*
X0107190Y0003238D01*
X0106828Y0002725D01*
X0106374Y0002292D01*
X0105844Y0001956D01*
X0105259Y0001729D01*
X0104641Y0001620D01*
X0104013Y0001633D01*
X0103400Y0001768D01*
X0102825Y0002019D01*
X0102310Y0002377D01*
X0101874Y0002829D01*
X0101534Y0003356D01*
X0101303Y0003940D01*
X0101190Y0004557D01*
X0101199Y0005184D01*
X0101329Y0005798D01*
X0101576Y0006375D01*
X0101931Y0006893D01*
X0102379Y0007332D01*
X0102904Y0007676D01*
X0103486Y0007911D01*
X0104103Y0008028D01*
X0104730Y0008024D01*
X0104730Y0008024D01*
G37*
G36*
X0125050Y0008024D02*
X0125665Y0007898D01*
X0126243Y0007655D01*
X0126764Y0007304D01*
X0127206Y0006858D01*
X0127553Y0006336D01*
X0127792Y0005755D01*
X0127914Y0005140D01*
X0127914Y0005140D01*
X0127914Y0005140D01*
X0127904Y0004423D01*
X0127904Y0004422D01*
X0127904Y0004422D01*
X0127765Y0003811D01*
X0127510Y0003238D01*
X0127148Y0002725D01*
X0126694Y0002292D01*
X0126164Y0001956D01*
X0125579Y0001729D01*
X0124961Y0001620D01*
X0124333Y0001633D01*
X0123720Y0001768D01*
X0123145Y0002019D01*
X0122630Y0002377D01*
X0122194Y0002829D01*
X0121854Y0003356D01*
X0121623Y0003940D01*
X0121510Y0004557D01*
X0121519Y0005184D01*
X0121649Y0005798D01*
X0121896Y0006375D01*
X0122251Y0006893D01*
X0122699Y0007332D01*
X0123224Y0007676D01*
X0123806Y0007911D01*
X0124423Y0008028D01*
X0125050Y0008024D01*
X0125050Y0008024D01*
G37*
G36*
X0124914Y0009960D02*
X0122990Y0009960D01*
X0122990Y0011884D01*
X0124914Y0011884D01*
X0124914Y0009960D01*
X0124914Y0009960D01*
G37*
G36*
X0127454Y0009960D02*
X0125530Y0009960D01*
X0125530Y0011884D01*
X0127454Y0011884D01*
X0127454Y0009960D01*
X0127454Y0009960D01*
G37*
G36*
X0106372Y0010214D02*
X0104448Y0010214D01*
X0104448Y0012138D01*
X0106372Y0012138D01*
X0106372Y0010214D01*
X0106372Y0010214D01*
G37*
G36*
X0103832Y0010214D02*
X0101908Y0010214D01*
X0101908Y0012138D01*
X0103832Y0012138D01*
X0103832Y0010214D01*
X0103832Y0010214D01*
G37*
G36*
X0124914Y0012500D02*
X0122990Y0012500D01*
X0122990Y0014424D01*
X0124914Y0014424D01*
X0124914Y0012500D01*
X0124914Y0012500D01*
G37*
G36*
X0127454Y0012500D02*
X0125530Y0012500D01*
X0125530Y0014424D01*
X0127454Y0014424D01*
X0127454Y0012500D01*
X0127454Y0012500D01*
G37*
G36*
X0103832Y0012754D02*
X0101908Y0012754D01*
X0101908Y0014678D01*
X0103832Y0014678D01*
X0103832Y0012754D01*
X0103832Y0012754D01*
G37*
G36*
X0106372Y0012754D02*
X0104448Y0012754D01*
X0104448Y0014678D01*
X0106372Y0014678D01*
X0106372Y0012754D01*
X0106372Y0012754D01*
G37*
G36*
X0124914Y0015040D02*
X0122990Y0015040D01*
X0122990Y0016964D01*
X0124914Y0016964D01*
X0124914Y0015040D01*
X0124914Y0015040D01*
G37*
G36*
X0127454Y0015040D02*
X0125530Y0015040D01*
X0125530Y0016964D01*
X0127454Y0016964D01*
X0127454Y0015040D01*
X0127454Y0015040D01*
G37*
G36*
X0103832Y0015294D02*
X0101908Y0015294D01*
X0101908Y0017218D01*
X0103832Y0017218D01*
X0103832Y0015294D01*
X0103832Y0015294D01*
G37*
G36*
X0106372Y0015294D02*
X0104448Y0015294D01*
X0104448Y0017218D01*
X0106372Y0017218D01*
X0106372Y0015294D01*
X0106372Y0015294D01*
G37*
G36*
X0124914Y0017580D02*
X0122990Y0017580D01*
X0122990Y0019504D01*
X0124914Y0019504D01*
X0124914Y0017580D01*
X0124914Y0017580D01*
G37*
G36*
X0127454Y0017580D02*
X0125530Y0017580D01*
X0125530Y0019504D01*
X0127454Y0019504D01*
X0127454Y0017580D01*
X0127454Y0017580D01*
G37*
G36*
X0106372Y0017834D02*
X0104448Y0017834D01*
X0104448Y0019758D01*
X0106372Y0019758D01*
X0106372Y0017834D01*
X0106372Y0017834D01*
G37*
G36*
X0103832Y0017834D02*
X0101908Y0017834D01*
X0101908Y0019758D01*
X0103832Y0019758D01*
X0103832Y0017834D01*
X0103832Y0017834D01*
G37*
G36*
X0119380Y0028702D02*
X0109220Y0028702D01*
X0109220Y0037846D01*
X0119380Y0037846D01*
X0119380Y0028702D01*
X0119380Y0028702D01*
G37*
G36*
X0125050Y0038504D02*
X0125665Y0038378D01*
X0126243Y0038135D01*
X0126764Y0037784D01*
X0127206Y0037338D01*
X0127553Y0036816D01*
X0127792Y0036235D01*
X0127914Y0035620D01*
X0127914Y0035620D01*
X0127914Y0035620D01*
X0127904Y0034903D01*
X0127904Y0034902D01*
X0127904Y0034902D01*
X0127765Y0034291D01*
X0127510Y0033718D01*
X0127148Y0033205D01*
X0126694Y0032772D01*
X0126164Y0032436D01*
X0125579Y0032209D01*
X0124961Y0032100D01*
X0124333Y0032113D01*
X0123720Y0032248D01*
X0123145Y0032499D01*
X0122630Y0032857D01*
X0122194Y0033309D01*
X0121854Y0033836D01*
X0121623Y0034420D01*
X0121510Y0035037D01*
X0121519Y0035664D01*
X0121649Y0036278D01*
X0121896Y0036855D01*
X0122251Y0037373D01*
X0122699Y0037812D01*
X0123224Y0038156D01*
X0123806Y0038391D01*
X0124423Y0038508D01*
X0125050Y0038504D01*
X0125050Y0038504D01*
G37*
G36*
X0104730Y0038504D02*
X0105345Y0038378D01*
X0105923Y0038135D01*
X0106444Y0037784D01*
X0106886Y0037338D01*
X0107233Y0036816D01*
X0107472Y0036235D01*
X0107594Y0035620D01*
X0107594Y0035620D01*
X0107594Y0035620D01*
X0107584Y0034903D01*
X0107584Y0034902D01*
X0107584Y0034902D01*
X0107445Y0034291D01*
X0107190Y0033718D01*
X0106828Y0033205D01*
X0106374Y0032772D01*
X0105844Y0032436D01*
X0105259Y0032209D01*
X0104641Y0032100D01*
X0104013Y0032113D01*
X0103400Y0032248D01*
X0102825Y0032499D01*
X0102310Y0032857D01*
X0101874Y0033309D01*
X0101534Y0033836D01*
X0101303Y0034420D01*
X0101190Y0035037D01*
X0101199Y0035664D01*
X0101329Y0036278D01*
X0101576Y0036855D01*
X0101931Y0037373D01*
X0102379Y0037812D01*
X0102904Y0038156D01*
X0103486Y0038391D01*
X0104103Y0038508D01*
X0104730Y0038504D01*
X0104730Y0038504D01*
G37*
X0129540Y0000000D02*
%LPD*%
G01*
D20*
G36*
X0134702Y0008024D02*
X0135317Y0007898D01*
X0135895Y0007655D01*
X0136416Y0007304D01*
X0136858Y0006858D01*
X0137205Y0006336D01*
X0137444Y0005755D01*
X0137566Y0005140D01*
X0137566Y0005140D01*
X0137566Y0005140D01*
X0137556Y0004423D01*
X0137556Y0004422D01*
X0137556Y0004422D01*
X0137417Y0003811D01*
X0137162Y0003238D01*
X0136800Y0002725D01*
X0136346Y0002292D01*
X0135816Y0001956D01*
X0135231Y0001729D01*
X0134613Y0001620D01*
X0133985Y0001633D01*
X0133372Y0001768D01*
X0132797Y0002019D01*
X0132282Y0002377D01*
X0131846Y0002829D01*
X0131506Y0003356D01*
X0131275Y0003940D01*
X0131162Y0004557D01*
X0131171Y0005184D01*
X0131301Y0005798D01*
X0131548Y0006375D01*
X0131903Y0006893D01*
X0132351Y0007332D01*
X0132876Y0007676D01*
X0133458Y0007911D01*
X0134075Y0008028D01*
X0134702Y0008024D01*
X0134702Y0008024D01*
G37*
G36*
X0155022Y0008024D02*
X0155637Y0007898D01*
X0156215Y0007655D01*
X0156736Y0007304D01*
X0157178Y0006858D01*
X0157525Y0006336D01*
X0157764Y0005755D01*
X0157886Y0005140D01*
X0157886Y0005140D01*
X0157886Y0005140D01*
X0157876Y0004423D01*
X0157876Y0004422D01*
X0157876Y0004422D01*
X0157737Y0003811D01*
X0157482Y0003238D01*
X0157120Y0002725D01*
X0156666Y0002292D01*
X0156136Y0001956D01*
X0155551Y0001729D01*
X0154933Y0001620D01*
X0154305Y0001633D01*
X0153692Y0001768D01*
X0153117Y0002019D01*
X0152602Y0002377D01*
X0152166Y0002829D01*
X0151826Y0003356D01*
X0151595Y0003940D01*
X0151482Y0004557D01*
X0151491Y0005184D01*
X0151621Y0005798D01*
X0151868Y0006375D01*
X0152223Y0006893D01*
X0152671Y0007332D01*
X0153196Y0007676D01*
X0153778Y0007911D01*
X0154395Y0008028D01*
X0155022Y0008024D01*
X0155022Y0008024D01*
G37*
G36*
X0145488Y0007420D02*
X0143564Y0007420D01*
X0143564Y0009344D01*
X0145488Y0009344D01*
X0145488Y0007420D01*
X0145488Y0007420D01*
G37*
G36*
X0142948Y0007420D02*
X0141024Y0007420D01*
X0141024Y0009344D01*
X0142948Y0009344D01*
X0142948Y0007420D01*
X0142948Y0007420D01*
G37*
G36*
X0140408Y0007420D02*
X0138484Y0007420D01*
X0138484Y0009344D01*
X0140408Y0009344D01*
X0140408Y0007420D01*
X0140408Y0007420D01*
G37*
G36*
X0148028Y0007420D02*
X0146104Y0007420D01*
X0146104Y0009344D01*
X0148028Y0009344D01*
X0148028Y0007420D01*
X0148028Y0007420D01*
G37*
G36*
X0150568Y0007420D02*
X0148644Y0007420D01*
X0148644Y0009344D01*
X0150568Y0009344D01*
X0150568Y0007420D01*
X0150568Y0007420D01*
G37*
G36*
X0148028Y0009960D02*
X0146104Y0009960D01*
X0146104Y0011884D01*
X0148028Y0011884D01*
X0148028Y0009960D01*
X0148028Y0009960D01*
G37*
G36*
X0145488Y0009960D02*
X0143564Y0009960D01*
X0143564Y0011884D01*
X0145488Y0011884D01*
X0145488Y0009960D01*
X0145488Y0009960D01*
G37*
G36*
X0142948Y0009960D02*
X0141024Y0009960D01*
X0141024Y0011884D01*
X0142948Y0011884D01*
X0142948Y0009960D01*
X0142948Y0009960D01*
G37*
G36*
X0140408Y0009960D02*
X0138484Y0009960D01*
X0138484Y0011884D01*
X0140408Y0011884D01*
X0140408Y0009960D01*
X0140408Y0009960D01*
G37*
G36*
X0150568Y0009960D02*
X0148644Y0009960D01*
X0148644Y0011884D01*
X0150568Y0011884D01*
X0150568Y0009960D01*
X0150568Y0009960D01*
G37*
G36*
X0146289Y0020262D02*
X0146376Y0020244D01*
X0146457Y0020210D01*
X0146530Y0020160D01*
X0146592Y0020098D01*
X0146641Y0020024D01*
X0146675Y0019943D01*
X0146692Y0019857D01*
X0146692Y0019857D01*
X0146692Y0019856D01*
X0146691Y0019755D01*
X0146690Y0019755D01*
X0146690Y0019755D01*
X0146671Y0019669D01*
X0146635Y0019589D01*
X0146584Y0019517D01*
X0146520Y0019456D01*
X0146446Y0019408D01*
X0146364Y0019376D01*
X0146277Y0019361D01*
X0146188Y0019363D01*
X0146102Y0019382D01*
X0146021Y0019417D01*
X0145949Y0019468D01*
X0145932Y0019477D01*
X0145913Y0019483D01*
X0145894Y0019486D01*
X0145874Y0019484D01*
X0145855Y0019479D01*
X0145838Y0019470D01*
X0145823Y0019458D01*
X0145820Y0019456D01*
X0145746Y0019408D01*
X0145664Y0019376D01*
X0145577Y0019361D01*
X0145488Y0019363D01*
X0145402Y0019382D01*
X0145321Y0019417D01*
X0145249Y0019468D01*
X0145232Y0019477D01*
X0145213Y0019483D01*
X0145194Y0019486D01*
X0145174Y0019484D01*
X0145155Y0019479D01*
X0145138Y0019470D01*
X0145123Y0019458D01*
X0145120Y0019456D01*
X0145046Y0019408D01*
X0144964Y0019376D01*
X0144877Y0019361D01*
X0144788Y0019363D01*
X0144702Y0019382D01*
X0144621Y0019417D01*
X0144549Y0019468D01*
X0144488Y0019531D01*
X0144440Y0019605D01*
X0144407Y0019687D01*
X0144391Y0019774D01*
X0144393Y0019862D01*
X0144411Y0019949D01*
X0144446Y0020030D01*
X0144496Y0020103D01*
X0144559Y0020164D01*
X0144633Y0020213D01*
X0144714Y0020246D01*
X0144801Y0020262D01*
X0144889Y0020262D01*
X0144976Y0020244D01*
X0145057Y0020210D01*
X0145136Y0020156D01*
X0145154Y0020147D01*
X0145172Y0020141D01*
X0145192Y0020139D01*
X0145211Y0020141D01*
X0145230Y0020147D01*
X0145247Y0020156D01*
X0145255Y0020162D01*
X0145333Y0020213D01*
X0145414Y0020246D01*
X0145501Y0020262D01*
X0145589Y0020262D01*
X0145676Y0020244D01*
X0145757Y0020210D01*
X0145836Y0020156D01*
X0145854Y0020147D01*
X0145872Y0020141D01*
X0145892Y0020139D01*
X0145911Y0020141D01*
X0145930Y0020147D01*
X0145947Y0020156D01*
X0145955Y0020162D01*
X0146033Y0020213D01*
X0146114Y0020246D01*
X0146201Y0020262D01*
X0146289Y0020262D01*
X0146289Y0020262D01*
G37*
G36*
X0136598Y0022406D02*
X0134674Y0022406D01*
X0134674Y0024330D01*
X0136598Y0024330D01*
X0136598Y0022406D01*
X0136598Y0022406D01*
G37*
G36*
X0134058Y0022406D02*
X0132134Y0022406D01*
X0132134Y0024330D01*
X0134058Y0024330D01*
X0134058Y0022406D01*
X0134058Y0022406D01*
G37*
G36*
X0134058Y0024946D02*
X0132134Y0024946D01*
X0132134Y0026870D01*
X0134058Y0026870D01*
X0134058Y0024946D01*
X0134058Y0024946D01*
G37*
G36*
X0136598Y0024946D02*
X0134674Y0024946D01*
X0134674Y0026870D01*
X0136598Y0026870D01*
X0136598Y0024946D01*
X0136598Y0024946D01*
G37*
G36*
X0136598Y0027486D02*
X0134674Y0027486D01*
X0134674Y0029410D01*
X0136598Y0029410D01*
X0136598Y0027486D01*
X0136598Y0027486D01*
G37*
G36*
X0134058Y0027486D02*
X0132134Y0027486D01*
X0132134Y0029410D01*
X0134058Y0029410D01*
X0134058Y0027486D01*
X0134058Y0027486D01*
G37*
G36*
X0134702Y0038504D02*
X0135317Y0038378D01*
X0135895Y0038135D01*
X0136416Y0037784D01*
X0136858Y0037338D01*
X0137205Y0036816D01*
X0137444Y0036235D01*
X0137566Y0035620D01*
X0137566Y0035620D01*
X0137566Y0035620D01*
X0137556Y0034903D01*
X0137556Y0034902D01*
X0137556Y0034902D01*
X0137417Y0034291D01*
X0137162Y0033718D01*
X0136800Y0033205D01*
X0136346Y0032772D01*
X0135816Y0032436D01*
X0135231Y0032209D01*
X0134613Y0032100D01*
X0133985Y0032113D01*
X0133372Y0032248D01*
X0132797Y0032499D01*
X0132282Y0032857D01*
X0131846Y0033309D01*
X0131506Y0033836D01*
X0131275Y0034420D01*
X0131162Y0035037D01*
X0131171Y0035664D01*
X0131301Y0036278D01*
X0131548Y0036855D01*
X0131903Y0037373D01*
X0132351Y0037812D01*
X0132876Y0038156D01*
X0133458Y0038391D01*
X0134075Y0038508D01*
X0134702Y0038504D01*
X0134702Y0038504D01*
G37*
G36*
X0155022Y0038504D02*
X0155637Y0038378D01*
X0156215Y0038135D01*
X0156736Y0037784D01*
X0157178Y0037338D01*
X0157525Y0036816D01*
X0157764Y0036235D01*
X0157886Y0035620D01*
X0157886Y0035620D01*
X0157886Y0035620D01*
X0157876Y0034903D01*
X0157876Y0034902D01*
X0157876Y0034902D01*
X0157737Y0034291D01*
X0157482Y0033718D01*
X0157120Y0033205D01*
X0156666Y0032772D01*
X0156136Y0032436D01*
X0155551Y0032209D01*
X0154933Y0032100D01*
X0154305Y0032113D01*
X0153692Y0032248D01*
X0153117Y0032499D01*
X0152602Y0032857D01*
X0152166Y0033309D01*
X0151826Y0033836D01*
X0151595Y0034420D01*
X0151482Y0035037D01*
X0151491Y0035664D01*
X0151621Y0036278D01*
X0151868Y0036855D01*
X0152223Y0037373D01*
X0152671Y0037812D01*
X0153196Y0038156D01*
X0153778Y0038391D01*
X0154395Y0038508D01*
X0155022Y0038504D01*
X0155022Y0038504D01*
G37*
G36*
X0145488Y0033074D02*
X0143564Y0033074D01*
X0143564Y0034998D01*
X0145488Y0034998D01*
X0145488Y0033074D01*
X0145488Y0033074D01*
G37*
G36*
X0148028Y0033074D02*
X0146104Y0033074D01*
X0146104Y0034998D01*
X0148028Y0034998D01*
X0148028Y0033074D01*
X0148028Y0033074D01*
G37*
G36*
X0142948Y0033074D02*
X0141024Y0033074D01*
X0141024Y0034998D01*
X0142948Y0034998D01*
X0142948Y0033074D01*
X0142948Y0033074D01*
G37*
G36*
X0148028Y0035614D02*
X0146104Y0035614D01*
X0146104Y0037538D01*
X0148028Y0037538D01*
X0148028Y0035614D01*
X0148028Y0035614D01*
G37*
G36*
X0145488Y0035614D02*
X0143564Y0035614D01*
X0143564Y0037538D01*
X0145488Y0037538D01*
X0145488Y0035614D01*
X0145488Y0035614D01*
G37*
G36*
X0142948Y0035614D02*
X0141024Y0035614D01*
X0141024Y0037538D01*
X0142948Y0037538D01*
X0142948Y0035614D01*
X0142948Y0035614D01*
G37*
M02*
