G75*
G71*
%MOMM*%
%OFA0B0*%
%FSLAX53Y53*%
%IPPOS*%
%LPD*%
%ADD10R,1.30000X1.30000*%
%ADD11C,0.40000*%
%ADD16C,0.20000*%
%ADD17C,0.60000*%
%ADD18C,0.25400*%
%ADD19C,0.50000*%
%ADD23R,1.52400X1.52400*%
%ADD27R,1.50000X1.05000*%
%ADD31C,1.30000*%
%ADD32C,0.80000*%
%ADD33C,1.45000*%
%ADD35R,3.81000X3.81000*%
%ADD38C,1.90000*%
%ADD39C,0.15000*%
%ADD40C,0.25000*%
%ADD44C,0.70000*%
%ADD47C,6.00000*%
X0000000Y0000000D02*
G01*
D19*
D39*
X0028176Y0012215D02*
X0028481Y0012535D01*
X0028191Y0012253D02*
X0027920Y0012527D01*
X0027920Y0012223D02*
X0028489Y0012217D01*
D23*
X0008446Y0014478D03*
X0008446Y0017018D03*
X0010986Y0014478D03*
X0010986Y0017018D03*
X0013526Y0014478D03*
X0013526Y0017018D03*
X0020066Y0017018D03*
X0017526Y0017018D03*
D33*
X0004859Y0007500D03*
X0004859Y0012500D03*
D38*
X0002159Y0013500D03*
X0002159Y0006500D03*
D27*
X0026670Y0008000D03*
X0026670Y0012000D03*
D32*
X0025273Y0006223D03*
X0024956Y0012002D03*
D19*
X0026670Y0008000D02*
X0026670Y0007620D01*
X0026670Y0007620D02*
X0025273Y0006223D01*
D44*
X0024956Y0012002D02*
X0026669Y0012002D01*
X0026669Y0012002D02*
X0026670Y0012000D01*
X0026607Y0012064D02*
X0026670Y0012000D01*
D40*
G36*
X0029475Y0000525D02*
X0000525Y0000525D01*
X0000525Y0011838D01*
X0024130Y0011838D01*
X0024256Y0011535D01*
X0024488Y0011303D01*
X0024791Y0011177D01*
X0025119Y0011176D01*
X0025240Y0011227D01*
X0025386Y0011227D01*
X0025166Y0011007D01*
X0024895Y0010355D01*
X0024895Y0009648D01*
X0025164Y0008996D01*
X0025512Y0008648D01*
X0025487Y0008525D01*
X0025487Y0007475D01*
X0025500Y0007405D01*
X0025144Y0007048D01*
X0025110Y0007048D01*
X0024806Y0006923D01*
X0024574Y0006691D01*
X0024448Y0006388D01*
X0024448Y0006060D01*
X0024573Y0005756D01*
X0024805Y0005524D01*
X0025108Y0005398D01*
X0025436Y0005398D01*
X0025740Y0005523D01*
X0025972Y0005755D01*
X0026098Y0006058D01*
X0026098Y0006093D01*
X0027046Y0007042D01*
X0027420Y0007042D01*
X0027577Y0007071D01*
X0027722Y0007164D01*
X0027819Y0007306D01*
X0027853Y0007475D01*
X0027853Y0008525D01*
X0027830Y0008650D01*
X0028174Y0008993D01*
X0028445Y0009645D01*
X0028445Y0010352D01*
X0028176Y0011004D01*
X0027828Y0011352D01*
X0027853Y0011475D01*
X0027853Y0011735D01*
X0027915Y0011723D01*
X0028158Y0011720D01*
X0028188Y0011715D01*
X0028210Y0011720D01*
X0028484Y0011717D01*
X0028676Y0011754D01*
X0028839Y0011861D01*
X0028949Y0012022D01*
X0028989Y0012213D01*
X0028954Y0012394D01*
X0028981Y0012547D01*
X0028938Y0012737D01*
X0028826Y0012897D01*
X0028661Y0013001D01*
X0028469Y0013035D01*
X0028278Y0012992D01*
X0028195Y0012933D01*
X0028113Y0012988D01*
X0027922Y0013027D01*
X0027730Y0012990D01*
X0027609Y0012910D01*
X0027589Y0012924D01*
X0027420Y0012958D01*
X0025920Y0012958D01*
X0025763Y0012929D01*
X0025618Y0012836D01*
X0025577Y0012777D01*
X0025240Y0012777D01*
X0025120Y0012826D01*
X0024792Y0012827D01*
X0024489Y0012701D01*
X0024257Y0012469D01*
X0024131Y0012166D01*
X0024130Y0011838D01*
X0000525Y0011838D01*
X0000525Y0015240D01*
X0009790Y0015240D01*
X0009790Y0013716D01*
X0009820Y0013559D01*
X0009913Y0013414D01*
X0010055Y0013317D01*
X0010224Y0013283D01*
X0011748Y0013283D01*
X0011905Y0013312D01*
X0012050Y0013405D01*
X0012147Y0013547D01*
X0012181Y0013716D01*
X0012181Y0015240D01*
X0012151Y0015397D01*
X0012058Y0015542D01*
X0011916Y0015639D01*
X0011748Y0015673D01*
X0010224Y0015673D01*
X0010066Y0015644D01*
X0009921Y0015551D01*
X0009824Y0015409D01*
X0009790Y0015240D01*
X0000525Y0015240D01*
X0000525Y0017780D01*
X0009790Y0017780D01*
X0009790Y0016256D01*
X0009820Y0016099D01*
X0009913Y0015954D01*
X0010055Y0015857D01*
X0010224Y0015823D01*
X0011748Y0015823D01*
X0011905Y0015852D01*
X0012050Y0015945D01*
X0012147Y0016087D01*
X0012181Y0016256D01*
X0012181Y0017780D01*
X0018871Y0017780D01*
X0018871Y0016256D01*
X0018900Y0016099D01*
X0018993Y0015954D01*
X0019135Y0015857D01*
X0019304Y0015823D01*
X0020828Y0015823D01*
X0020985Y0015852D01*
X0021130Y0015945D01*
X0021227Y0016087D01*
X0021261Y0016256D01*
X0021261Y0017780D01*
X0021232Y0017937D01*
X0021139Y0018082D01*
X0020997Y0018179D01*
X0020828Y0018213D01*
X0019304Y0018213D01*
X0019147Y0018184D01*
X0019002Y0018091D01*
X0018905Y0017949D01*
X0018871Y0017780D01*
X0012181Y0017780D01*
X0012151Y0017937D01*
X0012058Y0018082D01*
X0011916Y0018179D01*
X0011748Y0018213D01*
X0010224Y0018213D01*
X0010066Y0018184D01*
X0009921Y0018091D01*
X0009824Y0017949D01*
X0009790Y0017780D01*
X0000525Y0017780D01*
X0000525Y0019475D01*
X0029475Y0019475D01*
X0029475Y0000525D01*
X0029475Y0000525D01*
G37*
X0029475Y0000525D02*
X0000525Y0000525D01*
X0000525Y0011838D01*
X0024130Y0011838D01*
X0024256Y0011535D01*
X0024488Y0011303D01*
X0024791Y0011177D01*
X0025119Y0011176D01*
X0025240Y0011227D01*
X0025386Y0011227D01*
X0025166Y0011007D01*
X0024895Y0010355D01*
X0024895Y0009648D01*
X0025164Y0008996D01*
X0025512Y0008648D01*
X0025487Y0008525D01*
X0025487Y0007475D01*
X0025500Y0007405D01*
X0025144Y0007048D01*
X0025110Y0007048D01*
X0024806Y0006923D01*
X0024574Y0006691D01*
X0024448Y0006388D01*
X0024448Y0006060D01*
X0024573Y0005756D01*
X0024805Y0005524D01*
X0025108Y0005398D01*
X0025436Y0005398D01*
X0025740Y0005523D01*
X0025972Y0005755D01*
X0026098Y0006058D01*
X0026098Y0006093D01*
X0027046Y0007042D01*
X0027420Y0007042D01*
X0027577Y0007071D01*
X0027722Y0007164D01*
X0027819Y0007306D01*
X0027853Y0007475D01*
X0027853Y0008525D01*
X0027830Y0008650D01*
X0028174Y0008993D01*
X0028445Y0009645D01*
X0028445Y0010352D01*
X0028176Y0011004D01*
X0027828Y0011352D01*
X0027853Y0011475D01*
X0027853Y0011735D01*
X0027915Y0011723D01*
X0028158Y0011720D01*
X0028188Y0011715D01*
X0028210Y0011720D01*
X0028484Y0011717D01*
X0028676Y0011754D01*
X0028839Y0011861D01*
X0028949Y0012022D01*
X0028989Y0012213D01*
X0028954Y0012394D01*
X0028981Y0012547D01*
X0028938Y0012737D01*
X0028826Y0012897D01*
X0028661Y0013001D01*
X0028469Y0013035D01*
X0028278Y0012992D01*
X0028195Y0012933D01*
X0028113Y0012988D01*
X0027922Y0013027D01*
X0027730Y0012990D01*
X0027609Y0012910D01*
X0027589Y0012924D01*
X0027420Y0012958D01*
X0025920Y0012958D01*
X0025763Y0012929D01*
X0025618Y0012836D01*
X0025577Y0012777D01*
X0025240Y0012777D01*
X0025120Y0012826D01*
X0024792Y0012827D01*
X0024489Y0012701D01*
X0024257Y0012469D01*
X0024131Y0012166D01*
X0024130Y0011838D01*
X0000525Y0011838D01*
X0000525Y0015240D01*
X0009790Y0015240D01*
X0009790Y0013716D01*
X0009820Y0013559D01*
X0009913Y0013414D01*
X0010055Y0013317D01*
X0010224Y0013283D01*
X0011748Y0013283D01*
X0011905Y0013312D01*
X0012050Y0013405D01*
X0012147Y0013547D01*
X0012181Y0013716D01*
X0012181Y0015240D01*
X0012151Y0015397D01*
X0012058Y0015542D01*
X0011916Y0015639D01*
X0011748Y0015673D01*
X0010224Y0015673D01*
X0010066Y0015644D01*
X0009921Y0015551D01*
X0009824Y0015409D01*
X0009790Y0015240D01*
X0000525Y0015240D01*
X0000525Y0017780D01*
X0009790Y0017780D01*
X0009790Y0016256D01*
X0009820Y0016099D01*
X0009913Y0015954D01*
X0010055Y0015857D01*
X0010224Y0015823D01*
X0011748Y0015823D01*
X0011905Y0015852D01*
X0012050Y0015945D01*
X0012147Y0016087D01*
X0012181Y0016256D01*
X0012181Y0017780D01*
X0018871Y0017780D01*
X0018871Y0016256D01*
X0018900Y0016099D01*
X0018993Y0015954D01*
X0019135Y0015857D01*
X0019304Y0015823D01*
X0020828Y0015823D01*
X0020985Y0015852D01*
X0021130Y0015945D01*
X0021227Y0016087D01*
X0021261Y0016256D01*
X0021261Y0017780D01*
X0021232Y0017937D01*
X0021139Y0018082D01*
X0020997Y0018179D01*
X0020828Y0018213D01*
X0019304Y0018213D01*
X0019147Y0018184D01*
X0019002Y0018091D01*
X0018905Y0017949D01*
X0018871Y0017780D01*
X0012181Y0017780D01*
X0012151Y0017937D01*
X0012058Y0018082D01*
X0011916Y0018179D01*
X0011748Y0018213D01*
X0010224Y0018213D01*
X0010066Y0018184D01*
X0009921Y0018091D01*
X0009824Y0017949D01*
X0009790Y0017780D01*
X0000525Y0017780D01*
X0000525Y0019475D01*
X0029475Y0019475D01*
X0029475Y0000525D01*
X0000000Y0020000D02*
G01*
D19*
D23*
X0013271Y0022604D03*
X0010731Y0022604D03*
X0013271Y0025144D03*
X0010731Y0025144D03*
X0013271Y0027684D03*
X0010731Y0027684D03*
X0018859Y0031938D03*
X0018859Y0034478D03*
X0021399Y0031938D03*
X0021399Y0034478D03*
X0023939Y0031938D03*
X0023939Y0034478D03*
X0026479Y0031938D03*
X0026479Y0034478D03*
X0029019Y0031938D03*
X0029019Y0034478D03*
X0018859Y0026858D03*
X0018859Y0029398D03*
X0021399Y0026858D03*
X0021399Y0029398D03*
X0023939Y0026858D03*
X0023939Y0029398D03*
X0026479Y0026858D03*
X0026479Y0029398D03*
X0029019Y0026858D03*
X0029019Y0029398D03*
X0018859Y0021778D03*
X0018859Y0024318D03*
X0021399Y0021778D03*
X0021399Y0024318D03*
X0023939Y0021778D03*
X0023939Y0024318D03*
X0026479Y0021778D03*
X0026479Y0024318D03*
X0029019Y0021778D03*
X0029019Y0024318D03*
X0012255Y0037717D03*
X0012255Y0035177D03*
X0014795Y0037717D03*
X0014795Y0035177D03*
D47*
X0004826Y0024826D03*
X0004826Y0034986D03*
X0035306Y0034986D03*
X0035306Y0024826D03*
D32*
X0022606Y0036701D03*
X0016700Y0031240D03*
X0016700Y0031240D03*
X0020002Y0037780D03*
D17*
X0017272Y0036637D02*
X0022542Y0036637D01*
X0022542Y0036637D02*
X0022606Y0036701D01*
X0016700Y0034743D02*
X0016700Y0036066D01*
X0016700Y0036066D02*
X0017272Y0036637D01*
X0016700Y0031240D02*
X0016700Y0034743D01*
X0016700Y0031240D02*
X0016700Y0027211D01*
X0016700Y0027211D02*
X0014633Y0025144D01*
X0014633Y0025144D02*
X0013271Y0025144D01*
X0020002Y0037780D02*
X0014859Y0037780D01*
X0014859Y0037780D02*
X0014795Y0037717D01*
X0014859Y0037653D02*
X0014795Y0037717D01*
X0012255Y0037717D02*
X0012255Y0039079D01*
X0012255Y0039079D02*
X0012417Y0039241D01*
X0023079Y0039241D02*
X0026479Y0035840D01*
X0012417Y0039241D02*
X0023079Y0039241D01*
X0026479Y0035840D02*
X0026479Y0034478D01*
D18*
G36*
X0039422Y0039102D02*
X0039422Y0020710D01*
X0027801Y0020710D01*
X0027838Y0020764D01*
X0027889Y0021016D01*
X0027889Y0022540D01*
X0027845Y0022775D01*
X0027706Y0022991D01*
X0027624Y0023047D01*
X0027693Y0023092D01*
X0027838Y0023304D01*
X0027889Y0023556D01*
X0027889Y0025080D01*
X0027845Y0025315D01*
X0027706Y0025531D01*
X0027624Y0025587D01*
X0027693Y0025632D01*
X0027838Y0025844D01*
X0027889Y0026096D01*
X0027889Y0027620D01*
X0027845Y0027855D01*
X0027706Y0028071D01*
X0027624Y0028127D01*
X0027693Y0028172D01*
X0027838Y0028384D01*
X0027889Y0028636D01*
X0027889Y0030160D01*
X0027845Y0030395D01*
X0027706Y0030611D01*
X0027624Y0030667D01*
X0027693Y0030712D01*
X0027838Y0030924D01*
X0027889Y0031176D01*
X0027889Y0032700D01*
X0027845Y0032935D01*
X0027706Y0033151D01*
X0027624Y0033207D01*
X0027693Y0033252D01*
X0027838Y0033464D01*
X0027889Y0033716D01*
X0027889Y0035240D01*
X0027845Y0035475D01*
X0027706Y0035691D01*
X0027493Y0035836D01*
X0027412Y0035853D01*
X0027343Y0036198D01*
X0027141Y0036501D01*
X0024540Y0039102D01*
X0039422Y0039102D01*
X0039422Y0039102D01*
G37*
X0039422Y0039102D02*
X0039422Y0020710D01*
X0027801Y0020710D01*
X0027838Y0020764D01*
X0027889Y0021016D01*
X0027889Y0022540D01*
X0027845Y0022775D01*
X0027706Y0022991D01*
X0027624Y0023047D01*
X0027693Y0023092D01*
X0027838Y0023304D01*
X0027889Y0023556D01*
X0027889Y0025080D01*
X0027845Y0025315D01*
X0027706Y0025531D01*
X0027624Y0025587D01*
X0027693Y0025632D01*
X0027838Y0025844D01*
X0027889Y0026096D01*
X0027889Y0027620D01*
X0027845Y0027855D01*
X0027706Y0028071D01*
X0027624Y0028127D01*
X0027693Y0028172D01*
X0027838Y0028384D01*
X0027889Y0028636D01*
X0027889Y0030160D01*
X0027845Y0030395D01*
X0027706Y0030611D01*
X0027624Y0030667D01*
X0027693Y0030712D01*
X0027838Y0030924D01*
X0027889Y0031176D01*
X0027889Y0032700D01*
X0027845Y0032935D01*
X0027706Y0033151D01*
X0027624Y0033207D01*
X0027693Y0033252D01*
X0027838Y0033464D01*
X0027889Y0033716D01*
X0027889Y0035240D01*
X0027845Y0035475D01*
X0027706Y0035691D01*
X0027493Y0035836D01*
X0027412Y0035853D01*
X0027343Y0036198D01*
X0027141Y0036501D01*
X0024540Y0039102D01*
X0039422Y0039102D01*
G36*
X0011325Y0039102D02*
X0011324Y0039094D01*
X0011258Y0039082D01*
X0011042Y0038943D01*
X0010897Y0038730D01*
X0010846Y0038479D01*
X0010846Y0036955D01*
X0010890Y0036719D01*
X0011029Y0036503D01*
X0011111Y0036447D01*
X0011042Y0036403D01*
X0010897Y0036190D01*
X0010846Y0035939D01*
X0010846Y0034415D01*
X0010890Y0034179D01*
X0011029Y0033963D01*
X0011242Y0033818D01*
X0011493Y0033767D01*
X0013017Y0033767D01*
X0013253Y0033811D01*
X0013469Y0033950D01*
X0013525Y0034032D01*
X0013569Y0033963D01*
X0013782Y0033818D01*
X0014033Y0033767D01*
X0015557Y0033767D01*
X0015765Y0033806D01*
X0015765Y0031687D01*
X0015666Y0031446D01*
X0015665Y0031035D01*
X0015765Y0030792D01*
X0015765Y0027598D01*
X0014508Y0026340D01*
X0014498Y0026357D01*
X0014285Y0026502D01*
X0014033Y0026553D01*
X0012509Y0026553D01*
X0012274Y0026509D01*
X0012058Y0026370D01*
X0012002Y0026288D01*
X0011958Y0026357D01*
X0011745Y0026502D01*
X0011493Y0026553D01*
X0009969Y0026553D01*
X0009734Y0026509D01*
X0009518Y0026370D01*
X0009373Y0026157D01*
X0009322Y0025906D01*
X0009322Y0024382D01*
X0009366Y0024146D01*
X0009505Y0023930D01*
X0009718Y0023785D01*
X0009969Y0023734D01*
X0011493Y0023734D01*
X0011729Y0023778D01*
X0011945Y0023917D01*
X0012001Y0023999D01*
X0012045Y0023930D01*
X0012258Y0023785D01*
X0012509Y0023734D01*
X0014033Y0023734D01*
X0014269Y0023778D01*
X0014485Y0023917D01*
X0014630Y0024130D01*
X0014646Y0024211D01*
X0014991Y0024280D01*
X0015295Y0024482D01*
X0017362Y0026549D01*
X0017564Y0026853D01*
X0017635Y0027211D01*
X0017635Y0030792D01*
X0017735Y0031033D01*
X0017736Y0031444D01*
X0017635Y0031687D01*
X0017635Y0035678D01*
X0017659Y0035702D01*
X0020185Y0035702D01*
X0020041Y0035492D01*
X0019990Y0035240D01*
X0019990Y0033716D01*
X0020034Y0033481D01*
X0020173Y0033265D01*
X0020255Y0033209D01*
X0020186Y0033164D01*
X0020041Y0032952D01*
X0019990Y0032700D01*
X0019990Y0031176D01*
X0020034Y0030941D01*
X0020173Y0030725D01*
X0020255Y0030669D01*
X0020186Y0030624D01*
X0020041Y0030412D01*
X0019990Y0030160D01*
X0019990Y0028636D01*
X0020034Y0028401D01*
X0020173Y0028185D01*
X0020255Y0028129D01*
X0020186Y0028084D01*
X0020041Y0027872D01*
X0019990Y0027620D01*
X0019990Y0026096D01*
X0020034Y0025861D01*
X0020173Y0025645D01*
X0020255Y0025589D01*
X0020186Y0025544D01*
X0020041Y0025332D01*
X0019990Y0025080D01*
X0019990Y0023556D01*
X0020034Y0023321D01*
X0020173Y0023105D01*
X0020255Y0023049D01*
X0020186Y0023004D01*
X0020041Y0022792D01*
X0019990Y0022540D01*
X0019990Y0021016D01*
X0020034Y0020781D01*
X0020080Y0020710D01*
X0000710Y0020710D01*
X0000710Y0039102D01*
X0011325Y0039102D01*
X0011325Y0039102D01*
G37*
X0011325Y0039102D02*
X0011324Y0039094D01*
X0011258Y0039082D01*
X0011042Y0038943D01*
X0010897Y0038730D01*
X0010846Y0038479D01*
X0010846Y0036955D01*
X0010890Y0036719D01*
X0011029Y0036503D01*
X0011111Y0036447D01*
X0011042Y0036403D01*
X0010897Y0036190D01*
X0010846Y0035939D01*
X0010846Y0034415D01*
X0010890Y0034179D01*
X0011029Y0033963D01*
X0011242Y0033818D01*
X0011493Y0033767D01*
X0013017Y0033767D01*
X0013253Y0033811D01*
X0013469Y0033950D01*
X0013525Y0034032D01*
X0013569Y0033963D01*
X0013782Y0033818D01*
X0014033Y0033767D01*
X0015557Y0033767D01*
X0015765Y0033806D01*
X0015765Y0031687D01*
X0015666Y0031446D01*
X0015665Y0031035D01*
X0015765Y0030792D01*
X0015765Y0027598D01*
X0014508Y0026340D01*
X0014498Y0026357D01*
X0014285Y0026502D01*
X0014033Y0026553D01*
X0012509Y0026553D01*
X0012274Y0026509D01*
X0012058Y0026370D01*
X0012002Y0026288D01*
X0011958Y0026357D01*
X0011745Y0026502D01*
X0011493Y0026553D01*
X0009969Y0026553D01*
X0009734Y0026509D01*
X0009518Y0026370D01*
X0009373Y0026157D01*
X0009322Y0025906D01*
X0009322Y0024382D01*
X0009366Y0024146D01*
X0009505Y0023930D01*
X0009718Y0023785D01*
X0009969Y0023734D01*
X0011493Y0023734D01*
X0011729Y0023778D01*
X0011945Y0023917D01*
X0012001Y0023999D01*
X0012045Y0023930D01*
X0012258Y0023785D01*
X0012509Y0023734D01*
X0014033Y0023734D01*
X0014269Y0023778D01*
X0014485Y0023917D01*
X0014630Y0024130D01*
X0014646Y0024211D01*
X0014991Y0024280D01*
X0015295Y0024482D01*
X0017362Y0026549D01*
X0017564Y0026853D01*
X0017635Y0027211D01*
X0017635Y0030792D01*
X0017735Y0031033D01*
X0017736Y0031444D01*
X0017635Y0031687D01*
X0017635Y0035678D01*
X0017659Y0035702D01*
X0020185Y0035702D01*
X0020041Y0035492D01*
X0019990Y0035240D01*
X0019990Y0033716D01*
X0020034Y0033481D01*
X0020173Y0033265D01*
X0020255Y0033209D01*
X0020186Y0033164D01*
X0020041Y0032952D01*
X0019990Y0032700D01*
X0019990Y0031176D01*
X0020034Y0030941D01*
X0020173Y0030725D01*
X0020255Y0030669D01*
X0020186Y0030624D01*
X0020041Y0030412D01*
X0019990Y0030160D01*
X0019990Y0028636D01*
X0020034Y0028401D01*
X0020173Y0028185D01*
X0020255Y0028129D01*
X0020186Y0028084D01*
X0020041Y0027872D01*
X0019990Y0027620D01*
X0019990Y0026096D01*
X0020034Y0025861D01*
X0020173Y0025645D01*
X0020255Y0025589D01*
X0020186Y0025544D01*
X0020041Y0025332D01*
X0019990Y0025080D01*
X0019990Y0023556D01*
X0020034Y0023321D01*
X0020173Y0023105D01*
X0020255Y0023049D01*
X0020186Y0023004D01*
X0020041Y0022792D01*
X0019990Y0022540D01*
X0019990Y0021016D01*
X0020034Y0020781D01*
X0020080Y0020710D01*
X0000710Y0020710D01*
X0000710Y0039102D01*
X0011325Y0039102D01*
X0000000Y0039810D02*
G01*
D19*
D35*
X0004906Y0052637D03*
X0009906Y0052637D03*
D47*
X0004826Y0075116D03*
X0035306Y0075116D03*
X0035306Y0044636D03*
X0004826Y0044636D03*
D23*
X0014859Y0044128D03*
X0014859Y0046668D03*
X0012319Y0044128D03*
X0012319Y0046668D03*
D35*
X0004906Y0057590D03*
X0009906Y0057590D03*
D23*
X0017399Y0044128D03*
X0022479Y0046668D03*
X0022479Y0044128D03*
X0022479Y0041588D03*
X0017399Y0046668D03*
X0019939Y0046668D03*
X0019939Y0044128D03*
X0028956Y0046160D03*
X0026416Y0046160D03*
X0028956Y0048700D03*
X0026416Y0048700D03*
X0028956Y0051240D03*
X0026416Y0051240D03*
X0005969Y0063686D03*
X0003429Y0063686D03*
X0005969Y0066226D03*
X0003429Y0066226D03*
X0005969Y0068766D03*
X0003429Y0068766D03*
D10*
X0013145Y0070735D03*
D31*
X0020645Y0070735D03*
D10*
X0027940Y0062226D03*
D31*
X0035440Y0062226D03*
D32*
X0034608Y0056892D03*
X0033147Y0056955D03*
X0031750Y0057019D03*
X0033465Y0062353D03*
X0034417Y0064131D03*
X0036132Y0064131D03*
X0037211Y0063115D03*
X0037148Y0061464D03*
X0035941Y0060511D03*
X0034290Y0060638D03*
X0012538Y0062173D03*
X0030226Y0054288D03*
X0023114Y0053526D03*
X0025019Y0050859D03*
X0023876Y0050859D03*
X0022987Y0051748D03*
X0022098Y0052637D03*
X0021209Y0053526D03*
X0024765Y0062797D03*
X0022479Y0062797D03*
X0024257Y0068258D03*
X0018034Y0067496D03*
X0019050Y0067369D03*
X0019050Y0065337D03*
X0018034Y0064448D03*
X0019088Y0051786D03*
X0005969Y0070417D03*
X0003429Y0070417D03*
X0003429Y0061908D03*
X0005969Y0061908D03*
X0018923Y0058098D03*
X0019177Y0059114D03*
X0015558Y0061718D03*
X0016846Y0052896D03*
X0015178Y0054936D03*
X0016046Y0054110D03*
X0013716Y0060638D03*
X0013716Y0061654D03*
X0016383Y0049970D03*
X0013970Y0059495D03*
D11*
X0031750Y0057019D02*
X0033084Y0057019D01*
X0033084Y0057019D02*
X0033147Y0056955D01*
X0034417Y0064131D02*
X0034417Y0063305D01*
X0034417Y0063305D02*
X0033465Y0062353D01*
X0037211Y0063115D02*
X0037148Y0063115D01*
X0037148Y0063115D02*
X0036132Y0064131D01*
X0035941Y0060511D02*
X0036195Y0060511D01*
X0036195Y0060511D02*
X0037148Y0061464D01*
X0035440Y0062226D02*
X0035440Y0061788D01*
X0035440Y0061788D02*
X0034290Y0060638D01*
X0028956Y0051240D02*
X0028956Y0053018D01*
X0028956Y0053018D02*
X0030226Y0054288D01*
X0023876Y0050859D02*
X0025019Y0050859D01*
X0023495Y0051240D02*
X0022987Y0051748D01*
X0022098Y0052637D02*
X0022987Y0051748D01*
X0026416Y0051240D02*
X0023495Y0051240D01*
X0024257Y0068258D02*
X0024257Y0064575D01*
X0024257Y0064575D02*
X0022479Y0062797D01*
X0018034Y0070798D02*
X0018034Y0067496D01*
X0018034Y0067496D02*
X0018034Y0064448D01*
X0019050Y0065337D02*
X0019050Y0067369D01*
X0015494Y0073338D02*
X0018034Y0070798D01*
X0010668Y0073338D02*
X0015494Y0073338D01*
X0008901Y0071571D02*
X0010668Y0073338D01*
X0007004Y0070817D02*
X0007758Y0071571D01*
X0007758Y0071571D02*
X0008901Y0071571D01*
X0005969Y0070417D02*
X0006369Y0070817D01*
X0006369Y0070817D02*
X0007004Y0070817D01*
X0003429Y0070417D02*
X0005969Y0070417D01*
X0005969Y0061908D02*
X0003429Y0061908D01*
X0019177Y0059114D02*
X0019177Y0058352D01*
X0019177Y0058352D02*
X0018923Y0058098D01*
X0015558Y0061718D02*
X0027432Y0061718D01*
X0027432Y0061718D02*
X0027940Y0062226D01*
X0027513Y0061724D02*
X0028321Y0062532D01*
X0022479Y0044128D02*
X0022479Y0044208D01*
X0022479Y0044208D02*
X0021181Y0045506D01*
X0021181Y0045506D02*
X0021181Y0048561D01*
X0021181Y0048561D02*
X0017246Y0052496D01*
X0017246Y0052496D02*
X0016846Y0052896D01*
X0015178Y0054936D02*
X0015178Y0052510D01*
X0017399Y0044128D02*
X0016237Y0044128D01*
X0016237Y0044128D02*
X0016237Y0048640D01*
X0016599Y0050770D02*
X0015178Y0052191D01*
X0016237Y0048640D02*
X0017183Y0049586D01*
X0017183Y0049586D02*
X0017183Y0050354D01*
X0017183Y0050354D02*
X0016767Y0050770D01*
X0016767Y0050770D02*
X0016599Y0050770D01*
X0015178Y0052191D02*
X0015178Y0052510D01*
X0019939Y0044128D02*
X0018777Y0044128D01*
X0018777Y0044128D02*
X0018561Y0044344D01*
X0018561Y0044344D02*
X0018561Y0049825D01*
X0018561Y0049825D02*
X0017016Y0051370D01*
X0016046Y0052172D02*
X0016046Y0054110D01*
X0017016Y0051370D02*
X0016848Y0051370D01*
X0016848Y0051370D02*
X0016046Y0052172D01*
X0013716Y0060638D02*
X0013170Y0060092D01*
X0013170Y0060092D02*
X0013170Y0049519D01*
X0013170Y0049519D02*
X0014859Y0047830D01*
X0014859Y0047830D02*
X0014859Y0046668D01*
X0013716Y0061654D02*
X0013150Y0061654D01*
X0013150Y0061654D02*
X0012319Y0060823D01*
X0012319Y0060823D02*
X0012319Y0047830D01*
X0012319Y0047830D02*
X0012319Y0046668D01*
X0013970Y0059495D02*
X0013970Y0052383D01*
X0013970Y0052383D02*
X0016383Y0049970D01*
D16*
G36*
X0039782Y0040160D02*
X0000350Y0040160D01*
X0000350Y0043824D01*
X0000725Y0043824D01*
X0001348Y0042317D01*
X0002501Y0041162D01*
X0004007Y0040537D01*
X0005638Y0040535D01*
X0007145Y0041158D01*
X0008300Y0042311D01*
X0008925Y0043817D01*
X0008926Y0044890D01*
X0011251Y0044890D01*
X0011251Y0043366D01*
X0011272Y0043255D01*
X0011338Y0043153D01*
X0011438Y0043084D01*
X0011557Y0043060D01*
X0013081Y0043060D01*
X0013192Y0043081D01*
X0013294Y0043147D01*
X0013363Y0043247D01*
X0013387Y0043366D01*
X0013387Y0044890D01*
X0013366Y0045001D01*
X0013300Y0045103D01*
X0013200Y0045172D01*
X0013081Y0045196D01*
X0011557Y0045196D01*
X0011446Y0045175D01*
X0011344Y0045109D01*
X0011275Y0045009D01*
X0011251Y0044890D01*
X0008926Y0044890D01*
X0008927Y0045448D01*
X0008304Y0046955D01*
X0007151Y0048110D01*
X0005645Y0048735D01*
X0004014Y0048737D01*
X0002507Y0048114D01*
X0001352Y0046961D01*
X0000727Y0045455D01*
X0000725Y0043824D01*
X0000350Y0043824D01*
X0000350Y0059495D01*
X0002695Y0059495D01*
X0002695Y0055685D01*
X0002716Y0055574D01*
X0002782Y0055472D01*
X0002882Y0055403D01*
X0003001Y0055379D01*
X0006811Y0055379D01*
X0006922Y0055400D01*
X0007024Y0055466D01*
X0007093Y0055566D01*
X0007117Y0055685D01*
X0007117Y0059495D01*
X0007695Y0059495D01*
X0007695Y0055685D01*
X0007716Y0055574D01*
X0007782Y0055472D01*
X0007882Y0055403D01*
X0008001Y0055379D01*
X0011811Y0055379D01*
X0011819Y0055381D01*
X0011819Y0047736D01*
X0011557Y0047736D01*
X0011446Y0047715D01*
X0011344Y0047649D01*
X0011275Y0047549D01*
X0011251Y0047430D01*
X0011251Y0045906D01*
X0011272Y0045795D01*
X0011338Y0045693D01*
X0011438Y0045624D01*
X0011557Y0045600D01*
X0013081Y0045600D01*
X0013192Y0045621D01*
X0013294Y0045687D01*
X0013363Y0045787D01*
X0013387Y0045906D01*
X0013387Y0047430D01*
X0013366Y0047541D01*
X0013300Y0047643D01*
X0013200Y0047712D01*
X0013081Y0047736D01*
X0012819Y0047736D01*
X0012819Y0049163D01*
X0014246Y0047736D01*
X0014097Y0047736D01*
X0013986Y0047715D01*
X0013884Y0047649D01*
X0013815Y0047549D01*
X0013791Y0047430D01*
X0013791Y0045906D01*
X0013812Y0045795D01*
X0013878Y0045693D01*
X0013978Y0045624D01*
X0014097Y0045600D01*
X0015621Y0045600D01*
X0015732Y0045621D01*
X0015737Y0045624D01*
X0015737Y0045172D01*
X0015621Y0045196D01*
X0014097Y0045196D01*
X0013986Y0045175D01*
X0013884Y0045109D01*
X0013815Y0045009D01*
X0013791Y0044890D01*
X0013791Y0043366D01*
X0013812Y0043255D01*
X0013878Y0043153D01*
X0013978Y0043084D01*
X0014097Y0043060D01*
X0015621Y0043060D01*
X0015732Y0043081D01*
X0015834Y0043147D01*
X0015903Y0043247D01*
X0015927Y0043366D01*
X0015927Y0043745D01*
X0016046Y0043666D01*
X0016237Y0043628D01*
X0016331Y0043628D01*
X0016331Y0043366D01*
X0016352Y0043255D01*
X0016418Y0043153D01*
X0016518Y0043084D01*
X0016637Y0043060D01*
X0018161Y0043060D01*
X0018272Y0043081D01*
X0018374Y0043147D01*
X0018443Y0043247D01*
X0018467Y0043366D01*
X0018467Y0043745D01*
X0018521Y0043709D01*
X0018586Y0043666D01*
X0018777Y0043628D01*
X0018871Y0043628D01*
X0018871Y0043366D01*
X0018892Y0043255D01*
X0018958Y0043153D01*
X0019058Y0043084D01*
X0019177Y0043060D01*
X0020701Y0043060D01*
X0020812Y0043081D01*
X0020914Y0043147D01*
X0020983Y0043247D01*
X0021007Y0043366D01*
X0021007Y0044890D01*
X0020988Y0044992D01*
X0021411Y0044569D01*
X0021411Y0043366D01*
X0021432Y0043255D01*
X0021498Y0043153D01*
X0021598Y0043084D01*
X0021717Y0043060D01*
X0023241Y0043060D01*
X0023352Y0043081D01*
X0023454Y0043147D01*
X0023523Y0043247D01*
X0023547Y0043366D01*
X0023547Y0043824D01*
X0031205Y0043824D01*
X0031828Y0042317D01*
X0032981Y0041162D01*
X0034487Y0040537D01*
X0036118Y0040535D01*
X0037625Y0041158D01*
X0038780Y0042311D01*
X0039405Y0043817D01*
X0039407Y0045448D01*
X0038784Y0046955D01*
X0037631Y0048110D01*
X0036125Y0048735D01*
X0034494Y0048737D01*
X0032987Y0048114D01*
X0031832Y0046961D01*
X0031207Y0045455D01*
X0031205Y0043824D01*
X0023547Y0043824D01*
X0023547Y0044890D01*
X0023526Y0045001D01*
X0023460Y0045103D01*
X0023360Y0045172D01*
X0023241Y0045196D01*
X0022198Y0045196D01*
X0021794Y0045600D01*
X0023241Y0045600D01*
X0023352Y0045621D01*
X0023454Y0045687D01*
X0023523Y0045787D01*
X0023547Y0045906D01*
X0023547Y0047430D01*
X0023526Y0047541D01*
X0023460Y0047643D01*
X0023360Y0047712D01*
X0023241Y0047736D01*
X0021717Y0047736D01*
X0021681Y0047729D01*
X0021681Y0048561D01*
X0021643Y0048752D01*
X0021535Y0048914D01*
X0020987Y0049462D01*
X0025348Y0049462D01*
X0025348Y0047938D01*
X0025369Y0047827D01*
X0025435Y0047725D01*
X0025535Y0047656D01*
X0025654Y0047632D01*
X0027178Y0047632D01*
X0027289Y0047653D01*
X0027391Y0047719D01*
X0027460Y0047819D01*
X0027484Y0047938D01*
X0027484Y0049462D01*
X0027888Y0049462D01*
X0027888Y0047938D01*
X0027909Y0047827D01*
X0027975Y0047725D01*
X0028075Y0047656D01*
X0028194Y0047632D01*
X0029718Y0047632D01*
X0029829Y0047653D01*
X0029931Y0047719D01*
X0030000Y0047819D01*
X0030024Y0047938D01*
X0030024Y0049462D01*
X0030003Y0049573D01*
X0029937Y0049675D01*
X0029837Y0049744D01*
X0029718Y0049768D01*
X0028194Y0049768D01*
X0028083Y0049747D01*
X0027981Y0049681D01*
X0027912Y0049581D01*
X0027888Y0049462D01*
X0027484Y0049462D01*
X0027463Y0049573D01*
X0027397Y0049675D01*
X0027297Y0049744D01*
X0027178Y0049768D01*
X0025654Y0049768D01*
X0025543Y0049747D01*
X0025441Y0049681D01*
X0025372Y0049581D01*
X0025348Y0049462D01*
X0020987Y0049462D01*
X0017546Y0052903D01*
X0017546Y0053035D01*
X0017439Y0053292D01*
X0017243Y0053489D01*
X0016986Y0053596D01*
X0016707Y0053596D01*
X0016546Y0053530D01*
X0016546Y0053620D01*
X0016639Y0053713D01*
X0016746Y0053971D01*
X0016746Y0054249D01*
X0016639Y0054506D01*
X0016443Y0054704D01*
X0016186Y0054810D01*
X0015907Y0054811D01*
X0015878Y0054799D01*
X0015878Y0055075D01*
X0015772Y0055332D01*
X0015575Y0055529D01*
X0015318Y0055636D01*
X0015039Y0055636D01*
X0014782Y0055530D01*
X0014585Y0055333D01*
X0014478Y0055076D01*
X0014478Y0054797D01*
X0014584Y0054540D01*
X0014678Y0054446D01*
X0014678Y0052382D01*
X0014470Y0052590D01*
X0014470Y0059005D01*
X0014563Y0059098D01*
X0014670Y0059355D01*
X0014670Y0059634D01*
X0014564Y0059891D01*
X0014367Y0060088D01*
X0014218Y0060150D01*
X0014309Y0060241D01*
X0014416Y0060498D01*
X0014416Y0060777D01*
X0014310Y0061034D01*
X0014198Y0061146D01*
X0014309Y0061257D01*
X0014416Y0061514D01*
X0014416Y0061579D01*
X0014857Y0061579D01*
X0014964Y0061322D01*
X0015160Y0061124D01*
X0015418Y0061018D01*
X0015696Y0061017D01*
X0015954Y0061124D01*
X0016047Y0061218D01*
X0027432Y0061218D01*
X0027490Y0061229D01*
X0027513Y0061224D01*
X0027705Y0061262D01*
X0027716Y0061270D01*
X0028590Y0061270D01*
X0028701Y0061291D01*
X0028803Y0061356D01*
X0028872Y0061456D01*
X0028896Y0061576D01*
X0028896Y0062876D01*
X0028875Y0062987D01*
X0028809Y0063089D01*
X0028709Y0063157D01*
X0028590Y0063181D01*
X0027290Y0063181D01*
X0027179Y0063160D01*
X0027077Y0063095D01*
X0027008Y0062995D01*
X0026984Y0062876D01*
X0026984Y0062218D01*
X0016047Y0062218D01*
X0015955Y0062311D01*
X0015697Y0062417D01*
X0015419Y0062418D01*
X0015162Y0062311D01*
X0014964Y0062115D01*
X0014858Y0061857D01*
X0014857Y0061579D01*
X0014416Y0061579D01*
X0014416Y0061793D01*
X0014310Y0062050D01*
X0014113Y0062247D01*
X0013856Y0062354D01*
X0013577Y0062354D01*
X0013320Y0062248D01*
X0013226Y0062154D01*
X0013150Y0062154D01*
X0012959Y0062116D01*
X0012797Y0062008D01*
X0011965Y0061176D01*
X0011857Y0061014D01*
X0011819Y0060823D01*
X0011819Y0059799D01*
X0011811Y0059801D01*
X0008001Y0059801D01*
X0007890Y0059780D01*
X0007788Y0059714D01*
X0007719Y0059614D01*
X0007695Y0059495D01*
X0007117Y0059495D01*
X0007096Y0059606D01*
X0007030Y0059708D01*
X0006930Y0059777D01*
X0006811Y0059801D01*
X0003001Y0059801D01*
X0002890Y0059780D01*
X0002788Y0059714D01*
X0002719Y0059614D01*
X0002695Y0059495D01*
X0000350Y0059495D01*
X0000350Y0066988D01*
X0002361Y0066988D01*
X0002361Y0065464D01*
X0002382Y0065353D01*
X0002448Y0065251D01*
X0002548Y0065182D01*
X0002667Y0065158D01*
X0004191Y0065158D01*
X0004302Y0065179D01*
X0004404Y0065245D01*
X0004473Y0065345D01*
X0004497Y0065464D01*
X0004497Y0066988D01*
X0004901Y0066988D01*
X0004901Y0065464D01*
X0004922Y0065353D01*
X0004988Y0065251D01*
X0005088Y0065182D01*
X0005207Y0065158D01*
X0006731Y0065158D01*
X0006842Y0065179D01*
X0006944Y0065245D01*
X0007013Y0065345D01*
X0007037Y0065464D01*
X0007037Y0066988D01*
X0007016Y0067099D01*
X0006950Y0067201D01*
X0006850Y0067270D01*
X0006731Y0067294D01*
X0005207Y0067294D01*
X0005096Y0067273D01*
X0004994Y0067207D01*
X0004925Y0067107D01*
X0004901Y0066988D01*
X0004497Y0066988D01*
X0004476Y0067099D01*
X0004410Y0067201D01*
X0004310Y0067270D01*
X0004191Y0067294D01*
X0002667Y0067294D01*
X0002556Y0067273D01*
X0002454Y0067207D01*
X0002385Y0067107D01*
X0002361Y0066988D01*
X0000350Y0066988D01*
X0000350Y0074304D01*
X0000725Y0074304D01*
X0001348Y0072797D01*
X0002501Y0071642D01*
X0004007Y0071017D01*
X0005638Y0071015D01*
X0006532Y0071385D01*
X0012189Y0071385D01*
X0012189Y0070085D01*
X0012210Y0069973D01*
X0012275Y0069871D01*
X0012375Y0069803D01*
X0012495Y0069779D01*
X0013795Y0069779D01*
X0013906Y0069800D01*
X0014008Y0069865D01*
X0014076Y0069965D01*
X0014100Y0070085D01*
X0014100Y0070546D01*
X0019694Y0070546D01*
X0019839Y0070197D01*
X0020106Y0069930D01*
X0020455Y0069785D01*
X0020833Y0069784D01*
X0021182Y0069929D01*
X0021449Y0070196D01*
X0021594Y0070545D01*
X0021595Y0070923D01*
X0021450Y0071272D01*
X0021183Y0071539D01*
X0020834Y0071684D01*
X0020456Y0071685D01*
X0020107Y0071540D01*
X0019840Y0071273D01*
X0019695Y0070924D01*
X0019694Y0070546D01*
X0014100Y0070546D01*
X0014100Y0071385D01*
X0014079Y0071496D01*
X0014014Y0071598D01*
X0013914Y0071666D01*
X0013795Y0071690D01*
X0012495Y0071690D01*
X0012383Y0071669D01*
X0012281Y0071604D01*
X0012213Y0071504D01*
X0012189Y0071385D01*
X0006532Y0071385D01*
X0007145Y0071638D01*
X0008300Y0072791D01*
X0008925Y0074297D01*
X0008925Y0074304D01*
X0031205Y0074304D01*
X0031828Y0072797D01*
X0032981Y0071642D01*
X0034487Y0071017D01*
X0036118Y0071015D01*
X0037625Y0071638D01*
X0038780Y0072791D01*
X0039405Y0074297D01*
X0039407Y0075928D01*
X0038784Y0077435D01*
X0037631Y0078590D01*
X0036125Y0079215D01*
X0034494Y0079217D01*
X0032987Y0078594D01*
X0031832Y0077441D01*
X0031207Y0075935D01*
X0031205Y0074304D01*
X0008925Y0074304D01*
X0008927Y0075928D01*
X0008304Y0077435D01*
X0007151Y0078590D01*
X0005645Y0079215D01*
X0004014Y0079217D01*
X0002507Y0078594D01*
X0001352Y0077441D01*
X0000727Y0075935D01*
X0000725Y0074304D01*
X0000350Y0074304D01*
X0000350Y0079592D01*
X0039782Y0079592D01*
X0039782Y0040160D01*
X0039782Y0040160D01*
G37*
X0039782Y0040160D02*
X0000350Y0040160D01*
X0000350Y0043824D01*
X0000725Y0043824D01*
X0001348Y0042317D01*
X0002501Y0041162D01*
X0004007Y0040537D01*
X0005638Y0040535D01*
X0007145Y0041158D01*
X0008300Y0042311D01*
X0008925Y0043817D01*
X0008926Y0044890D01*
X0011251Y0044890D01*
X0011251Y0043366D01*
X0011272Y0043255D01*
X0011338Y0043153D01*
X0011438Y0043084D01*
X0011557Y0043060D01*
X0013081Y0043060D01*
X0013192Y0043081D01*
X0013294Y0043147D01*
X0013363Y0043247D01*
X0013387Y0043366D01*
X0013387Y0044890D01*
X0013366Y0045001D01*
X0013300Y0045103D01*
X0013200Y0045172D01*
X0013081Y0045196D01*
X0011557Y0045196D01*
X0011446Y0045175D01*
X0011344Y0045109D01*
X0011275Y0045009D01*
X0011251Y0044890D01*
X0008926Y0044890D01*
X0008927Y0045448D01*
X0008304Y0046955D01*
X0007151Y0048110D01*
X0005645Y0048735D01*
X0004014Y0048737D01*
X0002507Y0048114D01*
X0001352Y0046961D01*
X0000727Y0045455D01*
X0000725Y0043824D01*
X0000350Y0043824D01*
X0000350Y0059495D01*
X0002695Y0059495D01*
X0002695Y0055685D01*
X0002716Y0055574D01*
X0002782Y0055472D01*
X0002882Y0055403D01*
X0003001Y0055379D01*
X0006811Y0055379D01*
X0006922Y0055400D01*
X0007024Y0055466D01*
X0007093Y0055566D01*
X0007117Y0055685D01*
X0007117Y0059495D01*
X0007695Y0059495D01*
X0007695Y0055685D01*
X0007716Y0055574D01*
X0007782Y0055472D01*
X0007882Y0055403D01*
X0008001Y0055379D01*
X0011811Y0055379D01*
X0011819Y0055381D01*
X0011819Y0047736D01*
X0011557Y0047736D01*
X0011446Y0047715D01*
X0011344Y0047649D01*
X0011275Y0047549D01*
X0011251Y0047430D01*
X0011251Y0045906D01*
X0011272Y0045795D01*
X0011338Y0045693D01*
X0011438Y0045624D01*
X0011557Y0045600D01*
X0013081Y0045600D01*
X0013192Y0045621D01*
X0013294Y0045687D01*
X0013363Y0045787D01*
X0013387Y0045906D01*
X0013387Y0047430D01*
X0013366Y0047541D01*
X0013300Y0047643D01*
X0013200Y0047712D01*
X0013081Y0047736D01*
X0012819Y0047736D01*
X0012819Y0049163D01*
X0014246Y0047736D01*
X0014097Y0047736D01*
X0013986Y0047715D01*
X0013884Y0047649D01*
X0013815Y0047549D01*
X0013791Y0047430D01*
X0013791Y0045906D01*
X0013812Y0045795D01*
X0013878Y0045693D01*
X0013978Y0045624D01*
X0014097Y0045600D01*
X0015621Y0045600D01*
X0015732Y0045621D01*
X0015737Y0045624D01*
X0015737Y0045172D01*
X0015621Y0045196D01*
X0014097Y0045196D01*
X0013986Y0045175D01*
X0013884Y0045109D01*
X0013815Y0045009D01*
X0013791Y0044890D01*
X0013791Y0043366D01*
X0013812Y0043255D01*
X0013878Y0043153D01*
X0013978Y0043084D01*
X0014097Y0043060D01*
X0015621Y0043060D01*
X0015732Y0043081D01*
X0015834Y0043147D01*
X0015903Y0043247D01*
X0015927Y0043366D01*
X0015927Y0043745D01*
X0016046Y0043666D01*
X0016237Y0043628D01*
X0016331Y0043628D01*
X0016331Y0043366D01*
X0016352Y0043255D01*
X0016418Y0043153D01*
X0016518Y0043084D01*
X0016637Y0043060D01*
X0018161Y0043060D01*
X0018272Y0043081D01*
X0018374Y0043147D01*
X0018443Y0043247D01*
X0018467Y0043366D01*
X0018467Y0043745D01*
X0018521Y0043709D01*
X0018586Y0043666D01*
X0018777Y0043628D01*
X0018871Y0043628D01*
X0018871Y0043366D01*
X0018892Y0043255D01*
X0018958Y0043153D01*
X0019058Y0043084D01*
X0019177Y0043060D01*
X0020701Y0043060D01*
X0020812Y0043081D01*
X0020914Y0043147D01*
X0020983Y0043247D01*
X0021007Y0043366D01*
X0021007Y0044890D01*
X0020988Y0044992D01*
X0021411Y0044569D01*
X0021411Y0043366D01*
X0021432Y0043255D01*
X0021498Y0043153D01*
X0021598Y0043084D01*
X0021717Y0043060D01*
X0023241Y0043060D01*
X0023352Y0043081D01*
X0023454Y0043147D01*
X0023523Y0043247D01*
X0023547Y0043366D01*
X0023547Y0043824D01*
X0031205Y0043824D01*
X0031828Y0042317D01*
X0032981Y0041162D01*
X0034487Y0040537D01*
X0036118Y0040535D01*
X0037625Y0041158D01*
X0038780Y0042311D01*
X0039405Y0043817D01*
X0039407Y0045448D01*
X0038784Y0046955D01*
X0037631Y0048110D01*
X0036125Y0048735D01*
X0034494Y0048737D01*
X0032987Y0048114D01*
X0031832Y0046961D01*
X0031207Y0045455D01*
X0031205Y0043824D01*
X0023547Y0043824D01*
X0023547Y0044890D01*
X0023526Y0045001D01*
X0023460Y0045103D01*
X0023360Y0045172D01*
X0023241Y0045196D01*
X0022198Y0045196D01*
X0021794Y0045600D01*
X0023241Y0045600D01*
X0023352Y0045621D01*
X0023454Y0045687D01*
X0023523Y0045787D01*
X0023547Y0045906D01*
X0023547Y0047430D01*
X0023526Y0047541D01*
X0023460Y0047643D01*
X0023360Y0047712D01*
X0023241Y0047736D01*
X0021717Y0047736D01*
X0021681Y0047729D01*
X0021681Y0048561D01*
X0021643Y0048752D01*
X0021535Y0048914D01*
X0020987Y0049462D01*
X0025348Y0049462D01*
X0025348Y0047938D01*
X0025369Y0047827D01*
X0025435Y0047725D01*
X0025535Y0047656D01*
X0025654Y0047632D01*
X0027178Y0047632D01*
X0027289Y0047653D01*
X0027391Y0047719D01*
X0027460Y0047819D01*
X0027484Y0047938D01*
X0027484Y0049462D01*
X0027888Y0049462D01*
X0027888Y0047938D01*
X0027909Y0047827D01*
X0027975Y0047725D01*
X0028075Y0047656D01*
X0028194Y0047632D01*
X0029718Y0047632D01*
X0029829Y0047653D01*
X0029931Y0047719D01*
X0030000Y0047819D01*
X0030024Y0047938D01*
X0030024Y0049462D01*
X0030003Y0049573D01*
X0029937Y0049675D01*
X0029837Y0049744D01*
X0029718Y0049768D01*
X0028194Y0049768D01*
X0028083Y0049747D01*
X0027981Y0049681D01*
X0027912Y0049581D01*
X0027888Y0049462D01*
X0027484Y0049462D01*
X0027463Y0049573D01*
X0027397Y0049675D01*
X0027297Y0049744D01*
X0027178Y0049768D01*
X0025654Y0049768D01*
X0025543Y0049747D01*
X0025441Y0049681D01*
X0025372Y0049581D01*
X0025348Y0049462D01*
X0020987Y0049462D01*
X0017546Y0052903D01*
X0017546Y0053035D01*
X0017439Y0053292D01*
X0017243Y0053489D01*
X0016986Y0053596D01*
X0016707Y0053596D01*
X0016546Y0053530D01*
X0016546Y0053620D01*
X0016639Y0053713D01*
X0016746Y0053971D01*
X0016746Y0054249D01*
X0016639Y0054506D01*
X0016443Y0054704D01*
X0016186Y0054810D01*
X0015907Y0054811D01*
X0015878Y0054799D01*
X0015878Y0055075D01*
X0015772Y0055332D01*
X0015575Y0055529D01*
X0015318Y0055636D01*
X0015039Y0055636D01*
X0014782Y0055530D01*
X0014585Y0055333D01*
X0014478Y0055076D01*
X0014478Y0054797D01*
X0014584Y0054540D01*
X0014678Y0054446D01*
X0014678Y0052382D01*
X0014470Y0052590D01*
X0014470Y0059005D01*
X0014563Y0059098D01*
X0014670Y0059355D01*
X0014670Y0059634D01*
X0014564Y0059891D01*
X0014367Y0060088D01*
X0014218Y0060150D01*
X0014309Y0060241D01*
X0014416Y0060498D01*
X0014416Y0060777D01*
X0014310Y0061034D01*
X0014198Y0061146D01*
X0014309Y0061257D01*
X0014416Y0061514D01*
X0014416Y0061579D01*
X0014857Y0061579D01*
X0014964Y0061322D01*
X0015160Y0061124D01*
X0015418Y0061018D01*
X0015696Y0061017D01*
X0015954Y0061124D01*
X0016047Y0061218D01*
X0027432Y0061218D01*
X0027490Y0061229D01*
X0027513Y0061224D01*
X0027705Y0061262D01*
X0027716Y0061270D01*
X0028590Y0061270D01*
X0028701Y0061291D01*
X0028803Y0061356D01*
X0028872Y0061456D01*
X0028896Y0061576D01*
X0028896Y0062876D01*
X0028875Y0062987D01*
X0028809Y0063089D01*
X0028709Y0063157D01*
X0028590Y0063181D01*
X0027290Y0063181D01*
X0027179Y0063160D01*
X0027077Y0063095D01*
X0027008Y0062995D01*
X0026984Y0062876D01*
X0026984Y0062218D01*
X0016047Y0062218D01*
X0015955Y0062311D01*
X0015697Y0062417D01*
X0015419Y0062418D01*
X0015162Y0062311D01*
X0014964Y0062115D01*
X0014858Y0061857D01*
X0014857Y0061579D01*
X0014416Y0061579D01*
X0014416Y0061793D01*
X0014310Y0062050D01*
X0014113Y0062247D01*
X0013856Y0062354D01*
X0013577Y0062354D01*
X0013320Y0062248D01*
X0013226Y0062154D01*
X0013150Y0062154D01*
X0012959Y0062116D01*
X0012797Y0062008D01*
X0011965Y0061176D01*
X0011857Y0061014D01*
X0011819Y0060823D01*
X0011819Y0059799D01*
X0011811Y0059801D01*
X0008001Y0059801D01*
X0007890Y0059780D01*
X0007788Y0059714D01*
X0007719Y0059614D01*
X0007695Y0059495D01*
X0007117Y0059495D01*
X0007096Y0059606D01*
X0007030Y0059708D01*
X0006930Y0059777D01*
X0006811Y0059801D01*
X0003001Y0059801D01*
X0002890Y0059780D01*
X0002788Y0059714D01*
X0002719Y0059614D01*
X0002695Y0059495D01*
X0000350Y0059495D01*
X0000350Y0066988D01*
X0002361Y0066988D01*
X0002361Y0065464D01*
X0002382Y0065353D01*
X0002448Y0065251D01*
X0002548Y0065182D01*
X0002667Y0065158D01*
X0004191Y0065158D01*
X0004302Y0065179D01*
X0004404Y0065245D01*
X0004473Y0065345D01*
X0004497Y0065464D01*
X0004497Y0066988D01*
X0004901Y0066988D01*
X0004901Y0065464D01*
X0004922Y0065353D01*
X0004988Y0065251D01*
X0005088Y0065182D01*
X0005207Y0065158D01*
X0006731Y0065158D01*
X0006842Y0065179D01*
X0006944Y0065245D01*
X0007013Y0065345D01*
X0007037Y0065464D01*
X0007037Y0066988D01*
X0007016Y0067099D01*
X0006950Y0067201D01*
X0006850Y0067270D01*
X0006731Y0067294D01*
X0005207Y0067294D01*
X0005096Y0067273D01*
X0004994Y0067207D01*
X0004925Y0067107D01*
X0004901Y0066988D01*
X0004497Y0066988D01*
X0004476Y0067099D01*
X0004410Y0067201D01*
X0004310Y0067270D01*
X0004191Y0067294D01*
X0002667Y0067294D01*
X0002556Y0067273D01*
X0002454Y0067207D01*
X0002385Y0067107D01*
X0002361Y0066988D01*
X0000350Y0066988D01*
X0000350Y0074304D01*
X0000725Y0074304D01*
X0001348Y0072797D01*
X0002501Y0071642D01*
X0004007Y0071017D01*
X0005638Y0071015D01*
X0006532Y0071385D01*
X0012189Y0071385D01*
X0012189Y0070085D01*
X0012210Y0069973D01*
X0012275Y0069871D01*
X0012375Y0069803D01*
X0012495Y0069779D01*
X0013795Y0069779D01*
X0013906Y0069800D01*
X0014008Y0069865D01*
X0014076Y0069965D01*
X0014100Y0070085D01*
X0014100Y0070546D01*
X0019694Y0070546D01*
X0019839Y0070197D01*
X0020106Y0069930D01*
X0020455Y0069785D01*
X0020833Y0069784D01*
X0021182Y0069929D01*
X0021449Y0070196D01*
X0021594Y0070545D01*
X0021595Y0070923D01*
X0021450Y0071272D01*
X0021183Y0071539D01*
X0020834Y0071684D01*
X0020456Y0071685D01*
X0020107Y0071540D01*
X0019840Y0071273D01*
X0019695Y0070924D01*
X0019694Y0070546D01*
X0014100Y0070546D01*
X0014100Y0071385D01*
X0014079Y0071496D01*
X0014014Y0071598D01*
X0013914Y0071666D01*
X0013795Y0071690D01*
X0012495Y0071690D01*
X0012383Y0071669D01*
X0012281Y0071604D01*
X0012213Y0071504D01*
X0012189Y0071385D01*
X0006532Y0071385D01*
X0007145Y0071638D01*
X0008300Y0072791D01*
X0008925Y0074297D01*
X0008925Y0074304D01*
X0031205Y0074304D01*
X0031828Y0072797D01*
X0032981Y0071642D01*
X0034487Y0071017D01*
X0036118Y0071015D01*
X0037625Y0071638D01*
X0038780Y0072791D01*
X0039405Y0074297D01*
X0039407Y0075928D01*
X0038784Y0077435D01*
X0037631Y0078590D01*
X0036125Y0079215D01*
X0034494Y0079217D01*
X0032987Y0078594D01*
X0031832Y0077441D01*
X0031207Y0075935D01*
X0031205Y0074304D01*
X0008925Y0074304D01*
X0008927Y0075928D01*
X0008304Y0077435D01*
X0007151Y0078590D01*
X0005645Y0079215D01*
X0004014Y0079217D01*
X0002507Y0078594D01*
X0001352Y0077441D01*
X0000727Y0075935D01*
X0000725Y0074304D01*
X0000350Y0074304D01*
X0000350Y0079592D01*
X0039782Y0079592D01*
X0039782Y0040160D01*
M02*
