G75*
G71*
%MOMM*%
%OFA0B0*%
%FSLAX53Y53*%
%IPPOS*%
%LPD*%
%ADD15C,3.10000*%
%ADD20C,6.40000*%
%ADD21R,4.21000X4.21000*%
%ADD22R,1.92400X1.92400*%
X0000000Y0000000D02*
%LPD*%
G01*
D22*
X0018796Y0036830D03*
X0018796Y0034290D03*
X0016256Y0036830D03*
X0016256Y0034290D03*
X0013716Y0036830D03*
X0013716Y0034290D03*
X0011176Y0036830D03*
X0011176Y0034290D03*
X0016002Y0007366D03*
X0016002Y0004826D03*
X0016002Y0002286D03*
X0018542Y0007366D03*
X0021082Y0007366D03*
X0018542Y0004826D03*
X0021082Y0004826D03*
X0018542Y0002286D03*
X0021082Y0002286D03*
X0059436Y0035814D03*
X0061976Y0035814D03*
X0059436Y0033274D03*
X0061976Y0033274D03*
X0059436Y0030734D03*
X0061976Y0030734D03*
X0061976Y0017526D03*
X0059436Y0017526D03*
X0061976Y0020066D03*
X0059436Y0020066D03*
X0061976Y0022606D03*
X0059436Y0022606D03*
X0059436Y0009398D03*
X0061976Y0009398D03*
X0059436Y0006858D03*
X0061976Y0006858D03*
X0059436Y0004318D03*
X0061976Y0004318D03*
D20*
X0004826Y0035306D03*
X0086106Y0035306D03*
X0004826Y0004826D03*
X0086106Y0004826D03*
D21*
X0005414Y0027686D03*
X0010414Y0027686D03*
X0010414Y0022606D03*
X0005414Y0022606D03*
X0076374Y0032766D03*
X0071374Y0032766D03*
X0071374Y0027686D03*
X0076374Y0027686D03*
X0076374Y0022606D03*
X0071374Y0022606D03*
X0071374Y0017526D03*
X0076374Y0017526D03*
X0076374Y0012446D03*
X0071374Y0012446D03*
X0071374Y0007366D03*
X0076374Y0007366D03*
D15*
X0023622Y0035814D03*
X0086106Y0027686D03*
X0086074Y0022606D03*
X0086106Y0017526D03*
X0000000Y0040130D02*
%LPD*%
G01*
D22*
X0018796Y0076960D03*
X0018796Y0074420D03*
X0016256Y0076960D03*
X0016256Y0074420D03*
X0013716Y0076960D03*
X0013716Y0074420D03*
X0011176Y0076960D03*
X0011176Y0074420D03*
X0016002Y0047496D03*
X0016002Y0044956D03*
X0016002Y0042416D03*
X0018542Y0047496D03*
X0021082Y0047496D03*
X0018542Y0044956D03*
X0021082Y0044956D03*
X0018542Y0042416D03*
X0021082Y0042416D03*
X0059436Y0075944D03*
X0061976Y0075944D03*
X0059436Y0073404D03*
X0061976Y0073404D03*
X0059436Y0070864D03*
X0061976Y0070864D03*
X0061976Y0057656D03*
X0059436Y0057656D03*
X0061976Y0060196D03*
X0059436Y0060196D03*
X0061976Y0062736D03*
X0059436Y0062736D03*
X0059436Y0049528D03*
X0061976Y0049528D03*
X0059436Y0046988D03*
X0061976Y0046988D03*
X0059436Y0044448D03*
X0061976Y0044448D03*
D20*
X0004826Y0075436D03*
X0086106Y0075436D03*
X0004826Y0044956D03*
X0086106Y0044956D03*
D21*
X0005414Y0067816D03*
X0010414Y0067816D03*
X0010414Y0062736D03*
X0005414Y0062736D03*
X0076374Y0072896D03*
X0071374Y0072896D03*
X0071374Y0067816D03*
X0076374Y0067816D03*
X0076374Y0062736D03*
X0071374Y0062736D03*
X0071374Y0057656D03*
X0076374Y0057656D03*
X0076374Y0052576D03*
X0071374Y0052576D03*
X0071374Y0047496D03*
X0076374Y0047496D03*
D15*
X0023622Y0075944D03*
X0086106Y0067816D03*
X0086074Y0062736D03*
X0086106Y0057656D03*
X0090930Y0000000D02*
%LPD*%
G01*
D22*
X0109726Y0036830D03*
X0109726Y0034290D03*
X0107186Y0036830D03*
X0107186Y0034290D03*
X0104646Y0036830D03*
X0104646Y0034290D03*
X0102106Y0036830D03*
X0102106Y0034290D03*
X0106932Y0007366D03*
X0106932Y0004826D03*
X0106932Y0002286D03*
X0109472Y0007366D03*
X0112012Y0007366D03*
X0109472Y0004826D03*
X0112012Y0004826D03*
X0109472Y0002286D03*
X0112012Y0002286D03*
X0150366Y0035814D03*
X0152906Y0035814D03*
X0150366Y0033274D03*
X0152906Y0033274D03*
X0150366Y0030734D03*
X0152906Y0030734D03*
X0152906Y0017526D03*
X0150366Y0017526D03*
X0152906Y0020066D03*
X0150366Y0020066D03*
X0152906Y0022606D03*
X0150366Y0022606D03*
X0150366Y0009398D03*
X0152906Y0009398D03*
X0150366Y0006858D03*
X0152906Y0006858D03*
X0150366Y0004318D03*
X0152906Y0004318D03*
D20*
X0095756Y0035306D03*
X0177036Y0035306D03*
X0095756Y0004826D03*
X0177036Y0004826D03*
D21*
X0096344Y0027686D03*
X0101344Y0027686D03*
X0101344Y0022606D03*
X0096344Y0022606D03*
X0167304Y0032766D03*
X0162304Y0032766D03*
X0162304Y0027686D03*
X0167304Y0027686D03*
X0167304Y0022606D03*
X0162304Y0022606D03*
X0162304Y0017526D03*
X0167304Y0017526D03*
X0167304Y0012446D03*
X0162304Y0012446D03*
X0162304Y0007366D03*
X0167304Y0007366D03*
D15*
X0114552Y0035814D03*
X0177036Y0027686D03*
X0177004Y0022606D03*
X0177036Y0017526D03*
X0090930Y0040130D02*
%LPD*%
G01*
D22*
X0109726Y0076960D03*
X0109726Y0074420D03*
X0107186Y0076960D03*
X0107186Y0074420D03*
X0104646Y0076960D03*
X0104646Y0074420D03*
X0102106Y0076960D03*
X0102106Y0074420D03*
X0106932Y0047496D03*
X0106932Y0044956D03*
X0106932Y0042416D03*
X0109472Y0047496D03*
X0112012Y0047496D03*
X0109472Y0044956D03*
X0112012Y0044956D03*
X0109472Y0042416D03*
X0112012Y0042416D03*
X0150366Y0075944D03*
X0152906Y0075944D03*
X0150366Y0073404D03*
X0152906Y0073404D03*
X0150366Y0070864D03*
X0152906Y0070864D03*
X0152906Y0057656D03*
X0150366Y0057656D03*
X0152906Y0060196D03*
X0150366Y0060196D03*
X0152906Y0062736D03*
X0150366Y0062736D03*
X0150366Y0049528D03*
X0152906Y0049528D03*
X0150366Y0046988D03*
X0152906Y0046988D03*
X0150366Y0044448D03*
X0152906Y0044448D03*
D20*
X0095756Y0075436D03*
X0177036Y0075436D03*
X0095756Y0044956D03*
X0177036Y0044956D03*
D21*
X0096344Y0067816D03*
X0101344Y0067816D03*
X0101344Y0062736D03*
X0096344Y0062736D03*
X0167304Y0072896D03*
X0162304Y0072896D03*
X0162304Y0067816D03*
X0167304Y0067816D03*
X0167304Y0062736D03*
X0162304Y0062736D03*
X0162304Y0057656D03*
X0167304Y0057656D03*
X0167304Y0052576D03*
X0162304Y0052576D03*
X0162304Y0047496D03*
X0167304Y0047496D03*
D15*
X0114552Y0075944D03*
X0177036Y0067816D03*
X0177004Y0062736D03*
X0177036Y0057656D03*
M02*
